<svg xmlns="http://www.w3.org/2000/svg" viewBox="0 0 595.28 41"><defs><style>.cls-1,.cls-4,.cls-7{fill:none;}.cls-2{fill:#483d86;}.cls-3{fill:#5c4da0;}.cls-4{stroke:#8d82bd;}.cls-5{fill:#3d4986;}.cls-6{fill:#4c5ba6;}.cls-7{stroke:#818dc1;}.cls-10,.cls-8{fill:#fff;}.cls-8{fill-opacity:0.6;}.cls-10,.cls-9{isolation:isolate;font-size:15px;font-family:Mulish-Regular, Mulish;}.cls-9{fill:#010101;}.cls-11{letter-spacing:-0.01em;}</style></defs><g id="Layer_2" data-name="Layer 2"><g id="Layer_1-2" data-name="Layer 1"><rect class="cls-1" width="595.28" height="18"/><path class="cls-2" d="M1,9A8,8,0,0,1,9,1h7l6,4h3l6-4H185.83V37H30.5l-6,4h-3l-6-4H9a8,8,0,0,1-8-8ZM175.83,6h-48.4v5c0,10-8-8-8,7.5s8-2.5,8,7.5v7h48.4Z"/><path class="cls-3" d="M0,8A8,8,0,0,1,8,0h7l6,4h3l6-4H184.83V36H29.5l-6,4h-3l-6-4H8a8,8,0,0,1-8-8ZM174.83,5h-48.4v5c0,10-8-8-8,7.5s8-2.5,8,7.5v7h48.4Z"/><path class="cls-4" d="M.5,7.5A7.5,7.5,0,0,1,8,.5h7l6,4h3l6-4h9.5m0,0H184.33M2.7,33.3A7.47,7.47,0,0,1,.5,28V8M175.33,5.5v27h-48.4m-5.6-8.2L125,22.2"/><path class="cls-5" d="M128.43,7h46.4V32h-46.4V27c0-10-8,8-8-7.5s8,2.5,8-7.5Z"/><path class="cls-6" d="M127.43,6h46.4V31h-46.4V26c0-10-8,8-8-7.5s8,2.5,8-7.5Z"/><path class="cls-7" d="M127.93,6.5h45.4m-45.4,24v-6m-7.36-.5a20.35,20.35,0,0,1,0-11m7.36,1V6.5h.5"/><rect class="cls-8" x="132.43" y="11" width="36.4" height="16" rx="4"/><text class="cls-9" transform="translate(137.43 23.5)">220</text><text class="cls-10" transform="translate(10 22.5)">play f<tspan class="cls-11" x="38.5" y="0">r</tspan><tspan x="43.78" y="0">equency</tspan></text></g></g></svg>