<svg xmlns="http://www.w3.org/2000/svg" viewBox="0 0 595.28 139.84"><defs><style>.cls-1,.cls-4{fill:none;}.cls-2{fill:#483d86;}.cls-3{fill:#5c4da0;}.cls-4{stroke:#8d82bd;}.cls-5,.cls-8{isolation:isolate;font-size:15px;font-family:Mulish-Regular, Mulish;}.cls-5,.cls-7{fill:#fff;}.cls-6{letter-spacing:0em;}.cls-7{fill-opacity:0.6;}.cls-8,.cls-9{fill:#010101;}.cls-10{fill:#afa7d1;}</style></defs><g id="Layer_2" data-name="Layer 2"><g id="Layer_1-2" data-name="Layer 1"><rect class="cls-1" width="595.28" height="18"/><path class="cls-2" d="M1,9A8,8,0,0,1,9,1h7l6,4h3l6-4H200.62V26H30.5l-6,4h-3l-6-4H9a8,8,0,0,1-8-8Z"/><path class="cls-3" d="M0,8A8,8,0,0,1,8,0h7l6,4h3l6-4H199.62V25H29.5l-6,4h-3l-6-4H8a8,8,0,0,1-8-8Z"/><path class="cls-4" d="M.5,7.5A7.5,7.5,0,0,1,8,.5h7l6,4h3l6-4H199.12M2.7,22.3A7.47,7.47,0,0,1,.5,17V8"/><text class="cls-5" transform="translate(8 17.5)">turn <tspan class="cls-6" x="32.02" y="0">of</tspan><tspan x="45.63" y="0">f tone on pin #</tspan></text><rect class="cls-7" x="159.35" y="5" width="35.27" height="16" rx="4"/><text class="cls-8" transform="translate(164.35 17.5)">0</text><polygon class="cls-9" points="185.64 17.31 190.62 8.69 180.66 8.69 185.64 17.31"/><rect class="cls-10" x="159.35" y="31.69" width="35.34" height="108.15" rx="5.67"/><text class="cls-8" transform="translate(163.76 44.56)">1<tspan x="0" y="18">2</tspan><tspan x="0" y="36">.</tspan><tspan x="0" y="54">.</tspan><tspan x="0" y="72">A4</tspan><tspan x="0" y="90">A5</tspan></text><polygon class="cls-9" points="186.64 44.38 191.62 35.75 181.66 35.75 186.64 44.38"/></g></g></svg>