<svg xmlns="http://www.w3.org/2000/svg" viewBox="0 0 595.28 175.91"><defs><style>.cls-1,.cls-5{fill:none;}.cls-1{stroke:#444545;stroke-miterlimit:10;stroke-width:0.5px;}.cls-2{fill:#010101;}.cls-3{fill:#fff;}.cls-4{fill:#231f20;}</style></defs><g id="Layer_2" data-name="Layer 2"><g id="Layer_1-2" data-name="Layer 1"><line class="cls-1" x1="595.28" y1="119.82" y2="119.82"/><line class="cls-1" x1="595.28" y1="97.64" y2="97.64"/><line class="cls-1" x1="595.28" y1="75.46" y2="75.46"/><line class="cls-1" x1="595.28" y1="53.29" y2="53.29"/><line class="cls-1" x1="595.28" y1="31.11" y2="31.11"/><line class="cls-1" x1="146.67" y1="142" x2="112.59" y2="142"/><path class="cls-2" d="M86.48,77.85a17.24,17.24,0,0,0-12.82-3.74c0-9.78,0-18.94,0-25.9C82,42.91,87.9,39.12,92.86,27.7,99.56,12.28,86.48,0,86.48,0L86,.21c-.7.3-17.15,7.8-15.12,41.3l.06.89a121.07,121.07,0,0,1-11.57,7.9C39.24,62.48,29.6,78.72,33.57,93.72c3,11.47,13.85,19.42,26.84,19.76a49.84,49.84,0,0,0,11,0c-.25,12.84-.54,21.81-.55,22.07s.34,12.78-12.16,15.4c-6.9,1.44-13.25-.52-17.47-4.78-4.55-4.59-2.33-13.75-2.33-11.92a9.73,9.73,0,1,0,11.44-9.57c-5.17-1.17-11.25,1-13.31,7.58a15,15,0,0,0,3.08,14.93,18.5,18.5,0,0,0,13.94,5.77,24.51,24.51,0,0,0,5-.53,16.61,16.61,0,0,0,7.2-3.31l0,0a17.5,17.5,0,0,0,7.55-14.28s0-9.07,0-21.73h.08c9.41-1.59,15.88-6,18.69-12.77A19.32,19.32,0,0,0,86.48,77.85ZM73.75,36.54c.16-9.21,2.52-15,3.21-16.46A37.1,37.1,0,0,1,88.78,7a20.19,20.19,0,0,1,.84,9.38c-1.12,7.77-6.56,15.82-15.91,23.72C73.72,38.57,73.73,37.34,73.75,36.54Zm-2.29,74.82a37.63,37.63,0,0,1-5.55.86,46.66,46.66,0,0,1-5.38-.25c-6.18-.67-12.05-1.52-16.41-6.49a26.52,26.52,0,0,1-5.8-14.27l.08.17C36.63,75.33,50,64.84,63.92,54.74c2.65-1.93,5.08-3.53,7.35-5,.29,7.59.44,16.06.48,24.64a24,24,0,0,0-9,4.18c-.11.07-11.32,8.13-3.8,19.6A10,10,0,0,0,67,101.36s-7.58-3.51-5.5-13.17c.93-4.31,5.33-6.8,10.24-7C71.76,91.93,71.62,102.46,71.46,111.36Zm2.25-.61c0-8.88,0-19.27,0-29.45A14.83,14.83,0,0,1,86.92,92.74C89.34,102.16,82.35,108.12,73.71,110.75Z"/><path class="cls-2" d="M244,103.2c2,3.81-1,9.37-6.7,12.43s-12,2.45-14.06-1.36,1-9.38,6.7-12.43S242,99.39,244,103.2Z"/><rect class="cls-2" x="242.51" y="52.03" width="2.12" height="53.98"/><path class="cls-2" d="M278.65,92.11c2,3.81-1,9.37-6.7,12.43s-12,2.45-14.06-1.36,1-9.38,6.7-12.43S276.61,88.3,278.65,92.11Z"/><rect class="cls-2" x="277.17" y="40.95" width="2.12" height="53.98"/><path class="cls-2" d="M313.31,81c2,3.81-1,9.38-6.7,12.43s-12,2.45-14.06-1.36,1-9.38,6.7-12.43S311.27,77.21,313.31,81Z"/><rect class="cls-2" x="311.83" y="29.86" width="2.12" height="53.98"/><path class="cls-2" d="M174.67,125.38c2,3.81-1,9.37-6.7,12.43s-12,2.45-14.06-1.37,1-9.37,6.7-12.43S172.63,121.57,174.67,125.38Z"/><rect class="cls-2" x="173.19" y="74.21" width="2.12" height="53.98"/><path class="cls-2" d="M347.89,69.84c-2.08-3.78-8.38-4.31-14.07-1.18-4.4,2.42-7.13,6.32-7.19,9.71h0l.71,54,2.12,0-.65-49.42c2.82,2.13,7.9,2,12.57-.54C347.05,79.23,350,73.62,347.89,69.84Z"/><path class="cls-2" d="M209.33,114.29c2,3.81-1,9.37-6.7,12.43s-12,2.45-14.06-1.37,1-9.37,6.7-12.43S207.29,110.48,209.33,114.29Z"/><rect class="cls-2" x="207.85" y="63.12" width="2.12" height="53.98"/><path class="cls-2" d="M382.55,58.75c-2.08-3.78-8.38-4.31-14.07-1.18-4.4,2.42-7.13,6.32-7.19,9.71h0l.71,54,2.12,0-.65-49.42c2.82,2.14,7.9,2,12.57-.54C381.71,68.14,384.63,62.53,382.55,58.75Z"/><path class="cls-2" d="M417.21,47.66c-2.08-3.78-8.38-4.31-14.07-1.18-4.4,2.42-7.13,6.32-7.19,9.71h0l.71,54,2.12,0-.65-49.42c2.82,2.14,7.9,2,12.57-.54C416.37,57.05,419.29,51.44,417.21,47.66Z"/><path class="cls-2" d="M451.87,36.57c-2.08-3.78-8.38-4.3-14.07-1.17-4.4,2.42-7.13,6.31-7.19,9.71h0l.71,54,2.12,0-.65-49.42c2.82,2.14,7.9,2,12.57-.53C451,46,454,40.36,451.87,36.57Z"/><path class="cls-2" d="M486.53,25.49c-2.08-3.79-8.38-4.31-14.07-1.18-4.4,2.42-7.13,6.31-7.19,9.71h0L466,88l2.12,0-.65-49.43c2.82,2.14,7.9,2,12.57-.53C485.69,34.87,488.61,29.27,486.53,25.49Z"/><path class="cls-2" d="M140,136.46c2,3.81-1,9.38-6.7,12.43s-12,2.45-14.06-1.36,1-9.37,6.7-12.43S138,132.65,140,136.46Z"/><rect class="cls-2" x="138.53" y="85.3" width="2.12" height="53.98"/><line class="cls-1" x1="562.59" y1="8.93" x2="528.51" y2="8.93"/><path class="cls-2" d="M521.19,14.54c-2.08-3.78-8.38-4.31-14.07-1.18-4.4,2.42-7.13,6.32-7.19,9.71h0l.71,54,2.12,0-.65-49.42c2.82,2.14,7.9,2,12.57-.54C520.35,23.93,523.27,18.32,521.19,14.54Z"/><path class="cls-2" d="M555.85,3.31C553.77-.48,547.47-1,541.78,2.13c-4.4,2.42-7.13,6.32-7.19,9.71h0l.71,54,2.12,0-.65-49.43c2.82,2.14,7.9,2,12.57-.53C555,12.7,557.93,7.09,555.85,3.31Z"/><path class="cls-3" d="M126.82,146.2a4,4,0,0,1-2-.5,3.32,3.32,0,0,1-1.31-1.46,5.62,5.62,0,0,1,0-4.5,3.33,3.33,0,0,1,1.31-1.44,3.91,3.91,0,0,1,2-.51,4.64,4.64,0,0,1,1.56.26,3.49,3.49,0,0,1,1.23.78l-.36.73a4,4,0,0,0-1.16-.73,3.71,3.71,0,0,0-1.26-.22,2.63,2.63,0,0,0-2.1.88A3.75,3.75,0,0,0,124,142a3.83,3.83,0,0,0,.73,2.51,2.61,2.61,0,0,0,2.11.88,3.48,3.48,0,0,0,1.26-.22,4,4,0,0,0,1.16-.72l.36.72a3.23,3.23,0,0,1-1.23.78A4.41,4.41,0,0,1,126.82,146.2Z"/><path class="cls-3" d="M131.67,146.11v-.8h4.59v.8Zm1.81-.43v-7.24l.55.28-2.23,1.42v-.92l2.1-1.34h.54v7.8Z"/><path class="cls-3" d="M157.46,135V126.8h2.76a4.94,4.94,0,0,1,2.24.47,3.29,3.29,0,0,1,1.41,1.4,4.8,4.8,0,0,1,.48,2.23,4.62,4.62,0,0,1-.49,2.23,3.36,3.36,0,0,1-1.41,1.41,4.8,4.8,0,0,1-2.23.48Zm.94-.81h1.76a3.18,3.18,0,0,0,2.4-.83,3.45,3.45,0,0,0,.8-2.48q0-3.3-3.2-3.3H158.4Z"/><path class="cls-3" d="M166.54,135v-.8h4.58v.8Zm1.81-.43v-7.24l.54.28-2.23,1.42v-.91l2.11-1.34h.54v7.79Z"/><path class="cls-3" d="M193,123.93v-8.22h5.2v.78H194v2.87h4v.79h-4v3h4.27v.78Z"/><path class="cls-3" d="M200.29,123.93v-.79h4.58v.79Zm1.81-.42v-7.25l.54.28L200.41,118v-.91l2.1-1.34h.55v7.8Z"/><path class="cls-3" d="M227.83,112.84v-8.22h5.09v.8h-4.15v2.85h3.91v.8h-3.91v3.77Z"/><path class="cls-3" d="M234.8,112.84v-.79h4.59v.79Zm1.81-.42v-7.25l.55.28-2.23,1.42V106l2.1-1.34h.54v7.8Z"/><path class="cls-3" d="M265.31,101.85a4.29,4.29,0,0,1-2.12-.5,3.33,3.33,0,0,1-1.35-1.45,5.69,5.69,0,0,1,0-4.53,3.28,3.28,0,0,1,1.34-1.44,4.1,4.1,0,0,1,2.06-.49,4.48,4.48,0,0,1,1.58.26,3.31,3.31,0,0,1,1.25.78l-.37.72a4.36,4.36,0,0,0-1.18-.73,3.47,3.47,0,0,0-1.28-.22,2.67,2.67,0,0,0-2.14.87,4.59,4.59,0,0,0,0,5.06,2.76,2.76,0,0,0,2.21.87,6.56,6.56,0,0,0,1.18-.11,5.69,5.69,0,0,0,1-.29l-.23.48V98.22h-2v-.75h2.91v3.81a3.43,3.43,0,0,1-.79.3,7.52,7.52,0,0,1-1,.2A7.69,7.69,0,0,1,265.31,101.85Z"/><path class="cls-3" d="M270.58,101.76V101h4.59v.8Zm1.81-.43V94.08l.55.28-2.23,1.42v-.91l2.1-1.34h.54v7.8Z"/><path class="cls-3" d="M296.65,90.71h-1l3.61-8.22h.84l3.61,8.22h-1l-3.22-7.53h.34Zm.55-2.11.34-.79h4.32l.34.79Z"/><path class="cls-3" d="M304.9,90.71V90l2.88-3.19a5.94,5.94,0,0,0,.84-1.17,2.24,2.24,0,0,0,.27-1,1.36,1.36,0,0,0-.4-1,1.55,1.55,0,0,0-1.12-.37,3.07,3.07,0,0,0-1.18.24,4.49,4.49,0,0,0-1.15.71l-.36-.73a3.59,3.59,0,0,1,1.22-.74,4.36,4.36,0,0,1,1.49-.28,3,3,0,0,1,1.3.26,2,2,0,0,1,.85.75,2.14,2.14,0,0,1,.3,1.15,3.08,3.08,0,0,1-.31,1.36,6.76,6.76,0,0,1-1.06,1.46l-2.77,3-.07-.46h4.56v.79Z"/><path class="cls-3" d="M331,79.62V71.4h3.3a3,3,0,0,1,2,.56,1.88,1.88,0,0,1,.71,1.59,1.86,1.86,0,0,1-.39,1.2,2.08,2.08,0,0,1-1.07.7v-.09a1.93,1.93,0,0,1,1.66,2,2,2,0,0,1-.72,1.67,3.17,3.17,0,0,1-2,.57Zm.93-4.57h2.22a2.24,2.24,0,0,0,1.41-.37,1.31,1.31,0,0,0,.46-1.09,1.22,1.22,0,0,0-.46-1,2.29,2.29,0,0,0-1.41-.36H332Zm0,3.79h2.41a2.28,2.28,0,0,0,1.42-.36,1.32,1.32,0,0,0,.46-1.12,1.37,1.37,0,0,0-.46-1.13,2.17,2.17,0,0,0-1.42-.38H332Z"/><path class="cls-3" d="M338.85,79.62v-.71l2.88-3.19a5.94,5.94,0,0,0,.84-1.17,2.2,2.2,0,0,0,.26-1,1.35,1.35,0,0,0-.39-1,1.55,1.55,0,0,0-1.12-.37,3.07,3.07,0,0,0-1.18.24,4.49,4.49,0,0,0-1.15.71l-.36-.73a3.59,3.59,0,0,1,1.22-.74,4.35,4.35,0,0,1,1.49-.27,2.9,2.9,0,0,1,1.3.26,1.93,1.93,0,0,1,.85.74,2.15,2.15,0,0,1,.3,1.16,3,3,0,0,1-.31,1.35,6.78,6.78,0,0,1-1.06,1.47l-2.77,3-.07-.46h4.56v.79Z"/><path class="cls-3" d="M369.34,68.58a3.9,3.9,0,0,1-2-.51A3.38,3.38,0,0,1,366,66.62a5.06,5.06,0,0,1-.46-2.26,5,5,0,0,1,.46-2.24,3.41,3.41,0,0,1,1.32-1.44,3.9,3.9,0,0,1,2-.51,4.56,4.56,0,0,1,1.56.26,3.27,3.27,0,0,1,1.24.78l-.36.73a4,4,0,0,0-1.17-.73,3.4,3.4,0,0,0-1.26-.22,2.57,2.57,0,0,0-2.09.88,3.72,3.72,0,0,0-.75,2.49,3.84,3.84,0,0,0,.74,2.52,2.59,2.59,0,0,0,2.1.88,3.4,3.4,0,0,0,1.26-.22,3.76,3.76,0,0,0,1.17-.73l.36.73a3.27,3.27,0,0,1-1.24.78A4.33,4.33,0,0,1,369.34,68.58Z"/><path class="cls-3" d="M373.68,68.49v-.72l2.87-3.19a5.89,5.89,0,0,0,.85-1.16,2.38,2.38,0,0,0,.26-1,1.36,1.36,0,0,0-.39-1.05,1.6,1.6,0,0,0-1.12-.36,3.26,3.26,0,0,0-1.18.23,4.77,4.77,0,0,0-1.16.72l-.35-.73a3.44,3.44,0,0,1,1.22-.74,4.1,4.1,0,0,1,1.49-.28,3,3,0,0,1,1.3.26,1.89,1.89,0,0,1,.85.75,2.12,2.12,0,0,1,.3,1.15,3,3,0,0,1-.32,1.36,6.57,6.57,0,0,1-1.05,1.46l-2.78,3-.07-.46H379v.8Z"/><path class="cls-3" d="M400,57.45V49.22h2.76a4.86,4.86,0,0,1,2.25.48,3.26,3.26,0,0,1,1.4,1.4,4.61,4.61,0,0,1,.49,2.22,4.66,4.66,0,0,1-.49,2.24A3.31,3.31,0,0,1,405,57a4.65,4.65,0,0,1-2.23.49Zm.95-.81h1.76a3.18,3.18,0,0,0,2.39-.83,3.46,3.46,0,0,0,.81-2.49q0-3.28-3.2-3.29h-1.76Z"/><path class="cls-3" d="M408.54,57.45v-.72l2.88-3.19a5.21,5.21,0,0,0,.84-1.17,2.21,2.21,0,0,0,.27-1,1.35,1.35,0,0,0-.39-1,1.62,1.62,0,0,0-1.12-.36,3,3,0,0,0-1.18.23,4.83,4.83,0,0,0-1.16.71l-.36-.73a3.72,3.72,0,0,1,1.23-.73,4.1,4.1,0,0,1,1.49-.28,2.93,2.93,0,0,1,1.3.26,1.93,1.93,0,0,1,.85.74,2.18,2.18,0,0,1,.3,1.16,3.12,3.12,0,0,1-.32,1.36,6.34,6.34,0,0,1-1.06,1.46l-2.77,3-.07-.46h4.57v.8Z"/><path class="cls-3" d="M435.55,46.36V38.13h5.2v.79h-4.26v2.86h4v.8h-4v3h4.26v.79Z"/><path class="cls-3" d="M442.29,46.36v-.72l2.88-3.19a6.22,6.22,0,0,0,.84-1.16,2.27,2.27,0,0,0,.27-1,1.33,1.33,0,0,0-.4-1,1.59,1.59,0,0,0-1.12-.36,3.17,3.17,0,0,0-1.17.23,4.65,4.65,0,0,0-1.16.71l-.36-.72a3.4,3.4,0,0,1,1.23-.74,4.1,4.1,0,0,1,1.49-.28,3.08,3.08,0,0,1,1.3.26,2,2,0,0,1,.84.74,2.1,2.1,0,0,1,.31,1.16,3.12,3.12,0,0,1-.32,1.36A6.66,6.66,0,0,1,445.86,43l-2.77,3-.07-.46h4.56v.8Z"/><path class="cls-3" d="M470.36,35.27V27h5.08v.8h-4.15v2.85h3.92v.8h-3.92v3.78Z"/><path class="cls-3" d="M476.81,35.27v-.72l2.87-3.19a5.89,5.89,0,0,0,.85-1.16,2.38,2.38,0,0,0,.26-1,1.36,1.36,0,0,0-.39-1.05,1.6,1.6,0,0,0-1.12-.36,3.26,3.26,0,0,0-1.18.23,4.77,4.77,0,0,0-1.16.72l-.35-.73a3.44,3.44,0,0,1,1.22-.74A4.1,4.1,0,0,1,479.3,27a3,3,0,0,1,1.3.26,1.89,1.89,0,0,1,.85.75,2.12,2.12,0,0,1,.3,1.15,3,3,0,0,1-.32,1.36,6.57,6.57,0,0,1-1.05,1.46l-2.78,3-.07-.46h4.57v.8Z"/><path class="cls-3" d="M507.84,24.23a4.16,4.16,0,0,1-2.12-.51,3.25,3.25,0,0,1-1.35-1.44A4.94,4.94,0,0,1,503.9,20a4.93,4.93,0,0,1,.47-2.26,3.23,3.23,0,0,1,1.34-1.44,4.08,4.08,0,0,1,2.06-.49,4.52,4.52,0,0,1,1.58.26,3.31,3.31,0,0,1,1.25.78l-.37.72a4.12,4.12,0,0,0-1.18-.73,3.47,3.47,0,0,0-1.28-.23,2.63,2.63,0,0,0-2.14.88,3.74,3.74,0,0,0-.75,2.51,3.75,3.75,0,0,0,.76,2.55,2.8,2.8,0,0,0,2.22.87,6.45,6.45,0,0,0,1.17-.11,4.9,4.9,0,0,0,1-.3l-.23.49V20.6h-2v-.75h2.91v3.81a3.26,3.26,0,0,1-.79.3,7.07,7.07,0,0,1-1,.2A9.77,9.77,0,0,1,507.84,24.23Z"/><path class="cls-3" d="M512.59,24.13v-.71l2.87-3.19a5.64,5.64,0,0,0,.85-1.17,2.32,2.32,0,0,0,.26-1,1.35,1.35,0,0,0-.39-1,1.55,1.55,0,0,0-1.12-.37,3.07,3.07,0,0,0-1.18.24,4.49,4.49,0,0,0-1.15.71l-.36-.73a3.59,3.59,0,0,1,1.22-.74,4.31,4.31,0,0,1,1.49-.27,2.9,2.9,0,0,1,1.3.26,1.93,1.93,0,0,1,.85.74,2.15,2.15,0,0,1,.3,1.16,3,3,0,0,1-.31,1.35,6.78,6.78,0,0,1-1.06,1.47l-2.77,3-.07-.46h4.56v.79Z"/><path class="cls-3" d="M539.35,13.05h-1L542,4.82h.84l3.61,8.23h-1l-3.22-7.53h.34Zm.55-2.11.34-.79h4.32l.34.79Z"/><path class="cls-3" d="M550,13.13a4.64,4.64,0,0,1-1.53-.26,3.58,3.58,0,0,1-1.24-.75l.37-.73a4.27,4.27,0,0,0,1.15.71,3.2,3.2,0,0,0,1.23.23,2,2,0,0,0,1.34-.39,1.45,1.45,0,0,0,.45-1.15,1.38,1.38,0,0,0-.47-1.14,2.27,2.27,0,0,0-1.42-.38H549V8.48h.76a2.13,2.13,0,0,0,1.4-.41,1.42,1.42,0,0,0,.49-1.15,1.33,1.33,0,0,0-.4-1,1.63,1.63,0,0,0-1.13-.36,3.08,3.08,0,0,0-1.19.24,4,4,0,0,0-1.14.71l-.36-.73A3.49,3.49,0,0,1,548.6,5a4.33,4.33,0,0,1,1.51-.27A3.06,3.06,0,0,1,551.4,5a2,2,0,0,1,.85.74,2,2,0,0,1,.29,1.12,2.15,2.15,0,0,1-.39,1.3,2,2,0,0,1-1.1.73l0-.12a2.21,2.21,0,0,1,1.27.71,2,2,0,0,1,.44,1.35,2.08,2.08,0,0,1-.73,1.69A2.9,2.9,0,0,1,550,13.13Z"/><path class="cls-4" d="M128.45,175.79H127v-2.46l.22.2A3.06,3.06,0,0,1,126,175.3a3.56,3.56,0,0,1-2.12.61,3.75,3.75,0,0,1-2.11-.59,3.85,3.85,0,0,1-1.43-1.67,6.44,6.44,0,0,1,0-5,3.77,3.77,0,0,1,1.42-1.63,3.86,3.86,0,0,1,2.13-.58,3.5,3.5,0,0,1,2.12.62,3.08,3.08,0,0,1,1.19,1.75L127,169v-6.58h1.47Zm-4.25-1.09a2.49,2.49,0,0,0,2.06-.92,4.08,4.08,0,0,0,.74-2.61,4,4,0,0,0-.73-2.58,2.48,2.48,0,0,0-2.07-.92,2.59,2.59,0,0,0-2.1.91,3.91,3.91,0,0,0-.75,2.56,4.09,4.09,0,0,0,.75,2.62A2.55,2.55,0,0,0,124.2,174.7Z"/><path class="cls-4" d="M135.08,175.91a4.34,4.34,0,0,1-2.28-.58,3.87,3.87,0,0,1-1.51-1.64,6.21,6.21,0,0,1,0-5A3.84,3.84,0,0,1,132.8,167a4.34,4.34,0,0,1,2.28-.58,4.28,4.28,0,0,1,2.27.58,3.84,3.84,0,0,1,1.51,1.65,6.1,6.1,0,0,1,0,5,3.87,3.87,0,0,1-1.51,1.64A4.28,4.28,0,0,1,135.08,175.91Zm0-1.21a2.52,2.52,0,0,0,2.07-.9,4.08,4.08,0,0,0,.74-2.63,4,4,0,0,0-.74-2.59,2.82,2.82,0,0,0-4.15,0,3.9,3.9,0,0,0-.76,2.59,4.08,4.08,0,0,0,.74,2.63A2.56,2.56,0,0,0,135.08,174.7Z"/><path class="cls-4" d="M157.35,175.79v-6.58c0-.42,0-.85,0-1.28s-.06-.85-.12-1.28h1.4l.2,2.25-.2-.05a2.84,2.84,0,0,1,1.1-1.81,3.17,3.17,0,0,1,1.89-.6,3.24,3.24,0,0,1,.45,0l.39.08,0,1.35a2.85,2.85,0,0,0-1-.15,2.53,2.53,0,0,0-1.52.42,2.39,2.39,0,0,0-.83,1.06,3.47,3.47,0,0,0-.26,1.36v5.21Z"/><path class="cls-4" d="M171.22,174.7a4.34,4.34,0,0,1-1.54.89,5.93,5.93,0,0,1-1.91.32,5,5,0,0,1-2.45-.56,3.86,3.86,0,0,1-1.58-1.62,5.57,5.57,0,0,1-.55-2.54,5.37,5.37,0,0,1,.55-2.49,4.07,4.07,0,0,1,1.51-1.67,4.28,4.28,0,0,1,2.24-.59,3.89,3.89,0,0,1,2.09.53,3.49,3.49,0,0,1,1.34,1.54,5.6,5.6,0,0,1,.46,2.39v.27h-6.9v-1h6.07l-.48.67a3.77,3.77,0,0,0-.62-2.45,2.31,2.31,0,0,0-1.94-.85,2.55,2.55,0,0,0-2.08.93,4.05,4.05,0,0,0-.75,2.59,4,4,0,0,0,.79,2.69,2.92,2.92,0,0,0,2.31.91,4.42,4.42,0,0,0,1.54-.27,4.77,4.77,0,0,0,1.41-.8Z"/><path class="cls-4" d="M190.22,175.91v-6.57c0-.42,0-.85,0-1.28s-.06-.86-.12-1.28h1.4l.16,1.89-.18.13a3.08,3.08,0,0,1,1.14-1.66,3.2,3.2,0,0,1,1.91-.58,3,3,0,0,1,2.06.66,3.22,3.22,0,0,1,.94,2l-.44-.23a3,3,0,0,1,1.17-1.76,3.43,3.43,0,0,1,2.12-.66,2.82,2.82,0,0,1,2.27.9,4.13,4.13,0,0,1,.76,2.72v5.73h-1.47v-5.66a3.07,3.07,0,0,0-.45-1.86,1.69,1.69,0,0,0-1.44-.59,2.27,2.27,0,0,0-1.81.78,3.18,3.18,0,0,0-.66,2.12v5.21h-1.47v-5.66a3,3,0,0,0-.46-1.86,1.71,1.71,0,0,0-1.45-.59,2.26,2.26,0,0,0-1.82.78,3.18,3.18,0,0,0-.66,2.12v5.21Z"/><path class="cls-4" d="M206,162.91h1.8v1.67H206Zm.15,13v-9.13h1.47v9.13Z"/><path class="cls-4" d="M225.93,167.82v-1.17h5.48v1.17Zm5.74-4a3.4,3.4,0,0,0-.95-.15,1.86,1.86,0,0,0-.79.16,1.09,1.09,0,0,0-.55.55,2.56,2.56,0,0,0-.2,1.11v10.35h-1.47V165.26a3,3,0,0,1,.72-2.19,2.74,2.74,0,0,1,2-.72,4.3,4.3,0,0,1,.62,0,3.39,3.39,0,0,1,.62.12Z"/><path class="cls-4" d="M236.75,175.91a3.94,3.94,0,0,1-2.13-.57,3.72,3.72,0,0,1-1.42-1.63,5.87,5.87,0,0,1-.5-2.5,5.8,5.8,0,0,1,.51-2.51,4,4,0,0,1,1.42-1.67,3.86,3.86,0,0,1,2.12-.59,3.56,3.56,0,0,1,2.12.61,3,3,0,0,1,1.18,1.76l-.21.15v-2.31h1.45v9.14h-1.45v-2.36l.21.1a3,3,0,0,1-1.18,1.77A3.56,3.56,0,0,1,236.75,175.91Zm.29-1.21a2.51,2.51,0,0,0,2.07-.92,4.14,4.14,0,0,0,.73-2.61,4,4,0,0,0-.74-2.59,2.49,2.49,0,0,0-2.06-.91,2.53,2.53,0,0,0-2.1.94,4,4,0,0,0-.75,2.6,4,4,0,0,0,.75,2.58A2.59,2.59,0,0,0,237,174.7Z"/><path class="cls-4" d="M261.21,175.91a5.31,5.31,0,0,1-3.65-1.18l.49-1.09a4.88,4.88,0,0,0,3.21,1.09,2.92,2.92,0,0,0,1.57-.35,1.16,1.16,0,0,0,.54-1,1.06,1.06,0,0,0-.37-.86,3,3,0,0,0-1.19-.52l-1.55-.36a3.4,3.4,0,0,1-1.77-.91,2.14,2.14,0,0,1-.62-1.56,2.38,2.38,0,0,1,.43-1.41,2.94,2.94,0,0,1,1.22-.95,4.56,4.56,0,0,1,1.85-.34,5.47,5.47,0,0,1,1.82.3,4.08,4.08,0,0,1,1.43.89l-.49,1.07a4.8,4.8,0,0,0-1.33-.8,3.86,3.86,0,0,0-1.43-.27,2.57,2.57,0,0,0-1.52.39,1.31,1.31,0,0,0-.2,1.92,2.36,2.36,0,0,0,1.09.51l1.54.38a3.63,3.63,0,0,1,1.9.9,2.36,2.36,0,0,1-.36,3.47A4.26,4.26,0,0,1,261.21,175.91Z"/><path class="cls-4" d="M270.9,175.91a4.34,4.34,0,0,1-2.28-.58,3.85,3.85,0,0,1-1.5-1.64,6.1,6.1,0,0,1,0-5,3.82,3.82,0,0,1,1.5-1.65,4.77,4.77,0,0,1,4.56,0,3.84,3.84,0,0,1,1.51,1.65,6.21,6.21,0,0,1,0,5,3.87,3.87,0,0,1-1.51,1.64A4.34,4.34,0,0,1,270.9,175.91Zm0-1.21a2.53,2.53,0,0,0,2.08-.9,4.08,4.08,0,0,0,.74-2.63,4,4,0,0,0-.75-2.59,2.5,2.5,0,0,0-2.07-.91,2.56,2.56,0,0,0-2.08.91,4,4,0,0,0-.75,2.59,4,4,0,0,0,.74,2.63A2.54,2.54,0,0,0,270.9,174.7Z"/><path class="cls-4" d="M277.51,175.79V162.42H279v13.37Z"/><path class="cls-4" d="M301.58,175.79V162.42h1.47v13.37Z"/><path class="cls-4" d="M309.4,175.91a3.94,3.94,0,0,1-2.13-.57,3.78,3.78,0,0,1-1.42-1.63,5.87,5.87,0,0,1-.49-2.5,5.8,5.8,0,0,1,.5-2.51,4,4,0,0,1,1.43-1.67,3.83,3.83,0,0,1,2.11-.59,3.59,3.59,0,0,1,2.13.61,3.07,3.07,0,0,1,1.18,1.76l-.22.15v-2.31h1.45v9.14h-1.45v-2.36l.22.1a3.1,3.1,0,0,1-1.18,1.77A3.59,3.59,0,0,1,309.4,175.91Zm.29-1.21a2.48,2.48,0,0,0,2.07-.92,4.08,4.08,0,0,0,.73-2.61,4,4,0,0,0-.74-2.59,2.48,2.48,0,0,0-2.06-.91,2.52,2.52,0,0,0-2.09.94,4,4,0,0,0-.76,2.6,3.91,3.91,0,0,0,.76,2.58A2.58,2.58,0,0,0,309.69,174.7Z"/><path class="cls-4" d="M332.94,167.82v-1.17h5.86v1.17Zm5.83,6.66v1.25a4.84,4.84,0,0,1-.61.14,4.5,4.5,0,0,1-.66,0,2.83,2.83,0,0,1-2-.72,2.91,2.91,0,0,1-.75-2.18v-8.7l1.47-.53v9a2.43,2.43,0,0,0,.21,1.12,1.15,1.15,0,0,0,.57.56,2.14,2.14,0,0,0,.82.15,3.68,3.68,0,0,0,.49,0A4.55,4.55,0,0,0,338.77,174.48Z"/><path class="cls-4" d="M340.44,162.79h1.8v1.67h-1.8Zm.15,13v-9.14h1.47v9.14Z"/><path class="cls-4" d="M371.07,175.79h-1.45v-2.46l.22.2a3.06,3.06,0,0,1-1.19,1.77,3.56,3.56,0,0,1-2.12.61,3.8,3.8,0,0,1-2.12-.59,3.89,3.89,0,0,1-1.42-1.67,6.44,6.44,0,0,1,0-5A3.77,3.77,0,0,1,364.4,167a3.86,3.86,0,0,1,2.13-.58,3.5,3.5,0,0,1,2.12.62,3.08,3.08,0,0,1,1.19,1.75l-.24.19v-6.58h1.47Zm-4.25-1.09a2.5,2.5,0,0,0,2.06-.92,4.95,4.95,0,0,0,0-5.19,2.48,2.48,0,0,0-2.07-.92,2.57,2.57,0,0,0-2.1.91,3.91,3.91,0,0,0-.75,2.56,4.09,4.09,0,0,0,.75,2.62A2.54,2.54,0,0,0,366.82,174.7Z"/><path class="cls-4" d="M377.7,175.91a4.32,4.32,0,0,1-2.28-.58,3.87,3.87,0,0,1-1.51-1.64,6.1,6.1,0,0,1,0-5,3.84,3.84,0,0,1,1.51-1.65,4.75,4.75,0,0,1,4.55,0,3.84,3.84,0,0,1,1.51,1.65,6.1,6.1,0,0,1,0,5,3.87,3.87,0,0,1-1.51,1.64A4.28,4.28,0,0,1,377.7,175.91Zm0-1.21a2.52,2.52,0,0,0,2.07-.9,4.08,4.08,0,0,0,.74-2.63,4,4,0,0,0-.74-2.59,2.82,2.82,0,0,0-4.15,0,3.9,3.9,0,0,0-.76,2.59,4.08,4.08,0,0,0,.74,2.63A2.56,2.56,0,0,0,377.7,174.7Z"/><path class="cls-4" d="M400,175.79v-6.58c0-.42,0-.85,0-1.28s-.06-.85-.12-1.28h1.4l.2,2.25-.2-.05a2.87,2.87,0,0,1,1.09-1.81,3.53,3.53,0,0,1,2.35-.58l.39.08,0,1.35a2.85,2.85,0,0,0-1-.15,2.51,2.51,0,0,0-1.52.42,2.39,2.39,0,0,0-.83,1.06,3.47,3.47,0,0,0-.27,1.36v5.21Z"/><path class="cls-4" d="M413.84,174.7a4.43,4.43,0,0,1-1.54.89,5.93,5.93,0,0,1-1.91.32,5,5,0,0,1-2.45-.56,3.86,3.86,0,0,1-1.58-1.62,5.44,5.44,0,0,1-.55-2.54,5.37,5.37,0,0,1,.55-2.49,4.07,4.07,0,0,1,1.51-1.67,4.28,4.28,0,0,1,2.24-.59,3.89,3.89,0,0,1,2.09.53,3.49,3.49,0,0,1,1.34,1.54,5.75,5.75,0,0,1,.46,2.39v.27h-6.9v-1h6.06l-.47.67a3.77,3.77,0,0,0-.62-2.45,2.31,2.31,0,0,0-1.94-.85,2.53,2.53,0,0,0-2.08.93,4.05,4.05,0,0,0-.75,2.59,4,4,0,0,0,.79,2.69,2.92,2.92,0,0,0,2.31.91,4.42,4.42,0,0,0,1.54-.27,4.77,4.77,0,0,0,1.41-.8Z"/><path class="cls-4" d="M432.84,175.91v-6.57c0-.42,0-.85,0-1.28s-.06-.86-.12-1.28h1.4l.16,1.89-.18.13a3.08,3.08,0,0,1,1.14-1.66,3.2,3.2,0,0,1,1.91-.58,3,3,0,0,1,2.06.66,3.22,3.22,0,0,1,.94,2l-.44-.23a3,3,0,0,1,1.17-1.76,3.43,3.43,0,0,1,2.12-.66,2.82,2.82,0,0,1,2.27.9,4.18,4.18,0,0,1,.76,2.72v5.73h-1.47v-5.66a3,3,0,0,0-.46-1.86,1.67,1.67,0,0,0-1.43-.59,2.25,2.25,0,0,0-1.81.78,3.18,3.18,0,0,0-.66,2.12v5.21H438.7v-5.66a3,3,0,0,0-.46-1.86,1.71,1.71,0,0,0-1.45-.59,2.26,2.26,0,0,0-1.82.78,3.18,3.18,0,0,0-.66,2.12v5.21Z"/><path class="cls-4" d="M448.65,162.91h1.8v1.67h-1.8Zm.15,13v-9.13h1.47v9.13Z"/><path class="cls-4" d="M468.55,167.82v-1.17H474v1.17Zm5.74-4a3.4,3.4,0,0,0-1-.15,1.86,1.86,0,0,0-.79.16,1.09,1.09,0,0,0-.55.55,2.42,2.42,0,0,0-.2,1.11v10.35h-1.47V165.26a3,3,0,0,1,.72-2.19,2.72,2.72,0,0,1,2-.72,4.3,4.3,0,0,1,.62,0,3.56,3.56,0,0,1,.62.12Z"/><path class="cls-4" d="M479.37,175.91a3.94,3.94,0,0,1-2.13-.57,3.66,3.66,0,0,1-1.42-1.63,5.87,5.87,0,0,1-.5-2.5,5.8,5.8,0,0,1,.51-2.51,4,4,0,0,1,1.42-1.67,3.86,3.86,0,0,1,2.12-.59,3.58,3.58,0,0,1,2.12.61,3,3,0,0,1,1.18,1.76l-.22.15v-2.31h1.46v9.14h-1.46v-2.36l.22.1a3,3,0,0,1-1.18,1.77A3.58,3.58,0,0,1,479.37,175.91Zm.29-1.21a2.51,2.51,0,0,0,2.07-.92,4.14,4.14,0,0,0,.72-2.61,4,4,0,0,0-.73-2.59,2.49,2.49,0,0,0-2.06-.91,2.53,2.53,0,0,0-2.1.94,4,4,0,0,0-.75,2.6,4,4,0,0,0,.75,2.58A2.59,2.59,0,0,0,479.66,174.7Z"/><path class="cls-4" d="M503.83,175.91a5.31,5.31,0,0,1-3.65-1.18l.49-1.09a5.15,5.15,0,0,0,1.49.83,5.22,5.22,0,0,0,1.72.26,2.92,2.92,0,0,0,1.57-.35,1.16,1.16,0,0,0,.54-1,1.06,1.06,0,0,0-.37-.86,3,3,0,0,0-1.2-.52l-1.54-.36a3.4,3.4,0,0,1-1.77-.91,2.14,2.14,0,0,1-.62-1.56,2.38,2.38,0,0,1,.43-1.41,2.94,2.94,0,0,1,1.22-.95,4.56,4.56,0,0,1,1.85-.34,5.37,5.37,0,0,1,1.81.3,4,4,0,0,1,1.44.89l-.49,1.07a4.71,4.71,0,0,0-1.34-.8,3.78,3.78,0,0,0-1.42-.27,2.57,2.57,0,0,0-1.52.39,1.31,1.31,0,0,0-.2,1.92,2.36,2.36,0,0,0,1.08.51l1.55.38a3.56,3.56,0,0,1,1.89.9,2.18,2.18,0,0,1,.61,1.59,2.22,2.22,0,0,1-1,1.88A4.26,4.26,0,0,1,503.83,175.91Z"/><path class="cls-4" d="M513.52,175.91a4.34,4.34,0,0,1-2.28-.58,3.79,3.79,0,0,1-1.5-1.64,6.1,6.1,0,0,1,0-5,3.76,3.76,0,0,1,1.5-1.65,4.77,4.77,0,0,1,4.56,0,3.84,3.84,0,0,1,1.51,1.65,6.21,6.21,0,0,1,0,5,3.87,3.87,0,0,1-1.51,1.64A4.34,4.34,0,0,1,513.52,175.91Zm0-1.21a2.53,2.53,0,0,0,2.08-.9,4.08,4.08,0,0,0,.73-2.63,4,4,0,0,0-.74-2.59,2.5,2.5,0,0,0-2.07-.91,2.55,2.55,0,0,0-2.08.91,4,4,0,0,0-.75,2.59,4,4,0,0,0,.74,2.63A2.54,2.54,0,0,0,513.52,174.7Z"/><path class="cls-4" d="M520.13,175.79V162.42h1.47v13.37Z"/><path class="cls-4" d="M539.37,175.79V162.42h1.47v13.37Z"/><path class="cls-4" d="M547.19,175.91a3.94,3.94,0,0,1-2.13-.57,3.72,3.72,0,0,1-1.42-1.63,5.87,5.87,0,0,1-.5-2.5,5.8,5.8,0,0,1,.51-2.51,4,4,0,0,1,1.42-1.67,3.88,3.88,0,0,1,2.12-.59,3.56,3.56,0,0,1,2.12.61,3,3,0,0,1,1.19,1.76l-.22.15v-2.31h1.45v9.14h-1.45v-2.36l.22.1a3.06,3.06,0,0,1-1.19,1.77A3.56,3.56,0,0,1,547.19,175.91Zm.29-1.21a2.48,2.48,0,0,0,2.07-.92,4.14,4.14,0,0,0,.73-2.61,4,4,0,0,0-.74-2.59,2.49,2.49,0,0,0-2.06-.91,2.54,2.54,0,0,0-2.1.94,4,4,0,0,0-.75,2.6,4,4,0,0,0,.75,2.58A2.6,2.6,0,0,0,547.48,174.7Z"/><rect class="cls-5" width="595.28" height="18"/></g></g></svg>