<svg xmlns="http://www.w3.org/2000/svg" viewBox="0 0 595.28 60.69">
	<defs>
		<style>.cls-1{fill:#5c4da0;}.cls-2{fill:#ededee;}.cls-3{font-size:36px;fill:#231f20;font-family:Mulish-Bold,
			Mulish;font-weight:700;}.cls-4{fill:#b7c4ce;}.cls-5{fill:#a0adbb;}.cls-6{fill:#5a6d76;}.cls-7{fill:#465b62;}
		</style>
	</defs>
	<g id="Layer_2" data-name="Layer 2">
		<g id="Layer_1-2" data-name="Layer 1">
			<rect class="cls-1" y="4" width="595.28" height="56.69" rx="11.34"/>
			<rect class="cls-2" width="595.28" height="56.69" rx="11.34"/>
			<text class="cls-3" transform="translate(82.46 38.84)">Audio</text>
			<path class="cls-4"
			      d="M44.47,11.65,32.41,20l-.24.64h-2.4V35.9h2.44l.2.75L44.47,45A1,1,0,0,0,46,44.22V12.47A1,1,0,0,0,44.47,11.65Z"/>
			<path class="cls-1"
			      d="M49.64,24.8a1.11,1.11,0,0,0,0,1.46,3.18,3.18,0,0,1,.82,2.11,3.24,3.24,0,0,1-.8,2.12,1.11,1.11,0,0,0,0,1.46,1.38,1.38,0,0,0,2.07,0,5.35,5.35,0,0,0,0-7.25,1.4,1.4,0,0,0-2.08.06Z"/>
			<path class="cls-1"
			      d="M52.81,20.9h0A1.13,1.13,0,0,0,53,22.48,7.65,7.65,0,0,1,53,34.27a1.12,1.12,0,0,0-.15,1.58h0a1.42,1.42,0,0,0,2,.14,9.88,9.88,0,0,0-.08-15.25,1.41,1.41,0,0,0-2,.16Z"/>
			<path class="cls-1"
			      d="M56,17.05h0a1.1,1.1,0,0,0,.19,1.6,12.45,12.45,0,0,1,4.91,9.7,12.44,12.44,0,0,1-4.82,9.75,1.11,1.11,0,0,0-.18,1.6h0a1.41,1.41,0,0,0,1.93.17,14.73,14.73,0,0,0,5.71-11.54,14.79,14.79,0,0,0-5.82-11.49A1.39,1.39,0,0,0,56,17.05Z"/>
			<path class="cls-5"
			      d="M44.47,41.75,32.41,33.36v3.29L44.47,45A1,1,0,0,0,46,44.22V40.93A1,1,0,0,1,44.47,41.75Z"/>
			<path class="cls-6" d="M32.41,36.65h-8.7a2.54,2.54,0,0,1-2.54-2.54V22.58A2.54,2.54,0,0,1,23.71,20h8.7Z"/>
			<path class="cls-7"
			      d="M21.17,30.81v3.3a2.54,2.54,0,0,0,2.54,2.54h8.7V33.36h-8.7A2.54,2.54,0,0,1,21.17,30.81Z"/>
		</g>
	</g>
</svg>