<svg xmlns="http://www.w3.org/2000/svg" viewBox="0 0 595.28 139.69"><defs><style>.cls-1,.cls-4{fill:none;}.cls-2{fill:#483d86;}.cls-3{fill:#5c4da0;}.cls-4{stroke:#8d82bd;}.cls-5,.cls-8{isolation:isolate;font-size:15px;font-family:Mulish-Regular, Mulish;}.cls-5,.cls-7{fill:#fff;}.cls-6{letter-spacing:0em;}.cls-7{fill-opacity:0.6;}.cls-8,.cls-9{fill:#010101;}.cls-10{fill:#afa7d1;}.cls-11{letter-spacing:0.04em;}.cls-12{letter-spacing:-0.01em;}.cls-13{letter-spacing:0em;}.cls-14{letter-spacing:-0.01em;}</style></defs><g id="Layer_2" data-name="Layer 2"><g id="Layer_1-2" data-name="Layer 1"><rect class="cls-1" width="595.28" height="18"/><path class="cls-2" d="M1,9A8,8,0,0,1,9,1h7l6,4h3l6-4H259.33V26H30.5l-6,4h-3l-6-4H9a8,8,0,0,1-8-8Z"/><path class="cls-3" d="M0,8A8,8,0,0,1,8,0h7l6,4h3l6-4H258.33V25H29.5l-6,4h-3l-6-4H8a8,8,0,0,1-8-8Z"/><path class="cls-4" d="M.5,7.5A7.5,7.5,0,0,1,8,.5h7l6,4h3l6-4h9.5m0,0H257.83M2.7,22.3A7.47,7.47,0,0,1,.5,17V8"/><text class="cls-5" transform="translate(10 17.5)">play tone n<tspan class="cls-6" x="76.9" y="0">o</tspan><tspan x="85.47" y="0">te</tspan></text><rect class="cls-7" x="112.43" y="5" width="45.25" height="16" rx="4"/><text class="cls-8" transform="translate(117.43 17.5)">B0</text><text class="cls-5" transform="translate(162.68 17.5)">beat</text><rect class="cls-7" x="198.4" y="5" width="54.93" height="16" rx="4"/><text class="cls-8" transform="translate(203.4 17.5)">half</text><polygon class="cls-9" points="243.35 17.31 248.33 8.69 238.38 8.69 243.35 17.31"/><polygon class="cls-9" points="147.71 17.31 152.68 8.69 142.73 8.69 147.71 17.31"/><rect class="cls-10" x="112.43" y="31.69" width="44.88" height="108" rx="5.67"/><text class="cls-8" transform="translate(115.74 44.89)">B0<tspan x="0" y="18">C1</tspan><tspan x="0" y="36">.</tspan><tspan x="0" y="54">.</tspan><tspan x="0" y="72">C8</tspan><tspan x="0" y="90">D8</tspan></text><polygon class="cls-9" points="147.71 44.7 152.68 36.08 142.73 36.08 147.71 44.7"/><rect class="cls-10" x="198.4" y="31.69" width="62.91" height="108" rx="5.67"/><text class="cls-8" transform="translate(201.7 44.89)">half<tspan x="0" y="18">qua</tspan><tspan class="cls-11" x="26.65" y="18">r</tspan><tspan x="32.68" y="18">ter</tspan><tspan x="0" y="36">eighth</tspan><tspan x="0" y="54">whole</tspan><tspan x="0" y="72">double</tspan><tspan class="cls-12" x="0" y="90">z</tspan><tspan class="cls-13" x="7.59" y="90">e</tspan><tspan class="cls-14" x="15.75" y="90">r</tspan><tspan x="21.03" y="90">o</tspan></text><polygon class="cls-9" points="250.67 44.7 255.65 36.08 245.69 36.08 250.67 44.7"/></g></g></svg>