<svg xmlns="http://www.w3.org/2000/svg" viewBox="0 0 595.28 164.27"><defs><style>.cls-1,.cls-4{fill:none;}.cls-1{stroke:#444545;stroke-miterlimit:10;stroke-width:0.5px;}.cls-2{fill:#010101;}.cls-3{fill:#231f20;}</style></defs><g id="Layer_2" data-name="Layer 2"><g id="Layer_1-2" data-name="Layer 1"><line class="cls-1" x1="595.28" y1="119.82" y2="119.82"/><line class="cls-1" x1="595.28" y1="97.64" y2="97.64"/><line class="cls-1" x1="595.28" y1="75.46" y2="75.46"/><line class="cls-1" x1="595.28" y1="53.29" y2="53.29"/><line class="cls-1" x1="595.28" y1="31.11" y2="31.11"/><path class="cls-2" d="M86.48,77.85a17.24,17.24,0,0,0-12.82-3.74c0-9.78,0-18.94,0-25.9C82,42.91,87.9,39.12,92.86,27.7,99.56,12.28,86.48,0,86.48,0L86,.21c-.7.3-17.15,7.8-15.12,41.3l.06.89a121.07,121.07,0,0,1-11.57,7.9C39.24,62.48,29.6,78.72,33.57,93.72c3,11.47,13.85,19.42,26.84,19.76a49.84,49.84,0,0,0,11,0c-.25,12.84-.54,21.81-.55,22.07s.34,12.78-12.16,15.4c-6.9,1.44-13.25-.52-17.47-4.78-4.55-4.59-2.33-13.75-2.33-11.92a9.73,9.73,0,1,0,11.44-9.57c-5.17-1.17-11.25,1-13.31,7.58a15,15,0,0,0,3.08,14.93,18.5,18.5,0,0,0,13.94,5.77,24.51,24.51,0,0,0,5-.53,16.61,16.61,0,0,0,7.2-3.31l0,0a17.5,17.5,0,0,0,7.55-14.28s0-9.07,0-21.73h.08c9.41-1.59,15.88-6,18.69-12.77A19.32,19.32,0,0,0,86.48,77.85ZM73.75,36.54c.16-9.21,2.52-15,3.21-16.46A37.1,37.1,0,0,1,88.78,7a20.19,20.19,0,0,1,.84,9.38c-1.12,7.77-6.56,15.82-15.91,23.72C73.72,38.57,73.73,37.34,73.75,36.54Zm-2.29,74.82a37.63,37.63,0,0,1-5.55.86,46.66,46.66,0,0,1-5.38-.25c-6.18-.67-12.05-1.52-16.41-6.49a26.52,26.52,0,0,1-5.8-14.27l.08.17C36.63,75.33,50,64.84,63.92,54.74c2.65-1.93,5.08-3.53,7.35-5,.29,7.59.44,16.06.48,24.64a24,24,0,0,0-9,4.18c-.11.07-11.32,8.13-3.8,19.6A10,10,0,0,0,67,101.36s-7.58-3.51-5.5-13.17c.93-4.31,5.33-6.8,10.24-7C71.76,91.93,71.62,102.46,71.46,111.36Zm2.25-.61c0-8.88,0-19.27,0-29.45A14.83,14.83,0,0,1,86.92,92.74C89.34,102.16,82.35,108.12,73.71,110.75Z"/><path class="cls-2" d="M344.41,81c-2-3.81-8.33-4.42-14.06-1.36s-8.73,8.62-6.7,12.43,8.33,4.42,14.06,1.36S346.44,84.83,344.41,81Zm-7.85,10.22c-4.45,2.37-10.16,3.66-11.73.71s2.61-7.16,7.05-9.53,9.48-3.15,11.06-.2S341,88.87,336.56,91.24Z"/><path class="cls-2" d="M342.93,29.86V81.09H343a2.88,2.88,0,0,1,1.27,2.74H345v-54Z"/><path class="cls-2" d="M441,81c2,3.81-1,9.38-6.69,12.43s-12,2.45-14.06-1.36,1-9.38,6.7-12.43S439,77.21,441,81Z"/><rect class="cls-2" x="439.51" y="29.86" width="2.12" height="53.98"/><path class="cls-2" d="M547.45,37.42a16.13,16.13,0,0,1-5.24-4.3,8.8,8.8,0,0,1-1.64-3.26h-1V79.29c-2.8-2.18-7.87-2.14-12.58.37-5.73,3-8.73,8.62-6.7,12.43s8.33,4.42,14.06,1.36c4.43-2.36,7.21-6.22,7.32-9.61h0V38c2.5,3.18,8.61,4.88,10.71,8.42,2.2,3.73.82,9.31.82,9.31C557.9,44.16,552.74,40.4,547.45,37.42Z"/><path class="cls-3" d="M121.18,160.22h-1.46v-2.45l.22.2a3,3,0,0,1-1.18,1.76,3.58,3.58,0,0,1-2.12.61,3.78,3.78,0,0,1-2.12-.59,3.89,3.89,0,0,1-1.42-1.67,6.44,6.44,0,0,1,0-5,3.81,3.81,0,0,1,1.41-1.63,3.92,3.92,0,0,1,2.14-.58,3.59,3.59,0,0,1,2.12.62,3.06,3.06,0,0,1,1.18,1.75l-.23.19v-6.58h1.47Zm-4.25-1.09a2.5,2.5,0,0,0,2.06-.92,5,5,0,0,0,0-5.19,2.51,2.51,0,0,0-2.07-.92,2.56,2.56,0,0,0-2.1.91,3.91,3.91,0,0,0-.75,2.56,4.09,4.09,0,0,0,.75,2.62A2.53,2.53,0,0,0,116.93,159.13Z"/><path class="cls-3" d="M127.8,160.34a4.28,4.28,0,0,1-2.27-.58,3.81,3.81,0,0,1-1.51-1.64,6.1,6.1,0,0,1,0-5,3.89,3.89,0,0,1,1.51-1.65,4.75,4.75,0,0,1,4.55,0,4,4,0,0,1,1.51,1.65,6.21,6.21,0,0,1,0,5,3.87,3.87,0,0,1-1.51,1.64A4.32,4.32,0,0,1,127.8,160.34Zm0-1.21a2.53,2.53,0,0,0,2.08-.9,4.05,4.05,0,0,0,.74-2.62,4,4,0,0,0-.75-2.6,2.5,2.5,0,0,0-2.07-.91,2.53,2.53,0,0,0-2.07.91,3.92,3.92,0,0,0-.76,2.6,4.05,4.05,0,0,0,.74,2.62A2.55,2.55,0,0,0,127.8,159.13Z"/><path class="cls-3" d="M137.65,160.34a3.21,3.21,0,0,1-2.47-.9,3.88,3.88,0,0,1-.82-2.69v-5.67h1.47v5.63a2.71,2.71,0,0,0,.51,1.82,1.93,1.93,0,0,0,1.54.58,2.58,2.58,0,0,0,2-.78,2.89,2.89,0,0,0,.75-2.09v-5.16h1.47v9.14h-1.44v-2l.22-.11a3,3,0,0,1-1.22,1.65A3.51,3.51,0,0,1,137.65,160.34Z"/><path class="cls-3" d="M144.89,160.22V146.85h1.47v6.58l-.2-.19a3.11,3.11,0,0,1,1.18-1.75,3.56,3.56,0,0,1,2.11-.62,3.83,3.83,0,0,1,2.12.58,4.07,4.07,0,0,1,1.43,1.63,5.65,5.65,0,0,1,.51,2.49,5.8,5.8,0,0,1-.51,2.51,4,4,0,0,1-1.44,1.67,3.77,3.77,0,0,1-2.11.59,3.55,3.55,0,0,1-2.11-.61,3.07,3.07,0,0,1-1.18-1.76l.2-.2v2.45Zm4.28-1.09a2.47,2.47,0,0,0,2.07-.94,4.09,4.09,0,0,0,.75-2.62,3.91,3.91,0,0,0-.75-2.56,2.81,2.81,0,0,0-4.15,0,5,5,0,0,0,0,5.19A2.5,2.5,0,0,0,149.17,159.13Z"/><path class="cls-3" d="M155.78,160.22V146.85h1.47v13.37Z"/><path class="cls-3" d="M167.58,159.13a4.29,4.29,0,0,1-1.53.89,5.67,5.67,0,0,1-1.91.32,5,5,0,0,1-2.45-.56,3.86,3.86,0,0,1-1.58-1.62,5.44,5.44,0,0,1-.55-2.54,5.3,5.3,0,0,1,.55-2.48,4,4,0,0,1,1.51-1.67,4.19,4.19,0,0,1,2.24-.6,4,4,0,0,1,2.09.53,3.49,3.49,0,0,1,1.34,1.54,5.75,5.75,0,0,1,.46,2.39v.28h-6.9v-1h6.06l-.47.68a3.72,3.72,0,0,0-.63-2.46,2.31,2.31,0,0,0-1.93-.85,2.51,2.51,0,0,0-2.08.94,4.89,4.89,0,0,0,0,5.27,2.89,2.89,0,0,0,2.31.91,4.42,4.42,0,0,0,1.54-.27,4.6,4.6,0,0,0,1.4-.8Z"/><path class="cls-3" d="M221.86,160.22l-3.38-9.14H220l2.81,8h-.47l2.9-8h1.29l2.87,8H229l2.87-8h1.45l-3.38,9.14h-1.41l-3-8.23h.8l-3,8.23Z"/><path class="cls-3" d="M235.19,160.22V146.85h1.47v6.09l-.24.18a3.12,3.12,0,0,1,1.27-1.68,3.72,3.72,0,0,1,2.05-.57q3.28,0,3.29,3.61v5.74h-1.47v-5.67a2.81,2.81,0,0,0-.51-1.86,2,2,0,0,0-1.6-.59,2.7,2.7,0,0,0-2,.78,2.87,2.87,0,0,0-.76,2.11v5.23Z"/><path class="cls-3" d="M249.58,160.34a4.28,4.28,0,0,1-2.27-.58,3.81,3.81,0,0,1-1.51-1.64,6.1,6.1,0,0,1,0-5,3.89,3.89,0,0,1,1.51-1.65,4.75,4.75,0,0,1,4.55,0,4,4,0,0,1,1.51,1.65,6.21,6.21,0,0,1,0,5,3.87,3.87,0,0,1-1.51,1.64A4.32,4.32,0,0,1,249.58,160.34Zm0-1.21a2.53,2.53,0,0,0,2.08-.9,4.05,4.05,0,0,0,.74-2.62,4,4,0,0,0-.75-2.6,2.5,2.5,0,0,0-2.07-.91,2.53,2.53,0,0,0-2.07.91,3.92,3.92,0,0,0-.76,2.6,4.05,4.05,0,0,0,.74,2.62A2.55,2.55,0,0,0,249.58,159.13Z"/><path class="cls-3" d="M256.19,160.22V146.85h1.47v13.37Z"/><path class="cls-3" d="M268,159.13a4.38,4.38,0,0,1-1.53.89,5.69,5.69,0,0,1-1.92.32,4.94,4.94,0,0,1-2.44-.56,3.86,3.86,0,0,1-1.58-1.62,6.05,6.05,0,0,1,0-5,4.1,4.1,0,0,1,1.52-1.67,4.17,4.17,0,0,1,2.24-.6,4,4,0,0,1,2.09.53,3.47,3.47,0,0,1,1.33,1.54,5.6,5.6,0,0,1,.47,2.39v.28h-6.9v-1h6.06l-.47.68a3.84,3.84,0,0,0-.63-2.46,2.31,2.31,0,0,0-1.93-.85,2.51,2.51,0,0,0-2.08.94,4.89,4.89,0,0,0,0,5.27,2.88,2.88,0,0,0,2.31.91,4.46,4.46,0,0,0,1.54-.27,4.72,4.72,0,0,0,1.4-.8Z"/><path class="cls-3" d="M318.89,160.29V146.93h1.47V153l-.24.18a3.17,3.17,0,0,1,1.27-1.68,3.75,3.75,0,0,1,2.06-.57q3.29,0,3.28,3.61v5.74h-1.47v-5.66a2.84,2.84,0,0,0-.51-1.87,2,2,0,0,0-1.59-.59,2.73,2.73,0,0,0-2,.78,2.91,2.91,0,0,0-.76,2.11v5.23Z"/><path class="cls-3" d="M333,160.42a3.86,3.86,0,0,1-2.13-.58,3.78,3.78,0,0,1-1.42-1.63,5.87,5.87,0,0,1-.49-2.5,5.75,5.75,0,0,1,.5-2.5,4,4,0,0,1,1.43-1.67,3.75,3.75,0,0,1,2.11-.6,3.6,3.6,0,0,1,2.13.62,3.07,3.07,0,0,1,1.18,1.76l-.22.14v-2.3h1.45v9.13H336.1v-2.36l.22.11a3.07,3.07,0,0,1-1.18,1.76A3.6,3.6,0,0,1,333,160.42Zm.29-1.22a2.48,2.48,0,0,0,2.07-.92,5,5,0,0,0,0-5.2,2.51,2.51,0,0,0-2.06-.91,2.55,2.55,0,0,0-2.09.94,4,4,0,0,0-.76,2.6,3.87,3.87,0,0,0,.76,2.58A2.55,2.55,0,0,0,333.3,159.2Z"/><path class="cls-3" d="M340.4,160.29V146.93h1.48v13.36Z"/><path class="cls-3" d="M343.44,152.32v-1.16h5.48v1.16Zm5.73-4a3.33,3.33,0,0,0-.94-.15,2,2,0,0,0-.79.16,1.15,1.15,0,0,0-.56.55,2.59,2.59,0,0,0-.2,1.11v10.35h-1.47V149.76a3,3,0,0,1,.73-2.19,2.72,2.72,0,0,1,2-.72c.2,0,.41,0,.61,0a3.25,3.25,0,0,1,.62.13Z"/><path class="cls-3" d="M408.49,162.78H407v-6.36l.24.18a3.1,3.1,0,0,1-1.18,1.77A3.59,3.59,0,0,1,404,159a3.94,3.94,0,0,1-2.13-.57,3.84,3.84,0,0,1-1.42-1.63,5.87,5.87,0,0,1-.5-2.5,5.8,5.8,0,0,1,.51-2.51,4,4,0,0,1,1.43-1.67,3.75,3.75,0,0,1,2.11-.6,3.6,3.6,0,0,1,2.13.62,3.07,3.07,0,0,1,1.18,1.76l-.18-.27.2-1.89h1.36c-.05.43-.09.85-.11,1.28s0,.86,0,1.28Zm-4.25-5a2.48,2.48,0,0,0,2.07-.92,4.08,4.08,0,0,0,.73-2.61,4,4,0,0,0-.74-2.59,2.48,2.48,0,0,0-2.06-.91,2.54,2.54,0,0,0-2.09.93,4,4,0,0,0-.76,2.61,3.91,3.91,0,0,0,.76,2.58A2.58,2.58,0,0,0,404.24,157.77Z"/><path class="cls-3" d="M414.57,159a3.14,3.14,0,0,1-2.46-.91,3.86,3.86,0,0,1-.82-2.68v-5.67h1.47v5.63a2.73,2.73,0,0,0,.51,1.82,2,2,0,0,0,1.54.58,2.58,2.58,0,0,0,2-.78,2.89,2.89,0,0,0,.74-2.09v-5.16H419v9.14h-1.44v-2l.22-.11a3.05,3.05,0,0,1-1.23,1.65A3.47,3.47,0,0,1,414.57,159Z"/><path class="cls-3" d="M425.32,159a3.94,3.94,0,0,1-2.13-.57,3.84,3.84,0,0,1-1.42-1.63,5.87,5.87,0,0,1-.49-2.5,5.8,5.8,0,0,1,.5-2.51,4,4,0,0,1,1.43-1.67,3.75,3.75,0,0,1,2.11-.6,3.6,3.6,0,0,1,2.13.62,3.07,3.07,0,0,1,1.18,1.76l-.22.15v-2.31h1.45v9.14h-1.45V156.5l.22.1a3.1,3.1,0,0,1-1.18,1.77A3.59,3.59,0,0,1,425.32,159Zm.29-1.21a2.48,2.48,0,0,0,2.07-.92,4.08,4.08,0,0,0,.73-2.61,4,4,0,0,0-.74-2.59,2.48,2.48,0,0,0-2.06-.91,2.54,2.54,0,0,0-2.09.93,4,4,0,0,0-.76,2.61,3.91,3.91,0,0,0,.76,2.58A2.58,2.58,0,0,0,425.61,157.77Z"/><path class="cls-3" d="M432.71,158.86v-6.58c0-.42,0-.85,0-1.28s-.06-.85-.12-1.28H434l.2,2.25-.2-.05a2.83,2.83,0,0,1,1.09-1.81,3.23,3.23,0,0,1,1.9-.61,3.19,3.19,0,0,1,.45,0l.39.08,0,1.35a2.85,2.85,0,0,0-1-.15,2.51,2.51,0,0,0-1.52.42,2.39,2.39,0,0,0-.83,1.06,3.46,3.46,0,0,0-.27,1.35v5.22Z"/><path class="cls-3" d="M438.72,150.88v-1.16h5.87v1.16Zm5.83,6.67v1.25a4.84,4.84,0,0,1-.61.14,4.5,4.5,0,0,1-.66,0,2.83,2.83,0,0,1-2-.72,2.91,2.91,0,0,1-.75-2.18v-8.7l1.47-.53v9a2.43,2.43,0,0,0,.21,1.12,1.19,1.19,0,0,0,.57.56,2.18,2.18,0,0,0,.82.15,3.68,3.68,0,0,0,.49,0A4,4,0,0,0,444.55,157.55Z"/><path class="cls-3" d="M453.85,157.77a4.43,4.43,0,0,1-1.54.89,5.93,5.93,0,0,1-1.91.32,5,5,0,0,1-2.45-.56,3.88,3.88,0,0,1-1.58-1.63,6,6,0,0,1,0-5,4.07,4.07,0,0,1,1.51-1.67,4.19,4.19,0,0,1,2.24-.6,3.89,3.89,0,0,1,2.09.54,3.49,3.49,0,0,1,1.34,1.54A5.75,5.75,0,0,1,454,154v.27h-6.9v-1h6.06l-.47.67a3.77,3.77,0,0,0-.62-2.45,2.31,2.31,0,0,0-1.94-.85,2.53,2.53,0,0,0-2.08.93,4.05,4.05,0,0,0-.75,2.59,4,4,0,0,0,.79,2.69,2.92,2.92,0,0,0,2.31.91,4.56,4.56,0,0,0,2.94-1.08Z"/><path class="cls-3" d="M456.24,158.86v-6.58c0-.42,0-.85,0-1.28s-.06-.85-.12-1.28h1.4l.2,2.25-.2-.05a2.87,2.87,0,0,1,1.09-1.81,3.23,3.23,0,0,1,1.9-.61,3.19,3.19,0,0,1,.45,0l.39.08,0,1.35a2.85,2.85,0,0,0-1-.15,2.51,2.51,0,0,0-1.52.42,2.39,2.39,0,0,0-.83,1.06,3.46,3.46,0,0,0-.27,1.35v5.22Z"/><path class="cls-3" d="M520.08,159.13a4.29,4.29,0,0,1-1.53.89,5.69,5.69,0,0,1-1.92.32,5,5,0,0,1-2.44-.56,3.86,3.86,0,0,1-1.58-1.62,6.05,6.05,0,0,1,0-5,4.1,4.1,0,0,1,1.52-1.67,4.19,4.19,0,0,1,2.24-.6,4,4,0,0,1,2.09.53,3.49,3.49,0,0,1,1.34,1.54,5.75,5.75,0,0,1,.46,2.39v.28h-6.9v-1h6.06l-.47.68a3.72,3.72,0,0,0-.63-2.46,2.31,2.31,0,0,0-1.93-.85,2.51,2.51,0,0,0-2.08.94,4.89,4.89,0,0,0,0,5.27,2.88,2.88,0,0,0,2.31.91,4.42,4.42,0,0,0,1.54-.27,4.6,4.6,0,0,0,1.4-.8Z"/><path class="cls-3" d="M522.34,147.22h1.79v1.67h-1.79Zm.14,13v-9.14H524v9.14Z"/><path class="cls-3" d="M530.81,164.27a6.68,6.68,0,0,1-3.59-1l.25-1.2a7,7,0,0,0,1.62.71,6.08,6.08,0,0,0,1.72.22,2.62,2.62,0,0,0,2-.7,2.85,2.85,0,0,0,.68-2.08V157.8l.2-.23a3.35,3.35,0,0,1-.68,1.26,3,3,0,0,1-1.13.82,3.73,3.73,0,0,1-1.53.29,3.85,3.85,0,0,1-3.57-2.16,5.79,5.79,0,0,1,0-4.75,3.85,3.85,0,0,1,3.57-2.16,3.64,3.64,0,0,1,2.15.62,3,3,0,0,1,1.19,1.75l-.22-.19v-2h1.48v9.06a3.68,3.68,0,0,1-4.13,4.13Zm-.18-5.56a2.57,2.57,0,0,0,2.08-.88,4.3,4.3,0,0,0,0-4.85,2.6,2.6,0,0,0-2.08-.88,2.68,2.68,0,0,0-2.11.88,4.22,4.22,0,0,0,0,4.86A2.67,2.67,0,0,0,530.63,158.71Z"/><path class="cls-3" d="M537.77,160.22V146.85h1.47v6.09l-.24.18a3.17,3.17,0,0,1,1.27-1.68,3.75,3.75,0,0,1,2.06-.57q3.28,0,3.28,3.61v5.74h-1.47v-5.67a2.81,2.81,0,0,0-.51-1.86,2,2,0,0,0-1.59-.59,2.73,2.73,0,0,0-2,.78,2.87,2.87,0,0,0-.76,2.11v5.23Z"/><path class="cls-3" d="M547.1,152.25v-1.17H553v1.17Zm5.83,6.66v1.25a4.84,4.84,0,0,1-.61.14,4.5,4.5,0,0,1-.66,0,2.83,2.83,0,0,1-2-.72,2.91,2.91,0,0,1-.75-2.18v-8.7l1.47-.52v9a2.5,2.5,0,0,0,.21,1.13,1.17,1.17,0,0,0,.57.55,2.14,2.14,0,0,0,.82.15,3.68,3.68,0,0,0,.49,0A4.55,4.55,0,0,0,552.93,158.91Z"/><path class="cls-3" d="M554.74,160.22V146.85h1.47v6.09l-.23.18a3.12,3.12,0,0,1,1.27-1.68,3.72,3.72,0,0,1,2-.57q3.29,0,3.29,3.61v5.74h-1.47v-5.67a2.81,2.81,0,0,0-.51-1.86,2,2,0,0,0-1.6-.59,2.69,2.69,0,0,0-2,.78,2.88,2.88,0,0,0-.77,2.11v5.23Z"/><path class="cls-2" d="M243.33,78.74c-6.49,0-11.77,3.48-11.77,7.8s5.25,7.82,11.75,7.83,11.76-3.48,11.77-7.8S249.83,78.75,243.33,78.74Zm8,10c-.72,2.6-4.89,3.72-9.33,2.5s-7.46-4.3-6.75-6.9,4.89-3.71,9.33-2.5S252.07,86.16,251.36,88.75Z"/><path class="cls-2" d="M140.18,78.74c-6.49,0-11.77,3.48-11.77,7.8s5.25,7.82,11.75,7.83,11.76-3.48,11.77-7.8S146.68,78.75,140.18,78.74Zm8,10c-.72,2.6-4.89,3.72-9.33,2.5s-7.46-4.3-6.74-6.9,4.88-3.71,9.32-2.5S148.92,86.16,148.21,88.75Z"/><rect class="cls-2" x="123.29" y="77.08" width="3.3" height="18.94"/><rect class="cls-2" x="153.75" y="77.08" width="3.3" height="18.94"/><rect class="cls-4" width="595.28" height="18"/></g></g></svg>