<svg xmlns="http://www.w3.org/2000/svg" viewBox="0 0 595.4 26"><defs><style>.cls-1,.cls-4{fill:none;}.cls-2{fill:#298c50;}.cls-3{fill:#32af63;}.cls-4{stroke:#73c593;}.cls-5{isolation:isolate;font-size:15px;fill:#fff;font-family:Mulish-Regular, Mulish;}.cls-6{letter-spacing:0em;}.cls-7{letter-spacing:0em;}.cls-8{letter-spacing:-0.01em;}.cls-9{letter-spacing:0em;}</style></defs><g id="Layer_2" data-name="Layer 2"><g id="Layer_1-2" data-name="Layer 1"><rect class="cls-1" x="0.12" width="595.28" height="18"/><path class="cls-2" d="M9.12,1H187.59V26H9.12V21c0-10-8,8-8-7.5s8,2.5,8-7.5Z"/><path class="cls-3" d="M8.12,0H186.59V25H8.12V20c0-10-8,8-8-7.5s8,2.5,8-7.5Z"/><path class="cls-4" d="M8.62.5h19m0,0H186.09M8.62,24.5v-6M1.26,18a20.35,20.35,0,0,1,0-11M8.62,8V.5h.5"/><text class="cls-5" transform="translate(18.12 17.5)">d<tspan class="cls-6" x="9" y="0">e</tspan><tspan x="17.11" y="0">te</tspan><tspan class="cls-7" x="30.52" y="0">c</tspan><tspan x="37.96" y="0">t cha</tspan><tspan class="cls-8" x="72.33" y="0">r</tspan><tspan class="cls-9" x="77.61" y="0">ge compl</tspan><tspan class="cls-6" x="140.5" y="0">e</tspan><tspan x="148.62" y="0">te</tspan></text></g></g></svg>