<svg xmlns="http://www.w3.org/2000/svg" viewBox="0 0 595.28 60.69"><defs><style>.cls-1,.cls-11{fill:#32af63;}.cls-2{fill:#ededee;}.cls-3{font-size:36px;fill:#231f20;font-family:Mulish-Bold, Mulish;font-weight:700;}.cls-4{letter-spacing:-0.01em;}.cls-5{letter-spacing:0.03em;}.cls-6{fill:#bababa;}.cls-11,.cls-12,.cls-6,.cls-7,.cls-8,.cls-9{fill-rule:evenodd;}.cls-7{fill:#626e80;}.cls-8{fill:#414d63;}.cls-9{fill:#9b9a9a;}.cls-10{fill:#e6e6e5;}.cls-12{fill:#289b50;}</style></defs><g id="Layer_2" data-name="Layer 2"><g id="Layer_1-2" data-name="Layer 1"><rect class="cls-1" y="4" width="595.28" height="56.69" rx="11.34"/><rect class="cls-2" width="595.28" height="56.69" rx="11.34"/><text class="cls-3" transform="translate(82.46 38.84)">Ba<tspan class="cls-4" x="47.12" y="0">t</tspan><tspan x="60.48" y="0">te</tspan><tspan class="cls-5" x="93.85" y="0">r</tspan><tspan x="109.04" y="0">y</tspan></text><path class="cls-6" d="M44.1,7.09H40.56a1.18,1.18,0,0,0-1.18,1.18V9.6l2.88,1.46,3-1.46V8.27A1.18,1.18,0,0,0,44.1,7.09Z"/><path class="cls-7" d="M34.55,9.6H50.3a2.08,2.08,0,0,1,2.07,2.08V47.54a2.07,2.07,0,0,1-2.07,2.07H34.55a2.07,2.07,0,0,1-2.07-2.07V11.68A2.08,2.08,0,0,1,34.55,9.6Z"/><path class="cls-8" d="M34.49,47.54V11.68A2.08,2.08,0,0,1,36.56,9.6h-2a2.08,2.08,0,0,0-2.07,2.08V47.54a2.07,2.07,0,0,0,2.07,2.07h2A2.07,2.07,0,0,1,34.49,47.54Z"/><path class="cls-9" d="M40.88,8.27a1.19,1.19,0,0,1,1.19-1.18H40.56a1.18,1.18,0,0,0-1.18,1.18V9.6h1.5Z"/><path class="cls-10" d="M44,13.38H43.1v-.91a.68.68,0,0,0-1.35,0v.91h-.91a.68.68,0,0,0,0,1.35h.91v.91a.68.68,0,1,0,1.35,0v-.91H44a.68.68,0,0,0,0-1.35Z"/><path class="cls-10" d="M44.12,47.32H41A.67.67,0,1,1,41,46h3.16a.67.67,0,1,1,0,1.34Z"/><path class="cls-11" d="M48.26,26.4H36.59a.9.9,0,0,0-.9.9v4.61a.9.9,0,0,0,.9.9H48.26a.9.9,0,0,0,.9-.9V27.3A.9.9,0,0,0,48.26,26.4Z"/><path class="cls-12" d="M38,31.91V27.3a.9.9,0,0,1,.9-.9H36.59a.89.89,0,0,0-.89.9v4.61a.89.89,0,0,0,.89.9h2.26A.9.9,0,0,1,38,31.91Z"/><path class="cls-11" d="M48.26,18.4H36.59a.9.9,0,0,0-.9.9v4.61a.9.9,0,0,0,.9.9H48.26a.9.9,0,0,0,.9-.9V19.3A.9.9,0,0,0,48.26,18.4Z"/><path class="cls-12" d="M38,23.91V19.3a.9.9,0,0,1,.9-.9H36.59a.89.89,0,0,0-.89.9v4.61a.89.89,0,0,0,.89.9h2.26A.9.9,0,0,1,38,23.91Z"/><path class="cls-11" d="M48.26,34.4H36.59a.9.9,0,0,0-.9.9v4.61a.9.9,0,0,0,.9.9H48.26a.9.9,0,0,0,.9-.9V35.3A.9.9,0,0,0,48.26,34.4Z"/><path class="cls-12" d="M38,39.91V35.3a.9.9,0,0,1,.9-.9H36.59a.89.89,0,0,0-.89.9v4.61a.89.89,0,0,0,.89.9h2.26A.9.9,0,0,1,38,39.91Z"/></g></g></svg>