<svg xmlns="http://www.w3.org/2000/svg" viewBox="0 0 595.28 41"><defs><style>.cls-1,.cls-4,.cls-7{fill:none;}.cls-2{fill:#8e4582;}.cls-3{fill:#b056a1;}.cls-4{stroke:#c788bb;}.cls-5{fill:#3c866d;}.cls-6{fill:#4ba587;}.cls-7{stroke:#81c1ab;}.cls-10,.cls-17,.cls-8{fill:#fff;}.cls-8{fill-opacity:0.6;}.cls-10,.cls-9{isolation:isolate;font-size:15px;font-family:Mulish-Regular, Mulish;}.cls-9{fill:#010101;}.cls-11{letter-spacing:0em;}.cls-12{letter-spacing:0em;}.cls-13{letter-spacing:0em;}.cls-14{letter-spacing:-0.01em;}.cls-15{letter-spacing:-0.01em;}.cls-16{letter-spacing:-0.01em;}</style></defs><g id="Layer_2" data-name="Layer 2"><g id="Layer_1-2" data-name="Layer 1"><rect class="cls-1" width="595.28" height="18"/><path class="cls-2" d="M1,9A8,8,0,0,1,9,1h7l6,4h3l6-4H244.5V37H30.5l-6,4h-3l-6-4H9a8,8,0,0,1-8-8ZM234.5,6H159.7v5c0,10-8-8-8,7.5s8-2.5,8,7.5v7h74.8Z"/><path class="cls-3" d="M0,8A8,8,0,0,1,8,0h7l6,4h3l6-4H243.5V36H29.5l-6,4h-3l-6-4H8a8,8,0,0,1-8-8ZM233.5,5H158.7v5c0,10-8-8-8,7.5s8-2.5,8,7.5v7h74.8Z"/><path class="cls-4" d="M.5,7.5A7.5,7.5,0,0,1,8,.5h7l6,4h3l6-4h9.5m0,0H243M2.7,33.3A7.47,7.47,0,0,1,.5,28V8M234,5.5v27H159.2m-5.6-8.2,3.68-2.1"/><path class="cls-5" d="M160.7,7h72.8V32H160.7V27c0-10-8,8-8-7.5s8,2.5,8-7.5Z"/><path class="cls-6" d="M159.7,6h72.8V31H159.7V26c0-10-8,8-8-7.5s8,2.5,8-7.5Z"/><path class="cls-7" d="M160.2,6.5H232m-71.8,24v-6m-7.36-.5a20.35,20.35,0,0,1,0-11m7.36,1V6.5h.5"/><rect class="cls-8" x="186.7" y="11" width="18.8" height="16" rx="4"/><text class="cls-9" transform="translate(191.7 23.5)">0</text><text class="cls-10" transform="translate(10 22.5)">Blu<tspan class="cls-11" x="22.44" y="0">e</tspan><tspan x="30.55" y="0">to</tspan><tspan class="cls-12" x="44.38" y="0">o</tspan><tspan class="cls-13" x="52.95" y="0">th </tspan><tspan class="cls-14" x="70.89" y="0">k</tspan><tspan class="cls-15" x="78.48" y="0">e</tspan><tspan x="86.55" y="0">y p</tspan><tspan class="cls-16" x="107.43" y="0">r</tspan><tspan x="112.71" y="0">ess</tspan></text><path class="cls-17" d="M171.84,11l2,1.56a8,8,0,0,0-1.87,2.72,7.36,7.36,0,0,0-.46,2.56L170.23,17H174v5.39h-5.34V18.57a11,11,0,0,1,.7-4A10.34,10.34,0,0,1,171.84,11Zm8.71,0,2,1.56a8,8,0,0,0-1.87,2.72,7.38,7.38,0,0,0-.47,2.56L178.94,17h3.78v5.39h-5.34V18.57a11.23,11.23,0,0,1,.7-4A10.52,10.52,0,0,1,180.55,11Z"/><path class="cls-17" d="M211.65,22.68l-2-1.56a8.64,8.64,0,0,0,1.87-2.75,7.18,7.18,0,0,0,.47-2.54l1.24.83h-3.78V11.32h5.34v3.79a11,11,0,0,1-.7,3.94A11,11,0,0,1,211.65,22.68Zm8.71,0-2-1.56a8.64,8.64,0,0,0,1.87-2.75,7.17,7.17,0,0,0,.46-2.54l1.25.83h-3.79V11.32h5.34v3.79a10.77,10.77,0,0,1-.7,3.94A10.82,10.82,0,0,1,220.36,22.68Z"/></g></g></svg>