<svg xmlns="http://www.w3.org/2000/svg" viewBox="0 0 595.28 121.13"><defs><style>.cls-1,.cls-4{fill:none;}.cls-2{fill:#8e4582;}.cls-3{fill:#b056a1;}.cls-4{stroke:#c788bb;}.cls-11,.cls-5{isolation:isolate;font-size:15px;font-family:Mulish-Regular, Mulish;}.cls-10,.cls-5{fill:#fff;}.cls-6{letter-spacing:0em;}.cls-7{letter-spacing:0em;}.cls-8{letter-spacing:0em;}.cls-9{letter-spacing:-0.01em;}.cls-10{fill-opacity:0.6;}.cls-11,.cls-14{fill:#010101;}.cls-12{letter-spacing:-0.03em;}.cls-13{letter-spacing:-0.06em;}.cls-15{fill:#dab4d4;}.cls-16{letter-spacing:-0.01em;}.cls-17{letter-spacing:-0.01em;}.cls-18{letter-spacing:0em;}</style></defs><g id="Layer_2" data-name="Layer 2"><g id="Layer_1-2" data-name="Layer 1"><rect class="cls-1" width="595.28" height="18"/><path class="cls-2" d="M1,9A8,8,0,0,1,9,1h7l6,4h3l6-4H288.2V26H30.5l-6,4h-3l-6-4H9a8,8,0,0,1-8-8Z"/><path class="cls-3" d="M0,8A8,8,0,0,1,8,0h7l6,4h3l6-4H287.2V25H29.5l-6,4h-3l-6-4H8a8,8,0,0,1-8-8Z"/><path class="cls-4" d="M.5,7.5A7.5,7.5,0,0,1,8,.5h7l6,4h3l6-4h9.5m0,0H286.7M2.7,22.3A7.47,7.47,0,0,1,.5,17V8"/><text class="cls-5" transform="translate(10 17.5)">Blu<tspan class="cls-6" x="22.44" y="0">e</tspan><tspan x="30.55" y="0">to</tspan><tspan class="cls-7" x="44.38" y="0">o</tspan><tspan class="cls-8" x="52.95" y="0">th media cont</tspan><tspan class="cls-9" x="147.75" y="0">r</tspan><tspan x="153.03" y="0">ol</tspan></text><rect class="cls-10" x="180.5" y="5" width="101.7" height="16" rx="4"/><text class="cls-11" transform="translate(185.5 17.5)">pla<tspan class="cls-12" x="21.57" y="0">y</tspan><tspan class="cls-13" x="29.13" y="0">/</tspan><tspan class="cls-8" x="32.49" y="0">pause</tspan></text><polygon class="cls-14" points="273.22 17.31 278.2 8.69 268.24 8.69 273.22 17.31"/><rect class="cls-15" x="180.5" y="31.88" width="103.35" height="89.25" rx="5.67"/><text class="cls-11" transform="translate(184.9 44.75)">pla<tspan class="cls-12" x="21.57" y="0">y</tspan><tspan class="cls-13" x="29.13" y="0">/</tspan><tspan class="cls-8" x="32.49" y="0">pause</tspan><tspan x="0" y="18">n</tspan><tspan class="cls-16" x="8.77" y="18">e</tspan><tspan class="cls-8" x="16.83" y="18">xt</tspan><tspan x="0" y="36">p</tspan><tspan class="cls-9" x="9" y="36">r</tspan><tspan class="cls-17" x="14.28" y="36">e</tspan><tspan class="cls-18" x="22.35" y="36">vious</tspan><tspan class="cls-17"><tspan x="0" y="54">v</tspan><tspan class="cls-8" x="7.88" y="54">olume +</tspan><tspan x="0" y="72">v</tspan><tspan class="cls-8" x="7.88" y="72">olume -</tspan></tspan></text><polygon class="cls-14" points="273.22 44.56 278.2 35.94 268.24 35.94 273.22 44.56"/></g></g></svg>