<svg xmlns="http://www.w3.org/2000/svg" viewBox="0 0 595.28 69.13"><defs><style>.cls-1,.cls-4{fill:none;}.cls-2{fill:#8e4582;}.cls-3{fill:#b056a1;}.cls-4{stroke:#c788bb;}.cls-11,.cls-5{isolation:isolate;font-size:15px;font-family:Mulish-Regular, Mulish;}.cls-10,.cls-5{fill:#fff;}.cls-6{letter-spacing:0em;}.cls-7{letter-spacing:0em;}.cls-8{letter-spacing:0em;}.cls-9{letter-spacing:0em;}.cls-10{fill-opacity:0.6;}.cls-11,.cls-16{fill:#010101;}.cls-12{letter-spacing:0em;}.cls-13{letter-spacing:-0.02em;}.cls-14{letter-spacing:-0.01em;}.cls-15{letter-spacing:0em;}.cls-17{fill:#dab4d4;}.cls-18{letter-spacing:-0.01em;}</style></defs><g id="Layer_2" data-name="Layer 2"><g id="Layer_1-2" data-name="Layer 1"><rect class="cls-1" width="595.28" height="18"/><path class="cls-2" d="M1,9A8,8,0,0,1,9,1h7l6,4h3l6-4H329.17V26H30.5l-6,4h-3l-6-4H9a8,8,0,0,1-8-8Z"/><path class="cls-3" d="M0,8A8,8,0,0,1,8,0h7l6,4h3l6-4H328.17V25H29.5l-6,4h-3l-6-4H8a8,8,0,0,1-8-8Z"/><path class="cls-4" d="M.5,7.5A7.5,7.5,0,0,1,8,.5h7l6,4h3l6-4h9.5m0,0H327.67M2.7,22.3A7.47,7.47,0,0,1,.5,17V8"/><text class="cls-5" transform="translate(10 17.5)">Blu<tspan class="cls-6" x="22.44" y="0">e</tspan><tspan x="30.55" y="0">to</tspan><tspan class="cls-7" x="44.38" y="0">o</tspan><tspan class="cls-8" x="52.95" y="0">th mouse bu</tspan><tspan class="cls-9" x="138.48" y="0">t</tspan><tspan class="cls-8" x="143.77" y="0">ton</tspan></text><rect class="cls-10" x="180.68" y="5" width="52.15" height="16" rx="4"/><text class="cls-11" transform="translate(185.68 17.5)">l<tspan class="cls-12" x="3.57" y="0">e</tspan><tspan class="cls-13" x="11.71" y="0">f</tspan><tspan x="16.42" y="0">t</tspan></text><rect class="cls-10" x="242.83" y="5" width="80.33" height="16" rx="4"/><text class="cls-11" transform="translate(247.83 17.5)">p<tspan class="cls-14" x="9" y="0">r</tspan><tspan class="cls-15" x="14.28" y="0">essed</tspan></text><polygon class="cls-16" points="314.19 17.31 319.17 8.69 309.21 8.69 314.19 17.31"/><polygon class="cls-16" points="223.85 17.31 228.83 8.69 218.88 8.69 223.85 17.31"/><rect class="cls-17" x="180.68" y="32.05" width="52.13" height="37.09" rx="5.67"/><text class="cls-11" transform="translate(185.09 45.92)">l<tspan class="cls-12" x="3.57" y="0">e</tspan><tspan class="cls-13" x="11.71" y="0">f</tspan><tspan x="16.42" y="0">t</tspan><tspan x="0" y="18">right</tspan></text><polygon class="cls-16" points="223.85 44.73 228.83 36.11 218.88 36.11 223.85 44.73"/><rect class="cls-17" x="242.83" y="32.05" width="79.98" height="37.09" rx="5.67"/><text class="cls-11" transform="translate(247.24 45.92)">p<tspan class="cls-14" x="9" y="0">r</tspan><tspan class="cls-15" x="14.28" y="0">essed</tspan><tspan class="cls-18" x="0" y="18">r</tspan><tspan x="5.28" y="18">eleased</tspan></text><polygon class="cls-16" points="314.19 44.73 319.17 36.11 309.21 36.11 314.19 44.73"/></g></g></svg>