<svg xmlns="http://www.w3.org/2000/svg" viewBox="0 0 595.28 41"><defs><style>.cls-1,.cls-4,.cls-7{fill:none;}.cls-2{fill:#8e4582;}.cls-3{fill:#b056a1;}.cls-4{stroke:#c788bb;}.cls-5{fill:#3c866d;}.cls-6{fill:#4ba587;}.cls-7{stroke:#81c1ab;}.cls-10,.cls-14,.cls-8{fill:#fff;}.cls-8{fill-opacity:0.6;}.cls-10,.cls-9{isolation:isolate;font-size:15px;font-family:Mulish-Regular, Mulish;}.cls-9{fill:#010101;}.cls-11{letter-spacing:0em;}.cls-12{letter-spacing:0em;}.cls-13{letter-spacing:0em;}</style></defs><g id="Layer_2" data-name="Layer 2"><g id="Layer_1-2" data-name="Layer 1"><rect class="cls-1" width="595.28" height="18"/><path class="cls-2" d="M1,9A8,8,0,0,1,9,1h7l6,4h3l6-4H239.5V37H30.5l-6,4h-3l-6-4H9a8,8,0,0,1-8-8ZM229.5,6H128.93v5c0,10-8-8-8,7.5s8-2.5,8,7.5v7H229.5Z"/><path class="cls-3" d="M0,8A8,8,0,0,1,8,0h7l6,4h3l6-4H238.5V36H29.5l-6,4h-3l-6-4H8a8,8,0,0,1-8-8ZM228.5,5H127.93v5c0,10-8-8-8,7.5s8-2.5,8,7.5v7H228.5Z"/><path class="cls-4" d="M.5,7.5A7.5,7.5,0,0,1,8,.5h7l6,4h3l6-4h9.5m0,0H238M2.7,33.3A7.47,7.47,0,0,1,.5,28V8M229,5.5v27H128.43m-5.6-8.2,3.68-2.1"/><path class="cls-5" d="M129.93,7H228.5V32H129.93V27c0-10-8,8-8-7.5s8,2.5,8-7.5Z"/><path class="cls-6" d="M128.93,6H227.5V31H128.93V26c0-10-8,8-8-7.5s8,2.5,8-7.5Z"/><path class="cls-7" d="M129.43,6.5H227m-97.57,24v-6m-7.36-.5a20.35,20.35,0,0,1,0-11m7.36,1V6.5h.5"/><rect class="cls-8" x="155.93" y="11" width="44.57" height="16" rx="4"/><text class="cls-9" transform="translate(160.93 23.5)">Hello</text><text class="cls-10" transform="translate(10 22.5)">Blu<tspan class="cls-11" x="22.44" y="0">e</tspan><tspan x="30.55" y="0">to</tspan><tspan class="cls-12" x="44.38" y="0">o</tspan><tspan class="cls-13" x="52.95" y="0">th send</tspan></text><path class="cls-14" d="M141.07,11.32l2,1.56a8.35,8.35,0,0,0-1.87,2.72,7.42,7.42,0,0,0-.46,2.57l-1.25-.88h3.79v5.39h-5.34V18.89a11,11,0,0,1,.7-4A10.56,10.56,0,0,1,141.07,11.32Zm8.71,0,2,1.56a8.2,8.2,0,0,0-1.87,2.72,7.42,7.42,0,0,0-.46,2.57l-1.25-.88H152v5.39h-5.34V18.89a11,11,0,0,1,.7-4A10.42,10.42,0,0,1,149.78,11.32Z"/><path class="cls-14" d="M206.65,22.68l-2-1.56a8.64,8.64,0,0,0,1.87-2.75,7.18,7.18,0,0,0,.47-2.54l1.24.83h-3.78V11.32h5.34v3.79a11,11,0,0,1-.7,3.94A11,11,0,0,1,206.65,22.68Zm8.71,0-2-1.56a8.64,8.64,0,0,0,1.87-2.75,7.17,7.17,0,0,0,.46-2.54l1.25.83h-3.79V11.32h5.34v3.79a10.77,10.77,0,0,1-.7,3.94A10.82,10.82,0,0,1,215.36,22.68Z"/></g></g></svg>