<svg xmlns="http://www.w3.org/2000/svg" viewBox="0 0 595.28 86.13"><defs><style>.cls-1,.cls-4{fill:none;}.cls-2{fill:#8e4582;}.cls-3{fill:#b056a1;}.cls-4{stroke:#c788bb;}.cls-10,.cls-5{isolation:isolate;font-size:15px;font-family:Mulish-Regular, Mulish;}.cls-5,.cls-9{fill:#fff;}.cls-6{letter-spacing:0em;}.cls-7{letter-spacing:0em;}.cls-8{letter-spacing:0em;}.cls-9{fill-opacity:0.6;}.cls-10,.cls-14{fill:#010101;}.cls-11{letter-spacing:-0.01em;}.cls-12{letter-spacing:-0.01em;}.cls-13{letter-spacing:0em;}.cls-15{fill:#dab4d4;}.cls-16{letter-spacing:-0.01em;}.cls-17{letter-spacing:-0.01em;}</style></defs><g id="Layer_2" data-name="Layer 2"><g id="Layer_1-2" data-name="Layer 1"><rect class="cls-1" width="595.28" height="18"/><path class="cls-2" d="M1,9A8,8,0,0,1,9,1h7l6,4h3l6-4H262V26H30.5l-6,4h-3l-6-4H9a8,8,0,0,1-8-8Z"/><path class="cls-3" d="M0,8A8,8,0,0,1,8,0h7l6,4h3l6-4H261V25H29.5l-6,4h-3l-6-4H8a8,8,0,0,1-8-8Z"/><path class="cls-4" d="M.5,7.5A7.5,7.5,0,0,1,8,.5h7l6,4h3l6-4h9.5m0,0h221M2.7,22.3A7.47,7.47,0,0,1,.5,17V8"/><text class="cls-5" transform="translate(10 17.5)">Blu<tspan class="cls-6" x="22.44" y="0">e</tspan><tspan x="30.55" y="0">to</tspan><tspan class="cls-7" x="44.38" y="0">o</tspan><tspan class="cls-8" x="52.95" y="0">th</tspan></text><rect class="cls-9" x="80.47" y="5" width="103.73" height="16" rx="4"/><text class="cls-10" transform="translate(85.47 17.5)">t<tspan class="cls-11" x="5.25" y="0">r</tspan><tspan x="10.53" y="0">anscei</tspan><tspan class="cls-12" x="54.9" y="0">v</tspan><tspan class="cls-13" x="62.77" y="0">er</tspan></text><text class="cls-5" transform="translate(189.2 17.5)">id</text><rect class="cls-9" x="206.48" y="5" width="18.8" height="16" rx="4"/><text class="cls-10" transform="translate(211.48 17.5)">0</text><text class="cls-5" transform="translate(230.28 17.5)">init</text><polygon class="cls-14" points="175.22 17.31 180.2 8.69 170.24 8.69 175.22 17.31"/><rect class="cls-15" x="80.47" y="31.84" width="103.35" height="54.3" rx="5.67"/><text class="cls-10" transform="translate(84.87 44.71)">t<tspan class="cls-11" x="5.25" y="0">r</tspan><tspan x="10.53" y="0">anscei</tspan><tspan class="cls-12" x="54.9" y="0">v</tspan><tspan class="cls-13" x="62.77" y="0">er</tspan><tspan class="cls-16" x="0" y="18">B</tspan><tspan x="10.06" y="18">T </tspan><tspan class="cls-17" x="23.02" y="18">k</tspan><tspan class="cls-12" x="30.62" y="18">e</tspan><tspan x="38.69" y="18">yboa</tspan><tspan class="cls-11" x="73.23" y="18">r</tspan><tspan x="78.51" y="18">d</tspan><tspan x="0" y="36">HID cont</tspan><tspan class="cls-11" x="60.49" y="36">r</tspan><tspan x="65.77" y="36">ol</tspan></text><polygon class="cls-14" points="175.22 44.52 180.2 35.9 170.24 35.9 175.22 44.52"/></g></g></svg>