<svg xmlns="http://www.w3.org/2000/svg" viewBox="0 0 595.28 60.69"><defs><style>.cls-1{fill:#b056a1;}.cls-2{fill:#ededee;}.cls-3{font-size:36px;fill:#231f20;font-family:Mulish-Bold, Mulish;font-weight:700;}.cls-4{letter-spacing:-0.01em;}.cls-5{letter-spacing:0em;}.cls-6{letter-spacing:0em;}.cls-7{fill:#8b98cc;}.cls-8{fill:#a4def3;}.cls-9{fill:#77d0ee;}.cls-10{fill:#717fbe;}</style></defs><g id="Layer_2" data-name="Layer 2"><g id="Layer_1-2" data-name="Layer 1"><rect class="cls-1" y="4" width="595.28" height="56.69" rx="11.34"/><rect class="cls-2" width="595.28" height="56.69" rx="11.34"/><text class="cls-3" transform="translate(82.46 38.84)">Blu<tspan class="cls-4" x="55.62" y="0">e</tspan><tspan class="cls-5" x="75.09" y="0">to</tspan><tspan class="cls-6" x="110.05" y="0">o</tspan><tspan x="131.25" y="0">th</tspan></text><path class="cls-7" d="M54.73,37.16l-13.9,12a1.9,1.9,0,0,1-1.23.46,2,2,0,0,1-.78-.17,1.88,1.88,0,0,1-1.09-1.71V39.47a1.88,1.88,0,1,1,3.75,0v4.16l6-5.15,3-2.57L30.29,22.22a1.88,1.88,0,0,1,2.11-3.11L54.56,34.18a1.92,1.92,0,0,1,.82,1.45A1.9,1.9,0,0,1,54.73,37.16Z"/><path class="cls-8" d="M41.48,39.47v4.16l-3.75,3.24v-7.4a1.88,1.88,0,1,1,3.75,0Z"/><path class="cls-9" d="M41.48,42v1.62l-3.75,3.24V45.25Z"/><path class="cls-10" d="M47.12,29.12l-3.34,2.27-5.62-3.82L41.5,25.3Z"/><path class="cls-8" d="M55.38,21.06a1.91,1.91,0,0,1-.82,1.45L32.4,37.58a1.87,1.87,0,0,1-2.11-3.1l20.14-13.7-7.34-6.33h0l-1.61-1.39v4.42a1.88,1.88,0,1,1-3.75,0V9a1.88,1.88,0,0,1,3.1-1.42l13.9,12A1.88,1.88,0,0,1,55.38,21.06Z"/><path class="cls-7" d="M41.48,13.06v4.42a1.88,1.88,0,1,1-3.75,0V9.82Z"/><path class="cls-10" d="M41.48,13.06v1.66l-3.75-3.24V9.82Z"/></g></g></svg>