<svg xmlns="http://www.w3.org/2000/svg" viewBox="0 0 595.28 60.69"><defs><style>.cls-1{fill:#4ba697;}.cls-2{fill:#ededee;}.cls-3{font-size:36px;fill:#231f20;font-family:Mulish-Bold, Mulish;font-weight:700;}.cls-4{letter-spacing:-0.01em;}.cls-5{fill:#ff5100;}.cls-6{fill:#dc4726;}.cls-7{fill:#3c9181;}.cls-8{fill:#93c7ec;}.cls-9{fill:#71b5e3;}.cls-10{fill:#dcecf9;}.cls-11{fill:#b9dbf3;}</style></defs><g id="Layer_2" data-name="Layer 2"><g id="Layer_1-2" data-name="Layer 1"><rect class="cls-1" y="4" width="595.28" height="56.69" rx="11.34"/><rect class="cls-2" width="595.28" height="56.69" rx="11.34"/><text class="cls-3" transform="translate(82.46 38.84)"><tspan class="cls-4">C</tspan><tspan x="24.26" y="0">omms</tspan></text><path class="cls-5" d="M58.16,30.77H49.09l-.56.22-2,1.83H36.78l-1,.55v9.14a2.7,2.7,0,0,0,2.69,2.7H52a.83.83,0,0,1,.82.83v3a.59.59,0,0,0,1,.38l3.24-3.89a.81.81,0,0,1,.63-.3h.4a2.7,2.7,0,0,0,2.69-2.7v-9a2.7,2.7,0,0,0-2.69-2.69Z"/><path class="cls-6" d="M56.17,46a.83.83,0,0,0-.83-.83H52a.83.83,0,0,1,.82.83v3a.59.59,0,0,0,1,.38l2.28-2.75Z"/><path class="cls-6" d="M39.07,42.51V33.37l1-.55H36.78l-1,.55v9.14a2.7,2.7,0,0,0,2.69,2.7h3.32a2.71,2.71,0,0,1-2.7-2.7Z"/><path class="cls-1" d="M49.09,21.53l-.69-.48H38l-2-1.88-.31-.24H26.7a2.7,2.7,0,0,0-2.7,2.7v9a2.7,2.7,0,0,0,2.7,2.7h.39a.83.83,0,0,1,.64.3L31,37.56a.58.58,0,0,0,1-.38v-3a.83.83,0,0,1,.83-.83H46.4a2.71,2.71,0,0,0,2.7-2.7v-9s0-.07,0-.1Z"/><path class="cls-7" d="M31,33.67a.83.83,0,0,0-.63-.3H30a2.71,2.71,0,0,1-2.7-2.7v-9a2.71,2.71,0,0,1,2.7-2.7H26.7a2.7,2.7,0,0,0-2.7,2.7v9a2.7,2.7,0,0,0,2.7,2.7h.39a.83.83,0,0,1,.64.3L31,37.56a.58.58,0,0,0,1-.38V34.82Z"/><path class="cls-8" d="M58.16,7.09H38.45a2.7,2.7,0,0,0-2.69,2.7v9a2.7,2.7,0,0,0,2.69,2.7H52a.83.83,0,0,1,.82.83v3a.59.59,0,0,0,1,.38l3.24-3.89a.81.81,0,0,1,.63-.3h.4a2.7,2.7,0,0,0,2.69-2.7v-9a2.7,2.7,0,0,0-2.69-2.7Z"/><path class="cls-9" d="M56.17,22.36a.83.83,0,0,0-.83-.83H52a.83.83,0,0,1,.82.83v3a.59.59,0,0,0,1,.38L56.17,23Z"/><path class="cls-9" d="M39.07,18.83v-9a2.71,2.71,0,0,1,2.7-2.7H38.45a2.7,2.7,0,0,0-2.69,2.7v9a2.7,2.7,0,0,0,2.69,2.7h3.32A2.71,2.71,0,0,1,39.07,18.83Z"/><path class="cls-10" d="M54.81,13h-.18l-.65.81v.91l.45.72.38.12a1.48,1.48,0,0,0,0-2.56Z"/><path class="cls-11" d="M54.07,14.31A1.47,1.47,0,0,1,54.81,13a1.44,1.44,0,0,0-.74-.2,1.48,1.48,0,1,0,0,3,1.44,1.44,0,0,0,.74-.2,1.47,1.47,0,0,1-.74-1.28Z"/><path class="cls-10" d="M48.79,13H48.6l-.64.81v.91l.45.72.38.12a1.48,1.48,0,0,0,0-2.56Z"/><path class="cls-11" d="M48.05,14.31A1.47,1.47,0,0,1,48.79,13a1.44,1.44,0,0,0-.74-.2,1.48,1.48,0,1,0,0,3,1.44,1.44,0,0,0,.74-.2,1.47,1.47,0,0,1-.74-1.28Z"/><path class="cls-10" d="M42.77,13h-.19l-.64.81v.91l.44.72.39.12a1.48,1.48,0,0,0,0-2.56Z"/><path class="cls-11" d="M42,14.31A1.46,1.46,0,0,1,42.77,13a1.48,1.48,0,1,0,0,2.56A1.46,1.46,0,0,1,42,14.31Z"/><path class="cls-10" d="M43.31,24.87h-.19l-.64.81v.91l.45.72.38.12a1.48,1.48,0,0,0,0-2.56Z"/><path class="cls-11" d="M42.57,26.15a1.47,1.47,0,0,1,.74-1.28,1.44,1.44,0,0,0-.74-.2,1.48,1.48,0,1,0,0,3,1.44,1.44,0,0,0,.74-.2,1.47,1.47,0,0,1-.74-1.28Z"/><path class="cls-10" d="M37.29,24.87H37.1l-.64.81v.91l.45.72.38.12a1.48,1.48,0,0,0,0-2.56Z"/><path class="cls-11" d="M36.55,26.15a1.47,1.47,0,0,1,.74-1.28,1.44,1.44,0,0,0-.74-.2,1.48,1.48,0,1,0,0,3,1.44,1.44,0,0,0,.74-.2,1.47,1.47,0,0,1-.74-1.28Z"/><path class="cls-10" d="M31.26,24.87h-.18l-.65.81v.91l.45.72.38.12a1.47,1.47,0,0,0,0-2.56Z"/><path class="cls-11" d="M30.52,26.15a1.47,1.47,0,0,1,.74-1.28,1.41,1.41,0,0,0-.74-.2,1.48,1.48,0,0,0,0,3,1.41,1.41,0,0,0,.74-.2,1.47,1.47,0,0,1-.74-1.28Z"/><path class="cls-10" d="M54.81,36.71h-.18l-.65.81v.91l.45.72.38.12a1.48,1.48,0,0,0,0-2.56Z"/><path class="cls-11" d="M54.07,38a1.47,1.47,0,0,1,.74-1.28,1.44,1.44,0,0,0-.74-.2,1.48,1.48,0,0,0,0,3,1.44,1.44,0,0,0,.74-.2A1.48,1.48,0,0,1,54.07,38Z"/><path class="cls-10" d="M48.79,36.71H48.6l-.64.81v.91l.45.72.38.12a1.48,1.48,0,0,0,0-2.56Z"/><path class="cls-11" d="M48.05,38a1.47,1.47,0,0,1,.74-1.28,1.44,1.44,0,0,0-.74-.2,1.48,1.48,0,1,0,0,3,1.44,1.44,0,0,0,.74-.2A1.48,1.48,0,0,1,48.05,38Z"/><path class="cls-10" d="M42.77,36.71h-.19l-.64.81v.91l.44.72.39.12a1.48,1.48,0,0,0,0-2.56Z"/><path class="cls-11" d="M42,38a1.46,1.46,0,0,1,.75-1.28,1.48,1.48,0,1,0,0,2.56A1.47,1.47,0,0,1,42,38Z"/></g></g></svg>