<svg xmlns="http://www.w3.org/2000/svg" viewBox="0 0 595.28 355.13"><defs><style>.cls-1,.cls-4{fill:none;}.cls-2{fill:#3d867a;}.cls-3{fill:#4ba697;}.cls-4{stroke:#82c1b6;}.cls-19,.cls-5,.cls-8{isolation:isolate;font-size:15px;font-family:Mulish-Regular, Mulish;}.cls-5,.cls-7{fill:#fff;}.cls-6{letter-spacing:0em;}.cls-7{fill-opacity:0.6;}.cls-17,.cls-8{fill:#010101;}.cls-9{letter-spacing:-0.01em;}.cls-10{letter-spacing:0em;}.cls-11{letter-spacing:-0.02em;}.cls-12{letter-spacing:0em;}.cls-13{letter-spacing:-0.02em;}.cls-14{letter-spacing:-0.01em;}.cls-15{letter-spacing:-0.01em;}.cls-16{letter-spacing:0em;}.cls-18{fill:#b2d5c7;}.cls-20{letter-spacing:-0.02em;}</style></defs><g id="Layer_2" data-name="Layer 2"><g id="Layer_1-2" data-name="Layer 1"><rect class="cls-1" width="595.28" height="18"/><path class="cls-2" d="M1,9A8,8,0,0,1,9,1H306V101H9a8,8,0,0,1-8-8Z"/><path class="cls-3" d="M0,8A8,8,0,0,1,8,0H305V100H8a8,8,0,0,1-8-8Z"/><path class="cls-4" d="M.5,7.5A7.5,7.5,0,0,1,8,.5H304.47M2.7,97.3A7.47,7.47,0,0,1,.5,92V8"/><text class="cls-5" transform="translate(10 17.5)">s<tspan class="cls-6" x="7.44" y="0">e</tspan><tspan x="15.55" y="0">tup</tspan></text><rect class="cls-7" x="54.47" y="5" width="48.93" height="16" rx="4"/><text class="cls-8" transform="translate(59.47 17.5)">SPI</text><text class="cls-5" transform="translate(108.4 17.5)">configu<tspan class="cls-9" x="51.09" y="0">r</tspan><tspan class="cls-10" x="56.37" y="0">ation:</tspan></text><text class="cls-5" transform="translate(10 42.5)">data shi<tspan class="cls-11" x="55.95" y="0">f</tspan><tspan x="60.66" y="0">t</tspan></text><rect class="cls-7" x="79.43" y="30" width="97.98" height="16" rx="4"/><text class="cls-8" transform="translate(84.43 42.5)">MSBFI<tspan class="cls-12" x="44.61" y="0">R</tspan><tspan class="cls-13" x="54.99" y="0">S</tspan><tspan x="64.11" y="0">T</tspan></text><text class="cls-5" transform="translate(10 67.5)">clock divide</text><rect class="cls-7" x="93.12" y="55" width="88.48" height="16" rx="4"/><text class="cls-8" transform="translate(98.12 67.5)">2 (8MHz)</text><text class="cls-5" transform="translate(10 92.5)">SPI mode (idle - edg<tspan class="cls-14" x="139.27" y="0">e</tspan><tspan x="147.33" y="0">)</tspan></text><rect class="cls-7" x="163.75" y="80" width="136.22" height="16" rx="4"/><text class="cls-8" transform="translate(168.75 92.5)">0 (<tspan class="cls-12" x="17.67" y="0">L</tspan><tspan class="cls-15" x="25.83" y="0">o</tspan><tspan class="cls-16" x="34.32" y="0">w - </tspan><tspan class="cls-9" x="61.62" y="0">F</tspan><tspan x="69.91" y="0">alling)</tspan></text><polygon class="cls-17" points="94.42 17.31 99.4 8.69 89.44 8.69 94.42 17.31"/><polygon class="cls-17" points="168.44 42.31 173.42 33.69 163.46 33.69 168.44 42.31"/><polygon class="cls-17" points="172.62 67.31 177.6 58.69 167.64 58.69 172.62 67.31"/><polygon class="cls-17" points="290.99 92.31 295.97 83.69 286.01 83.69 290.99 92.31"/><rect class="cls-18" x="49.78" y="106.69" width="44.6" height="15.46" rx="5.67"/><text class="cls-8" transform="translate(54.18 119.56)">SPI</text><polygon class="cls-17" points="85.06 119.38 90.04 110.75 80.09 110.75 85.06 119.38"/><text class="cls-19" transform="translate(0 119.53)">s<tspan class="cls-6" x="7.44" y="0">e</tspan><tspan x="15.55" y="0">tup</tspan></text><rect class="cls-18" x="75.32" y="127.17" width="97.96" height="33.95" rx="5.67"/><text class="cls-8" transform="translate(79.73 140.04)">MSBFI<tspan class="cls-12" x="44.61" y="0">R</tspan><tspan class="cls-13" x="54.99" y="0">S</tspan><tspan x="64.11" y="0">T</tspan><tspan class="cls-20" x="0" y="18">L</tspan><tspan x="7.92" y="18">SBFI</tspan><tspan class="cls-12" x="39.79" y="18">R</tspan><tspan class="cls-13" x="50.17" y="18">S</tspan><tspan x="59.29" y="18">T</tspan></text><polygon class="cls-17" points="163.61 139.85 168.59 131.23 158.63 131.23 163.61 139.85"/><text class="cls-19" transform="translate(0 140.01)">data shi<tspan class="cls-11" x="55.95" y="0">f</tspan><tspan x="60.66" y="0">t</tspan></text><rect class="cls-18" x="89.32" y="166.46" width="112" height="109.66" rx="5.67"/><text class="cls-8" transform="translate(93.72 179.34)">2 (8 MHz)<tspan x="0" y="18">4 (4 MHz)</tspan><tspan x="0" y="36">.</tspan><tspan x="0" y="54">.</tspan><tspan x="0" y="72">64 (250 KHz)</tspan><tspan x="0" y="90">128 (125 KHz)</tspan></text><polygon class="cls-17" points="190.6 179.15 195.58 170.53 185.63 170.53 190.6 179.15"/><text class="cls-19" transform="translate(0 179.3)">clock divide</text><rect class="cls-18" x="161.49" y="282.32" width="141.39" height="72.8" rx="5.67"/><text class="cls-8" transform="translate(165.9 295.2)">0 (<tspan class="cls-12" x="17.67" y="0">L</tspan><tspan class="cls-15" x="25.83" y="0">o</tspan><tspan class="cls-16" x="34.32" y="0">w - </tspan><tspan class="cls-9" x="61.62" y="0">F</tspan><tspan x="69.91" y="0">alling)</tspan><tspan x="0" y="18">1 (</tspan><tspan class="cls-12" x="17.67" y="18">L</tspan><tspan class="cls-15" x="25.83" y="18">o</tspan><tspan class="cls-16" x="34.32" y="18">w - Raising)</tspan><tspan x="0" y="36">2 (High - </tspan><tspan class="cls-9" x="64.83" y="36">F</tspan><tspan x="73.12" y="36">alling)</tspan><tspan x="0" y="54">3 (High - Raising)</tspan></text><polygon class="cls-17" points="291.78 295.01 296.76 286.39 286.8 286.39 291.78 295.01"/><text class="cls-19" transform="translate(0 295.16)">SPI mode (idle - edg<tspan class="cls-14" x="139.27" y="0">e</tspan><tspan x="147.33" y="0">)</tspan></text></g></g></svg>