<svg xmlns="http://www.w3.org/2000/svg" viewBox="0 0 595.4 149.84"><defs><style>.cls-1,.cls-4{fill:none;}.cls-2{fill:#3d867a;}.cls-3{fill:#4ba697;}.cls-4{stroke:#82c1b6;}.cls-5,.cls-7{fill:#fff;}.cls-5{fill-opacity:0.6;}.cls-6,.cls-7{isolation:isolate;font-size:15px;font-family:Mulish-Regular, Mulish;}.cls-12,.cls-6{fill:#010101;}.cls-8{letter-spacing:-0.01em;}.cls-9{letter-spacing:0em;}.cls-10{letter-spacing:-0.01em;}.cls-11{letter-spacing:0em;}.cls-13{fill:#b2d5c7;}</style></defs><g id="Layer_2" data-name="Layer 2"><g id="Layer_1-2" data-name="Layer 1"><rect class="cls-1" x="0.12" width="595.28" height="18"/><path class="cls-2" d="M9.12,1H325V36H9.12V21c0-10-8,8-8-7.5s8,2.5,8-7.5ZM151.67,6h-14.5v5c0,10-8-8-8,7.5s8-2.5,8,7.5v6h14.5Z"/><path class="cls-3" d="M8.12,0H324V35H8.12V20c0-10-8,8-8-7.5s8,2.5,8-7.5ZM150.67,5h-14.5v5c0,10-8-8-8,7.5s8-2.5,8,7.5v6h14.5Z"/><path class="cls-4" d="M8.62.5h19m0,0H323.45M8.62,34.5v-16M1.26,18a20.35,20.35,0,0,1,0-11M8.62,8V.5h.5m142,5v26h-14.5m-5.6-7.2,3.68-2.1"/><rect class="cls-5" x="13.12" y="10" width="48.93" height="16" rx="4"/><text class="cls-6" transform="translate(18.12 22.5)">SPI</text><text class="cls-7" transform="translate(67.05 22.5)">t<tspan class="cls-8" x="5.25" y="0">r</tspan><tspan x="10.53" y="0">ans</tspan><tspan class="cls-9" x="35.74" y="0">f</tspan><tspan x="40.72" y="0">er</tspan></text><text class="cls-7" transform="translate(160.67 22.5)">to sla<tspan class="cls-10" x="37.75" y="0">v</tspan><tspan class="cls-11" x="45.63" y="0">e pin #</tspan></text><rect class="cls-5" x="258.95" y="10" width="60" height="16" rx="4"/><text class="cls-6" transform="translate(263.95 22.5)">none</text><polygon class="cls-12" points="53.08 22.31 58.05 13.69 48.1 13.69 53.08 22.31"/><polygon class="cls-12" points="309.98 22.31 314.95 13.69 305 13.69 309.98 22.31"/><rect class="cls-13" x="12.95" y="41.69" width="49.27" height="15.46" rx="5.67"/><text class="cls-6" transform="translate(17.36 54.56)">SPI</text><polygon class="cls-12" points="52.91 54.38 57.88 45.75 47.93 45.75 52.91 54.38"/><rect class="cls-13" x="256.85" y="41.69" width="59.44" height="108.15" rx="5.67"/><text class="cls-6" transform="translate(261.25 54.57)">none<tspan x="0" y="18">1</tspan><tspan x="0" y="36">.</tspan><tspan x="0" y="54">.</tspan><tspan x="0" y="72">A4</tspan><tspan x="0" y="90">A5</tspan></text><polygon class="cls-12" points="307.87 54.38 312.85 45.75 302.89 45.75 307.87 54.38"/></g></g></svg>