<svg xmlns="http://www.w3.org/2000/svg" viewBox="0 0 595.28 62.66"><defs><style>.cls-1,.cls-7{fill:none;}.cls-2{fill:#b2d5c7;}.cls-3,.cls-9{isolation:isolate;font-size:15px;font-family:Mulish-Regular, Mulish;}.cls-3,.cls-4{fill:#010101;}.cls-5{fill:#3c866d;}.cls-6{fill:#4ba587;}.cls-7{stroke:#81c1ab;}.cls-8,.cls-9{fill:#fff;}.cls-8{fill-opacity:0.6;}.cls-10{letter-spacing:-0.01em;}.cls-11{fill:#31272b;}</style></defs><g id="Layer_2" data-name="Layer 2"><g id="Layer_1-2" data-name="Layer 1"><rect class="cls-1" width="595.28" height="18"/><rect class="cls-2" x="5" y="45.69" width="62.81" height="16.06" rx="5.67"/><text class="cls-3" transform="translate(9.41 58.56)">serial</text><polygon class="cls-4" points="58.82 58.38 63.8 49.75 53.84 49.75 58.82 58.38"/><path class="cls-5" d="M1,9A8,8,0,0,1,9,1h7l6,4h3l6-4H256.27V36H30.5l-6,4h-3l-6-4H9a8,8,0,0,1-8-8ZM135.62,6h-14.5v5c0,10-8-8-8,7.5s8-2.5,8,7.5v6h14.5Z"/><path class="cls-6" d="M0,8A8,8,0,0,1,8,0h7l6,4h3l6-4H255.27V35H29.5l-6,4h-3l-6-4H8a8,8,0,0,1-8-8ZM134.62,5h-14.5v5c0,10-8-8-8,7.5s8-2.5,8,7.5v6h14.5Z"/><path class="cls-7" d="M.5,7.5A7.5,7.5,0,0,1,8,.5h7l6,4h3l6-4h9.5m0,0H254.77M2.7,32.3A7.47,7.47,0,0,1,.5,27V8M135.12,5.5v26h-14.5M115,24.3l3.68-2.1"/><rect class="cls-8" x="5" y="10" width="62.8" height="16" rx="4"/><text class="cls-3" transform="translate(10 22.5)">serial</text><text class="cls-9" transform="translate(72.8 22.5)">print</text><rect class="cls-8" x="139.62" y="10" width="13.83" height="16" rx="4"/><text class="cls-9" transform="translate(158.45 22.5)">add n<tspan class="cls-10" x="39.69" y="0">e</tspan><tspan x="47.76" y="0">w line</tspan></text><polygon class="cls-4" points="58.82 22.31 63.8 13.69 53.84 13.69 58.82 22.31"/><path class="cls-11" d="M152.15,12.26a49.59,49.59,0,0,0-5.62,10.43c-.74,1.87-1.81,1.54-2.9.41a22.48,22.48,0,0,1-1.75-2.33c-.41-.56-1.46-1.11-.69-1.84s1.92-.27,2.4.66c1.07,2.08,1.54,1.38,2.25-.25.87-2,2-3.83,3-5.74C149.51,12.34,150.38,11.52,152.15,12.26Z"/></g></g></svg>