<svg xmlns="http://www.w3.org/2000/svg" viewBox="0 0 595.28 138.96"><defs><style>.cls-1,.cls-4{fill:none;}.cls-2{fill:#3c866d;}.cls-3{fill:#4ba587;}.cls-4{stroke:#81c1ab;}.cls-5,.cls-8{isolation:isolate;font-size:15px;font-family:Mulish-Regular, Mulish;}.cls-5,.cls-7{fill:#fff;}.cls-6{letter-spacing:0em;}.cls-7{fill-opacity:0.6;}.cls-8,.cls-9{fill:#010101;}.cls-10{fill:#b2d5c7;}</style></defs><g id="Layer_2" data-name="Layer 2"><g id="Layer_1-2" data-name="Layer 1"><rect class="cls-1" width="595.28" height="18"/><path class="cls-2" d="M1,9A8,8,0,0,1,9,1H290.23V26H9a8,8,0,0,1-8-8Z"/><path class="cls-3" d="M0,8A8,8,0,0,1,8,0H289.23V25H8a8,8,0,0,1-8-8Z"/><path class="cls-4" d="M.5,7.5A7.5,7.5,0,0,1,8,.5H19.5m0,0H288.73M2.7,22.3A7.47,7.47,0,0,1,.5,17V8"/><text class="cls-5" transform="translate(10 17.5)">s<tspan class="cls-6" x="7.44" y="0">e</tspan><tspan x="15.55" y="0">tup</tspan></text><rect class="cls-7" x="54.47" y="5" width="62.8" height="16" rx="4"/><text class="cls-8" transform="translate(59.47 17.5)">serial</text><text class="cls-5" transform="translate(122.27 17.5)">:  speed to</text><rect class="cls-7" x="196.5" y="5" width="52.87" height="16" rx="4"/><text class="cls-8" transform="translate(201.5 17.5)">300</text><text class="cls-5" transform="translate(254.37 17.5)">BPS</text><polygon class="cls-9" points="108.29 17.31 113.27 8.69 103.31 8.69 108.29 17.31"/><polygon class="cls-9" points="240.39 17.31 245.37 8.69 235.41 8.69 240.39 17.31"/><rect class="cls-10" x="54.47" y="31.69" width="62.81" height="16.06" rx="5.67"/><text class="cls-8" transform="translate(58.87 44.56)">serial</text><polygon class="cls-9" points="108.29 44.38 113.27 35.75 103.31 35.75 108.29 44.38"/><rect class="cls-10" x="196.5" y="31.69" width="64.77" height="107.27" rx="5.67"/><text class="cls-8" transform="translate(201.5 44.56)">300<tspan x="0" y="18">600</tspan><tspan x="0" y="36">.</tspan><tspan x="0" y="54">.</tspan><tspan x="0" y="72">57600</tspan><tspan x="0" y="90">115200</tspan></text><polygon class="cls-9" points="251.33 44.38 256.31 35.75 246.35 35.75 251.33 44.38"/></g></g></svg>