<svg xmlns="http://www.w3.org/2000/svg" viewBox="0 0 595.28 149.84"><defs><style>.cls-1,.cls-7{fill:none;}.cls-2{fill:#b2d5c7;}.cls-3,.cls-9{isolation:isolate;font-size:15px;font-family:Mulish-Regular, Mulish;}.cls-3,.cls-4{fill:#010101;}.cls-5{fill:#3d867a;}.cls-6{fill:#4ba697;}.cls-7{stroke:#82c1b6;}.cls-8,.cls-9{fill:#fff;}.cls-8{fill-opacity:0.6;}.cls-10{letter-spacing:-0.01em;}.cls-11{letter-spacing:0em;}.cls-12{letter-spacing:-0.01em;}.cls-13{letter-spacing:0em;}</style></defs><g id="Layer_2" data-name="Layer 2"><g id="Layer_1-2" data-name="Layer 1"><rect class="cls-1" width="595.28" height="18"/><rect class="cls-2" x="5" y="45.69" width="49.27" height="15.46" rx="5.67"/><text class="cls-3" transform="translate(9.41 58.56)">SPI</text><polygon class="cls-4" points="44.95 58.38 49.93 49.75 39.98 49.75 44.95 58.38"/><path class="cls-5" d="M1,9A8,8,0,0,1,9,1h7l6,4h3l6-4H315.83V36H30.5l-6,4h-3l-6-4H9a8,8,0,0,1-8-8ZM143.55,6h-14.5v5c0,10-8-8-8,7.5s8-2.5,8,7.5v6h14.5Z"/><path class="cls-6" d="M0,8A8,8,0,0,1,8,0h7l6,4h3l6-4H314.83V35H29.5l-6,4h-3l-6-4H8a8,8,0,0,1-8-8ZM142.55,5h-14.5v5c0,10-8-8-8,7.5s8-2.5,8,7.5v6h14.5Z"/><path class="cls-7" d="M.5,7.5A7.5,7.5,0,0,1,8,.5h7l6,4h3l6-4h9.5m0,0H314.33M2.7,32.3A7.47,7.47,0,0,1,.5,27V8M143.05,5.5v26h-14.5M123,24.3l3.68-2.1"/><rect class="cls-8" x="5" y="10" width="48.93" height="16" rx="4"/><text class="cls-3" transform="translate(10 22.5)">SPI</text><text class="cls-9" transform="translate(58.93 22.5)">t<tspan class="cls-10" x="5.25" y="0">r</tspan><tspan x="10.53" y="0">ans</tspan><tspan class="cls-11" x="35.74" y="0">f</tspan><tspan x="40.72" y="0">er</tspan></text><text class="cls-9" transform="translate(152.55 22.5)">to sla<tspan class="cls-12" x="37.75" y="0">v</tspan><tspan class="cls-13" x="45.63" y="0">e pin #</tspan></text><rect class="cls-8" x="249.83" y="10" width="60" height="16" rx="4"/><text class="cls-3" transform="translate(254.83 22.5)">none</text><polygon class="cls-4" points="300.86 22.31 305.83 13.69 295.88 13.69 300.86 22.31"/><polygon class="cls-4" points="44.95 22.31 49.93 13.69 39.98 13.69 44.95 22.31"/><rect class="cls-2" x="249.83" y="41.69" width="59.44" height="108.15" rx="5.67"/><text class="cls-3" transform="translate(254.24 54.56)">none<tspan x="0" y="18">1</tspan><tspan x="0" y="36">.</tspan><tspan x="0" y="54">.</tspan><tspan x="0" y="72">A4</tspan><tspan x="0" y="90">A5</tspan></text><polygon class="cls-4" points="300.86 54.38 305.83 45.75 295.88 45.75 300.86 54.38"/></g></g></svg>