<svg xmlns="http://www.w3.org/2000/svg" viewBox="0 0 595.4 66.66"><defs><style>.cls-1,.cls-8{fill:none;}.cls-2{fill:#b2d5c7;}.cls-3,.cls-9{isolation:isolate;font-size:15px;font-family:Mulish-Regular, Mulish;}.cls-3,.cls-5{fill:#010101;}.cls-4{letter-spacing:-0.01em;}.cls-6{fill:#3c866d;}.cls-7{fill:#4ba587;}.cls-8{stroke:#81c1ab;}.cls-13,.cls-14,.cls-9{fill:#fff;}.cls-10{letter-spacing:-0.01em;}.cls-11{letter-spacing:0em;}.cls-12{letter-spacing:0em;}.cls-13{fill-opacity:0.6;}</style></defs><g id="Layer_2" data-name="Layer 2"><g id="Layer_1-2" data-name="Layer 1"><rect class="cls-1" x="0.12" width="595.28" height="18"/><rect class="cls-2" x="94.69" y="31.69" width="62.81" height="34.09" rx="5.67"/><text class="cls-3" transform="translate(99.09 44.56)">t<tspan class="cls-4" x="5.25" y="0">e</tspan><tspan x="13.3" y="0">xt</tspan><tspan x="0" y="18">number</tspan></text><polygon class="cls-5" points="148.51 44.38 153.49 35.75 143.53 35.75 148.51 44.38"/><path class="cls-6" d="M9.12,1H266V6c0,10-8-8-8,7.5s8-2.5,8,7.5v5H9.12V21c0-10-8,8-8-7.5s8,2.5,8-7.5Z"/><path class="cls-7" d="M8.12,0H265V5c0,10-8-8-8,7.5s8-2.5,8,7.5v5H8.12V20c0-10-8,8-8-7.5s8,2.5,8-7.5Z"/><path class="cls-8" d="M8.62.5H264.5M260,19.3l3.68-2.1M8.62,24.5v-6M1.26,18a20.35,20.35,0,0,1,0-11M8.62,8V.5h.5"/><text class="cls-9" transform="translate(18.12 17.5)">p<tspan class="cls-10" x="9" y="0">r</tspan><tspan x="14.28" y="0">om</tspan><tspan class="cls-11" x="36.04" y="0">p</tspan><tspan x="45.03" y="0">t </tspan><tspan class="cls-12" x="54.19" y="0">f</tspan><tspan x="59.17" y="0">or</tspan></text><rect class="cls-13" x="94.69" y="5" width="52.47" height="16" rx="4"/><text class="cls-3" transform="translate(99.69 17.5)">t<tspan class="cls-4" x="5.25" y="0">e</tspan><tspan x="13.3" y="0">xt</tspan></text><text class="cls-9" transform="translate(152.15 17.5)">with message</text><path class="cls-6" d="M267,1h67.84V26H267V21c0-10-8,8-8-7.5s8,2.5,8-7.5Z"/><path class="cls-7" d="M266,0h67.84V25H266V20c0-10-8,8-8-7.5s8,2.5,8-7.5Z"/><path class="cls-8" d="M266.5.5h66.84m-66.84,24v-6m-7.36-.5a20.35,20.35,0,0,1,0-11m7.36,1V.5h.5"/><rect class="cls-13" x="293" y="5" width="13.83" height="16" rx="4"/><text class="cls-3" transform="translate(298 17.5)"> </text><polygon class="cls-5" points="138.18 17.31 143.15 8.69 133.2 8.69 138.18 17.31"/><path class="cls-14" d="M278.14,5.32l2,1.56a8.35,8.35,0,0,0-1.87,2.72,7.42,7.42,0,0,0-.46,2.57l-1.25-.88h3.79v5.39H275V12.89a11,11,0,0,1,.7-4A10.56,10.56,0,0,1,278.14,5.32Zm8.71,0,2,1.56A8.2,8.2,0,0,0,287,9.6a7.42,7.42,0,0,0-.46,2.57l-1.25-.88H289v5.39h-5.34V12.89a11,11,0,0,1,.7-4A10.42,10.42,0,0,1,286.85,5.32Z"/><path class="cls-14" d="M313,16.68l-2-1.56a9,9,0,0,0,1.87-2.75,7.17,7.17,0,0,0,.46-2.54l1.25.83h-3.79V5.32h5.34V9.11a10.77,10.77,0,0,1-.7,3.94A11,11,0,0,1,313,16.68Zm8.71,0-2-1.56a9,9,0,0,0,1.87-2.75,7.17,7.17,0,0,0,.46-2.54l1.25.83h-3.79V5.32h5.34V9.11a10.77,10.77,0,0,1-.7,3.94A11.12,11.12,0,0,1,321.7,16.68Z"/></g></g></svg>