<svg xmlns="http://www.w3.org/2000/svg" viewBox="0 0 595.28 190.5"><defs><style>.cls-1{fill:none;}.cls-2{fill:#f58c84;}.cls-3{opacity:0.14;}.cls-4{fill:#1f1a55;}.cls-5{fill:#144451;}.cls-6{fill:#387493;}.cls-7{fill:#25385e;}.cls-8{fill:#e5f1f9;}.cls-9{opacity:0.68;}.cls-10{fill:#e95ea2;}.cls-11{fill:#e95c9f;}.cls-12{fill:#3d6a72;}.cls-13{fill:#088c91;}.cls-14{opacity:0.47;}.cls-15{fill:#addede;}.cls-16{fill:#8cc4dd;}.cls-17{fill:#eb5645;}.cls-18{fill:#ed5e35;}.cls-19{fill:#f7d992;}.cls-20{fill:#f9ae84;}.cls-21{fill:#f79659;}.cls-22{fill:#c1332b;}.cls-23{fill:#fbd3d4;}.cls-24{fill:#ffd367;}.cls-25{fill:#397b93;}.cls-26{font-size:26.47px;fill:#231f20;font-family:Mulish-Regular, Mulish;}.cls-27{letter-spacing:0em;}.cls-28{letter-spacing:0.03em;}.cls-29{fill:#232323;}.cls-30{fill:#ff5100;}.cls-31{fill:#00aeb3;}</style></defs><g id="Layer_2" data-name="Layer 2"><g id="Layer_1-2" data-name="Layer 1"><rect class="cls-1" width="595.28" height="190.5"/><path class="cls-2" d="M78.82,160.8h190.6s3.33,8-17.42,11.75-49.5.27-58.41,6.77-53.58,0-53.58,0-36-9.95-45.21-7.82S78.82,160.8,78.82,160.8Z"/><g class="cls-3"><path class="cls-4" d="M78.82,160.36l50.36.32,100.75-.07s9.44,2.75-12.63,5.82c0,0-26.4.72-36-1.27a99.86,99.86,0,0,0-20.4-1.7s-37.18,3.87-65.69.8C95.25,164.26,84.6,164.22,78.82,160.36Z"/></g><rect class="cls-5" x="222.21" y="151.38" width="7.72" height="10.94" rx="2.53"/><rect class="cls-5" x="158.58" y="151.97" width="7.72" height="10.94" rx="2.53"/><path class="cls-5" d="M234.84,116.26l-7.1-7.1-2-.36,8.25,8.25v30.07c0,9-4.93,9.46-4.93,9.46H160.18c-8.15,0-21.44-5.17-21.44-5.17-15.34-6.26-13.53-39.26-13.53-39.26C123.4,86.84,136.4,75.5,136.4,75.5c7.21-8.16,21.35-9.84,21.35-9.84L195,65.27c21.48,0,20.55,33.25,20.55,33.25l1.72,1.72L217,98.43l-.37-.37c0-3.15-.28-19.83-8.81-28.6A17.29,17.29,0,0,0,195,64.14h0l-37.21.4h-.12c-.59.07-14.59,1.82-22,10.16a32.48,32.48,0,0,0-6.48,9.13c-2.82,5.59-6,15-5,28.33a89.84,89.84,0,0,0,1,17.45,47.52,47.52,0,0,0,4,13.53c2.32,4.64,5.41,7.78,9.17,9.31.56.22,13.59,5.26,21.86,5.26h69c.24,0,5.95-.72,5.95-10.58V117.05A1.11,1.11,0,0,0,234.84,116.26Z"/><path class="cls-6" d="M158.71,65.65s-14.2.77-21.44,8.93c0,0-14.51,12.17-12.7,37.47,0,0-.32,33.09,15.07,39.34,0,0,13.78,5.36,21.91,5.17h68.73s3.76-.48,3.76-9.44L235.23,117l-16.48-7.92S217.58,65.26,196,65.26Z"/><circle class="cls-7" cx="231.94" cy="48.37" r="23.64"/><rect class="cls-8" x="223.38" y="42.09" width="2.81" height="2.81" transform="translate(96.59 -146.21) rotate(45)"/><rect class="cls-8" x="227.15" y="58.43" width="2.88" height="2.88" transform="translate(109.29 -144.1) rotate(45)"/><rect class="cls-8" x="242.7" y="49.98" width="2.88" height="2.88" transform="translate(107.87 -157.57) rotate(45)"/><g class="cls-9"><path class="cls-10" d="M214.8,60.93a17.57,17.57,0,0,1,12.11-10.2,5.76,5.76,0,0,1,.81-.15c2.7-.3,18.17-2.22,20.31-6.26l1.8-5s.58,6.58-.74,7.91-8.65,5.61-17.27,5.53-13.44,8.12-13.44,8.12Z"/></g><g class="cls-9"><path class="cls-11" d="M214.2,58.93s3.21-9.07,12.52-10.31c0,0,18.36-1.88,20.71-6.31l1.8-5s.58,6.59-.75,7.91-8.69,4.7-17.27,5.54a19.08,19.08,0,0,0-13.44,8.11Z"/></g><path class="cls-5" d="M111,107.49a.57.57,0,0,1-.56-.49,433,433,0,0,1-2.71-44.07c-.14-30.38,4.09-48.29,12.57-53.24,4.6-2.69,10.39-1.49,17.21,3.55a.56.56,0,0,1,.12.79.57.57,0,0,1-.79.12c-6.43-4.75-11.8-5.92-16-3.49C101.46,22,111.5,106,111.6,106.86a.56.56,0,0,1-.49.63Z"/><path class="cls-12" d="M134.16,18.06c-1.08,3.59-1,9.63,1.35,17.24a.74.74,0,0,0,1.21.33c2.82-2.58,12.17-10.51,20-10.23,0,0-5.75-9.47-12.51-11.88C140.49,12.2,135.3,14.29,134.16,18.06Z"/><path class="cls-13" d="M137.22,13.69s8.34,6.28,9.31,10.93l4.34-.94,4.36.46,1.65.07-3.81-4.42-6-4.85-1.29-1.25-4-1.17Z"/><g class="cls-3"><path class="cls-4" d="M175.2,140s5,3.52,9.66,4.34,13.17,0,13.17,0,1.9-1.18,3.34-.64,2,12.91,2,12.91l2.39.42.6-19.36-1.93-2.12-29.22-4.3Z"/></g><g class="cls-3"><path class="cls-4" d="M125,100.9s5.12,34.7,25.84,30.77l1.75,12.64,3,12.1-17.34-4-4.43-3.82s-6.39-7-6.43-11.34-2.23-4.08-2.89-17.44Z"/></g><g class="cls-3"><path class="cls-4" d="M144.6,112.23s-2.43-21.89,6.27-29.56c0,0,11.38-8.26,3.12-16.58l6.28-.84L177,72.88l-6.51,29.58-13.84,9Z"/></g><g class="cls-14"><path class="cls-15" d="M196.32,66.09s8.89.11,14.62,11.75c0,0,3.11,7.13,3.2,10.11l-4.77,1.46s-6.6-20.31-14.77-21.85S196.32,66.09,196.32,66.09Z"/></g><path class="cls-8" d="M186.77,116.05h24.49l4,2,3.86,2.81,1.69,3,1.19,3.89-.48,7.44-.14.88-3.43,1-8,.22-3.28-.49-1.87-1.78-2,3.43-2.94,2.3-3.52,1-3.58.05-4.41-1.58-9.54-6.34-3.11-2.19s1.11-5.78-2.05-9.93c0,0-3.46-7-7-9.31l9.32-.83Z"/><path class="cls-16" d="M180.65,126s.37,3.9,3.77,3.12c0,0-2,4.2,1.06,6.14s13.41,5.72,16.68,3.11l-.66,1.58-3.88,1.94h-5.51L184,137.32l-7.9-5.62Z"/><path class="cls-16" d="M168.81,113.92s10.88,2.86,13.67,8.42c0,0,3.88-3,5,0l6.28,4.14.88-1.77-9-7.06-3.92-.81-7.11-3.67-6.56-1.12Z"/><path class="cls-16" d="M200.05,122.05s6.64-4.87,11-4.92-16.33,0-16.33,0Z"/><path class="cls-16" d="M194.33,116.84s6.22,5,8,5.7,7.72,1.38,9.14,6.85c0,0,1.89,6.72.67,7.57s-5.41.41-5.41.41l-1.6-2.71,1.27-3.79v-2.71l-.64-1.68-1.2-1.77-3.79-1.15-5,.74-1.1.41L185,117.13Z"/><polygon class="cls-8" points="148.3 101.36 150.33 92.54 153.48 86.93 158.91 79.5 163.43 75.83 171.85 79.15 184.13 79.71 193.93 75.83 196.96 78.55 202.65 86.65 206.91 96.18 207.63 108.66 202.64 112.58 198.72 111.44 195.95 108.8 195.55 112.58 192.16 113.95 179.15 113.95 177.97 114.22 174.22 113.17 171.99 111.78 166.56 111.85 159.67 110.9 154.53 109.84 149.38 104.02 148.3 101.36"/><path class="cls-16" d="M155.93,84.09s5.57-3.61,9.63-3.39,12.71,4.37,17.66,1.69,5.08-3.24,5.08-3.24l-7.74,1.16-7.09-.4-8.59-2.53-1.39-1.26S156.05,82.79,155.93,84.09Z"/><path class="cls-16" d="M150.67,92S148.16,106.54,163,109.5c0,0,8,2.45,9.95,1.79l.27,1.15-6.65-.59-9.19-1.56-3.52-1.35-3.34-3.18-1.74-3.11v-5Z"/><path class="cls-16" d="M166.06,97.62l2.16-6s1.44,6.75,3.61,8.42S166.06,97.62,166.06,97.62Z"/><path class="cls-16" d="M157.34,90.67s-.3-3.16,1.57-3.22-6.11-.27-6.11-.27l-1.42,3.49Z"/><path class="cls-16" d="M196.15,101.56s3,6,7.07,5.89l-.94,5.11-1.56-.17-3.86-2.55-.71-.85Z"/><path class="cls-5" d="M192.65,94.12a2.9,2.9,0,0,1,2.9,2.9v14a2.9,2.9,0,0,1-2.9,2.9h-14a2.9,2.9,0,0,1-2.9-2.9V97a2.9,2.9,0,0,1,2.9-2.9h14m0-1.13h-14a4,4,0,0,0-4,4v14a4,4,0,0,0,4,4h14a4,4,0,0,0,4-4V97a4,4,0,0,0-4-4Z"/><path class="cls-5" d="M207.09,99.56a.57.57,0,0,1-.56-.5c-1.66-13.76-12.71-22.55-12.82-22.64a.56.56,0,1,1,.7-.88c.11.09,11.52,9.15,13.24,23.38a.56.56,0,0,1-.49.63Z"/><ellipse class="cls-17" cx="179.77" cy="97.91" rx="2.13" ry="2.12"/><path class="cls-5" d="M179,96.29a1.78,1.78,0,1,1-.91,2.34,1.77,1.77,0,0,1,.91-2.34m-.43-1a2.85,2.85,0,1,0,3.78,1.45,2.89,2.89,0,0,0-3.78-1.45Z"/><path class="cls-8" d="M180.05,97.2a1,1,0,1,1-1.37-.52A1,1,0,0,1,180.05,97.2Z"/><circle class="cls-5" cx="180.11" cy="58.41" r="18.11" transform="translate(11.45 144.47) rotate(-45)"/><path class="cls-8" d="M193.47,46.75s-5.21-9.48-21.77-6.51c0,0-11.43,2-12.78,16.61,0,0-.44,11.77,5.75,15.21l3,.35s-6.55-10.77-1.32-20.52C166.33,51.89,177.16,37.57,193.47,46.75Z"/><path class="cls-16" d="M169.14,48.82s-6.57-3.08-.64-7.46c0,0-6.18,3.85-7.31,7.29l-2.14,6.74s3.58-2.87,6.09-.89Z"/><path class="cls-8" d="M194.18,67.64c-.34.89,6.62-11.82-2.49-20.42l-.15-.13h0a1.77,1.77,0,0,0-2.36,2.61,6.1,6.1,0,0,0,1,.78,1.82,1.82,0,0,1,.42.36C191.69,52.18,197.25,59.5,194.18,67.64Z"/><path class="cls-8" d="M169.7,61.35s-1.78,8.43,5.57,11.6a4.93,4.93,0,0,0,1.35.3.79.79,0,0,0,.35-1.5c-1.71-.82-5.53-3.09-6.09-7.19C170.16,59.24,169.7,61.35,169.7,61.35Z"/><path class="cls-5" d="M167.58,73l-3-.35a.81.81,0,0,1-.22-.07c-6.43-3.58-6.07-15.26-6-15.79,1.38-14.85,13.14-17.12,13.26-17.14,16.79-3,22.18,6.41,22.4,6.81a.61.61,0,0,1-.11.71.59.59,0,0,1-.7.09c-6.57-3.69-13-4-19.09-.88a23.54,23.54,0,0,0-7.26,5.82c-5,9.33,1.26,19.79,1.33,19.9a.59.59,0,0,1-.52.9Zm23.74-28c-2.55-2.51-8.36-6.19-19.52-4.19-.45.08-11,2.15-12.29,16.05,0,.11-.34,11.32,5.35,14.61l1.72.2c-1.52-3-5.22-11.8-.77-20.08a.35.35,0,0,1,.05-.08c.08-.11,6.69-8.64,17.24-8.42A21.5,21.5,0,0,1,191.32,45Z"/><ellipse class="cls-8" cx="162.98" cy="60.87" rx="6.79" ry="6.25" transform="translate(98.67 222.52) rotate(-88.79)"/><path class="cls-16" d="M166.49,66.69s-5-1.91-4.57-4.6l-4.64-1.76-.46-.39-.12,2.45,1.45,2.81,2.54,2,3.47.44Z"/><path class="cls-5" d="M163.11,54.45a6.44,6.44,0,1,1-6,6.3,6.18,6.18,0,0,1,6-6.3m0-1A7.44,7.44,0,1,0,169.88,61a7.18,7.18,0,0,0-6.75-7.57Z"/><path class="cls-5" d="M163.89,62.54a11.85,11.85,0,0,0,1.21,0,.59.59,0,0,0,.56-.62.58.58,0,0,0-.62-.56c-1.66.09-6.25-.1-7.51-2a.59.59,0,0,0-.82-.17.6.6,0,0,0-.17.82C158,62.14,161.88,62.5,163.89,62.54Z"/><path class="cls-8" d="M192.8,71.87c-1.35,1.47-5,4.19-13.18,3.52,0,0-11.3-1.8-14.24-4,0,0-1.7-.53-1.95,2.34,0,0,0,2.64,3.48,3.62,0,0,15.66,6.21,26.43-.91,0,0,2.52-2.27,1.08-4.5A1,1,0,0,0,192.8,71.87Z"/><path class="cls-16" d="M175.75,74.43s-5.37,1.11-2.53,4.72c0,0-8.88-.63-9.73-3l-.5-2.34.48-1.6,1.21-1.26,4.77,2.4Z"/><path class="cls-5" d="M193.58,71.53a1.05,1.05,0,0,1,.84.46c1.44,2.23-1.08,4.5-1.08,4.5a23.26,23.26,0,0,1-13.43,3.41,41.81,41.81,0,0,1-13-2.5c-3.49-1-3.48-3.62-3.48-3.62.19-2.14,1.18-2.39,1.67-2.38a1.51,1.51,0,0,1,.28,0c2.94,2.15,14.24,4,14.24,4,.64,0,1.26.09,1.85.1,6.89.14,10.08-2.27,11.33-3.62a1.05,1.05,0,0,1,.78-.34m0-.79a1.84,1.84,0,0,0-1.39.6c-1.2,1.31-4.21,3.5-10.72,3.36-.58,0-1.18,0-1.78-.09-3.11-.5-11.59-2.14-13.87-3.81a.61.61,0,0,0-.23-.11,1.71,1.71,0,0,0-.49-.08c-.52,0-2.22.18-2.48,3.11v.06c0,.13,0,3.24,4,4.37a42.21,42.21,0,0,0,13.24,2.54c5.48.12,10.15-1.08,13.88-3.54a.34.34,0,0,0,.09-.08c1-.94,2.64-3.3,1.21-5.51a1.84,1.84,0,0,0-1.48-.82Z"/><path class="cls-8" d="M206.38,159.14l.33-21.77s12.7.53,14.76-1.68l-.21,13.86,5.29.31,2.49,2.75-.11,5.4-2.28,3-2.7.84-5,.65-5.42-.67S206.36,160.36,206.38,159.14Z"/><path class="cls-16" d="M215.9,162.11s13.36-3.8,12.91-9.27l.69,3.37-4.23,5.65Z"/><path class="cls-5" d="M220.3,163a30.33,30.33,0,0,1-4-.18c-.79-.06-8-.61-9.9-2.86a2,2,0,0,1-.54-1.5l.31-21.2a.62.62,0,0,1,.61-.61l1.42,0a.62.62,0,1,1,0,1.24l-.82,0-.31,20.64a.79.79,0,0,0,.24.64c1.36,1.57,7,2.28,9.07,2.43,5.67.61,9.44-.25,11.23-2.56,2.05-2.64.81-6.42.66-6.85-1.81-3.17-6.77-2-6.82-2a.59.59,0,0,1-.54-.12.62.62,0,0,1-.23-.49l.22-13.71a.63.63,0,0,1,1.25,0l-.21,12.95c1.69-.25,5.66-.43,7.45,2.78l0,.08c.08.2,1.76,4.76-.82,8.09C227,161.8,224.23,162.87,220.3,163Z"/><path class="cls-5" d="M213.71,142.51a19.68,19.68,0,0,1-7.08-1.1.62.62,0,0,1-.36-.8.63.63,0,0,1,.81-.36c.07,0,7.62,2.85,14-1.12a.62.62,0,0,1,.65,1.06A16.06,16.06,0,0,1,213.71,142.51Z"/><path class="cls-5" d="M214,153a.59.59,0,0,1-.51-.25.61.61,0,0,1,.12-.87c.17-.13,4.22-3.16,8.44-3a.62.62,0,1,1,0,1.24c-3.78-.11-7.62,2.76-7.66,2.79A.6.6,0,0,1,214,153Z"/><path class="cls-5" d="M220.79,160.33a29.2,29.2,0,0,1-14.64-3.79.62.62,0,1,1,.65-1.06c.11.06,11.09,6.61,21.87,1.84a.64.64,0,0,1,.83.32.63.63,0,0,1-.32.82A22.21,22.21,0,0,1,220.79,160.33Z"/><path class="cls-5" d="M220.87,148.56a2.17,2.17,0,0,1-1.74-.82,3.57,3.57,0,0,1-.83-2.76,3.51,3.51,0,0,1,1.47-2.45,5,5,0,0,1,1.49-.71.63.63,0,0,1,.75.46.61.61,0,0,1-.45.75,4,4,0,0,0-1.08.52,2.26,2.26,0,0,0-.94,1.58,2.32,2.32,0,0,0,.53,1.8,1,1,0,0,0,1.07.34.62.62,0,1,1,.36,1.19A2.3,2.3,0,0,1,220.87,148.56Z"/><path class="cls-5" d="M213.66,137.78c-3.54.1-7-.05-7-.05a.65.65,0,0,1-.61-.67.64.64,0,0,1,.67-.61s3.44.15,6.93.05h0c6.67-.18,7.25-1.08,7.27-1.11a.64.64,0,0,1,.87-.26.63.63,0,0,1,.26.86c-.39.74-1.69,1.61-8.35,1.79Z"/><path class="cls-5" d="M165.89,98.05a.62.62,0,0,1-.27,0,.57.57,0,0,1-.32-.73.55.55,0,0,1,.47-.35,23.21,23.21,0,0,0,2-5.3.56.56,0,0,1,.69-.39.55.55,0,0,1,.39.69c-.57,2.06-1.66,5.58-2.59,6A.85.85,0,0,1,165.89,98.05Z"/><path class="cls-5" d="M190.31,85.63h0a.82.82,0,0,1,.82.82v3.69a.05.05,0,0,1-.05.05h0a.82.82,0,0,1-.82-.82V85.68a.05.05,0,0,1,.05-.05Z" transform="translate(126.87 -112.13) rotate(47.55)"/><path class="cls-17" d="M192.41,89.35l-1-1.1a.24.24,0,0,0-.33,0l-.21.19a.22.22,0,0,0,0,.32l.67.76a.59.59,0,0,0,.85,0A.14.14,0,0,0,192.41,89.35Z"/><path class="cls-17" d="M189,86.45l1,1.09a.24.24,0,0,0,.33,0l.21-.19a.22.22,0,0,0,0-.32l-.68-.76a.59.59,0,0,0-.85,0A.14.14,0,0,0,189,86.45Z"/><path class="cls-5" d="M190.74,85a2.84,2.84,0,0,1,2.79,2.86A2.82,2.82,0,1,1,190.74,85m0-1.11a3.9,3.9,0,0,0-4,3.86,4,4,0,0,0,3.89,4,3.92,3.92,0,0,0,4-3.86,4,4,0,0,0-3.89-4Z"/><path class="cls-5" d="M183.9,117.4l11.1,8.3a9.39,9.39,0,0,1,5.15-1.77,6.59,6.59,0,0,1,3.85,1.23s4.81,3.61-1.24,12.37c0,0-2.14,3.85-8.16,3.85a14.3,14.3,0,0,1-2.19-.16,65.19,65.19,0,0,1-15.73-9.65s8.94-8.75,7.22-14.17m0-1a1.09,1.09,0,0,0-.6.19,1,1,0,0,0-.39,1.16c1.25,4-4.6,10.81-6.95,13.12a1,1,0,0,0-.32.79,1,1,0,0,0,.39.75,65.46,65.46,0,0,0,16,9.82,1,1,0,0,0,.23.06,15.83,15.83,0,0,0,2.34.17c6.24,0,8.73-3.82,9-4.34,2.66-3.86,3.68-7.31,3-10.25a6.08,6.08,0,0,0-2-3.5l0,0a7.65,7.65,0,0,0-4.45-1.42,10.16,10.16,0,0,0-5.12,1.54l-10.51-7.86a1,1,0,0,0-.62-.21Z"/><path class="cls-5" d="M192.83,133.08a.51.51,0,0,1-.51-.47c0-.22-.44-5.34,2.69-8.28a.53.53,0,0,1,.73,0,.52.52,0,0,1,0,.74c-2.76,2.59-2.37,7.38-2.37,7.43a.52.52,0,0,1-.47.56Z"/><path class="cls-5" d="M193.38,142.38a.54.54,0,0,1-.47-.29.52.52,0,0,1,.23-.7c.11,0,11.19-5.85,11.45-16a.53.53,0,0,1,.52-.51h0a.53.53,0,0,1,.51.54c-.12,4.45-2.24,8.79-6.13,12.53a27.29,27.29,0,0,1-5.89,4.34A.46.46,0,0,1,193.38,142.38Z"/><path class="cls-5" d="M179.12,134.8a.54.54,0,0,1-.43-.22.53.53,0,0,1,.13-.73c.09-.07,9.54-6.82,8.09-14.37a.52.52,0,0,1,1-.19c1.58,8.2-8.1,15.12-8.51,15.41A.49.49,0,0,1,179.12,134.8Z"/><path class="cls-5" d="M167.75,94.23a.55.55,0,0,1-.49-.28A12.9,12.9,0,0,0,153.69,88a.56.56,0,0,1-.21-1.11c9.85-1.9,14.71,6.37,14.76,6.46a.57.57,0,0,1-.21.77A.58.58,0,0,1,167.75,94.23Z"/><path class="cls-5" d="M166,97.46a.55.55,0,0,1-.49-.28,12.9,12.9,0,0,0-13.57-5.91.56.56,0,0,1-.21-1.11c9.85-1.91,14.71,6.37,14.75,6.46a.55.55,0,0,1-.21.77A.52.52,0,0,1,166,97.46Z"/><path class="cls-5" d="M201.08,88.06A3.79,3.79,0,0,1,197.71,86l0,0a4.38,4.38,0,0,1,.95-4.33.57.57,0,0,1,.8,0,.58.58,0,0,1,0,.8,3.27,3.27,0,0,0-.73,3.13,2.73,2.73,0,0,0,3.63,1.18.56.56,0,1,1,.39,1.06A4.86,4.86,0,0,1,201.08,88.06Z"/><path class="cls-5" d="M221.53,136.13l-.14,0a.56.56,0,0,1-.41-.68c.13-.53,3.07-13.09-7-17.51a.56.56,0,0,1-.29-.74.56.56,0,0,1,.74-.3c11,4.81,7.73,18.68,7.69,18.82A.55.55,0,0,1,221.53,136.13Z"/><path class="cls-5" d="M186.16,105.59a.48.48,0,0,1-.56-.28c-.83-1.76-4.22-2.25-5.49-2.29a5.51,5.51,0,0,0-4.59,2.77.46.46,0,0,1-.65.19.56.56,0,0,1-.2-.7,6.4,6.4,0,0,1,5.38-3.29h0c.21,0,5.09.19,6.36,2.89a.52.52,0,0,1-.2.68Z"/><path class="cls-5" d="M204.16,101.5a.55.55,0,0,1-.48-.28.56.56,0,0,1,.2-.77,8.43,8.43,0,0,1,6.6-1,.56.56,0,0,1-.36,1.07,7.43,7.43,0,0,0-5.67.86A.59.59,0,0,1,204.16,101.5Z"/><path class="cls-18" d="M231.94,24.73a23.65,23.65,0,1,0,23.64,23.64A23.65,23.65,0,0,0,231.94,24.73Zm0,42.48a18.84,18.84,0,1,1,18.83-18.84A18.83,18.83,0,0,1,231.94,67.21Z"/><path class="cls-5" d="M231.94,24.73a23.65,23.65,0,1,1-23.65,23.64,23.65,23.65,0,0,1,23.65-23.64m0,42.48A18.84,18.84,0,1,0,213.1,48.37a18.83,18.83,0,0,0,18.84,18.84m0-43.1a24.26,24.26,0,1,0,17.16,7.11,24.07,24.07,0,0,0-17.16-7.11Zm0,42.48a18.22,18.22,0,1,1,18.21-18.22,18.24,18.24,0,0,1-18.21,18.22Z"/><path class="cls-5" d="M201.57,113.63c-2.8,0-5.93-3.42-6.06-3.57a.57.57,0,0,1,0-.8.58.58,0,0,1,.8,0c.83.92,3.39,3.28,5.31,3.2a.57.57,0,1,1,0,1.13Z"/><path class="cls-5" d="M175.09,140.63a.57.57,0,0,1-.57-.57v-9.31a23,23,0,0,0-4.91-14.2l-.49-.6a9.59,9.59,0,0,0-6.29-3.48,73.44,73.44,0,0,0-17.58.23.57.57,0,0,1-.65-.47.56.56,0,0,1,.47-.64,73.94,73.94,0,0,1,17.89-.24,10.67,10.67,0,0,1,7,3.89l.5.61a24.1,24.1,0,0,1,5.16,14.9v9.31A.56.56,0,0,1,175.09,140.63Z"/><path class="cls-5" d="M155.12,157.15a.58.58,0,0,1-.54-.4c-.06-.2-6.19-20-4.26-34.13.62-4.53,2.32-7.78,5.06-9.65a11.11,11.11,0,0,1,8.22-1.52.57.57,0,0,1-.26,1.1,10.11,10.11,0,0,0-7.33,1.36c-2.46,1.68-4,4.66-4.57,8.86-1.9,13.91,4.16,33.45,4.22,33.64a.57.57,0,0,1-.37.71A.51.51,0,0,1,155.12,157.15Z"/><g class="cls-14"><path class="cls-15" d="M152.82,121s.48-6.1,6.5-7.58c0,0,7.23-1,10.47,4.1,0,0,3.36,4.43,4.43,14.08v9s-.56,3.59-1.41,3.68-4-19.14-4-19.14a10.15,10.15,0,0,0-3.36-5.28,5.38,5.38,0,0,0-6.9.45C156.83,122,154.21,123.73,152.82,121Z"/></g><ellipse class="cls-19" cx="146.26" cy="30.73" rx="11.74" ry="4.76" transform="translate(0.77 64.91) rotate(-25.09)"/><path class="cls-5" d="M141.79,13.12a7.11,7.11,0,0,1,2.4.4C151,15.93,156.71,25.4,156.71,25.4h0a1.55,1.55,0,0,1,.21.35c1.12,2.38-2.74,6.54-8.61,9.29a21.93,21.93,0,0,1-8.74,2.27c-2,0-3.41-.52-3.92-1.6a2.22,2.22,0,0,1-.17-.61c-2.25-7.51-2.37-13.48-1.29-17,.9-3,4.38-4.94,7.63-4.94m0-.83v0c-3.85,0-7.48,2.38-8.43,5.53-1.26,4.18-.79,10.54,1.28,17.45a2.89,2.89,0,0,0,.23.79c.44.95,1.62,2.09,4.67,2.09a22.75,22.75,0,0,0,9.09-2.36,23.61,23.61,0,0,0,7.19-5c1.87-2,2.52-3.95,1.83-5.43l-.16-.28a.61.61,0,0,0-.07-.14c-.24-.4-6-9.76-12.95-12.24a8.06,8.06,0,0,0-2.68-.44Z"/><path class="cls-5" d="M135,36.24a.42.42,0,0,1-.42-.38c0-.25-.35-6.2,11.53-10.69.45-.19,8-3.37,11.8.69a.42.42,0,0,1-.61.57c-3.41-3.67-10.79-.52-10.87-.49-11.33,4.27-11,9.8-11,9.85a.42.42,0,0,1-.38.45Z"/><path class="cls-20" d="M115.32,117.49H143a0,0,0,0,1,0,0v41.34a4.25,4.25,0,0,1-4.25,4.25H115.32a0,0,0,0,1,0,0V117.49A0,0,0,0,1,115.32,117.49Z"/><path class="cls-21" d="M117.58,117.59v17.87s.47,2.64,2.64,2.57h22.45l.37,2.26H115.32v-22.8Z"/><path class="cls-21" d="M117.72,140.68v17.86s.48,2.64,2.64,2.58h22.45l.07.39a1.6,1.6,0,0,1-1.57,1.86H115.46v-22.8Z"/><path class="cls-21" d="M99.07,117.49h16.24a0,0,0,0,1,0,0v45.59a0,0,0,0,1,0,0h-10.8a5.44,5.44,0,0,1-5.44-5.44V117.49a0,0,0,0,1,0,0Z"/><path class="cls-5" d="M140.91,163.46H115.32a.38.38,0,0,1-.38-.38V117.49a.37.37,0,0,1,.38-.37H143a.37.37,0,0,1,.38.37V161A2.52,2.52,0,0,1,140.91,163.46Zm-25.22-.75h25.22a1.76,1.76,0,0,0,1.76-1.76V117.87h-27Z"/><rect class="cls-20" x="97.38" y="114.68" width="47.38" height="2.81" rx="1.4"/><path class="cls-5" d="M143.35,117.87H98.78a1.78,1.78,0,0,1,0-3.56h44.57a1.78,1.78,0,0,1,0,3.56Zm-44.57-2.81a1,1,0,0,0,0,2.06h44.57a1,1,0,0,0,0-2.06Z"/><path class="cls-5" d="M143.35,117.87H115.68a1.78,1.78,0,0,1,0-3.56h27.67a1.78,1.78,0,0,1,0,3.56Zm-27.67-2.81a1,1,0,0,0,0,2.06h27.67a1,1,0,0,0,0-2.06Z"/><path class="cls-5" d="M143,140.66H115.32a.38.38,0,1,1,0-.75H143a.38.38,0,1,1,0,.75Z"/><g class="cls-3"><path class="cls-4" d="M99.07,119.49s6.19,4.69,6.64,12.54c0,0,5.13,28.16,9.61,27.8V117.49H99.07Z"/></g><path class="cls-5" d="M115.32,163.46H101.8a3.11,3.11,0,0,1-3.1-3.11V117.49a.37.37,0,0,1,.37-.37h16.25a.37.37,0,0,1,.37.37v45.59A.38.38,0,0,1,115.32,163.46ZM99.45,117.87v42.48a2.36,2.36,0,0,0,2.35,2.36h13.14V117.87Z"/><circle class="cls-5" cx="130.14" cy="127.23" r="2.81"/><circle class="cls-5" cx="130.14" cy="151.97" r="2.81"/><path class="cls-5" d="M122.11,107.65h0m0,0a4.55,4.55,0,0,0-1,6.51H106.34c-2.3-5.11,2.3-6.51,2.3-6.51h13.47m0-.75H108.64a.83.83,0,0,0-.22,0,5.42,5.42,0,0,0-3.08,2.67,5.83,5.83,0,0,0,.31,4.87.75.75,0,0,0,.69.44h14.82a.75.75,0,0,0,.68-.42.78.78,0,0,0-.08-.79,3.72,3.72,0,0,1,.8-5.44.77.77,0,0,0,.3-.61.75.75,0,0,0-.75-.75Zm0,1.51Z"/><path class="cls-22" d="M108.64,107.65s-4.6,1.4-2.3,6.51h14.82a4.55,4.55,0,0,1,1-6.51Z"/><path class="cls-5" d="M135,107.65h0m0,0a4.55,4.55,0,0,0-.95,6.51H119.2c-2.3-5.11,2.3-6.51,2.3-6.51H135m0-.75H121.5a.83.83,0,0,0-.22,0,5.42,5.42,0,0,0-3.08,2.67,5.83,5.83,0,0,0,.31,4.87.75.75,0,0,0,.69.44H134a.75.75,0,0,0,.68-.42.78.78,0,0,0-.08-.79,3.72,3.72,0,0,1,.8-5.44.77.77,0,0,0,.3-.61.75.75,0,0,0-.75-.75Zm0,1.51Z"/><path class="cls-23" d="M121.5,107.65s-4.6,1.4-2.3,6.51H134a4.55,4.55,0,0,1,.95-6.51Z"/><path class="cls-5" d="M137.37,100.42s4.6,1.4,2.3,6.51H124.85a4.55,4.55,0,0,0-.95-6.51h13.47m0-.75H123.9a.74.74,0,0,0-.71.51.77.77,0,0,0,.25.84,3.73,3.73,0,0,1,.81,5.45.75.75,0,0,0-.07.79.73.73,0,0,0,.67.42h14.82a.76.76,0,0,0,.69-.44,5.79,5.79,0,0,0,.3-4.87,5.34,5.34,0,0,0-3.07-2.67.83.83,0,0,0-.22,0Z"/><path class="cls-24" d="M137.37,100.42s4.6,1.4,2.3,6.51H124.85a4.55,4.55,0,0,0-.95-6.51Z"/><path class="cls-5" d="M124.51,100.42s4.6,1.4,2.3,6.51H112a4.55,4.55,0,0,0-.95-6.51h13.47m0-.62H111a.62.62,0,0,0-.38,1.11,3.92,3.92,0,0,1,.83,5.64.63.63,0,0,0-.06.65.62.62,0,0,0,.56.35h14.82a.61.61,0,0,0,.57-.37,5.65,5.65,0,0,0,.31-4.76,5.17,5.17,0,0,0-3-2.59.57.57,0,0,0-.18,0Z"/><path class="cls-23" d="M124.51,100.42s4.6,1.4,2.3,6.51H112a4.55,4.55,0,0,0-.95-6.51Z"/><circle class="cls-25" cx="130.67" cy="126.51" r="1.74"/><circle class="cls-25" cx="130.67" cy="151.28" r="1.74"/><path class="cls-6" d="M215.28,106.75l15.85,3.59s4.72,3.14,5.4,6.77a68,68,0,0,1,.89,7v8.46l-2.84,16.55-.82,1.83-10.4-18-.8-14.89-4.91-5.76Z"/><path class="cls-5" d="M233,155.09a.57.57,0,0,0,.54-.39c.06-.2,6.2-20,4.26-34.14-.62-4.53-2.32-7.77-5.06-9.64a12.35,12.35,0,0,0-8-2.08.57.57,0,0,0,.27,1.1,11.57,11.57,0,0,1,7.07,1.92c2.45,1.68,4,4.66,4.56,8.85,1.9,13.92-4.16,33.45-4.22,33.65a.58.58,0,0,0,.37.71Z"/><g class="cls-14"><path class="cls-15" d="M217.65,117.17s1.54-5.92,7.72-6.33c0,0,7.29.3,9.59,5.87,0,0,2.54,4.94,1.91,14.64l-1.58,8.9s-1.18,3.44-2,3.38-.61-19.54-.61-19.54a10.09,10.09,0,0,0-2.39-5.79,5.38,5.38,0,0,0-6.87-.77C221.43,118.83,218.54,120.12,217.65,117.17Z"/></g><path class="cls-5" d="M226,110.06h-.11l-8.73-1.65a.63.63,0,0,1-.51-.55l-1.39-13a.62.62,0,0,1,1.24-.14l1.34,12.51,8.28,1.56a.63.63,0,0,1-.12,1.24Z"/><path class="cls-23" d="M185.6,105.31l3.74-15.56s11.62-1.21,17.25,4.08c0,0,6.39-5.33,11.06-3.16L222.56,93l-4.91,22-10.42,4.4a6.55,6.55,0,0,1-6.65-.12c-3.41-2.14-15-3.7-15-3.7l.41-1.94Z"/><path class="cls-8" d="M181.58,105.3s6.07-.66,7.89,3-.28,4.32-.28,4.32l-4.34,1.8H182S178.78,107.13,181.58,105.3Z"/><path class="cls-16" d="M174.72,106.67l1-1.52s1.17,8,9.22,8.58l-4.83.35-4-.59-2.85-1L173,111Z"/><path class="cls-5" d="M207,94.35a.5.5,0,0,1-.31-.1l-1.14-.84c-6.84-5.32-16-2.77-16.12-2.75a.52.52,0,1,1-.29-1c.4-.12,9.79-2.72,17,2.91l.78.57a12.33,12.33,0,0,1,11.71-2.59l0,0,4.08,1.62a.52.52,0,0,1-.39,1l-4.05-1.62a11.23,11.23,0,0,0-11,2.64A.55.55,0,0,1,207,94.35Z"/><path class="cls-17" d="M188.62,91s10.68,1.17,13.78,4.13,3.5,2.23,3.5,2.23l6.45-1.23,9.76-2.63-4.81,21-11.93,5.57-2.5.21-1.91-.54-3.24-1.48-8.4-2.14-4.24-.54.22-1.29,3.32-.9,1.26-2.68-.45-2.49-1.89-1.7-2.24-.77Z"/><path class="cls-5" d="M204.07,120.87a9.6,9.6,0,0,1-4.64-1.62c-2.72-1.55-14-3.21-14.07-3.23a.52.52,0,0,1-.43-.62l.21-1a.52.52,0,1,1,1,.22l-.1.44c2.35.36,11.32,1.81,13.88,3.27,2.75,1.56,4.19,1.82,5.9,1.08s9.83-4.17,11.36-4.82l4.65-20.86-10.79,3.32c-.52.25-4.85,2.21-8.16-1.06-.59-.38-7.05-4.36-13.52-4.59l-3.28,14a.52.52,0,0,1-.62.39.53.53,0,0,1-.39-.63l3.37-14.42a.52.52,0,0,1,.51-.4h0c7.2.07,14.24,4.6,14.54,4.79l.08.07c3,3,7,.92,7,.9l.09,0,11.69-3.6a.53.53,0,0,1,.51.12.52.52,0,0,1,.15.49l-4.91,22a.53.53,0,0,1-.3.37c-.1,0-9.7,4.09-11.59,4.91A5.47,5.47,0,0,1,204.07,120.87Z"/><path class="cls-5" d="M206.92,119.32h-.06a.4.4,0,0,1-.35-.47l2.88-21.08a.41.41,0,1,1,.82.11L207.33,119A.42.42,0,0,1,206.92,119.32Z"/><path class="cls-5" d="M201.31,119.11h-.05a.42.42,0,0,1-.36-.47l2.89-21.08a.41.41,0,1,1,.82.11l-2.89,21.08A.4.4,0,0,1,201.31,119.11Z"/><path class="cls-5" d="M181.54,115c-3.67,0-8.07-.53-9.18-2.9a.56.56,0,1,1,1-.48c1.17,2.49,8.49,2.44,12.63,2a4.26,4.26,0,0,0,3.18-2,3.16,3.16,0,0,0,.05-3c-1-2.21-5.7-2.78-7.41-2.81a.58.58,0,0,1-.56-.58.57.57,0,0,1,.57-.55h0c.28,0,6.9.17,8.42,3.46a4.35,4.35,0,0,1-.1,4,5.35,5.35,0,0,1-4,2.54A45.61,45.61,0,0,1,181.54,115Z"/><polygon class="cls-8" points="172.94 101.3 175.94 103.08 176.37 103.67 174.62 106.04 171.7 105.25 172.94 101.3"/><path class="cls-5" d="M170.3,112.71c-5.34,0-13.45-1.8-13.87-1.89-5.37-1.41-8.3-8.16-8.42-8.45a.49.49,0,0,1,0-.24c.55-16.88,15.12-26.53,15.26-26.62a.56.56,0,1,1,.62.94c-.14.09-13,8.61-14.6,23.55a6.26,6.26,0,0,0,.86,3.92c1.24,2,3.51,5,6.6,5.81.1,0,11.33,2.51,15.86,1.7.2-1.55,1-6.33,3.18-7.86-2.68-1.87-11.71-7.73-19.91-7.8a.57.57,0,0,1-.56-.57.57.57,0,0,1,.57-.56h0c10.09.09,20.91,8.25,21.36,8.6a.56.56,0,0,1,.21.58.57.57,0,0,1-.45.42c-2.09.38-3.13,5.84-3.33,7.72a.53.53,0,0,1-.42.48A12.31,12.31,0,0,1,170.3,112.71Z"/><text class="cls-26" transform="translate(377.6 147.07)">di<tspan class="cls-27" x="22.18" y="0">c</tspan><tspan x="35.31" y="0">tiona</tspan><tspan class="cls-28" x="97.37" y="0">r</tspan><tspan x="107.75" y="0">y</tspan></text><path class="cls-29" d="M378.24,42.82V56.89H360.55V42.82H364V53.37h3.62V42.82h3.49V53.37h3.48V42.82Z"/><path class="cls-29" d="M396,42.78V56.86H381.83V48.4h10.59V46.1H381.83V42.78Zm-3.62,10.93V51.27h-7v2.44Z"/><path class="cls-29" d="M403,46.3v7.07h7.11v3.52H399.56V38.21H403v4.57h7.11V46.3Z"/><path class="cls-29" d="M417.36,46.27v7H428v3.62H413.74V42.68H428v3.59Z"/><path class="cls-29" d="M445.58,42.78V56.89h-3.49V46.3H435V56.89H431.5V37.77H435v5Z"/><path class="cls-30" d="M471.11,59.32l-1.52-1.91a3.66,3.66,0,0,1,.25-4.82l3.46-3.52a1.81,1.81,0,0,0,0,2.55l9.83,10a1,1,0,0,1-.92,1.67l-7.13-1.52A6.94,6.94,0,0,1,471.11,59.32Z"/><path class="cls-29" d="M484.65,36.28l-11.57,2.47a2.38,2.38,0,0,0-1.37.86l-4,5a.77.77,0,0,1-1.21,0l-1.58-2a3.65,3.65,0,0,1-.26,4.82L449.36,63.05a.12.12,0,0,0,.11.2L461,60.78a2.34,2.34,0,0,0,1.38-.85l4-5a.76.76,0,0,1,1.2,0l1.59,2a3.62,3.62,0,0,1,.25-4.81l15.33-15.61A.13.13,0,0,0,484.65,36.28Z"/><path class="cls-30" d="M463,40.21l1.52,1.92a3.63,3.63,0,0,1-.25,4.81l-3.46,3.52a1.81,1.81,0,0,0,0-2.55L451,37.9a1,1,0,0,1,.92-1.67L459,37.75A6.89,6.89,0,0,1,463,40.21Z"/><path class="cls-30" d="M384.77,75.86A3.88,3.88,0,0,1,382,74.71l-6.05-6a5.3,5.3,0,0,0-3.78-1.56H360.55V65.73h11.62a6.66,6.66,0,0,1,4.74,2l6,6a2.56,2.56,0,0,0,3.62,0l6.05-6a6.66,6.66,0,0,1,4.74-2H445.8v1.36l-48.43,0a5.26,5.26,0,0,0-3.77,1.56l-6.06,6A3.88,3.88,0,0,1,384.77,75.86Z"/><path class="cls-31" d="M417.35,89.29a3.64,3.64,0,0,0-2.93,1.32,6.14,6.14,0,0,0-1.12,4,6.29,6.29,0,0,0,1.1,4,3.65,3.65,0,0,0,3,1.35,3.61,3.61,0,0,0,2.95-1.35,7.89,7.89,0,0,0,0-8.07A3.63,3.63,0,0,0,417.35,89.29Z"/><path class="cls-31" d="M385.09,92.24a1.74,1.74,0,0,0,.58-1.4,1.52,1.52,0,0,0-.67-1.29,3.57,3.57,0,0,0-2-.47l-1,0a7.26,7.26,0,0,0-.91.09v3.51h2.17A3,3,0,0,0,385.09,92.24Z"/><path class="cls-31" d="M383.7,96.35h-2.65V100a5.18,5.18,0,0,0,1.07.16c.44,0,.85,0,1.25,0a3.63,3.63,0,0,0,2-.49,1.66,1.66,0,0,0,.79-1.53C386.14,97,385.33,96.35,383.7,96.35Z"/><path class="cls-31" d="M442.94,103.22c-.3.14-.46.46-.75,1.15a3.89,3.89,0,0,1-2.06,2.43c-1,.4-2.75.46-5.21-1.59-4.35-3.61-5.39-11.36-2.18-16.25,1-1.48,2.95-3.91,5.41-3.62a4.76,4.76,0,0,1,3.09,2.19c.5.64.85,1.06,1.15,1.07h0c.52,0,1.28-.78,1.74-1.52.73-1.17.62-2.25.35-4.23a22.56,22.56,0,0,1-.28-4.35,23.57,23.57,0,0,1,.33-3.16,3.86,3.86,0,0,0-3.81-4.51H397.37a3.19,3.19,0,0,0-2.29,1l-6.05,6a6,6,0,0,1-8.51,0l-6.06-6a3.17,3.17,0,0,0-2.29-1h-3.91a7.71,7.71,0,0,0-7.71,7.71v32.25a7.71,7.71,0,0,0,7.71,7.71h70.15a3.86,3.86,0,0,0,3.84-3.51,17,17,0,0,1,1.86-6.6l.24-.44c.54-1,1.67-3,1.14-3.93A2.37,2.37,0,0,0,442.94,103.22Zm-53.65-.45a11.59,11.59,0,0,1-6.31,1.42l-1.19,0q-.69,0-1.41-.12c-.49-.06-1-.13-1.45-.22a6.94,6.94,0,0,1-1.31-.38,2.21,2.21,0,0,1-1.64-2.17V87.35a1.3,1.3,0,0,1,.34-1,2.44,2.44,0,0,1,.94-.55,11.43,11.43,0,0,1,2.53-.52,29.12,29.12,0,0,1,3.13-.17,11.23,11.23,0,0,1,5.88,1.28,4.35,4.35,0,0,1,2.05,4,3.61,3.61,0,0,1-.74,2.28A4.9,4.9,0,0,1,388,94.14q3.47,1.14,3.46,4.27A4.83,4.83,0,0,1,389.29,102.77Zm17.27.5a1.68,1.68,0,0,1-1.31.53H397.2a2.56,2.56,0,0,1-2.77-2.77V85.59l1-.16a9.14,9.14,0,0,1,1.37-.11,3.54,3.54,0,0,1,2.15.51,2.37,2.37,0,0,1,.66,2V99.6h6.82a4.12,4.12,0,0,1,.39.86,3.68,3.68,0,0,1,.18,1.17A2.41,2.41,0,0,1,406.56,103.27Zm19.53-4.49a8.2,8.2,0,0,1-5,4.84,11.51,11.51,0,0,1-7.51,0,8.07,8.07,0,0,1-3-1.85,8.45,8.45,0,0,1-2-3,12,12,0,0,1,0-8.22,8.28,8.28,0,0,1,5-4.83,11.24,11.24,0,0,1,7.42,0,8.75,8.75,0,0,1,3,1.83,8.51,8.51,0,0,1,2,3,10.73,10.73,0,0,1,.73,4.11A11.28,11.28,0,0,1,426.09,98.78Z"/><path class="cls-31" d="M516.43,106.06l-2.22-32.17A7.72,7.72,0,0,0,506,66.72l-55.55,3.84a3.84,3.84,0,0,0-3.52,3.09,22.86,22.86,0,0,0-.41,5,20,20,0,0,0,.52,3.83c.42,2,.82,4-.32,6.1-.37.72-1.78,3-4,3.12a4.43,4.43,0,0,1-3.38-1.91c-.47-.53-.92-1-1.31-1s-1.57.76-2.58,2.56c-2.15,3.83-.91,10,2.5,12.46,1.42,1,2.22,1.09,2.48,1s.29-.43.46-1a4.43,4.43,0,0,1,1.93-2.73,5.08,5.08,0,0,1,6.27,1.49c1.47,2.18.14,5-.65,6.72l-.2.42a14,14,0,0,0-1.1,4.41,3.87,3.87,0,0,0,4.11,4.21l58.06-4A7.71,7.71,0,0,0,516.43,106.06Zm-50.93-4.72a2.69,2.69,0,0,1-1.15,1,9.3,9.3,0,0,1-1.49.58,10.21,10.21,0,0,1-2.36.4,12.2,12.2,0,0,1-3.81-.3,8.49,8.49,0,0,1-3.19-1.52,8,8,0,0,1-2.25-2.81,11.15,11.15,0,0,1-1-4.25,10.81,10.81,0,0,1,.44-4.15,8.74,8.74,0,0,1,1.79-3.14,8.31,8.31,0,0,1,2.83-2,10.35,10.35,0,0,1,3.58-.88,8.48,8.48,0,0,1,4.3.6,2.62,2.62,0,0,1,1.66,2.19,2.27,2.27,0,0,1-.29,1.36,3.14,3.14,0,0,1-.83,1,10.07,10.07,0,0,0-1.71-.75,5.4,5.4,0,0,0-2.06-.22,4.38,4.38,0,0,0-3.41,1.66,5.88,5.88,0,0,0-.95,4,5.47,5.47,0,0,0,1.6,3.91,4.91,4.91,0,0,0,3.77,1.1,5.78,5.78,0,0,0,2-.47,15.69,15.69,0,0,0,1.57-.85,3,3,0,0,1,.86.94,3,3,0,0,1,.37,1.33A2.3,2.3,0,0,1,465.5,101.34Zm18.73-1.41a2.69,2.69,0,0,1-1.45,1.51,3.36,3.36,0,0,1-1.06.25,3.14,3.14,0,0,1-2-.47,10.71,10.71,0,0,1-1.58-1.34l-4.66-4.73.46,6.72a8.32,8.32,0,0,1-1,.25,10.35,10.35,0,0,1-1.39.18,3.32,3.32,0,0,1-2.22-.38,2.49,2.49,0,0,1-.74-1.89l-1.1-15.85,1-.24a10.62,10.62,0,0,1,1.36-.2,3.68,3.68,0,0,1,2.18.36,2.4,2.4,0,0,1,.79,1.92l.33,4.82,5.69-7.57a4.5,4.5,0,0,1,3,.56,2.33,2.33,0,0,1,1,1.74,2.91,2.91,0,0,1-.29,1.48,7.56,7.56,0,0,1-1.14,1.64l-3.46,4c1.39,1.34,2.64,2.53,3.77,3.56s2,1.89,2.71,2.54A2.62,2.62,0,0,1,484.23,99.93Zm15.62-2.7a5,5,0,0,1-1.38,1.91,7.51,7.51,0,0,1-2.39,1.35,12.77,12.77,0,0,1-3.34.65,14.34,14.34,0,0,1-2.56,0,7.79,7.79,0,0,1-2.1-.51,3.83,3.83,0,0,1-1.44-1,2.33,2.33,0,0,1-.59-1.44,2.22,2.22,0,0,1,.4-1.5,3.86,3.86,0,0,1,1-1,7.94,7.94,0,0,0,2.11,1,7.09,7.09,0,0,0,2.67.3,3.37,3.37,0,0,0,2-.62,1.37,1.37,0,0,0,.53-1.11,1.12,1.12,0,0,0-.54-.91,5.75,5.75,0,0,0-1.39-.54l-1.27-.33c-.9-.24-1.71-.49-2.45-.75a7.22,7.22,0,0,1-1.92-1,4.76,4.76,0,0,1-1.31-1.48,5.14,5.14,0,0,1-.58-2.19A4.87,4.87,0,0,1,487,83.84,8.68,8.68,0,0,1,492.37,82a14.55,14.55,0,0,1,2.39,0,6.63,6.63,0,0,1,1.93.42,3.4,3.4,0,0,1,1.3.86,2.16,2.16,0,0,1,.53,1.32,2.36,2.36,0,0,1-.26,1.35,3.56,3.56,0,0,1-.8,1,6.72,6.72,0,0,0-1.8-.61,8.74,8.74,0,0,0-2.43-.15,4.14,4.14,0,0,0-1.94.51,1.08,1.08,0,0,0-.56,1,.86.86,0,0,0,.44.7,4,4,0,0,0,1.19.44l1.61.4a11.28,11.28,0,0,1,4.46,2,5,5,0,0,1,1.76,3.69A5.38,5.38,0,0,1,499.85,97.23Z"/></g></g></svg>