<svg xmlns="http://www.w3.org/2000/svg" viewBox="0 0 595.28 145.14"><defs><style>.cls-1{fill:#21222b;}.cls-2{fill:#e8e8e8;opacity:0.17;}.cls-3{fill:#fff;}.cls-4,.cls-8{fill:none;}.cls-4{stroke:#ff5100;stroke-linecap:round;stroke-miterlimit:10;}.cls-5{font-size:14px;fill:#231f20;font-family:Mulish-Regular, Mulish;}.cls-6{letter-spacing:0em;}.cls-7{letter-spacing:-0.02em;}</style></defs><g id="Layer_2" data-name="Layer 2"><g id="Layer_1-2" data-name="Layer 1"><rect class="cls-1" x="1" width="192.76" height="102.6"/><rect x="5.66" y="4.66" width="183.43" height="93.27"/><polygon class="cls-2" points="178.82 0 7.89 102.6 193.75 102.6 193.75 0 178.82 0"/><rect class="cls-3" x="8.09" y="15.22" width="1.22" height="1.22"/><rect class="cls-3" x="8.09" y="8.12" width="1.22" height="1.22"/><rect class="cls-3" x="9.51" y="15.22" width="1.22" height="1.22"/><rect class="cls-3" x="10.93" y="15.22" width="1.22" height="1.22"/><rect class="cls-3" x="9.51" y="12.38" width="1.22" height="1.22"/><rect class="cls-3" x="9.51" y="13.8" width="1.22" height="1.22"/><rect class="cls-3" x="9.51" y="10.96" width="1.22" height="1.22"/><rect class="cls-3" x="9.51" y="9.54" width="1.22" height="1.22"/><rect class="cls-3" x="9.51" y="8.12" width="1.22" height="1.22"/><rect class="cls-3" x="9.51" y="6.7" width="1.22" height="1.22"/><rect class="cls-3" x="8.09" y="23.73" width="1.22" height="1.22"/><rect class="cls-3" x="8.09" y="26.57" width="1.22" height="1.22"/><rect class="cls-3" x="8.09" y="18.06" width="1.22" height="1.22"/><rect class="cls-3" x="6.67" y="25.15" width="1.22" height="1.22"/><rect class="cls-3" x="6.67" y="26.57" width="1.22" height="1.22"/><rect class="cls-3" x="6.67" y="19.47" width="1.22" height="1.22"/><rect class="cls-3" x="10.93" y="22.31" width="1.22" height="1.22"/><rect class="cls-3" x="10.93" y="26.57" width="1.22" height="1.22"/><rect class="cls-3" x="10.93" y="18.06" width="1.22" height="1.22"/><rect class="cls-3" x="9.51" y="26.57" width="1.22" height="1.22"/><rect class="cls-3" x="9.51" y="22.31" width="1.22" height="1.22"/><rect class="cls-3" x="9.51" y="18.06" width="1.22" height="1.22"/><rect class="cls-3" x="12.34" y="26.57" width="1.22" height="1.22"/><rect class="cls-3" x="12.34" y="20.89" width="1.22" height="1.22"/><rect class="cls-3" x="12.34" y="19.47" width="1.22" height="1.22"/><rect class="cls-3" x="12.34" y="32.24" width="1.22" height="1.22"/><rect class="cls-3" x="12.34" y="36.5" width="1.22" height="1.22"/><rect class="cls-3" x="12.34" y="35.08" width="1.22" height="1.22"/><rect class="cls-3" x="12.34" y="30.83" width="1.22" height="1.22"/><rect class="cls-3" x="8.09" y="37.92" width="1.22" height="1.22"/><rect class="cls-3" x="8.09" y="29.41" width="1.22" height="1.22"/><rect class="cls-3" x="6.67" y="36.5" width="1.22" height="1.22"/><rect class="cls-3" x="6.67" y="30.83" width="1.22" height="1.22"/><rect class="cls-3" x="10.93" y="37.92" width="1.22" height="1.22"/><rect class="cls-3" x="10.93" y="33.66" width="1.22" height="1.22"/><rect class="cls-3" x="10.93" y="29.41" width="1.22" height="1.22"/><rect class="cls-3" x="9.51" y="33.66" width="1.22" height="1.22"/><rect class="cls-3" x="9.51" y="37.92" width="1.22" height="1.22"/><rect class="cls-3" x="9.51" y="29.41" width="1.22" height="1.22"/><rect class="cls-3" x="10.93" y="49.27" width="1.22" height="1.22"/><rect class="cls-3" x="10.93" y="46.43" width="1.22" height="1.22"/><rect class="cls-3" x="10.93" y="45.01" width="1.22" height="1.22"/><rect class="cls-3" x="10.93" y="43.6" width="1.22" height="1.22"/><rect class="cls-3" x="10.93" y="47.85" width="1.22" height="1.22"/><rect class="cls-3" x="10.93" y="42.18" width="1.22" height="1.22"/><rect class="cls-3" x="10.93" y="40.76" width="1.22" height="1.22"/><rect class="cls-3" x="9.51" y="46.43" width="1.22" height="1.22"/><rect class="cls-3" x="9.51" y="42.18" width="1.22" height="1.22"/><rect class="cls-3" x="12.34" y="46.43" width="1.22" height="1.22"/><rect class="cls-3" x="8.09" y="43.6" width="1.22" height="1.22"/><rect class="cls-3" x="8.09" y="46.43" width="1.22" height="1.22"/><rect class="cls-3" x="6.67" y="46.43" width="1.22" height="1.22"/><rect class="cls-3" x="6.67" y="45.01" width="1.22" height="1.22"/><rect class="cls-3" x="12.34" y="57.78" width="1.22" height="1.22"/><rect class="cls-3" x="12.34" y="59.2" width="1.22" height="1.22"/><rect class="cls-3" x="12.34" y="56.37" width="1.22" height="1.22"/><rect class="cls-3" x="12.34" y="52.11" width="1.22" height="1.22"/><rect class="cls-3" x="8.09" y="54.95" width="1.22" height="1.22"/><rect class="cls-3" x="8.09" y="60.62" width="1.22" height="1.22"/><rect class="cls-3" x="8.09" y="52.11" width="1.22" height="1.22"/><rect class="cls-3" x="6.67" y="54.95" width="1.22" height="1.22"/><rect class="cls-3" x="6.67" y="59.2" width="1.22" height="1.22"/><rect class="cls-3" x="6.67" y="53.53" width="1.22" height="1.22"/><rect class="cls-3" x="6.67" y="52.11" width="1.22" height="1.22"/><rect class="cls-3" x="10.93" y="54.95" width="1.22" height="1.22"/><rect class="cls-3" x="10.93" y="60.62" width="1.22" height="1.22"/><rect class="cls-3" x="10.93" y="52.11" width="1.22" height="1.22"/><rect class="cls-3" x="9.51" y="54.95" width="1.22" height="1.22"/><rect class="cls-3" x="9.51" y="60.62" width="1.22" height="1.22"/><rect class="cls-3" x="9.51" y="52.11" width="1.22" height="1.22"/><rect class="cls-3" x="8.09" y="64.88" width="1.22" height="1.22"/><rect class="cls-3" x="8.09" y="67.72" width="1.22" height="1.22"/><rect class="cls-3" x="8.09" y="71.97" width="1.22" height="1.22"/><rect class="cls-3" x="6.67" y="67.72" width="1.22" height="1.22"/><rect class="cls-3" x="6.67" y="69.14" width="1.22" height="1.22"/><rect class="cls-3" x="6.67" y="70.55" width="1.22" height="1.22"/><rect class="cls-3" x="6.67" y="66.3" width="1.22" height="1.22"/><rect class="cls-3" x="10.93" y="67.72" width="1.22" height="1.22"/><rect class="cls-3" x="10.93" y="71.97" width="1.22" height="1.22"/><rect class="cls-3" x="10.93" y="63.46" width="1.22" height="1.22"/><rect class="cls-3" x="9.51" y="67.72" width="1.22" height="1.22"/><rect class="cls-3" x="9.51" y="71.97" width="1.22" height="1.22"/><rect class="cls-3" x="9.51" y="63.46" width="1.22" height="1.22"/><rect class="cls-3" x="12.34" y="70.55" width="1.22" height="1.22"/><rect class="cls-3" x="12.34" y="69.14" width="1.22" height="1.22"/><rect class="cls-3" x="8.09" y="80.49" width="1.22" height="1.22"/><rect class="cls-3" x="8.09" y="81.91" width="1.22" height="1.22"/><rect class="cls-3" x="8.09" y="83.32" width="1.22" height="1.22"/><rect class="cls-3" x="8.09" y="74.81" width="1.22" height="1.22"/><rect class="cls-3" x="6.67" y="74.81" width="1.22" height="1.22"/><rect class="cls-3" x="10.93" y="77.65" width="1.22" height="1.22"/><rect class="cls-3" x="10.93" y="74.81" width="1.22" height="1.22"/><rect class="cls-3" x="9.51" y="79.07" width="1.22" height="1.22"/><rect class="cls-3" x="9.51" y="74.81" width="1.22" height="1.22"/><rect class="cls-3" x="12.34" y="76.23" width="1.22" height="1.22"/><rect class="cls-3" x="12.34" y="74.81" width="1.22" height="1.22"/><rect class="cls-3" x="10.93" y="94.68" width="1.22" height="1.22"/><rect class="cls-3" x="10.93" y="90.42" width="1.22" height="1.22"/><rect class="cls-3" x="10.93" y="86.16" width="1.22" height="1.22"/><rect class="cls-3" x="9.51" y="90.42" width="1.22" height="1.22"/><rect class="cls-3" x="9.51" y="94.68" width="1.22" height="1.22"/><rect class="cls-3" x="9.51" y="86.16" width="1.22" height="1.22"/><rect class="cls-3" x="12.34" y="89" width="1.22" height="1.22"/><rect class="cls-3" x="12.34" y="91.84" width="1.22" height="1.22"/><rect class="cls-3" x="12.34" y="93.26" width="1.22" height="1.22"/><rect class="cls-3" x="12.34" y="87.58" width="1.22" height="1.22"/><rect class="cls-3" x="8.09" y="90.42" width="1.22" height="1.22"/><rect class="cls-3" x="8.09" y="94.68" width="1.22" height="1.22"/><rect class="cls-3" x="8.09" y="86.16" width="1.22" height="1.22"/><rect class="cls-3" x="6.67" y="87.58" width="1.22" height="1.22"/><rect class="cls-3" x="6.67" y="89" width="1.22" height="1.22"/><rect class="cls-3" x="6.67" y="93.26" width="1.22" height="1.22"/><rect class="cls-3" x="6.67" y="91.84" width="1.22" height="1.22"/><rect class="cls-3" x="182.61" y="15.22" width="1.22" height="1.22"/><rect class="cls-3" x="182.61" y="8.12" width="1.22" height="1.22"/><rect class="cls-3" x="184.03" y="15.22" width="1.22" height="1.22"/><rect class="cls-3" x="185.45" y="15.22" width="1.22" height="1.22"/><rect class="cls-3" x="184.03" y="12.38" width="1.22" height="1.22"/><rect class="cls-3" x="184.03" y="13.8" width="1.22" height="1.22"/><rect class="cls-3" x="184.03" y="10.96" width="1.22" height="1.22"/><rect class="cls-3" x="184.03" y="9.54" width="1.22" height="1.22"/><rect class="cls-3" x="184.03" y="8.12" width="1.22" height="1.22"/><rect class="cls-3" x="184.03" y="6.7" width="1.22" height="1.22"/><rect class="cls-3" x="182.61" y="23.73" width="1.22" height="1.22"/><rect class="cls-3" x="182.61" y="26.57" width="1.22" height="1.22"/><rect class="cls-3" x="182.61" y="18.06" width="1.22" height="1.22"/><rect class="cls-3" x="181.19" y="25.15" width="1.22" height="1.22"/><rect class="cls-3" x="181.19" y="26.57" width="1.22" height="1.22"/><rect class="cls-3" x="181.19" y="19.47" width="1.22" height="1.22"/><rect class="cls-3" x="185.45" y="22.31" width="1.22" height="1.22"/><rect class="cls-3" x="185.45" y="26.57" width="1.22" height="1.22"/><rect class="cls-3" x="185.45" y="18.06" width="1.22" height="1.22"/><rect class="cls-3" x="184.03" y="26.57" width="1.22" height="1.22"/><rect class="cls-3" x="184.03" y="22.31" width="1.22" height="1.22"/><rect class="cls-3" x="184.03" y="18.06" width="1.22" height="1.22"/><rect class="cls-3" x="186.87" y="26.57" width="1.22" height="1.22"/><rect class="cls-3" x="186.87" y="20.89" width="1.22" height="1.22"/><rect class="cls-3" x="186.87" y="19.47" width="1.22" height="1.22"/><rect class="cls-3" x="186.87" y="32.24" width="1.22" height="1.22"/><rect class="cls-3" x="186.87" y="36.5" width="1.22" height="1.22"/><rect class="cls-3" x="186.87" y="35.08" width="1.22" height="1.22"/><rect class="cls-3" x="186.87" y="30.83" width="1.22" height="1.22"/><rect class="cls-3" x="182.61" y="37.92" width="1.22" height="1.22"/><rect class="cls-3" x="182.61" y="29.41" width="1.22" height="1.22"/><rect class="cls-3" x="181.19" y="36.5" width="1.22" height="1.22"/><rect class="cls-3" x="181.19" y="30.83" width="1.22" height="1.22"/><rect class="cls-3" x="185.45" y="37.92" width="1.22" height="1.22"/><rect class="cls-3" x="185.45" y="33.66" width="1.22" height="1.22"/><rect class="cls-3" x="185.45" y="29.41" width="1.22" height="1.22"/><rect class="cls-3" x="184.03" y="33.66" width="1.22" height="1.22"/><rect class="cls-3" x="184.03" y="37.92" width="1.22" height="1.22"/><rect class="cls-3" x="184.03" y="29.41" width="1.22" height="1.22"/><rect class="cls-3" x="185.45" y="49.27" width="1.22" height="1.22"/><rect class="cls-3" x="185.45" y="46.43" width="1.22" height="1.22"/><rect class="cls-3" x="185.45" y="45.01" width="1.22" height="1.22"/><rect class="cls-3" x="185.45" y="43.6" width="1.22" height="1.22"/><rect class="cls-3" x="185.45" y="47.85" width="1.22" height="1.22"/><rect class="cls-3" x="185.45" y="42.18" width="1.22" height="1.22"/><rect class="cls-3" x="185.45" y="40.76" width="1.22" height="1.22"/><rect class="cls-3" x="184.03" y="46.43" width="1.22" height="1.22"/><rect class="cls-3" x="184.03" y="42.18" width="1.22" height="1.22"/><rect class="cls-3" x="186.87" y="46.43" width="1.22" height="1.22"/><rect class="cls-3" x="182.61" y="43.6" width="1.22" height="1.22"/><rect class="cls-3" x="182.61" y="46.43" width="1.22" height="1.22"/><rect class="cls-3" x="181.19" y="46.43" width="1.22" height="1.22"/><rect class="cls-3" x="181.19" y="45.01" width="1.22" height="1.22"/><rect class="cls-3" x="186.87" y="57.78" width="1.22" height="1.22"/><rect class="cls-3" x="186.87" y="59.2" width="1.22" height="1.22"/><rect class="cls-3" x="186.87" y="56.37" width="1.22" height="1.22"/><rect class="cls-3" x="186.87" y="52.11" width="1.22" height="1.22"/><rect class="cls-3" x="182.61" y="54.95" width="1.22" height="1.22"/><rect class="cls-3" x="182.61" y="60.62" width="1.22" height="1.22"/><rect class="cls-3" x="182.61" y="52.11" width="1.22" height="1.22"/><rect class="cls-3" x="181.19" y="54.95" width="1.22" height="1.22"/><rect class="cls-3" x="181.19" y="59.2" width="1.22" height="1.22"/><rect class="cls-3" x="181.19" y="53.53" width="1.22" height="1.22"/><rect class="cls-3" x="181.19" y="52.11" width="1.22" height="1.22"/><rect class="cls-3" x="185.45" y="54.95" width="1.22" height="1.22"/><rect class="cls-3" x="185.45" y="60.62" width="1.22" height="1.22"/><rect class="cls-3" x="185.45" y="52.11" width="1.22" height="1.22"/><rect class="cls-3" x="184.03" y="54.95" width="1.22" height="1.22"/><rect class="cls-3" x="184.03" y="60.62" width="1.22" height="1.22"/><rect class="cls-3" x="184.03" y="52.11" width="1.22" height="1.22"/><rect class="cls-3" x="182.61" y="64.88" width="1.22" height="1.22"/><rect class="cls-3" x="182.61" y="67.72" width="1.22" height="1.22"/><rect class="cls-3" x="182.61" y="71.97" width="1.22" height="1.22"/><rect class="cls-3" x="181.19" y="67.72" width="1.22" height="1.22"/><rect class="cls-3" x="181.19" y="69.14" width="1.22" height="1.22"/><rect class="cls-3" x="181.19" y="70.55" width="1.22" height="1.22"/><rect class="cls-3" x="181.19" y="66.3" width="1.22" height="1.22"/><rect class="cls-3" x="185.45" y="67.72" width="1.22" height="1.22"/><rect class="cls-3" x="185.45" y="71.97" width="1.22" height="1.22"/><rect class="cls-3" x="185.45" y="63.46" width="1.22" height="1.22"/><rect class="cls-3" x="184.03" y="67.72" width="1.22" height="1.22"/><rect class="cls-3" x="184.03" y="71.97" width="1.22" height="1.22"/><rect class="cls-3" x="184.03" y="63.46" width="1.22" height="1.22"/><rect class="cls-3" x="186.87" y="70.55" width="1.22" height="1.22"/><rect class="cls-3" x="186.87" y="69.14" width="1.22" height="1.22"/><rect class="cls-3" x="182.61" y="80.49" width="1.22" height="1.22"/><rect class="cls-3" x="182.61" y="81.91" width="1.22" height="1.22"/><rect class="cls-3" x="182.61" y="83.32" width="1.22" height="1.22"/><rect class="cls-3" x="182.61" y="74.81" width="1.22" height="1.22"/><rect class="cls-3" x="181.19" y="74.81" width="1.22" height="1.22"/><rect class="cls-3" x="185.45" y="77.65" width="1.22" height="1.22"/><rect class="cls-3" x="185.45" y="74.81" width="1.22" height="1.22"/><rect class="cls-3" x="184.03" y="79.07" width="1.22" height="1.22"/><rect class="cls-3" x="184.03" y="74.81" width="1.22" height="1.22"/><rect class="cls-3" x="186.87" y="76.23" width="1.22" height="1.22"/><rect class="cls-3" x="186.87" y="74.81" width="1.22" height="1.22"/><rect class="cls-3" x="185.45" y="94.68" width="1.22" height="1.22"/><rect class="cls-3" x="185.45" y="90.42" width="1.22" height="1.22"/><rect class="cls-3" x="185.45" y="86.16" width="1.22" height="1.22"/><rect class="cls-3" x="184.03" y="90.42" width="1.22" height="1.22"/><rect class="cls-3" x="184.03" y="94.68" width="1.22" height="1.22"/><rect class="cls-3" x="184.03" y="86.16" width="1.22" height="1.22"/><rect class="cls-3" x="186.87" y="89" width="1.22" height="1.22"/><rect class="cls-3" x="186.87" y="91.84" width="1.22" height="1.22"/><rect class="cls-3" x="186.87" y="93.26" width="1.22" height="1.22"/><rect class="cls-3" x="186.87" y="87.58" width="1.22" height="1.22"/><rect class="cls-3" x="182.61" y="90.42" width="1.22" height="1.22"/><rect class="cls-3" x="182.61" y="94.68" width="1.22" height="1.22"/><rect class="cls-3" x="182.61" y="86.16" width="1.22" height="1.22"/><rect class="cls-3" x="181.19" y="87.58" width="1.22" height="1.22"/><rect class="cls-3" x="181.19" y="89" width="1.22" height="1.22"/><rect class="cls-3" x="181.19" y="93.26" width="1.22" height="1.22"/><rect class="cls-3" x="181.19" y="91.84" width="1.22" height="1.22"/><rect class="cls-3" x="94.64" y="15.22" width="1.22" height="1.22"/><rect class="cls-3" x="94.64" y="8.12" width="1.22" height="1.22"/><rect class="cls-3" x="96.06" y="15.22" width="1.22" height="1.22"/><rect class="cls-3" x="97.48" y="15.22" width="1.22" height="1.22"/><rect class="cls-3" x="96.06" y="12.38" width="1.22" height="1.22"/><rect class="cls-3" x="96.06" y="13.8" width="1.22" height="1.22"/><rect class="cls-3" x="96.06" y="10.96" width="1.22" height="1.22"/><rect class="cls-3" x="96.06" y="9.54" width="1.22" height="1.22"/><rect class="cls-3" x="96.06" y="8.12" width="1.22" height="1.22"/><rect class="cls-3" x="96.06" y="6.7" width="1.22" height="1.22"/><rect class="cls-3" x="94.64" y="23.73" width="1.22" height="1.22"/><rect class="cls-3" x="94.64" y="26.57" width="1.22" height="1.22"/><rect class="cls-3" x="94.64" y="18.06" width="1.22" height="1.22"/><rect class="cls-3" x="93.22" y="25.15" width="1.22" height="1.22"/><rect class="cls-3" x="93.22" y="26.57" width="1.22" height="1.22"/><rect class="cls-3" x="93.22" y="19.47" width="1.22" height="1.22"/><rect class="cls-3" x="97.48" y="22.31" width="1.22" height="1.22"/><rect class="cls-3" x="97.48" y="26.57" width="1.22" height="1.22"/><rect class="cls-3" x="97.48" y="18.06" width="1.22" height="1.22"/><rect class="cls-3" x="96.06" y="26.57" width="1.22" height="1.22"/><rect class="cls-3" x="96.06" y="22.31" width="1.22" height="1.22"/><rect class="cls-3" x="96.06" y="18.06" width="1.22" height="1.22"/><rect class="cls-3" x="98.9" y="26.57" width="1.22" height="1.22"/><rect class="cls-3" x="98.9" y="20.89" width="1.22" height="1.22"/><rect class="cls-3" x="98.9" y="19.47" width="1.22" height="1.22"/><rect class="cls-3" x="98.9" y="32.24" width="1.22" height="1.22"/><rect class="cls-3" x="98.9" y="36.5" width="1.22" height="1.22"/><rect class="cls-3" x="98.9" y="35.08" width="1.22" height="1.22"/><rect class="cls-3" x="98.9" y="30.83" width="1.22" height="1.22"/><rect class="cls-3" x="94.64" y="37.92" width="1.22" height="1.22"/><rect class="cls-3" x="94.64" y="29.41" width="1.22" height="1.22"/><rect class="cls-3" x="93.22" y="36.5" width="1.22" height="1.22"/><rect class="cls-3" x="93.22" y="30.83" width="1.22" height="1.22"/><rect class="cls-3" x="97.48" y="37.92" width="1.22" height="1.22"/><rect class="cls-3" x="97.48" y="33.66" width="1.22" height="1.22"/><rect class="cls-3" x="97.48" y="29.41" width="1.22" height="1.22"/><rect class="cls-3" x="96.06" y="33.66" width="1.22" height="1.22"/><rect class="cls-3" x="96.06" y="37.92" width="1.22" height="1.22"/><rect class="cls-3" x="96.06" y="29.41" width="1.22" height="1.22"/><rect class="cls-3" x="97.48" y="49.27" width="1.22" height="1.22"/><rect class="cls-3" x="97.48" y="46.43" width="1.22" height="1.22"/><rect class="cls-3" x="97.48" y="45.01" width="1.22" height="1.22"/><rect class="cls-3" x="97.48" y="43.6" width="1.22" height="1.22"/><rect class="cls-3" x="97.48" y="47.85" width="1.22" height="1.22"/><rect class="cls-3" x="97.48" y="42.18" width="1.22" height="1.22"/><rect class="cls-3" x="97.48" y="40.76" width="1.22" height="1.22"/><rect class="cls-3" x="96.06" y="46.43" width="1.22" height="1.22"/><rect class="cls-3" x="96.06" y="42.18" width="1.22" height="1.22"/><rect class="cls-3" x="98.9" y="46.43" width="1.22" height="1.22"/><rect class="cls-3" x="94.64" y="43.6" width="1.22" height="1.22"/><rect class="cls-3" x="94.64" y="46.43" width="1.22" height="1.22"/><rect class="cls-3" x="93.22" y="46.43" width="1.22" height="1.22"/><rect class="cls-3" x="93.22" y="45.01" width="1.22" height="1.22"/><rect class="cls-3" x="98.9" y="57.78" width="1.22" height="1.22"/><rect class="cls-3" x="98.9" y="59.2" width="1.22" height="1.22"/><rect class="cls-3" x="98.9" y="56.37" width="1.22" height="1.22"/><rect class="cls-3" x="98.9" y="52.11" width="1.22" height="1.22"/><rect class="cls-3" x="94.64" y="54.95" width="1.22" height="1.22"/><rect class="cls-3" x="94.64" y="60.62" width="1.22" height="1.22"/><rect class="cls-3" x="94.64" y="52.11" width="1.22" height="1.22"/><rect class="cls-3" x="93.22" y="54.95" width="1.22" height="1.22"/><rect class="cls-3" x="93.22" y="59.2" width="1.22" height="1.22"/><rect class="cls-3" x="93.22" y="53.53" width="1.22" height="1.22"/><rect class="cls-3" x="93.22" y="52.11" width="1.22" height="1.22"/><rect class="cls-3" x="97.48" y="54.95" width="1.22" height="1.22"/><rect class="cls-3" x="97.48" y="60.62" width="1.22" height="1.22"/><rect class="cls-3" x="97.48" y="52.11" width="1.22" height="1.22"/><rect class="cls-3" x="96.06" y="54.95" width="1.22" height="1.22"/><rect class="cls-3" x="96.06" y="60.62" width="1.22" height="1.22"/><rect class="cls-3" x="96.06" y="52.11" width="1.22" height="1.22"/><rect class="cls-3" x="94.64" y="64.88" width="1.22" height="1.22"/><rect class="cls-3" x="94.64" y="67.72" width="1.22" height="1.22"/><rect class="cls-3" x="94.64" y="71.97" width="1.22" height="1.22"/><rect class="cls-3" x="93.22" y="67.72" width="1.22" height="1.22"/><rect class="cls-3" x="93.22" y="69.14" width="1.22" height="1.22"/><rect class="cls-3" x="93.22" y="70.55" width="1.22" height="1.22"/><rect class="cls-3" x="93.22" y="66.3" width="1.22" height="1.22"/><rect class="cls-3" x="97.48" y="67.72" width="1.22" height="1.22"/><rect class="cls-3" x="97.48" y="71.97" width="1.22" height="1.22"/><rect class="cls-3" x="97.48" y="63.46" width="1.22" height="1.22"/><rect class="cls-3" x="96.06" y="67.72" width="1.22" height="1.22"/><rect class="cls-3" x="96.06" y="71.97" width="1.22" height="1.22"/><rect class="cls-3" x="96.06" y="63.46" width="1.22" height="1.22"/><rect class="cls-3" x="98.9" y="70.55" width="1.22" height="1.22"/><rect class="cls-3" x="98.9" y="69.14" width="1.22" height="1.22"/><rect class="cls-3" x="94.64" y="80.49" width="1.22" height="1.22"/><rect class="cls-3" x="94.64" y="81.91" width="1.22" height="1.22"/><rect class="cls-3" x="94.64" y="83.32" width="1.22" height="1.22"/><rect class="cls-3" x="94.64" y="74.81" width="1.22" height="1.22"/><rect class="cls-3" x="93.22" y="74.81" width="1.22" height="1.22"/><rect class="cls-3" x="97.48" y="77.65" width="1.22" height="1.22"/><rect class="cls-3" x="97.48" y="74.81" width="1.22" height="1.22"/><rect class="cls-3" x="96.06" y="79.07" width="1.22" height="1.22"/><rect class="cls-3" x="96.06" y="74.81" width="1.22" height="1.22"/><rect class="cls-3" x="98.9" y="76.23" width="1.22" height="1.22"/><rect class="cls-3" x="98.9" y="74.81" width="1.22" height="1.22"/><rect class="cls-3" x="97.48" y="94.68" width="1.22" height="1.22"/><rect class="cls-3" x="97.48" y="90.42" width="1.22" height="1.22"/><rect class="cls-3" x="97.48" y="86.16" width="1.22" height="1.22"/><rect class="cls-3" x="96.06" y="90.42" width="1.22" height="1.22"/><rect class="cls-3" x="96.06" y="94.68" width="1.22" height="1.22"/><rect class="cls-3" x="96.06" y="86.16" width="1.22" height="1.22"/><rect class="cls-3" x="98.9" y="89" width="1.22" height="1.22"/><rect class="cls-3" x="98.9" y="91.84" width="1.22" height="1.22"/><rect class="cls-3" x="98.9" y="93.26" width="1.22" height="1.22"/><rect class="cls-3" x="98.9" y="87.58" width="1.22" height="1.22"/><rect class="cls-3" x="94.64" y="90.42" width="1.22" height="1.22"/><rect class="cls-3" x="94.64" y="94.68" width="1.22" height="1.22"/><rect class="cls-3" x="94.64" y="86.16" width="1.22" height="1.22"/><rect class="cls-3" x="93.22" y="87.58" width="1.22" height="1.22"/><rect class="cls-3" x="93.22" y="89" width="1.22" height="1.22"/><rect class="cls-3" x="93.22" y="93.26" width="1.22" height="1.22"/><rect class="cls-3" x="93.22" y="91.84" width="1.22" height="1.22"/><line class="cls-4" x1="196.16" y1="11.57" x2="216" y2="11.57"/><line class="cls-4" x1="10.11" y1="126.93" x2="10.11" y2="107.08"/><line class="cls-4" x1="96.67" y1="126.93" x2="96.67" y2="107.08"/><line class="cls-4" x1="184.64" y1="126.93" x2="184.64" y2="107.08"/><text class="cls-5" transform="translate(219.26 15.61)">line number</text><text class="cls-5" transform="translate(0 141.32)">l<tspan class="cls-6" x="3.33" y="0">e</tspan><tspan class="cls-7" x="10.93" y="0">f</tspan><tspan x="15.33" y="0">t</tspan></text><text class="cls-5" transform="translate(74.97 141.32)">middle</text><text class="cls-5" transform="translate(169.67 141.32)">right</text><rect class="cls-8" width="595.28" height="18"/></g></g></svg>