<svg xmlns="http://www.w3.org/2000/svg" viewBox="0 0 595.28 60.69"><defs><style>.cls-1{fill:#b056a1;}.cls-2{fill:#ededee;}.cls-3{font-size:36px;fill:#231f20;font-family:Mulish-Bold, Mulish;font-weight:700;}.cls-4{fill:#4e4e4e;}.cls-5{fill:#3c3c3b;}.cls-6{fill:#818181;}.cls-7{fill:#616262;}.cls-8{fill:#ccc;}.cls-9{fill:#aeaeae;}</style></defs><g id="Layer_2" data-name="Layer 2"><g id="Layer_1-2" data-name="Layer 1"><rect class="cls-1" y="4" width="595.28" height="56.69" rx="11.34"/><rect class="cls-2" width="595.28" height="56.69" rx="11.34"/><text class="cls-3" transform="translate(82.46 38.84)">Display</text><path class="cls-4" d="M62.5,11.25H22.35a1.18,1.18,0,0,0-1.18,1.18V34.19l20.88,3,21.64-3V12.43A1.19,1.19,0,0,0,62.5,11.25Z"/><path class="cls-5" d="M62.5,11.25H47.24l-16.31,27H62.5A1.2,1.2,0,0,0,63.69,37V12.43A1.19,1.19,0,0,0,62.5,11.25Z"/><polygon class="cls-6" points="46.21 37.63 47.1 44.99 37.75 44.99 38.64 37.63 46.21 37.63"/><polygon class="cls-7" points="46.8 42.51 46.21 37.63 38.64 37.63 38.05 42.51 46.8 42.51"/><path class="cls-8" d="M33.36,34.19H21.17V37a1.19,1.19,0,0,0,1.18,1.19H62.5A1.2,1.2,0,0,0,63.69,37V34.19Z"/><path class="cls-9" d="M33.36,34.19l-2.43,4H62.5A1.2,1.2,0,0,0,63.69,37V34.19Z"/><path class="cls-8" d="M50.42,45.45h-16a.63.63,0,0,1,0-1.25h16a.63.63,0,1,1,0,1.25Z"/></g></g></svg>