<svg xmlns="http://www.w3.org/2000/svg" viewBox="0 0 595.28 149.89"><defs><style>.cls-1,.cls-2,.cls-6{fill:none;}.cls-2{stroke:#81c1ab;}.cls-10,.cls-3{isolation:isolate;font-size:15px;font-family:Mulish-Regular, Mulish;}.cls-13,.cls-3,.cls-9{fill:#fff;}.cls-4{fill:#8e4582;}.cls-5{fill:#b056a1;}.cls-6{stroke:#c788bb;}.cls-7{fill:#3c866d;}.cls-8{fill:#4ba587;}.cls-9{fill-opacity:0.6;}.cls-10,.cls-14{fill:#010101;}.cls-11{letter-spacing:0em;}.cls-12{letter-spacing:-0.02em;}.cls-15{fill:#dab4d4;}</style></defs><g id="Layer_2" data-name="Layer 2"><g id="Layer_1-2" data-name="Layer 1"><rect class="cls-1" y="0.5" width="595.28" height="18"/><path class="cls-2" d="M116.55,6.5h97.57m-97.57,24v-6m-7.36-.5a20.35,20.35,0,0,1,0-11m7.36,1V6.5h.5"/><text class="cls-3" transform="translate(10 22.5)">Display write</text><path class="cls-4" d="M1,9A8,8,0,0,1,9,1h7l6,4h3l6-4H390.78V37H30.5l-6,4h-3l-6-4H9a8,8,0,0,1-8-8ZM216.62,6H116.05v5c0,10-8-8-8,7.5s8-2.5,8,7.5v7H216.62Z"/><path class="cls-5" d="M0,9.23a8,8,0,0,1,8-8h7l6,4h3l6-4H389.78v36H29.5l-6,4h-3l-6-4H8a8,8,0,0,1-8-8Zm215.62-3H115.05v5c0,10-8-8-8,7.5s8-2.5,8,7.5v7H215.62Z"/><path class="cls-6" d="M.5,7.5A7.5,7.5,0,0,1,8,.5h7l6,4h3l6-4h9.5m0,0H389.28M2.7,33.3A7.47,7.47,0,0,1,.5,28V8M216.12,5.5v27H115.55M110,24.3l3.68-2.1"/><path class="cls-7" d="M117.05,7h98.57V32H117.05V27c0-10-8,8-8-7.5s8,2.5,8-7.5Z"/><path class="cls-8" d="M116.05,6h98.57V31H116.05V26c0-10-8,8-8-7.5s8,2.5,8-7.5Z"/><rect class="cls-9" x="143.05" y="11" width="44.57" height="16" rx="4"/><text class="cls-10" transform="translate(148.05 23.5)">Hello</text><text class="cls-3" transform="translate(225.62 22.5)">line</text><rect class="cls-9" x="254.15" y="10" width="35.27" height="16" rx="4"/><text class="cls-10" transform="translate(259.15 22.5)">1</text><text class="cls-3" transform="translate(294.42 22.5)">align</text><rect class="cls-9" x="332.63" y="10" width="52.15" height="16" rx="4"/><text class="cls-10" transform="translate(337.63 22.5)">l<tspan class="cls-11" x="3.57" y="0">e</tspan><tspan class="cls-12" x="11.71" y="0">f</tspan><tspan x="16.42" y="0">t</tspan></text><path class="cls-13" d="M193.77,22.68l-2-1.56a9,9,0,0,0,1.87-2.75,7.17,7.17,0,0,0,.46-2.54l1.25.83h-3.79V11.32h5.34v3.79a10.77,10.77,0,0,1-.7,3.94A11,11,0,0,1,193.77,22.68Zm8.71,0-2-1.56a9,9,0,0,0,1.87-2.75,7.17,7.17,0,0,0,.46-2.54l1.25.83H200.3V11.32h5.34v3.79a10.77,10.77,0,0,1-.7,3.94A11.12,11.12,0,0,1,202.48,22.68Z"/><polygon class="cls-14" points="375.81 22.31 380.78 13.69 370.83 13.69 375.81 22.31"/><polygon class="cls-14" points="280.44 22.31 285.42 13.69 275.46 13.69 280.44 22.31"/><rect class="cls-15" x="253.76" y="42.92" width="35.27" height="106.09" rx="5.67"/><text class="cls-10" transform="translate(258.17 55.79)">1<tspan x="0" y="18">2</tspan><tspan x="0" y="36">.</tspan><tspan x="0" y="54">.</tspan><tspan x="0" y="72">7</tspan><tspan x="0" y="90">8</tspan></text><polygon class="cls-14" points="280.44 55.6 285.42 46.98 275.46 46.98 280.44 55.6"/><rect class="cls-15" x="332.63" y="42.92" width="63.41" height="53.79" rx="5.67"/><text class="cls-10" transform="translate(337.04 55.79)">l<tspan class="cls-11" x="3.57" y="0">e</tspan><tspan class="cls-12" x="11.71" y="0">f</tspan><tspan x="16.42" y="0">t</tspan><tspan x="0" y="18">middle</tspan><tspan x="0" y="36">right</tspan></text><polygon class="cls-14" points="385.81 55.6 390.78 46.98 380.83 46.98 385.81 55.6"/><text class="cls-3" transform="translate(10 22.5)">display write</text><path class="cls-13" d="M128.19,11.32l2,1.56a8,8,0,0,0-1.87,2.72,7.42,7.42,0,0,0-.46,2.57l-1.25-.88h3.79v5.39H125V18.89a11,11,0,0,1,.7-4A10.29,10.29,0,0,1,128.19,11.32Zm8.71,0,2,1.56A8,8,0,0,0,137,15.6a7.43,7.43,0,0,0-.47,2.57l-1.24-.88h3.78v5.39h-5.34V18.89a11.18,11.18,0,0,1,.7-4A10.46,10.46,0,0,1,136.9,11.32Z"/></g></g></svg>