<svg xmlns="http://www.w3.org/2000/svg" viewBox="0 0 595.28 145.59"><defs><style>.cls-1,.cls-11{fill:none;}.cls-1{stroke:#ff5100;stroke-linecap:round;stroke-miterlimit:10;}.cls-2{fill:#ff5100;}.cls-3{font-size:14px;fill:#231f20;font-family:Mulish-Regular, Mulish;}.cls-4{letter-spacing:0em;}.cls-5{letter-spacing:0em;}.cls-6{letter-spacing:-0.01em;}.cls-7{letter-spacing:0em;}.cls-8{letter-spacing:-0.01em;}.cls-9{letter-spacing:0em;}.cls-10{letter-spacing:-0.01em;}</style></defs><g id="Layer_2" data-name="Layer 2"><g id="Layer_1-2" data-name="Layer 1"><rect x="91.42" y="68.74" width="7.09" height="7.09"/><rect x="83.15" y="68.74" width="7.09" height="7.09"/><rect x="99.69" y="43.94" width="7.09" height="7.09"/><rect x="99.69" y="52.21" width="7.09" height="7.09"/><rect x="99.69" y="85.28" width="7.09" height="7.09"/><rect x="99.69" y="77.01" width="7.09" height="7.09"/><rect x="99.69" y="68.74" width="7.09" height="7.09"/><rect x="99.69" y="60.47" width="7.09" height="7.09"/><rect x="99.69" y="93.55" width="7.09" height="7.09"/><rect x="74.88" y="68.74" width="7.09" height="7.09"/><rect x="66.62" y="43.94" width="7.09" height="7.09"/><rect x="66.62" y="68.74" width="7.09" height="7.09"/><rect x="66.62" y="60.47" width="7.09" height="7.09"/><rect x="66.62" y="77.01" width="7.09" height="7.09"/><rect x="66.62" y="93.55" width="7.09" height="7.09"/><rect x="66.62" y="85.28" width="7.09" height="7.09"/><rect x="66.62" y="52.21" width="7.09" height="7.09"/><rect x="124.49" y="93.54" width="7.09" height="7.09"/><rect x="141.03" y="93.54" width="7.09" height="7.09"/><rect x="149.29" y="77.01" width="7.09" height="7.09"/><rect x="149.29" y="68.74" width="7.09" height="7.09"/><rect x="124.49" y="60.47" width="7.09" height="7.09"/><rect x="124.49" y="77.01" width="7.09" height="7.09"/><rect x="116.22" y="68.74" width="7.09" height="7.09"/><rect x="116.22" y="85.28" width="7.09" height="7.09"/><rect x="116.22" y="77.01" width="7.09" height="7.09"/><rect x="141.03" y="77.01" width="7.09" height="7.09"/><rect x="141.03" y="60.47" width="7.09" height="7.09"/><rect x="132.76" y="77.01" width="7.09" height="7.09"/><rect x="132.76" y="60.47" width="7.09" height="7.09"/><rect x="132.76" y="93.54" width="7.09" height="7.09"/><rect x="182.37" y="93.54" width="7.09" height="7.09"/><rect x="174.1" y="43.94" width="7.09" height="7.09"/><rect x="174.1" y="52.21" width="7.09" height="7.09"/><rect x="174.1" y="68.74" width="7.09" height="7.09"/><rect x="174.1" y="60.47" width="7.09" height="7.09"/><rect x="174.1" y="77.01" width="7.09" height="7.09"/><rect x="174.1" y="85.28" width="7.09" height="7.09"/><rect x="174.1" y="93.54" width="7.09" height="7.09"/><rect x="165.83" y="43.94" width="7.09" height="7.09"/><rect x="165.83" y="93.54" width="7.09" height="7.09"/><rect x="231.97" y="93.54" width="7.09" height="7.09"/><rect x="223.7" y="43.94" width="7.09" height="7.09"/><rect x="223.7" y="52.21" width="7.09" height="7.09"/><rect x="223.7" y="68.74" width="7.09" height="7.09"/><rect x="223.7" y="60.47" width="7.09" height="7.09"/><rect x="223.7" y="77.01" width="7.09" height="7.09"/><rect x="223.7" y="85.28" width="7.09" height="7.09"/><rect x="223.7" y="93.54" width="7.09" height="7.09"/><rect x="215.44" y="43.94" width="7.09" height="7.09"/><rect x="215.44" y="93.54" width="7.09" height="7.09"/><rect x="273.31" y="60.47" width="7.09" height="7.09"/><rect x="273.31" y="93.54" width="7.09" height="7.09"/><rect x="265.04" y="77.01" width="7.09" height="7.09"/><rect x="265.04" y="68.74" width="7.09" height="7.09"/><rect x="265.04" y="85.28" width="7.09" height="7.09"/><rect x="289.84" y="77.01" width="7.09" height="7.09"/><rect x="289.84" y="68.74" width="7.09" height="7.09"/><rect x="289.84" y="85.28" width="7.09" height="7.09"/><rect x="281.58" y="60.47" width="7.09" height="7.09"/><rect x="281.58" y="93.54" width="7.09" height="7.09"/><line class="cls-1" x1="304.45" y1="44.44" x2="304.45" y2="100.13"/><rect class="cls-2" x="301.2" y="43.94" width="6.5" height="1"/><rect class="cls-2" x="301.2" y="99.63" width="6.5" height="1"/><line class="cls-1" x1="106.27" y1="107.71" x2="67.12" y2="107.71"/><rect class="cls-2" x="105.77" y="104.46" width="1" height="6.5"/><rect class="cls-2" x="66.62" y="104.46" width="1" height="6.5"/><line class="cls-1" x1="115.6" y1="36.71" x2="107.22" y2="36.71"/><rect class="cls-2" x="115.1" y="33.46" width="1" height="6.5"/><rect class="cls-2" x="106.72" y="33.46" width="1" height="6.5"/><circle class="cls-2" cx="64.62" cy="41.94" r="2"/><text class="cls-3" transform="translate(66.51 124.97)">l<tspan class="cls-4" x="3.33" y="0">e</tspan><tspan class="cls-5" x="10.91" y="0">t</tspan><tspan x="15.85" y="0">ter width</tspan><tspan x="0" y="16.8">5 pi</tspan><tspan class="cls-6" x="23.79" y="16.8">x</tspan><tspan class="cls-7" x="31.14" y="16.8">els</tspan></text><text class="cls-3" transform="translate(310.2 67.97)">l<tspan class="cls-4" x="3.33" y="0">e</tspan><tspan class="cls-5" x="10.91" y="0">t</tspan><tspan x="15.85" y="0">ter height</tspan><tspan x="0" y="16.8">7 pi</tspan><tspan class="cls-6" x="23.79" y="16.8">x</tspan><tspan class="cls-7" x="31.14" y="16.8">els</tspan></text><text class="cls-3" transform="translate(106.35 11.98)">l<tspan class="cls-4" x="3.33" y="0">e</tspan><tspan class="cls-5" x="10.91" y="0">t</tspan><tspan x="15.85" y="0">ter spacing</tspan><tspan x="0" y="16.8">1 pi</tspan><tspan class="cls-6" x="23.79" y="16.8">x</tspan><tspan class="cls-7" x="31.14" y="16.8">el</tspan></text><text class="cls-3" transform="translate(0 23.32)"><tspan class="cls-8">r</tspan><tspan class="cls-9" x="4.93" y="0">e</tspan><tspan class="cls-10" x="12.53" y="0">f</tspan><tspan x="17.18" y="0">e</tspan><tspan class="cls-8" x="24.79" y="0">r</tspan><tspan x="29.72" y="0">ence</tspan><tspan x="8.96" y="16.8">position</tspan></text><rect class="cls-11" width="595.28" height="18"/></g></g></svg>