<svg xmlns="http://www.w3.org/2000/svg" viewBox="0 0 595.28 66.66"><defs><style>.cls-1,.cls-4,.cls-7{fill:none;}.cls-2{fill:#8e4582;}.cls-3{fill:#b056a1;}.cls-4{stroke:#c788bb;}.cls-5{fill:#483d86;}.cls-6{fill:#5c4da0;}.cls-7{stroke:#8d82bd;}.cls-10,.cls-8{fill:#fff;}.cls-8{fill-opacity:0.6;}.cls-10,.cls-9{isolation:isolate;font-size:15px;font-family:Mulish-Regular, Mulish;}.cls-12,.cls-9{fill:#010101;}.cls-11{letter-spacing:-0.01em;}.cls-13{fill:#afa7d1;}.cls-14{letter-spacing:-0.04em;}.cls-15{letter-spacing:-0.02em;}</style></defs><g id="Layer_2" data-name="Layer 2"><g id="Layer_1-2" data-name="Layer 1"><rect class="cls-1" width="595.28" height="18"/><path class="cls-2" d="M1,9A8,8,0,0,1,9,1h7l6,4h3l6-4h95.43V6c0,10-8-8-8,7.5s8-2.5,8,7.5v5H30.5l-6,4h-3l-6-4H9a8,8,0,0,1-8-8Z"/><path class="cls-3" d="M0,8A8,8,0,0,1,8,0h7l6,4h3l6-4h95.43V5c0,10-8-8-8,7.5s8-2.5,8,7.5v5H29.5l-6,4h-3l-6-4H8a8,8,0,0,1-8-8Z"/><path class="cls-4" d="M.5,7.5A7.5,7.5,0,0,1,8,.5h7l6,4h3l6-4h94.93m-4.5,18.8,3.68-2.1M2.7,22.3A7.47,7.47,0,0,1,.5,17V8"/><path class="cls-5" d="M127.43,1h73.44V26H127.43V21c0-10-8,8-8-7.5s8,2.5,8-7.5Z"/><path class="cls-6" d="M126.43,0h73.44V25H126.43V20c0-10-8,8-8-7.5s8,2.5,8-7.5Z"/><path class="cls-7" d="M126.93.5h72.44m-72.44,24v-6m-7.36-.5a20.35,20.35,0,0,1,0-11m7.36,1V.5h.5"/><rect class="cls-8" x="131.43" y="5" width="63.43" height="16" rx="4"/><text class="cls-9" transform="translate(136.43 17.5)">HIGH</text><text class="cls-10" transform="translate(10 17.5)">display p<tspan class="cls-11" x="62.46" y="0">ow</tspan><tspan x="83.89" y="0">er</tspan></text><polygon class="cls-12" points="185.89 17.31 190.87 8.69 180.91 8.69 185.89 17.31"/><rect class="cls-13" x="131.43" y="31.69" width="63.37" height="33.74" rx="5.67"/><text class="cls-9" transform="translate(135.84 44.56)">HIGH<tspan class="cls-14" x="0" y="18">L</tspan><tspan class="cls-15" x="7.62" y="18">O</tspan><tspan x="18.94" y="18">W</tspan></text><polygon class="cls-12" points="185.89 44.38 190.87 35.75 180.91 35.75 185.89 44.38"/></g></g></svg>