<svg xmlns="http://www.w3.org/2000/svg" viewBox="0 0 595.28 41"><defs><style>.cls-1,.cls-12,.cls-4,.cls-7{fill:none;}.cls-2{fill:#8e4582;}.cls-3{fill:#b056a1;}.cls-4{stroke:#c788bb;}.cls-5{fill:#3c866d;}.cls-6{fill:#4ba587;}.cls-7{stroke:#81c1ab;}.cls-13,.cls-14,.cls-8{fill:#fff;}.cls-8{fill-opacity:0.6;}.cls-13,.cls-9{isolation:isolate;font-size:15px;font-family:Mulish-Regular, Mulish;}.cls-9{fill:#010101;}.cls-10{fill:#3d4986;}.cls-11{fill:#4c5ba6;}.cls-12{stroke:#818dc1;}</style></defs><g id="Layer_2" data-name="Layer 2"><g id="Layer_1-2" data-name="Layer 1"><rect class="cls-1" width="595.28" height="18"/><path class="cls-2" d="M1,9A8,8,0,0,1,9,1h7l6,4h3l6-4H358.68V37H30.5l-6,4h-3l-6-4H9a8,8,0,0,1-8-8ZM216.62,6H116.05v5c0,10-8-8-8,7.5s8-2.5,8,7.5v7H216.62ZM283,6h-30.8v5c0,10-8-8-8,7.5s8-2.5,8,7.5v7H283Zm65.7,0h-30.8v5c0,10-8-8-8,7.5s8-2.5,8,7.5v7h30.8Z"/><path class="cls-3" d="M0,8A8,8,0,0,1,8,0h7l6,4h3l6-4H357.68V36H29.5l-6,4h-3l-6-4H8a8,8,0,0,1-8-8ZM215.62,5H115.05v5c0,10-8-8-8,7.5s8-2.5,8,7.5v7H215.62ZM282,5h-30.8v5c0,10-8-8-8,7.5s8-2.5,8,7.5v7H282Zm65.7,0h-30.8v5c0,10-8-8-8,7.5s8-2.5,8,7.5v7h30.8Z"/><path class="cls-4" d="M.5,7.5A7.5,7.5,0,0,1,8,.5h7l6,4h3l6-4h9.5m0,0H357.18M2.7,33.3A7.47,7.47,0,0,1,.5,28V8M216.12,5.5v27H115.55M110,24.3l3.68-2.1M282.48,5.5v27h-30.8m-5.6-8.2,3.68-2.1M348.18,5.5v27h-30.8m-5.6-8.2,3.68-2.1"/><path class="cls-5" d="M117.05,7h98.57V32H117.05V27c0-10-8,8-8-7.5s8,2.5,8-7.5Z"/><path class="cls-6" d="M116.05,6h98.57V31H116.05V26c0-10-8,8-8-7.5s8,2.5,8-7.5Z"/><path class="cls-7" d="M116.55,6.5h97.57m-97.57,24v-6m-7.36-.5a20.35,20.35,0,0,1,0-11m7.36,1V6.5h.5"/><rect class="cls-8" x="143.05" y="11" width="44.57" height="16" rx="4"/><text class="cls-9" transform="translate(148.05 23.5)">Hello</text><path class="cls-10" d="M253.18,7H282V32h-28.8V27c0-10-8,8-8-7.5s8,2.5,8-7.5Z"/><path class="cls-11" d="M252.18,6H281V31h-28.8V26c0-10-8,8-8-7.5s8,2.5,8-7.5Z"/><path class="cls-12" d="M252.68,6.5h27.8m-27.8,24v-6m-7.36-.5a20.35,20.35,0,0,1,0-11m7.36,1V6.5h.5"/><rect class="cls-8" x="257.18" y="11" width="18.8" height="16" rx="4"/><text class="cls-9" transform="translate(262.18 23.5)">0</text><path class="cls-10" d="M318.88,7h28.8V32h-28.8V27c0-10-8,8-8-7.5s8,2.5,8-7.5Z"/><path class="cls-11" d="M317.88,6h28.8V31h-28.8V26c0-10-8,8-8-7.5s8,2.5,8-7.5Z"/><path class="cls-12" d="M318.38,6.5h27.8m-27.8,24v-6M311,24a20.35,20.35,0,0,1,0-11m7.36,1V6.5h.5"/><rect class="cls-8" x="322.88" y="11" width="18.8" height="16" rx="4"/><text class="cls-9" transform="translate(327.88 23.5)">0</text><text class="cls-13" transform="translate(10 22.5)">display write</text><text class="cls-13" transform="translate(225.62 22.5)">X</text><text class="cls-13" transform="translate(291.98 22.5)">Y</text><path class="cls-14" d="M128.19,11.32l2,1.56a8,8,0,0,0-1.87,2.72,7.42,7.42,0,0,0-.46,2.57l-1.25-.88h3.79v5.39H125V18.89a11,11,0,0,1,.7-4A10.29,10.29,0,0,1,128.19,11.32Zm8.71,0,2,1.56A8,8,0,0,0,137,15.6a7.43,7.43,0,0,0-.47,2.57l-1.24-.88h3.78v5.39h-5.34V18.89a11.18,11.18,0,0,1,.7-4A10.46,10.46,0,0,1,136.9,11.32Z"/><path class="cls-14" d="M193.77,22.68l-2-1.56a9,9,0,0,0,1.87-2.75,7.17,7.17,0,0,0,.46-2.54l1.25.83h-3.79V11.32h5.34v3.79a10.77,10.77,0,0,1-.7,3.94A11,11,0,0,1,193.77,22.68Zm8.71,0-2-1.56a9,9,0,0,0,1.87-2.75,7.17,7.17,0,0,0,.46-2.54l1.25.83H200.3V11.32h5.34v3.79a10.77,10.77,0,0,1-.7,3.94A11.12,11.12,0,0,1,202.48,22.68Z"/></g></g></svg>