<svg xmlns="http://www.w3.org/2000/svg" viewBox="0 0 595.28 66.66"><defs><style>.cls-1,.cls-4,.cls-7{fill:none;}.cls-2{fill:#8e4582;}.cls-3{fill:#b056a1;}.cls-4{stroke:#c788bb;}.cls-5{fill:#483d86;}.cls-6{fill:#5c4da0;}.cls-7{stroke:#8d82bd;}.cls-10,.cls-8{fill:#fff;}.cls-8{fill-opacity:0.6;}.cls-10,.cls-9{isolation:isolate;font-size:15px;font-family:Mulish-Regular, Mulish;}.cls-11,.cls-9{fill:#010101;}.cls-12{fill:#afa7d1;}.cls-13{letter-spacing:-0.04em;}.cls-14{letter-spacing:-0.02em;}</style></defs><g id="Layer_2" data-name="Layer 2"><g id="Layer_1-2" data-name="Layer 1"><rect class="cls-1" width="595.28" height="18"/><path class="cls-2" d="M1,9A8,8,0,0,1,9,1h7l6,4h3l6-4H154.67V6c0,10-8-8-8,7.5s8-2.5,8,7.5v5H30.5l-6,4h-3l-6-4H9a8,8,0,0,1-8-8Z"/><path class="cls-3" d="M0,8A8,8,0,0,1,8,0h7l6,4h3l6-4H153.67V5c0,10-8-8-8,7.5s8-2.5,8,7.5v5H29.5l-6,4h-3l-6-4H8a8,8,0,0,1-8-8Z"/><path class="cls-4" d="M.5,7.5A7.5,7.5,0,0,1,8,.5h7l6,4h3l6-4H153.17m-4.5,18.8,3.68-2.1M2.7,22.3A7.47,7.47,0,0,1,.5,17V8"/><path class="cls-5" d="M155.67,1H229.1V26H155.67V21c0-10-8,8-8-7.5s8,2.5,8-7.5Z"/><path class="cls-6" d="M154.67,0H228.1V25H154.67V20c0-10-8,8-8-7.5s8,2.5,8-7.5Z"/><path class="cls-7" d="M155.17.5H227.6m-72.43,24v-6m-7.36-.5a20.15,20.15,0,0,1,0-11m7.36,1V.5h.5"/><rect class="cls-8" x="159.67" y="5" width="63.43" height="16" rx="4"/><text class="cls-9" transform="translate(164.67 17.5)">HIGH</text><text class="cls-10" transform="translate(10 17.5)">display brightness</text><polygon class="cls-11" points="214.12 17.31 219.1 8.69 209.14 8.69 214.12 17.31"/><rect class="cls-12" x="159.67" y="31.69" width="63.37" height="33.74" rx="5.67"/><text class="cls-9" transform="translate(164.07 44.56)">HIGH<tspan class="cls-13" x="0" y="18">L</tspan><tspan class="cls-14" x="7.62" y="18">O</tspan><tspan x="18.94" y="18">W</tspan></text><polygon class="cls-11" points="214.12 44.38 219.1 35.75 209.14 35.75 214.12 44.38"/></g></g></svg>