<svg xmlns="http://www.w3.org/2000/svg" viewBox="0 0 595.28 182.5"><defs><style>.cls-1,.cls-10,.cls-11,.cls-3,.cls-6,.cls-7,.cls-8,.cls-9{fill:none;}.cls-1{stroke:#fff;stroke-width:2px;}.cls-1,.cls-10,.cls-3,.cls-6,.cls-7,.cls-8,.cls-9{stroke-miterlimit:10;}.cls-2{fill:#fff;}.cls-3{stroke:#ff5100;}.cls-10,.cls-3,.cls-6,.cls-7,.cls-8,.cls-9{stroke-linecap:round;}.cls-4{fill:#ff5100;}.cls-5{fill:#231f20;}.cls-10,.cls-6,.cls-7,.cls-8,.cls-9{stroke:#a3a3a3;}.cls-7{stroke-dasharray:7.92 7.92;}.cls-8{stroke-dasharray:6.72 6.72;}.cls-9{stroke-dasharray:11.97 11.97;}.cls-10{stroke-dasharray:11.66 11.66;}</style></defs><g id="Layer_2" data-name="Layer 2"><g id="Layer_1-2" data-name="Layer 1"><rect x="55.97" y="40.77" width="283.46" height="141.73"/><line class="cls-1" x1="94.89" y1="77.79" x2="300.52" y2="145.49"/><path class="cls-2" d="M93.89,81.42A3.76,3.76,0,1,1,98.64,79,3.76,3.76,0,0,1,93.89,81.42Z"/><path class="cls-2" d="M299.17,149a3.76,3.76,0,1,0-2.4-4.74A3.76,3.76,0,0,0,299.17,149Z"/><line class="cls-3" x1="95.55" y1="35.08" x2="56.47" y2="35.08"/><rect class="cls-4" x="95.05" y="31.83" width="1" height="6.5"/><rect class="cls-4" x="55.97" y="31.83" width="1" height="6.5"/><path class="cls-5" d="M69.2,30.08H67.83L71.62,25l.68-.85,2.91-4h1.36L72.94,25l-.66.87Zm6.18,0-3.1-4.23L71.62,25,68,20.11h1.37l2.92,4,.64.86,3.79,5.1Z"/><path class="cls-5" d="M78.64,30.08v-1H84.2v1Zm2.2-.52V20.78l.66.34-2.71,1.72v-1.1l2.55-1.63H82v9.45Z"/><line class="cls-3" x1="300.55" y1="15.08" x2="56.47" y2="15.08"/><rect class="cls-4" x="300.05" y="11.83" width="1" height="6.5"/><rect class="cls-4" x="55.97" y="11.83" width="1" height="6.5"/><path class="cls-5" d="M171.59,10.08h-1.37L174,5l.67-.85,2.92-4H179L175.33,5l-.66.87Zm6.17,0-3.09-4.23L174,5,170.4.11h1.37l2.91,4,.65.86,3.79,5.1Z"/><path class="cls-5" d="M180.4,10.08V9.21l3.48-3.86a6.63,6.63,0,0,0,1-1.42,2.69,2.69,0,0,0,.33-1.26,1.61,1.61,0,0,0-.48-1.26A1.9,1.9,0,0,0,183.39,1a3.71,3.71,0,0,0-1.42.28,5.62,5.62,0,0,0-1.41.86l-.43-.88a4.33,4.33,0,0,1,1.48-.89A5,5,0,0,1,183.42,0,3.47,3.47,0,0,1,185,.32a2.33,2.33,0,0,1,1,.9,2.54,2.54,0,0,1,.37,1.4A3.63,3.63,0,0,1,186,4.26,7.42,7.42,0,0,1,184.72,6l-3.36,3.64-.08-.56h5.53v1Z"/><path class="cls-5" d="M30.14,63.94V59.46l.26.81L26.22,54h1.35l3.36,5.21h-.39L33.9,54h1.31l-4.16,6.3.24-.81v4.48Z"/><path class="cls-5" d="M36.77,63.94V63h5.55v1ZM39,63.42V54.64l.66.34-2.7,1.72V55.6L39.47,54h.66v9.45Z"/><line class="cls-3" x1="47.32" y1="41.27" x2="47.32" y2="76.64"/><rect class="cls-4" x="44.07" y="40.77" width="6.5" height="1"/><rect class="cls-4" x="44.07" y="76.14" width="6.5" height="1"/><path class="cls-5" d="M3.92,98.5V94l.25.81L0,88.53H1.34L4.7,93.74H4.31l3.36-5.21H9l-4.16,6.3L5.07,94V98.5Z"/><path class="cls-5" d="M9.91,98.5v-.87l3.49-3.87a7,7,0,0,0,1-1.41,2.8,2.8,0,0,0,.32-1.26,1.68,1.68,0,0,0-.47-1.27,2,2,0,0,0-1.36-.44,3.77,3.77,0,0,0-1.43.29,5.58,5.58,0,0,0-1.4.86l-.43-.88a4.25,4.25,0,0,1,1.48-.9,5.21,5.21,0,0,1,1.81-.33,3.64,3.64,0,0,1,1.57.31,2.38,2.38,0,0,1,1,.9A2.65,2.65,0,0,1,15.9,91a3.69,3.69,0,0,1-.38,1.65,8,8,0,0,1-1.28,1.77l-3.36,3.64-.09-.56h5.53v1Z"/><line class="cls-3" x1="21.32" y1="41.27" x2="21.32" y2="145.64"/><rect class="cls-4" x="18.07" y="40.77" width="6.5" height="1"/><rect class="cls-4" x="18.07" y="145.14" width="6.5" height="1"/><line class="cls-6" x1="53.85" y1="77.14" x2="59.85" y2="77.14"/><line class="cls-7" x1="67.78" y1="77.14" x2="79.66" y2="77.14"/><line class="cls-6" x1="83.62" y1="77.14" x2="89.62" y2="77.14"/><line class="cls-6" x1="96.05" y1="72.29" x2="96.05" y2="66.29"/><line class="cls-8" x1="96.05" y1="59.57" x2="96.05" y2="49.5"/><line class="cls-6" x1="96.05" y1="46.14" x2="96.05" y2="40.14"/><line class="cls-6" x1="26.74" y1="146.14" x2="32.74" y2="146.14"/><line class="cls-9" x1="44.71" y1="146.14" x2="278.22" y2="146.14"/><line class="cls-6" x1="284.21" y1="146.14" x2="290.21" y2="146.14"/><line class="cls-6" x1="301.05" y1="137.14" x2="301.05" y2="131.14"/><line class="cls-10" x1="301.05" y1="119.48" x2="301.05" y2="32.06"/><line class="cls-6" x1="301.05" y1="26.23" x2="301.05" y2="20.23"/><rect class="cls-11" width="595.28" height="18"/></g></g></svg>