<svg xmlns="http://www.w3.org/2000/svg" viewBox="0 0 595.28 60.69"><defs><style>.cls-1{fill:#5a55a5;}.cls-2{fill:#ededee;}.cls-3{font-size:36px;fill:#231f20;font-family:Mulish-Bold, Mulish;font-weight:700;}.cls-4{letter-spacing:-0.01em;}.cls-5{letter-spacing:0em;}.cls-6{fill:#303030;}.cls-7{fill:#f2c07d;}.cls-8{fill:#d7a970;}.cls-9{fill:#343586;}.cls-10{fill:#333;}</style></defs><g id="Layer_2" data-name="Layer 2"><g id="Layer_1-2" data-name="Layer 1"><rect class="cls-1" y="4" width="595.28" height="56.69" rx="11.34"/><rect class="cls-2" width="595.28" height="56.69" rx="11.34"/><text class="cls-3" transform="translate(82.46 38.84)">D<tspan class="cls-4" x="27.4" y="0">r</tspan><tspan class="cls-5" x="41.15" y="0">aw</tspan></text><path class="cls-6" d="M44.08,46.62a45.27,45.27,0,0,0,6.69,0,21.61,21.61,0,0,0,6.35-1.38,15.31,15.31,0,0,0,1.41-.69,9.86,9.86,0,0,0,1.3-.83,6.59,6.59,0,0,0,1.88-2.25,7.51,7.51,0,0,0,.75-3,4.88,4.88,0,0,0-.6-2.86c-1-1.64-3-2.43-4.72-2.93a34.83,34.83,0,0,0-6.42-1.06c-1.74-.16-3.48-.26-5.23-.35l-2.31-.11c-.61,0-1.23,0-1.84,0-1.11,0-2.21-.07-3.32-.14a63.33,63.33,0,0,1-6.6-.68,19.88,19.88,0,0,1-2.67-.61,16.31,16.31,0,0,1-2.94-1.27,9.06,9.06,0,0,1-4.19-4.26,6.21,6.21,0,0,1-.4-3.1,5,5,0,0,1,1.22-2.65,8.27,8.27,0,0,1,3.23-2.09A20,20,0,0,1,31.93,15a30.12,30.12,0,0,1,4,.05c1.82.16,3.63.37,5.45.58,2.21.26,4.43.55,6.66.74,1.1.1,2.2.25,3.3.36s2.21.21,3.32.26A30.28,30.28,0,0,0,58,17a11,11,0,0,0,3.15-.61,4.21,4.21,0,0,0,2.15-1.63,4.45,4.45,0,0,1-2.32,2,11.82,11.82,0,0,1-3.19.83,38.65,38.65,0,0,1-6.8.24l-1.71-.07c-.57,0-1.14-.1-1.7-.16l-1.29-.14-5.37-.62c-1.74-.21-3.49-.43-5.25-.55a27.56,27.56,0,0,0-4.89.06,19.35,19.35,0,0,0-3.28.62,12.6,12.6,0,0,0-2.37.91,5,5,0,0,0-2.5,2.48,4.65,4.65,0,0,0,0,3.06,6,6,0,0,0,1.61,2.39,10.77,10.77,0,0,0,2.49,1.73,15.51,15.51,0,0,0,3,1.19c.39.1.8.17,1.2.25.56.11,1.12.2,1.69.28,1.13.16,2.26.27,3.4.37,2.15.18,4.32.27,6.48.3.74,0,1.48.05,2.21.09,1.53.08,3.06.15,4.59.27a46.62,46.62,0,0,1,6.77.88,18.17,18.17,0,0,1,3.1.93,8.87,8.87,0,0,1,2.69,1.65,5.58,5.58,0,0,1,1.58,2.59,7.93,7.93,0,0,1,.07,3.36,8.2,8.2,0,0,1-1.11,2.94,8.52,8.52,0,0,1-2.14,2.26A13.07,13.07,0,0,1,54.23,47a30.76,30.76,0,0,1-6.85.06C46.28,46.94,45.18,46.8,44.08,46.62Z"/><path class="cls-7" d="M41.51,46.23a14.14,14.14,0,0,1-8-6.18v0h0L37,38.49l5.33-2.35A14,14,0,0,1,41.51,46.23Z"/><path class="cls-1" d="M39,40.61a8.86,8.86,0,0,1-.94.34l-.2.07c-1.86.51-3.57.24-4.24-.72h0A1.17,1.17,0,0,1,33.5,40h0L22.27,14.62l3.5-1.54,5.33-2.36L42.33,36.14C42.94,37.53,41.46,39.53,39,40.61Z"/><path class="cls-8" d="M41.51,46.23a14.14,14.14,0,0,1-8-6.18v0h0L37,38.49,37.64,40C37.79,40.3,39.89,45.14,41.51,46.23Z"/><path class="cls-9" d="M38.09,41l-.2.07c-1.86.51-3.57.24-4.24-.72h0a2,2,0,0,1-.14-.25v0h0L22.27,14.62l3.5-1.54L37,38.49,37.64,40Z"/><ellipse class="cls-8" cx="26.69" cy="12.67" rx="4.82" ry="2.76" transform="translate(-2.84 11.86) rotate(-23.84)"/><path class="cls-10" d="M25.14,14.11a.76.76,0,0,1-.52-1.31,6.24,6.24,0,0,1,1.65-1.06,5.83,5.83,0,0,1,1.9-.5.75.75,0,0,1,.75.44.77.77,0,0,1-.17.86A6.24,6.24,0,0,1,27.1,13.6a5.83,5.83,0,0,1-1.9.5Z"/><path class="cls-10" d="M42.51,43.22a15.59,15.59,0,0,1-1,3h0A17.08,17.08,0,0,1,38.73,45a4.23,4.23,0,0,1,.89-1.14A2.84,2.84,0,0,1,42.51,43.22Z"/></g></g></svg>