<svg xmlns="http://www.w3.org/2000/svg" viewBox="0 0 595.28 41"><defs><style>.cls-1,.cls-4,.cls-7{fill:none;}.cls-2{fill:#474484;}.cls-3{fill:#5a55a5;}.cls-4{stroke:#8b87be;}.cls-5{fill:#3d4986;}.cls-6{fill:#4c5ba6;}.cls-7{stroke:#818dc1;}.cls-10,.cls-8{fill:#fff;}.cls-8{fill-opacity:0.6;}.cls-10,.cls-9{isolation:isolate;font-size:15px;font-family:Mulish-Regular, Mulish;}.cls-9{fill:#010101;}.cls-11{letter-spacing:-0.01em;}</style></defs><g id="Layer_2" data-name="Layer 2"><g id="Layer_1-2" data-name="Layer 1"><rect class="cls-1" width="595.28" height="18"/><path class="cls-2" d="M1,9A8,8,0,0,1,9,1h7l6,4h3l6-4H274.43V37H30.5l-6,4h-3l-6-4H9a8,8,0,0,1-8-8ZM189.93,6h-39.6v5c0,10-8-8-8,7.5s8-2.5,8,7.5v7h39.6Zm74.5,0h-39.6v5c0,10-8-8-8,7.5s8-2.5,8,7.5v7h39.6Z"/><path class="cls-3" d="M0,8A8,8,0,0,1,8,0h7l6,4h3l6-4H273.43V36H29.5l-6,4h-3l-6-4H8a8,8,0,0,1-8-8ZM188.93,5h-39.6v5c0,10-8-8-8,7.5s8-2.5,8,7.5v7h39.6Zm74.5,0h-39.6v5c0,10-8-8-8,7.5s8-2.5,8,7.5v7h39.6Z"/><path class="cls-4" d="M.5,7.5A7.5,7.5,0,0,1,8,.5h7l6,4h3l6-4h9.5m0,0H272.93M2.7,33.3A7.47,7.47,0,0,1,.5,28V8M189.43,5.5v27h-39.6m-5.6-8.2,3.68-2.1m116-16.7v27h-39.6m-5.6-8.2,3.68-2.1"/><path class="cls-5" d="M151.33,7h37.6V32h-37.6V27c0-10-8,8-8-7.5s8,2.5,8-7.5Z"/><path class="cls-6" d="M150.33,6h37.6V31h-37.6V26c0-10-8,8-8-7.5s8,2.5,8-7.5Z"/><path class="cls-7" d="M150.83,6.5h36.6m-36.6,24v-6m-7.36-.5a20.35,20.35,0,0,1,0-11m7.36,1V6.5h.5"/><rect class="cls-8" x="155.33" y="11" width="27.6" height="16" rx="4"/><text class="cls-9" transform="translate(160.33 23.5)">18</text><path class="cls-5" d="M225.83,7h37.6V32h-37.6V27c0-10-8,8-8-7.5s8,2.5,8-7.5Z"/><path class="cls-6" d="M224.83,6h37.6V31h-37.6V26c0-10-8,8-8-7.5s8,2.5,8-7.5Z"/><path class="cls-7" d="M225.33,6.5h36.6m-36.6,24v-6M218,24a20.35,20.35,0,0,1,0-11m7.36,1V6.5h.5"/><rect class="cls-8" x="229.83" y="11" width="27.6" height="16" rx="4"/><text class="cls-9" transform="translate(234.83 23.5)">56</text><text class="cls-10" transform="translate(10 22.5)">d<tspan class="cls-11" x="9" y="0">r</tspan><tspan x="14.28" y="0">aw USB icon</tspan></text><text class="cls-10" transform="translate(123.77 22.5)">X</text><text class="cls-10" transform="translate(198.93 22.5)">Y</text></g></g></svg>