<svg xmlns="http://www.w3.org/2000/svg" viewBox="0 0 595.28 45.35"><defs><style>.cls-1{fill:#231f20;}.cls-2{fill:none;}</style></defs><g id="Layer_2" data-name="Layer 2"><g id="Layer_1-2" data-name="Layer 1"><rect class="cls-1" x="19.84" y="33.07" width="5.67" height="5.67"/><rect class="cls-1" x="19.84" y="26.46" width="5.67" height="5.67"/><rect class="cls-1" x="19.84" y="13.23" width="5.67" height="5.67"/><rect class="cls-1" x="19.84" y="39.69" width="5.67" height="5.67"/><rect class="cls-1" x="19.84" y="19.84" width="5.67" height="5.67"/><rect class="cls-1" x="19.84" y="6.62" width="5.67" height="5.67"/><rect class="cls-1" x="13.23" y="26.46" width="5.67" height="5.67"/><rect class="cls-1" x="13.23" y="33.07" width="5.67" height="5.67"/><rect class="cls-1" x="13.23" y="19.84" width="5.67" height="5.67"/><rect class="cls-1" x="13.23" y="13.23" width="5.67" height="5.67"/><rect class="cls-1" x="13.23" y="6.62" width="5.67" height="5.67"/><rect class="cls-1" x="26.46" y="26.46" width="5.67" height="5.67"/><rect class="cls-1" x="26.46" y="19.84" width="5.67" height="5.67"/><rect class="cls-1" x="26.46" y="13.23" width="5.67" height="5.67"/><rect class="cls-1" x="26.46" y="33.07" width="5.67" height="5.67"/><rect class="cls-1" x="26.46" y="6.62" width="5.67" height="5.67"/><rect class="cls-1" x="6.61" y="13.23" width="5.67" height="5.67"/><rect class="cls-1" x="6.61" y="19.84" width="5.67" height="5.67"/><rect class="cls-1" x="6.61" y="26.46" width="5.67" height="5.67"/><rect class="cls-1" y="19.84" width="5.67" height="5.67"/><rect class="cls-1" x="66.14" y="6.62" width="5.67" height="5.67"/><rect class="cls-1" x="66.14" y="19.84" width="5.67" height="5.67"/><rect class="cls-1" x="66.14" y="33.07" width="5.67" height="5.67"/><rect class="cls-1" x="46.3" y="19.84" width="5.67" height="5.67"/><rect class="cls-1" x="39.68" y="19.84" width="5.67" height="5.67"/><rect class="cls-1" x="59.53" y="19.84" width="5.67" height="5.67"/><rect class="cls-1" x="59.53" y="26.46" width="5.67" height="5.67"/><rect class="cls-1" x="59.53" y="6.62" width="5.67" height="5.67"/><rect class="cls-1" x="52.91" y="19.84" width="5.67" height="5.67"/><rect class="cls-1" x="52.91" y="13.23" width="5.67" height="5.67"/><rect class="cls-1" x="85.98" y="19.84" width="5.67" height="5.67"/><rect class="cls-1" x="85.98" y="33.07" width="5.67" height="5.67"/><rect class="cls-1" x="85.98" y="39.69" width="5.67" height="5.67"/><rect class="cls-1" x="79.37" y="6.62" width="5.67" height="5.67"/><rect class="cls-1" x="79.37" y="19.84" width="5.67" height="5.67"/><rect class="cls-1" x="79.37" y="39.69" width="5.67" height="5.67"/><rect class="cls-1" x="79.37" y="33.07" width="5.67" height="5.67"/><rect class="cls-1" x="99.21" y="13.23" width="5.67" height="5.67"/><rect class="cls-1" x="99.21" y="26.46" width="5.67" height="5.67"/><rect class="cls-1" x="99.21" y="19.84" width="5.67" height="5.67"/><rect class="cls-1" x="92.6" y="19.84" width="5.67" height="5.67"/><rect class="cls-1" x="105.83" y="19.84" width="5.67" height="5.67"/><rect class="cls-1" x="72.76" y="19.84" width="5.67" height="5.67"/><rect class="cls-1" x="72.76" y="33.07" width="5.67" height="5.67"/><rect class="cls-1" x="72.76" y="6.62" width="5.67" height="5.67"/><rect class="cls-1" x="19.84" width="5.67" height="5.67"/><rect class="cls-1" x="79.37" width="5.67" height="5.67"/><rect class="cls-1" x="72.76" width="5.67" height="5.67"/><rect class="cls-1" x="33.07" y="26.46" width="5.67" height="5.67"/><rect class="cls-1" x="33.07" y="19.84" width="5.67" height="5.67"/><rect class="cls-1" x="33.07" y="13.23" width="5.67" height="5.67"/><rect class="cls-2" width="595.28" height="18"/></g></g></svg>