<svg xmlns="http://www.w3.org/2000/svg" viewBox="0 0 595.28 113.66"><defs><style>.cls-1,.cls-4,.cls-7{fill:none;}.cls-2{fill:#474484;}.cls-3{fill:#5a55a5;}.cls-4{stroke:#8b87be;}.cls-5{fill:#3d4986;}.cls-6{fill:#4c5ba6;}.cls-7{stroke:#818dc1;}.cls-10,.cls-8{fill:#fff;}.cls-8{fill-opacity:0.6;}.cls-10,.cls-9{isolation:isolate;font-size:15px;font-family:Mulish-Regular, Mulish;}.cls-16,.cls-9{fill:#010101;}.cls-11{letter-spacing:-0.01em;}.cls-12{letter-spacing:0em;}.cls-13{letter-spacing:0.03em;}.cls-14{letter-spacing:-0.01em;}.cls-15{letter-spacing:-0.01em;}.cls-17{fill:#afaad2;}</style></defs><g id="Layer_2" data-name="Layer 2"><g id="Layer_1-2" data-name="Layer 1"><rect class="cls-1" width="595.28" height="18"/><path class="cls-2" d="M1,9A8,8,0,0,1,9,1h7l6,4h3l6-4H395.7V37H30.5l-6,4h-3l-6-4H9a8,8,0,0,1-8-8ZM202.65,6h-30.8v5c0,10-8-8-8,7.5s8-2.5,8,7.5v7h30.8Zm74.5,0h-39.6v5c0,10-8-8-8,7.5s8-2.5,8,7.5v7h39.6Z"/><path class="cls-3" d="M0,8A8,8,0,0,1,8,0h7l6,4h3l6-4H394.7V36H29.5l-6,4h-3l-6-4H8a8,8,0,0,1-8-8ZM201.65,5h-30.8v5c0,10-8-8-8,7.5s8-2.5,8,7.5v7h30.8Zm74.5,0h-39.6v5c0,10-8-8-8,7.5s8-2.5,8,7.5v7h39.6Z"/><path class="cls-4" d="M.5,7.5A7.5,7.5,0,0,1,8,.5h7l6,4h3l6-4h9.5m0,0H394.2M2.7,33.3A7.47,7.47,0,0,1,.5,28V8M202.15,5.5v27h-30.8m-5.6-8.2,3.68-2.1M276.65,5.5v27h-39.6m-5.6-8.2,3.68-2.1"/><path class="cls-5" d="M172.85,7h28.8V32h-28.8V27c0-10-8,8-8-7.5s8,2.5,8-7.5Z"/><path class="cls-6" d="M171.85,6h28.8V31h-28.8V26c0-10-8,8-8-7.5s8,2.5,8-7.5Z"/><path class="cls-7" d="M172.35,6.5h27.8m-27.8,24v-6M165,24a20.35,20.35,0,0,1,0-11m7.36,1V6.5h.5"/><rect class="cls-8" x="176.85" y="11" width="18.8" height="16" rx="4"/><text class="cls-9" transform="translate(181.85 23.5)">0</text><path class="cls-5" d="M238.55,7h37.6V32h-37.6V27c0-10-8,8-8-7.5s8,2.5,8-7.5Z"/><path class="cls-6" d="M237.55,6h37.6V31h-37.6V26c0-10-8,8-8-7.5s8,2.5,8-7.5Z"/><path class="cls-7" d="M238.05,6.5h36.6m-36.6,24v-6m-7.36-.5a20.35,20.35,0,0,1,0-11m7.36,1V6.5h.5"/><rect class="cls-8" x="242.55" y="11" width="27.6" height="16" rx="4"/><text class="cls-9" transform="translate(247.55 23.5)">56</text><text class="cls-10" transform="translate(10 22.5)">d<tspan class="cls-11" x="9" y="0">r</tspan><tspan x="14.28" y="0">aw ba</tspan><tspan class="cls-12" x="58.23" y="0">t</tspan><tspan x="63.52" y="0">te</tspan><tspan class="cls-13" x="76.93" y="0">r</tspan><tspan x="82.81" y="0">y l</tspan><tspan class="cls-14" x="98.26" y="0">ev</tspan><tspan x="114.21" y="0">el</tspan></text><text class="cls-10" transform="translate(145.28 22.5)">X</text><text class="cls-10" transform="translate(211.65 22.5)">Y</text><text class="cls-10" transform="translate(286.15 22.5)">pe<tspan class="cls-15" x="17.16" y="0">r</tspan><tspan x="22.44" y="0">cent</tspan></text><rect class="cls-8" x="342.07" y="10" width="47.63" height="16" rx="4"/><text class="cls-9" transform="translate(347.07 22.5)">%0</text><polygon class="cls-16" points="380.72 22.31 385.7 13.69 375.74 13.69 380.72 22.31"/><rect class="cls-17" x="341.72" y="42.69" width="58.78" height="70.44" rx="5.67"/><text class="cls-9" transform="translate(346.13 55.56)">%0<tspan x="0" y="18">%50</tspan><tspan x="0" y="36">%75</tspan><tspan x="0" y="54">%100</tspan></text><polygon class="cls-16" points="389.54 55.38 394.52 46.75 384.56 46.75 389.54 55.38"/></g></g></svg>