<svg xmlns="http://www.w3.org/2000/svg" viewBox="0 0 595.28 41"><defs><style>.cls-1,.cls-4,.cls-7{fill:none;}.cls-2{fill:#474484;}.cls-3{fill:#5a55a5;}.cls-4{stroke:#8b87be;}.cls-5{fill:#3d4986;}.cls-6{fill:#4c5ba6;}.cls-7{stroke:#818dc1;}.cls-10,.cls-8{fill:#fff;}.cls-8{fill-opacity:0.6;}.cls-10,.cls-9{isolation:isolate;font-size:15px;font-family:Mulish-Regular, Mulish;}.cls-9{fill:#010101;}.cls-11{letter-spacing:-0.01em;}</style></defs><g id="Layer_2" data-name="Layer 2"><g id="Layer_1-2" data-name="Layer 1"><rect class="cls-1" width="595.28" height="18"/><path class="cls-2" d="M1,9A8,8,0,0,1,9,1h7l6,4h3l6-4H403V37H30.5l-6,4h-3l-6-4H9a8,8,0,0,1-8-8ZM151.18,6h-30.8v5c0,10-8-8-8,7.5s8-2.5,8,7.5v7h30.8Zm74.5,0h-30.8v5c0,10-8-8-8,7.5s8-2.5,8,7.5v7h30.8Zm92.77,0h-48.4v5c0,10-8-8-8,7.5s8-2.5,8,7.5v7h48.4ZM393,6h-30.8v5c0,10-8-8-8,7.5s8-2.5,8,7.5v7H393Z"/><path class="cls-3" d="M0,8A8,8,0,0,1,8,0h7l6,4h3l6-4H402V36H29.5l-6,4h-3l-6-4H8a8,8,0,0,1-8-8ZM150.18,5h-30.8v5c0,10-8-8-8,7.5s8-2.5,8,7.5v7h30.8Zm74.5,0h-30.8v5c0,10-8-8-8,7.5s8-2.5,8,7.5v7h30.8Zm92.77,0h-48.4v5c0,10-8-8-8,7.5s8-2.5,8,7.5v7h48.4ZM392,5h-30.8v5c0,10-8-8-8,7.5s8-2.5,8,7.5v7H392Z"/><path class="cls-4" d="M.5,7.5A7.5,7.5,0,0,1,8,.5h7l6,4h3l6-4h9.5m0,0h362M2.7,33.3A7.47,7.47,0,0,1,.5,28V8M150.68,5.5v27h-30.8m-5.6-8.2L118,22.2M225.18,5.5v27h-30.8m-5.6-8.2,3.68-2.1M318,5.5v27h-48.4M264,24.3l3.68-2.1M392.45,5.5v27h-30.8m-5.6-8.2,3.68-2.1"/><path class="cls-5" d="M121.38,7h28.8V32h-28.8V27c0-10-8,8-8-7.5s8,2.5,8-7.5Z"/><path class="cls-6" d="M120.38,6h28.8V31h-28.8V26c0-10-8,8-8-7.5s8,2.5,8-7.5Z"/><path class="cls-7" d="M120.88,6.5h27.8m-27.8,24v-6m-7.36-.5a20.35,20.35,0,0,1,0-11m7.36,1V6.5h.5"/><rect class="cls-8" x="125.38" y="11" width="18.8" height="16" rx="4"/><text class="cls-9" transform="translate(130.38 23.5)">0</text><path class="cls-5" d="M195.88,7h28.8V32h-28.8V27c0-10-8,8-8-7.5s8,2.5,8-7.5Z"/><path class="cls-6" d="M194.88,6h28.8V31h-28.8V26c0-10-8,8-8-7.5s8,2.5,8-7.5Z"/><path class="cls-7" d="M195.38,6.5h27.8m-27.8,24v-6M188,24a20.35,20.35,0,0,1,0-11m7.36,1V6.5h.5"/><rect class="cls-8" x="199.88" y="11" width="18.8" height="16" rx="4"/><text class="cls-9" transform="translate(204.88 23.5)">0</text><path class="cls-5" d="M271.05,7h46.4V32h-46.4V27c0-10-8,8-8-7.5s8,2.5,8-7.5Z"/><path class="cls-6" d="M270.05,6h46.4V31h-46.4V26c0-10-8,8-8-7.5s8,2.5,8-7.5Z"/><path class="cls-7" d="M270.55,6.5H316m-45.4,24v-6m-7.36-.5a20.35,20.35,0,0,1,0-11m7.36,1V6.5h.5"/><rect class="cls-8" x="275.05" y="11" width="36.4" height="16" rx="4"/><text class="cls-9" transform="translate(280.05 23.5)">127</text><path class="cls-5" d="M363.15,7H392V32h-28.8V27c0-10-8,8-8-7.5s8,2.5,8-7.5Z"/><path class="cls-6" d="M362.15,6H391V31h-28.8V26c0-10-8,8-8-7.5s8,2.5,8-7.5Z"/><path class="cls-7" d="M362.65,6.5h27.8m-27.8,24v-6m-7.36-.5a20.35,20.35,0,0,1,0-11m7.36,1V6.5h.5"/><rect class="cls-8" x="367.15" y="11" width="18.8" height="16" rx="4"/><text class="cls-9" transform="translate(372.15 23.5)">0</text><text class="cls-10" transform="translate(10 22.5)">d<tspan class="cls-11" x="9" y="0">r</tspan><tspan x="14.28" y="0">aw line</tspan></text><text class="cls-10" transform="translate(85.02 22.5)">X1</text><text class="cls-10" transform="translate(160.18 22.5)">Y1</text><text class="cls-10" transform="translate(234.68 22.5)">X2</text><text class="cls-10" transform="translate(327.45 22.5)">Y2</text></g></g></svg>