<svg xmlns="http://www.w3.org/2000/svg" viewBox="0 0 595.28 90"><defs><style>.cls-1,.cls-4{fill:none;}.cls-2{fill:#7a3d86;}.cls-3{fill:#954e9e;}.cls-4{stroke:#b682b9;}.cls-5{fill:#3a53a4;stroke:#fff;}.cls-11,.cls-6,.cls-7,.cls-8{fill:#fff;}.cls-11,.cls-7,.cls-9{isolation:isolate;}.cls-7,.cls-9{font-size:15px;font-family:Mulish-Regular, Mulish;}.cls-8{fill-opacity:0.6;}.cls-9{fill:#010101;}.cls-10{letter-spacing:0em;}.cls-11{font-size:12px;font-family:ArialMT, Arial;}.cls-12{letter-spacing:-0.01em;}</style></defs><g id="Layer_2" data-name="Layer 2"><g id="Layer_1-2" data-name="Layer 1"><rect class="cls-1" width="595.28" height="18"/><path class="cls-2" d="M1,9A8,8,0,0,1,9,1H185.5V26H51l-6,4H42l-6-4H29a8,8,0,0,0-8,8V58a8,8,0,0,0,8,8H185.5v5c0,10-8-8-8,7.5s8-2.5,8,7.5v4H9a8,8,0,0,1-8-8Z"/><path class="cls-3" d="M0,8A8,8,0,0,1,8,0H184.5V25H50l-6,4H41l-6-4H28a8,8,0,0,0-8,8V57a8,8,0,0,0,8,8H184.5v5c0,10-8-8-8,7.5s8-2.5,8,7.5v4H8a8,8,0,0,1-8-8Z"/><path class="cls-4" d="M.5,7.5A7.5,7.5,0,0,1,8,.5H184M22,63a8.52,8.52,0,0,0,6,2.49H184m-4.5,18.8,3.68-2.1M2.7,86.3A7.47,7.47,0,0,1,.5,81V8"/><circle class="cls-5" cx="18" cy="13" r="8"/><path class="cls-6" d="M16.8,15h2a1.54,1.54,0,0,1,.63-1.27c2.88-2.4.61-5.53-3.76-3.87v1.7c3.12-1.66,3.7.12,2.33,1.25C16.8,13.81,16.8,14.34,16.8,15Z"/><rect class="cls-6" x="16.8" y="15.78" width="2" height="2"/><text class="cls-7" transform="translate(37 17.5)">to</text><rect class="cls-8" x="55.52" y="5" width="102.15" height="16" rx="4"/><text class="cls-9" transform="translate(60.52 17.5)">do som<tspan class="cls-10" x="50.7" y="0">e</tspan><tspan x="58.81" y="0">thing</tspan></text><text class="cls-11" transform="translate(162.67 17.5)"> </text><text class="cls-7" transform="translate(125.9 82.5)"><tspan class="cls-12">r</tspan><tspan class="cls-10" x="5.28" y="0">e</tspan><tspan x="13.4" y="0">turn</tspan></text></g></g></svg>