<svg xmlns="http://www.w3.org/2000/svg" viewBox="0 0 595.28 60.69"><defs><style>.cls-1{fill:#954e9e;}.cls-2{fill:#ededee;}.cls-3{font-size:36px;fill:#231f20;font-family:Mulish-Bold, Mulish;font-weight:700;}.cls-4{letter-spacing:-0.01em;}.cls-5{letter-spacing:0em;}.cls-6{letter-spacing:0em;}.cls-7{fill:#aa6dad;}.cls-8{fill:#ff5100;}.cls-9{fill:#d54427;}</style></defs><g id="Layer_2" data-name="Layer 2"><g id="Layer_1-2" data-name="Layer 1"><rect class="cls-1" y="4" width="595.28" height="56.69" rx="11.34"/><rect class="cls-2" width="595.28" height="56.69" rx="11.34"/><text class="cls-3" transform="translate(82.46 38.84)"><tspan class="cls-4">F</tspan><tspan x="20.23" y="0">un</tspan><tspan class="cls-5" x="63.32" y="0">c</tspan><tspan class="cls-6" x="81.57" y="0">tions</tspan></text><path class="cls-1" d="M50.1,7.09a9.34,9.34,0,0,0-9.25,8L39.48,24.7H34.63a2.6,2.6,0,1,0,0,5.19h4.11l-1.57,11a4.15,4.15,0,0,1-8.26-.59,2.6,2.6,0,1,0-5.19,0,9.35,9.35,0,0,0,18.6,1.32L44,29.89h5.93a2.6,2.6,0,1,0,0-5.19H44.73L46,15.85a4.15,4.15,0,0,1,8.26.58,2.6,2.6,0,0,0,5.2,0A9.35,9.35,0,0,0,50.1,7.09Z"/><path class="cls-7" d="M34.46,44.41a4.17,4.17,0,0,0,4.11-3.56l1.56-11H38.74l-1.57,11a4.18,4.18,0,0,1-3.41,3.5,4,4,0,0,0,.7.06Z"/><path class="cls-7" d="M42.25,15.11a9.35,9.35,0,0,1,8.57-8l-.72,0a9.34,9.34,0,0,0-9.25,8L39.48,24.7h1.4Z"/><path class="cls-7" d="M55.65,16.43a4.16,4.16,0,0,0-4.15-4.15,4,4,0,0,0-.7.06,4.16,4.16,0,0,1,3.45,4.09,2.6,2.6,0,0,0,2.6,2.6,2.69,2.69,0,0,0,.7-.09,2.61,2.61,0,0,1-1.9-2.51Z"/><path class="cls-7" d="M25.11,40.26a2.6,2.6,0,0,1,1.9-2.5,2.28,2.28,0,0,0-.7-.1,2.59,2.59,0,0,0-2.59,2.6,9.36,9.36,0,0,0,9.34,9.35c.23,0,.46,0,.68,0A9.36,9.36,0,0,1,25.11,40.26Z"/><path class="cls-7" d="M34.63,29.89H36a2.6,2.6,0,1,1,0-5.19h-1.4a2.6,2.6,0,1,0,0,5.19Z"/><path class="cls-8" d="M58,42.75l2.4-2.4a2.61,2.61,0,1,0-3.69-3.69l-2.4,2.4-2.4-2.4a2.61,2.61,0,1,0-3.69,3.69l2.4,2.4-2.4,2.4a2.61,2.61,0,1,0,3.69,3.69l2.4-2.4,2.4,2.4a2.61,2.61,0,1,0,3.69-3.69Z"/><path class="cls-9" d="M50.36,48.84a2.61,2.61,0,0,1,0-3.69l2.4-2.4-2.4-2.4a2.61,2.61,0,0,1,0-3.69,2.75,2.75,0,0,1,.76-.53,2.61,2.61,0,0,0-2.93,4.22l2.4,2.4-2.4,2.4A2.62,2.62,0,0,0,50,49.61a2.54,2.54,0,0,0,1.08-.24,2.55,2.55,0,0,1-.76-.53Z"/></g></g></svg>