<svg xmlns="http://www.w3.org/2000/svg" viewBox="0 0 595.28 40"><defs><style>.cls-1,.cls-4{fill:none;}.cls-2{fill:#7a3d86;}.cls-3{fill:#954e9e;}.cls-4{stroke:#b682b9;}.cls-5{isolation:isolate;font-size:15px;fill:#fff;font-family:Mulish-Regular, Mulish;}.cls-6{letter-spacing:-0.01em;}.cls-7{letter-spacing:0em;}</style></defs><g id="Layer_2" data-name="Layer 2"><g id="Layer_1-2" data-name="Layer 1"><rect class="cls-1" width="595.28" height="18"/><path class="cls-2" d="M1,9A8,8,0,0,1,9,1h7l6,4h3l6-4H141V36H30.5l-6,4h-3l-6-4H9a8,8,0,0,1-8-8ZM49.93,6H35.43v5c0,10-8-8-8,7.5s8-2.5,8,7.5v6h14.5ZM131,6h-14.5v5c0,10-8-8-8,7.5s8-2.5,8,7.5v6H131Z"/><path class="cls-3" d="M0,8A8,8,0,0,1,8,0h7l6,4h3l6-4H140V35H29.5l-6,4h-3l-6-4H8a8,8,0,0,1-8-8ZM48.93,5H34.43v5c0,10-8-8-8,7.5s8-2.5,8,7.5v6h14.5ZM130,5h-14.5v5c0,10-8-8-8,7.5s8-2.5,8,7.5v6H130Z"/><path class="cls-4" d="M.5,7.5A7.5,7.5,0,0,1,8,.5h7l6,4h3l6-4h9.5m0,0h100M2.7,32.3A7.47,7.47,0,0,1,.5,27V8M49.43,5.5v26H34.93m-5.6-7.2L33,22.2M130.53,5.5v26H116m-5.6-7.2,3.68-2.1"/><text class="cls-5" transform="translate(10 22.5)">if</text><text class="cls-5" transform="translate(58.93 22.5)"><tspan class="cls-6">r</tspan><tspan class="cls-7" x="5.28" y="0">e</tspan><tspan x="13.4" y="0">turn</tspan></text></g></g></svg>