<svg xmlns="http://www.w3.org/2000/svg" viewBox="0 0 595.4 150.84"><defs><style>.cls-1,.cls-4{fill:none;}.cls-2{fill:#483d86;}.cls-3{fill:#5c4da0;}.cls-4{stroke:#8d82bd;}.cls-5,.cls-7{fill:#fff;}.cls-5{fill-opacity:0.6;}.cls-6,.cls-7{isolation:isolate;font-size:15px;font-family:Mulish-Regular, Mulish;}.cls-6,.cls-9{fill:#010101;}.cls-8{letter-spacing:-0.01em;}.cls-10{fill:#afa7d1;}.cls-11{letter-spacing:-0.04em;}.cls-12{letter-spacing:-0.02em;}</style></defs><g id="Layer_2" data-name="Layer 2"><g id="Layer_1-2" data-name="Layer 1"><rect class="cls-1" x="0.12" width="595.28" height="18"/><path class="cls-2" d="M9.12,1H315.6V37H9.12V21c0-10-8,8-8-7.5s8,2.5,8-7.5Zm157,5H90.69v5c0,10-8-8-8,7.5s8-2.5,8,7.5v7h75.43Z"/><path class="cls-3" d="M8.12,0H314.6V36H8.12V20c0-10-8,8-8-7.5s8,2.5,8-7.5Zm157,5H89.69v5c0,10-8-8-8,7.5s8-2.5,8,7.5v7h75.43Z"/><path class="cls-4" d="M8.62.5h16m0,0H314.1M8.62,35.5v-17M1.26,18a20.35,20.35,0,0,1,0-11M8.62,8V.5h.5m156.5,5v27H90.19m-5.6-8.2,3.68-2.1"/><path class="cls-2" d="M91.69,7h73.43V32H91.69V27c0-10-8,8-8-7.5s8,2.5,8-7.5Z"/><path class="cls-3" d="M90.69,6h73.43V31H90.69V26c0-10-8,8-8-7.5s8,2.5,8-7.5Z"/><path class="cls-4" d="M91.19,6.5h72.43m-72.43,24v-6M83.83,24a20.15,20.15,0,0,1,0-11m7.36,1V6.5h.5"/><rect class="cls-5" x="95.69" y="11" width="63.43" height="16" rx="4"/><text class="cls-6" transform="translate(100.69 23.5)">HIGH</text><text class="cls-7" transform="translate(15.12 22.5)">measu<tspan class="cls-8" x="46.44" y="0">r</tspan><tspan x="51.72" y="0">e</tspan></text><text class="cls-7" transform="translate(175.12 22.5)">pulse on pin #</text><rect class="cls-5" x="274.34" y="10" width="35.27" height="16" rx="4"/><text class="cls-6" transform="translate(279.34 22.5)">0</text><polygon class="cls-9" points="301.63 22.31 306.6 13.69 296.65 13.69 301.63 22.31"/><polygon class="cls-9" points="151.14 23.31 156.12 14.69 146.16 14.69 151.14 23.31"/><rect class="cls-10" x="95.69" y="42.69" width="63.37" height="33.74" rx="5.67"/><text class="cls-6" transform="translate(100.09 55.57)">HIGH<tspan class="cls-11" x="0" y="18">L</tspan><tspan class="cls-12" x="7.62" y="18">O</tspan><tspan x="18.94" y="18">W</tspan></text><polygon class="cls-9" points="150.14 55.38 155.12 46.75 145.16 46.75 150.14 55.38"/><rect class="cls-10" x="274.34" y="42.69" width="35.34" height="108.15" rx="5.67"/><text class="cls-6" transform="translate(278.74 55.57)">1<tspan x="0" y="18">2</tspan><tspan x="0" y="36">.</tspan><tspan x="0" y="54">.</tspan><tspan x="0" y="72">A4</tspan><tspan x="0" y="90">A5</tspan></text><polygon class="cls-9" points="301.63 55.38 306.6 46.75 296.65 46.75 301.63 55.38"/></g></g></svg>