<svg xmlns="http://www.w3.org/2000/svg" viewBox="0 0 595.28 120.66"><defs><style>.cls-1,.cls-4{fill:none;}.cls-2{fill:#483d86;}.cls-3{fill:#5c4da0;}.cls-4{stroke:#8d82bd;}.cls-5,.cls-7{isolation:isolate;font-size:15px;font-family:Mulish-Regular, Mulish;}.cls-5,.cls-6{fill:#fff;}.cls-6{fill-opacity:0.6;}.cls-11,.cls-7{fill:#010101;}.cls-8{letter-spacing:0em;}.cls-9{letter-spacing:-0.02em;}.cls-10{letter-spacing:-0.01em;}.cls-12{fill:#afa7d1;}</style></defs><g id="Layer_2" data-name="Layer 2"><g id="Layer_1-2" data-name="Layer 1"><rect class="cls-1" width="595.28" height="18"/><path class="cls-2" d="M1,9A8,8,0,0,1,9,1h7l6,4h3l6-4H279.72V26H30.5l-6,4h-3l-6-4H9a8,8,0,0,1-8-8Z"/><path class="cls-3" d="M0,8A8,8,0,0,1,8,0h7l6,4h3l6-4H278.72V25H29.5l-6,4h-3l-6-4H8a8,8,0,0,1-8-8Z"/><path class="cls-4" d="M.5,7.5A7.5,7.5,0,0,1,8,.5h7l6,4h3l6-4h9.5m0,0H278.22M2.7,22.3A7.47,7.47,0,0,1,.5,17V8"/><text class="cls-5" transform="translate(10 17.5)">LED brightness</text><rect class="cls-6" x="117.67" y="5" width="60.22" height="16" rx="4"/><text class="cls-7" transform="translate(122.67 17.5)">l<tspan class="cls-8" x="3.57" y="0">e</tspan><tspan class="cls-9" x="11.71" y="0">f</tspan><tspan x="16.42" y="0">t</tspan></text><text class="cls-5" transform="translate(182.88 17.5)"> l<tspan class="cls-10" x="7.48" y="0">ev</tspan><tspan x="23.43" y="0">el </tspan></text><rect class="cls-6" x="226.08" y="5" width="47.63" height="16" rx="4"/><text class="cls-7" transform="translate(231.08 17.5)">%0</text><polygon class="cls-11" points="168.91 17.31 173.88 8.69 163.93 8.69 168.91 17.31"/><polygon class="cls-11" points="264.74 17.31 269.72 8.69 259.76 8.69 264.74 17.31"/><rect class="cls-12" x="117.67" y="31.69" width="60.1" height="35.69" rx="5.83"/><text class="cls-7" transform="translate(122.07 44.56)">l<tspan class="cls-8" x="3.57" y="0">e</tspan><tspan class="cls-9" x="11.71" y="0">f</tspan><tspan x="16.42" y="0">t</tspan><tspan x="0" y="18">right</tspan></text><polygon class="cls-11" points="168.91 44.38 173.88 35.75 163.93 35.75 168.91 44.38"/><rect class="cls-12" x="226.08" y="31.69" width="49.54" height="87.69" rx="6.3"/><text class="cls-7" transform="translate(230.49 44.56)">%0<tspan x="0" y="18">%25</tspan><tspan x="0" y="36">%50</tspan><tspan x="0" y="54">%75</tspan><tspan x="0" y="72">%100</tspan></text><polygon class="cls-11" points="266.74 44.38 271.72 35.75 261.76 35.75 266.74 44.38"/></g></g></svg>