<svg xmlns="http://www.w3.org/2000/svg" viewBox="0 0 595.28 139.87"><defs><style>.cls-1,.cls-4{fill:none;}.cls-2{fill:#483d86;}.cls-3{fill:#5c4da0;}.cls-4{stroke:#8d82bd;}.cls-5,.cls-8{isolation:isolate;font-size:15px;font-family:Mulish-Regular, Mulish;}.cls-5,.cls-7{fill:#fff;}.cls-6{letter-spacing:0em;}.cls-7{fill-opacity:0.6;}.cls-8,.cls-9{fill:#010101;}.cls-10{fill:#afa7d1;}</style></defs><g id="Layer_2" data-name="Layer 2"><g id="Layer_1-2" data-name="Layer 1"><rect class="cls-1" width="595.28" height="18"/><path class="cls-2" d="M1,9A8,8,0,0,1,9,1h7l6,4h3l6-4H196.45V6c0,10-8-8-8,7.5s8-2.5,8,7.5v5H30.5l-6,4h-3l-6-4H9a8,8,0,0,1-8-8Z"/><path class="cls-3" d="M0,8A8,8,0,0,1,8,0h7l6,4h3l6-4H195.45V5c0,10-8-8-8,7.5s8-2.5,8,7.5v5H29.5l-6,4h-3l-6-4H8a8,8,0,0,1-8-8Z"/><path class="cls-4" d="M.5,7.5A7.5,7.5,0,0,1,8,.5h7l6,4h3l6-4H195m-4.5,18.8,3.68-2.1M2.7,22.3A7.47,7.47,0,0,1,.5,17V8"/><text class="cls-5" transform="translate(9 17.5)">s<tspan class="cls-6" x="7.44" y="0">e</tspan><tspan x="15.55" y="0">t analog pin #</tspan></text><rect class="cls-7" x="123.67" y="5" width="35.27" height="16" rx="4"/><text class="cls-8" transform="translate(128.67 17.5)">3</text><text class="cls-5" transform="translate(163.93 17.5)">to</text><polygon class="cls-9" points="150.96 17.31 155.93 8.69 145.98 8.69 150.96 17.31"/><rect class="cls-10" x="123.67" y="31.69" width="35.34" height="108.18" rx="5.67"/><text class="cls-8" transform="translate(128.07 44.56)">3<tspan x="0" y="18">5</tspan><tspan x="0" y="36">.</tspan><tspan x="0" y="54">.</tspan><tspan x="0" y="72">11</tspan><tspan x="0" y="90">13</tspan></text><polygon class="cls-9" points="150.96 44.38 155.93 35.75 145.98 35.75 150.96 44.38"/></g></g></svg>