<svg xmlns="http://www.w3.org/2000/svg" viewBox="0 0 595.4 84.78"><defs><style>.cls-1,.cls-7{fill:none;}.cls-2{fill:#afa7d1;}.cls-3,.cls-8{isolation:isolate;font-size:15px;font-family:Mulish-Regular, Mulish;}.cls-3,.cls-4{fill:#010101;}.cls-5{fill:#483d86;}.cls-6{fill:#5c4da0;}.cls-7{stroke:#8d82bd;}.cls-12,.cls-8{fill:#fff;}.cls-9{letter-spacing:-0.01em;}.cls-10{letter-spacing:0em;}.cls-11{letter-spacing:0em;}.cls-12{fill-opacity:0.6;}</style></defs><g id="Layer_2" data-name="Layer 2"><g id="Layer_1-2" data-name="Layer 1"><rect class="cls-1" x="0.12" width="595.28" height="18"/><rect class="cls-2" x="102.25" y="31.69" width="45.49" height="53.09" rx="5.67"/><text class="cls-3" transform="translate(106.66 44.56)">B1<tspan x="0" y="18">B2</tspan><tspan x="0" y="36">B3</tspan></text><polygon class="cls-4" points="138.53 44.38 143.5 35.75 133.55 35.75 138.53 44.38"/><path class="cls-5" d="M9.12,1H153.5V26H9.12V21c0-10-8,8-8-7.5s8,2.5,8-7.5Z"/><path class="cls-6" d="M8.12,0H152.5V25H8.12V20c0-10-8,8-8-7.5s8,2.5,8-7.5Z"/><path class="cls-7" d="M8.62.5h19m0,0H152M8.62,24.5v-6M1.26,18a20.35,20.35,0,0,1,0-11M8.62,8V.5h.5"/><text class="cls-8" transform="translate(18.12 17.5)"><tspan class="cls-9">r</tspan><tspan x="5.28" y="0">ead bu</tspan><tspan class="cls-10" x="53.01" y="0">t</tspan><tspan class="cls-11" x="58.3" y="0">ton</tspan></text><rect class="cls-12" x="102.25" y="5" width="45.25" height="16" rx="4"/><text class="cls-3" transform="translate(107.25 17.5)">B1</text><polygon class="cls-4" points="138.53 17.31 143.5 8.69 133.55 8.69 138.53 17.31"/></g></g></svg>