<svg xmlns="http://www.w3.org/2000/svg" viewBox="0 0 595.4 66.66"><defs><style>.cls-1,.cls-4{fill:none;}.cls-2{fill:#483d86;}.cls-3{fill:#5c4da0;}.cls-4{stroke:#8d82bd;}.cls-5{fill:#fff;fill-opacity:0.6;}.cls-6{isolation:isolate;font-size:15px;font-family:Mulish-Regular, Mulish;}.cls-6,.cls-7{fill:#010101;}.cls-8{fill:#afa7d1;}.cls-9{letter-spacing:-0.04em;}.cls-10{letter-spacing:-0.02em;}</style></defs><g id="Layer_2" data-name="Layer 2"><g id="Layer_1-2" data-name="Layer 1"><rect class="cls-1" x="0.12" width="595.28" height="18"/><path class="cls-2" d="M9.12,1H82.55V26H9.12V21c0-10-8,8-8-7.5s8,2.5,8-7.5Z"/><path class="cls-3" d="M8.12,0H81.55V25H8.12V20c0-10-8,8-8-7.5s8,2.5,8-7.5Z"/><path class="cls-4" d="M8.62.5H81.05M8.62,24.5v-6M1.26,18a20.35,20.35,0,0,1,0-11M8.62,8V.5h.5"/><rect class="cls-5" x="13.12" y="5" width="63.43" height="16" rx="4"/><text class="cls-6" transform="translate(18.12 17.5)">HIGH</text><polygon class="cls-7" points="67.58 17.31 72.55 8.69 62.6 8.69 67.58 17.31"/><rect class="cls-8" x="13.12" y="31.69" width="63.37" height="33.74" rx="5.67"/><text class="cls-6" transform="translate(17.52 44.57)">HIGH<tspan class="cls-9" x="0" y="18">L</tspan><tspan class="cls-10" x="7.62" y="18">O</tspan><tspan x="18.94" y="18">W</tspan></text><polygon class="cls-7" points="67.58 44.38 72.55 35.75 62.6 35.75 67.58 44.38"/></g></g></svg>