<svg xmlns="http://www.w3.org/2000/svg" viewBox="0 0 595.28 60.69"><defs><style>.cls-1{fill:#5c4da0;}.cls-2{fill:#ededee;}.cls-3{font-size:36px;fill:#231f20;font-family:Mulish-Bold, Mulish;font-weight:700;}.cls-4{letter-spacing:0.05em;}.cls-5{letter-spacing:-0.01em;}.cls-6{fill:#dbd9dc;}.cls-7{fill:#c9c6ca;}.cls-8{fill:#a2d9d6;}.cls-9{fill:#fff;}</style></defs><g id="Layer_2" data-name="Layer 2"><g id="Layer_1-2" data-name="Layer 1"><rect class="cls-1" y="4" width="595.28" height="56.69" rx="11.34"/><rect class="cls-2" width="595.28" height="56.69" rx="11.34"/><text class="cls-3" transform="translate(82.46 38.84)">Inpu<tspan class="cls-4" x="75.63" y="0">t</tspan><tspan class="cls-5" x="91.11" y="0">/</tspan><tspan x="102.09" y="0">Output</tspan></text><path class="cls-6" d="M23.63,40.11l-.94-.94,5.39-5.39A2.67,2.67,0,0,1,30,33h3.83v1.33H30a1.33,1.33,0,0,0-.94.39Z"/><path class="cls-6" d="M54.89,23.7H51.06V22.37h3.83a1.33,1.33,0,0,0,.94-.39l5.39-5.4.94.94-5.39,5.4A2.71,2.71,0,0,1,54.89,23.7Z"/><path class="cls-6" d="M37.78,19.71H36.45V15.88a1.35,1.35,0,0,0-.39-.94l-5.4-5.39.94-.94L37,14a2.64,2.64,0,0,1,.78,1.87Z"/><path class="cls-6" d="M53.25,48.08l-5.4-5.39a2.66,2.66,0,0,1-.77-1.88V37H48.4v3.83a1.33,1.33,0,0,0,.39.94l5.4,5.39Z"/><rect class="cls-7" x="47.08" y="10.41" width="1.33" height="9.3"/><rect class="cls-7" x="36.45" y="36.98" width="1.33" height="9.3"/><rect class="cls-7" x="24.49" y="22.37" width="9.3" height="1.33"/><rect class="cls-7" x="51.06" y="33" width="9.3" height="1.33"/><path class="cls-6" d="M44.42,41.63V15.06a.67.67,0,0,1,.66-.67h0a.67.67,0,0,1,.67.67V41.63a.67.67,0,0,1-.67.67h0A.67.67,0,0,1,44.42,41.63Z"/><path class="cls-6" d="M39.1,41.63V15.06a.67.67,0,0,1,.67-.67h0a.66.66,0,0,1,.66.67V41.63a.66.66,0,0,1-.66.67h0A.67.67,0,0,1,39.1,41.63Z"/><path class="cls-7" d="M41.76,48.94V7.75a.67.67,0,0,1,1.33,0V48.94a.67.67,0,1,1-1.33,0Z"/><path class="cls-6" d="M55.71,26.35H29.14a.66.66,0,0,1-.67-.66h0a.67.67,0,0,1,.67-.67H55.71a.67.67,0,0,1,.67.67h0A.66.66,0,0,1,55.71,26.35Z"/><path class="cls-6" d="M55.71,31.67H29.14a.67.67,0,0,1-.67-.67h0a.67.67,0,0,1,.67-.66H55.71a.67.67,0,0,1,.67.66h0A.67.67,0,0,1,55.71,31.67Z"/><path class="cls-7" d="M63,29H21.83a.67.67,0,0,1,0-1.33H63A.67.67,0,1,1,63,29Z"/><path class="cls-1" d="M49.73,38.31H35.12a2.66,2.66,0,0,1-2.66-2.66V21a2.66,2.66,0,0,1,2.66-2.66H49.73A2.66,2.66,0,0,1,52.39,21V35.65A2.66,2.66,0,0,1,49.73,38.31Z"/><path class="cls-8" d="M49.73,37H35.12a1.32,1.32,0,0,1-1.33-1.33V21a1.32,1.32,0,0,1,1.33-1.33H49.73A1.32,1.32,0,0,1,51.06,21V35.65A1.32,1.32,0,0,1,49.73,37Z"/><path class="cls-9" d="M49.07,26.69a3,3,0,0,0-2.3-2.84,2.63,2.63,0,0,0,.06-.49A2.44,2.44,0,0,0,44.29,21a2.6,2.6,0,0,0-1.86.76A2.63,2.63,0,0,0,40.56,21,2.44,2.44,0,0,0,38,23.36a1.84,1.84,0,0,0,.06.47,3.06,3.06,0,0,0-2.3,2.86,2.77,2.77,0,0,0,.66,1.77,3.11,3.11,0,0,0-.66,1.88A3.25,3.25,0,0,0,37.28,33a2.79,2.79,0,0,0,2.9,2.63,3,3,0,0,0,2.25-1,3,3,0,0,0,2.24,1,2.8,2.8,0,0,0,2.88-2.46,2.93,2.93,0,0,0,1.52-2.52,2.82,2.82,0,0,0-.85-2A2.82,2.82,0,0,0,49.07,26.69Zm-2.26,2.58a1.6,1.6,0,0,1,.93,1.4,1.51,1.51,0,0,1-.5,1.1,2.84,2.84,0,0,0-1.63-1.29.66.66,0,1,0-.39,1.27,1.38,1.38,0,0,1,1,1.25,1.6,1.6,0,0,1-3.16,0V29a1.48,1.48,0,0,1,1.58-1.33.67.67,0,0,0,0-1.33,3.11,3.11,0,0,0-1.58.43v-.72a.67.67,0,0,0-1.33,0v3.38a3.65,3.65,0,0,0-.63-.29.67.67,0,0,0-.4,1.27,1.38,1.38,0,0,1,1,1.25V33a1.6,1.6,0,0,1-3.15,0,1.21,1.21,0,0,1,.37-.86A.66.66,0,0,0,38,31.2a2.94,2.94,0,0,0-.35.44,1.82,1.82,0,0,1-.58-1.3,2.09,2.09,0,0,1,1.73-1.93.65.65,0,0,0,.49-.79.66.66,0,0,0-.79-.5,3.71,3.71,0,0,0-1.12.45,1.47,1.47,0,0,1-.31-.88A1.83,1.83,0,0,1,39,25a.63.63,0,0,0,.4-.1.68.68,0,0,0,.23-.86.71.71,0,0,0-.1-.14.87.87,0,0,1-.21-.56,1.23,1.23,0,0,1,2.41,0,.67.67,0,1,0,1.33,0,1.23,1.23,0,0,1,2.41,0,.81.81,0,0,1-.09.37,3.84,3.84,0,0,0-1,.24.65.65,0,0,0-.35.87.67.67,0,0,0,.87.36,2.11,2.11,0,0,1,.86-.18,1.83,1.83,0,0,1,2,1.67,1.62,1.62,0,0,1-.93,1.4.67.67,0,0,0-.36.59A.68.68,0,0,0,46.81,29.27Z"/><circle class="cls-1" cx="24.49" cy="23.03" r="1.33"/><circle class="cls-1" cx="60.36" cy="33.66" r="1.33"/><circle class="cls-1" cx="23.16" cy="39.64" r="1.33"/><circle class="cls-1" cx="61.69" cy="17.05" r="1.33"/><circle class="cls-1" cx="47.74" cy="10.41" r="1.33"/><circle class="cls-1" cx="37.11" cy="46.28" r="1.33"/><circle class="cls-1" cx="31.13" cy="9.08" r="1.33"/><circle class="cls-1" cx="53.72" cy="47.61" r="1.33"/></g></g></svg>