<svg xmlns="http://www.w3.org/2000/svg" viewBox="0 0 595.4 84.78"><defs><style>.cls-1,.cls-4{fill:none;}.cls-2{fill:#483d86;}.cls-3{fill:#5c4da0;}.cls-4{stroke:#8d82bd;}.cls-10,.cls-5{isolation:isolate;font-size:15px;font-family:Mulish-Regular, Mulish;}.cls-5,.cls-9{fill:#fff;}.cls-6{letter-spacing:-0.01em;}.cls-7{letter-spacing:0em;}.cls-8{letter-spacing:0em;}.cls-9{fill-opacity:0.6;}.cls-10,.cls-11{fill:#010101;}.cls-12{fill:#afa7d1;}</style></defs><g id="Layer_2" data-name="Layer 2"><g id="Layer_1-2" data-name="Layer 1"><rect class="cls-1" x="0.12" width="595.28" height="18"/><path class="cls-2" d="M9.12,1H189.55V26H9.12V21c0-10-8,8-8-7.5s8,2.5,8-7.5Z"/><path class="cls-3" d="M8.12,0H188.55V25H8.12V20c0-10-8,8-8-7.5s8,2.5,8-7.5Z"/><path class="cls-4" d="M8.62.5h19m0,0H188.05M8.62,24.5v-6M1.26,18a20.35,20.35,0,0,1,0-11M8.62,8V.5h.5"/><text class="cls-5" transform="translate(18.12 17.5)"><tspan class="cls-6">r</tspan><tspan x="5.28" y="0">ead bu</tspan><tspan class="cls-7" x="53.01" y="0">t</tspan><tspan class="cls-8" x="58.3" y="0">ton once</tspan></text><rect class="cls-9" x="138.3" y="5" width="45.25" height="16" rx="4"/><text class="cls-10" transform="translate(143.3 17.5)">B1</text><polygon class="cls-11" points="174.57 17.31 179.55 8.69 169.6 8.69 174.57 17.31"/><rect class="cls-12" x="138.3" y="31.69" width="45.49" height="53.09" rx="5.67"/><text class="cls-10" transform="translate(142.71 44.56)">B1<tspan x="0" y="18">B2</tspan><tspan x="0" y="36">B3</tspan></text><polygon class="cls-11" points="174.57 44.38 179.55 35.75 169.6 35.75 174.57 44.38"/></g></g></svg>