<svg xmlns="http://www.w3.org/2000/svg" viewBox="0 0 595.4 139.84"><defs><style>.cls-1,.cls-4{fill:none;}.cls-2{fill:#483d86;}.cls-3{fill:#5c4da0;}.cls-4{stroke:#8d82bd;}.cls-5,.cls-8{isolation:isolate;font-size:15px;font-family:Mulish-Regular, Mulish;}.cls-5,.cls-7{fill:#fff;}.cls-6{letter-spacing:-0.01em;}.cls-7{fill-opacity:0.6;}.cls-8,.cls-9{fill:#010101;}.cls-10{fill:#afa7d1;}</style></defs><g id="Layer_2" data-name="Layer 2"><g id="Layer_1-2" data-name="Layer 1"><rect class="cls-1" x="0.12" width="595.28" height="18"/><path class="cls-2" d="M9.12,1H175.6V26H9.12V21c0-10-8,8-8-7.5s8,2.5,8-7.5Z"/><path class="cls-3" d="M8.12,0H174.6V25H8.12V20c0-10-8,8-8-7.5s8,2.5,8-7.5Z"/><path class="cls-4" d="M8.62.5H174.1M8.62,24.5v-6M1.26,18a20.35,20.35,0,0,1,0-11M8.62,8V.5h.5"/><text class="cls-5" transform="translate(15.12 17.5)"><tspan class="cls-6">r</tspan><tspan x="5.28" y="0">ead digital pin #</tspan></text><rect class="cls-7" x="134.34" y="5" width="35.27" height="16" rx="4"/><text class="cls-8" transform="translate(139.34 17.5)">0</text><polygon class="cls-9" points="161.63 17.31 166.6 8.69 156.65 8.69 161.63 17.31"/><rect class="cls-10" x="134.34" y="31.69" width="35.34" height="108.15" rx="5.67"/><text class="cls-8" transform="translate(138.74 44.57)">1<tspan x="0" y="18">2</tspan><tspan x="0" y="36">.</tspan><tspan x="0" y="54">.</tspan><tspan x="0" y="72">A4</tspan><tspan x="0" y="90">A5</tspan></text><polygon class="cls-9" points="161.63 44.38 166.6 35.75 156.65 35.75 161.63 44.38"/></g></g></svg>