<svg xmlns="http://www.w3.org/2000/svg" viewBox="0 0 595.4 140.25"><defs><style>.cls-1,.cls-4{fill:none;}.cls-2{fill:#483d86;}.cls-3{fill:#5c4da0;}.cls-4{stroke:#8d82bd;}.cls-10,.cls-5{isolation:isolate;font-size:15px;font-family:Mulish-Regular, Mulish;}.cls-5,.cls-9{fill:#fff;}.cls-6{letter-spacing:-0.01em;}.cls-7{letter-spacing:-0.02em;}.cls-8{letter-spacing:0em;}.cls-9{fill-opacity:0.6;}.cls-10,.cls-13{fill:#010101;}.cls-11{letter-spacing:-0.01em;}.cls-12{letter-spacing:-0.02em;}.cls-14{fill:#afa7d1;}.cls-15{letter-spacing:0em;}.cls-16{letter-spacing:-0.02em;}.cls-17{letter-spacing:0em;}.cls-18{letter-spacing:0em;}.cls-19{letter-spacing:0.02em;}</style></defs><g id="Layer_2" data-name="Layer 2"><g id="Layer_1-2" data-name="Layer 1"><rect class="cls-1" x="0.12" width="595.28" height="18"/><path class="cls-2" d="M9.12,1H219.7V26H9.12V21c0-10-8,8-8-7.5s8,2.5,8-7.5Z"/><path class="cls-3" d="M8.12,0H218.7V25H8.12V20c0-10-8,8-8-7.5s8,2.5,8-7.5Z"/><path class="cls-4" d="M8.62.5h19m0,0H218.2M8.62,24.5v-6M1.26,18a20.35,20.35,0,0,1,0-11M8.62,8V.5h.5"/><text class="cls-5" transform="translate(18.12 17.5)"><tspan class="cls-6">r</tspan><tspan x="5.28" y="0">ead G-</tspan><tspan class="cls-7" x="52.75" y="0">P</tspan><tspan x="62.26" y="0">ad bu</tspan><tspan class="cls-8" x="101.83" y="0">t</tspan><tspan x="107.13" y="0">ton</tspan></text><rect class="cls-9" x="150" y="5" width="63.7" height="16" rx="4"/><text class="cls-10" transform="translate(155 17.5)"><tspan class="cls-11">B</tspan><tspan class="cls-12" x="10.08" y="0">_</tspan><tspan x="17.35" y="0">UP</tspan></text><polygon class="cls-13" points="204.72 17.31 209.7 8.69 199.75 8.69 204.72 17.31"/><rect class="cls-14" x="150" y="31.69" width="78.74" height="108.56" rx="5.67"/><text class="cls-10" transform="translate(154.41 44.57)"><tspan class="cls-11">B</tspan><tspan class="cls-12" x="10.08" y="0">_</tspan><tspan x="17.35" y="0">UP</tspan><tspan class="cls-11"><tspan x="0" y="18">B</tspan><tspan class="cls-15" x="10.08" y="18">_D</tspan><tspan class="cls-16" x="28.84" y="18">O</tspan><tspan class="cls-17" x="40.17" y="18">WN</tspan></tspan><tspan x="0" y="36">LE</tspan><tspan class="cls-18" x="17" y="36">F</tspan><tspan x="25.47" y="36">T</tspan><tspan x="0" y="54">RIGHT</tspan><tspan class="cls-11" x="0" y="72">B</tspan><tspan class="cls-19" x="10.08" y="72">_</tspan><tspan x="17.96" y="72">A</tspan><tspan class="cls-11"><tspan x="0" y="90">B</tspan><tspan class="cls-15" x="10.08" y="90">_B</tspan></tspan></text><polygon class="cls-13" points="217.72 44.38 222.7 35.75 212.75 35.75 217.72 44.38"/></g></g></svg>