<svg xmlns="http://www.w3.org/2000/svg" viewBox="0 0 595.28 67.14"><defs><style>.cls-1,.cls-4{fill:none;}.cls-2{fill:#483d86;}.cls-3{fill:#5c4da0;}.cls-4{stroke:#8d82bd;}.cls-5,.cls-7{fill:#fff;}.cls-5{fill-opacity:0.6;}.cls-6,.cls-7{isolation:isolate;font-size:15px;font-family:Mulish-Regular, Mulish;}.cls-10,.cls-6{fill:#010101;}.cls-8{letter-spacing:0em;}.cls-9{letter-spacing:-0.02em;}.cls-11{fill:#afa7d1;}.cls-12{letter-spacing:-0.04em;}.cls-13{letter-spacing:-0.02em;}</style></defs><g id="Layer_2" data-name="Layer 2"><g id="Layer_1-2" data-name="Layer 1"><rect class="cls-1" width="595.28" height="18"/><path class="cls-2" d="M1,9A8,8,0,0,1,9,1h7l6,4h3l6-4H174.25V6c0,10-8-8-8,7.5s8-2.5,8,7.5v5H30.5l-6,4h-3l-6-4H9a8,8,0,0,1-8-8Z"/><path class="cls-3" d="M0,8A8,8,0,0,1,8,0h7l6,4h3l6-4H173.25V5c0,10-8-8-8,7.5s8-2.5,8,7.5v5H29.5l-6,4h-3l-6-4H8a8,8,0,0,1-8-8Z"/><path class="cls-4" d="M.5,7.5A7.5,7.5,0,0,1,8,.5h7l6,4h3l6-4H172.75m-4.5,18.8,3.68-2.1M2.7,22.3A7.47,7.47,0,0,1,.5,17V8"/><path class="cls-2" d="M175.25,1h73.43V26H175.25V21c0-10-8,8-8-7.5s8,2.5,8-7.5Z"/><path class="cls-3" d="M174.25,0h73.43V25H174.25V20c0-10-8,8-8-7.5s8,2.5,8-7.5Z"/><path class="cls-4" d="M174.75.5h72.43m-72.43,24v-6m-7.36-.5a20.35,20.35,0,0,1,0-11m7.36,1V.5h.5"/><rect class="cls-5" x="179.25" y="5" width="63.43" height="16" rx="4"/><text class="cls-6" transform="translate(184.25 17.5)">HIGH</text><text class="cls-7" transform="translate(10 17.5)">turn LED</text><rect class="cls-5" x="76.52" y="5" width="60.22" height="16" rx="4"/><text class="cls-6" transform="translate(81.52 17.5)">l<tspan class="cls-8" x="3.57" y="0">e</tspan><tspan class="cls-9" x="11.71" y="0">f</tspan><tspan x="16.42" y="0">t</tspan></text><text class="cls-7" transform="translate(141.73 17.5)">to</text><polygon class="cls-10" points="127.75 17.31 132.73 8.69 122.78 8.69 127.75 17.31"/><polygon class="cls-10" points="233.71 17.31 238.68 8.69 228.73 8.69 233.71 17.31"/><rect class="cls-11" x="76.52" y="31.69" width="60.1" height="35.45" rx="5.81"/><text class="cls-6" transform="translate(80.92 44.56)">l<tspan class="cls-8" x="3.57" y="0">e</tspan><tspan class="cls-9" x="11.71" y="0">f</tspan><tspan x="16.42" y="0">t</tspan><tspan x="0" y="18">right</tspan></text><polygon class="cls-10" points="127.75 44.38 132.73 35.75 122.78 35.75 127.75 44.38"/><rect class="cls-11" x="179.25" y="31.69" width="63.37" height="33.74" rx="5.67"/><text class="cls-6" transform="translate(183.65 44.56)">HIGH<tspan class="cls-12" x="0" y="18">L</tspan><tspan class="cls-13" x="7.62" y="18">O</tspan><tspan x="18.94" y="18">W</tspan></text><polygon class="cls-10" points="233.71 44.38 238.68 35.75 228.73 35.75 233.71 44.38"/></g></g></svg>