<svg xmlns="http://www.w3.org/2000/svg" viewBox="0 0 595.28 138.84"><defs><style>.cls-1,.cls-9{fill:none;}.cls-2{fill:#afa7d1;}.cls-11,.cls-3{isolation:isolate;font-size:15px;font-family:Mulish-Regular, Mulish;}.cls-3,.cls-4{fill:#010101;}.cls-5{letter-spacing:-0.04em;}.cls-6{letter-spacing:-0.02em;}.cls-7{fill:#483d86;}.cls-8{fill:#5c4da0;}.cls-9{stroke:#8d82bd;}.cls-10,.cls-11{fill:#fff;}.cls-10{fill-opacity:0.6;}.cls-12{letter-spacing:0em;}</style></defs><g id="Layer_2" data-name="Layer 2"><g id="Layer_1-2" data-name="Layer 1"><rect class="cls-1" width="595.28" height="18"/><rect class="cls-2" x="124.28" y="30.69" width="35.34" height="108.15" rx="5.67"/><text class="cls-3" transform="translate(128.69 43.56)">1<tspan x="0" y="18">2</tspan><tspan x="0" y="36">.</tspan><tspan x="0" y="54">.</tspan><tspan x="0" y="72">A4</tspan><tspan x="0" y="90">A5</tspan></text><polygon class="cls-4" points="151.57 43.38 156.55 34.75 146.59 34.75 151.57 43.38"/><rect class="cls-2" x="202.07" y="30.69" width="63.37" height="33.74" rx="5.67"/><text class="cls-3" transform="translate(206.47 43.57)">HIGH<tspan class="cls-5" x="0" y="18">L</tspan><tspan class="cls-6" x="7.62" y="18">O</tspan><tspan x="18.94" y="18">W</tspan></text><polygon class="cls-4" points="256.52 43.38 261.5 34.75 251.54 34.75 256.52 43.38"/><path class="cls-7" d="M1,9A8,8,0,0,1,9,1h7l6,4h3l6-4H197.07V6c0,10-8-8-8,7.5s8-2.5,8,7.5v5H30.5l-6,4h-3l-6-4H9a8,8,0,0,1-8-8Z"/><path class="cls-8" d="M0,8A8,8,0,0,1,8,0h7l6,4h3l6-4H196.07V5c0,10-8-8-8,7.5s8-2.5,8,7.5v5H29.5l-6,4h-3l-6-4H8a8,8,0,0,1-8-8Z"/><path class="cls-9" d="M.5,7.5A7.5,7.5,0,0,1,8,.5h7l6,4h3l6-4H195.57m-4.5,18.8,3.68-2.1M2.7,22.3A7.47,7.47,0,0,1,.5,17V8"/><path class="cls-7" d="M198.07,1H271.5V26H198.07V21c0-10-8,8-8-7.5s8,2.5,8-7.5Z"/><path class="cls-8" d="M197.07,0H270.5V25H197.07V20c0-10-8,8-8-7.5s8,2.5,8-7.5Z"/><path class="cls-9" d="M197.57.5H270m-72.43,24v-6m-7.36-.5a20.15,20.15,0,0,1,0-11m7.36,1V.5h.5"/><rect class="cls-10" x="202.07" y="5" width="63.43" height="16" rx="4"/><text class="cls-3" transform="translate(207.07 17.5)">HIGH</text><text class="cls-11" transform="translate(10 17.5)">s<tspan class="cls-12" x="7.44" y="0">e</tspan><tspan x="15.55" y="0">t digitial pin #</tspan></text><rect class="cls-10" x="124.28" y="5" width="35.27" height="16" rx="4"/><text class="cls-3" transform="translate(129.28 17.5)">0</text><text class="cls-11" transform="translate(164.55 17.5)">to</text><polygon class="cls-4" points="257.52 17.31 262.5 8.69 252.54 8.69 257.52 17.31"/><polygon class="cls-4" points="151.57 17.31 156.55 8.69 146.59 8.69 151.57 17.31"/></g></g></svg>