<svg xmlns="http://www.w3.org/2000/svg" viewBox="0 0 595.4 150.84"><defs><style>.cls-1,.cls-4,.cls-9{fill:none;}.cls-2{fill:#483d86;}.cls-3{fill:#5c4da0;}.cls-4{stroke:#8d82bd;}.cls-10,.cls-5{fill:#fff;}.cls-5{fill-opacity:0.6;}.cls-10,.cls-6{isolation:isolate;font-size:15px;font-family:Mulish-Regular, Mulish;}.cls-14,.cls-6{fill:#010101;}.cls-7{fill:#3d4986;}.cls-8{fill:#4c5ba6;}.cls-9{stroke:#818dc1;}.cls-11{letter-spacing:-0.01em;}.cls-12{letter-spacing:-0.02em;}.cls-13{letter-spacing:0em;}.cls-15{fill:#afa7d1;}.cls-16{letter-spacing:-0.04em;}.cls-17{letter-spacing:-0.02em;}</style></defs><g id="Layer_2" data-name="Layer 2"><g id="Layer_1-2" data-name="Layer 1"><rect class="cls-1" x="0.12" width="595.28" height="18"/><path class="cls-2" d="M9.12,1H513.19V37H9.12V21c0-10-8,8-8-7.5s8,2.5,8-7.5Zm158,5H91.69v5c0,10-8-8-8,7.5s8-2.5,8,7.5v7h75.43ZM472.8,6H424.4v5c0,10-8-8-8,7.5s8-2.5,8,7.5v7h48.4Z"/><path class="cls-3" d="M8.12,0H512.19V36H8.12V20c0-10-8,8-8-7.5s8,2.5,8-7.5Zm158,5H90.69v5c0,10-8-8-8,7.5s8-2.5,8,7.5v7h75.43ZM471.8,5H423.4v5c0,10-8-8-8,7.5s8-2.5,8,7.5v7h48.4Z"/><path class="cls-4" d="M8.62.5h17m0,0H511.69M8.62,35.5v-17M1.26,18a20.35,20.35,0,0,1,0-11M8.62,8V.5h.5m157.5,5v27H91.19m-5.6-8.2,3.68-2.1m383-16.7v27H423.9m-5.6-8.2L422,22.2"/><path class="cls-2" d="M92.69,7h73.43V32H92.69V27c0-10-8,8-8-7.5s8,2.5,8-7.5Z"/><path class="cls-3" d="M91.69,6h73.43V31H91.69V26c0-10-8,8-8-7.5s8,2.5,8-7.5Z"/><path class="cls-4" d="M92.19,6.5h72.43m-72.43,24v-6M84.83,24a20.15,20.15,0,0,1,0-11m7.36,1V6.5h.5"/><rect class="cls-5" x="96.69" y="11" width="63.43" height="16" rx="4"/><text class="cls-6" transform="translate(101.69 23.5)">HIGH</text><path class="cls-7" d="M425.4,7h46.4V32H425.4V27c0-10-8,8-8-7.5s8,2.5,8-7.5Z"/><path class="cls-8" d="M424.4,6h46.4V31H424.4V26c0-10-8,8-8-7.5s8,2.5,8-7.5Z"/><path class="cls-9" d="M424.9,6.5h45.4m-45.4,24v-6m-7.36-.5a20.35,20.35,0,0,1,0-11m7.36,1V6.5h.5"/><rect class="cls-5" x="429.4" y="11" width="36.4" height="16" rx="4"/><text class="cls-6" transform="translate(434.4 23.5)">100</text><text class="cls-10" transform="translate(16.12 22.5)">measu<tspan class="cls-11" x="46.44" y="0">r</tspan><tspan x="51.72" y="0">e</tspan></text><text class="cls-10" transform="translate(176.12 22.5)">pulse on pin #</text><rect class="cls-5" x="275.34" y="10" width="35.27" height="16" rx="4"/><text class="cls-6" transform="translate(280.34 22.5)">0</text><text class="cls-10" transform="translate(315.6 22.5)">(timeout a<tspan class="cls-12" x="70.32" y="0">f</tspan><tspan class="cls-13" x="75.03" y="0">ter</tspan></text><text class="cls-10" transform="translate(481.8 22.5)">μs)</text><polygon class="cls-14" points="151.14 23.31 156.12 14.69 146.16 14.69 151.14 23.31"/><polygon class="cls-14" points="301.63 22.31 306.6 13.69 296.65 13.69 301.63 22.31"/><rect class="cls-15" x="96.69" y="42.69" width="63.37" height="33.74" rx="5.67"/><text class="cls-6" transform="translate(101.09 55.57)">HIGH<tspan class="cls-16" x="0" y="18">L</tspan><tspan class="cls-17" x="7.62" y="18">O</tspan><tspan x="18.94" y="18">W</tspan></text><polygon class="cls-14" points="151.14 55.38 156.12 46.75 146.16 46.75 151.14 55.38"/><rect class="cls-15" x="275.34" y="42.69" width="35.34" height="108.15" rx="5.67"/><text class="cls-6" transform="translate(279.74 55.56)">1<tspan x="0" y="18">2</tspan><tspan x="0" y="36">.</tspan><tspan x="0" y="54">.</tspan><tspan x="0" y="72">A4</tspan><tspan x="0" y="90">A5</tspan></text><polygon class="cls-14" points="302.63 55.38 307.6 46.75 297.65 46.75 302.63 55.38"/></g></g></svg>