<svg xmlns="http://www.w3.org/2000/svg" viewBox="0 0 595.4 138.87"><defs><style>.cls-1,.cls-7{fill:none;}.cls-2{fill:#afa7d1;}.cls-3,.cls-8{isolation:isolate;font-size:15px;font-family:Mulish-Regular, Mulish;}.cls-3,.cls-4{fill:#010101;}.cls-5{fill:#483d86;}.cls-6{fill:#5c4da0;}.cls-7{stroke:#8d82bd;}.cls-10,.cls-8{fill:#fff;}.cls-9{letter-spacing:-0.01em;}.cls-10{fill-opacity:0.6;}</style></defs><g id="Layer_2" data-name="Layer 2"><g id="Layer_1-2" data-name="Layer 1"><rect class="cls-1" x="0.12" width="595.28" height="18"/><rect class="cls-2" x="142.2" y="30.69" width="45.54" height="108.18" rx="5.67"/><text class="cls-3" transform="translate(146.61 43.57)">A0<tspan x="0" y="18">A1</tspan><tspan x="0" y="36">.</tspan><tspan x="0" y="54">.</tspan><tspan x="0" y="72">A10</tspan><tspan x="0" y="90">A11</tspan></text><polygon class="cls-4" points="177.22 43.38 182.2 34.75 172.24 34.75 177.22 43.38"/><path class="cls-5" d="M9.12,1H194.24V26H9.12V21c0-10-8,8-8-7.5s8,2.5,8-7.5Z"/><path class="cls-6" d="M8.12,0H193.24V25H8.12V20c0-10-8,8-8-7.5s8,2.5,8-7.5Z"/><path class="cls-7" d="M8.62.5H192.74M8.62,24.5v-6M1.26,18a20.35,20.35,0,0,1,0-11M8.62,8V.5h.5"/><text class="cls-8" transform="translate(17.12 17.5)"><tspan class="cls-9">r</tspan><tspan x="5.28" y="0">ead analog pin #</tspan></text><rect class="cls-10" x="142.2" y="5" width="46.03" height="16" rx="4"/><text class="cls-3" transform="translate(147.2 17.5)">A0</text><polygon class="cls-4" points="177.22 17.31 182.2 8.69 172.24 8.69 177.22 17.31"/></g></g></svg>