<svg xmlns="http://www.w3.org/2000/svg" viewBox="0 0 595.39 78.49"><defs><style>.cls-1{fill:none;}.cls-2{fill:#3c6186;}.cls-3{fill:#4c79a6;}.cls-4{fill:#81a1c1;}.cls-5{opacity:0.6;}.cls-6{fill:#fff;}.cls-7{isolation:isolate;}.cls-8{fill:#010101;}.cls-9{fill:#bfcde1;}</style></defs><g id="Layer_2" data-name="Layer 2"><g id="Layer_1-2" data-name="Layer 1"><rect class="cls-1" x="0.12" width="595.28" height="18"/><path class="cls-2" d="M9.12,1H132.77V36H9.12V21c0-10-8,8-8-7.5s8,2.5,8-7.5Zm30.5,5H25.12v5c0,10-8-8-8,7.5s8-2.5,8,7.5v6h14.5Zm83.15,0h-14.5v5c0,10-8-8-8,7.5s8-2.5,8,7.5v6h14.5Z"/><path class="cls-3" d="M8.12,0H131.77V35H8.12V20c0-10-8,8-8-7.5s8,2.5,8-7.5Zm30.5,5H24.12v5c0,10-8-8-8,7.5s8-2.5,8,7.5v6h14.5Zm83.15,0h-14.5v5c0,10-8-8-8,7.5s8-2.5,8,7.5v6h14.5Z"/><path class="cls-4" d="M9.12,34.5h-1v-16h1ZM122.77,32h-15V31h14V5.5h1ZM39.62,32h-15V31h14V5.5h1Zm62.79-7.27-.49-.86,3.68-2.1.49.86Zm-83.15,0-.49-.86,3.68-2.1.49.86ZM.77,18.13a20.9,20.9,0,0,1,0-11.26l1,.26a19.79,19.79,0,0,0,0,10.74ZM9.12,8h-1V0H131.27V1H9.12Z"/><g class="cls-5"><rect class="cls-6" x="43.62" y="10" width="52.65" height="16" rx="4"/></g><g class="cls-7"><path class="cls-8" d="M52.68,22.61a3.2,3.2,0,0,1-1.76-.48,3,3,0,0,1-1.17-1.35,4.71,4.71,0,0,1-.41-2.06,4.78,4.78,0,0,1,.42-2.07,3.31,3.31,0,0,1,1.17-1.38,3.14,3.14,0,0,1,1.75-.49,3,3,0,0,1,1.76.5,2.52,2.52,0,0,1,1,1.46l-.18.12V15h1.2V22.5h-1.2V20.55l.18.09a2.5,2.5,0,0,1-1,1.45A2.91,2.91,0,0,1,52.68,22.61Zm.24-1a2,2,0,0,0,1.71-.76,3.38,3.38,0,0,0,.6-2.15,3.32,3.32,0,0,0-.61-2.15,2.06,2.06,0,0,0-1.7-.75,2.08,2.08,0,0,0-1.73.78,3.3,3.3,0,0,0-.62,2.15,3.22,3.22,0,0,0,.62,2.13A2.12,2.12,0,0,0,52.92,21.6Z"/><path class="cls-8" d="M58.79,22.5V17.07c0-.35,0-.7,0-1.06A9.47,9.47,0,0,0,58.67,15h1.15L60,16.51l-.15.12a2.59,2.59,0,0,1,1-1.38,3,3,0,0,1,1.69-.47c1.81,0,2.72,1,2.72,3V22.5H64.05V17.82a2.34,2.34,0,0,0-.42-1.54,1.67,1.67,0,0,0-1.32-.49,2.24,2.24,0,0,0-1.68.65A2.38,2.38,0,0,0,60,18.18V22.5Z"/><path class="cls-8" d="M74.21,22.5H73v-2l.18.17a2.51,2.51,0,0,1-1,1.45,2.88,2.88,0,0,1-1.75.52,3.2,3.2,0,0,1-1.75-.49,3.26,3.26,0,0,1-1.18-1.38,4.86,4.86,0,0,1-.42-2.08,4.81,4.81,0,0,1,.41-2.05,3.25,3.25,0,0,1,1.17-1.36,3.34,3.34,0,0,1,1.77-.47,2.94,2.94,0,0,1,1.75.51,2.58,2.58,0,0,1,1,1.45l-.2.15V11.46h1.22Zm-3.51-.9a2,2,0,0,0,1.7-.76A3.38,3.38,0,0,0,73,18.69a3.38,3.38,0,0,0-.6-2.14,2.07,2.07,0,0,0-1.71-.76,2.15,2.15,0,0,0-1.74.75,3.27,3.27,0,0,0-.62,2.12A3.42,3.42,0,0,0,69,20.83,2.13,2.13,0,0,0,70.7,21.6Z"/></g><polygon class="cls-8" points="84.41 22.31 89.39 13.69 79.43 13.69 84.41 22.31"/><rect class="cls-9" x="43.62" y="41.69" width="52.24" height="36.79" rx="5.67"/><g class="cls-7"><path class="cls-8" d="M52.09,54.67a3.34,3.34,0,0,1-1.77-.47,3.22,3.22,0,0,1-1.17-1.35,4.93,4.93,0,0,1-.41-2.07,4.78,4.78,0,0,1,.42-2.07,3.26,3.26,0,0,1,1.18-1.38,3.12,3.12,0,0,1,1.75-.49,2.94,2.94,0,0,1,1.75.51,2.51,2.51,0,0,1,1,1.45l-.18.12V47h1.2v7.54h-1.2v-2l.18.09a2.54,2.54,0,0,1-1,1.46A2.94,2.94,0,0,1,52.09,54.67Zm.24-1A2.06,2.06,0,0,0,54,52.91a3.43,3.43,0,0,0,.6-2.16A3.35,3.35,0,0,0,54,48.61a2.07,2.07,0,0,0-1.7-.75,2.13,2.13,0,0,0-1.74.77A3.38,3.38,0,0,0,50,50.78a3.28,3.28,0,0,0,.62,2.13A2.15,2.15,0,0,0,52.33,53.66Z"/><path class="cls-8" d="M58.19,54.56V49.13c0-.35,0-.7,0-1.05s-.05-.71-.1-1.06h1.16l.13,1.56-.15.12a2.61,2.61,0,0,1,1-1.39,3.12,3.12,0,0,1,1.7-.47c1.81,0,2.71,1,2.71,3v4.74H63.46V49.88A2.29,2.29,0,0,0,63,48.35a1.64,1.64,0,0,0-1.32-.49A2.24,2.24,0,0,0,60,48.5a2.38,2.38,0,0,0-.63,1.74v4.32Z"/><path class="cls-8" d="M73.61,54.56h-1.2v-2l.18.16a2.52,2.52,0,0,1-1,1.46,3,3,0,0,1-1.76.51,3.14,3.14,0,0,1-1.75-.49,3.19,3.19,0,0,1-1.17-1.38,4.83,4.83,0,0,1-.42-2.08,4.66,4.66,0,0,1,.41-2,3.09,3.09,0,0,1,1.17-1.35,3.2,3.2,0,0,1,1.76-.48,2.91,2.91,0,0,1,1.76.52,2.51,2.51,0,0,1,1,1.44L72.4,49V43.52h1.21Zm-3.51-.9a2.06,2.06,0,0,0,1.7-.75,4.11,4.11,0,0,0,0-4.29,2,2,0,0,0-1.71-.76,2.12,2.12,0,0,0-1.73.75,3.18,3.18,0,0,0-.62,2.11,3.34,3.34,0,0,0,.62,2.17A2.07,2.07,0,0,0,70.1,53.66Z"/><path class="cls-8" d="M52.31,72.67a3.58,3.58,0,0,1-1.88-.48,3.23,3.23,0,0,1-1.25-1.36,5.11,5.11,0,0,1,0-4.15,3.23,3.23,0,0,1,1.25-1.36,3.92,3.92,0,0,1,3.76,0,3.23,3.23,0,0,1,1.25,1.36,5.11,5.11,0,0,1,0,4.15,3.23,3.23,0,0,1-1.25,1.36A3.58,3.58,0,0,1,52.31,72.67Zm0-1A2.09,2.09,0,0,0,54,70.92a3.38,3.38,0,0,0,.61-2.17A3.29,3.29,0,0,0,54,66.61a2.09,2.09,0,0,0-1.71-.75,2.12,2.12,0,0,0-1.72.75A3.29,3.29,0,0,0,50,68.75a3.32,3.32,0,0,0,.61,2.17A2.08,2.08,0,0,0,52.31,71.66Z"/><path class="cls-8" d="M57.77,72.56V67.13c0-.35,0-.7,0-1s0-.71-.1-1.06h1.16L59,66.88l-.16,0a2.38,2.38,0,0,1,.9-1.49,2.67,2.67,0,0,1,1.57-.5l.37,0,.32.07,0,1.11a2.39,2.39,0,0,0-.79-.12,1.92,1.92,0,0,0-1.95,1.22A3.05,3.05,0,0,0,59,68.26v4.3Z"/></g><polygon class="cls-8" points="84.41 54.38 89.39 45.75 79.43 45.75 84.41 54.38"/></g></g></svg>