<svg xmlns="http://www.w3.org/2000/svg" viewBox="0 0 595.4 148.69"><defs><style>.cls-1,.cls-4{fill:none;}.cls-2{fill:#3c6186;}.cls-3{fill:#4c79a6;}.cls-4{stroke:#81a1c1;}.cls-5{fill:#fff;fill-opacity:0.6;}.cls-6{isolation:isolate;font-size:15px;font-family:Mulish-Regular, Mulish;}.cls-6,.cls-7{fill:#010101;}.cls-8{fill:#bfcde1;}</style></defs><g id="Layer_2" data-name="Layer 2"><g id="Layer_1-2" data-name="Layer 1"><rect class="cls-1" x="0.12" width="595.28" height="18"/><path class="cls-2" d="M9.12,1H115.39V36H9.12V21c0-10-8,8-8-7.5s8,2.5,8-7.5Zm30.5,5H25.12v5c0,10-8-8-8,7.5s8-2.5,8,7.5v6h14.5Zm65.77,0H90.89v5c0,10-8-8-8,7.5s8-2.5,8,7.5v6h14.5Z"/><path class="cls-3" d="M8.12,0H114.39V35H8.12V20c0-10-8,8-8-7.5s8,2.5,8-7.5Zm30.5,5H24.12v5c0,10-8-8-8,7.5s8-2.5,8,7.5v6h14.5Zm65.77,0H89.89v5c0,10-8-8-8,7.5s8-2.5,8,7.5v6h14.5Z"/><path class="cls-4" d="M8.62.5h19m0,0h86.27M8.62,34.5v-16M1.26,18a20.35,20.35,0,0,1,0-11M8.62,8V.5h.5m30,5v26H24.62M19,24.3l3.68-2.1M104.89,5.5v26H90.39m-5.6-7.2,3.68-2.1"/><rect class="cls-5" x="43.62" y="10" width="35.27" height="16" rx="4"/><text class="cls-6" transform="translate(48.16 22.5)">=</text><polygon class="cls-7" points="69.37 22.31 74.35 13.69 64.39 13.69 69.37 22.31"/><rect class="cls-8" x="43.75" y="41.69" width="35" height="107" rx="5.67"/><text class="cls-6" transform="translate(48.16 54.56)">=<tspan x="0" y="18">≠</tspan><tspan x="0" y="36">&lt;</tspan><tspan x="0" y="54">≤</tspan><tspan x="0" y="72">&gt;</tspan><tspan x="0" y="90">≥</tspan></text><polygon class="cls-7" points="69.37 54.38 74.35 45.75 64.39 45.75 69.37 54.38"/></g></g></svg>