<svg xmlns="http://www.w3.org/2000/svg" viewBox="0 0 595.28 63"><defs><style>.cls-1,.cls-4{fill:none;}.cls-2{fill:#3c6186;}.cls-3{fill:#4c79a6;}.cls-4{stroke:#81a1c1;}.cls-5{fill:#3a53a4;stroke:#fff;}.cls-6,.cls-7{fill:#fff;}.cls-7{isolation:isolate;font-size:15px;font-family:Mulish-Regular, Mulish;}</style></defs><g id="Layer_2" data-name="Layer 2"><g id="Layer_1-2" data-name="Layer 1"><rect class="cls-1" width="595.28" height="18"/><path class="cls-2" d="M1,9A8,8,0,0,1,9,1h7l6,4h3l6-4H68.18V6c0,10-8-8-8,7.5s8-2.5,8,7.5v4h0l-6,4h-3l-6-4h-7a8,8,0,0,0-8,8v8a8,8,0,0,0,8,8h22V59H30.5l-6,4h-3l-6-4H9a8,8,0,0,1-8-8Z"/><path class="cls-3" d="M0,8A8,8,0,0,1,8,0h7l6,4h3l6-4H67.18V5c0,10-8-8-8,7.5s8-2.5,8,7.5v4h0l-6,4h-3l-6-4h-7a8,8,0,0,0-8,8v8a8,8,0,0,0,8,8h22V58H29.5l-6,4h-3l-6-4H8a8,8,0,0,1-8-8Z"/><path class="cls-4" d="M.5,7.5A7.5,7.5,0,0,1,8,.5h7l6,4h3l6-4H66.68m-4.5,18.8,3.68-2.1M39.17,46a8.53,8.53,0,0,0,6,2.49h21.5m-64,6.8A7.47,7.47,0,0,1,.5,50V8"/><rect class="cls-5" x="9" y="6.13" width="16" height="16" rx="4"/><path class="cls-6" d="M13.2,13.42v1.37l-.92.68-.11.41.9,1.56.41.11,1-.46,1.18.68.13,1.14.3.3h1.8l.3-.3.13-1.14,1.18-.68,1.05.46.41-.11.9-1.56-.11-.41-.92-.68V13.42l.92-.67.11-.41L21,10.78l-.41-.11-1.05.46-1.18-.68-.13-1.14-.3-.3h-1.8l-.3.3-.13,1.13-1.18.69-1-.46-.41.11-.89,1.56.1.41Z"/><circle class="cls-5" cx="17" cy="14.13" r="2.7"/><text class="cls-7" transform="translate(37 18.5)">if</text><text class="cls-7" transform="translate(8.21 43.5)">do</text></g></g></svg>