<svg xmlns="http://www.w3.org/2000/svg" viewBox="0 0 595.28 202.5"><defs><style>.cls-1{fill:#3d6287;}.cls-2{fill:#4d7aa7;}.cls-3{fill:#81a1c1;}.cls-4{fill:#3c54a4;}.cls-5{fill:#fff;}.cls-6{isolation:isolate;}.cls-7{fill:#ddd;}.cls-8{opacity:0.9;}.cls-9{fill:#def1f0;}.cls-10{opacity:0;}.cls-11{fill:#020202;}.cls-12{fill:none;}</style></defs><g id="Layer_2" data-name="Layer 2"><g id="Layer_1-2" data-name="Layer 1"><g id="Layer_2-2" data-name="Layer 2"><g id="Layer_1-2-2" data-name="Layer 1-2"><path class="cls-1" d="M32.25,148.5a8,8,0,0,1,8-8h7l6,4h3l6-4H99.43v5c0,10-8-8-8,7.5s8-2.5,8,7.5v4h0l-6,4h-3l-6-4h-7a8,8,0,0,0-8,8v8a8,8,0,0,0,8,8h22v10H61.75l-6,4h-3l-6-4h-6.5a8,8,0,0,1-8-8Z"/><path class="cls-2" d="M31.25,147.5a8,8,0,0,1,8-8h7l6,4h3l6-4H98.43v5c0,10-8-8-8,7.5s8-2.5,8,7.5v4h0l-6,4h-3l-6-4h-7a8,8,0,0,0-8,8v8a8,8,0,0,0,8,8h22v10H60.75l-6,4h-3l-6-4h-6.5a8,8,0,0,1-8-8Z"/><path class="cls-3" d="M33.57,195.15a7.94,7.94,0,0,1-2.34-5.65v-42h1v42a7,7,0,0,0,2,4.95Zm64.35-6.65H76.42a8.94,8.94,0,0,1-6.35-2.64l.7-.7a8,8,0,0,0,5.65,2.34h21.5Zm-4.24-29.27-.5-.86,3.68-2.1.5.86ZM32.25,147l-1-.06a8,8,0,0,1,8-7.47H46.4l6,4h2.7l6-4H97.93v1H61.4l-6,4H52.1l-6-4H39.25A7,7,0,0,0,32.25,147Z"/><rect class="cls-4" x="41.25" y="144.5" width="16" height="16" rx="4"/><path class="cls-5" d="M53.25,161h-8a4.51,4.51,0,0,1-4.5-4.5v-8a4.51,4.51,0,0,1,4.5-4.5h8a4.51,4.51,0,0,1,4.5,4.5v8A4.51,4.51,0,0,1,53.25,161Zm-8-16a3.5,3.5,0,0,0-3.5,3.5v8a3.5,3.5,0,0,0,3.5,3.5h8a3.5,3.5,0,0,0,3.5-3.5v-8a3.5,3.5,0,0,0-3.5-3.5Z"/><path class="cls-5" d="M45.45,151.8v1.36l-.92.68-.11.41.9,1.56.41.11,1-.46,1.19.69.13,1.13.3.3h1.8l.3-.3.12-1.14,1.19-.68,1,.46.41-.11.9-1.56-.11-.41-.92-.68V151.8l.92-.68.11-.41-.9-1.56-.41-.11-1,.46-1.19-.68-.12-1.14-.3-.3h-1.8l-.3.3,0,1.14-1.19.68-1-.46-.41.11-.9,1.56.11.41Z"/><circle class="cls-4" cx="49.25" cy="152.5" r="2.7"/><path class="cls-5" d="M49.25,155.7a3.2,3.2,0,1,1,3.2-3.2A3.21,3.21,0,0,1,49.25,155.7Zm0-5.4a2.2,2.2,0,1,0,2.2,2.2A2.21,2.21,0,0,0,49.25,150.3Z"/><g class="cls-6"><path class="cls-5" d="M69.3,146.26h1.49v1.38H69.3ZM69.42,157v-7.54h1.21V157Z"/><path class="cls-5" d="M71.92,150.42v-1h4.53v1Zm4.75-3.35a2.92,2.92,0,0,0-.79-.12,1.57,1.57,0,0,0-.65.13.88.88,0,0,0-.45.46,1.92,1.92,0,0,0-.17.91V157H73.4v-8.7a2.45,2.45,0,0,1,.59-1.81,2.27,2.27,0,0,1,1.66-.59,4.07,4.07,0,0,1,.5,0,3.46,3.46,0,0,1,.52.11Z"/></g><g class="cls-6"><path class="cls-5" d="M49.07,181h-1.2v-2l.18.17a2.48,2.48,0,0,1-1,1.45,2.88,2.88,0,0,1-1.75.52,3.17,3.17,0,0,1-1.75-.49,3.26,3.26,0,0,1-1.18-1.38,4.86,4.86,0,0,1-.42-2.08,4.81,4.81,0,0,1,.41-2,3.22,3.22,0,0,1,1.17-1.35,3.26,3.26,0,0,1,1.77-.48,2.94,2.94,0,0,1,1.75.51,2.58,2.58,0,0,1,1,1.45l-.2.15V170h1.22Zm-3.51-.9a2.06,2.06,0,0,0,1.7-.76,4.11,4.11,0,0,0,0-4.29,2.08,2.08,0,0,0-1.71-.75,2.15,2.15,0,0,0-1.74.75,3.24,3.24,0,0,0-.62,2.11,3.42,3.42,0,0,0,.62,2.17A2.13,2.13,0,0,0,45.56,180.1Z"/><path class="cls-5" d="M54.54,181.11a3.58,3.58,0,0,1-1.88-.48,3.35,3.35,0,0,1-1.25-1.36,5.11,5.11,0,0,1,0-4.15,3.23,3.23,0,0,1,1.25-1.36,3.92,3.92,0,0,1,3.76,0,3.23,3.23,0,0,1,1.25,1.36,5.11,5.11,0,0,1,0,4.15,3.35,3.35,0,0,1-1.25,1.36A3.58,3.58,0,0,1,54.54,181.11Zm0-1a2.12,2.12,0,0,0,1.72-.74,3.4,3.4,0,0,0,.61-2.17,3.29,3.29,0,0,0-.62-2.14,2.09,2.09,0,0,0-1.71-.75,2.12,2.12,0,0,0-1.72.75,3.29,3.29,0,0,0-.62,2.14,3.34,3.34,0,0,0,.61,2.17A2.11,2.11,0,0,0,54.54,180.1Z"/></g><path class="cls-2" d="M85.22,56c-19.3,16.66-31.57,90-31.57,90s40.82-57.39,60.11-74Z"/><rect class="cls-2" width="198.98" height="128" rx="6"/><rect class="cls-5" x="6" y="6" width="186.98" height="116"/><path class="cls-7" d="M193.48,122.5H5.5V5.5h188Zm-187-1h186V6.5H6.5Z"/><g class="cls-8"><path class="cls-9" d="M6,6H92a8,8,0,0,1,8,8V114a8,8,0,0,1-8,8H6Z"/></g><g class="cls-10"><rect class="cls-11" x="22" y="16" width="58.98" height="29"/></g><path class="cls-1" d="M23,25a8,8,0,0,1,8-8h7l6,4h3l6-4H82V41H52.5l-6,4h-3l-6-4H31a8,8,0,0,1-8-8Z"/><path class="cls-2" d="M22,24a8,8,0,0,1,8-8h7l6,4h3l6-4H81V40H51.5l-6,4h-3l-6-4H30a8,8,0,0,1-8-8Z"/><path class="cls-3" d="M24.35,37.65A8,8,0,0,1,22,32V24h1v8a7.06,7.06,0,0,0,2.05,5ZM23,23.53l-1-.06A8,8,0,0,1,30,16h7.17l6,4h2.7l6-4H80.48v1H52.15l-6,4h-3.3l-6-4H30A7,7,0,0,0,23,23.53Z"/><g class="cls-6"><path class="cls-5" d="M39.35,32.6a3.49,3.49,0,0,1-1.27.74,5,5,0,0,1-1.58.27,4.16,4.16,0,0,1-2-.47,3.17,3.17,0,0,1-1.3-1.34,5,5,0,0,1,0-4.15,3.41,3.41,0,0,1,1.25-1.38,3.47,3.47,0,0,1,1.86-.49,3.19,3.19,0,0,1,1.72.44,2.8,2.8,0,0,1,1.1,1.27,4.6,4.6,0,0,1,.39,2v.22h-5.7v-.8h5l-.4.56a3.19,3.19,0,0,0-.51-2,1.94,1.94,0,0,0-1.6-.7,2.11,2.11,0,0,0-1.72.77A3.36,3.36,0,0,0,34,29.63a3.32,3.32,0,0,0,.65,2.22,2.41,2.41,0,0,0,1.92.75,3.56,3.56,0,0,0,1.26-.22,4,4,0,0,0,1.16-.66Z"/><path class="cls-5" d="M41.33,33.5v-11h1.21v11Z"/><path class="cls-5" d="M47.45,33.61a4.42,4.42,0,0,1-3-1l.41-.9a4.11,4.11,0,0,0,1.24.68,4.17,4.17,0,0,0,1.41.22,2.41,2.41,0,0,0,1.3-.29,1,1,0,0,0,.44-.85.89.89,0,0,0-.3-.71,2.3,2.3,0,0,0-1-.43l-1.27-.3a2.78,2.78,0,0,1-1.46-.75A1.78,1.78,0,0,1,44.69,28a1.93,1.93,0,0,1,.36-1.16,2.34,2.34,0,0,1,1-.79,3.77,3.77,0,0,1,1.53-.28,4.37,4.37,0,0,1,1.5.25,3.32,3.32,0,0,1,1.19.73l-.41.89a4,4,0,0,0-1.1-.67,3.34,3.34,0,0,0-1.18-.22,2.14,2.14,0,0,0-1.25.32,1,1,0,0,0-.44.85,1,1,0,0,0,.28.74,1.89,1.89,0,0,0,.89.42l1.27.32a2.89,2.89,0,0,1,1.57.74,1.77,1.77,0,0,1,.5,1.31A1.84,1.84,0,0,1,49.61,33,3.57,3.57,0,0,1,47.45,33.61Z"/><path class="cls-5" d="M58.52,32.6a3.49,3.49,0,0,1-1.27.74,5,5,0,0,1-1.58.27,4.16,4.16,0,0,1-2-.47,3.17,3.17,0,0,1-1.3-1.34,5,5,0,0,1,0-4.15,3.41,3.41,0,0,1,1.25-1.38,3.46,3.46,0,0,1,1.85-.49,3.2,3.2,0,0,1,1.73.44,2.8,2.8,0,0,1,1.1,1.27,4.6,4.6,0,0,1,.38,2v.22H53v-.8h5l-.39.56a3.19,3.19,0,0,0-.51-2,1.94,1.94,0,0,0-1.6-.7,2.11,2.11,0,0,0-1.72.77,3.36,3.36,0,0,0-.62,2.14,3.32,3.32,0,0,0,.65,2.22,2.4,2.4,0,0,0,1.91.75A3.61,3.61,0,0,0,57,32.38a4,4,0,0,0,1.16-.66Z"/><path class="cls-5" d="M64.29,22.76h1.49v1.38H64.29Zm.12,10.74V26h1.22V33.5Z"/><path class="cls-5" d="M66.92,26.92V26h4.53v1Zm4.74-3.35a2.85,2.85,0,0,0-.78-.12,1.51,1.51,0,0,0-.65.13.9.9,0,0,0-.46.46,2,2,0,0,0-.17.91V33.5H68.39V24.8A2.45,2.45,0,0,1,69,23a2.27,2.27,0,0,1,1.65-.59,4.36,4.36,0,0,1,.51,0,3.1,3.1,0,0,1,.51.11Z"/></g><g class="cls-10"><rect class="cls-11" x="22" y="69" width="46.72" height="27"/></g><path class="cls-1" d="M23,78a8,8,0,0,1,8-8h7l6,4h3l6-4H69.72V94H31a8,8,0,0,1-8-8Z"/><path class="cls-2" d="M22,77a8,8,0,0,1,8-8h7l6,4h3l6-4H68.72V93H30a8,8,0,0,1-8-8Z"/><path class="cls-3" d="M24.35,90.65A8,8,0,0,1,22,85V77h1v8a7.06,7.06,0,0,0,2.05,5ZM23,76.53l-1-.06A8,8,0,0,1,30,69h7.17l6,4h2.7l6-4H68.22v1H52.15l-6,4h-3.3l-6-4H30A7,7,0,0,0,23,76.53Z"/><g class="cls-6"><path class="cls-5" d="M39.35,85.6a3.49,3.49,0,0,1-1.27.74,5,5,0,0,1-1.58.27,4.16,4.16,0,0,1-2-.47,3.17,3.17,0,0,1-1.3-1.34,5,5,0,0,1,0-4.15,3.41,3.41,0,0,1,1.25-1.38,3.47,3.47,0,0,1,1.86-.49,3.19,3.19,0,0,1,1.72.44,2.8,2.8,0,0,1,1.1,1.27,4.6,4.6,0,0,1,.39,2v.22h-5.7v-.8h5l-.4.56a3.19,3.19,0,0,0-.51-2,1.94,1.94,0,0,0-1.6-.7,2.11,2.11,0,0,0-1.72.77A3.36,3.36,0,0,0,34,82.63a3.32,3.32,0,0,0,.65,2.22,2.41,2.41,0,0,0,1.92.75,3.56,3.56,0,0,0,1.26-.22,4,4,0,0,0,1.16-.66Z"/><path class="cls-5" d="M41.33,86.5v-11h1.21v11Z"/><path class="cls-5" d="M47.45,86.61a4.42,4.42,0,0,1-3-1l.41-.9a4.11,4.11,0,0,0,1.24.68,4.17,4.17,0,0,0,1.41.22,2.41,2.41,0,0,0,1.3-.29,1,1,0,0,0,.44-.85.89.89,0,0,0-.3-.71,2.3,2.3,0,0,0-1-.43l-1.27-.3a2.78,2.78,0,0,1-1.46-.75A1.78,1.78,0,0,1,44.69,81a1.93,1.93,0,0,1,.36-1.16,2.34,2.34,0,0,1,1-.79,3.77,3.77,0,0,1,1.53-.28,4.37,4.37,0,0,1,1.5.25,3.32,3.32,0,0,1,1.19.73l-.41.89a4,4,0,0,0-1.1-.67,3.34,3.34,0,0,0-1.18-.22,2.14,2.14,0,0,0-1.25.32,1,1,0,0,0-.44.85,1,1,0,0,0,.28.74,1.89,1.89,0,0,0,.89.42l1.27.32a2.89,2.89,0,0,1,1.57.74,1.77,1.77,0,0,1,.5,1.31A1.84,1.84,0,0,1,49.61,86,3.57,3.57,0,0,1,47.45,86.61Z"/><path class="cls-5" d="M58.52,85.6a3.49,3.49,0,0,1-1.27.74,5,5,0,0,1-1.58.27,4.16,4.16,0,0,1-2-.47,3.17,3.17,0,0,1-1.3-1.34,5,5,0,0,1,0-4.15,3.41,3.41,0,0,1,1.25-1.38,3.46,3.46,0,0,1,1.85-.49,3.2,3.2,0,0,1,1.73.44,2.8,2.8,0,0,1,1.1,1.27,4.6,4.6,0,0,1,.38,2v.22H53v-.8h5l-.39.56a3.19,3.19,0,0,0-.51-2,1.94,1.94,0,0,0-1.6-.7,2.11,2.11,0,0,0-1.72.77,3.36,3.36,0,0,0-.62,2.14,3.32,3.32,0,0,0,.65,2.22,2.4,2.4,0,0,0,1.91.75A3.61,3.61,0,0,0,57,85.38a4,4,0,0,0,1.16-.66Z"/></g><path class="cls-1" d="M117,31a8,8,0,0,1,8-8h32V47H146.5l-6,4h-3l-6-4H125a8,8,0,0,1-8-8Z"/><path class="cls-2" d="M116,30a8,8,0,0,1,8-8h32V46H145.5l-6,4h-3l-6-4H124a8,8,0,0,1-8-8Z"/><path class="cls-3" d="M118.33,43.65A8,8,0,0,1,116,38V30h1v8a7.06,7.06,0,0,0,2,5ZM117,29.53l-1-.06A8,8,0,0,1,124,22h31.52v1H124A7,7,0,0,0,117,29.53Z"/><g class="cls-6"><path class="cls-5" d="M127,28.76h1.49v1.38H127Zm.12,10.74V32h1.22V39.5Z"/><path class="cls-5" d="M129.66,32.92V32h4.52v1Zm4.74-3.35a2.85,2.85,0,0,0-.78-.12,1.56,1.56,0,0,0-.66.13,1,1,0,0,0-.46.46,2.06,2.06,0,0,0-.16.91V39.5h-1.22V30.8a2.5,2.5,0,0,1,.6-1.81,2.27,2.27,0,0,1,1.65-.59,4.36,4.36,0,0,1,.51,0,3.46,3.46,0,0,1,.52.11Z"/></g><rect class="cls-12" width="595.28" height="18"/></g></g></g></g></svg>