<svg xmlns="http://www.w3.org/2000/svg" viewBox="0 0 595.28 60.69"><defs><style>.cls-1{fill:#4c79a6;}.cls-2{fill:#ededee;}.cls-3{font-size:36px;fill:#231f20;font-family:Mulish-Bold, Mulish;font-weight:700;letter-spacing:0em;}.cls-4{letter-spacing:0em;}.cls-5{fill:#eab2b7;}.cls-6{fill:#e28086;}.cls-7{fill:#e5999e;}.cls-8{fill:#f6d4d6;}</style></defs><g id="Layer_2" data-name="Layer 2"><g id="Layer_1-2" data-name="Layer 1"><rect class="cls-1" y="4" width="595.28" height="56.69" rx="11.34"/><rect class="cls-2" width="595.28" height="56.69" rx="11.34"/><text class="cls-3" transform="translate(82.46 38.84)">L<tspan class="cls-4" x="20.05" y="0">ogic</tspan></text><path class="cls-5" d="M48,41.34c-1.22-.91-.16-4.22-.16-5.85l-6.39,1.87,4,7.36a1.69,1.69,0,0,0,3.11-1.26Z"/><path class="cls-6" d="M46,37.36A4.94,4.94,0,0,0,51,42.3h.87A6.42,6.42,0,0,0,58.29,37c-.78.26-2.16-2.56-3-2.56Z"/><path class="cls-5" d="M35.6,37.36H55.8A7.87,7.87,0,0,0,61.38,35a2.69,2.69,0,0,0,0-3.8l-.7-.7.14.13a1.68,1.68,0,0,0,2.87-1.16v0a18.29,18.29,0,0,0-5.32-12.92,1.69,1.69,0,0,0-2.39,0l-.23.23a1.69,1.69,0,0,0-.25-2.59h0A18.27,18.27,0,0,0,45.31,11.1h-1.2a1.68,1.68,0,0,0-1.68,1.68,1.69,1.69,0,0,0-1.69-1.68H37a16.49,16.49,0,0,0-7.83,2,1.68,1.68,0,0,0-.37,2.66l-.42-.42a1.69,1.69,0,0,0-2.31-.06,16.5,16.5,0,0,0-4.45,6.48A6.78,6.78,0,0,0,28,30.91h1.59a.21.21,0,0,1,.21.22c0,.12,0,.25,0,.38a5.85,5.85,0,0,0,5.86,5.85Z"/><path class="cls-7" d="M58.37,16.55a1.69,1.69,0,0,0-2.11-.24,18.27,18.27,0,0,1,4,11.45v0a7.88,7.88,0,0,1-7.88,7.87H32.18a6.66,6.66,0,0,1-.78,0,5.85,5.85,0,0,0,4.2,1.76H55.8A7.87,7.87,0,0,0,61.38,35a2.69,2.69,0,0,0,0-3.8l-.56-.57a1.68,1.68,0,0,0,2.87-1.16v0a18.29,18.29,0,0,0-5.32-12.92Z"/><path class="cls-8" d="M26.36,18c-.24.28-.48.56-.7.86a1,1,0,0,0,.09,1.39v0a1.07,1.07,0,0,0,1.6-.11c.19-.25.39-.49.6-.73a1.07,1.07,0,0,0,0-1.44h0A1.07,1.07,0,0,0,26.36,18Z"/><path class="cls-8" d="M25.89,25.55a2.43,2.43,0,0,1-.4-1.87,1.07,1.07,0,0,0-.28-1,1.06,1.06,0,0,0-1.79.53,4.29,4.29,0,0,0,.71,3.53,4.62,4.62,0,0,0,2.45,1.8,1.07,1.07,0,0,0,1.37-1v0a1.06,1.06,0,0,0-.74-1,2.43,2.43,0,0,1-1.32-1Z"/><path class="cls-7" d="M48.05,25H46.44V18.93a.64.64,0,1,0-1.28,0V25H38.73V18.93a.64.64,0,0,0-1.28,0V25H34.94a6.49,6.49,0,0,0-2.88.67l-3.12-3.12a.64.64,0,1,0-.91.91L31,26.4a6.48,6.48,0,0,0-2.47,4.51h1.07a.2.2,0,0,1,.2.18,5.21,5.21,0,0,1,5.19-4.79H48.05a.64.64,0,0,0,.64-.64.64.64,0,0,0-.64-.64Z"/><path class="cls-7" d="M48.36,30.4a7.8,7.8,0,0,0,5.56-2.3l2-2a.64.64,0,1,0-.91-.91l-2,2a6.49,6.49,0,0,1-4.65,1.93h-11a5.06,5.06,0,0,0-3.58,1.48l-.22.22a.65.65,0,0,0,0,.91.64.64,0,0,0,.91,0l.22-.22a3.76,3.76,0,0,1,2.67-1.11Z"/><path class="cls-7" d="M53.84,35.57a9,9,0,0,0-6.35-2.63h-8a.64.64,0,1,0,0,1.28h8a7.67,7.67,0,0,1,5.44,2.26l.88.88h1.81Z"/><path class="cls-7" d="M56.64,28.9a.64.64,0,1,0,.91.9l1.16-1.15a4.43,4.43,0,0,0,.59-5.49l-.5-.78a.64.64,0,0,0-.88-.2.65.65,0,0,0-.2.89l.5.78a3.14,3.14,0,0,1-.42,3.89Z"/><path class="cls-7" d="M28.37,15.32a1.68,1.68,0,0,0-2.06-.24l3.17,3.17a.64.64,0,0,0,.91,0,.65.65,0,0,0,0-.91Z"/><path class="cls-7" d="M41.78,19.08a.65.65,0,0,0,.65-.65V12.78a1.68,1.68,0,0,0-1.29-1.63v7.28A.65.65,0,0,0,41.78,19.08Z"/><path class="cls-7" d="M56,14.71a1.58,1.58,0,0,0-.5-.53h0a18.06,18.06,0,0,0-3.74-1.91,17.18,17.18,0,0,1,2.41,1.83,1.62,1.62,0,0,1,.07,2.37L51.9,18.8a.65.65,0,0,0,0,.91.63.63,0,0,0,.46.19.61.61,0,0,0,.45-.19l2.94-2.94A1.67,1.67,0,0,0,56,14.71Z"/></g></g></svg>