<svg xmlns="http://www.w3.org/2000/svg" viewBox="0 0 595.4 75"><defs><style>.cls-1,.cls-4{fill:none;}.cls-2{fill:#3c6186;}.cls-3{fill:#4c79a6;}.cls-4{stroke:#81a1c1;}.cls-5{isolation:isolate;font-size:15px;fill:#fff;font-family:Mulish-Regular, Mulish;}.cls-6{letter-spacing:0em;}.cls-7{letter-spacing:0em;}</style></defs><g id="Layer_2" data-name="Layer 2"><g id="Layer_1-2" data-name="Layer 1"><rect class="cls-1" x="0.12" width="595.28" height="18"/><path class="cls-2" d="M9.12,1H81.79V6c0,10-8-8-8,7.5s8-2.5,8,7.5V31c0,10-8-8-8,7.5s8-2.5,8,7.5V56c0,10-8-8-8,7.5s8-2.5,8,7.5v4H9.12V21c0-10-8,8-8-7.5s8,2.5,8-7.5Z"/><path class="cls-3" d="M8.12,0H80.79V5c0,10-8-8-8,7.5s8-2.5,8,7.5V30c0,10-8-8-8,7.5s8-2.5,8,7.5V55c0,10-8-8-8,7.5s8-2.5,8,7.5v4H8.12V20c0-10-8,8-8-7.5s8,2.5,8-7.5Z"/><path class="cls-4" d="M8.62.5H80.29m-4.5,18.8,3.68-2.1M75.79,44.3l3.68-2.1M75.79,69.3l3.68-2.1M8.62,73.5v-55M1.26,18a20.35,20.35,0,0,1,0-11M8.62,8V.5h.5"/><text class="cls-5" transform="translate(18.12 17.5)">te<tspan class="cls-6" x="13.41" y="0">s</tspan><tspan class="cls-7" x="20.77" y="0">t</tspan></text><text class="cls-5" transform="translate(18.12 42.5)">if true</text><text class="cls-5" transform="translate(18.12 67.5)">if <tspan class="cls-6" x="12.54" y="0">f</tspan><tspan x="17.52" y="0">alse</tspan></text></g></g></svg>