<svg xmlns="http://www.w3.org/2000/svg" viewBox="0 0 595.4 67.07"><defs><style>.cls-1,.cls-4{fill:none;}.cls-2{fill:#3c6186;}.cls-3{fill:#4c79a6;}.cls-4{stroke:#81a1c1;}.cls-5{fill:#fff;fill-opacity:0.6;}.cls-6{isolation:isolate;font-size:15px;font-family:Mulish-Regular, Mulish;}.cls-6,.cls-7{fill:#010101;}.cls-8{fill:#bfcde1;}.cls-9{letter-spacing:0em;}</style></defs><g id="Layer_2" data-name="Layer 2"><g id="Layer_1-2" data-name="Layer 1"><rect class="cls-1" x="0.12" width="595.28" height="18"/><path class="cls-2" d="M9.12,1H72.49V26H9.12V21c0-10-8,8-8-7.5s8,2.5,8-7.5Z"/><path class="cls-3" d="M8.12,0H71.49V25H8.12V20c0-10-8,8-8-7.5s8,2.5,8-7.5Z"/><path class="cls-4" d="M8.62.5H71M8.62,24.5v-6M1.26,18a20.35,20.35,0,0,1,0-11M8.62,8V.5h.5"/><rect class="cls-5" x="13.12" y="5" width="53.37" height="16" rx="4"/><text class="cls-6" transform="translate(18.12 17.5)">true</text><polygon class="cls-7" points="55.63 17.31 60.61 8.69 50.65 8.69 55.63 17.31"/><rect class="cls-8" x="13.12" y="31.69" width="53.51" height="35.38" rx="5.67"/><text class="cls-6" transform="translate(17.52 44.56)">true<tspan class="cls-9" x="0" y="18">f</tspan><tspan x="4.98" y="18">alse</tspan></text><polygon class="cls-7" points="55.63 44.38 60.61 35.75 50.65 35.75 55.63 44.38"/></g></g></svg>