<svg xmlns="http://www.w3.org/2000/svg" viewBox="0 0 595.39 67.07"><defs><style>.cls-1{fill:none;}.cls-2{fill:#3c6186;}.cls-3{fill:#4c79a6;}.cls-4{fill:#81a1c1;}.cls-5{opacity:0.6;}.cls-6{fill:#fff;}.cls-7{isolation:isolate;}.cls-8{fill:#010101;}.cls-9{fill:#bfcde1;}</style></defs><g id="Layer_2" data-name="Layer 2"><g id="Layer_1-2" data-name="Layer 1"><rect class="cls-1" x="0.12" width="595.28" height="18"/><path class="cls-2" d="M9.12,1H72.48V26H9.12V21c0-10-8,8-8-7.5s8,2.5,8-7.5Z"/><path class="cls-3" d="M8.12,0H71.48V25H8.12V20c0-10-8,8-8-7.5s8,2.5,8-7.5Z"/><path class="cls-4" d="M9.12,24.5h-1v-6h1ZM.77,18.13a20.9,20.9,0,0,1,0-11.26l1,.26a19.79,19.79,0,0,0,0,10.74ZM9.12,8h-1V0H71V1H9.12Z"/><g class="cls-5"><rect class="cls-6" x="13.12" y="5" width="53.37" height="16" rx="4"/></g><g class="cls-7"><path class="cls-8" d="M18.22,10.92V10h4.85v1ZM23,16.42v1a4.64,4.64,0,0,1-.51.11,4.26,4.26,0,0,1-.54,0,2.33,2.33,0,0,1-1.68-.6,2.41,2.41,0,0,1-.62-1.8V8l1.22-.43V15a2,2,0,0,0,.17.93,1,1,0,0,0,.47.46,1.83,1.83,0,0,0,.68.12,2.49,2.49,0,0,0,.4,0A2.83,2.83,0,0,0,23,16.42Z"/><path class="cls-8" d="M24.54,17.5V12.07c0-.35,0-.7,0-1.06a9.1,9.1,0,0,0-.09-1h1.15l.17,1.86-.17-.05a2.32,2.32,0,0,1,.91-1.49,2.58,2.58,0,0,1,1.57-.5,2.06,2.06,0,0,1,.36,0,1.6,1.6,0,0,1,.33.07l0,1.1a2.76,2.76,0,0,0-.8-.11,2.06,2.06,0,0,0-1.25.34,1.92,1.92,0,0,0-.69.88,2.8,2.8,0,0,0-.22,1.12v4.3Z"/><path class="cls-8" d="M32.64,17.61a2.64,2.64,0,0,1-2-.75,3.23,3.23,0,0,1-.68-2.23V10h1.22v4.65a2.24,2.24,0,0,0,.42,1.5,1.63,1.63,0,0,0,1.27.48,2.14,2.14,0,0,0,1.62-.65,2.41,2.41,0,0,0,.62-1.73V10h1.21V17.5H35.1V15.87l.18-.09a2.49,2.49,0,0,1-1,1.36A2.88,2.88,0,0,1,32.64,17.61Z"/><path class="cls-8" d="M44.8,16.6a3.49,3.49,0,0,1-1.27.74,5,5,0,0,1-1.58.27,4.16,4.16,0,0,1-2-.47,3.17,3.17,0,0,1-1.3-1.34,4.44,4.44,0,0,1-.46-2.09,4.47,4.47,0,0,1,.45-2.06,3.41,3.41,0,0,1,1.25-1.38,3.49,3.49,0,0,1,1.86-.49,3.17,3.17,0,0,1,1.72.44,2.8,2.8,0,0,1,1.1,1.27,4.58,4.58,0,0,1,.39,2v.23h-5.7v-.8h5l-.39.56a3.19,3.19,0,0,0-.52-2,1.94,1.94,0,0,0-1.6-.7,2.11,2.11,0,0,0-1.72.77,3.36,3.36,0,0,0-.62,2.14,3.32,3.32,0,0,0,.65,2.22A2.42,2.42,0,0,0,42,16.6a3.56,3.56,0,0,0,1.26-.22,3.84,3.84,0,0,0,1.17-.67Z"/></g><polygon class="cls-8" points="55.63 17.31 60.6 8.69 50.65 8.69 55.63 17.31"/><rect class="cls-9" x="13.12" y="31.69" width="53.51" height="35.38" rx="5.67"/><g class="cls-7"><path class="cls-8" d="M17.63,38V37h4.84v1Zm4.81,5.5v1a3.22,3.22,0,0,1-.5.11,3.16,3.16,0,0,1-.55,0,2.29,2.29,0,0,1-1.67-.6,2.37,2.37,0,0,1-.62-1.8V35.08l1.21-.43V42.1a2.11,2.11,0,0,0,.17.93,1,1,0,0,0,.48.46,1.6,1.6,0,0,0,.67.13,2.54,2.54,0,0,0,.41,0A2.73,2.73,0,0,0,22.44,43.48Z"/><path class="cls-8" d="M23.94,44.56V39.13c0-.35,0-.7,0-1.05s-.05-.71-.1-1.06H25l.16,1.86L25,38.83a2.33,2.33,0,0,1,.9-1.49,2.67,2.67,0,0,1,1.57-.5l.37,0,.32.07,0,1.11a2.39,2.39,0,0,0-.79-.12,1.92,1.92,0,0,0-1.95,1.22,3.05,3.05,0,0,0-.21,1.12v4.3Z"/><path class="cls-8" d="M32,44.67a2.6,2.6,0,0,1-2-.75,3.17,3.17,0,0,1-.69-2.22V37h1.22v4.65a2.24,2.24,0,0,0,.42,1.5,1.6,1.6,0,0,0,1.28.48A2.12,2.12,0,0,0,33.85,43a2.39,2.39,0,0,0,.62-1.72V37h1.21v7.54H34.5V42.93l.18-.09a2.53,2.53,0,0,1-1,1.36A2.93,2.93,0,0,1,32,44.67Z"/><path class="cls-8" d="M44.21,43.66a3.58,3.58,0,0,1-1.27.74,4.77,4.77,0,0,1-1.58.27,4.13,4.13,0,0,1-2-.47A3.14,3.14,0,0,1,38,42.86a5,5,0,0,1,0-4.15,3.34,3.34,0,0,1,1.25-1.38,3.43,3.43,0,0,1,1.85-.49,3.29,3.29,0,0,1,1.73.44A2.91,2.91,0,0,1,44,38.55a4.76,4.76,0,0,1,.38,2v.22h-5.7V40h5l-.39.55a3.08,3.08,0,0,0-.52-2,1.9,1.9,0,0,0-1.59-.71,2.07,2.07,0,0,0-1.72.78,3.26,3.26,0,0,0-.62,2.13,3.27,3.27,0,0,0,.65,2.22,2.39,2.39,0,0,0,1.91.75,3.89,3.89,0,0,0,1.27-.21,4.15,4.15,0,0,0,1.16-.67Z"/><path class="cls-8" d="M17.63,56V55h4.53v1Zm4.74-3.35a2.85,2.85,0,0,0-.78-.12,1.76,1.76,0,0,0-.66.13,1,1,0,0,0-.45.46,1.92,1.92,0,0,0-.17.91v8.55H19.1v-8.7a2.41,2.41,0,0,1,.6-1.8,2.21,2.21,0,0,1,1.65-.6,4.36,4.36,0,0,1,.51,0,3.1,3.1,0,0,1,.51.11Z"/><path class="cls-8" d="M26.57,62.67a3.34,3.34,0,0,1-1.77-.47,3.22,3.22,0,0,1-1.17-1.35,4.93,4.93,0,0,1-.41-2.07,4.78,4.78,0,0,1,.42-2.07,3.26,3.26,0,0,1,1.18-1.38,3.12,3.12,0,0,1,1.75-.49,2.94,2.94,0,0,1,1.75.51,2.51,2.51,0,0,1,1,1.45l-.18.12V55h1.2v7.54h-1.2v-2l.18.09a2.54,2.54,0,0,1-1,1.46A2.94,2.94,0,0,1,26.57,62.67Zm.24-1a2.08,2.08,0,0,0,1.71-.75,3.43,3.43,0,0,0,.6-2.16,3.35,3.35,0,0,0-.61-2.14,2.08,2.08,0,0,0-1.7-.75,2.13,2.13,0,0,0-1.74.77,3.38,3.38,0,0,0-.62,2.15,3.28,3.28,0,0,0,.62,2.13A2.15,2.15,0,0,0,26.81,61.66Z"/><path class="cls-8" d="M32.67,62.56v-11h1.22v11Z"/><path class="cls-8" d="M38.79,62.67a4.38,4.38,0,0,1-3-1l.4-.9a4.37,4.37,0,0,0,1.24.69,4.51,4.51,0,0,0,1.42.21,2.28,2.28,0,0,0,1.29-.29.94.94,0,0,0,.44-.85.93.93,0,0,0-.29-.71,2.55,2.55,0,0,0-1-.43L38,59.11a2.78,2.78,0,0,1-1.46-.75A1.78,1.78,0,0,1,36,57.07a2,2,0,0,1,.36-1.16,2.45,2.45,0,0,1,1-.79,3.7,3.7,0,0,1,1.53-.28,4.46,4.46,0,0,1,1.5.25,3.25,3.25,0,0,1,1.18.74l-.41.88a3.74,3.74,0,0,0-1.1-.66,3.08,3.08,0,0,0-1.17-.22,2.17,2.17,0,0,0-1.26.31,1,1,0,0,0-.44.86,1,1,0,0,0,.28.73,1.89,1.89,0,0,0,.89.42l1.28.32a3,3,0,0,1,1.56.74,1.79,1.79,0,0,1,.5,1.31A1.84,1.84,0,0,1,41,62.08,3.57,3.57,0,0,1,38.79,62.67Z"/><path class="cls-8" d="M49.86,61.66a3.49,3.49,0,0,1-1.27.74,4.73,4.73,0,0,1-1.58.27,4.16,4.16,0,0,1-2-.47,3.12,3.12,0,0,1-1.3-1.34,4.39,4.39,0,0,1-.46-2.09,4.5,4.5,0,0,1,.45-2.06,3.41,3.41,0,0,1,1.25-1.38,3.46,3.46,0,0,1,1.85-.49,3.29,3.29,0,0,1,1.73.44,2.85,2.85,0,0,1,1.1,1.27,4.6,4.6,0,0,1,.38,2v.22H44.3V58h5l-.39.55a3.14,3.14,0,0,0-.51-2,1.91,1.91,0,0,0-1.6-.71,2.09,2.09,0,0,0-1.72.78,4,4,0,0,0,0,4.35,2.41,2.41,0,0,0,1.92.75,3.79,3.79,0,0,0,1.26-.21,4,4,0,0,0,1.16-.67Z"/></g><polygon class="cls-8" points="55.63 44.38 60.6 35.75 50.65 35.75 55.63 44.38"/></g></g></svg>