<svg xmlns="http://www.w3.org/2000/svg" viewBox="0 0 595.4 78.49"><defs><style>.cls-1,.cls-4{fill:none;}.cls-2{fill:#3c6186;}.cls-3{fill:#4c79a6;}.cls-4{stroke:#81a1c1;}.cls-5{fill:#fff;fill-opacity:0.6;}.cls-6{isolation:isolate;font-size:15px;font-family:Mulish-Regular, Mulish;}.cls-6,.cls-7{fill:#010101;}.cls-8{fill:#bfcde1;}</style></defs><g id="Layer_2" data-name="Layer 2"><g id="Layer_1-2" data-name="Layer 1"><rect class="cls-1" x="0.12" width="595.28" height="18"/><path class="cls-2" d="M9.12,1H132.77V36H9.12V21c0-10-8,8-8-7.5s8,2.5,8-7.5Zm30.5,5H25.12v5c0,10-8-8-8,7.5s8-2.5,8,7.5v6h14.5Zm83.15,0h-14.5v5c0,10-8-8-8,7.5s8-2.5,8,7.5v6h14.5Z"/><path class="cls-3" d="M8.12,0H131.77V35H8.12V20c0-10-8,8-8-7.5s8,2.5,8-7.5Zm30.5,5H24.12v5c0,10-8-8-8,7.5s8-2.5,8,7.5v6h14.5Zm83.15,0h-14.5v5c0,10-8-8-8,7.5s8-2.5,8,7.5v6h14.5Z"/><path class="cls-4" d="M8.62.5h19m0,0H131.27M8.62,34.5v-16M1.26,18a20.35,20.35,0,0,1,0-11M8.62,8V.5h.5m30,5v26H24.62M19,24.3l3.68-2.1M122.27,5.5v26h-14.5m-5.6-7.2,3.68-2.1"/><rect class="cls-5" x="43.62" y="10" width="52.65" height="16" rx="4"/><text class="cls-6" transform="translate(48.62 22.5)">and</text><polygon class="cls-7" points="84.41 22.31 89.39 13.69 79.44 13.69 84.41 22.31"/><rect class="cls-8" x="43.62" y="41.69" width="52.24" height="36.79" rx="5.67"/><text class="cls-6" transform="translate(48.02 54.56)">and<tspan x="0" y="18">or</tspan></text><polygon class="cls-7" points="84.41 54.38 89.39 45.75 79.44 45.75 84.41 54.38"/></g></g></svg>