<svg xmlns="http://www.w3.org/2000/svg" viewBox="0 0 595.28 202.5"><defs><style>.cls-1{fill:#3c6186;}.cls-2{fill:#4c79a6;}.cls-10,.cls-3{fill:none;}.cls-3{stroke:#81a1c1;}.cls-4{fill:#3a53a4;stroke:#fff;}.cls-5,.cls-6,.cls-7{fill:#fff;}.cls-6{font-size:15px;font-family:Mulish-Regular, Mulish;}.cls-7{stroke:#ddd;}.cls-8{fill:#def1f0;fill-opacity:0.9;}.cls-9{fill:#010101;fill-opacity:0;}</style></defs><g id="Layer_2" data-name="Layer 2"><g id="Layer_1-2" data-name="Layer 1"><path class="cls-1" d="M32.25,148.5a8,8,0,0,1,8-8h7l6,4h3l6-4H99.43v5c0,10-8-8-8,7.5s8-2.5,8,7.5v4h0l-6,4h-3l-6-4h-7a8,8,0,0,0-8,8v8a8,8,0,0,0,8,8h22v10H61.75l-6,4h-3l-6-4h-6.5a8,8,0,0,1-8-8Z"/><path class="cls-2" d="M31.25,147.5a8,8,0,0,1,8-8h7l6,4h3l6-4H98.43v5c0,10-8-8-8,7.5s8-2.5,8,7.5v4h0l-6,4h-3l-6-4h-7a8,8,0,0,0-8,8v8a8,8,0,0,0,8,8h22v10H60.75l-6,4h-3l-6-4h-6.5a8,8,0,0,1-8-8Z"/><path class="cls-3" d="M31.75,147a7.49,7.49,0,0,1,7.5-7h7l6,4h3l6-4H97.93m-4.5,18.8,3.68-2.1M70.42,185.51a8.52,8.52,0,0,0,6,2.49h21.5m-64,6.8a7.5,7.5,0,0,1-2.19-5.3v-42"/><rect class="cls-4" x="41.25" y="144.5" width="16" height="16" rx="4"/><path class="cls-5" d="M45.45,151.8v1.36l-.92.68-.11.41.9,1.56.41.11,1-.46,1.19.69.13,1.13.3.3h1.8l.3-.3.12-1.14,1.19-.68,1,.46.41-.11.9-1.56-.11-.41-.92-.68V151.8l.92-.68.11-.41-.9-1.56-.41-.11-1,.46-1.19-.68-.12-1.14-.3-.3h-1.8l-.3.3L48,148.82l-1.19.68-1-.46-.41.11-.9,1.56.11.41Z"/><circle class="cls-4" cx="49.25" cy="152.5" r="2.7"/><text class="cls-6" transform="translate(68.25 157)">if</text><text class="cls-6" transform="translate(41.25 181)">do</text><path class="cls-2" d="M85.22,56c-19.3,16.66-31.57,90-31.57,90s40.82-57.39,60.11-74Z"/><rect class="cls-2" width="198.98" height="128" rx="6"/><rect class="cls-7" x="6" y="6" width="186.98" height="116"/><path class="cls-8" d="M6,6H92a8,8,0,0,1,8,8V114a8,8,0,0,1-8,8H6Z"/><rect class="cls-9" x="22" y="16" width="58.98" height="29"/><path class="cls-1" d="M23,25a8,8,0,0,1,8-8h7l6,4h3l6-4H82V41H52.5l-6,4h-3l-6-4H31a8,8,0,0,1-8-8Z"/><path class="cls-2" d="M22,24a8,8,0,0,1,8-8h7l6,4h3l6-4H81V40H51.5l-6,4h-3l-6-4H30a8,8,0,0,1-8-8Z"/><path class="cls-3" d="M22.5,23.5a7.5,7.5,0,0,1,7.5-7h7l6,4h3l6-4H80.48M24.7,37.3A7.47,7.47,0,0,1,22.5,32V24"/><text class="cls-6" transform="translate(32 33.5)">else if</text><rect class="cls-9" x="22" y="69" width="46.72" height="27"/><path class="cls-1" d="M23,78a8,8,0,0,1,8-8h7l6,4h3l6-4H69.72V94H31a8,8,0,0,1-8-8Z"/><path class="cls-2" d="M22,77a8,8,0,0,1,8-8h7l6,4h3l6-4H68.72V93H30a8,8,0,0,1-8-8Z"/><path class="cls-3" d="M22.5,76.5a7.5,7.5,0,0,1,7.5-7h7l6,4h3l6-4H68.22M24.7,90.3A7.47,7.47,0,0,1,22.5,85V77"/><text class="cls-6" transform="translate(32 86.5)">else</text><path class="cls-1" d="M117,31a8,8,0,0,1,8-8h32V47h-10.5l-6,4h-3l-6-4H125a8,8,0,0,1-8-8Z"/><path class="cls-2" d="M116,30a8,8,0,0,1,8-8h32V46h-10.5l-6,4h-3l-6-4H124a8,8,0,0,1-8-8Z"/><path class="cls-3" d="M116.48,29.5a7.5,7.5,0,0,1,7.5-7h31.5m-36.8,20.8a7.47,7.47,0,0,1-2.2-5.3V30"/><text class="cls-6" transform="translate(125.98 39.5)">if</text><rect class="cls-10" width="595.28" height="18"/></g></g></svg>