<svg xmlns="http://www.w3.org/2000/svg" viewBox="0 0 595.28 60.69"><defs><style>.cls-1{fill:#4da649;}.cls-2{fill:#ededee;}.cls-3{font-size:36px;fill:#231f20;font-family:Mulish-Bold, Mulish;font-weight:700;letter-spacing:0em;}.cls-4{letter-spacing:0em;}.cls-5{fill:#e95d30;}.cls-6{fill:#c64f28;}.cls-7{fill:#82b941;}</style></defs><g id="Layer_2" data-name="Layer 2"><g id="Layer_1-2" data-name="Layer 1"><rect class="cls-1" y="4" width="595.28" height="56.69" rx="11.34"/><rect class="cls-2" width="595.28" height="56.69" rx="11.34"/><text class="cls-3" transform="translate(82.46 38.84)">L<tspan class="cls-4" x="20.05" y="0">oops</tspan></text><path class="cls-5" d="M59.91,28.86l-6,3.11a.73.73,0,0,0-.34.41l-1,3.19a.43.43,0,0,0,.61.51l3-1.58a.17.17,0,0,1,.24.21A13.38,13.38,0,0,1,44.52,43.2a9,9,0,1,1-.9-18,.43.43,0,0,0,.41-.43V21.39a.42.42,0,0,0-.44-.43A13.24,13.24,0,0,0,44,47.43a17.61,17.61,0,0,0,16.29-11,.17.17,0,0,1,.31,0l1.23,2.36a.43.43,0,0,0,.79-.07l1-3.2a.67.67,0,0,0,0-.52l-3.12-6a.43.43,0,0,0-.58-.18Z"/><path class="cls-1" d="M24.94,27.83l6-3.11a.74.74,0,0,0,.34-.4l1-3.2a.43.43,0,0,0-.61-.51l-3,1.58a.17.17,0,0,1-.24-.21,13.37,13.37,0,0,1,12-8.48,9,9,0,1,1,.9,18,.43.43,0,0,0-.41.43v3.37a.44.44,0,0,0,.44.43,13.24,13.24,0,0,0-.44-26.47,17.6,17.6,0,0,0-16.29,11,.17.17,0,0,1-.31,0L23,17.89a.43.43,0,0,0-.79.07l-1,3.2a.67.67,0,0,0,0,.52l3.12,6a.43.43,0,0,0,.58.18Z"/><path class="cls-6" d="M41.72,21.39v3.36a.43.43,0,0,1-.41.43,9,9,0,1,0,.9,18c.29,0,.58,0,.86-.06a9,9,0,0,1,.55-18,.43.43,0,0,0,.41-.43V21.39a.42.42,0,0,0-.44-.43,13.57,13.57,0,0,0-1.93.2.44.44,0,0,1,.06.23Z"/><path class="cls-6" d="M53.21,36.08l3-1.58a.17.17,0,0,1,.25.17c.19-.37.4-.85.57-1.29a.17.17,0,0,0-.23-.22l-4.08,2-.14.45a.43.43,0,0,0,.61.51Z"/><path class="cls-6" d="M63.61,35l-3.12-6a.43.43,0,0,0-.58-.18l-1.43.75L61.3,35a.67.67,0,0,1,0,.52L60.9,37l1,1.85a.43.43,0,0,0,.79-.07l1-3.2a.67.67,0,0,0,0-.52Z"/><path class="cls-6" d="M59.82,34.89a.37.37,0,0,0-.66,0c-2.64,6-9.52,12-16.2,12.46.35,0,.71,0,1.07,0a17.61,17.61,0,0,0,16.29-11,.17.17,0,0,1,.28-.06Z"/><path class="cls-7" d="M38,13.5c-5.6.2-10.33,5.06-12.12,10.1l2.67-1.39a.17.17,0,0,1-.2-.23,13.4,13.4,0,0,1,11-8.42h0A8.68,8.68,0,0,0,38,13.5Z"/><path class="cls-7" d="M40.82,9.27c-.42,0-.83,0-1.24,0a13.24,13.24,0,0,1,1.3,26.22.44.44,0,0,0,.38.21,13.24,13.24,0,0,0-.44-26.47Z"/><path class="cls-7" d="M31.64,20.61l-1.84,1-.86,2.74a.74.74,0,0,1-.34.4l-4.53,2.37.29.56a.43.43,0,0,0,.58.18l6-3.11a.74.74,0,0,0,.34-.4l1-3.2A.43.43,0,0,0,31.64,20.61Z"/><path class="cls-7" d="M23.53,22c.25-.54.62-1.13.93-1.66a.16.16,0,0,1-.24-.06L23,17.89a.43.43,0,0,0-.79.07l-.55,1.77L23.15,22a.22.22,0,0,0,.38,0Z"/></g></g></svg>