<svg xmlns="http://www.w3.org/2000/svg" viewBox="0 0 595.28 100.63"><defs><style>.cls-1{fill:none;}.cls-2{fill:#3e863f;}.cls-3{fill:#4da649;}.cls-4{fill:#81c181;}.cls-5{isolation:isolate;}.cls-6{fill:#fff;}.cls-7{opacity:0.6;}.cls-8{fill:#010101;}.cls-9{fill:#b3d5ae;}</style></defs><g id="Layer_2" data-name="Layer 2"><g id="Layer_1-2" data-name="Layer 1"><rect class="cls-1" width="595.28" height="18"/><path class="cls-2" d="M1,9A8,8,0,0,1,9,1h7l6,4h3l6-4H135.62V6c0,10-8-8-8,7.5s8-2.5,8,7.5v5H68.18l-6,4h-3l-6-4h-7a8,8,0,0,0-8,8v8a8,8,0,0,0,8,8h89.44V60H30.5l-6,4h-3l-6-4H9a8,8,0,0,1-8-8Z"/><path class="cls-3" d="M0,8A8,8,0,0,1,8,0h7l6,4h3l6-4H134.62V5c0,10-8-8-8,7.5s8-2.5,8,7.5v5H67.18l-6,4h-3l-6-4h-7a8,8,0,0,0-8,8v8a8,8,0,0,0,8,8h89.44V59H29.5l-6,4h-3l-6-4H8a8,8,0,0,1-8-8Z"/><path class="cls-4" d="M2.34,56.66A8,8,0,0,1,0,51V8H1V51a7,7,0,0,0,2.05,5ZM134.12,50H45.18a8.94,8.94,0,0,1-6.36-2.64l.71-.7A7.94,7.94,0,0,0,45.18,49h88.94Zm-4.26-30.27-.49-.86,3.68-2.1.49.86ZM1,7.53,0,7.47A8,8,0,0,1,8,0h7.17l6,4h2.7l6-4H134.12V1h-104l-6,4h-3.3l-6-4H8A7,7,0,0,0,1,7.53Z"/><g class="cls-5"><path class="cls-6" d="M11.17,17.5V12.07c0-.35,0-.7,0-1.06s-.05-.71-.1-1.06h1.16l.16,1.87-.16-.05a2.31,2.31,0,0,1,.9-1.49,2.61,2.61,0,0,1,1.57-.51,2.22,2.22,0,0,1,.37,0,1.65,1.65,0,0,1,.32.06l0,1.11a2.69,2.69,0,0,0-.79-.11,2.11,2.11,0,0,0-1.26.34,2.06,2.06,0,0,0-.69.88,3,3,0,0,0-.22,1.11V17.5Z"/><path class="cls-6" d="M22.63,16.6a3.48,3.48,0,0,1-1.27.73,4.74,4.74,0,0,1-1.58.28,4.16,4.16,0,0,1-2-.47,3.17,3.17,0,0,1-1.3-1.34A4.46,4.46,0,0,1,16,13.7a4.45,4.45,0,0,1,.45-2,3.41,3.41,0,0,1,1.25-1.38,3.5,3.5,0,0,1,1.86-.5,3.17,3.17,0,0,1,1.72.45,2.82,2.82,0,0,1,1.1,1.26,4.6,4.6,0,0,1,.39,2v.23h-5.7v-.8h5l-.39.56a3.19,3.19,0,0,0-.52-2,1.91,1.91,0,0,0-1.6-.7,2.11,2.11,0,0,0-1.72.77,3.36,3.36,0,0,0-.62,2.14,3.32,3.32,0,0,0,.65,2.22,2.42,2.42,0,0,0,1.92.75,3.56,3.56,0,0,0,1.26-.22,3.84,3.84,0,0,0,1.17-.67Z"/><path class="cls-6" d="M24.61,20.74V12.07c0-.35,0-.7,0-1.06s-.05-.71-.1-1.06h1.16l.13,1.56-.12.23a2.52,2.52,0,0,1,1-1.46,2.94,2.94,0,0,1,1.75-.51,3.09,3.09,0,0,1,1.74.5,3.35,3.35,0,0,1,1.19,1.38,4.78,4.78,0,0,1,.42,2.07,4.7,4.7,0,0,1-.42,2.06,3.13,3.13,0,0,1-2.93,1.83,2.88,2.88,0,0,1-1.75-.52,2.5,2.5,0,0,1-1-1.45l.16-.15v5.25Zm3.54-4.14a2.09,2.09,0,0,0,1.71-.75,3.28,3.28,0,0,0,.62-2.13,3.36,3.36,0,0,0-.62-2.15,2.06,2.06,0,0,0-1.71-.78,2.09,2.09,0,0,0-1.73.75,3.44,3.44,0,0,0-.6,2.15,3.44,3.44,0,0,0,.6,2.15A2.07,2.07,0,0,0,28.15,16.6Z"/><path class="cls-6" d="M39.79,16.6a3.48,3.48,0,0,1-1.27.73,4.74,4.74,0,0,1-1.58.28,4.16,4.16,0,0,1-2-.47,3.17,3.17,0,0,1-1.3-1.34,4.46,4.46,0,0,1-.46-2.1,4.45,4.45,0,0,1,.45-2,3.41,3.41,0,0,1,1.25-1.38,3.46,3.46,0,0,1,1.85-.5,3.21,3.21,0,0,1,1.73.45,2.82,2.82,0,0,1,1.1,1.26,4.6,4.6,0,0,1,.38,2v.23H34.23v-.8h5l-.39.56a3.19,3.19,0,0,0-.51-2,1.91,1.91,0,0,0-1.6-.7,2.11,2.11,0,0,0-1.72.77,3.36,3.36,0,0,0-.62,2.14A3.32,3.32,0,0,0,35,15.85,2.41,2.41,0,0,0,37,16.6a3.56,3.56,0,0,0,1.26-.22,3.8,3.8,0,0,0,1.16-.67Z"/><path class="cls-6" d="M44.66,17.61a3.23,3.23,0,0,1-1.76-.48,3.11,3.11,0,0,1-1.17-1.35,4.85,4.85,0,0,1-.41-2.06,4.78,4.78,0,0,1,.42-2.07,3.26,3.26,0,0,1,1.18-1.38,3.09,3.09,0,0,1,1.74-.5,3,3,0,0,1,1.76.51,2.52,2.52,0,0,1,1,1.46l-.18.12V10h1.2V17.5h-1.2V15.55l.18.09a2.5,2.5,0,0,1-1,1.45A2.91,2.91,0,0,1,44.66,17.61Zm.24-1a2,2,0,0,0,1.71-.76,3.38,3.38,0,0,0,.6-2.15,3.38,3.38,0,0,0-.6-2.15,2.32,2.32,0,0,0-3.44,0,3.36,3.36,0,0,0-.62,2.15,3.28,3.28,0,0,0,.62,2.13A2.13,2.13,0,0,0,44.9,16.6Z"/><path class="cls-6" d="M49.7,10.91V10h4.85v1Zm4.82,5.51v1l-.5.12a4.58,4.58,0,0,1-.55,0A2.3,2.3,0,0,1,51.8,17a2.36,2.36,0,0,1-.63-1.8V8l1.22-.44V15a2.11,2.11,0,0,0,.17.93,1,1,0,0,0,.47.46,1.83,1.83,0,0,0,.68.12,2.41,2.41,0,0,0,.4,0A2.69,2.69,0,0,0,54.52,16.42Z"/></g><g class="cls-7"><rect class="cls-6" x="58.87" y="5" width="62.75" height="16" rx="4"/></g><g class="cls-5"><path class="cls-8" d="M67.06,17.5,64.27,10h1.28l2.32,6.65h-.39L69.88,10H71l2.37,6.65h-.39L75.3,10h1.2L73.71,17.5H72.54l-2.49-6.8h.66l-2.48,6.8Z"/><path class="cls-8" d="M78.07,17.5v-11h1.22v5l-.2.15a2.55,2.55,0,0,1,1-1.38,3,3,0,0,1,1.7-.48c1.81,0,2.71,1,2.71,3V17.5H83.34V12.82a2.34,2.34,0,0,0-.42-1.54,1.67,1.67,0,0,0-1.32-.49,2.24,2.24,0,0,0-1.68.65,2.38,2.38,0,0,0-.63,1.74V17.5Z"/><path class="cls-8" d="M86.73,6.76h1.48V8.14H86.73Zm.12,10.74V10h1.21V17.5Z"/><path class="cls-8" d="M90.42,17.5v-11h1.21v11Z"/><path class="cls-8" d="M100.17,16.6a3.56,3.56,0,0,1-1.27.73,4.78,4.78,0,0,1-1.58.28,4.13,4.13,0,0,1-2-.47A3.19,3.19,0,0,1,94,15.8a4.58,4.58,0,0,1-.45-2.1,4.45,4.45,0,0,1,.45-2,3.34,3.34,0,0,1,1.25-1.38,3.44,3.44,0,0,1,1.85-.5,3.21,3.21,0,0,1,1.73.45,2.89,2.89,0,0,1,1.1,1.26,4.76,4.76,0,0,1,.38,2v.23H94.6v-.8h5l-.39.56a3.13,3.13,0,0,0-.52-2,1.88,1.88,0,0,0-1.59-.7,2.1,2.1,0,0,0-1.72.77,3.31,3.31,0,0,0-.62,2.14,3.27,3.27,0,0,0,.65,2.22,2.39,2.39,0,0,0,1.91.75,3.65,3.65,0,0,0,1.27-.22,3.92,3.92,0,0,0,1.16-.67Z"/></g><g class="cls-5"><path class="cls-6" d="M17.82,42.5h-1.2v-2l.18.17a2.51,2.51,0,0,1-1,1.45,2.9,2.9,0,0,1-1.75.52,3.17,3.17,0,0,1-1.75-.49,3.26,3.26,0,0,1-1.18-1.38,4.86,4.86,0,0,1-.42-2.08,4.81,4.81,0,0,1,.41-2,3.19,3.19,0,0,1,1.17-1.36,3.35,3.35,0,0,1,1.77-.48,3,3,0,0,1,1.75.52,2.58,2.58,0,0,1,1,1.45l-.2.15V31.46h1.22Zm-3.51-.9a2.06,2.06,0,0,0,1.7-.76,3.38,3.38,0,0,0,.61-2.15,3.38,3.38,0,0,0-.6-2.14,2.08,2.08,0,0,0-1.71-.76,2.15,2.15,0,0,0-1.74.75A3.27,3.27,0,0,0,12,38.66a3.42,3.42,0,0,0,.62,2.17A2.13,2.13,0,0,0,14.31,41.6Z"/><path class="cls-6" d="M23.29,42.61a3.58,3.58,0,0,1-1.88-.49,3.26,3.26,0,0,1-1.25-1.35,5.11,5.11,0,0,1,0-4.15,3.26,3.26,0,0,1,1.25-1.37,3.92,3.92,0,0,1,3.76,0,3.26,3.26,0,0,1,1.25,1.37,5.11,5.11,0,0,1,0,4.15,3.26,3.26,0,0,1-1.25,1.35A3.58,3.58,0,0,1,23.29,42.61Zm0-1A2.12,2.12,0,0,0,25,40.86a3.4,3.4,0,0,0,.61-2.17A3.32,3.32,0,0,0,25,36.54a2.09,2.09,0,0,0-1.71-.75,2.12,2.12,0,0,0-1.72.75A3.32,3.32,0,0,0,21,38.69a3.34,3.34,0,0,0,.61,2.17A2.11,2.11,0,0,0,23.29,41.6Z"/></g><polygon class="cls-8" points="110.83 17.31 115.81 8.69 105.85 8.69 110.83 17.31"/><rect class="cls-9" x="58.87" y="65.69" width="62.9" height="34.94" rx="5.67"/><g class="cls-5"><path class="cls-8" d="M66.47,78.56,63.68,71H65l2.33,6.64h-.39L69.29,71h1.06l2.37,6.64h-.39L74.7,71h1.2l-2.79,7.54H71.94l-2.49-6.79h.66l-2.47,6.79Z"/><path class="cls-8" d="M77.48,78.56v-11h1.21v5l-.19.15a2.61,2.61,0,0,1,1-1.39,3.09,3.09,0,0,1,1.69-.47c1.81,0,2.72,1,2.72,3v4.74H82.74V73.88a2.29,2.29,0,0,0-.42-1.53A1.64,1.64,0,0,0,81,71.86a2.24,2.24,0,0,0-1.68.64,2.38,2.38,0,0,0-.63,1.74v4.32Z"/><path class="cls-8" d="M86.13,67.82h1.49V69.2H86.13Zm.12,10.74V71h1.21v7.54Z"/><path class="cls-8" d="M89.82,78.56v-11H91v11Z"/><path class="cls-8" d="M99.57,77.66a3.49,3.49,0,0,1-1.27.74,4.73,4.73,0,0,1-1.58.27,4.16,4.16,0,0,1-2-.47,3.12,3.12,0,0,1-1.3-1.34,4.39,4.39,0,0,1-.46-2.09,4.5,4.5,0,0,1,.45-2.06,3.41,3.41,0,0,1,1.25-1.38,3.46,3.46,0,0,1,1.85-.49,3.29,3.29,0,0,1,1.73.44,2.85,2.85,0,0,1,1.1,1.27,4.6,4.6,0,0,1,.38,2v.22H94V74h5l-.39.55a3.14,3.14,0,0,0-.51-2,1.91,1.91,0,0,0-1.6-.71,2.09,2.09,0,0,0-1.72.78,4,4,0,0,0,0,4.35,2.4,2.4,0,0,0,1.91.75A3.85,3.85,0,0,0,98,77.45a4,4,0,0,0,1.16-.67Z"/><path class="cls-8" d="M67.11,96.67a2.6,2.6,0,0,1-2-.75,3.17,3.17,0,0,1-.68-2.22V89h1.21v4.65a2.24,2.24,0,0,0,.42,1.5,1.62,1.62,0,0,0,1.28.48A2.14,2.14,0,0,0,68.93,95a2.38,2.38,0,0,0,.61-1.72V89h1.22v7.54H69.57V94.93l.18-.09a2.53,2.53,0,0,1-1,1.36A2.93,2.93,0,0,1,67.11,96.67Z"/><path class="cls-8" d="M73.1,96.56V91.13q0-.52,0-1A9.28,9.28,0,0,0,73,89h1.15l.14,1.56-.15.12a2.61,2.61,0,0,1,1-1.39,3.09,3.09,0,0,1,1.69-.47c1.81,0,2.72,1,2.72,3v4.74H78.36V91.88a2.29,2.29,0,0,0-.42-1.53,1.64,1.64,0,0,0-1.32-.49,2.24,2.24,0,0,0-1.68.64,2.38,2.38,0,0,0-.63,1.74v4.32Z"/><path class="cls-8" d="M80.81,90V89h4.84v1Zm4.81,5.5v1a3.22,3.22,0,0,1-.5.11,3.16,3.16,0,0,1-.55,0,2.29,2.29,0,0,1-1.67-.6,2.37,2.37,0,0,1-.62-1.8V87.08l1.21-.43V94.1a2.11,2.11,0,0,0,.17.93,1,1,0,0,0,.48.46,1.6,1.6,0,0,0,.67.13,2.54,2.54,0,0,0,.41,0A2.73,2.73,0,0,0,85.62,95.48Z"/><path class="cls-8" d="M87,85.82h1.49V87.2H87Zm.12,10.74V89h1.22v7.54Z"/><path class="cls-8" d="M90.69,96.56v-11H91.9v11Z"/></g><polygon class="cls-8" points="110.83 78.38 115.81 69.75 105.85 69.75 110.83 78.38"/></g></g></svg>