<svg xmlns="http://www.w3.org/2000/svg" viewBox="0 0 595.28 100.66"><defs><style>.cls-1,.cls-4{fill:none;}.cls-2{fill:#3e863f;}.cls-3{fill:#4da649;}.cls-4{stroke:#81c181;}.cls-5,.cls-8{isolation:isolate;font-size:15px;font-family:Mulish-Regular, Mulish;}.cls-5,.cls-7{fill:#fff;}.cls-6{letter-spacing:-0.01em;}.cls-7{fill-opacity:0.6;}.cls-8,.cls-9{fill:#010101;}.cls-10{fill:#b3d5ae;}</style></defs><g id="Layer_2" data-name="Layer 2"><g id="Layer_1-2" data-name="Layer 1"><rect class="cls-1" width="595.28" height="18"/><path class="cls-2" d="M1,9A8,8,0,0,1,9,1h7l6,4h3l6-4H135.62V6c0,10-8-8-8,7.5s8-2.5,8,7.5v5H68.18l-6,4h-3l-6-4h-7a8,8,0,0,0-8,8v8a8,8,0,0,0,8,8h89.44V60H30.5l-6,4h-3l-6-4H9a8,8,0,0,1-8-8Z"/><path class="cls-3" d="M0,8A8,8,0,0,1,8,0h7l6,4h3l6-4H134.62V5c0,10-8-8-8,7.5s8-2.5,8,7.5v5H67.18l-6,4h-3l-6-4h-7a8,8,0,0,0-8,8v8a8,8,0,0,0,8,8h89.44V59H29.5l-6,4h-3l-6-4H8a8,8,0,0,1-8-8Z"/><path class="cls-4" d="M.5,7.5A7.5,7.5,0,0,1,8,.5h7l6,4h3l6-4H134.12m-4.5,18.8,3.68-2.1M39.17,47a8.53,8.53,0,0,0,6,2.49h88.94M2.7,56.3A7.47,7.47,0,0,1,.5,51V8"/><text class="cls-5" transform="translate(10 17.5)"><tspan class="cls-6">r</tspan><tspan x="5.28" y="0">epeat</tspan></text><rect class="cls-7" x="58.87" y="5" width="62.75" height="16" rx="4"/><text class="cls-8" transform="translate(63.87 17.5)">while</text><text class="cls-5" transform="translate(10 42.5)">do</text><polygon class="cls-9" points="110.83 17.31 115.81 8.69 105.85 8.69 110.83 17.31"/><rect class="cls-10" x="58.87" y="65.69" width="62.9" height="34.94" rx="5.67"/><text class="cls-8" transform="translate(63.27 78.56)">while<tspan x="0" y="18">until</tspan></text><polygon class="cls-9" points="110.83 78.38 115.81 69.75 105.85 69.75 110.83 78.38"/></g></g></svg>