<svg xmlns="http://www.w3.org/2000/svg" viewBox="0 0 595.28 76"><defs><style>.cls-1,.cls-4,.cls-7{fill:none;}.cls-2{fill:#3e863f;}.cls-3{fill:#4da649;}.cls-4{stroke:#81c181;}.cls-5{fill:#3d4986;}.cls-6{fill:#4c5ba6;}.cls-7{stroke:#818dc1;}.cls-8{opacity:0.6;}.cls-12,.cls-9{fill:#fff;}.cls-10,.cls-12{isolation:isolate;}.cls-11{fill:#010101;}.cls-12{font-size:15px;font-family:Mulish-Regular, Mulish;}.cls-13{letter-spacing:-0.01em;}</style></defs><g id="Layer_2" data-name="Layer 2"><g id="Layer_1-2" data-name="Layer 1"><rect class="cls-1" width="595.28" height="18"/><path class="cls-2" d="M1,9A8,8,0,0,1,9,1h7l6,4h3l6-4H167.23V37h-99l-6,4h-3l-6-4h-7a8,8,0,0,0-8,8v9a8,8,0,0,0,8,8h22V72H30.5l-6,4h-3l-6-4H9a8,8,0,0,1-8-8ZM110.47,6H70.87v5c0,10-8-8-8,7.5s8-2.5,8,7.5v7h39.6Z"/><path class="cls-3" d="M0,8A8,8,0,0,1,8,0h7l6,4h3l6-4H166.23V36h-99l-6,4h-3l-6-4h-7a8,8,0,0,0-8,8v9a8,8,0,0,0,8,8h22V71H29.5l-6,4h-3l-6-4H8a8,8,0,0,1-8-8ZM109.47,5H69.87v5c0,10-8-8-8,7.5s8-2.5,8,7.5v7h39.6Z"/><path class="cls-4" d="M.5,7.5A7.5,7.5,0,0,1,8,.5h7l6,4h3l6-4H66.68m0,0h99M39.17,59a8.53,8.53,0,0,0,6,2.49h21.5m-64,6.8A7.47,7.47,0,0,1,.5,63V8M110,5.5v27H70.37m-5.6-8.2,3.68-2.1"/><path class="cls-5" d="M71.87,7h37.6V32H71.87V27c0-10-8,8-8-7.5s8,2.5,8-7.5Z"/><path class="cls-6" d="M70.87,6h37.6V31H70.87V26c0-10-8,8-8-7.5s8,2.5,8-7.5Z"/><path class="cls-7" d="M71.37,6.5H108m-36.6,24v-6M64,24a20.15,20.15,0,0,1,0-11m7.36,1V6.5h.5"/><g class="cls-8"><rect class="cls-9" x="75.87" y="11" width="27.6" height="16" rx="4"/></g><g class="cls-10"><path class="cls-11" d="M82.79,23.5v-1h5.95v1ZM85.14,23V13.54l.71.36L83,15.74V14.56l2.73-1.74h.71V23Z"/><path class="cls-11" d="M94.37,23.62a3.17,3.17,0,0,1-2.79-1.39,7.22,7.22,0,0,1-1-4.07,7.22,7.22,0,0,1,1-4.07,3.5,3.5,0,0,1,5.58,0,7.17,7.17,0,0,1,.94,4.05,7.26,7.26,0,0,1-.95,4.08A3.16,3.16,0,0,1,94.37,23.62Zm0-1a2,2,0,0,0,1.88-1.08,7.17,7.17,0,0,0,.61-3.36,7,7,0,0,0-.61-3.33,2,2,0,0,0-1.88-1.06,2,2,0,0,0-1.89,1.07,7,7,0,0,0-.6,3.32,7.19,7.19,0,0,0,.6,3.36A2,2,0,0,0,94.37,22.58Z"/></g><text class="cls-12" transform="translate(10 22.5)"><tspan class="cls-13">r</tspan><tspan x="5.28" y="0">epeat</tspan></text><text class="cls-12" transform="translate(119.47 22.5)">times</text><text class="cls-12" transform="translate(10 53.5)">do</text></g></g></svg>