<svg xmlns="http://www.w3.org/2000/svg" viewBox="0 0 595.28 68.69"><defs><style>.cls-1,.cls-4{fill:none;}.cls-2{fill:#3e863f;}.cls-3{fill:#4da649;}.cls-4{stroke:#81c181;}.cls-10,.cls-5{fill:#fff;}.cls-5{fill-opacity:0.6;}.cls-6,.cls-7{fill:#010101;}.cls-10,.cls-7{isolation:isolate;font-size:15px;font-family:Mulish-Regular, Mulish;}.cls-8{letter-spacing:-0.01em;}.cls-9{letter-spacing:0em;}.cls-11{letter-spacing:0em;}.cls-12{fill:#b3d5ae;}.cls-13{letter-spacing:-0.01em;}.cls-14{letter-spacing:-0.01em;}</style></defs><g id="Layer_2" data-name="Layer 2"><g id="Layer_1-2" data-name="Layer 1"><rect class="cls-1" width="595.28" height="18"/><path class="cls-2" d="M1,9A8,8,0,0,1,9,1h7l6,4h3l6-4H156.78V26H9a8,8,0,0,1-8-8Z"/><path class="cls-3" d="M0,8A8,8,0,0,1,8,0h7l6,4h3l6-4H155.78V25H8a8,8,0,0,1-8-8Z"/><path class="cls-4" d="M.5,7.5A7.5,7.5,0,0,1,8,.5h7l6,4h3l6-4H155.28M2.7,22.3A7.47,7.47,0,0,1,.5,17V8"/><rect class="cls-5" x="10" y="5" width="90.58" height="16" rx="4"/><polygon class="cls-6" points="89.83 17.31 94.81 8.69 84.85 8.69 89.83 17.31"/><text class="cls-7" transform="translate(15 17.5)">b<tspan class="cls-8" x="9" y="0">r</tspan><tspan class="cls-9" x="14.28" y="0">eak out</tspan></text><text class="cls-10" transform="translate(105.58 17.5)"><tspan class="cls-11">o</tspan><tspan x="8.56" y="0">f loop</tspan></text><rect class="cls-12" x="10" y="31.69" width="199.77" height="37" rx="5.67"/><text class="cls-7" transform="translate(15 45.54)">b<tspan class="cls-8" x="9" y="0">r</tspan><tspan class="cls-9" x="14.28" y="0">eak out</tspan><tspan x="0" y="18">continue with n</tspan><tspan class="cls-13" x="106.42" y="18">e</tspan><tspan x="114.48" y="18">xt ite</tspan><tspan class="cls-14" x="148.65" y="18">r</tspan><tspan x="153.93" y="18">ation</tspan></text><polygon class="cls-6" points="199.12 45.35 204.1 36.72 194.15 36.72 199.12 45.35"/></g></g></svg>