<svg xmlns="http://www.w3.org/2000/svg" viewBox="0 0 595.28 76"><defs><style>.cls-1,.cls-4,.cls-7{fill:none;}.cls-2{fill:#3e863f;}.cls-3{fill:#4da649;}.cls-4{stroke:#81c181;}.cls-5{fill:#3d4986;}.cls-6{fill:#4c5ba6;}.cls-7{stroke:#818dc1;}.cls-10,.cls-8{fill:#fff;}.cls-8{fill-opacity:0.6;}.cls-10,.cls-9{isolation:isolate;font-size:15px;font-family:Mulish-Regular, Mulish;}.cls-9{fill:#010101;}.cls-11{letter-spacing:-0.01em;}</style></defs><g id="Layer_2" data-name="Layer 2"><g id="Layer_1-2" data-name="Layer 1"><rect class="cls-1" width="595.28" height="18"/><path class="cls-2" d="M1,9A8,8,0,0,1,9,1h7l6,4h3l6-4H167.23V37h-99l-6,4h-3l-6-4h-7a8,8,0,0,0-8,8v9a8,8,0,0,0,8,8h22V72H30.5l-6,4h-3l-6-4H9a8,8,0,0,1-8-8ZM110.47,6H70.87v5c0,10-8-8-8,7.5s8-2.5,8,7.5v7h39.6Z"/><path class="cls-3" d="M0,8A8,8,0,0,1,8,0h7l6,4h3l6-4H166.23V36h-99l-6,4h-3l-6-4h-7a8,8,0,0,0-8,8v9a8,8,0,0,0,8,8h22V71H29.5l-6,4h-3l-6-4H8a8,8,0,0,1-8-8ZM109.47,5H69.87v5c0,10-8-8-8,7.5s8-2.5,8,7.5v7h39.6Z"/><path class="cls-4" d="M.5,7.5A7.5,7.5,0,0,1,8,.5h7l6,4h3l6-4H66.68m0,0h99M39.17,59a8.53,8.53,0,0,0,6,2.49h21.5m-64,6.8A7.47,7.47,0,0,1,.5,63V8M110,5.5v27H70.37m-5.6-8.2,3.68-2.1"/><path class="cls-5" d="M71.87,7h37.6V32H71.87V27c0-10-8,8-8-7.5s8,2.5,8-7.5Z"/><path class="cls-6" d="M70.87,6h37.6V31H70.87V26c0-10-8,8-8-7.5s8,2.5,8-7.5Z"/><path class="cls-7" d="M71.37,6.5H108m-36.6,24v-6M64,24a20.15,20.15,0,0,1,0-11m7.36,1V6.5h.5"/><rect class="cls-8" x="75.87" y="11" width="27.6" height="16" rx="4"/><text class="cls-9" transform="translate(80.87 23.5)">10</text><text class="cls-10" transform="translate(10 22.5)"><tspan class="cls-11">r</tspan><tspan x="5.28" y="0">epeat</tspan></text><text class="cls-10" transform="translate(119.47 22.5)">times</text><text class="cls-10" transform="translate(10 53.5)">do</text></g></g></svg>