<svg xmlns="http://www.w3.org/2000/svg" viewBox="0 0 595.28 134.19"><defs><style>.cls-1,.cls-4,.cls-7{fill:none;}.cls-2{fill:#3e863f;}.cls-3{fill:#4da649;}.cls-4{stroke:#81c181;}.cls-5{fill:#3d4986;}.cls-6{fill:#4c5ba6;}.cls-7{stroke:#818dc1;}.cls-10,.cls-8{fill:#fff;}.cls-8{fill-opacity:0.6;}.cls-10,.cls-9{isolation:isolate;font-size:15px;font-family:Mulish-Regular, Mulish;}.cls-13,.cls-9{fill:#010101;}.cls-11{letter-spacing:-0.01em;}.cls-12{letter-spacing:-0.01em;}.cls-14{fill:#e2e2e2;stroke:#b7b7b7;}.cls-15{letter-spacing:-0.01em;}.cls-16{letter-spacing:0em;}</style></defs><g id="Layer_2" data-name="Layer 2"><g id="Layer_1-2" data-name="Layer 1"><rect class="cls-1" width="595.28" height="18"/><path class="cls-2" d="M1,9A8,8,0,0,1,9,1h7l6,4h3l6-4H363.18V37h-295l-6,4h-3l-6-4h-7a8,8,0,0,0-8,8v9a8,8,0,0,0,8,8h22V72H30.5l-6,4h-3l-6-4H9a8,8,0,0,1-8-8ZM200.77,6H170v5c0,10-8-8-8,7.5s8-2.5,8,7.5v7h30.8Zm79.11,0h-39.6v5c0,10-8-8-8,7.5s8-2.5,8,7.5v7h39.6Zm73.3,0h-30.8v5c0,10-8-8-8,7.5s8-2.5,8,7.5v7h30.8Z"/><path class="cls-3" d="M0,8A8,8,0,0,1,8,0h7l6,4h3l6-4H362.18V36h-295l-6,4h-3l-6-4h-7a8,8,0,0,0-8,8v9a8,8,0,0,0,8,8h22V71H29.5l-6,4h-3l-6-4H8a8,8,0,0,1-8-8ZM199.77,5H169v5c0,10-8-8-8,7.5s8-2.5,8,7.5v7h30.8Zm79.11,0h-39.6v5c0,10-8-8-8,7.5s8-2.5,8,7.5v7h39.6Zm73.3,0h-30.8v5c0,10-8-8-8,7.5s8-2.5,8,7.5v7h30.8Z"/><path class="cls-4" d="M.5,7.5A7.5,7.5,0,0,1,8,.5h7l6,4h3l6-4H66.68m0,0h295M39.17,59a8.53,8.53,0,0,0,6,2.49h21.5m-64,6.8A7.47,7.47,0,0,1,.5,63V8M200.27,5.5v27h-30.8m-5.6-8.2,3.68-2.1M279.38,5.5v27h-39.6m-5.6-8.2,3.68-2.1M352.68,5.5v27h-30.8m-5.6-8.2L320,22.2"/><path class="cls-5" d="M171,7h28.8V32H171V27c0-10-8,8-8-7.5s8,2.5,8-7.5Z"/><path class="cls-6" d="M170,6h28.8V31H170V26c0-10-8,8-8-7.5s8,2.5,8-7.5Z"/><path class="cls-7" d="M170.47,6.5h27.8m-27.8,24v-6m-7.36-.5a20.15,20.15,0,0,1,0-11m7.36,1V6.5h.5"/><rect class="cls-8" x="174.97" y="11" width="18.8" height="16" rx="4"/><text class="cls-9" transform="translate(179.97 23.5)">1</text><path class="cls-5" d="M241.28,7h37.6V32h-37.6V27c0-10-8,8-8-7.5s8,2.5,8-7.5Z"/><path class="cls-6" d="M240.28,6h37.6V31h-37.6V26c0-10-8,8-8-7.5s8,2.5,8-7.5Z"/><path class="cls-7" d="M240.78,6.5h36.6m-36.6,24v-6m-7.36-.5a20.35,20.35,0,0,1,0-11m7.36,1V6.5h.5"/><rect class="cls-8" x="245.28" y="11" width="27.6" height="16" rx="4"/><text class="cls-9" transform="translate(250.28 23.5)">10</text><path class="cls-5" d="M323.38,7h28.8V32h-28.8V27c0-10-8,8-8-7.5s8,2.5,8-7.5Z"/><path class="cls-6" d="M322.38,6h28.8V31h-28.8V26c0-10-8,8-8-7.5s8,2.5,8-7.5Z"/><path class="cls-7" d="M322.88,6.5h27.8m-27.8,24v-6m-7.36-.5a20.35,20.35,0,0,1,0-11m7.36,1V6.5h.5"/><rect class="cls-8" x="327.38" y="11" width="18.8" height="16" rx="4"/><text class="cls-9" transform="translate(332.38 23.5)">1</text><text class="cls-10" transform="translate(10 22.5)">count with</text><rect class="cls-8" x="86.62" y="10" width="29.95" height="16" rx="4"/><text class="cls-9" transform="translate(91.62 22.5)">i</text><text class="cls-10" transform="translate(121.57 22.5)">f<tspan class="cls-11" x="5.05" y="0">r</tspan><tspan x="10.33" y="0">om</tspan></text><text class="cls-10" transform="translate(209.77 22.5)">to</text><text class="cls-10" transform="translate(288.88 22.5)"><tspan class="cls-12">b</tspan><tspan x="8.91" y="0">y</tspan></text><text class="cls-10" transform="translate(10 53.5)">do</text><polygon class="cls-13" points="105.77 22.31 110.75 13.69 100.79 13.69 105.77 22.31"/><rect class="cls-14" x="86.62" y="77.69" width="139.65" height="56" rx="5.67"/><text class="cls-9" transform="translate(91.62 92.06)">i<tspan x="0" y="18">Rename </tspan><tspan class="cls-15" x="61.59" y="18">v</tspan><tspan x="69.46" y="18">ariable...</tspan><tspan x="0" y="36">N</tspan><tspan class="cls-12" x="11.19" y="36">e</tspan><tspan x="19.26" y="36">w </tspan><tspan class="cls-12" x="36.21" y="36">v</tspan><tspan class="cls-16" x="44.08" y="36">ariable...</tspan></text></g></g></svg>