<svg xmlns="http://www.w3.org/2000/svg" viewBox="0 0 595.4 138.32"><defs><style>.cls-1,.cls-4{fill:none;}.cls-2{fill:#3d4986;}.cls-3{fill:#4c5ba6;}.cls-4{stroke:#818dc1;}.cls-5{fill:#fff;fill-opacity:0.6;}.cls-6{isolation:isolate;font-size:15px;font-family:Mulish-Regular, Mulish;}.cls-6,.cls-7{fill:#010101;}.cls-8{fill:#aaacd4;}.cls-9{font-family:MyriadPro-Regular, Myriad Pro;}.cls-10{letter-spacing:0.02em;}</style></defs><g id="Layer_2" data-name="Layer 2"><g id="Layer_1-2" data-name="Layer 1"><rect class="cls-1" x="0.12" width="595.28" height="18"/><path class="cls-2" d="M9.12,1H54.29V26H9.12V21c0-10-8,8-8-7.5s8,2.5,8-7.5Z"/><path class="cls-3" d="M8.12,0H53.29V25H8.12V20c0-10-8,8-8-7.5s8,2.5,8-7.5Z"/><path class="cls-4" d="M8.62.5H52.79M8.62,24.5v-6M1.26,18a20.35,20.35,0,0,1,0-11M8.62,8V.5h.5"/><rect class="cls-5" x="13.12" y="5" width="35.17" height="16" rx="4"/><text class="cls-6" transform="translate(18.12 17.5)">π</text><polygon class="cls-7" points="37.31 17.31 42.29 8.69 32.33 8.69 37.31 17.31"/><rect class="cls-8" x="13.12" y="31.69" width="55.49" height="106.56" rx="5.67"/><text class="cls-6" transform="translate(18.12 44.57)">π<tspan x="0" y="18">e</tspan><tspan class="cls-9"><tspan x="0" y="36">φ</tspan><tspan x="0" y="54">sq</tspan><tspan class="cls-10" x="14.38" y="54">r</tspan><tspan x="19.65" y="54">t(2)</tspan><tspan x="0" y="72">sq</tspan><tspan class="cls-10" x="14.38" y="72">r</tspan><tspan x="19.65" y="72">t(½)</tspan><tspan x="0" y="90">∞</tspan></tspan></text><polygon class="cls-7" points="57.63 44.38 62.61 35.75 52.65 35.75 57.63 44.38"/></g></g></svg>