<svg xmlns="http://www.w3.org/2000/svg" viewBox="0 0 595.28 60.69"><defs><style>.cls-1{fill:#4c5ba6;}.cls-2{fill:#ededee;}.cls-3{font-size:36px;fill:#231f20;font-family:Mulish-Bold, Mulish;font-weight:700;}.cls-4{fill:#7dc790;}.cls-5{fill:#fdcd0c;}.cls-6{fill:#faac19;}.cls-7{fill:#60be75;}.cls-8{fill:#b7d9f2;}.cls-9{fill:#e58e82;}.cls-10{fill:#92c6eb;}.cls-11{fill:#e06d57;}.cls-12{fill:#f6f1f1;}.cls-13{fill:#e2dfe2;}</style></defs><g id="Layer_2" data-name="Layer 2"><g id="Layer_1-2" data-name="Layer 1"><rect class="cls-1" y="4" width="595.28" height="56.69" rx="11.34"/><rect class="cls-2" width="595.28" height="56.69" rx="11.34"/><text class="cls-3" transform="translate(82.46 38.84)">Math</text><path class="cls-4" d="M62.83,49.61H50.63c-.47,0-1.11-.91-1.11-1.38l.37-10.66a.87.87,0,0,1,.86-.86l1.42-2.32H62.83a.86.86,0,0,1,.86.85V48.75A.87.87,0,0,1,62.83,49.61Z"/><path class="cls-5" d="M35.53,49.61H23.09a1.11,1.11,0,0,1-.94-1l.25-13.32a.78.78,0,0,1,.76-.85h9.52l1.5,2.32,2.2,1.38V48.75a.86.86,0,0,1-.85.86Z"/><path class="cls-6" d="M35.53,34.39H32.68v.71a3,3,0,0,0,3,3h.71V35.24a.85.85,0,0,0-.85-.85Z"/><path class="cls-7" d="M49.52,35.55,48.47,36V48.75a.86.86,0,0,0,.85.86H51a.86.86,0,0,1-.86-.86V38a3,3,0,0,0,2.08-2.85v-.71H50Z"/><path class="cls-8" d="M62.83,22.3H52.17L50,19.78,49.58,7.94c0-.47.58-.85,1.05-.85h12.2a.86.86,0,0,1,.86.85V21.45A.86.86,0,0,1,62.83,22.3Z"/><path class="cls-9" d="M32.68,22.3H23.24a1.21,1.21,0,0,1-1.07-1l0-12.85c0-.47.55-1.35,1-1.35H35.53a.85.85,0,0,1,.85.85V18.6l-2.3,1.17Z"/><path class="cls-6" d="M22.79,48.75V35.24a.85.85,0,0,1,.85-.85H22a.85.85,0,0,0-.85.85V48.75a.86.86,0,0,0,.85.86h1.62A.86.86,0,0,1,22.79,48.75Z"/><path class="cls-10" d="M50.09,18.74V7.94A.85.85,0,0,1,51,7.09H49.32a.85.85,0,0,0-.85.85v12.8l1,.47L50,22.3h2.14v-.71a3,3,0,0,0-2.08-2.85Z"/><path class="cls-11" d="M22.79,21.45V7.94a.85.85,0,0,1,.85-.85H22a.85.85,0,0,0-.85.85V21.45a.85.85,0,0,0,.85.85h1.62A.85.85,0,0,1,22.79,21.45Z"/><path class="cls-11" d="M36.38,20.74V18.6h-.71a3,3,0,0,0-3,3v.71h2.14l.51-1.15Z"/><path class="cls-12" d="M32.3,13.36H30.57a.45.45,0,0,1-.46-.46V11.17a.92.92,0,0,0-.92-.92h-.83a.92.92,0,0,0-.92.92V12.9a.45.45,0,0,1-.46.46H25.25a.92.92,0,0,0-.92.92v.83a.92.92,0,0,0,.92.92H27a.45.45,0,0,1,.46.46v1.73a.92.92,0,0,0,.92.92h.83a.92.92,0,0,0,.92-.92V16.49a.45.45,0,0,1,.46-.46H32.3a.92.92,0,0,0,.92-.92v-.83A.92.92,0,0,0,32.3,13.36Z"/><path class="cls-12" d="M32.21,43.55,31,42.32a.48.48,0,0,1,0-.65l1.23-1.22a.92.92,0,0,0,0-1.3l-.59-.59a.91.91,0,0,0-1.29,0L29.1,39.79a.46.46,0,0,1-.65,0l-1.23-1.23a.91.91,0,0,0-1.29,0l-.59.59a.92.92,0,0,0,0,1.3l1.22,1.22a.46.46,0,0,1,0,.65l-1.22,1.23a.92.92,0,0,0,0,1.3l.59.59a.92.92,0,0,0,1.29,0l1.23-1.23a.46.46,0,0,1,.65,0l1.23,1.23a.92.92,0,0,0,1.29,0l.59-.59a.92.92,0,0,0,0-1.3Z"/><path class="cls-12" d="M51.63,15.2v-1a.83.83,0,0,1,.83-.83h7.23a.83.83,0,0,1,.83.83v1a.83.83,0,0,1-.83.83H52.46A.83.83,0,0,1,51.63,15.2Z"/><path class="cls-12" d="M52.89,45.89l-.71-.71a.83.83,0,0,1,0-1.17l5.91-5.91a.83.83,0,0,1,1.17,0l.71.71A.83.83,0,0,1,60,40l-5.9,5.9A.83.83,0,0,1,52.89,45.89Z"/><circle class="cls-12" cx="52.37" cy="38.29" r="1.43"/><circle class="cls-12" cx="59.78" cy="45.7" r="1.43"/><path class="cls-12" d="M49.18,36H36.81c-.47,0-.7-.39-.7-.86l-.32-13.51c0-.47.78-.85,1.25-.85H49.18a.85.85,0,0,1,.85.85V35.1A.86.86,0,0,1,49.18,36Z"/><path class="cls-13" d="M36.54,35.1V21.59a.85.85,0,0,1,.86-.85H35.67a.85.85,0,0,0-.85.85V35.1a.86.86,0,0,0,.85.86H37.4A.86.86,0,0,1,36.54,35.1Z"/><path class="cls-1" d="M38,26.2v-1a.83.83,0,0,1,.83-.83H46a.83.83,0,0,1,.83.83v1A.83.83,0,0,1,46,27H38.81A.83.83,0,0,1,38,26.2Z"/><path class="cls-1" d="M38,31.5v-1a.83.83,0,0,1,.83-.83H46a.83.83,0,0,1,.83.83v1a.83.83,0,0,1-.83.83H38.81A.83.83,0,0,1,38,31.5Z"/></g></g></svg>