<svg xmlns="http://www.w3.org/2000/svg" viewBox="0 0 595.4 37"><defs><style>.cls-1,.cls-4{fill:none;}.cls-2{fill:#3d4986;}.cls-3{fill:#4c5ba6;}.cls-4{stroke:#818dc1;}.cls-5,.cls-7{fill:#fff;}.cls-5{fill-opacity:0.6;}.cls-6,.cls-7{isolation:isolate;font-size:15px;font-family:Mulish-Regular, Mulish;}.cls-6{fill:#010101;}.cls-8{letter-spacing:-0.01em;}.cls-9{letter-spacing:-0.01em;}.cls-10{letter-spacing:0em;}.cls-11{letter-spacing:-0.01em;}.cls-12{letter-spacing:0em;}</style></defs><g id="Layer_2" data-name="Layer 2"><g id="Layer_1-2" data-name="Layer 1"><rect class="cls-1" x="0.12" width="595.28" height="18"/><path class="cls-2" d="M9.12,1H307.47V37H9.12V21c0-10-8,8-8-7.5s8,2.5,8-7.5Zm103.1,5H97.72v5c0,10-8-8-8,7.5s8-2.5,8,7.5v6h14.5Zm81.33,0h-30.8v5c0,10-8-8-8,7.5s8-2.5,8,7.5v7h30.8ZM297.47,6h-48.4v5c0,10-8-8-8,7.5s8-2.5,8,7.5v7h48.4Z"/><path class="cls-3" d="M8.12,0H306.47V36H8.12V20c0-10-8,8-8-7.5s8,2.5,8-7.5Zm103.1,5H96.72v5c0,10-8-8-8,7.5s8-2.5,8,7.5v6h14.5Zm81.33,0h-30.8v5c0,10-8-8-8,7.5s8-2.5,8,7.5v7h30.8ZM296.47,5h-48.4v5c0,10-8-8-8,7.5s8-2.5,8,7.5v7h48.4Z"/><path class="cls-4" d="M8.62.5h19m0,0H306M8.62,35.5v-17M1.26,18a20.35,20.35,0,0,1,0-11M8.62,8V.5h.5m102.6,5v26H97.22m-5.6-7.2,3.68-2.1M193.05,5.5v27h-30.8m-5.6-8.2,3.68-2.1M297,5.5v27h-48.4M243,24.3l3.68-2.1"/><path class="cls-2" d="M163.75,7h28.8V32h-28.8V27c0-10-8,8-8-7.5s8,2.5,8-7.5Z"/><path class="cls-3" d="M162.75,6h28.8V31h-28.8V26c0-10-8,8-8-7.5s8,2.5,8-7.5Z"/><path class="cls-4" d="M163.25,6.5h27.8m-27.8,24v-6m-7.36-.5a20.35,20.35,0,0,1,0-11m7.36,1V6.5h.5"/><rect class="cls-5" x="167.75" y="11" width="18.8" height="16" rx="4"/><text class="cls-6" transform="translate(172.75 23.5)">1</text><path class="cls-2" d="M250.07,7h46.4V32h-46.4V27c0-10-8,8-8-7.5s8,2.5,8-7.5Z"/><path class="cls-3" d="M249.07,6h46.4V31h-46.4V26c0-10-8,8-8-7.5s8,2.5,8-7.5Z"/><path class="cls-4" d="M249.57,6.5H295m-45.4,24v-6m-7.36-.5a20.35,20.35,0,0,1,0-11m7.36,1V6.5h.5"/><rect class="cls-5" x="254.07" y="11" width="36.4" height="16" rx="4"/><text class="cls-6" transform="translate(259.07 23.5)">100</text><text class="cls-7" transform="translate(18.12 22.5)">con<tspan class="cls-8" x="24.78" y="0">s</tspan><tspan x="32.14" y="0">t</tspan><tspan class="cls-9" x="37.39" y="0">r</tspan><tspan class="cls-10" x="42.67" y="0">ain</tspan></text><text class="cls-7" transform="translate(121.22 22.5)">l<tspan class="cls-11" x="3.57" y="0">o</tspan><tspan class="cls-12" x="12.06" y="0">w</tspan></text><text class="cls-7" transform="translate(202.55 22.5)">high</text></g></g></svg>