<svg xmlns="http://www.w3.org/2000/svg" viewBox="0 0 595.28 88.19"><defs><style>.cls-1,.cls-4{fill:none;}.cls-2{fill:#3d4986;}.cls-3{fill:#4c5ba6;}.cls-4{stroke:#818dc1;}.cls-5,.cls-7{fill:#fff;}.cls-5{fill-opacity:0.6;}.cls-6,.cls-7{isolation:isolate;font-size:15px;font-family:Mulish-Regular, Mulish;}.cls-6,.cls-9{fill:#010101;}.cls-8{letter-spacing:-0.01em;}.cls-10{fill:#e2e2e2;stroke:#b7b7b7;}.cls-11{letter-spacing:-0.01em;}.cls-12{letter-spacing:0em;}</style></defs><g id="Layer_2" data-name="Layer 2"><g id="Layer_1-2" data-name="Layer 1"><rect class="cls-1" width="595.28" height="18"/><path class="cls-2" d="M1,9A8,8,0,0,1,9,1h7l6,4h3l6-4H161.55V6c0,10-8-8-8,7.5s8-2.5,8,7.5v5H30.5l-6,4h-3l-6-4H9a8,8,0,0,1-8-8Z"/><path class="cls-3" d="M0,8A8,8,0,0,1,8,0h7l6,4h3l6-4H160.55V5c0,10-8-8-8,7.5s8-2.5,8,7.5v5H29.5l-6,4h-3l-6-4H8a8,8,0,0,1-8-8Z"/><path class="cls-4" d="M.5,7.5A7.5,7.5,0,0,1,8,.5h7l6,4h3l6-4H160.05m-4.5,18.8,3.68-2.1M2.7,22.3A7.47,7.47,0,0,1,.5,17V8"/><path class="cls-2" d="M162.55,1h28.8V26h-28.8V21c0-10-8,8-8-7.5s8,2.5,8-7.5Z"/><path class="cls-3" d="M161.55,0h28.8V25h-28.8V20c0-10-8,8-8-7.5s8,2.5,8-7.5Z"/><path class="cls-4" d="M162.05.5h27.8m-27.8,24v-6m-7.36-.5a20.35,20.35,0,0,1,0-11m7.36,1V.5h.5"/><rect class="cls-5" x="166.55" y="5" width="18.8" height="16" rx="4"/><text class="cls-6" transform="translate(171.55 17.5)">1</text><text class="cls-7" transform="translate(10 17.5)">change</text><rect class="cls-5" x="65.08" y="5" width="55.97" height="16" rx="4"/><text class="cls-6" transform="translate(70.08 17.5)">item</text><text class="cls-7" transform="translate(126.05 17.5)"><tspan class="cls-8">b</tspan><tspan x="8.91" y="0">y</tspan></text><polygon class="cls-9" points="109.07 17.31 114.05 8.69 104.09 8.69 109.07 17.31"/><rect class="cls-10" x="65.08" y="31.69" width="139.65" height="56" rx="5.67"/><text class="cls-6" transform="translate(70.08 46.06)">item<tspan x="0" y="18">Rename </tspan><tspan class="cls-11" x="61.59" y="18">v</tspan><tspan x="69.46" y="18">ariable...</tspan><tspan x="0" y="36">N</tspan><tspan class="cls-8" x="11.19" y="36">e</tspan><tspan x="19.26" y="36">w </tspan><tspan class="cls-8" x="36.21" y="36">v</tspan><tspan class="cls-12" x="44.08" y="36">ariable...</tspan></text></g></g></svg>