<svg xmlns="http://www.w3.org/2000/svg" viewBox="0 0 595.4 37"><defs><style>.cls-1,.cls-4{fill:none;}.cls-2{fill:#3d4986;}.cls-3{fill:#4c5ba6;}.cls-4{stroke:#818dc1;}.cls-5,.cls-7{fill:#fff;}.cls-5{fill-opacity:0.6;}.cls-6,.cls-7{isolation:isolate;font-size:15px;font-family:Mulish-Regular, Mulish;}.cls-6{fill:#010101;}.cls-8{letter-spacing:-0.01em;}.cls-9{letter-spacing:0em;}</style></defs><g id="Layer_2" data-name="Layer 2"><g id="Layer_1-2" data-name="Layer 1"><rect class="cls-1" x="0.12" width="595.28" height="18"/><path class="cls-2" d="M9.12,1H302.89V37H9.12V21c0-10-8,8-8-7.5s8,2.5,8-7.5ZM205,6h-30.8v5c0,10-8-8-8,7.5s8-2.5,8,7.5v7H205Zm87.92,0h-48.4v5c0,10-8-8-8,7.5s8-2.5,8,7.5v7h48.4Z"/><path class="cls-3" d="M8.12,0H301.89V36H8.12V20c0-10-8,8-8-7.5s8,2.5,8-7.5ZM204,5h-30.8v5c0,10-8-8-8,7.5s8-2.5,8,7.5v7H204Zm87.92,0h-48.4v5c0,10-8-8-8,7.5s8-2.5,8,7.5v7h48.4Z"/><path class="cls-4" d="M8.62.5h19m0,0H301.39M8.62,35.5v-17M1.26,18a20.35,20.35,0,0,1,0-11M8.62,8V.5h.5m195.35,5v27h-30.8m-5.6-8.2,3.68-2.1M292.39,5.5v27H244m-5.6-8.2,3.68-2.1"/><path class="cls-2" d="M175.17,7H204V32h-28.8V27c0-10-8,8-8-7.5s8,2.5,8-7.5Z"/><path class="cls-3" d="M174.17,6H203V31h-28.8V26c0-10-8,8-8-7.5s8,2.5,8-7.5Z"/><path class="cls-4" d="M174.67,6.5h27.8m-27.8,24v-6m-7.36-.5a20.35,20.35,0,0,1,0-11m7.36,1V6.5h.5"/><rect class="cls-5" x="179.17" y="11" width="18.8" height="16" rx="4"/><text class="cls-6" transform="translate(184.17 23.5)">1</text><path class="cls-2" d="M245.49,7h46.4V32h-46.4V27c0-10-8,8-8-7.5s8,2.5,8-7.5Z"/><path class="cls-3" d="M244.49,6h46.4V31h-46.4V26c0-10-8,8-8-7.5s8,2.5,8-7.5Z"/><path class="cls-4" d="M245,6.5h45.4M245,30.5v-6m-7.36-.5a20.15,20.15,0,0,1,0-11M245,14V6.5h.5"/><rect class="cls-5" x="249.49" y="11" width="36.4" height="16" rx="4"/><text class="cls-6" transform="translate(254.49 23.5)">100</text><text class="cls-7" transform="translate(18.12 22.5)"><tspan class="cls-8">r</tspan><tspan class="cls-9" x="5.28" y="0">andom integer f</tspan><tspan class="cls-8" x="115.11" y="0">r</tspan><tspan x="120.39" y="0">om</tspan></text><text class="cls-7" transform="translate(213.97 22.5)">to</text></g></g></svg>