<svg xmlns="http://www.w3.org/2000/svg" viewBox="0 0 595.4 138.73"><defs><style>.cls-1,.cls-7{fill:none;}.cls-2{fill:#aaacd4;}.cls-3{isolation:isolate;font-size:15px;font-family:Mulish-Regular, Mulish;}.cls-3,.cls-4{fill:#010101;}.cls-5{fill:#3d4986;}.cls-6{fill:#4c5ba6;}.cls-7{stroke:#818dc1;}.cls-8{fill:#fff;fill-opacity:0.6;}</style></defs><g id="Layer_2" data-name="Layer 2"><g id="Layer_1-2" data-name="Layer 1"><rect class="cls-1" x="0.12" width="595.28" height="18"/><rect class="cls-2" x="13.12" y="31.69" width="46.27" height="107.04" rx="5.67"/><text class="cls-3" transform="translate(18.12 44.56)">sin<tspan x="0" y="18">cos</tspan><tspan x="0" y="36">tan</tspan><tspan x="0" y="54">asin</tspan><tspan x="0" y="72">acos</tspan><tspan x="0" y="90">atan</tspan></text><polygon class="cls-4" points="49.02 44.38 54 35.75 44.04 35.75 49.02 44.38"/><path class="cls-5" d="M9.12,1h63.8V6c0,10-8-8-8,7.5s8-2.5,8,7.5v5H9.12V21c0-10-8,8-8-7.5s8,2.5,8-7.5Z"/><path class="cls-6" d="M8.12,0h63.8V5c0,10-8-8-8,7.5s8-2.5,8,7.5v5H8.12V20c0-10-8,8-8-7.5s8,2.5,8-7.5Z"/><path class="cls-7" d="M8.62.5h62.8m-4.5,18.8,3.68-2.1m-62,7.3v-6M1.26,18a20.35,20.35,0,0,1,0-11M8.62,8V.5h.5"/><rect class="cls-8" x="13.12" y="5" width="45.8" height="16" rx="4"/><text class="cls-3" transform="translate(18.12 17.5)">sin</text><polygon class="cls-4" points="49.02 17.31 54 8.69 44.04 8.69 49.02 17.31"/></g></g></svg>