<svg xmlns="http://www.w3.org/2000/svg" viewBox="0 0 595.4 169.96"><defs><style>.cls-1,.cls-4{fill:none;}.cls-2{fill:#3d4986;}.cls-3{fill:#4c5ba6;}.cls-4{stroke:#818dc1;}.cls-5,.cls-7{isolation:isolate;font-size:15px;font-family:Mulish-Regular, Mulish;}.cls-5,.cls-6{fill:#fff;}.cls-6{fill-opacity:0.6;}.cls-7,.cls-9{fill:#010101;}.cls-8{letter-spacing:-0.01em;}.cls-10{fill:#aaacd4;}.cls-11{letter-spacing:0em;}</style></defs><g id="Layer_2" data-name="Layer 2"><g id="Layer_1-2" data-name="Layer 1"><rect class="cls-1" x="0.12" width="595.28" height="18"/><path class="cls-2" d="M9.12,1H129V36H9.12V21c0-10-8,8-8-7.5s8,2.5,8-7.5Zm30.5,5H25.12v5c0,10-8-8-8,7.5s8-2.5,8,7.5v6h14.5Z"/><path class="cls-3" d="M8.12,0H128V35H8.12V20c0-10-8,8-8-7.5s8,2.5,8-7.5Zm30.5,5H24.12v5c0,10-8-8-8,7.5s8-2.5,8,7.5v6h14.5Z"/><path class="cls-4" d="M8.62.5h19m0,0h99.87M8.62,34.5v-16M1.26,18a20.35,20.35,0,0,1,0-11M8.62,8V.5h.5m30,5v26H24.62M19,24.3l3.68-2.1"/><text class="cls-5" transform="translate(48.62 22.5)">is</text><rect class="cls-6" x="64.37" y="10" width="58.62" height="16" rx="4"/><text class="cls-7" transform="translate(69.37 22.5)"><tspan class="cls-8">ev</tspan><tspan x="15.94" y="0">en</tspan></text><polygon class="cls-9" points="113.74 22.31 118.72 13.69 108.76 13.69 113.74 22.31"/><rect class="cls-10" x="64.37" y="41.69" width="86.6" height="128.27" rx="5.67"/><text class="cls-7" transform="translate(69.37 54.56)"><tspan class="cls-8">ev</tspan><tspan x="15.94" y="0">en</tspan><tspan x="0" y="18">odd</tspan><tspan x="0" y="36">prime</tspan><tspan x="0" y="54">whole</tspan><tspan x="0" y="72">positi</tspan><tspan class="cls-8" x="37.41" y="72">v</tspan><tspan x="45.28" y="72">e</tspan><tspan x="0" y="90">negati</tspan><tspan class="cls-8" x="43.81" y="90">v</tspan><tspan class="cls-11" x="51.69" y="90">e</tspan><tspan x="0" y="108">divisible </tspan><tspan class="cls-8" x="59.76" y="108">b</tspan><tspan x="68.67" y="108">y</tspan></text><polygon class="cls-9" points="139.05 54.38 144.03 45.75 134.07 45.75 139.05 54.38"/></g></g></svg>