<svg xmlns="http://www.w3.org/2000/svg" viewBox="0 0 595.4 85.96"><defs><style>.cls-1,.cls-10{fill:none;}.cls-2{fill:#aaacd4;}.cls-12,.cls-3{isolation:isolate;font-size:15px;font-family:Mulish-Regular, Mulish;}.cls-12,.cls-3,.cls-7{fill:#010101;}.cls-12,.cls-4{letter-spacing:-0.01em;}.cls-5{letter-spacing:0em;}.cls-6{letter-spacing:-0.01em;}.cls-8{fill:#3d4986;}.cls-9{fill:#4c5ba6;}.cls-10{stroke:#818dc1;}.cls-11{fill:#fff;fill-opacity:0.6;}</style></defs><g id="Layer_2" data-name="Layer 2"><g id="Layer_1-2" data-name="Layer 1"><rect class="cls-1" x="0.12" width="595.28" height="18"/><rect class="cls-2" x="13.12" y="31.69" width="91.27" height="54.27" rx="5.67"/><text class="cls-3" transform="translate(18.12 44.56)"><tspan class="cls-4">r<tspan class="cls-5" x="5.28" y="0">ound</tspan><tspan x="0" y="18">r</tspan><tspan class="cls-5" x="5.28" y="18">ound up</tspan></tspan><tspan class="cls-4" x="0" y="36">r</tspan><tspan class="cls-5" x="5.28" y="36">ound d</tspan><tspan class="cls-6" x="53.2" y="36">o</tspan><tspan x="61.69" y="36">wn</tspan></text><polygon class="cls-7" points="92.8 44.38 97.78 35.75 87.82 35.75 92.8 44.38"/><path class="cls-8" d="M9.12,1H93V6c0,10-8-8-8,7.5S93,11,93,21v5H9.12V21c0-10-8,8-8-7.5s8,2.5,8-7.5Z"/><path class="cls-9" d="M8.12,0H92V5c0,10-8-8-8,7.5S92,10,92,20v5H8.12V20c0-10-8,8-8-7.5s8,2.5,8-7.5Z"/><path class="cls-10" d="M8.62.5H91.49M87,19.3l3.68-2.1m-82,7.3v-6M1.26,18a20.35,20.35,0,0,1,0-11M8.62,8V.5h.5"/><rect class="cls-11" x="13.12" y="5" width="65.87" height="16" rx="4"/><text class="cls-12" transform="translate(18.12 17.5)">r<tspan class="cls-5" x="5.28" y="0">ound</tspan></text><polygon class="cls-7" points="71.01 17.31 75.99 8.69 66.03 8.69 71.01 17.31"/></g></g></svg>