<svg xmlns="http://www.w3.org/2000/svg" viewBox="0 0 595.4 157.25"><defs><style>.cls-1,.cls-10{fill:none;}.cls-2{fill:#aaacd4;}.cls-3{isolation:isolate;font-size:15px;font-family:Mulish-Regular, Mulish;}.cls-3,.cls-7{fill:#010101;}.cls-4{letter-spacing:-0.01em;}.cls-5{letter-spacing:0em;}.cls-6{letter-spacing:0em;}.cls-8{fill:#3d4986;}.cls-9{fill:#4c5ba6;}.cls-10{stroke:#818dc1;}.cls-11{fill:#fff;fill-opacity:0.6;}</style></defs><g id="Layer_2" data-name="Layer 2"><g id="Layer_1-2" data-name="Layer 1"><rect class="cls-1" x="0.12" width="595.28" height="18"/><rect class="cls-2" x="13.12" y="31.69" width="104.27" height="125.56" rx="5.67"/><text class="cls-3" transform="translate(18.12 44.56)">squa<tspan class="cls-4" x="34.09" y="0">r</tspan><tspan x="39.37" y="0">e </tspan><tspan class="cls-4" x="51.45" y="0">r</tspan><tspan class="cls-5" x="56.73" y="0">o</tspan><tspan class="cls-6" x="65.31" y="0">o</tspan><tspan x="73.87" y="0">t</tspan><tspan x="0" y="18">absolute</tspan><tspan x="0" y="36">-</tspan><tspan x="0" y="54">ln</tspan><tspan x="0" y="72">log10</tspan><tspan x="0" y="90">e^</tspan><tspan x="0" y="108">10^</tspan></text><polygon class="cls-7" points="106.8 44.38 111.78 35.75 101.82 35.75 106.8 44.38"/><path class="cls-8" d="M9.12,1H131V6c0,10-8-8-8,7.5s8-2.5,8,7.5v5H9.12V21c0-10-8,8-8-7.5s8,2.5,8-7.5Z"/><path class="cls-9" d="M8.12,0H130V5c0,10-8-8-8,7.5s8-2.5,8,7.5v5H8.12V20c0-10-8,8-8-7.5s8,2.5,8-7.5Z"/><path class="cls-10" d="M8.62.5H129.45M125,19.3l3.68-2.1m-120,7.3v-6M1.26,18a20.35,20.35,0,0,1,0-11M8.62,8V.5h.5"/><rect class="cls-11" x="13.12" y="5" width="103.83" height="16" rx="4"/><text class="cls-3" transform="translate(18.12 17.5)">squa<tspan class="cls-4" x="34.09" y="0">r</tspan><tspan x="39.37" y="0">e </tspan><tspan class="cls-4" x="51.45" y="0">r</tspan><tspan class="cls-5" x="56.73" y="0">o</tspan><tspan class="cls-6" x="65.31" y="0">o</tspan><tspan x="73.87" y="0">t</tspan></text><polygon class="cls-7" points="106.8 17.31 111.78 8.69 101.82 8.69 106.8 17.31"/></g></g></svg>