<svg xmlns="http://www.w3.org/2000/svg" viewBox="0 0 595.28 150.84"><defs><style>.cls-1,.cls-4,.cls-7{fill:none;}.cls-2{fill:#85863c;}.cls-3{fill:#a6a64b;}.cls-4{stroke:#c1c181;}.cls-5{fill:#3d4986;}.cls-6{fill:#4c5ba6;}.cls-7{stroke:#818dc1;}.cls-10,.cls-8{fill:#fff;}.cls-8{fill-opacity:0.6;}.cls-10,.cls-9{isolation:isolate;font-size:15px;font-family:Mulish-Regular, Mulish;}.cls-17,.cls-9{fill:#010101;}.cls-11{letter-spacing:0em;}.cls-12{letter-spacing:-0.01em;}.cls-13{letter-spacing:-0.02em;}.cls-14{letter-spacing:0em;}.cls-15{letter-spacing:-0.01em;}.cls-16{letter-spacing:0em;}.cls-18{fill:#d8d6b1;}</style></defs><g id="Layer_2" data-name="Layer 2"><g id="Layer_1-2" data-name="Layer 1"><rect class="cls-1" width="595.28" height="18"/><path class="cls-2" d="M1,9A8,8,0,0,1,9,1h7l6,4h3l6-4H407.6V37H30.5l-6,4h-3l-6-4H9a8,8,0,0,1-8-8ZM274.28,6h-39.6v5c0,10-8-8-8,7.5s8-2.5,8,7.5v7h39.6Z"/><path class="cls-3" d="M0,8A8,8,0,0,1,8,0h7l6,4h3l6-4H406.6V36H29.5l-6,4h-3l-6-4H8a8,8,0,0,1-8-8ZM273.28,5h-39.6v5c0,10-8-8-8,7.5s8-2.5,8,7.5v7h39.6Z"/><path class="cls-4" d="M.5,7.5A7.5,7.5,0,0,1,8,.5h7l6,4h3l6-4h.5m0,0H406.1M2.7,33.3A7.47,7.47,0,0,1,.5,28V8M273.78,5.5v27h-39.6m-5.6-8.2,3.68-2.1"/><path class="cls-5" d="M235.68,7h37.6V32h-37.6V27c0-10-8,8-8-7.5s8,2.5,8-7.5Z"/><path class="cls-6" d="M234.68,6h37.6V31h-37.6V26c0-10-8,8-8-7.5s8,2.5,8-7.5Z"/><path class="cls-7" d="M235.18,6.5h36.6m-36.6,24v-6m-7.36-.5a20.35,20.35,0,0,1,0-11m7.36,1V6.5h.5"/><rect class="cls-8" x="239.68" y="11" width="27.6" height="16" rx="4"/><text class="cls-9" transform="translate(244.68 23.5)">90</text><text class="cls-10" transform="translate(10 22.5)">s<tspan class="cls-11" x="7.44" y="0">e</tspan><tspan x="15.55" y="0">t SE</tspan><tspan class="cls-12" x="42.88" y="0">R</tspan><tspan class="cls-13" x="53.13" y="0">V</tspan><tspan x="63.33" y="0">O f</tspan><tspan class="cls-12" x="83.88" y="0">r</tspan><tspan class="cls-14" x="89.16" y="0">om pin # </tspan></text><rect class="cls-8" x="163.9" y="10" width="35.27" height="16" rx="4"/><text class="cls-9" transform="translate(168.9 22.5)">0</text><text class="cls-10" transform="translate(204.17 22.5)">to</text><text class="cls-10" transform="translate(283.28 22.5)">deg<tspan class="cls-15" x="26.22" y="0">r</tspan><tspan class="cls-16" x="31.5" y="0">ees (0~180)</tspan></text><polygon class="cls-17" points="190.19 22.31 195.17 13.69 185.21 13.69 190.19 22.31"/><rect class="cls-18" x="163.9" y="42.69" width="35.34" height="108.15" rx="5.67"/><text class="cls-9" transform="translate(168.31 55.56)">1<tspan x="0" y="18">2</tspan><tspan x="0" y="36">.</tspan><tspan x="0" y="54">.</tspan><tspan x="0" y="72">A4</tspan><tspan x="0" y="90">A5</tspan></text><polygon class="cls-17" points="191.19 55.38 196.17 46.75 186.21 46.75 191.19 55.38"/></g></g></svg>