<svg xmlns="http://www.w3.org/2000/svg" viewBox="0 0 595.4 139.84"><defs><style>.cls-1,.cls-4{fill:none;}.cls-2{fill:#85863c;}.cls-3{fill:#a6a64b;}.cls-4{stroke:#c1c181;}.cls-11,.cls-5{isolation:isolate;font-size:15px;font-family:Mulish-Regular, Mulish;}.cls-10,.cls-5{fill:#fff;}.cls-6{letter-spacing:-0.01em;}.cls-7{letter-spacing:-0.02em;}.cls-8{letter-spacing:0em;}.cls-9{letter-spacing:-0.01em;}.cls-10{fill-opacity:0.6;}.cls-11,.cls-12{fill:#010101;}.cls-13{fill:#d8d6b1;}</style></defs><g id="Layer_2" data-name="Layer 2"><g id="Layer_1-2" data-name="Layer 1"><rect class="cls-1" x="0.12" width="595.28" height="18"/><path class="cls-2" d="M9.12,1H224.24V26H9.12V21c0-10-8,8-8-7.5s8,2.5,8-7.5Z"/><path class="cls-3" d="M8.12,0H223.24V25H8.12V20c0-10-8,8-8-7.5s8,2.5,8-7.5Z"/><path class="cls-4" d="M8.62.5H222.74M8.62,24.5v-6M1.26,18a20.35,20.35,0,0,1,0-11M8.62,8V.5h.5"/><text class="cls-5" transform="translate(18.12 17.5)"><tspan class="cls-6">r</tspan><tspan x="5.28" y="0">ead SE</tspan><tspan class="cls-6" x="53.52" y="0">R</tspan><tspan class="cls-7" x="63.76" y="0">V</tspan><tspan class="cls-8" x="73.96" y="0">O f</tspan><tspan class="cls-9" x="94.51" y="0">r</tspan><tspan x="99.79" y="0">om pin #</tspan></text><rect class="cls-10" x="182.97" y="5" width="35.27" height="16" rx="4"/><text class="cls-11" transform="translate(187.97 17.5)">0</text><polygon class="cls-12" points="209.26 17.31 214.24 8.69 204.28 8.69 209.26 17.31"/><rect class="cls-13" x="182.97" y="31.69" width="35.34" height="108.15" rx="5.67"/><text class="cls-11" transform="translate(187.38 44.56)">1<tspan x="0" y="18">2</tspan><tspan x="0" y="36">.</tspan><tspan x="0" y="54">.</tspan><tspan x="0" y="72">A4</tspan><tspan x="0" y="90">A5</tspan></text><polygon class="cls-12" points="210.26 44.38 215.24 35.75 205.28 35.75 210.26 44.38"/></g></g></svg>