<svg xmlns="http://www.w3.org/2000/svg" viewBox="0 0 595.28 284.71"><defs><style>.cls-1,.cls-22,.cls-9{fill:none;}.cls-2{fill:#e2e2e2;stroke:#b7b7b7;}.cls-10,.cls-25,.cls-3{isolation:isolate;font-size:15px;font-family:Mulish-Regular, Mulish;}.cls-23,.cls-3{fill:#010101;}.cls-4{letter-spacing:0em;}.cls-5{letter-spacing:0em;}.cls-6{letter-spacing:-0.01em;}.cls-7{fill:#6d863b;}.cls-8{fill:#87a549;}.cls-9{stroke:#abc282;}.cls-10,.cls-14{fill:#fff;}.cls-11{letter-spacing:0em;}.cls-12{letter-spacing:0em;}.cls-13{letter-spacing:0em;}.cls-14{fill-opacity:0.6;}.cls-15{letter-spacing:0.01em;}.cls-16{letter-spacing:0em;}.cls-17{letter-spacing:-0.01em;}.cls-18{letter-spacing:-0.01em;}.cls-19{letter-spacing:-0.01em;}.cls-20{fill:#3d4986;}.cls-21{fill:#4c5ba6;}.cls-22{stroke:#818dc1;}.cls-24{fill:#d8d6b1;}</style></defs><g id="Layer_2" data-name="Layer 2"><g id="Layer_1-2" data-name="Layer 1"><rect class="cls-1" y="0.5" width="595.28" height="18"/><rect class="cls-2" x="153.51" y="0.5" width="139.65" height="37.68" rx="5.67"/><text class="cls-3" transform="translate(158.51 14.87)">My<tspan class="cls-4" x="20.7" y="0">S</tspan><tspan class="cls-5" x="30" y="0">tepper</tspan><tspan x="0" y="18">Rename in</tspan><tspan class="cls-6" x="73.93" y="18">s</tspan><tspan x="81.3" y="18">tance...</tspan></text><path class="cls-7" d="M1,52.87a8,8,0,0,1,8-8H376v80c0,10-8-8-8,7.5s8-2.5,8,7.5v11c0,10-8-8-8,7.5s8-2.5,8,7.5v5H9a8,8,0,0,1-8-8Z"/><path class="cls-8" d="M0,51.87a8,8,0,0,1,8-8H375v80c0,10-8-8-8,7.5s8-2.5,8,7.5v11c0,10-8-8-8,7.5s8-2.5,8,7.5v5H8a8,8,0,0,1-8-8Z"/><path class="cls-9" d="M.5,51.37a7.5,7.5,0,0,1,7.5-7H374.48m-4.5,93.8,3.68-2.1M370,164.17l3.68-2.1m-371,5.1a7.49,7.49,0,0,1-2.2-5.3v-110"/><text class="cls-10" transform="translate(10 61.37)">s<tspan class="cls-11" x="7.44" y="0">e</tspan><tspan x="15.55" y="0">tup </tspan><tspan class="cls-12" x="42.37" y="0">s</tspan><tspan x="49.74" y="0">tepper m</tspan><tspan class="cls-13" x="111.84" y="0">o</tspan><tspan x="120.4" y="0">tor</tspan></text><rect class="cls-14" x="153.45" y="48.87" width="99.82" height="16" rx="4"/><text class="cls-3" transform="translate(158.45 61.37)">My<tspan class="cls-4" x="20.7" y="0">S</tspan><tspan class="cls-5" x="30" y="0">tepper</tspan></text><text class="cls-10" transform="translate(258.27 61.37)"><tspan class="cls-6">s</tspan><tspan x="7.36" y="0">tepper m</tspan><tspan class="cls-13" x="69.46" y="0">o</tspan><tspan x="78.03" y="0">to</tspan><tspan class="cls-15" x="91.86" y="0">r</tspan><tspan x="97.48" y="0">:</tspan></text><text class="cls-10" transform="translate(218.2 86.37)">number <tspan class="cls-13" x="57.12" y="0">o</tspan><tspan class="cls-16" x="65.68" y="0">f pins</tspan></text><rect class="cls-14" x="326.72" y="73.87" width="35.27" height="16" rx="4"/><text class="cls-3" transform="translate(331.72 86.37)">2</text><text class="cls-10" transform="translate(197.35 111.37)">pin1 #</text><rect class="cls-14" x="242.9" y="98.87" width="35.27" height="16" rx="4"/><text class="cls-3" transform="translate(247.9 111.37)">1</text><text class="cls-10" transform="translate(281.17 111.37)">pin2 #</text><rect class="cls-14" x="326.72" y="98.87" width="35.27" height="16" rx="4"/><text class="cls-3" transform="translate(331.72 111.37)">2</text><text class="cls-10" transform="translate(148.8 136.37)">h<tspan class="cls-17" x="8.77" y="0">o</tspan><tspan class="cls-16" x="17.26" y="0">w many </tspan><tspan class="cls-12" x="77.05" y="0">s</tspan><tspan class="cls-5" x="84.42" y="0">teps per </tspan><tspan class="cls-18" x="144.69" y="0">r</tspan><tspan class="cls-19" x="149.97" y="0">ev</tspan><tspan x="165.91" y="0">olution</tspan></text><text class="cls-10" transform="translate(234.48 162.37)">s<tspan class="cls-11" x="7.44" y="0">e</tspan><tspan x="15.55" y="0">t speed (RPM) to</tspan></text><path class="cls-20" d="M377,119.87h46.4v25H377v-5c0-10-8,8-8-7.5s8,2.5,8-7.5Z"/><path class="cls-21" d="M376,118.87h46.4v25H376v-5c0-10-8,8-8-7.5s8,2.5,8-7.5Z"/><path class="cls-22" d="M376.48,119.37h45.4m-45.4,24v-6m-7.36-.5a20.35,20.35,0,0,1,0-11m7.36,1v-7.5h.5"/><rect class="cls-14" x="380.98" y="123.87" width="36.4" height="16" rx="4"/><text class="cls-3" transform="translate(385.98 136.37)">100</text><path class="cls-20" d="M377,145.87h37.6v25H377v-5c0-10-8,8-8-7.5s8,2.5,8-7.5Z"/><path class="cls-21" d="M376,144.87h37.6v25H376v-5c0-10-8,8-8-7.5s8,2.5,8-7.5Z"/><path class="cls-22" d="M376.48,145.37h36.6m-36.6,24v-6m-7.36-.5a20.35,20.35,0,0,1,0-11m7.36,1v-7.5h.5"/><rect class="cls-14" x="380.98" y="149.87" width="27.6" height="16" rx="4"/><text class="cls-3" transform="translate(385.98 162.37)">10</text><polygon class="cls-23" points="353.01 86.18 357.98 77.56 348.03 77.56 353.01 86.18"/><polygon class="cls-23" points="353.01 111.18 357.98 102.56 348.03 102.56 353.01 111.18"/><polygon class="cls-23" points="269.19 111.18 274.17 102.56 264.21 102.56 269.19 111.18"/><polygon class="cls-23" points="244.29 61.18 249.27 52.56 239.31 52.56 244.29 61.18"/><rect class="cls-24" x="111.49" y="176.56" width="35.34" height="35.18" rx="5.67"/><text class="cls-3" transform="translate(115.9 189.43)">2<tspan x="0" y="18">4</tspan></text><polygon class="cls-23" points="138.78 189.24 143.76 180.62 133.8 180.62 138.78 189.24"/><text class="cls-25" transform="translate(0 189.4)">number <tspan class="cls-13" x="57.12" y="0">o</tspan><tspan class="cls-16" x="65.68" y="0">f pins</tspan></text><text class="cls-25" transform="translate(161.11 189.4)">pin1 # &amp; pin2 #</text><rect class="cls-24" x="269.49" y="176.56" width="35.34" height="108.15" rx="5.67"/><text class="cls-3" transform="translate(273.9 189.43)">1<tspan x="0" y="18">2</tspan><tspan x="0" y="36">.</tspan><tspan x="0" y="54">.</tspan><tspan x="0" y="72">A4</tspan><tspan x="0" y="90">A5</tspan></text><polygon class="cls-23" points="296.78 189.24 301.76 180.62 291.8 180.62 296.78 189.24"/></g></g></svg>