<svg xmlns="http://www.w3.org/2000/svg" viewBox="0 0 595.28 250.14"><defs><style>.cls-1{fill:#2395bc;}.cls-2{fill:#27aae1;}.cls-3{fill:#727373;}.cls-4,.cls-6{fill:#2d2d2d;}.cls-5,.cls-6{opacity:0.5;}.cls-7{font-size:14px;fill:#231f20;font-family:Mulish-Regular, Mulish;}.cls-8{letter-spacing:-0.01em;}.cls-9{letter-spacing:-0.02em;}.cls-10{letter-spacing:0em;}.cls-11{letter-spacing:0em;}.cls-12{letter-spacing:-0.01em;}.cls-13{fill:#666566;}.cls-14{fill:none;}</style></defs><g id="Layer_2" data-name="Layer 2"><g id="Layer_1-2" data-name="Layer 1"><rect class="cls-1" x="92.5" y="74.64" width="59" height="31" rx="7.5"/><rect class="cls-1" x="93" y="219.14" width="59" height="31" rx="7.5"/><path class="cls-2" d="M155.38,234.64H89.62a9.12,9.12,0,0,1-9.12-9.12L80,99.26a9.12,9.12,0,0,1,9.12-9.12h65.76A9.12,9.12,0,0,1,164,99.26l.5,126.26A9.12,9.12,0,0,1,155.38,234.64Z"/><path class="cls-3" d="M156.28,137.67A34.28,34.28,0,0,0,121,103.4c-16.66.47-31.95,15-33.19,31.64a34.19,34.19,0,0,0,8.75,25.62,28.76,28.76,0,0,1,7.66,19.27l.5,32.95a8.5,8.5,0,0,0,8.5,8.51h18.54a8.5,8.5,0,0,0,8.5-8.51l-.5-32.85a29,29,0,0,1,7.66-19.38A34.14,34.14,0,0,0,156.28,137.67Z"/><circle class="cls-4" cx="122" cy="137.67" r="21"/><g class="cls-5"><path class="cls-4" d="M238.41,145.91a5.74,5.74,0,0,0,5.59-5.74v-5a5.75,5.75,0,0,0-5.59-5.75l-105.5-3a5.75,5.75,0,0,0-5.91,5.75v11a5.75,5.75,0,0,0,5.91,5.75ZM171,137.67a3.5,3.5,0,1,1,3.5,3.5A3.5,3.5,0,0,1,171,137.67Zm18,0a3.5,3.5,0,1,1,3.5,3.5A3.5,3.5,0,0,1,189,137.67Zm18,0a3.5,3.5,0,1,1,3.5,3.5A3.5,3.5,0,0,1,207,137.67Zm18,0a3.5,3.5,0,1,1,3.5,3.5A3.5,3.5,0,0,1,225,137.67Z"/><path class="cls-4" d="M5.59,129.42A5.75,5.75,0,0,0,0,135.17v5a5.74,5.74,0,0,0,5.59,5.74l105.5,3a5.75,5.75,0,0,0,5.91-5.75v-11a5.75,5.75,0,0,0-5.91-5.75ZM73,137.67a3.5,3.5,0,1,1-3.5-3.5A3.5,3.5,0,0,1,73,137.67Zm-18,0a3.5,3.5,0,1,1-3.5-3.5A3.5,3.5,0,0,1,55,137.67Zm-18,0a3.5,3.5,0,1,1-3.5-3.5A3.5,3.5,0,0,1,37,137.67Zm-18,0a3.5,3.5,0,1,1-3.5-3.5A3.5,3.5,0,0,1,19,137.67Z"/></g><path class="cls-6" d="M130.25,21.25a5.75,5.75,0,0,0-5.75-5.58h-5a5.75,5.75,0,0,0-5.75,5.58l-3,105.5a5.76,5.76,0,0,0,5.75,5.92h11a5.76,5.76,0,0,0,5.75-5.92ZM122,88.67a3.5,3.5,0,1,1,3.5-3.5A3.5,3.5,0,0,1,122,88.67Zm0-18a3.5,3.5,0,1,1,3.5-3.5A3.5,3.5,0,0,1,122,70.67Zm0-18a3.5,3.5,0,1,1,3.5-3.5A3.5,3.5,0,0,1,122,52.67Zm0-18a3.5,3.5,0,1,1,3.5-3.5A3.5,3.5,0,0,1,122,34.67Z"/><text class="cls-7" transform="translate(230.44 123.14)">0°</text><text class="cls-7" transform="translate(111.02 11.98)">90°</text><text class="cls-7" transform="translate(0 122.57)">180°</text><text class="cls-7" transform="translate(170.88 214.02)">SE<tspan class="cls-8" x="16.95" y="0">R</tspan><tspan class="cls-9" x="26.52" y="0">V</tspan><tspan class="cls-10" x="36.04" y="0">O m</tspan><tspan class="cls-11" x="62.8" y="0">o</tspan><tspan class="cls-10" x="70.8" y="0">tor</tspan><tspan x="0" y="16.8">top vi</tspan><tspan class="cls-12" x="35.73" y="16.8">e</tspan><tspan x="43.26" y="16.8">w</tspan></text><circle class="cls-13" cx="122" cy="137.67" r="7.5"/><rect class="cls-14" width="595.28" height="18"/></g></g></svg>