<svg xmlns="http://www.w3.org/2000/svg" viewBox="0 0 595.28 60.69"><defs><style>.cls-1{fill:#87a549;}.cls-2{fill:#ededee;}.cls-3{font-size:36px;fill:#231f20;font-family:Mulish-Bold, Mulish;font-weight:700;}.cls-4{letter-spacing:0em;}.cls-5{letter-spacing:0em;}.cls-6{letter-spacing:0em;}.cls-7{letter-spacing:0em;}.cls-8{fill:#cbc4cc;}.cls-9{fill:#b6aeb6;}.cls-10{fill:#7b6e7a;}.cls-11{fill:#695f69;}.cls-12{fill:#a6a0a8;}.cls-13{fill:#958f96;}.cls-14{fill:#c4c3c7;}.cls-15{fill:#625862;}.cls-16{fill:#607d37;}.cls-17{fill:#f2f0f3;}.cls-18{fill:#b3b3b3;}.cls-19{fill:#b8b5b9;}</style></defs><g id="Layer_2" data-name="Layer 2"><g id="Layer_1-2" data-name="Layer 1"><rect class="cls-1" y="4" width="595.28" height="56.69" rx="11.34"/><rect class="cls-2" width="595.28" height="56.69" rx="11.34"/><text class="cls-3" transform="translate(82.46 38.84)">M<tspan class="cls-4" x="30.6" y="0">o</tspan><tspan class="cls-5" x="51.8" y="0">to</tspan><tspan class="cls-6" x="86.76" y="0">r</tspan><tspan class="cls-7" x="100.69" y="0">s</tspan></text><path class="cls-8" d="M34.67,28.69l-10.25.86H22.59a1.42,1.42,0,1,1,0-2.84h1.84l10.24.85Z"/><path class="cls-9" d="M27.58,26.71l-.85,2.84H24.42V26.71Z"/><path class="cls-10" d="M33.32,30.57l-4.9.85h-.84a.85.85,0,0,1-.85-.85V25.69a.86.86,0,0,1,.85-.86h.84l4.9.86Z"/><path class="cls-11" d="M31.5,24.83l-1.71,6.59H28.42V24.83Z"/><path class="cls-12" d="M50.63,46.55H37.8l1.66-5.94H49Z"/><path class="cls-13" d="M52.34,46.55H49.78l-1.66-5.94h2.56Z"/><path class="cls-14" d="M54,48.28H34.58a1.34,1.34,0,1,1,0-2.68H54a1.34,1.34,0,1,1,0,2.68Z"/><path class="cls-12" d="M39.91,10.61h8.67v8.07H39.91Z"/><path class="cls-13" d="M47.73,10.61h2.56v8.07H47.73Z"/><path class="cls-14" d="M50.19,12.38H38.39a1.25,1.25,0,0,1-1.24-1.25,2.72,2.72,0,0,1,2.72-2.72h8.84a2.72,2.72,0,0,1,2.72,2.72,1.24,1.24,0,0,1-1.24,1.25Z"/><path class="cls-14" d="M53.23,40.78h-18a3.85,3.85,0,0,1-3.85-3.85V19.32a3.84,3.84,0,0,1,3.85-3.84h18a3,3,0,0,1,3,3V37.79A3,3,0,0,1,53.23,40.78Z"/><path class="cls-8" d="M60.69,33.84H59.47a2.13,2.13,0,0,1-2.14-2.14V24.55a2.14,2.14,0,0,1,2.14-2.14h1.22a2.14,2.14,0,0,1,2.14,2.14V31.7A2.14,2.14,0,0,1,60.69,33.84Z"/><path class="cls-9" d="M63.69,24.55V31.7a2.14,2.14,0,0,1-2.14,2.14H59.84A2.13,2.13,0,0,0,62,31.7V24.55a2.13,2.13,0,0,0-2.13-2.14h1.71a2.14,2.14,0,0,1,2.14,2.14Z"/><path class="cls-15" d="M55.18,22.44H32.86a.64.64,0,0,1-.64-.64.64.64,0,0,1,.64-.64H55.18a.64.64,0,0,1,.64.64A.64.64,0,0,1,55.18,22.44Z"/><path class="cls-15" d="M54.28,28.77H33.86a.64.64,0,0,1-.64-.64.64.64,0,0,1,.64-.64H54.28a.64.64,0,1,1,0,1.28Z"/><path class="cls-15" d="M54.07,35.1H33.86a.65.65,0,0,1,0-1.29H54.07a.65.65,0,0,1,0,1.29Z"/><path class="cls-1" d="M58.11,18.47V37.79a3,3,0,0,1-3,3H52.64V15.48h2.48a3,3,0,0,1,3,3Z"/><path class="cls-16" d="M60.51,18.47V37.79a3,3,0,0,1-3,3H54.33a3,3,0,0,0,3-3V18.47a3,3,0,0,0-3-3h3.18a3,3,0,0,1,3,3Z"/><path class="cls-17" d="M56.68,20.82a.65.65,0,1,1,.65-.65A.65.65,0,0,1,56.68,20.82Z"/><path class="cls-17" d="M56.68,37.15a.65.65,0,1,1,.65-.64A.64.64,0,0,1,56.68,37.15Z"/><path class="cls-18" d="M55.72,45.6H53.15a1.34,1.34,0,1,1,0,2.68h2.57a1.34,1.34,0,1,0,0-2.68Z"/><path class="cls-19" d="M50.43,8.41H47.86a2.72,2.72,0,0,1,2.72,2.72,1.25,1.25,0,0,1-1.25,1.25H51.9a1.24,1.24,0,0,0,1.24-1.25A2.71,2.71,0,0,0,50.43,8.41Z"/><path class="cls-1" d="M35.07,15.48v25.3H33.64a3.85,3.85,0,0,1-3.85-3.85V19.32a3.84,3.84,0,0,1,3.85-3.84Z"/></g></g></svg>