<svg xmlns="http://www.w3.org/2000/svg" viewBox="0 0 595.28 80.87"><defs><style>.cls-1,.cls-12,.cls-9{fill:none;}.cls-2{fill:#e2e2e2;stroke:#b7b7b7;}.cls-14,.cls-3{isolation:isolate;font-size:15px;font-family:Mulish-Regular, Mulish;}.cls-16,.cls-3{fill:#010101;}.cls-4{letter-spacing:0em;}.cls-5{letter-spacing:0em;}.cls-6{letter-spacing:-0.01em;}.cls-7{fill:#6d863b;}.cls-8{fill:#87a549;}.cls-9{stroke:#abc282;}.cls-10{fill:#3d4986;}.cls-11{fill:#4c5ba6;}.cls-12{stroke:#818dc1;}.cls-13,.cls-14{fill:#fff;}.cls-13{fill-opacity:0.6;}.cls-15{letter-spacing:-0.01em;}</style></defs><g id="Layer_2" data-name="Layer 2"><g id="Layer_1-2" data-name="Layer 1"><rect class="cls-1" width="595.28" height="18"/><rect class="cls-2" x="106.93" y="42.69" width="139.65" height="37.68" rx="5.67"/><text class="cls-3" transform="translate(111.93 57.06)">My<tspan class="cls-4" x="20.7" y="0">S</tspan><tspan class="cls-5" x="30" y="0">tepper</tspan><tspan x="0" y="18">Rename in</tspan><tspan class="cls-6" x="73.93" y="18">s</tspan><tspan x="81.3" y="18">tance...</tspan></text><path class="cls-7" d="M1,9A8,8,0,0,1,9,1h7l6,4h3l6-4H314.73V37H30.5l-6,4h-3l-6-4H9a8,8,0,0,1-8-8ZM258.35,6h-39.6v5c0,10-8-8-8,7.5s8-2.5,8,7.5v7h39.6Z"/><path class="cls-8" d="M0,8A8,8,0,0,1,8,0h7l6,4h3l6-4H313.73V36H29.5l-6,4h-3l-6-4H8a8,8,0,0,1-8-8ZM257.35,5h-39.6v5c0,10-8-8-8,7.5s8-2.5,8,7.5v7h39.6Z"/><path class="cls-9" d="M.5,7.5A7.5,7.5,0,0,1,8,.5h7l6,4h3l6-4h9.5m0,0H313.23M2.7,33.3A7.47,7.47,0,0,1,.5,28V8M257.85,5.5v27h-39.6m-5.6-8.2,3.68-2.1"/><path class="cls-10" d="M219.75,7h37.6V32h-37.6V27c0-10-8,8-8-7.5s8,2.5,8-7.5Z"/><path class="cls-11" d="M218.75,6h37.6V31h-37.6V26c0-10-8,8-8-7.5s8,2.5,8-7.5Z"/><path class="cls-12" d="M219.25,6.5h36.6m-36.6,24v-6m-7.36-.5a20.35,20.35,0,0,1,0-11m7.36,1V6.5h.5"/><rect class="cls-13" x="223.75" y="11" width="27.6" height="16" rx="4"/><text class="cls-3" transform="translate(228.75 23.5)">10</text><text class="cls-14" transform="translate(10 22.5)">m<tspan class="cls-15" x="13.19" y="0">ov</tspan><tspan x="29.55" y="0">e </tspan><tspan class="cls-6" x="41.62" y="0">s</tspan><tspan x="48.99" y="0">tepper</tspan></text><rect class="cls-13" x="106.93" y="10" width="99.82" height="16" rx="4"/><text class="cls-3" transform="translate(111.93 22.5)">My<tspan class="cls-4" x="20.7" y="0">S</tspan><tspan class="cls-5" x="30" y="0">tepper</tspan></text><text class="cls-14" transform="translate(267.35 22.5)"><tspan class="cls-6">s</tspan><tspan x="7.36" y="0">teps</tspan></text><polygon class="cls-16" points="197.77 22.31 202.75 13.69 192.79 13.69 197.77 22.31"/></g></g></svg>