<svg xmlns="http://www.w3.org/2000/svg" viewBox="0 0 595.28 214.48"><defs><style>.cls-1{fill:#2395bc;}.cls-2{fill:#27aae1;}.cls-3{fill:#727373;}.cls-4{fill:#2d2d2d;}.cls-5{font-size:14px;fill:#231f20;font-family:Mulish-Regular, Mulish;}.cls-6{letter-spacing:-0.01em;}.cls-7{letter-spacing:-0.02em;}.cls-8{letter-spacing:0em;}.cls-9{letter-spacing:0em;}.cls-10{letter-spacing:-0.01em;}.cls-11{fill:#666566;}.cls-12,.cls-14{fill:none;}.cls-12{stroke:#ff5100;stroke-linecap:round;stroke-miterlimit:10;}.cls-13{fill:#ff5100;}</style></defs><g id="Layer_2" data-name="Layer 2"><g id="Layer_1-2" data-name="Layer 1"><rect class="cls-1" x="12.5" y="38.98" width="59" height="31" rx="7.5"/><rect class="cls-1" x="13" y="183.48" width="59" height="31" rx="7.5"/><path class="cls-2" d="M75.38,199H9.62A9.12,9.12,0,0,1,.5,189.86L0,63.6a9.12,9.12,0,0,1,9.12-9.12H74.88A9.12,9.12,0,0,1,84,63.6l.5,126.26A9.12,9.12,0,0,1,75.38,199Z"/><path class="cls-3" d="M76.28,102A34.28,34.28,0,0,0,41,67.74c-16.66.47-31.95,15-33.19,31.64A34.19,34.19,0,0,0,16.57,125a28.76,28.76,0,0,1,7.66,19.27l.5,32.95a8.5,8.5,0,0,0,8.5,8.51H51.77a8.5,8.5,0,0,0,8.5-8.51l-.5-32.85A29,29,0,0,1,67.43,125,34.14,34.14,0,0,0,76.28,102Z"/><circle class="cls-4" cx="42" cy="102.01" r="21"/><text class="cls-5" transform="translate(90.88 178.36)">SE<tspan class="cls-6" x="16.95" y="0">R</tspan><tspan class="cls-7" x="26.52" y="0">V</tspan><tspan class="cls-8" x="36.04" y="0">O m</tspan><tspan class="cls-9" x="62.8" y="0">o</tspan><tspan class="cls-8" x="70.8" y="0">tor</tspan><tspan x="0" y="16.8">top vi</tspan><tspan class="cls-10" x="35.73" y="16.8">e</tspan><tspan x="43.26" y="16.8">w</tspan></text><path class="cls-4" d="M116.09,11.84A5.77,5.77,0,0,0,114.64,4l-4.08-2.89a5.76,5.76,0,0,0-7.92,1.23L39.16,86.61a5.75,5.75,0,0,0,1.26,8.15l2.43,1.72,4.08,2.9,2.43,1.72a5.75,5.75,0,0,0,8.11-1.5ZM70.35,62a3.5,3.5,0,1,1,4.88-.83A3.5,3.5,0,0,1,70.35,62ZM80.77,47.36a3.5,3.5,0,1,1,4.88-.83A3.49,3.49,0,0,1,80.77,47.36ZM91.19,32.68a3.5,3.5,0,1,1,4.88-.83A3.49,3.49,0,0,1,91.19,32.68ZM101.6,18a3.5,3.5,0,1,1,4.88-.83A3.5,3.5,0,0,1,101.6,18Z"/><circle class="cls-11" cx="42" cy="102.01" r="7.5"/><line class="cls-12" x1="89.71" y1="102.16" x2="124.83" y2="102.01"/><path class="cls-12" d="M115.57,94.15A73.65,73.65,0,0,0,98.65,54.43"/><polygon class="cls-13" points="119.16 90.33 118.34 89.75 115.49 93.77 111.69 90.63 111.05 91.4 115.68 95.23 119.16 90.33"/><polygon class="cls-13" points="103.89 54.48 103.75 55.47 98.87 54.75 98.51 59.67 97.51 59.6 97.95 53.61 103.89 54.48"/><text class="cls-5" transform="translate(117.42 74.03)">measu<tspan class="cls-6" x="43.34" y="0">r</tspan><tspan x="48.27" y="0">ed angle</tspan></text><rect class="cls-14" width="595.28" height="18"/></g></g></svg>