<svg xmlns="http://www.w3.org/2000/svg" viewBox="0 0 595.4 84.66"><defs><style>.cls-1,.cls-4{fill:none;}.cls-2{fill:#167b9e;}.cls-3{fill:#1398c4;}.cls-4{stroke:#5eb7d6;}.cls-5,.cls-9{isolation:isolate;font-size:15px;font-family:Mulish-Regular, Mulish;}.cls-5,.cls-8{fill:#fff;}.cls-6{letter-spacing:0em;}.cls-7{letter-spacing:-0.01em;}.cls-8{fill-opacity:0.6;}.cls-10,.cls-9{fill:#010101;}.cls-11{fill:#a6cde2;}</style></defs><g id="Layer_2" data-name="Layer 2"><g id="Layer_1-2" data-name="Layer 1"><rect class="cls-1" x="0.12" width="595.28" height="18"/><path class="cls-2" d="M9.12,1H204V26H9.12V21c0-10-8,8-8-7.5s8,2.5,8-7.5Z"/><path class="cls-3" d="M8.12,0H203V25H8.12V20c0-10-8,8-8-7.5s8,2.5,8-7.5Z"/><path class="cls-4" d="M8.62.5h19m0,0H202.54M8.62,24.5v-6M1.26,18a20.35,20.35,0,0,1,0-11M8.62,8V.5h.5"/><text class="cls-5" transform="translate(18.12 17.5)">g<tspan class="cls-6" x="9.06" y="0">e</tspan><tspan x="17.17" y="0">t IMU accele</tspan><tspan class="cls-7" x="101.56" y="0">r</tspan><tspan x="106.84" y="0">ation</tspan></text><rect class="cls-8" x="162" y="5" width="36.03" height="16" rx="4"/><text class="cls-9" transform="translate(167 17.5)">X</text><polygon class="cls-10" points="189.06 17.31 194.04 8.69 184.08 8.69 189.06 17.31"/><rect class="cls-11" x="162" y="31.69" width="35.55" height="52.03" rx="5.67"/><text class="cls-9" transform="translate(166.41 44.56)">X<tspan x="0" y="18">Y</tspan><tspan x="0" y="36">Z</tspan></text><polygon class="cls-10" points="189.06 44.38 194.04 35.75 184.08 35.75 189.06 44.38"/></g></g></svg>