<svg xmlns="http://www.w3.org/2000/svg" viewBox="0 0 595.4 87.69"><defs><style>.cls-1,.cls-4{fill:none;}.cls-2{fill:#167b9e;}.cls-3{fill:#1398c4;}.cls-4{stroke:#5eb7d6;}.cls-5,.cls-8{isolation:isolate;font-size:15px;font-family:Mulish-Regular, Mulish;}.cls-5,.cls-7{fill:#fff;}.cls-6{letter-spacing:0em;}.cls-7{fill-opacity:0.6;}.cls-8,.cls-9{fill:#010101;}.cls-10{fill:#a6cde2;}.cls-11{letter-spacing:-0.01em;}.cls-12{letter-spacing:0em;}.cls-13{letter-spacing:-0.01em;}.cls-14{letter-spacing:0em;}</style></defs><g id="Layer_2" data-name="Layer 2"><g id="Layer_1-2" data-name="Layer 1"><rect class="cls-1" x="0.12" width="595.28" height="18"/><path class="cls-2" d="M9.12,1H128.8V26H9.12V21c0-10-8,8-8-7.5s8,2.5,8-7.5Z"/><path class="cls-3" d="M8.12,0H127.8V25H8.12V20c0-10-8,8-8-7.5s8,2.5,8-7.5Z"/><path class="cls-4" d="M8.62.5h19m0,0H127.3M8.62,24.5v-6M1.26,18a20.35,20.35,0,0,1,0-11M8.62,8V.5h.5"/><text class="cls-5" transform="translate(18.12 17.5)">g<tspan class="cls-6" x="9.06" y="0">e</tspan><tspan x="17.17" y="0">t</tspan></text><rect class="cls-7" x="45.05" y="5" width="77.75" height="16" rx="4"/><text class="cls-8" transform="translate(50.05 17.5)">altitude</text><polygon class="cls-9" points="113.83 17.31 118.8 8.69 108.85 8.69 113.83 17.31"/><rect class="cls-10" x="45.05" y="31.69" width="97.11" height="56" rx="5.67"/><text class="cls-8" transform="translate(49.46 45.65)">altitude<tspan x="0" y="18">p</tspan><tspan class="cls-11" x="9" y="18">r</tspan><tspan class="cls-12" x="14.28" y="18">essu</tspan><tspan class="cls-13" x="45.97" y="18">r</tspan><tspan x="51.25" y="18">e</tspan><tspan x="0" y="36">tempe</tspan><tspan class="cls-13" x="43.75" y="36">r</tspan><tspan class="cls-14" x="49.03" y="36">atu</tspan><tspan class="cls-13" x="71.94" y="36">r</tspan><tspan x="77.22" y="36">e</tspan></text><polygon class="cls-9" points="131.11 45.46 136.09 36.84 126.13 36.84 131.11 45.46"/></g></g></svg>