<svg xmlns="http://www.w3.org/2000/svg" viewBox="0 0 595.4 26"><defs><style>.cls-1,.cls-4{fill:none;}.cls-2{fill:#167b9e;}.cls-3{fill:#1398c4;}.cls-4{stroke:#5eb7d6;}.cls-12,.cls-5{isolation:isolate;font-size:15px;font-family:Mulish-Regular, Mulish;}.cls-11,.cls-5{fill:#fff;}.cls-6{letter-spacing:0em;}.cls-7{letter-spacing:0em;}.cls-8{letter-spacing:0em;}.cls-9{letter-spacing:-0.01em;}.cls-10{letter-spacing:0em;}.cls-11{fill-opacity:0.6;}.cls-12{fill:#010101;}.cls-13{letter-spacing:-0.01em;}.cls-14{letter-spacing:0em;}</style></defs><g id="Layer_2" data-name="Layer 2"><g id="Layer_1-2" data-name="Layer 1"><rect class="cls-1" x="0.12" width="595.28" height="18"/><path class="cls-2" d="M9.12,1H299.85V26H9.12V21c0-10-8,8-8-7.5s8,2.5,8-7.5Z"/><path class="cls-3" d="M8.12,0H298.85V25H8.12V20c0-10-8,8-8-7.5s8,2.5,8-7.5Z"/><path class="cls-4" d="M8.62.5h19m0,0H298.35M8.62,24.5v-6M1.26,18a20.35,20.35,0,0,1,0-11M8.62,8V.5h.5"/><text class="cls-5" transform="translate(18.12 17.5)">d<tspan class="cls-6" x="9" y="0">e</tspan><tspan x="17.11" y="0">te</tspan><tspan class="cls-7" x="30.52" y="0">c</tspan><tspan x="37.96" y="0">t m</tspan><tspan class="cls-8" x="60.31" y="0">o</tspan><tspan x="68.88" y="0">tion</tspan></text><text class="cls-5" transform="translate(121.05 17.5)">th<tspan class="cls-9" x="14.02" y="0">r</tspan><tspan class="cls-10" x="19.3" y="0">eshold</tspan></text><rect class="cls-11" x="189.44" y="5" width="18.8" height="16" rx="4"/><text class="cls-12" transform="translate(194.44 17.5)">5</text><text class="cls-5" transform="translate(213.24 17.5)">du<tspan class="cls-13" x="17.65" y="0">r</tspan><tspan class="cls-14" x="22.94" y="0">ation</tspan></text><rect class="cls-11" x="275.05" y="5" width="18.8" height="16" rx="4"/><text class="cls-12" transform="translate(280.05 17.5)">2</text></g></g></svg>