<svg xmlns="http://www.w3.org/2000/svg" viewBox="0 0 595.28 60.69"><defs><style>.cls-1{fill:#1398c4;}.cls-2{fill:#ededee;}.cls-3{font-size:36px;fill:#231f20;font-family:Mulish-Bold, Mulish;font-weight:700;}.cls-4{letter-spacing:-0.01em;}.cls-5{fill:#ff5100;}.cls-6{fill:#555058;}.cls-7{fill:#464146;}.cls-8{fill:#1d809b;}.cls-9{fill:#c4c3c7;}</style></defs><g id="Layer_2" data-name="Layer 2"><g id="Layer_1-2" data-name="Layer 1"><rect class="cls-1" y="4" width="595.28" height="56.69" rx="11.34"/><rect class="cls-2" width="595.28" height="56.69" rx="11.34"/><text class="cls-3" transform="translate(82.46 38.84)">Senso<tspan class="cls-4" x="103.97" y="0">r</tspan><tspan x="117.9" y="0">s</tspan></text><path class="cls-5" d="M46.05,32.85H38.8V29.23a3.63,3.63,0,0,1,7.25,0Z"/><path class="cls-5" d="M42.43,25.61a3.53,3.53,0,0,0-1.56.35,3.62,3.62,0,0,1,2.06,3.27v3.62h3.12V29.23a3.62,3.62,0,0,0-3.62-3.62Z"/><path class="cls-6" d="M53.41,41h-22V34.09a2.7,2.7,0,0,1,2.7-2.7H50.71a2.7,2.7,0,0,1,2.7,2.7Z"/><path class="cls-7" d="M50.71,31.39H47.09a2.7,2.7,0,0,1,2.7,2.7V38h3.62V34.09A2.7,2.7,0,0,0,50.71,31.39Z"/><path class="cls-1" d="M63.2,49.61H21.66v-6.3A5.28,5.28,0,0,1,26.94,38h31a5.29,5.29,0,0,1,5.29,5.29v6.3Z"/><path class="cls-8" d="M57.91,38H54.29a5.28,5.28,0,0,1,5.28,5.29v6.3H63.2v-6.3A5.29,5.29,0,0,0,57.91,38Z"/><path class="cls-5" d="M47,43h-.41a1.1,1.1,0,0,1,0-2.2H47A1.1,1.1,0,0,1,47,43Z"/><path class="cls-5" d="M46.83,43h-.41a1.1,1.1,0,0,1,0-2.2h.41a1.1,1.1,0,0,1,0,2.2Z"/><path class="cls-5" d="M51.91,43h-.42a1.1,1.1,0,0,1,0-2.2h.42a1.1,1.1,0,0,1,0,2.2Z"/><path class="cls-5" d="M57,43h-.41a1.1,1.1,0,0,1,0-2.2H57A1.1,1.1,0,0,1,57,43Z"/><path class="cls-9" d="M45.55,22.47a1.07,1.07,0,0,1-.78-.33,3.32,3.32,0,0,0-4.69,0,1.1,1.1,0,1,1-1.55-1.55,5.51,5.51,0,0,1,7.79,0,1.09,1.09,0,0,1,0,1.55,1.06,1.06,0,0,1-.77.33Z"/><path class="cls-9" d="M49.37,18.64a1.09,1.09,0,0,1-.77-.32,8.72,8.72,0,0,0-12.34,0,1.1,1.1,0,0,1-1.56-1.56,10.92,10.92,0,0,1,15.45,0,1.1,1.1,0,0,1,0,1.56,1.13,1.13,0,0,1-.78.32Z"/><path class="cls-9" d="M54,14.05a1.09,1.09,0,0,1-.78-.32,15.23,15.23,0,0,0-21.51,0,1.1,1.1,0,0,1-1.55-1.55,17.42,17.42,0,0,1,24.62,0,1.11,1.11,0,0,1,0,1.55,1.09,1.09,0,0,1-.78.32Z"/></g></g></svg>