<svg xmlns="http://www.w3.org/2000/svg" viewBox="0 0 595.28 139.96"><defs><style>.cls-1,.cls-4{fill:none;}.cls-2{fill:#4a3d80;}.cls-3{fill:#5c4da0;}.cls-4{stroke:#8c81bc;}.cls-10,.cls-5{isolation:isolate;font-size:15px;font-family:Mulish-Regular, Mulish;}.cls-5,.cls-9{fill:#fff;}.cls-6{letter-spacing:-0.01em;}.cls-7{letter-spacing:-0.01em;}.cls-8{letter-spacing:0em;}.cls-9{fill-opacity:0.6;}.cls-10,.cls-12{fill:#010101;}.cls-11{letter-spacing:0.03em;}.cls-13{fill:#afa7d1;}</style></defs><g id="Layer_2" data-name="Layer 2"><g id="Layer_1-2" data-name="Layer 1"><rect class="cls-1" width="595.28" height="18"/><path class="cls-2" d="M1,9A8,8,0,0,1,9,1h7l6,4h3l6-4H316.77V26H30.5l-6,4h-3l-6-4H9a8,8,0,0,1-8-8Z"/><path class="cls-3" d="M0,8A8,8,0,0,1,8,0h7l6,4h3l6-4H315.77V25H29.5l-6,4h-3l-6-4H8a8,8,0,0,1-8-8Z"/><path class="cls-4" d="M.5,7.5A7.5,7.5,0,0,1,8,.5h7l6,4h3l6-4h9.5m0,0H315.27M2.7,22.3A7.47,7.47,0,0,1,.5,17V8"/><text class="cls-5" transform="translate(10 17.5)">sleep and <tspan class="cls-6" x="70.93" y="0">w</tspan><tspan x="83.88" y="0">a</tspan><tspan class="cls-7" x="92.88" y="0">k</tspan><tspan class="cls-8" x="100.47" y="0">e on time</tspan></text><rect class="cls-9" x="178.35" y="5" width="64.23" height="16" rx="4"/><text class="cls-10" transform="translate(183.35 17.5)">15ms</text><text class="cls-5" transform="translate(247.58 17.5)">inte<tspan class="cls-11" x="25.75" y="0">r</tspan><tspan class="cls-6" x="31.63" y="0">v</tspan><tspan x="39.51" y="0">als</tspan></text><polygon class="cls-12" points="233.6 17.31 238.58 8.69 228.63 8.69 233.6 17.31"/><rect class="cls-13" x="178.35" y="31.69" width="69.57" height="108.26" rx="5.67"/><text class="cls-10" transform="translate(182.75 44.56)">15 ms<tspan x="0" y="18">30 ms</tspan><tspan x="0" y="36">.</tspan><tspan x="0" y="54">.</tspan><tspan x="0" y="72">4000 ms</tspan><tspan x="0" y="90">8000 ms</tspan></text><polygon class="cls-12" points="238.62 44.38 243.6 35.75 233.64 35.75 238.62 44.38"/></g></g></svg>