<svg xmlns="http://www.w3.org/2000/svg" viewBox="0 0 595.28 60.69"><defs><style>.cls-1{fill:#5c4da0;}.cls-2{fill:#ededee;}.cls-3{font-size:36px;fill:#231f20;font-family:Mulish-Bold, Mulish;font-weight:700;}.cls-4{fill:#fee178;}.cls-5{fill:#fec446;}.cls-6{fill:#3a318b;}</style></defs><g id="Layer_2" data-name="Layer 2"><g id="Layer_1-2" data-name="Layer 1"><rect class="cls-1" y="4" width="595.28" height="56.69" rx="11.34"/><rect class="cls-2" width="595.28" height="56.69" rx="11.34"/><text class="cls-3" transform="translate(82.46 38.84)">Sleep</text><path class="cls-4" d="M58.78,36.91c-.23.23-.47.23-.72.44a17.05,17.05,0,0,1-12.55,4.3,17.65,17.65,0,0,1-11.15-5,17.14,17.14,0,0,1-.25-23.94c.21-.22.43-.28.66-.49a.81.81,0,0,0-.87-1.33c-.42.17-.6.21-1,.41a20.19,20.19,0,0,0,7.79,38.24,19.49,19.49,0,0,0,15.14-5.88,20.23,20.23,0,0,0,4.46-6.56c.34-.83-.48-1.28-1.1-.63C59.05,36.64,58.91,36.78,58.78,36.91Z"/><path class="cls-5" d="M32.65,12.09l-.65.65A17.1,17.1,0,0,0,45.51,41.65,17.11,17.11,0,0,1,34.34,12.74l.66-.65a.81.81,0,0,0-.86-1.33c-.43.18-.84.37-1.25.57a.77.77,0,0,1-.24.76Z"/><path class="cls-5" d="M59.17,36.27c-.12.14-.26.27-.39.41s-.47.45-.72.67A20.2,20.2,0,0,1,40.67,49.57,20.23,20.23,0,0,0,60.51,37.13a.81.81,0,0,0-1.34-.86Z"/><path class="cls-6" d="M46.79,27.48l.62,1.08a.24.24,0,0,1-.08.33l-.65.37H45l.85-1.49.65-.37A.24.24,0,0,1,46.79,27.48Z"/><path class="cls-6" d="M42.73,22.42l.9,6.61.81-5.52a.3.3,0,0,0,0-.16l-.7-1.21a.24.24,0,0,0-.33-.09Z"/><path class="cls-1" d="M45.81,27.76l.87,1.5-3.85,2.22a.24.24,0,0,1-.33-.08l-.7-1.22a.21.21,0,0,1,0-.15l.81-5.52-2.84,1.63a.23.23,0,0,1-.32-.08L38.79,25a.24.24,0,0,1,.09-.32l3.85-2.23.86,1.5,0,5.11Z"/><path class="cls-6" d="M54.15,21.72l.52,2a.14.14,0,0,1-.09.17l-1.3.35-1.73-.74L52.68,22l1.3-.35A.14.14,0,0,1,54.15,21.72Z"/><path class="cls-6" d="M50.6,14.2l-.91,8.57,2.92-6.67a.28.28,0,0,0,0-.09L52.06,14a.13.13,0,0,0-.16-.1Z"/><path class="cls-1" d="M52.68,22l.6,2.24-5.73,1.53a.14.14,0,0,1-.17-.1l-.55-2.06a.14.14,0,0,1,0-.09l2.92-6.66L45.47,18a.14.14,0,0,1-.17-.09l-.53-2a.15.15,0,0,1,.1-.17L50.6,14.2l.6,2.24-1.51,6.33Z"/><path class="cls-6" d="M63.19,17.3v2.36a.25.25,0,0,1-.25.25H61.71l-1.48-1.43,1.48-1.43h1.23A.25.25,0,0,1,63.19,17.3Z"/><path class="cls-6" d="M61.71,7.09l-4.23,10,5.65-7a.25.25,0,0,0,.06-.16V7.34a.25.25,0,0,0-.25-.25Z"/><path class="cls-1" d="M61.71,17.05v2.86H54.07a.25.25,0,0,1-.25-.25V17.14a.3.3,0,0,1,0-.16l5.65-7H54.07a.25.25,0,0,1-.25-.25V7.34a.25.25,0,0,1,.25-.25h7.64V10l-4.23,7.1Z"/></g></g></svg>