<svg xmlns="http://www.w3.org/2000/svg" viewBox="0 0 595.28 84.78"><defs><style>.cls-1,.cls-4{fill:none;}.cls-2{fill:#4a3d80;}.cls-3{fill:#5c4da0;}.cls-4{stroke:#8c81bc;}.cls-12,.cls-5{isolation:isolate;font-size:15px;font-family:Mulish-Regular, Mulish;}.cls-11,.cls-5{fill:#fff;}.cls-6{letter-spacing:-0.01em;}.cls-7{letter-spacing:-0.01em;}.cls-8{letter-spacing:0em;}.cls-9{letter-spacing:0em;}.cls-10{letter-spacing:0em;}.cls-11{fill-opacity:0.6;}.cls-12,.cls-13{fill:#010101;}.cls-14{fill:#afa7d1;}</style></defs><g id="Layer_2" data-name="Layer 2"><g id="Layer_1-2" data-name="Layer 1"><rect class="cls-1" width="595.28" height="18"/><path class="cls-2" d="M1,9A8,8,0,0,1,9,1h7l6,4h3l6-4H243.65V26H30.5l-6,4h-3l-6-4H9a8,8,0,0,1-8-8Z"/><path class="cls-3" d="M0,8A8,8,0,0,1,8,0h7l6,4h3l6-4H242.65V25H29.5l-6,4h-3l-6-4H8a8,8,0,0,1-8-8Z"/><path class="cls-4" d="M.5,7.5A7.5,7.5,0,0,1,8,.5h7l6,4h3l6-4h9.5m0,0H242.15M2.7,22.3A7.47,7.47,0,0,1,.5,17V8"/><text class="cls-5" transform="translate(10 17.5)">sleep and <tspan class="cls-6" x="70.93" y="0">w</tspan><tspan x="83.88" y="0">a</tspan><tspan class="cls-7" x="92.88" y="0">k</tspan><tspan class="cls-8" x="100.47" y="0">e on bu</tspan><tspan class="cls-9" x="151.47" y="0">t</tspan><tspan class="cls-10" x="156.76" y="0">ton</tspan></text><rect class="cls-11" x="192.4" y="5" width="45.25" height="16" rx="4"/><text class="cls-12" transform="translate(197.4 17.5)">B1</text><polygon class="cls-13" points="228.67 17.31 233.65 8.69 223.69 8.69 228.67 17.31"/><rect class="cls-14" x="192.4" y="31.69" width="45.49" height="53.09" rx="5.67"/><text class="cls-12" transform="translate(196.8 44.56)">B1<tspan x="0" y="18">B2</tspan><tspan x="0" y="36">B3</tspan></text><polygon class="cls-13" points="228.67 44.38 233.65 35.75 223.69 35.75 228.67 44.38"/></g></g></svg>