<svg xmlns="http://www.w3.org/2000/svg" viewBox="0 0 595.4 50"><defs><style>.cls-1,.cls-4{fill:none;}.cls-2{fill:#3c866d;}.cls-3{fill:#4ba587;}.cls-4{stroke:#81c1ab;}.cls-5{fill:#3a53a4;stroke:#fff;}.cls-6,.cls-7{fill:#fff;}.cls-7{isolation:isolate;font-size:15px;font-family:Mulish-Regular, Mulish;}.cls-8{letter-spacing:-0.01em;}.cls-9{letter-spacing:-0.01em;}</style></defs><g id="Layer_2" data-name="Layer 2"><g id="Layer_1-2" data-name="Layer 1"><rect class="cls-1" x="0.12" width="595.28" height="18"/><path class="cls-2" d="M9.12,1h161V6c0,10-8-8-8,7.5s8-2.5,8,7.5V31c0,10-8-8-8,7.5s8-2.5,8,7.5v4H9.12V21c0-10-8,8-8-7.5s8,2.5,8-7.5Z"/><path class="cls-3" d="M8.12,0h161V5c0,10-8-8-8,7.5s8-2.5,8,7.5V30c0,10-8-8-8,7.5s8-2.5,8,7.5v4H8.12V20c0-10-8,8-8-7.5s8,2.5,8-7.5Z"/><path class="cls-4" d="M8.62.5h160m-4.5,18.8,3.68-2.1m-3.68,27.1,3.68-2.1M8.62,48.5v-30M1.26,18a20.35,20.35,0,0,1,0-11M8.62,8V.5h.5"/><rect class="cls-5" x="18.12" y="5" width="16" height="16" rx="4"/><path class="cls-6" d="M22.32,12.3v1.36l-.92.68-.11.41.9,1.56.41.11,1-.46,1.18.69L25,17.78l.3.3h1.8l.3-.3.13-1.14L28.67,16l1,.46.41-.11.9-1.56-.11-.41L30,13.66V12.3l.92-.68.11-.41-.9-1.56-.41-.11-1,.46-1.18-.68-.13-1.14-.3-.3h-1.8l-.3.3-.13,1.14L23.65,10l-1-.46-.41.11-.89,1.56.1.41Z"/><circle class="cls-5" cx="26.12" cy="13" r="2.7"/><text class="cls-7" transform="translate(45.12 17.5)">c<tspan class="cls-8" x="7.42" y="0">r</tspan><tspan x="12.71" y="0">eate t</tspan><tspan class="cls-9" x="52.44" y="0">e</tspan><tspan x="60.49" y="0">xt with</tspan></text></g></g></svg>