<svg xmlns="http://www.w3.org/2000/svg" viewBox="0 0 595.28 60.69"><defs><style>.cls-1{fill:#4ba587;}.cls-2{fill:#ededee;}.cls-3{font-size:36px;fill:#231f20;font-family:Mulish-Bold, Mulish;font-weight:700;}.cls-4{letter-spacing:-0.08em;}.cls-5{letter-spacing:0em;}.cls-6{fill:#7da1b1;}.cls-7{fill:#4789c9;}.cls-8{fill:#358267;}</style></defs><g id="Layer_2" data-name="Layer 2"><g id="Layer_1-2" data-name="Layer 1"><rect class="cls-1" y="4" width="595.28" height="56.69" rx="11.34"/><rect class="cls-2" width="595.28" height="56.69" rx="11.34"/><text class="cls-3" transform="translate(82.46 38.84)"><tspan class="cls-4">T</tspan><tspan class="cls-5" x="19.4" y="0">e</tspan><tspan x="39.02" y="0">xt</tspan></text><path class="cls-6" d="M62,48.52H22.88a.63.63,0,0,1-.63-.62V8.8a.63.63,0,0,1,.63-.63H62a.63.63,0,0,1,.63.63V47.9A.63.63,0,0,1,62,48.52ZM23.5,47.27H61.35V9.42H23.5Z"/><path class="cls-7" d="M24.26,10.51H21.5a.33.33,0,0,1-.33-.33V7.42a.33.33,0,0,1,.33-.33h2.76a.33.33,0,0,1,.33.33v2.76A.33.33,0,0,1,24.26,10.51Z"/><path class="cls-7" d="M43.8,10.51H41.05a.34.34,0,0,1-.34-.33V7.42a.34.34,0,0,1,.34-.33H43.8a.34.34,0,0,1,.34.33v2.76A.34.34,0,0,1,43.8,10.51Z"/><path class="cls-7" d="M63.35,10.51H60.6a.34.34,0,0,1-.34-.33V7.42a.34.34,0,0,1,.34-.33h2.75a.34.34,0,0,1,.34.33v2.76A.34.34,0,0,1,63.35,10.51Z"/><path class="cls-7" d="M24.26,49.61H21.5a.33.33,0,0,1-.33-.34V46.52a.33.33,0,0,1,.33-.34h2.76a.34.34,0,0,1,.33.34v2.75A.34.34,0,0,1,24.26,49.61Z"/><path class="cls-7" d="M24.26,49.61H21.5a.33.33,0,0,1-.33-.34V46.52a.33.33,0,0,1,.33-.34h2.76a.34.34,0,0,1,.33.34v2.75A.34.34,0,0,1,24.26,49.61Z"/><path class="cls-7" d="M24.26,30.06H21.5a.33.33,0,0,1-.33-.33V27a.32.32,0,0,1,.33-.33h2.76a.33.33,0,0,1,.33.33v2.76A.33.33,0,0,1,24.26,30.06Z"/><path class="cls-7" d="M24.26,30.06H21.5a.33.33,0,0,1-.33-.33V27a.32.32,0,0,1,.33-.33h2.76a.33.33,0,0,1,.33.33v2.76A.33.33,0,0,1,24.26,30.06Z"/><path class="cls-7" d="M43.8,49.61H41.05a.34.34,0,0,1-.34-.34V46.52a.34.34,0,0,1,.34-.34H43.8a.34.34,0,0,1,.34.34v2.75A.34.34,0,0,1,43.8,49.61Z"/><path class="cls-7" d="M63.35,49.61H60.6a.34.34,0,0,1-.34-.34V46.52a.34.34,0,0,1,.34-.34h2.75a.34.34,0,0,1,.34.34v2.75A.34.34,0,0,1,63.35,49.61Z"/><path class="cls-7" d="M63.35,30.06H60.6a.34.34,0,0,1-.34-.33V27a.33.33,0,0,1,.34-.33h2.75a.33.33,0,0,1,.34.33v2.76A.34.34,0,0,1,63.35,30.06Z"/><path class="cls-1" d="M53.65,17.05v5.31a.34.34,0,0,1-.34.34h-2.4a.35.35,0,0,1-.33-.25L49.85,20a.35.35,0,0,0-.33-.24H44.27a.35.35,0,0,0-.35.34V38.47a.35.35,0,0,0,.35.35H48a.34.34,0,0,1,.34.34v2.31a.34.34,0,0,1-.34.34H36.87a.34.34,0,0,1-.34-.34V39.16a.34.34,0,0,1,.34-.34h3.72a.35.35,0,0,0,.34-.35V20.05a.34.34,0,0,0-.34-.34H35.33A.35.35,0,0,0,35,20l-.73,2.5a.35.35,0,0,1-.33.25h-2.4a.34.34,0,0,1-.34-.34V17.05a.34.34,0,0,1,.34-.34H53.31a.34.34,0,0,1,.34.34Z"/><path class="cls-8" d="M33.6,22.7H31.54a.34.34,0,0,1-.34-.34V17.05a.34.34,0,0,1,.34-.34H33.6a.34.34,0,0,0-.34.34v5.31A.34.34,0,0,0,33.6,22.7Z"/><path class="cls-8" d="M38.93,41.81H36.87a.34.34,0,0,1-.34-.34V39.16a.34.34,0,0,1,.34-.34h2.06a.34.34,0,0,0-.34.34v2.31A.34.34,0,0,0,38.93,41.81Z"/><path class="cls-8" d="M43,20.05V38.47a.35.35,0,0,1-.34.35h-2a.35.35,0,0,0,.34-.35V20.05a.34.34,0,0,0-.34-.34h2A.34.34,0,0,1,43,20.05Z"/></g></g></svg>