<svg xmlns="http://www.w3.org/2000/svg" viewBox="0 0 595.28 88.19"><defs><style>.cls-1,.cls-4{fill:none;}.cls-2{fill:#3c866d;}.cls-3{fill:#4ba587;}.cls-4{stroke:#81c1ab;}.cls-5,.cls-7,.cls-9{fill:#fff;}.cls-5{fill-opacity:0.6;}.cls-6,.cls-7{isolation:isolate;font-size:15px;font-family:Mulish-Regular, Mulish;}.cls-10,.cls-6{fill:#010101;}.cls-8{letter-spacing:-0.01em;}.cls-11{fill:#e2e2e2;stroke:#b7b7b7;}.cls-12{letter-spacing:-0.01em;}.cls-13{letter-spacing:-0.01em;}.cls-14{letter-spacing:0em;}</style></defs><g id="Layer_2" data-name="Layer 2"><g id="Layer_1-2" data-name="Layer 1"><rect class="cls-1" width="595.28" height="18"/><path class="cls-2" d="M1,9A8,8,0,0,1,9,1h7l6,4h3l6-4H190.08V6c0,10-8-8-8,7.5s8-2.5,8,7.5v5H30.5l-6,4h-3l-6-4H9a8,8,0,0,1-8-8Z"/><path class="cls-3" d="M0,8A8,8,0,0,1,8,0h7l6,4h3l6-4H189.08V5c0,10-8-8-8,7.5s8-2.5,8,7.5v5H29.5l-6,4h-3l-6-4H8a8,8,0,0,1-8-8Z"/><path class="cls-4" d="M.5,7.5A7.5,7.5,0,0,1,8,.5h7l6,4h3l6-4H188.58m-4.5,18.8,3.68-2.1M2.7,22.3A7.47,7.47,0,0,1,.5,17V8"/><path class="cls-2" d="M191.08,1h67.84V26H191.08V21c0-10-8,8-8-7.5s8,2.5,8-7.5Z"/><path class="cls-3" d="M190.08,0h67.84V25H190.08V20c0-10-8,8-8-7.5s8,2.5,8-7.5Z"/><path class="cls-4" d="M190.58.5h66.84m-66.84,24v-6m-7.36-.5a20.35,20.35,0,0,1,0-11m7.36,1V.5h.5"/><rect class="cls-5" x="217.08" y="5" width="13.83" height="16" rx="4"/><text class="cls-6" transform="translate(222.08 17.5)"> </text><text class="cls-7" transform="translate(10 17.5)">to</text><rect class="cls-5" x="28.52" y="5" width="55.97" height="16" rx="4"/><text class="cls-6" transform="translate(33.52 17.5)">item</text><text class="cls-7" transform="translate(89.48 17.5)">append t<tspan class="cls-8" x="62.1" y="0">e</tspan><tspan x="70.15" y="0">xt</tspan></text><path class="cls-9" d="M202.22,5.32l2,1.56a8.35,8.35,0,0,0-1.87,2.72,7.42,7.42,0,0,0-.46,2.57l-1.25-.88h3.79v5.39h-5.34V12.89a11,11,0,0,1,.7-4A10.56,10.56,0,0,1,202.22,5.32Zm8.71,0,2,1.56A8.2,8.2,0,0,0,211,9.6a7.42,7.42,0,0,0-.46,2.57l-1.25-.88h3.79v5.39h-5.34V12.89a11,11,0,0,1,.7-4A10.42,10.42,0,0,1,210.93,5.32Z"/><path class="cls-9" d="M237.07,16.68l-2-1.56A9,9,0,0,0,237,12.37a7.17,7.17,0,0,0,.46-2.54l1.25.83h-3.79V5.32h5.34V9.11a10.77,10.77,0,0,1-.7,3.94A11,11,0,0,1,237.07,16.68Zm8.71,0-2-1.56a9,9,0,0,0,1.87-2.75,7.17,7.17,0,0,0,.46-2.54l1.25.83H243.6V5.32h5.34V9.11a10.77,10.77,0,0,1-.7,3.94A11.12,11.12,0,0,1,245.78,16.68Z"/><polygon class="cls-10" points="73.5 17.31 78.48 8.69 68.53 8.69 73.5 17.31"/><rect class="cls-11" x="28.52" y="31.69" width="139.65" height="56" rx="5.67"/><text class="cls-6" transform="translate(33.52 46.06)">item<tspan x="0" y="18">Rename </tspan><tspan class="cls-12" x="61.59" y="18">v</tspan><tspan x="69.46" y="18">ariable...</tspan><tspan x="0" y="36">N</tspan><tspan class="cls-13" x="11.19" y="36">e</tspan><tspan x="19.26" y="36">w </tspan><tspan class="cls-13" x="36.21" y="36">v</tspan><tspan class="cls-14" x="44.08" y="36">ariable...</tspan></text></g></g></svg>