<svg xmlns="http://www.w3.org/2000/svg" viewBox="0 0 595.28 238.2"><defs><style>.cls-1{fill:#3c866d;}.cls-2{fill:#4ba587;}.cls-10,.cls-3{fill:none;}.cls-3{stroke:#81c1ab;}.cls-3,.cls-4,.cls-7{stroke-miterlimit:4.8;stroke-width:1.2px;}.cls-4{fill:#3a53a4;stroke:#fff;}.cls-5,.cls-6,.cls-7{fill:#fff;}.cls-6{isolation:isolate;font-size:14.4px;font-family:ArialMT, Arial;}.cls-7{stroke:#ddd;}.cls-8{fill:#def1f0;fill-opacity:0.9;}.cls-9{fill:#010101;fill-opacity:0;}</style></defs><g id="Layer_2" data-name="Layer 2"><g id="Layer_1-2" data-name="Layer 1"><path class="cls-1" d="M45,179.4H238.13v6c0,12-9.6-9.6-9.6,9s9.6-3,9.6,9v12c0,12-9.6-9.6-9.6,9s9.6-3,9.6,9v4.8H45V203.4c0-12-9.6,9.6-9.6-9s9.6,3,9.6-9Z"/><path class="cls-2" d="M43.79,178.2H236.93v6c0,12-9.6-9.6-9.6,9s9.6-3,9.6,9v12c0,12-9.6-9.6-9.6,9s9.6-3,9.6,9V237H43.79V202.2c0-12-9.6,9.6-9.6-9s9.6,3,9.6-9Z"/><path class="cls-3" d="M44.39,178.8H236.33m-5.4,22.56,4.41-2.52m-4.41,32.52,4.41-2.52M44.39,236.4v-36m-8.83-.6a24.26,24.26,0,0,1,0-13.2m8.83,1.2v-9H45"/><rect class="cls-4" x="55.79" y="184.2" width="19.2" height="19.2" rx="4.8"/><path class="cls-5" d="M60.84,193v1.64l-1.11.81-.13.49,1.08,1.87.49.13,1.25-.54,1.43.82.15,1.36.36.36h2.16l.36-.36.15-1.37,1.42-.82,1.26.55.49-.13,1.08-1.87-.13-.49L70,194.6V193l1.11-.82.13-.49-1.08-1.87-.49-.13-1.26.55L67,189.38,66.88,188l-.36-.36H64.36L64,188l-.15,1.36-1.43.82-1.25-.55-.49.13-1.08,1.87.13.49Z"/><circle class="cls-4" cx="65.39" cy="193.8" r="3.24"/><text class="cls-6" transform="translate(88.19 199.2)">create text with</text><path class="cls-2" d="M113.52,71.34C88.43,92.06,70.86,186.13,70.86,186.13s54.49-72.36,79.59-93.07Z"/><rect class="cls-2" width="263.97" height="164.4" rx="7.2"/><rect class="cls-7" x="7.2" y="7.2" width="249.57" height="150"/><path class="cls-8" d="M7.2,7.2H99a9.6,9.6,0,0,1,9.6,9.6V147.6a9.6,9.6,0,0,1-9.6,9.6H7.2Z"/><rect class="cls-9" x="26.4" y="19.2" width="59.38" height="34.8"/><path class="cls-1" d="M27.6,30a9.6,9.6,0,0,1,9.6-9.6h8.4l7.2,4.8h3.6l7.2-4.8H87V49.2H63L55.8,54H52.2L45,49.2H37.2a9.6,9.6,0,0,1-9.6-9.6Z"/><path class="cls-2" d="M26.4,28.8A9.6,9.6,0,0,1,36,19.2h8.4L51.6,24h3.6l7.2-4.8H85.78V48h-24l-7.2,4.8H51L43.8,48H36a9.6,9.6,0,0,1-9.6-9.6Z"/><path class="cls-3" d="M27,28.2a9,9,0,0,1,9-8.4h8.4l7.2,4.8h3.6l7.2-4.8H85.18m-55.54,25A9,9,0,0,1,27,38.4V28.8"/><text class="cls-6" transform="translate(38.4 40.2)">item</text><path class="cls-1" d="M129,37.2a9.6,9.6,0,0,1,9.6-9.6H189v30h0l-7.2,4.8h-3.6L171,57.6h-8.4a9.6,9.6,0,0,0-9.6,9.6v44.4a9.6,9.6,0,0,0,9.6,9.6H189v12h-50.4a9.6,9.6,0,0,1-9.6-9.6Z"/><path class="cls-2" d="M127.78,36a9.6,9.6,0,0,1,9.6-9.6h50.4v30h0l-7.2,4.8H177l-7.2-4.8h-8.4a9.6,9.6,0,0,0-9.6,9.6v44.4a9.6,9.6,0,0,0,9.6,9.6h26.4v12h-50.4a9.6,9.6,0,0,1-9.6-9.6Z"/><path class="cls-3" d="M128.38,35.4a9,9,0,0,1,9-8.4h49.8m-33,90.61a10.17,10.17,0,0,0,7.21,3h25.8M131,128.76a9,9,0,0,1-2.64-6.36V36"/><text class="cls-6" transform="translate(139.78 47.4)">join</text><path class="cls-1" d="M154.18,68.4a9.6,9.6,0,0,1,9.6-9.6h8.4l7.2,4.8H183l7.2-4.8h23.39V87.6h-24l-7.2,4.8h-3.6l-7.2-4.8h-17.4Z"/><path class="cls-2" d="M153,67.2a9.6,9.6,0,0,1,9.6-9.6H171l7.2,4.8h3.6l7.2-4.8h23.39V86.4h-24l-7.2,4.8h-3.6l-7.2-4.8H153Z"/><path class="cls-3" d="M153.58,66.6a9,9,0,0,1,9-8.4H171l7.2,4.8h3.6l7.2-4.8h22.79M153.58,85.8V67.2"/><text class="cls-6" transform="translate(164.98 78.6)">item</text><path class="cls-1" d="M154.18,88.8h18l7.2,4.8H183l7.2-4.8h23.39v28.8h-24l-7.2,4.8h-3.6l-7.2-4.8h-7.8a9.6,9.6,0,0,1-9.6-9.6Z"/><path class="cls-2" d="M153,87.6h18l7.2,4.8h3.6l7.2-4.8h23.39v28.8h-24l-7.2,4.8h-3.6l-7.2-4.8h-7.8a9.6,9.6,0,0,1-9.6-9.6Z"/><path class="cls-3" d="M153.58,88.2H171l7.2,4.8h3.6l7.2-4.8h22.79m-55.55,25a9,9,0,0,1-2.64-6.36V88.2"/><text class="cls-6" transform="translate(164.98 108.6)">item</text><rect class="cls-10" width="595.28" height="18"/></g></g></svg>