<svg xmlns="http://www.w3.org/2000/svg" viewBox="0 0 595.4 138.66"><defs><style>.cls-1,.cls-4{fill:none;}.cls-2{fill:#3d865a;}.cls-3{fill:#49a670;}.cls-4{stroke:#81c29b;}.cls-5,.cls-8{isolation:isolate;font-size:15px;font-family:Mulish-Regular, Mulish;}.cls-5,.cls-7{fill:#fff;}.cls-6{letter-spacing:0em;}.cls-7{fill-opacity:0.6;}.cls-8,.cls-9{fill:#010101;}.cls-10{fill:#b1d5be;}.cls-11{letter-spacing:-0.01em;}</style></defs><g id="Layer_2" data-name="Layer 2"><g id="Layer_1-2" data-name="Layer 1"><rect class="cls-1" x="0.12" width="595.28" height="18"/><path class="cls-2" d="M9.12,1H102.9V26H9.12V21c0-10-8,8-8-7.5s8,2.5,8-7.5Z"/><path class="cls-3" d="M8.12,0H101.9V25H8.12V20c0-10-8,8-8-7.5s8,2.5,8-7.5Z"/><path class="cls-4" d="M8.62.5h19m0,0H101.4M8.62,24.5v-6M1.26,18a20.35,20.35,0,0,1,0-11M8.62,8V.5h.5"/><text class="cls-5" transform="translate(18.12 17.5)">g<tspan class="cls-6" x="9.06" y="0">e</tspan><tspan x="17.17" y="0">t</tspan></text><rect class="cls-7" x="45.05" y="5" width="51.85" height="16" rx="4"/><text class="cls-8" transform="translate(50.05 17.5)">day</text><polygon class="cls-9" points="87.92 17.31 92.9 8.69 82.95 8.69 87.92 17.31"/><rect class="cls-10" x="45.05" y="31.69" width="57.91" height="106.38" rx="5.67"/><text class="cls-8" transform="translate(49.46 44.56)">day<tspan x="0" y="18">month</tspan><tspan class="cls-11" x="0" y="36">y</tspan><tspan x="7.88" y="36">ear</tspan><tspan x="0" y="54">hour</tspan><tspan x="0" y="72">minute</tspan><tspan x="0" y="90">second</tspan></text><polygon class="cls-9" points="93.85 44.38 98.83 35.75 88.87 35.75 93.85 44.38"/></g></g></svg>