<svg xmlns="http://www.w3.org/2000/svg" viewBox="0 0 595.28 55"><defs><style>.cls-1,.cls-4{fill:none;}.cls-2{fill:#3d865a;}.cls-3{fill:#49a670;}.cls-4{stroke:#81c29b;}.cls-5,.cls-8{isolation:isolate;font-size:15px;font-family:Mulish-Regular, Mulish;}.cls-5,.cls-7{fill:#fff;}.cls-6{letter-spacing:0em;}.cls-7{fill-opacity:0.6;}.cls-8{fill:#010101;}.cls-9{letter-spacing:-0.01em;}</style></defs><g id="Layer_2" data-name="Layer 2"><g id="Layer_1-2" data-name="Layer 1"><rect class="cls-1" width="595.28" height="18"/><path class="cls-2" d="M1,9A8,8,0,0,1,9,1h7l6,4h3l6-4H253.93V51H30.5l-6,4h-3l-6-4H9a8,8,0,0,1-8-8Z"/><path class="cls-3" d="M0,8A8,8,0,0,1,8,0h7l6,4h3l6-4H252.93V50H29.5l-6,4h-3l-6-4H8a8,8,0,0,1-8-8Z"/><path class="cls-4" d="M.5,7.5A7.5,7.5,0,0,1,8,.5h7l6,4h3l6-4H252.43M2.7,47.3A7.47,7.47,0,0,1,.5,42V8"/><text class="cls-5" transform="translate(10 17.5)">s<tspan class="cls-6" x="7.44" y="0">e</tspan><tspan x="15.55" y="0">t date</tspan></text><rect class="cls-7" x="71.75" y="5" width="18.8" height="16" rx="4"/><text class="cls-8" transform="translate(76.75 17.5)">1</text><text class="cls-5" transform="translate(95.55 17.5)">month</text><rect class="cls-7" x="144.13" y="5" width="18.8" height="16" rx="4"/><text class="cls-8" transform="translate(149.13 17.5)">1</text><text class="cls-5" transform="translate(167.93 17.5)"><tspan class="cls-9">y</tspan><tspan x="7.88" y="0">ear</tspan></text><rect class="cls-7" x="202.73" y="5" width="45.2" height="16" rx="4"/><text class="cls-8" transform="translate(207.73 17.5)">2011</text><text class="cls-5" transform="translate(40.95 42.5)">hour</text><rect class="cls-7" x="76.7" y="30" width="18.8" height="16" rx="4"/><text class="cls-8" transform="translate(81.7 42.5)">0</text><text class="cls-5" transform="translate(100.5 42.5)">minute</text><rect class="cls-7" x="152.05" y="30" width="18.8" height="16" rx="4"/><text class="cls-8" transform="translate(157.05 42.5)">0</text><text class="cls-5" transform="translate(175.85 42.5)">second</text><rect class="cls-7" x="229.13" y="30" width="18.8" height="16" rx="4"/><text class="cls-8" transform="translate(234.13 42.5)">0</text></g></g></svg>