<svg xmlns="http://www.w3.org/2000/svg" viewBox="0 0 595.28 41"><defs><style>.cls-1,.cls-4,.cls-7{fill:none;}.cls-2{fill:#3c8655;}.cls-3{fill:#4aa669;}.cls-4{stroke:#81c197;}.cls-5{fill:#3d4986;}.cls-6{fill:#4c5ba6;}.cls-7{stroke:#818dc1;}.cls-10,.cls-8{fill:#fff;}.cls-8{fill-opacity:0.6;}.cls-10,.cls-9{isolation:isolate;font-size:15px;font-family:Mulish-Regular, Mulish;}.cls-9{fill:#010101;}.cls-11{letter-spacing:-0.01em;}</style></defs><g id="Layer_2" data-name="Layer 2"><g id="Layer_1-2" data-name="Layer 1"><rect class="cls-1" width="595.28" height="18"/><path class="cls-2" d="M1,9A8,8,0,0,1,9,1h7l6,4h3l6-4H216.65V37H30.5l-6,4h-3l-6-4H9a8,8,0,0,1-8-8ZM114.27,6H57.07v5c0,10-8-8-8,7.5s8-2.5,8,7.5v7h57.2Z"/><path class="cls-3" d="M0,8A8,8,0,0,1,8,0h7l6,4h3l6-4H215.65V36H29.5l-6,4h-3l-6-4H8a8,8,0,0,1-8-8ZM113.27,5H56.07v5c0,10-8-8-8,7.5s8-2.5,8,7.5v7h57.2Z"/><path class="cls-4" d="M.5,7.5A7.5,7.5,0,0,1,8,.5h7l6,4h3l6-4h9.5m0,0H215.15M2.7,33.3A7.47,7.47,0,0,1,.5,28V8M113.77,5.5v27H56.57M51,24.3l3.68-2.1"/><path class="cls-5" d="M58.07,7h55.2V32H58.07V27c0-10-8,8-8-7.5s8,2.5,8-7.5Z"/><path class="cls-6" d="M57.07,6h55.2V31H57.07V26c0-10-8,8-8-7.5s8,2.5,8-7.5Z"/><path class="cls-7" d="M57.57,6.5h54.2m-54.2,24v-6M50.21,24a20.15,20.15,0,0,1,0-11m7.36,1V6.5h.5"/><rect class="cls-8" x="62.07" y="11" width="45.2" height="16" rx="4"/><text class="cls-9" transform="translate(67.07 23.5)">1000</text><text class="cls-10" transform="translate(10 22.5)"><tspan class="cls-11">w</tspan><tspan x="12.94" y="0">ait</tspan></text><text class="cls-10" transform="translate(123.27 22.5)">milliseconds</text></g></g></svg>