<svg xmlns="http://www.w3.org/2000/svg" viewBox="0 0 595.28 95.9"><defs><style>.cls-1,.cls-10,.cls-7{fill:none;}.cls-2{fill:#b1d5be;}.cls-12,.cls-3{isolation:isolate;font-size:15px;font-family:Mulish-Regular, Mulish;}.cls-3,.cls-4{fill:#010101;}.cls-5{fill:#3d865a;}.cls-6{fill:#49a670;}.cls-7{stroke:#81c29b;}.cls-8{fill:#3d4986;}.cls-9{fill:#4c5ba6;}.cls-10{stroke:#818dc1;}.cls-11,.cls-12{fill:#fff;}.cls-11{fill-opacity:0.6;}</style></defs><g id="Layer_2" data-name="Layer 2"><g id="Layer_1-2" data-name="Layer 1"><rect class="cls-1" width="595.28" height="18"/><rect class="cls-2" x="98.88" y="42.69" width="57.91" height="53.21" rx="5.67"/><text class="cls-3" transform="translate(103.29 55.56)">hour<tspan x="0" y="18">minute</tspan><tspan x="0" y="36">second</tspan></text><polygon class="cls-4" points="147.68 55.38 152.66 46.75 142.7 46.75 147.68 55.38"/><path class="cls-5" d="M1,9A8,8,0,0,1,9,1h7l6,4h3l6-4H294.17V37H30.5l-6,4h-3l-6-4H9a8,8,0,0,1-8-8ZM218.47,6h-30.8v5c0,10-8-8-8,7.5s8-2.5,8,7.5v7h30.8Zm65.7,0h-30.8v5c0,10-8-8-8,7.5s8-2.5,8,7.5v7h30.8Z"/><path class="cls-6" d="M0,8A8,8,0,0,1,8,0h7l6,4h3l6-4H293.17V36H29.5l-6,4h-3l-6-4H8a8,8,0,0,1-8-8ZM217.47,5h-30.8v5c0,10-8-8-8,7.5s8-2.5,8,7.5v7h30.8Zm65.7,0h-30.8v5c0,10-8-8-8,7.5s8-2.5,8,7.5v7h30.8Z"/><path class="cls-7" d="M.5,7.5A7.5,7.5,0,0,1,8,.5h7l6,4h3l6-4h9.5m0,0H292.67M2.7,33.3A7.47,7.47,0,0,1,.5,28V8M218,5.5v27h-30.8m-5.6-8.2,3.68-2.1M283.67,5.5v27h-30.8m-5.6-8.2L251,22.2"/><path class="cls-8" d="M188.67,7h28.8V32h-28.8V27c0-10-8,8-8-7.5s8,2.5,8-7.5Z"/><path class="cls-9" d="M187.67,6h28.8V31h-28.8V26c0-10-8,8-8-7.5s8,2.5,8-7.5Z"/><path class="cls-10" d="M188.17,6.5H216m-27.8,24v-6m-7.36-.5a20.15,20.15,0,0,1,0-11m7.36,1V6.5h.5"/><rect class="cls-11" x="192.67" y="11" width="18.8" height="16" rx="4"/><text class="cls-3" transform="translate(197.67 23.5)">0</text><path class="cls-8" d="M254.37,7h28.8V32h-28.8V27c0-10-8,8-8-7.5s8,2.5,8-7.5Z"/><path class="cls-9" d="M253.37,6h28.8V31h-28.8V26c0-10-8,8-8-7.5s8,2.5,8-7.5Z"/><path class="cls-10" d="M253.87,6.5h27.8m-27.8,24v-6m-7.36-.5a20.15,20.15,0,0,1,0-11m7.36,1V6.5h.5"/><rect class="cls-11" x="258.37" y="11" width="18.8" height="16" rx="4"/><text class="cls-3" transform="translate(263.37 23.5)">0</text><text class="cls-12" transform="translate(10 22.5)">display time</text><rect class="cls-11" x="98.88" y="10" width="57.22" height="16" rx="4"/><text class="cls-3" transform="translate(103.88 22.5)">hour</text><text class="cls-12" transform="translate(161.1 22.5)">X</text><text class="cls-12" transform="translate(227.47 22.5)">Y</text><polygon class="cls-4" points="147.12 22.31 152.1 13.69 142.14 13.69 147.12 22.31"/></g></g></svg>