<svg xmlns="http://www.w3.org/2000/svg" viewBox="0 0 595.28 26"><defs><style>.cls-1,.cls-4{fill:none;}.cls-2{fill:#3c8655;}.cls-3{fill:#4aa669;}.cls-4{stroke:#81c197;}.cls-5{isolation:isolate;font-size:15px;fill:#fff;font-family:Mulish-Regular, Mulish;}.cls-6{letter-spacing:-0.01em;}.cls-7{letter-spacing:0em;}.cls-8{letter-spacing:-0.01em;}.cls-9{letter-spacing:-0.01em;}.cls-10{letter-spacing:0em;}.cls-11{letter-spacing:-0.01em;}.cls-12{letter-spacing:-0.01em;}.cls-13{letter-spacing:0em;}</style></defs><g id="Layer_2" data-name="Layer 2"><g id="Layer_1-2" data-name="Layer 1"><rect class="cls-1" width="595.28" height="18"/><path class="cls-2" d="M1,9A8,8,0,0,1,9,1h7l6,4h3l6-4H202.52V26H9a8,8,0,0,1-8-8Z"/><path class="cls-3" d="M0,8A8,8,0,0,1,8,0h7l6,4h3l6-4H201.52V25H8a8,8,0,0,1-8-8Z"/><path class="cls-4" d="M.5,7.5A7.5,7.5,0,0,1,8,.5h7l6,4h3l6-4h9.5m0,0H201M2.7,22.3A7.47,7.47,0,0,1,.5,17V8"/><text class="cls-5" transform="translate(10 17.5)"><tspan class="cls-6">w</tspan><tspan x="12.94" y="0">ait </tspan><tspan class="cls-7" x="34.68" y="0">f</tspan><tspan x="39.66" y="0">o</tspan><tspan class="cls-8" x="48.24" y="0">r</tspan><tspan class="cls-9" x="53.52" y="0">ev</tspan><tspan class="cls-10" x="69.46" y="0">er </tspan><tspan class="cls-11" x="86.97" y="0">(</tspan><tspan x="91.62" y="0">end p</tspan><tspan class="cls-12" x="130.47" y="0">r</tspan><tspan class="cls-13" x="135.75" y="0">og</tspan><tspan class="cls-12" x="153.39" y="0">r</tspan><tspan class="cls-13" x="158.67" y="0">am)</tspan></text></g></g></svg>