<svg xmlns="http://www.w3.org/2000/svg" viewBox="0 0 595.28 60.69"><defs><style>.cls-1{fill:#49a670;}.cls-2{fill:#ededee;}.cls-3{font-size:36px;fill:#231f20;font-family:Mulish-Bold, Mulish;font-weight:700;}.cls-4{fill:#d5dcf0;}.cls-5{fill:#ebf5fc;}.cls-6{fill:#3d59a0;}.cls-7{fill:#2a438b;}.cls-8{fill:#2c824f;}.cls-9{fill:#fedd42;}</style></defs><g id="Layer_2" data-name="Layer 2"><g id="Layer_1-2" data-name="Layer 1"><rect class="cls-1" y="4" width="595.28" height="56.69" rx="11.34"/><rect class="cls-2" width="595.28" height="56.69" rx="11.34"/><text class="cls-3" transform="translate(82.46 38.84)">Time</text><path class="cls-4" d="M41.61,42.52H25.42a2.84,2.84,0,0,1-2.84-2.83V36.85H44.34Z"/><path class="cls-5" d="M59.44,19.84V39.68h-34a2.83,2.83,0,0,1-2.84-2.83v-17l19.85-7.08Z"/><path class="cls-6" d="M27.59,25.51H26.08a.67.67,0,0,1-.66-.66V23.34a.66.66,0,0,1,.66-.66h1.51a.65.65,0,0,1,.66.66v1.51A.66.66,0,0,1,27.59,25.51Z"/><path class="cls-6" d="M33.26,25.51H31.75a.66.66,0,0,1-.66-.66V23.34a.65.65,0,0,1,.66-.66h1.51a.66.66,0,0,1,.66.66v1.51A.67.67,0,0,1,33.26,25.51Z"/><path class="cls-6" d="M38.93,25.51H37.42a.66.66,0,0,1-.66-.66V23.34a.65.65,0,0,1,.66-.66h1.51a.66.66,0,0,1,.66.66v1.51A.67.67,0,0,1,38.93,25.51Z"/><path class="cls-6" d="M44.6,25.51H43.09a.66.66,0,0,1-.66-.66V23.34a.65.65,0,0,1,.66-.66H44.6a.66.66,0,0,1,.66.66v1.51A.67.67,0,0,1,44.6,25.51Z"/><path class="cls-6" d="M50.26,25.51h-1.5a.67.67,0,0,1-.67-.66V23.34a.66.66,0,0,1,.67-.66h1.5a.66.66,0,0,1,.67.66v1.51A.67.67,0,0,1,50.26,25.51Z"/><path class="cls-6" d="M55.93,25.51h-1.5a.67.67,0,0,1-.67-.66V23.34a.66.66,0,0,1,.67-.66h1.5a.66.66,0,0,1,.67.66v1.51A.67.67,0,0,1,55.93,25.51Z"/><path class="cls-6" d="M27.59,31.18H26.08a.67.67,0,0,1-.66-.66V29a.66.66,0,0,1,.66-.66h1.51a.65.65,0,0,1,.66.66v1.51A.66.66,0,0,1,27.59,31.18Z"/><path class="cls-6" d="M33.26,31.18H31.75a.66.66,0,0,1-.66-.66V29a.65.65,0,0,1,.66-.66h1.51a.66.66,0,0,1,.66.66v1.51A.67.67,0,0,1,33.26,31.18Z"/><path class="cls-6" d="M38.93,31.18H37.42a.66.66,0,0,1-.66-.66V29a.65.65,0,0,1,.66-.66h1.51a.66.66,0,0,1,.66.66v1.51A.67.67,0,0,1,38.93,31.18Z"/><path class="cls-6" d="M45.26,31.18V29.06a.71.71,0,0,0-.71-.71H43.13a.7.7,0,0,0-.7.71v1.41a.7.7,0,0,0,.7.71Z"/><path class="cls-6" d="M27.59,36.85H26.08a.67.67,0,0,1-.66-.66V34.68a.66.66,0,0,1,.66-.66h1.51a.65.65,0,0,1,.66.66v1.51A.66.66,0,0,1,27.59,36.85Z"/><path class="cls-6" d="M33.26,36.85H31.75a.66.66,0,0,1-.66-.66V34.68a.65.65,0,0,1,.66-.66h1.51a.66.66,0,0,1,.66.66v1.51A.67.67,0,0,1,33.26,36.85Z"/><path class="cls-6" d="M38.93,36.85H37.42a.66.66,0,0,1-.66-.66V34.68a.65.65,0,0,1,.66-.66h1.51a.66.66,0,0,1,.66.66v1.51A.67.67,0,0,1,38.93,36.85Z"/><path class="cls-7" d="M55.91,22.68H54.45a.51.51,0,0,0-.25.05.68.68,0,0,1,.43.63v1.47a.68.68,0,0,1-.43.63.66.66,0,0,0,.25.05h1.46a.68.68,0,0,0,.69-.68V23.36A.68.68,0,0,0,55.91,22.68Z"/><path class="cls-7" d="M50.24,22.68H48.78a.53.53,0,0,0-.25.05.68.68,0,0,1,.43.63v1.47a.68.68,0,0,1-.43.63.7.7,0,0,0,.25.05h1.46a.68.68,0,0,0,.69-.68V23.36A.68.68,0,0,0,50.24,22.68Z"/><path class="cls-7" d="M44.58,22.68H43.11a.53.53,0,0,0-.25.05.68.68,0,0,1,.43.63v1.47a.68.68,0,0,1-.43.63.7.7,0,0,0,.25.05h1.47a.68.68,0,0,0,.68-.68V23.36A.68.68,0,0,0,44.58,22.68Z"/><path class="cls-7" d="M38.91,22.68H37.44a.53.53,0,0,0-.25.05.68.68,0,0,1,.43.63v1.47a.68.68,0,0,1-.43.63.7.7,0,0,0,.25.05h1.47a.68.68,0,0,0,.68-.68V23.36A.68.68,0,0,0,38.91,22.68Z"/><path class="cls-7" d="M33.24,22.68H31.77a.53.53,0,0,0-.25.05.68.68,0,0,1,.43.63v1.47a.68.68,0,0,1-.43.63.7.7,0,0,0,.25.05h1.47a.67.67,0,0,0,.68-.68V23.36A.67.67,0,0,0,33.24,22.68Z"/><path class="cls-7" d="M27.57,22.68H26.1a.53.53,0,0,0-.25.05.67.67,0,0,1,.44.63v1.47a.67.67,0,0,1-.44.63.7.7,0,0,0,.25.05h1.47a.67.67,0,0,0,.68-.68V23.36A.67.67,0,0,0,27.57,22.68Z"/><path class="cls-7" d="M27.57,28.35H26.1a.69.69,0,0,0-.25,0,.68.68,0,0,1,.44.64V30.5a.67.67,0,0,1-.44.63.7.7,0,0,0,.25.05h1.47a.68.68,0,0,0,.68-.68V29a.67.67,0,0,0-.68-.68Z"/><path class="cls-7" d="M27.57,34H26.1a.69.69,0,0,0-.25,0,.68.68,0,0,1,.44.64v1.47a.67.67,0,0,1-.44.63.7.7,0,0,0,.25.05h1.47a.68.68,0,0,0,.68-.68V34.7a.67.67,0,0,0-.68-.68Z"/><path class="cls-7" d="M33.24,28.35H31.77a.69.69,0,0,0-.25,0A.69.69,0,0,1,32,29V30.5a.68.68,0,0,1-.43.63.7.7,0,0,0,.25.05h1.47a.68.68,0,0,0,.68-.68V29a.67.67,0,0,0-.68-.68Z"/><path class="cls-7" d="M33.24,34H31.77a.69.69,0,0,0-.25,0,.69.69,0,0,1,.43.64v1.47a.68.68,0,0,1-.43.63.7.7,0,0,0,.25.05h1.47a.68.68,0,0,0,.68-.68V34.7a.67.67,0,0,0-.68-.68Z"/><path class="cls-7" d="M38.91,28.35H37.44a.69.69,0,0,0-.25,0,.69.69,0,0,1,.43.64V30.5a.68.68,0,0,1-.43.63.7.7,0,0,0,.25.05h1.47a.69.69,0,0,0,.68-.68V29a.68.68,0,0,0-.68-.68Z"/><path class="cls-7" d="M45.26,31.18V29a.68.68,0,0,0-.68-.68H43.11a.69.69,0,0,0-.25,0,.69.69,0,0,1,.43.64V30.5a.68.68,0,0,1-.43.63.7.7,0,0,0,.25.05Z"/><path class="cls-7" d="M38.91,34H37.44a.69.69,0,0,0-.25,0,.69.69,0,0,1,.43.64v1.47a.68.68,0,0,1-.43.63.7.7,0,0,0,.25.05h1.47a.69.69,0,0,0,.68-.68V34.7a.68.68,0,0,0-.68-.68Z"/><path class="cls-4" d="M57.47,19V39.69h2V19.84Z"/><path class="cls-1" d="M59.44,19.84V12.76A2.84,2.84,0,0,0,56.6,9.92H25.42a2.84,2.84,0,0,0-2.84,2.84v7.08Z"/><path class="cls-8" d="M31.51,13.4H29.67a.65.65,0,0,1,0-1.29h1.84a.65.65,0,1,1,0,1.29Z"/><path class="cls-8" d="M36.05,13.4H34.2a.65.65,0,0,1,0-1.29h1.85a.65.65,0,0,1,0,1.29Z"/><path class="cls-8" d="M47.81,13.4H46a.65.65,0,0,1,0-1.29h1.84a.65.65,0,1,1,0,1.29Z"/><path class="cls-8" d="M52.35,13.4H50.5a.65.65,0,0,1,0-1.29h1.85a.65.65,0,0,1,0,1.29Z"/><path class="cls-5" d="M34.63,12.4a1.77,1.77,0,1,1-3.54,0V8.86a1.77,1.77,0,0,1,3.54,0V12.4Z"/><path class="cls-5" d="M50.93,12.4a1.77,1.77,0,0,1-3.54,0V8.86a1.77,1.77,0,0,1,3.54,0V12.4Z"/><path class="cls-4" d="M49.16,7.09a1.79,1.79,0,0,0-1,.29A1.78,1.78,0,0,1,49,8.86V12.4a1.78,1.78,0,0,1-.78,1.48,1.79,1.79,0,0,0,1,.29,1.77,1.77,0,0,0,1.77-1.77V8.86A1.77,1.77,0,0,0,49.16,7.09Z"/><path class="cls-4" d="M32.86,7.09a1.79,1.79,0,0,0-1,.29,1.78,1.78,0,0,1,.78,1.48V12.4a1.78,1.78,0,0,1-.78,1.48,1.79,1.79,0,0,0,1,.29,1.77,1.77,0,0,0,1.77-1.77V8.86a1.77,1.77,0,0,0-1.77-1.77Z"/><path class="cls-8" d="M56.6,9.92h-2a2.84,2.84,0,0,1,2.84,2.84v7.08h2V12.76A2.84,2.84,0,0,0,56.6,9.92Z"/><path class="cls-8" d="M22.58,16.37H59.44v1.28H22.58Z"/><circle class="cls-1" cx="51.64" cy="38.98" r="10.63"/><circle class="cls-5" cx="51.64" cy="38.98" r="7.8"/><path class="cls-6" d="M51.64,38.2a.64.64,0,0,1-.64-.64V34a.64.64,0,1,1,1.28,0v3.54A.64.64,0,0,1,51.64,38.2Z"/><path class="cls-6" d="M55.18,39.62H53.06a.65.65,0,1,1,0-1.29h2.12a.65.65,0,0,1,0,1.29Z"/><path class="cls-8" d="M51.64,28.35c-.33,0-.66,0-1,0a10.63,10.63,0,0,1,0,21.17c.32,0,.65,0,1,0a10.63,10.63,0,1,0,0-21.26Z"/><path class="cls-4" d="M51.64,31.18a7.93,7.93,0,0,0-1,.06,7.8,7.8,0,0,1,0,15.47,7.93,7.93,0,0,0,1,.06,7.8,7.8,0,0,0,0-15.59Z"/><circle class="cls-9" cx="51.64" cy="38.98" r="1.42"/></g></g></svg>