<svg xmlns="http://www.w3.org/2000/svg" viewBox="0 0 595.28 84.9"><defs><style>.cls-1,.cls-7{fill:none;}.cls-2{fill:#b1d5be;}.cls-3,.cls-8{isolation:isolate;font-size:15px;font-family:Mulish-Regular, Mulish;}.cls-3,.cls-4{fill:#010101;}.cls-5{fill:#3d865a;}.cls-6{fill:#49a670;}.cls-7{stroke:#81c29b;}.cls-8,.cls-9{fill:#fff;}.cls-9{fill-opacity:0.6;}</style></defs><g id="Layer_2" data-name="Layer 2"><g id="Layer_1-2" data-name="Layer 1"><rect class="cls-1" width="595.28" height="18"/><rect class="cls-2" x="128.42" y="31.69" width="35.43" height="53.21" rx="5.67"/><text class="cls-3" transform="translate(132.82 44.56)">1<tspan x="0" y="18">2</tspan><tspan x="0" y="36">3</tspan></text><polygon class="cls-4" points="154.71 44.38 159.68 35.75 149.73 35.75 154.71 44.38"/><path class="cls-5" d="M1,9A8,8,0,0,1,9,1h7l6,4h3l6-4H169.68V26H30.5l-6,4h-3l-6-4H9a8,8,0,0,1-8-8Z"/><path class="cls-6" d="M0,8A8,8,0,0,1,8,0h7l6,4h3l6-4H168.68V25H29.5l-6,4h-3l-6-4H8a8,8,0,0,1-8-8Z"/><path class="cls-7" d="M.5,7.5A7.5,7.5,0,0,1,8,.5h7l6,4h3l6-4H168.18M2.7,22.3A7.47,7.47,0,0,1,.5,17V8"/><text class="cls-8" transform="translate(10 17.5)">display time</text><text class="cls-8" transform="translate(99.88 17.5)">line</text><rect class="cls-9" x="128.42" y="5" width="35.27" height="16" rx="4"/><text class="cls-3" transform="translate(133.42 17.5)">1</text><polygon class="cls-4" points="154.71 17.31 159.68 8.69 149.73 8.69 154.71 17.31"/></g></g></svg>