<svg xmlns="http://www.w3.org/2000/svg" viewBox="0 0 595.28 60.69"><defs><style>.cls-1{fill:#84a550;}.cls-2{fill:#ededee;}.cls-3{font-size:36px;fill:#231f20;font-family:Mulish-Bold, Mulish;font-weight:700;}.cls-4{fill:#5d6771;}.cls-5{fill:#a4a9ad;}.cls-6{fill:#343f49;}.cls-7{fill:#62883b;}</style></defs><g id="Layer_2" data-name="Layer 2"><g id="Layer_1-2" data-name="Layer 1"><rect class="cls-1" y="4" width="595.28" height="56.69" rx="11.34"/><rect class="cls-2" width="595.28" height="56.69" rx="11.34"/><text class="cls-3" transform="translate(82.46 38.84)">USB</text><rect class="cls-4" x="56.38" y="10.32" width="5.53" height="8.82"/><rect class="cls-5" x="56.38" y="8.7" width="5.53" height="8.82"/><rect class="cls-6" x="57.96" y="14.26" width="2.76" height="1.48"/><rect class="cls-6" x="57.96" y="10.49" width="2.76" height="1.48"/><rect class="cls-1" x="46.67" y="7.09" width="9.71" height="12.06"/><rect class="cls-7" x="46.67" y="19.15" width="9.71" height="2.49"/><rect class="cls-4" x="22.94" y="38.29" width="5.53" height="8.82"/><rect class="cls-5" x="22.94" y="36.67" width="5.53" height="8.82"/><rect class="cls-6" x="24.13" y="42.23" width="2.76" height="1.48"/><rect class="cls-6" x="24.13" y="38.46" width="2.76" height="1.48"/><rect class="cls-1" x="28.47" y="35.05" width="9.71" height="12.06"/><rect class="cls-7" x="28.47" y="47.12" width="9.71" height="2.49"/><path class="cls-4" d="M54.87,43.6H38.18V41.26H54.87a5.88,5.88,0,0,0,0-11.75H30A8.21,8.21,0,1,1,30,13.1H46.67v2.33H30a5.88,5.88,0,0,0,0,11.75H54.87a8.21,8.21,0,0,1,0,16.42Z"/></g></g></svg>