<svg xmlns="http://www.w3.org/2000/svg" viewBox="0 0 595.4 26"><defs><style>.cls-1,.cls-4{fill:none;}.cls-2{fill:#6b8542;}.cls-3{fill:#84a550;}.cls-4{stroke:#aac186;}.cls-5{isolation:isolate;font-size:15px;fill:#fff;font-family:Mulish-Regular, Mulish;}.cls-6{letter-spacing:0em;}</style></defs><g id="Layer_2" data-name="Layer 2"><g id="Layer_1-2" data-name="Layer 1"><rect class="cls-1" x="0.12" width="595.28" height="18"/><path class="cls-2" d="M9.12,1h169.8V26H9.12V21c0-10-8,8-8-7.5s8,2.5,8-7.5Z"/><path class="cls-3" d="M8.12,0h169.8V25H8.12V20c0-10-8,8-8-7.5s8,2.5,8-7.5Z"/><path class="cls-4" d="M8.62.5h19m0,0h149.8M8.62,24.5v-6M1.26,18a20.35,20.35,0,0,1,0-11M8.62,8V.5h.5"/><text class="cls-5" transform="translate(18.12 17.5)">check USB conne<tspan class="cls-6" x="119.58" y="0">c</tspan><tspan x="127.02" y="0">tion</tspan></text></g></g></svg>