<svg xmlns="http://www.w3.org/2000/svg" viewBox="0 0 595.28 167.25"><defs><style>.cls-1,.cls-4{fill:none;}.cls-2{fill:#873d61;}.cls-3{fill:#a74c78;}.cls-4{stroke:#c281a1;}.cls-5,.cls-7{isolation:isolate;font-size:15px;font-family:Mulish-Regular, Mulish;}.cls-5,.cls-6{fill:#fff;}.cls-6{fill-opacity:0.6;}.cls-11,.cls-7{fill:#010101;}.cls-8{letter-spacing:-0.01em;}.cls-9{letter-spacing:0em;}.cls-10{letter-spacing:0em;}.cls-12{fill:#e2e2e2;stroke:#b7b7b7;}.cls-13{letter-spacing:-0.01em;}.cls-14{letter-spacing:-0.01em;}.cls-15{letter-spacing:0em;}.cls-16{fill:#d8acbb;}.cls-17{letter-spacing:-0.01em;}.cls-18{letter-spacing:0.04em;}</style></defs><g id="Layer_2" data-name="Layer 2"><g id="Layer_1-2" data-name="Layer 1"><rect class="cls-1" width="595.28" height="18"/><path class="cls-2" d="M1,9A8,8,0,0,1,9,1h7l6,4h3l6-4h97.82V6c0,10-8-8-8,7.5s8-2.5,8,7.5V36H30.5l-6,4h-3l-6-4H9a8,8,0,0,1-8-8Z"/><path class="cls-3" d="M0,8A8,8,0,0,1,8,0h7l6,4h3l6-4h97.82V5c0,10-8-8-8,7.5s8-2.5,8,7.5V35H29.5l-6,4h-3l-6-4H8a8,8,0,0,1-8-8Z"/><path class="cls-4" d="M.5,7.5A7.5,7.5,0,0,1,8,.5h7l6,4h3l6-4h97.32m-4.5,18.8,3.68-2.1M2.7,32.3A7.47,7.47,0,0,1,.5,27V8"/><path class="cls-2" d="M129.82,1H289.93V36H129.82V21c0-10-8,8-8-7.5s8,2.5,8-7.5Zm30.5,5h-14.5v5c0,10-8-8-8,7.5s8-2.5,8,7.5v6h14.5Z"/><path class="cls-3" d="M128.82,0H288.93V35H128.82V20c0-10-8,8-8-7.5s8,2.5,8-7.5Zm30.5,5h-14.5v5c0,10-8-8-8,7.5s8-2.5,8,7.5v6h14.5Z"/><path class="cls-4" d="M129.32.5h19m0,0H288.43m-159.11,34v-16M122,18a20.15,20.15,0,0,1,0-11m7.36,1V.5h.5m30,5v26h-14.5m-5.6-7.2,3.68-2.1"/><text class="cls-5" transform="translate(169.32 22.5)">as</text><rect class="cls-6" x="190.38" y="10" width="93.55" height="16" rx="4"/><text class="cls-7" transform="translate(195.38 22.5)">cha<tspan class="cls-8" x="25.2" y="0">r</tspan><tspan x="30.48" y="0">a</tspan><tspan class="cls-9" x="39.48" y="0">c</tspan><tspan x="46.92" y="0">ter</tspan></text><text class="cls-5" transform="translate(10 17.5)">s<tspan class="cls-10" x="7.44" y="0">e</tspan><tspan x="15.55" y="0">t</tspan></text><rect class="cls-6" x="35.33" y="5" width="55.97" height="16" rx="4"/><text class="cls-7" transform="translate(40.33 17.5)">item</text><text class="cls-5" transform="translate(96.3 17.5)">to</text><polygon class="cls-11" points="82.32 17.31 87.3 8.69 77.34 8.69 82.32 17.31"/><polygon class="cls-11" points="274.95 22.31 279.93 13.69 269.98 13.69 274.95 22.31"/><rect class="cls-12" x="35.33" y="41.69" width="139.65" height="56" rx="5.67"/><text class="cls-7" transform="translate(40.33 56.06)">item<tspan x="0" y="18">Rename </tspan><tspan class="cls-13" x="61.59" y="18">v</tspan><tspan x="69.46" y="18">ariable...</tspan><tspan x="0" y="36">N</tspan><tspan class="cls-14" x="11.19" y="36">e</tspan><tspan x="19.26" y="36">w </tspan><tspan class="cls-14" x="36.21" y="36">v</tspan><tspan class="cls-15" x="44.08" y="36">ariable...</tspan></text><rect class="cls-16" x="190.38" y="41.69" width="109.32" height="125.56" rx="5.67"/><text class="cls-7" transform="translate(195.38 54.56)">cha<tspan class="cls-8" x="25.2" y="0">r</tspan><tspan x="30.48" y="0">a</tspan><tspan class="cls-9" x="39.48" y="0">c</tspan><tspan x="46.92" y="0">ter</tspan><tspan x="0" y="18">t</tspan><tspan class="cls-17" x="5.25" y="18">e</tspan><tspan x="13.3" y="18">xt</tspan><tspan x="0" y="36">boolean</tspan><tspan x="0" y="54">sho</tspan><tspan class="cls-18" x="24.79" y="54">r</tspan><tspan x="30.82" y="54">t number</tspan><tspan x="0" y="72">number</tspan><tspan x="0" y="90">la</tspan><tspan class="cls-8" x="12.57" y="90">r</tspan><tspan x="17.85" y="90">ge number</tspan><tspan x="0" y="108">decimal</tspan></text><polygon class="cls-11" points="289.06 54.38 294.04 45.75 284.08 45.75 289.06 54.38"/></g></g></svg>