<svg xmlns="http://www.w3.org/2000/svg" viewBox="0 0 595.28 88.19"><defs><style>.cls-1,.cls-4{fill:none;}.cls-2{fill:#873d61;}.cls-3{fill:#a74c78;}.cls-4{stroke:#c281a1;}.cls-5,.cls-8{isolation:isolate;font-size:15px;font-family:Mulish-Regular, Mulish;}.cls-5,.cls-7{fill:#fff;}.cls-6{letter-spacing:0em;}.cls-7{fill-opacity:0.6;}.cls-8,.cls-9{fill:#010101;}.cls-10{fill:#e2e2e2;stroke:#b7b7b7;}.cls-11{letter-spacing:-0.01em;}.cls-12{letter-spacing:-0.01em;}.cls-13{letter-spacing:0em;}</style></defs><g id="Layer_2" data-name="Layer 2"><g id="Layer_1-2" data-name="Layer 1"><rect class="cls-1" width="595.28" height="18"/><path class="cls-2" d="M1,9A8,8,0,0,1,9,1h7l6,4h3l6-4h97.82V6c0,10-8-8-8,7.5s8-2.5,8,7.5v5H30.5l-6,4h-3l-6-4H9a8,8,0,0,1-8-8Z"/><path class="cls-3" d="M0,8A8,8,0,0,1,8,0h7l6,4h3l6-4h97.82V5c0,10-8-8-8,7.5s8-2.5,8,7.5v5H29.5l-6,4h-3l-6-4H8a8,8,0,0,1-8-8Z"/><path class="cls-4" d="M.5,7.5A7.5,7.5,0,0,1,8,.5h7l6,4h3l6-4h97.32m-4.5,18.8,3.68-2.1M2.7,22.3A7.47,7.47,0,0,1,.5,17V8"/><text class="cls-5" transform="translate(10 17.5)">s<tspan class="cls-6" x="7.44" y="0">e</tspan><tspan x="15.55" y="0">t</tspan></text><rect class="cls-7" x="35.33" y="5" width="55.97" height="16" rx="4"/><text class="cls-8" transform="translate(40.33 17.5)">item</text><text class="cls-5" transform="translate(96.3 17.5)">to</text><polygon class="cls-9" points="81.32 17.31 86.3 8.69 76.34 8.69 81.32 17.31"/><rect class="cls-10" x="35.33" y="31.69" width="139.65" height="56" rx="5.67"/><text class="cls-8" transform="translate(40.33 46.06)">item<tspan x="0" y="18">Rename </tspan><tspan class="cls-11" x="61.59" y="18">v</tspan><tspan x="69.46" y="18">ariable...</tspan><tspan x="0" y="36">N</tspan><tspan class="cls-12" x="11.19" y="36">e</tspan><tspan x="19.26" y="36">w </tspan><tspan class="cls-12" x="36.21" y="36">v</tspan><tspan class="cls-13" x="44.08" y="36">ariable...</tspan></text></g></g></svg>