<svg xmlns="http://www.w3.org/2000/svg" viewBox="0 0 595.4 167.25"><defs><style>.cls-1,.cls-4{fill:none;}.cls-2{fill:#873d61;}.cls-3{fill:#a74c78;}.cls-4{stroke:#c281a1;}.cls-5,.cls-7{isolation:isolate;font-size:15px;font-family:Mulish-Regular, Mulish;}.cls-5,.cls-6{fill:#fff;}.cls-6{fill-opacity:0.6;}.cls-10,.cls-7{fill:#010101;}.cls-8{letter-spacing:-0.01em;}.cls-9{letter-spacing:0em;}.cls-11{fill:#d8acbb;}.cls-12{letter-spacing:-0.01em;}.cls-13{letter-spacing:0.04em;}</style></defs><g id="Layer_2" data-name="Layer 2"><g id="Layer_1-2" data-name="Layer 1"><rect class="cls-1" x="0.12" width="595.28" height="18"/><path class="cls-2" d="M9.12,1H169.24V36H9.12V21c0-10-8,8-8-7.5s8,2.5,8-7.5Zm30.5,5H25.12v5c0,10-8-8-8,7.5s8-2.5,8,7.5v6h14.5Z"/><path class="cls-3" d="M8.12,0H168.24V35H8.12V20c0-10-8,8-8-7.5s8,2.5,8-7.5Zm30.5,5H24.12v5c0,10-8-8-8,7.5s8-2.5,8,7.5v6h14.5Z"/><path class="cls-4" d="M8.62.5h19m0,0H167.74M8.62,34.5v-16M1.26,18a20.35,20.35,0,0,1,0-11M8.62,8V.5h.5m30,5v26H24.62M19,24.3l3.68-2.1"/><text class="cls-5" transform="translate(48.62 22.5)">as</text><rect class="cls-6" x="69.69" y="10" width="93.55" height="16" rx="4"/><text class="cls-7" transform="translate(74.69 22.5)">cha<tspan class="cls-8" x="25.2" y="0">r</tspan><tspan x="30.48" y="0">a</tspan><tspan class="cls-9" x="39.48" y="0">c</tspan><tspan x="46.92" y="0">ter</tspan></text><polygon class="cls-10" points="154.26 22.31 159.24 13.69 149.28 13.69 154.26 22.31"/><rect class="cls-11" x="69.69" y="41.69" width="109.32" height="125.56" rx="5.67"/><text class="cls-7" transform="translate(74.69 54.57)">cha<tspan class="cls-8" x="25.2" y="0">r</tspan><tspan x="30.48" y="0">a</tspan><tspan class="cls-9" x="39.48" y="0">c</tspan><tspan x="46.92" y="0">ter</tspan><tspan x="0" y="18">t</tspan><tspan class="cls-12" x="5.25" y="18">e</tspan><tspan x="13.3" y="18">xt</tspan><tspan x="0" y="36">boolean</tspan><tspan x="0" y="54">sho</tspan><tspan class="cls-13" x="24.79" y="54">r</tspan><tspan x="30.82" y="54">t number</tspan><tspan x="0" y="72">number</tspan><tspan x="0" y="90">la</tspan><tspan class="cls-8" x="12.57" y="90">r</tspan><tspan x="17.85" y="90">ge number</tspan><tspan x="0" y="108">decimal</tspan></text><polygon class="cls-10" points="168.37 54.38 173.34 45.75 163.39 45.75 168.37 54.38"/></g></g></svg>