<svg xmlns="http://www.w3.org/2000/svg" viewBox="0 0 595.4 88.19"><defs><style>.cls-1,.cls-4{fill:none;}.cls-2{fill:#873d61;}.cls-3{fill:#a74c78;}.cls-4{stroke:#c281a1;}.cls-5{fill:#fff;fill-opacity:0.6;}.cls-6{isolation:isolate;font-size:15px;font-family:Mulish-Regular, Mulish;}.cls-6,.cls-7{fill:#010101;}.cls-8{fill:#e2e2e2;stroke:#b7b7b7;}.cls-9{letter-spacing:-0.01em;}.cls-10{letter-spacing:-0.01em;}.cls-11{letter-spacing:0em;}</style></defs><g id="Layer_2" data-name="Layer 2"><g id="Layer_1-2" data-name="Layer 1"><rect class="cls-1" x="0.12" width="595.28" height="18"/><path class="cls-2" d="M9.12,1h66V26h-66V21c0-10-8,8-8-7.5s8,2.5,8-7.5Z"/><path class="cls-3" d="M8.12,0h66V25h-66V20c0-10-8,8-8-7.5s8,2.5,8-7.5Z"/><path class="cls-4" d="M8.62.5h65m-65,24v-6M1.26,18a20.35,20.35,0,0,1,0-11M8.62,8V.5h.5"/><rect class="cls-5" x="13.12" y="5" width="55.97" height="16" rx="4"/><text class="cls-6" transform="translate(18.12 17.5)">item</text><polygon class="cls-7" points="57.11 17.31 62.09 8.69 52.13 8.69 57.11 17.31"/><rect class="cls-8" x="13.12" y="31.69" width="139.65" height="56" rx="5.67"/><text class="cls-6" transform="translate(18.12 46.06)">item<tspan x="0" y="18">Rename </tspan><tspan class="cls-9" x="61.59" y="18">v</tspan><tspan x="69.46" y="18">ariable...</tspan><tspan x="0" y="36">N</tspan><tspan class="cls-10" x="11.19" y="36">e</tspan><tspan x="19.26" y="36">w </tspan><tspan class="cls-10" x="36.21" y="36">v</tspan><tspan class="cls-11" x="44.08" y="36">ariable...</tspan></text></g></g></svg>