<svg xmlns="http://www.w3.org/2000/svg" viewBox="0 0 595.28 60.69"><defs><style>.cls-1{fill:#a74c78;}.cls-2{fill:#ededee;}.cls-3{font-size:36px;fill:#231f20;font-family:Mulish-Bold, Mulish;font-weight:700;}.cls-4{letter-spacing:-0.06em;}.cls-5{fill:#2c93c0;}.cls-6{fill:#a2c5e8;}</style></defs><g id="Layer_2" data-name="Layer 2"><g id="Layer_1-2" data-name="Layer 1"><rect class="cls-1" y="4" width="595.28" height="56.69" rx="11.34"/><rect class="cls-2" width="595.28" height="56.69" rx="11.34"/><text class="cls-3" transform="translate(82.46 38.84)"><tspan class="cls-4">V</tspan><tspan x="23.83" y="0">ariables</tspan></text><path class="cls-5" d="M25.8,21.61l6,3.9-.71,1.1-6-3.91Z"/><path class="cls-5" d="M44.5,17l5.57,1.81-.4,1.24L44.1,18.27Z"/><path class="cls-5" d="M59.19,11.9l.91.93-6.49,6.33-.91-.93Z"/><path class="cls-5" d="M40.61,18.05l1,.88-6.64,7.2-1-.89Z"/><path class="cls-6" d="M21.17,29.48h5.24V48.33H21.17Z"/><path class="cls-6" d="M30.48,35.54h5.25V48.33H30.48Z"/><path class="cls-6" d="M39.8,25.45h5.25V48.33H39.8Z"/><path class="cls-6" d="M49.12,28.47h5.25V48.33H49.12Z"/><path class="cls-6" d="M58.44,19.39h5.25V48.33H58.44Z"/><path class="cls-1" d="M26.41,21.08a2.62,2.62,0,1,1-2.62-2.62A2.62,2.62,0,0,1,26.41,21.08Z"/><path class="cls-1" d="M63.69,11a2.63,2.63,0,1,1-2.63-2.63A2.63,2.63,0,0,1,63.69,11Z"/><path class="cls-1" d="M54.37,20.07a2.63,2.63,0,1,1-2.63-2.62A2.62,2.62,0,0,1,54.37,20.07Z"/><path class="cls-1" d="M45.05,17a2.63,2.63,0,1,1-2.62-2.62A2.62,2.62,0,0,1,45.05,17Z"/><path class="cls-1" d="M35.73,27.14a2.63,2.63,0,1,1-2.62-2.63A2.62,2.62,0,0,1,35.73,27.14Z"/></g></g></svg>