<svg xmlns="http://www.w3.org/2000/svg" viewBox="0 0 595.28 265.17"><defs><style>.cls-1{fill:#09090d;}.cls-2{fill:#62bb46;}.cls-3{fill:#4b4a40;}.cls-4{fill:#a81e21;}.cls-5{fill:#d42126;}.cls-6{fill:#33449a;}.cls-7{fill:#e9e8e8;}.cls-8{fill:#5b110f;}.cls-9{fill:#40b349;}.cls-10{fill:#1e1b56;}.cls-11{fill:#3a52a3;}.cls-12{fill:#999d9e;}.cls-13{fill:#616154;}.cls-14{fill:#ceb889;}.cls-15{fill:#921b1d;}.cls-16{fill:#252568;}.cls-17{fill:#949799;}.cls-18{fill:#58130d;}.cls-19{fill:#a2a28c;}.cls-20{fill:#e1e1e1;}.cls-21{fill:#2d2920;}.cls-22{fill:#0f8843;}.cls-23{fill:#1b5b30;}.cls-24{fill:#9d9d89;}.cls-25{fill:#c92227;}.cls-26{fill:#35120b;}.cls-27{fill:#e2e2e2;}.cls-28{fill:#49483f;}.cls-29{fill:#b1b4b6;}.cls-30{fill:#2a2720;}.cls-31{fill:#0a0828;}.cls-32{fill:#bfbebe;}.cls-33{fill:#13361b;}.cls-34{fill:#30312e;}.cls-35{fill:#cacac9;}.cls-36{fill:#1c1d1a;}.cls-37{fill:#030403;}.cls-38{fill:#171918;}.cls-39{fill:#232427;}.cls-40{fill:#030304;}.cls-41{fill:#121210;}.cls-42{fill:#252625;}.cls-43{fill:#444545;}.cls-44{fill:#2b2923;}.cls-45{fill:#2c2921;}.cls-46{fill:#1a1710;}.cls-47{fill:#353535;}.cls-48{fill:#2d2c2a;}.cls-49{fill:#4a4c4d;}.cls-50{fill:#4b4a41;}.cls-51{fill:#a0a4a5;}.cls-52{fill:#2e2a23;}.cls-53{fill:#e3e3e3;}.cls-54{fill:#858889;}.cls-55{fill:#616364;}.cls-56{fill:#fcfdfd;}.cls-57{fill:#979657;}.cls-58{fill:#979783;}.cls-59{fill:#fbfcfc;}.cls-60{fill:#656558;}.cls-61{fill:#b9bcbe;}.cls-62{fill:#cfb98a;}.cls-63{fill:#5a5a5a;}.cls-64{fill:#7a7974;}.cls-65{fill:#aeb2b3;}.cls-66{fill:#868a8b;}.cls-67{fill:#797969;}.cls-68{fill:#443917;}.cls-69{fill:#b7babc;}.cls-70{fill:#5f6263;}.cls-71{fill:#babfc0;}.cls-72{fill:#9ca0a1;}.cls-73{fill:#838271;}.cls-74{fill:#8a8a78;}.cls-75{fill:#5e5e52;}.cls-76{fill:#5d5d51;}.cls-77{fill:#676759;}.cls-78{fill:#9b9a98;}.cls-79{fill:#f8f8f8;}.cls-80{fill:#cdb789;}.cls-81{fill:#a2a28d;}.cls-82{fill:#8f8f7c;}.cls-83{fill:#dfdfde;}.cls-84{fill:#56471c;}.cls-85{fill:#dfe0df;}.cls-86{fill:#54461c;}.cls-87{fill:#4a4a40;}.cls-88{fill:#767566;}.cls-89{fill:#6b6965;}.cls-90{fill:#6f6e6a;}.cls-91{fill:#aaaa63;}.cls-92{fill:#e1e2e1;}.cls-93{fill:#8a8a77;}.cls-94{fill:#5f5946;}.cls-95{fill:#6f6d69;}.cls-96{fill:#a0a08b;}.cls-97{fill:#4e4e3d;}.cls-98{fill:#878a8b;}.cls-99{fill:#74736f;}.cls-100{fill:#959581;}.cls-101{fill:#a7a763;}.cls-102{fill:#939380;}.cls-103{fill:#2d291e;}.cls-104{fill:#7f7e7b;}.cls-105{fill:#a88a30;}.cls-106{fill:#a6872f;}.cls-107{fill:#4a4b4c;}.cls-108{fill:#8e8d8a;}.cls-109{fill:#7d7b77;}.cls-110{fill:#c7c673;}.cls-111{fill:#6c6b5d;}.cls-112{fill:#6d6c5e;}.cls-113{fill:#6c6c5e;}.cls-114{fill:#a1a18c;}.cls-115{fill:#9d9c9a;}.cls-116{fill:#5a5751;}.cls-117{fill:#8b783e;}.cls-118{fill:#706e69;}.cls-119{fill:#d4d4d4;}.cls-120{fill:#65635d;}.cls-121{fill:#a2a1a2;}.cls-122{fill:#b2b5b7;}.cls-123{fill:#8c793e;}.cls-124{fill:#8b8a8a;}.cls-125{fill:#757565;}.cls-126{fill:#928363;}.cls-127{fill:#625f59;}.cls-128{fill:#908161;}.cls-129{fill:#d6d6d5;}.cls-130{fill:#9c812f;}.cls-131{fill:#8a8e8f;}.cls-132{fill:#917b36;}.cls-133{fill:#a4a3a3;}.cls-134{fill:#e0e0e0;}.cls-135{fill:#979785;}.cls-136{fill:#5c5b58;}.cls-137{fill:#6d6c68;}.cls-138{fill:#866e2a;}.cls-139{fill:#bcbbbb;}.cls-140{fill:#6d6b67;}.cls-141{fill:#a99671;}.cls-142{fill:#72716f;}.cls-143{fill:#92792d;}.cls-144{fill:#1e1e1d;}.cls-145{fill:#c42226;}.cls-146{fill:#c2c170;}.cls-147{fill:#7e6c36;}.cls-148{fill:#8a3c20;}.cls-149{fill:#615323;}.cls-150{fill:#360903;}.cls-151{fill:#282870;}.cls-152{fill:#2c338a;}.cls-153{fill:#9f9ea0;}.cls-154{fill:#a4a3a5;}.cls-155{fill:#a3a2a4;}.cls-156{fill:#9e9d9f;}.cls-157{fill:#a5a4a6;}.cls-158{fill:#a5a4a7;}.cls-159{fill:#929193;}.cls-160{fill:#48484c;}.cls-161{fill:#6a696d;}.cls-162{fill:#181916;}.cls-163{fill:#82817f;}.cls-164{fill:#88814e;}.cls-165{fill:#2d2e1b;}.cls-166{fill:#25261b;}.cls-167{fill:#343532;}.cls-168{fill:#9d9c9c;}.cls-169{fill:#1f1f23;}.cls-170{fill:#e82225;}.cls-171{fill:#33ac49;}.cls-172{fill:#35479d;}.cls-173,.cls-174,.cls-176,.cls-178{fill:none;}.cls-173{stroke:#0f8843;}.cls-173,.cls-174,.cls-176{stroke-linecap:round;stroke-miterlimit:10;stroke-width:2px;}.cls-174{stroke:#2b2867;}.cls-175{fill:#2b2867;}.cls-176{stroke:#58150f;}.cls-177{fill:#58150f;}</style></defs><g id="Layer_2" data-name="Layer 2"><g id="Layer_1-2" data-name="Layer 1"><path class="cls-1" d="M159,141.48l-.4.33a2.86,2.86,0,0,0-1.78,2.5c0,1.21.22,2.15,1.51,2.55a3,3,0,0,1,1.47.85l0,.06c-.21.75-1,.43-1.45.73.86,1.18,1.58,2.36.93,3.9-.28.69.2,1.22.61,1.73a19.8,19.8,0,0,0,2.9,2.5c.5.42,1.3.73.92,1.66L164,160c-.68.65-1.46.33-2.19.18-6.28-1.28-12.6-2.37-18.87-3.72-5.25-1.14-10.59-1.93-15.8-3.21-2.68-.66-5.41-1-8.08-1.64-1.53-.38-3-1.25-4.65-1a.62.62,0,0,1-.76-.66c0-.37.29-.55.59-.67a6.42,6.42,0,0,1,1.51-.3,66.2,66.2,0,0,1,6.7,1.2,3,3,0,0,0,2.53-.31c1,.11.92-.68,1-1.22a1.3,1.3,0,0,0-1.35-1.47c-3.6-1.13-6-3.39-6.81-7.16.36-.9,1.06-.5,1.64-.39q16.26,3.17,32.54,6.29c2.47.48,4-1.13,3.33-3.54-.22-.79-.94-.8-1.54-.93-2.33-.49-4.65-1-7-1.4-8.78-1.62-17.52-3.45-26.31-5.06a4.55,4.55,0,0,1-2-.68c-.34-.32-.23-.84-.47-1.16-.58-.78-1.15-1-1.36.28a3.39,3.39,0,0,1,.1.48,1.68,1.68,0,0,1-.5,1.34c-.37-.06-.84-.31-1.07-.16-1.75,1.13-2.15-.12-2.57-1.38-.29-1,.26-1.37,1.13-1.49h2.2a48.36,48.36,0,0,0-9.92-2.29,2.37,2.37,0,0,1-2.32-.51,2.56,2.56,0,0,1,0-.27c.45-.11,1,.22,1.35-.39-.74-1-2.07-.44-2.91-1.15a1.51,1.51,0,0,0,.11-.22c.73-1-.24-1.48-.54-2.18a2.06,2.06,0,0,1-.21-.48c-.09-1.31-1.07-1.93-2-2.6a59.65,59.65,0,0,0-6.8-4.22,69.27,69.27,0,0,1-7.42-4.52,16.33,16.33,0,0,1-4.07-2.71c-.46-.46-.44-1.12-.67-1.67a6.72,6.72,0,0,1,1.9-3.39c.76.33,1.22-.56,1.92-.47.85,1.8,2.68,1.62,4.17,1.92,7.7,1.54,15.42,3,23.14,4.44q18.9,3.61,37.8,7.24c7.34,1.42,14.66,2.89,22,4.32,11,2.16,22,4.33,33.08,6.43,4.84.93,4.94.92,7.47-3.4,4.56-7.8,9-15.68,13.5-23.52,4.91-8.57,9.92-17.08,14.71-25.71,2.2-4,4.93-7.67,6.41-12,.15-.45.42-.66.85-.49.8.31.58.87.28,1.42-.67,2.38-2.17,4.35-3.37,6.45-10.54,18.49-21,37-31.73,55.39-1.21,2.09-.87,3.28.72,4.61l.52,0c.46.58-.1,1.07-.14,1.61,1,1.69.06,3-2.25,3.38-1.25.22-1.33.17-1.18-.77.11-.22.38-.51.32-.65-.54-1.22-1.65-2.38.15-3.58.2-.13-.6-.71-1.23-.83-8.53-1.64-17-3.33-25.58-5-9.54-1.85-19.08-3.64-28.61-5.5-13.54-2.64-27.08-5.33-40.62-8q-11.85-2.32-23.71-4.59c-2.51-.48-5-.85-7.54-1.37-.79-.16-1.46-.19-1.76.61a1.51,1.51,0,0,0,.66,1.83,90.34,90.34,0,0,0,9.66,5.94,53.45,53.45,0,0,1,9.21,6.24,10.06,10.06,0,0,1,2.84,3.57c.93,2.6,2.9,3.18,5.19,3.56,2.89.49,6,.51,8.62,1.68,4.1,1.85,8.45,2.14,12.69,3.06,8.12,1.75,16.29,3.25,24.44,4.85a1.39,1.39,0,0,0,1.68-.79c2.08-3.36,3.3-3.71,7.11-2.26a1.69,1.69,0,0,1-1.95.17,2.49,2.49,0,0,0-2.39.36c-.6.44-1.41.86-1.27,1.77s1,.73,1.72.86c3,.6,6,1.2,9,1.82,1.46.31,2.76-.32,4.21-.73.16.77-1.58.78-.71,1.43.71.52.69,2.23,2.28,1.53.7-.31.82,0,.32.57a.71.71,0,0,1-1,0l-9.19-1.72c-1.49-.28-3-.75-4,1.07-.17.3-.36-.29-.44-.55-.17-.79-.59-1.35-1.48-1.14C158.36,140.81,159,141.2,159,141.48Z"/><path class="cls-2" d="M93.33,235.85q9.14-16.08,18.28-32.17,7.17-12.59,14.39-25.14c.36-.64.58-1.52,1.62-1.21s2.48.31,3.25,1.56c.47.77-.13,1.18-.42,1.67q-6.76,11.58-13.37,23.25c-6.25,11-12.56,22-18.75,33.11-.28.49-.62,1-.94,1.44-1.21,1.25-2.18.14-3.2-.35A1.46,1.46,0,0,1,93.33,235.85Z"/><path class="cls-3" d="M87.08,166.11c4.64.48,9.17,1.61,13.74,2.47,9.84,1.83,19.66,3.77,29.49,5.67l30.42,5.91c3.69.72,7.37,1.54,11.08,2.15a2.78,2.78,0,0,1,2.47,2.29L160,181.87q-16.71-3.24-33.43-6.48-13.42-2.61-26.85-5.26l-10.32-2a1,1,0,0,0-1.05.28h-.43C87.57,167.65,86.54,167.16,87.08,166.11Z"/><path class="cls-4" d="M87.42,87.77c.57-.06,1.22-.41,1.56.41-1.22.69-1.23,2.42-2.59,3-2,.24-3.83-.4-5.7-.77-18.41-3.6-36.85-7.08-55.25-10.72-1.33-.26-3-.22-2.92-2.32.07-1.27.75-1.36,1.84-1.13,10.37,2.18,20.79,4.09,31.19,6.11,9.89,1.92,19.77,3.88,29.68,5.74A2.62,2.62,0,0,0,87.42,87.77Z"/><path class="cls-5" d="M87.42,87.77a1.54,1.54,0,0,1-2,.89c-9.33-1.89-18.68-3.7-28-5.5Q41,80,24.61,77c-.35-.07-1.6-1.71-1.6.38-.81,1.32-.07,2,1,2.52,2.65,1.12,2.7,1.34.52,3.25h0c-2,.58-3.24,0-3.91-1.91a5.28,5.28,0,0,1-.19-3.59l.09-.57a18.13,18.13,0,0,1,1.55-4,1.1,1.1,0,0,1,.39-.35c3-1.15,4.13-.62,4.77,2.16.29,1.24-.33,1.13-1.09.89.44.35,1.09,0,1.58.34,3,1,6.11,1.33,9.17,2,4.28.88,8.57,1.72,12.87,2.48,4.49.79,8.94,1.8,13.45,2.54,5.55.91,11,2.18,16.56,3.27C82.35,86.84,84.89,87.3,87.42,87.77Z"/><path class="cls-6" d="M134.22,43.7a2.62,2.62,0,0,0,1.16,1.93c1.79,1.71,2.78,4,4.1,6,3.35,5.17,6.48,10.49,9.78,15.68a6.25,6.25,0,0,1,.81,1.53c.28,1,.28,2-1.1,2.14-.78-.19-1.11-.85-1.48-1.44Q134.82,49.29,122.22,29A8.88,8.88,0,0,1,121,26.6c.29-.87.55-1.79,1.81-1.39,3.28,5.07,6.51,10.16,9.52,15.39a2.54,2.54,0,0,1,1.21,1.27C133.67,42.5,134.17,43,134.22,43.7Z"/><path class="cls-7" d="M84.41,105.06c-1.16,1.55-1.3,1.59-1.92.47,2.46-4.22,5-8.42,7.38-12.66,1.79-3.14,3.45-6.35,5.25-9.48,2.33-4.07,4.77-8.08,7.11-12.15,1.79-3.14,3.45-6.35,5.25-9.49,2.33-4.07,4.83-8,7.09-12.16,1.75-3.17,3.53-6.31,5.41-9.41.38-.64.52-1.52,1.54-1.51a1.37,1.37,0,0,1,.36.78c-.5,2.32-2,4.13-3.14,6.1-1.61,2.75-2.82,5.76-5,8.16C110.19,59.8,106.6,65.87,103.1,72,97,82.66,90.92,93.35,84.83,104,84.64,104.36,84.34,104.63,84.41,105.06Z"/><path class="cls-8" d="M24.58,83.12a1.87,1.87,0,0,1,.2-.5c1.42-1.77,1.43-1.81-.78-2.17A1.73,1.73,0,0,1,22.48,79c-.24-.76-.37-1.34.53-1.68,0,.84.11,1.34,1.18,1.54q17,3.19,34,6.54c7.46,1.45,14.9,3,22.37,4.38,2,.38,4.07,1.12,6.22.9a2.12,2.12,0,0,0,2.21,0c.3,1.56-.53,1.9-1.83,1.66-5.07-.95-10.14-1.89-15.2-2.86L42.76,83.87C38,83,33.23,82.16,28.52,81.07c-1.43-.33-2,0-2.65,1.12C25.64,82.61,25.36,83.32,24.58,83.12Z"/><path class="cls-9" d="M89.82,236.88a6.38,6.38,0,0,1,2.91.33,8.25,8.25,0,0,1,4.09,2.45c.68.37,1.51.59,1.51,1.6.48.85,0,1.43-.56,2a27.38,27.38,0,0,1-4.45,3.58,5.81,5.81,0,0,0-1.54,1.38c-1.22.85-2.45,1.68-3.65,2.56-.77.55-.94,0-1-.54a4.07,4.07,0,0,1,.14-2.24c.53-.14.36-.66.53-1C88.22,243.58,88.54,240.14,89.82,236.88Z"/><path class="cls-10" d="M125,39.07c1.19-.48,0-1-.1-1.25-1.73-2.89-3.56-5.73-5.32-8.61-.32-.52-.87-1-.79-1.68a1.2,1.2,0,0,1,1.53-.61c2.79,3.76,5.09,7.85,7.56,11.82,6.32,10.14,12.68,20.26,18.93,30.44a3.26,3.26,0,0,1,.83,2.29c-1.28,1.26-1.84-.06-2.34-.78-1.95-2.79-3.65-5.75-5.47-8.63-4.44-7-8.68-14.13-13.21-21.07C126.29,40.18,125.1,40.09,125,39.07Z"/><path class="cls-11" d="M113.47,14.69a62.32,62.32,0,0,1,8.71,4c2.29,1.38,2.53,2.81,1.1,5.3-.66.31-.87,1.22-1.7,1.31A14.77,14.77,0,0,1,117.3,21a60.24,60.24,0,0,0-3.74-5.11,2,2,0,0,1-.3-.45C113.22,15.15,113.16,14.87,113.47,14.69Z"/><path class="cls-12" d="M233.88,138c3.25-4.93,5.94-10.2,8.91-15.29,2.24-3.85,4.39-7.75,6.62-11.6.34-.59.82-2,1.5-.16l-2.64,5c-1,.46-1,1.59-1.58,2.32v0c-.76.79-.93,2-1.68,2.75-1.59,3.92-4,7.41-6,11.1-1.29,2.36-2.55,4.73-4.06,7-.56-.17-1.19-.27-1-1.11Z"/><path class="cls-13" d="M181.43,184.68c-1.69-.34-3.33.76-5.09.11-.87-.32-1.74-.63-1.67-1.5s1.13-.47,1.72-.49c4.11-.18,7.57-1.92,10.77-4.32,1,.3,1.31,1.16,1.71,2,0,.66-.62.82-.91,1.25s-.38.8-.94.69a41.23,41.23,0,0,1-5.24,2.27l-.17.05Z"/><path class="cls-14" d="M234.3,141.8a1.36,1.36,0,0,0,.35,0,.31.31,0,0,1,0,.33c.22.32.14.77.41,1,1.85,1.88,1.29,3.75,0,5.62l0,0a18.93,18.93,0,0,0-1.57,2.73l0,0c-.93.28-.84,1.43-1.6,2l-2.31-3.16a2.45,2.45,0,0,0,0-.27C231.08,147.18,232.73,144.51,234.3,141.8Z"/><path class="cls-15" d="M21.07,76.89v.41c-.71,1.74-2,1.58-3.4,1.06-1.77-.64-3.75-1-4.33-3.2a66,66,0,0,1,8.36-2.55c.5-.22.61,0,.55.46v0C21.92,74.33,20.74,75.38,21.07,76.89Z"/><path class="cls-16" d="M113.46,15.41l.28.08c1.84,3.64,2.48,7.67,3.71,11.51a.53.53,0,0,1-.3.5c-1.4.62-2.4-.11-3.36-1a7.11,7.11,0,0,1-.8-5.44.86.86,0,0,1,0-.89C113.55,18.62,112.83,17,113.46,15.41Z"/><path class="cls-7" d="M80.59,108.92a1.4,1.4,0,0,1,.77,1.55c.32.61,0,1.13-.3,1.61-1.7,3.08-3.46,6.12-5.22,9.17A2.22,2.22,0,0,1,75,122a1.21,1.21,0,0,1-1.38.1c.34-2.75,2.23-4.78,3.43-7.13C78.15,112.93,79.41,111,80.59,108.92Z"/><path class="cls-17" d="M217.23,170.33c-.65-.19-.88,1.19-1.56.51s.29-1.11.55-1.58c2-3.66,4.15-7.28,6.2-10.93.46-.81.86-1.23,1.47-.15-.19,1.86-1.64,3.09-2.38,4.68C220.3,165.45,218.67,167.85,217.23,170.33Z"/><path class="cls-18" d="M13.34,75.16c1.38,2.39,4,2.44,6.21,3.2.87.3.57-1.33,1.52-1.06A6.25,6.25,0,0,0,21.14,81c.44,1.9,1.75,2.3,3.45,2.08-.69,1-1.52.93-2.42.31-3.16-2.19-6-4.82-9-7.21C12.71,75.79,12.3,75.39,13.34,75.16Z"/><path class="cls-19" d="M260.56,56.82l-1.21,1.84a2.28,2.28,0,0,1-.66-3.34c1.14-1.7.25-3.74,1.09-5.45a.42.42,0,0,1,.4.54,10.48,10.48,0,0,1,.39,6.07A.56.56,0,0,1,260.56,56.82Z"/><path class="cls-20" d="M133.17,42.06c.06-.7-.72-.89-.87-1.46a75.07,75.07,0,0,0,8.57,1.56c-.1.48.85.35.55.66s-.54,1-1.32.83c-1.55-.38-3.13-.69-4.69-1A1.65,1.65,0,0,1,133.17,42.06Z"/><path class="cls-21" d="M261.84,93.88c-.1,1.26.89,2,1.49,2.89a2.21,2.21,0,0,1-.37,3.38l-.21-.18a4.31,4.31,0,0,0-1.34-3.83c-1,1.71-1.89,3.39-2.88,5-.42.69-.62,1.78-1.85,1.6l0,0c-.62-.91.09-1.59.48-2.26.79-1.4,1.57-2.8,2.37-4.18.45-.77,1-1.59.21-2.48l0,0c-.12-.1-.16-.19-.11-.28s.08-.13.13-.13l0,0C260.66,92.51,261.24,93.29,261.84,93.88Z"/><path class="cls-22" d="M89.82,236.88A76.67,76.67,0,0,1,88,247.29a13.94,13.94,0,0,1-.08-5.27l0,0c.59-1.5-.07-3.11.39-4.62C88.49,236.29,89.22,236.81,89.82,236.88Z"/><path class="cls-23" d="M91.78,248.23c.61-1.67,2.36-2.17,3.47-3.32s2.75-1.84,3.08-3.65c1.2,1.07,1.1,1.87-.31,2.79C95.92,245.42,94,247,91.78,248.23Z"/><path class="cls-24" d="M262.11,81.92c-.31,1.37.16,2.92-.92,4.06-2.48-1.39-.58-3.19-.42-4.79.09-.81.65.08,1,0Z"/><path class="cls-25" d="M89,90.72c-1.21,1.71-1.31,1.71-2.21,0,.66-.9.31-2.66,2.17-2.53A1.81,1.81,0,0,1,89,90.72Z"/><path class="cls-20" d="M125,39.07c.64.44,1.45.68,1.76,1.51.47.35.07.53-.18.6-1.36.45-4.07-.48-5.06-1.7,0-.27,0-.54,0-.81Z"/><path class="cls-26" d="M22.25,73.07l-.55-.46a7.4,7.4,0,0,1,2.75-1c1.35-.29,2.32.77,2.78,2.07a20.75,20.75,0,0,1,.55,2.39c-1.06.25-2-.28-3.16-.43.9-.64,1.64,0,2.37,0C26.57,72.17,26,71.88,22.25,73.07Z"/><path class="cls-27" d="M79.8,123.26c.16.65-.19.81-.74.78-1.08.11-2.18.32-3.14-.43a1.47,1.47,0,0,0-.34-.15c-.49-.12-1.33.25-1.3-.61s.84-.73,1.45-.74c.8.18,1.62.25,2.43.41C78.73,122.72,79.37,122.75,79.8,123.26Z"/><path class="cls-28" d="M82.83,164.56a11.66,11.66,0,0,1,3.52,1.59c.41.25.75.56.44,1.06s-.66.29-1,.21c-1.1-.23-1.65-1.36-2.72-1.65l-.17-.06,0-.18A1,1,0,0,1,82.83,164.56Z"/><path class="cls-29" d="M265.19,88.91c-1.48,0-3.1-2.08-2.91-3.73.79.19.63,1.44,1.6,1.43Z"/><path class="cls-30" d="M235.1,148.79c0-.06-.08-.15-.06-.18,1.32-1.94,1.34-3.78-.31-5.58-.15-.17,0-.6,0-.91.34.43.72.83,1,1.29C237.21,145.63,237.09,146.56,235.1,148.79Z"/><path class="cls-1" d="M83,165.77c1.16-.14,1.62,1,2.56,1.34,1.19.37,1.19-.1.75-1,.23-.44.49-.07.73,0,.06.84,1,1.34.81,2.28A8.8,8.8,0,0,1,83,165.77Z"/><path class="cls-31" d="M117.15,27.5l.13-.41a31.25,31.25,0,0,1,4.27-1.88c.69-.25.87-1.22,1.73-1.23-.16.41-.33.82-.5,1.23a3,3,0,0,0-1.7,1.45.73.73,0,0,1-.75.39l-1.53.47C118.26,27.1,117.69,28.22,117.15,27.5Z"/><path class="cls-32" d="M261.84,93.88c-.78.47-1.23-1.1-2.06-.34-.13-.93.55-1.49,1-2.18.45.52.45,1.35,1.19,1.62,0,0,.12,0,.15-.08a.91.91,0,0,0,.09-.17C262.75,93.31,262.27,93.59,261.84,93.88Z"/><path class="cls-33" d="M96.82,239.66l-4.09-2.45c.2-.45.12-1,.6-1.36a3.53,3.53,0,0,0,4.06,2.51Z"/><path class="cls-34" d="M260.57,56.48a32.48,32.48,0,0,0-.39-6.07A6.08,6.08,0,0,1,260.57,56.48Z"/><path class="cls-35" d="M227,154.93c-.51-.83-1.06-1.64-1.54-2.5-.16-.3-.86-.58-.2-1.07s.61.36.86.56c.8.64.65,1.79,1.23,2.57A.37.37,0,0,1,227,154.93Z"/><path class="cls-36" d="M181.78,184.64a21,21,0,0,1,5.24-2.27A9.59,9.59,0,0,1,181.78,184.64Z"/><path class="cls-37" d="M75.91,122.44c-.48.2-1.35-.29-1.43.35-.13,1,1.25,0,1.44.82-1,0-2.49.53-2.28-1.47l1.09-.41C75.07,122.06,76,121.48,75.91,122.44Z"/><path class="cls-38" d="M87.89,242l.08,5.27c0,.39-.1.79-.66.72C87.9,246.05,87,244,87.89,242Z"/><path class="cls-39" d="M113,21.07a14.79,14.79,0,0,0,.8,5.44C112.12,24.9,112.44,23,113,21.07Z"/><path class="cls-40" d="M113.46,15.41c-.34,1.57.42,3.24-.43,4.77V14.73a.3.3,0,0,1,0-.16c.2-.19.29,0,.39.12Z"/><path class="cls-41" d="M188,181.68l.79-1.22c.33-.89.73-1.67,1.92-1.18h0A5.93,5.93,0,0,1,188,181.68Z"/><path class="cls-1" d="M82.83,164.56l0,1a8.17,8.17,0,0,1-1.55-2.47C82.31,163.05,82.64,163.73,82.83,164.56Z"/><path class="cls-42" d="M88.26,237.38c0,1.55.54,3.15-.39,4.62C88.07,240.47,87.5,238.87,88.26,237.38Z"/><path class="cls-43" d="M245,121a4.63,4.63,0,0,1,1.68-2.75A4.33,4.33,0,0,1,245,121Z"/><path class="cls-43" d="M246.69,118.27a3.77,3.77,0,0,1,1.36-2.57s.1,0,.13.09a.83.83,0,0,1,.09.16C247.71,116.7,247.52,117.7,246.69,118.27Z"/><path class="cls-44" d="M261.41,102.86a5.84,5.84,0,0,1-1.54,2.68l-.06,0c-.47-1.38.15-2.23,1.35-2.8Z"/><path class="cls-44" d="M263,100.15a6.15,6.15,0,0,1-1.55,2.71l-.08-.09c-.32-1.38,0-2.36,1.55-2.7Z"/><path class="cls-45" d="M233.55,151.5a3.71,3.71,0,0,1,1.57-2.73A4.51,4.51,0,0,1,233.55,151.5Z"/><path class="cls-1" d="M121.53,39.48a7.29,7.29,0,0,0,5.24,1.1c2.51,3.13,4.37,6.7,6.52,10.07,4.18,6.57,8.28,13.19,12.41,19.8.4.63.7,1.39,1.69,1,.42-.54,1.11-.43,1.64-.7,1.36-.69.8-1.64.28-2.49-3.43-5.55-6.9-11.09-10.33-16.64-1.23-2-2.4-4-3.6-6,5.09.93,10.18,1.83,15.26,2.8q16.65,3.2,33.29,6.46l32.71,6.41q11.48,2.22,23,4.41c.56.11,1.12.28,1.68.37,1.13.18,1.2.78.7,1.64l-12.63,22L217.77,110q-4.68,8.19-9.34,16.38a1.91,1.91,0,0,1-2.38,1c-15-3-30.1-5.81-45.15-8.73-9-1.73-17.92-3.54-26.88-5.28q-21.36-4.12-42.71-8.2c-2.35-.45-2.46-.74-1.29-2.78,4.4-7.68,8.75-15.39,13.13-23.08,4.09-7.19,8.22-14.36,12.3-21.56,1.19-2.09.8-2.9-1.71-4q3.53-6.28,7-12.58C121.07,40.6,121.58,40.17,121.53,39.48Z"/><path class="cls-46" d="M265.19,88.91c-1.22-.44-1.54-1.71-2.36-2.51a.85.85,0,0,0,1.05.21,12.16,12.16,0,0,1-1.77-4.69c-1.31.48-.15,1.7-.71,2.41-.18.22-.12.74-.58.56s-.78-.37-.51-.84c.54-.92.46-2.16,1.46-2.84-1-4.32-3-8.29-4.51-12.44a6.07,6.07,0,0,1-.23-3.84c.44-1.67,1.7-2.91,2-4.58h0c.59-1.13,1.57-2.1,1.49-3.52-.86-.17-.85.83-1.39,1.09a3,3,0,0,1-.05-2.27,10.37,10.37,0,0,0,.66-5.77c-1.56-3.44-4-5.78-7.84-6.48-4.23-.78-8.45-1.6-12.67-2.41q-12.57-2.41-25.14-4.84c-7.56-1.46-15.13-3-22.69-4.43-7.76-1.51-15.53-2.94-23.26-4.53-5.48-1.13-10.58-.58-15.26,2.67C149.84,32,147.84,35,146,38.16c-1.13,2-2.27,4.2-5.17,4-.16,1-.87.86-1.58.77a16.6,16.6,0,0,0-3.9-.55A2.46,2.46,0,0,0,134,43.87,2.09,2.09,0,0,0,135.51,46c3.77.8,7.57,1.51,11.36,2.25,30.56,6,61.15,11.8,91.71,17.78,3.32.65,3.34.68,1.61,3.68q-15.58,27.21-31.12,54.46c-1.63,2.86-1.65,2.85-4.88,2.27-.26,0-.51-.1-.76-.15-12-2.36-24-4.64-36-7q-36.75-7.14-73.53-14.23c-4.79-.92-4.5-.68-2.11-4.86Q103.84,79.13,115.89,58c1.35-2.37.79-3.61-1.92-4.58-1,.19-1.41,1.07-1.85,1.84Q98.51,79.17,84.84,103a3,3,0,0,0-.66,2.34,2.77,2.77,0,0,0,1.74,1.5l-2.15-.42c-1-.18-1.82-.07-2.25,1a1.92,1.92,0,0,0,.75,2.37,20.22,20.22,0,0,0,2.51,1.81c3.19,1.92,6.44,3.77,9.65,5.68,4,2.38,7.83,5,10,9.34a4.18,4.18,0,0,0,3.07,2.15c4.64,1,9.23,2.17,13.84,3.26,10.83,2.56,21.85,4.29,32.76,6.53,1.68.35,2.84.05,3.66-1.56a3.48,3.48,0,0,1,3.5-2.17,3.22,3.22,0,0,0-.74.08c-1.26.29-2.4.92-2.51,2.31s1.27,1.57,2.31,1.77c2.78.54,5.55,1.15,8.34,1.61a4.41,4.41,0,0,0,3.19-.31c.07,0,.2-.49.4-.07,1.1,2.26,1.1,2.26,2.44,3a5.17,5.17,0,0,0,.71.85,9.83,9.83,0,0,1,1.14,1c.43.35.83,1.13,1.55.36-.21-.15.3-.13.06,0-1.54,2.49-1.54,2.49-.44,3.53-.81-.16-1.07-.58-.78-1.48.59-1.85-.55-3.16-2.59-3-.65.46-.4,1.13-.46,1.75s-.61.78-1.11.91a.63.63,0,0,1-.8-.36c-.2-.44.06-.73.42-.93.69-.39,1.5-.85,1-1.76a.78.78,0,0,0-.46-.43,2.5,2.5,0,0,1,.47,0c.41.05,1-.12.48-.78a60.31,60.31,0,0,0-8.22-2,6.61,6.61,0,0,0-5.13.69,2.1,2.1,0,0,0-1.56-.29,1.15,1.15,0,0,0-.57.58.7.7,0,0,0,.18.76c.77.85.77.85.07,1.61.32-1,.32-1-.27-1.71-1.48,1.07-1.72,2.25-.79,3.66.43.65,1.14,1,1.57,1.65.08.17.17.34.26.5,2.14,4.25,6,6,10.29,7.23.89-.55.43-1.1-.09-1.7,2.4,1.24,2.65,1.8,1.86,4,0,.7.61,1.17.75,1.88a57.24,57.24,0,0,1-7.49-1.62,1,1,0,0,0-1.32.36,2,2,0,0,0,.3,1.68,2.7,2.7,0,0,0,2.1.8c4.84.4,9.42,2,14.15,2.88.7.13,1.66.06,1.63,1.23a4.34,4.34,0,0,1-.84,1.42c-.7.82-1.59.36-2.34.21l-6.81-1.29c-14.93-2.93-29.88-5.79-44.82-8.68-5.36-1-10.7-2.16-16.07-3.13-.38-.06-1.38.36-1.17-.77.65-.38,1.32-.72,2-1a15.45,15.45,0,0,0,1.52-.77c.58-.41.75-.88,0-1.28a1.27,1.27,0,0,0-.55,0,18.51,18.51,0,0,1-3.12,1.3,2.91,2.91,0,0,0-.5.16,7.6,7.6,0,0,1-2.88,1.3c-.84.09-1.34-.16-1.38-1.06A.81.81,0,0,0,104,151c-1.41,1.4-3,1-4.59.43.44-1,1.8-1.06,2.12-2.14a.85.85,0,0,0-.51-.62,3.84,3.84,0,0,0-2.17,1.1A9.62,9.62,0,0,0,96.47,153c-.71-2.27.4-3.5,1.47-4.75a7.63,7.63,0,0,1,5.11-1.8c.65-.14,1,.6,1.6.57a12.43,12.43,0,0,1,4.68.8,1.68,1.68,0,0,0,.55,0,8.07,8.07,0,0,0,3.23-1.92,2.51,2.51,0,0,0,.26-.45,8.3,8.3,0,0,1,.81-1.27,3.38,3.38,0,0,1,1.12-1,1.93,1.93,0,0,0,.85-2.71c-.08-.15-.16-.29-.25-.43a1.23,1.23,0,0,1-.25-1.09c.31-.74,1-1.29,1.16-2.12s.55-1.63-.54-2.08c-1.29-.29-2.87.32-3.76-1.21-.25.22-.53.44-.76.67.48-.95.87-2,2.42-1.68.59,0,1.33.44,1.64-.41.15-.41-.28-.69-.65-.81a27.53,27.53,0,0,0-9-1.78,2.7,2.7,0,0,0-1,1.3,1.12,1.12,0,0,0,0-.32,1.21,1.21,0,0,0-.78-.79,3.7,3.7,0,0,0-1.88-.35c-.81.12-1.6.19-1.75,1.31-.08.6-.69.83-1.3.86a1.25,1.25,0,0,0-.49.14c-1.61.91-3-.16-4.52-.45-.35-.58-.52-1.11.43-1.24,1.15-1,2.34-1.91,4-1.44a27.24,27.24,0,0,1,5.15.83c.62,0,1.38.08,1.41-.79,0-.66-.67-.81-1.18-1s-1.23-.2-1.83-.4-1.53-.13-2.28-.36a11.77,11.77,0,0,1-1.28-.39,4.73,4.73,0,0,0-1-.3,2.58,2.58,0,0,1-1.89-.44,2.38,2.38,0,0,0-.78-.21c-.57-.05-1.14-.14-1.71-.2-3.78-.39-7.47-1.24-11.19-2a10.8,10.8,0,0,0-2.27-.24,1.38,1.38,0,0,0-.94,1c.27.57,0,1-.24,1.55a7.41,7.41,0,0,0-.14,5.91c1.56,4,3.19,7.95,4.74,11.94a5,5,0,0,1,.32,1.9c0,2.52-1.49,4.38-2.56,6.42-2,3.79-3,7.57.12,11.3.93.27.88,1.38,1.57,1.85a31.24,31.24,0,0,0,3.37,1.43c.47,0,.92.2,1.39.29,7.15,1.3,14.28,2.73,21.42,4.1s14.29,2.75,21.43,4.14,14.29,2.71,21.42,4.15,14.13,2.47,21,4.5a26.75,26.75,0,0,1-4.21-.51c-22.73-4.48-45.5-8.78-68.24-13.25-3.35-.65-6.7-1.32-10-1.92-.74-.13-1.67-.62-2.1.55,5.21,1.05,10.41,2.12,15.63,3.15q11.63,2.31,23.28,4.57,11.17,2.17,22.37,4.32c7.83,1.51,15.64,3.13,23.49,4.5,2.74.48,5.61,1.28,8.34-.25-.77-.74-1.68-.41-2.55-.29a4,4,0,0,1-3.65-1,19.44,19.44,0,0,0,12-4.46c.9-1,2.13-1.64,2.88-2.8.21-.33.44-1,1-.68s.5,1,.26,1.52-1,1.21-.85,2.08c.06.07.11.15.16.22,1.07-.58,1.45-1.72,2.12-2.61.4-.53.76-1,1.56-.82,4.77,1,9.52,2.07,14.32,2.86,1.72.29,3.41,1.28,5.25.64h0c1.1-1.23.79-2.43.05-3.72-.2-.34-1-1-.17-1.4,1.76-.8,2.34-2.55,3.43-3.88-.77-.16-1-.37-.5-1.21,2-3.27,3.86-6.62,5.72-10,.33-.6.65-1.1,1.44-1,.24-.57.84-.6,1.28-.84.79-.42,1.6-.66.22-1.5a1.21,1.21,0,0,1-.15-2.13c.53.47.43,1.84,1.73,1.22a7.7,7.7,0,0,0-.88-2.3c.63.4.27,1.55,1.23,1.86.51-1.74,1.84-.26,2.69-.68.85,1.28,1.77,1,2.49-.06a4.51,4.51,0,0,0,1.1-2.29c-1.51,1-2.52.42-3.28-1-.11-.2-.41-.28-.64-.38-.85-.1-1.06-.39-.54-1.2,1.15-1.77,2.15-3.63,3.17-5.47.31-.57.65-1.12,1.4-1.18a3.18,3.18,0,0,0,.52-.1,1.43,1.43,0,0,0,.42-.31c0-.28.35-.75.25-.71-.86.36-1.4-.55-2.15-.48a2,2,0,0,1,1-1.45c.37.53.51,1.2,1.16,1.48.5-.51-.46-1.06,0-1.56-.36-.47-.91-.77-1.17-1.32-.49-.91.11-1.6.56-2.26h0l-.26.46c-.36.61-.71,1.25-.2,2,1.25,0,1.43-1.12,1.87-1.89,4.54-7.89,9-15.82,13.59-23.69.35-.6.47-1.58,1.56-1.39.22-.26.41-.72.66-.76,1.88-.3,2.21-1.74,2.52-3.22h0c.81-1,1.92-.62,2.95-.66,1,1.31,1.93,1.06,2.84-.75l-.18-.19c-1.42-.41-1.53-2.13-2.76-2.72a2.82,2.82,0,0,0-.48-.19c-1-.51-.09-1,.09-1.37,1-2.33,2.84-4.27,3.49-6.8a.83.83,0,0,0-.24-.45c-.18-.08-.42,0-.53-.26.17-.07.3.09.45.06a.87.87,0,0,0,.39-.32c.3-.46.41-1.39,1.23-.41.23.28.72.66.85-.16-.32-.67-1.15-1.32-.75-2s1.21,0,1.83.11C264.78,91.06,265.26,90.26,265.19,88.91ZM171.33,143.8c-.19,0-.35.24-.72,0,.54,0,1-.13,1.5-.2A3.36,3.36,0,0,1,171.33,143.8Zm-60-8.79c-.05.35.12.73.69,1.18C111.41,136,110.94,135.63,111.29,135Zm-7.22-2c-.9,1.5-1.26,1.84-2.57,1.61A3.8,3.8,0,0,0,104.07,133ZM240.92,61.48a4,4,0,0,1-3,.16C228,59.74,218,57.79,208,55.87q-23.08-4.42-46.17-8.93a7.42,7.42,0,0,1-2.76-.79c-.55-2,1.14-2.42,2.35-3.15h.3c3.12-1.14,6.15-.13,9.18.44,7.7,1.46,15.39,3,23.08,4.48s15.26,2.92,22.89,4.4,15.38,3,23.07,4.49a5.81,5.81,0,0,1,1.11.27c.73.31,2.27-.2,2,1.1S242.69,61.09,240.92,61.48ZM213.84,179.22a3,3,0,0,0-2.08-.95c-5-1-10.08-1.91-15.1-2.94-.6-.12-1.5,0-1.66-.69s.53-1.39,1.06-1.94a2.24,2.24,0,0,1,2.16-.46c2.22.32,4.39,1,6.62,1.2C209,173.75,212,175.46,213.84,179.22ZM229.53,153c-.39-.11-.9-.06-1.14-.38A3.05,3.05,0,0,1,229.53,153Zm2.69-12.24.22,0A.53.53,0,0,1,232.22,140.75Zm-14.63-17c-1.52,2.67-3.41,5.15-4.29,8.16a.61.61,0,0,0,.31.41c.95.42,0,.93.07,1.39.52,2-.89,2.7-2.34,3.35a2.59,2.59,0,0,0-.26.46,24.45,24.45,0,0,1-2.2,4.25c-.48.85-1,1-1.83.43-1.55-.79-2.19.22-2.83,1.37-.76,1.39-1.35,2.79-3.58,2.32-7.28-1.54-14.61-2.89-21.92-4.3A2.66,2.66,0,0,1,177,141a3.68,3.68,0,0,1,3.38-.75,1.63,1.63,0,0,0,1.49-.13c1.72-1.35,3.82-1.37,5.83-1.73,4.24-.75,8.55-.51,12.81-1A5.89,5.89,0,0,1,204,137a1.09,1.09,0,0,0,.49-.19c.79-.47.79-.47,1.74-.1-1-.33-1-.33-1.77.13,1.06,2.25,3.28,2.73,5.06,1.06a15.07,15.07,0,0,0,1.39-1.59,1.75,1.75,0,0,0-.07-1.83,1.15,1.15,0,0,1-.17-1.07c.67-2.11.52-2.29-1.62-2.71l-44.21-8.54q-16.92-3.28-33.84-6.58c-13.22-2.59-26.46-5.08-39.67-7.7l-2.88-.56,2.7.49c21.28,4.21,42.58,8.27,63.87,12.4l51.57,10c3.14.61,3.53.42,5.08-2.33,11.68-20.72,23.78-41.21,35.26-62,.13-.25.25-.69.61-.18,1.93,2.24,1.13,4.32-.39,6.36a14,14,0,0,0-.88,1.5Q231.91,98.64,217.59,123.77ZM234,131.6c-.42-1.25-.42-1.25.83-1.14.31-1.59-.78-3-.31-4.7,1.77-6.15,5-11.08,11.23-13.88-2.75,4.86-5.46,9.49-8.06,14.18-.89,1.61-2.23,3-2.42,5v.07s0-.06,0-.09a.44.44,0,0,0-.52-.46C234.29,130.76,234.46,131.4,234,131.6Zm15.08-21.84c-4.8,8.12-9.39,16.36-14.07,24.55a4.47,4.47,0,0,0,.39-2.61c.1.11.28.13.6-.06a2.91,2.91,0,0,0,1-1.17c3.46-6.14,7-12.23,10.47-18.37.43-.74.83-1.48.12-2.28-.1-.09-.22-.18-.33-.15a1.14,1.14,0,0,1-1.56-.89c-.24-.92.57-1.21,1.06-1.58.79-.59.82.45,1.2.73a3.18,3.18,0,0,0,1.07.73c.45.09,1-.36,1.38.16C250,109.22,249.36,109.24,249.09,109.76Zm3.61-5.15a3.75,3.75,0,0,1,1.15,2C253.5,105.9,253.38,105.09,252.7,104.61Zm3.9.91c-.4-.11-1,0-1.19-.33C256.1,105.29,256.4,105.34,256.6,105.52Zm.38-46c.26-.32.3-.87.85-.92.46.5.62,1.17,1.08,1.63-.24-.11-.44.1-.67.2s-.33,1.08-.93.42C257,60.53,256.52,60.1,257,59.54Z"/><path class="cls-47" d="M213.44,132.14c-1,0-1.38-1.19-2.41-1.39-.57-.12-.12-.91.12-1.33q6.39-11.16,12.82-22.31c3.84-6.72,7.62-13.49,11.52-20.18,4.11-7.08,7.9-14.35,12.33-21.24.52.72,1,1.47,1.57,2.15s.11,1.09-.16,1.57q-12.66,22.08-25.32,44.15C220.38,119.73,216.93,125.94,213.44,132.14Z"/><path class="cls-48" d="M210.39,136.4c0,.91.87.37,1.18.77l0,.17c-.91,1.46-1.67,3-2.48,4.5-.39.72-.82,1.39-1.78.73a1.88,1.88,0,0,0-2.69,1.43,18.68,18.68,0,0,1-1,1.65c-.44,1-1,1.12-2.12.89-8.06-1.65-16.15-3.17-24.23-4.72a2.17,2.17,0,0,1-1.41-.63c1.45-1.25,2.92-2.34,5-1.31.25.13.5.22.7,0,2.06-2.23,5-1.92,7.54-2.19,3-.32,6.11-1,9.25-.45.68.12,1.59-.66,2.45-.08.88.35.32,1,.2,1.42s-.66,1.12-.49,1.81a.76.76,0,0,1-.21.45c-.11.12-.36.21-.32.38s.38.18.59.26a3.55,3.55,0,0,0,1.68.36c-.62-.17-1.69-.08-1.12-1.4.26-.5.68-.88.71-1.51.06-1.48,1-2.07,2.35-2.14l.41,0h0l2.21,2c.66-1.18,2.74-.12,3-1.93C209.82,136.66,210.18,136.54,210.39,136.4Z"/><path class="cls-49" d="M104.9,154.55c-1.63-1.33-3.74-.9-5.56-1.54-.4-.14-.92,0-1.22-.71L179.41,168c-2.22,2-4.46,1.5-6.71,1.06q-22.24-4.38-44.5-8.73c-6.33-1.23-12.67-2.37-19-3.55l-1.2-.22C107.17,155.62,105.33,156.15,104.9,154.55Z"/><path class="cls-50" d="M166.31,40.22l12.52,2.4q15.58,3,31.18,6.07c9.52,1.85,19.05,3.65,28.57,5.48.44.09.87.26,1.3.35A1.3,1.3,0,0,1,241,56c-.17.72-.91.28-1.45.18q-20.68-4-41.37-7.92c-7.4-1.42-14.78-2.91-22.17-4.36-3-.6-6-1.21-9-1.76-.53-.1-1-.15-1.26-.69-.17-.33-.63-.58-.4-1S166.06,40.26,166.31,40.22Z"/><path class="cls-51" d="M115.59,149.25l-1.75.53c2.77.19,5.24,1.41,7.92,1.8,4.69.69,9.23,2.11,13.93,2.8,3.5.52,6.92,1.51,10.4,2.19,6,1.16,11.94,2.26,17.91,3.38,3.36.64,6.74,1.17,10.06,2a71.34,71.34,0,0,0,7.05,1.51c1.37.18,1.47.86.92,1.91-.79.57-1.62.19-2.41,0q-18.59-3.57-37.15-7.18c-9.4-1.84-18.82-3.63-28.24-5.44-1-.2-2.23-.17-2.84-1.32a6,6,0,0,0,1.72-.92c.63-.69-.14-.53-.5-.57-.18-.45.07-.74.38-1a3,3,0,0,1,2.24-.41A.63.63,0,0,1,115.59,149.25Z"/><path class="cls-52" d="M85.58,112.83c2.25,2,5,3.06,7.47,4.71.38,1.29-.76,2.08-1.11,3.31.82.18,1.57-.5,2.35-.16,1,.43.73,1.29.76,2.07.32-1.8,1.25-2.34,2.39-1.16.82.84,1.6-.47,2.22.3.74.3.85,1,1.16,1.63,0,.71.77,1.47-.1,2.15a5.92,5.92,0,0,0-2,1.07.77.77,0,0,1-.73-.4c-.48-.92-1.22-.54-1.92-.38l-.81,0c-.29-1.22-.95-.76-1.59-.35-1.54.73-2.93-.24-4.38-.43a31.69,31.69,0,0,1-7.13-1.52c-.5-.48-1.43.17-1.79-.69a2.09,2.09,0,0,1,.33-1.65C82.31,118.48,83.79,115.56,85.58,112.83Z"/><path class="cls-53" d="M159,45.6c3.57,1.19,7.3,1.6,11,2.32q16.41,3.26,32.83,6.44,18.39,3.55,36.79,7.06a8.66,8.66,0,0,0,1.35.06c-1.22,1.63-3,1.33-4.54,1-3.72-.85-7.43-1.63-11.2-2.29-3.13-.55-6.25-1.32-9.39-1.94l-23-4.51c-8.41-1.65-16.82-3.32-25.24-4.94a76.48,76.48,0,0,1-9.69-2l0-.26C158.13,46.07,158.24,45.46,159,45.6Z"/><path class="cls-54" d="M111.39,151.43c4.77,1.49,9.74,2,14.61,3,7.68,1.62,15.43,3,23.14,4.44L180.35,165l1.68.36-.73,1.14c-.8.78-1.73.34-2.56.18q-22.85-4.38-45.67-8.81c-7.23-1.4-14.47-2.74-21.68-4.24-.78-.16-1.74-.1-1.79-1.3C110.16,151.93,110.64,151.42,111.39,151.43Z"/><path class="cls-55" d="M109.6,152.3c.69,1.18,2,.82,3,1,13.1,2.62,26.22,5.15,39.34,7.68q14.22,2.76,28.44,5.47a5.13,5.13,0,0,0,1,0c-.34.94-.85,1.11-1.91.9-9.85-2-19.73-3.89-29.61-5.79l-39-7.45c-1-.18-1.94-.42-3-.65A2.8,2.8,0,0,1,109.6,152.3Z"/><path class="cls-56" d="M234.7,130.59c-1.73-8,2.7-15.46,12.28-19.86L235.36,131h-.19l-.51-.4Z"/><path class="cls-49" d="M213.92,179.33,202.33,177c-2.5-.51-5-1-7.5-1.48-.84-.14-.9-.37-.6-1.08,1.08-2.54,1.9-3,4.7-2.5,3.57.65,7.17,1.2,10.71,2,2.73.64,3.3,3.26,4.26,5.43Z"/><path class="cls-57" d="M163.67,158.29c-.43-1.18-1.64-1.5-2.48-2.22a11.25,11.25,0,0,1-2.44-2.67c-.12-.21-.37-.43-.36-.63.15-2.82.16-2.82-.84-4.92.74-.1,1.5.41,2.21-.08,1.85,4.51,6.14,5.8,10,7.61,1,.37,1.84.91,1.59,2.2a2.4,2.4,0,0,1-2.56.23,1.62,1.62,0,0,0,2.42-.11.28.28,0,0,1,.44,0l1.6,2.7A69.52,69.52,0,0,1,163.67,158.29Z"/><path class="cls-57" d="M115.59,149.25l-.28-.31c-.08-.28-.35-.39-.51-.6a.64.64,0,0,1,.13-.73c1-.77,1.81.81,2.84.38-1-1.72-1.51-1.79-2.84-.39-1.38-.2-1.44-1.45-1.89-2.39-.2-.68.53-.69.76-1.06a3,3,0,0,1,1.08-.76c1.94-1.06,2-1.12.88-3.19l0,0c-.08-1,0-1,1.67-.63.28.14.38.44.56.66,1.44,3.15,3.37,5.77,7.06,6.45.18,1.06,1.14,2.05.29,3.21-.69,1.07-1.75.93-2.74.75C120.28,150.23,117.94,149.72,115.59,149.25Z"/><path class="cls-58" d="M222.34,154.4c-1.58-1.37-1.31-2.54-.4-4.07,3.62-6.1,7.08-12.3,10.62-18.5,1.37,1.11,1.52,2.14.62,3.67C229.51,141.72,226,148,222.34,154.4Z"/><path class="cls-58" d="M249.05,107.5c-1.2-1.15-1.45-2.13-.58-3.59,3.43-5.78,6.71-11.64,10-17.48.28-.48.45-1.06,1-1.35,1.27,1.11,1.29,2.15.4,3.64-3.36,5.66-6.57,11.42-9.84,17.14C249.77,106.4,249.42,106.91,249.05,107.5Z"/><path class="cls-59" d="M208.43,167.26c1.89-4.78,6.64-5.84,11-8.4-1.51,2.66-2.73,4.86-4,7-.82,1.39-1.26,3.1-3,3.74a.94.94,0,0,1-.2.67,2.12,2.12,0,0,0-.16,1.58.44.44,0,0,1-.22.39l-.62,1.15a2.88,2.88,0,0,1-1.35-1.62c-.29-.66-.73-1.24-1.06-1.88C208.51,169.05,207.66,168.27,208.43,167.26Z"/><path class="cls-60" d="M216.41,159.79c0,.21-.47.29-.79.45-4.93,2.48-9.89,4.9-14.79,7.43-1.35.7-1.48-.4-2-1-.66-.86.14-1.05.68-1.32L214,158.1A1.74,1.74,0,0,1,216.41,159.79Z"/><path class="cls-61" d="M235.17,131a.17.17,0,0,1,.19,0c.1.86.31.79.7.11,2.2-3.87,4.43-7.73,6.64-11.6,1.46-2.54,2.88-5.09,4.36-7.61a2.4,2.4,0,0,0,.4-2.11l.18-.19a1.68,1.68,0,0,1,1.53,0l.18.19c-1.75,4-4.23,7.68-6.35,11.52-2.75,5-5.64,9.87-8.45,14.81-.33.59-.87,1.14-.67,1.93l0,0c-1-.49-1-1.18-.38-2A7.79,7.79,0,0,0,235.17,131Z"/><path class="cls-62" d="M262.88,100.07a4.18,4.18,0,0,0-1.55,2.7,4,4,0,0,0-1.52,2.73c-.57.36-1,.46-1.39-.33a7.08,7.08,0,0,0-1.74-2.4c1.51-1.07,1.89-2.89,2.87-4.31.68-1,1.21-2.07,1.82-3.13C263.52,97.9,263.53,97.93,262.88,100.07Z"/><path class="cls-63" d="M220.49,120.9l16.73-29.3C237.63,93,222.45,120,220.49,120.9Z"/><path class="cls-64" d="M239.7,90.44c.81.61.13,1.22-.13,1.67q-8.76,15.4-17.6,30.77a1.37,1.37,0,0,1-.58.53c.29-1.74,1.4-3.11,2.23-4.58,5.32-9.37,10.72-18.69,16.09-28,0-.09,0-.25,0-.38Z"/><path class="cls-65" d="M208.43,167.26c-.19,1,.89,1.64.85,2.62-.43.66-1.09.53-1.71.46a33.07,33.07,0,0,1-4.83-1c-.66-.18-1.4-.36-1.29-1.33,1.9-1.73,4.07-.84,6.2-.35l.06-.5-3-.8,4.7-2.38C209.52,165.35,208.14,166.06,208.43,167.26Z"/><path class="cls-66" d="M201.45,168c.43,1.1,1.5.74,2.29,1a18,18,0,0,0,5.54.89l1.07,1.66a2.05,2.05,0,0,1-2,.81c-2.94-.54-5.89-1-8.79-1.76-.47-.12-1.05-.17-1.05-.88A12.1,12.1,0,0,1,201.45,168Z"/><path class="cls-67" d="M220.68,153c.19,1,1.57,1.52.94,2.58a7.66,7.66,0,0,1-3.86,3.54c-.71.26-.94-.38-1.29-.87-.47-.67-.36-1.47.16-1.69C218.35,155.78,219.21,154.14,220.68,153Z"/><path class="cls-67" d="M194.65,172.44c-.61-.09-1.48-1.94-1.22-2.4a10.59,10.59,0,0,1,3.57-3.38c.56-.39,1-.33,1.32.37s1.16,1.12.24,1.75a20.63,20.63,0,0,0-3.59,3.39A2.87,2.87,0,0,1,194.65,172.44Z"/><path class="cls-68" d="M125,171.69c.27-.07.34-.06.39-.09.67-.49,1-1.64,2.16-1.17a.5.5,0,0,1,.18.45,3.33,3.33,0,0,1-2.17,1.38,2.35,2.35,0,0,1-2.5-.63c-.39-.46-.38-.64-1.15-.49-1,.18.31-1-.38-1.36-.81-.1-.67,1-1.35,1.12-.64-1.83-.2-2.51,1.75-1.75.35.14.86.14,1-.31.44-1.53,1.77-1.2,2.84-1.49-.21,1-.21,1-1.07,1-.19,0-.41.26-.57.44-.34.41-.16.75.27.88C125.49,170,125.42,170.79,125,171.69Z"/><path class="cls-69" d="M215.12,169.57c-1-.3-.63-.77-.33-1.29,1.75-3,3.45-6.09,5.21-9.11.37-.64.42-1.42,1.08-1.95.37-.29.61-.39,1-.14s.15.54,0,.81L215.73,169C215.58,169.28,215.42,169.59,215.12,169.57Z"/><path class="cls-70" d="M198.48,169.71c3.19,1.11,6.59,1.33,9.84,2.2.75.19,1.32-.44,2-.37-.09.8,1,1.06.88,1.87q-6.45-1.16-12.89-2.33c-.33-.06-.88-.12-.83-.59A1,1,0,0,1,198.48,169.71Z"/><path class="cls-71" d="M104.14,151.09c-1,1.55-1,1.55-5.63.65.58-1.34,2-1.73,2.94-2.59a2,2,0,0,1,1.48-.78c.87-.12,2-.43,2.37.58A1.75,1.75,0,0,1,104.14,151.09Z"/><path class="cls-72" d="M109.27,151.47a6.25,6.25,0,0,1-4,1.56c-1.37-.07-1.45-.59-.85-1.59a1.89,1.89,0,0,1,.23-.73c1-2.17,2.86-2.77,4.86-1.47C110.68,150,109.72,150.76,109.27,151.47Z"/><path class="cls-1" d="M99.12,131.73c-.36.84-.59,1.36-1.83.79a16.08,16.08,0,0,0-3.11-.77c-.63-.57,0-1,.15-1.52a3.11,3.11,0,0,1,2-.31c1.44.31,2.21-.25,2.36-1.71a10,10,0,0,1,5,.85l0,.05c-.27.69-1.33-.28-1.46.7-.23.41-1.32-.25-1,1,.2.83-.85,1.12-1.72.93-.29-.72.43-1.12.55-1.71l-.1,0A6.39,6.39,0,0,1,99.12,131.73Z"/><path class="cls-73" d="M240.83,113.55c-1.59,1.17-2.64,2.86-3.9,4.28-1.76-1.43-1.35-2.73,0-4,.92-.87,1.86-1.73,2.79-2.59A2.06,2.06,0,0,1,240.83,113.55Z"/><path class="cls-74" d="M190.67,179.28c-.95-.12-1.25.84-1.92,1.18-.81-.44-1-1.33-1.59-2,1.25-1.34,2.83-2.39,3.62-4.23,1.5,1.18,1.8,2.33.53,3.72C191,178.33,190.53,178.67,190.67,179.28Z"/><path class="cls-75" d="M158.25,41.78a6,6,0,0,1,2.86-1.73c1.75-.64,3.1-.46,3.75,1.49-.9.81-2.45.2-3.13,1.47V43a7.89,7.89,0,0,1-1.92.86A5.67,5.67,0,0,1,158.25,41.78Z"/><path class="cls-76" d="M101.07,148.85l-1.92,1.09A3.1,3.1,0,0,1,97.58,148a6.73,6.73,0,0,1,5.76-1.92c1.45,1.7,1.38,2-.63,2.52A2.8,2.8,0,0,1,101.07,148.85Z"/><path class="cls-77" d="M240.83,113.55l-1.13-2.31a12,12,0,0,1,3.1-2.13c1.1-.69,1.62-.33,2.2.7.74,1.32-.44,1.29-1,1.68C243,112.19,241.88,112.86,240.83,113.55Z"/><path class="cls-78" d="M174.12,143h1l.43.77c.12,1-.93.23-1.12.76a4.69,4.69,0,0,0-.38.86c-.13.55,1.34.54.55,1.24a5.87,5.87,0,0,1-2.2,1.11c-.92.28-.95-.63-1.17-1.17s-.12-1.19.69-1.19,1.62-.46,1.31-1.16c-.41-.94-1.34-.21-2,0s-.84.82-1.49.37c-.25-.19-.19-.44-.1-.69.28-.77.92-.46,1.46-.51A7.88,7.88,0,0,0,174.12,143Z"/><path class="cls-79" d="M104.9,154.55c.9.88,2.6.56,3.1,2-3.15-.57-6.31-1.11-9.45-1.73-.49-.09-1.39-.15-1.29-.81.13-.93,1.07-.74,1.72-.63C101,153.76,102.92,154.17,104.9,154.55Z"/><path class="cls-1" d="M101.07,148.85a5.15,5.15,0,0,1,1.26-.45c1.91-.12,1.89-1,1-2.33,1.08-.8.58.75,1.12.75a10.28,10.28,0,0,0,3.94,1.54c.81.16.92-.25,1.12-.76l.47,0c1.09.48,2.15,1,3.22,1.58l-.6.78,0,0a8.59,8.59,0,0,0-3.33,1.57h0c-.43-.68.59-1.09.32-1.74-3.68-.75-3.68-.75-5.2,1.71l-.25-.35,1.07-2.18c-1.35-.45-2.54,0-3.76.24Z"/><path class="cls-14" d="M229.69,150.28a2.2,2.2,0,0,1-1.7-.22c1.49-2.61,3-5.19,4.42-7.82.44-.82.94-.55,1.52-.45.41.8-.23,1.32-.55,1.88-1.25,2.21-2.54,4.4-3.73,6.65Z"/><path class="cls-80" d="M259.78,93.88c1.29.36,1.16,1,.6,2-1.25,2.28-2.92,4.34-3.66,6.89H255C256.53,99.73,258.63,97.06,259.78,93.88Z"/><path class="cls-81" d="M233.47,128.33a9.14,9.14,0,0,1,0-8.87c1.45,1.79,1.51,1.81.71,3.7A14.24,14.24,0,0,0,233.47,128.33Z"/><path class="cls-82" d="M97.58,148c.85.39,1.16,1.2,1.57,1.95a10.34,10.34,0,0,0-2.39,3.82C95,152.1,95.19,150.63,97.58,148Z"/><path class="cls-83" d="M227.11,150a1.85,1.85,0,0,1-.23-2.43c.9-1.38,1.63-2.87,2.49-4.28.19-.32.23-1.21,1-.63.44.33.52.73.17,1.31C229.37,145.93,228.29,147.93,227.11,150Z"/><path class="cls-84" d="M133.49,171.92c-.76,1.55-2.26.94-3.46,1.17-.13,0-.69,0-.31-.3.62-.53-.22-2.24,1.2-1.83s1.33-.55,1.13-1.08c-.44-1.2.82-.59,1-1.12s.7-.24,1,.12-.18.78-.34,1.17-.9.89-.21,1.49c.13.09.17.17.13.25S133.53,171.92,133.49,171.92Z"/><path class="cls-85" d="M254,102.82c-.25-1.13-.67-1.68-.13-2.5,1-1.49,1.78-3.09,2.66-4.63.17-.29.23-.88.76-.56s.8.65.43,1.27C256.55,98.41,255.39,100.42,254,102.82Z"/><path class="cls-60" d="M113.21,149.16a2.77,2.77,0,0,1-3.22-1.58l3-2c.91.77,1.15,2.06,2.13,2.78l.15.57C114.55,148.41,113.93,149.32,113.21,149.16Z"/><path class="cls-86" d="M133.49,171.92v-.38c1.53.28,2.89.34,3.23-1.74.1-.6.77-.53,1.28-.24s.31.68.06,1.09c-.66,1.11-1.51,2.17-1.34,3.61,0,.35-.51.3-.51.29.37-1.59-2.2-.63-1.92-2.18C134.31,172.27,133.77,172.07,133.49,171.92Z"/><path class="cls-3" d="M175.09,160c1.63,0,3,.71,4.56.65.73,0,.78,1,.78,1.55,0,.74-.76.51-1.19.36C177.72,162,175.66,162.42,175.09,160Z"/><path class="cls-87" d="M109.52,147.6l.64,1.71c-2-1.09-4.56.08-5.7-2.49A5.58,5.58,0,0,1,109.52,147.6Z"/><path class="cls-88" d="M247.46,109.74c-.67.19-1.3,1.08-2-.22-.47-1-.68-1.53.33-2.15a10.45,10.45,0,0,0,1.43-1.28l1.72,2.52a2.39,2.39,0,0,0-.13.21c-.37.47-1,.53-1.42,1Z"/><path class="cls-89" d="M102.24,129.81c-.18-.16-.48-.3-.52-.49s.28-.31.51-.3c.49,0,1,.06,1.47.09.68.54,1.66.12,2.31.73a32.55,32.55,0,0,1-2.43,4.55c-.55,1.06-1.38.63-2.18.5a4.83,4.83,0,0,1-2.38-.64,1.13,1.13,0,0,1,1.27-.17c2.17,1,3-.31,4-2s.38-2-1-2.17Z"/><path class="cls-20" d="M98.72,128.21c.19.18,1-.14.53.55s-.47,2-1.79,1.83c-1-.1-2-.29-3-.45v-.26c.19,0,.53,0,.54-.08C95.46,127.37,97.17,128,98.72,128.21Z"/><path class="cls-90" d="M174.44,144.52c.14-.59.94-.22,1.12-.76a.78.78,0,0,1,.18.05c1,.87,1.87,2.24,3.24.45.38.78-.29.72-.48,1-1.7,2.29-1.62,2.74,1,3.95-1.2.67-2.2,0-3.13-.22-.6-.15-.1-.75.07-1.13C177.13,146.16,176.45,145,174.44,144.52Z"/><path class="cls-91" d="M159.78,147.71a6.76,6.76,0,0,0-1.05-.42c-2.35-.52-3.16-2.5-2.06-4.73.47-1,1.17-.77,1.91-.75v.74c-1.5,1.51-1.51,2.8,0,4C159.06,146.92,159.62,147.11,159.78,147.71Z"/><path class="cls-92" d="M198.39,149.9a4.85,4.85,0,0,1-3.11-.54c.45-2.92,2.46-1.85,4.3-1.62l-1.2,2.17Z"/><path class="cls-93" d="M158.25,41.78c1,.28,1.28,1.09,1.55,1.94-.45,1.16-1.06,2.07-2.53,1.72l-.21-.21c-.94-.45-.7-1.16-.29-1.77A16.63,16.63,0,0,1,158.25,41.78Z"/><path class="cls-94" d="M200.34,140.66c-.19-.48-1-.81-.15-1.51a2,2,0,0,0,.56-2c1-1.25,2.19-.89,3.39-.37-2.1.4-1.52,2.74-2.74,3.78C201,140,200.72,141,200.34,140.66Z"/><path class="cls-95" d="M195.47,152.9c-1.29.26-2.43-.39-3.64-.42a.53.53,0,0,1-.5-.81,24.68,24.68,0,0,1,2.76-4.61c.32-.38.82-.28,1.51,0-1.52.78-2,2.21-2.82,3.44s-.34,1.48.74,1.62C194.21,152.25,194.94,152.2,195.47,152.9Z"/><path class="cls-96" d="M256.09,66.39a5,5,0,0,1-.3-5.36C258.37,62.71,256.14,64.65,256.09,66.39Z"/><path class="cls-97" d="M171.69,157.66a1.1,1.1,0,0,0-.36,0l0,0c0-1.11-1.16-1.43-1.55-2.27a1,1,0,0,0-.55-1.46c1.36-.17,2.62-.13,3.11,1.2A2.35,2.35,0,0,1,171.69,157.66Z"/><path class="cls-98" d="M211.85,172.26a.15.15,0,0,1,0-.24c.38-.67-.14-1.36.07-2l.53-.37c.87,0,1.93-.3,2.38.61a2.75,2.75,0,0,1,.45,1.43c-1.07-.5-1.36,1.46-2.51.8A3,3,0,0,0,211.85,172.26Z"/><path class="cls-99" d="M181.16,149.57c2.82,0,3.8-.48,4.31-2.47.47-1.83-1.85-.39-1.89-1.68.84-.33,1.64.24,2.49.33.18,0,.51.39.48.47a9.24,9.24,0,0,1-2.31,3.9C183.32,150.86,182.05,150.28,181.16,149.57Z"/><path class="cls-100" d="M259.07,60.35c-.89.22-.8,1.2-1.34,1.69-1.76-1.94-1.76-1.94,0-4.36a4.46,4.46,0,0,1,1.29,2.69Z"/><path class="cls-100" d="M192.8,175.65c-1.6-1.4-1.51-2.86,0-4.25C194.45,173.06,194.45,173.06,192.8,175.65Z"/><path class="cls-101" d="M116.24,135.16l.26-1.49c1.37-.26,2,.34,1.68,1.67s-.09,2.72-.86,3.92a2.2,2.2,0,0,1-2-.17c-.18-.32-.35-.49.14-.87A2.28,2.28,0,0,0,116.24,135.16Z"/><path class="cls-1" d="M171,127.81a54.57,54.57,0,0,1-3.87,6.33C167.18,131.88,169.51,128.1,171,127.81Z"/><path class="cls-102" d="M235.17,116.72c.63.24.76.85,1,1.32.58,1-.36,1.6-.72,2.35-.18.38-.4.21-.48-.06-.23-.83-1.78-1.26-.74-2.48C234.58,117.48,234.68,116.93,235.17,116.72Z"/><path class="cls-103" d="M229.65,150.32c.35-2.2,2-3.77,2.85-5.7a13,13,0,0,0,1.43-2.83,1.53,1.53,0,0,1,.37,0c.28.93-.38,1.56-.8,2.22C232.2,146.11,231.34,148.47,229.65,150.32Z"/><path class="cls-104" d="M113.73,132.13a2.15,2.15,0,0,0-1.13,1.49c-1.8,1.75-.63,2.38,1.67,2.74-1.65.64-3.06.36-3.39-.32-.57-1.14.78-2.11,1.29-3.17S112.73,131.92,113.73,132.13Z"/><path class="cls-105" d="M102.18,133.68c-.59-.07-1.18-.1-1-.57.4-1,.71-2.19,2-2.51.38-.09.86.22.67.65C103.42,132.19,103.1,133.26,102.18,133.68Z"/><path class="cls-106" d="M201.12,152.78c.57-1,1-1.76,1.46-2.51a.67.67,0,0,1,1-.24.88.88,0,0,1,.39.57C204.05,151.67,202.55,152.9,201.12,152.78Z"/><path class="cls-107" d="M262.21,87.28c.69,1.32,1.82,1.77,2.2,3.07-1.14-.18-2.3,0-2.93-.77S262.22,88.43,262.21,87.28Z"/><path class="cls-108" d="M91.76,132.93c-.9-2.18.5-4.36,3.68-5.08a7,7,0,0,0-3.28,4.29C92.38,132.58,92.48,133,91.76,132.93Z"/><path class="cls-109" d="M207.27,142.57c1.53.25,2-1.11,2.12-2,.24-1.52,1.44-2.18,2.14-3.27-.37,2.18-1.84,3.82-2.91,5.63C208.23,143.62,207.42,143.74,207.27,142.57Z"/><path class="cls-110" d="M159,141.48c-.45-.23-1.51.28-1.18-.89.19-.66.67-.81,1.35-.56a12.75,12.75,0,0,0,1.84.36l-.47,1.4Z"/><path class="cls-1" d="M100.65,125.58c.77-.65-.82-1.27,0-1.92,1.08-.34.81.74,1.19,1.14h0a2.79,2.79,0,0,1,.41,2.71l0,0c-.76-.14-1.6.26-2.29-.34C100.14,126.65,100.38,126.11,100.65,125.58Z"/><path class="cls-111" d="M215.46,139.42c-.37.59-.6,1.34-1.5,1.29-.47,0-1-.14-.89-.73a1.49,1.49,0,0,1,1.68-1.24C215.14,138.75,215.49,138.91,215.46,139.42Z"/><path class="cls-1" d="M115.76,140.2c1.85,2.39,1.62,2.86-2,4a1,1,0,0,1,.73-1C116,142.62,116.3,141.58,115.76,140.2Z"/><path class="cls-112" d="M224.42,142.81c-.45-.2-1.06-.19-1-.83a1.41,1.41,0,0,1,1.46-1.25c.51,0,.94.35.7.86S225.16,142.81,224.42,142.81Z"/><path class="cls-113" d="M242.36,92.08c-.08.86-.66,1.11-1.45,1.09-.41,0-.84-.15-.78-.61.11-.92.87-1.18,1.65-1.27C242.28,91.23,242.38,91.63,242.36,92.08Z"/><path class="cls-113" d="M251.93,93.24c.53,0,.87.31.82.82a1.37,1.37,0,0,1-1.18,1.25c-.38,0-1.08-.09-1.07-.79C250.52,93.62,251.32,93.53,251.93,93.24Z"/><path class="cls-114" d="M234.66,130.55a6.26,6.26,0,0,1-.08,2.24c-1.79-1.43-1.79-1.43-.88-3.26.32.38.4,1,1,1.06Z"/><path class="cls-115" d="M205.65,150a3.57,3.57,0,0,1-2.25,3.85.29.29,0,0,1-.14-.3c0-.11,0-.16.08-.16l1.71-3C205.13,150,205.29,149.82,205.65,150Z"/><path class="cls-1" d="M152.08,45.9c-1.78.37-3.4-.32-5.05-.8C148.81,44.78,150.4,45.64,152.08,45.9Z"/><path class="cls-116" d="M170.36,151.58c.46-1-.31-2.32.87-3.13.19,1.18.19,1.18,1.24,1.06C172.1,150.56,170.89,150.71,170.36,151.58Z"/><path class="cls-117" d="M100.65,125.58c.61,1,.08,1.35-.76,1.6-.44-.06-.92,0-1.22-.43A1.39,1.39,0,0,1,100.65,125.58Z"/><path class="cls-118" d="M205.65,150l-.6.38c-.59-1.49-2.53-.6-3.61-2.36C203.09,149,205,147.72,205.65,150Z"/><path class="cls-119" d="M198.38,149.91c1,.3,1.15-.53,1.55-1,.19-.24.36-.57.72-.3s.28.45.07.78c-.57.91-.87,2.24-2.42,1.31l0,0c0-.26,0-.52,0-.78Z"/><path class="cls-120" d="M203.34,153.35l.06.46c-1.55,1.48-2.89-.07-4.33-.12C200.48,152.93,202,154.34,203.34,153.35Z"/><path class="cls-121" d="M249,108.61c1.15-1.53,1.76-.67,2.41.65-.71.25-1.5,0-2.05.47l0,0c-.29-.34-.69-.65-.36-1.18Z"/><path class="cls-122" d="M212.27,173.21l2,4.33c-1-1.33-2.52-2.4-2.49-4.21Z"/><path class="cls-123" d="M96,126c.36-.62.83-1.12,1.61-.8a.7.7,0,0,1,.31,1.18C97.21,126.66,96.42,127.28,96,126Z"/><path class="cls-124" d="M245.23,77.55c.18,1.7-1,2.73-1.6,4l-.49-.25Z"/><path class="cls-125" d="M158.57,142.57c.53,0,1.14-.19,1.3.7.23,1.23-1.07,1-1.44,1.69-.8-.85.87-1.55.15-2.41Z"/><path class="cls-1" d="M116.06,126c1,.1,2.23-.37,3.11,1A4.11,4.11,0,0,1,116.06,126Z"/><path class="cls-126" d="M230,153.8c-.75-.9-2.14-.39-2.95-1.31,3.11-.19,3.11-.19,2.91,1.3Z"/><path class="cls-35" d="M254.09,107c-.92-.58-1.18-1.67-1.91-2.41-.17-.18-.51-.44.06-.62.25-.07.38-.5.66,0,.5,1,1.39,1.79,1.14,3Z"/><path class="cls-127" d="M91.76,132.93c.33-.16.36-.48.4-.79.9.84,2.35.41,3.44,1.41A7.17,7.17,0,0,1,91.76,132.93Z"/><path class="cls-128" d="M257.05,106.29c-.74-.86-2.13-.23-2.81-1.23,3,0,3,0,2.78,1.21Z"/><path class="cls-68" d="M128,168a3.6,3.6,0,0,1-1.72,1.51c-.21.11-.58-.24-.43-.43a12.52,12.52,0,0,1,1.76-1.73C127.77,167.28,128,167.66,128,168Z"/><path class="cls-129" d="M252.42,106.37c.2.74,1.39,1.26.56,2.29-.21.26-.37.11-.56-.14C251.9,107.82,250.86,107.21,252.42,106.37Z"/><path class="cls-130" d="M183,149.15a5.8,5.8,0,0,1,1.68-2.77A2.32,2.32,0,0,1,183,149.15Z"/><path class="cls-131" d="M109.32,151.47c.91-.94,1.55-2.45,3.33-1.57A7.54,7.54,0,0,1,109.32,151.47Z"/><path class="cls-132" d="M93.62,125.59c.17-.66.61-1.26,1.24-1.1a.83.83,0,0,1,.35,1.45C94.66,125.89,94.05,126.12,93.62,125.59Z"/><path class="cls-133" d="M224.34,156.94l-2.34-.57c.05-.61.28-1.14.92-1.12C223.73,155.28,224,156,224.34,156.94Z"/><path class="cls-48" d="M204.55,136.77c.52-1.54,1.71-.08,2.46-.55a3,3,0,0,1,.13.92c-.09.5-.44.25-.73.19-.63-.14-1-1.07-1.85-.55Z"/><path class="cls-134" d="M99.12,131.73c-.49-1,.68-1.56.59-2.46,0-.3.4-.21.61-.17a.48.48,0,0,1,.35.73c-.34.67-.77,1.3-1.17,1.94A.81.81,0,0,1,99.12,131.73Z"/><path class="cls-135" d="M157.85,46.77c-.55-.11-1.35.34-1.55-.6-.13-.58,0-1,.76-.94h0c.84.24,1.75.45.79,1.59Z"/><path class="cls-136" d="M242.37,84a3.55,3.55,0,0,1-1.55,2.15C240.82,84.71,240.82,84.71,242.37,84Z"/><path class="cls-1" d="M199.17,135a3.1,3.1,0,0,1,3.23-.22A4.43,4.43,0,0,1,199.17,135Z"/><path class="cls-1" d="M194.67,135.19a3.14,3.14,0,0,1,2.7,0C196.64,135.73,195.9,135.72,194.67,135.19Z"/><path class="cls-1" d="M115.34,139.09l2.15.15c.38.09.36.31.17.57-.55.45-1.45-.63-1.86.41C115.3,140,114.64,139.82,115.34,139.09Z"/><path class="cls-133" d="M198.3,150.65c.11.23.45.74.22.67-1-.34-2.29.08-3.15-.88,1.07-.51,2,.31,3,.24Z"/><path class="cls-137" d="M239.71,90.42a2.45,2.45,0,0,1-.49-2.25c.07-.28.4-.26.61,0,.78.81-.16,1.53-.13,2.31Z"/><path class="cls-1" d="M133.17,42.06a5.44,5.44,0,0,0,2.24.55,2.72,2.72,0,0,1-1.19,1.09A2.46,2.46,0,0,1,133.17,42.06Z"/><path class="cls-138" d="M94.5,129.88a.57.57,0,0,1,0,.26c-.11.54-.21,1.08-.32,1.61-.62.61-1,.29-.83-.38a6.07,6.07,0,0,1,.86-1.65s.12,0,.17,0A.55.55,0,0,1,94.5,129.88Z"/><path class="cls-1" d="M115.16,148.37c-1.27-.5-1.54-1.76-2.13-2.77,0-.13,0-.26,0-.39l1.92,2.38,0,0Z"/><path class="cls-139" d="M232.7,140.6c-.1.88-.45,1.07-1.19.49-.26-.21-.79-.13-.31-.71.72-.87,1,.21,1.54.27Z"/><path class="cls-1" d="M206.54,134.38a1.5,1.5,0,0,1,2.18-.36C208.11,134.68,207.47,134.42,206.54,134.38Z"/><path class="cls-140" d="M213.82,133.79c-.45-.58.12-1.07.14-1.61.38-.32.91-.8.87.17A1.81,1.81,0,0,1,213.82,133.79Z"/><path class="cls-1" d="M80.53,122.77c.28.73,1.24.24,1.58.87a3.91,3.91,0,0,1-2.31-.38c-.49-.17-1.16.37-1.51-.37A1.68,1.68,0,0,1,80.53,122.77Z"/><path class="cls-141" d="M228.25,151.71c-.75.4-1.3-.06-1.89-.41C227.19,150.56,227.9,150.28,228.25,151.71Z"/><path class="cls-142" d="M247.51,74.09c.24,1-.24,1.45-1,2.06A2,2,0,0,1,247.51,74.09Z"/><path class="cls-1" d="M190.7,135.73a1.26,1.26,0,0,1,1.77-.23C192,136.18,191.46,136.05,190.7,135.73Z"/><path class="cls-1" d="M203.92,134.68c.69-.81,1.29-.55,2-.53C205.38,135.05,204.75,134.87,203.92,134.68Z"/><path class="cls-143" d="M194.17,149.4c0,1,.31,1.56-.22,2-.06.06-.39-.06-.46-.18C193.11,150.63,193.59,150.24,194.17,149.4Z"/><path class="cls-32" d="M259.82,93.5l0,.41c-.87.61-1-.46-1.53-.67.13-.21.21-.52.39-.59C259.45,92.32,259.35,93.31,259.82,93.5Z"/><path class="cls-144" d="M117.66,139.81c0-.19-.11-.38-.17-.57a5.06,5.06,0,0,1,.12-3.39c.5-1.18.29-2-1.12-2.18v0c.63-.93.75-.93,1.92,0,3.45,1.19,7.08,1.56,10.62,2.28,8.64,1.75,17.3,3.39,26,5,1,.19,1.39.53,1,1.53a6.4,6.4,0,0,0-.42,1.48c-.43,2.9-.43,2.95-3.27,2.41-9-1.74-18-3.53-27.08-5.27a45.87,45.87,0,0,1-6.74-1.41c-.29-.1-.37.25-.41.5Z"/><path class="cls-144" d="M121.55,141.42c4.75.9,9.46,1.78,14.16,2.71,6.33,1.24,12.65,2.52,19,3.77.64.12,1.33.17,1.67.8.43.82,1.63,1.56,1.16,2.46s-1.5,0-2.29-.06c-5.07-.29-9.83-2.23-14.85-2.82-5.52-.65-10.83-2.48-16.37-3a5.08,5.08,0,0,1-3.3-2.15c-.32-.39-.76-.85-.51-1.36S121.12,141.5,121.55,141.42Z"/><path class="cls-7" d="M80.53,122.77l-2.24.12c-.79-.16-1.7.32-2.38-.45-.12-.68-1.06,0-1.18-.71,1.8-1.77,2.54-4.2,3.89-6.25,1-1.59,1.83-3.34,2.74-5,.29,0,.81,0,.85.06.59,1.58,2.24,1.56,3.37,2.3-.14,1.92-1.57,3.22-2.33,4.84S81.16,120.92,80.53,122.77Z"/><path class="cls-145" d="M99.88,122.06c-.77.16-1.94-.53-2.11,1.18-.24-1.1-.53-2.15-1.69-1.79s-1,1.39-.78,2.36c-.13-.21-.35-.41-.37-.62-.2-1.76-.45-3.3-2.66-1.49a1.17,1.17,0,0,1-1.07-.15c-.38-.33.08-.68.24-1,.51-1,1.07-2,1.61-3a35.23,35.23,0,0,1,6.82,4.22c.11.06.15.13.12.19S99.92,122.06,99.88,122.06Z"/><path class="cls-146" d="M118.42,133.7c-.64.14-1.28-1-1.92,0-1-.43-.61-1.18-.2-1.64.63-.71,1.44,0,2.07.15C119.44,132.46,118.27,133.19,118.42,133.7Z"/><path class="cls-144" d="M125.38,149.91c.44-1.12-1-2-.29-3.21.9.28,1.56,1,1.37,1.78C126.37,148.83,126.79,150.3,125.38,149.91Z"/><path class="cls-147" d="M102.21,127.5c-.09-.4-1.15-.5-.45-1.07s-.05-1.1,0-1.64c.71.2.83.94,1.22,1.41C103.87,127.22,103.2,127.51,102.21,127.5Z"/><path class="cls-148" d="M99.88,122.06c0-.1,0-.2,0-.3,1,.81,2.51,1.25,1.94,3l-1.19-1.14C100,123.31,100.17,122.58,99.88,122.06Z"/><path class="cls-149" d="M156.57,155.83c.38,1.64.38,1.64-1.75,1.4Z"/><path class="cls-150" d="M21.07,76.89c-1.29-.61.05-1.19.06-1.78A3.26,3.26,0,0,1,22.26,73C22.47,74.5,21.11,75.49,21.07,76.89Z"/><path class="cls-151" d="M149,70.8c-.22,1-1.05.57-1.64.7-.79-2.48-2.47-4.47-3.8-6.64-7.52-12.16-15.13-24.26-22.7-36.39a8.73,8.73,0,0,1-.56-1.42.81.81,0,0,1,.75-.39,82.74,82.74,0,0,1,5.85,9c6.67,10.65,13.28,21.34,19.95,32A11.86,11.86,0,0,0,149,70.8Z"/><path class="cls-152" d="M121.55,25.21a5.54,5.54,0,0,1-4.27,1.88,66.1,66.1,0,0,1-3.54-11.6c1.08.58,1.46,1.73,2.08,2.65A61.88,61.88,0,0,0,121.55,25.21Z"/><path class="cls-153" d="M182.6,98.6,196,91.92c1.44-1.34,3.56-1.53,4.9-2.94a25.35,25.35,0,0,1-2.23,1.35c-.94.5-1.55.36-1.85-.7-.73-2.92-2.19-5.57-3.11-8.42-.22-.68-.8-1.47,0-2a1.44,1.44,0,0,1,2.12.49c.5.74,1.34.61,2.08.75,1.93.35,4.52,2.53,4.15,3.86s.44,2.23.74,3.31c.21.77.46.87,1.18.41a24.4,24.4,0,0,1,3.78-2.48,13,13,0,0,1,6.39-1.12,15.32,15.32,0,0,0,5.7-.37.85.85,0,0,1,1.08.42L201.9,94c1.49.35,2.42-1.17,3.14-.52a4.61,4.61,0,0,1,1.12,2.92c.15,2,1.75,3.48,1.64,5.58,0,.49,1.19,1,.42,2s-1.9,1-2.27.4c-.89-1.57-2.75-1-3.87-2.23s-2.82-3.35-2.53-5a2,2,0,0,0-.31-1.57c-.4-.46-.92.22-1.33.43-1.31.7-2.71,1.11-3.85,2.29a5,5,0,0,1-4.37,1.2c-2.29-.46-4.53.39-6.76-.18C182.6,99.22,182.4,99,182.6,98.6Z"/><path class="cls-154" d="M117.33,78.59c1.81,1,2.88.52,3.7-1.23s1.93-3,2.63-4.69c.78-1.85,2-.84,3.06-.68.75.12.18.7,0,1-.94,1.68-2,3.3-2.81,5-.26.54-1.45,1.22-.43,1.84s2.11.88,2.8-.75,1.82-3,2.53-4.53c.87-1.92,2.06-2.36,4.07-1.22-1.91,3.27-3.87,6.54-5.72,9.86-.46.83-1,.61-1.61.5-3.84-.74-7.69-1.5-11.54-2.21-1.14-.21-1.48-.55-.79-1.69,1.68-2.79,3.24-5.66,4.87-8.49a2.65,2.65,0,0,1,3.18-.37c.49.52-.12.83-.28,1.14C119.8,74.3,118.55,76.45,117.33,78.59Z"/><path class="cls-155" d="M146.73,75.83l-5.56,9.77c-.36.65-.72,1.08-1.63.89-3.25-.71-6.53-1.32-10-2,1.06-1.87,2.06-3.62,3-5.38.46-.83,1.13-.62,1.84-.48,1.89.38,3.79.68,5.66,1.12a1.27,1.27,0,0,0,1.72-1c.18-1-.79-.61-1.23-.71-1.81-.41-3.64-.75-5.47-1.07-.87-.16-1.05-.45-.59-1.26.72-1.28,1.31-2.2,3.2-1.66C140.54,74.83,143.55,75.21,146.73,75.83Z"/><path class="cls-156" d="M180.43,78.21c-.31,1.31-2.12,2.46-1.37,3.62.61.93,2.48.7,3.8,1,1.14.21,2.26.48,3.59.77-2,3.44-3.86,6.78-5.81,10.08-.91,1.54-2-.23-3.2,0,1.2-2.15,2.35-4.34,3.62-6.45.53-.88.64-1.16-.54-1.46-3.77-1-3.77-1-5.62,2.34-.71,1.28-1.46,2.55-2.17,3.84a1.2,1.2,0,0,1-1.34.77c-2.15-.23-2.27-.42-1.18-2.34l6.17-10.81C177.71,77.17,177.78,77.14,180.43,78.21Z"/><path class="cls-153" d="M144.08,87.3c2.75-4.78,5.36-9.39,8-14,.88-1.5,2-.06,3.09-.23a3.9,3.9,0,0,1-.13.68c-.45,1-1.72,2.1-1.35,3s2,.69,3.11,1c.4.1,1.32.14,1,.72-.51.9-.56,2.43-2.13,2.34a14.67,14.67,0,0,1-3-.51c-1-.28-1.47.1-1.86,1-.49,1.16-2,2.3-1.63,3.27s2.29.6,3.46,1.05c.23.09.49.14.73.21-.87,3-1.07,3.11-4,2.46C147.67,88,146,87.67,144.08,87.3Z"/><path class="cls-157" d="M160.71,87.26c2.13.39,4.26.82,6.4,1.18.77.13.92.29.58,1.09-.65,1.51-1.37,2.29-3.26,1.77-2.7-.75-5.5-1.12-8.26-1.66a5.51,5.51,0,0,1-.68-.28l1.62-2.78C158.49,85.81,159.61,86.51,160.71,87.26Z"/><path class="cls-158" d="M161.36,79.21c.13-.56.6-.42.92-.36,3.39.64,6.77,1.3,10.18,2-1.3,3.15-1.3,3.12-4.44,2.45-1.69-.36-3.4-.61-5.1-.92-.65.29-1.2.87-2,.06s-.25-1.39,0-2C161.07,80,161.58,79.74,161.36,79.21Z"/><path class="cls-159" d="M161.36,79.21c1,.3.28.74.06,1.07-.33.5-.82,1.06-.47,1.58a1.72,1.72,0,0,0,2,.49c-.55,1.72-2.3,2.9-2.21,4.91l-3.6-.68A64.27,64.27,0,0,1,161.36,79.21Z"/><path class="cls-160" d="M196.85,89.63c1.55,1.51,2.4-.41,3.55-.78.41-.13.62-.82,1.24-.71.19,0,.35.12.3.39a1.73,1.73,0,0,1-1.09,1.22A26.73,26.73,0,0,1,196,91.92C195.27,90.78,196.8,90.47,196.85,89.63Z"/><path class="cls-161" d="M182.6,98.6l.33.79c-.45.81-1.29,1-1.61.22S182.1,98.89,182.6,98.6Z"/><path class="cls-162" d="M157.82,46.81c.64-1-.39-1.13-.79-1.59,1.36.31,2.07-.58,2.77-1.5.66-.22,1.14-.88,1.94-.77-.85,1-2.15,1.45-2.76,2.65C158.49,45.91,158.54,46.73,157.82,46.81Z"/><path class="cls-163" d="M200.34,140.66c.3-.31.56-.8.92-.88s.13.5.14.79c-.28.34-.42.65.17.81l2.38.6c-1.53.68-2.59.12-3.66-.17a.83.83,0,0,1,0-1.15Z"/><path class="cls-164" d="M205.38,138.82c-.13.51-.33,1-.95,1-.38-.05-1-.18-.91-.73s.59-.76,1.13-.7C205,138.37,205.48,138.15,205.38,138.82Z"/><path class="cls-94" d="M200.33,140.66c0,.39,0,.77,0,1.15-.41-.15-1.16.31-1.21-.41S199.72,140.59,200.33,140.66Z"/><path class="cls-145" d="M93.41,123.84c-1.07.09-1.53-.29-1.78-.92-.15-.36.22-.43.43-.45C92.91,122.42,92.85,123.24,93.41,123.84Z"/><path class="cls-165" d="M171.33,157.63c.09.72,0,1.22-.94,1.22a2.79,2.79,0,0,1-2.43-1.18c-.24-.33.37-.69.41-.63.81,1.21,2,.16,3,.61Z"/><path class="cls-166" d="M115,147.59c.17-.63-.25-1.67,1-1.56a2.57,2.57,0,0,1,2.55,1.89c.16,1-.93.93-1.68.66s-1.14-1-1.93-1Z"/><path class="cls-46" d="M211.9,170c0,.68,1.81,1.41-.07,2C211.49,171.33,211,170.64,211.9,170Z"/><path class="cls-167" d="M249,108.58c.15.39.53.7.36,1.18h-1.93A1.93,1.93,0,0,1,249,108.58Z"/><path class="cls-168" d="M98.4,131.62a4.3,4.3,0,0,1-3.3-.49A4,4,0,0,1,98.4,131.62Z"/><path class="cls-169" d="M138.08,83.75c-1.13-.24-2.06-.45-3-.63-.54-.1-1-.22-.85-.94s.48-1,1.21-.89c.93.2,1.88.34,2.79.59.51.14,1.55-.21,1.27.88C139.33,83.42,138.77,84,138.08,83.75Z"/><polygon class="cls-170" points="5.11 73.27 8.73 68.4 7.38 68.4 4.47 72.4 1.55 68.4 0.18 68.4 3.79 73.26 0 78.37 1.37 78.37 4.45 74.14 7.55 78.37 8.9 78.37 5.11 73.27"/><polygon class="cls-171" points="87.94 255.2 86.62 255.2 83.46 260.1 80.29 255.2 78.95 255.2 82.87 261.12 82.87 265.17 84.02 265.17 84.02 261.14 87.94 255.2"/><polygon class="cls-172" points="107.24 9 112.95 0.84 112.95 0 105.91 0 105.91 0.97 111.62 0.97 105.91 9.11 105.91 9.97 113.09 9.97 113.09 9 107.24 9"/><path class="cls-173" d="M90.79,215.87c3.33-4.34,11.18-5.38,18.74-2.17,8.47,3.6,13.36,11.16,10.92,16.89s-11.27,7.47-19.74,3.88"/><polygon class="cls-22" points="101.74 217.8 101.75 215.8 91.89 215.77 92.63 205.94 90.63 205.79 89.73 217.77 101.74 217.8"/><path class="cls-174" d="M133.21,14.69c3.23,5.74.83,14.26-5.94,20-7.43,6.27-17.31,6.78-22.06,1.15s-2.59-15.29,4.84-21.56"/><polygon class="cls-175" points="127.52 24.1 129.38 24.84 133.01 15.67 141.89 19.96 142.76 18.16 131.94 12.94 127.52 24.1"/><path class="cls-176" d="M48.38,65.31c-6.53-.74-13.44,4.8-16.06,13.26-2.87,9.29.51,18.58,7.55,20.76s15.08-3.58,18-12.87"/><polygon class="cls-177" points="41.47 57.87 40.15 59.37 47.56 65.87 40.53 72.79 41.94 74.22 50.49 65.78 41.47 57.87"/><rect class="cls-178" width="595.28" height="18"/></g></g></svg>