<svg xmlns="http://www.w3.org/2000/svg" viewBox="0 0 595.28 198.43"><defs><style>.cls-1,.cls-12{fill:none;}.cls-2{fill:#8f959b;}.cls-3{fill:#6a7276;}.cls-4{fill:#424a4a;}.cls-5{fill:#bfc2c5;}.cls-6{fill:#5d5d5d;}.cls-7{fill:#171b1b;}.cls-8{fill:#fff;}.cls-9{fill:#2a3232;}.cls-10{fill:#1e2525;}.cls-11{fill:#231f20;}.cls-12{stroke:#ff5100;stroke-linecap:round;stroke-miterlimit:10;}.cls-13{fill:#ff5100;}</style></defs><g id="Layer_2" data-name="Layer 2"><g id="Layer_1-2" data-name="Layer 1"><rect class="cls-1" width="595.28" height="18"/><rect class="cls-2" x="186.81" y="67.64" width="16.41" height="16.41" rx="3.15"/><rect class="cls-2" x="186.81" y="112.17" width="16.41" height="16.41" rx="3.15"/><rect class="cls-2" x="43.85" y="67.64" width="16.41" height="16.41" rx="3.15"/><path class="cls-3" d="M89.34,16.5c0,.1.37-8.6,2.45-11.43,1.36-1.86,7.33-3.94,12.76-4.48S123.93,0,123.93,0h.32S137,.05,142.44.59s11.41,2.62,12.77,4.48c2.07,2.83,2.56,11.35,2.52,11.26a36.91,36.91,0,0,0-10.58-3.74,40.48,40.48,0,0,0-8.68-.75H108.6S96.22,11.52,89.34,16.5Z"/><path class="cls-2" d="M88.37,28.55l1-12.59A37.47,37.47,0,0,1,103,11.62h35.48s11.34-.82,19.3,4.79l.89,12.86H88.37Z"/><path class="cls-3" d="M89.34,181.92c0-.09.37,8.6,2.45,11.44,1.36,1.86,7.33,3.93,12.76,4.48s19.38.59,19.38.59h.32s12.76-.05,18.19-.59,11.41-2.62,12.77-4.48c2.07-2.84,2.56-11.36,2.52-11.26a37.25,37.25,0,0,1-10.58,3.74,40.94,40.94,0,0,1-8.68.74H108.6S96.22,186.9,89.34,181.92Z"/><path class="cls-2" d="M88.37,169.87l1,12.59A37.59,37.59,0,0,0,103,186.81h35.48s11.34.81,19.3-4.8l.89-12.85H88.37Z"/><path class="cls-4" d="M61,38.2s1-.89,2.6-2.14A11.84,11.84,0,0,0,61,38.2Z"/><path class="cls-4" d="M166.77,28.7,123.54,28,80.3,28.7c-6.74.55-13.21,4.74-16.68,7.36,8-5,23.87-5.15,23.87-5.15l20.91-1.22,15.14-.18,15.13.18,20.91,1.22s15.9.15,23.87,5.15C180,33.44,173.51,29.25,166.77,28.7Z"/><path class="cls-4" d="M183.45,36.06c1.64,1.25,2.6,2.14,2.6,2.14A11.84,11.84,0,0,0,183.45,36.06Z"/><path class="cls-4" d="M61,159.4s1,.89,2.6,2.14A11.84,11.84,0,0,1,61,159.4Z"/><path class="cls-4" d="M166.77,168.9l-43.23.68L80.3,168.9c-6.74-.55-13.21-4.74-16.68-7.36,8,5,23.87,5.15,23.87,5.15l20.91,1.22,15.14.18,15.13-.18,20.91-1.22s15.9-.15,23.87-5.15C180,164.16,173.51,168.35,166.77,168.9Z"/><path class="cls-4" d="M183.45,161.54c1.64-1.25,2.6-2.14,2.6-2.14A11.84,11.84,0,0,1,183.45,161.54Z"/><path class="cls-5" d="M198.67,98.74v8.47c.06,14.9-3.47,33.79-3.47,33.79s-1.39,10.92-8.21,18-17.47,7-17.47,7L142,167.56l-18.34.42h-.17l-18.34-.42L77.55,166s-10.64.07-17.47-7-8.21-18-8.21-18-3.53-18.89-3.47-33.79V90.26c-.06-14.9,3.47-33.78,3.47-33.78s1.39-10.92,8.21-18,17.47-7,17.47-7l27.56-1.53,18.34-.42h.17l18.34.42,27.56,1.53s10.65-.07,17.47,7,8.21,18,8.21,18,3.53,18.88,3.47,33.78v8.48"/><path class="cls-4" d="M196.83,98v8.27c0,14.55-3.39,33-3.39,33s-1.36,10.66-8,17.58-17,6.86-17,6.86l-26.88,1.49-17.89.41h-.17l-17.88-.41-26.89-1.49s-10.38.06-17-6.86-8-17.58-8-17.58-3.44-18.43-3.38-33V89.76c-.06-14.55,3.38-33,3.38-33s1.36-10.65,8-17.58,17-6.86,17-6.86l26.89-1.49,17.88-.41h.17l17.89.41,26.88,1.49s10.39-.06,17,6.86,8,17.58,8,17.58,3.44,18.43,3.39,33V98"/><path class="cls-6" d="M53.35,49.59s-3.53,2.31-3.8,5-1.66,19.28-1.66,19.28l-.65,26.88,1.9,38.84s-.14,5.29,2.58,7.19a4.84,4.84,0,0,1,2,2.22c.59,1.47-1.38-5.09-1.38-5.09s-2.1-14.85-2.24-16.48-.88-14.86-.88-14.86l-.34-17.72S49.68,67.65,51.72,58Z"/><path class="cls-6" d="M193.72,49.74s3.53,2.31,3.8,5,1.67,19.28,1.67,19.28l.64,26.88-1.9,38.83s.14,5.3-2.58,7.2a4.78,4.78,0,0,0-2,2.21c-.59,1.48,1.38-5.09,1.38-5.09s2.11-14.84,2.24-16.47.88-14.87.88-14.87L198.2,95s-.81-27.22-2.85-36.86Z"/><path class="cls-7" d="M191.54,81l-.81-10.32L189.1,58.07c-.95-7.4-3.12-10.93-3.12-10.93-2.18-5.16-8.76-8.55-8.76-8.55-2.58-1.36-10.86-2-10.86-2l-18.2-1.15-24.54-.75h-.17l-24.54.75-18.2,1.15s-8.28.68-10.86,2c0,0-6.58,3.39-8.76,8.55,0,0-2.17,3.53-3.12,10.93L56.34,70.63,55.53,81,55.05,92v12l.48,11.07.81,10.32L58,138c1,7.4,3.12,10.93,3.12,10.93,2.18,5.16,8.76,8.55,8.76,8.55,2.58,1.36,10.86,2,10.86,2l18.2,1.15,24.54.75h.17l24.54-.75,18.2-1.15s8.28-.68,10.86-2c0,0,6.58-3.39,8.76-8.55,0,0,2.17-3.53,3.12-10.93l1.63-12.56.81-10.32L192,104V92Z"/><path class="cls-8" d="M109.44,151.73v4.46h-5.61v-4.46h1.1v3.35h1.15v-3.35h1.11v3.35h1.11v-3.35Z"/><path class="cls-8" d="M115.09,151.72v4.47h-4.51V153.5h3.36v-.73h-3.36v-1.05Zm-1.15,3.47v-.78h-2.21v.78Z"/><path class="cls-8" d="M117.31,152.84v2.24h2.26v1.11h-3.36v-5.92h1.1v1.45h2.26v1.12Z"/><path class="cls-8" d="M121.85,152.83V155h3.36v1.15H120.7v-4.5h4.51v1.14Z"/><path class="cls-8" d="M130.8,151.72v4.47h-1.1v-3.35h-2.26v3.35h-1.11v-6.06h1.11v1.59Z"/><g id="ARC"><path class="cls-8" d="M138.9,157l-.48-.61a1.16,1.16,0,0,1,.08-1.53l1.1-1.11a.58.58,0,0,0,0,.81l3.12,3.17a.32.32,0,0,1-.29.53l-2.27-.48A2.24,2.24,0,0,1,138.9,157Z"/></g><path class="cls-8" d="M143.2,149.66l-3.67.78a.78.78,0,0,0-.44.27l-1.26,1.59a.23.23,0,0,1-.38,0l-.5-.63a1.16,1.16,0,0,1-.08,1.53l-4.87,5a0,0,0,0,0,0,.06l3.67-.78a.71.71,0,0,0,.43-.27l1.27-1.59a.25.25,0,0,1,.38,0l.5.63a1.16,1.16,0,0,1,.08-1.53l4.86-4.95A0,0,0,0,0,143.2,149.66Z"/><g id="ARC-2" data-name="ARC"><path class="cls-8" d="M136.33,150.91l.48.6a1.15,1.15,0,0,1-.08,1.53l-1.09,1.12a.58.58,0,0,0,0-.81l-3.12-3.18a.31.31,0,0,1,.29-.53l2.26.48A2.22,2.22,0,0,1,136.33,150.91Z"/></g><polygon class="cls-9" points="65.12 123.11 164.51 66.75 65.12 66.75 65.12 123.11"/><polygon class="cls-10" points="65.12 125.17 181.95 125.17 181.95 66.75 164.51 66.75 65.12 123.11 65.12 125.17"/><path class="cls-11" d="M10.88,80.85v-10h4a3.75,3.75,0,0,1,2.38.68,2.35,2.35,0,0,1,.86,1.94,2.28,2.28,0,0,1-.47,1.46,2.6,2.6,0,0,1-1.3.86v-.12a2.43,2.43,0,0,1,1.47.83,2.77,2.77,0,0,1-.33,3.66,3.86,3.86,0,0,1-2.47.7ZM12,75.28h2.7a2.73,2.73,0,0,0,1.71-.45A1.58,1.58,0,0,0,17,73.51a1.54,1.54,0,0,0-.56-1.29,2.89,2.89,0,0,0-1.72-.42H12Zm0,4.62H15a2.8,2.8,0,0,0,1.73-.44,1.63,1.63,0,0,0,.56-1.36,1.7,1.7,0,0,0-.56-1.38A2.71,2.71,0,0,0,15,76.25H12Z"/><path class="cls-11" d="M21,80.85v-1H26.6v1Zm2.21-.52V71.51l.66.34-2.71,1.73V72.47l2.55-1.63h.67v9.49Z"/><path class="cls-11" d="M220.24,80.91v-10h4a3.69,3.69,0,0,1,2.38.68A2.57,2.57,0,0,1,227,75a2.58,2.58,0,0,1-1.3.85v-.11a2.4,2.4,0,0,1,1.47.83,2.76,2.76,0,0,1-.33,3.65,3.85,3.85,0,0,1-2.46.71Zm1.14-5.57h2.7a2.73,2.73,0,0,0,1.71-.45,1.58,1.58,0,0,0,.57-1.32,1.54,1.54,0,0,0-.56-1.29,2.88,2.88,0,0,0-1.72-.43h-2.7Zm0,4.61h2.93a2.81,2.81,0,0,0,1.73-.43,1.64,1.64,0,0,0,.56-1.37,1.7,1.7,0,0,0-.56-1.38,2.71,2.71,0,0,0-1.73-.46h-2.93Z"/><path class="cls-11" d="M229.75,80.91V80l3.5-3.88a7.13,7.13,0,0,0,1-1.43,2.8,2.8,0,0,0,.32-1.26,1.64,1.64,0,0,0-.48-1.27,1.91,1.91,0,0,0-1.36-.45,3.82,3.82,0,0,0-1.44.29,5.35,5.35,0,0,0-1.4.87l-.44-.89a4.56,4.56,0,0,1,1.49-.9,5.28,5.28,0,0,1,1.82-.34,3.68,3.68,0,0,1,1.58.32,2.34,2.34,0,0,1,1,.91,2.63,2.63,0,0,1,.37,1.4,3.74,3.74,0,0,1-.39,1.66,8,8,0,0,1-1.29,1.77l-3.37,3.66-.09-.56h5.56v1Z"/><path class="cls-11" d="M220.24,125.39v-10h4a3.69,3.69,0,0,1,2.38.69,2.57,2.57,0,0,1,.39,3.4,2.58,2.58,0,0,1-1.3.85v-.11a2.4,2.4,0,0,1,1.47.83,2.76,2.76,0,0,1-.33,3.65,3.85,3.85,0,0,1-2.46.71Zm1.14-5.57h2.7a2.73,2.73,0,0,0,1.71-.45,1.58,1.58,0,0,0,.57-1.32,1.53,1.53,0,0,0-.56-1.29,2.81,2.81,0,0,0-1.72-.43h-2.7Zm0,4.61h2.93A2.74,2.74,0,0,0,226,124a1.62,1.62,0,0,0,.56-1.36,1.7,1.7,0,0,0-.56-1.38,2.71,2.71,0,0,0-1.73-.46h-2.93Z"/><path class="cls-11" d="M232.7,125.49a5.28,5.28,0,0,1-1.86-.33,4.15,4.15,0,0,1-1.51-.91l.45-.89a5.09,5.09,0,0,0,1.39.87,4,4,0,0,0,1.5.28,2.42,2.42,0,0,0,1.63-.47,1.76,1.76,0,0,0,.55-1.41,1.65,1.65,0,0,0-.57-1.38,2.75,2.75,0,0,0-1.73-.46h-1.16v-1h.93a2.63,2.63,0,0,0,1.7-.49,1.72,1.72,0,0,0,.59-1.41,1.61,1.61,0,0,0-.48-1.25,2,2,0,0,0-1.37-.44,3.83,3.83,0,0,0-1.45.29,5.15,5.15,0,0,0-1.39.87l-.44-.89a4.35,4.35,0,0,1,1.49-.91,5.2,5.2,0,0,1,1.83-.33,3.67,3.67,0,0,1,1.57.32,2.4,2.4,0,0,1,1,.89,2.79,2.79,0,0,1-.13,3,2.42,2.42,0,0,1-1.33.89l0-.14a2.63,2.63,0,0,1,1.55.86,2.52,2.52,0,0,1,.53,1.64,2.56,2.56,0,0,1-.88,2.06A3.62,3.62,0,0,1,232.7,125.49Z"/><path class="cls-11" d="M4,125.49a4,4,0,0,1-3-1,4.12,4.12,0,0,1-1-3v-6.09H1.14v6.18a3.06,3.06,0,0,0,.72,2.22,2.82,2.82,0,0,0,2.12.74,2.74,2.74,0,0,0,2.09-.75,3,3,0,0,0,.72-2.21v-6.18H7.94v6.09a4.1,4.1,0,0,1-1,3A4,4,0,0,1,4,125.49Z"/><path class="cls-11" d="M13.53,125.49a7.38,7.38,0,0,1-1.45-.13,5,5,0,0,1-1.25-.42,4.77,4.77,0,0,1-1-.71l.43-.89a5.1,5.1,0,0,0,1.53.9,5.39,5.39,0,0,0,1.79.27A3.19,3.19,0,0,0,15.4,124a1.55,1.55,0,0,0,.66-1.33,1.11,1.11,0,0,0-.33-.84,2.28,2.28,0,0,0-.9-.5,12.93,12.93,0,0,0-1.29-.36c-.48-.11-.93-.23-1.36-.36a5.07,5.07,0,0,1-1.15-.52,2.24,2.24,0,0,1-.78-.78,2.32,2.32,0,0,1-.28-1.2,2.61,2.61,0,0,1,.45-1.51,2.89,2.89,0,0,1,1.27-1,4.7,4.7,0,0,1,1.92-.36,5.68,5.68,0,0,1,1.32.14,4.86,4.86,0,0,1,1.18.43,4.19,4.19,0,0,1,1,.69l-.45.89a4.66,4.66,0,0,0-1.42-.89,4.36,4.36,0,0,0-1.59-.28,3,3,0,0,0-1.83.49,1.63,1.63,0,0,0-.66,1.38,1.3,1.3,0,0,0,.3.89,2.06,2.06,0,0,0,.83.54,10.58,10.58,0,0,0,1.22.37c.49.11,1,.23,1.41.37a6,6,0,0,1,1.2.48,2.35,2.35,0,0,1,.84.75,2.06,2.06,0,0,1,.31,1.16,2.52,2.52,0,0,1-.45,1.49,2.91,2.91,0,0,1-1.28,1A5,5,0,0,1,13.53,125.49Z"/><path class="cls-11" d="M19.11,125.38v-10h4a3.78,3.78,0,0,1,2.38.68,2.32,2.32,0,0,1,.85,1.93,2.27,2.27,0,0,1-.47,1.47,2.5,2.5,0,0,1-1.3.85v-.11a2.61,2.61,0,0,1,1.14,4.49,3.81,3.81,0,0,1-2.46.7Zm1.14-5.57H23a2.73,2.73,0,0,0,1.71-.45,1.58,1.58,0,0,0,.57-1.32,1.52,1.52,0,0,0-.57-1.29,2.83,2.83,0,0,0-1.71-.43h-2.7Zm0,4.61h2.92a2.82,2.82,0,0,0,1.74-.43,2,2,0,0,0,0-2.74,2.67,2.67,0,0,0-1.73-.47H20.25Z"/><line class="cls-11" x1="29.18" y1="75.85" x2="42.56" y2="75.85"/><line class="cls-12" x1="29.18" y1="75.85" x2="40.06" y2="75.85"/><circle class="cls-13" cx="39.92" cy="75.85" r="2.63"/><line class="cls-11" x1="29.18" y1="120.37" x2="45.95" y2="120.37"/><line class="cls-12" x1="29.18" y1="120.37" x2="43.45" y2="120.37"/><path class="cls-13" d="M43.32,123a2.64,2.64,0,1,0-2.63-2.64A2.64,2.64,0,0,0,43.32,123Z"/><line class="cls-11" x1="217.89" y1="75.85" x2="204.52" y2="75.85"/><line class="cls-12" x1="217.89" y1="75.85" x2="207.02" y2="75.85"/><path class="cls-13" d="M207.15,73.21a2.64,2.64,0,1,0,2.63,2.64A2.63,2.63,0,0,0,207.15,73.21Z"/><line class="cls-11" x1="217.89" y1="120.37" x2="204.52" y2="120.37"/><line class="cls-12" x1="217.89" y1="120.37" x2="207.02" y2="120.37"/><path class="cls-13" d="M207.15,117.74a2.64,2.64,0,1,0,2.63,2.63A2.63,2.63,0,0,0,207.15,117.74Z"/></g></g></svg>