<svg id="Layer_1" data-name="Layer 1" xmlns="http://www.w3.org/2000/svg" viewBox="0 0 100 100">
	<defs>
		<style>.cls-1{fill:#fff;}</style>
	</defs>
	<path class="cls-1"
	      d="M100,24.71a2.93,2.93,0,0,0-.64-1.56C99.19,23,100.68,24.47,77.07.86A3,3,0,0,0,75,0H8.79A8.8,8.8,0,0,0,0,8.79V91.21A8.8,8.8,0,0,0,8.79,100H91.21A8.8,8.8,0,0,0,100,91.21c0-71.13,0-66.27,0-66.5ZM67.38,5.86V25a2.93,2.93,0,0,1-2.93,2.93H60.74V5.86Zm-12.5,0V27.93H27.73A2.93,2.93,0,0,1,24.8,25V5.86ZM67.38,62.7H24.8V59a2.94,2.94,0,0,1,2.93-2.93H64.45A2.93,2.93,0,0,1,67.38,59ZM24.8,94.14V68.55H67.38V94.14Zm69.34-2.93a2.93,2.93,0,0,1-2.93,2.93h-18V59a8.79,8.79,0,0,0-8.79-8.78H27.73A8.79,8.79,0,0,0,19,59V94.14H8.79a2.93,2.93,0,0,1-2.93-2.93V8.79A2.93,2.93,0,0,1,8.79,5.86H19V25a8.79,8.79,0,0,0,8.78,8.79H64.45A8.8,8.8,0,0,0,73.24,25V5.86h.55L94.14,26.21Z"/>
</svg>