<svg xmlns="http://www.w3.org/2000/svg" viewBox="0 0 141.73 74.82">
	<defs>
		<style>.cls-1{fill:#fff;}.cls-2{fill:#232323;}.cls-3{fill:#ff5100;}.cls-4{fill:#00aeb3;}</style>
	</defs>
	<g id="Layer_2" data-name="Layer 2">
		<g id="Layer_1-2" data-name="Layer 1">
			<rect class="cls-1" x="7.75" y="41.94" width="54" height="24"/>
			<rect class="cls-1" x="80.59" y="39.01" width="55.16" height="24" rx="3.71"
			      transform="translate(-5.2 12.92) rotate(-6.68)"/>
			<path class="cls-2" d="M16.09,6v12.8H0V6H3.17v9.6H6.46V6H9.63v9.6H12.8V6Z"/>
			<path class="cls-2" d="M32.27,6V18.77H19.35V11.08H29V9H19.35V6ZM29,15.91V13.7H22.64v2.21Z"/>
			<path class="cls-2" d="M38.63,9.18v6.43h6.46v3.2H35.47v-17h3.16V6h6.46v3.2Z"/>
			<path class="cls-2" d="M51.65,9.15v6.33h9.62v3.29H48.35V5.89H61.27V9.15Z"/>
			<path class="cls-2" d="M77.3,6V18.81H74.13V9.18H67.67v9.63H64.5V1.43h3.17V6Z"/>
			<g id="ARC">
				<path class="cls-3"
				      d="M100.51,21l-1.38-1.74a3.31,3.31,0,0,1,.23-4.38l3.14-3.2a1.66,1.66,0,0,0,0,2.32l8.94,9.1a.91.91,0,0,1-.84,1.52l-6.48-1.38A6.36,6.36,0,0,1,100.51,21Z"/>
			</g>
			<path class="cls-2"
			      d="M112.82.07,102.3,2.32a2.2,2.2,0,0,0-1.25.77L97.44,7.65a.71.71,0,0,1-1.1,0L94.9,5.84a3.3,3.3,0,0,1-.23,4.37L80.74,24.41a.11.11,0,0,0,.1.18l10.51-2.25a2.12,2.12,0,0,0,1.25-.77L96.22,17a.7.7,0,0,1,1.09,0l1.44,1.82A3.33,3.33,0,0,1,99,14.45L112.92.25A.11.11,0,0,0,112.82.07Z"/>
			<g id="ARC-2" data-name="ARC">
				<path class="cls-3"
				      d="M93.14,3.65l1.38,1.74a3.3,3.3,0,0,1-.23,4.37L91.15,13a1.66,1.66,0,0,0,0-2.32l-8.93-9.1A.9.9,0,0,1,83.05,0L89.53,1.4A6.26,6.26,0,0,1,93.14,3.65Z"/>
			</g>
			<path class="cls-3"
			      d="M22,36.05a3.58,3.58,0,0,1-2.52-1L14,29.5a4.86,4.86,0,0,0-3.43-1.42H0V26.84H10.57a6.08,6.08,0,0,1,4.31,1.79l5.5,5.5a2.32,2.32,0,0,0,3.29,0l5.5-5.5a6.06,6.06,0,0,1,4.31-1.79h44v1.24h-44a4.83,4.83,0,0,0-3.43,1.42L24.54,35A3.55,3.55,0,0,1,22,36.05Z"/>
			<path class="cls-4"
			      d="M51.64,48.25A3.34,3.34,0,0,0,49,49.46a5.58,5.58,0,0,0-1,3.67,5.72,5.72,0,0,0,1,3.69,3.59,3.59,0,0,0,5.39,0,5.72,5.72,0,0,0,1-3.69,5.69,5.69,0,0,0-1-3.66A3.33,3.33,0,0,0,51.64,48.25Z"/>
			<path class="cls-4"
			      d="M22.31,50.94a1.57,1.57,0,0,0,.53-1.28,1.38,1.38,0,0,0-.61-1.16,3.17,3.17,0,0,0-1.83-.44l-.94,0c-.35,0-.63,0-.82.08v3.2h2A2.67,2.67,0,0,0,22.31,50.94Z"/>
			<path class="cls-4"
			      d="M21.05,54.68H18.64V58a4.4,4.4,0,0,0,1,.15c.4,0,.78,0,1.14,0a3.43,3.43,0,0,0,1.8-.44,1.54,1.54,0,0,0,.72-1.4Q23.27,54.68,21.05,54.68Z"/>
			<path class="cls-4"
			      d="M74.9,60.92c-.27.13-.42.42-.68,1a3.48,3.48,0,0,1-1.87,2.2c-.93.37-2.5.42-4.74-1.44-4-3.28-4.9-10.32-2-14.77.88-1.35,2.68-3.56,4.92-3.29a4.26,4.26,0,0,1,2.8,2c.46.58.78,1,1.05,1h0c.47,0,1.17-.7,1.58-1.38.66-1.06.57-2,.32-3.84a22.06,22.06,0,0,1-.26-4,25,25,0,0,1,.3-2.87,3.51,3.51,0,0,0-3.45-4.11H33.48a2.94,2.94,0,0,0-2.09.87l-5.5,5.5a5.48,5.48,0,0,1-7.74,0l-5.5-5.5a2.9,2.9,0,0,0-2.08-.87H7a7,7,0,0,0-7,7V67.8a7,7,0,0,0,7,7H70.78a3.5,3.5,0,0,0,3.49-3.2,15.74,15.74,0,0,1,1.69-6l.23-.4c.49-.89,1.51-2.74,1-3.57A2.19,2.19,0,0,0,74.9,60.92Zm-48.77-.4A10.67,10.67,0,0,1,20.4,61.8l-1.09,0c-.41,0-.84-.06-1.28-.11s-.88-.12-1.32-.21a6.65,6.65,0,0,1-1.19-.33,2,2,0,0,1-1.49-2V46.49a1.18,1.18,0,0,1,.31-.88,2.35,2.35,0,0,1,.86-.5,10.18,10.18,0,0,1,2.3-.47,26.32,26.32,0,0,1,2.84-.15,10.18,10.18,0,0,1,5.34,1.16,4,4,0,0,1,1.87,3.61,3.18,3.18,0,0,1-.68,2.07A4.41,4.41,0,0,1,25,52.67q3.14,1,3.14,3.88A4.39,4.39,0,0,1,26.13,60.52Zm15.7.44a1.49,1.49,0,0,1-1.19.49H33.32a2.35,2.35,0,0,1-2.52-2.52v-14l.95-.14a7.53,7.53,0,0,1,1.25-.1,3.22,3.22,0,0,1,2,.46,2.16,2.16,0,0,1,.6,1.79V57.63h6.2a3.49,3.49,0,0,1,.35.79,3.21,3.21,0,0,1,.17,1A2.17,2.17,0,0,1,41.83,61Zm17.75-4.07a7.48,7.48,0,0,1-1.8,2.73,7.81,7.81,0,0,1-2.72,1.67,10.52,10.52,0,0,1-6.83,0,7.47,7.47,0,0,1-2.71-1.68,7.72,7.72,0,0,1-1.79-2.74,10.07,10.07,0,0,1-.65-3.74,9.9,9.9,0,0,1,.66-3.74A7.59,7.59,0,0,1,48.27,45,10.28,10.28,0,0,1,55,45a8,8,0,0,1,2.72,1.67,7.72,7.72,0,0,1,1.83,2.72,9.9,9.9,0,0,1,.66,3.74A10.25,10.25,0,0,1,59.58,56.89Z"/>
			<path class="cls-4"
			      d="M141.72,63.5l-2-29.24a7,7,0,0,0-7.48-6.52L81.71,31.23A3.5,3.5,0,0,0,78.51,34a21.36,21.36,0,0,0-.37,4.53,18.38,18.38,0,0,0,.48,3.49c.38,1.84.74,3.59-.3,5.55-.34.65-1.61,2.76-3.65,2.83A4,4,0,0,1,71.6,48.7c-.43-.48-.84-.93-1.19-1s-1.43.69-2.35,2.33c-2,3.48-.83,9.09,2.27,11.32,1.29.93,2,1,2.25.88s.27-.38.42-.86a4.09,4.09,0,0,1,1.75-2.48,4.63,4.63,0,0,1,5.71,1.36c1.33,2,.13,4.56-.59,6.11-.07.14-.13.26-.18.38a12.5,12.5,0,0,0-1,4,3.52,3.52,0,0,0,3.73,3.84L135.2,71A7,7,0,0,0,141.72,63.5ZM95.41,59.22a2.39,2.39,0,0,1-1,.94,8.44,8.44,0,0,1-1.34.53,9.89,9.89,0,0,1-2.15.36,11.28,11.28,0,0,1-3.47-.27,7.67,7.67,0,0,1-2.89-1.38,7.07,7.07,0,0,1-2.05-2.56A10.09,10.09,0,0,1,81.51,53a9.92,9.92,0,0,1,.4-3.78,7.85,7.85,0,0,1,1.63-2.85,7.48,7.48,0,0,1,2.57-1.86,9.47,9.47,0,0,1,3.26-.8,7.63,7.63,0,0,1,3.91.55,2.38,2.38,0,0,1,1.51,2,2.13,2.13,0,0,1-.27,1.24,2.92,2.92,0,0,1-.75.87,9.09,9.09,0,0,0-1.56-.68,4.85,4.85,0,0,0-1.87-.2A4,4,0,0,0,87.24,49a5.32,5.32,0,0,0-.86,3.68,5,5,0,0,0,1.45,3.56,4.52,4.52,0,0,0,3.42,1,5.54,5.54,0,0,0,1.86-.43A11.56,11.56,0,0,0,94.54,56a2.64,2.64,0,0,1,1.12,2.07A2,2,0,0,1,95.41,59.22Zm17-1.29a2.56,2.56,0,0,1-.53.83,2.52,2.52,0,0,1-.79.54,3.15,3.15,0,0,1-2.81-.2,9,9,0,0,1-1.44-1.22l-4.24-4.29.42,6.11a8.79,8.79,0,0,1-.91.22,10.33,10.33,0,0,1-1.26.17,3,3,0,0,1-2-.35A2.28,2.28,0,0,1,98.18,58l-1-14.41.93-.21a8.82,8.82,0,0,1,1.24-.18,3.25,3.25,0,0,1,2,.32,2.16,2.16,0,0,1,.72,1.75l.3,4.38,5.17-6.88a4,4,0,0,1,2.69.51,2.1,2.1,0,0,1,.91,1.58,2.74,2.74,0,0,1-.26,1.35,7,7,0,0,1-1,1.48l-3.15,3.61q1.91,1.83,3.43,3.24c1,.95,1.85,1.71,2.47,2.3A2.44,2.44,0,0,1,112.44,57.93Zm14.2-2.46a4.56,4.56,0,0,1-1.26,1.75,6.55,6.55,0,0,1-2.17,1.22,11.39,11.39,0,0,1-3,.59,12.66,12.66,0,0,1-2.32,0,7.32,7.32,0,0,1-1.91-.47,3.34,3.34,0,0,1-1.31-.89,2.17,2.17,0,0,1-.54-1.3,2.06,2.06,0,0,1,.37-1.37,3.41,3.41,0,0,1,.94-.92,7.11,7.11,0,0,0,1.92.89,6.45,6.45,0,0,0,2.43.27,3.06,3.06,0,0,0,1.83-.56,1.22,1.22,0,0,0,.47-1,1,1,0,0,0-.49-.82,4.89,4.89,0,0,0-1.25-.5l-1.17-.3c-.81-.21-1.55-.44-2.21-.67a7,7,0,0,1-1.75-.9A4.16,4.16,0,0,1,114,49.09a4.57,4.57,0,0,1-.53-2,4.44,4.44,0,0,1,1.51-3.8,7.9,7.9,0,0,1,4.87-1.72,13,13,0,0,1,2.17,0,6.39,6.39,0,0,1,1.75.38,2.92,2.92,0,0,1,1.18.79,1.91,1.91,0,0,1,.49,1.2,2.07,2.07,0,0,1-.24,1.23,3.18,3.18,0,0,1-.72.9,6.26,6.26,0,0,0-1.64-.55,8,8,0,0,0-2.21-.13,3.56,3.56,0,0,0-1.76.46,1,1,0,0,0-.51.89.8.8,0,0,0,.4.64,3.61,3.61,0,0,0,1.08.4l1.47.36a10.16,10.16,0,0,1,4,1.82,4.53,4.53,0,0,1,1.6,3.36A4.84,4.84,0,0,1,126.64,55.47Z"/>
		</g>
	</g>
</svg>