<?xml version="1.0" encoding="utf-8"?>
<!-- Generator: Adobe Illustrator 25.0.0, SVG Export Plug-In . SVG Version: 6.00 Build 0)  -->
<svg version="1.1" id="Layer_1" xmlns="http://www.w3.org/2000/svg" xmlns:xlink="http://www.w3.org/1999/xlink" x="0px" y="0px"
	 viewBox="0 0 32 32" style="enable-background:new 0 0 32 32;" xml:space="preserve">
<style type="text/css">
	.st0{fill:#FF5100;}
	.st1{fill:#FFFFFF;}
</style>
<path class="st0" d="M29,32H3c-1.66,0-3-1.34-3-3V3c0-1.66,1.34-3,3-3h26c1.66,0,3,1.34,3,3v26C32,30.66,30.66,32,29,32z"/>
<g>
	<path class="st1" d="M-211.59,50.93v11.5h-14.46v-11.5h2.85v8.63h2.96v-8.63h2.85v8.63h2.85v-8.63H-211.59z"/>
	<path class="st1" d="M-197.04,50.91v11.5h-11.62V55.5h8.66v-1.88h-8.66v-2.71H-197.04z M-200,59.84v-1.99h-5.7v1.99H-200z"/>
	<path class="st1" d="M-191.32,53.78v5.78h5.81v2.88h-8.66V47.17h2.85v3.73h5.81v2.88H-191.32z"/>
	<path class="st1" d="M-179.62,53.75v5.7h8.66v2.96h-11.62V50.82h11.62v2.93H-179.62z"/>
	<path class="st1" d="M-156.56,50.91v11.53h-2.85v-8.66h-5.81v8.66h-2.85V46.81h2.85v4.09H-156.56z"/>
</g>
<g>
	<g id="ARC_4_">
		<path class="st1" d="M19.09,23.29l-1.16-1.46c-0.87-1.1-0.79-2.67,0.19-3.67l2.64-2.69c-0.53,0.54-0.53,1.41,0,1.95l7.5,7.64
			c0.53,0.54,0.04,1.43-0.7,1.28l-5.44-1.16C20.93,24.92,19.86,24.25,19.09,23.29z"/>
	</g>
	<path class="st1" d="M29.43,5.71L20.6,7.59c-0.41,0.09-0.79,0.32-1.05,0.65l-3.04,3.83c-0.23,0.3-0.68,0.3-0.92,0l-1.21-1.52
		c0.87,1.1,0.79,2.67-0.19,3.67L2.49,26.14c-0.06,0.06,0,0.17,0.08,0.15l8.83-1.88c0.41-0.09,0.79-0.32,1.05-0.65l3.04-3.83
		c0.23-0.3,0.68-0.3,0.92,0l1.21,1.52c-0.87-1.1-0.79-2.67,0.19-3.67l11.7-11.92C29.57,5.8,29.51,5.69,29.43,5.71z"/>
	<g id="ARC_3_">
		<path class="st1" d="M12.91,8.71l1.16,1.46c0.87,1.1,0.79,2.67-0.19,3.67l-2.64,2.69c0.53-0.54,0.53-1.41,0-1.95l-7.5-7.64
			C3.2,6.4,3.7,5.51,4.43,5.67l5.44,1.16C11.07,7.08,12.14,7.75,12.91,8.71z"/>
	</g>
</g>
</svg>
