<svg xmlns="http://www.w3.org/2000/svg" viewBox="0 0 113.39 113.39">
	<defs>
		<style>
			.cls-1{fill:none;}.cls-2{fill:#e5f1f9;}.cls-3{fill:#b0d9e8;}.cls-4{fill:#144451;}.cls-5{fill:#111a28;opacity:0.61;}.cls-6{fill:#8cc4dd;}.cls-7{fill:#eb5645;}.cls-8{fill:#daf0f5;}.cls-9{fill:#418696;}.cls-10{fill:#ee2d2b;}.cls-11{fill:#ea2e2e;}
		</style>
	</defs>
	<g id="Layer_2" data-name="Layer 2">
		<g id="Layer_1-2" data-name="Layer 1">
			<rect class="cls-1" width="113.39" height="113.39"/>
			<path class="cls-2"
			      d="M77.52,94S60.1,101.4,44.46,92.79c0,0-2.82-26.61,2.71-33.19,0,0,25.52,2.55,28,1l5.71-2.9s4.19-.9,5.82,6.46S88.78,85.77,87,90Z"/>
			<path class="cls-2"
			      d="M19.35,44.21s8.36,15,26.32,17.16c0,0-3.4,11-1.72,16.33,0,0-31.84-10.57-33.33-29C10.62,48.66,13.84,43.43,19.35,44.21Z"/>
			<path class="cls-3"
			      d="M23.55,57.84s-7-9.81-5.12-13.67l2.26.06A42.07,42.07,0,0,0,32.51,57S25.08,56.45,23.55,57.84Z"/>
			<path class="cls-3"
			      d="M19.27,63S35,73.34,42.3,69c0,0-1.1,5.38-.52,7.55,0,0,2.62,4-10.77-5.08C31,71.45,19,65.51,19.27,63Z"/>
			<path class="cls-4"
			      d="M17.12,44.5a7.36,7.36,0,0,1,2.35,0S27.56,59,45,61.08c0,0-3.29,10.61-1.66,15.81,0,0-30.82-10.23-32.27-28.12a10.05,10.05,0,0,1,6.1-4.27M16.87,43h0a11.51,11.51,0,0,0-7.11,5,1.4,1.4,0,0,0-.22.89c1.51,18.65,32,29,33.28,29.41a1.48,1.48,0,0,0,1.88-1.85c-1.22-3.9.78-12.1,1.66-14.93a1.46,1.46,0,0,0-.17-1.24,1.48,1.48,0,0,0-1.07-.67c-16.44-2-24.28-15.73-24.36-15.87A1.45,1.45,0,0,0,19.68,43a9.12,9.12,0,0,0-2.81,0Z"/>
			<path class="cls-4"
			      d="M34.73,58.21a.72.72,0,0,1-.29,0c-.07,0-6.54-1.39-10.22.49a.77.77,0,0,1-1-.34.77.77,0,0,1,.33-1c4.18-2.12,11-.67,11.24-.61a.76.76,0,0,1,0,1.5Z"/>
			<path class="cls-3"
			      d="M48.7,63.59s10.89,7.11,23.08,6c0,0,5.41-1.38,7.15.75,0,0,1.12,8.8,6.45,9.6a2.52,2.52,0,0,0,2.56-1.11l-2.22-19S53.93,58,48.7,63.59Z"/>
			<path class="cls-4"
			      d="M87.5,64.14c-1.5-6.72-5.21-7.45-6.73-7.45h0a3.75,3.75,0,0,0-.73.06,1.74,1.74,0,0,0-.36.13l-5.6,2.81-.12.07a16.17,16.17,0,0,1-4.15.28C62,60,47.54,58.62,47.39,58.61h-.15a1.47,1.47,0,0,0-1.12.52,9.15,9.15,0,0,0-.86,1.25,2.56,2.56,0,0,1,.9.2,2.4,2.4,0,0,1,.51.31,7.1,7.1,0,0,1,.57-.8s14.56,1.44,22.57,1.44c2.49,0,4.35-.14,4.93-.51l5.61-2.81a2.52,2.52,0,0,1,.42,0c1.1,0,4,.56,5.28,6.29,1.59,7.13,2,21,.28,25.15L77,93.43a44.87,44.87,0,0,1-15.77,2.88,34.57,34.57,0,0,1-16.68-4s-1.35-12.64-.3-22.42c-.39.14-.63.91-1,1.21a.94.94,0,0,0-.35.57,118.22,118.22,0,0,0,.13,20.8,1.48,1.48,0,0,0,.76,1.15,36,36,0,0,0,17.39,4.21,46,46,0,0,0,16.34-3L86.89,91a1.5,1.5,0,0,0,.82-.82C89.72,85.33,89,71,87.5,64.14Z"/>
			<path class="cls-4"
			      d="M82.24,25.36c-5.9-4.88-17-11.12-31-6.28a9.74,9.74,0,0,0-4,2.6C44,25.21,38.28,33.81,43,47.8c0,0,5.21,15.77,24.38,11.8,0,0,16.63-.5,19-15.73l.36-8.17A12.68,12.68,0,0,0,82.24,25.36Z"/>
			<path class="cls-5"
			      d="M44.36,49.26s19,9.2,32-4.78c0,0,8.5-6.3,4.14-18.29,0,0,4-2.16,6.41,7.4,0,0,2.4,22.32-19.73,24.64C67.17,58.23,49.35,62.56,44.36,49.26Z"/>
			<path class="cls-3"
			      d="M80.75,58.56s10.59-7.14,10.59-20.41c0,0-1.09-15.76-15.56-21.14,0,0-14.63-5.45-25.29,3.33a31.81,31.81,0,0,1,24.82,2.74s5.68,3.44,7.39,6c0,0,3.38,3.27,3.4,11.15s.14-.44.14-.44A18,18,0,0,1,74.48,58.17Z"/>
			<path class="cls-4"
			      d="M65.47,15.34A32.67,32.67,0,0,1,75.78,17c14.47,5.38,15.56,21.14,15.56,21.14,0,13.27-10.59,20.41-10.59,20.41l-6.27-.39c8.76-3.49,11.09-10.29,11.65-14.57a.06.06,0,0,0,0,0,1.27,1.27,0,0,0,0-.25,16.16,16.16,0,0,0,.08-3.58s0,2.73-.08,3.58l0,.21c0-.18,0-1.11,0-3.35,0-7.88-3.4-11.15-3.4-11.15-1.71-2.58-7.39-6-7.39-6A30.85,30.85,0,0,0,59.77,19a30.1,30.1,0,0,0-9.28,1.36,23.18,23.18,0,0,1,15-5m0-1.48A24.34,24.34,0,0,0,49.55,19.2a1.47,1.47,0,0,0-.34,1.87,1.46,1.46,0,0,0,1.28.75,1.43,1.43,0,0,0,.5-.09,30.37,30.37,0,0,1,23.58,2.63c1.47.89,5.65,3.67,6.89,5.55a1.27,1.27,0,0,0,.21.25s2.93,3,3,10.09c0,2.25,0,3,0,3.3-.61,4.36-3,10.16-10.72,13.25a1.48,1.48,0,0,0,.46,2.85l6.27.39h.09a1.53,1.53,0,0,0,.83-.25c.46-.31,11.24-7.74,11.24-21.64v-.1c0-.68-1.33-16.78-16.53-22.42a33.48,33.48,0,0,0-10.82-1.77Z"/>
			<path class="cls-2"
			      d="M79.34,25.27a.42.42,0,0,0,.63-.44c-.54-2.06-2.25-6.83-6.91-8.5,0,0-13-4.27-22.85,3.43a.41.41,0,0,0,.39.71C55.12,19,65.93,16.88,79.34,25.27Z"/>
			<path class="cls-2"
			      d="M80.12,55.44s5.54-2.08,5.68,1.39c0,0,1.36,2.17-5.26,3.94,0,0-14.59,5.14-24.72,2.81,0,0-10.07-1.47-9.6-5.59,0,0,.59-2.68,4.08-.46C50.3,57.53,61.47,62.93,80.12,55.44Z"/>
			<path class="cls-6" d="M70.53,58.21s5.55,1.68-2.16,5.82c0,0,16.84-1.87,18.12-7.27,0,0,.77-4.09-7.2-1.34Z"/>
			<ellipse class="cls-3" cx="89.7" cy="41.28" rx="5.79" ry="7.69"/>
			<path class="cls-2"
			      d="M88.39,33.23s-4.23.62-4.7,7.84c0,0,0,4.28,3.72,3.06,0,0,4.84-.82,3.61-7.23C91,36.9,90.72,33.5,88.39,33.23Z"/>
			<path class="cls-4"
			      d="M88.81,50.43c-4-.39-6.87-4.81-6.38-9.86s4.16-8.84,8.17-8.45S97.47,36.94,97,42,92.82,50.82,88.81,50.43Zm1.63-16.69c-3.12-.31-6,2.83-6.39,7s1.8,7.78,4.92,8.09,6-2.83,6.39-7S93.56,34,90.44,33.74Z"/>
			<path class="cls-4"
			      d="M88.26,45.18c-.24,0-.38,0-.39,0a.74.74,0,0,1-.59-.86.76.76,0,0,1,.86-.6c.2,0,5,.84,7.18-3.23a.74.74,0,0,1,1-.29.73.73,0,0,1,.29,1C94.28,45.42,89.64,45.31,88.26,45.18Z"/>
			<path class="cls-2"
			      d="M85.6,59.5s24.32,7.29,26.17,21.17c0,0,1.56,13.08-17.73,19.84,0,0,1.32-6.68-6.35-9.06,0,0,7.6-8.83,9.74-9.35L85,76.71S76.91,71.25,85.6,59.5Z"/>
			<path class="cls-3"
			      d="M91.43,95.22s18.69-1.72,20.67-14.51c0,0,.64,14.46-17.88,20.72C94.22,101.43,94.78,99.32,91.43,95.22Z"/>
			<path class="cls-6" d="M95.65,83.26s4.39-2.87,7.43-1.3c0,0-9.26-10.92-19.36-4.49Z"/>
			<path class="cls-4"
			      d="M95.28,84.65a.81.81,0,0,1-.64-.3.82.82,0,0,1,.08-1.16c.1-.09,2.56-2.16,8.46-1.51a.85.85,0,0,1,.74.93.83.83,0,0,1-.92.74c-5.1-.57-7.16,1.09-7.19,1.1A.81.81,0,0,1,95.28,84.65Z"/>
			<path class="cls-4"
			      d="M98.65,70.7a5.83,5.83,0,0,1-4.48-2.41,6.24,6.24,0,0,1-.54-4.78l1.6.49a4.68,4.68,0,0,0,.35,3.4A4.22,4.22,0,0,0,98.75,69a6.19,6.19,0,0,0,3.21-1.4l1.05,1.3A7.5,7.5,0,0,1,98.65,70.7Z"/>
			<path class="cls-4"
			      d="M85,59.87c-.07-.62.69-.69,1.21-.69a1.59,1.59,0,0,1,.48.07c1,.3,24.71,7.53,26.64,21.9.07.57,1.46,14.09-18.34,21a1.49,1.49,0,0,1-.55.1,1.72,1.72,0,0,1-1.1-.41,1.68,1.68,0,0,1-.54-1.59c0-.21.92-5-5-6.86a1.67,1.67,0,0,1-1.11-1.14A1.65,1.65,0,0,1,87,90.69a80,80,0,0,1,7.31-7.61l-9.34-4a1.82,1.82,0,0,1-.27-.15,10.17,10.17,0,0,1-3.91-6.45,9.25,9.25,0,0,1-.12-1.18c1.28-.5,1.6.25,1.78.91a8.46,8.46,0,0,0,3.19,5.33l12.09,5.22c-2.08.5-9.46,9-9.46,9,7.46,2.31,6.18,8.78,6.18,8.78C113.2,94,111.68,81.35,111.68,81.35c-1.8-13.44-25.46-20.5-25.46-20.5Z"/>
			<path class="cls-4"
			      d="M83.29,54.82c1.27,0,2.44.43,2.51,2,0,0,1.36,2.17-5.26,3.94,0,0-9.7,3.41-18.77,3.41a26.75,26.75,0,0,1-6-.6S45.75,62.11,46.22,58a1.74,1.74,0,0,1,1.7-1.34,4.62,4.62,0,0,1,2.38.88s3.9,1.89,10.93,1.89a50.59,50.59,0,0,0,18.89-4,10.56,10.56,0,0,1,3.17-.62m0-1.48a11.5,11.5,0,0,0-3.69.72,49.64,49.64,0,0,1-18.37,3.87A26.68,26.68,0,0,1,51,56.22a6,6,0,0,0-3.08-1,3.2,3.2,0,0,0-3.14,2.51.7.7,0,0,0,0,.14c-.6,5.23,8.75,6.91,10.79,7.21a28.31,28.31,0,0,0,6.23.63c9,0,18.31-3.17,19.2-3.48,3.55-1,5.59-2.2,6.22-3.82a2.76,2.76,0,0,0,.07-1.89c-.21-2-1.67-3.13-4-3.13Z"/>
			<rect class="cls-3" x="48.12" y="79.2" width="23.71" height="20.52" rx="1.43"/>
			<rect class="cls-2" x="48.49" y="79.09" width="20.87" height="18.06" rx="1.43"/>
			<path class="cls-4"
			      d="M69.48,100.27a4.67,4.67,0,0,1-1-.09l-19.35-.47c-.91-.31-2.52-1.63-2.11-4.41l.06-11.75c0-.34,0-5.57,3.63-5.85L68,78a5.57,5.57,0,0,1,3.67,1.37,4.4,4.4,0,0,1,1.29,3.27l-.23,15.39A3.25,3.25,0,0,1,69.48,100.27Zm-19.9-2,19.11.43c1.88.35,2.45-.69,2.57-1l.2-15a3,3,0,0,0-.83-2.21A4.27,4.27,0,0,0,68,79.51L50.8,79.18c-2.23.17-2.19,4.31-2.19,4.35l-.06,11.89C48.25,97.44,49.25,98.11,49.58,98.28Z"/>
			<path class="cls-4"
			      d="M68.7,96.53a.56.56,0,0,1-.56-.55V81.77a.56.56,0,0,1,.56-.56.55.55,0,0,1,.55.56V96A.55.55,0,0,1,68.7,96.53Z"/>
			<path class="cls-4"
			      d="M25.13,69.08l-.2,0a.74.74,0,0,1-.51-.91c.13-.5,3.42-12.14,11-11.26a.74.74,0,0,1,.65.82.72.72,0,0,1-.82.65c-6.33-.73-9.38,10.07-9.41,10.18A.76.76,0,0,1,25.13,69.08Z"/>
			<path class="cls-4"
			      d="M28.14,71,28,71a.74.74,0,0,1-.52-.91c.13-.51,3.42-12.44,11-11.56A.74.74,0,1,1,38.27,60c-6.32-.72-9.38,10.36-9.41,10.47A.75.75,0,0,1,28.14,71Z"/>
			<circle class="cls-7" cx="52.27" cy="82.79" r="2.58"/>
			<path class="cls-4"
			      d="M52.27,85.94a3.15,3.15,0,1,1,3.14-3.14A3.15,3.15,0,0,1,52.27,85.94Zm0-5.17a2,2,0,1,0,2,2A2,2,0,0,0,52.27,80.77Z"/>
			<circle class="cls-2" cx="51.8" cy="81.97" r="1.32"/>
			<path class="cls-2"
			      d="M65.68,24.7s11-2.08,14.87,7.53A6.37,6.37,0,0,1,80.9,34,1,1,0,0,1,79,34.4c-1-2.24-3.86-7.24-9.15-8.08C62.94,25.23,65.68,24.7,65.68,24.7Z"/>
			<path class="cls-2"
			      d="M88.22,93.76s-4-1.19-6.87.58c0,0-2.87,1.32-2.57,2.91a4.61,4.61,0,0,0-2.21,1.63s-2.34,3.22,3.93,3.3h.19c6.5,0,12.32.28,13.27-1.07C94,101.11,95.71,95.32,88.22,93.76Z"/>
			<path class="cls-4"
			      d="M78.09,99.34a.81.81,0,0,1-.74-.43.72.72,0,0,1,.39-1c.67-.29,4.11-1.68,5.9-.78a.72.72,0,0,1,.33,1,.86.86,0,0,1-1.11.3c-.78-.39-3.11.26-4.43.82A.83.83,0,0,1,78.09,99.34Z"/>
			<path class="cls-4"
			      d="M86,103.77H83.26l-2.84,0c-2.68,0-4.3-.66-5-1.9a3.12,3.12,0,0,1,.29-3A7.25,7.25,0,0,1,77.85,97c.23-1.92,2.75-3.24,3.07-3.4,3-2,7.09-.83,7.55-.69a8.34,8.34,0,0,1,5.65,3.64,7.54,7.54,0,0,1,.76,5.46.88.88,0,0,1-.1.22C93.9,103.55,91.1,103.77,86,103.77Zm-8.9-4s-.44.75-.15,1.28c.15.29.8,1,3.51,1h2.83c3.89,0,9.18.08,10-.73a5.9,5.9,0,0,0-.63-4,6.81,6.81,0,0,0-4.61-2.87H88s-3.76-1.16-6.25.53c-.84.42-2.4,1.52-2.26,2.37a.83.83,0,0,1-.65,1h0a4.42,4.42,0,0,0-1.76,1.49Zm17,1.93h0Z"/>
			<path class="cls-4"
			      d="M72.93,70a2.77,2.77,0,1,1-2.76,2.77A2.77,2.77,0,0,1,72.93,70m0-1.09a3.86,3.86,0,1,0,3.86,3.86,3.86,3.86,0,0,0-3.86-3.86Z"/>
			<path class="cls-4"
			      d="M72.61,70.64h.19a.5.5,0,0,1,.5.5v3.67a.13.13,0,0,1-.13.13H73a.5.5,0,0,1-.5-.5V70.76A.13.13,0,0,1,72.61,70.64Z"
			      transform="translate(75.6 -30.19) rotate(46.55)"/>
			<path class="cls-7"
			      d="M74.53,74.1l-.93-1a.22.22,0,0,0-.31,0l-.2.19a.21.21,0,0,0,0,.3l.65.7a.56.56,0,0,0,.8,0A.14.14,0,0,0,74.53,74.1Z"/>
			<path class="cls-7"
			      d="M71.28,71.43l.94,1a.21.21,0,0,0,.3,0l.2-.18a.21.21,0,0,0,0-.31l-.65-.7a.57.57,0,0,0-.8,0A.15.15,0,0,0,71.28,71.43Z"/>
			<path class="cls-8"
			      d="M66.71,55.24c-6-.21-19.17-2.39-21.61-17.18a.49.49,0,0,0-1-.05,15.86,15.86,0,0,0,3.31,14.22,5.32,5.32,0,0,0,.77.73A21.1,21.1,0,0,0,66.8,56.21.49.49,0,0,0,66.71,55.24Z"/>
			<path class="cls-2"
			      d="M19.22,43.5s5.07-7.66,3.14-11.39-4.87.33-4.87.33S16.4,24.09,11,25.38C5.91,26.6,3.09,32.85,4.49,37.64s5.62,9.48,6.53,9.72S15.56,43,19.22,43.5Z"/>
			<path class="cls-3"
			      d="M15.42,45S23.62,33.91,22,30.44s1.26,1.87,1.6,3-.9,5.67-.9,5.67-2.5,5-2.77,5S15.42,45,15.42,45Z"/>
			<path class="cls-3" d="M13.09,24.58s1.67,7.65-2.47,12.55,7.38-3.22,7.49-5.89S15.29,24.38,13.09,24.58Z"/>
			<path class="cls-4"
			      d="M12.11,25.24c4.44,0,5.38,7.2,5.38,7.2s1.38-1.91,2.87-1.91c.68,0,1.39.4,2,1.58,1.93,3.73-3.14,11.39-3.14,11.39-.2,0-.4,0-.6,0-3.36,0-6.57,3.91-7.53,3.91H11c-.91-.24-5.13-4.92-6.53-9.72S5.91,26.6,11,25.38a4.29,4.29,0,0,1,1.09-.14m0-1.48a6,6,0,0,0-1.44.18,10.08,10.08,0,0,0-6.33,4.93,12,12,0,0,0-1.27,9.19c1.4,4.78,5.8,10.26,7.56,10.73a1.82,1.82,0,0,0,.46.06c.85,0,1.56-.56,2.65-1.41,1.35-1,3.2-2.5,4.88-2.5A2.38,2.38,0,0,1,19,45l.21,0a1.49,1.49,0,0,0,1.24-.67c.57-.86,5.48-8.52,3.21-12.89-1-2-2.36-2.38-3.31-2.38a3.93,3.93,0,0,0-2,.59c-.92-2.84-2.84-5.88-6.26-5.88Z"/>
			<path class="cls-4"
			      d="M16.36,37H16.2a.76.76,0,0,1-.57-.89c1.38-6.21,2.25-6.36,2.67-6.43a.74.74,0,0,1,.44,1.4,24.08,24.08,0,0,0-1.66,5.35A.74.74,0,0,1,16.36,37Z"/>
			<path class="cls-9"
			      d="M14.19,38.53c-.22,0-.49,0-.85-.05s-.77-.07-1.3-.1A9.34,9.34,0,0,1,7.26,36.9.74.74,0,0,1,7,36.26L8,18.53a.75.75,0,0,1,.64-.69,17.7,17.7,0,0,1,2.49-.18,12.77,12.77,0,0,1,5.45,1.06.75.75,0,0,1,.4.69C17,21,16.39,34.85,16,36.64c-.24,1-.46,1.89-1.77,1.89Z"/>
			<path class="cls-4"
			      d="M11.16,18.4a12,12,0,0,1,5.11,1s-.61,15.31-1,17.08c-.27,1.09-.38,1.33-1.05,1.33-.42,0-1.07-.1-2.12-.15A8.7,8.7,0,0,1,7.69,36.3L8.77,18.58a16,16,0,0,1,2.39-.18m0-1.48a19.18,19.18,0,0,0-2.6.19,1.48,1.48,0,0,0-1.27,1.38L6.21,36.21a1.47,1.47,0,0,0,.61,1.29A10,10,0,0,0,12,39.12c.52,0,.94.07,1.28.1s.64.05.91.05c1.89,0,2.25-1.48,2.49-2.46.44-1.82,1-14.79,1.07-17.37a1.49,1.49,0,0,0-.8-1.38,13.43,13.43,0,0,0-5.79-1.14Z"/>
			<path class="cls-10" d="M12.37,26.08a2.91,2.91,0,1,1,2.9-2.91A2.91,2.91,0,0,1,12.37,26.08Z"/>
			<path class="cls-4"
			      d="M12.37,21a2.17,2.17,0,1,1-2.17,2.16A2.16,2.16,0,0,1,12.37,21m0-1.48A3.65,3.65,0,1,0,16,23.17a3.65,3.65,0,0,0-3.64-3.64Z"/>
			<path class="cls-11"
			      d="M13.2,18.07,15,10.69a.69.69,0,0,1,.67-.52h1.69a.68.68,0,0,1,.61,1l-3.49,7.37a.69.69,0,0,1-1.2.09h0A.73.73,0,0,1,13.2,18.07Z"/>
			<path class="cls-11"
			      d="M9.79,18.52,6.54,11.65a.68.68,0,0,1,.18-.82L8,9.77a.69.69,0,0,1,1.1.36l1.94,7.94a.68.68,0,0,1-.87.81h0A.66.66,0,0,1,9.79,18.52Z"/>
			<path class="cls-11"
			      d="M7.3,22,.4,18.78A.68.68,0,0,1,0,18l.32-1.66A.69.69,0,0,1,1.41,16L8,20.78A.68.68,0,0,1,7.85,22h0A.66.66,0,0,1,7.3,22Z"/>
		</g>
	</g>
</svg>