<svg xmlns="http://www.w3.org/2000/svg" xmlns:xlink="http://www.w3.org/1999/xlink" viewBox="0 0 113.39 113.39">
	<defs>
		<style>
			.cls-1,.cls-16{fill:none;}.cls-2{fill:#e5f1f9;}.cls-3{opacity:0.69;}.cls-4{fill:#3f7d93;}.cls-5{fill:#144451;}.cls-6{fill:#ea2e2e;}.cls-7{clip-path:url(#clip-path);}.cls-8{opacity:0.89;}.cls-9{fill:#eb5645;}.cls-10{fill:#fff;}.cls-11{fill:#8cc4dd;}.cls-12{opacity:0.61;}.cls-13{fill:#111a28;}.cls-14{fill:#b0d9e8;}.cls-15{opacity:0.57;}.cls-16{stroke:#144451;stroke-linecap:round;stroke-miterlimit:10;}
		</style>
		<clipPath id="clip-path">
			<rect class="cls-1" x="24.28" y="17.04" width="89.76" height="90.02"/>
		</clipPath>
	</defs>
	<g id="Layer_2" data-name="Layer 2">
		<g id="Layer_1-2" data-name="Layer 1">
			<rect class="cls-1" x="0.33" width="113.39" height="113.39"/>
			<path class="cls-2"
			      d="M10.48,23.5a5.72,5.72,0,0,1,5.72,5.71v37.7a9.6,9.6,0,1,1-11.43,0V29.21a5.71,5.71,0,0,1,5.71-5.71"/>
			<g class="cls-3">
				<path class="cls-4" d="M16.27,66.91V29.21a5.72,5.72,0,0,0-5.72-5.71V84.2a9.59,9.59,0,0,0,5.72-17.29Z"/>
			</g>
			<path class="cls-5"
			      d="M10.48,23.5a5.72,5.72,0,0,1,5.72,5.71v37.7a9.6,9.6,0,1,1-11.43,0V29.21a5.71,5.71,0,0,1,5.71-5.71m0-.89a6.61,6.61,0,0,0-6.6,6.6V66.48A10.38,10.38,0,0,0,0,74.6a10.49,10.49,0,1,0,21,0,10.38,10.38,0,0,0-3.88-8.12V29.21a6.62,6.62,0,0,0-6.61-6.6Z"/>
			<path class="cls-6"
			      d="M12.08,68.88V33a1,1,0,0,0-1-1H9.87a1,1,0,0,0-1,1V68.83A3,3,0,0,1,8,71a3.77,3.77,0,0,0-1.23,3.38,3.8,3.8,0,0,0,7.55-.56A3.76,3.76,0,0,0,13,71,2.89,2.89,0,0,1,12.08,68.88Z"/>
			<path class="cls-5"
			      d="M13.32,32.94h2.84a.23.23,0,0,0,.23-.23.22.22,0,0,0-.23-.22H13.32a.22.22,0,0,0-.22.22A.23.23,0,0,0,13.32,32.94Z"/>
			<path class="cls-5"
			      d="M13.32,34.54h2.84a.23.23,0,1,0,0-.45H13.32a.22.22,0,0,0-.22.22A.22.22,0,0,0,13.32,34.54Z"/>
			<path class="cls-5"
			      d="M13.32,31.33h2.84a.23.23,0,1,0,0-.45H13.32a.22.22,0,0,0-.22.23A.22.22,0,0,0,13.32,31.33Z"/>
			<path class="cls-5" d="M12.79,28.89h3.37a.45.45,0,0,0,0-.9H12.79a.45.45,0,0,0,0,.9Z"/>
			<path class="cls-5" d="M12.79,36.37h3.37a.45.45,0,1,0,0-.9H12.79a.45.45,0,1,0,0,.9Z"/>
			<path class="cls-5"
			      d="M12.79,44.38h3.37a.45.45,0,0,0,.45-.45.45.45,0,0,0-.45-.45H12.79a.45.45,0,0,0-.45.45A.45.45,0,0,0,12.79,44.38Z"/>
			<path class="cls-5"
			      d="M13.32,29.73h2.84a.23.23,0,1,0,0-.45H13.32a.22.22,0,0,0-.22.22A.22.22,0,0,0,13.32,29.73Z"/>
			<path class="cls-5" d="M13.32,41h2.84a.23.23,0,1,0,0-.45H13.32a.22.22,0,0,0-.22.23A.22.22,0,0,0,13.32,41Z"/>
			<path class="cls-5"
			      d="M13.32,42.56h2.84a.23.23,0,0,0,.23-.23.22.22,0,0,0-.23-.22H13.32a.22.22,0,0,0-.22.22A.23.23,0,0,0,13.32,42.56Z"/>
			<path class="cls-5"
			      d="M13.32,39.35h2.84a.23.23,0,1,0,0-.45H13.32a.22.22,0,0,0-.22.22A.22.22,0,0,0,13.32,39.35Z"/>
			<path class="cls-5"
			      d="M13.32,37.75h2.84a.23.23,0,0,0,.23-.23.22.22,0,0,0-.23-.22H13.32a.22.22,0,0,0-.22.22A.23.23,0,0,0,13.32,37.75Z"/>
			<path class="cls-5" d="M13.32,49h2.84a.23.23,0,1,0,0-.45H13.32a.22.22,0,0,0-.22.22A.22.22,0,0,0,13.32,49Z"/>
			<path class="cls-5"
			      d="M13.32,50.57h2.84a.23.23,0,1,0,0-.45H13.32a.22.22,0,0,0-.22.23A.22.22,0,0,0,13.32,50.57Z"/>
			<path class="cls-5"
			      d="M13.32,47.37h2.84a.23.23,0,0,0,.23-.23.22.22,0,0,0-.23-.22H13.32a.22.22,0,0,0-.22.22A.23.23,0,0,0,13.32,47.37Z"/>
			<path class="cls-5"
			      d="M13.32,45.76h2.84a.23.23,0,1,0,0-.45H13.32a.22.22,0,0,0-.22.23A.22.22,0,0,0,13.32,45.76Z"/>
			<path class="cls-5"
			      d="M13.32,56.17h2.84a.23.23,0,1,0,0-.45H13.32a.22.22,0,0,0-.22.22A.22.22,0,0,0,13.32,56.17Z"/>
			<path class="cls-5"
			      d="M13.32,57.77h2.84a.23.23,0,1,0,0-.45H13.32a.22.22,0,0,0-.22.23A.22.22,0,0,0,13.32,57.77Z"/>
			<path class="cls-5"
			      d="M13.32,54.56h2.84a.22.22,0,0,0,.23-.22.23.23,0,0,0-.23-.23H13.32a.23.23,0,0,0-.22.23A.22.22,0,0,0,13.32,54.56Z"/>
			<path class="cls-5" d="M12.79,52.12h3.37a.45.45,0,1,0,0-.9H12.79a.45.45,0,1,0,0,.9Z"/>
			<path class="cls-5" d="M12.79,59.6h3.37a.45.45,0,0,0,0-.9H12.79a.45.45,0,0,0,0,.9Z"/>
			<path class="cls-5" d="M13.32,53h2.84a.23.23,0,1,0,0-.45H13.32a.22.22,0,0,0-.22.23A.22.22,0,0,0,13.32,53Z"/>
			<path class="cls-5"
			      d="M13.32,64.18h2.84a.22.22,0,0,0,.23-.22.23.23,0,0,0-.23-.23H13.32a.23.23,0,0,0-.22.23A.22.22,0,0,0,13.32,64.18Z"/>
			<path class="cls-5"
			      d="M13.32,62.58h2.84a.23.23,0,1,0,0-.45H13.32a.22.22,0,0,0-.22.23A.22.22,0,0,0,13.32,62.58Z"/>
			<path class="cls-5" d="M13.32,61h2.84a.23.23,0,1,0,0-.45H13.32a.22.22,0,0,0-.22.22A.22.22,0,0,0,13.32,61Z"/>
			<path class="cls-6"
			      d="M24.94,28.32l-.83-19a1.7,1.7,0,0,1,1.23-1.72L29.39,6.4a1.72,1.72,0,0,1,2.18,1.92L28.35,28.51a1.72,1.72,0,0,1-2.81,1h0A1.71,1.71,0,0,1,24.94,28.32Z"/>
			<path class="cls-6"
			      d="M24.12,33.56l0,.78a1.25,1.25,0,0,0,1,1.3l1.44.26a1.25,1.25,0,0,0,1.44-1l.45-2.11a1.26,1.26,0,0,0-.87-1.46l-.23-.06A2.51,2.51,0,0,0,24.12,33.56Z"/>
			<g class="cls-7">
				<path class="cls-5"
				      d="M91.34,35.77c-7.65-6.34-22-14.42-40.25-8.14A12.62,12.62,0,0,0,45.93,31c-4.22,4.57-11.57,15.73-5.52,33.86,0,0,6.76,20.45,31.62,15.29,0,0,21.55-.64,24.69-20.39l.47-10.59A16.43,16.43,0,0,0,91.34,35.77Z"/>
				<g class="cls-8">
					<path class="cls-9"
					      d="M92.69,37c-7.65-6.33-22-14.41-40.25-8.14a12.73,12.73,0,0,0-5.16,3.37C43.06,36.82,35.71,48,41.76,66.11c0,0,6.76,20.45,31.62,15.3,0,0,21.55-.65,24.69-20.39l.47-10.6A16.44,16.44,0,0,0,92.69,37Z"/>
				</g>
				<rect class="cls-5" x="37.71" y="88.92" width="5.75" height="5.75"/>
				<path class="cls-10" d="M43.71,94.92H37.46V88.67h6.25ZM38,94.42h5.25V89.17H38Z"/>
				<rect class="cls-5" x="43.46" y="88.92" width="5.75" height="5.75"/>
				<path class="cls-10" d="M49.46,94.92H43.21V88.67h6.25Zm-5.75-.5H49V89.17H43.71Z"/>
				<rect class="cls-5" x="37.71" y="94.67" width="5.75" height="5.75"/>
				<path class="cls-10" d="M43.71,100.67H37.46V94.42h6.25Zm-5.75-.5h5.25V94.92H38Z"/>
				<rect class="cls-5" x="43.46" y="94.67" width="5.75" height="5.75"/>
				<path class="cls-10" d="M49.46,100.67H43.21V94.42h6.25Zm-5.75-.5H49V94.92H43.71Z"/>
				<rect class="cls-5" x="31.96" y="100.42" width="5.75" height="5.75"/>
				<path class="cls-10" d="M38,106.42H31.71v-6.25H38Zm-5.75-.5h5.25v-5.25H32.21Z"/>
				<rect class="cls-5" x="37.71" y="100.42" width="5.75" height="5.75"/>
				<path class="cls-10" d="M43.71,106.42H37.46v-6.25h6.25Zm-5.75-.5h5.25v-5.25H38Z"/>
				<rect class="cls-5" x="43.46" y="100.42" width="5.75" height="5.75"/>
				<path class="cls-10" d="M49.46,106.42H43.21v-6.25h6.25Zm-5.75-.5H49v-5.25H43.71Z"/>
				<path class="cls-5"
				      d="M74.17,236.09a1,1,0,0,1,0-2c.28,0,28.44-1.63,38.43-15.31a1,1,0,0,1,1.62,1.18C103.62,234.41,75.42,236,74.22,236.09Z"/>
				<path class="cls-2"
				      d="M38.68,163.25l7.47-17.42-20.51-36S29.41,94.66,49.08,81l22.25,2.63,17.8-2,7-2.86s10.69,7.53,12.3,13.49,14.82,37.56-9.53,45l.3,7.76s3.62,18.84.11,28.33S38.68,163.25,38.68,163.25Z"/>
				<path class="cls-11" d="M34.73,107.1s4.75-11.85,9-12.06-1,6-1,6l-.25,6Z"/>
				<g class="cls-12">
					<path class="cls-13"
					      d="M42.23,66.75S66.81,78.68,83.7,60.56c0,0,11-8.18,5.38-23.72,0,0,5.2-2.8,8.3,9.6,0,0,3.11,28.93-25.58,31.94C71.8,78.38,48.7,84,42.23,66.75Z"/>
				</g>
				<path class="cls-14"
				      d="M89.41,78.81s13.72-9.25,13.73-26.46c0,0-1.41-20.44-20.18-27.4,0,0-19-7.07-32.78,4.31a41.22,41.22,0,0,1,32.17,3.55s7.37,4.46,9.58,7.8c0,0,4.39,4.25,4.41,14.46s.19-.57.19-.57S98.6,71.39,81.28,78.3Z"/>
				<path class="cls-5"
				      d="M69.61,22.78A42.22,42.22,0,0,1,83,25c18.77,7,20.18,27.4,20.18,27.4,0,17.21-13.73,26.46-13.73,26.46l-8.13-.51C92.63,73.77,95.65,65,96.39,59.42c0,0,0,0,0,0s0-.12,0-.32a21,21,0,0,0,.11-4.64s-.06,3.54-.11,4.64l0,.28c0-.24,0-1.44,0-4.35,0-10.21-4.41-14.46-4.41-14.46-2.21-3.34-9.58-7.8-9.58-7.8a39.89,39.89,0,0,0-20.14-5.32,38.86,38.86,0,0,0-12,1.77,30,30,0,0,1,19.43-6.48m0-1.92c-8.12,0-15.07,2.33-20.65,6.92a1.92,1.92,0,0,0,1.22,3.4,1.82,1.82,0,0,0,.65-.12,39.3,39.3,0,0,1,30.56,3.41c1.92,1.16,7.33,4.76,8.94,7.2a2.08,2.08,0,0,0,.27.32s3.81,3.94,3.82,13.08c0,2.92,0,3.89,0,4.27C93.67,65,90.6,72.52,80.57,76.52a1.92,1.92,0,0,0,.59,3.7l8.13.5h.12a1.93,1.93,0,0,0,1.07-.33c.6-.4,14.57-10,14.58-28.05a.57.57,0,0,0,0-.13c-.06-.89-1.72-21.76-21.42-29.07a43.66,43.66,0,0,0-14-2.29Z"/>
				<path class="cls-2"
				      d="M87.57,35.65a.54.54,0,0,0,.82-.57c-.69-2.68-2.91-8.85-9-11,0,0-16.81-5.53-29.62,4.44a.54.54,0,0,0,.51.93C56.18,27.45,70.2,24.78,87.57,35.65Z"/>
				<path class="cls-2"
				      d="M88.59,74.77s7.18-2.7,7.36,1.79c0,0,1.77,2.81-6.82,5.11,0,0-18.91,6.67-32,3.64,0,0-13-1.9-12.43-7.24,0,0,.75-3.47,5.28-.6C49.93,77.47,64.42,84.48,88.59,74.77Z"/>
				<path class="cls-11"
				      d="M76.15,78.36s7.2,2.18-2.79,7.54c0,0,21.84-2.42,23.49-9.42,0,0,1-5.3-9.33-1.75Z"/>
				<ellipse class="cls-14" cx="101.02" cy="56.4" rx="7.5" ry="9.97"/>
				<path class="cls-2"
				      d="M99.31,46s-5.48.81-6.08,10.16c0,0-.06,5.55,4.82,4,0,0,6.27-1.06,4.67-9.38C102.72,50.72,102.34,46.32,99.31,46Z"/>
				<path class="cls-5"
				      d="M99.86,68.27C94.66,67.76,91,62,91.59,55.48S97,44,102.18,44.53s8.9,6.25,8.26,12.8S105.05,68.78,99.86,68.27ZM102,46.63c-4-.4-7.76,3.67-8.28,9.06S96,65.78,100.06,66.18s7.76-3.67,8.29-9.06S106,47,102,46.63Z"/>
				<path class="cls-5"
				      d="M99.15,61.46l-.51-.06A1,1,0,0,1,99,59.51c.26.05,6.42,1.08,9.31-4.19a1,1,0,0,1,1.69.92C107,61.77,100.93,61.63,99.15,61.46Z"/>
				<path class="cls-2"
				      d="M43.57,38.55C44.09,37,33,58.67,48.64,72.71a2.43,2.43,0,0,0,.25.2L49,73c2.93,2.12,6.42-2,3.8-4.51a9.61,9.61,0,0,0-1.71-1.27,3.25,3.25,0,0,1-.73-.6C48.4,64.36,38.78,52.32,43.57,38.55Z"/>
				<path class="cls-2"
				      d="M67.66,33.23s17-3.22,23,11.66a9.82,9.82,0,0,1,.54,2.72,1.58,1.58,0,0,1-3,.64C86.62,44.77,82.23,37,74,35.73,63.42,34.05,67.66,33.23,67.66,33.23Z"/>
				<path class="cls-5"
				      d="M79.32,94a4.27,4.27,0,1,1-4.27,4.27A4.28,4.28,0,0,1,79.32,94m0-1.7a6,6,0,1,0,6,6,6,6,0,0,0-6-6Z"/>
				<path class="cls-5"
				      d="M78.81,94.95h.42a.68.68,0,0,1,.68.68v5.8a.17.17,0,0,1-.17.17h-.42a.68.68,0,0,1-.68-.68v-5.8a.17.17,0,0,1,.17-.17Z"
				      transform="translate(96.09 -26.86) rotate(46.55)"/>
				<path class="cls-9"
				      d="M81.81,100.31l-1.45-1.56a.34.34,0,0,0-.48,0l-.31.28a.34.34,0,0,0,0,.48l1,1.08a.86.86,0,0,0,1.24,0A.21.21,0,0,0,81.81,100.31Z"/>
				<path class="cls-9"
				      d="M76.77,96.17l1.45,1.57a.33.33,0,0,0,.47,0l.31-.28A.34.34,0,0,0,79,97l-1-1.08a.88.88,0,0,0-1.25,0A.22.22,0,0,0,76.77,96.17Z"/>
				<g class="cls-15">
					<ellipse class="cls-5" cx="54.44" cy="238.4" rx="26.37" ry="4.02"/>
				</g>
				<g class="cls-15">
					<ellipse class="cls-5" cx="103.65" cy="238.45" rx="22.01" ry="3.36"/>
				</g>
				<path class="cls-2"
				      d="M88.15,219.77s-8.08-3.25-12.22,3.13c0,0-8.8,10.14,3.57,16.85,0,0,17.78-.15,25.44-6.56,0,0,14-5,6.17-23.41l-14-43.08-12.44-7.51L65.85,160.9l4.06,20.71,6.76,17.74Z"/>
				<path class="cls-11"
				      d="M102,233.44a29.42,29.42,0,0,0,4.7-32.31L112,211.72l2,11.18-2.14,4.62-8.2,6.62Z"/>
				<path class="cls-11"
				      d="M92.87,196.26s4.1,1.14-.46,5.77,1.08,0,1.08,0,10.2-3.86,11.45-5.88-1.71-7.47-1.71-7.47L93.07,195Z"/>
				<path class="cls-11" d="M96.05,192.74s-2.68-18.59-14.46-25.44c0,0,12.22-4.19,15.68,1.81h0l6,19.57Z"/>
				<polygon class="cls-2"
				         points="41.79 159.09 35.83 171.4 33.54 181.11 35.16 202.46 36.42 219.47 30.91 217.09 24.94 217.24 20.02 221.41 18.51 225.73 18.51 230.5 23.01 235.57 30.15 237.66 40.45 238.41 49.39 238.41 57.59 234.98 60.89 228.42 62.36 218.13 63.55 196.26 64.59 185.63 67.88 177.01 66.53 164.31 41.79 159.09"/>
				<path class="cls-11"
				      d="M46.71,197.83s12.86-5.62,13.73-10.67c0,0,3.22-15.76,5.5-14.84l2.12,4.86-2.66,4.33-2.55,15.72-6.16.6Z"/>
				<path class="cls-11"
				      d="M38.69,237.15s19.73-10.89,22.21-20.81c.06-.25.12-.51.16-.76,1.6-10.12-.17,12.84-.17,12.84L57.59,235l-5.91,2.47-11.23,1Z"/>
				<path class="cls-5"
				      d="M44.61,239.75c-1.54,0-2.64-.1-3-.13-14,.42-20.44-3.84-20.7-4l-.22-.19c-2.73-3-4-6.08-3.74-9.17A11.14,11.14,0,0,1,20.85,219c5.71-5.18,11.17-3.54,14.26-1.79-1.09-8.27-2.43-27.79-2.5-28.76-.82-19.84,11.32-41.25,11.84-42.15a1.25,1.25,0,1,1,2.16,1.24c-.13.21-12.31,21.7-11.52,40.78.65,9.41,2.1,28.12,2.95,31.34A1.24,1.24,0,0,1,36,220.84c-.26-.26-6.53-6.29-13.51,0a8.84,8.84,0,0,0-3,5.59c-.18,2.32.82,4.73,3,7.14.85.52,7,3.9,19.2,3.52h.18c.13,0,13.17,1.36,16.82-5.51.28-.86,2.3-7.4,2.23-11.35,0-1.5,1.21-35.46,5.32-42.79a1.26,1.26,0,0,1,1.7-.48,1.25,1.25,0,0,1,.47,1.69c-3.06,5.46-4.61,29.6-5,41.6.09,4.57-2.28,11.89-2.38,12.2a1.34,1.34,0,0,1-.07.18C57.71,238.86,49.22,239.75,44.61,239.75Z"/>
				<path class="cls-5"
				      d="M51,199.35c-12.14,0-17.13-6.32-17.39-6.66a1.24,1.24,0,0,1,2-1.51c.31.39,7.61,9.41,27.07,3.91a1.23,1.23,0,0,1,1.53.85,1.24,1.24,0,0,1-.85,1.54A45.51,45.51,0,0,1,51,199.35Z"/>
				<path class="cls-5"
				      d="M82.48,241a15.62,15.62,0,0,1-3.22-.26,1.43,1.43,0,0,1-.27-.09c-3.65-1.77-6-4.17-6.88-7.13a11.14,11.14,0,0,1,.92-8.17c3.38-6.94,9.06-7.44,12.58-7-4.08-7.27-12.58-24.9-13-25.77-8.1-18-8-30-8-30.51a1.24,1.24,0,0,1,1.24-1.23h0a1.25,1.25,0,0,1,1.22,1.26c0,.12,0,12,7.79,29.43,4.1,8.5,12.39,25.34,14.37,28a1.23,1.23,0,0,1,0,1.51,1.24,1.24,0,0,1-1.46.38c-.34-.15-8.4-3.42-12.53,5.05a8.79,8.79,0,0,0-.72,6.31c.69,2.22,2.52,4.08,5.43,5.52,1,.16,7.9,1,19.13-3.86a.58.58,0,0,1,.17-.06c.13,0,12.74-3.63,13.58-11.36-.07-.91-.62-7.73-2.15-11.37C110,210,94.74,170.34,95.84,162a1.24,1.24,0,0,1,1.4-1.07,1.26,1.26,0,0,1,1.07,1.4c-.85,6.41,10.29,37.17,14.65,48.47,1.79,4.23,2.31,11.91,2.33,12.23a.67.67,0,0,1,0,.2c-.88,9.22-14,13.21-15.31,13.6C91.87,240.34,85.88,241,82.48,241Z"/>
				<path class="cls-5"
				      d="M83.39,198.08a17.06,17.06,0,0,1-8.31-1.86,1.24,1.24,0,0,1,1.27-2.13h0c.43.24,10.56,5.92,26.59-6.43a1.24,1.24,0,0,1,1.51,2C95.72,196.36,88.49,198.08,83.39,198.08Z"/>
				<path class="cls-5"
				      d="M87,204.15a37.45,37.45,0,0,1-8.2-.91,1.25,1.25,0,0,1,.59-2.42c.13,0,12.46,3,19.2-2.44a1.24,1.24,0,0,1,1.55,1.93C96.32,203.36,91.22,204.15,87,204.15Z"/>
				<path class="cls-5"
				      d="M44.8,206c-9.71,0-11.16-6-11.23-6.34a1.24,1.24,0,0,1,2.42-.55c.07.29,1.73,6.25,14.21,3.84a1.24,1.24,0,1,1,.47,2.44A31,31,0,0,1,44.8,206Z"/>
				<path class="cls-5"
				      d="M41.42,224.84a1,1,0,0,1-1-.94c0-.68-2.43-2.44-4.92-3.63a1,1,0,1,1,.87-1.8c1.38.66,5.91,3,6,5.31a1,1,0,0,1-.94,1.06Z"/>
				<path class="cls-5"
				      d="M92.58,224.63a1.25,1.25,0,0,1-1-.46c-2.74-3.39-8.6-3.43-8.71-3.43h0a1.24,1.24,0,0,1,0-2.48c.3,0,7.16,0,10.66,4.35a1.24,1.24,0,0,1-1,2Z"/>
				<path class="cls-5"
				      d="M100.56,219.43a6.43,6.43,0,0,1-5-10.42A6.43,6.43,0,0,1,107,212.27a6.43,6.43,0,0,1-5.64,7.12A6.28,6.28,0,0,1,100.56,219.43Zm0-10.93a4.71,4.71,0,0,0-.53,0,4.47,4.47,0,1,0,.53,0Z"/>
				<path class="cls-5"
				      d="M25.64,109.93a1,1,0,0,1-.3,0,1.15,1.15,0,0,1-.81-1.4c4-14.68,20.44-26.16,21.14-26.64A1.14,1.14,0,1,1,47,83.73c-.16.12-16.46,11.5-20.22,25.36A1.15,1.15,0,0,1,25.64,109.93Z"/>
				<path class="cls-5"
				      d="M43.08,109.93a1.15,1.15,0,0,1-1.14-1c-.1-1.08-.89-10.68,1.81-13.85a1.15,1.15,0,0,1,1.62-.12,1.13,1.13,0,0,1,.12,1.61c-1.57,1.84-1.61,8.43-1.27,12.15a1.14,1.14,0,0,1-1,1.25Z"/>
				<rect class="cls-14" x="47.52" y="110.83" width="36.7" height="31.76" rx="1.93"/>
				<rect class="cls-2" x="48.09" y="110.67" width="32.3" height="27.95" rx="1.93"/>
				<path class="cls-5"
				      d="M80.58,143.45a7.73,7.73,0,0,1-1.46-.14l-29.95-.73c-1.42-.48-3.92-2.53-3.27-6.82L46,117.57c0-.53,0-8.62,5.61-9l26.65.5a8.68,8.68,0,0,1,5.7,2.13,6.82,6.82,0,0,1,2,5.06L85.59,140A5,5,0,0,1,80.58,143.45Zm-30.8-3.09,29.58.68c2.91.54,3.79-1.07,4-1.53l.3-23.3a4.63,4.63,0,0,0-1.29-3.42,6.54,6.54,0,0,0-4.09-1.47l-26.6-.51c-3.44.27-3.38,6.67-3.38,6.73l-.1,18.4C47.72,139.07,49.26,140.11,49.78,140.36Z"/>
				<circle class="cls-9" cx="54.01" cy="116.4" r="4"/>
				<path class="cls-5"
				      d="M54,121.26a4.86,4.86,0,1,1,4.87-4.86A4.87,4.87,0,0,1,54,121.26Zm0-8a3.14,3.14,0,1,0,3.14,3.14A3.14,3.14,0,0,0,54,113.26Z"/>
				<circle class="cls-2" cx="53.29" cy="115.13" r="2.04"/>
				<path class="cls-2"
				      d="M93.38,146.91s8.56-2,8.26,2.76c0,0,1.72,3.17-8.41,4.58,0,0-22.48,4.8-37.23.08,0,0-14.77-3.54-13.47-9.09,0,0,1.26-3.57,6.14,0C48.67,145.23,64.52,154.31,93.38,146.91Z"/>
				<path class="cls-11"
				      d="M78.69,149.24s8,3.13-4.06,7.61c0,0,25.36,0,28.05-7.17,0,0,1.75-5.46-10.52-2.93Z"/>
				<path class="cls-5"
				      d="M98.2,146.55c1.89.19,3.58,1,3.44,3.12,0,0,1.72,3.17-8.41,4.58,0,0-14.94,3.19-28.45,1.81A43.63,43.63,0,0,1,56,154.33s-14.77-3.54-13.47-9.09a2.54,2.54,0,0,1,2.73-1.57,7.31,7.31,0,0,1,3.41,1.56s5.53,3.16,16,4.23a81.63,81.63,0,0,0,28.7-2.55,17.27,17.27,0,0,1,4.82-.36m.22-2a19,19,0,0,0-5.61.41,79.88,79.88,0,0,1-27.92,2.5c-9.06-.92-14.25-3.51-15-3.89a9.3,9.3,0,0,0-4.43-1.9,4.72,4.72,0,0,0-5.06,2.94l-.06.2c-1.65,7,12,10.75,15,11.48a46.34,46.34,0,0,0,9.18,1.81c13.35,1.36,27.74-1.55,29.11-1.84,5.43-.76,8.65-2.16,9.83-4.27a3.47,3.47,0,0,0,.37-2.56c0-2.72-2-4.53-5.45-4.88Z"/>
				<path class="cls-5"
				      d="M85.28,121.32a1.16,1.16,0,0,1-1.14-1,41,41,0,0,1,6.59-24,1.14,1.14,0,1,1,1.92,1.24,39.45,39.45,0,0,0-6.23,22.58,1.13,1.13,0,0,1-1,1.24Z"/>
				<path class="cls-5"
				      d="M98.35,173.43a1.11,1.11,0,0,1-.5-.12,1.15,1.15,0,0,1-.53-1.53c0-.07,3.49-7.31,1.81-18.26a1.14,1.14,0,0,1,2.26-.34c1.8,11.7-1.85,19.29-2,19.61A1.15,1.15,0,0,1,98.35,173.43Z"/>
				<path class="cls-11"
				      d="M97.71,175.22l1.2-8.67s1.22-8.78.28-12.16c0,0,.3,1.17-17,3.43l-7.28.55s3.25,7.81,6.71,8.93S97.71,175.22,97.71,175.22Z"/>
				<path class="cls-2"
				      d="M65,126.39s12.09-5.84,23.48-5.78,7.46,3.11,7.46,3.11l.39,15.81-18.54,4.6-11.26.78,3.63-7.31-.55-3.85-3.38-4.61S63.53,127.63,65,126.39Z"/>
				<path class="cls-5"
				      d="M62.47,128.15A1.14,1.14,0,0,1,62,126c.67-.3,16.43-7.32,24-6.63,7.3.66,9.19.79,9.21.79a1.15,1.15,0,1,1-.15,2.29c-.07,0-1.92-.13-9.26-.8C78.77,121,63.1,128,62.94,128.05A1.1,1.1,0,0,1,62.47,128.15Z"/>
				<path class="cls-2"
				      d="M53.47,133.61s-1.25-9.07,7-6.32S69.59,137,69.59,137s-.9,12.22-19.93,9.36c0,0-7.13-2.26-7.19-6.14H53.32S56.16,135.93,53.47,133.61Z"/>
				<path class="cls-5"
				      d="M99.3,146.81a1.14,1.14,0,0,1-1.15-1.08l-.34-6.89a1.15,1.15,0,0,1,1.09-1.2,1.12,1.12,0,0,1,1.2,1.09l.34,6.88a1.14,1.14,0,0,1-1.09,1.2Z"/>
				<path class="cls-11"
				      d="M73.36,85.9S93,83.45,96.11,79.25c0,0,6.56,2.58,9,8s5.84,8.82,7.44,21.87c0,0-6.71-17.64-13.52-19.81s-20.42,1.86-23,.21-13.18-.9-13.09-2.17S73.36,85.9,73.36,85.9Z"/>
				<path class="cls-11"
				      d="M70.75,136.23s32,2.37,37-4.85l-5,5.22-12.22,5-16.43,2.78H68.52S70.6,138.83,70.75,136.23Z"/>
				<path class="cls-5"
				      d="M67.66,146a1.15,1.15,0,0,1,0-2.3c16.56-.3,29.28-4,37.8-11,9.69-8,7-20.48,4.61-31.52q-.35-1.59-.66-3.12c-2.26-11-13.77-18.21-13.89-18.29a1.14,1.14,0,0,1-.37-1.57,1.15,1.15,0,0,1,1.58-.38c.5.32,12.47,7.81,14.92,19.78.21,1,.43,2,.66,3.1,2.39,11.1,5.37,24.9-5.4,33.77C98,141.84,84.77,145.72,67.68,146Z"/>
				<path class="cls-5"
				      d="M57.65,126.77a8.9,8.9,0,0,1,2.78.52C68.67,130,69.56,137,69.56,137s-.72,9.79-14.52,9.79a36.44,36.44,0,0,1-5.41-.43s-7.13-2.26-7.18-6.14H53.29s2.85-4.26.15-6.58c0,0-.94-6.84,4.21-6.84m0-2.29h0a6.07,6.07,0,0,0-4.72,2c-2.33,2.69-1.82,6.95-1.76,7.43a2.32,2.32,0,0,0,.78,1.42c.63.54.31,1.69-.05,2.54H42.45a2.3,2.3,0,0,0-2.29,2.33c.07,5.38,7.89,8,8.78,8.29a2.21,2.21,0,0,0,.35.08,38.37,38.37,0,0,0,5.75.46c15.75,0,16.8-11.79,16.81-11.91a2.36,2.36,0,0,0,0-.46c0-.34-1.18-8.41-10.68-11.57a11.19,11.19,0,0,0-3.5-.63Z"/>
				<path class="cls-5"
				      d="M92.7,74c1.64,0,3.17.56,3.25,2.6,0,0,1.77,2.81-6.82,5.11,0,0-12.57,4.43-24.33,4.43a34.68,34.68,0,0,1-7.72-.79s-13-1.9-12.43-7.24a2.25,2.25,0,0,1,2.2-1.74,6,6,0,0,1,3.08,1.14s5,2.45,14.17,2.45a65.81,65.81,0,0,0,24.49-5.15A13.61,13.61,0,0,1,92.7,74m0-1.91a15.61,15.61,0,0,0-4.79.92A64.12,64.12,0,0,1,64.1,78c-7.89,0-12.59-1.93-13.26-2.22a7.61,7.61,0,0,0-4-1.36,4.16,4.16,0,0,0-4.08,3.24l0,.19c-.78,6.78,11.34,9,14,9.35A36.9,36.9,0,0,0,64.8,88c11.62,0,23.74-4.12,24.9-4.52,4.6-1.24,7.24-2.86,8.06-5a3.48,3.48,0,0,0,.08-2.45c-.26-2.55-2.16-4-5.14-4Z"/>
				<path class="cls-5"
				      d="M113.48,118.16a.92.92,0,0,1-.57-.18c-.12-.08-11.86-8.15-25.89-2.93a1,1,0,1,1-.69-1.87c15-5.6,27.22,2.81,27.73,3.17a1,1,0,0,1-.58,1.81Z"/>
				<path class="cls-5"
				      d="M110.8,127a1.05,1.05,0,0,1-.7-.28c-.1-.1-10.41-9.93-25.09-7a1,1,0,0,1-1.17-.79,1,1,0,0,1,.78-1.17c15.75-3.14,26.43,7.1,26.88,7.53a1,1,0,0,1,0,1.42A1,1,0,0,1,110.8,127Z"/>
				<path class="cls-2"
				      d="M81.42,54.92A2.2,2.2,0,0,1,80,54.25a2.36,2.36,0,0,1-.82-1.73c-.07-2,2-4.18,2.13-4.28a.58.58,0,0,1,.81,0,.57.57,0,0,1,0,.81c-.52.54-1.86,2.21-1.81,3.44a1.22,1.22,0,0,0,.43.92c.32.28.61.42.77.36.32-.12.59-.92.66-1.45a.57.57,0,0,1,1.14.15c0,.33-.31,2-1.4,2.38A1.36,1.36,0,0,1,81.42,54.92Z"/>
				<path class="cls-2"
				      d="M85.38,67.18a2.26,2.26,0,0,0,1.45-.68,2.39,2.39,0,0,0,.81-1.73c.07-2-2-4.18-2.13-4.28a.58.58,0,0,0-.81,0,.57.57,0,0,0,0,.81c.52.54,1.85,2.21,1.8,3.44a1.22,1.22,0,0,1-.43.92c-.32.29-.61.42-.76.36-.32-.12-.59-.91-.67-1.44a.57.57,0,1,0-1.13.14c0,.33.31,2,1.4,2.38A1.36,1.36,0,0,0,85.38,67.18Z"/>
				<path class="cls-2"
				      d="M49.67,44.83a2.24,2.24,0,0,1-1.45-.67,2.39,2.39,0,0,1-.81-1.73c-.07-2,2-4.18,2.13-4.28a.58.58,0,0,1,.81,0,.57.57,0,0,1,0,.81c-.52.54-1.85,2.2-1.8,3.44a1.18,1.18,0,0,0,.43.91c.32.29.61.42.76.37.32-.12.59-.92.67-1.45a.57.57,0,0,1,1.13.15c0,.33-.31,2-1.4,2.37A1.36,1.36,0,0,1,49.67,44.83Z"/>
			</g>
			<line class="cls-16" x1="26.27" y1="107.05" x2="112.49" y2="107.05"/>
		</g>
	</g>
</svg>