<svg xmlns="http://www.w3.org/2000/svg" viewBox="0 0 113.39 113.39"><defs><style>.cls-1{fill:none;}.cls-2{fill:#e5f1f9;}.cls-3{fill:#b0d9e8;}.cls-4{fill:#144451;}.cls-5{fill:#111a28;opacity:0.61;}.cls-6{fill:#8cc4dd;}.cls-7{fill:#eb5645;}.cls-8{fill:#daf0f5;}.cls-9{fill:#a6cbc1;}.cls-10,.cls-11,.cls-13{fill:#4e8e7c;}.cls-10{stroke:#144451;stroke-linecap:round;stroke-linejoin:round;stroke-width:2px;}.cls-11{opacity:0.32;}.cls-12{fill:#00588c;}.cls-14{fill:#f47a20;}</style></defs><g id="Layer_2" data-name="Layer 2"><g id="Layer_1-2" data-name="Layer 1"><rect class="cls-1" width="113.39" height="113.39"/><path class="cls-2" d="M26.6,93.13S39.54,99.37,51,91.77c0,0,1.85-23-2.29-28.64,0,0-18.83,2.46-20.7,1.12L23.79,61.8s-3.1-.73-4.24,5.63-1.33,18.73,0,22.4Z"/><path class="cls-3" d="M47.64,65.9s-8,5.35-17,4.63c0,0-4-1-5.28.61,0,0-.76,6.51-4.69,7.15a1.87,1.87,0,0,1-1.9-.8L20.25,63.4S43.72,61.85,47.64,65.9Z"/><path class="cls-4" d="M19,67.64c1-5.88,3.77-6.55,4.9-6.56h0a1.84,1.84,0,0,1,.54.05,1.17,1.17,0,0,1,.26.1l4.17,2.41.09.06a10.61,10.61,0,0,0,3.07.21c5.8-.07,16.44-1.43,16.55-1.44h.11a1,1,0,0,1,.84.44A7.89,7.89,0,0,1,50.15,64a1.71,1.71,0,0,0-.66.18,2.66,2.66,0,0,0-.38.28,4.73,4.73,0,0,0-.43-.69S37.94,65.13,32,65.2a8.68,8.68,0,0,1-3.65-.4l-4.17-2.41a2.15,2.15,0,0,0-.32,0c-.81,0-2.95.52-3.83,5.53-1.11,6.24-1.28,18.35.05,21.95L27,93.1A29,29,0,0,0,38.7,95.48,22.55,22.55,0,0,0,51,91.81a130.41,130.41,0,0,0,0-19.57c.3.12.48.79.72,1.05a.84.84,0,0,1,.26.5,122.05,122.05,0,0,1,.12,18.15,1.32,1.32,0,0,1-.55,1,23.45,23.45,0,0,1-12.8,3.83,29.35,29.35,0,0,1-12.11-2.48L19.7,91.05a1.22,1.22,0,0,1-.6-.71C17.56,86.14,17.93,73.61,19,67.64Z"/><path class="cls-4" d="M22.52,37.94C26.84,34.28,35,29.58,45.41,33a7.24,7.24,0,0,1,3,1.88c2.44,2.58,6.7,8.89,3.37,19.26,0,0-3.71,11.7-17.92,8.93,0,0-12.28-.22-14.2-11.45l-.34-6A9.38,9.38,0,0,1,22.52,37.94Z"/><path class="cls-5" d="M50.72,55.27S36.79,62.24,27,52c0,0-6.33-4.58-3.22-13.48,0,0-3-1.56-4.67,5.53,0,0-1.58,16.5,14.79,18C33.94,62.1,47.14,65.15,50.72,55.27Z"/><path class="cls-3" d="M23.91,62.46s-7.88-5.18-8-15c0,0,.67-11.65,11.32-15.75,0,0,10.75-4.15,18.7,2.24A23.49,23.49,0,0,0,27.62,36.2s-4.17,2.59-5.4,4.51c0,0-2.48,2.45-2.42,8.27s-.11-.33-.11-.33a13.29,13.29,0,0,0,8.85,13.47Z"/><path class="cls-4" d="M34.82,30.4A17.08,17.08,0,0,1,45.93,34,22.37,22.37,0,0,0,39.07,33,22.84,22.84,0,0,0,27.62,36.2s-4.17,2.59-5.4,4.51c0,0-2.48,2.45-2.42,8.27,0,1.65,0,2.34,0,2.48a.78.78,0,0,0,0-.16c0-.63-.09-2.65-.09-2.65a12,12,0,0,0,.09,2.65.72.72,0,0,0,0,.18v0a13.08,13.08,0,0,0,8.74,10.66l-4.63.34s-7.88-5.18-8-15c0,0,.67-11.65,11.32-15.75a24.12,24.12,0,0,1,7.59-1.32m0-1.1a25.11,25.11,0,0,0-8,1.4c-11.18,4.3-12,16.21-12,16.71,0,0,0,.05,0,.08.13,10.27,8.16,15.66,8.5,15.88a1,1,0,0,0,.61.18H24l4.63-.34a1.09,1.09,0,0,0,.31-2.11,11.94,11.94,0,0,1-8-9.7c0-.22,0-.77,0-2.43C20.84,43.75,23,41.5,23,41.49a1.33,1.33,0,0,0,.14-.19c.91-1.4,4-3.49,5.05-4.16a21.54,21.54,0,0,1,10.9-3,21.77,21.77,0,0,1,6.5.86.78.78,0,0,0,.37.06,1.08,1.08,0,0,0,.94-.56,1.09,1.09,0,0,0-.27-1.38A18,18,0,0,0,34.81,29.3Z"/><path class="cls-2" d="M24.67,37.85a.3.3,0,0,1-.47-.32c.38-1.53,1.6-5.06,5-6.34,0,0,9.55-3.26,16.92,2.34a.31.31,0,0,1-.29.53C42.5,33,34.5,31.54,24.67,37.85Z"/><path class="cls-2" d="M24.35,60.15s-4.11-1.49-4.19,1.07c0,0-1,1.62,3.93,2.87,0,0,10.82,3.67,18.28,1.86,0,0,7.43-1.17,7.05-4.21,0,0-.46-2-3-.31C46.4,61.43,38.19,65.53,24.35,60.15Z"/><path class="cls-6" d="M31.46,62.12s-4.09,1.28,1.65,4.27c0,0-12.47-1.23-13.45-5.21,0,0-.61-3,5.3-1.06Z"/><ellipse class="cls-3" cx="17.15" cy="49.77" rx="4.28" ry="5.68" transform="translate(-0.58 0.2) rotate(-0.67)"/><path class="cls-2" d="M18.05,43.81s3.12.43,3.53,5.75c0,0,.07,3.16-2.72,2.29,0,0-3.58-.56-2.72-5.31C16.14,46.54,16.33,44,18.05,43.81Z"/><path class="cls-4" d="M11.78,50.36c-.41-3.73,1.67-7,4.62-7.35s5.7,2.45,6.11,6.17-1.67,7-4.62,7.34S12.19,54.08,11.78,50.36ZM13,50.23c.34,3.06,2.48,5.36,4.79,5.1s3.89-2.95,3.56-6S18.84,44,16.54,44.2,12.64,47.16,13,50.23Z"/><path class="cls-4" d="M18.24,52.64l.29,0A.54.54,0,0,0,19,52a.56.56,0,0,0-.64-.44c-.15,0-3.65.67-5.33-2.32a.55.55,0,0,0-1,.54C13.8,52.87,17.23,52.75,18.24,52.64Z"/><path class="cls-2" d="M20.34,63.2S2.43,68.79,1.18,79.06c0,0-1,9.68,13.27,14.51,0,0-1-4.93,4.62-6.75,0,0-5.69-6.46-7.28-6.83l9.14-4.08S26.86,71.8,20.34,63.2Z"/><path class="cls-3" d="M16.33,89.64S2.52,88.53.94,79.09c0,0-.35,10.7,13.39,15.16C14.33,94.25,13.89,92.7,16.33,89.64Z"/><path class="cls-6" d="M13.11,80.84s-3.26-2.08-5.5-.9c0,0,6.75-8.15,14.27-3.48Z"/><path class="cls-4" d="M13.4,81.86a.62.62,0,0,0,.47-.22.6.6,0,0,0-.07-.86c-.08-.07-1.91-1.58-6.26-1A.62.62,0,1,0,7.69,81c3.76-.47,5.3.74,5.31.75A.61.61,0,0,0,13.4,81.86Z"/><path class="cls-4" d="M10.79,71.58a4.3,4.3,0,0,0,3.29-1.81,4.64,4.64,0,0,0,.36-3.54l-1.18.38A3.43,3.43,0,0,1,13,69.12a3.1,3.1,0,0,1-2.33,1.23,4.66,4.66,0,0,1-2.39-1l-.76,1A5.5,5.5,0,0,0,10.79,71.58Z"/><path class="cls-4" d="M20.78,63.46c0-.45-.52-.5-.9-.5a1.13,1.13,0,0,0-.36.06C18.78,63.25,1.33,68.8,0,79.43c0,.43-1,10.42,13.73,15.35a1.12,1.12,0,0,0,.4.07,1.23,1.23,0,0,0,1.2-1.49c0-.15-.72-3.7,3.66-5.11a1.25,1.25,0,0,0,.82-.85,1.23,1.23,0,0,0-.27-1.15,62.1,62.1,0,0,0-5.47-5.56l6.87-3,.2-.12A7.51,7.51,0,0,0,24,72.72a8.52,8.52,0,0,0,.08-.87c-.95-.36-1.18.2-1.31.69a6.3,6.3,0,0,1-2.31,4l-8.89,3.95c1.54.36,7.07,6.61,7.07,6.61-5.49,1.77-4.49,6.54-4.49,6.54-13.91-4.67-12.9-14-12.9-14C2.47,69.62,19.89,64.2,19.89,64.2Z"/><path class="cls-4" d="M22,59.72a7.89,7.89,0,0,1,2.35.43,37.28,37.28,0,0,0,14,2.77,20,20,0,0,0,8.06-1.49,3.41,3.41,0,0,1,1.75-.66,1.28,1.28,0,0,1,1.27,1c.38,3-7.05,4.21-7.05,4.21a19.49,19.49,0,0,1-4.39.5,48.59,48.59,0,0,1-13.89-2.36c-4.92-1.25-3.93-2.87-3.93-2.87,0-1.16.91-1.49,1.84-1.5m0-1.09c-1.7,0-2.77.89-2.91,2.34a2,2,0,0,0,.07,1.4c.48,1.19,2,2.09,4.63,2.77A49.08,49.08,0,0,0,38,67.54a20.68,20.68,0,0,0,4.6-.51c1.51-.25,8.4-1.57,7.91-5.42a.36.36,0,0,0,0-.11,2.37,2.37,0,0,0-2.34-1.83,4.33,4.33,0,0,0-2.27.81,19.83,19.83,0,0,1-7.54,1.35,36.53,36.53,0,0,1-13.61-2.71A8.62,8.62,0,0,0,22,58.63Z"/><rect class="cls-3" x="30.77" y="77.53" width="17.52" height="15.16" rx="1.24" transform="matrix(-1, 0.01, -0.01, -1, 80.05, 169.75)"/><rect class="cls-2" x="32.58" y="77.44" width="15.42" height="13.34" rx="1.24" transform="translate(81.56 167.75) rotate(179.33)"/><path class="cls-4" d="M30.19,91.57l-.3-11.36a3.29,3.29,0,0,1,.92-2.43,4.17,4.17,0,0,1,2.71-1l12.72-.38c2.69.17,2.72,4,2.72,4.28l.15,8.69a2.79,2.79,0,0,1-1.52,3.27l-14.3.52a3.44,3.44,0,0,1-.69.07A2.38,2.38,0,0,1,30.19,91.57ZM48,89.41l-.15-8.78s0-3.08-1.65-3.19l-12.7.39a3.09,3.09,0,0,0-1.94.73A2.14,2.14,0,0,0,31,80.19l.27,11.12c.09.22.52,1,1.91.71l14.11-.49C47.53,91.41,48.26,90.91,48,89.41Z"/><path class="cls-4" d="M33.14,90.41a.41.41,0,0,0,.41-.41l-.13-10.5a.41.41,0,0,0-.41-.41.41.41,0,0,0-.41.42L32.73,90A.41.41,0,0,0,33.14,90.41Z"/><circle class="cls-7" cx="35.51" cy="80.02" r="1.31"/><path class="cls-4" d="M33.92,80a1.59,1.59,0,1,1,1.6,1.58A1.59,1.59,0,0,1,33.92,80Zm.56,0a1,1,0,1,0,1-1A1,1,0,0,0,34.48,80Z"/><circle class="cls-2" cx="35.74" cy="79.6" r="0.67"/><path class="cls-2" d="M34.75,37.31S26.63,35.87,23.83,43a4.72,4.72,0,0,0-.25,1.3A.76.76,0,0,0,25,44.6c.73-1.67,2.78-5.39,6.69-6.05C36.78,37.68,34.75,37.31,34.75,37.31Z"/><path class="cls-2" d="M18.88,87.93s3.11-1,5.31.4c0,0,2.22,1,2,2.34A3.52,3.52,0,0,1,27.91,92s1.84,2.59-3,2.71h-.14c-5,.07-9.51.34-10.25-.75C14.52,93.93,13.12,89.26,18.88,87.93Z"/><path class="cls-4" d="M26.91,92.08a.61.61,0,0,0,.54-.32.54.54,0,0,0-.3-.74c-.5-.21-3-1.21-4.37-.53a.54.54,0,0,0-.23.76.63.63,0,0,0,.82.21c.58-.29,2.3.17,3.28.57A.58.58,0,0,0,26.91,92.08Z"/><path class="cls-4" d="M13.94,94.73a.56.56,0,0,1-.09-.17,6,6,0,0,1,.55-4.31,6.61,6.61,0,0,1,4.42-2.92c.36-.11,3.6-1.07,5.95.48.25.12,2.25,1.13,2.45,2.65a5.78,5.78,0,0,1,1.66,1.45,2.47,2.47,0,0,1,.26,2.38c-.5,1-1.77,1.49-3.89,1.54l-2.23,0-2.15,0C16.85,96,14.64,95.8,13.94,94.73Zm13.9-2a3.6,3.6,0,0,0-1.39-1.17h0a.65.65,0,0,1-.53-.74c.11-.67-1.14-1.52-1.79-1.85-2-1.3-4.9-.37-4.93-.36h-.06a5.41,5.41,0,0,0-3.61,2.3,4.66,4.66,0,0,0-.45,3.19c.68.63,4.85.55,7.91.49l2.23,0c2.13-.06,2.64-.6,2.76-.83.21-.42-.15-1-.14-1ZM14.47,94.37h0Z"/><path class="cls-4" d="M46.42,69A2.44,2.44,0,1,1,44,71.44,2.44,2.44,0,0,1,46.42,69m0-1a3.41,3.41,0,1,0,3.45,3.37A3.42,3.42,0,0,0,46.41,68Z"/><path class="cls-4" d="M46.39,69.51h.38a.07.07,0,0,1,.07.07V73a.27.27,0,0,1-.27.27h-.38a.07.07,0,0,1-.07-.07V69.78a.27.27,0,0,1,.27-.27Z" transform="translate(130.47 85.79) rotate(132.78)"/><path class="cls-7" d="M45.05,72.59l.82-.91a.2.2,0,0,1,.27,0l.18.16a.2.2,0,0,1,0,.27l-.57.63a.49.49,0,0,1-.7,0A.12.12,0,0,1,45.05,72.59Z"/><path class="cls-7" d="M47.9,70.19l-.82.9a.19.19,0,0,1-.27,0L46.63,71a.19.19,0,0,1,0-.27l.56-.63a.5.5,0,0,1,.71,0A.12.12,0,0,1,47.9,70.19Z"/><path class="cls-8" d="M34.26,59.89C38.71,59.68,48.4,58,50.08,47a.36.36,0,0,1,.7,0,11.72,11.72,0,0,1-2.33,10.53,3.24,3.24,0,0,1-.56.55,15.57,15.57,0,0,1-13.7,2.56A.36.36,0,0,1,34.26,59.89Z"/><path class="cls-2" d="M69.15,51.32S63.1,62.47,49.86,64.23c0,0,2.6,8.07,1.4,12.06,0,0,23.43-8.09,24.38-21.75C75.64,54.54,73.21,50.7,69.15,51.32Z"/><path class="cls-3" d="M66.16,61.43s5.1-7.3,3.67-10.14l-1.67.07a31.17,31.17,0,0,1-8.62,9.51S65,60.42,66.16,61.43Z"/><path class="cls-3" d="M69.77,64.53s-12.61,8.8-18.52,5.24c0,0,.94,4.46.49,6.28,0,0-2.07,3.36,8.64-4.34C60.38,71.71,70,66.66,69.77,64.53Z"/><path class="cls-4" d="M70.8,51.52a7.42,7.42,0,0,1,4.55,3.11c-.92,13.22-23.6,21.05-23.6,21.05C52.91,71.82,50.39,64,50.39,64c12.82-1.7,18.67-12.49,18.67-12.49a5.34,5.34,0,0,1,1.74,0M71,50.44a6.53,6.53,0,0,0-2.07,0,1.08,1.08,0,0,0-.8.56c0,.1-5.73,10.32-17.86,11.93a1.06,1.06,0,0,0-.78.5,1.1,1.1,0,0,0-.12.92c.68,2.08,2.23,8.12,1.36,11a1.08,1.08,0,0,0,.29,1.1,1,1,0,0,0,.58.29,1.06,1.06,0,0,0,.53-.05c1-.32,23.38-8.22,24.34-22a1,1,0,0,0-.17-.66,8.52,8.52,0,0,0-5.3-3.6Z"/><path class="cls-4" d="M57.91,61.8a.74.74,0,0,0,.21,0c.05,0,4.83-1.09,7.56.26a.56.56,0,1,0,.5-1c-3.1-1.53-8.1-.4-8.31-.35a.56.56,0,0,0-.42.67A.55.55,0,0,0,57.91,61.8Z"/><path class="cls-4" d="M65.09,69.75l.15,0a.55.55,0,0,0,.37-.68c-.1-.37-2.63-8.94-8.23-8.22a.56.56,0,0,0-.48.61.54.54,0,0,0,.62.47c4.67-.6,7,7.36,7,7.44A.56.56,0,0,0,65.09,69.75Z"/><path class="cls-4" d="M62.89,71.2l.14,0a.56.56,0,0,0,.38-.68c-.11-.37-2.64-9.16-8.24-8.44a.55.55,0,0,0,.14,1.09c4.66-.59,7,7.57,7,7.65A.57.57,0,0,0,62.89,71.2Z"/><path class="cls-2" d="M69.24,50.8s-3.81-5.61-2.41-8.39,3.59.2,3.59.2.73-6.18,4.73-5.27c3.78.86,5.91,5.45,4.92,9s-4.07,7-4.73,7.23S71.94,50.38,69.24,50.8Z"/><path class="cls-3" d="M72.06,51.85s-6.15-8.1-5-10.67-.92,1.39-1.16,2.23.71,4.17.71,4.17a32.63,32.63,0,0,0,2.09,3.69C69,51.25,72.06,51.85,72.06,51.85Z"/><path class="cls-3" d="M73.6,36.77S72.44,42.44,75.54,46,70.06,43.7,70,41.73,72,36.64,73.6,36.77Z"/><path class="cls-4" d="M74.34,37.25a3.4,3.4,0,0,1,.81.09c3.78.86,5.91,5.45,4.92,9s-4.07,7-4.73,7.23h-.06c-.71,0-3.12-2.85-5.6-2.82a3.25,3.25,0,0,0-.44,0s-3.81-5.61-2.41-8.39c.43-.87,1-1.18,1.46-1.18,1.1,0,2.13,1.38,2.13,1.38s.63-5.32,3.92-5.36m0-1.1c-2.52,0-3.92,2.29-4.57,4.4a3,3,0,0,0-1.47-.42,2.74,2.74,0,0,0-2.43,1.79c-1.64,3.25,2.06,8.87,2.48,9.5a1.11,1.11,0,0,0,.92.48h.16a1.33,1.33,0,0,1,.28,0c1.25,0,2.63,1,3.64,1.81.8.61,1.34,1,2,1a1.27,1.27,0,0,0,.34,0c1.3-.36,4.5-4.44,5.49-8a8.84,8.84,0,0,0-1-6.78,7.49,7.49,0,0,0-4.72-3.59,4.94,4.94,0,0,0-1.07-.12Z"/><path class="cls-9" d="M66.46,47a1,1,0,0,1-.93-.64l-3-7.68A1,1,0,0,1,63,37.5L88.44,21.56a1,1,0,0,1,.53-.15.94.94,0,0,1,.37.07,1,1,0,0,1,.6.67L95.55,43.5a1,1,0,0,1-.15.83,1,1,0,0,1-.73.42L66.54,47Z"/><path class="cls-4" d="M89,22.41l5.62,21.34L66.46,46l-3-7.68L89,22.41m0-2a2,2,0,0,0-1.06.3L62.44,36.65a2,2,0,0,0-.81,2.42l3,7.68A2,2,0,0,0,66.46,48h.16l28.13-2.28a2,2,0,0,0,1.47-.83,2,2,0,0,0,.3-1.67L90.91,21.9a2,2,0,0,0-1.2-1.35,1.91,1.91,0,0,0-.74-.14Z"/><path class="cls-10" d="M62.87,38s-3.59.05-3.95,2.44,1.51,8,3.95,7.72a5.65,5.65,0,0,0,3.34-1.26Z"/><path class="cls-11" d="M63.5,38.35s21.33,2.57,23.4,1.85S91.45,44,91.45,44l-25,2Z"/><path class="cls-12" d="M94,44.87c-3.89,0-7.55-4.47-8.71-10.61a17,17,0,0,1,.45-8.61c.94-2.64,2.6-4.31,4.67-4.7a4.68,4.68,0,0,1,.91-.09c3.89,0,7.56,4.46,8.72,10.61,1.26,6.69-1,12.53-5.13,13.31A4.6,4.6,0,0,1,94,44.87Z"/><path class="cls-4" d="M91.33,21.86c3.31,0,6.67,4.17,7.73,9.8,1.14,6-.79,11.47-4.32,12.14a4.4,4.4,0,0,1-.73.07c-3.3,0-6.67-4.17-7.73-9.8-1.14-6,.8-11.47,4.33-12.14a3.51,3.51,0,0,1,.72-.07m0-2h0a6.59,6.59,0,0,0-1.09.1c-4.69.89-7.29,7.25-5.92,14.48,1.25,6.62,5.32,11.43,9.69,11.43a5.78,5.78,0,0,0,1.1-.11c2.43-.45,4.36-2.35,5.42-5.34a17.88,17.88,0,0,0,.5-9.13c-1.25-6.62-5.33-11.43-9.7-11.43Z"/><path class="cls-13" d="M90.41,39.66c-2,0-4-2.37-4.57-5.51-.66-3.47.54-6.51,2.72-6.92a2.61,2.61,0,0,1,.48-.05c2,0,4,2.37,4.58,5.51a8.65,8.65,0,0,1-.26,4.48,3.44,3.44,0,0,1-2.46,2.44A2.72,2.72,0,0,1,90.41,39.66Z"/><path class="cls-4" d="M89,27.68c1.76,0,3.54,2.17,4.09,5.1.59,3.15-.45,6-2.33,6.34a1.72,1.72,0,0,1-.39,0c-1.76,0-3.53-2.17-4.08-5.1-.6-3.15.44-6,2.32-6.34a1.72,1.72,0,0,1,.39,0m0-1h0a2.76,2.76,0,0,0-.57.06c-2.46.46-3.83,3.76-3.13,7.51.65,3.42,2.78,5.91,5.07,5.91A2.78,2.78,0,0,0,91,40.1a3.91,3.91,0,0,0,2.84-2.76,9.14,9.14,0,0,0,.28-4.75c-.64-3.42-2.78-5.91-5.07-5.91Z"/><path class="cls-14" d="M99.26,25.15a1.15,1.15,0,0,1-.76-2l7.16-6.23a1.16,1.16,0,0,1,1.52,1.74L100,24.87A1.11,1.11,0,0,1,99.26,25.15Z"/><path class="cls-14" d="M102.91,31.88a1.15,1.15,0,0,1-.25-2.28l9.27-2.06a1.16,1.16,0,0,1,1.38.88,1.14,1.14,0,0,1-.88,1.37l-9.27,2.06A1,1,0,0,1,102.91,31.88Z"/><path class="cls-14" d="M112.23,40.77a.65.65,0,0,1-.19,0l-9.36-1.55a1.15,1.15,0,0,1,.37-2.27l9.37,1.55a1.15,1.15,0,0,1-.19,2.29Z"/><polygon class="cls-2" points="72.06 46.21 70.33 41.39 68.54 40.71 66.96 41.74 66.1 44.55 68.2 50.52 69.95 50.36 72.42 51.26 72.06 46.21"/><path class="cls-4" d="M72.4,46a16.6,16.6,0,0,0-1.32-4.11.73.73,0,0,0-.07-.24,2.93,2.93,0,0,0-1.81-1.31,3.79,3.79,0,0,0-3,.92.68.68,0,0,0-.17.21,6.15,6.15,0,0,0-.64,3.19,47.13,47.13,0,0,0,1.54,4.77.54.54,0,0,0,.07.13l.93,1.35a.61.61,0,0,0,.48.25.67.67,0,0,0,.33-.1.59.59,0,0,0,.14-.81L67.94,49a45.39,45.39,0,0,1-1.46-4.5A5,5,0,0,1,67,42.12a2.68,2.68,0,0,1,2-.63,1.58,1.58,0,0,1,.84.49.52.52,0,0,0,.28.35,17.75,17.75,0,0,1,1.27,3.94.53.53,0,0,0,.54.42H72A.54.54,0,0,0,72.4,46Z"/></g></g></svg>