<svg xmlns="http://www.w3.org/2000/svg" viewBox="0 0 196.32 254">
	<defs>
		<style>
			.cls-1{fill:#6a7276;}.cls-2{fill:#8f959b;}.cls-3{fill:#424a4a;}.cls-4{fill:#bfc2c5;}.cls-5{fill:#5d5d5d;}.cls-6{fill:#171b1b;}.cls-7{fill:#fff;}.cls-8{fill:#2a3232;}.cls-9{fill:#1e2525;}
		</style>
	</defs>
	<g id="Layer_2">
		<g id="Layer_1-2">
			<path class="cls-1"
			      d="M54.06,21.12c-.05.12.48-11,3.13-14.63,1.74-2.38,9.39-5,16.34-5.74S98.34,0,98.34,0h.41S115.09.06,122,.75s14.59,3.36,16.34,5.74C141,10.12,141.65,21,141.61,20.9a47.69,47.69,0,0,0-13.54-4.79A52.44,52.44,0,0,0,117,15.16H78.71S62.86,14.75,54.06,21.12Z"/>
			<path class="cls-2"
			      d="M52.58,36.55l1.33-16.12a48.1,48.1,0,0,1,17.44-5.56h45.42s14.51-1,24.69,6.14l1.15,16.45h-90Z"/>
			<path class="cls-1"
			      d="M54.06,232.88c-.05-.12.48,11,3.13,14.63,1.74,2.38,9.39,5,16.34,5.74s24.81.75,24.81.75h.41s16.34-.06,23.29-.75,14.59-3.36,16.34-5.74c2.65-3.63,3.27-14.53,3.23-14.41a47.35,47.35,0,0,1-13.54,4.79,52.44,52.44,0,0,1-11.12,1H78.71S62.86,239.25,54.06,232.88Z"/>
			<path class="cls-2"
			      d="M52.58,217.45l1.33,16.12a48.1,48.1,0,0,0,17.44,5.56h45.42s14.51,1.05,24.69-6.14l1.15-16.45h-90Z"/>
			<path class="cls-3" d="M17.57,48.9s1.23-1.15,3.33-2.73A15.15,15.15,0,0,0,17.57,48.9Z"/>
			<path class="cls-3"
			      d="M152.94,36.73l-55.35-.86-55.34.86c-8.62.71-16.92,6.07-21.35,9.44,10.2-6.41,30.56-6.6,30.56-6.6L78.22,38l19.37-.23L117,38l26.76,1.56s20.36.19,30.56,6.6C169.86,42.8,161.56,37.44,152.94,36.73Z"/>
			<path class="cls-3" d="M174.29,46.17c2.1,1.58,3.33,2.73,3.33,2.73A15.15,15.15,0,0,0,174.29,46.17Z"/>
			<path class="cls-3" d="M17.81,204s1.23,1.15,3.33,2.74A14.91,14.91,0,0,1,17.81,204Z"/>
			<path class="cls-3"
			      d="M153.18,216.21l-55.35.87-55.34-.87c-8.62-.71-16.92-6.07-21.35-9.43,10.2,6.4,30.56,6.59,30.56,6.59l26.76,1.57,19.37.23,19.38-.23L144,213.37s20.36-.19,30.56-6.59C170.1,210.14,161.8,215.5,153.18,216.21Z"/>
			<path class="cls-3" d="M174.53,206.78c2.09-1.59,3.33-2.74,3.33-2.74A14.91,14.91,0,0,1,174.53,206.78Z"/>
			<path class="cls-4"
			      d="M194,126.39v10.85c.08,19.08-4.44,43.25-4.44,43.25s-1.78,14-10.51,23.06-22.36,9-22.36,9l-35.28,2L97.94,215h-.21l-23.48-.53-35.28-2s-13.63.09-22.36-9S6.1,180.49,6.1,180.49s-4.52-24.17-4.44-43.25V115.55C1.58,96.47,6.1,72.3,6.1,72.3s1.78-14,10.51-23.06,22.36-9,22.36-9l35.28-2,23.48-.54h.21l23.48.54,35.28,2s13.63-.09,22.36,9S189.57,72.3,189.57,72.3s4.52,24.17,4.44,43.25v10.84"/>
			<path class="cls-3"
			      d="M191.56,125.49v10.58c.07,18.63-4.34,42.22-4.34,42.22s-1.73,13.64-10.25,22.5-21.81,8.78-21.81,8.78l-34.42,1.91L97.85,212h-.21l-22.9-.52-34.42-1.91s-13.29.09-21.81-8.78-10.25-22.5-10.25-22.5S3.85,154.7,3.92,136.07V114.9C3.85,96.28,8.26,72.69,8.26,72.69S10,59,18.51,50.18,40.32,41.4,40.32,41.4l34.42-1.91L97.64,39h.21l22.89.52,34.42,1.91s13.29-.08,21.81,8.78,10.25,22.51,10.25,22.51,4.41,23.59,4.34,42.21v10.59"/>
			<path class="cls-5"
			      d="M8.26,63.48s-4.52,3-4.87,6.43S1.27,94.59,1.27,94.59L.44,129l2.43,49.71s-.17,6.78,3.3,9.21a6.1,6.1,0,0,1,2.55,2.84c.76,1.88-1.76-6.52-1.76-6.52s-2.7-19-2.87-21.09-1.13-19-1.13-19l-.44-22.68s1-34.85,3.65-47.19Z"/>
			<path class="cls-5"
			      d="M188,63.68s4.52,2.95,4.87,6.43,2.12,24.68,2.12,24.68l.83,34.41-2.43,49.71s.17,6.77-3.3,9.21a6.1,6.1,0,0,0-2.55,2.84c-.76,1.88,1.76-6.52,1.76-6.52s2.7-19,2.87-21.09,1.13-19,1.13-19l.44-22.68S192.64,86.79,190,74.45Z"/>
			<path class="cls-6"
			      d="M184.8,103.62l-1-13.2-2.09-16.08c-1.21-9.47-4-14-4-14-2.78-6.61-11.21-11-11.21-11-3.31-1.74-13.91-2.61-13.91-2.61l-23.29-1.48-31.41-1h-.22l-31.42,1L42.93,46.79s-10.6.87-13.9,2.61c0,0-8.43,4.34-11.21,11,0,0-2.78,4.52-4,14L11.73,90.42l-1,13.2-.61,14.17v15.4l.61,14.16,1,13.21,2.09,16.08c1.22,9.47,4,14,4,14,2.78,6.6,11.21,11,11.21,11,3.3,1.73,13.9,2.6,13.9,2.6l23.29,1.48,31.42,1h.22l31.41-1,23.29-1.48s10.6-.87,13.91-2.6c0,0,8.43-4.35,11.21-11,0,0,2.78-4.52,4-14l2.09-16.08,1-13.21.62-14.16v-15.4Z"/>
			<path class="cls-7" d="M82.21,194.23v5.71H75v-5.71h1.41v4.28h1.47v-4.28h1.42v4.28h1.42v-4.28Z"/>
			<path class="cls-7" d="M89.44,194.21v5.72H83.67v-3.44H88v-.93h-4.3v-1.35ZM88,198.65v-1H85.14v1Z"/>
			<path class="cls-7" d="M92.29,195.64v2.87h2.89v1.43H90.87v-7.58h1.42v1.85h2.89v1.43Z"/>
			<path class="cls-7" d="M98.1,195.63v2.83h4.3v1.47H96.63v-5.76h5.77v1.46Z"/>
			<path class="cls-7" d="M109.56,194.21v5.73h-1.42v-4.3h-2.89v4.3h-1.41v-7.76h1.41v2Z"/>
			<g id="ARC">
				<path class="cls-7"
				      d="M119.93,200.93l-.62-.78a1.48,1.48,0,0,1,.1-2l1.41-1.43a.75.75,0,0,0,0,1l4,4.06a.4.4,0,0,1-.37.68l-2.9-.62A2.75,2.75,0,0,1,119.93,200.93Z"/>
			</g>
			<path class="cls-7"
			      d="M125.42,191.57l-4.69,1a.93.93,0,0,0-.56.35l-1.62,2a.3.3,0,0,1-.48,0l-.65-.81a1.49,1.49,0,0,1-.1,2l-6.23,6.34a0,0,0,0,0,0,.08l4.7-1a1,1,0,0,0,.55-.35l1.62-2a.31.31,0,0,1,.49,0l.64.81a1.48,1.48,0,0,1,.1-1.95l6.23-6.34A.06.06,0,0,0,125.42,191.57Z"/>
			<g id="ARC-2">
				<path class="cls-7"
				      d="M116.64,193.17l.61.78a1.47,1.47,0,0,1-.1,2l-1.4,1.43a.74.74,0,0,0,0-1l-4-4.07a.41.41,0,0,1,.38-.68l2.89.62A2.85,2.85,0,0,1,116.64,193.17Z"/>
			</g>
			<polygon class="cls-8" points="23.5 157.6 150.72 85.45 23.5 85.45 23.5 157.6"/>
			<polygon class="cls-9" points="23.5 160.22 173.05 160.22 173.05 85.45 150.72 85.45 23.5 157.6 23.5 160.22"/>
			<path class="cls-6"
			      d="M195.08,143.4,194,165.11s1.72-2.36,1.76-10.13C195.77,155,196.42,145.37,195.08,143.4Z"/>
			<path class="cls-6"
			      d="M195.47,107.74,194.4,86s1.72,2.36,1.76,10.13C196.16,96.16,196.81,105.77,195.47,107.74Z"/>
			<path class="cls-6" d="M.85,107.74,1.91,86S.2,88.39.16,96.16C.16,96.16-.49,105.77.85,107.74Z"/>
		</g>
	</g>
</svg>