<svg xmlns="http://www.w3.org/2000/svg" viewBox="0 0 175.75 93.54"><defs><style>.cls-1{fill:#21222b;}.cls-2{fill:#fff;}.cls-3{fill:#e8e8e8;opacity:0.17;}</style></defs><g id="Layer_2" data-name="Layer 2"><g id="Layer_1-2" data-name="Layer 1"><rect class="cls-1" width="175.75" height="93.54"/><rect x="4.25" y="4.25" width="167.24" height="85.04"/><path class="cls-2" d="M56.61,15.24V6.93h4.75V8.12h1.19v2.37H61.36V8.12H57.8v2.37h3.56v1.19H57.8v3.56Zm4.75,0V11.68h1.19v3.56Z"/><path class="cls-2" d="M79.18,14.05H78V8.12h1.19v5.93Zm3.56-5.93H79.18V6.93h3.56Zm-1.19,5.93h1.19v1.19H79.18V14.05h2.37ZM82.74,9.3V8.12h1.19V9.3Zm0,4.75V12.87h1.19v1.18Z"/><path class="cls-2" d="M87.49,15.24V8.12H85.12V6.93h5.93V8.12H88.68v7.12Z"/><path class="cls-2" d="M97,14.05h1.19v1.19H92.24V6.93h5.94V8.12H93.43v2.37H97v1.19H93.43v2.37H97Z"/><path class="cls-2" d="M99.37,15.24V6.93h1.18V9.3h1.19v1.19h1.19v1.19h-1.19V10.49h-1.19v4.75Zm4.75,0V12.87h-1.19V11.68h1.19V6.93h1.18v8.31Z"/><path class="cls-2" d="M111.24,15.24V11.68h-3.56v3.56h-1.19V6.93h1.19v3.56h3.56V6.93h1.19v8.31Z"/><path class="cls-2" d="M118.37,15.24V12.87H114.8v2.37h-1.18V8.12h1.18v3.56h3.57V8.12h1.18v7.12Zm0-7.12H114.8V6.93h3.57Z"/><path class="cls-2" d="M125.49,14.05h1.19v1.19h-5.94V6.93h1.19v7.12h3.56Z"/><path class="cls-2" d="M127.87,15.24V6.93h5.94V8.12h-4.76v2.37h3.57v1.19h-3.57v3.56Z"/><path class="cls-2" d="M43.55,24.43H42.36V18.49h1.19v5.94Zm3.56-5.94H43.55V17.3h3.56Zm0,8.32H45.93V25.62H43.55V24.43h3.56v1.19H48.3v1.19Zm0-2.38V18.49H48.3v5.94Z"/><path class="cls-2" d="M50.68,24.43H49.49V17.3h1.19v7.13Zm2.37,0h1.19v1.19H50.68V24.43h2.37Zm1.19,0V17.3h1.19v7.13Z"/><path class="cls-2" d="M61.36,25.62V23.24H57.8v2.38H56.61V18.49H57.8v3.56h3.56V18.49h1.19v7.13Zm0-7.13H57.8V17.3h3.56Z"/><path class="cls-2" d="M63.74,25.62V17.3h4.75v1.19h1.19v2.38H68.49V18.49H64.93v2.38h3.56v1.18H64.93v3.57Zm4.75,0V22.05h1.19v3.57Z"/><path class="cls-2" d="M73.24,25.62V18.49H70.87V17.3H76.8v1.19H74.43v7.13Z"/><path class="cls-2" d="M82.74,24.43h1.19v1.19H78V17.3h5.94v1.19H79.18v2.38h3.56v1.18H79.18v2.38h3.56Z"/><path class="cls-2" d="M85.12,25.62V17.3h4.75v1.19h1.18v2.38H89.87V18.49H86.3v2.38h3.57v1.18H86.3v3.57Zm4.75,0V22.05h1.18v3.57Z"/><path class="cls-2" d="M42.36,36V27.68H48.3v1.19H43.55v2.37h3.56v1.19H43.55V36Z"/><path class="cls-2" d="M54.24,34.81h1.19V36H49.49V34.81h2.37V28.87H49.49V27.68h5.94v1.19H53.05v5.94Z"/><path class="cls-2" d="M57.8,32.43H56.61V27.68H57.8v4.75ZM59,34.81H57.8V32.43H59v2.38ZM59,36V34.81h1.19V36Zm1.19-1.18V32.43h1.18v2.38Zm1.18-2.38V27.68h1.19v4.75Z"/><path class="cls-2" d="M68.49,34.81h1.19V36H63.74V27.68h5.94v1.19H64.93v2.37h3.56v1.19H64.93v2.38h3.56Z"/><path class="cls-2" d="M72.05,34.81H70.87V28.87h1.18v5.94Zm3.57-5.94H72.05V27.68h3.57Zm-1.19,5.94h1.19V36H72.05V34.81h2.38Zm1.19-4.75V28.87H76.8v1.19Zm0,4.75V33.62H76.8v1.19Z"/><path class="cls-2" d="M132.62,36V32.43h-3.57V36h-1.18V27.68h1.18v3.56h3.57V27.68h1.19V36Z"/><path class="cls-2" d="M42.36,46.37V38.06h4.75v1.18H48.3v2.38H47.11V39.24H43.55v2.38h3.56v1.19H43.55v3.56Z"/><path class="cls-2" d="M54.24,46.37V44H50.68v2.38H49.49V39.24h1.19v3.57h3.56V39.24h1.19v7.13Zm0-7.13H50.68V38.06h3.56Z"/><path class="cls-2" d="M57.8,41.62H56.61V39.24H57.8v2.38Zm0,3.56H56.61V44H57.8Zm3.56-5.94H57.8V38.06h3.56Zm0,3.57H57.8V41.62h3.56Zm-1.18,2.37h1.18v1.19H57.8V45.18h2.38Zm1.18-4.75V39.24h1.19v1.19Zm0,4.75V42.81h1.19v2.37Z"/><path class="cls-2" d="M66.12,46.37V39.24H63.74V38.06h5.94v1.18H67.3v7.13Z"/><path class="cls-2" d="M89.87,45.18h1.18v1.19H85.12V38.06h5.93v1.18H86.3v2.38h3.57v1.19H86.3v2.37h3.57Z"/><path class="cls-2" d="M93.43,45.18H92.24V39.24h1.19v5.94ZM97,39.24H93.43V38.06H97ZM95.8,45.18H97v1.19H93.43V45.18H95.8Zm1.19,0V39.24h1.19v5.94Z"/><path class="cls-2" d="M99.37,46.37V38.06h1.18v2.37h1.19v1.19h1.19v1.19h-1.19V41.62h-1.19v4.75Zm4.75,0V44h-1.19V42.81h1.19V38.06h1.18v8.31Z"/><path class="cls-2" d="M111.24,45.18h1.19v1.19h-5.94V38.06h5.94v1.18h-4.75v2.38h3.56v1.19h-3.56v2.37h3.56Z"/><path class="cls-2" d="M116,46.37V39.24h-2.37V38.06h5.93v1.18h-2.37v7.13Z"/><path class="cls-2" d="M120.74,46.37V38.06h1.19V44h1.19v1.19h-1.19v1.19ZM124.3,44h-1.18V42.81h1.18Zm1.19,2.38V45.18H124.3V44h1.19V38.06h1.19v8.31Z"/><path class="cls-2" d="M129.05,45.18h-1.18V39.24h1.18v5.94Zm3.57-5.94h-3.57V38.06h3.57Zm-1.19,5.94h1.19v1.19h-3.57V45.18h2.38Zm1.19,0V39.24h1.19v5.94Z"/><path class="cls-2" d="M44.74,56.75V49.62H42.36V48.43H48.3v1.19H45.93v7.13Z"/><path class="cls-2" d="M54.24,56.75V53.18H50.68v3.57H49.49V48.43h1.19V52h3.56V48.43h1.19v8.32Z"/><path class="cls-2" d="M56.61,56.75V48.43h4.75v1.19h1.19V52H61.36V49.62H57.8V52h3.56v1.18H57.8v3.57Zm4.75,0V53.18h1.19v3.57Z"/><path class="cls-2" d="M68.49,55.56h1.19v1.19H63.74V48.43h5.94v1.19H64.93V52h3.56v1.18H64.93v2.38h3.56Z"/><path class="cls-2" d="M75.62,55.56H76.8v1.19H70.87V48.43H76.8v1.19H72.05V52h3.57v1.18H72.05v2.38h3.57Z"/><path class="cls-2" d="M78,56.75V48.43h5.94v1.19H79.18V52h3.56v1.18H79.18v3.57Z"/><path class="cls-2" d="M86.3,55.56H85.12V49.62H86.3v5.94Zm3.57-5.94H86.3V48.43h3.57Zm-1.19,5.94h1.19v1.19H86.3V55.56h2.38Zm1.19,0V49.62h1.18v5.94Z"/><path class="cls-2" d="M93.43,55.56H92.24V48.43h1.19v7.13Zm2.37,0H97v1.19H93.43V55.56H95.8Zm1.19,0V48.43h1.19v7.13Z"/><path class="cls-2" d="M99.37,56.75V48.43h4.75v1.19h1.18V52h-1.18V49.62h-3.57V52h3.57v1.18h-3.57v3.57Zm4.75,0V53.18h1.18v3.57Z"/><path class="cls-2" d="M106.49,56.75V48.43h5.94v1.19h-4.75V52h3.56v1.18h-3.56v3.57Z"/><path class="cls-2" d="M118.37,55.56h1.18v1.19h-5.93V55.56H116V49.62h-2.37V48.43h5.93v1.19h-2.37v5.94Z"/><path class="cls-2" d="M121.93,53.18h-1.19V48.43h1.19v4.75Zm1.19,2.38h-1.19V53.18h1.19v2.38Zm0,1.19V55.56h1.18v1.19Zm1.18-1.19V53.18h1.19v2.38Zm1.19-2.38V48.43h1.19v4.75Z"/><path class="cls-2" d="M132.62,55.56h1.19v1.19h-5.94V48.43h5.94v1.19h-4.76V52h3.57v1.18h-3.57v2.38h3.57Z"/><path class="cls-2" d="M43.55,62.37H42.36V60h1.19v2.37Zm0,3.56H42.36V64.75h1.19ZM47.11,60H43.55V58.81h3.56Zm0,3.56H43.55V62.37h3.56Zm-1.18,2.37h1.18v1.19H43.55V65.93h2.38Zm1.18-4.75V60H48.3v1.18Zm0,4.75V63.56H48.3v2.37Z"/><path class="cls-2" d="M54.24,65.93h1.19v1.19H49.49V65.93h2.37V60H49.49V58.81h5.94V60H53.05v5.93Z"/><path class="cls-2" d="M57.8,61.18H56.61V58.81H57.8v2.37Zm-1.19,5.94V64.75H57.8v2.37ZM59,62.37H57.8V61.18H59ZM57.8,64.75V63.56H59v1.19Zm2.38-1.19H59V62.37h1.19Zm0-1.19V61.18h1.18v1.19Zm1.18,2.38H60.18V63.56h1.18Zm0-3.57V58.81h1.19v2.37Zm0,5.94V64.75h1.19v2.37Z"/><path class="cls-2" d="M64.93,62.37H63.74V60h1.19v2.37Zm0,3.56H63.74V64.75h1.19ZM68.49,60H64.93V58.81h3.56Zm0,3.56H64.93V62.37h3.56ZM67.3,65.93h1.19v1.19H64.93V65.93H67.3Zm1.19-4.75V60h1.19v1.18Zm0,4.75V63.56h1.19v2.37Z"/><path class="cls-2" d="M75.62,65.93H76.8v1.19H70.87V58.81H76.8V60H72.05v2.37h3.57v1.19H72.05v2.37h3.57Z"/><path class="cls-2" d="M79.18,63.56H78V58.81h1.19v4.75Zm1.19,2.37H79.18V63.56h1.19v2.37Zm0,1.19V65.93h1.18v1.19Zm1.18-1.19V63.56h1.19v2.37Zm1.19-2.37V58.81h1.19v4.75Z"/><path class="cls-2" d="M89.87,65.93h1.18v1.19H85.12V58.81h5.93V60H86.3v2.37h3.57v1.19H86.3v2.37h3.57Z"/><path class="cls-2" d="M92.24,67.12V58.81h1.19v2.37h1.19v1.19H95.8v1.19H94.62V62.37H93.43v4.75Zm4.75,0V64.75H95.8V63.56H97V58.81h1.19v8.31Z"/><path class="cls-2" d="M42.36,77.5V69.19h1.19v2.37h1.19v1.19h1.19v1.19H44.74V72.75H43.55V77.5Zm4.75,0V75.12H45.93V73.94h1.18V69.19H48.3V77.5Z"/><path class="cls-2" d="M54.24,76.31h1.19V77.5H49.49V76.31h2.37V70.37H49.49V69.19h5.94v1.18H53.05v5.94Z"/><path class="cls-2" d="M56.61,77.5V69.19H57.8v2.37H59v1.19h1.19v1.19H59V72.75H57.8V77.5Zm4.75,0V75.12H60.18V73.94h1.18V69.19h1.19V77.5Z"/><path class="cls-2" d="M68.49,76.31h1.19V77.5H63.74V69.19h5.94v1.18H64.93v2.38h3.56v1.19H64.93v2.37h3.56Z"/><path class="cls-2" d="M73.24,77.5V70.37H70.87V69.19H76.8v1.18H74.43V77.5Z"/><path class="cls-2" d="M82.74,76.31h1.19V77.5H78V69.19h5.94v1.18H79.18v2.38h3.56v1.19H79.18v2.37h3.56Z"/><path class="cls-2" d="M85.12,77.5V69.19H86.3v2.37h1.19v1.19h1.19v1.19H87.49V72.75H86.3V77.5Zm4.75,0V75.12H88.68V73.94h1.19V69.19h1.18V77.5Z"/><path class="cls-2" d="M97,76.31h1.19V77.5H92.24V69.19h5.94v1.18H93.43v2.38H97v1.19H93.43v2.37H97Z"/><path class="cls-2" d="M104.12,76.31h1.18V77.5H99.37V69.19h1.18v7.12h3.57Z"/><path class="cls-2" d="M111.24,76.31h1.19V77.5h-5.94V69.19h5.94v1.18h-4.75v2.38h3.56v1.19h-3.56v2.37h3.56Z"/><path class="cls-2" d="M114.8,73.94h-1.18V69.19h1.18v4.75ZM116,76.31H114.8V73.94H116v2.37Zm0,1.19V76.31h1.19V77.5Zm1.19-1.19V73.94h1.19v2.37Zm1.19-2.37V69.19h1.18v4.75Z"/><path class="cls-2" d="M125.49,76.31h1.19V77.5h-5.94V69.19h5.94v1.18h-4.75v2.38h3.56v1.19h-3.56v2.37h3.56Z"/><path class="cls-2" d="M127.87,77.5V69.19h1.18v2.37h1.19v1.19h1.19v1.19h-1.19V72.75h-1.19V77.5Zm4.75,0V75.12h-1.19V73.94h1.19V69.19h1.19V77.5Z"/><path class="cls-2" d="M44.74,87.87V80.75H42.36V79.56H48.3v1.19H45.93v7.12Z"/><path class="cls-2" d="M49.49,87.87V79.56h1.19V85.5h1.18v1.19H50.68v1.18Zm3.56-2.37H51.86V84.31h1.19Zm1.19,2.37V86.69H53.05V85.5h1.19V79.56h1.19v8.31Z"/><path class="cls-2" d="M61.36,86.69h1.19v1.18H56.61V79.56h5.94v1.19H57.8v2.37h3.56v1.19H57.8v2.38h3.56Z"/><path class="cls-2" d="M68.49,86.69h1.19v1.18H63.74V79.56h1.19v7.13h3.56Z"/><path class="cls-2" d="M72.05,84.31H70.87V79.56h1.18v4.75Zm1.19,2.38H72.05V84.31h1.19v2.38Zm0,1.18V86.69h1.19v1.18Zm1.19-1.18V84.31h1.19v2.38Zm1.19-2.38V79.56H76.8v4.75Z"/><path class="cls-2" d="M82.74,86.69h1.19v1.18H78V79.56h5.94v1.19H79.18v2.37h3.56v1.19H79.18v2.38h3.56Z"/><path class="cls-2" d="M89.87,86.69h1.18v1.18H85.12V79.56H86.3v7.13h3.57Z"/><path class="cls-2" d="M93.43,86.69H92.24V80.75h1.19v5.94ZM97,80.75H93.43V79.56H97ZM95.8,86.69H97v1.18H93.43V86.69H95.8Zm1.19,0V80.75h1.19v5.94Z"/><path class="cls-2" d="M100.55,86.69H99.37V80.75h1.18v5.94Zm3.57-5.94h-3.57V79.56h3.57Zm-1.19,5.94h1.19v1.18h-3.57V86.69h2.38Zm1.19-4.75V80.75h1.18v1.19Zm0,4.75V85.5h1.18v1.19Z"/><path class="cls-2" d="M111.24,86.69h1.19v1.18h-5.94V79.56h1.19v7.13h3.56Z"/><path class="cls-2" d="M114.8,86.69h-1.18V80.75h1.18v5.94Zm3.57-5.94H114.8V79.56h3.57Zm-1.19,5.94h1.19v1.18H114.8V86.69h2.38Zm1.19,0V80.75h1.18v5.94Z"/><path class="cls-2" d="M121.93,86.69h-1.19V80.75h1.19v5.94Zm3.56-5.94h-3.56V79.56h3.56Zm-1.19,5.94h1.19v1.18h-3.56V86.69h2.37Zm1.19-4.75V80.75h1.19v1.19Zm0,4.75V85.5h1.19v1.19Z"/><path class="cls-2" d="M127.87,87.87V79.56h1.18v3.56h1.19v1.19h1.19V85.5h1.19v1.19h-1.19V85.5h-1.19V84.31h-1.19v3.56Zm2.37-4.75V81.94h1.19v1.18Zm1.19-1.18V80.75h1.19v1.19Zm1.19-1.19V79.56h1.19v1.19Zm0,7.12V86.69h1.19v1.18Z"/><path class="cls-2" d="M41.4,5.67V16.5H56.17V5.67Zm6.9,2.45H45.93v5.93H48.3v1.19H42.36V14.05h2.38V8.12H42.36V6.93H48.3Zm7.13,0H53.05v7.12H51.86V8.12H49.49V6.93h5.94Z"/><path class="cls-2" d="M63.06,5.67V16.5h14.3V5.67Zm6.62,2.45H67.3v5.93h2.38v1.19H63.74V14.05h2.38V8.12H63.74V6.93h5.94ZM76.8,9.3H75.62V8.12H72.05v2.37h3.57v1.19H76.8v2.37H75.62v1.19H72.05V14.05H70.87V12.87h1.18v1.18h3.57V11.68H72.05V10.49H70.87V8.12h1.18V6.93h3.57V8.12H76.8Z"/><path class="cls-2" d="M91.51,16.05V26.88h42.84V16.05Zm6.67,2.44H95.8v7.13H94.62V18.49H92.24V17.3h5.94Zm7.12,0h-4.75v2.38h3.57v1.18h-3.57v2.38h4.75v1.19H99.37V17.3h5.93Zm7.13,0v7.13h-1.19V24.43h-1.19V23.24h-1.18v1.19h-1.19v1.19h-1.19V17.3h1.19v5.94h1.19V22.05h1.18v1.19h1.19V17.3h1.19Zm7.13,0v7.13h-1.19V23.24h-1.19V22.05H116V20.87H114.8v4.75h-1.18V17.3h1.18v2.38H116v1.19h1.19v1.18h1.19V17.3h1.19Zm7.12,0H124.3v7.13h-1.18V18.49h-2.38V17.3h5.94Zm7.13,0v1.19h-1.19v1.19h-1.19v4.75h-1.19V20.87h-1.19V19.68h-1.18V17.3h1.18v2.38h1.19v1.19h1.19V19.68h1.19V17.3h1.19Z"/><path class="cls-2" d="M77.36,26.42V37.25h49.72V26.42Zm6.57,2.45V36H82.74V30.06H81.55v1.18H80.37V30.06H79.18V36H78V27.68h1.19v1.19h1.19v1.19h1.18V28.87h1.19V27.68h1.19Zm7.12,0H88.68v5.94h2.37V36H85.12V34.81h2.37V28.87H85.12V27.68h5.93Zm7.13,0V36H97V33.62H95.8V32.43H94.62V31.24H93.43V36H92.24V27.68h1.19v2.38h1.19v1.18H95.8v1.19H97V27.68h1.19Zm7.12,0v5.94h-1.18V36h-3.57V34.81H99.37V27.68h1.18v7.13h3.57V27.68h1.18Zm7.13,0h-2.38V36h-1.18V28.87h-2.38V27.68h5.94Zm7.13,0H114.8v2.37h3.57v1.19H114.8v2.38h4.76V36h-5.94V27.68h5.94Zm7.12,1.19h-1.19V28.87h-3.56v2.37h3.56v1.19h1.19v2.38h-1.19V36h-3.56V34.81h-1.19V33.62h1.19v1.19h3.56V32.43h-3.56V31.24h-1.19V28.87h1.19V27.68h3.56v1.19h1.19Z"/><polygon class="cls-2" points="82.74 42.81 82.74 41.62 82.74 40.43 82.74 39.24 81.55 39.24 80.37 39.24 79.18 39.24 79.18 40.43 79.18 41.62 79.18 42.81 79.18 43.99 79.18 45.18 80.37 45.18 81.55 45.18 82.74 45.18 82.74 43.99 82.74 42.81"/><path class="cls-2" d="M70.09,36.8V47.63H84.62V36.8Zm6.71,2.44H74.43v7.13H73.24V39.24H70.87V38.06H76.8Zm7.13,1.19v4.75H82.74v1.19H79.18V45.18H78V39.24h1.19V38.06h3.56v1.18h1.19Z"/><path class="cls-2" d="M98.78,57.55V68.38h35.57V57.55Zm6.38,2.52h-4.64v2.32H104v1.15h-3.48v2.32h4.64V67H99.37V58.91h5.79Zm6.94,0h-2.31v5.79h2.31V67h-5.79V65.86h2.32V60.07h-2.32V58.91h5.79Zm7,1.16h-1.16V60.07h-3.47v5.79h3.47V63.54h-2.31V62.39h3.47v3.47h-1.16V67h-3.47V65.86h-1.16V60.07h1.16V58.91h3.47v1.16h1.16ZM126.68,60v7.12h-1.19V63.56h-3.56v3.56h-1.19V58.81h1.19v3.56h3.56V58.81h1.19Zm7.13,0h-2.38v7.12h-1.19V60h-2.37V58.81h5.94Z"/><polygon class="cls-3" points="162.13 0 6.29 93.54 175.75 93.54 175.75 0 162.13 0"/></g></g></svg>