<svg xmlns="http://www.w3.org/2000/svg" viewBox="0 0 113.39 113.39">
	<defs>
		<style>
			.cls-1,.cls-4,.cls-6{fill:none;}.cls-2{fill:#e5f1f9;}.cls-3{fill:#8cc4dd;}.cls-11,.cls-4,.cls-6{stroke:#144451;}.cls-4,.cls-6{stroke-linecap:round;stroke-width:2px;}.cls-4{stroke-linejoin:round;}.cls-5{fill:#144451;}.cls-11,.cls-6{stroke-miterlimit:10;}.cls-7{fill:#111a28;opacity:0.61;}.cls-8{fill:#b0d9e8;}.cls-9{fill:#f05423;}.cls-10{fill:#373250;opacity:0.39;}.cls-11{fill:#f9af8e;}.cls-12{fill:#ffda78;}.cls-13{fill:#eb5645;}
		</style>
	</defs>
	<g id="Layer_2" data-name="Layer 2">
		<g id="Layer_1-2" data-name="Layer 1">
			<rect class="cls-1" width="113.39" height="113.39"/>
			<polygon class="cls-2"
			         points="85.51 33.11 88.34 31.85 90.21 31.85 90.61 32.48 89.98 33.83 91.14 34.27 92.84 35.75 93.15 38.35 90.72 40.13 85.51 39.59 82.88 39.09 69.37 35.99 68.65 35.58 66.76 37.05 65.71 41.24 65.34 43.31 72.84 48.64 78.14 52.41 83.9 56.31 84.95 55.95 87.49 53.67 90.38 54.14 92.13 56.31 91.9 58.78 89.7 63.25 86.35 65.83 84.16 66.08 71.81 59.29 70.93 58.39 66.67 57.08 62.14 54.55 58.71 52.76 55.43 52.76 53.5 54.59 47.6 57.88 44.79 59.12 41.38 61.13 33.96 65.01 29.95 66.77 26.96 67.16 24.9 65.97 23.38 63.93 22.14 60.16 22.14 56.48 23.44 54.14 25.36 53.48 27.63 53.67 29.39 55.16 30.28 56.07 35.37 53.97 36.31 52.85 42 47.08 44.52 45.37 43.3 43.95 41.04 42.26 39.23 38.64 39.23 35.7 30.68 38.19 24.9 40.13 22.14 40.84 18.29 39.83 17.66 37.43 17.66 35.52 20.66 34.51 19.59 33.32 19.59 32.64 21.17 31.85 25.3 32.58 26.27 31.38 31.59 28.96 38.9 26.07 39.03 20.13 39.78 18.44 42.38 18.04 44.34 21.66 46.26 23.84 58.97 26.46 64.24 25.45 66.33 26.02 76.95 29.36 85.51 33.11"/>
			<path class="cls-3"
			      d="M67,36.37S65,34.46,68.84,34.42s6.79,2.51,8.45,2.34,8.32,1.19,8.32-.66.38.57.38.57l-1.25,2.24-1.21.26-14-3.07S67,36.12,67,36.37Z"/>
			<path class="cls-2"
			      d="M48.3,6.08A.22.22,0,0,1,48,5.85c.29-1.1,1.2-3.64,3.68-4.53,0,0,6.92-2.28,12.19,1.83a.22.22,0,0,1-.21.38C61.21,2.71,55.45,1.61,48.3,6.08Z"/>
			<path class="cls-2"
			      d="M56.49,5.09s-7-1.32-9.47,4.8A4,4,0,0,0,46.8,11a.65.65,0,0,0,1.24.27c.65-1.43,2.45-4.62,5.82-5.15C58.24,5.43,56.49,5.09,56.49,5.09Z"/>
			<path class="cls-3"
			      d="M37.38,57.08s-2.17-2-2.68-.44a2.22,2.22,0,0,0-3.69.7s-2.65-3.26-3.33-.85c0,0,2.72,9.76,1,10.67s-5.43-1.45-6.11-5A17.35,17.35,0,0,1,23,54.85l2.43-1.63,2.78.45,1.27,1.55.91.7,4.94-2,.8.88Z"/>
			<path class="cls-4" d="M29,66.83s.52-12.2-4.11-13.35"/>
			<path class="cls-3"
			      d="M54.21,47.6a35.31,35.31,0,0,1-8.68.83,10.37,10.37,0,0,0-7.47,2.88L36.68,52l7.52-6.67Z"/>
			<path class="cls-3"
			      d="M75,57.4s.75,2.73,2,1.89c0,0,3,6,8.5,4.47s6.32-5,6.32-5l-.76,2.66-2.2,2.89L85.8,66.08l-4.25-1.3-9.74-5.49-.88-.9-7.38-3-3.61-2.49a12.43,12.43,0,0,1,5.14.82c2.55,1,6,2.4,6.37,2.17S77.79,54.66,75,57.4Z"/>
			<path class="cls-3" d="M43.75,43.11s0-7.7-2-7.84,2-.59,2-.59l1.61.9.17,7.13Z"/>
			<path class="cls-3" d="M49.31,43.32s-3-2.25-2.51-7.63-4-1.36-4-1.36l2.59,1.25.17,7.13Z"/>
			<path class="cls-3"
			      d="M66,25.92s-4,2.87-7.68,2.76S48.2,26.39,46.8,26.46s-4.21,0-4.42-1.26S44.47,24,44.47,24l14.89,2.74Z"/>
			<path class="cls-3" d="M40.36,25.2s0-6,1.19-6l1.18,0,1.61,2.43L44.47,24Z"/>
			<path class="cls-3" d="M40.36,35.27S28.93,38.18,28,36c0,0-3.68,4.87-8.26,4.47l1.64.57,7.18-2.18Z"/>
			<path class="cls-3" d="M24.23,32.3s-4,0-3.17,1.93-2.15-1.09-1.81-1.34l1.58-1.16Z"/>
			<path class="cls-3" d="M93.15,36.1S88,40,85.81,38.31s-.3,1.28-.3,1.28l4.81.58L93,38.91Z"/>
			<path class="cls-5"
			      d="M45.23,45l-.31-.11v-9A4.29,4.29,0,0,0,44,35c-1,.24-11.39,3.11-15.45,4.23l-.59.16v-.62s0-5.22-2.76-5.73c-.58-.11-.67-.47-.68-.62,0-.51-.1-1.21,10.12-5.23,4.9-1.92,9.88-3.7,9.93-3.72a.47.47,0,0,1,.31.89c-7.11,2.54-17.16,6.45-19.14,7.84,2.54.8,3,4.48,3.13,6,3-.83,14.6-4,15-4.1s1.11.37,1.9,1.36l.1.13v8.66c10.55,3.8,17.56.66,18.79,0,.18-1.24.9-6,1.55-7.22a4.24,4.24,0,0,1,2.12-1.92l.23-.08.2.14c1.58,1.12,11.45,2.91,15.34,3.54a2.5,2.5,0,0,0,1.21-1.51,5.87,5.87,0,0,0-.73-3.82c-2.18-2.14-13.48-5.54-19.18-7a.47.47,0,0,1-.34-.57.49.49,0,0,1,.58-.34c.69.18,16.88,4.48,19.66,7.35l.06.08c.06.11,1.45,2.49.86,4.6a3.47,3.47,0,0,1-1.8,2.17l-.14.08-.16,0c-1.37-.22-13-2.13-15.66-3.58A3.31,3.31,0,0,0,67,37.44c-.53,1-1.25,5.49-1.48,7.15l0,.22-.19.12A19.5,19.5,0,0,1,55.93,47,30.52,30.52,0,0,1,45.23,45Z"/>
			<path class="cls-5"
			      d="M82.33,38.91a.48.48,0,0,0,.42-.25c2.13-4,.65-6.79.59-6.9a.47.47,0,0,0-.64-.19.48.48,0,0,0-.19.64c.06.11,1.29,2.48-.59,6a.47.47,0,0,0,.19.64A.46.46,0,0,0,82.33,38.91Z"/>
			<path class="cls-6" d="M27.68,30.61a7.92,7.92,0,0,1,3.64,7.23"/>
			<path class="cls-5"
			      d="M46.75,6.13c3.15-2.6,9-5.93,16.56-3.34a5.2,5.2,0,0,1,2.12,1.38c1.74,1.88,4.76,6.47,2.27,13.93,0,0-2.78,8.42-13,6.3,0,0-8.86-.27-10.15-8.39l-.2-4.36A6.8,6.8,0,0,1,46.75,6.13Z"/>
			<path class="cls-7"
			      d="M67,18.88s-10.11,4.91-17.06-2.55c0,0-4.53-3.36-2.21-9.76,0,0-2.14-1.15-3.42,3.95,0,0-1.28,11.91,10.53,13.14C54.79,23.66,64.29,26,67,18.88Z"/>
			<path class="cls-8"
			      d="M47.54,23.84A13.93,13.93,0,0,1,41.89,13s.59-8.41,8.31-11.28c0,0,7.79-2.9,13.48,1.78A16.92,16.92,0,0,0,50.45,4.92s-3,1.83-4,3.21c0,0-1.8,1.74-1.81,5.94s-.08-.23-.08-.23a9.59,9.59,0,0,0,6.28,9.79Z"/>
			<path class="cls-5"
			      d="M55.69.79a12.34,12.34,0,0,1,8,2.67,16,16,0,0,0-5-.73,16.36,16.36,0,0,0-8.28,2.19s-3,1.83-4,3.21c0,0-1.8,1.74-1.81,5.94,0,1.2,0,1.7,0,1.79s0-.07,0-.11c0-.45,0-1.91,0-1.91a8.86,8.86,0,0,0,0,1.91c0,.08,0,.13,0,.13v0a9.42,9.42,0,0,0,6.22,7.77l-3.35.21A13.93,13.93,0,0,1,41.89,13s.59-8.41,8.31-11.28A17.38,17.38,0,0,1,55.69.79m0-.79a18,18,0,0,0-5.77.94c-8.1,3-8.79,11.6-8.81,12a.13.13,0,0,0,0,.06,14.66,14.66,0,0,0,6,11.54.84.84,0,0,0,.44.13h.05l3.35-.21a.79.79,0,0,0,.24-1.52,8.62,8.62,0,0,1-5.72-7.07c0-.15,0-.55,0-1.75,0-3.77,1.56-5.38,1.57-5.39a.69.69,0,0,0,.11-.13,15.49,15.49,0,0,1,11.57-5,15.24,15.24,0,0,1,4.68.68.86.86,0,0,0,.27,0,.81.81,0,0,0,.69-.4.78.78,0,0,0-.19-1A13,13,0,0,0,55.69,0Z"/>
			<path class="cls-2"
			      d="M47.88,22.18s-3-1.11-3,.74c0,0-.73,1.15,2.81,2.1,0,0,7.78,2.74,13.18,1.5,0,0,5.37-.78,5.12-3,0,0-.31-1.43-2.17-.25C63.79,23.29,57.83,26.17,47.88,22.18Z"/>
			<path class="cls-3" d="M53,23.66s-3,.89,1.15,3.1c0,0-9-1-9.67-3.88,0,0-.41-2.18,3.84-.72Z"/>
			<ellipse class="cls-8" cx="42.77" cy="14.62" rx="3.09" ry="4.1"/>
			<path class="cls-2"
			      d="M43.47,10.33s2.25.33,2.5,4.18c0,0,0,2.28-2,1.63,0,0-2.58-.43-1.92-3.85C42.07,12.29,42.22,10.47,43.47,10.33Z"/>
			<path class="cls-5"
			      d="M38.89,15c-.26-2.69,1.26-5.05,3.4-5.26s4.09,1.81,4.35,4.5-1.26,5.06-3.4,5.27S39.15,17.7,38.89,15Zm.86-.08c.22,2.22,1.75,3.89,3.41,3.73s2.84-2.1,2.62-4.32S44,10.44,42.37,10.6,39.53,12.7,39.75,14.92Z"/>
			<path class="cls-5"
			      d="M43.53,16.7l.21,0a.4.4,0,0,0,.32-.46.4.4,0,0,0-.46-.32,3.71,3.71,0,0,1-3.83-1.72.41.41,0,0,0-.54-.16.4.4,0,0,0-.15.54A4.46,4.46,0,0,0,43.53,16.7Z"/>
			<path class="cls-5"
			      d="M46.19,21.85a5.64,5.64,0,0,1,1.69.33A27.11,27.11,0,0,0,58,24.3a14.44,14.44,0,0,0,5.84-1,2.49,2.49,0,0,1,1.26-.47.94.94,0,0,1,.91.72c.25,2.2-5.12,3-5.12,3a14.27,14.27,0,0,1-3.17.32,35.15,35.15,0,0,1-10-1.82c-3.54-.95-2.81-2.1-2.81-2.1,0-.84.66-1.07,1.34-1.07m0-.79a1.88,1.88,0,0,0-2.12,1.67,1.45,1.45,0,0,0,0,1c.33.87,1.42,1.53,3.31,2a35.36,35.36,0,0,0,10.25,1.86A14.74,14.74,0,0,0,61,27.29c1.09-.16,6.07-1.05,5.75-3.84a.22.22,0,0,0,0-.08A1.71,1.71,0,0,0,65.05,22a3.21,3.21,0,0,0-1.64.56,14.21,14.21,0,0,1-5.46.92,26.46,26.46,0,0,1-9.79-2.07,6.33,6.33,0,0,0-2-.38Z"/>
			<path class="cls-2"
			      d="M66.4,7.28c-.21-.62,4.36,8.27-2.08,14l-.11.09,0,0a1.22,1.22,0,0,1-1.56-1.86,3.85,3.85,0,0,1,.7-.52,1.42,1.42,0,0,0,.3-.25C64.41,17.9,68.37,12.94,66.4,7.28Z"/>
			<path class="cls-5"
			      d="M45.39,45a.46.46,0,0,0,.47-.46.47.47,0,0,0-.46-.48h0a5.68,5.68,0,0,1-3.65-1.76c-1.36-1.45-2-3.65-1.9-6.53a.47.47,0,1,0-.94,0c-.11,3.15.62,5.58,2.17,7.22a6.54,6.54,0,0,0,4.3,2Z"/>
			<path class="cls-5"
			      d="M39,26.46h0a.47.47,0,0,0,.44-.5c-.14-2.46,0-6.67.83-7.53a.26.26,0,0,1,.21-.09.47.47,0,0,0,.51-.43.47.47,0,0,0-.43-.51,1.17,1.17,0,0,0-.95.36c-1.47,1.43-1.15,7.56-1.11,8.26A.46.46,0,0,0,39,26.46Z"/>
			<path class="cls-5"
			      d="M77.82,52.76,84.69,57s2-2.82,3.77-2.82l.22,0c1.87.25,4.08,1.87,2.89,5.09s-4.5,6.37-6.2,6.54h-.06c-1.91,0-13.43-7-13.43-7h0a5.85,5.85,0,0,0,5.93-6m-5.95,6h0m5.94-7a.89.89,0,0,0-.45.12.93.93,0,0,0-.5.8,4.86,4.86,0,0,1-5,5.11h0a.94.94,0,0,0-.47,1.76c2.79,1.7,11.9,7.17,13.91,7.17h.16c2.23-.23,5.76-3.84,7-7.15a4.68,4.68,0,0,0-.18-4.2,4.8,4.8,0,0,0-3.46-2.16l-.35,0h0c-1.64,0-3.19,1.55-4,2.51L78.31,52a1,1,0,0,0-.49-.14Z"/>
			<path class="cls-5"
			      d="M77.82,53.23a.46.46,0,0,0,.34-.15.47.47,0,0,0,0-.67c-.36-.34-8.84-8.36-13.06-8.36a.47.47,0,1,0,0,.94c3.84,0,12.33,8,12.41,8.11A.51.51,0,0,0,77.82,53.23Z"/>
			<path class="cls-5"
			      d="M42.69,59.77c5.1,0,11.54-5.44,12.29-6.1a6.86,6.86,0,0,1,6.74,1c3.28,2.85,9.38,4.13,9.64,4.18a.46.46,0,0,0,.55-.36.46.46,0,0,0-.36-.56c-.07,0-6.12-1.28-9.21-4-3.41-3-7.61-1.25-7.79-1.18a.57.57,0,0,0-.13.08c-.07.06-7,6.15-12,5.91a6.5,6.5,0,0,1-5.79-3.59,2.15,2.15,0,0,1,0-2.17c.06-.09,5.57-7.16,9.61-7.81a.47.47,0,0,0,.39-.54.46.46,0,0,0-.54-.39c-4.4.71-10,7.84-10.2,8.15a3,3,0,0,0-.1,3.14,7.44,7.44,0,0,0,6.61,4.15Z"/>
			<path class="cls-5"
			      d="M27.56,67.52a4.61,4.61,0,0,0,1-.1c5.4-1,15.35-7,15.77-7.3a.46.46,0,0,0,.16-.65.48.48,0,0,0-.65-.16c-.1.07-10.23,6.2-15.46,7.19a3.4,3.4,0,0,1-2.8-.6c-2.42-1.78-3-6.47-3-6.52s-.29-3,1.08-4.56a3,3,0,0,1,2.21-1H26c3.75,0,4.81,6.39,4.82,6.46a.48.48,0,0,0,.54.39.47.47,0,0,0,.39-.54c0-.31-1.26-7.49-6-7.25a3.9,3.9,0,0,0-2.88,1.36c-1.63,1.91-1.31,5.14-1.29,5.27s.6,5.15,3.35,7.18A4.26,4.26,0,0,0,27.56,67.52Z"/>
			<path class="cls-5"
			      d="M29.87,56.48l.17,0,6-2.32a.47.47,0,0,0,.27-.61.47.47,0,0,0-.61-.27l-6,2.32a.46.46,0,0,0-.27.61A.48.48,0,0,0,29.87,56.48Z"/>
			<path class="cls-5"
			      d="M40.58,56.64a4.78,4.78,0,0,0,4.16-2.28.47.47,0,0,0-.84-.44h0c0,.1-1.31,2.38-4.57,1.63a.46.46,0,0,0-.56.35.48.48,0,0,0,.35.57A6.62,6.62,0,0,0,40.58,56.64Z"/>
			<path class="cls-5"
			      d="M83.35,65.65l.12,0c7.61-2,7.67-10.52,7.67-10.6a.47.47,0,0,0-.47-.47h0a.47.47,0,0,0-.47.47c0,.32-.07,7.88-7,9.69a.47.47,0,0,0-.33.58A.46.46,0,0,0,83.35,65.65Z"/>
			<path class="cls-5"
			      d="M72.65,56.31a6,6,0,0,0,2.86-.75.47.47,0,1,0-.48-.81h0a4.54,4.54,0,0,1-4.9-.27.47.47,0,1,0-.58.74A4.89,4.89,0,0,0,72.65,56.31Z"/>
			<path class="cls-5"
			      d="M75,61.13h.09c3-.54,5.3-6.57,5.39-6.82a.47.47,0,0,0-.27-.61.47.47,0,0,0-.61.28c-.59,1.6-2.6,5.85-4.68,6.22a.46.46,0,0,0-.38.54A.47.47,0,0,0,75,61.13Z"/>
			<path class="cls-5"
			      d="M40.57,62.19a.47.47,0,0,0,.2-.9c-.06,0-6.19-2.91-6.11-6.43a.46.46,0,0,0-.46-.48.46.46,0,0,0-.48.46C33.63,59,40.1,62,40.37,62.14A.49.49,0,0,0,40.57,62.19Z"/>
			<path class="cls-5"
			      d="M68.08,28.24a1.44,1.44,0,0,1-.28-1.06.48.48,0,0,1,.57-.35.46.46,0,0,1,.35.56,2.75,2.75,0,0,0,2,1.62c1.12.23,1.68-1,1.7-1.06a.48.48,0,0,1,.62-.24.47.47,0,0,1,.25.62,2.56,2.56,0,0,1-2.76,1.6,3.37,3.37,0,0,1-.74-.23A3.93,3.93,0,0,1,68.08,28.24ZM72.45,28h0Z"/>
			<path class="cls-5"
			      d="M39.82,35.63a.5.5,0,0,0,.24-.34c0-.06.91-5.91-3.59-8.39a.47.47,0,0,0-.46.83c3.93,2.16,3.12,7.36,3.12,7.41a.46.46,0,0,0,.39.54A.45.45,0,0,0,39.82,35.63Z"/>
			<path class="cls-5"
			      d="M37.51,36.52a.5.5,0,0,0,.24-.37c0-.29.68-7.17-3.92-8.56a.48.48,0,0,0-.28.91c3.86,1.16,3.27,7.49,3.26,7.56a.46.46,0,0,0,.42.51A.52.52,0,0,0,37.51,36.52Z"/>
			<path class="cls-5"
			      d="M89.38,40.76a4.32,4.32,0,0,0,4.11-2.15,3.25,3.25,0,0,0-.57-3.73,3.82,3.82,0,0,0-2.22-1.19,1.47,1.47,0,0,0,.44-1.17c-.09-.51-.57-.85-1.41-1a5.49,5.49,0,0,0-4.88,1.75.47.47,0,0,0,.05.67.49.49,0,0,0,.67-.06,4.52,4.52,0,0,1,4-1.43c.56.1.65.25.65.25,0,.2-.62.85-1.41,1.33l0,0a.47.47,0,0,0-.15.65.46.46,0,0,0,.64.15h0a2.43,2.43,0,0,1,3,.69,2.32,2.32,0,0,1,.4,2.65C92,39.43,90.46,40,88.46,39.75a10,10,0,0,1-2.89-.65.49.49,0,0,0,.05-.51.47.47,0,0,0-.63-.2.83.83,0,0,0-.47.84c.09.51.61,1,3.82,1.46A7.47,7.47,0,0,0,89.38,40.76Z"/>
			<path class="cls-5"
			      d="M21.75,41.43a9.83,9.83,0,0,0,3.8-.86l3.06-1.39a.47.47,0,1,0-.39-.86l-3,1.38c-2.59,1.11-4.91,1-6.37-.2a3,3,0,0,1-1.07-3C18.29,34.29,21.94,35,22,35a.46.46,0,0,0,.55-.36.47.47,0,0,0-.34-.56c-.82-.2-2.11-.72-2.28-1.18,0,0,0-.1.07-.23.47-.64,3.21-.27,5.48.44a.47.47,0,0,0,.59-.3.48.48,0,0,0-.31-.6c-.89-.28-5.41-1.6-6.52-.1A1.12,1.12,0,0,0,19,33.19a1.73,1.73,0,0,0,.66.8,3.15,3.15,0,0,0-2.87,2.27,4,4,0,0,0,1.38,4A5.34,5.34,0,0,0,21.75,41.43Z"/>
			<path class="cls-2"
			      d="M47,43.38s-3.24-.9-3.33.6c0,0-.8.93,3.09,1.69,0,0,8.55,2.22,14.49,1.22,0,0,5.9-.64,5.62-2.41,0,0-.34-1.16-2.39-.2C64.51,44.28,58,46.61,47,43.38Z"/>
			<path class="cls-3" d="M52.66,44.57s-3.26.73,1.26,2.51c0,0-9.87-.8-10.62-3.13,0,0-.46-1.77,4.22-.58Z"/>
			<path class="cls-5"
			      d="M45.17,43.11a8,8,0,0,1,1.86.27A39.24,39.24,0,0,0,58.1,45.09a21,21,0,0,0,6.41-.81,3.38,3.38,0,0,1,1.39-.38,1,1,0,0,1,1,.58c.28,1.77-5.62,2.41-5.62,2.41a21.87,21.87,0,0,1-3.49.26,50.71,50.71,0,0,1-11-1.48C42.9,44.91,43.7,44,43.7,44c0-.68.73-.87,1.47-.87m0-.64c-1.34,0-2.2.5-2.32,1.35a.89.89,0,0,0,0,.82c.37.69,1.56,1.23,3.64,1.65a51.71,51.71,0,0,0,11.26,1.5,22.45,22.45,0,0,0,3.65-.27c1.2-.14,6.67-.86,6.32-3.11,0,0,0,0,0-.07a1.81,1.81,0,0,0-1.85-1.08,4.44,4.44,0,0,0-1.8.45,20.59,20.59,0,0,1-6,.74,38.14,38.14,0,0,1-10.76-1.67,9.3,9.3,0,0,0-2.17-.31Z"/>
			<path class="cls-9" d="M96.1,105.71s1,6.71-4,7.05c0,0-7.61,1.19-7.29-5.52S96.1,105.71,96.1,105.71Z"/>
			<path class="cls-10"
			      d="M95.28,109.82s-6.88-.31-7-2.86-3.42.71-3.42.71l.53,2.74,3.57,2.43,5.15-.73,1.22-2Z"/>
			<path class="cls-5"
			      d="M90.36,113.39a10.93,10.93,0,0,0,1.26-.08,5.39,5.39,0,0,0,4-2.13,7.76,7.76,0,0,0,1-5.56.48.48,0,0,0-.56-.37.48.48,0,0,0-.37.56s.59,2.9-.8,4.83a4.52,4.52,0,0,1-3.32,1.73c-2.17.25-3.83-.18-4.93-1.29a4.84,4.84,0,0,1-1.29-3.78.48.48,0,0,0-.41-.53.49.49,0,0,0-.53.41,5.85,5.85,0,0,0,1.56,4.57A6,6,0,0,0,90.36,113.39Z"/>
			<path class="cls-9" d="M20.59,105.71s-1,6.71,4,7.05c0,0,7.6,1.19,7.28-5.52S20.59,105.71,20.59,105.71Z"/>
			<path class="cls-10"
			      d="M21.4,109.82s6.88-.31,7.05-2.86,3.42.71,3.42.71l-.53,2.74-3.57,2.43-5.15-.73-1.22-2Z"/>
			<polygon class="cls-9" points="36.8 107.67 49.45 89.51 27.29 87.7 36.8 107.67"/>
			<polygon class="cls-9" points="16.6 103.74 27.21 88.48 26.87 87.9 16.4 84.73 16.6 103.74"/>
			<polygon class="cls-9" points="49.78 89.53 72.33 89.19 61.75 107.84 49.78 89.53"/>
			<polygon class="cls-9" points="90.87 87.3 72.33 89.19 82.44 107.24 90.87 87.3"/>
			<path class="cls-9" d="M98.9,84.71l-.31,19-7.89-16S98.69,85.51,98.9,84.71Z"/>
			<path class="cls-10" d="M55.12,98.2s13.62,3.33,14.53-8.9l2.68-.11L61.75,107.84Z"/>
			<path class="cls-10" d="M77.57,98.84s7,2.63,10-10.87l3.31-.67-8.15,19.52Z"/>
			<path class="cls-10" d="M94.8,96.63s5.17-6.74,2.81-11.15l1.29-1.67-.3,19.11Z"/>
			<path class="cls-10" d="M32,98.08l4.8,9.59,13-18.14-3.9-.28S41.21,104.53,32,98.08Z"/>
			<path class="cls-10" d="M16.5,94.23s5.3.83,7.75-6.53l2.62.2L16.6,103.74Z"/>
			<ellipse class="cls-11" cx="57.28" cy="84.21" rx="40.88" ry="5.3"/>
			<path class="cls-12" d="M16.6,103.74,27.21,88.48l9.59,19.19S18.22,106.44,16.6,103.74Z"/>
			<polygon class="cls-12" points="61.26 108.48 72.36 89.84 82.44 107.24 61.26 108.48"/>
			<polygon class="cls-12" points="49.78 89.53 36.8 107.67 61.26 108.15 49.78 89.53"/>
			<path class="cls-12" d="M82.43,107.24l8.31-18.93,7.85,15.37S95.39,107,82.43,107.24Z"/>
			<path class="cls-5"
			      d="M57.65,79c22.37,0,40.52,2.23,40.52,5s-18.15,5-40.52,5-40.52-2.23-40.52-5,18.14-5,40.52-5m0-.94a250.14,250.14,0,0,0-28.77,1.46,58.8,58.8,0,0,0-8.83,1.61c-1.8.52-3.87,1.32-3.87,2.84s2.07,2.32,3.87,2.84a58.8,58.8,0,0,0,8.83,1.61,247.66,247.66,0,0,0,28.77,1.47,247.48,247.48,0,0,0,28.76-1.47,58.56,58.56,0,0,0,8.83-1.61c1.8-.52,3.87-1.31,3.87-2.84S97,81.6,95.24,81.08a58.56,58.56,0,0,0-8.83-1.61A250,250,0,0,0,57.65,78Z"/>
			<path class="cls-5"
			      d="M99.37,84.28a.47.47,0,0,0-.94,0v19.07s0,0,0,.05v0c0,.57-2.47,1.92-11.82,3a262.86,262.86,0,0,1-29,1.41,255.49,255.49,0,0,1-29-1.46c-9.35-1.12-11.82-2.48-11.82-3.05a.33.33,0,0,0,0-.17.39.39,0,0,0,0-.18V83.92a.47.47,0,1,0-.94,0V103a.57.57,0,0,0,0,.18.47.47,0,0,0,0,.17c0,.62,0,2.47,12.64,4a257.89,257.89,0,0,0,29.08,1.46,262.16,262.16,0,0,0,29.07-1.42c12.65-1.47,12.65-3.26,12.65-3.94a.06.06,0,0,0,0,0,.09.09,0,0,0,0-.05Z"/>
			<path class="cls-5"
			      d="M61.65,108.7a.44.44,0,0,1-.39-.22L49.71,90.16l-12.46,17.9a.48.48,0,0,1-.43.2.46.46,0,0,1-.38-.26L27.19,89.1l-9.93,14.52a.47.47,0,0,1-.78-.53L26.87,87.9a.47.47,0,0,1,.81.06l9.25,18.9L49.34,89a.48.48,0,0,1,.4-.21.51.51,0,0,1,.39.22l11.51,18.26L71.92,89.43a.47.47,0,0,1,.41-.24h0a.47.47,0,0,1,.41.24l9.74,16.84L90.28,88a.45.45,0,0,1,.42-.28.44.44,0,0,1,.43.26l7.72,15.46a.48.48,0,0,1-.21.64.47.47,0,0,1-.63-.22L90.74,89.29,83,107.51a.46.46,0,0,1-.4.28.47.47,0,0,1-.44-.23l-9.8-17L62.06,108.46a.49.49,0,0,1-.4.24Z"/>
			<path class="cls-5"
			      d="M26.32,113.39a11.22,11.22,0,0,1-1.26-.08,5.41,5.41,0,0,1-4-2.13c-1.64-2.27-1-5.43-1-5.56a.48.48,0,0,1,.56-.37.48.48,0,0,1,.37.56s-.59,2.9.81,4.83a4.48,4.48,0,0,0,3.31,1.73c2.17.25,3.83-.18,4.93-1.29a4.84,4.84,0,0,0,1.29-3.78.48.48,0,0,1,.41-.53.49.49,0,0,1,.53.41,5.85,5.85,0,0,1-1.56,4.57A6,6,0,0,1,26.32,113.39Z"/>
			<path class="cls-5"
			      d="M63.27,29.58a1.76,1.76,0,1,1-1.76,1.75,1.75,1.75,0,0,1,1.76-1.75m0-.7a2.46,2.46,0,1,0,2.45,2.45,2.46,2.46,0,0,0-2.45-2.45Z"/>
			<path class="cls-5"
			      d="M63.09,30h0a.42.42,0,0,1,.42.42V32.6a.1.1,0,0,1-.1.1h0a.42.42,0,0,1-.42-.42V30.07A.1.1,0,0,1,63.09,30Z"
			      transform="translate(42.49 -36.13) rotate(46.55)"/>
			<path class="cls-13"
			      d="M64.29,32.17l-.6-.64a.13.13,0,0,0-.19,0l-.13.12a.13.13,0,0,0,0,.19l.42.45a.35.35,0,0,0,.51,0A.11.11,0,0,0,64.29,32.17Z"/>
			<path class="cls-13"
			      d="M62.22,30.47l.59.64a.14.14,0,0,0,.2,0l.12-.12a.13.13,0,0,0,0-.19l-.41-.45a.36.36,0,0,0-.51,0A.08.08,0,0,0,62.22,30.47Z"/>
			<circle class="cls-13" cx="52.9" cy="36.29" r="1.21"/>
			<path class="cls-5"
			      d="M52.9,35.27a1,1,0,1,1,0,2,1,1,0,0,1,0-2m0-.61a1.63,1.63,0,1,0,1.63,1.63,1.63,1.63,0,0,0-1.63-1.63Z"/>
			<circle class="cls-2" cx="52.63" cy="35.98" r="0.59"/>
			<path class="cls-5"
			      d="M60.65,34a1.51,1.51,0,0,1,1.5,1.51v7.08a1.5,1.5,0,0,1-1.5,1.51H52.08a1.51,1.51,0,0,1-1.51-1.51V35.46A1.52,1.52,0,0,1,52.08,34h8.57m0-.94H52.08a2.45,2.45,0,0,0-2.45,2.45v7.08A2.45,2.45,0,0,0,52.08,45h8.57a2.45,2.45,0,0,0,2.45-2.45V35.46A2.45,2.45,0,0,0,60.65,33Z"/>
		</g>
	</g>
</svg>