<svg xmlns="http://www.w3.org/2000/svg" viewBox="0 0 113.39 113.39">
	<defs>
		<style>
			.cls-1{fill:none;}.cls-2{fill:#144451;}.cls-3{fill:#6b8281;}.cls-4{fill:#22af54;}.cls-5{fill:#e5f1f9;}.cls-6{fill:#8cc4dd;}.cls-7{fill:#eb5645;}.cls-8{fill:#111a28;opacity:0.61;}.cls-9{fill:#b0d9e8;}.cls-10{fill:#daf0f5;}
		</style>
	</defs>
	<g id="Layer_2" data-name="Layer 2">
		<g id="Layer_1-2" data-name="Layer 1">
			<rect class="cls-1" width="113.39" height="113.39"/>
			<path class="cls-2"
			      d="M94.88,39.4H107a3.15,3.15,0,0,1,3.15,3.15V54.62A3.15,3.15,0,0,1,107,57.77H94.88a3.15,3.15,0,0,1-3.15-3.15V42.55a3.15,3.15,0,0,1,3.15-3.15m0-1.17a4.33,4.33,0,0,0-4.32,4.32V54.62a4.33,4.33,0,0,0,4.32,4.32H107a4.32,4.32,0,0,0,4.31-4.32V42.55A4.32,4.32,0,0,0,107,38.23Z"/>
			<rect class="cls-3" x="91.73" y="39.4" width="18.38" height="18.38" rx="2.49"/>
			<ellipse class="cls-4" cx="100.92" cy="48.43" rx="4.05" ry="4.08"
			         transform="matrix(1, -0.02, 0.02, 1, -1.01, 2.17)"/>
			<path class="cls-2"
			      d="M104,47a3.4,3.4,0,1,1-4.52-1.65A3.42,3.42,0,0,1,104,47m1.84-.87a5.42,5.42,0,0,0-7.22-2.64A5.49,5.49,0,0,0,96,50.74a5.42,5.42,0,0,0,7.23,2.64,5.48,5.48,0,0,0,2.62-7.27Z"/>
			<path class="cls-5" d="M102.28,48.94a2,2,0,0,1-2.62-1,2,2,0,0,1,1-2.64,2,2,0,0,1,1.67,3.6Z"/>
			<path class="cls-5"
			      d="M21,50.56S11.86,55,9.35,59.05L3.07,65.76.55,75.16,1.6,80.75a20.28,20.28,0,0,0,6,9.32C12.22,93.89,14,93.93,14,93.93l1.38,1.34,1.78,3.46,5,2.16,4.73-.74,2.43-1.52,1.3-1.94V95.06l-1.3-2.46-2-.4L28.85,90l-.16-1-.63-1.42-1-.63-1.79-.31-2.2.63-2.47-2.94-3.94-5.2-2.16-2.26,1.85-3L17.51,73l1.09,8.32,4.71,5.72,3.12.34,2.63,1.37-1,2.89,0,1.1,1.53,6.56,20.58-1.78,2.57-1.16.75-.78V94.48L52.9,93l-2.15-.11.44-1.15,1.6-2.21-.36-9-.56-7.91,1.62,1,4.61,4.81,5.08,4,5.26.11L74,80.12l4.57-4.8L86.12,66l.58-1L88.34,64l3.15-2.78.53-5V53.84s2.75-1,2.57-2.52-1-1.26-1-1.26l-5.88,0L83.2,51.69l-3.94,2-1.63,1.68-3.31,2.58L68,65l-2.68-2.35-5.19-4.67-5.37-3.36L50.59,52l-2-.94L42.4,52.92l-5.58.5-6.44-.84-5.83-.94Z"/>
			<path class="cls-6"
			      d="M52.67,86.51s-1,3.46-8,3.46H35.05s-3.17-.11-3.17-4V69.32l-2,.92-1,2.2.24,16.32.79,2.36,1.66,2.1,3.64-.77H50.27l2.4-2.38Z"/>
			<path class="cls-5"
			      d="M23.62,92.84s-4.86-1.38-5,1.07c0,0-1.24,1.56,4.57,2.71,0,0,12.78,3.4,21.75,1.58,0,0,8.89-1.21,8.54-4.12,0,0-.47-1.89-3.59-.26C49.86,93.82,39.93,97.84,23.62,92.84Z"/>
			<path class="cls-6" d="M39.41,94.9l-8.77-1v1.66L30.59,98l-.74.51,2.31.74h7S36.15,97.21,39.41,94.9Z"/>
			<path class="cls-6"
			      d="M48,52.11S40.6,56.8,32.37,56.27s-11.26,0-11.26,0-5.16-1.09-3-3.55,2.9-2.2,2.9-2.2l8.36,2.75,5.47-.39,3.49.51,8.3-1.69Z"/>
			<path class="cls-6"
			      d="M21.11,68s0,.18,0,.5c.26,2.89,1.64,17.28,4.13,18.13,2.78.94-2.2.63-2.2.63l-4.48-6L17.51,73Z"/>
			<path class="cls-6" d="M16.55,90.6S1.9,82.08,1.2,72.74L.82,76.6s1.25,6.32,3.6,9.91,9.09,7.32,9.09,7.32Z"/>
			<path class="cls-6" d="M21.29,54.21S6.29,60.42.82,71.47l1.57-4.61,1.78-2.74L7.32,60.4,12.22,56l5.34-3.25Z"/>
			<path class="cls-6"
			      d="M74,80.12s-11.48,3.44-14.22-5.59-6.91-11-6.91-11l-.55,8,2.51,4,7.68,6.31,3.46.84,5.66-.42Z"/>
			<path class="cls-6"
			      d="M20.47,89s-5.93,8.75,2.82,11.76l-2.39-.44-2.77-1.18-2.4-2.44L15,94.34l.07-1.25,2-3.16Z"/>
			<path class="cls-6" d="M67.6,65.14l-2.1,1.51s-4.82-7.82-7.4-9.71S67.6,65.14,67.6,65.14Z"/>
			<path class="cls-6"
			      d="M89.39,54l.89,3.25-1.15,1.85H86.4l-3.26-1.11-.81.47,3.18,4.69.61,1.29,2.69-.47S93.26,58.06,89.39,54Z"/>
			<path class="cls-6" d="M93.59,50.06s0,3.08-5.3,2.7,2.65.67,2.65.67L93.59,53l1-1.25S95,50.27,93.59,50.06Z"/>
			<path class="cls-2"
			      d="M48.5,69.32a3.29,3.29,0,0,1,3.37,3.23l.34,15.93A3.31,3.31,0,0,1,49,91.85l-15.92.33A3.31,3.31,0,0,1,29.67,89L29.34,73a3.31,3.31,0,0,1,3.24-3.37l15.92-.33m0-1.29-15.93.34a4.58,4.58,0,0,0-4.49,4.68L28.39,89a4.59,4.59,0,0,0,4.68,4.49L49,93.13a4.59,4.59,0,0,0,4.49-4.68l-.33-15.93A4.6,4.6,0,0,0,48.48,68Z"/>
			<ellipse class="cls-7" cx="34.63" cy="73.5" rx="2.41" ry="2.43"
			         transform="translate(-1.56 0.76) rotate(-1.22)"/>
			<path class="cls-2"
			      d="M36.46,72.64a2,2,0,0,1-1,2.71,2,2,0,1,1,1-2.71m1.1-.52A3.24,3.24,0,1,0,36,76.45a3.24,3.24,0,0,0,1.56-4.33Z"/>
			<path class="cls-5" d="M35.44,73.81A1.18,1.18,0,1,1,36,72.24,1.19,1.19,0,0,1,35.44,73.81Z"/>
			<path class="cls-2"
			      d="M22.43,21.11c4.65-3.85,13.36-8.76,24.46-4.95A7.59,7.59,0,0,1,50,18.21c2.57,2.78,7,9.56,3.36,20.58,0,0-4.1,12.42-19.21,9.29,0,0-13.1-.39-15-12.39l-.28-6.44A10,10,0,0,1,22.43,21.11Z"/>
			<path class="cls-8"
			      d="M52.27,39.93s-14.93,7.25-25.2-3.76c0,0-6.69-5-3.26-14.41,0,0-3.16-1.7-5,5.83,0,0-1.89,17.58,15.54,19.41C34.3,47,48.34,50.41,52.27,39.93Z"/>
			<path class="cls-9"
			      d="M23.61,47.26s-8.34-5.62-8.35-16.08c0,0,.86-12.42,12.27-16.65,0,0,11.51-4.29,19.91,2.62a25.08,25.08,0,0,0-19.55,2.16S23.42,22,22.07,24.05c0,0-2.67,2.58-2.68,8.79s-.11-.35-.11-.35A14.16,14.16,0,0,0,28.55,47Z"/>
			<path class="cls-2"
			      d="M35.64,13.21a18.24,18.24,0,0,1,11.8,3.94,23.7,23.7,0,0,0-7.31-1.07,24.3,24.3,0,0,0-12.24,3.23S23.42,22,22.07,24.05c0,0-2.67,2.58-2.68,8.79,0,1.76,0,2.49,0,2.64l0-.17c0-.67-.06-2.82-.06-2.82a13,13,0,0,0,.06,2.82c0,.12,0,.2,0,.2v0A13.91,13.91,0,0,0,28.55,47l-4.94.31s-8.34-5.62-8.35-16.08c0,0,.86-12.42,12.27-16.65a25.57,25.57,0,0,1,8.11-1.32m0-1.16a26.52,26.52,0,0,0-8.52,1.39c-12,4.44-13,17.13-13,17.66v.08c0,11,8.49,16.8,8.85,17a1.19,1.19,0,0,0,.66.2h.07l4.94-.31A1.17,1.17,0,0,0,29,45.87a12.7,12.7,0,0,1-8.44-10.44c0-.23,0-.82,0-2.59,0-5.56,2.31-7.94,2.32-8a1,1,0,0,0,.16-.2c1-1.48,4.27-3.67,5.44-4.37a23.92,23.92,0,0,1,18.57-2.07,1.07,1.07,0,0,0,.39.07,1.19,1.19,0,0,0,1-.59,1.17,1.17,0,0,0-.28-1.48,19.17,19.17,0,0,0-12.54-4.2Z"/>
			<path class="cls-5"
			      d="M24.72,21a.32.32,0,0,1-.5-.34c.43-1.63,1.77-5.38,5.44-6.7,0,0,10.22-3.36,18,2.7a.33.33,0,0,1-.32.57C43.8,16.06,35.28,14.43,24.72,21Z"/>
			<path class="cls-5"
			      d="M23.11,46.16s-4.37-1.64-4.48,1.09c0,0-1.07,1.71,4.15,3.1,0,0,11.49,4,19.47,2.22,0,0,7.93-1.16,7.56-4.4,0,0-.46-2.11-3.21-.37C46.6,47.8,37.8,52.06,23.11,46.16Z"/>
			<path class="cls-6" d="M30.67,48.34s-4.38,1.33,1.7,4.58c0,0-13.28-1.47-14.28-5.72,0,0-.61-3.22,5.67-1.06Z"/>
			<ellipse class="cls-9" cx="16.55" cy="33.65" rx="4.56" ry="6.06"/>
			<path class="cls-5"
			      d="M17.59,27.31s3.33.49,3.7,6.17c0,0,0,3.37-2.93,2.41,0,0-3.81-.64-2.84-5.69C15.52,30.2,15.75,27.52,17.59,27.31Z"/>
			<path class="cls-2"
			      d="M10.83,34.21c-.39-4,1.86-7.47,5-7.78s6,2.68,6.43,6.66-1.86,7.46-5,7.77S11.22,38.18,10.83,34.21Zm1.27-.13c.32,3.28,2.58,5.75,5,5.51s4.2-3.1,3.88-6.38-2.58-5.74-5-5.5S11.78,30.81,12.1,34.08Z"/>
			<path class="cls-2"
			      d="M17.69,36.72l.3,0a.58.58,0,0,0,.47-.68.6.6,0,0,0-.68-.47c-.15,0-3.9.66-5.65-2.54a.59.59,0,0,0-1,.56C13,36.91,16.61,36.83,17.69,36.72Z"/>
			<path class="cls-2"
			      d="M20.61,45.67a8.3,8.3,0,0,1,2.5.49A39.81,39.81,0,0,0,38,49.29,21.3,21.3,0,0,0,46.6,47.8a3.64,3.64,0,0,1,1.87-.69,1.38,1.38,0,0,1,1.34,1.06c.37,3.24-7.56,4.4-7.56,4.4a21,21,0,0,1-4.69.48,51.74,51.74,0,0,1-14.78-2.7c-5.22-1.39-4.15-3.1-4.15-3.1.05-1.24,1-1.58,2-1.58m0-1.16c-1.81,0-3,.91-3.12,2.46a2.13,2.13,0,0,0,0,1.49c.5,1.27,2.11,2.26,4.9,3a52.65,52.65,0,0,0,15.13,2.74,22.3,22.3,0,0,0,4.91-.49c1.61-.24,9-1.57,8.5-5.68a.5.5,0,0,0,0-.12,2.53,2.53,0,0,0-2.48-2,4.68,4.68,0,0,0-2.42.82A21.11,21.11,0,0,1,38,48.12a38.94,38.94,0,0,1-14.47-3,9.27,9.27,0,0,0-2.91-.56Z"/>
			<path class="cls-5"
			      d="M36.6,20.63s-9.45-2.1-12.81,7.59a7,7,0,0,0-.3,1.77.86.86,0,0,0,1.67.42c.88-2.26,3.33-7.31,7.89-8.15C39,21.17,36.6,20.63,36.6,20.63Z"/>
			<path class="cls-10"
			      d="M34.67,44.65c4.75-.17,15.1-1.89,17-13.54a.38.38,0,0,1,.75,0,12.46,12.46,0,0,1-2.61,11.2,3.65,3.65,0,0,1-.6.58,16.61,16.61,0,0,1-14.64,2.56A.39.39,0,0,1,34.67,44.65Z"/>
			<path class="cls-2"
			      d="M47.17,58.64a2.74,2.74,0,1,1-2.74,2.74,2.74,2.74,0,0,1,2.74-2.74m0-1.08A3.83,3.83,0,1,0,51,61.38a3.83,3.83,0,0,0-3.82-3.82Z"/>
			<path class="cls-2"
			      d="M46.91,59.25h.21a.48.48,0,0,1,.48.48v3.67a.12.12,0,0,1-.12.12h-.21a.48.48,0,0,1-.48-.48V59.37A.12.12,0,0,1,46.91,59.25Z"
			      transform="translate(59.3 -15.1) rotate(46.55)"/>
			<path class="cls-7"
			      d="M48.83,62.69l-.93-1a.22.22,0,0,0-.31,0l-.19.18a.21.21,0,0,0,0,.3l.65.7a.56.56,0,0,0,.79,0A.14.14,0,0,0,48.83,62.69Z"/>
			<path class="cls-7"
			      d="M45.6,60l.93,1a.21.21,0,0,0,.3,0l.2-.18a.22.22,0,0,0,0-.31l-.64-.69a.57.57,0,0,0-.8,0A.15.15,0,0,0,45.6,60Z"/>
			<path class="cls-2"
			      d="M67.6,65.14A.56.56,0,0,0,68,65a.58.58,0,0,0,0-.83c-.45-.43-11.28-10.73-19.21-13.36a.59.59,0,0,0-.74.37.6.6,0,0,0,.37.74c7.68,2.55,18.67,13,18.78,13.1A.61.61,0,0,0,67.6,65.14Z"/>
			<path class="cls-2"
			      d="M.7,71a.36.36,0,0,0,0,.1.5.5,0,0,0,.65.36c7.89-3.23,13.54,3.8,13.78,4.1a.46.46,0,0,0,.7.06.66.66,0,0,0,0-.82C15.8,74.68,9.52,66.84,1,70.33A.55.55,0,0,0,.7,71Z"/>
			<path class="cls-2"
			      d="M2.88,64.72a.41.41,0,0,0,0,.11.58.58,0,0,0,.6.57c10-.36,13.93,8.25,14.09,8.62a.59.59,0,0,0,.77.3.58.58,0,0,0,.3-.77c0-.1-4.4-9.7-15.2-9.32A.58.58,0,0,0,2.88,64.72Z"/>
			<path class="cls-2"
			      d="M77,56.27a.59.59,0,0,0,.48-.25c.06-.09,4.29-6,14-5.59.94,0,2.34.17,2.61.61.1.18,0,.46-.15.67-1.14,1.93-4.2,1.45-4.23,1.45a.58.58,0,0,0-.2,1.15c.16,0,3.88.62,5.43-2a1.72,1.72,0,0,0,.15-1.86c-.72-1.22-3.13-1.2-3.61-1.19-10.32-.38-14.77,5.83-15,6.09a.59.59,0,0,0,.15.82A.56.56,0,0,0,77,56.27Z"/>
			<path class="cls-2"
			      d="M87.72,59.62A3.94,3.94,0,0,0,90,59a2.94,2.94,0,0,0,1-2.85,3.83,3.83,0,0,0-1.73-3c-2.43-1.52-6.44-.1-6.61,0a.59.59,0,0,0,.4,1.1s3.65-1.29,5.59-.07a2.68,2.68,0,0,1,1.19,2.18,1.83,1.83,0,0,1-.54,1.79c-1.38,1-4.95-.17-6.21-.71a.6.6,0,0,0-.77.31.59.59,0,0,0,.31.77A14.85,14.85,0,0,0,87.72,59.62Z"/>
			<path class="cls-2"
			      d="M86.7,65h0a5.65,5.65,0,0,0,4.58-2.23c2.38-3.27.88-8.9.81-9.14a.58.58,0,1,0-1.12.31s1.42,5.33-.63,8.14a4.56,4.56,0,0,1-3.69,1.76.58.58,0,0,0,0,1.16Z"/>
			<path class="cls-2"
			      d="M66.09,83.22a17.23,17.23,0,0,0,4.5-.65c6.31-1.75,16.18-16.38,16.6-17a.61.61,0,0,0,0-.61C81.3,54.08,76,55.38,75.72,55.44a.61.61,0,0,0-.3.2c-1.92,2.38-7.29,8.81-9.09,9.88a.58.58,0,1,0,.6,1c2.19-1.3,8.23-8.7,9.26-10,.86-.08,5,0,9.83,8.66C84.58,67.3,75.71,79.94,70.26,81.45c-.07,0-5.57,1.67-8.46-.59a43.09,43.09,0,0,1-9-9.89c.18-1.17.95-6.53-.07-9a.58.58,0,0,0-.76-.32.57.57,0,0,0-.32.76c1,2.48,0,8.58,0,8.64a.56.56,0,0,0,.08.4,43,43,0,0,0,9.42,10.38A8.13,8.13,0,0,0,66.09,83.22Z"/>
			<path class="cls-2"
			      d="M14.1,77.06a.58.58,0,0,0,.41-.17c6.37-6.37,8.2-11.28,8.27-11.48a.58.58,0,1,0-1.09-.4s-1.84,4.88-8,11a.6.6,0,0,0,0,.83A.63.63,0,0,0,14.1,77.06Z"/>
			<path class="cls-2"
			      d="M14.1,94.65a.6.6,0,0,0,.52-.33,10.79,10.79,0,0,1,9-6,.58.58,0,0,0,.45-.94L16.4,77.53c-.07-.1-2.08-2.79-6.22-1.32a.58.58,0,0,0-.36.74.58.58,0,0,0,.75.36c3.29-1.17,4.83.84,4.9.92l7,9.06a11.88,11.88,0,0,0-8.68,6A20.74,20.74,0,0,1,1.49,78.19c0-.1-1.94-7.87,4.29-15.49,5.27-6.45,14.85-11.31,14.94-11.36a.58.58,0,0,0-.52-1c-.4.2-9.89,5-15.32,11.66C-1.74,70.06.27,78.12.35,78.46A21.84,21.84,0,0,0,13.92,94.62.57.57,0,0,0,14.1,94.65Z"/>
			<path class="cls-2"
			      d="M18.54,81.33h.06a.58.58,0,0,0,.52-.64l-.81-8.31a.59.59,0,0,0-.64-.52.58.58,0,0,0-.52.64L18,80.81A.58.58,0,0,0,18.54,81.33Z"/>
			<path class="cls-2"
			      d="M23.16,101.34h.47c3.17-.14,6-1.66,7.28-3.87a3.42,3.42,0,0,0,.4-3,4.47,4.47,0,0,0-2.87-2.17,4.88,4.88,0,0,0,1-2A2.88,2.88,0,0,0,28.21,87c-2.46-1.56-7,.9-7.18,1a.58.58,0,1,0,.56,1c1.14-.62,4.43-2,6-1a1.64,1.64,0,0,1,.72,1.78,3.11,3.11,0,0,1-1.15,2.06.61.61,0,0,0-.6.56c0,.51.41.63.8.73.73.2,2.43.66,2.88,1.73a2.31,2.31,0,0,1-.34,2c-1.06,1.87-3.53,3.15-6.31,3.27A7.9,7.9,0,0,1,16.65,97l-1.55-4a.58.58,0,0,0-.75-.34.59.59,0,0,0-.33.76l1.57,4a.24.24,0,0,0,.06.11A8.93,8.93,0,0,0,23.16,101.34Z"/>
			<path class="cls-2"
			      d="M29.09,98.55a5.4,5.4,0,0,0,.26-.55,58,58,0,0,0,10,.8,28.85,28.85,0,0,0,5.26-.53s8.89-1.2,8.54-4.11a1.39,1.39,0,0,0-1.48-.93,4.87,4.87,0,0,0-2.1.67,29.56,29.56,0,0,1-9.67,1.51,48.42,48.42,0,0,1-10-.87,4.75,4.75,0,0,0-.29-1.14,47.85,47.85,0,0,0,10.28,1A29.29,29.29,0,0,0,49,93a6.16,6.16,0,0,1,2.73-.79,2.57,2.57,0,0,1,2.73,1.72.36.36,0,0,1,0,.1c.45,3.69-7.81,5-9.62,5.29a31.2,31.2,0,0,1-5.5.55A60.93,60.93,0,0,1,28.82,99,3.35,3.35,0,0,0,29.09,98.55Z"/>
			<path class="cls-2"
			      d="M107.84,35.16a.22.22,0,0,1-.14,0,.2.2,0,0,1-.06-.14V33.21h-1.73a.17.17,0,0,1-.19-.19v-.27a.19.19,0,0,1,.19-.2h1.73v-1.7a.17.17,0,0,1,.06-.14.18.18,0,0,1,.14-.06h.29a.21.21,0,0,1,.2.2v1.7h1.74a.19.19,0,0,1,.19.2V33a.17.17,0,0,1-.19.19h-1.74V35a.19.19,0,0,1-.2.19Z"/>
			<path class="cls-2"
			      d="M112.74,35.44a.19.19,0,0,1-.13,0,.2.2,0,0,1-.06-.14V30.52l-1.4,1.08a.2.2,0,0,1-.15,0,.15.15,0,0,1-.12-.07l-.22-.28a.19.19,0,0,1,0-.16.2.2,0,0,1,.08-.12l1.84-1.42a.21.21,0,0,1,.11-.05h.54a.18.18,0,0,1,.14.06.16.16,0,0,1,.06.13v5.53a.2.2,0,0,1-.06.14.22.22,0,0,1-.14,0Z"/>
			<path class="cls-2"
			      d="M105.11,26.65a.11.11,0,0,1-.1,0,.18.18,0,0,1,0-.11V25h-1.25a.12.12,0,0,1-.1,0,.17.17,0,0,1,0-.12v-.23a.15.15,0,0,1,0-.11.12.12,0,0,1,.1-.05H105V23.05a.21.21,0,0,1,0-.12.14.14,0,0,1,.1-.05h.22a.14.14,0,0,1,.1.05.21.21,0,0,1,0,.12v1.42h1.26a.14.14,0,0,1,.1.05.15.15,0,0,1,0,.11v.23a.17.17,0,0,1,0,.12.13.13,0,0,1-.1,0h-1.26v1.47a.18.18,0,0,1,0,.11.11.11,0,0,1-.1,0Z"/>
			<path class="cls-2"
			      d="M108.67,26.88a.12.12,0,0,1-.1,0,.16.16,0,0,1,0-.12V22.77l-1,.9a.14.14,0,0,1-.1,0,.15.15,0,0,1-.09-.06l-.16-.24a.14.14,0,0,1,0-.12.13.13,0,0,1,.06-.11L108.52,22a.25.25,0,0,1,.08-.05H109a.12.12,0,0,1,.1,0,.16.16,0,0,1,0,.12v4.61a.16.16,0,0,1,0,.12.12.12,0,0,1-.1,0Z"/>
			<path class="cls-2"
			      d="M99.51,20.55a.1.1,0,0,1-.09,0,.15.15,0,0,1,0-.1V19.19H98.27a.14.14,0,0,1-.13-.13v-.19a.13.13,0,0,1,0-.1.13.13,0,0,1,.09,0h1.11V17.55a.18.18,0,0,1,0-.1.13.13,0,0,1,.09,0h.19a.13.13,0,0,1,.09,0,.18.18,0,0,1,0,.1v1.18H101a.15.15,0,0,1,.09,0,.17.17,0,0,1,0,.1v.19a.12.12,0,0,1,0,.09.11.11,0,0,1-.09,0H99.83v1.22a.15.15,0,0,1,0,.1.1.1,0,0,1-.09,0Z"/>
			<path class="cls-2"
			      d="M102.68,20.74a.12.12,0,0,1-.09,0,.13.13,0,0,1,0-.1V17.32l-.9.75a.17.17,0,0,1-.1,0,.1.1,0,0,1-.08-.05l-.14-.2a.12.12,0,0,1,0-.1.11.11,0,0,1,0-.09l1.19-1a.09.09,0,0,1,.07,0H103a.12.12,0,0,1,.09,0,.15.15,0,0,1,0,.1v3.84a.17.17,0,0,1,0,.1.16.16,0,0,1-.09,0Z"/>
		</g>
	</g>
</svg>