<svg id="Layer_1" data-name="Layer 1" xmlns="http://www.w3.org/2000/svg" viewBox="0 0 100 100">
	<defs>
		<style>.cls-1{fill:#fff;}</style>
	</defs>
	<path class="cls-1" d="M47.06,47.06h5.88V79.41H47.06Z"/>
	<path class="cls-1" d="M35.29,47.06h5.89V79.41H35.29Z"/>
	<path class="cls-1" d="M58.82,47.06h5.89V79.41H58.82Z"/>
	<path class="cls-1" d="M88.24,11.76H64.71V8.82A8.84,8.84,0,0,0,55.88,0H44.12a8.84,8.84,0,0,0-8.83,8.82v2.94H11.76V29.41h6.13L23.3,91.62A8.8,8.8,0,0,0,32.11,100H67.89a8.8,8.8,0,0,0,8.81-8.38l5.41-62.21h6.13ZM41.18,8.82a2.94,2.94,0,0,1,2.94-2.94H55.88a2.94,2.94,0,0,1,2.94,2.94v2.94H41.18ZM17.65,17.65h64.7v5.88H17.65ZM70.83,91.3a2.94,2.94,0,0,1-2.94,2.82H32.11a2.94,2.94,0,0,1-2.94-2.82c-5.75-66.22-5.36-61.69-5.37-61.89H76.2C76.19,29.59,76.55,25.38,70.83,91.3Z"/>
</svg>