<svg xmlns="http://www.w3.org/2000/svg" viewBox="0 0 113.39 113.39">
	<defs>
		<style>
			.cls-1{fill:none;}.cls-2{fill:#f05423;}.cls-3{fill:#e5f1f9;}.cls-4{fill:#8cc4dd;}.cls-5{fill:#144451;}.cls-6{fill:#111a28;}.cls-7{fill:#eb5645;}.cls-8{fill:#f5918d;}
		</style>
	</defs>
	<g id="Layer_2" data-name="Layer 2">
		<g id="Layer_1-2" data-name="Layer 1">
			<rect class="cls-1" width="113.39" height="113.39"/>
			<path class="cls-2"
			      d="M112.94,37H60.49c-.25,0-.45-.29-.45-.65s.2-.65.45-.65h52.45c.25,0,.45.29.45.65S113.19,37,112.94,37Z"/>
			<polygon class="cls-3" points="52.49 80.99 59.66 82.95 60 101.65 52.61 101.65 53.46 92.58 52.49 80.99"/>
			<path class="cls-3"
			      d="M2.93,101.93H52.49l.78-13.39-.75-5.76,15.23,2.53,7.33-.84,9.13-6.11L100.12,64l-.36-2s8.94-4.28,9.56-9.62S108.6,35.82,97.9,40.75l-.92,4L95,44.89s-3.77-1.66-4.7,1.66a19.62,19.62,0,0,0-.45,6.91l-8,5.61-9.92,7.1-1.24.5L55.47,60l-.59-4.25-4.18-2.3-4.85-1,3.1-4.2,1.16-3H52.3l3.89-6.46-.44-5.23-3.2-4.49-.87-1.29L49,20.06l-5-5-6.48-4.37-14.41.89s-16.77,7.29-13,28.09c0,0-10.71,5.92-8.77,21.72,0,0-1.23,10.79.85,15.53l.79,2.8Z"/>
			<path class="cls-4"
			      d="M97.27,57.44s9.83-5.93,10.44-9.57,1.74.33,1.74.33.63,5.34-1.58,7.55a80.35,80.35,0,0,1-6.82,5.62S101.38,63.84,97.27,57.44Z"/>
			<path class="cls-4" d="M15.61,88.41S26.55,92,28.46,84.47s.51,17.18.51,17.18l-9.91.28v-2.1L17,92.34Z"/>
			<path class="cls-5"
			      d="M40.26,11.6s11.8,1.9,15.61,10.32,3.18,14.91,3.18,14.91S57.89,48,53.27,51.14,51.6,53,51.6,53L46,51.89l.7-.46,4.81-7.3,1.84-.64,2.51-4.69-.12-5.23-3.53-4.49-2.11-5.73L45.85,16.1Z"/>
			<path class="cls-6" d="M50.17,22.22s8.69,6.26,9.25,12-.27,10.63-4.05,14.06-4.53-4.34-4.53-4.34V28.34Z"/>
			<path class="cls-4" d="M28.46,51.45s-10.21.87-6,8L17,59.66,13.26,59l-1.21-2.7,1.21-2L14.12,53l4.46-1.13Z"/>
			<path class="cls-4" d="M11.15,70.32s1.46-6.13,3.46-7.08-5.46,1.83-5.46,1.83l.48,4.74Z"/>
			<path class="cls-4"
			      d="M42.18,78.76a101.79,101.79,0,0,1,6.31,9.08c3.11,5-1.94,14.13-1.94,14.13l5.94,0,1-11.56-.94-7.59L42.29,78.39Z"/>
			<path class="cls-4"
			      d="M99.1,58.93S79.37,83.77,65.29,84.47l.83.69,6.12.15,11.81-5.19,3.72-4.67,6-5.71,6.3-5.72Z"/>
			<path class="cls-4"
			      d="M12.6,65.07a46.66,46.66,0,0,1,20.73-3.38s5.53-.41,6.23-2.21-9-.81-9-.81l-9.25.58-6.09.06-2.13-.81-4,3.72,0,2.49Z"/>
			<path class="cls-4"
			      d="M14.18,19.05S14.56,47.93,44,44.67l5,1.85-.29,1.24-2.11,2.91-3.73,1.44-18.95-.87L14.61,53l-2.07-2.31,2.07-2,2,1.09h2l2.12-2.41s.46-6.2-2.88-10.09-6.93-1.79-6.93-1.79l-1,1.09A28.7,28.7,0,0,1,14.18,19.05Z"/>
			<path class="cls-4"
			      d="M46.48,59.6s13.18,3.47,13.5,6,4.63,2.64,4.63,2.64,5-.55,5,1.24l2-2.77-7-3.87-7-2.38-6-1.49Z"/>
			<path class="cls-5"
			      d="M70,86.08c-.3,0-.6,0-.9,0-.69,0-17.84-.66-26.63-6.75a.65.65,0,0,1,.73-1.07c8.48,5.88,25.8,6.52,26,6.53,11.45,1,28.47-19,30.49-21.42-1.51-6.7-8.33-8.36-9.5-8.6-8.38,3-20.45,14.59-20.57,14.71a.64.64,0,1,1-.89-.93c.5-.49,12.54-12,21.19-15.05l.16-.06.16,0c.09,0,9.14,1.62,10.78,9.94l.06.3-.19.24C100.11,64.83,82.7,86.07,70,86.08Z"/>
			<path class="cls-5"
			      d="M71.59,67.38a.58.58,0,0,1-.33-.1C50,54.71,38.61,61.31,38.5,61.37a.64.64,0,1,1-.67-1.1c.48-.3,12.11-7.11,34.09,5.9a.65.65,0,0,1,.23.89A.66.66,0,0,1,71.59,67.38Z"/>
			<path class="cls-5"
			      d="M54.88,60.42a.75.75,0,0,1-.26-.05.66.66,0,0,1-.34-.86A4.08,4.08,0,0,0,54,55.82C53,54.4,50.5,52.73,43.85,52.73h-.32c-.27,0-23-1-28.4.77-.65.34-2.24,1.42-2.44,2.71a2.58,2.58,0,0,0,.91,2.14,13.89,13.89,0,0,0,4.3.78c.55,0,1.94-.12,3.7-.27,6.29-.54,16.82-1.44,20.62,0a.65.65,0,1,1-.46,1.21c-3.53-1.34-14.28-.42-20,.08-1.86.16-3.21.27-3.81.27A14.82,14.82,0,0,1,13,59.51l-.13,0-.09-.09A3.83,3.83,0,0,1,11.42,56c.35-2.24,3.05-3.62,3.16-3.68l.09,0c5.52-1.88,27.93-.89,28.88-.85,6-.06,9.86,1.19,11.5,3.68A5.43,5.43,0,0,1,55.47,60,.64.64,0,0,1,54.88,60.42Z"/>
			<path class="cls-5"
			      d="M17.71,50.67A6.42,6.42,0,0,1,15,50a.65.65,0,0,1,.62-1.14h0a4.11,4.11,0,0,0,2.87.4,2,2,0,0,0,1.18-1.3,10.22,10.22,0,0,0-.82-7.26,9.29,9.29,0,0,0-5.54-4.92,3.15,3.15,0,0,0-2.4.66,2.71,2.71,0,0,0-.37,2.46.65.65,0,1,1-1.27.25,3.87,3.87,0,0,1,.71-3.6,4.49,4.49,0,0,1,3.56-1.05l.1,0A10.5,10.5,0,0,1,20,40.12c1.33,2.73,1.69,6.13.87,8.28A3.32,3.32,0,0,1,19,50.46,3.7,3.7,0,0,1,17.71,50.67Z"/>
			<path class="cls-5"
			      d="M45.85,52.44a.65.65,0,0,1-.5-.24.66.66,0,0,1,.09-.91c9-7.39,6.1-20.55,6.07-20.68C48.23,10.33,34.27,11.19,33.68,11.23c-8.36,0-14.57,2.44-18.5,7.09-6.32,7.47-4.62,18.41-4.61,18.52a.64.64,0,1,1-1.27.21c-.08-.47-1.82-11.62,4.88-19.56,4.19-5,10.73-7.5,19.44-7.55.11,0,15.69-1,19.16,20.42,0,.1,3.12,14-6.52,21.93A.63.63,0,0,1,45.85,52.44Z"/>
			<path class="cls-5"
			      d="M46.38,38.77A12.34,12.34,0,0,1,39.85,37a.65.65,0,0,1-.18-.9.66.66,0,0,1,.9-.18h0a11.82,11.82,0,0,0,8.75,1.19.65.65,0,0,1,.29,1.26A14.15,14.15,0,0,1,46.38,38.77Z"/>
			<path class="cls-5"
			      d="M51.24,53.77a.64.64,0,0,1-.54-.29.65.65,0,0,1,.19-.9,20.42,20.42,0,0,0,3.83-3.81C56.74,46.3,62,34,55.83,22.7A20.55,20.55,0,0,0,38.58,12h0a.65.65,0,1,1,0-1.29A21.89,21.89,0,0,1,57,22.08c6,11.15,1.61,24-1.25,27.5a21.06,21.06,0,0,1-4.13,4.09A.64.64,0,0,1,51.24,53.77Z"/>
			<path class="cls-5"
			      d="M100.36,62.46a.64.64,0,0,1-.6-.4.65.65,0,0,1,.35-.85c.43-.18,10.59-4.45,8.7-13.3-1.07-4.94-3.23-6.76-4.86-7.43a4.89,4.89,0,0,0-4.17.15c-1.26.84-2.21,3.63-2.47,4.63a.65.65,0,1,1-1.25-.32c.11-.42,1.11-4.12,3-5.39a6.1,6.1,0,0,1,5.37-.27c1.92.78,4.46,2.87,5.64,8.36,2.13,9.91-9.35,14.72-9.47,14.77A.69.69,0,0,1,100.36,62.46Z"/>
			<path class="cls-5"
			      d="M56.4,84.47a.64.64,0,0,1-.63-.5c0-.15-3.58-15.22,7.37-21.93a.65.65,0,0,1,.68,1.1C53.66,69.36,57,83.52,57,83.67a.66.66,0,0,1-.48.78Z"/>
			<path class="cls-5"
			      d="M61.85,85.31a.66.66,0,0,1-.63-.51c-.13-.58-3-14.33,6.3-20.66a.65.65,0,1,1,.73,1.07c-8.63,5.84-5.79,19.18-5.76,19.31a.65.65,0,0,1-.5.77A.32.32,0,0,1,61.85,85.31Z"/>
			<path class="cls-5"
			      d="M52.64,102.58H3.58a.65.65,0,0,1-.65-.65V81.64a.65.65,0,0,1,1.3,0v19.64H52.08c.28-2.27,1.24-11-.07-17.74a.65.65,0,0,1,1.27-.25c1.55,7.94.07,18.3,0,18.73A.65.65,0,0,1,52.64,102.58Z"/>
			<path class="cls-5"
			      d="M29,101.65a.61.61,0,0,1-.65-.56V75.69a5.18,5.18,0,0,0-2.2-4,6.1,6.1,0,0,0-3.89-.74l-.13,0H9.15a.57.57,0,1,1,0-1.12H22a7.48,7.48,0,0,1,4.85.94,6.25,6.25,0,0,1,2.72,4.89v25.45A.61.61,0,0,1,29,101.65Z"/>
			<path class="cls-5"
			      d="M36.07,101.65a.61.61,0,0,1-.65-.56V75.69a5.14,5.14,0,0,0-2.19-4,6.13,6.13,0,0,0-3.9-.74l-.13,0H16.25a.57.57,0,1,1,0-1.12H29.14a7.51,7.51,0,0,1,4.86.94,6.24,6.24,0,0,1,2.71,4.89v25.45A.61.61,0,0,1,36.07,101.65Z"/>
			<path class="cls-5"
			      d="M97.25,66.67h0A.65.65,0,0,1,96.6,66c.07-6.08-9.95-9.82-10-9.86a.64.64,0,0,1-.38-.83A.65.65,0,0,1,87,55c.45.16,11,4.1,10.9,11.08A.66.66,0,0,1,97.25,66.67Z"/>
			<path class="cls-5"
			      d="M9.15,63.24a.63.63,0,0,1-.35-.11.65.65,0,0,1-.19-.9c1.24-1.89,3-4.11,4.1-4a.65.65,0,0,1-.17,1.29,13.25,13.25,0,0,0-2.85,3.39A.65.65,0,0,1,9.15,63.24Z"/>
			<path class="cls-5" d="M14.44,53.66c-2-.29-2.51-2.77-2.53-2.87l1.27-.24s.33,1.67,1.43,1.83Z"/>
			<path class="cls-4"
			      d="M46.25,29.08s10.61,9.5-2.06,15.67c0,0,.44,1.31,2.68,1.24s4.44-.25,5.75-1.94,3.18-3.14,3.24-6S55.51,28.26,46.25,29.08Z"/>
			<path class="cls-5"
			      d="M48.3,46.55c-4.82,0-8.74-4.21-8.74-9.38s3.92-9.38,8.74-9.38S57,32,57,37.17,53.12,46.55,48.3,46.55Zm0-17.47c-4.1,0-7.44,3.63-7.44,8.09s3.34,8.09,7.44,8.09,7.45-3.63,7.45-8.09S52.41,29.08,48.3,29.08Z"/>
			<path class="cls-4"
			      d="M16.21,42.56a22,22,0,0,0-10,20.68s.46,10.27,2.91,16.91c0,0,8.86,16.69,2.74,20.58,0,0-.35,1.85,3.7,1.85s3.45-2.75,3.45-2.75S19,96.34,17.9,94.48s-3.29-9.17-3.29-9.17L10.89,75.15s-3-6.82-1.74-11.91S9,53.76,15.26,47L17,46.55S17.44,42.81,16.21,42.56Z"/>
			<path class="cls-5"
			      d="M16,103.45a12,12,0,0,1-4.26-1l-.13-.06-.09-.1C3.53,93.11.24,67.88.1,66.81-1.31,42.58,12.36,37.36,13,37.15l.25-.09.25.12C19.3,40,17.38,47,17.36,47.1l-.08.27L17,47.5c-6.69,3.42-7.25,12-7.25,20.39,0,4.11,3,11.48,5.63,18,2.35,5.79,4.39,10.79,4.46,13.52a3.73,3.73,0,0,1-1.45,3.44A4.29,4.29,0,0,1,16,103.45Zm-3.6-2.09c1.12.46,3.91,1.32,5.28.4a2.52,2.52,0,0,0,.88-2.34c-.07-2.49-2.16-7.63-4.37-13.07-2.82-6.93-5.73-14.1-5.73-18.46,0-6.88,0-17.24,7.7-21.4.26-1.17,1-5.84-3-8-1.82.82-13,6.81-11.75,28.21C1.42,66.9,4.73,92.35,12.42,101.36Z"/>
			<path class="cls-3"
			      d="M45.7,13.53A15.37,15.37,0,0,1,56.82,27.22s-3.24-8.59-6.54-10.07S45.55,14.43,45.7,13.53Z"/>
			<path class="cls-3" d="M49.16,49.52s7-2.09,8.34-7.1c0,0-1.31,6.73-5.63,9.34S47.86,50.51,49.16,49.52Z"/>
			<path class="cls-5"
			      d="M8.5,96.87a.65.65,0,0,1-.63-.51,3.67,3.67,0,0,1,.54-2.57,5.26,5.26,0,0,1,3.51-2.08.66.66,0,0,1,.77.5.66.66,0,0,1-.51.77A4,4,0,0,0,9.49,94.5a2.37,2.37,0,0,0-.36,1.59.64.64,0,0,1-.49.77Z"/>
			<path class="cls-5"
			      d="M4.82,85.52A.64.64,0,0,1,4.19,85a3.6,3.6,0,0,1,.54-2.57,5.23,5.23,0,0,1,3.51-2.09.65.65,0,0,1,.76.51.63.63,0,0,1-.5.76,4.06,4.06,0,0,0-2.69,1.52,2.37,2.37,0,0,0-.36,1.59A.64.64,0,0,1,5,85.5Z"/>
			<path class="cls-5"
			      d="M1.41,72.16H1.33a.64.64,0,0,1-.56-.72,3.59,3.59,0,0,1,1.34-2.25,5.23,5.23,0,0,1,4-.82A.65.65,0,1,1,6,69.65a4,4,0,0,0-3,.56,2.35,2.35,0,0,0-.86,1.39A.65.65,0,0,1,1.41,72.16Z"/>
			<path class="cls-5"
			      d="M.93,59H.85a.66.66,0,0,1-.56-.72A3.57,3.57,0,0,1,1.63,56a5.29,5.29,0,0,1,4-.83.66.66,0,0,1,.56.73.65.65,0,0,1-.73.56,4,4,0,0,0-3,.56,2.34,2.34,0,0,0-.86,1.38A.65.65,0,0,1,.93,59Z"/>
			<path class="cls-5"
			      d="M3.86,48.82H3.78a.64.64,0,0,1-.56-.72,3.62,3.62,0,0,1,1.34-2.25,5.28,5.28,0,0,1,4-.82.65.65,0,0,1-.17,1.29,4,4,0,0,0-3,.55,2.35,2.35,0,0,0-.86,1.39A.65.65,0,0,1,3.86,48.82Z"/>
			<path class="cls-5"
			      d="M21.75,74.28a3,3,0,1,1-3,3,3,3,0,0,1,3-3m0-1.21A4.25,4.25,0,1,0,26,77.32a4.26,4.26,0,0,0-4.24-4.25Z"/>
			<path class="cls-5"
			      d="M21.39,75h.26a.51.51,0,0,1,.51.51v4.08a.13.13,0,0,1-.13.13h-.26a.51.51,0,0,1-.51-.51V75.08a.13.13,0,0,1,.13-.13Z"
			      transform="translate(62.91 8.38) rotate(46.55)"/>
			<path class="cls-7"
			      d="M23.51,78.77l-1-1.11a.24.24,0,0,0-.34,0l-.22.21a.24.24,0,0,0,0,.33l.72.77a.61.61,0,0,0,.88,0A.14.14,0,0,0,23.51,78.77Z"/>
			<path class="cls-7"
			      d="M19.93,75.83l1,1.11a.25.25,0,0,0,.34,0l.22-.2a.25.25,0,0,0,0-.34l-.71-.77a.62.62,0,0,0-.89,0A.16.16,0,0,0,19.93,75.83Z"/>
			<polygon class="cls-8" points="83.88 36.73 88.82 36.38 88.24 38.19 87.8 40.88 83.88 36.73"/>
			<path class="cls-2"
			      d="M89.8,36.38l17.91,7.19a3,3,0,0,1,.62,2.24c-.17,1.34-2.5,3.4-2.5,3.4L87.89,41.8S86.82,38.18,89.8,36.38Z"/>
			<path class="cls-5"
			      d="M87.49,41.74h0a.64.64,0,0,1-.62-.67c0-.44.25-4.32,2.32-5a.65.65,0,1,1,.38,1.24c-.86.26-1.34,2.37-1.41,3.78A.65.65,0,0,1,87.49,41.74Z"/>
			<path class="cls-5"
			      d="M89.36,37,107.1,44.1s2,2.21-1.15,4.1L87.79,40.88,84.36,37l5-.05m0-1.29h0l-5,0a1.29,1.29,0,0,0-.95,2.15l3.43,3.86a1.36,1.36,0,0,0,.48.34l18.15,7.32a1.37,1.37,0,0,0,.49.09,1.21,1.21,0,0,0,.66-.19A4.42,4.42,0,0,0,109,46.23a3.89,3.89,0,0,0-.9-3,1.5,1.5,0,0,0-.48-.34L89.85,35.77a1.37,1.37,0,0,0-.49-.09Z"/>
			<path class="cls-5"
			      d="M105.25,49.05a.65.65,0,0,1-.61-.41c-.56-1.42-.88-4.47,1.92-5.8a.65.65,0,0,1,.86.31.64.64,0,0,1-.3.86c-2.41,1.14-1.32,4-1.27,4.16a.64.64,0,0,1-.6.88Z"/>
			<path class="cls-3" d="M90.42,51.61s-2.88-6.53,2.64-9,4,3.1,4,3.1l-1.86,5Z"/>
			<path class="cls-5"
			      d="M90,54.29a.75.75,0,0,1-.67-.52c-.12-.35-2.76-8.71,2.43-11.33,2-1,3.56-1.25,4.68-.7,1.37.67,1.67,2.25,1.88,3.29a.77.77,0,0,1-.59.9.72.72,0,0,1-.87-.56c-.17-.9-.38-1.94-1.08-2.28S94,43,92.46,43.78c-4,2-1.71,9.45-1.68,9.53a.76.76,0,0,1-.48.94A.84.84,0,0,1,90,54.29Z"/>
			<path class="cls-5"
			      d="M60,102.58H52.49a.62.62,0,0,1-.54-.3.65.65,0,0,1-.05-.62c2.23-4.84.32-18.19.3-18.33a.65.65,0,0,1,.78-.72l7.16,1.57a.64.64,0,0,1,.51.63v17.12A.65.65,0,0,1,60,102.58Zm-6.57-1.3h5.93v-16L53.6,84.07C54,87.06,55,96.44,53.43,101.28Z"/>
		</g>
	</g>
</svg>