<svg xmlns="http://www.w3.org/2000/svg" viewBox="0 0 113.39 113.39">
	<defs>
		<style>
			.cls-1{fill:none;}.cls-2{fill:#e5f1f9;}.cls-3{fill:#b0d9e8;}.cls-4{fill:#144451;}.cls-5{fill:#111a28;opacity:0.61;}.cls-6{fill:#8cc4dd;}.cls-7{fill:#eb5645;}.cls-8{fill:#daf0f5;}.cls-9{fill:#1bbce7;}.cls-10{fill:#199dc1;}.cls-11{fill:#afcc82;}.cls-12{fill:#91ab6d;}.cls-13{fill:#0f363f;}
		</style>
	</defs>
	<g id="Layer_2" data-name="Layer 2">
		<g id="Layer_1-2" data-name="Layer 1">
			<rect class="cls-1" width="113.39" height="113.39"/>
			<path class="cls-2"
			      d="M70.25,65.12S57.57,73,44.89,66.36c0,0-4.4-23.56-.73-29.82,0,0,19.7.5,21.48-1.09l4.12-3s3.13-1.09,5,5.36S78.15,57,77.16,61Z"/>
			<path class="cls-3"
			      d="M45.58,39.28s8.83,4.66,18.06,2.94c0,0,4-1.44,5.51.06,0,0,1.49,6.64,5.61,6.87a1.93,1.93,0,0,0,1.88-1l-3-14.39S49.19,34.67,45.58,39.28Z"/>
			<path class="cls-4"
			      d="M75.35,38c-1.71-5.95-4.6-6.35-5.76-6.24h0a2.89,2.89,0,0,0-.55.11,1.3,1.3,0,0,0-.26.14l-4,2.93-.09.08a10.57,10.57,0,0,1-3.14.54c-6,.56-17.13.31-17.24.31h-.11a1.08,1.08,0,0,0-.82.55,6.9,6.9,0,0,0-.55,1.19,1.69,1.69,0,0,1,.7.11,1.79,1.79,0,0,1,.42.25,5.36,5.36,0,0,1,.37-.76s11.24.26,17.35-.31c1.91-.18,3.32-.44,3.73-.81l4-2.93a1.64,1.64,0,0,1,.33-.06c.83-.08,3.1.22,4.56,5.3,1.81,6.31,3.3,18.8,2.32,22.66l-6.78,4.1A29.87,29.87,0,0,1,58,68.85,23.32,23.32,0,0,1,44.94,66.4a134.66,134.66,0,0,1-2.11-20.2c-.3.15-.41.86-.63,1.15a.9.9,0,0,0-.22.54,125.38,125.38,0,0,0,1.85,18.76,1.37,1.37,0,0,0,.67,1,24.3,24.3,0,0,0,13.64,2.57,30.7,30.7,0,0,0,12.23-3.87l6.78-4.1a1.28,1.28,0,0,0,.55-.79C78.83,56.92,77.09,44,75.35,38Z"/>
			<path class="cls-4"
			      d="M68.48,7.7C63.63,4.39,54.74.41,44.33,5.11a7.62,7.62,0,0,0-2.86,2.27c-2.24,2.93-5.95,9.9-1.39,20.25,0,0,5.1,11.68,19.46,7.28,0,0,12.66-1.56,13.43-13.37l-.31-6.27A9.71,9.71,0,0,0,68.48,7.7Z"/>
			<path class="cls-5"
			      d="M41.25,28.65s15.14,5.68,24.1-5.93c0,0,6-5.42,1.86-14.27,0,0,2.91-1.93,5.42,5.21,0,0,3.42,16.87-13.32,20.21C59.31,33.87,46,38.45,41.25,28.65Z"/>
			<path class="cls-3"
			      d="M69.71,33.16s7.58-6.2,6.64-16.34c0,0-2-12-13.4-15,0,0-11.55-3.12-19.07,4.34A24.44,24.44,0,0,1,63,6.45s4.58,2.23,6.07,4.07c0,0,2.82,2.26,3.39,8.28s.08-.35.08-.35a13.78,13.78,0,0,1-7.68,14.86Z"/>
			<path class="cls-4"
			      d="M55,1.24a25.14,25.14,0,0,1,8,.54c11.44,3.08,13.4,15,13.4,15,.94,10.14-6.64,16.34-6.64,16.34l-4.82.15a13.56,13.56,0,0,0,7.87-12v0s0-.07,0-.19a12.38,12.38,0,0,0-.19-2.74s.16,2.09.19,2.74v.17c0-.14-.11-.85-.27-2.56-.57-6-3.39-8.28-3.39-8.28C67.61,8.68,63,6.45,63,6.45a23.68,23.68,0,0,0-12.16-2,23.07,23.07,0,0,0-7,1.7A17.73,17.73,0,0,1,55,1.24M54.86.11A18.66,18.66,0,0,0,43.08,5.32,1.13,1.13,0,0,0,44,7.25a1,1,0,0,0,.37-.1,23.23,23.23,0,0,1,18.19.33c1.2.58,4.58,2.4,5.67,3.75a1,1,0,0,0,.17.18s2.46,2.11,3,7.49c.16,1.72.23,2.29.26,2.52A12.39,12.39,0,0,1,64.37,32.3a1.14,1.14,0,0,0,.56,2.15l4.81-.15h.07a1.17,1.17,0,0,0,.62-.25c.33-.27,8-6.71,7-17.32a.22.22,0,0,1,0-.08C77.38,16.12,75.26,3.92,63.25.69A25.94,25.94,0,0,0,54.86.11Z"/>
			<path class="cls-2"
			      d="M66.26,7.84a.32.32,0,0,0,.45-.38c-.55-1.54-2.2-5.06-5.87-6,0,0-10.21-2.34-17.22,4.24a.32.32,0,0,0,.36.52C47.32,4.73,55.43,2.38,66.26,7.84Z"/>
			<path class="cls-2"
			      d="M69,30.83s4.09-2,4.44.65c0,0,1.2,1.56-3.74,3.38,0,0-10.77,5-18.68,3.91,0,0-7.79-.41-7.72-3.59,0,0,.25-2.08,3.08-.64C46.38,34.54,55.29,37.87,69,30.83Z"/>
			<path class="cls-6" d="M61.87,33.62s4.36.89-1.23,4.6c0,0,12.73-2.62,13.32-6.84,0,0,.3-3.18-5.59-.52Z"/>
			<ellipse class="cls-3" cx="75.32" cy="19.33" rx="4.44" ry="5.9"
			         transform="translate(-1.47 7.06) rotate(-5.32)"/>
			<path class="cls-2"
			      d="M73.74,13.27s-3.18.78-3,6.32c0,0,.27,3.27,3.06,2.08,0,0,3.64-1,2.24-5.78C76,15.89,75.54,13.31,73.74,13.27Z"/>
			<path class="cls-4"
			      d="M75.28,26.38c-3.08,0-5.58-3.19-5.56-7.08s2.54-7,5.63-7,5.59,3.19,5.57,7.08S78.37,26.4,75.28,26.38Zm.06-12.86c-2.4,0-4.37,2.58-4.38,5.79s1.93,5.82,4.33,5.83,4.37-2.59,4.38-5.79S77.75,13.53,75.34,13.52Z"/>
			<path class="cls-4"
			      d="M74.5,22.41h-.31a.57.57,0,0,1,.1-1.13c.16,0,3.85.28,5.26-3a.58.58,0,0,1,.75-.3.56.56,0,0,1,.29.75C79.11,22.17,75.55,22.41,74.5,22.41Z"/>
			<path class="cls-2"
			      d="M73.48,33.54S92.57,37.37,95,47.84c0,0,2.12,9.88-12.13,16.42,0,0,.53-5.2-5.5-6.47,0,0,5.18-7.29,6.78-7.84l-9.88-3.22S67.67,43.13,73.48,33.54Z"/>
			<path class="cls-3"
			      d="M80.47,60.4s14.15-2.64,14.76-12.55c0,0,1.51,11-12.19,17.1C83,65,83.32,63.3,80.47,60.4Z"/>
			<path class="cls-6" d="M82.84,51s3.15-2.51,5.59-1.53c0,0-7.86-7.68-15.11-2Z"/>
			<path class="cls-4"
			      d="M82.66,52.05a.65.65,0,0,1-.51-.17.64.64,0,0,1,0-.9c.07-.08,1.8-1.83,6.35-1.75a.65.65,0,0,1,.64.65.64.64,0,0,1-.66.63c-3.93-.07-5.39,1.34-5.41,1.36A.61.61,0,0,1,82.66,52.05Z"/>
			<path class="cls-4"
			      d="M84.24,41.16a4.44,4.44,0,0,1-3.59-1.52A4.75,4.75,0,0,1,79.9,36l1.25.26a3.52,3.52,0,0,0,.52,2.57,3.21,3.21,0,0,0,2.53,1,4.86,4.86,0,0,0,2.35-1.3l.9.92A5.79,5.79,0,0,1,84.24,41.16Z"/>
			<path class="cls-4"
			      d="M73.05,33.86c-.09-.47.48-.58.88-.62a1.56,1.56,0,0,1,.37,0c.79.16,19.41,4,21.91,14.84.09.43,2.11,10.66-12.52,17.34a1.46,1.46,0,0,1-.41.11,1.36,1.36,0,0,1-.87-.24,1.28,1.28,0,0,1-.53-1.17c0-.16.35-3.9-4.33-4.88a1.3,1.3,0,0,1-.94-.79,1.32,1.32,0,0,1,.15-1.22,63.9,63.9,0,0,1,5-6.33l-7.42-2.41a.85.85,0,0,1-.22-.09,7.83,7.83,0,0,1-3.44-4.65c-.08-.3-.13-.59-.18-.89.94-.48,1.24.07,1.42.56a6.54,6.54,0,0,0,2.82,3.85l9.61,3.12C82.84,51,77.81,58,77.81,58c5.86,1.23,5.35,6.27,5.35,6.27C97,57.94,95,48.37,95,48.37c-2.33-10.14-20.9-13.85-20.9-13.85Z"/>
			<path class="cls-4"
			      d="M71.38,30.13c1-.09,1.9.15,2.06,1.35,0,0,1.2,1.56-3.74,3.38a50.58,50.58,0,0,1-14.09,4,21.28,21.28,0,0,1-4.59,0s-7.79-.41-7.72-3.59A1.32,1.32,0,0,1,44.5,34a3.6,3.6,0,0,1,1.88.5,20.83,20.83,0,0,0,8.48.66A38.78,38.78,0,0,0,69,30.83a8.2,8.2,0,0,1,2.38-.7M71.28,29a8.9,8.9,0,0,0-2.77.81,38,38,0,0,1-13.75,4.26,20.33,20.33,0,0,1-7.94-.58,4.48,4.48,0,0,0-2.43-.58,2.44,2.44,0,0,0-2.22,2.14.37.37,0,0,0,0,.11c-.08,4,7.17,4.65,8.76,4.74a21.79,21.79,0,0,0,4.8,0,51.11,51.11,0,0,0,14.42-4c2.64-1,4.11-2.08,4.48-3.36a2.08,2.08,0,0,0-.09-1.44c-.3-1.49-1.5-2.28-3.25-2.11Z"/>
			<rect class="cls-3" x="46.94" y="50.37" width="18.19" height="15.74" rx="1.71"
			      transform="translate(-5.16 5.44) rotate(-5.32)"/>
			<rect class="cls-2" x="47.14" y="50.37" width="16.01" height="13.85" rx="1.71"
			      transform="translate(-5.07 5.36) rotate(-5.32)"/>
			<path class="cls-4"
			      d="M64.06,65.82a4.32,4.32,0,0,1-.72,0l-14.82,1a2.9,2.9,0,0,1-1.92-3.22l-.79-9c0-.26-.41-4.25,2.35-4.72l13.18-1a4.25,4.25,0,0,1,2.9.79,3.36,3.36,0,0,1,1.21,2.41l.93,11.76A2.49,2.49,0,0,1,64.06,65.82Zm-15.34-.11,14.63-1c1.46.13,1.82-.7,1.9-.94l-.93-11.51a2.3,2.3,0,0,0-.79-1.63,3.22,3.22,0,0,0-2.09-.54L48.3,51c-1.69.29-1.37,3.45-1.36,3.48l.79,9.08C47.65,65.17,48.46,65.61,48.72,65.71Z"/>
			<path class="cls-4"
			      d="M63.2,63a.42.42,0,0,1-.46-.38l-1-10.86a.43.43,0,0,1,.85-.08l1,10.86A.43.43,0,0,1,63.2,63Z"/>
			<circle class="cls-7" cx="49.68" cy="53.7" r="1.98"/>
			<path class="cls-4"
			      d="M49.9,56.1a2.41,2.41,0,1,1,2.18-2.63A2.42,2.42,0,0,1,49.9,56.1Zm-.36-4a1.55,1.55,0,1,0,1.69,1.4A1.56,1.56,0,0,0,49.54,52.15Z"/>
			<circle class="cls-2" cx="49.26" cy="53.1" r="1.01"/>
			<path class="cls-2"
			      d="M55.79,8.37S64,6,67.69,13.07a5,5,0,0,1,.39,1.32.78.78,0,0,1-1.46.45c-.94-1.64-3.46-5.26-7.56-5.52C53.74,9,55.79,8.37,55.79,8.37Z"/>
			<path class="cls-2"
			      d="M77.65,58.91s-3.31-.69-5.43,1c0,0-2.18,1.32-1.82,2.63,0,0-.72.21-1.63,1.53,0,0-1.62,2.88,3.39,2.48l.15,0c5.18-.47,9.85-.68,10.5-1.88C82.81,64.64,83.75,59.66,77.65,58.91Z"/>
			<path class="cls-4"
			      d="M69.82,64.07a.62.62,0,0,1-.59-.28.55.55,0,0,1,.23-.79c.49-.27,3-1.57,4.45-1a.56.56,0,0,1,.32.76.67.67,0,0,1-.83.31c-.62-.25-2.35.42-3.32.94A.61.61,0,0,1,69.82,64.07Z"/>
			<path class="cls-4"
			      d="M76.47,67.36l-2.23.2-2.31.2c-2.18.17-3.55-.21-4.18-1.17a2.54,2.54,0,0,1,0-2.48,5.88,5.88,0,0,1,1.56-1.68c0-1.59,2-2.85,2.24-3,2.25-1.86,5.7-1.22,6.09-1.14a6.88,6.88,0,0,1,4.88,2.53,6.25,6.25,0,0,1,1,4.39,1.07,1.07,0,0,1-.07.19C82.89,66.58,80.63,67,76.47,67.36ZM68.92,64.8s-.3.65,0,1.06c.15.22.73.73,2.94.55l2.3-.2c3.17-.27,7.48-.63,8.12-1.36a4.8,4.8,0,0,0-.81-3.24,5.6,5.6,0,0,0-4-2H77.4s-3.15-.66-5.05.9c-.64.41-1.83,1.43-1.65,2.11a.68.68,0,0,1-.46.82h0a3.67,3.67,0,0,0-1.32,1.36Zm14,.29h0Z"/>
			<path class="cls-4"
			      d="M64.41,42.1a2.53,2.53,0,1,1-2.28,2.75,2.52,2.52,0,0,1,2.28-2.75m-.09-1a3.53,3.53,0,1,0,3.84,3.19,3.54,3.54,0,0,0-3.84-3.19Z"/>
			<path class="cls-4"
			      d="M64.33,42.65h.29A.37.37,0,0,1,65,43V46.5a.09.09,0,0,1-.09.09h-.29a.37.37,0,0,1-.37-.37V42.75a.09.09,0,0,1,.09-.09Z"
			      transform="translate(45.43 -31.52) rotate(41.23)"/>
			<path class="cls-7"
			      d="M66.22,45.68l-.94-.84a.2.2,0,0,0-.28,0l-.17.18a.2.2,0,0,0,0,.28l.65.59a.51.51,0,0,0,.73,0A.13.13,0,0,0,66.22,45.68Z"/>
			<path class="cls-7"
			      d="M63,43.52l.94.84a.19.19,0,0,0,.28,0l.17-.19a.19.19,0,0,0,0-.28l-.65-.58a.52.52,0,0,0-.73,0A.13.13,0,0,0,63,43.52Z"/>
			<path class="cls-8"
			      d="M58.75,31.63C54.13,31.9,43.94,31.16,41,20a.37.37,0,0,0-.73,0,12.16,12.16,0,0,0,3.54,10.62,4.48,4.48,0,0,0,.64.51,16.17,16.17,0,0,0,14.42,1.16A.38.38,0,0,0,58.75,31.63Z"/>
			<path class="cls-2"
			      d="M21.79,26.57S29.24,37.42,43.11,37.8c0,0-1.81,8.61-.15,12.6,0,0-25.06-5.81-27.52-19.81C15.44,30.59,17.53,26.36,21.79,26.57Z"/>
			<path class="cls-3" d="M26,36.68s-6-7-4.88-10.08l1.72-.11a32.44,32.44,0,0,0,9.94,8.89S27,35.51,26,36.68Z"/>
			<path class="cls-3"
			      d="M22.58,40.27s14,7.72,19.69,3.4c0,0-.48,4.71.17,6.53,0,0,2.51,3.25-9.38-3.53C33.06,46.67,22.54,42.49,22.58,40.27Z"/>
			<path class="cls-4"
			      d="M20.11,27a5.72,5.72,0,0,1,1.79-.2s7.22,10.51,20.64,10.88c0,0-1.76,8.34-.14,12.2,0,0-24.27-5.63-26.65-19.18A7.69,7.69,0,0,1,20.11,27m-.3-1.1h0a8.85,8.85,0,0,0-5.08,4.29,1.21,1.21,0,0,0-.1.7C17.11,45,41.12,50.7,42.14,50.93a1.06,1.06,0,0,0,.56,0,1.21,1.21,0,0,0,.57-.36,1.16,1.16,0,0,0,.18-1.17c-1.21-2.89-.27-9.3.2-11.52a1.13,1.13,0,0,0-.22-.94,1.15,1.15,0,0,0-.86-.43c-12.7-.35-19.66-10.29-19.73-10.39a1.15,1.15,0,0,0-.88-.49,6.73,6.73,0,0,0-2.15.23Z"/>
			<path class="cls-4"
			      d="M34.53,36.17a.54.54,0,0,1-.22,0c-.05,0-5.1-.59-7.77,1.1a.59.59,0,0,1-.63-1c3-1.92,8.32-1.3,8.54-1.27a.59.59,0,0,1,.08,1.15Z"/>
			<path class="cls-4"
			      d="M28,45.15h-.16a.57.57,0,0,1-.46-.66c.07-.39,1.76-9.52,7.62-9.38a.57.57,0,0,1,0,1.14c-4.89-.11-6.45,8.36-6.47,8.44A.57.57,0,0,1,28,45.15Z"/>
			<path class="cls-4"
			      d="M30.41,46.4h-.15a.57.57,0,0,1-.46-.66c.07-.4,1.73-9.74,7.59-9.61a.58.58,0,0,1,.56.58.57.57,0,0,1-.59.56c-4.87-.1-6.43,8.58-6.44,8.66A.57.57,0,0,1,30.41,46.4Z"/>
			<path class="cls-2"
			      d="M21.65,26s3.32-6.22,1.58-8.93-3.69.6-3.69.6-1.43-6.3-5.45-4.94c-3.82,1.3-5.52,6.28-4.11,9.84s5,6.83,5.67,7S18.81,25.89,21.65,26Z"/>
			<path class="cls-3"
			      d="M18.85,27.43s5.47-9,3.95-11.56S23.9,17.2,24.24,18,24,22.43,24,22.43a35.24,35.24,0,0,1-1.75,4C22,26.47,18.85,27.43,18.85,27.43Z"/>
			<path class="cls-3" d="M15.62,12s1.81,5.73-1,9.76,5.41-3,5.3-5S17.28,11.71,15.62,12Z"/>
			<path class="cls-4"
			      d="M14.91,12.59c3.4-.31,4.63,5.12,4.63,5.12s.91-1.56,2.05-1.66c.52-.05,1.09.21,1.64,1.06C25,19.82,21.65,26,21.65,26a2.46,2.46,0,0,0-.47,0c-2.56.24-4.74,3.45-5.47,3.52h-.06c-.71-.12-4.26-3.39-5.67-6.95s.29-8.54,4.11-9.84a4.51,4.51,0,0,1,.82-.18m-.1-1.13a5.48,5.48,0,0,0-1.09.24,7.79,7.79,0,0,0-4.49,4.22A9.22,9.22,0,0,0,8.92,23c1.41,3.55,5.16,7.42,6.54,7.65a1.4,1.4,0,0,0,.35,0c.65-.06,1.16-.54,1.93-1.26,1-.91,2.27-2.14,3.55-2.26h.46a1.15,1.15,0,0,0,.9-.6c.37-.69,3.58-6.89,1.53-10.07a2.83,2.83,0,0,0-2.7-1.58,3,3,0,0,0-1.47.59c-.9-2.11-2.59-4.29-5.2-4Z"/>
			<path class="cls-4"
			      d="M19,21.31h-.13a.56.56,0,0,1-.49-.63c.61-4.85,1.27-5,1.58-5.1a.56.56,0,0,1,.7.4.59.59,0,0,1-.27.64,18.57,18.57,0,0,0-.88,4.2A.58.58,0,0,1,19,21.31Z"/>
			<path class="cls-9" d="M101.44,68.86c.08.24.15.47.22.71C101.59,69.33,101.52,69.1,101.44,68.86Z"/>
			<path class="cls-9" d="M101.88,70.36c.07.23.13.46.19.7C102,70.82,102,70.59,101.88,70.36Z"/>
			<path class="cls-9" d="M100.93,67.4c.09.24.17.48.26.71C101.1,67.88,101,67.64,100.93,67.4Z"/>
			<path class="cls-9" d="M100.35,66l.3.71Z"/>
			<path class="cls-9" d="M102.56,73.45l.12.67Z"/>
			<path class="cls-9" d="M103,76.74c0,.18,0,.37,0,.55C103,77.1,103,76.92,103,76.74Z"/>
			<polygon class="cls-9" points="103.03 78.9 103.03 78.89 103.03 78.9 103.03 78.9"/>
			<path class="cls-9" d="M102.26,71.88l.15.7Z"/>
			<path class="cls-9" d="M99.71,64.59l.34.72Z"/>
			<path class="cls-9" d="M102.79,75.05c0,.22.06.43.08.64C102.85,75.48,102.82,75.27,102.79,75.05Z"/>
			<path class="cls-9" d="M89.47,52.51l.93.69Z"/>
			<path class="cls-9" d="M88.24,51.67c.33.21.66.44,1,.66C88.9,52.11,88.57,51.88,88.24,51.67Z"/>
			<path class="cls-9" d="M85.58,50.11c-.94-.49-1.91-.94-2.9-1.34h0C83.68,49.18,84.64,49.62,85.58,50.11Z"/>
			<path class="cls-9" d="M90.66,53.41c.3.23.59.47.88.72C91.25,53.88,91,53.64,90.66,53.41Z"/>
			<path class="cls-9" d="M87,50.88c.36.21.71.42,1.06.65C87.67,51.3,87.32,51.09,87,50.88Z"/>
			<path class="cls-9" d="M85.65,50.15c.39.2.77.41,1.15.63C86.42,50.56,86,50.35,85.65,50.15Z"/>
			<path class="cls-9" d="M99,63.24c.14.24.26.48.39.73C99.26,63.72,99.14,63.48,99,63.24Z"/>
			<path class="cls-9" d="M98.24,61.92l.45.77Z"/>
			<path class="cls-9" d="M94.84,57.35A31.86,31.86,0,0,1,98,61.51,31.2,31.2,0,0,0,94.84,57.35Z"/>
			<path class="cls-9" d="M93.91,56.35c.28.29.55.57.82.87C94.46,56.92,94.19,56.64,93.91,56.35Z"/>
			<path class="cls-9" d="M91.8,54.35l.85.76Z"/>
			<path class="cls-9" d="M92.89,55.34c.28.26.55.52.82.8C93.44,55.86,93.17,55.6,92.89,55.34Z"/>
			<path class="cls-10"
			      d="M100.53,78.07,97,71.51a2.07,2.07,0,0,0-2.09-1.08l-1.76.21L93,70.5c0,.7.08,1.4.08,2.11a32.35,32.35,0,0,1-5.52,18.11,1,1,0,0,1,.53.21,1.06,1.06,0,0,1,.13,1.48L85.5,95.68a1.06,1.06,0,0,1-.81.38,1,1,0,0,1-.67-.25,1,1,0,0,1-.28-.39,32.46,32.46,0,0,1-35.24,7.32,32.36,32.36,0,0,0,22,8.64c.66,0,1.32,0,2-.06l.59,0c.47,0,.93-.08,1.4-.14l.6-.07c.54-.08,1.08-.17,1.61-.27l.29-.05c.63-.13,1.25-.28,1.86-.44l.46-.13c.47-.13.93-.27,1.39-.42l.53-.18c.48-.17,1-.35,1.42-.54l.35-.13c.59-.25,1.17-.51,1.74-.79L85,108c.49-.24,1-.5,1.45-.76l.41-.24c.44-.26.88-.52,1.31-.8l.3-.2a33.84,33.84,0,0,0,3.06-2.29l.26-.23c.41-.35.81-.71,1.19-1.09l.24-.22a32.05,32.05,0,0,0,2.61-2.86l.14-.18c.35-.44.69-.9,1-1.36l.18-.26c.36-.52.71-1,1-1.58h0A32.41,32.41,0,0,0,103,79.52l-1.27-.45A2.07,2.07,0,0,1,100.53,78.07Z"/>
			<path class="cls-9"
			      d="M83.74,95.42a1,1,0,0,1,.15-1.08l2.75-3.28a1,1,0,0,1,1-.34,32.35,32.35,0,0,0,5.52-18.11c0-.71,0-1.41-.08-2.11l-.24-.34a1,1,0,0,0-1-.42L90,70l-3-2.66a1.05,1.05,0,0,0-1.4,1.57l3.32,3a1,1,0,0,0,.82.26L90.9,72a1,1,0,0,1,.9.37,1,1,0,0,1-.3,1.52l-5.28,2.89a.68.68,0,0,1-.31.11.69.69,0,0,1-.63-.31l-3.9-6.2a1,1,0,1,0-1.77,1.12l3.9,6.19A2.74,2.74,0,0,0,85.85,79h.24a2.91,2.91,0,0,0,1.3-.46l.09-.06a1,1,0,0,1,.36,1.66l-5.11,5.63L82,90.88a3.19,3.19,0,0,1-1,1.88L74.54,98a3.91,3.91,0,0,1-4.78-.62,43.29,43.29,0,0,1-3.08-5.65,4,4,0,0,1-.39-1.4l-.6-6.52a3.15,3.15,0,0,0-3-2.85l-7.92-.42A2.1,2.1,0,0,1,52.89,79l-1.43-5.8a2.1,2.1,0,0,1,.61-2l7-6.49a1.56,1.56,0,0,1,1.61-.31l7.42,2.93a1.9,1.9,0,0,0,.67.13h8.85a1.19,1.19,0,0,0,.54-2.25l-1.68-.86a.59.59,0,0,1-.32-.53v-.28a1.11,1.11,0,0,1,1.08-1.09l2.92-.08a1.46,1.46,0,0,0,1.27-1.71,1.53,1.53,0,0,0-1.84-1.15l-1.21.25A2.08,2.08,0,0,0,76.89,61l-.36.95a1.7,1.7,0,0,1-1.14,1l-1.87.52a2.09,2.09,0,0,1-2.3-.87l-.28-.41a.59.59,0,0,0-1,.11c-.42,1.07-.74,1.9-.81,2.15A1,1,0,0,1,67,64.3c0-.17,0-.33.74-2.23a1.26,1.26,0,0,0-1.21-1.72l-4.24.15-2,2.76a1.87,1.87,0,0,1-1.38.78l-2.14.18a1,1,0,0,1-1.13-1.08l.11-2.8a1,1,0,0,1,1-1L60,59.17l.58-4.33a1.05,1.05,0,0,1,1-.91h5a3.32,3.32,0,0,0,.83-.11l3.37-.92A3.16,3.16,0,0,0,73,50.83l1.34-4.18a31.45,31.45,0,0,0-3.78-.23l.6,0-1.21,3.62a1.56,1.56,0,0,1-1.49,1.08,1.41,1.41,0,0,1-.49-.09,1.56,1.56,0,0,1-1-2l.11-2.44c-1,.11-2,.27-3,.47l-1.35,4a1,1,0,0,1-1,.71,1,1,0,0,1-.34,0,1.05,1.05,0,0,1-.66-1.33l.93-2.76A32.68,32.68,0,0,0,52,52.28l-.26.18c-.46.34-.92.68-1.36,1l-.18.14a32.05,32.05,0,0,0-2.86,2.61l-.22.23c-.37.39-.74.79-1.09,1.2l-.23.26A33.84,33.84,0,0,0,43.46,61l-.2.3c-.28.43-.54.87-.8,1.32l-.24.4c-.26.48-.52,1-.76,1.45l-.12.23c-.28.57-.54,1.15-.79,1.74l-.13.34c-.19.47-.37,1-.54,1.43l-.18.53c-.15.46-.29.92-.42,1.39,0,.16-.09.3-.13.46-.16.61-.31,1.23-.44,1.86,0,.1,0,.2-.05.29-.1.53-.19,1.07-.27,1.61,0,.2,0,.4-.07.6-.06.47-.1.93-.14,1.4,0,.2,0,.39,0,.59,0,.65-.06,1.31-.06,2,0,.94,0,1.87.13,2.79l5.59,5.23a2.09,2.09,0,0,1,.63,1.74l-.91,8.23a32.11,32.11,0,0,0,5,5.85,32.46,32.46,0,0,0,35.24-7.32Z"/>
			<path class="cls-9" d="M39.92,89.71c-.21-.6-.41-1.22-.59-1.85C39.51,88.49,39.71,89.11,39.92,89.71Z"/>
			<path class="cls-9" d="M39.29,87.72a31.59,31.59,0,0,1-1.09-6A31.59,31.59,0,0,0,39.29,87.72Z"/>
			<path class="cls-9" d="M67.61,46.56l.7-.05Z"/>
			<path class="cls-9" d="M41.46,93.36a32.34,32.34,0,0,1-1.53-3.63A32.34,32.34,0,0,0,41.46,93.36Z"/>
			<path class="cls-9" d="M82.69,48.78h0a32.23,32.23,0,0,0-8.34-2.12A32.32,32.32,0,0,1,82.69,48.78Z"/>
			<path class="cls-9"
			      d="M86.45,64.29a1,1,0,0,0,1.45.29,1.06,1.06,0,0,0,.28-1.46L86,59.89a1,1,0,0,0-1.74,1.17Z"/>
			<path class="cls-9" d="M62.9,47.33l.3-.06Z"/>
			<path class="cls-9" d="M42.37,95c-.28-.48-.54-1-.79-1.46C41.83,94.07,42.09,94.56,42.37,95Z"/>
			<path class="cls-9" d="M43.51,96.89c-.35-.52-.67-1-1-1.58C42.84,95.85,43.16,96.37,43.51,96.89Z"/>
			<path class="cls-11" d="M100.05,65.31l.3.67Z"/>
			<path class="cls-11" d="M98.69,62.69c.1.18.21.36.31.55C98.9,63.05,98.79,62.87,98.69,62.69Z"/>
			<path class="cls-11" d="M98,61.51l.27.41Z"/>
			<path class="cls-11" d="M93.71,56.14l.2.21Z"/>
			<path class="cls-11" d="M89.22,52.33l.25.18Z"/>
			<path class="cls-11" d="M99.39,64c.11.2.22.41.32.62C99.61,64.38,99.5,64.17,99.39,64Z"/>
			<path class="cls-11" d="M92.65,55.11l.24.23Z"/>
			<path class="cls-11" d="M88,51.53l.22.14Z"/>
			<path class="cls-11" d="M103,79.52h0c0-.21,0-.41,0-.62h0C103,79.11,103,79.31,103,79.52Z"/>
			<path class="cls-11" d="M90.4,53.2l.26.21Z"/>
			<path class="cls-11" d="M86.8,50.78l.16.1Z"/>
			<path class="cls-11" d="M85.58,50.11l.07,0Z"/>
			<path class="cls-11" d="M91.54,54.13l.26.22Z"/>
			<path class="cls-11" d="M94.73,57.22l.11.13Z"/>
			<path class="cls-11" d="M102.07,71.06c.07.27.13.55.19.82C102.2,71.61,102.14,71.33,102.07,71.06Z"/>
			<path class="cls-11" d="M102.41,72.58c.06.29.1.58.15.87C102.51,73.16,102.47,72.87,102.41,72.58Z"/>
			<path class="cls-11" d="M101.66,69.57c.08.26.15.52.22.79C101.81,70.09,101.74,69.83,101.66,69.57Z"/>
			<path class="cls-11" d="M102.68,74.12c0,.31.08.62.11.93C102.76,74.74,102.72,74.43,102.68,74.12Z"/>
			<path class="cls-11" d="M102.87,75.69c0,.35.06.7.08,1C102.93,76.39,102.9,76,102.87,75.69Z"/>
			<path class="cls-11" d="M103,77.29c0,.53,0,1.07,0,1.6C103,78.36,103,77.82,103,77.29Z"/>
			<path class="cls-11" d="M101.19,68.11c.08.25.17.5.25.75C101.36,68.61,101.27,68.36,101.19,68.11Z"/>
			<path class="cls-11" d="M100.65,66.69c.09.24.19.48.28.71C100.84,67.17,100.74,66.93,100.65,66.69Z"/>
			<polygon class="cls-11" points="74.33 46.65 74.33 46.65 74.34 46.65 74.33 46.65"/>
			<path class="cls-12"
			      d="M103,80a.37.37,0,0,1-.15,0l-1.27-.45a2.5,2.5,0,0,1-1.46-1.21l-3.55-6.56a1.64,1.64,0,0,0-1.44-.86H95l-1.76.21h-.06a.47.47,0,0,1-.37-.19l-.1-.14a.54.54,0,0,1-.09-.24A31.84,31.84,0,0,0,82.38,49.12a.46.46,0,0,1-.08-.59.47.47,0,0,1,.39-.21l.17,0c1,.42,2,.87,2.93,1.35.47.25.85.46,1.24.69l.17.09c.36.21.71.43,1.07.66l.22.14c.34.22.67.45,1,.68l.25.18.94.7.26.21c.31.24.61.48.9.73l.26.22.86.77.24.23.84.81.2.22c.28.29.56.58.83.88l.06.08a32.14,32.14,0,0,1,3.23,4.27l.27.42.39.66.39.68.34.65,0,.09c.13.26.23.44.32.63s.23.48.34.73.21.45.31.68l.3.72c.1.24.2.48.29.72l.26.72c.09.25.17.51.26.76s.15.48.22.72.15.53.23.8.13.47.19.71.13.56.19.83l0,.1c0,.2.09.4.13.61s.11.58.16.88c0,0,.08.52.11.69s.08.57.11.86c0,0,.07.58.09.73,0,.33,0,.66.07,1l0,.63c0,.54,0,1.08,0,1.62,0,.14,0,.26,0,.38v.26a.47.47,0,0,1-.2.36A.43.43,0,0,1,103,80Z"/>
			<path class="cls-13"
			      d="M82.69,48.78c1,.4,2,.84,2.89,1.33l.07,0c.39.2.77.41,1.15.63l.16.1c.36.21.71.42,1.06.65l.22.14c.33.21.66.44,1,.66l.25.18.93.69.26.21c.3.23.59.47.88.72l.26.22.85.76.24.23c.28.26.55.52.82.8l.2.21c.28.29.55.57.82.87l.11.13A31.86,31.86,0,0,1,98,61.51l.27.41.45.77c.1.18.21.36.31.55s.26.48.39.73.22.41.32.62l.34.72.3.67.3.71c.09.24.19.48.28.71s.17.48.26.71.17.5.25.75.15.47.22.71.15.52.22.79.13.46.19.7.13.55.19.82l.15.7c.06.29.1.58.15.87l.12.67c0,.31.08.62.11.93s.06.43.08.64.06.7.08,1c0,.18,0,.37,0,.55,0,.53,0,1.07,0,1.6h0c0,.21,0,.41,0,.62l-1.27-.45a2.07,2.07,0,0,1-1.21-1L97,71.51a2.09,2.09,0,0,0-1.84-1.1l-.25,0-1.76.21L93,70.5A32.38,32.38,0,0,0,82.69,48.78m0-.92a.94.94,0,0,0-.78.43.93.93,0,0,0,.15,1.16A31.38,31.38,0,0,1,92.12,70.56a.93.93,0,0,0,.17.48l.1.14a.91.91,0,0,0,.74.37h.11L95,71.34h.14a1.2,1.2,0,0,1,1,.62l3.55,6.56a2.93,2.93,0,0,0,1.73,1.43l1.24.44a.84.84,0,0,0,.31.05.9.9,0,0,0,.91-.9,1.93,1.93,0,0,0,0-.24c0-.13,0-.26,0-.39v0c0-.52,0-1.07,0-1.63,0-.12,0-.24,0-.36l0-.2v-.07c0-.34,0-.67-.08-1,0-.15,0-.3,0-.46l0-.2v-.08c0-.29-.06-.58-.11-.87s0-.34-.08-.52l0-.18c0-.3-.1-.59-.16-.89s-.09-.41-.13-.62l0-.09c-.07-.29-.13-.57-.2-.85l-.19-.73c-.07-.26-.15-.53-.23-.8s-.15-.49-.23-.73-.17-.52-.26-.77-.17-.49-.26-.73-.19-.49-.29-.73-.2-.49-.31-.74-.2-.46-.31-.69l-.35-.74-.28-.55,0-.08,0-.09-.35-.67-.22-.38-.11-.18-.07-.12L99,61.44l-.17-.27-.1-.16a33.92,33.92,0,0,0-3.23-4.27l0-.05-.07-.09c-.27-.3-.55-.59-.84-.88l-.08-.09-.13-.14c-.27-.28-.56-.55-.84-.82l-.1-.09-.15-.15c-.28-.26-.58-.52-.87-.77l-.09-.08-.17-.15c-.3-.25-.6-.5-.91-.74l-.07-.06-.2-.15c-.31-.25-.63-.48-1-.71l-.25-.19-1-.68-.16-.1-.07,0q-.54-.34-1.08-.66L87.31,50l0,0c-.39-.23-.79-.45-1.18-.66l-.5.78L86,49.3a32.54,32.54,0,0,0-3-1.37.83.83,0,0,0-.34-.07Z"/>
			<path class="cls-11"
			      d="M72.65,98.12a3.34,3.34,0,0,1-2.53-1,44.14,44.14,0,0,1-3-5.57,3.58,3.58,0,0,1-.34-1.24l-.6-6.52a3.63,3.63,0,0,0-3.4-3.27l-7.91-.42a1.64,1.64,0,0,1-1.51-1.25l-1.42-5.8a1.61,1.61,0,0,1,.48-1.59l7-6.5a1.12,1.12,0,0,1,1.13-.21L68,67.67a2.2,2.2,0,0,0,.84.16h8.85A1.66,1.66,0,0,0,79,67.11a1.65,1.65,0,0,0-.61-2.39l-1.68-.86a.14.14,0,0,1-.07-.11v-.28a.66.66,0,0,1,.64-.64l2.91-.08A2,2,0,0,0,81.57,62a1.89,1.89,0,0,0,.35-1.49,1.94,1.94,0,0,0-2-1.56,2,2,0,0,0-.42,0l-1.21.25a2.53,2.53,0,0,0-1.87,1.6l-.36,1a1.26,1.26,0,0,1-.83.76l-1.87.52a1.62,1.62,0,0,1-1.8-.68L71.33,62a1.06,1.06,0,0,0-.87-.47,1,1,0,0,0-1,.67c-.48,1.2-.76,1.94-.83,2.18a.61.61,0,0,1-.59.54.6.6,0,0,1-.59-.59,9.92,9.92,0,0,1,.71-2.06,1.72,1.72,0,0,0-1.6-2.35l-4.3.15a.48.48,0,0,0-.35.19l-2,2.77a1.43,1.43,0,0,1-1,.59l-2.15.17a.62.62,0,0,1-.46-.17.64.64,0,0,1-.17-.44l.12-2.79a.59.59,0,0,1,.55-.57L60,59.63a.47.47,0,0,0,.43-.4L61,54.9a.58.58,0,0,1,.58-.51h5a3.42,3.42,0,0,0,1-.13L71,53.34A3.62,3.62,0,0,0,73.43,51l1.22-3.82a31.92,31.92,0,0,1,7.79,2,31.89,31.89,0,0,1,10,20.2,1.61,1.61,0,0,0-.53-.1l-.19,0-1.59.18L87.36,67a1.51,1.51,0,0,0-1-.38,1.49,1.49,0,0,0-1.12.5,1.51,1.51,0,0,0,.12,2.13l3.32,3a1.52,1.52,0,0,0,1,.38h.17L91,72.41a.59.59,0,0,1,.48.21.55.55,0,0,1,.11.45.58.58,0,0,1-.28.37L86,76.34a.24.24,0,0,1-.13,0h0a.22.22,0,0,1-.2-.09l-3.9-6.2a1.52,1.52,0,0,0-1.28-.71,1.54,1.54,0,0,0-.8.23,1.52,1.52,0,0,0-.47,2.08l3.9,6.2a3.21,3.21,0,0,0,2.73,1.51l.28,0A3.2,3.2,0,0,0,87.48,79a.55.55,0,0,1,.16.3.56.56,0,0,1-.14.51L82.39,85.4a.47.47,0,0,0-.11.25l-.76,5.17a2.71,2.71,0,0,1-.85,1.6l-6.42,5.25A2.5,2.5,0,0,1,72.65,98.12ZM85.13,59a1.49,1.49,0,0,0-.84.26,1.51,1.51,0,0,0-.64,1,1.54,1.54,0,0,0,.23,1.13l2.19,3.23a1.46,1.46,0,0,0,1.24.66A1.5,1.5,0,0,0,88.79,64a1.45,1.45,0,0,0-.23-1.13l-2.18-3.23A1.5,1.5,0,0,0,85.13,59Z"/>
			<path class="cls-13"
			      d="M75,47.65a31.3,31.3,0,0,1,7.22,1.92A31.37,31.37,0,0,1,92,68.82h-.24l-1.4.16-2.66-2.38a2,2,0,0,0-1.31-.5,1.94,1.94,0,0,0-1.46.66A2,2,0,0,0,85,69.54l3.32,3a2,2,0,0,0,1.31.5l.22,0L91,72.87a.11.11,0,0,1,.08,0,.29.29,0,0,1,0,.08.08.08,0,0,1,0,.06l-5.13,2.81-3.77-6a2,2,0,0,0-1.67-.91,2,2,0,0,0-1.66,3l3.9,6.19a3.66,3.66,0,0,0,3.12,1.72h.32a3.38,3.38,0,0,0,.78-.16l-4.9,5.41a.94.94,0,0,0-.23.48l-.75,5.17a2.27,2.27,0,0,1-.69,1.31L74,97.31l0,0a2.09,2.09,0,0,1-1.28.32,2.85,2.85,0,0,1-2.17-.83,40.62,40.62,0,0,1-3-5.47,3.47,3.47,0,0,1-.3-1.09l-.6-6.52a4.07,4.07,0,0,0-3.82-3.68l-7.92-.43a1.18,1.18,0,0,1-1.08-.89l-1.43-5.81a1.18,1.18,0,0,1,.35-1.15l7-6.49a.63.63,0,0,1,.42-.17.59.59,0,0,1,.23.05l7.42,2.92a2.7,2.7,0,0,0,1,.19h8.85a2.1,2.1,0,0,0,.95-4l-1.49-.76v-.07a.18.18,0,0,1,.19-.19l2.91-.08h.08a2.37,2.37,0,0,0,2.07-2.77,2.4,2.4,0,0,0-2.41-2,2.94,2.94,0,0,0-.51.05l-1.21.25A3,3,0,0,0,76,60.67l-.36.95a.8.8,0,0,1-.52.48l-1.87.51a1.13,1.13,0,0,1-.32,0,1.18,1.18,0,0,1-1-.53l-.27-.41a1.5,1.5,0,0,0-2.66.28c-.72,1.84-.81,2.12-.84,2.22s0,.07,0,.1a.14.14,0,0,1-.13.11.13.13,0,0,1-.13-.13,14.93,14.93,0,0,1,.68-1.89,2.19,2.19,0,0,0-.24-2,2.17,2.17,0,0,0-1.79-1H66.5l-4.23.15a.91.91,0,0,0-.72.39l-2,2.76a.94.94,0,0,1-.7.4l-2.16.18a.13.13,0,0,1-.09,0,.13.13,0,0,1,0-.1l.11-2.79a.15.15,0,0,1,.13-.13L60,60.08a.9.9,0,0,0,.86-.79L61.47,55a.13.13,0,0,1,.13-.11h5a3.91,3.91,0,0,0,1.08-.15l3.36-.92a4,4,0,0,0,2.79-2.67L75,47.65m12.34,18a1.92,1.92,0,0,0,1.1-.33,2,2,0,0,0,.53-2.73l-2.18-3.23a2,2,0,0,0-1.63-.87,1.93,1.93,0,0,0-1.1.34,2,2,0,0,0-.53,2.73l2.18,3.23a2,2,0,0,0,1.63.86m-13-19L73,50.83a3.16,3.16,0,0,1-2.16,2.07l-3.37.92a3.32,3.32,0,0,1-.83.11h-5a1.05,1.05,0,0,0-1,.91L60,59.17l-3.21.17a1,1,0,0,0-1,1l-.11,2.8a1,1,0,0,0,1,1.08h.09L58.94,64a1.87,1.87,0,0,0,1.38-.78l2-2.76,4.24-.15h0a1.26,1.26,0,0,1,1.17,1.72C67,64,67,64.13,67,64.3a1,1,0,0,0,2.08.18c.07-.25.39-1.08.81-2.15a.6.6,0,0,1,.56-.37.58.58,0,0,1,.48.26l.28.41a2.07,2.07,0,0,0,1.74.94,2.1,2.1,0,0,0,.56-.07L75.39,63a1.7,1.7,0,0,0,1.14-1l.36-.95a2.08,2.08,0,0,1,1.53-1.31l1.21-.25a1.86,1.86,0,0,1,.33,0,1.5,1.5,0,0,1,1.51,1.19,1.46,1.46,0,0,1-1.27,1.71l-2.92.08a1.11,1.11,0,0,0-1.08,1.09v.28a.59.59,0,0,0,.32.53l1.68.86a1.19,1.19,0,0,1-.54,2.25H68.8a1.9,1.9,0,0,1-.67-.13l-7.42-2.93a1.59,1.59,0,0,0-.57-.1,1.52,1.52,0,0,0-1,.41l-7,6.49a2.1,2.1,0,0,0-.61,2L52.89,79a2.1,2.1,0,0,0,1.92,1.6l7.92.42a3.15,3.15,0,0,1,3,2.85l.6,6.52a4,4,0,0,0,.39,1.4,43.29,43.29,0,0,0,3.08,5.65,3.75,3.75,0,0,0,2.89,1.17A2.88,2.88,0,0,0,74.54,98L81,92.76a3.19,3.19,0,0,0,1-1.88l.75-5.17,5.11-5.63a1,1,0,0,0-.36-1.66l-.09.06a2.91,2.91,0,0,1-1.3.46h-.24a2.74,2.74,0,0,1-2.34-1.3l-3.9-6.19A1.05,1.05,0,0,1,79.94,70a1,1,0,0,1,.55-.16,1,1,0,0,1,.89.49l3.9,6.2a.67.67,0,0,0,.57.31h.06a.68.68,0,0,0,.31-.11l5.28-2.89a1,1,0,0,0,.3-1.52A1,1,0,0,0,91,72H90.9l-1.11.12h-.12a1,1,0,0,1-.7-.27l-3.32-3a1.05,1.05,0,0,1-.08-1.48,1,1,0,0,1,.78-.35,1.08,1.08,0,0,1,.7.26L90,70l1.8-.21H92a1,1,0,0,1,.84.43l.24.34A32.38,32.38,0,0,0,82.69,48.78a32.32,32.32,0,0,0-8.35-2.13Zm13,18.11a1,1,0,0,1-.86-.47l-2.19-3.23a1,1,0,0,1,.28-1.45,1.07,1.07,0,0,1,.59-.18,1,1,0,0,1,.87.46l2.18,3.23a1,1,0,0,1-.87,1.64Z"/>
			<path class="cls-12"
			      d="M84,95.81a1,1,0,0,0,.67.25,1.06,1.06,0,0,0,.81-.38l2.75-3.27a1.06,1.06,0,0,0-.13-1.48,1,1,0,0,0-.53-.21,31.58,31.58,0,0,1-3.85,4.7A1,1,0,0,0,84,95.81Z"/>
			<path class="cls-11"
			      d="M86.64,91.06l-2.75,3.28a1,1,0,0,0-.15,1.08,31.58,31.58,0,0,0,3.85-4.7A1,1,0,0,0,86.64,91.06Z"/>
			<path class="cls-11" d="M61.61,47.68h0l1.29-.36C62.47,47.44,62,47.55,61.61,47.68Z"/>
			<path class="cls-11" d="M63.2,47.27c.27-.07.54-.11.82-.17v0C63.75,47.13,63.47,47.2,63.2,47.27Z"/>
			<path class="cls-11"
			      d="M61.68,52.29a1.27,1.27,0,0,1-.48-.08,1.44,1.44,0,0,1-.87-.75,1.48,1.48,0,0,1-.08-1.15l.92-2.76a.51.51,0,0,1,.31-.3l.33-.09q.48-.15,1-.27l.29-.07.52-.1.31-.06H64a.45.45,0,0,1,.34.15.46.46,0,0,1,.09.45l-1.35,4A1.5,1.5,0,0,1,61.68,52.29Z"/>
			<path class="cls-13"
			      d="M64,47.1h0m0,0-1.35,4a1,1,0,0,1-1,.71,1,1,0,0,1-.34,0,1.05,1.05,0,0,1-.66-1.33l.93-2.76,1.29-.36.3-.06c.27-.07.54-.11.82-.17m0-.91h0l-.16,0-.28.06-.54.1-.12,0-.19,0c-.33.08-.67.18-1,.28l-.33.09a.92.92,0,0,0-.61.59l-.93,2.76a2,2,0,0,0,1.24,2.49,1.89,1.89,0,0,0,.63.1,2,2,0,0,0,1.86-1.34l1.33-4a1,1,0,0,0,.07-.35.92.92,0,0,0-.92-.91ZM64,48Z"/>
			<path class="cls-11" d="M39.93,89.73v0Z"/>
			<path class="cls-11" d="M41.58,93.58l-.12-.22Z"/>
			<polygon class="cls-11" points="43.51 96.89 43.51 96.89 43.51 96.89 43.51 96.89"/>
			<path class="cls-11" d="M42.52,95.31,42.37,95Z"/>
			<path class="cls-11" d="M39.33,87.86l0-.14Z"/>
			<path class="cls-11"
			      d="M43.51,97.35a.44.44,0,0,1-.38-.2h0q-.51-.78-1-1.59L42,95.27c-.28-.49-.55-1-.8-1.49l-.12-.22a34.52,34.52,0,0,1-1.56-3.67c-.22-.64-.42-1.27-.6-1.9l0-.15a33.34,33.34,0,0,1-1.11-6.11.47.47,0,0,1,.46-.5.47.47,0,0,1,.31.12l5.59,5.23a2.58,2.58,0,0,1,.77,2.13L44,96.94a.47.47,0,0,1-.34.4Z"/>
			<path class="cls-13"
			      d="M38.2,81.69l5.59,5.23a2.09,2.09,0,0,1,.63,1.74l-.91,8.23h0c-.35-.52-.67-1-1-1.58L42.37,95c-.28-.48-.54-1-.79-1.46l-.12-.22a32.34,32.34,0,0,1-1.53-3.63v0c-.21-.6-.41-1.22-.59-1.85l0-.14a31.59,31.59,0,0,1-1.09-6h0m0-.92a1,1,0,0,0-.37.08.91.91,0,0,0-.55.84v.09A33.53,33.53,0,0,0,38.41,88l0,.15c.19.65.39,1.3.61,1.9a.21.21,0,0,0,0,.06,34.19,34.19,0,0,0,1.56,3.69l.07.13,0,.09c.25.49.52,1,.81,1.5l0,.1.11.19c.35.59.68,1.12,1,1.62a.94.94,0,0,0,.77.41.76.76,0,0,0,.21,0,.9.9,0,0,0,.7-.79l.91-8.23a3,3,0,0,0-.91-2.5L38.82,81a.92.92,0,0,0-.62-.25Z"/>
			<path class="cls-11" d="M67.07,46.61v0l.54-.07Z"/>
			<path class="cls-11" d="M70.55,46.42c-.76,0-1.5,0-2.24.09C69.05,46.46,69.79,46.42,70.55,46.42Z"/>
			<path class="cls-11"
			      d="M68.45,51.59a2,2,0,0,1-.64-.1,2,2,0,0,1-1.3-2.5l.1-2.38a.47.47,0,0,1,.41-.44l.55-.06.71-.06c.9-.06,1.6-.09,2.27-.09l.61,0a.45.45,0,0,1,.37.19.49.49,0,0,1,.06.41l-1.21,3.63A2,2,0,0,1,68.45,51.59Z"/>
			<path class="cls-13"
			      d="M70.55,46.42l.6,0-1.21,3.62a1.56,1.56,0,0,1-1.49,1.08,1.41,1.41,0,0,1-.49-.09,1.56,1.56,0,0,1-1-2l.11-2.44.54-.07.7-.05c.74,0,1.48-.09,2.24-.09m0-.92c-.68,0-1.39,0-2.3.09l-.72.06-.34,0-.22,0a.9.9,0,0,0-.81.87l-.11,2.32a2.48,2.48,0,0,0,1.62,3,2.28,2.28,0,0,0,.78.13,2.46,2.46,0,0,0,2.36-1.7L72,46.73a.92.92,0,0,0-.85-1.21h-.62Z"/>
			<path class="cls-13"
			      d="M70.55,46.25A32.65,32.65,0,1,1,37.9,78.9,32.65,32.65,0,0,1,70.55,46.25m0-1.83A34.49,34.49,0,1,0,105,78.9,34.52,34.52,0,0,0,70.55,44.42Z"/>
			<path class="cls-11"
			      d="M84.75,96.53a1.76,1.76,0,0,1-1-.34,1.38,1.38,0,0,1-.44-1.89l0-.06,3.05-3.59,0,0a2,2,0,0,1,1.08-.37,1.39,1.39,0,0,1,1.29.91.66.66,0,0,1,.17.27c.12.42-.12.95-.78,1.74L85.85,96A1.37,1.37,0,0,1,84.75,96.53Z"/>
			<path class="cls-13"
			      d="M87.53,90.71a1,1,0,0,1,.92.74s.48.14-.6,1.43l-2.35,2.8a1,1,0,0,1-.75.39,1.32,1.32,0,0,1-.73-.26s-.7-.34-.28-1.33l3-3.49a1.56,1.56,0,0,1,.81-.28m0-.92a2.41,2.41,0,0,0-1.35.46l-.09.06L86,90.4l-3,3.49L83,94l0,.13a1.85,1.85,0,0,0,.65,2.48,2.19,2.19,0,0,0,1.2.39,1.84,1.84,0,0,0,1.47-.75l2.34-2.77c.78-.94,1-1.58.87-2.17a1.11,1.11,0,0,0-.22-.4,1.86,1.86,0,0,0-1.68-1.11Z"/>
		</g>
	</g>
</svg>