<svg xmlns="http://www.w3.org/2000/svg" viewBox="0 0 113.39 113.39"><defs><style>.cls-1{fill:none;}.cls-2{fill:#144451;}.cls-3{fill:#bdd751;}.cls-4{fill:#1ab360;}.cls-5{fill:#8cc4dd;}.cls-6{fill:#c1dee5;}.cls-7{fill:#e5f1f9;}.cls-8{opacity:0.61;}.cls-9{fill:#111a28;}.cls-10{fill:#b0d9e8;}.cls-11{fill:#daf0f5;}</style></defs><g id="Layer_2" data-name="Layer 2"><g id="Layer_1-2" data-name="Layer 1"><rect class="cls-1" width="113.39" height="113.39"/><path class="cls-2" d="M18.86,87.61a.27.27,0,0,1,0,.12.47.47,0,0,1-.59.29,10.58,10.58,0,0,1-1.13-.5.47.47,0,1,1,.42-.83,8.67,8.67,0,0,0,1,.44A.48.48,0,0,1,18.86,87.61Z"/><path class="cls-2" d="M16,86.1a.65.65,0,0,1-.08.22.48.48,0,0,1-.65.13,15.14,15.14,0,0,1-1.7-1.33.47.47,0,1,1,.63-.69,15.31,15.31,0,0,0,1.59,1.24A.47.47,0,0,1,16,86.1Zm-3.08-2.8a.51.51,0,0,1-.17.33.47.47,0,0,1-.66-.08,11.83,11.83,0,0,1-1.2-1.81.47.47,0,0,1,.83-.44A11.19,11.19,0,0,0,12.81,83,.46.46,0,0,1,12.91,83.3Z"/><path class="cls-2" d="M29.08,60.9v0A5.16,5.16,0,0,1,28.26,63a.46.46,0,0,1-.65.13.47.47,0,0,1-.13-.65,4.09,4.09,0,0,0,.67-1.73.47.47,0,0,1,.93.11ZM29,58.83a.48.48,0,0,1-.36.41A.47.47,0,0,1,28,58.9a7.69,7.69,0,0,0-.55-1.56l-.15-.3a.46.46,0,0,1,.23-.62.45.45,0,0,1,.62.22l.14.3A8.91,8.91,0,0,1,29,58.68.39.39,0,0,1,29,58.83Zm-2.08,5.49a.46.46,0,0,1-.18.33,9.31,9.31,0,0,1-.8.54,4,4,0,0,1-1.26.44.48.48,0,0,1-.55-.38.49.49,0,0,1,.38-.55,2.71,2.71,0,0,0,.95-.32,7.34,7.34,0,0,0,.71-.48.48.48,0,0,1,.66.09A.5.5,0,0,1,26.89,64.32ZM27.31,55a.49.49,0,0,1-.26.38.47.47,0,0,1-.63-.21c-.33-.64-.65-1.25-1-1.83a.46.46,0,0,1,.19-.63.47.47,0,0,1,.64.18c.32.59.64,1.21,1,1.86A.56.56,0,0,1,27.31,55Zm-2-3.67a.45.45,0,0,1-.24.37.45.45,0,0,1-.63-.18l-.09-.15c-.33-.59-.64-1.14-.93-1.68a.47.47,0,0,1,.82-.44c.29.53.6,1.08.93,1.66l.08.15A.45.45,0,0,1,25.32,51.34ZM23,65.3a.46.46,0,0,1-.48.43c-.33,0-.66,0-1-.07l-1.13-.11a.48.48,0,0,1-.42-.51.47.47,0,0,1,.52-.42l1.11.11c.31,0,.62,0,.94.06a.47.47,0,0,1,.44.49Zm.4-17.63a.46.46,0,0,1-.26.38.47.47,0,0,1-.63-.22,18.57,18.57,0,0,1-.82-2,.47.47,0,1,1,.88-.31,17.91,17.91,0,0,0,.79,1.88A.49.49,0,0,1,23.35,47.67ZM18.79,65a.47.47,0,0,1-.43.43,7.19,7.19,0,0,0-1.92.38.46.46,0,0,1-.59-.28.46.46,0,0,1,.28-.6,8.29,8.29,0,0,1,2.16-.44.47.47,0,0,1,.5.44Zm-3.88,1.36a.49.49,0,0,1-.2.34,7.84,7.84,0,0,0-1.44,1.33.46.46,0,0,1-.66.06.47.47,0,0,1-.06-.66A8.41,8.41,0,0,1,14.17,66a.47.47,0,0,1,.65.11A.49.49,0,0,1,14.91,66.39Zm-2.69,3.14a.41.41,0,0,1-.05.18,12.91,12.91,0,0,0-.8,1.84.45.45,0,0,1-.59.29.46.46,0,0,1-.29-.59,13.25,13.25,0,0,1,.85-2,.47.47,0,0,1,.64-.19A.45.45,0,0,1,12.22,69.53ZM11,79.64a.46.46,0,0,1-.33.4.47.47,0,0,1-.59-.31,12.35,12.35,0,0,1-.42-2.13.46.46,0,0,1,.42-.51.46.46,0,0,1,.51.42A10.53,10.53,0,0,0,11,79.46.55.55,0,0,1,11,79.64Zm-.13-6.19v.06l-.06.27a14.52,14.52,0,0,0-.23,1.55v.17h0a.47.47,0,0,1-.5.43.46.46,0,0,1-.43-.5v-.19a16.6,16.6,0,0,1,.24-1.66l.06-.28a.48.48,0,0,1,.56-.36A.47.47,0,0,1,10.84,73.45Z"/><path class="cls-2" d="M22,43.7a.47.47,0,0,1-.93,0A9.87,9.87,0,0,1,21,42.5a.45.45,0,0,1,.45-.48.48.48,0,0,1,.48.46,10.64,10.64,0,0,0,.1,1.11A.4.4,0,0,1,22,43.7Z"/><circle class="cls-3" cx="24.34" cy="89.46" r="4.7"/><circle class="cls-4" cx="24.24" cy="37.08" r="3.85"/><polygon class="cls-5" points="78.74 23.37 80.13 18.95 81.15 18.22 89.5 26.32 94.36 32.38 95.2 37.16 94.98 45.98 94.08 45.59 87.78 33.14 85.14 29.23 78.74 23.37"/><path class="cls-6" d="M80.44,19.53s10.4,8.47,12,12.89,1.58,5.23.73,5-6-12-13.35-16Z"/><path class="cls-7" d="M95.76,55.81,96.69,53,94.75,47.3,88.34,31l-2.75-1.31H82.48v-.61l-1.42-1.44-1.77-.39-7.72,4.34-5,1.33-8.34.62,0,2.79.55,1.9-6.49,4.49-10.79.74-6.11-.43-2.83-1.24-4.15-3.58L25,37.1l-1.39.34-.38,1.18,1.14,1.85.91,1.11L24.16,43.8l-.89,2.07.89,2.23,1.39,2.08s2.15.24,2.32.28l2.74.68,3,.75,6,1.52,4.85.63,5.52.43,6.19-.64,2.32-.63.85,2.61,2.11,5.32,1.68,4.08,1.35.64H66.1l2-1.31,1.8.46L73,64.83l5.77-1.13,5.14-2.91,3.37-2.19,2.15-.9,2.77-.49Z"/><path class="cls-5" d="M30.47,45.7s12.7,8.2,19.05,7S54,54.18,54,54.18l-3.65.66-11-1.44-7.9-2.56A4.23,4.23,0,0,1,30.47,45.7Z"/><path class="cls-5" d="M56.88,53.18s8.49-7.76,9.44-8.72,2.73-1.3,3.21-2.36,5-8.74,7.24-5.49-5.36,9.92-5.49,10.21-6.9,4-6.9,4Z"/><polygon class="cls-7" points="65.42 91.89 59.9 87 58.21 83.63 58.21 80.85 59.86 77.06 62.55 72.76 66.64 68.17 67.32 67.57 71.56 68.58 76.21 68.54 81.53 66.77 88.77 63.06 91.52 60.53 93.28 63.74 94.33 69.12 94.33 74.06 95.09 76.21 96.36 81.73 97.58 87.17 97.83 88.69 96.82 90.12 90.79 93.32 86.34 93.32 84.73 92.6 80.84 85.53 78.78 81.69 77.47 78.7 78.19 80.93 76.67 83.55 75.41 85.44 74.5 87 71.83 89.71 69.3 91.32 65.42 91.89"/><polygon class="cls-7" points="36.63 61.97 41.02 59.78 41.27 57.48 43.12 56.62 45.46 56.91 49.98 58.64 51.05 57.88 53.62 57.16 59.39 55.6 62.64 64.24 62.04 64.38 57.16 65.85 51.97 65.85 51.05 65.51 50.51 64.2 47.55 65.21 41.77 65.55 38.74 64.54 36.63 61.97"/><path class="cls-5" d="M92.56,75.58a11.26,11.26,0,0,0,2.23,7.55c2.79,4,.41-6.42.41-6.42l-1.4-4Z"/><path class="cls-5" d="M36.63,62.05s.41,2.49,3.59,2.06A16.62,16.62,0,0,0,46,62S43,62,41.91,60.27s-1.42-.86-1.42-.86L37,61.46Z"/><path class="cls-5" d="M50.12,61s4.17,2.15,6,2.3S61,60.54,61,60.54l1.43,3.62-3.87,1.69H53.12l-2.24-.43A6.12,6.12,0,0,1,50.12,61Z"/><path class="cls-5" d="M75.53,73.8s-.73,11.12-5.17,13.26,1.8.67,1.8.67A13.29,13.29,0,0,0,78,80.41Z"/><path class="cls-5" d="M85.88,64.54s6,4,6.33,10.22,2.12-4.28,2.12-4.28-.57-8.76-2.81-9.94l-2.25,2.1Z"/><path class="cls-5" d="M94.85,76.71s-.76,14.44-6.11,16.37l1.12.51,4.47-1.75,3.77-3-1.41-5.61S95.56,77,94.85,76.71Z"/><path class="cls-5" d="M63.31,51.33l1.47,2.38s3.21-3.88,6.29-3.8,7.16-.42,7.16-3.11a3.75,3.75,0,0,0-2.11-3.55,80.06,80.06,0,0,1-6.74,5.23C67.65,49.45,63.31,51.33,63.31,51.33Z"/><path class="cls-5" d="M71.06,32.42s7.52-.72,9.38,2.09L80,32.14l.61-1.81,1.88-1.22s-1.66-2-2.74-1.73-8.17,4.24-8.17,4.24Z"/><path class="cls-5" d="M82,39.18s2.88,20.38,0,22.72l1.28-.52,5.11-3.28,1-1.16L84.47,44.78l-2.25-6.05Z"/><polygon class="cls-7" points="64.51 91.15 73.92 100.38 71.4 101.2 69.46 102.99 69.05 105.81 69.81 107.68 71.2 109.27 74.17 109.64 77.15 108.24 80.79 105.48 83.76 102.87 85.48 99.34 84.66 96.2 82.14 92.36 76.15 84.75 64.51 91.15"/><path class="cls-5" d="M80,105.78s3.37-9.38,1.3-13.39c-.06-.11-.11-.21-.17-.3-2.42-3.83,3.69,4.31,3.69,4.31l.82,3.14-1.24,2.54L81,105.68Z"/><path class="cls-2" d="M73,89.65c-4,3.54-7.53,2.9-7.71,2.86a.55.55,0,1,1,.21-1.07c.22,0,5.27.9,10.12-6.61a.54.54,0,0,1,.76-.16.55.55,0,0,1,.17.76A20.54,20.54,0,0,1,73,89.65Z"/><path class="cls-2" d="M72.92,93.64c-3.22,2.83-5.47,1.25-5.58,1.17a.55.55,0,0,1,.65-.89c.1.08,2.39,1.57,5.83-2.87a.55.55,0,1,1,.87.67A14.18,14.18,0,0,1,72.92,93.64Z"/><path class="cls-2" d="M73.9,101.14a.47.47,0,0,1-.13-.92c.85-.23,2.88-.71,3.59,0a.47.47,0,0,1-.67.66,5.05,5.05,0,0,0-2.66.24Z"/><path class="cls-2" d="M83.27,93c-1.83-2.22-4.57-5.71-6.8-8.88l-.81.72h0c3,4.21,6.53,8.56,6.79,8.87A20.28,20.28,0,0,1,85,98.12c.79,3.35-3.93,6.71-4,6.74l-.06,0c-4,3.7-7,4.36-7.4,4.44a4.25,4.25,0,0,1-3.07-1.5,3.84,3.84,0,0,1-.63-2.73,4.21,4.21,0,0,1,4.47-4,.55.55,0,0,0,.34-1c-1.12-.75-6.19-5.65-9.31-8.73l-1.62-.06,0,0c.3.3,6.45,6.38,9.22,8.81A5.06,5.06,0,0,0,68.78,105a4.85,4.85,0,0,0,.83,3.54,5.34,5.34,0,0,0,3.91,2h.13c.14,0,3.51-.47,8-4.71.12-.09.52-.38,1-.83,1.53-1.35,4.08-4.12,3.33-7.1a.24.24,0,0,0,0-.08A21.69,21.69,0,0,0,83.27,93Z"/><polygon class="cls-7" points="90.44 102.33 85.01 92.85 89.11 93.3 93.94 91.73 97.02 89.93 97.47 89.24 102.21 100.17 99.72 103.79 90.44 102.33"/><path class="cls-7" d="M91.3,103.44s-3.73-1.26-5.43,1.72c0,0-3.71,4.8,2,7.51,0,0,8-.52,11.3-3.61,0,0,6.22-3.42,2.23-11.5l-15.84-3Z"/><path class="cls-5" d="M98.06,109.45a13.29,13.29,0,0,0,1.29-14.69L102,99.4l1.18,5-.85,2.13-3.53,3.2Z"/><path class="cls-5" d="M93,92.92s1.88.41,0,2.61.48,0,.48,0,4.5-2,5-2.94-1-3.32-1-3.32L93,92.36Z"/><path class="cls-2" d="M68.64,40.66a2.05,2.05,0,0,1-1,2.71,2,2,0,1,1,1-2.71m1.1-.52a3.24,3.24,0,1,0-1.56,4.34,3.27,3.27,0,0,0,1.56-4.34Z"/><path class="cls-2" d="M72.11,5.12C67.74,3,60,.92,52.11,6.06a6.07,6.07,0,0,0-2,2.2c-1.46,2.67-3.61,8.82,1.41,16.68,0,0,5.62,8.87,16.77,3.48,0,0,10.12-2.87,9.26-12.58l-1-5.07A8,8,0,0,0,72.11,5.12Z"/><g class="cls-8"><path class="cls-9" d="M52.56,25.62s13,2.72,18.89-7.86c0,0,4.24-5.18-.28-11.86,0,0,2.13-1.94,5.07,3.55,0,0,4.91,13.32-8.3,18.15C67.94,27.6,57.67,33,52.56,25.62Z"/></g><path class="cls-10" d="M76.32,25.71s5.39-6,3.35-14.14c0,0-3.1-9.51-12.81-10.57,0,0-9.8-1.09-15,5.93A20.13,20.13,0,0,1,67.51,4.79S71.53,6,73,7.34c0,0,2.58,1.49,3.81,6.32s0-.29,0-.29a11.36,11.36,0,0,1-4.38,13.07Z"/><path class="cls-2" d="M60.29,1.56A20.4,20.4,0,0,1,66.86,1c9.71,1.06,12.81,10.57,12.81,10.57,2,8.14-3.35,14.14-3.35,14.14l-3.91.73a11.18,11.18,0,0,0,4.9-10.73v0s0-.06,0-.15a10,10,0,0,0-.51-2.21s.4,1.68.51,2.21c0,0,0,.09,0,.13,0-.11-.19-.68-.53-2.05C75.55,8.83,73,7.34,73,7.34,71.53,6,67.51,4.79,67.51,4.79a19.56,19.56,0,0,0-10.16-.12,19,19,0,0,0-5.48,2.26,14.64,14.64,0,0,1,8.42-5.37M60.06.65a15.38,15.38,0,0,0-8.94,5.73.93.93,0,0,0,1,1.46.84.84,0,0,0,.29-.13,19.23,19.23,0,0,1,14.87-2c1,.32,4,1.38,5.08,2.34a.83.83,0,0,0,.16.12s2.27,1.41,3.37,5.74c.35,1.38.47,1.84.52,2a10.19,10.19,0,0,1-4.53,9.78,1,1,0,0,0-.31,1.13.93.93,0,0,0,1,.55l3.91-.73h.06a.85.85,0,0,0,.46-.28,17.32,17.32,0,0,0,3.57-15,.14.14,0,0,1,0-.06C80.42,10.86,77.16,1.19,67,.07a21.39,21.39,0,0,0-6.91.58Z"/><path class="cls-7" d="M70.32,5.51a.26.26,0,0,0,.32-.36C70,4,68.21,1.31,65.1,1c0,0-8.62-.62-13.49,5.62A.26.26,0,0,0,52,7C54.49,5.37,60.81,2.43,70.32,5.51Z"/><path class="cls-7" d="M76.49,24.76s3.08-2.13,3.7,0c0,0,1.17,1.12-2.62,3.23,0,0-8.16,5.4-14.73,5.53,0,0-6.4.65-6.75-2,0,0-.05-1.73,2.43-.91C58.52,30.63,66.21,32.23,76.49,24.76Z"/><path class="cls-5" d="M71,27.94s3.67.17-.43,3.89c0,0,10.05-3.74,10-7.24,0,0-.16-2.63-4.62.28Z"/><ellipse class="cls-10" cx="79.14" cy="13.73" rx="3.66" ry="4.86" transform="translate(-0.96 19.69) rotate(-14.1)"/><path class="cls-7" d="M77.1,9s-2.5,1-1.67,5.53c0,0,.63,2.63,2.75,1.31,0,0,2.84-1.25,1.09-5C79.27,10.85,78.57,8.81,77.1,9Z"/><path class="cls-2" d="M80,19.49c-2.52.37-5-1.9-5.43-5.07S75.77,8.36,78.28,8s5,1.9,5.43,5.07S82.52,19.11,80,19.49ZM78.44,9c-2,.29-3.24,2.65-2.85,5.27s2.3,4.5,4.26,4.2,3.24-2.65,2.85-5.27S80.39,8.7,78.44,9Z"/><path class="cls-2" d="M78.86,16.35l-.24,0a.47.47,0,0,1-.5-.44.48.48,0,0,1,.44-.5,4.4,4.4,0,0,0,3.9-3.08A.48.48,0,0,1,83,12a.48.48,0,0,1,.34.57A5.32,5.32,0,0,1,78.86,16.35Z"/><path class="cls-2" d="M78.34,23.89c.77-.19,1.56-.11,1.85.84,0,0,1.17,1.12-2.62,3.23a41.66,41.66,0,0,1-11,5,17.05,17.05,0,0,1-3.74.54s-6.4.65-6.75-2a1.1,1.1,0,0,1,.84-1.08,2.91,2.91,0,0,1,1.59.17,17.07,17.07,0,0,0,7-.53,31.92,31.92,0,0,0,11-5.34,6.73,6.73,0,0,1,1.85-.87M78.11,23A7.41,7.41,0,0,0,76,24,31.22,31.22,0,0,1,65.29,29.2a17,17,0,0,1-6.54.52,3.76,3.76,0,0,0-2-.17,2,2,0,0,0-1.54,2v.1c.44,3.29,6.43,2.89,7.73,2.76a17.63,17.63,0,0,0,3.92-.58,41.91,41.91,0,0,0,11.24-5.09c2-1.13,3.09-2.21,3.23-3.3A1.69,1.69,0,0,0,81,24.29,2.23,2.23,0,0,0,78.11,23Z"/><path class="cls-7" d="M61,7.52S67.94,4,72.45,10.93A5.8,5.8,0,0,1,73,12.25a.69.69,0,0,1-1.22.65c-1.13-1.59-4-5-7.73-4.8C59.26,8.4,61,7.52,61,7.52Z"/><path class="cls-11" d="M67.19,25.84c-3.73.8-12.12,1.49-15.9-7.21a.31.31,0,0,0-.59.12A10,10,0,0,0,54.92,27a3.42,3.42,0,0,0,.59.33,13.34,13.34,0,0,0,11.89-.87A.31.31,0,0,0,67.19,25.84Z"/><path class="cls-2" d="M33.55,43.06a.45.45,0,0,1-.34-.15c-.05-.06-5-5.35-8.43-5.37-.34,0-1,.05-1.05.36-.27.88,1.67,3.12,2.16,3.45A.46.46,0,0,1,26,42a.48.48,0,0,1-.65.13c-.39-.26-3-2.89-2.54-4.5.14-.47.59-1,1.93-1h0c3.81,0,8.9,5.43,9.11,5.66a.46.46,0,0,1,0,.66A.5.5,0,0,1,33.55,43.06Z"/><path class="cls-2" d="M68.45,64.54a.46.46,0,0,1-.43-.3L63.13,51.5a.47.47,0,1,1,.87-.34l4.89,12.75a.46.46,0,0,1-.44.63Z"/><path class="cls-2" d="M46.21,62.3c-1.3,0-4.09-.73-5.27-2.18a2.31,2.31,0,0,1-.3-2.62A2.2,2.2,0,0,1,42,56.32c2.72-.87,8,2.08,8.28,2.2a.48.48,0,0,1,.18.64.47.47,0,0,1-.64.18c-1.44-.8-5.59-2.75-7.54-2.13a1.32,1.32,0,0,0-.83.69,1.39,1.39,0,0,0,.19,1.63c1.12,1.37,4.22,1.95,4.75,1.82a.46.46,0,1,1,.23.9A1.72,1.72,0,0,1,46.21,62.3Z"/><path class="cls-2" d="M43.54,66.49A8.82,8.82,0,0,1,38.18,65a4.32,4.32,0,0,1-1.75-2.68.47.47,0,0,1,.41-.52.46.46,0,0,1,.52.4,3.4,3.4,0,0,0,1.41,2.07c1.14.84,3.45,1.69,8,1l4-.59a.47.47,0,0,1,.14.92l-4,.59A20.91,20.91,0,0,1,43.54,66.49Z"/><path class="cls-2" d="M55,66.36A22.3,22.3,0,0,1,50.91,66a.46.46,0,0,1-.33-.26c-2.37-5.23,0-8.21.06-8.33a.42.42,0,0,1,.25-.16l7.58-2a.47.47,0,0,1,.24.9l-7.42,1.93c-.37.55-1.7,3,0,7,1.24.2,7.06,1,10.71-1.44a.46.46,0,0,1,.65.13.47.47,0,0,1-.13.65A14,14,0,0,1,55,66.36Z"/><path class="cls-2" d="M58.74,39.18a.47.47,0,0,1-.43-.28c-.06-.12-1.37-3-.67-5a.47.47,0,0,1,.89.3c-.48,1.38.29,3.61.63,4.35a.46.46,0,0,1-.23.62A.45.45,0,0,1,58.74,39.18Z"/><path class="cls-7" d="M87.41,59.37s3.08-2.14,3.7,0c0,0,1.17,1.12-2.62,3.22,0,0-8.16,5.41-14.73,5.54,0,0-6.4.65-6.75-1.95,0,0-.05-1.73,2.43-.91C69.44,65.24,77.13,66.83,87.41,59.37Z"/><path class="cls-5" d="M82,62.54s3.67.18-.43,3.9c0,0,10-3.74,10-7.25,0,0-.15-2.62-4.62.29Z"/><path class="cls-2" d="M89.26,58.5c.78-.2,1.56-.12,1.85.84,0,0,1.17,1.12-2.62,3.22a41.66,41.66,0,0,1-11,5,17.08,17.08,0,0,1-3.74.55s-6.4.65-6.75-1.95a1.1,1.1,0,0,1,.84-1.08,2.9,2.9,0,0,1,1.59.17,17.29,17.29,0,0,0,7-.53,32.1,32.1,0,0,0,11-5.34,6.43,6.43,0,0,1,1.85-.87M89,57.59a7.16,7.16,0,0,0-2.15,1,31.41,31.41,0,0,1-10.67,5.2,16.93,16.93,0,0,1-6.54.53,3.67,3.67,0,0,0-2-.17,2,2,0,0,0-1.54,2v.09c.44,3.3,6.43,2.89,7.73,2.76a17.58,17.58,0,0,0,3.92-.57A42.25,42.25,0,0,0,89,63.37c2-1.14,3.09-2.22,3.23-3.31A1.73,1.73,0,0,0,92,58.9,2.22,2.22,0,0,0,89,57.59Z"/><path class="cls-2" d="M65,66.38a1.12,1.12,0,0,1-.32,0,5.84,5.84,0,0,1-2.15-.88.37.37,0,0,1-.16-.21l-4.49-12a.47.47,0,1,1,.88-.33l4.43,11.81a5.54,5.54,0,0,0,1.69.65c.71.16,2.23-1.11,3.08-2.05a.46.46,0,1,1,.69.62C68.28,64.42,66.45,66.38,65,66.38Z"/><path class="cls-2" d="M66.47,92.51h-.09c-1-.21-3.76-.75-7.84-6.81s8.14-18.27,8.67-18.79a.47.47,0,0,1,.66,0,.46.46,0,0,1,0,.66c-.12.12-12.26,12.09-8.55,17.6,3.87,5.74,6.41,6.24,7.25,6.41a.47.47,0,0,1,.37.55A.48.48,0,0,1,66.47,92.51Z"/><path class="cls-2" d="M72,88.22a.48.48,0,0,1-.41-.25.46.46,0,0,1,.19-.63c5.08-2.79,5.65-6.81,5.66-6.85a.46.46,0,0,1,.52-.41.48.48,0,0,1,.41.52c0,.19-.61,4.53-6.14,7.56A.46.46,0,0,1,72,88.22Z"/><path class="cls-2" d="M85.54,111.37a.45.45,0,0,1-.46-.41.46.46,0,0,1,.41-.52c.13,0,12.78-1.46,16.93-7.88a.47.47,0,0,1,.79.51c-4.4,6.79-17.08,8.24-17.62,8.3Z"/><path class="cls-2" d="M70.93,109.2a.45.45,0,0,1-.54-.28.46.46,0,0,1,.27-.59c.11,0,11.71-4.46,14.08-11.52a.45.45,0,0,1,.86.29C83.09,104.57,71.47,109,71,109.19Z"/><path class="cls-2" d="M85.31,92.31h0C87.39,96,91,102.38,91.94,103.53a.59.59,0,0,1,0,.69.56.56,0,0,1-.65.2A4.31,4.31,0,0,0,85.8,107a4,4,0,0,0-.17,2.86,4.35,4.35,0,0,0,2.59,2.35h0c.46,0,3.6.27,8.53-2.23l.07,0c.06,0,5.65-2,5.84-5.46h0a21.37,21.37,0,0,0-1.26-5.07c-.34-.75-4.27-6.77-4-10.57a.55.55,0,0,1,.61-.51.6.6,0,0,1,.5.66c-.19,2.89,1.65,5,3.89,9.95a22.13,22.13,0,0,1,1.36,5.45v.09c-.16,4.18-6,6.31-6.56,6.52h0a20.13,20.13,0,0,1-7.78,2.35,6.94,6.94,0,0,1-1.46,0,.53.53,0,0,1-.12,0,5.53,5.53,0,0,1-3.29-3,5,5,0,0,1,.21-3.71,5.17,5.17,0,0,1,5.47-3.46s0,0,0,0c-2-3.15-5.91-10.2-6.2-10.71a0,0,0,0,1,0,0Z"/><path class="cls-2" d="M88.76,94a7.69,7.69,0,0,1-3.8-.63.56.56,0,0,1,.52-1h0c.2.1,4.91,2.4,11.83-3.57a.55.55,0,0,1,.79.06.56.56,0,0,1-.06.79C94.27,92.89,91.06,93.85,88.76,94Z"/><path class="cls-2" d="M90.52,96.63a16.42,16.42,0,0,1-3.72-.21.57.57,0,0,1-.45-.65.58.58,0,0,1,.66-.45s5.69,1,8.59-1.59a.56.56,0,1,1,.75.83A9.51,9.51,0,0,1,90.52,96.63Z"/><path class="cls-2" d="M93.57,105.72a.55.55,0,0,1-.44-.18c-1.32-1.46-4-1.33-4-1.33h0a.55.55,0,0,1-.59-.52.56.56,0,0,1,.52-.6c.14,0,3.23-.18,4.92,1.69a.56.56,0,0,1,0,.79A.58.58,0,0,1,93.57,105.72Z"/><path class="cls-2" d="M97,103.17a2.91,2.91,0,0,1-3-2.4,2.9,2.9,0,1,1,3.36,2.36A2,2,0,0,1,97,103.17Zm-.27-4.93-.23,0a2,2,0,0,0-1.32.83,2,2,0,1,0,3.66.83,2,2,0,0,0-.83-1.32A2.07,2.07,0,0,0,96.77,98.24Z"/><path class="cls-2" d="M85,93.32a.47.47,0,0,1-.38-.19c-5.34-7.28-10-20.34-10.1-20.47a.47.47,0,1,1,.88-.31c0,.13,4.71,13.06,10,20.22a.47.47,0,0,1-.1.66A.46.46,0,0,1,85,93.32Z"/><path class="cls-2" d="M98.06,89.71a.47.47,0,0,1-.46-.38c-.66-3.23-2.51-11.87-3.16-13.06s-.62-1.78-.64-3.54c0-.84,0-2-.09-3.59a20.34,20.34,0,0,0-2.59-8.61.47.47,0,0,1,.15-.65.48.48,0,0,1,.65.16,21,21,0,0,1,2.73,9.06c.07,1.62.08,2.78.09,3.62,0,1.72,0,2.19.52,3.1.84,1.54,3,12.12,3.26,13.33a.47.47,0,0,1-.37.55Z"/><path class="cls-2" d="M82.9,30a.48.48,0,0,1-.42-.26,4.6,4.6,0,0,0-2.83-1.88.48.48,0,0,1-.36-.56.47.47,0,0,1,.56-.36,5.51,5.51,0,0,1,3.46,2.37.46.46,0,0,1-.2.63A.42.42,0,0,1,82.9,30Z"/><path class="cls-2" d="M94.75,47.3h-.09a.46.46,0,0,1-.37-.54,40.78,40.78,0,0,0,0-12.66c-1.1-6.21-13-15.12-13.09-15.21a.47.47,0,0,1,.57-.75c.5.37,12.28,9.23,13.44,15.8a40.51,40.51,0,0,1,0,13A.47.47,0,0,1,94.75,47.3Z"/><path class="cls-2" d="M85.33,29.8a.46.46,0,0,1-.39-.21c-.87-1.3-4.1-3.49-4.13-3.51a.46.46,0,1,1,.52-.77c.14.09,3.42,2.31,4.39,3.76a.46.46,0,0,1-.13.65A.5.5,0,0,1,85.33,29.8Z"/><path class="cls-2" d="M70.16,64a6.23,6.23,0,0,1-2-.33.48.48,0,0,1-.29-.6.47.47,0,0,1,.59-.29,4.59,4.59,0,0,0,4.81-1l-1.73-5.11c-.23-1-.79-2.37-1.38-2.54-.07,0-.28-.09-.67.29a5.8,5.8,0,0,1-4.39,1.64.47.47,0,0,1-.41-.52.46.46,0,0,1,.52-.41,4.85,4.85,0,0,0,3.63-1.39,1.58,1.58,0,0,1,1.59-.51c1.31.39,1.91,2.72,2,3.19l1.8,5.32a.49.49,0,0,1-.08.45A5.6,5.6,0,0,1,70.16,64Z"/><path class="cls-5" d="M24.31,43.73s2.73,4.67,6,3.63l.42,3.38-.72.14-4.58-1.45L23.44,46.8S23.55,43.68,24.31,43.73Z"/><path class="cls-2" d="M30.51,51.35c-1.19,0-4.23-.19-6.1-2a5.31,5.31,0,0,1-1.5-4.26.43.43,0,0,1,0-.11c.06-.18,1.41-4.34,5-4.06a.47.47,0,0,1,.43.5.48.48,0,0,1-.5.44c-2.65-.21-3.85,2.9-4,3.35a4.41,4.41,0,0,0,1.22,3.47c2,2,5.84,1.75,5.88,1.75a.47.47,0,0,1,.06.94Z"/><path class="cls-2" d="M50.36,54.84a63.41,63.41,0,0,1-18.61-3.08,3.55,3.55,0,0,1-2.05-3.12c-.25-2.3.78-5,2.28-6a2.27,2.27,0,0,1,2.41-.17c2.55,1.31,13.25.43,17.31,0,1.35-.9,14.3-9.47,20.86-10.24a.46.46,0,0,1,.52.41.47.47,0,0,1-.41.52c-6.56.77-20.4,10.06-20.54,10.15a.5.5,0,0,1-.2.08c-.6.07-14.62,1.68-18,0a1.33,1.33,0,0,0-1.45.12c-1.21.82-2.08,3.24-1.88,5.17a2.66,2.66,0,0,0,1.47,2.35c3.5,1.42,17.35,4.41,24.53,2.28s17.82-7.34,19-9.88a.48.48,0,0,1,.63-.22.47.47,0,0,1,.22.62C75,46.78,63.77,52,56.9,54.07A23.62,23.62,0,0,1,50.36,54.84Z"/><path class="cls-5" d="M86.52,50.32a19,19,0,0,0,1.89-11.25,25.25,25.25,0,0,0-3.74-9.83l3.06.91,1.29,2,5.31,14.1L96.69,52v2.14L95.2,56l-3.68,1.45-1.71.08-1.47-1.69Z"/><path class="cls-2" d="M90.37,58.34a3.19,3.19,0,0,1-2-1.05.54.54,0,0,1-.1-.16L79.55,32.31c-.31-.89,1.19-2.17,2.11-2.86l.09-.05a5.61,5.61,0,0,1,7,1.51l0,.09c.3.73,7.44,17.76,8.2,20.52a4.85,4.85,0,0,1-1.33,4.89l-.14.08S92,57.83,91,58.23A1.58,1.58,0,0,1,90.37,58.34Zm-1.28-1.62c.21.21,1,.87,1.53.64l4.47-1.72a3.86,3.86,0,0,0,1-3.87c-.72-2.63-7.69-19.29-8.14-20.35a4.59,4.59,0,0,0-5.75-1.19A5.82,5.82,0,0,0,80.44,32Z"/><path class="cls-2" d="M82.48,26.91a.47.47,0,0,1-.22-.88,4.25,4.25,0,0,0,2-2.34.47.47,0,0,1,.57-.34.48.48,0,0,1,.34.57,5.12,5.12,0,0,1-2.44,2.94A.5.5,0,0,1,82.48,26.91Z"/><path class="cls-2" d="M84.7,29.07a.47.47,0,0,1-.21-.89h0a4.2,4.2,0,0,0,2-2.34.47.47,0,0,1,.91.24A5.09,5.09,0,0,1,84.92,29,.43.43,0,0,1,84.7,29.07Z"/><path class="cls-2" d="M88.14,31.26a.47.47,0,0,1-.24-.87,3.5,3.5,0,0,0,1.42-2.05.47.47,0,0,1,.92.2,4.45,4.45,0,0,1-1.85,2.65A.45.45,0,0,1,88.14,31.26Z"/><path class="cls-2" d="M89.3,34a.47.47,0,0,1-.45-.34.48.48,0,0,1,.33-.58,3.46,3.46,0,0,0,2-1.55.46.46,0,0,1,.63-.18A.47.47,0,0,1,92,32a4.43,4.43,0,0,1-2.54,2Z"/><path class="cls-2" d="M90.68,37a.48.48,0,0,1-.45-.35.47.47,0,0,1,.33-.57,3.52,3.52,0,0,0,2-1.55.47.47,0,0,1,.82.45,4.42,4.42,0,0,1-2.54,2Z"/><path class="cls-2" d="M91.8,39.92a.48.48,0,0,1-.45-.35.47.47,0,0,1,.33-.57,3.52,3.52,0,0,0,2-1.55.46.46,0,0,1,.64-.18.47.47,0,0,1,.18.63,4.42,4.42,0,0,1-2.54,2Z"/><path class="cls-2" d="M92.93,42.87a.47.47,0,0,1-.12-.92,3.54,3.54,0,0,0,2-1.55.47.47,0,0,1,.82.45,4.37,4.37,0,0,1-2.53,2A.25.25,0,0,1,92.93,42.87Z"/><path class="cls-2" d="M36.93,63a.48.48,0,0,1-.46-.36,2.6,2.6,0,0,1,.48-2c.67-.88,1.9-1.36,3.66-1.43a.47.47,0,0,1,.49.44.47.47,0,0,1-.45.49,3.84,3.84,0,0,0-2.94,1.05,1.62,1.62,0,0,0-.32,1.27A.48.48,0,0,1,37,63Z"/></g></g></svg>