<svg id="Layer_1" data-name="Layer 1" xmlns="http://www.w3.org/2000/svg" viewBox="0 0 100 100">
	<defs>
		<style>.cls-1{fill:#fff;}</style>
	</defs>
	<path class="cls-1"
	      d="M98.84,46.48a8.38,8.38,0,0,0-7.19-3.92H84.21V28.92A6.09,6.09,0,0,0,78,23H41.61a.21.21,0,0,1-.11,0L35,13.81a6.24,6.24,0,0,0-5.09-2.58H6.19A6.09,6.09,0,0,0,0,17.2V82.66a6.24,6.24,0,0,0,6.34,6.11H80.05a2.92,2.92,0,0,0,2.62-1.62h0L99.19,54A7.71,7.71,0,0,0,98.84,46.48ZM6.19,17.09h23.7a.41.41,0,0,1,.33.13l6.52,9.12a6,6,0,0,0,4.87,2.47H78a.39.39,0,0,1,.33.13V42.56h-53a8.38,8.38,0,0,0-7.62,4.73L5.86,72.65V17.22A.4.4,0,0,1,6.19,17.09ZM93.94,51.36,78.23,82.91H7.53L23,49.77a2.54,2.54,0,0,1,2.31-1.35H91.65a2.54,2.54,0,0,1,2.2,1.14A1.77,1.77,0,0,1,93.94,51.36Z"/>
</svg>