<svg xmlns="http://www.w3.org/2000/svg" viewBox="0 0 175.75 93.54"><defs><style>.cls-1{fill:#21222b;}.cls-2{fill:#fff;}.cls-3{fill:#e8e8e8;opacity:0.17;}</style></defs><g id="Layer_2" data-name="Layer 2"><g id="Layer_1-2" data-name="Layer 1"><rect class="cls-1" width="175.75" height="93.54"/><rect x="4.25" y="4.25" width="167.24" height="85.04"/><rect class="cls-2" x="5.67" y="38.11" width="1.33" height="1.33"/><rect class="cls-2" x="5.67" y="36.55" width="1.33" height="1.33"/><rect class="cls-2" x="5.67" y="35" width="1.33" height="1.33"/><rect class="cls-2" x="5.67" y="33.45" width="1.33" height="1.33"/><rect class="cls-2" x="5.67" y="31.89" width="1.33" height="1.33"/><rect class="cls-2" x="5.67" y="30.34" width="1.33" height="1.33"/><rect class="cls-2" x="5.67" y="28.79" width="1.33" height="1.33"/><rect class="cls-2" x="5.67" y="27.23" width="1.33" height="1.33"/><rect class="cls-2" x="5.67" y="25.68" width="1.33" height="1.33"/><rect class="cls-2" x="5.67" y="24.13" width="1.33" height="1.33"/><rect class="cls-2" x="5.67" y="22.57" width="1.33" height="1.33"/><rect class="cls-2" x="5.67" y="21.02" width="1.33" height="1.33"/><rect class="cls-2" x="7.22" y="38.11" width="1.33" height="1.33"/><rect class="cls-2" x="7.22" y="36.55" width="1.33" height="1.33"/><rect class="cls-2" x="7.22" y="35" width="1.33" height="1.33"/><rect class="cls-2" x="7.22" y="33.45" width="1.33" height="1.33"/><rect class="cls-2" x="7.22" y="31.89" width="1.33" height="1.33"/><rect class="cls-2" x="7.22" y="30.34" width="1.33" height="1.33"/><rect class="cls-2" x="7.22" y="28.79" width="1.33" height="1.33"/><rect class="cls-2" x="7.22" y="27.23" width="1.33" height="1.33"/><rect class="cls-2" x="7.22" y="25.68" width="1.33" height="1.33"/><rect class="cls-2" x="7.22" y="24.13" width="1.33" height="1.33"/><rect class="cls-2" x="7.22" y="22.57" width="1.33" height="1.33"/><rect class="cls-2" x="7.22" y="21.02" width="1.33" height="1.33"/><rect class="cls-2" x="47.6" y="24.36" width="1.33" height="1.33"/><rect class="cls-2" x="47.6" y="22.81" width="1.33" height="1.33"/><rect class="cls-2" x="47.6" y="11.94" width="1.33" height="1.33"/><rect class="cls-2" x="47.6" y="10.38" width="1.33" height="1.33"/><rect class="cls-2" x="49.16" y="24.36" width="1.33" height="1.33"/><rect class="cls-2" x="49.16" y="22.81" width="1.33" height="1.33"/><rect class="cls-2" x="49.16" y="11.94" width="1.33" height="1.33"/><rect class="cls-2" x="49.16" y="10.38" width="1.33" height="1.33"/><rect class="cls-2" x="50.71" y="24.36" width="1.33" height="1.33"/><rect class="cls-2" x="50.71" y="22.81" width="1.33" height="1.33"/><rect class="cls-2" x="50.71" y="21.26" width="1.33" height="1.33"/><rect class="cls-2" x="50.71" y="19.7" width="1.33" height="1.33"/><rect class="cls-2" x="50.71" y="18.15" width="1.33" height="1.33"/><rect class="cls-2" x="50.71" y="16.6" width="1.33" height="1.33"/><rect class="cls-2" x="50.71" y="15.04" width="1.33" height="1.33"/><rect class="cls-2" x="50.71" y="13.49" width="1.33" height="1.33"/><rect class="cls-2" x="50.71" y="11.94" width="1.33" height="1.33"/><rect class="cls-2" x="50.71" y="10.38" width="1.33" height="1.33"/><rect class="cls-2" x="50.71" y="8.83" width="1.33" height="1.33"/><rect class="cls-2" x="50.71" y="7.28" width="1.33" height="1.33"/><rect class="cls-2" x="52.26" y="24.36" width="1.33" height="1.33"/><rect class="cls-2" x="52.26" y="22.81" width="1.33" height="1.33"/><rect class="cls-2" x="52.26" y="21.26" width="1.33" height="1.33"/><rect class="cls-2" x="52.26" y="19.7" width="1.33" height="1.33"/><rect class="cls-2" x="52.26" y="18.15" width="1.33" height="1.33"/><rect class="cls-2" x="52.26" y="16.6" width="1.33" height="1.33"/><rect class="cls-2" x="52.26" y="15.04" width="1.33" height="1.33"/><rect class="cls-2" x="52.26" y="13.49" width="1.33" height="1.33"/><rect class="cls-2" x="52.26" y="11.94" width="1.33" height="1.33"/><rect class="cls-2" x="52.26" y="10.38" width="1.33" height="1.33"/><rect class="cls-2" x="52.26" y="8.83" width="1.33" height="1.33"/><rect class="cls-2" x="52.26" y="7.28" width="1.33" height="1.33"/><rect class="cls-2" x="53.82" y="24.36" width="1.33" height="1.33"/><rect class="cls-2" x="53.82" y="22.81" width="1.33" height="1.33"/><rect class="cls-2" x="55.37" y="24.36" width="1.33" height="1.33"/><rect class="cls-2" x="55.37" y="22.81" width="1.33" height="1.33"/><rect class="cls-2" x="63.13" y="24.36" width="1.33" height="1.33"/><rect class="cls-2" x="63.13" y="22.81" width="1.33" height="1.33"/><rect class="cls-2" x="63.13" y="11.94" width="1.33" height="1.33"/><rect class="cls-2" x="63.13" y="10.38" width="1.33" height="1.33"/><rect class="cls-2" x="64.69" y="24.36" width="1.33" height="1.33"/><rect class="cls-2" x="64.69" y="22.81" width="1.33" height="1.33"/><rect class="cls-2" x="64.69" y="11.94" width="1.33" height="1.33"/><rect class="cls-2" x="64.69" y="10.38" width="1.33" height="1.33"/><rect class="cls-2" x="66.24" y="24.36" width="1.33" height="1.33"/><rect class="cls-2" x="66.24" y="22.81" width="1.33" height="1.33"/><rect class="cls-2" x="66.24" y="21.26" width="1.33" height="1.33"/><rect class="cls-2" x="66.24" y="19.7" width="1.33" height="1.33"/><rect class="cls-2" x="66.24" y="18.15" width="1.33" height="1.33"/><rect class="cls-2" x="66.24" y="16.6" width="1.33" height="1.33"/><rect class="cls-2" x="66.24" y="15.04" width="1.33" height="1.33"/><rect class="cls-2" x="66.24" y="13.49" width="1.33" height="1.33"/><rect class="cls-2" x="66.24" y="11.94" width="1.33" height="1.33"/><rect class="cls-2" x="66.24" y="10.38" width="1.33" height="1.33"/><rect class="cls-2" x="66.24" y="8.83" width="1.33" height="1.33"/><rect class="cls-2" x="66.24" y="7.28" width="1.33" height="1.33"/><rect class="cls-2" x="67.79" y="24.36" width="1.33" height="1.33"/><rect class="cls-2" x="67.79" y="22.81" width="1.33" height="1.33"/><rect class="cls-2" x="67.79" y="21.26" width="1.33" height="1.33"/><rect class="cls-2" x="67.79" y="19.7" width="1.33" height="1.33"/><rect class="cls-2" x="67.79" y="18.15" width="1.33" height="1.33"/><rect class="cls-2" x="67.79" y="16.6" width="1.33" height="1.33"/><rect class="cls-2" x="67.79" y="15.04" width="1.33" height="1.33"/><rect class="cls-2" x="67.79" y="13.49" width="1.33" height="1.33"/><rect class="cls-2" x="67.79" y="11.94" width="1.33" height="1.33"/><rect class="cls-2" x="67.79" y="10.38" width="1.33" height="1.33"/><rect class="cls-2" x="67.79" y="8.83" width="1.33" height="1.33"/><rect class="cls-2" x="67.79" y="7.28" width="1.33" height="1.33"/><rect class="cls-2" x="69.35" y="24.36" width="1.33" height="1.33"/><rect class="cls-2" x="69.35" y="22.81" width="1.33" height="1.33"/><rect class="cls-2" x="70.9" y="24.36" width="1.33" height="1.33"/><rect class="cls-2" x="70.9" y="22.81" width="1.33" height="1.33"/><rect class="cls-2" x="87.98" y="86.49" width="1.33" height="1.33"/><rect class="cls-2" x="87.98" y="84.93" width="1.33" height="1.33"/><rect class="cls-2" x="87.98" y="83.38" width="1.33" height="1.33"/><rect class="cls-2" x="87.98" y="81.83" width="1.33" height="1.33"/><rect class="cls-2" x="87.98" y="75.62" width="1.33" height="1.33"/><rect class="cls-2" x="87.98" y="74.06" width="1.33" height="1.33"/><rect class="cls-2" x="87.98" y="72.51" width="1.33" height="1.33"/><rect class="cls-2" x="87.98" y="70.96" width="1.33" height="1.33"/><rect class="cls-2" x="87.98" y="66.3" width="1.33" height="1.33"/><rect class="cls-2" x="87.98" y="64.74" width="1.33" height="1.33"/><rect class="cls-2" x="87.98" y="63.19" width="1.33" height="1.33"/><rect class="cls-2" x="87.98" y="61.64" width="1.33" height="1.33"/><rect class="cls-2" x="87.98" y="55.42" width="1.33" height="1.33"/><rect class="cls-2" x="87.98" y="53.87" width="1.33" height="1.33"/><rect class="cls-2" x="87.98" y="52.32" width="1.33" height="1.33"/><rect class="cls-2" x="87.98" y="50.77" width="1.33" height="1.33"/><rect class="cls-2" x="87.98" y="44.55" width="1.33" height="1.33"/><rect class="cls-2" x="87.98" y="43" width="1.33" height="1.33"/><rect class="cls-2" x="87.98" y="41.45" width="1.33" height="1.33"/><rect class="cls-2" x="87.98" y="35.23" width="1.33" height="1.33"/><rect class="cls-2" x="87.98" y="33.68" width="1.33" height="1.33"/><rect class="cls-2" x="87.98" y="32.13" width="1.33" height="1.33"/><rect class="cls-2" x="87.98" y="30.57" width="1.33" height="1.33"/><rect class="cls-2" x="87.98" y="24.36" width="1.33" height="1.33"/><rect class="cls-2" x="87.98" y="22.81" width="1.33" height="1.33"/><rect class="cls-2" x="87.98" y="21.26" width="1.33" height="1.33"/><rect class="cls-2" x="87.98" y="15.04" width="1.33" height="1.33"/><rect class="cls-2" x="87.98" y="13.49" width="1.33" height="1.33"/><rect class="cls-2" x="87.98" y="11.94" width="1.33" height="1.33"/><rect class="cls-2" x="87.98" y="10.38" width="1.33" height="1.33"/><rect class="cls-2" x="89.54" y="86.49" width="1.33" height="1.33"/><rect class="cls-2" x="89.54" y="84.93" width="1.33" height="1.33"/><rect class="cls-2" x="89.54" y="83.38" width="1.33" height="1.33"/><rect class="cls-2" x="89.54" y="81.83" width="1.33" height="1.33"/><rect class="cls-2" x="89.54" y="75.62" width="1.33" height="1.33"/><rect class="cls-2" x="89.54" y="74.06" width="1.33" height="1.33"/><rect class="cls-2" x="89.54" y="72.51" width="1.33" height="1.33"/><rect class="cls-2" x="89.54" y="70.96" width="1.33" height="1.33"/><rect class="cls-2" x="89.54" y="66.3" width="1.33" height="1.33"/><rect class="cls-2" x="89.54" y="64.74" width="1.33" height="1.33"/><rect class="cls-2" x="89.54" y="63.19" width="1.33" height="1.33"/><rect class="cls-2" x="89.54" y="61.64" width="1.33" height="1.33"/><rect class="cls-2" x="89.54" y="55.42" width="1.33" height="1.33"/><rect class="cls-2" x="89.54" y="53.87" width="1.33" height="1.33"/><rect class="cls-2" x="89.54" y="52.32" width="1.33" height="1.33"/><rect class="cls-2" x="89.54" y="50.77" width="1.33" height="1.33"/><rect class="cls-2" x="89.54" y="44.55" width="1.33" height="1.33"/><rect class="cls-2" x="89.54" y="43" width="1.33" height="1.33"/><rect class="cls-2" x="89.54" y="41.45" width="1.33" height="1.33"/><rect class="cls-2" x="89.54" y="35.23" width="1.33" height="1.33"/><rect class="cls-2" x="87.98" y="39.89" width="1.33" height="1.33"/><rect class="cls-2" x="89.54" y="39.89" width="1.33" height="1.33"/><rect class="cls-2" x="89.54" y="33.68" width="1.33" height="1.33"/><rect class="cls-2" x="89.54" y="32.13" width="1.33" height="1.33"/><rect class="cls-2" x="89.54" y="30.57" width="1.33" height="1.33"/><rect class="cls-2" x="89.54" y="24.36" width="1.33" height="1.33"/><rect class="cls-2" x="89.54" y="22.81" width="1.33" height="1.33"/><rect class="cls-2" x="89.54" y="21.26" width="1.33" height="1.33"/><rect class="cls-2" x="87.98" y="19.7" width="1.33" height="1.33"/><rect class="cls-2" x="89.54" y="19.7" width="1.33" height="1.33"/><rect class="cls-2" x="89.54" y="15.04" width="1.33" height="1.33"/><rect class="cls-2" x="89.54" y="13.49" width="1.33" height="1.33"/><rect class="cls-2" x="89.54" y="11.94" width="1.33" height="1.33"/><rect class="cls-2" x="89.54" y="10.38" width="1.33" height="1.33"/><rect class="cls-2" x="103.52" y="25.92" width="1.33" height="1.33"/><rect class="cls-2" x="103.52" y="24.36" width="1.33" height="1.33"/><rect class="cls-2" x="103.52" y="11.94" width="1.33" height="1.33"/><rect class="cls-2" x="103.52" y="10.38" width="1.33" height="1.33"/><rect class="cls-2" x="105.07" y="25.92" width="1.33" height="1.33"/><rect class="cls-2" x="105.07" y="24.36" width="1.33" height="1.33"/><rect class="cls-2" x="105.07" y="11.94" width="1.33" height="1.33"/><rect class="cls-2" x="105.07" y="10.38" width="1.33" height="1.33"/><rect class="cls-2" x="106.62" y="25.92" width="1.33" height="1.33"/><rect class="cls-2" x="106.62" y="24.36" width="1.33" height="1.33"/><rect class="cls-2" x="106.62" y="22.81" width="1.33" height="1.33"/><rect class="cls-2" x="106.62" y="21.26" width="1.33" height="1.33"/><rect class="cls-2" x="106.62" y="19.7" width="1.33" height="1.33"/><rect class="cls-2" x="106.62" y="18.15" width="1.33" height="1.33"/><rect class="cls-2" x="106.62" y="16.6" width="1.33" height="1.33"/><rect class="cls-2" x="106.62" y="15.04" width="1.33" height="1.33"/><rect class="cls-2" x="106.62" y="13.49" width="1.33" height="1.33"/><rect class="cls-2" x="106.62" y="11.94" width="1.33" height="1.33"/><rect class="cls-2" x="106.62" y="10.38" width="1.33" height="1.33"/><rect class="cls-2" x="106.62" y="8.83" width="1.33" height="1.33"/><rect class="cls-2" x="106.62" y="7.28" width="1.33" height="1.33"/><rect class="cls-2" x="108.18" y="25.92" width="1.33" height="1.33"/><rect class="cls-2" x="108.18" y="24.36" width="1.33" height="1.33"/><rect class="cls-2" x="108.18" y="22.81" width="1.33" height="1.33"/><rect class="cls-2" x="108.18" y="21.26" width="1.33" height="1.33"/><rect class="cls-2" x="108.18" y="19.7" width="1.33" height="1.33"/><rect class="cls-2" x="108.18" y="18.15" width="1.33" height="1.33"/><rect class="cls-2" x="108.18" y="16.6" width="1.33" height="1.33"/><rect class="cls-2" x="108.18" y="15.04" width="1.33" height="1.33"/><rect class="cls-2" x="108.18" y="13.49" width="1.33" height="1.33"/><rect class="cls-2" x="108.18" y="11.94" width="1.33" height="1.33"/><rect class="cls-2" x="108.18" y="10.38" width="1.33" height="1.33"/><rect class="cls-2" x="108.18" y="8.83" width="1.33" height="1.33"/><rect class="cls-2" x="108.18" y="7.28" width="1.33" height="1.33"/><rect class="cls-2" x="109.73" y="25.92" width="1.33" height="1.33"/><rect class="cls-2" x="109.73" y="24.36" width="1.33" height="1.33"/><rect class="cls-2" x="111.28" y="25.92" width="1.33" height="1.33"/><rect class="cls-2" x="111.28" y="24.36" width="1.33" height="1.33"/><rect class="cls-2" x="115.94" y="22.81" width="1.33" height="1.33"/><rect class="cls-2" x="115.94" y="21.26" width="1.33" height="1.33"/><rect class="cls-2" x="115.94" y="15.04" width="1.33" height="1.33"/><rect class="cls-2" x="115.94" y="13.49" width="1.33" height="1.33"/><rect class="cls-2" x="115.94" y="11.94" width="1.33" height="1.33"/><rect class="cls-2" x="115.94" y="10.38" width="1.33" height="1.33"/><rect class="cls-2" x="115.94" y="8.83" width="1.33" height="1.33"/><rect class="cls-2" x="115.94" y="7.28" width="1.33" height="1.33"/><rect class="cls-2" x="117.49" y="22.81" width="1.33" height="1.33"/><rect class="cls-2" x="117.49" y="21.26" width="1.33" height="1.33"/><rect class="cls-2" x="117.49" y="15.04" width="1.33" height="1.33"/><rect class="cls-2" x="117.49" y="13.49" width="1.33" height="1.33"/><rect class="cls-2" x="117.49" y="11.94" width="1.33" height="1.33"/><rect class="cls-2" x="117.49" y="10.38" width="1.33" height="1.33"/><rect class="cls-2" x="117.49" y="8.83" width="1.33" height="1.33"/><rect class="cls-2" x="117.49" y="7.28" width="1.33" height="1.33"/><rect class="cls-2" x="119.05" y="25.92" width="1.33" height="1.33"/><rect class="cls-2" x="119.05" y="24.36" width="1.33" height="1.33"/><rect class="cls-2" x="119.05" y="15.04" width="1.33" height="1.33"/><rect class="cls-2" x="119.05" y="13.49" width="1.33" height="1.33"/><rect class="cls-2" x="119.05" y="8.83" width="1.33" height="1.33"/><rect class="cls-2" x="119.05" y="7.28" width="1.33" height="1.33"/><rect class="cls-2" x="120.6" y="25.92" width="1.33" height="1.33"/><rect class="cls-2" x="120.6" y="24.36" width="1.33" height="1.33"/><rect class="cls-2" x="120.6" y="15.04" width="1.33" height="1.33"/><rect class="cls-2" x="120.6" y="13.49" width="1.33" height="1.33"/><rect class="cls-2" x="120.6" y="8.83" width="1.33" height="1.33"/><rect class="cls-2" x="120.6" y="7.28" width="1.33" height="1.33"/><rect class="cls-2" x="122.15" y="25.92" width="1.33" height="1.33"/><rect class="cls-2" x="122.15" y="24.36" width="1.33" height="1.33"/><rect class="cls-2" x="122.15" y="15.04" width="1.33" height="1.33"/><rect class="cls-2" x="122.15" y="13.49" width="1.33" height="1.33"/><rect class="cls-2" x="122.15" y="8.83" width="1.33" height="1.33"/><rect class="cls-2" x="122.15" y="7.28" width="1.33" height="1.33"/><rect class="cls-2" x="123.71" y="25.92" width="1.33" height="1.33"/><rect class="cls-2" x="123.71" y="24.36" width="1.33" height="1.33"/><rect class="cls-2" x="123.71" y="15.04" width="1.33" height="1.33"/><rect class="cls-2" x="123.71" y="13.49" width="1.33" height="1.33"/><rect class="cls-2" x="123.71" y="8.83" width="1.33" height="1.33"/><rect class="cls-2" x="123.71" y="7.28" width="1.33" height="1.33"/><rect class="cls-2" x="125.26" y="25.92" width="1.33" height="1.33"/><rect class="cls-2" x="125.26" y="24.36" width="1.33" height="1.33"/><rect class="cls-2" x="125.26" y="15.04" width="1.33" height="1.33"/><rect class="cls-2" x="125.26" y="13.49" width="1.33" height="1.33"/><rect class="cls-2" x="125.26" y="8.83" width="1.33" height="1.33"/><rect class="cls-2" x="125.26" y="7.28" width="1.33" height="1.33"/><rect class="cls-2" x="126.81" y="22.81" width="1.33" height="1.33"/><rect class="cls-2" x="126.81" y="21.26" width="1.33" height="1.33"/><rect class="cls-2" x="126.81" y="19.7" width="1.33" height="1.33"/><rect class="cls-2" x="126.81" y="18.15" width="1.33" height="1.33"/><rect class="cls-2" x="126.81" y="16.6" width="1.33" height="1.33"/><rect class="cls-2" x="126.81" y="8.83" width="1.33" height="1.33"/><rect class="cls-2" x="126.81" y="7.28" width="1.33" height="1.33"/><rect class="cls-2" x="128.37" y="22.81" width="1.33" height="1.33"/><rect class="cls-2" x="128.37" y="21.26" width="1.33" height="1.33"/><rect class="cls-2" x="128.37" y="19.7" width="1.33" height="1.33"/><rect class="cls-2" x="128.37" y="18.15" width="1.33" height="1.33"/><rect class="cls-2" x="128.37" y="16.6" width="1.33" height="1.33"/><rect class="cls-2" x="128.37" y="8.83" width="1.33" height="1.33"/><rect class="cls-2" x="128.37" y="7.28" width="1.33" height="1.33"/><rect class="cls-2" x="139.24" y="43.83" width="1.33" height="1.33"/><rect class="cls-2" x="139.24" y="42.28" width="1.33" height="1.33"/><rect class="cls-2" x="139.24" y="40.72" width="1.33" height="1.33"/><rect class="cls-2" x="140.79" y="43.83" width="1.33" height="1.33"/><rect class="cls-2" x="140.79" y="42.28" width="1.33" height="1.33"/><rect class="cls-2" x="140.79" y="40.72" width="1.33" height="1.33"/><rect class="cls-2" x="142.34" y="43.83" width="1.33" height="1.33"/><rect class="cls-2" x="142.34" y="42.28" width="1.33" height="1.33"/><rect class="cls-2" x="142.34" y="40.72" width="1.33" height="1.33"/><rect class="cls-2" x="167.19" y="82.34" width="1.33" height="1.33"/><rect class="cls-2" x="167.19" y="80.79" width="1.33" height="1.33"/><rect class="cls-2" x="167.19" y="79.23" width="1.33" height="1.33"/><rect class="cls-2" x="167.19" y="77.68" width="1.33" height="1.33"/><rect class="cls-2" x="167.19" y="76.13" width="1.33" height="1.33"/><rect class="cls-2" x="167.19" y="74.57" width="1.33" height="1.33"/><rect class="cls-2" x="167.19" y="73.02" width="1.33" height="1.33"/><rect class="cls-2" x="167.19" y="71.47" width="1.33" height="1.33"/><rect class="cls-2" x="167.19" y="69.92" width="1.33" height="1.33"/><rect class="cls-2" x="167.19" y="68.36" width="1.33" height="1.33"/><rect class="cls-2" x="167.19" y="66.81" width="1.33" height="1.33"/><rect class="cls-2" x="167.19" y="65.26" width="1.33" height="1.33"/><rect class="cls-2" x="168.75" y="82.34" width="1.33" height="1.33"/><rect class="cls-2" x="168.75" y="80.79" width="1.33" height="1.33"/><rect class="cls-2" x="168.75" y="79.23" width="1.33" height="1.33"/><rect class="cls-2" x="168.75" y="77.68" width="1.33" height="1.33"/><rect class="cls-2" x="168.75" y="76.13" width="1.33" height="1.33"/><rect class="cls-2" x="168.75" y="74.57" width="1.33" height="1.33"/><rect class="cls-2" x="168.75" y="73.02" width="1.33" height="1.33"/><rect class="cls-2" x="168.75" y="71.47" width="1.33" height="1.33"/><rect class="cls-2" x="168.75" y="69.92" width="1.33" height="1.33"/><rect class="cls-2" x="168.75" y="68.36" width="1.33" height="1.33"/><rect class="cls-2" x="168.75" y="66.81" width="1.33" height="1.33"/><rect class="cls-2" x="168.75" y="65.26" width="1.33" height="1.33"/><polygon class="cls-3" points="162.13 0 6.29 93.54 175.75 93.54 175.75 0 162.13 0"/></g></g></svg>