<svg xmlns="http://www.w3.org/2000/svg" viewBox="0 0 535.71 165.22">
	<defs>
		<style>.cls-1{fill:#b8b9c5;}</style>
	</defs>
	<g id="Layer_2" data-name="Layer 2">
		<g id="Layer_1-2" data-name="Layer 1">
			<path class="cls-1"
			      d="M40.5,165.22a2.12,2.12,0,0,1-.44-.05l-4.78-1.12a1.94,1.94,0,1,1,.89-3.78l2.29.54-.09-2.36a1.93,1.93,0,0,1,.71-1.57,1.9,1.9,0,0,1,1.67-.39l2.31.53L43,154.66a1.94,1.94,0,0,1,3.88-.15l.18,4.91a2,2,0,0,1-.7,1.57,2,2,0,0,1-1.68.39l-2.3-.54.09,2.36a2,2,0,0,1-1.94,2Z"/>
			<path class="cls-1"
			      d="M490.25,87.33a1.9,1.9,0,0,1-1-.27l-3.64-2.18a2,2,0,0,1-.93-1.45,1.9,1.9,0,0,1,.59-1.61l1.22-1.18-1.45-.87a1.94,1.94,0,0,1-.35-3.07l3.06-2.93a1.94,1.94,0,1,1,2.68,2.8l-1.22,1.18,1.46.87a1.93,1.93,0,0,1,.34,3.06l-1.22,1.18,1.45.87a1.94,1.94,0,0,1-1,3.6Z"/>
			<path class="cls-1"
			      d="M11.65,25.92A1.94,1.94,0,0,1,10,25.06L5.74,18.7A2,2,0,0,1,5.51,17a1.93,1.93,0,0,1,1.22-1.21l4.86-1.66L8.72,9.87a2,2,0,0,1-.24-1.71A2,2,0,0,1,9.7,6.94L17,4.48a1.94,1.94,0,0,1,1.25,3.68L13.36,9.8l2.87,4.26a1.9,1.9,0,0,1,.23,1.7A1.93,1.93,0,0,1,15.25,17l-4.87,1.65,2.88,4.26a1.94,1.94,0,0,1-.52,2.7A2,2,0,0,1,11.65,25.92Z"/>
			<path class="cls-1"
			      d="M142.07,130.18a1.93,1.93,0,0,1-1.13-.37l-3.7-2.64A1.94,1.94,0,0,1,139.5,124l1.63,1.17.69-1.88a1.93,1.93,0,0,1,3-.91l1.63,1.17.7-1.89a1.94,1.94,0,1,1,3.64,1.34l-1.58,4.27a1.93,1.93,0,0,1-2.94.91L144.58,127l-.69,1.89a1.93,1.93,0,0,1-1.25,1.18A1.88,1.88,0,0,1,142.07,130.18Z"/>
			<path class="cls-1"
			      d="M306.92,164a1.81,1.81,0,0,1-.65-.11l-3.61-1.3a1.94,1.94,0,1,1,1.32-3.65l1.21.44.1-1.29a1.93,1.93,0,0,1,.88-1.48,2,2,0,0,1,1.71-.2l1.21.44.1-1.29a1.94,1.94,0,0,1,3.87.3l-.3,3.83a1.93,1.93,0,0,1-.88,1.48,2,2,0,0,1-1.71.19l-1.21-.43-.1,1.28a1.94,1.94,0,0,1-1.94,1.79Z"/>
			<path class="cls-1"
			      d="M184.44,162a2,2,0,0,1-.76-.15l-9.48-4a1.94,1.94,0,0,1-.76-3l4.82-6.09-7.14-3a1.94,1.94,0,0,1-.76-3l6.4-8.07a1.94,1.94,0,1,1,3,2.41L175,143.11l7.14,3a1.94,1.94,0,0,1,.76,3l-4.82,6.09,7.14,3.05a1.94,1.94,0,0,1-.76,3.72Z"/>
			<path class="cls-1"
			      d="M505.68,58.34a2,2,0,0,1-.82-.18L500.16,56a1.94,1.94,0,0,1-.66-3l1.7-2-2.39-1.11a1.95,1.95,0,0,1-.67-3l3.35-4a1.94,1.94,0,0,1,3,2.51l-1.7,2,2.39,1.11a1.94,1.94,0,0,1,.67,3l-1.71,2,2.4,1.11a1.94,1.94,0,0,1-.82,3.7Z"/>
			<path class="cls-1"
			      d="M30.94,121.71A1.94,1.94,0,0,1,29,119.79l-.12-9.91-9.53,2.73a1.93,1.93,0,0,1-2.47-1.84l-.13-9.92-9.53,2.74a1.94,1.94,0,0,1-1.07-3.73l12-3.44a2,2,0,0,1,1.69.31,1.9,1.9,0,0,1,.78,1.53l.13,9.92,9.53-2.73a1.93,1.93,0,0,1,2.47,1.84l.15,12.45a2,2,0,0,1-1.92,2Z"/>
			<path class="cls-1"
			      d="M7.93,152.1l-.29,0-3.75-.55a1.94,1.94,0,0,1-1.5-2.7l.51-1.15-1.24-.18a1.94,1.94,0,0,1-1.5-2.7l1.53-3.47a1.94,1.94,0,1,1,3.55,1.56L4.74,144l1.23.18a1.94,1.94,0,0,1,1.5,2.7L7,148.06l1.24.18a1.94,1.94,0,0,1-.28,3.86Z"/>
			<path class="cls-1"
			      d="M527.6,136.71a1.88,1.88,0,0,1-1.26-.47l-13.75-11.75a2,2,0,0,1-.68-1.58,1.93,1.93,0,0,1,.85-1.5l12.86-8.74L513.8,102.58a2,2,0,0,1-.68-1.59A1.93,1.93,0,0,1,514,99.5l15-10.15a1.94,1.94,0,1,1,2.18,3.21l-12.86,8.72,11.82,10.09a2,2,0,0,1,.68,1.59,1.93,1.93,0,0,1-.85,1.49L517,123.19l11.82,10.1a2,2,0,0,1,.21,2.74A1.91,1.91,0,0,1,527.6,136.71Z"/>
			<path class="cls-1"
			      d="M37.07,73.65a1.94,1.94,0,0,1-1-3.59L45,64.56l-7.68-7.19a1.93,1.93,0,0,1,.31-3.07l9-5.51L38.91,41.6a1.94,1.94,0,0,1,2.65-2.84l9.55,8.93a1.94,1.94,0,0,1,.6,1.61,2,2,0,0,1-.91,1.46l-9,5.52,7.68,7.18a1.92,1.92,0,0,1,.61,1.61,1.94,1.94,0,0,1-.92,1.46L38.09,73.37A2,2,0,0,1,37.07,73.65Z"/>
			<path class="cls-1"
			      d="M527,61.58a1.94,1.94,0,0,1-1-3.6l1.32-.8-1.12-1a1.93,1.93,0,0,1,.33-3.07l1.31-.8-1.12-1.06a1.94,1.94,0,0,1,2.67-2.82l3,2.81a1.94,1.94,0,0,1-.32,3.07l-1.32.8,1.12,1a1.94,1.94,0,0,1-.32,3.07L528,61.3A2,2,0,0,1,527,61.58Z"/>
			<path class="cls-1"
			      d="M71,82.65a1.94,1.94,0,0,1-.73-3.73l11.08-4.55-7.33-9.48a2,2,0,0,1-.34-1.69,1.94,1.94,0,0,1,1.14-1.29l11.08-4.57-7.32-9.49a1.94,1.94,0,1,1,3.07-2.37L90.57,57a1.94,1.94,0,0,1-.8,3L78.69,64.53,86,74a1.93,1.93,0,0,1,.34,1.69A2,2,0,0,1,85.21,77L71.78,82.51A1.91,1.91,0,0,1,71,82.65Z"/>
			<path class="cls-1"
			      d="M353.24,161.26a2,2,0,0,1-1.28-.48l-5.8-5.08a1.94,1.94,0,1,1,2.56-2.92l3.88,3.4,2.25-4.65a2,2,0,0,1,1.36-1.05,1.93,1.93,0,0,1,1.66.44l3.9,3.4,2.25-4.65a1.94,1.94,0,1,1,3.49,1.69l-3.36,6.94a1.94,1.94,0,0,1-3,.61l-3.89-3.4L355,160.16a2,2,0,0,1-1.36,1.06A2.58,2.58,0,0,1,353.24,161.26Z"/>
			<path class="cls-1"
			      d="M303.44,44a1.93,1.93,0,0,1-1.45-.65l-11.4-12.91a1.94,1.94,0,0,1,2.91-2.57l9.71,11,8-12.28a1.91,1.91,0,0,1,1.48-.87,2,2,0,0,1,1.6.65l9.73,11,8-12.29a1.94,1.94,0,1,1,3.25,2.13l-9.44,14.41a1.91,1.91,0,0,1-1.48.87,1.93,1.93,0,0,1-1.6-.65l-9.73-11-8,12.29a1.94,1.94,0,0,1-1.48.87Z"/>
			<path class="cls-1"
			      d="M75.42,146.87a1.91,1.91,0,0,1-1.43-.63l-9.52-10.38a1.91,1.91,0,0,1-.48-1.65,1.94,1.94,0,0,1,1-1.38l10.26-5.28-7.8-8.5a1.94,1.94,0,0,1,.55-3l12.51-6.43A1.95,1.95,0,0,1,82.31,113L72.05,118.3l7.8,8.5a1.93,1.93,0,0,1-.54,3l-10.26,5.28,7.8,8.51a1.94,1.94,0,0,1-1.43,3.25Z"/>
			<path class="cls-1"
			      d="M215.12,52.16a2,2,0,0,1-1.7-1l-2.88-5.23a1.93,1.93,0,0,1-.07-1.72,1.9,1.9,0,0,1,1.32-1.1l3.33-.81-1.65-3a1.94,1.94,0,0,1,1.25-2.83l5.81-1.39a1.94,1.94,0,0,1,.9,3.78l-3.33.8,1.65,3a1.94,1.94,0,0,1-1.25,2.82l-3.33.8,1.65,3a1.94,1.94,0,0,1-.77,2.64A1.92,1.92,0,0,1,215.12,52.16Z"/>
			<path class="cls-1"
			      d="M221.94,164.41a1.94,1.94,0,0,1-1.34-3.34l8.23-7.9L219,147.32a1.92,1.92,0,0,1-.35-3.06l8.24-7.91-9.8-5.86a1.94,1.94,0,0,1,2-3.33l12,7.17a1.93,1.93,0,0,1,.93,1.44,2,2,0,0,1-.58,1.62l-8.24,7.91,9.8,5.85a1.94,1.94,0,0,1,.34,3.07l-10.07,9.65A1.93,1.93,0,0,1,221.94,164.41Z"/>
			<path class="cls-1"
			      d="M350.55,76.24a2.1,2.1,0,0,1-.56-.08l-4.2-1.25a1.94,1.94,0,0,1,1.11-3.72l1.76.52,0-1.83a1.94,1.94,0,0,1,2.49-1.82l1.77.52,0-1.84a1.93,1.93,0,0,1,1.93-1.89H355a1.94,1.94,0,0,1,1.9,2l-.1,4.38A2,2,0,0,1,354.29,73l-1.77-.53,0,1.84a2,2,0,0,1-.8,1.52A1.93,1.93,0,0,1,350.55,76.24Z"/>
			<path class="cls-1"
			      d="M198.52,109.12a2,2,0,0,1-.58-.09l-13.73-4.27a1.94,1.94,0,1,1,1.15-3.71l11.3,3.52.4-11.84a1.92,1.92,0,0,1,.82-1.51,1.94,1.94,0,0,1,1.7-.28l11.31,3.52.4-11.85a1.94,1.94,0,0,1,3.88.14l-.48,14.38a2,2,0,0,1-.82,1.51,1.91,1.91,0,0,1-1.7.28L200.86,95.4l-.4,11.84a1.92,1.92,0,0,1-.82,1.52A2,2,0,0,1,198.52,109.12Z"/>
			<path class="cls-1"
			      d="M454.51,92.15a1.94,1.94,0,0,1-1.93-1.83l-.67-12.08-11.48,3.85a1.94,1.94,0,0,1-2.55-1.73l-.69-12.09-11.48,3.85a1.94,1.94,0,1,1-1.23-3.68l13.89-4.66a1.95,1.95,0,0,1,2.55,1.73l.69,12.09,11.47-3.85a2,2,0,0,1,1.71.23,2,2,0,0,1,.85,1.5l.81,14.62a1.94,1.94,0,0,1-1.83,2.05Z"/>
			<path class="cls-1"
			      d="M328.76,127h0l-9.81-.08a1.94,1.94,0,0,1,0-3.88h0l7.25.06-1.86-7a1.94,1.94,0,0,1,1.89-2.44l7.27,0-1.87-7a1.94,1.94,0,0,1,3.75-1l2.52,9.48a2,2,0,0,1-.34,1.69,1.86,1.86,0,0,1-1.55.75l-7.27,0,1.87,7a1.95,1.95,0,0,1-1.88,2.44Z"/>
			<path class="cls-1"
			      d="M251,110.73h-.09a1.93,1.93,0,0,1-1.85-2l0-.93-.9.21a2,2,0,0,1-2.37-2l0-.93-.91.2a1.94,1.94,0,1,1-.86-3.78l3.39-.77a2,2,0,0,1,2.37,2l0,.93.91-.2a1.93,1.93,0,0,1,1.67.4,2,2,0,0,1,.7,1.58l-.16,3.46A1.94,1.94,0,0,1,251,110.73Z"/>
			<path class="cls-1"
			      d="M533.77,20.32a2,2,0,0,1-1.65-.92L524.43,7.06l-9.87,10.7a1.95,1.95,0,0,1-3.07-.29L503.78,5.12l-9.88,10.7a1.94,1.94,0,0,1-2.85-2.63L502.65.62A2,2,0,0,1,504.26,0a1.92,1.92,0,0,1,1.46.9l7.71,12.34L523.3,2.56a2,2,0,0,1,1.61-.62,2,2,0,0,1,1.46.91l9,14.5a1.93,1.93,0,0,1-.62,2.67A1.89,1.89,0,0,1,533.77,20.32Z"/>
			<path class="cls-1"
			      d="M474.06,158.6a1.93,1.93,0,0,1-1.59-.82l-11.26-16a1.94,1.94,0,0,1,.92-2.95l16-5.78-9.8-13.89a1.94,1.94,0,0,1,.93-2.94l18.37-6.63a1.94,1.94,0,0,1,1.32,3.64L473,119l9.8,13.89a1.93,1.93,0,0,1,.26,1.7,1.91,1.91,0,0,1-1.19,1.24l-16,5.79,9.8,13.9a1.93,1.93,0,0,1-1.58,3Z"/>
			<path class="cls-1"
			      d="M420.9,46.53A2,2,0,0,1,419,45l-3.39-15.1a1.9,1.9,0,0,1,.4-1.67,2,2,0,0,1,1.58-.69l12.92.59-2.84-12.62a1.93,1.93,0,0,1,2-2.36l15.46.71a1.94,1.94,0,0,1,1.84,2,2,2,0,0,1-2,1.85L432,17.15l2.85,12.62a1.94,1.94,0,0,1-2,2.36L420,31.54l2.84,12.62a1.94,1.94,0,0,1-1.47,2.32A2,2,0,0,1,420.9,46.53Z"/>
			<path class="cls-1"
			      d="M264.62,79.06a2,2,0,0,1-1-.29l-15.26-9.41a2,2,0,0,1-.91-1.46,1.94,1.94,0,0,1,.6-1.61l11.25-10.5-13.1-8.07a1.95,1.95,0,0,1-.31-3.07L259,32.42a1.94,1.94,0,1,1,2.64,2.84L250.38,45.75l13.1,8.07a1.93,1.93,0,0,1,.3,3.06L252.54,67.39l13.1,8.08a1.94,1.94,0,0,1-1,3.59Z"/>
			<path class="cls-1"
			      d="M124.19,61.67a1.88,1.88,0,0,1-1-.26,1.94,1.94,0,0,1-.72-2.65L128.68,48l-12-3.11a1.94,1.94,0,0,1-1.2-2.84l6.17-10.76-12-3.11a1.94,1.94,0,1,1,1-3.75l14.46,3.74a1.95,1.95,0,0,1,1.2,2.84l-6.17,10.76,12,3.11a1.93,1.93,0,0,1,1.19,2.84l-7.43,13A2,2,0,0,1,124.19,61.67Z"/>
			<path class="cls-1"
			      d="M156.34,96.68a1.84,1.84,0,0,1-.69-.13,1.93,1.93,0,0,1-1.13-2.5l1.37-3.59-3.82-.36a1.95,1.95,0,0,1-1.63-2.62l1.37-3.59L148,83.52a1.94,1.94,0,1,1,.38-3.86l6.35.61a1.95,1.95,0,0,1,1.63,2.62L155,86.48l3.82.36a2,2,0,0,1,1.63,2.63l-2.27,6A2,2,0,0,1,156.34,96.68Z"/>
			<path class="cls-1"
			      d="M150.81,20.34a1.94,1.94,0,0,1-1.9-1.56l-.65-3.22a1.93,1.93,0,0,1,2-2.31l.73.05-.14-.73a1.93,1.93,0,0,1,.44-1.66,2,2,0,0,1,1.59-.66l3.28.23a1.94,1.94,0,0,1-.27,3.87l-.74,0,.15.72a2,2,0,0,1-.44,1.67,1.93,1.93,0,0,1-1.6.65l-.73-.05.14.73a1.94,1.94,0,0,1-1.52,2.28A1.69,1.69,0,0,1,150.81,20.34Z"/>
			<path class="cls-1"
			      d="M297.31,90.77a2,2,0,0,1-1.12-.36L284,81.82a1.94,1.94,0,0,1,2.24-3.17l10.08,7.12,4.2-11.61a1.93,1.93,0,0,1,2.94-.92l10.1,7.12,4.21-11.62a1.94,1.94,0,1,1,3.64,1.33l-5.07,14a2,2,0,0,1-1.24,1.19,1.93,1.93,0,0,1-1.7-.26l-10.1-7.13-4.2,11.62a1.94,1.94,0,0,1-1.82,1.28Z"/>
			<path class="cls-1"
			      d="M274.3,136.41a1.94,1.94,0,0,1-1.94-1.8l-.54-7.83a1.9,1.9,0,0,1,.65-1.59,1.93,1.93,0,0,1,1.66-.45l5.2,1-.37-5.29a1.94,1.94,0,0,1,.66-1.59,1.89,1.89,0,0,1,1.66-.44L289,120a1.94,1.94,0,1,1-.77,3.8l-5.19-1,.37,5.29a2,2,0,0,1-.65,1.59,2,2,0,0,1-1.67.45l-5.2-1,.37,5.29a1.94,1.94,0,0,1-1.8,2.07Z"/>
			<path class="cls-1"
			      d="M473.08,48.48a2,2,0,0,1-1.22-.43l-8.12-6.55a1.94,1.94,0,0,1,.09-3.09l6.39-4.61-6.13-4.95a1.93,1.93,0,0,1,.08-3.08l8.46-6.09a1.94,1.94,0,1,1,2.27,3.14l-6.4,4.61,6.14,5a1.93,1.93,0,0,1-.09,3.08l-6.39,4.61,6.14,5a1.94,1.94,0,0,1-1.22,3.45Z"/>
			<path class="cls-1"
			      d="M386,44.47l-.35,0-16.19-2.95A2,2,0,0,1,368,38.74l6-12.55-13.7-2.49A1.94,1.94,0,0,1,359,21l7.13-14.83a1.94,1.94,0,1,1,3.5,1.68l-6,12.53,13.69,2.49a1.93,1.93,0,0,1,1.38,1,1.9,1.9,0,0,1,0,1.72l-6,12.56,13.7,2.49a1.94,1.94,0,0,1-.35,3.85Z"/>
			<path class="cls-1"
			      d="M376.89,114.32a2,2,0,0,1-1.89-1.49L371.39,98a2,2,0,0,1,.38-1.68,1.83,1.83,0,0,1,1.56-.72l12.76.37-3-12.4a2,2,0,0,1,.38-1.68,1.88,1.88,0,0,1,1.56-.72l15.3.45a1.94,1.94,0,1,1-.12,3.87l-12.75-.37,3,12.4a1.95,1.95,0,0,1-1.94,2.4l-12.76-.37,3,12.41a1.93,1.93,0,0,1-1.42,2.34A1.88,1.88,0,0,1,376.89,114.32Z"/>
			<path class="cls-1"
			      d="M113.83,149.29a2,2,0,0,1-.72-.14,1.94,1.94,0,0,1-1.08-2.53l.27-.66-.72-.08a1.93,1.93,0,0,1-1.44-.93,2,2,0,0,1-.14-1.72l.27-.67-.71-.08a1.94,1.94,0,1,1,.44-3.85l3.24.37a1.93,1.93,0,0,1,1.58,2.65l-.27.66.72.09a1.9,1.9,0,0,1,1.44.93,1.93,1.93,0,0,1,.13,1.72l-1.21,3A1.93,1.93,0,0,1,113.83,149.29Z"/>
			<path class="cls-1"
			      d="M180.6,69.4h-.23a1.94,1.94,0,0,1-1.7-2.15l.79-6.86-6.83,1.06a1.94,1.94,0,0,1-2.22-2.14l.78-6.86-6.83,1.05a1.94,1.94,0,1,1-.59-3.83l9.34-1.45a1.94,1.94,0,0,1,2.22,2.14l-.78,6.87,6.83-1.06a1.93,1.93,0,0,1,1.64.52,2,2,0,0,1,.58,1.62l-1.08,9.38A1.94,1.94,0,0,1,180.6,69.4Z"/>
			<path class="cls-1"
			      d="M114.27,104h-.06l-9.11-.29a1.94,1.94,0,1,1,.12-3.88l6.57.21-1.54-6.39a1.93,1.93,0,0,1,1.94-2.39l6.58.2-1.54-6.4a1.94,1.94,0,0,1,3.77-.91l2.14,8.87a2,2,0,0,1-.38,1.68,1.87,1.87,0,0,1-1.57.71l-6.58-.2,1.55,6.4a1.94,1.94,0,0,1-1.89,2.39Z"/>
			<path class="cls-1"
			      d="M4.22,67.27a1.94,1.94,0,0,1-.87-3.68l2.58-1.3L4,60.15a1.94,1.94,0,0,1-.47-1.66,2,2,0,0,1,1-1.38L7.14,55.8,5.19,53.66a1.94,1.94,0,0,1,2.88-2.61l3.65,4a2,2,0,0,1,.47,1.65,1.93,1.93,0,0,1-1,1.38L8.57,59.43l1.94,2.14A1.93,1.93,0,0,1,11,63.23a2,2,0,0,1-1,1.38L5.1,67.06A2,2,0,0,1,4.22,67.27Z"/>
			<path class="cls-1"
			      d="M413.19,135.72a2.09,2.09,0,0,1-.69-.12l-16.95-6.4a1.94,1.94,0,0,1,1.37-3.63l14.57,5.5,1.45-15.52a1.93,1.93,0,0,1,2.61-1.63l14.59,5.49,1.45-15.52a1.94,1.94,0,1,1,3.86.36l-1.68,18a2,2,0,0,1-2.62,1.64l-14.59-5.5L415.12,134a1.92,1.92,0,0,1-.9,1.47A2,2,0,0,1,413.19,135.72Z"/>
		</g>
	</g>
</svg>