<svg xmlns="http://www.w3.org/2000/svg" viewBox="0 0 113.39 107"><defs><style>.cls-1{fill:#4d5556;}.cls-2{fill:#007db6;}.cls-3{fill:#3e94c6;}.cls-4{fill:#60b7e2;}.cls-5{fill:#8cc4dd;}.cls-6{fill:#e5f1f9;}.cls-7{fill:#144451;}.cls-8{fill:#eb5645;}</style></defs><g id="Layer_2" data-name="Layer 2"><g id="Layer_1-2" data-name="Layer 1"><path class="cls-1" d="M6.32,95.26A.74.74,0,0,1,6,93.87l3.88-2.24a.75.75,0,1,1,.75,1.29L6.69,95.16A.69.69,0,0,1,6.32,95.26Zm7.76-4.48a.73.73,0,0,1-.64-.37.74.74,0,0,1,.27-1l3.88-2.24a.75.75,0,1,1,.75,1.29l-3.88,2.24A.75.75,0,0,1,14.08,90.78Zm7.76-4.48a.75.75,0,0,1-.37-1.39l3.88-2.24A.75.75,0,1,1,26.1,84L22.22,86.2A.75.75,0,0,1,21.84,86.3Zm7.77-4.48a.75.75,0,0,1-.65-.37.74.74,0,0,1,.27-1l3.88-2.24a.75.75,0,0,1,.75,1.29L30,81.72A.74.74,0,0,1,29.61,81.82Zm7.76-4.48a.75.75,0,0,1-.65-.37A.74.74,0,0,1,37,76l3.88-2.24A.75.75,0,1,1,41.62,75l-3.88,2.24A.74.74,0,0,1,37.37,77.34Z"/><path class="cls-1" d="M56.69,48.35A.75.75,0,0,1,56,47.6V43.12a.75.75,0,1,1,1.49,0V47.6A.75.75,0,0,1,56.69,48.35Zm0-9a.74.74,0,0,1-.74-.74V34.16a.75.75,0,1,1,1.49,0v4.48A.74.74,0,0,1,56.69,39.38Zm0-9a.74.74,0,0,1-.74-.74V25.2a.75.75,0,1,1,1.49,0v4.48A.74.74,0,0,1,56.69,30.42Zm0-9a.74.74,0,0,1-.74-.75V16.23a.75.75,0,0,1,1.49,0v4.48A.74.74,0,0,1,56.69,21.46Zm0-9a.74.74,0,0,1-.74-.75V7.27a.75.75,0,0,1,1.49,0v4.48A.74.74,0,0,1,56.69,12.5Z"/><path class="cls-2" d="M10.79,97.57l-3-3.23a2.26,2.26,0,0,1-.55-1L5.91,89.13a.47.47,0,0,0-.86-.1l-5,8.63a.48.48,0,0,0,.42.71h10A.48.48,0,0,0,10.79,97.57Z"/><path class="cls-1" d="M107.06,95.26a.74.74,0,0,1-.37-.1l-3.88-2.24a.74.74,0,0,1-.27-1,.75.75,0,0,1,1-.27l3.88,2.24a.75.75,0,0,1-.38,1.39ZM99.3,90.78a.74.74,0,0,1-.37-.1l-3.88-2.24a.74.74,0,0,1-.27-1,.75.75,0,0,1,1-.27l3.88,2.24a.75.75,0,0,1-.38,1.39ZM91.54,86.3a.71.71,0,0,1-.37-.1L87.29,84A.74.74,0,1,1,88,82.67l3.89,2.24a.76.76,0,0,1,.27,1A.75.75,0,0,1,91.54,86.3Zm-7.76-4.48a.71.71,0,0,1-.37-.1l-3.88-2.24a.74.74,0,1,1,.74-1.29l3.88,2.24a.74.74,0,0,1-.37,1.39ZM76,77.34a.69.69,0,0,1-.37-.1L71.77,75a.75.75,0,0,1-.28-1,.74.74,0,0,1,1-.27L76.39,76A.74.74,0,0,1,76,77.34Z"/><path class="cls-3" d="M113.32,97.66l-5-8.63a.48.48,0,0,0-.87.1l-1.27,4.25a2.49,2.49,0,0,1-.55,1l-3.05,3.23a.47.47,0,0,0,.34.8h10A.47.47,0,0,0,113.32,97.66Z"/><path class="cls-4" d="M62.09,8.87l-5-8.63a.48.48,0,0,0-.83,0l-5,8.63a.47.47,0,0,0,.52.7l4.32-1a2.55,2.55,0,0,1,1.1,0l4.33,1A.48.48,0,0,0,62.09,8.87Z"/><path class="cls-5" d="M26.41,51.73s-6-10.48,2.62-12.32l2.21,2.44,1.37,3.26Z"/><polygon class="cls-6" points="50.9 42.83 55.25 41.53 63.3 36.74 66.78 31.65 68.02 29.78 66.91 25.91 67.05 22.45 68.9 21.64 70.44 22.86 70.91 24.29 71.38 21.4 72.2 19.14 73.76 18.12 75.79 18.12 78.1 19.34 79.25 21.4 79.25 24.22 78.78 26.39 77.62 28.26 75.73 30.48 74.37 31.42 73.83 34.19 71.93 38.49 69.83 42.83 66.41 47.67 64.07 50.05 60.68 52.62 58.8 53.52 60.54 60.87 61 63.13 60.84 64.42 60.38 65.44 61.76 65.44 61.76 66.55 63.59 66.55 68.09 65.3 71.59 65.44 73.02 66.55 75.25 70.27 75.99 73.66 73.78 76.15 68.78 78.46 67.28 77.51 66.64 76.87 65.08 77.51 60.84 78.24 59.86 78.24 63.56 82.9 64.27 84.45 64.03 87.18 63.32 88.67 61.41 90.27 58.69 92.3 56.61 92.51 48.1 84.42 46.34 82.36 43.15 79.67 39.73 72.22 39.73 70.99 34.38 69.57 28.55 66.22 25.46 62.01 24.04 57.78 25.02 54.22 29.19 47.84 32.01 44.88 34.85 44.05 50.9 42.83"/><path class="cls-5" d="M36.93,68s8.2,4.46,11.2-.41V69.4l-1.79,1.7L44,71.74H41.9l-5-1.49-.66-.6Z"/><path class="cls-5" d="M57.22,51.06s12.43-7.37,12.88-8.91l-2.75,4.61L62.1,51.84l-2.41,1.33-.89.35Z"/><path class="cls-5" d="M61.86,39.61s8.13-8,9.52-8.14-3.55-2-3.55-2L66.17,33.1l-3.36,3.56L59,39.16Z"/><path class="cls-5" d="M75.86,18.32s2,2.31,2.07,4.58c0,0-.64,5.44-4.1,6.91l-2.75.71,2.41,1.13,2.24-1.17,2.91-3.79.71-4-.54-2.55-1.93-1.66Z"/><polygon class="cls-5" points="71.63 21.03 72.54 26.22 71.03 25.08 71.63 21.03"/><path class="cls-5" d="M68.68,22a11.71,11.71,0,0,0,.57,7.86c1.87,3.66-1.49-1.06-1.49-1.06l-.91-4.87.67-1.63Z"/><path class="cls-5" d="M55.25,41.53a15.22,15.22,0,0,0,.41,5.52c.78,2.25-2.85-3.34-5.53-3.24S55.25,41.53,55.25,41.53Z"/><path class="cls-5" d="M30.21,50.75s3.56-2.51,7-2.29,11.34-3,11.31-3.63l-1.94.47-2.76.47L39.15,46l-4.85-.63L32,44.88,29.43,47.2l-2.38,3.93S27.23,52.7,30.21,50.75Z"/><path class="cls-5" d="M40.61,61.2s-3.39-4.07-2.8-7.09l-1.71,2-1.8,2.21Z"/><path class="cls-5" d="M24.46,57.84s5,9.13,12.47,9.09l-1.13,3L28.43,66l-3.25-4.38Z"/><path class="cls-5" d="M45.9,54.59S48.49,64.11,50,64.86s10-2.17,10.41-2.81.74,1.39.74,1.39l-.19,1-2.36,1.18-9.06,2.65-1-1.19-.44-2.2-1.79-.65-1.25-4.06-.85-3,.35-2.34Z"/><path class="cls-5" d="M54.31,68.08s-1.63,1.93,0,3l-5.6.85-2.81-.1-.41-.27,2.92-2.21Z"/><path class="cls-5" d="M59,77.17s6.56-1.89,8.14-4.62l.4.29-.41,3.93.17.87-2,.93-4.44.53Z"/><path class="cls-5" d="M67.28,71.75s1.93,4.85,3.82,5.14-1.23,1.35-1.23,1.35l-1.73.47-1.42-3.25Z"/><path class="cls-5" d="M44.87,72.11S46.69,80.76,49,82.92c0,0,7.21,6.28,9,6.37a12.78,12.78,0,0,0,4.36.15c1.82-.38-2.82,2.43-2.82,2.43l-2,1.13-2.33-1.82L50.62,86.5,47,83.15,45.49,82,42,77.51l-2.22-5.29L40,71.4Z"/><path class="cls-7" d="M51.6,47.42h0a.5.5,0,0,1,.5.5v2.25a0,0,0,0,1,0,0h0a.5.5,0,0,1-.5-.5V47.45A0,0,0,0,1,51.6,47.42Z" transform="translate(21.14 -15.43) rotate(21.18)"/><path class="cls-8" d="M53.16,49.13l-.83-.33a.13.13,0,0,0-.18.08l-.07.16a.15.15,0,0,0,.08.18l.58.23a.35.35,0,0,0,.47-.2A.1.1,0,0,0,53.16,49.13Z"/><path class="cls-8" d="M50.52,48.47l.82.33a.14.14,0,0,0,.18-.08l.07-.16a.14.14,0,0,0-.08-.18l-.57-.23a.36.36,0,0,0-.48.2A.09.09,0,0,0,50.52,48.47Z"/><path class="cls-7" d="M51.06,47.22a1.78,1.78,0,0,1,2.37.84,1.76,1.76,0,0,1-.85,2.35,1.78,1.78,0,0,1-2.37-.84,1.76,1.76,0,0,1,.85-2.35m-.3-.63a2.45,2.45,0,0,0-1.18,3.28,2.49,2.49,0,0,0,3.3,1.18,2.47,2.47,0,1,0-2.12-4.46Z"/><ellipse class="cls-8" cx="48.1" cy="57.23" rx="1.76" ry="1.75"/><path class="cls-7" d="M47.51,55.89a1.48,1.48,0,0,1,1.94.75,1.46,1.46,0,0,1-.75,1.93,1.47,1.47,0,1,1-1.19-2.68m-.36-.8a2.35,2.35,0,0,0-1.21,3.09,2.38,2.38,0,0,0,3.12,1.2,2.33,2.33,0,0,0,1.2-3.09,2.36,2.36,0,0,0-3.11-1.2Z"/><ellipse class="cls-6" cx="47.55" cy="56.99" rx="0.86" ry="0.85"/><path class="cls-7" d="M35.94,70.27l-.15,0c-6.06-1.66-9.06-4.78-10.5-7.11a10.77,10.77,0,0,1-1.71-4.79,0,0,0,0,1,0-.05c.2-6.4,7.91-13.65,8.24-13.95a.56.56,0,1,1,.77.82c-.08.08-7.67,7.22-7.88,13.14a10,10,0,0,0,1.57,4.29c1.85,2.94,5,5.15,9.28,6.41.55-1.78,2.06-6.1,3.94-7.54a21.12,21.12,0,0,0-6.39-2.87c-1.49-.24-3.31-.31-3.68,0a.57.57,0,0,1-.79-.12.56.56,0,0,1,.11-.79c.93-.7,3.73-.31,4.56-.17h0A21.77,21.77,0,0,1,41,61.13a.59.59,0,0,1,.19.6.57.57,0,0,1-.48.4c-1.38.16-3.29,4.62-4.2,7.74A.58.58,0,0,1,35.94,70.27Z"/><path class="cls-7" d="M33.86,58.78a.57.57,0,0,1-.33-1c1.06-.78,3.86-3.2,4-5a.57.57,0,0,1,1.13.09c-.22,2.74-4.3,5.75-4.48,5.88A.56.56,0,0,1,33.86,58.78Z"/><circle class="cls-7" cx="41.03" cy="30.96" r="12.48"/><path class="cls-6" d="M49.73,22.37s-4-6.3-15.26-3.56c0,0-7.77,1.89-8.08,12,0,0,.19,8.12,4.6,10.22l2.06.12s-5-7.14-1.78-14.07C31.27,27.05,38.12,16.75,49.73,22.37Z"/><path class="cls-5" d="M33.08,24.82s-4.65-1.84-.76-5.1c0,0-4.09,2.91-4.72,5.32l-1.19,4.73s2.35-2.12,4.16-.87Z"/><path class="cls-6" d="M51.1,36.71c-.19.63,4.06-8.41-2.58-13.95l-.11-.08h0a1.22,1.22,0,0,0-1.51,1.9,4.36,4.36,0,0,0,.71.49,1.09,1.09,0,0,1,.3.23C48.73,26.18,52.87,31,51.1,36.71Z"/><path class="cls-6" d="M34,33.42s-.86,5.88,4.33,7.74a3.22,3.22,0,0,0,.94.15.54.54,0,0,0,.18-1c-1.22-.5-3.94-1.9-4.5-4.69C34.22,32,34,33.42,34,33.42Z"/><path class="cls-7" d="M33,41.53,31,41.41a.28.28,0,0,1-.15,0C26.23,39.19,26,31.14,26,30.77c.32-10.28,8.31-12.33,8.39-12.35,11.43-2.78,15.53,3.47,15.7,3.74a.41.41,0,0,1,0,.49.41.41,0,0,1-.48.09c-4.68-2.26-9.1-2.2-13.17.2a16.12,16.12,0,0,0-4.75,4.32c-3,6.62,1.71,13.56,1.76,13.63a.41.41,0,0,1,0,.43.43.43,0,0,1-.34.21ZM48.17,21.27c-1.86-1.62-6-3.91-13.6-2.06-.31.08-7.48,1.95-7.77,11.56,0,.08.24,7.81,4.29,9.83l1.19.07c-1.16-2-4.08-7.9-1.38-13.79l0-.05c.06-.08,4.24-6.23,11.51-6.52A14.66,14.66,0,0,1,48.17,21.27Z"/><ellipse class="cls-6" cx="29.35" cy="33.37" rx="4.3" ry="4.68" transform="translate(-1.32 1.21) rotate(-2.31)"/><path class="cls-5" d="M32,37.23s-3.5-1.1-3.34-3l-3.26-1L25.07,33l0,1.69,1.12,1.87,1.84,1.29,2.4.16Z"/><path class="cls-7" d="M29.17,29a4.26,4.26,0,0,1,4.24,4.26,4.27,4.27,0,0,1-3.88,4.59A4.44,4.44,0,0,1,29.17,29m0-.69a5,5,0,0,0-4.55,5.31,5,5,0,0,0,5,4.92,5.13,5.13,0,0,0-.41-10.23Z"/><path class="cls-7" d="M30.05,34.49c.47,0,.78-.06.83-.06a.41.41,0,0,0,.36-.46.4.4,0,0,0-.45-.35c-1.14.13-4.3.19-5.25-1.06a.41.41,0,1,0-.65.5C26,34.46,28.66,34.54,30.05,34.49Z"/><path class="cls-6" d="M50.13,39.49c-.86,1.07-3.06,3.28-8.72,3.17,0,0-7.85-.76-10-2.12,0,0-1.19-.29-1.24,1.7,0,0,.1,1.82,2.55,2.34,0,0,11,3.61,18.14-1.75,0,0,1.63-1.67.55-3.14C51.17,39.32,50.42,39.14,50.13,39.49Z"/><path class="cls-5" d="M38.71,42.16s-3.65,1-1.54,3.36c0,0-6.13-.06-6.82-1.68l-.45-1.59.26-1.11.79-.92,3.38,1.44Z"/><path class="cls-7" d="M59.23,53.8a.48.48,0,0,1-.43-.28A.47.47,0,0,1,59,52.9c9.48-4.33,14-17.38,15-20.93-2.07.42-4.75-1.22-5.9-2-2.94,9-15.65,13.15-16.21,13.33a.47.47,0,1,1-.28-.9c.13,0,13.38-4.41,15.77-13.32a.49.49,0,0,1,.31-.32.47.47,0,0,1,.44.07c1.18.92,4.63,3.07,6.32,2a.47.47,0,0,1,.71.5,49.35,49.35,0,0,1-3.57,9.24C69.37,45.06,65.39,51,59.43,53.75A.49.49,0,0,1,59.23,53.8Z"/><path class="cls-7" d="M63.3,41.14a.47.47,0,0,1-.39-.2c-.66-1-3.33-.9-4.22-.81a.47.47,0,1,1-.1-.93c.41-.05,4-.39,5.1,1.2a.49.49,0,0,1-.12.66A.53.53,0,0,1,63.3,41.14Z"/><path class="cls-7" d="M75.93,73.66a.46.46,0,0,1-.46-.41A12,12,0,0,0,72,66.11c-3.71-1.69-10.2,1.66-10.27,1.69a.47.47,0,0,1-.43-.83c.28-.15,7-3.63,11.16-1.69l.1.07a12.66,12.66,0,0,1,3.88,7.78.47.47,0,0,1-.41.53Z"/><path class="cls-7" d="M59.84,89.68h0a7.22,7.22,0,0,1-3.47-1.26.48.48,0,0,1-.11-.66.47.47,0,0,1,.65-.11,6.46,6.46,0,0,0,3,1.09.47.47,0,0,1,0,.94Z"/><path class="cls-7" d="M63.07,89.68a.51.51,0,0,1-.31-.11.48.48,0,0,1,0-.67,4.76,4.76,0,0,0,1-4.61l-6.74-9.21a.47.47,0,0,1,.1-.66.48.48,0,0,1,.66.11l6.78,9.26a.31.31,0,0,1,0,.1,5.66,5.66,0,0,1-1.09,5.62A.49.49,0,0,1,63.07,89.68Z"/><path class="cls-7" d="M60.36,79.44a.47.47,0,0,1,0-.94c.05,0,5.06-.36,6.77-1.39a.47.47,0,1,1,.49.8c-1.9,1.16-7,1.51-7.2,1.53Z"/><path class="cls-7" d="M68.49,79.3a.52.52,0,0,1-.29-.09c-.11-.09-2.85-2.25-1.71-7.24a.47.47,0,0,1,.56-.35.47.47,0,0,1,.36.56c-1,4.4,1.34,6.26,1.37,6.28a.47.47,0,0,1,.08.66A.46.46,0,0,1,68.49,79.3Z"/><path class="cls-7" d="M57.08,93.34l-.13,0a4.65,4.65,0,0,1-1.84-1.44l-8.49-8.6C41,79.7,39.34,72.17,39.27,71.85a.47.47,0,0,1,.37-.56.47.47,0,0,1,.55.37c0,.07,1.61,7.5,7,10.85a.27.27,0,0,1,.08.07l8.54,8.66,0,0a3.85,3.85,0,0,0,1.39,1.15.47.47,0,0,1-.14.92Z"/><path class="cls-7" d="M43.54,72.22A12.48,12.48,0,0,1,41.08,72h0c-1.92-.47-5.19-1.43-5.47-2.5a.48.48,0,0,1,.92-.24c.2.39,2.39,1.23,4.77,1.82,2.58.52,4.46.23,5.58-.87,1.48-1.47,1.22-4,1.15-4.49-1.07-1.39-3.57-.6-4.17-.39l-.16.06a.47.47,0,0,1-.59-.28.46.46,0,0,1,.26-.6l.16-.07a2.83,2.83,0,0,0,1.61-1.77.64.64,0,0,0-.15-.68c-.45-.43-3.2.12-5.48.89a.47.47,0,1,1-.31-.89c1.24-.42,5.36-1.71,6.43-.69A1.6,1.6,0,0,1,46,62.82,3.06,3.06,0,0,1,45.51,64a3.44,3.44,0,0,1,3.33,1.26.71.71,0,0,1,.08.18c0,.14.61,3.46-1.4,5.44A5.43,5.43,0,0,1,43.54,72.22Z"/><path class="cls-7" d="M67.87,29.81a.48.48,0,0,1-.45-.32c-.2-.6-2-5.86-.32-7.55a2.15,2.15,0,0,1,2.33-.37l.1,0a4.66,4.66,0,0,1,1.84,2.9.47.47,0,0,1-.34.57.46.46,0,0,1-.57-.34,4,4,0,0,0-1.37-2.29c-.92-.26-1.21,0-1.31.14-.93,1-.17,4.56.53,6.59a.46.46,0,0,1-.29.6A.4.4,0,0,1,67.87,29.81Z"/><path class="cls-7" d="M74.78,31.65a.48.48,0,0,1-.41-.23.49.49,0,0,1,.17-.65c.22-.12,5.23-3.17,4.29-8.93A3.82,3.82,0,0,0,76.65,19c-2.1-1-3.62-.53-4.52,1.29a15.4,15.4,0,0,0-.75,3.28.47.47,0,1,1-.94,0,16.32,16.32,0,0,1,.81-3.6.14.14,0,0,1,0-.06c1.13-2.33,3.18-3,5.77-1.77a4.76,4.76,0,0,1,2.72,3.58c1,6.4-4.68,9.86-4.74,9.9A.53.53,0,0,1,74.78,31.65Z"/><path class="cls-7" d="M46.38,72.55l-.14,0L44.57,72a.45.45,0,0,1-.31-.58.47.47,0,0,1,.58-.32l1.61.49c12-.06,14.69-4.2,15-4.76,0-.89-.19-1.1-.26-1.15a.58.58,0,0,0-.43,0C59.05,68,49,69.84,47.87,70a.47.47,0,0,1-.55-.38.48.48,0,0,1,.39-.55c4.29-.75,11.43-2.5,12.33-4a.46.46,0,0,1,.17-.17,1.53,1.53,0,0,1,1.48,0c.52.32.75,1,.69,2.09a.4.4,0,0,1,0,.15c-.09.22-2.33,5.36-16,5.4Z"/><path class="cls-7" d="M49.4,68.71a.46.46,0,0,1-.22-.06l-.86-.45a.45.45,0,0,1-.19-.63.47.47,0,0,1,.63-.2l.69.36L60,64.56a2.35,2.35,0,0,0,.77-1.12l-2.66-10.5c-.57-1-1-1.2-1.25-1.24a.47.47,0,0,0-.32,0,.4.4,0,0,1-.17.09L44.86,55.17c-.67.31-.06,3.39.92,6a.47.47,0,0,1-.89.33c-.56-1.5-2.26-6.46-.35-7.2l0,0L56.07,51a1.4,1.4,0,0,1,1-.18A3.16,3.16,0,0,1,59,52.53a.36.36,0,0,1,0,.11l2.71,10.69a.5.5,0,0,1,0,.21,3.28,3.28,0,0,1-1.22,1.82.41.41,0,0,1-.15.07L49.54,68.69Z"/><path class="cls-7" d="M42.3,62.05a.48.48,0,0,1-.46-.35,3.9,3.9,0,0,1,.31-2.84,2.58,2.58,0,0,1,1.9-1.11.47.47,0,0,1,.13.94,1.63,1.63,0,0,0-1.24.69,3,3,0,0,0-.19,2.07.47.47,0,0,1-.33.58Z"/><path class="cls-7" d="M26.41,52.29a.55.55,0,0,1-.48-.27c-.17-.27-4.07-6.72-1.11-10.74l.05-.06C25,41.13,27,39.08,29,38.85a.56.56,0,0,1,.62.5.55.55,0,0,1-.49.62,7.36,7.36,0,0,0-3.39,2c-2.47,3.42,1.15,9.39,1.18,9.45a.56.56,0,0,1-.48.86Z"/><path class="cls-7" d="M35.22,57.7a.48.48,0,0,1-.39-.19c-2.89-4-9.81-2.14-9.88-2.12a.47.47,0,1,1-.25-.91c.31-.09,7.62-2,10.9,2.48a.47.47,0,0,1-.11.65A.46.46,0,0,1,35.22,57.7Z"/><path class="cls-7" d="M36.71,55.06a.51.51,0,0,1-.39-.19c-2.89-4-9.81-2.15-9.88-2.13a.47.47,0,0,1-.25-.91c.31-.08,7.62-2,10.9,2.48A.48.48,0,0,1,37,55,.46.46,0,0,1,36.71,55.06Z"/><path class="cls-7" d="M55.71,43.66h-.25a4.43,4.43,0,0,1-2.26-.95l.62-.71a3.5,3.5,0,0,0,1.73.72,1.68,1.68,0,0,0,1.24-.39,1.38,1.38,0,0,0,.51-1,1.5,1.5,0,0,0-.15-.77l.86-.39a2.48,2.48,0,0,1,.23,1.22A2.34,2.34,0,0,1,57.4,43,2.61,2.61,0,0,1,55.71,43.66Z"/><polygon class="cls-7" points="63.24 88.89 64.03 86.78 64.98 87.54 63.24 88.89"/><path class="cls-7" d="M50.7,39.41a.72.72,0,0,1,.56.28c1.09,1.47-.55,3.14-.55,3.14a16.6,16.6,0,0,1-10.06,2.94,28.86,28.86,0,0,1-8.08-1.19C30.13,44.06,30,42.24,30,42.24c0-1.54.76-1.71,1.08-1.71h.16c2.11,1.36,10,2.12,10,2.12h.44c5.34,0,7.64-1.94,8.48-3a.71.71,0,0,1,.56-.27m0-.69a1.41,1.41,0,0,0-1.1.52c-.66.82-2.77,2.73-7.94,2.73h-.4c-2.16-.21-8-1-9.63-2a.67.67,0,0,0-.21-.09,1.51,1.51,0,0,0-.32,0c-.28,0-1.71.11-1.77,2.38v.06c0,.1.17,2.33,3.06,3a29.58,29.58,0,0,0,8.26,1.21,17,17,0,0,0,10.48-3.08l.08-.06c.7-.73,1.74-2.5.61-4a1.42,1.42,0,0,0-1.12-.56Z"/><path class="cls-6" d="M61.92,106.27,56,92.71s8-3.22,8.66-5.17l3.74,8.63,3.37-1.29,2.3,1,1.45,3.36L75,101.74,73.54,103l-2.88,1.79-3.54,1.1S62.25,107,61.92,106.27Z"/><path class="cls-5" d="M68.64,105.44s7.19-6.09,5.39-9.35L75.4,98l-1,4.68Z"/><path class="cls-7" d="M61.85,96.38A1.68,1.68,0,1,1,60,97.89a1.68,1.68,0,0,1,1.82-1.51m.06-.69a2.36,2.36,0,1,0,2.14,2.57,2.37,2.37,0,0,0-2.14-2.57Z"/><path class="cls-5" d="M60.68,90.57A38.11,38.11,0,0,0,65,87.84c.17-.38,3.11,7.84,3.11,7.84l0,.65-1.28.78s-1.44-5-2.73-5C64.06,92.12,65.52,88.89,60.68,90.57Z"/><path class="cls-7" d="M61.8,93.93a13.44,13.44,0,0,1-4.68,1.31.43.43,0,0,1-.45-.4.43.43,0,0,1,.4-.45s5.51-.37,8.37-4.63a.42.42,0,0,1,.7.48A10.88,10.88,0,0,1,61.8,93.93Z"/><path class="cls-7" d="M64.89,100.36a.42.42,0,0,1-.55-.58,10.32,10.32,0,0,1,4.37-4.24.42.42,0,0,1,.55.23.43.43,0,0,1-.23.55,9.76,9.76,0,0,0-4,3.86A.37.37,0,0,1,64.89,100.36Z"/><path class="cls-7" d="M60.45,91c-2.16,1-4.34,1.93-4.36,1.93a.42.42,0,0,1-.56-.24.43.43,0,0,1,.24-.56s2.17-.87,4.3-1.91h0c4.08-2,4.18-2.7,4.19-2.73a.43.43,0,0,1,.46-.4.43.43,0,0,1,.4.46c0,.56-.59,1.47-4.66,3.45Z"/><path class="cls-5" d="M59.75,100.41s4.59,5.41,7,5.35l-1.32.57-2.69.1-1.21-.57Z"/><path class="cls-7" d="M71.16,103a19.73,19.73,0,0,1-10.11,1.76.42.42,0,0,1-.36-.47.43.43,0,0,1,.47-.37c.08,0,8.71,1,14-5a.42.42,0,0,1,.63.56A14.83,14.83,0,0,1,71.16,103Z"/><path class="cls-7" d="M71.61,104.74a20.51,20.51,0,0,1-2.55,1c-.51.19-5.09,1.85-6.93,1a1.4,1.4,0,0,1-.75-.78L55.64,92.8a.43.43,0,0,1,.2-.55l.87-.42a.41.41,0,0,1,.56.19.42.42,0,0,1-.19.57l-.5.24,5.58,12.85a.56.56,0,0,0,.33.32c1.28.59,5-.55,6.29-1,3.67-1.21,5.77-2.8,6.22-4.72.53-2.21-1.29-4.2-1.5-4.42-2-1.46-4.75.66-4.78.68a.43.43,0,0,1-.36.08.45.45,0,0,1-.29-.25l-3.7-8.53a.43.43,0,0,1,.22-.56.43.43,0,0,1,.56.22l3.49,8.07c1-.63,3.39-1.85,5.39-.37l0,0c.1.1,2.42,2.45,1.76,5.23C75.42,102.13,74,103.58,71.61,104.74Z"/><path class="cls-6" d="M75.09,91l-6.6-12s7.12-3.66,7.56-5.52l4.2,7.65,3-1.47,2.22.73,1.62,3-.31,2.35L85.55,87,83,88.9l-3.18,1.33S75.47,91.68,75.09,91Z"/><path class="cls-5" d="M72.1,76.93a37.87,37.87,0,0,0,3.83-3.36c.1-.39,4.27,7.27,4.27,7.27l.09.65-1.15,1S77,77.79,75.68,78C75.68,78,76.62,74.53,72.1,76.93Z"/><path class="cls-5" d="M81.23,89.66s6.13-6.24,4.18-9.1l1.43,1.63-.56,4.41Z"/><path class="cls-7" d="M77.33,85.29a.38.38,0,0,1-.36,0,.4.4,0,0,1-.2-.52,9.64,9.64,0,0,1,3.67-4.29.39.39,0,0,1,.53.16.38.38,0,0,1-.16.53,9.08,9.08,0,0,0-3.32,3.91A.35.35,0,0,1,77.33,85.29Z"/><path class="cls-7" d="M79.73,80.69a1.38,1.38,0,0,1-1.21.1,2.24,2.24,0,0,1-1.31-1.25,2.21,2.21,0,0,1,0-1.8,3.12,3.12,0,0,1,.6-.85.39.39,0,1,1,.54.57,2.36,2.36,0,0,0-.43.61,1.42,1.42,0,0,0,0,1.16,1.46,1.46,0,0,0,.85.82.59.59,0,0,0,.69-.15.4.4,0,0,1,.56,0,.39.39,0,0,1,0,.55A1.42,1.42,0,0,1,79.73,80.69Z"/><path class="cls-5" d="M72.35,85.71s5.27,4.75,7.68,4.36l-1.22.74-2.66.45-1.28-.4Z"/><path class="cls-5" d="M70.66,77.74s2.52,8,4.28,10.42-1.67-.5-1.67-.5L68.7,79.37l.26-1Z"/><path class="cls-7" d="M83.91,88.76a17.73,17.73,0,0,1-2.27,1.16c-.44.22-4.54,2.15-6.31,1.53a1.28,1.28,0,0,1-.76-.66l-6.44-11.7a.39.39,0,0,1,.15-.52L69,78.1a.39.39,0,0,1,.54.14.39.39,0,0,1-.13.53L69,79l6.27,11.39a.48.48,0,0,0,.32.28c1.24.43,4.55-.94,5.73-1.5,3.29-1.43,5.09-3.08,5.35-4.9.29-2.08-1.56-3.76-1.78-4-2-1.18-4.33,1-4.35,1a.38.38,0,0,1-.33.11.41.41,0,0,1-.28-.2l-4.15-7.57a.39.39,0,1,1,.68-.38l3.92,7.15c.86-.66,3-2,5-.8l0,0c.1.08,2.44,2.05,2.07,4.68C87.21,86,86,87.48,83.91,88.76Z"/><path class="cls-7" d="M83.35,87.16a18.4,18.4,0,0,1-9.19,2.49.39.39,0,1,1,0-.78c.08,0,8.14.15,12.55-5.81a.39.39,0,1,1,.63.46A13.79,13.79,0,0,1,83.35,87.16Z"/><path class="cls-7" d="M73.92,79.61a12.52,12.52,0,0,1-4.21,1.61.39.39,0,1,1-.12-.77s5.06-.82,7.34-5a.38.38,0,0,1,.53-.15.39.39,0,0,1,.16.53A10,10,0,0,1,73.92,79.61Z"/><path class="cls-7" d="M72.43,77c-1.91,1.16-3.84,2.15-3.86,2.16A.42.42,0,0,1,68,79a.4.4,0,0,1,.18-.54s1.93-1,3.81-2.13h0c3.6-2.18,3.63-2.85,3.63-2.88a.42.42,0,0,1,.4-.41.41.41,0,0,1,.41.39c0,.53-.42,1.41-4,3.58Z"/></g></g></svg>