<svg xmlns="http://www.w3.org/2000/svg" viewBox="0 0 150.24 83.32">
	<defs>
		<style>.cls-1{fill:#fff;}.cls-2{fill:#232323;}.cls-3{fill:#ff5100;}.cls-4{fill:#00aeb3;}</style>
	</defs>
	<g id="Layer_2" data-name="Layer 2">
		<g id="Layer_1-2" data-name="Layer 1">
			<path class="cls-1"
			      d="M150.21,67.46l-2-28.67a11.84,11.84,0,0,0-8.34-10.65,10.76,10.76,0,0,0-3.72-.39l-13.25.92a2.79,2.79,0,0,1-2.9-2,5.09,5.09,0,0,0-1.3-2.28l-5.6-5.71a2.82,2.82,0,0,1,0-4L120,7.65A4.55,4.55,0,0,0,121.3,3.3,4.35,4.35,0,0,0,117.09.07h-.47L105.7,2.4a7.86,7.86,0,0,0-2.85,1.74,2.81,2.81,0,0,1-3.75-.06,10.1,10.1,0,0,0-4.46-2.59L88.19.12A5,5,0,0,0,87.1,0a5.13,5.13,0,0,0-4.74,3.17,3.39,3.39,0,0,0-.21.61A2.91,2.91,0,0,1,79.39,6h-1.8a1.42,1.42,0,0,1-1.41-1.42V2.84a1.42,1.42,0,0,0-1.42-1.41H65.92A1.42,1.42,0,0,0,64.5,2.84V4.47a1.41,1.41,0,0,1-1.41,1.42L48.56,6a1.43,1.43,0,0,1-1.42-1.42V3.24a1.42,1.42,0,0,0-1.42-1.41H36.88a1.41,1.41,0,0,0-1.41,1.41V4.56A1.59,1.59,0,0,1,34,6.07L2.83,6A2.83,2.83,0,0,0,0,8.84V72A11.34,11.34,0,0,0,11.34,83.32H75a7.84,7.84,0,0,0,3.36-.75,5.59,5.59,0,0,1,4.79-.15,7.71,7.71,0,0,0,3.25.72h0l.54,0,52.78-3.64A11.28,11.28,0,0,0,150.21,67.46Z"/>
			<path class="cls-2" d="M20.34,10.26v12.8H4.25V10.26H7.42v9.6h3.29v-9.6h3.17v9.6h3.17v-9.6Z"/>
			<path class="cls-2" d="M36.52,10.23V23H23.6V15.34h9.63V13.25H23.6v-3Zm-3.29,9.94V18H26.89v2.22Z"/>
			<path class="cls-2" d="M42.89,13.43v6.43h6.46v3.2H39.72v-17h3.17v4.15h6.46v3.2Z"/>
			<path class="cls-2" d="M55.9,13.4v6.34h9.63V23H52.61V10.14H65.53V13.4Z"/>
			<path class="cls-2" d="M81.55,10.23V23.06H78.38V13.43H71.92v9.63H68.76V5.68h3.16v4.55Z"/>
			<g id="ARC">
				<path class="cls-3"
				      d="M104.76,25.27l-1.38-1.74a3.31,3.31,0,0,1,.23-4.38l3.15-3.2a1.64,1.64,0,0,0,0,2.32l8.93,9.1a.91.91,0,0,1-.84,1.52l-6.47-1.38A6.35,6.35,0,0,1,104.76,25.27Z"/>
			</g>
			<path class="cls-2"
			      d="M117.07,4.32,106.56,6.57a2.14,2.14,0,0,0-1.25.77l-3.62,4.56a.7.7,0,0,1-1.1,0l-1.44-1.81a3.3,3.3,0,0,1-.23,4.37L85,28.66a.11.11,0,0,0,.1.18L95.6,26.6a2.15,2.15,0,0,0,1.25-.78l3.62-4.56a.71.71,0,0,1,1.1,0L103,23.08a3.31,3.31,0,0,1,.23-4.38L117.17,4.51A.11.11,0,0,0,117.07,4.32Z"/>
			<g id="ARC-2" data-name="ARC">
				<path class="cls-3"
				      d="M97.4,7.9l1.38,1.74A3.31,3.31,0,0,1,98.55,14L95.4,17.22a1.64,1.64,0,0,0,0-2.32L86.47,5.79a.91.91,0,0,1,.83-1.52l6.48,1.39A6.25,6.25,0,0,1,97.4,7.9Z"/>
			</g>
			<path class="cls-3"
			      d="M26.27,40.3a3.58,3.58,0,0,1-2.52-1l-5.5-5.5a4.79,4.79,0,0,0-3.43-1.43H4.25V31.1H14.82a6.05,6.05,0,0,1,4.31,1.78l5.5,5.5a2.32,2.32,0,0,0,3.29,0l5.5-5.5a6.05,6.05,0,0,1,4.31-1.78h44v1.23h-44a4.79,4.79,0,0,0-3.43,1.43l-5.5,5.5A3.59,3.59,0,0,1,26.27,40.3Z"/>
			<path class="cls-4"
			      d="M55.89,52.51a3.34,3.34,0,0,0-2.67,1.2,5.66,5.66,0,0,0-1,3.67,5.7,5.7,0,0,0,1,3.69,3.59,3.59,0,0,0,5.39,0,5.7,5.7,0,0,0,1-3.69,5.64,5.64,0,0,0-1-3.65A3.3,3.3,0,0,0,55.89,52.51Z"/>
			<path class="cls-4"
			      d="M26.56,55.19a1.55,1.55,0,0,0,.53-1.27,1.36,1.36,0,0,0-.61-1.17,3.17,3.17,0,0,0-1.83-.43l-.93,0a6.14,6.14,0,0,0-.83.09v3.19h2A2.66,2.66,0,0,0,26.56,55.19Z"/>
			<path class="cls-4"
			      d="M25.3,58.93H22.89v3.3a4,4,0,0,0,1,.15c.4,0,.78,0,1.14,0A3.31,3.31,0,0,0,26.8,62a1.54,1.54,0,0,0,.72-1.4Q27.52,58.93,25.3,58.93Z"/>
			<path class="cls-4"
			      d="M79.15,65.17c-.27.14-.41.42-.67,1a3.55,3.55,0,0,1-1.88,2.21c-.93.37-2.5.42-4.74-1.44-4-3.29-4.89-10.33-2-14.78.88-1.35,2.68-3.56,4.92-3.29a4.3,4.3,0,0,1,2.81,2c.45.58.77,1,1,1h0c.48,0,1.17-.71,1.59-1.39.66-1.06.56-2,.31-3.84a20.52,20.52,0,0,1,.05-6.83,3.51,3.51,0,0,0-3.46-4.1H37.73a2.89,2.89,0,0,0-2.08.86l-5.51,5.5a5.47,5.47,0,0,1-7.73,0l-5.51-5.5a2.89,2.89,0,0,0-2.08-.86H11.27a7,7,0,0,0-7,7V72.05a7,7,0,0,0,7,7H75a3.52,3.52,0,0,0,3.5-3.2,15.44,15.44,0,0,1,1.69-6c.06-.12.14-.25.22-.4.49-.89,1.51-2.74,1-3.57A2.18,2.18,0,0,0,79.15,65.17Zm-48.77-.4a10.57,10.57,0,0,1-5.73,1.29l-1.08,0c-.42,0-.85-.06-1.29-.11s-.88-.12-1.32-.2a6.65,6.65,0,0,1-1.19-.34,2,2,0,0,1-1.49-2V50.75a1.25,1.25,0,0,1,.31-.89,2.44,2.44,0,0,1,.86-.5,10.76,10.76,0,0,1,2.3-.47,26.37,26.37,0,0,1,2.85-.15,10.06,10.06,0,0,1,5.33,1.17,3.92,3.92,0,0,1,1.87,3.6,3.23,3.23,0,0,1-.67,2.07,4.5,4.5,0,0,1-1.9,1.34c2.1.69,3.14,2,3.14,3.88A4.39,4.39,0,0,1,30.38,64.77Zm15.7.45a1.5,1.5,0,0,1-1.19.48H37.58a2.32,2.32,0,0,1-2.52-2.52v-14L36,49a7.53,7.53,0,0,1,1.25-.1,3.29,3.29,0,0,1,2,.46,2.17,2.17,0,0,1,.6,1.79V61.88H46a3.47,3.47,0,0,1,.36.79,3.57,3.57,0,0,1,.16,1.06A2.21,2.21,0,0,1,46.08,65.22Zm17.75-4.08A7.48,7.48,0,0,1,62,63.87a7.58,7.58,0,0,1-2.72,1.67,10.52,10.52,0,0,1-6.83,0,7.47,7.47,0,0,1-2.71-1.68A7.72,7.72,0,0,1,48,61.12a10.07,10.07,0,0,1-.65-3.74A9.94,9.94,0,0,1,48,53.64a7.59,7.59,0,0,1,4.53-4.39,10.45,10.45,0,0,1,6.75,0A7.9,7.9,0,0,1,62,50.92a7.59,7.59,0,0,1,1.83,2.72,9.94,9.94,0,0,1,.66,3.74A10,10,0,0,1,63.83,61.14Z"/>
			<path class="cls-4"
			      d="M146,67.75l-2-29.24A7,7,0,0,0,136.47,32L86,35.48a3.5,3.5,0,0,0-3.2,2.81,21.4,21.4,0,0,0-.37,4.54,18.27,18.27,0,0,0,.48,3.48c.38,1.85.74,3.59-.29,5.55-.35.65-1.62,2.76-3.66,2.83A4,4,0,0,1,75.85,53c-.43-.48-.84-.94-1.19-1s-1.43.69-2.35,2.33c-2,3.48-.83,9.09,2.27,11.32,1.29.93,2,1,2.26.89s.26-.39.42-.86A4,4,0,0,1,79,63.2a4.61,4.61,0,0,1,5.7,1.35c1.33,2,.13,4.56-.59,6.11l-.18.38a12.5,12.5,0,0,0-1,4,3.52,3.52,0,0,0,3.74,3.83l52.77-3.64A7,7,0,0,0,146,67.75Zm-46.3-4.28a2.51,2.51,0,0,1-1,.94,9,9,0,0,1-1.35.53,9.23,9.23,0,0,1-2.15.36A11,11,0,0,1,91.65,65a7.67,7.67,0,0,1-2.89-1.38,7.17,7.17,0,0,1-2.05-2.56,10.23,10.23,0,0,1-.95-3.86,10,10,0,0,1,.41-3.78,7.6,7.6,0,0,1,4.19-4.71,9.52,9.52,0,0,1,3.26-.8,7.63,7.63,0,0,1,3.91.55,2.39,2.39,0,0,1,1.51,2,2.16,2.16,0,0,1-.27,1.25,3,3,0,0,1-.75.86,9.09,9.09,0,0,0-1.56-.68,4.84,4.84,0,0,0-1.87-.19,4,4,0,0,0-3.1,1.5,5.37,5.37,0,0,0-.86,3.69,5,5,0,0,0,1.45,3.55,4.49,4.49,0,0,0,3.43,1A5.25,5.25,0,0,0,97.36,61a11.56,11.56,0,0,0,1.43-.78,2.79,2.79,0,0,1,.78.86,2.68,2.68,0,0,1,.34,1.21A2.1,2.1,0,0,1,99.67,63.47Zm17-1.28a2.37,2.37,0,0,1-.53.82,2.52,2.52,0,0,1-.79.54,3.15,3.15,0,0,1-2.81-.2,9.84,9.84,0,0,1-1.44-1.21l-4.24-4.3L107.3,64a6.53,6.53,0,0,1-.9.22,8.82,8.82,0,0,1-1.27.17,3,3,0,0,1-2-.35,2.25,2.25,0,0,1-.67-1.72l-1-14.41.94-.21a8.69,8.69,0,0,1,1.23-.18,3.24,3.24,0,0,1,2,.33,2.14,2.14,0,0,1,.72,1.74l.3,4.38L111.79,47a4.06,4.06,0,0,1,2.68.51,2.1,2.1,0,0,1,.91,1.58,2.64,2.64,0,0,1-.26,1.35,6.66,6.66,0,0,1-1,1.48l-3.14,3.62q1.89,1.81,3.43,3.24c1,.94,1.84,1.71,2.46,2.3A2.49,2.49,0,0,1,116.69,62.19Zm14.2-2.46a4.5,4.5,0,0,1-1.25,1.74,6.65,6.65,0,0,1-2.17,1.22,11.16,11.16,0,0,1-3,.59,12.68,12.68,0,0,1-2.32,0,7.32,7.32,0,0,1-1.91-.47,3.51,3.51,0,0,1-1.31-.88,2.23,2.23,0,0,1-.54-1.31,2.08,2.08,0,0,1,.37-1.37,3.55,3.55,0,0,1,.94-.92,7.51,7.51,0,0,0,1.93.9,6.4,6.4,0,0,0,2.42.26,3,3,0,0,0,1.83-.56,1.26,1.26,0,0,0,.48-1,1,1,0,0,0-.49-.82,5.14,5.14,0,0,0-1.26-.5l-1.16-.3c-.81-.21-1.55-.44-2.22-.67a7,7,0,0,1-1.75-.9,4.25,4.25,0,0,1-1.19-1.34,4.66,4.66,0,0,1-.53-2,4.44,4.44,0,0,1,1.51-3.8,8,8,0,0,1,4.87-1.72,14.21,14.21,0,0,1,2.17,0,6.55,6.55,0,0,1,1.76.38,3.18,3.18,0,0,1,1.18.79,2,2,0,0,1,.49,1.2,2.23,2.23,0,0,1-.24,1.23,3.39,3.39,0,0,1-.73.9,6.51,6.51,0,0,0-1.64-.55,8,8,0,0,0-2.21-.13,3.67,3.67,0,0,0-1.76.46,1,1,0,0,0-.51.89.8.8,0,0,0,.4.64,3.43,3.43,0,0,0,1.09.4l1.46.36a10,10,0,0,1,4,1.83,4.51,4.51,0,0,1,1.6,3.35A4.75,4.75,0,0,1,130.89,59.73Z"/>
		</g>
	</g>
</svg>