<svg xmlns="http://www.w3.org/2000/svg" viewBox="0 0 595.28 33.76"><defs><style>.cls-1{fill:#231f20;}.cls-2{fill:#b7c4ce;}.cls-3{fill:#5c4da0;}.cls-4{fill:#a0adbb;}.cls-5{fill:#5a6d76;}.cls-6{fill:#465b62;}.cls-7{fill:none;}</style></defs><g id="Layer_2" data-name="Layer 2"><g id="Layer_1-2" data-name="Layer 1"><path class="cls-1" d="M89.91,30H85.23L96.82,4.37h3.78L112.2,30h-4.61L98.16,8h1.25Zm.43-6,1.77-3.6h13.07l1.69,3.6Z"/><path class="cls-1" d="M121.2,30.25a6.46,6.46,0,0,1-5-1.85c-1.11-1.24-1.67-3.1-1.67-5.6v-11H119v11a4.3,4.3,0,0,0,.83,2.91,3.12,3.12,0,0,0,2.48.94,4.07,4.07,0,0,0,3.17-1.3,4.9,4.9,0,0,0,1.19-3.45V11.82h4.53V30h-4.39V26.26l.47,0a6.23,6.23,0,0,1-2.38,3A6.67,6.67,0,0,1,121.2,30.25Z"/><path class="cls-1" d="M153.45,30H149V25.39l.43.65a5.42,5.42,0,0,1-2.32,3.11,7.2,7.2,0,0,1-4,1.1,7.6,7.6,0,0,1-4.2-1.17,7.72,7.72,0,0,1-2.82-3.33,11.75,11.75,0,0,1-1-5,11.66,11.66,0,0,1,1-5,7.46,7.46,0,0,1,2.83-3.28,7.79,7.79,0,0,1,4.21-1.15,7.07,7.07,0,0,1,4,1.15,5.66,5.66,0,0,1,2.32,3.1l-.5.54V3.5h4.5Zm-9.11-3.2a4.17,4.17,0,0,0,3.46-1.55A7,7,0,0,0,149,20.82a7,7,0,0,0-1.22-4.39,4.17,4.17,0,0,0-3.46-1.55,4.32,4.32,0,0,0-3.53,1.53,6.66,6.66,0,0,0-1.26,4.34,7,7,0,0,0,1.26,4.46A4.25,4.25,0,0,0,144.34,26.8Z"/><path class="cls-1" d="M158.09,3.58h5V8h-5ZM158.31,30V11.82h4.5V30Z"/><path class="cls-1" d="M176,30.25A9.9,9.9,0,0,1,171,29.1a7.83,7.83,0,0,1-3.19-3.26,10.63,10.63,0,0,1-1.12-5,10.77,10.77,0,0,1,1.12-5A7.81,7.81,0,0,1,171,12.5,10,10,0,0,1,176,11.35a9.87,9.87,0,0,1,4.84,1.15A8,8,0,0,1,184,15.8a10.65,10.65,0,0,1,1.13,5,10.51,10.51,0,0,1-1.13,5,8,8,0,0,1-3.21,3.26A9.76,9.76,0,0,1,176,30.25Zm0-3.45a4.17,4.17,0,0,0,3.44-1.5,7,7,0,0,0,1.2-4.48,7,7,0,0,0-1.2-4.45A4.19,4.19,0,0,0,176,14.88a4.33,4.33,0,0,0-3.51,1.49,6.83,6.83,0,0,0-1.24,4.45,7,7,0,0,0,1.22,4.48A4.29,4.29,0,0,0,176,26.8Z"/><path class="cls-2" d="M44.47.18,32.41,8.57l-.24.64h-2.4V24.44h2.44l.2.74,12.06,8.4A1,1,0,0,0,46,32.75V1A1,1,0,0,0,44.47.18Z"/><path class="cls-3" d="M49.64,13.33a1.11,1.11,0,0,0,0,1.46,3.18,3.18,0,0,1,.82,2.11,3.29,3.29,0,0,1-.8,2.13,1.11,1.11,0,0,0,0,1.46,1.39,1.39,0,0,0,2.07,0,5.35,5.35,0,0,0,0-7.25,1.4,1.4,0,0,0-2.08.06Z"/><path class="cls-3" d="M52.81,9.43h0A1.13,1.13,0,0,0,53,11,7.65,7.65,0,0,1,53,22.8a1.12,1.12,0,0,0-.15,1.58h0a1.42,1.42,0,0,0,2,.14,10.12,10.12,0,0,0,3.56-7.64,10.12,10.12,0,0,0-3.64-7.61,1.41,1.41,0,0,0-2,.16Z"/><path class="cls-3" d="M56,5.58h0a1.1,1.1,0,0,0,.19,1.6,12.45,12.45,0,0,1,4.91,9.7,12.45,12.45,0,0,1-4.82,9.76,1.11,1.11,0,0,0-.18,1.6h0a1.42,1.42,0,0,0,1.93.18,14.75,14.75,0,0,0,5.71-11.55A14.79,14.79,0,0,0,57.87,5.38,1.4,1.4,0,0,0,56,5.58Z"/><path class="cls-4" d="M44.47,30.28,32.41,21.89v3.29l12.06,8.4A1,1,0,0,0,46,32.75V29.46A1,1,0,0,1,44.47,30.28Z"/><path class="cls-5" d="M32.41,25.18h-8.7a2.53,2.53,0,0,1-2.54-2.54V11.11a2.54,2.54,0,0,1,2.54-2.54h8.7Z"/><path class="cls-6" d="M21.17,19.35v3.29a2.53,2.53,0,0,0,2.54,2.54h8.7V21.89h-8.7A2.54,2.54,0,0,1,21.17,19.35Z"/><rect class="cls-7" width="595.28" height="18"/></g></g></svg>