<svg xmlns="http://www.w3.org/2000/svg" viewBox="0 0 595.28 29"><defs><style>.cls-1{fill:#483d86;}.cls-2{fill:#5c4da0;}.cls-3{fill:#8d82bd;}.cls-4{isolation:isolate;}.cls-5{fill:#fff;}.cls-6{fill:none;}</style></defs><g id="Layer_2" data-name="Layer 2"><g id="Layer_1-2" data-name="Layer 1"><path class="cls-1" d="M1,9A8,8,0,0,1,9,1h7l6,4h3l6-4H71.5V25h-41l-6,4h-3l-6-4H9a8,8,0,0,1-8-8Z"/><path class="cls-2" d="M0,8A8,8,0,0,1,8,0h7l6,4h3l6-4H70.5V24h-41l-6,4h-3l-6-4H8a8,8,0,0,1-8-8Z"/><path class="cls-3" d="M2.34,21.66A8,8,0,0,1,0,16V8H1v8A7,7,0,0,0,3.05,21ZM1,7.53,0,7.47A8,8,0,0,1,8,0h7.17l6,4h2.7l6-4H70V1H30.15l-6,4h-3.3l-6-4H8A7,7,0,0,0,1,7.53Z"/><g class="cls-4"><path class="cls-5" d="M11.17,17.5V12.07c0-.35,0-.7,0-1.06s-.05-.71-.1-1h1.16l.13,1.55-.15.12a2.59,2.59,0,0,1,1.05-1.38,3,3,0,0,1,1.7-.47c1.81,0,2.71,1,2.71,3V17.5H16.44V12.82A2.34,2.34,0,0,0,16,11.28a1.67,1.67,0,0,0-1.32-.49,2.24,2.24,0,0,0-1.68.65,2.38,2.38,0,0,0-.63,1.74V17.5Z"/><path class="cls-5" d="M23.07,17.61a3.55,3.55,0,0,1-1.89-.49,3.24,3.24,0,0,1-1.24-1.35,4.52,4.52,0,0,1-.44-2.08,4.51,4.51,0,0,1,.44-2.07,3.3,3.3,0,0,1,1.24-1.37,3.73,3.73,0,0,1,1.89-.47,3.69,3.69,0,0,1,1.88.47,3.3,3.3,0,0,1,1.24,1.37,4.51,4.51,0,0,1,.45,2.07,4.52,4.52,0,0,1-.45,2.08A3.24,3.24,0,0,1,25,17.12,3.51,3.51,0,0,1,23.07,17.61Zm0-1a2.08,2.08,0,0,0,1.71-.74,3.34,3.34,0,0,0,.61-2.17,3.32,3.32,0,0,0-.61-2.15,2.34,2.34,0,0,0-3.43,0,3.26,3.26,0,0,0-.62,2.15,3.4,3.4,0,0,0,.6,2.17A2.15,2.15,0,0,0,23.07,16.6Z"/><path class="cls-5" d="M31.38,10.92V10h4.84v1Zm4.81,5.5v1l-.5.11a4.58,4.58,0,0,1-.55,0A2.26,2.26,0,0,1,33.47,17a2.35,2.35,0,0,1-.62-1.79V8l1.21-.44V15a2.11,2.11,0,0,0,.17.93,1,1,0,0,0,.48.46,1.78,1.78,0,0,0,.67.12l.41,0Z"/><path class="cls-5" d="M40.81,17.61a3.49,3.49,0,0,1-1.88-.49,3.26,3.26,0,0,1-1.25-1.35,4.65,4.65,0,0,1-.44-2.08,4.64,4.64,0,0,1,.44-2.07,3.32,3.32,0,0,1,1.25-1.37,4,4,0,0,1,3.76,0,3.32,3.32,0,0,1,1.25,1.37,4.64,4.64,0,0,1,.44,2.07,4.65,4.65,0,0,1-.44,2.08,3.26,3.26,0,0,1-1.25,1.35A3.49,3.49,0,0,1,40.81,17.61Zm0-1a2.12,2.12,0,0,0,1.72-.74,3.4,3.4,0,0,0,.61-2.17,3.32,3.32,0,0,0-.62-2.15,2.09,2.09,0,0,0-1.71-.75,2.12,2.12,0,0,0-1.72.75,3.32,3.32,0,0,0-.62,2.15,3.34,3.34,0,0,0,.61,2.17A2.11,2.11,0,0,0,40.81,16.6Z"/><path class="cls-5" d="M46.27,17.5V12.07c0-.35,0-.7,0-1.06s0-.71-.1-1H47.3l.14,1.55-.15.12a2.59,2.59,0,0,1,1.05-1.38A3,3,0,0,1,50,9.78c1.81,0,2.72,1,2.72,3V17.5H51.53V12.82a2.34,2.34,0,0,0-.42-1.54,1.67,1.67,0,0,0-1.32-.49,2.24,2.24,0,0,0-1.68.65,2.43,2.43,0,0,0-.63,1.74V17.5Z"/><path class="cls-5" d="M61.22,16.6a3.38,3.38,0,0,1-1.26.73,4.84,4.84,0,0,1-1.59.28,4.09,4.09,0,0,1-2-.47,3.19,3.19,0,0,1-1.31-1.34,4.57,4.57,0,0,1-.46-2.09A4.47,4.47,0,0,1,55,11.65a3.37,3.37,0,0,1,1.26-1.38,3.43,3.43,0,0,1,1.85-.49,3.17,3.17,0,0,1,1.72.44A2.88,2.88,0,0,1,61,11.49a4.74,4.74,0,0,1,.38,2v.23h-5.7v-.8h5l-.39.56a3.13,3.13,0,0,0-.52-2,1.92,1.92,0,0,0-1.6-.7,2.08,2.08,0,0,0-1.71.77,3.31,3.31,0,0,0-.63,2.14,3.27,3.27,0,0,0,.66,2.22,2.39,2.39,0,0,0,1.91.75,3.65,3.65,0,0,0,1.27-.22,3.92,3.92,0,0,0,1.16-.67Z"/></g><rect class="cls-6" width="595.28" height="18"/></g></g></svg>