<svg xmlns="http://www.w3.org/2000/svg" viewBox="0 0 595.28 41"><defs><style>.cls-1{fill:none;}.cls-2{fill:#483d86;}.cls-3{fill:#5c4da0;}.cls-4{fill:#8d82bd;}.cls-5{fill:#3d4986;}.cls-6{fill:#4c5ba6;}.cls-7{fill:#818dc1;}.cls-8{opacity:0.6;}.cls-9{fill:#fff;}.cls-10{isolation:isolate;}.cls-11{fill:#010101;}</style></defs><g id="Layer_2" data-name="Layer 2"><g id="Layer_1-2" data-name="Layer 1"><rect class="cls-1" width="595.28" height="18"/><path class="cls-2" d="M1,9A8,8,0,0,1,9,1h7l6,4h3l6-4H185.83V37H30.5l-6,4h-3l-6-4H9a8,8,0,0,1-8-8ZM175.83,6h-48.4v5c0,10-8-8-8,7.5s8-2.5,8,7.5v7h48.4Z"/><path class="cls-3" d="M0,8A8,8,0,0,1,8,0h7l6,4h3l6-4H184.83V36H29.5l-6,4h-3l-6-4H8a8,8,0,0,1-8-8ZM174.83,5h-48.4v5c0,10-8-8-8,7.5s8-2.5,8,7.5v7h48.4Z"/><path class="cls-4" d="M2.34,33.66A8,8,0,0,1,0,28V8H1V28a7,7,0,0,0,2.05,5ZM175.83,33h-48.9V32h47.9V5.5h1Zm-54.25-8.27-.49-.86,3.68-2.1.49.86ZM1,7.53,0,7.47A8,8,0,0,1,8,0h7.17l6,4h2.7l6-4H184.33V1H30.15l-6,4h-3.3l-6-4H8A7,7,0,0,0,1,7.53Z"/><path class="cls-5" d="M128.43,7h46.4V32h-46.4V27c0-10-8,8-8-7.5s8,2.5,8-7.5Z"/><path class="cls-6" d="M127.43,6h46.4V31h-46.4V26c0-10-8,8-8-7.5s8,2.5,8-7.5Z"/><path class="cls-7" d="M128.43,30.5h-1v-6h1Zm-8.34-6.37a20.9,20.9,0,0,1,0-11.26l1,.26a19.79,19.79,0,0,0,0,10.74ZM128.43,14h-1V6h45.9V7h-44.9Z"/><g class="cls-8"><rect class="cls-9" x="132.43" y="11" width="36.4" height="16" rx="4"/></g><g class="cls-10"><path class="cls-11" d="M138.68,23.5v-.93l3.73-4.14a7.53,7.53,0,0,0,1.1-1.51,3,3,0,0,0,.34-1.35,1.74,1.74,0,0,0-.51-1.36,2,2,0,0,0-1.45-.47,4.09,4.09,0,0,0-1.53.3,6.07,6.07,0,0,0-1.5.92l-.47-.94a4.63,4.63,0,0,1,1.59-1,5.5,5.5,0,0,1,1.94-.36,3.86,3.86,0,0,1,1.69.34,2.54,2.54,0,0,1,1.1,1,2.75,2.75,0,0,1,.39,1.5,4.05,4.05,0,0,1-.41,1.76,9,9,0,0,1-1.38,1.9l-3.6,3.9-.09-.61h5.93v1Z"/><path class="cls-11" d="M147.68,23.5v-.93l3.73-4.14a7.53,7.53,0,0,0,1.1-1.51,3,3,0,0,0,.34-1.35,1.74,1.74,0,0,0-.51-1.36,2,2,0,0,0-1.45-.47,4.09,4.09,0,0,0-1.53.3,6.07,6.07,0,0,0-1.5.92l-.47-.94a4.63,4.63,0,0,1,1.59-1,5.5,5.5,0,0,1,1.94-.36,3.86,3.86,0,0,1,1.69.34,2.54,2.54,0,0,1,1.1,1,2.75,2.75,0,0,1,.39,1.5,4.05,4.05,0,0,1-.41,1.76,9,9,0,0,1-1.38,1.9l-3.6,3.9-.09-.61h5.93v1Z"/><path class="cls-11" d="M159.93,23.62a3.14,3.14,0,0,1-2.78-1.39,7.14,7.14,0,0,1-1-4.07,7.23,7.23,0,0,1,.94-4.07,3.5,3.5,0,0,1,5.58,0,7.19,7.19,0,0,1,.95,4.05,7.15,7.15,0,0,1-1,4.08A3.13,3.13,0,0,1,159.93,23.62Zm0-1a2,2,0,0,0,1.88-1.08,7.07,7.07,0,0,0,.61-3.37,6.89,6.89,0,0,0-.61-3.33,2.19,2.19,0,0,0-3.76,0,6.87,6.87,0,0,0-.61,3.32,7.07,7.07,0,0,0,.61,3.37A2,2,0,0,0,159.93,22.59Z"/></g><g class="cls-10"><path class="cls-9" d="M11.17,25.74V17.07c0-.35,0-.7,0-1.06s-.05-.71-.1-1.05h1.16l.13,1.55-.12.23a2.5,2.5,0,0,1,1-1.45,2.94,2.94,0,0,1,1.75-.51,3.08,3.08,0,0,1,1.74.49,3.35,3.35,0,0,1,1.19,1.38,4.78,4.78,0,0,1,.43,2.07,4.7,4.7,0,0,1-.43,2.06,3.13,3.13,0,0,1-2.93,1.83,2.88,2.88,0,0,1-1.75-.52,2.47,2.47,0,0,1-1-1.45l.16-.15v5.25Zm3.54-4.14a2.09,2.09,0,0,0,1.71-.75A3.28,3.28,0,0,0,17,18.72a3.36,3.36,0,0,0-.62-2.15,2,2,0,0,0-1.71-.77,2.09,2.09,0,0,0-1.73.75,3.41,3.41,0,0,0-.6,2.14,3.44,3.44,0,0,0,.6,2.15A2.07,2.07,0,0,0,14.71,21.6Z"/><path class="cls-9" d="M20.17,22.5v-11h1.21v11Z"/><path class="cls-9" d="M26.63,22.61a3.23,3.23,0,0,1-1.76-.48,3.11,3.11,0,0,1-1.17-1.35,4.85,4.85,0,0,1-.41-2.06,4.78,4.78,0,0,1,.42-2.07,3.26,3.26,0,0,1,1.18-1.38,3.08,3.08,0,0,1,1.74-.49,3,3,0,0,1,1.76.51,2.5,2.5,0,0,1,1,1.45l-.17.12V15h1.19V22.5H29.19V20.55l.17.09a2.47,2.47,0,0,1-1,1.45A2.91,2.91,0,0,1,26.63,22.61Zm.25-1a2.07,2.07,0,0,0,1.71-.76,3.44,3.44,0,0,0,.6-2.15,3.35,3.35,0,0,0-.61-2.14,2.33,2.33,0,0,0-3.44,0,3.36,3.36,0,0,0-.62,2.15,3.28,3.28,0,0,0,.62,2.13A2.14,2.14,0,0,0,26.88,21.6Z"/><path class="cls-9" d="M35.14,22.89,31.75,15H33l2.72,6.66Zm-2.76,3L32.13,25a7.18,7.18,0,0,0,1.16-.38,2.43,2.43,0,0,0,.79-.57,3,3,0,0,0,.57-.91L35.13,22l.27-.37L38.15,15h1.22l-3.53,8.23a5.15,5.15,0,0,1-.91,1.46,3.44,3.44,0,0,1-1.15.84A6.37,6.37,0,0,1,32.38,25.91Z"/><path class="cls-9" d="M43.55,15.92V15h4.53v1Zm4.74-3.35a2.85,2.85,0,0,0-.78-.12,1.54,1.54,0,0,0-.65.13.93.93,0,0,0-.46.46,2.06,2.06,0,0,0-.16.91V22.5H45V13.8a2.45,2.45,0,0,1,.6-1.81,2.27,2.27,0,0,1,1.65-.59l.51,0a3.1,3.1,0,0,1,.51.11Z"/><path class="cls-9" d="M49.67,22.5V17.07c0-.35,0-.7,0-1.06a9.1,9.1,0,0,0-.1-1.05h1.16l.16,1.86-.16-.05a2.32,2.32,0,0,1,.91-1.49,2.55,2.55,0,0,1,1.56-.5,2.17,2.17,0,0,1,.37,0,1.5,1.5,0,0,1,.32.07l0,1.1a2.69,2.69,0,0,0-.79-.11,2.06,2.06,0,0,0-1.25.34,1.92,1.92,0,0,0-.69.88,2.8,2.8,0,0,0-.22,1.12v4.3Z"/><path class="cls-9" d="M61.13,21.6a3.53,3.53,0,0,1-1.26.74,5.1,5.1,0,0,1-1.59.27,4.09,4.09,0,0,1-2-.47A3.19,3.19,0,0,1,55,20.8a4.57,4.57,0,0,1-.46-2.09A4.47,4.47,0,0,1,55,16.65a3.37,3.37,0,0,1,1.26-1.38,3.43,3.43,0,0,1,1.85-.49,3.17,3.17,0,0,1,1.72.44,2.88,2.88,0,0,1,1.11,1.27,4.74,4.74,0,0,1,.38,2v.23h-5.7v-.8h5l-.39.56a3.13,3.13,0,0,0-.52-2,1.92,1.92,0,0,0-1.6-.7,2.08,2.08,0,0,0-1.71.77,3.31,3.31,0,0,0-.63,2.14,3.27,3.27,0,0,0,.66,2.22,2.39,2.39,0,0,0,1.91.75,3.65,3.65,0,0,0,1.27-.22,3.92,3.92,0,0,0,1.16-.67Z"/><path class="cls-9" d="M69.76,25.74H68.54V20.49l.2.15a2.48,2.48,0,0,1-1,1.45,2.88,2.88,0,0,1-1.75.52,3.2,3.2,0,0,1-1.76-.48,3,3,0,0,1-1.17-1.35,4.7,4.7,0,0,1-.42-2.06,4.78,4.78,0,0,1,.42-2.07,3.33,3.33,0,0,1,1.18-1.38A3.14,3.14,0,0,1,66,14.78a2.94,2.94,0,0,1,1.75.51,2.51,2.51,0,0,1,1,1.45l-.15-.23L68.75,15h1.13c0,.34-.07.7-.09,1.05s0,.71,0,1.06ZM66.25,21.6A2,2,0,0,0,68,20.84a3.38,3.38,0,0,0,.6-2.15A3.29,3.29,0,0,0,68,16.55a2.32,2.32,0,0,0-3.43,0,3.3,3.3,0,0,0-.63,2.15,3.22,3.22,0,0,0,.63,2.13A2.12,2.12,0,0,0,66.25,21.6Z"/><path class="cls-9" d="M74.78,22.61a2.61,2.61,0,0,1-2-.75,3.23,3.23,0,0,1-.68-2.23V15h1.21v4.65a2.24,2.24,0,0,0,.42,1.5,1.65,1.65,0,0,0,1.28.48,2.14,2.14,0,0,0,1.62-.65,2.41,2.41,0,0,0,.61-1.73V15h1.22V22.5H77.24V20.87l.18-.09a2.48,2.48,0,0,1-1,1.36A2.91,2.91,0,0,1,74.78,22.61Z"/><path class="cls-9" d="M87,21.6a3.49,3.49,0,0,1-1.27.74,5,5,0,0,1-1.58.27,4.16,4.16,0,0,1-2-.47,3.17,3.17,0,0,1-1.3-1.34,4.44,4.44,0,0,1-.46-2.09,4.47,4.47,0,0,1,.45-2.06A3.41,3.41,0,0,1,82,15.27a3.46,3.46,0,0,1,1.85-.49,3.2,3.2,0,0,1,1.73.44,2.8,2.8,0,0,1,1.1,1.27,4.59,4.59,0,0,1,.38,2v.23h-5.7v-.8h5l-.39.56a3.19,3.19,0,0,0-.51-2,1.94,1.94,0,0,0-1.6-.7,2.11,2.11,0,0,0-1.72.77,3.36,3.36,0,0,0-.62,2.14,3.32,3.32,0,0,0,.65,2.22,2.4,2.4,0,0,0,1.91.75,3.61,3.61,0,0,0,1.27-.22,3.8,3.8,0,0,0,1.16-.67Z"/><path class="cls-9" d="M88.93,22.5V17.07c0-.35,0-.7,0-1.06s0-.71-.1-1.05H90l.14,1.55-.15.12a2.59,2.59,0,0,1,1-1.38,3,3,0,0,1,1.69-.47c1.81,0,2.72,1,2.72,3V22.5H94.19V17.82a2.34,2.34,0,0,0-.42-1.54,1.67,1.67,0,0,0-1.32-.48,2.24,2.24,0,0,0-1.68.64,2.38,2.38,0,0,0-.63,1.74V22.5Z"/><path class="cls-9" d="M100.87,22.61A3.7,3.7,0,0,1,99,22.13a3.26,3.26,0,0,1-1.25-1.35,4.44,4.44,0,0,1-.45-2.06,4.5,4.5,0,0,1,.45-2.06A3.31,3.31,0,0,1,99,15.27a3.72,3.72,0,0,1,2-.49,4.16,4.16,0,0,1,1.48.26,3.27,3.27,0,0,1,1.17.72l-.4.91a4.73,4.73,0,0,0-1.09-.66,3,3,0,0,0-1.1-.21,2.28,2.28,0,0,0-1.81.76,3.21,3.21,0,0,0-.67,2.16,3.12,3.12,0,0,0,.66,2.13,2.3,2.3,0,0,0,1.82.75,2.79,2.79,0,0,0,1.09-.22,4.4,4.4,0,0,0,1.1-.65l.4.9a3.38,3.38,0,0,1-1.2.71A4.33,4.33,0,0,1,100.87,22.61Z"/><path class="cls-9" d="M107.53,22.89,104.14,15h1.27l2.73,6.66Zm-2.76,3-.26-.95a7,7,0,0,0,1.17-.38,2.43,2.43,0,0,0,.79-.57,2.83,2.83,0,0,0,.56-.91l.48-1.11.27-.37L110.54,15h1.22l-3.53,8.23a5.15,5.15,0,0,1-.91,1.46,3.44,3.44,0,0,1-1.15.84A6.37,6.37,0,0,1,104.77,25.91Z"/></g></g></g></svg>