<svg xmlns="http://www.w3.org/2000/svg" viewBox="0 0 595.39 26"><defs><style>.cls-1{fill:none;}.cls-2{fill:#298c50;}.cls-3{fill:#32af63;}.cls-4{fill:#73c593;}.cls-5{isolation:isolate;}.cls-6{fill:#fff;}</style></defs><g id="Layer_2" data-name="Layer 2"><g id="Layer_1-2" data-name="Layer 1"><rect class="cls-1" x="0.12" width="595.28" height="18"/><path class="cls-2" d="M9.12,1H159.73V26H9.12V21c0-10-8,8-8-7.5s8,2.5,8-7.5Z"/><path class="cls-3" d="M8.12,0H158.73V25H8.12V20c0-10-8,8-8-7.5s8,2.5,8-7.5Z"/><path class="cls-4" d="M9.12,24.5h-1v-6h1ZM.77,18.13a20.9,20.9,0,0,1,0-11.26l1,.26a19.79,19.79,0,0,0,0,10.74ZM9.12,8h-1V0H158.23V1H9.12Z"/><g class="cls-5"><path class="cls-6" d="M22.6,20.85a5.53,5.53,0,0,1-3-.78l.21-1a6,6,0,0,0,1.34.58,5.15,5.15,0,0,0,1.42.18,2.16,2.16,0,0,0,1.64-.58,2.35,2.35,0,0,0,.57-1.72v-2l.16-.2a2.82,2.82,0,0,1-.56,1,2.56,2.56,0,0,1-.94.68,3.15,3.15,0,0,1-1.26.24,3.18,3.18,0,0,1-2.95-1.78,4.36,4.36,0,0,1-.42-2,4.32,4.32,0,0,1,.42-2,3.21,3.21,0,0,1,2.95-1.79,3,3,0,0,1,1.78.52,2.58,2.58,0,0,1,1,1.45l-.18-.16V10H26v7.49A3.42,3.42,0,0,1,25.14,20,3.45,3.45,0,0,1,22.6,20.85Zm-.15-4.59a2.17,2.17,0,0,0,1.72-.73,3,3,0,0,0,.62-2,3,3,0,0,0-.62-2,2.17,2.17,0,0,0-1.72-.73,2.23,2.23,0,0,0-1.75.73,3,3,0,0,0-.63,2,3,3,0,0,0,.63,2A2.23,2.23,0,0,0,22.45,16.26Z"/><path class="cls-6" d="M34.53,16.6a3.58,3.58,0,0,1-1.27.74,5,5,0,0,1-1.58.26,4.13,4.13,0,0,1-2-.46,3.19,3.19,0,0,1-1.31-1.34,4.58,4.58,0,0,1-.45-2.1,4.48,4.48,0,0,1,.45-2,3.34,3.34,0,0,1,1.25-1.38,3.44,3.44,0,0,1,1.85-.5,3.21,3.21,0,0,1,1.73.45,2.81,2.81,0,0,1,1.1,1.27,4.68,4.68,0,0,1,.38,2v.23H29v-.8h5l-.39.56a3.08,3.08,0,0,0-.52-2,1.86,1.86,0,0,0-1.59-.71,2.1,2.1,0,0,0-1.72.77,3.31,3.31,0,0,0-.62,2.14,3.27,3.27,0,0,0,.65,2.22,2.39,2.39,0,0,0,1.91.75A3.65,3.65,0,0,0,33,16.38a3.92,3.92,0,0,0,1.16-.67Z"/><path class="cls-6" d="M35.4,10.92V10h4.84v1Zm4.81,5.5v1a3.29,3.29,0,0,1-.5.12,4.68,4.68,0,0,1-.55,0A2.29,2.29,0,0,1,37.49,17a2.4,2.4,0,0,1-.62-1.81V8l1.21-.43V15a2.11,2.11,0,0,0,.17.93,1,1,0,0,0,.48.46,1.78,1.78,0,0,0,.67.12,2.54,2.54,0,0,0,.41,0A1.79,1.79,0,0,0,40.21,16.42Z"/><path class="cls-6" d="M45.63,17.5v-11h1.21v5.43l-.16-.15a2.56,2.56,0,0,1,1-1.45,2.94,2.94,0,0,1,1.74-.52,3.13,3.13,0,0,1,1.76.49,3.19,3.19,0,0,1,1.17,1.34,4.57,4.57,0,0,1,.43,2.06,4.71,4.71,0,0,1-.43,2.08,3.33,3.33,0,0,1-1.18,1.38,3.22,3.22,0,0,1-1.75.48,3,3,0,0,1-1.74-.5,2.52,2.52,0,0,1-1-1.46l.16-.17v2Zm3.54-.9a2.08,2.08,0,0,0,1.71-.77,3.42,3.42,0,0,0,.61-2.17,3.26,3.26,0,0,0-.61-2.12,2.34,2.34,0,0,0-3.44,0,3.38,3.38,0,0,0-.6,2.14,3.38,3.38,0,0,0,.6,2.15A2.07,2.07,0,0,0,49.17,16.6Z"/><path class="cls-6" d="M57.52,17.6a3.2,3.2,0,0,1-1.76-.47,3,3,0,0,1-1.17-1.35,4.71,4.71,0,0,1-.41-2.06,4.78,4.78,0,0,1,.42-2.07,3.31,3.31,0,0,1,1.17-1.38,3.15,3.15,0,0,1,1.75-.5,3,3,0,0,1,1.76.51,2.52,2.52,0,0,1,1,1.46l-.18.12V10h1.2V17.5h-1.2V15.55l.18.09a2.52,2.52,0,0,1-1,1.46A3,3,0,0,1,57.52,17.6Zm.24-1a2,2,0,0,0,1.71-.76,3.38,3.38,0,0,0,.6-2.15,3.32,3.32,0,0,0-.61-2.15,2.06,2.06,0,0,0-1.7-.75,2.08,2.08,0,0,0-1.73.78,3.3,3.3,0,0,0-.62,2.15A3.22,3.22,0,0,0,56,15.85,2.12,2.12,0,0,0,57.76,16.6Z"/><path class="cls-6" d="M62.56,10.92V10h4.85v1Zm4.82,5.5v1a3.14,3.14,0,0,1-.51.12,4.39,4.39,0,0,1-.54,0A2.33,2.33,0,0,1,64.65,17,2.43,2.43,0,0,1,64,15.2V8l1.22-.43V15a2,2,0,0,0,.17.93,1,1,0,0,0,.47.46,1.83,1.83,0,0,0,.68.12,2.41,2.41,0,0,0,.4,0A1.87,1.87,0,0,0,67.38,16.42Z"/><path class="cls-6" d="M67.86,10.92V10H72.7v1Zm4.81,5.5v1a3.29,3.29,0,0,1-.5.12,4.68,4.68,0,0,1-.55,0A2.29,2.29,0,0,1,70,17a2.4,2.4,0,0,1-.62-1.81V8l1.21-.43V15a2.11,2.11,0,0,0,.17.93,1,1,0,0,0,.48.46,1.78,1.78,0,0,0,.67.12,2.54,2.54,0,0,0,.41,0A1.79,1.79,0,0,0,72.67,16.42Z"/><path class="cls-6" d="M80.35,16.6a3.49,3.49,0,0,1-1.27.74,5,5,0,0,1-1.58.26,4.16,4.16,0,0,1-2-.46,3.17,3.17,0,0,1-1.3-1.34,4.46,4.46,0,0,1-.46-2.1,4.48,4.48,0,0,1,.45-2,3.41,3.41,0,0,1,1.25-1.38,3.5,3.5,0,0,1,1.86-.5,3.17,3.17,0,0,1,1.72.45,2.75,2.75,0,0,1,1.1,1.27,4.52,4.52,0,0,1,.39,2v.23h-5.7v-.8h5l-.39.56a3.14,3.14,0,0,0-.52-2,1.89,1.89,0,0,0-1.6-.71,2.11,2.11,0,0,0-1.72.77A3.36,3.36,0,0,0,75,13.63a3.32,3.32,0,0,0,.65,2.22,2.42,2.42,0,0,0,1.92.75,3.56,3.56,0,0,0,1.26-.22A3.84,3.84,0,0,0,80,15.71Z"/><path class="cls-6" d="M82.33,17.5V12.07c0-.35,0-.7,0-1.06s0-.71-.1-1.06h1.16l.16,1.87-.16-.05a2.35,2.35,0,0,1,.9-1.49,2.61,2.61,0,0,1,1.57-.51,2.22,2.22,0,0,1,.37,0,3,3,0,0,1,.32.06l0,1.11a2.68,2.68,0,0,0-.79-.12,2.11,2.11,0,0,0-1.26.35,2.06,2.06,0,0,0-.69.88,3,3,0,0,0-.21,1.11V17.5Z"/><path class="cls-6" d="M90.61,17.89,87.22,10H88.5l2.73,6.66Zm-2.76,3L87.6,20a6.86,6.86,0,0,0,1.16-.38,2.43,2.43,0,0,0,.79-.57,3,3,0,0,0,.57-.91L90.6,17l.27-.38L93.63,10h1.21l-3.52,8.24a5.16,5.16,0,0,1-.92,1.46,3.59,3.59,0,0,1-1.15.84A5.87,5.87,0,0,1,87.85,20.91Z"/><path class="cls-6" d="M100.09,17.5v-11h1.22v11Z"/><path class="cls-6" d="M109.84,16.6a3.49,3.49,0,0,1-1.27.74,5,5,0,0,1-1.58.26,4.16,4.16,0,0,1-2-.46,3.17,3.17,0,0,1-1.3-1.34,4.46,4.46,0,0,1-.46-2.1,4.48,4.48,0,0,1,.45-2,3.41,3.41,0,0,1,1.25-1.38,3.5,3.5,0,0,1,1.86-.5,3.17,3.17,0,0,1,1.72.45,2.75,2.75,0,0,1,1.1,1.27,4.52,4.52,0,0,1,.39,2v.23h-5.7v-.8h5l-.39.56a3.14,3.14,0,0,0-.52-2,1.89,1.89,0,0,0-1.6-.71,2.11,2.11,0,0,0-1.72.77,3.36,3.36,0,0,0-.62,2.14,3.32,3.32,0,0,0,.65,2.22,2.42,2.42,0,0,0,1.92.75,3.56,3.56,0,0,0,1.26-.22,3.84,3.84,0,0,0,1.17-.67Z"/><path class="cls-6" d="M114,17.5,110.74,10H112l2.73,6.64h-.36L117.15,10h1.21l-3.25,7.53Z"/><path class="cls-6" d="M125.79,16.6a3.58,3.58,0,0,1-1.27.74,5,5,0,0,1-1.58.26,4.13,4.13,0,0,1-2-.46,3.19,3.19,0,0,1-1.31-1.34,4.58,4.58,0,0,1-.45-2.1,4.48,4.48,0,0,1,.45-2,3.34,3.34,0,0,1,1.25-1.38,3.44,3.44,0,0,1,1.85-.5,3.21,3.21,0,0,1,1.73.45,2.81,2.81,0,0,1,1.1,1.27,4.68,4.68,0,0,1,.38,2v.23h-5.7v-.8h5l-.39.56a3.08,3.08,0,0,0-.52-2,1.86,1.86,0,0,0-1.59-.71,2.1,2.1,0,0,0-1.72.77,3.31,3.31,0,0,0-.62,2.14,3.27,3.27,0,0,0,.65,2.22,2.39,2.39,0,0,0,1.91.75,3.65,3.65,0,0,0,1.27-.22,3.92,3.92,0,0,0,1.16-.67Z"/><path class="cls-6" d="M127.77,17.5v-11H129v11Z"/><path class="cls-6" d="M137.35,20.23a15.19,15.19,0,0,1-1-2.27,13.73,13.73,0,0,1-.55-2.21,15,15,0,0,1-.17-2.24,14,14,0,0,1,1.71-6.69h1a22.54,22.54,0,0,0-.88,2.46,15.38,15.38,0,0,0-.45,6.29,15.81,15.81,0,0,0,.45,2.19,23.91,23.91,0,0,0,.87,2.47Z"/><path class="cls-6" d="M144,17.5,139.32,6.82h1.3l4.16,9.69h-.5l4.17-9.69h1.28L145.06,17.5Z"/><path class="cls-6" d="M151.68,20.23h-1a20,20,0,0,0,.87-2.47,16,16,0,0,0,.59-4.25,15.82,15.82,0,0,0-.59-4.23,20.45,20.45,0,0,0-.87-2.46h1a14.9,14.9,0,0,1,1.3,3.35,14.46,14.46,0,0,1,.4,3.34,14.19,14.19,0,0,1-.72,4.45A15.19,15.19,0,0,1,151.68,20.23Z"/></g></g></g></svg>