<svg xmlns="http://www.w3.org/2000/svg" viewBox="0 0 595.28 42.52"><defs><style>.cls-1{fill:#231f20;}.cls-2{fill:#bababa;}.cls-2,.cls-3,.cls-4,.cls-5,.cls-7,.cls-8{fill-rule:evenodd;}.cls-3{fill:#626e80;}.cls-4{fill:#414d63;}.cls-5{fill:#9b9a9a;}.cls-6{fill:#e6e6e5;}.cls-7{fill:#32af63;}.cls-8{fill:#289b50;}.cls-9{fill:none;}</style></defs><g id="Layer_2" data-name="Layer 2"><g id="Layer_1-2" data-name="Layer 1"><path class="cls-1" d="M85.23,33.79V8.16H96.5a9.92,9.92,0,0,1,6.21,1.76A5.88,5.88,0,0,1,105,14.85a5.92,5.92,0,0,1-1.18,3.71,6.26,6.26,0,0,1-3.35,2.16v-.29a6.5,6.5,0,0,1,3.83,2.2,6.37,6.37,0,0,1,1.35,4.17,6.18,6.18,0,0,1-2.32,5.13,10.14,10.14,0,0,1-6.5,1.86ZM89.77,19h5.94a6.08,6.08,0,0,0,3.67-.9,3.18,3.18,0,0,0,1.19-2.7,3.11,3.11,0,0,0-1.19-2.7,6.24,6.24,0,0,0-3.67-.87H89.77Zm0,11.19h6.59a6.21,6.21,0,0,0,3.72-.88,3.35,3.35,0,0,0,1.17-2.86,3.41,3.41,0,0,0-1.19-2.88,5.92,5.92,0,0,0-3.7-.94H89.77Z"/><path class="cls-1" d="M116.8,34a7.89,7.89,0,0,1-4.21-1.13,7.47,7.47,0,0,1-2.83-3.24,11.57,11.57,0,0,1-1-5,11.76,11.76,0,0,1,1-5,8,8,0,0,1,2.83-3.34,7.36,7.36,0,0,1,4.19-1.21,7.15,7.15,0,0,1,4,1.13,5.65,5.65,0,0,1,2.32,3.15l-.43.26V15.61h4.42V33.79h-4.42V29.68l.43.15a5.46,5.46,0,0,1-2.32,3.11A7.29,7.29,0,0,1,116.8,34ZM118,30.58A4.14,4.14,0,0,0,121.48,29a6.94,6.94,0,0,0,1.23-4.4,7,7,0,0,0-1.23-4.44A4.16,4.16,0,0,0,118,18.67a4.26,4.26,0,0,0-3.53,1.58,7,7,0,0,0-1.26,4.47,6.63,6.63,0,0,0,1.26,4.33A4.31,4.31,0,0,0,118,30.58Z"/><path class="cls-1" d="M129.76,19V15.61h12.82V19ZM142.58,30v3.57a7,7,0,0,1-1.42.34,11.86,11.86,0,0,1-1.5.09,6.28,6.28,0,0,1-4.73-1.73,6.84,6.84,0,0,1-1.68-5V11.18l4.5-1.51V27.13a4,4,0,0,0,.4,1.92,2.2,2.2,0,0,0,1.06,1,3.62,3.62,0,0,0,1.5.29,5.29,5.29,0,0,0,.9-.07C141.89,30.21,142.22,30.14,142.58,30Z"/><path class="cls-1" d="M143.12,19V15.61h12.81V19ZM155.93,30v3.57a6.81,6.81,0,0,1-1.42.34A11.7,11.7,0,0,1,153,34a6.32,6.32,0,0,1-4.74-1.73,6.88,6.88,0,0,1-1.67-5V11.18l4.5-1.51V27.13a3.84,3.84,0,0,0,.4,1.92,2.16,2.16,0,0,0,1.06,1,3.57,3.57,0,0,0,1.49.29,5.29,5.29,0,0,0,.9-.07A9.88,9.88,0,0,0,155.93,30Z"/><path class="cls-1" d="M174.62,31.77a9.39,9.39,0,0,1-3.19,1.68,12.91,12.91,0,0,1-3.83.59,10.84,10.84,0,0,1-5.1-1.12,7.73,7.73,0,0,1-3.29-3.24,10.37,10.37,0,0,1-1.15-5,10.62,10.62,0,0,1,1.11-4.95,8.4,8.4,0,0,1,3.1-3.34,8.55,8.55,0,0,1,4.57-1.21,8.16,8.16,0,0,1,4.32,1.1A7.28,7.28,0,0,1,174,19.39a11.09,11.09,0,0,1,1,4.86v.68H162l0-2.41h10.23l-1.23,1.22a6.21,6.21,0,0,0-1-4A3.68,3.68,0,0,0,167,18.38a4,4,0,0,0-3.35,1.53,7,7,0,0,0-1.19,4.37,7.13,7.13,0,0,0,1.34,4.77,5,5,0,0,0,4,1.53,9,9,0,0,0,2.9-.48,9.51,9.51,0,0,0,2.64-1.42Z"/><path class="cls-1" d="M178.72,33.79v-13c0-.84,0-1.7-.05-2.58s-.12-1.73-.24-2.57h4.25l.51,4.68-.51-.25a5.63,5.63,0,0,1,2.13-3.64,6.1,6.1,0,0,1,3.74-1.22,6.5,6.5,0,0,1,1,.07,4.37,4.37,0,0,1,.83.21l-.08,4.11a6.07,6.07,0,0,0-2.37-.47,4.93,4.93,0,0,0-2.65.65,4.14,4.14,0,0,0-1.55,1.74,5.84,5.84,0,0,0-.52,2.47v9.83Z"/><path class="cls-1" d="M199.82,35l-8.39-19.37h4.72l5.72,14.25Zm-6.3,7-1-3.46a15.38,15.38,0,0,0,2.81-.84,5.94,5.94,0,0,0,1.85-1.24,6.28,6.28,0,0,0,1.24-2l1.3-2.95,1.15-1.66,5.83-14.25h4.47L202.73,35a12.81,12.81,0,0,1-2.41,3.8A9.16,9.16,0,0,1,197.24,41,15,15,0,0,1,193.52,42Z"/><path class="cls-2" d="M44.1,0H40.56a1.18,1.18,0,0,0-1.18,1.18V2.52L42.26,4l3-1.46V1.18A1.18,1.18,0,0,0,44.1,0Z"/><path class="cls-3" d="M34.55,2.52H50.3a2.07,2.07,0,0,1,2.07,2.07V40.45a2.07,2.07,0,0,1-2.07,2.07H34.55a2.07,2.07,0,0,1-2.07-2.07V4.59A2.07,2.07,0,0,1,34.55,2.52Z"/><path class="cls-4" d="M34.49,40.45V4.59a2.07,2.07,0,0,1,2.07-2.07h-2a2.07,2.07,0,0,0-2.07,2.07V40.45a2.07,2.07,0,0,0,2.07,2.07h2A2.07,2.07,0,0,1,34.49,40.45Z"/><path class="cls-5" d="M40.88,1.18A1.19,1.19,0,0,1,42.07,0H40.56a1.18,1.18,0,0,0-1.18,1.18V2.52h1.5Z"/><path class="cls-6" d="M44,6.29H43.1V5.38a.68.68,0,0,0-1.35,0v.91h-.91a.68.68,0,0,0-.67.68.67.67,0,0,0,.67.67h.91v.92a.68.68,0,0,0,1.35,0V7.64H44A.67.67,0,0,0,44.68,7,.68.68,0,0,0,44,6.29Z"/><path class="cls-6" d="M44.12,40.24H41a.68.68,0,1,1,0-1.35h3.16a.68.68,0,1,1,0,1.35Z"/><path class="cls-7" d="M48.26,19.31H36.59a.91.91,0,0,0-.9.9v4.61a.9.9,0,0,0,.9.9H48.26a.9.9,0,0,0,.9-.9V20.21A.91.91,0,0,0,48.26,19.31Z"/><path class="cls-8" d="M38,24.82V20.21a.9.9,0,0,1,.9-.9H36.59a.9.9,0,0,0-.89.9v4.61a.89.89,0,0,0,.89.9h2.26A.9.9,0,0,1,38,24.82Z"/><path class="cls-7" d="M48.26,11.31H36.59a.91.91,0,0,0-.9.9v4.61a.9.9,0,0,0,.9.9H48.26a.9.9,0,0,0,.9-.9V12.21A.91.91,0,0,0,48.26,11.31Z"/><path class="cls-8" d="M38,16.82V12.21a.9.9,0,0,1,.9-.9H36.59a.9.9,0,0,0-.89.9v4.61a.89.89,0,0,0,.89.9h2.26A.9.9,0,0,1,38,16.82Z"/><path class="cls-7" d="M48.26,27.31H36.59a.91.91,0,0,0-.9.9v4.61a.9.9,0,0,0,.9.9H48.26a.9.9,0,0,0,.9-.9V28.21A.91.91,0,0,0,48.26,27.31Z"/><path class="cls-8" d="M38,32.82V28.21a.9.9,0,0,1,.9-.9H36.59a.9.9,0,0,0-.89.9v4.61a.89.89,0,0,0,.89.9h2.26A.9.9,0,0,1,38,32.82Z"/><rect class="cls-9" width="595.28" height="18"/></g></g></svg>