<svg xmlns="http://www.w3.org/2000/svg" viewBox="0 0 595.28 86.13"><defs><style>.cls-1{fill:none;}.cls-2{fill:#8e4582;}.cls-3{fill:#b056a1;}.cls-4{fill:#c788bb;}.cls-5{isolation:isolate;}.cls-6{fill:#fff;}.cls-7{opacity:0.6;}.cls-8{fill:#010101;}.cls-9{fill:#dab4d4;}</style></defs><g id="Layer_2" data-name="Layer 2"><g id="Layer_1-2" data-name="Layer 1"><rect class="cls-1" width="595.28" height="18"/><path class="cls-2" d="M1,9A8,8,0,0,1,9,1h7l6,4h3l6-4H262V26H30.5l-6,4h-3l-6-4H9a8,8,0,0,1-8-8Z"/><path class="cls-3" d="M0,8A8,8,0,0,1,8,0h7l6,4h3l6-4H261V25H29.5l-6,4h-3l-6-4H8a8,8,0,0,1-8-8Z"/><path class="cls-4" d="M2.34,22.66A8,8,0,0,1,0,17V8H1v9A7,7,0,0,0,3.05,22ZM1,7.53,0,7.47A8,8,0,0,1,8,0h7.17l6,4h2.7l6-4H260.47V1H30.15l-6,4h-3.3l-6-4H8A7,7,0,0,0,1,7.53Z"/><g class="cls-5"><path class="cls-6" d="M11.32,17.5V6.82h4.29a4,4,0,0,1,2.54.73,2.5,2.5,0,0,1,.91,2.06,2.5,2.5,0,0,1-.5,1.57,2.77,2.77,0,0,1-1.39.9V12a2.52,2.52,0,0,1,2.15,2.63,2.62,2.62,0,0,1-.94,2.16,4.07,4.07,0,0,1-2.62.75Zm1.22-5.94h2.88a2.91,2.91,0,0,0,1.82-.48,1.7,1.7,0,0,0,.61-1.41,1.61,1.61,0,0,0-.6-1.37,3,3,0,0,0-1.83-.46H12.54Zm0,4.92h3.11A3,3,0,0,0,17.51,16a1.74,1.74,0,0,0,.59-1.45,1.8,1.8,0,0,0-.6-1.47,2.88,2.88,0,0,0-1.85-.5H12.54Z"/><path class="cls-6" d="M21.38,17.5v-11H22.6v11Z"/><path class="cls-6" d="M27.62,17.6a2.61,2.61,0,0,1-2-.75,3.22,3.22,0,0,1-.68-2.22V10h1.21V14.6a2.24,2.24,0,0,0,.42,1.5,1.62,1.62,0,0,0,1.28.48,2.13,2.13,0,0,0,1.62-.64,2.41,2.41,0,0,0,.61-1.73V10h1.22V17.5H30.08V15.86l.18-.09a2.5,2.5,0,0,1-1,1.37A2.9,2.9,0,0,1,27.62,17.6Z"/><path class="cls-6" d="M39.79,16.6a3.48,3.48,0,0,1-1.27.73,4.73,4.73,0,0,1-1.58.27,4.16,4.16,0,0,1-2-.46,3.17,3.17,0,0,1-1.3-1.34,4.46,4.46,0,0,1-.46-2.1,4.45,4.45,0,0,1,.45-2,3.41,3.41,0,0,1,1.25-1.38,3.46,3.46,0,0,1,1.85-.5,3.21,3.21,0,0,1,1.73.45,2.77,2.77,0,0,1,1.1,1.26,4.6,4.6,0,0,1,.38,2v.23H34.23v-.8h5l-.39.56a3.17,3.17,0,0,0-.51-2,1.91,1.91,0,0,0-1.6-.7,2.11,2.11,0,0,0-1.72.77,3.36,3.36,0,0,0-.62,2.14A3.32,3.32,0,0,0,35,15.85,2.41,2.41,0,0,0,37,16.6a3.56,3.56,0,0,0,1.26-.22,3.8,3.8,0,0,0,1.16-.67Z"/><path class="cls-6" d="M40.66,10.91V10H45.5v1Zm4.81,5.51v1a2.95,2.95,0,0,1-1,.15,2.31,2.31,0,0,1-1.67-.6,2.41,2.41,0,0,1-.62-1.8V8l1.21-.44V15a2,2,0,0,0,.18.93,1,1,0,0,0,.47.46,1.78,1.78,0,0,0,.67.12,2.54,2.54,0,0,0,.41,0A2.59,2.59,0,0,0,45.47,16.42Z"/><path class="cls-6" d="M50.09,17.6a3.6,3.6,0,0,1-1.88-.48A3.24,3.24,0,0,1,47,15.77a4.52,4.52,0,0,1-.44-2.08A4.51,4.51,0,0,1,47,11.62a3.24,3.24,0,0,1,1.24-1.37,3.6,3.6,0,0,1,1.88-.48,3.64,3.64,0,0,1,1.89.48,3.24,3.24,0,0,1,1.24,1.37,4.51,4.51,0,0,1,.44,2.07,4.52,4.52,0,0,1-.44,2.08A3.24,3.24,0,0,1,52,17.12,3.64,3.64,0,0,1,50.09,17.6Zm0-1a2.11,2.11,0,0,0,1.72-.74,3.34,3.34,0,0,0,.61-2.17,3.32,3.32,0,0,0-.62-2.15,2.32,2.32,0,0,0-3.42,0,3.26,3.26,0,0,0-.63,2.15,3.4,3.4,0,0,0,.61,2.17A2.13,2.13,0,0,0,50.09,16.6Z"/><path class="cls-6" d="M58.67,17.6a3.6,3.6,0,0,1-1.88-.48,3.24,3.24,0,0,1-1.24-1.35,4.52,4.52,0,0,1-.44-2.08,4.51,4.51,0,0,1,.44-2.07,3.24,3.24,0,0,1,1.24-1.37,3.6,3.6,0,0,1,1.88-.48,3.64,3.64,0,0,1,1.89.48,3.24,3.24,0,0,1,1.24,1.37,4.51,4.51,0,0,1,.44,2.07,4.52,4.52,0,0,1-.44,2.08,3.24,3.24,0,0,1-1.24,1.35A3.64,3.64,0,0,1,58.67,17.6Zm0-1a2.11,2.11,0,0,0,1.72-.74A3.34,3.34,0,0,0,61,13.69a3.26,3.26,0,0,0-.62-2.15,2.32,2.32,0,0,0-3.42,0,3.26,3.26,0,0,0-.62,2.15,3.4,3.4,0,0,0,.6,2.17A2.13,2.13,0,0,0,58.67,16.6Z"/><path class="cls-6" d="M63.05,10.91V10H67.9v1Zm4.82,5.51v1l-.5.12a4.68,4.68,0,0,1-.55,0,2.29,2.29,0,0,1-1.67-.6,2.37,2.37,0,0,1-.62-1.8V8l1.21-.44V15a2.11,2.11,0,0,0,.17.93,1,1,0,0,0,.47.46,1.83,1.83,0,0,0,.68.12,2.41,2.41,0,0,0,.4,0A2.69,2.69,0,0,0,67.87,16.42Z"/><path class="cls-6" d="M69.37,17.5v-11h1.21v5l-.19.15a2.55,2.55,0,0,1,1-1.38,3,3,0,0,1,1.69-.48c1.81,0,2.72,1,2.72,3V17.5H74.63V12.82a2.34,2.34,0,0,0-.42-1.54,1.67,1.67,0,0,0-1.32-.49,2.24,2.24,0,0,0-1.68.65,2.38,2.38,0,0,0-.63,1.74V17.5Z"/></g><g class="cls-7"><rect class="cls-6" x="80.47" y="5" width="103.73" height="16" rx="4"/></g><g class="cls-5"><path class="cls-8" d="M85.57,10.91V10h4.85v1Zm4.82,5.51v1a4.7,4.7,0,0,1-.51.12,4.39,4.39,0,0,1-.54,0,2.33,2.33,0,0,1-1.68-.6A2.41,2.41,0,0,1,87,15.2V8l1.22-.44V15a2,2,0,0,0,.17.93,1,1,0,0,0,.47.46,1.83,1.83,0,0,0,.68.12,2.41,2.41,0,0,0,.4,0A2.69,2.69,0,0,0,90.39,16.42Z"/><path class="cls-8" d="M91.89,17.5V12.07c0-.35,0-.7,0-1.06A9.47,9.47,0,0,0,91.77,10h1.15l.17,1.86-.17,0a2.32,2.32,0,0,1,.91-1.49,2.59,2.59,0,0,1,1.57-.51,2,2,0,0,1,.36,0,1.61,1.61,0,0,1,.33.06l0,1.11a2.45,2.45,0,0,0-.8-.12A2.06,2.06,0,0,0,94,11.2a1.92,1.92,0,0,0-.69.88,2.78,2.78,0,0,0-.22,1.11V17.5Z"/><path class="cls-8" d="M100.06,17.6a3.2,3.2,0,0,1-1.76-.47,3,3,0,0,1-1.17-1.35,4.71,4.71,0,0,1-.41-2.06,4.78,4.78,0,0,1,.42-2.07,3.31,3.31,0,0,1,1.17-1.38,3.15,3.15,0,0,1,1.75-.5,3,3,0,0,1,1.76.51,2.52,2.52,0,0,1,1,1.46l-.18.12V10h1.2V17.5h-1.2V15.55l.18.09a2.5,2.5,0,0,1-1,1.45A3,3,0,0,1,100.06,17.6Zm.24-1a2,2,0,0,0,1.71-.76,3.38,3.38,0,0,0,.6-2.15,3.32,3.32,0,0,0-.61-2.15,2.06,2.06,0,0,0-1.7-.75,2.08,2.08,0,0,0-1.73.78A3.3,3.3,0,0,0,98,13.72a3.22,3.22,0,0,0,.62,2.13A2.12,2.12,0,0,0,100.3,16.6Z"/><path class="cls-8" d="M106.17,17.5V12.07c0-.35,0-.7,0-1.06a9.47,9.47,0,0,0-.09-1.06h1.15l.14,1.56-.15.12a2.55,2.55,0,0,1,1-1.38,3,3,0,0,1,1.69-.48c1.81,0,2.72,1,2.72,3V17.5h-1.22V12.82a2.34,2.34,0,0,0-.42-1.54,1.67,1.67,0,0,0-1.32-.49,2.24,2.24,0,0,0-1.68.65,2.38,2.38,0,0,0-.63,1.74V17.5Z"/><path class="cls-8" d="M117.49,17.6a4.39,4.39,0,0,1-3-1l.4-.9a4.11,4.11,0,0,0,1.24.68,4.23,4.23,0,0,0,1.42.22,2.37,2.37,0,0,0,1.29-.29,1,1,0,0,0,.45-.85.89.89,0,0,0-.3-.71,2.3,2.3,0,0,0-1-.43l-1.28-.3a2.78,2.78,0,0,1-1.46-.75,1.78,1.78,0,0,1-.52-1.29,1.93,1.93,0,0,1,.36-1.16,2.37,2.37,0,0,1,1-.79,3.76,3.76,0,0,1,1.53-.29,4.38,4.38,0,0,1,1.5.26,3.14,3.14,0,0,1,1.18.73l-.4.89A4.06,4.06,0,0,0,118.8,11a3.29,3.29,0,0,0-1.17-.22,2.17,2.17,0,0,0-1.26.32,1,1,0,0,0-.44.85,1,1,0,0,0,.28.74,1.89,1.89,0,0,0,.89.42l1.28.31a2.93,2.93,0,0,1,1.56.75,1.78,1.78,0,0,1,.51,1.31,1.85,1.85,0,0,1-.8,1.56A3.57,3.57,0,0,1,117.49,17.6Z"/><path class="cls-8" d="M125.55,17.6a3.7,3.7,0,0,1-1.92-.48,3.29,3.29,0,0,1-1.26-1.35,4.52,4.52,0,0,1-.44-2,4.5,4.5,0,0,1,.45-2.06,3.31,3.31,0,0,1,1.28-1.39,3.72,3.72,0,0,1,2-.5,4.08,4.08,0,0,1,1.47.27,3.1,3.1,0,0,1,1.18.72l-.4.9a4.89,4.89,0,0,0-1.09-.65,3,3,0,0,0-1.1-.22,2.28,2.28,0,0,0-1.81.77,3.16,3.16,0,0,0-.67,2.16,3.12,3.12,0,0,0,.66,2.13,2.3,2.3,0,0,0,1.82.75,2.79,2.79,0,0,0,1.09-.22,4.4,4.4,0,0,0,1.1-.65l.4.9a3.34,3.34,0,0,1-1.21.71A4.23,4.23,0,0,1,125.55,17.6Z"/><path class="cls-8" d="M136,16.6a3.56,3.56,0,0,1-1.27.73,4.77,4.77,0,0,1-1.58.27,4.13,4.13,0,0,1-2-.46,3.19,3.19,0,0,1-1.31-1.34,4.58,4.58,0,0,1-.45-2.1,4.45,4.45,0,0,1,.45-2,3.34,3.34,0,0,1,1.25-1.38,3.44,3.44,0,0,1,1.85-.5,3.21,3.21,0,0,1,1.73.45,2.83,2.83,0,0,1,1.1,1.26,4.76,4.76,0,0,1,.38,2v.23h-5.7v-.8h5l-.39.56a3.11,3.11,0,0,0-.52-2,1.88,1.88,0,0,0-1.59-.7,2.1,2.1,0,0,0-1.72.77,3.31,3.31,0,0,0-.62,2.14,3.27,3.27,0,0,0,.65,2.22,2.39,2.39,0,0,0,1.91.75,3.65,3.65,0,0,0,1.27-.22,3.92,3.92,0,0,0,1.16-.67Z"/><path class="cls-8" d="M137.85,6.76h1.48V8.14h-1.48ZM138,17.5V10h1.21V17.5Z"/><path class="cls-8" d="M143.76,17.5,140.55,10h1.27l2.73,6.64h-.36L147,10h1.22l-3.26,7.53Z"/><path class="cls-8" d="M155.59,16.6a3.48,3.48,0,0,1-1.27.73,4.73,4.73,0,0,1-1.58.27,4.16,4.16,0,0,1-2-.46,3.17,3.17,0,0,1-1.3-1.34,4.46,4.46,0,0,1-.46-2.1,4.45,4.45,0,0,1,.45-2,3.41,3.41,0,0,1,1.25-1.38,3.5,3.5,0,0,1,1.86-.5,3.17,3.17,0,0,1,1.72.45,2.77,2.77,0,0,1,1.1,1.26,4.6,4.6,0,0,1,.39,2v.23H150v-.8h5l-.39.56a3.17,3.17,0,0,0-.52-2,1.91,1.91,0,0,0-1.6-.7,2.11,2.11,0,0,0-1.72.77,3.36,3.36,0,0,0-.62,2.14,3.32,3.32,0,0,0,.65,2.22,2.42,2.42,0,0,0,1.92.75,3.56,3.56,0,0,0,1.26-.22,3.84,3.84,0,0,0,1.17-.67Z"/><path class="cls-8" d="M157.57,17.5V12.07c0-.35,0-.7,0-1.06s-.05-.71-.1-1.06h1.16l.16,1.86-.16,0a2.35,2.35,0,0,1,.9-1.49,2.61,2.61,0,0,1,1.57-.51,2.22,2.22,0,0,1,.37,0,1.65,1.65,0,0,1,.32.06l0,1.11a2.39,2.39,0,0,0-.79-.12,2.11,2.11,0,0,0-1.26.35,2.06,2.06,0,0,0-.69.88,3,3,0,0,0-.21,1.11V17.5Z"/></g><g class="cls-5"><path class="cls-6" d="M190.25,6.76h1.49V8.14h-1.49Zm.12,10.74V10h1.22V17.5Z"/><path class="cls-6" d="M200.59,17.5h-1.2v-2l.18.17a2.51,2.51,0,0,1-1,1.45,2.94,2.94,0,0,1-1.75.51,3.17,3.17,0,0,1-1.75-.48,3.26,3.26,0,0,1-1.18-1.38,4.86,4.86,0,0,1-.42-2.08,4.85,4.85,0,0,1,.41-2.06,3.22,3.22,0,0,1,1.17-1.35,3.26,3.26,0,0,1,1.77-.48,3,3,0,0,1,1.75.52,2.58,2.58,0,0,1,1,1.45l-.2.15V6.46h1.22Zm-3.51-.9a2.06,2.06,0,0,0,1.7-.76,3.38,3.38,0,0,0,.61-2.15,3.38,3.38,0,0,0-.6-2.14,2.08,2.08,0,0,0-1.71-.76,2.15,2.15,0,0,0-1.74.75,3.27,3.27,0,0,0-.62,2.12,3.42,3.42,0,0,0,.62,2.17A2.13,2.13,0,0,0,197.08,16.6Z"/></g><g class="cls-7"><rect class="cls-6" x="206.48" y="5" width="18.8" height="16" rx="4"/></g><g class="cls-5"><path class="cls-8" d="M216,17.62a3.15,3.15,0,0,1-2.78-1.39,7.22,7.22,0,0,1-.95-4.07,7.23,7.23,0,0,1,.94-4.07,3.5,3.5,0,0,1,5.58,0,7.17,7.17,0,0,1,.95,4.05,7.28,7.28,0,0,1-.95,4.08A3.18,3.18,0,0,1,216,17.62Zm0-1a2,2,0,0,0,1.89-1.08,7.19,7.19,0,0,0,.6-3.36,7,7,0,0,0-.6-3.33,2.21,2.21,0,0,0-3.77,0,7,7,0,0,0-.61,3.33,7.17,7.17,0,0,0,.61,3.36A2,2,0,0,0,216,16.58Z"/></g><g class="cls-5"><path class="cls-6" d="M231.33,6.76h1.49V8.14h-1.49Zm.12,10.74V10h1.22V17.5Z"/><path class="cls-6" d="M235,17.5V12.07c0-.35,0-.7,0-1.06a9.5,9.5,0,0,0-.1-1.06h1.16l.13,1.56-.15.12a2.55,2.55,0,0,1,1.05-1.38,3,3,0,0,1,1.7-.48c1.81,0,2.71,1,2.71,3V17.5h-1.21V12.82a2.34,2.34,0,0,0-.42-1.54,1.67,1.67,0,0,0-1.32-.49,2.24,2.24,0,0,0-1.68.65,2.38,2.38,0,0,0-.63,1.74V17.5Z"/><path class="cls-6" d="M243.68,6.76h1.48V8.14h-1.48Zm.12,10.74V10H245V17.5Z"/><path class="cls-6" d="M246.3,10.91V10h4.85v1Zm4.82,5.51v1l-.5.12a4.68,4.68,0,0,1-.55,0,2.29,2.29,0,0,1-1.67-.6,2.37,2.37,0,0,1-.63-1.8V8L249,7.58V15a2.11,2.11,0,0,0,.17.93,1,1,0,0,0,.47.46,1.83,1.83,0,0,0,.68.12,2.41,2.41,0,0,0,.4,0A2.69,2.69,0,0,0,251.12,16.42Z"/></g><polygon class="cls-8" points="175.22 17.31 180.2 8.69 170.24 8.69 175.22 17.31"/><rect class="cls-9" x="80.47" y="31.84" width="103.35" height="54.3" rx="5.67"/><g class="cls-5"><path class="cls-8" d="M85,38.12v-1h4.84v1Zm4.81,5.51v1l-.5.12a4.68,4.68,0,0,1-.55,0,2.29,2.29,0,0,1-1.67-.6,2.37,2.37,0,0,1-.62-1.8V35.23l1.21-.44v7.46a2.11,2.11,0,0,0,.17.93,1,1,0,0,0,.48.46,1.78,1.78,0,0,0,.67.12,2.54,2.54,0,0,0,.41,0A2.59,2.59,0,0,0,89.79,43.63Z"/><path class="cls-8" d="M91.29,44.71V39.28c0-.35,0-.7,0-1.06s0-.71-.1-1.06h1.16L92.49,39l-.16,0a2.35,2.35,0,0,1,.9-1.49A2.61,2.61,0,0,1,94.8,37a2.22,2.22,0,0,1,.37,0,1.65,1.65,0,0,1,.32.06l0,1.11a2.39,2.39,0,0,0-.79-.12,2.11,2.11,0,0,0-1.26.35,2.06,2.06,0,0,0-.69.88,3,3,0,0,0-.21,1.11v4.31Z"/><path class="cls-8" d="M99.47,44.81a3.25,3.25,0,0,1-1.77-.47A3.11,3.11,0,0,1,96.53,43a4.85,4.85,0,0,1-.41-2.06,4.78,4.78,0,0,1,.42-2.07,3.26,3.26,0,0,1,1.18-1.38,3.12,3.12,0,0,1,1.75-.5,2.94,2.94,0,0,1,1.75.51,2.54,2.54,0,0,1,1,1.46l-.18.12V37.16h1.2v7.55H102v-2l.18.09a2.51,2.51,0,0,1-1,1.45A2.94,2.94,0,0,1,99.47,44.81Zm.24-1a2,2,0,0,0,1.71-.76,3.38,3.38,0,0,0,.6-2.15,3.38,3.38,0,0,0-.61-2.15,2.07,2.07,0,0,0-1.7-.75,2.11,2.11,0,0,0-1.74.78,3.36,3.36,0,0,0-.62,2.15A3.28,3.28,0,0,0,98,43.06,2.15,2.15,0,0,0,99.71,43.81Z"/><path class="cls-8" d="M105.57,44.71V39.28c0-.35,0-.7,0-1.06s0-.71-.1-1.06h1.16l.13,1.56-.15.12a2.55,2.55,0,0,1,1-1.38,3,3,0,0,1,1.7-.48c1.81,0,2.71,1,2.71,3v4.74h-1.21V40a2.34,2.34,0,0,0-.42-1.54A1.67,1.67,0,0,0,109.1,38a2.24,2.24,0,0,0-1.68.65,2.38,2.38,0,0,0-.63,1.74v4.32Z"/><path class="cls-8" d="M116.9,44.81a4.42,4.42,0,0,1-3-1l.41-.9a4.18,4.18,0,0,0,1.23.68,4.27,4.27,0,0,0,1.42.22,2.43,2.43,0,0,0,1.3-.29,1,1,0,0,0,.44-.85.89.89,0,0,0-.3-.71,2.3,2.3,0,0,0-1-.43l-1.27-.3a2.86,2.86,0,0,1-1.47-.75,1.81,1.81,0,0,1-.51-1.29,1.93,1.93,0,0,1,.36-1.16,2.34,2.34,0,0,1,1-.79A3.76,3.76,0,0,1,117,37a4.38,4.38,0,0,1,1.5.26,3.19,3.19,0,0,1,1.19.73l-.41.89a4.17,4.17,0,0,0-1.1-.67A3.38,3.38,0,0,0,117,38a2.12,2.12,0,0,0-1.25.32,1,1,0,0,0-.44.85,1,1,0,0,0,.27.74,2,2,0,0,0,.9.42l1.27.31a3,3,0,0,1,1.57.75,1.81,1.81,0,0,1,.5,1.31,1.84,1.84,0,0,1-.79,1.56A3.57,3.57,0,0,1,116.9,44.81Z"/><path class="cls-8" d="M125,44.81a3.7,3.7,0,0,1-1.92-.48A3.2,3.2,0,0,1,121.78,43a4.4,4.4,0,0,1-.44-2,4.5,4.5,0,0,1,.45-2.06,3.29,3.29,0,0,1,1.27-1.39,3.72,3.72,0,0,1,2-.5,4.17,4.17,0,0,1,1.48.27,3.17,3.17,0,0,1,1.18.72l-.41.9a4.67,4.67,0,0,0-1.09-.65,3,3,0,0,0-1.1-.22,2.29,2.29,0,0,0-1.81.77,3.21,3.21,0,0,0-.66,2.16,3.12,3.12,0,0,0,.66,2.13,2.28,2.28,0,0,0,1.81.75,2.84,2.84,0,0,0,1.1-.22,4.35,4.35,0,0,0,1.09-.65l.41.9a3.43,3.43,0,0,1-1.21.71A4.32,4.32,0,0,1,125,44.81Z"/><path class="cls-8" d="M135.39,43.81a3.48,3.48,0,0,1-1.27.73,4.73,4.73,0,0,1-1.58.27,4.16,4.16,0,0,1-2-.46,3.17,3.17,0,0,1-1.3-1.34,5,5,0,0,1,0-4.15,3.41,3.41,0,0,1,1.25-1.38,3.47,3.47,0,0,1,1.86-.5,3.2,3.2,0,0,1,1.72.45,2.77,2.77,0,0,1,1.1,1.26,4.6,4.6,0,0,1,.39,2v.23h-5.7v-.8h5l-.4.56a3.17,3.17,0,0,0-.51-2,1.91,1.91,0,0,0-1.6-.7,2.11,2.11,0,0,0-1.72.77,3.36,3.36,0,0,0-.62,2.14,3.32,3.32,0,0,0,.65,2.22,2.41,2.41,0,0,0,1.92.75,3.56,3.56,0,0,0,1.26-.22,3.8,3.8,0,0,0,1.16-.67Z"/><path class="cls-8" d="M137.25,34h1.48v1.38h-1.48Zm.12,10.74V37.16h1.21v7.55Z"/><path class="cls-8" d="M143.16,44.71,140,37.18h1.27L144,43.82h-.36l2.76-6.64h1.22l-3.26,7.53Z"/><path class="cls-8" d="M155,43.81a3.52,3.52,0,0,1-1.26.73,4.83,4.83,0,0,1-1.59.27,4.09,4.09,0,0,1-2-.46A3.19,3.19,0,0,1,148.82,43a4.58,4.58,0,0,1-.46-2.1,4.45,4.45,0,0,1,.45-2,3.37,3.37,0,0,1,1.26-1.38,3.44,3.44,0,0,1,1.85-.5,3.17,3.17,0,0,1,1.72.45,2.85,2.85,0,0,1,1.11,1.26,4.76,4.76,0,0,1,.38,2v.23h-5.7v-.8h5l-.39.56a3.11,3.11,0,0,0-.52-2,1.9,1.9,0,0,0-1.6-.7,2.08,2.08,0,0,0-1.71.77,3.31,3.31,0,0,0-.63,2.14,3.27,3.27,0,0,0,.66,2.22,2.39,2.39,0,0,0,1.91.75,3.65,3.65,0,0,0,1.27-.22,3.92,3.92,0,0,0,1.16-.67Z"/><path class="cls-8" d="M157,44.71V39.28c0-.35,0-.7,0-1.06a9.5,9.5,0,0,0-.1-1.06H158l.16,1.86L158,39a2.32,2.32,0,0,1,.91-1.49,2.56,2.56,0,0,1,1.56-.51,2.13,2.13,0,0,1,.37,0,1.52,1.52,0,0,1,.32.06l0,1.11a2.39,2.39,0,0,0-.79-.12,2.06,2.06,0,0,0-1.25.35,1.92,1.92,0,0,0-.69.88,2.78,2.78,0,0,0-.22,1.11v4.31Z"/><path class="cls-8" d="M86.19,62.71V52h4.29a4,4,0,0,1,2.54.73,2.47,2.47,0,0,1,.91,2.06,2.5,2.5,0,0,1-.5,1.57,2.77,2.77,0,0,1-1.39.9v-.12A2.78,2.78,0,0,1,93.26,62a4.1,4.1,0,0,1-2.63.75Zm1.22-5.94h2.88a2.91,2.91,0,0,0,1.82-.48,1.7,1.7,0,0,0,.61-1.41,1.61,1.61,0,0,0-.6-1.37,3,3,0,0,0-1.83-.46H87.41Zm0,4.92h3.12a3,3,0,0,0,1.85-.47A1.74,1.74,0,0,0,93,59.77a1.8,1.8,0,0,0-.6-1.47,2.85,2.85,0,0,0-1.84-.5H87.41Z"/><path class="cls-8" d="M98.84,62.71V53.08H95.12V52h8.68v1h-3.72v9.63Z"/><path class="cls-8" d="M109.07,62.71v-11h1.21v11Zm5.08,0L110,58.85l3.8-3.67h1.54l-4.2,4,0-.77,4.51,4.28Z"/><path class="cls-8" d="M122.84,61.81a3.56,3.56,0,0,1-1.27.73,4.77,4.77,0,0,1-1.58.27,4.13,4.13,0,0,1-2-.46A3.19,3.19,0,0,1,116.66,61a4.58,4.58,0,0,1-.45-2.1,4.45,4.45,0,0,1,.45-2,3.34,3.34,0,0,1,1.25-1.38,3.44,3.44,0,0,1,1.85-.5,3.21,3.21,0,0,1,1.73.45,2.83,2.83,0,0,1,1.1,1.26,4.76,4.76,0,0,1,.38,2v.23h-5.7v-.8h5l-.39.56a3.11,3.11,0,0,0-.52-2,1.88,1.88,0,0,0-1.59-.7,2.1,2.1,0,0,0-1.72.77,3.31,3.31,0,0,0-.62,2.14,3.27,3.27,0,0,0,.65,2.22,2.39,2.39,0,0,0,1.91.75,3.65,3.65,0,0,0,1.27-.22,3.92,3.92,0,0,0,1.16-.67Z"/><path class="cls-8" d="M127.13,63.1l-3.39-7.94H125l2.73,6.66Zm-2.76,3-.26-.94a6.57,6.57,0,0,0,1.16-.38,2.63,2.63,0,0,0,.8-.57,3.15,3.15,0,0,0,.56-.91l.48-1.11.27-.38,2.76-6.66h1.22l-3.53,8.24a5.15,5.15,0,0,1-.91,1.46,3.51,3.51,0,0,1-1.15.83A6,6,0,0,1,124.37,66.11Z"/><path class="cls-8" d="M132.69,62.71v-11h1.22V57.1l-.17-.15a2.58,2.58,0,0,1,1-1.45,2.94,2.94,0,0,1,1.74-.52,3.17,3.17,0,0,1,1.75.48,3.31,3.31,0,0,1,1.18,1.35,4.7,4.7,0,0,1,.43,2.06,4.86,4.86,0,0,1-.43,2.08,3.35,3.35,0,0,1-1.19,1.38,3.16,3.16,0,0,1-1.74.48,2.93,2.93,0,0,1-1.74-.51,2.51,2.51,0,0,1-1-1.45l.17-.17v2Zm3.54-.9a2.08,2.08,0,0,0,1.71-.77,3.42,3.42,0,0,0,.62-2.17,3.27,3.27,0,0,0-.62-2.12,2.33,2.33,0,0,0-3.43,0,4.13,4.13,0,0,0,0,4.29A2,2,0,0,0,136.23,61.81Z"/><path class="cls-8" d="M144.81,62.81a3.58,3.58,0,0,1-1.88-.48A3.26,3.26,0,0,1,141.68,61a5.11,5.11,0,0,1,0-4.15,3.26,3.26,0,0,1,1.25-1.37,3.92,3.92,0,0,1,3.76,0,3.26,3.26,0,0,1,1.25,1.37,5.11,5.11,0,0,1,0,4.15,3.26,3.26,0,0,1-1.25,1.35A3.58,3.58,0,0,1,144.81,62.81Zm0-1a2.12,2.12,0,0,0,1.72-.74,3.4,3.4,0,0,0,.61-2.17,3.32,3.32,0,0,0-.62-2.15,2.09,2.09,0,0,0-1.71-.75,2.12,2.12,0,0,0-1.72.75,4.1,4.1,0,0,0,0,4.32A2.11,2.11,0,0,0,144.81,61.81Z"/><path class="cls-8" d="M153.17,62.81a3.25,3.25,0,0,1-1.77-.47A3.11,3.11,0,0,1,150.23,61a4.85,4.85,0,0,1-.41-2.06,4.78,4.78,0,0,1,.42-2.07,3.26,3.26,0,0,1,1.18-1.38,3.1,3.1,0,0,1,1.75-.5,2.94,2.94,0,0,1,1.75.51,2.54,2.54,0,0,1,1,1.46l-.18.12V55.16h1.2v7.55h-1.2v-2l.18.09a2.51,2.51,0,0,1-1,1.45A2.94,2.94,0,0,1,153.17,62.81Zm.24-1a2.06,2.06,0,0,0,1.71-.76,4.12,4.12,0,0,0,0-4.3,2.08,2.08,0,0,0-1.7-.75,2.11,2.11,0,0,0-1.74.78,3.36,3.36,0,0,0-.62,2.15,3.28,3.28,0,0,0,.62,2.13A2.15,2.15,0,0,0,153.41,61.81Z"/><path class="cls-8" d="M159.27,62.71V57.28c0-.35,0-.7,0-1.06s-.05-.71-.1-1.06h1.16l.16,1.86-.16,0a2.31,2.31,0,0,1,.9-1.49,2.61,2.61,0,0,1,1.57-.51,2.22,2.22,0,0,1,.37,0,1.65,1.65,0,0,1,.32.06l0,1.11a2.39,2.39,0,0,0-.79-.12,2.11,2.11,0,0,0-1.26.35,2.06,2.06,0,0,0-.69.88,3,3,0,0,0-.22,1.11v4.31Z"/><path class="cls-8" d="M171.19,62.71H170v-2l.17.17a2.5,2.5,0,0,1-1,1.45,3,3,0,0,1-1.76.51,3.16,3.16,0,0,1-1.74-.48A3.26,3.26,0,0,1,164.52,61a5.37,5.37,0,0,1,0-4.14A3.1,3.1,0,0,1,167.44,55a3,3,0,0,1,1.76.52,2.56,2.56,0,0,1,1,1.45l-.19.15V51.67h1.21Zm-3.5-.9a2.06,2.06,0,0,0,1.7-.76,4.11,4.11,0,0,0,0-4.29,2.1,2.1,0,0,0-1.71-.76,2.14,2.14,0,0,0-1.74.75,3.27,3.27,0,0,0-.62,2.12A3.42,3.42,0,0,0,166,61,2.12,2.12,0,0,0,167.69,61.81Z"/><path class="cls-8" d="M86.19,80.71V70h1.22V80.71Zm.57-4.91v-1H94.5v1Zm7,4.91V70H95V80.71Z"/><path class="cls-8" d="M97.68,80.71V70h1.23V80.71Z"/><path class="cls-8" d="M101.55,80.71V70h3.59a6.32,6.32,0,0,1,2.91.62,4.23,4.23,0,0,1,1.83,1.82,6.07,6.07,0,0,1,.63,2.88,6.19,6.19,0,0,1-.64,2.91A4.37,4.37,0,0,1,108,80.08a6.14,6.14,0,0,1-2.89.63Zm1.23-1h2.28a4.12,4.12,0,0,0,3.11-1.08,4.47,4.47,0,0,0,1-3.23q0-4.27-4.16-4.27h-2.28Z"/><path class="cls-8" d="M119.67,80.81a3.7,3.7,0,0,1-1.92-.48A3.2,3.2,0,0,1,116.5,79a4.4,4.4,0,0,1-.44-2,4.63,4.63,0,0,1,.44-2.06,3.38,3.38,0,0,1,1.28-1.39,3.72,3.72,0,0,1,2-.5,4.17,4.17,0,0,1,1.48.27,3.13,3.13,0,0,1,1.17.72l-.4.9a4.67,4.67,0,0,0-1.09-.65,3,3,0,0,0-1.1-.22,2.29,2.29,0,0,0-1.81.77,3.21,3.21,0,0,0-.66,2.16,3.07,3.07,0,0,0,.66,2.13,2.28,2.28,0,0,0,1.81.75,2.76,2.76,0,0,0,1.09-.22,4.23,4.23,0,0,0,1.1-.65l.4.9a3.3,3.3,0,0,1-1.2.71A4.32,4.32,0,0,1,119.67,80.81Z"/><path class="cls-8" d="M127.05,80.81a3.58,3.58,0,0,1-1.88-.48A3.26,3.26,0,0,1,123.92,79a5.11,5.11,0,0,1,0-4.15,3.26,3.26,0,0,1,1.25-1.37,3.92,3.92,0,0,1,3.76,0,3.26,3.26,0,0,1,1.25,1.37,5.11,5.11,0,0,1,0,4.15,3.26,3.26,0,0,1-1.25,1.35A3.58,3.58,0,0,1,127.05,80.81Zm0-1a2.12,2.12,0,0,0,1.72-.74,3.4,3.4,0,0,0,.61-2.17,3.32,3.32,0,0,0-.62-2.15,2.09,2.09,0,0,0-1.71-.75,2.12,2.12,0,0,0-1.72.75,4.1,4.1,0,0,0,0,4.32A2.11,2.11,0,0,0,127.05,79.81Z"/><path class="cls-8" d="M132.51,80.71V75.28c0-.35,0-.7,0-1.06s-.05-.71-.1-1.06h1.16l.13,1.56-.15.12a2.55,2.55,0,0,1,1.05-1.38,3,3,0,0,1,1.7-.48c1.8,0,2.71,1,2.71,3v4.74h-1.21V76a2.4,2.4,0,0,0-.42-1.54A1.71,1.71,0,0,0,136,74a2.24,2.24,0,0,0-1.67.65,2.39,2.39,0,0,0-.64,1.74v4.32Z"/><path class="cls-8" d="M140.22,74.12v-1h4.85v1ZM145,79.63v1a2.95,2.95,0,0,1-1.05.15,2.31,2.31,0,0,1-1.67-.6,2.41,2.41,0,0,1-.62-1.8V71.23l1.21-.44v7.46a2,2,0,0,0,.18.93,1,1,0,0,0,.47.46,1.78,1.78,0,0,0,.67.12,2.54,2.54,0,0,0,.41,0A2.59,2.59,0,0,0,145,79.63Z"/><path class="cls-8" d="M146.53,80.71V75.28c0-.35,0-.7,0-1.06a9.5,9.5,0,0,0-.1-1.06h1.16l.16,1.86-.16,0a2.32,2.32,0,0,1,.91-1.49,2.57,2.57,0,0,1,1.57-.51,2.1,2.1,0,0,1,.36,0,1.52,1.52,0,0,1,.32.06l0,1.11a2.39,2.39,0,0,0-.79-.12,2.06,2.06,0,0,0-1.25.35,1.92,1.92,0,0,0-.69.88,2.78,2.78,0,0,0-.22,1.11v4.31Z"/><path class="cls-8" d="M154.93,80.81a3.6,3.6,0,0,1-1.88-.48A3.24,3.24,0,0,1,151.81,79a5,5,0,0,1,0-4.15,3.24,3.24,0,0,1,1.24-1.37,3.6,3.6,0,0,1,1.88-.48,3.64,3.64,0,0,1,1.89.48,3.24,3.24,0,0,1,1.24,1.37,5.11,5.11,0,0,1,0,4.15,3.24,3.24,0,0,1-1.24,1.35A3.64,3.64,0,0,1,154.93,80.81Zm0-1a2.11,2.11,0,0,0,1.72-.74,4.1,4.1,0,0,0,0-4.32,2.32,2.32,0,0,0-3.42,0,3.26,3.26,0,0,0-.63,2.15,3.4,3.4,0,0,0,.61,2.17A2.13,2.13,0,0,0,154.93,79.81Z"/><path class="cls-8" d="M160.39,80.71v-11h1.22v11Z"/></g><polygon class="cls-8" points="175.22 44.52 180.2 35.9 170.24 35.9 175.22 44.52"/></g></g></svg>