<svg xmlns="http://www.w3.org/2000/svg" viewBox="0 0 595.28 69.13"><defs><style>.cls-1{fill:none;}.cls-2{fill:#8e4582;}.cls-3{fill:#b056a1;}.cls-4{fill:#c788bb;}.cls-5{isolation:isolate;}.cls-6{fill:#fff;}.cls-7{opacity:0.6;}.cls-8{fill:#010101;}.cls-9{fill:#dab4d4;}</style></defs><g id="Layer_2" data-name="Layer 2"><g id="Layer_1-2" data-name="Layer 1"><rect class="cls-1" width="595.28" height="18"/><path class="cls-2" d="M1,9A8,8,0,0,1,9,1h7l6,4h3l6-4H329.17V26H30.5l-6,4h-3l-6-4H9a8,8,0,0,1-8-8Z"/><path class="cls-3" d="M0,8A8,8,0,0,1,8,0h7l6,4h3l6-4H328.17V25H29.5l-6,4h-3l-6-4H8a8,8,0,0,1-8-8Z"/><path class="cls-4" d="M2.34,22.66A8,8,0,0,1,0,17V8H1v9A7,7,0,0,0,3.05,22ZM1,7.53,0,7.47A8,8,0,0,1,8,0h7.17l6,4h2.7l6-4H327.67V1H30.15l-6,4h-3.3l-6-4H8A7,7,0,0,0,1,7.53Z"/><g class="cls-5"><path class="cls-6" d="M11.32,17.5V6.82h4.29a4,4,0,0,1,2.54.73,2.5,2.5,0,0,1,.91,2.06,2.5,2.5,0,0,1-.5,1.57,2.78,2.78,0,0,1-1.39.91V12a2.5,2.5,0,0,1,2.15,2.62,2.62,2.62,0,0,1-.94,2.16,4.07,4.07,0,0,1-2.62.75Zm1.22-5.94h2.88a2.91,2.91,0,0,0,1.82-.48,1.7,1.7,0,0,0,.61-1.41,1.61,1.61,0,0,0-.6-1.37,3,3,0,0,0-1.83-.46H12.54Zm0,4.92h3.11A3,3,0,0,0,17.51,16a1.76,1.76,0,0,0,.59-1.46,1.8,1.8,0,0,0-.6-1.47,2.88,2.88,0,0,0-1.85-.49H12.54Z"/><path class="cls-6" d="M21.38,17.5v-11H22.6v11Z"/><path class="cls-6" d="M27.62,17.61a2.61,2.61,0,0,1-2-.75,3.22,3.22,0,0,1-.68-2.22V10h1.21v4.65a2.24,2.24,0,0,0,.42,1.5,1.62,1.62,0,0,0,1.28.48,2.14,2.14,0,0,0,1.62-.65,2.38,2.38,0,0,0,.61-1.72V10h1.22V17.5H30.08V15.87l.18-.09a2.48,2.48,0,0,1-1,1.36A2.91,2.91,0,0,1,27.62,17.61Z"/><path class="cls-6" d="M39.79,16.6a3.49,3.49,0,0,1-1.27.74,4.73,4.73,0,0,1-1.58.27,4.16,4.16,0,0,1-2-.47,3.17,3.17,0,0,1-1.3-1.34,4.42,4.42,0,0,1-.46-2.09,4.5,4.5,0,0,1,.45-2.06,3.41,3.41,0,0,1,1.25-1.38,3.46,3.46,0,0,1,1.85-.49,3.2,3.2,0,0,1,1.73.44,2.8,2.8,0,0,1,1.1,1.27,4.6,4.6,0,0,1,.38,2v.22H34.23V12.9h5l-.39.55a3.14,3.14,0,0,0-.51-2,1.91,1.91,0,0,0-1.6-.71,2.11,2.11,0,0,0-1.72.77,3.36,3.36,0,0,0-.62,2.14A3.32,3.32,0,0,0,35,15.85,2.41,2.41,0,0,0,37,16.6a3.56,3.56,0,0,0,1.26-.22,3.77,3.77,0,0,0,1.16-.66Z"/><path class="cls-6" d="M40.66,10.92V10H45.5v1Zm4.81,5.5v1a4.48,4.48,0,0,1-.5.11,4.43,4.43,0,0,1-.55,0,2.31,2.31,0,0,1-1.67-.6,2.41,2.41,0,0,1-.62-1.8V8l1.21-.43V15a2,2,0,0,0,.18.93,1,1,0,0,0,.47.46,1.78,1.78,0,0,0,.67.13,2.54,2.54,0,0,0,.41,0A2.73,2.73,0,0,0,45.47,16.42Z"/><path class="cls-6" d="M50.09,17.61a3.6,3.6,0,0,1-1.88-.48A3.27,3.27,0,0,1,47,15.77a4.52,4.52,0,0,1-.44-2.08A4.51,4.51,0,0,1,47,11.62a3.21,3.21,0,0,1,1.24-1.36,3.6,3.6,0,0,1,1.88-.48,3.64,3.64,0,0,1,1.89.48,3.21,3.21,0,0,1,1.24,1.36,4.51,4.51,0,0,1,.44,2.07,4.52,4.52,0,0,1-.44,2.08A3.27,3.27,0,0,1,52,17.13,3.64,3.64,0,0,1,50.09,17.61Zm0-1a2.11,2.11,0,0,0,1.72-.74,3.34,3.34,0,0,0,.61-2.17,3.29,3.29,0,0,0-.62-2.14,2.32,2.32,0,0,0-3.42,0,3.23,3.23,0,0,0-.63,2.14,3.4,3.4,0,0,0,.61,2.17A2.13,2.13,0,0,0,50.09,16.6Z"/><path class="cls-6" d="M58.67,17.61a3.6,3.6,0,0,1-1.88-.48,3.27,3.27,0,0,1-1.24-1.36,4.52,4.52,0,0,1-.44-2.08,4.51,4.51,0,0,1,.44-2.07,3.21,3.21,0,0,1,1.24-1.36,3.6,3.6,0,0,1,1.88-.48,3.64,3.64,0,0,1,1.89.48,3.21,3.21,0,0,1,1.24,1.36,4.51,4.51,0,0,1,.44,2.07,4.52,4.52,0,0,1-.44,2.08,3.27,3.27,0,0,1-1.24,1.36A3.64,3.64,0,0,1,58.67,17.61Zm0-1a2.11,2.11,0,0,0,1.72-.74A3.34,3.34,0,0,0,61,13.69a3.23,3.23,0,0,0-.62-2.14,2.32,2.32,0,0,0-3.42,0,3.23,3.23,0,0,0-.62,2.14,3.4,3.4,0,0,0,.6,2.17A2.13,2.13,0,0,0,58.67,16.6Z"/><path class="cls-6" d="M63.05,10.92V10H67.9v1Zm4.82,5.5v1a5,5,0,0,1-.5.11,4.58,4.58,0,0,1-.55,0,2.29,2.29,0,0,1-1.67-.6,2.37,2.37,0,0,1-.62-1.8V8l1.21-.43V15a2.11,2.11,0,0,0,.17.93,1,1,0,0,0,.47.46,1.83,1.83,0,0,0,.68.13,2.41,2.41,0,0,0,.4,0A2.83,2.83,0,0,0,67.87,16.42Z"/><path class="cls-6" d="M69.37,17.5v-11h1.21v5l-.19.15a2.58,2.58,0,0,1,1-1.39,3,3,0,0,1,1.69-.47c1.81,0,2.72,1,2.72,3V17.5H74.63V12.82a2.34,2.34,0,0,0-.42-1.54,1.67,1.67,0,0,0-1.32-.48,2.24,2.24,0,0,0-1.68.64,2.38,2.38,0,0,0-.63,1.74V17.5Z"/><path class="cls-6" d="M82.06,17.5V12.07c0-.35,0-.7,0-1.06s-.05-.7-.1-1h1.15l.14,1.56-.15.1A2.49,2.49,0,0,1,84,10.26a2.62,2.62,0,0,1,1.58-.48,2.46,2.46,0,0,1,1.7.54A2.62,2.62,0,0,1,88.07,12l-.36-.2a2.58,2.58,0,0,1,1-1.45,2.87,2.87,0,0,1,1.75-.54,2.29,2.29,0,0,1,1.87.74,3.38,3.38,0,0,1,.63,2.24V17.5H91.72V12.82a2.54,2.54,0,0,0-.38-1.54,1.4,1.4,0,0,0-1.18-.48,1.84,1.84,0,0,0-1.49.64,2.61,2.61,0,0,0-.55,1.76v4.3H86.9V12.82a2.48,2.48,0,0,0-.38-1.54,1.42,1.42,0,0,0-1.19-.48,1.88,1.88,0,0,0-1.51.64,2.67,2.67,0,0,0-.55,1.76v4.3Z"/><path class="cls-6" d="M98.36,17.61a3.6,3.6,0,0,1-1.88-.48,3.27,3.27,0,0,1-1.24-1.36,4.52,4.52,0,0,1-.45-2.08,4.51,4.51,0,0,1,.45-2.07,3.21,3.21,0,0,1,1.24-1.36,3.6,3.6,0,0,1,1.88-.48,3.64,3.64,0,0,1,1.89.48,3.21,3.21,0,0,1,1.24,1.36,4.51,4.51,0,0,1,.44,2.07,4.52,4.52,0,0,1-.44,2.08,3.27,3.27,0,0,1-1.24,1.36A3.64,3.64,0,0,1,98.36,17.61Zm0-1a2.11,2.11,0,0,0,1.72-.74,3.34,3.34,0,0,0,.61-2.17,3.29,3.29,0,0,0-.62-2.14,2.32,2.32,0,0,0-3.42,0A3.23,3.23,0,0,0,96,13.69a3.4,3.4,0,0,0,.61,2.17A2.13,2.13,0,0,0,98.36,16.6Z"/><path class="cls-6" d="M106.49,17.61a2.61,2.61,0,0,1-2-.75,3.22,3.22,0,0,1-.68-2.22V10H105v4.65a2.24,2.24,0,0,0,.42,1.5,1.62,1.62,0,0,0,1.28.48,2.14,2.14,0,0,0,1.62-.65,2.38,2.38,0,0,0,.61-1.72V10h1.22V17.5H109V15.87l.18-.09a2.48,2.48,0,0,1-1,1.36A2.91,2.91,0,0,1,106.49,17.61Z"/><path class="cls-6" d="M115,17.61a4.42,4.42,0,0,1-3-1l.41-.9a4.11,4.11,0,0,0,1.24.68,4.17,4.17,0,0,0,1.41.22,2.41,2.41,0,0,0,1.3-.29,1,1,0,0,0,.44-.85.89.89,0,0,0-.3-.71,2.3,2.3,0,0,0-1-.43l-1.27-.3a2.78,2.78,0,0,1-1.46-.75,1.78,1.78,0,0,1-.52-1.29,1.93,1.93,0,0,1,.36-1.16,2.34,2.34,0,0,1,1-.79,3.77,3.77,0,0,1,1.53-.28,4.37,4.37,0,0,1,1.5.25,3.21,3.21,0,0,1,1.19.74l-.41.88a4,4,0,0,0-1.1-.67,3.33,3.33,0,0,0-1.18-.21,2.14,2.14,0,0,0-1.25.31,1,1,0,0,0-.44.86,1,1,0,0,0,.28.73,1.89,1.89,0,0,0,.89.42l1.27.32a3,3,0,0,1,1.57.74,1.77,1.77,0,0,1,.5,1.31,1.84,1.84,0,0,1-.79,1.56A3.57,3.57,0,0,1,115,17.61Z"/><path class="cls-6" d="M126.1,16.6a3.49,3.49,0,0,1-1.27.74,4.73,4.73,0,0,1-1.58.27,4.16,4.16,0,0,1-2-.47,3.17,3.17,0,0,1-1.3-1.34,4.42,4.42,0,0,1-.46-2.09,4.5,4.5,0,0,1,.45-2.06,3.41,3.41,0,0,1,1.25-1.38A3.46,3.46,0,0,1,123,9.78a3.2,3.2,0,0,1,1.73.44,2.8,2.8,0,0,1,1.1,1.27,4.6,4.6,0,0,1,.38,2v.22h-5.7V12.9h5l-.39.55a3.14,3.14,0,0,0-.51-2,1.91,1.91,0,0,0-1.6-.71,2.11,2.11,0,0,0-1.72.77,3.36,3.36,0,0,0-.62,2.14,3.32,3.32,0,0,0,.65,2.22,2.4,2.4,0,0,0,1.91.75,3.61,3.61,0,0,0,1.27-.22,3.77,3.77,0,0,0,1.16-.66Z"/><path class="cls-6" d="M132,17.5v-11h1.22v5.43l-.17-.15a2.58,2.58,0,0,1,1-1.45,2.93,2.93,0,0,1,1.74-.51,3.17,3.17,0,0,1,1.75.48,3.24,3.24,0,0,1,1.18,1.35,4.52,4.52,0,0,1,.43,2.05,4.71,4.71,0,0,1-.43,2.08,3.33,3.33,0,0,1-1.18,1.38,3.22,3.22,0,0,1-1.75.49A2.93,2.93,0,0,1,134,17.1a2.54,2.54,0,0,1-1-1.46l.17-.16v2Zm3.54-.9a2.08,2.08,0,0,0,1.71-.77,3.42,3.42,0,0,0,.62-2.17,3.24,3.24,0,0,0-.62-2.11,2.34,2.34,0,0,0-3.43,0,3.38,3.38,0,0,0-.6,2.14,3.38,3.38,0,0,0,.6,2.15A2,2,0,0,0,135.53,16.6Z"/><path class="cls-6" d="M143.66,17.61a2.61,2.61,0,0,1-2-.75,3.22,3.22,0,0,1-.68-2.22V10h1.21v4.65a2.24,2.24,0,0,0,.42,1.5,1.62,1.62,0,0,0,1.28.48,2.14,2.14,0,0,0,1.62-.65,2.38,2.38,0,0,0,.61-1.72V10h1.22V17.5h-1.19V15.87l.18-.09a2.48,2.48,0,0,1-1,1.36A2.91,2.91,0,0,1,143.66,17.61Z"/><path class="cls-6" d="M148.58,10.92V10h4.85v1Zm4.82,5.5v1a5,5,0,0,1-.5.11,4.58,4.58,0,0,1-.55,0,2.29,2.29,0,0,1-1.67-.6,2.37,2.37,0,0,1-.63-1.8V8l1.22-.43V15a2.11,2.11,0,0,0,.17.93,1,1,0,0,0,.47.46,1.83,1.83,0,0,0,.68.13,2.41,2.41,0,0,0,.4,0A2.83,2.83,0,0,0,153.4,16.42Z"/><path class="cls-6" d="M153.88,10.92V10h4.84v1Zm4.81,5.5v1a4.48,4.48,0,0,1-.5.11,4.43,4.43,0,0,1-.55,0A2.31,2.31,0,0,1,156,17a2.41,2.41,0,0,1-.62-1.8V8l1.21-.43V15a2,2,0,0,0,.18.93,1,1,0,0,0,.47.46,1.78,1.78,0,0,0,.67.13,2.54,2.54,0,0,0,.41,0A2.73,2.73,0,0,0,158.69,16.42Z"/><path class="cls-6" d="M163.31,17.61a3.58,3.58,0,0,1-1.88-.48,3.27,3.27,0,0,1-1.24-1.36,4.52,4.52,0,0,1-.45-2.08,4.51,4.51,0,0,1,.45-2.07,3.21,3.21,0,0,1,1.24-1.36,3.92,3.92,0,0,1,3.76,0,3.17,3.17,0,0,1,1.25,1.36,4.64,4.64,0,0,1,.44,2.07,4.65,4.65,0,0,1-.44,2.08,3.23,3.23,0,0,1-1.25,1.36A3.58,3.58,0,0,1,163.31,17.61Zm0-1a2.11,2.11,0,0,0,1.72-.74,3.34,3.34,0,0,0,.61-2.17,3.29,3.29,0,0,0-.62-2.14,2.09,2.09,0,0,0-1.71-.75,2.12,2.12,0,0,0-1.72.75,3.29,3.29,0,0,0-.62,2.14,3.34,3.34,0,0,0,.61,2.17A2.11,2.11,0,0,0,163.31,16.6Z"/><path class="cls-6" d="M168.77,17.5V12.07c0-.35,0-.7,0-1.06s-.05-.7-.1-1h1.16l.13,1.56-.15.12a2.58,2.58,0,0,1,1.05-1.39,3,3,0,0,1,1.7-.47c1.81,0,2.71,1,2.71,3V17.5H174V12.82a2.34,2.34,0,0,0-.42-1.54,1.67,1.67,0,0,0-1.32-.48,2.24,2.24,0,0,0-1.68.64,2.38,2.38,0,0,0-.63,1.74V17.5Z"/></g><g class="cls-7"><rect class="cls-6" x="180.68" y="5" width="52.15" height="16" rx="4"/></g><g class="cls-5"><path class="cls-8" d="M186.85,17.5v-11h1.22v11Z"/><path class="cls-8" d="M196.6,16.6a3.53,3.53,0,0,1-1.26.74,4.83,4.83,0,0,1-1.59.27,4.09,4.09,0,0,1-2-.47,3.19,3.19,0,0,1-1.31-1.34,4.54,4.54,0,0,1-.46-2.09,4.5,4.5,0,0,1,.45-2.06,3.37,3.37,0,0,1,1.26-1.38,3.43,3.43,0,0,1,1.85-.49,3.17,3.17,0,0,1,1.72.44,2.88,2.88,0,0,1,1.11,1.27,4.76,4.76,0,0,1,.38,2v.22H191V12.9h5l-.39.55a3.08,3.08,0,0,0-.52-2,1.9,1.9,0,0,0-1.6-.71,2.08,2.08,0,0,0-1.71.77,3.31,3.31,0,0,0-.63,2.14,3.27,3.27,0,0,0,.66,2.22,2.39,2.39,0,0,0,1.91.75,3.65,3.65,0,0,0,1.27-.22,3.88,3.88,0,0,0,1.16-.66Z"/><path class="cls-8" d="M197.5,10.92V10H202v1Zm4.74-3.35a2.85,2.85,0,0,0-.78-.12,1.54,1.54,0,0,0-.65.13.93.93,0,0,0-.46.46,2.06,2.06,0,0,0-.16.91V17.5H199V8.8a2.45,2.45,0,0,1,.6-1.81,2.27,2.27,0,0,1,1.65-.59,4.36,4.36,0,0,1,.51,0,3.1,3.1,0,0,1,.51.11Z"/><path class="cls-8" d="M202.21,10.92V10h4.85v1Zm4.82,5.5v1a5,5,0,0,1-.5.11,4.58,4.58,0,0,1-.55,0,2.29,2.29,0,0,1-1.67-.6,2.37,2.37,0,0,1-.63-1.8V8l1.22-.43V15a2.11,2.11,0,0,0,.17.93,1,1,0,0,0,.47.46,1.83,1.83,0,0,0,.68.13,2.41,2.41,0,0,0,.4,0A2.83,2.83,0,0,0,207,16.42Z"/></g><g class="cls-7"><rect class="cls-6" x="242.83" y="5" width="80.33" height="16" rx="4"/></g><g class="cls-5"><path class="cls-8" d="M249,20.74V12.07c0-.35,0-.7,0-1.06a9.32,9.32,0,0,0-.1-1H250l.13,1.56-.12.22a2.51,2.51,0,0,1,1-1.45,2.93,2.93,0,0,1,1.74-.51,3.14,3.14,0,0,1,1.75.49,3.33,3.33,0,0,1,1.18,1.38,4.64,4.64,0,0,1,.43,2.07,4.57,4.57,0,0,1-.43,2.06,3.13,3.13,0,0,1-1.18,1.35,3.17,3.17,0,0,1-1.75.48A2.93,2.93,0,0,1,251,17.1a2.54,2.54,0,0,1-1-1.46l.17-.15v5.25Zm3.54-4.14a2.09,2.09,0,0,0,1.71-.75,3.28,3.28,0,0,0,.62-2.13,3.36,3.36,0,0,0-.62-2.15,2,2,0,0,0-1.71-.77,2.07,2.07,0,0,0-1.72.75,3.35,3.35,0,0,0-.6,2.14,3.38,3.38,0,0,0,.6,2.15A2,2,0,0,0,252.54,16.6Z"/><path class="cls-8" d="M258,17.5V12.07c0-.35,0-.7,0-1.06a9.32,9.32,0,0,0-.1-1H259l.16,1.86-.16-.05a2.32,2.32,0,0,1,.91-1.49,2.55,2.55,0,0,1,1.56-.5,2.17,2.17,0,0,1,.37,0,1.5,1.5,0,0,1,.32.07l0,1.11a2.39,2.39,0,0,0-.79-.12,2.06,2.06,0,0,0-1.25.34,1.92,1.92,0,0,0-.69.88,2.83,2.83,0,0,0-.22,1.12v4.3Z"/><path class="cls-8" d="M269.46,16.6a3.53,3.53,0,0,1-1.26.74,4.83,4.83,0,0,1-1.59.27,4.09,4.09,0,0,1-2-.47,3.19,3.19,0,0,1-1.31-1.34,4.54,4.54,0,0,1-.46-2.09,4.5,4.5,0,0,1,.45-2.06,3.37,3.37,0,0,1,1.26-1.38,3.43,3.43,0,0,1,1.85-.49,3.17,3.17,0,0,1,1.72.44,2.88,2.88,0,0,1,1.11,1.27,4.76,4.76,0,0,1,.38,2v.22h-5.7V12.9h5l-.39.55a3.08,3.08,0,0,0-.52-2,1.9,1.9,0,0,0-1.6-.71,2.08,2.08,0,0,0-1.71.77,3.31,3.31,0,0,0-.63,2.14,3.27,3.27,0,0,0,.66,2.22,2.39,2.39,0,0,0,1.91.75,3.65,3.65,0,0,0,1.27-.22,3.88,3.88,0,0,0,1.16-.66Z"/><path class="cls-8" d="M274,17.61a4.4,4.4,0,0,1-3-1l.4-.9a4.23,4.23,0,0,0,1.24.68,4.27,4.27,0,0,0,1.42.22,2.43,2.43,0,0,0,1.3-.29,1,1,0,0,0,.44-.85.89.89,0,0,0-.3-.71,2.3,2.3,0,0,0-1-.43l-1.28-.3a2.82,2.82,0,0,1-1.46-.75,1.82,1.82,0,0,1-.52-1.29,1.93,1.93,0,0,1,.36-1.16,2.37,2.37,0,0,1,1-.79,3.77,3.77,0,0,1,1.53-.28,4.37,4.37,0,0,1,1.5.25,3.16,3.16,0,0,1,1.18.74l-.4.88a4.17,4.17,0,0,0-1.1-.67,3.37,3.37,0,0,0-1.18-.21,2.12,2.12,0,0,0-1.25.31,1,1,0,0,0-.45.86,1,1,0,0,0,.28.73,1.94,1.94,0,0,0,.89.42l1.28.32a3,3,0,0,1,1.57.74,1.81,1.81,0,0,1,.5,1.31,1.85,1.85,0,0,1-.8,1.56A3.57,3.57,0,0,1,274,17.61Z"/><path class="cls-8" d="M281.43,17.61a4.4,4.4,0,0,1-3-1l.4-.9a4.11,4.11,0,0,0,1.24.68,4.23,4.23,0,0,0,1.42.22,2.43,2.43,0,0,0,1.3-.29,1,1,0,0,0,.44-.85.89.89,0,0,0-.3-.71,2.3,2.3,0,0,0-1-.43l-1.28-.3a2.78,2.78,0,0,1-1.46-.75,1.78,1.78,0,0,1-.52-1.29,1.93,1.93,0,0,1,.36-1.16,2.37,2.37,0,0,1,1-.79,3.77,3.77,0,0,1,1.53-.28,4.37,4.37,0,0,1,1.5.25,3.16,3.16,0,0,1,1.18.74l-.4.88a4.17,4.17,0,0,0-1.1-.67,3.37,3.37,0,0,0-1.18-.21,2.12,2.12,0,0,0-1.25.31,1,1,0,0,0-.45.86,1,1,0,0,0,.28.73,1.94,1.94,0,0,0,.89.42l1.28.32a2.92,2.92,0,0,1,1.56.74,1.78,1.78,0,0,1,.51,1.31,1.85,1.85,0,0,1-.8,1.56A3.57,3.57,0,0,1,281.43,17.61Z"/><path class="cls-8" d="M292.5,16.6a3.49,3.49,0,0,1-1.27.74,4.73,4.73,0,0,1-1.58.27,4.16,4.16,0,0,1-2-.47,3.17,3.17,0,0,1-1.3-1.34,4.54,4.54,0,0,1-.46-2.09,4.5,4.5,0,0,1,.45-2.06,3.41,3.41,0,0,1,1.25-1.38,3.49,3.49,0,0,1,1.86-.49,3.17,3.17,0,0,1,1.72.44,2.8,2.8,0,0,1,1.1,1.27,4.6,4.6,0,0,1,.39,2v.22h-5.7V12.9h5l-.39.55a3.14,3.14,0,0,0-.52-2,1.91,1.91,0,0,0-1.6-.71,2.11,2.11,0,0,0-1.72.77,3.36,3.36,0,0,0-.62,2.14,3.32,3.32,0,0,0,.65,2.22,2.42,2.42,0,0,0,1.92.75,3.65,3.65,0,0,0,1.27-.22,3.88,3.88,0,0,0,1.16-.66Z"/><path class="cls-8" d="M301.13,17.5h-1.2v-2l.18.16a2.54,2.54,0,0,1-1,1.46,2.94,2.94,0,0,1-1.75.51,3.2,3.2,0,0,1-1.75-.49,3.33,3.33,0,0,1-1.18-1.38,4.86,4.86,0,0,1-.42-2.08,4.81,4.81,0,0,1,.41-2.05,3.13,3.13,0,0,1,2.94-1.83,2.94,2.94,0,0,1,1.75.51,2.58,2.58,0,0,1,1,1.45l-.2.15V6.46h1.22Zm-3.51-.9a2,2,0,0,0,1.7-.76,3.32,3.32,0,0,0,.61-2.15,3.38,3.38,0,0,0-.6-2.14,2.06,2.06,0,0,0-1.71-.75,2.15,2.15,0,0,0-1.74.75,3.24,3.24,0,0,0-.62,2.11,3.42,3.42,0,0,0,.62,2.17A2.13,2.13,0,0,0,297.62,16.6Z"/></g><polygon class="cls-8" points="314.19 17.31 319.17 8.69 309.21 8.69 314.19 17.31"/><polygon class="cls-8" points="223.85 17.31 228.83 8.69 218.88 8.69 223.85 17.31"/><rect class="cls-9" x="180.68" y="32.05" width="52.13" height="37.09" rx="5.67"/><g class="cls-5"><path class="cls-8" d="M186.26,45.92v-11h1.21v11Z"/><path class="cls-8" d="M196,45a3.56,3.56,0,0,1-1.27.73,4.77,4.77,0,0,1-1.58.27,4.13,4.13,0,0,1-2-.46,3.16,3.16,0,0,1-1.31-1.35,4.51,4.51,0,0,1-.45-2.09,4.45,4.45,0,0,1,.45-2,3.34,3.34,0,0,1,1.25-1.38,3.44,3.44,0,0,1,1.85-.5,3.29,3.29,0,0,1,1.73.44,2.91,2.91,0,0,1,1.1,1.27,4.76,4.76,0,0,1,.38,2v.23h-5.7v-.8h5l-.39.56a3.11,3.11,0,0,0-.52-2,1.88,1.88,0,0,0-1.59-.7,2.07,2.07,0,0,0-1.72.77,3.29,3.29,0,0,0-.62,2.14,3.27,3.27,0,0,0,.65,2.22,2.39,2.39,0,0,0,1.91.75,3.9,3.9,0,0,0,1.27-.22,4.15,4.15,0,0,0,1.16-.67Z"/><path class="cls-8" d="M196.91,39.33v-1h4.53v1ZM201.65,36a2.85,2.85,0,0,0-.78-.12,1.76,1.76,0,0,0-.66.12,1,1,0,0,0-.45.46,2.1,2.1,0,0,0-.17.92v8.55h-1.21v-8.7a2.44,2.44,0,0,1,.6-1.81,2.22,2.22,0,0,1,1.65-.59,4.36,4.36,0,0,1,.51,0,3.06,3.06,0,0,1,.51.1Z"/><path class="cls-8" d="M201.62,39.33v-1h4.84v1Zm4.81,5.51v1a3.22,3.22,0,0,1-.5.11,3.16,3.16,0,0,1-.55,0,2.29,2.29,0,0,1-1.67-.6,2.37,2.37,0,0,1-.62-1.8V36.44L204.3,36v7.46a2.11,2.11,0,0,0,.17.93,1,1,0,0,0,.48.45,1.6,1.6,0,0,0,.67.13,2.54,2.54,0,0,0,.41,0A2.59,2.59,0,0,0,206.43,44.84Z"/><path class="cls-8" d="M186.26,63.92V58.49c0-.35,0-.71,0-1.06a9.28,9.28,0,0,0-.09-1.06h1.15l.17,1.86-.17,0a2.37,2.37,0,0,1,.91-1.5,2.65,2.65,0,0,1,1.57-.5l.36,0,.33.07,0,1.11a2.45,2.45,0,0,0-.8-.12,2.06,2.06,0,0,0-1.25.35,2,2,0,0,0-.69.87,2.87,2.87,0,0,0-.22,1.12v4.31Z"/><path class="cls-8" d="M191.57,53.18h1.48v1.38h-1.48Zm.12,10.74V56.37h1.21v7.55Z"/><path class="cls-8" d="M198.57,67.26a5.53,5.53,0,0,1-3-.78l.21-1a6.1,6.1,0,0,0,1.34.59,5.15,5.15,0,0,0,1.42.18,2.2,2.2,0,0,0,1.64-.58,2.36,2.36,0,0,0,.57-1.72v-2l.16-.19a2.9,2.9,0,0,1-.56,1,2.67,2.67,0,0,1-.94.68,3.15,3.15,0,0,1-1.26.24,3.18,3.18,0,0,1-3-1.78,4.36,4.36,0,0,1-.42-2,4.32,4.32,0,0,1,.42-2,3.17,3.17,0,0,1,3-1.79,3,3,0,0,1,1.78.52,2.54,2.54,0,0,1,1,1.45l-.18-.17V56.37H202v7.49a3,3,0,0,1-3.41,3.4Zm-.15-4.59a2.14,2.14,0,0,0,1.72-.73,3.54,3.54,0,0,0,0-4,2.14,2.14,0,0,0-1.72-.73,2.2,2.2,0,0,0-1.75.73,3.51,3.51,0,0,0,0,4A2.23,2.23,0,0,0,198.42,62.67Z"/><path class="cls-8" d="M204.32,63.92v-11h1.21v5l-.19.15a2.61,2.61,0,0,1,1-1.39,3.09,3.09,0,0,1,1.69-.47c1.81,0,2.72,1,2.72,3v4.74h-1.22V59.24a2.32,2.32,0,0,0-.42-1.54,1.67,1.67,0,0,0-1.32-.49,2.24,2.24,0,0,0-1.68.65,2.38,2.38,0,0,0-.63,1.74v4.32Z"/><path class="cls-8" d="M212,57.33v-1h4.84v1Zm4.81,5.51v1a3.22,3.22,0,0,1-.5.11,3.16,3.16,0,0,1-.55,0,2.29,2.29,0,0,1-1.67-.6,2.37,2.37,0,0,1-.62-1.8V54.44l1.21-.44v7.46a2.11,2.11,0,0,0,.17.93,1,1,0,0,0,.48.45A1.6,1.6,0,0,0,216,63a2.54,2.54,0,0,0,.41,0A2.59,2.59,0,0,0,216.84,62.84Z"/></g><polygon class="cls-8" points="223.85 44.73 228.83 36.11 218.88 36.11 223.85 44.73"/><rect class="cls-9" x="242.83" y="32.05" width="79.98" height="37.09" rx="5.67"/><g class="cls-5"><path class="cls-8" d="M248.41,49.16V40.49c0-.35,0-.71,0-1.06a9.28,9.28,0,0,0-.09-1.06h1.15l.14,1.56-.12.23a2.52,2.52,0,0,1,1-1.46,2.93,2.93,0,0,1,1.74-.51,3.15,3.15,0,0,1,1.75.5,3.33,3.33,0,0,1,1.18,1.38,5.17,5.17,0,0,1,0,4.13,3.22,3.22,0,0,1-1.17,1.35,3.28,3.28,0,0,1-1.76.47,2.93,2.93,0,0,1-1.74-.51,2.5,2.5,0,0,1-1-1.45l.16-.15v5.25ZM252,45a2.09,2.09,0,0,0,1.71-.75,3.28,3.28,0,0,0,.61-2.13,3.4,3.4,0,0,0-.61-2.16,2.33,2.33,0,0,0-3.44,0,3.38,3.38,0,0,0-.6,2.15,3.4,3.4,0,0,0,.6,2.15A2.1,2.1,0,0,0,252,45Z"/><path class="cls-8" d="M257.41,45.92V40.49c0-.35,0-.71,0-1.06a9.28,9.28,0,0,0-.09-1.06h1.15l.17,1.86-.17,0a2.37,2.37,0,0,1,.91-1.5,2.65,2.65,0,0,1,1.57-.5l.36,0,.33.07,0,1.11a2.45,2.45,0,0,0-.8-.12,2.06,2.06,0,0,0-1.25.35,2,2,0,0,0-.69.87,2.87,2.87,0,0,0-.22,1.12v4.31Z"/><path class="cls-8" d="M268.87,45a3.56,3.56,0,0,1-1.27.73A4.77,4.77,0,0,1,266,46a4.13,4.13,0,0,1-2-.46,3.16,3.16,0,0,1-1.31-1.35,4.51,4.51,0,0,1-.45-2.09,4.45,4.45,0,0,1,.45-2,3.34,3.34,0,0,1,1.25-1.38,3.44,3.44,0,0,1,1.85-.5,3.29,3.29,0,0,1,1.73.44,2.91,2.91,0,0,1,1.1,1.27,4.76,4.76,0,0,1,.38,2v.23h-5.7v-.8h5l-.39.56a3.11,3.11,0,0,0-.52-2,1.88,1.88,0,0,0-1.59-.7,2.07,2.07,0,0,0-1.72.77,3.29,3.29,0,0,0-.62,2.14,3.27,3.27,0,0,0,.65,2.22A2.39,2.39,0,0,0,266,45a3.9,3.9,0,0,0,1.27-.22,4.15,4.15,0,0,0,1.16-.67Z"/><path class="cls-8" d="M273.4,46a4.42,4.42,0,0,1-3-1l.41-.9a4.42,4.42,0,0,0,1.23.68,4.55,4.55,0,0,0,1.42.22,2.34,2.34,0,0,0,1.3-.3.94.94,0,0,0,.44-.84.92.92,0,0,0-.3-.72,2.43,2.43,0,0,0-1-.42l-1.27-.3a2.86,2.86,0,0,1-1.47-.75,1.81,1.81,0,0,1-.51-1.29,2,2,0,0,1,.36-1.17,2.4,2.4,0,0,1,1-.78,3.76,3.76,0,0,1,1.53-.29,4.38,4.38,0,0,1,1.5.26,3.19,3.19,0,0,1,1.19.73l-.41.89a3.92,3.92,0,0,0-1.1-.67,3.17,3.17,0,0,0-1.18-.22,2.12,2.12,0,0,0-1.25.32,1,1,0,0,0-.44.85,1,1,0,0,0,.27.74,2,2,0,0,0,.9.42l1.27.31a3.07,3.07,0,0,1,1.57.74,2,2,0,0,1-.29,2.88A3.57,3.57,0,0,1,273.4,46Z"/><path class="cls-8" d="M280.84,46a4.42,4.42,0,0,1-3-1l.41-.9a4.42,4.42,0,0,0,1.23.68,4.55,4.55,0,0,0,1.42.22,2.34,2.34,0,0,0,1.3-.3.94.94,0,0,0,.44-.84.92.92,0,0,0-.3-.72,2.43,2.43,0,0,0-1-.42l-1.27-.3a2.86,2.86,0,0,1-1.47-.75,1.81,1.81,0,0,1-.51-1.29,2,2,0,0,1,.36-1.17,2.4,2.4,0,0,1,1-.78,3.76,3.76,0,0,1,1.53-.29,4.38,4.38,0,0,1,1.5.26,3.19,3.19,0,0,1,1.19.73l-.41.89a3.92,3.92,0,0,0-1.1-.67,3.17,3.17,0,0,0-1.18-.22,2.12,2.12,0,0,0-1.25.32,1,1,0,0,0-.44.85,1,1,0,0,0,.27.74,2,2,0,0,0,.9.42l1.27.31a3.07,3.07,0,0,1,1.57.74,2,2,0,0,1-.29,2.88A3.57,3.57,0,0,1,280.84,46Z"/><path class="cls-8" d="M291.91,45a3.56,3.56,0,0,1-1.27.73,4.77,4.77,0,0,1-1.58.27,4.13,4.13,0,0,1-2-.46,3.16,3.16,0,0,1-1.31-1.35,4.51,4.51,0,0,1-.45-2.09,4.45,4.45,0,0,1,.45-2A3.34,3.34,0,0,1,287,38.69a3.44,3.44,0,0,1,1.85-.5,3.29,3.29,0,0,1,1.73.44,2.91,2.91,0,0,1,1.1,1.27,4.76,4.76,0,0,1,.38,2v.23h-5.7v-.8h5l-.39.56a3.11,3.11,0,0,0-.52-2,1.88,1.88,0,0,0-1.59-.7,2.07,2.07,0,0,0-1.72.77,3.29,3.29,0,0,0-.62,2.14,3.27,3.27,0,0,0,.65,2.22,2.39,2.39,0,0,0,1.91.75,3.9,3.9,0,0,0,1.27-.22,4.15,4.15,0,0,0,1.16-.67Z"/><path class="cls-8" d="M300.53,45.92h-1.2v-2l.18.17a2.5,2.5,0,0,1-1,1.45,3,3,0,0,1-1.76.51,3.14,3.14,0,0,1-1.75-.49,3.19,3.19,0,0,1-1.17-1.38,4.78,4.78,0,0,1-.42-2.07,4.71,4.71,0,0,1,.41-2.06A3.09,3.09,0,0,1,295,38.67a3.2,3.2,0,0,1,1.76-.48,2.91,2.91,0,0,1,1.76.52,2.53,2.53,0,0,1,1,1.45l-.19.15V34.88h1.21ZM297,45a2.06,2.06,0,0,0,1.7-.76,3.34,3.34,0,0,0,.61-2.15,3.37,3.37,0,0,0-.6-2.14,2,2,0,0,0-1.71-.76,2.12,2.12,0,0,0-1.73.75,3.21,3.21,0,0,0-.62,2.12,3.31,3.31,0,0,0,.62,2.16A2.08,2.08,0,0,0,297,45Z"/><path class="cls-8" d="M248.41,63.92V58.49c0-.35,0-.71,0-1.06a9.28,9.28,0,0,0-.09-1.06h1.15l.17,1.86-.17,0a2.37,2.37,0,0,1,.91-1.5,2.65,2.65,0,0,1,1.57-.5l.36,0,.33.07,0,1.11a2.45,2.45,0,0,0-.8-.12,2.06,2.06,0,0,0-1.25.35,2,2,0,0,0-.69.87,2.87,2.87,0,0,0-.22,1.12v4.31Z"/><path class="cls-8" d="M259.87,63a3.56,3.56,0,0,1-1.27.73A4.77,4.77,0,0,1,257,64a4.13,4.13,0,0,1-2-.46,3.16,3.16,0,0,1-1.31-1.35,4.51,4.51,0,0,1-.45-2.09,4.45,4.45,0,0,1,.45-2,3.34,3.34,0,0,1,1.25-1.38,3.44,3.44,0,0,1,1.85-.5,3.29,3.29,0,0,1,1.73.44,2.91,2.91,0,0,1,1.1,1.27,4.76,4.76,0,0,1,.38,2v.23h-5.7v-.8h5l-.39.56a3.11,3.11,0,0,0-.52-2,1.88,1.88,0,0,0-1.59-.7,2.07,2.07,0,0,0-1.72.77,4.06,4.06,0,0,0,0,4.36A2.39,2.39,0,0,0,257,63a3.9,3.9,0,0,0,1.27-.22,4.15,4.15,0,0,0,1.16-.67Z"/><path class="cls-8" d="M261.85,63.92v-11h1.21v11Z"/><path class="cls-8" d="M271.6,63a3.56,3.56,0,0,1-1.27.73,4.77,4.77,0,0,1-1.58.27,4.13,4.13,0,0,1-2-.46,3.16,3.16,0,0,1-1.31-1.35,4.51,4.51,0,0,1-.45-2.09,4.45,4.45,0,0,1,.45-2,3.34,3.34,0,0,1,1.25-1.38,3.44,3.44,0,0,1,1.85-.5,3.29,3.29,0,0,1,1.73.44,2.91,2.91,0,0,1,1.1,1.27,4.76,4.76,0,0,1,.38,2v.23H266v-.8h5l-.39.56a3.11,3.11,0,0,0-.52-2,1.88,1.88,0,0,0-1.59-.7,2.07,2.07,0,0,0-1.72.77,4.06,4.06,0,0,0,0,4.36,2.39,2.39,0,0,0,1.91.75A3.9,3.9,0,0,0,270,62.8a4.15,4.15,0,0,0,1.16-.67Z"/><path class="cls-8" d="M276.47,64a3.28,3.28,0,0,1-1.76-.47,3.09,3.09,0,0,1-1.17-1.35,5.35,5.35,0,0,1,0-4.13,3.31,3.31,0,0,1,1.17-1.38,3.15,3.15,0,0,1,1.75-.5,3,3,0,0,1,1.76.51,2.52,2.52,0,0,1,1,1.46l-.18.12V56.37h1.2v7.55H279V62l.18.09a2.5,2.5,0,0,1-1,1.45A3,3,0,0,1,276.47,64Zm.24-1a2.07,2.07,0,0,0,1.71-.76,3.4,3.4,0,0,0,.6-2.15,3.32,3.32,0,0,0-.61-2.15,2.06,2.06,0,0,0-1.7-.75A2.1,2.1,0,0,0,275,58a3.35,3.35,0,0,0-.62,2.16,3.22,3.22,0,0,0,.62,2.13A2.12,2.12,0,0,0,276.71,63Z"/><path class="cls-8" d="M285.13,64a4.42,4.42,0,0,1-3-1l.41-.9a4.42,4.42,0,0,0,1.23.68,4.55,4.55,0,0,0,1.42.22,2.34,2.34,0,0,0,1.3-.3.94.94,0,0,0,.44-.84.92.92,0,0,0-.3-.72,2.43,2.43,0,0,0-1-.42l-1.27-.3a2.86,2.86,0,0,1-1.47-.75,1.81,1.81,0,0,1-.51-1.29,2,2,0,0,1,.36-1.17,2.4,2.4,0,0,1,1-.78,3.76,3.76,0,0,1,1.53-.29,4.38,4.38,0,0,1,1.5.26,3.19,3.19,0,0,1,1.19.73l-.41.89a3.92,3.92,0,0,0-1.1-.67,3.17,3.17,0,0,0-1.18-.22,2.12,2.12,0,0,0-1.25.32,1,1,0,0,0-.44.85,1,1,0,0,0,.27.74,2,2,0,0,0,.9.42l1.27.31a3.07,3.07,0,0,1,1.57.74,2,2,0,0,1-.29,2.88A3.57,3.57,0,0,1,285.13,64Z"/><path class="cls-8" d="M296.2,63a3.56,3.56,0,0,1-1.27.73,4.77,4.77,0,0,1-1.58.27,4.13,4.13,0,0,1-2-.46A3.16,3.16,0,0,1,290,62.21a4.51,4.51,0,0,1-.45-2.09,4.45,4.45,0,0,1,.45-2,3.34,3.34,0,0,1,1.25-1.38,3.44,3.44,0,0,1,1.85-.5,3.29,3.29,0,0,1,1.73.44A2.91,2.91,0,0,1,296,57.9a4.76,4.76,0,0,1,.38,2v.23h-5.7v-.8h5l-.39.56a3.11,3.11,0,0,0-.52-2,1.88,1.88,0,0,0-1.59-.7,2.07,2.07,0,0,0-1.72.77,4.06,4.06,0,0,0,0,4.36,2.39,2.39,0,0,0,1.91.75,3.9,3.9,0,0,0,1.27-.22,4.15,4.15,0,0,0,1.16-.67Z"/><path class="cls-8" d="M304.82,63.92h-1.2v-2l.18.17a2.5,2.5,0,0,1-1,1.45,3,3,0,0,1-1.76.51,3.14,3.14,0,0,1-1.75-.49,3.19,3.19,0,0,1-1.17-1.38,4.78,4.78,0,0,1-.42-2.07,4.71,4.71,0,0,1,.41-2.06,3.09,3.09,0,0,1,1.17-1.35,3.2,3.2,0,0,1,1.76-.48,2.91,2.91,0,0,1,1.76.52,2.53,2.53,0,0,1,1,1.45l-.19.15V52.88h1.21Zm-3.51-.9a2.06,2.06,0,0,0,1.7-.76A4.11,4.11,0,0,0,303,58a2,2,0,0,0-1.71-.76,2.12,2.12,0,0,0-1.73.75,3.21,3.21,0,0,0-.62,2.12,3.31,3.31,0,0,0,.62,2.16A2.08,2.08,0,0,0,301.31,63Z"/></g><polygon class="cls-8" points="314.19 44.73 319.17 36.11 309.21 36.11 314.19 44.73"/></g></g></svg>