<svg xmlns="http://www.w3.org/2000/svg" viewBox="0 0 595.28 42.52"><defs><style>.cls-1{fill:#231f20;}.cls-2{fill:#8b98cc;}.cls-3{fill:#a4def3;}.cls-4{fill:#77d0ee;}.cls-5{fill:#717fbe;}.cls-6{fill:none;}</style></defs><g id="Layer_2" data-name="Layer 2"><g id="Layer_1-2" data-name="Layer 1"><path class="cls-1" d="M85.23,34.38V8.75H96.5a10,10,0,0,1,6.21,1.76A5.89,5.89,0,0,1,105,15.45a5.89,5.89,0,0,1-1.18,3.7,6.14,6.14,0,0,1-3.35,2.16V21a6.54,6.54,0,0,1,3.83,2.19,6.42,6.42,0,0,1,1.35,4.18,6.2,6.2,0,0,1-2.32,5.13,10.2,10.2,0,0,1-6.5,1.85Zm4.54-14.83h5.94a6.08,6.08,0,0,0,3.67-.9,3.18,3.18,0,0,0,1.19-2.7,3.13,3.13,0,0,0-1.19-2.7,6.25,6.25,0,0,0-3.67-.86H89.77Zm0,11.2h6.59a6.21,6.21,0,0,0,3.72-.89A3.34,3.34,0,0,0,101.25,27a3.44,3.44,0,0,0-1.19-2.88,6,6,0,0,0-3.7-.93H89.77Z"/><path class="cls-1" d="M109.71,34.38V7.89h4.5V34.38Z"/><path class="cls-1" d="M125.66,34.63a6.4,6.4,0,0,1-5-1.85c-1.12-1.24-1.68-3.1-1.68-5.6v-11h4.5v11a4.3,4.3,0,0,0,.83,2.91,3.12,3.12,0,0,0,2.48.94,4.07,4.07,0,0,0,3.17-1.3,4.9,4.9,0,0,0,1.19-3.45V16.2h4.54V34.38h-4.4V30.64l.47,0a6.27,6.27,0,0,1-2.37,3A6.73,6.73,0,0,1,125.66,34.63Z"/><path class="cls-1" d="M156.11,32.37A9.24,9.24,0,0,1,152.93,34a12.61,12.61,0,0,1-3.84.59A11,11,0,0,1,144,33.52a7.73,7.73,0,0,1-3.29-3.24,10.42,10.42,0,0,1-1.16-5,10.62,10.62,0,0,1,1.12-4.95,8.29,8.29,0,0,1,3.1-3.35,8.64,8.64,0,0,1,4.57-1.21,8.16,8.16,0,0,1,4.32,1.1A7.28,7.28,0,0,1,155.45,20a11.09,11.09,0,0,1,1,4.86v.69H143.51l0-2.42h10.22l-1.22,1.23a6.3,6.3,0,0,0-1-4A3.65,3.65,0,0,0,148.45,19a4,4,0,0,0-3.35,1.53,7,7,0,0,0-1.19,4.38,7.13,7.13,0,0,0,1.33,4.77,5.06,5.06,0,0,0,4,1.53,8.75,8.75,0,0,0,2.9-.49,9.31,9.31,0,0,0,2.65-1.42Z"/><path class="cls-1" d="M157.73,19.59V16.2h12.82v3.39Zm12.82,11.05V34.2a6.81,6.81,0,0,1-1.42.34,11.86,11.86,0,0,1-1.5.09,6.29,6.29,0,0,1-4.73-1.72,6.85,6.85,0,0,1-1.67-5V11.77l4.5-1.51V27.72a4,4,0,0,0,.39,1.93,2.24,2.24,0,0,0,1.06,1,3.79,3.79,0,0,0,1.5.29,5.29,5.29,0,0,0,.9-.08A9.61,9.61,0,0,0,170.55,30.64Z"/><path class="cls-1" d="M181.89,34.63A9.9,9.9,0,0,1,177,33.48a7.83,7.83,0,0,1-3.19-3.26,10.6,10.6,0,0,1-1.12-5,10.77,10.77,0,0,1,1.12-5A7.73,7.73,0,0,1,177,16.89a9.9,9.9,0,0,1,4.91-1.16,9.76,9.76,0,0,1,4.84,1.16,7.9,7.9,0,0,1,3.21,3.29,10.65,10.65,0,0,1,1.13,5,10.48,10.48,0,0,1-1.13,5,8,8,0,0,1-3.21,3.26A9.76,9.76,0,0,1,181.89,34.63Zm0-3.45a4.17,4.17,0,0,0,3.44-1.5,7,7,0,0,0,1.2-4.48,7,7,0,0,0-1.2-4.44,4.17,4.17,0,0,0-3.44-1.5,4.31,4.31,0,0,0-3.51,1.5,6.78,6.78,0,0,0-1.24,4.44,7,7,0,0,0,1.22,4.48A4.29,4.29,0,0,0,181.89,31.18Z"/><path class="cls-1" d="M203.2,34.63a9.93,9.93,0,0,1-4.91-1.15,7.89,7.89,0,0,1-3.19-3.26,10.6,10.6,0,0,1-1.11-5,10.77,10.77,0,0,1,1.11-5,7.79,7.79,0,0,1,3.19-3.29,9.93,9.93,0,0,1,4.91-1.16A9.76,9.76,0,0,1,208,16.89a7.9,7.9,0,0,1,3.21,3.29,10.65,10.65,0,0,1,1.13,5,10.48,10.48,0,0,1-1.13,5A8,8,0,0,1,208,33.48,9.76,9.76,0,0,1,203.2,34.63Zm0-3.45a4.17,4.17,0,0,0,3.44-1.5,7,7,0,0,0,1.21-4.48,7,7,0,0,0-1.21-4.44,4.17,4.17,0,0,0-3.44-1.5,4.31,4.31,0,0,0-3.51,1.5,6.78,6.78,0,0,0-1.24,4.44,7,7,0,0,0,1.22,4.48A4.31,4.31,0,0,0,203.2,31.18Z"/><path class="cls-1" d="M213.89,19.59V16.2h12.82v3.39Zm12.82,11.05V34.2a6.81,6.81,0,0,1-1.42.34,11.86,11.86,0,0,1-1.5.09,6.29,6.29,0,0,1-4.73-1.72,6.85,6.85,0,0,1-1.67-5V11.77l4.5-1.51V27.72a4,4,0,0,0,.39,1.93,2.24,2.24,0,0,0,1.06,1,3.79,3.79,0,0,0,1.5.29,5.29,5.29,0,0,0,.9-.08A9.61,9.61,0,0,0,226.71,30.64Z"/><path class="cls-1" d="M229.77,34.38V7.89h4.5v12l-.54,0a6.48,6.48,0,0,1,2.57-3.11,7.32,7.32,0,0,1,3.94-1.07q6.49,0,6.49,7.49V34.38h-4.5v-11a4.82,4.82,0,0,0-.83-3.11,3.17,3.17,0,0,0-2.56-1,4.39,4.39,0,0,0-3.33,1.31,4.86,4.86,0,0,0-1.24,3.48V34.38Z"/><path class="cls-2" d="M54.73,30.07l-13.9,12a1.9,1.9,0,0,1-1.23.46,2,2,0,0,1-.78-.17,1.87,1.87,0,0,1-1.09-1.71V32.38a1.88,1.88,0,1,1,3.75,0v4.16l6-5.14,3-2.57L30.29,15.13A1.87,1.87,0,0,1,32.4,12L54.56,27.1a1.87,1.87,0,0,1,.17,3Z"/><path class="cls-3" d="M41.48,32.38v4.16l-3.75,3.24v-7.4a1.88,1.88,0,1,1,3.75,0Z"/><path class="cls-4" d="M41.48,34.92v1.62l-3.75,3.24V38.16Z"/><path class="cls-5" d="M47.12,22l-3.34,2.27-5.62-3.83,3.34-2.27Z"/><path class="cls-3" d="M55.38,14a1.9,1.9,0,0,1-.82,1.44L32.4,30.49a1.87,1.87,0,0,1-2.11-3.1l20.14-13.7L43.09,7.36h0L41.48,6v4.41a1.88,1.88,0,1,1-3.75,0V1.88A1.87,1.87,0,0,1,38.82.17a1.89,1.89,0,0,1,2,.29l13.9,12A1.9,1.9,0,0,1,55.38,14Z"/><path class="cls-2" d="M41.48,6v4.41a1.88,1.88,0,1,1-3.75,0V2.74Z"/><path class="cls-5" d="M41.48,6V7.63L37.73,4.39V2.74Z"/><rect class="cls-6" width="595.28" height="18"/></g></g></svg>