<svg xmlns="http://www.w3.org/2000/svg" viewBox="0 0 595.28 41"><defs><style>.cls-1{fill:none;}.cls-2{fill:#8e4582;}.cls-3{fill:#b056a1;}.cls-4{fill:#c788bb;}.cls-5{fill:#3c866d;}.cls-6{fill:#4ba587;}.cls-7{fill:#81c1ab;}.cls-8{opacity:0.6;}.cls-9{fill:#fff;}.cls-10{isolation:isolate;}.cls-11{fill:#010101;}</style></defs><g id="Layer_2" data-name="Layer 2"><g id="Layer_1-2" data-name="Layer 1"><rect class="cls-1" width="595.28" height="18"/><path class="cls-2" d="M1,9A8,8,0,0,1,9,1h7l6,4h3l6-4H244.5V37H30.5l-6,4h-3l-6-4H9a8,8,0,0,1-8-8ZM234.5,6H159.7v5c0,10-8-8-8,7.5s8-2.5,8,7.5v7h74.8Z"/><path class="cls-3" d="M0,8A8,8,0,0,1,8,0h7l6,4h3l6-4H243.5V36H29.5l-6,4h-3l-6-4H8a8,8,0,0,1-8-8ZM233.5,5H158.7v5c0,10-8-8-8,7.5s8-2.5,8,7.5v7h74.8Z"/><path class="cls-4" d="M2.34,33.66A8,8,0,0,1,0,28V8H1V28a7,7,0,0,0,2.05,5ZM234.5,33H159.2V32h74.3V5.5h1Zm-80.65-8.27-.5-.86,3.68-2.1.5.86ZM1,7.53,0,7.47A8,8,0,0,1,8,0h7.17l6,4h2.7l6-4H243V1H30.15l-6,4h-3.3l-6-4H8A7,7,0,0,0,1,7.53Z"/><path class="cls-5" d="M160.7,7h72.8V32H160.7V27c0-10-8,8-8-7.5s8,2.5,8-7.5Z"/><path class="cls-6" d="M159.7,6h72.8V31H159.7V26c0-10-8,8-8-7.5s8,2.5,8-7.5Z"/><path class="cls-7" d="M160.7,30.5h-1v-6h1Zm-8.34-6.37a20.9,20.9,0,0,1,0-11.26l1,.26a20,20,0,0,0,0,10.74ZM160.7,14h-1V6H232V7H160.7Z"/><g class="cls-8"><rect class="cls-9" x="186.7" y="11" width="18.8" height="16" rx="4"/></g><g class="cls-10"><path class="cls-11" d="M196.2,23.62a3.14,3.14,0,0,1-2.78-1.39,7.14,7.14,0,0,1-.95-4.07,7.23,7.23,0,0,1,.94-4.07,3.5,3.5,0,0,1,5.58,0,7.19,7.19,0,0,1,.95,4.05,7.15,7.15,0,0,1-1,4.08A3.13,3.13,0,0,1,196.2,23.62Zm0-1a2,2,0,0,0,1.88-1.08,7.07,7.07,0,0,0,.61-3.37,6.89,6.89,0,0,0-.61-3.33,2.19,2.19,0,0,0-3.76,0,6.87,6.87,0,0,0-.61,3.32,7.07,7.07,0,0,0,.61,3.37A2,2,0,0,0,196.2,22.59Z"/></g><g class="cls-10"><path class="cls-9" d="M11.32,22.5V11.82h4.29a4,4,0,0,1,2.54.73,2.5,2.5,0,0,1,.91,2.06,2.5,2.5,0,0,1-.5,1.57,2.78,2.78,0,0,1-1.39.91V17a2.6,2.6,0,0,1,1.58.88,2.64,2.64,0,0,1,.57,1.74,2.62,2.62,0,0,1-.94,2.16,4.07,4.07,0,0,1-2.62.75Zm1.22-5.94h2.88a2.91,2.91,0,0,0,1.82-.48,1.7,1.7,0,0,0,.61-1.41,1.61,1.61,0,0,0-.6-1.37,3,3,0,0,0-1.83-.46H12.54Zm0,4.92h3.11A2.94,2.94,0,0,0,17.51,21a1.73,1.73,0,0,0,.59-1.45,1.8,1.8,0,0,0-.6-1.47,2.88,2.88,0,0,0-1.85-.5H12.54Z"/><path class="cls-9" d="M21.38,22.5v-11H22.6v11Z"/><path class="cls-9" d="M27.62,22.61a2.61,2.61,0,0,1-2-.75,3.23,3.23,0,0,1-.68-2.23V15h1.21v4.65a2.24,2.24,0,0,0,.42,1.5,1.65,1.65,0,0,0,1.28.48,2.14,2.14,0,0,0,1.62-.65,2.4,2.4,0,0,0,.61-1.72V15h1.22V22.5H30.08V20.87l.18-.09a2.48,2.48,0,0,1-1,1.36A2.91,2.91,0,0,1,27.62,22.61Z"/><path class="cls-9" d="M39.79,21.6a3.49,3.49,0,0,1-1.27.74,5,5,0,0,1-1.58.27,4.16,4.16,0,0,1-2-.47,3.17,3.17,0,0,1-1.3-1.34,4.44,4.44,0,0,1-.46-2.09,4.47,4.47,0,0,1,.45-2.06,3.41,3.41,0,0,1,1.25-1.38,3.46,3.46,0,0,1,1.85-.49,3.2,3.2,0,0,1,1.73.44,2.8,2.8,0,0,1,1.1,1.27,4.6,4.6,0,0,1,.38,2v.22H34.23v-.8h5l-.39.56a3.19,3.19,0,0,0-.51-2,1.94,1.94,0,0,0-1.6-.7,2.11,2.11,0,0,0-1.72.77,3.36,3.36,0,0,0-.62,2.14A3.32,3.32,0,0,0,35,20.85,2.41,2.41,0,0,0,37,21.6a3.56,3.56,0,0,0,1.26-.22,4,4,0,0,0,1.16-.66Z"/><path class="cls-9" d="M40.66,15.92V15H45.5v1Zm4.81,5.5v1a4.48,4.48,0,0,1-.5.11,4.43,4.43,0,0,1-.55,0,2.31,2.31,0,0,1-1.67-.6,2.41,2.41,0,0,1-.62-1.8V13l1.21-.43V20a2,2,0,0,0,.18.93,1,1,0,0,0,.47.46,1.78,1.78,0,0,0,.67.12,2.62,2.62,0,0,0,.41,0A2.73,2.73,0,0,0,45.47,21.42Z"/><path class="cls-9" d="M50.09,22.61a3.6,3.6,0,0,1-1.88-.48A3.33,3.33,0,0,1,47,20.77a4.52,4.52,0,0,1-.44-2.08A4.51,4.51,0,0,1,47,16.62a3.21,3.21,0,0,1,1.24-1.36,3.6,3.6,0,0,1,1.88-.48,3.64,3.64,0,0,1,1.89.48,3.21,3.21,0,0,1,1.24,1.36,4.51,4.51,0,0,1,.44,2.07,4.52,4.52,0,0,1-.44,2.08A3.33,3.33,0,0,1,52,22.13,3.64,3.64,0,0,1,50.09,22.61Zm0-1a2.11,2.11,0,0,0,1.72-.74,3.34,3.34,0,0,0,.61-2.17,3.29,3.29,0,0,0-.62-2.14,2.32,2.32,0,0,0-3.42,0,3.23,3.23,0,0,0-.63,2.14,3.4,3.4,0,0,0,.61,2.17A2.13,2.13,0,0,0,50.09,21.6Z"/><path class="cls-9" d="M58.67,22.61a3.6,3.6,0,0,1-1.88-.48,3.33,3.33,0,0,1-1.24-1.36,4.52,4.52,0,0,1-.44-2.08,4.51,4.51,0,0,1,.44-2.07,3.21,3.21,0,0,1,1.24-1.36,3.6,3.6,0,0,1,1.88-.48,3.64,3.64,0,0,1,1.89.48,3.21,3.21,0,0,1,1.24,1.36,4.51,4.51,0,0,1,.44,2.07,4.52,4.52,0,0,1-.44,2.08,3.33,3.33,0,0,1-1.24,1.36A3.64,3.64,0,0,1,58.67,22.61Zm0-1a2.11,2.11,0,0,0,1.72-.74A3.34,3.34,0,0,0,61,18.69a3.23,3.23,0,0,0-.62-2.14,2.32,2.32,0,0,0-3.42,0,3.23,3.23,0,0,0-.62,2.14,3.4,3.4,0,0,0,.6,2.17A2.13,2.13,0,0,0,58.67,21.6Z"/><path class="cls-9" d="M63.05,15.92V15H67.9v1Zm4.82,5.5v1a5,5,0,0,1-.5.11,4.58,4.58,0,0,1-.55,0,2.29,2.29,0,0,1-1.67-.6,2.37,2.37,0,0,1-.62-1.8V13l1.21-.43V20a2.11,2.11,0,0,0,.17.93,1,1,0,0,0,.47.46,1.83,1.83,0,0,0,.68.12,2.49,2.49,0,0,0,.4,0A2.83,2.83,0,0,0,67.87,21.42Z"/><path class="cls-9" d="M69.37,22.5v-11h1.21v5l-.19.14a2.59,2.59,0,0,1,1-1.38,3,3,0,0,1,1.69-.47c1.81,0,2.72,1,2.72,3V22.5H74.63V17.82a2.34,2.34,0,0,0-.42-1.54,1.67,1.67,0,0,0-1.32-.48,2.24,2.24,0,0,0-1.68.64,2.38,2.38,0,0,0-.63,1.74V22.5Z"/><path class="cls-9" d="M82.06,22.5v-11h1.21v11Zm5.08,0L83,18.64,86.83,15h1.54l-4.2,4,0-.77,4.51,4.28Z"/><path class="cls-9" d="M95.83,21.6a3.49,3.49,0,0,1-1.27.74,5,5,0,0,1-1.58.27,4.16,4.16,0,0,1-2-.47,3.17,3.17,0,0,1-1.3-1.34,4.44,4.44,0,0,1-.46-2.09,4.47,4.47,0,0,1,.45-2.06,3.41,3.41,0,0,1,1.25-1.38,3.46,3.46,0,0,1,1.85-.49,3.2,3.2,0,0,1,1.73.44,2.8,2.8,0,0,1,1.1,1.27,4.6,4.6,0,0,1,.38,2v.22h-5.7v-.8h5l-.39.56a3.19,3.19,0,0,0-.51-2,1.94,1.94,0,0,0-1.6-.7,2.11,2.11,0,0,0-1.72.77,3.36,3.36,0,0,0-.62,2.14,3.32,3.32,0,0,0,.65,2.22A2.4,2.4,0,0,0,93,21.6a3.61,3.61,0,0,0,1.27-.22,4,4,0,0,0,1.16-.66Z"/><path class="cls-9" d="M100.12,22.89,96.73,15H98l2.73,6.66Zm-2.76,3L97.1,25a7,7,0,0,0,1.17-.38,2.43,2.43,0,0,0,.79-.57,2.83,2.83,0,0,0,.56-.91L100.1,22l.27-.37L103.13,15h1.22l-3.53,8.23a5.15,5.15,0,0,1-.91,1.46,3.44,3.44,0,0,1-1.15.84A6.37,6.37,0,0,1,97.36,25.91Z"/><path class="cls-9" d="M109.6,25.74V17.07c0-.35,0-.7,0-1.06s0-.71-.1-1.05h1.15l.14,1.55-.12.23a2.5,2.5,0,0,1,1-1.45,2.93,2.93,0,0,1,1.74-.51,3.12,3.12,0,0,1,1.75.49,3.35,3.35,0,0,1,1.19,1.38,4.78,4.78,0,0,1,.42,2.07,4.7,4.7,0,0,1-.42,2.06,3.13,3.13,0,0,1-2.94,1.83,2.87,2.87,0,0,1-1.74-.52,2.47,2.47,0,0,1-1-1.45l.16-.15v5.25Zm3.54-4.14a2.09,2.09,0,0,0,1.71-.75,3.28,3.28,0,0,0,.61-2.13,3.36,3.36,0,0,0-.61-2.15,2,2,0,0,0-1.71-.77,2.09,2.09,0,0,0-1.73.75,3.35,3.35,0,0,0-.6,2.14,3.38,3.38,0,0,0,.6,2.15A2.07,2.07,0,0,0,113.14,21.6Z"/><path class="cls-9" d="M118.6,22.5V17.07c0-.35,0-.7,0-1.06s0-.71-.1-1.05h1.15l.17,1.86-.17-.05a2.36,2.36,0,0,1,.91-1.49,2.6,2.6,0,0,1,1.57-.5,2.23,2.23,0,0,1,.37,0,1.65,1.65,0,0,1,.32.07l0,1.1a2.76,2.76,0,0,0-.8-.11A1.92,1.92,0,0,0,120,17.08a3,3,0,0,0-.22,1.12v4.3Z"/><path class="cls-9" d="M130.06,21.6a3.49,3.49,0,0,1-1.27.74,5,5,0,0,1-1.58.27,4.16,4.16,0,0,1-2-.47,3.17,3.17,0,0,1-1.3-1.34,4.44,4.44,0,0,1-.46-2.09,4.47,4.47,0,0,1,.45-2.06,3.41,3.41,0,0,1,1.25-1.38,3.46,3.46,0,0,1,1.85-.49,3.2,3.2,0,0,1,1.73.44,2.8,2.8,0,0,1,1.1,1.27,4.6,4.6,0,0,1,.38,2v.22h-5.7v-.8h5l-.39.56a3.19,3.19,0,0,0-.51-2,1.94,1.94,0,0,0-1.6-.7,2.11,2.11,0,0,0-1.72.77,3.36,3.36,0,0,0-.62,2.14,3.32,3.32,0,0,0,.65,2.22,2.4,2.4,0,0,0,1.91.75,3.61,3.61,0,0,0,1.27-.22,4,4,0,0,0,1.16-.66Z"/><path class="cls-9" d="M134.59,22.61a4.42,4.42,0,0,1-3-1l.41-.9a4.11,4.11,0,0,0,1.24.68,4.17,4.17,0,0,0,1.41.22,2.41,2.41,0,0,0,1.3-.29,1,1,0,0,0,.44-.85.89.89,0,0,0-.3-.71,2.3,2.3,0,0,0-1-.43l-1.27-.3a2.78,2.78,0,0,1-1.46-.75,1.78,1.78,0,0,1-.52-1.29,1.93,1.93,0,0,1,.36-1.16,2.34,2.34,0,0,1,1-.79,3.77,3.77,0,0,1,1.53-.28,4.37,4.37,0,0,1,1.5.25,3.32,3.32,0,0,1,1.19.73l-.41.89a4,4,0,0,0-1.1-.67,3.34,3.34,0,0,0-1.18-.22,2.14,2.14,0,0,0-1.25.32,1,1,0,0,0-.44.85,1,1,0,0,0,.28.74,1.89,1.89,0,0,0,.89.42l1.27.32a2.89,2.89,0,0,1,1.57.74,1.77,1.77,0,0,1,.5,1.31,1.84,1.84,0,0,1-.79,1.56A3.57,3.57,0,0,1,134.59,22.61Z"/><path class="cls-9" d="M142,22.61a4.42,4.42,0,0,1-3-1l.41-.9a4.11,4.11,0,0,0,1.24.68,4.17,4.17,0,0,0,1.41.22,2.41,2.41,0,0,0,1.3-.29,1,1,0,0,0,.44-.85.89.89,0,0,0-.3-.71,2.3,2.3,0,0,0-1-.43l-1.27-.3a2.78,2.78,0,0,1-1.46-.75,1.78,1.78,0,0,1-.52-1.29,1.93,1.93,0,0,1,.36-1.16,2.34,2.34,0,0,1,1-.79,3.77,3.77,0,0,1,1.53-.28,4.37,4.37,0,0,1,1.5.25,3.32,3.32,0,0,1,1.19.73l-.41.89a4,4,0,0,0-1.1-.67,3.34,3.34,0,0,0-1.18-.22,2.14,2.14,0,0,0-1.25.32,1,1,0,0,0-.44.85,1,1,0,0,0,.28.74,1.89,1.89,0,0,0,.89.42l1.27.32a2.89,2.89,0,0,1,1.57.74,1.77,1.77,0,0,1,.5,1.31,1.84,1.84,0,0,1-.79,1.56A3.57,3.57,0,0,1,142,22.61Z"/></g><path class="cls-9" d="M171.84,11l2,1.56a8,8,0,0,0-1.87,2.72,7.36,7.36,0,0,0-.46,2.56L170.23,17H174v5.39h-5.34V18.57a11,11,0,0,1,.7-4A10.34,10.34,0,0,1,171.84,11Zm8.71,0,2,1.56a8,8,0,0,0-1.87,2.72,7.38,7.38,0,0,0-.47,2.56L178.94,17h3.78v5.39h-5.34V18.57a11.23,11.23,0,0,1,.7-4A10.52,10.52,0,0,1,180.55,11Z"/><path class="cls-9" d="M211.65,22.68l-2-1.56a8.64,8.64,0,0,0,1.87-2.75,7.18,7.18,0,0,0,.47-2.54l1.24.83h-3.78V11.32h5.34v3.79a11,11,0,0,1-.7,3.94A11,11,0,0,1,211.65,22.68Zm8.71,0-2-1.56a8.64,8.64,0,0,0,1.87-2.75,7.17,7.17,0,0,0,.46-2.54l1.25.83h-3.79V11.32h5.34v3.79a10.77,10.77,0,0,1-.7,3.94A10.82,10.82,0,0,1,220.36,22.68Z"/></g></g></svg>