<svg xmlns="http://www.w3.org/2000/svg" viewBox="0 0 595.39 26"><defs><style>.cls-1{fill:none;}.cls-2{fill:#8e4582;}.cls-3{fill:#b056a1;}.cls-4{fill:#c788bb;}.cls-5{isolation:isolate;}.cls-6{fill:#fff;}</style></defs><g id="Layer_2" data-name="Layer 2"><g id="Layer_1-2" data-name="Layer 1"><rect class="cls-1" x="0.12" width="595.28" height="18"/><path class="cls-2" d="M9.12,1H174.63V26H9.12V21c0-10-8,8-8-7.5s8,2.5,8-7.5Z"/><path class="cls-3" d="M8.12,0H173.63V25H8.12V20c0-10-8,8-8-7.5s8,2.5,8-7.5Z"/><path class="cls-4" d="M9.12,24.5h-1v-6h1ZM.77,18.13a20.9,20.9,0,0,1,0-11.26l1,.26a19.79,19.79,0,0,0,0,10.74ZM9.12,8h-1V0h165V1H9.12Z"/><g class="cls-5"><path class="cls-6" d="M19.44,17.5V6.82h4.29a3.93,3.93,0,0,1,2.53.73,2.48,2.48,0,0,1,.92,2.06,2.45,2.45,0,0,1-.51,1.57,2.64,2.64,0,0,1-1.38.9V12a2.6,2.6,0,0,1,1.57.89,2.64,2.64,0,0,1,.57,1.74,2.61,2.61,0,0,1-.93,2.16,4.07,4.07,0,0,1-2.62.75Zm1.21-5.94h2.88a2.89,2.89,0,0,0,1.82-.48A1.68,1.68,0,0,0,26,9.67a1.61,1.61,0,0,0-.6-1.37,3,3,0,0,0-1.83-.46H20.65Zm0,4.92h3.12A2.91,2.91,0,0,0,25.62,16a1.7,1.7,0,0,0,.6-1.45,1.8,1.8,0,0,0-.6-1.47,2.88,2.88,0,0,0-1.85-.5H20.65Z"/><path class="cls-6" d="M29.5,17.5v-11h1.22v11Z"/><path class="cls-6" d="M35.74,17.61a2.6,2.6,0,0,1-2-.75A3.18,3.18,0,0,1,33,14.63V10h1.21v4.65a2.24,2.24,0,0,0,.42,1.5,1.65,1.65,0,0,0,1.28.47,2.13,2.13,0,0,0,1.62-.64,2.41,2.41,0,0,0,.61-1.73V10h1.22V17.5H38.2V15.87l.18-.09a2.53,2.53,0,0,1-1,1.36A2.93,2.93,0,0,1,35.74,17.61Z"/><path class="cls-6" d="M47.91,16.6a3.42,3.42,0,0,1-1.27.73,4.78,4.78,0,0,1-1.58.28,4.13,4.13,0,0,1-2-.47,3.19,3.19,0,0,1-1.31-1.34,4.57,4.57,0,0,1-.45-2.09,4.47,4.47,0,0,1,.45-2.06A3.34,3.34,0,0,1,43,10.27a3.43,3.43,0,0,1,1.85-.49,3.2,3.2,0,0,1,1.73.44,2.86,2.86,0,0,1,1.1,1.27,4.74,4.74,0,0,1,.38,2v.23h-5.7v-.8h5l-.39.56a3.13,3.13,0,0,0-.52-2,1.9,1.9,0,0,0-1.59-.7,2.1,2.1,0,0,0-1.72.77,3.31,3.31,0,0,0-.62,2.14,3.27,3.27,0,0,0,.65,2.22,2.39,2.39,0,0,0,1.91.75,3.65,3.65,0,0,0,1.27-.22,3.92,3.92,0,0,0,1.16-.67Z"/><path class="cls-6" d="M48.78,10.92V10h4.84v1Zm4.81,5.5v1l-.5.11a4.58,4.58,0,0,1-.55,0A2.26,2.26,0,0,1,50.87,17a2.35,2.35,0,0,1-.62-1.79V8l1.21-.44V15a2.11,2.11,0,0,0,.17.93,1,1,0,0,0,.48.46,1.78,1.78,0,0,0,.67.12l.41,0Z"/><path class="cls-6" d="M58.21,17.61a3.49,3.49,0,0,1-1.88-.49,3.26,3.26,0,0,1-1.25-1.35,4.65,4.65,0,0,1-.44-2.08,4.64,4.64,0,0,1,.44-2.07,3.32,3.32,0,0,1,1.25-1.37,4,4,0,0,1,3.76,0,3.32,3.32,0,0,1,1.25,1.37,4.64,4.64,0,0,1,.44,2.07,4.65,4.65,0,0,1-.44,2.08,3.26,3.26,0,0,1-1.25,1.35A3.49,3.49,0,0,1,58.21,17.61Zm0-1a2.12,2.12,0,0,0,1.72-.74,3.4,3.4,0,0,0,.61-2.17,3.32,3.32,0,0,0-.62-2.15,2.09,2.09,0,0,0-1.71-.75,2.12,2.12,0,0,0-1.72.75,3.32,3.32,0,0,0-.62,2.15,3.34,3.34,0,0,0,.61,2.17A2.11,2.11,0,0,0,58.21,16.6Z"/><path class="cls-6" d="M66.79,17.61a3.49,3.49,0,0,1-1.88-.49,3.26,3.26,0,0,1-1.25-1.35,4.65,4.65,0,0,1-.44-2.08,4.64,4.64,0,0,1,.44-2.07,3.32,3.32,0,0,1,1.25-1.37,4,4,0,0,1,3.76,0,3.32,3.32,0,0,1,1.25,1.37,4.64,4.64,0,0,1,.44,2.07,4.65,4.65,0,0,1-.44,2.08,3.26,3.26,0,0,1-1.25,1.35A3.49,3.49,0,0,1,66.79,17.61Zm0-1a2.12,2.12,0,0,0,1.72-.74,3.4,3.4,0,0,0,.61-2.17,3.32,3.32,0,0,0-.62-2.15,2.09,2.09,0,0,0-1.71-.75,2.12,2.12,0,0,0-1.72.75,3.32,3.32,0,0,0-.62,2.15,3.34,3.34,0,0,0,.61,2.17A2.11,2.11,0,0,0,66.79,16.6Z"/><path class="cls-6" d="M71.17,10.92V10H76v1ZM76,16.42v1l-.51.11a4.26,4.26,0,0,1-.54,0A2.3,2.3,0,0,1,73.26,17a2.39,2.39,0,0,1-.62-1.79V8l1.22-.44V15A2,2,0,0,0,74,16a1,1,0,0,0,.47.46,1.83,1.83,0,0,0,.68.12l.4,0Z"/><path class="cls-6" d="M77.49,17.5v-11H78.7v5l-.19.14a2.59,2.59,0,0,1,1-1.38,3,3,0,0,1,1.69-.47c1.81,0,2.72,1,2.72,3V17.5H82.75V12.82a2.34,2.34,0,0,0-.42-1.54A1.67,1.67,0,0,0,81,10.79a2.24,2.24,0,0,0-1.68.65,2.38,2.38,0,0,0-.63,1.74V17.5Z"/><path class="cls-6" d="M90.18,17.5V12.07c0-.35,0-.7,0-1.06a9.1,9.1,0,0,0-.09-1h1.15l.17,1.86-.17-.05a2.32,2.32,0,0,1,.91-1.49,2.58,2.58,0,0,1,1.57-.5,2.06,2.06,0,0,1,.36,0,1.14,1.14,0,0,1,.33.07l0,1.1a2.76,2.76,0,0,0-.8-.11,2.06,2.06,0,0,0-1.25.34,1.92,1.92,0,0,0-.69.88,2.8,2.8,0,0,0-.22,1.12v4.3Z"/><path class="cls-6" d="M101.64,16.6a3.42,3.42,0,0,1-1.27.73,4.78,4.78,0,0,1-1.58.28,4.13,4.13,0,0,1-2-.47,3.19,3.19,0,0,1-1.31-1.34A4.57,4.57,0,0,1,95,13.71a4.47,4.47,0,0,1,.45-2.06,3.34,3.34,0,0,1,1.25-1.38,3.43,3.43,0,0,1,1.85-.49,3.2,3.2,0,0,1,1.73.44,2.86,2.86,0,0,1,1.1,1.27,4.74,4.74,0,0,1,.38,2v.23h-5.7v-.8h5l-.39.56a3.13,3.13,0,0,0-.52-2,1.9,1.9,0,0,0-1.59-.7,2.1,2.1,0,0,0-1.72.77,3.31,3.31,0,0,0-.62,2.14,3.27,3.27,0,0,0,.65,2.22,2.39,2.39,0,0,0,1.91.75,3.65,3.65,0,0,0,1.27-.22,3.92,3.92,0,0,0,1.16-.67Z"/><path class="cls-6" d="M106.78,17.61a3.61,3.61,0,0,1-1.92-.49,3.18,3.18,0,0,1-1.25-1.34,4.44,4.44,0,0,1-.44-2.06,4.5,4.5,0,0,1,.45-2.06,3.29,3.29,0,0,1,1.27-1.39,3.72,3.72,0,0,1,2-.49,4.16,4.16,0,0,1,1.48.26,3.31,3.31,0,0,1,1.18.72l-.41.91A4.73,4.73,0,0,0,108,11a3,3,0,0,0-1.1-.22,2.29,2.29,0,0,0-1.81.77,3.21,3.21,0,0,0-.66,2.16,3.12,3.12,0,0,0,.66,2.13,2.28,2.28,0,0,0,1.81.75,2.84,2.84,0,0,0,1.1-.22,4.35,4.35,0,0,0,1.09-.65l.41.9a3.43,3.43,0,0,1-1.21.71A4.33,4.33,0,0,1,106.78,17.61Z"/><path class="cls-6" d="M117.22,16.6a3.34,3.34,0,0,1-1.27.73,4.74,4.74,0,0,1-1.58.28,4.16,4.16,0,0,1-2-.47,3.17,3.17,0,0,1-1.3-1.34,4.44,4.44,0,0,1-.46-2.09,4.47,4.47,0,0,1,.45-2.06,3.41,3.41,0,0,1,1.25-1.38,3.49,3.49,0,0,1,1.86-.49,3.17,3.17,0,0,1,1.72.44,2.8,2.8,0,0,1,1.1,1.27,4.58,4.58,0,0,1,.39,2v.23h-5.7v-.8h5l-.39.56a3.19,3.19,0,0,0-.52-2,1.94,1.94,0,0,0-1.6-.7,2.11,2.11,0,0,0-1.72.77,3.36,3.36,0,0,0-.62,2.14,3.32,3.32,0,0,0,.65,2.22,2.42,2.42,0,0,0,1.92.75,3.56,3.56,0,0,0,1.26-.22,3.84,3.84,0,0,0,1.17-.67Z"/><path class="cls-6" d="M119.08,6.76h1.49V8.14h-1.49Zm.12,10.74V10h1.22V17.5Z"/><path class="cls-6" d="M125,17.5,121.78,10h1.28l2.73,6.65h-.36L128.19,10h1.21l-3.25,7.53Z"/><path class="cls-6" d="M136.83,16.6a3.42,3.42,0,0,1-1.27.73,4.78,4.78,0,0,1-1.58.28,4.13,4.13,0,0,1-2-.47,3.19,3.19,0,0,1-1.31-1.34,4.57,4.57,0,0,1-.45-2.09,4.47,4.47,0,0,1,.45-2.06,3.34,3.34,0,0,1,1.25-1.38,3.43,3.43,0,0,1,1.85-.49,3.2,3.2,0,0,1,1.73.44,2.86,2.86,0,0,1,1.1,1.27,4.74,4.74,0,0,1,.38,2v.23h-5.7v-.8h5l-.39.56a3.13,3.13,0,0,0-.52-2,1.9,1.9,0,0,0-1.59-.7,2.1,2.1,0,0,0-1.72.77,3.31,3.31,0,0,0-.62,2.14,3.27,3.27,0,0,0,.65,2.22,2.39,2.39,0,0,0,1.91.75,3.65,3.65,0,0,0,1.27-.22,3.92,3.92,0,0,0,1.16-.67Z"/><path class="cls-6" d="M141.65,10.92V10h4.85v1Zm4.82,5.5v1l-.5.11a4.58,4.58,0,0,1-.55,0,2.26,2.26,0,0,1-1.67-.61,2.35,2.35,0,0,1-.63-1.79V8l1.22-.44V15a2.11,2.11,0,0,0,.17.93,1,1,0,0,0,.47.46,1.83,1.83,0,0,0,.68.12l.4,0Z"/><path class="cls-6" d="M154.15,16.6a3.34,3.34,0,0,1-1.27.73,4.74,4.74,0,0,1-1.58.28,4.16,4.16,0,0,1-2-.47A3.17,3.17,0,0,1,148,15.8a4.44,4.44,0,0,1-.46-2.09,4.47,4.47,0,0,1,.45-2.06,3.41,3.41,0,0,1,1.25-1.38,3.46,3.46,0,0,1,1.85-.49,3.2,3.2,0,0,1,1.73.44,2.8,2.8,0,0,1,1.1,1.27,4.59,4.59,0,0,1,.38,2v.23h-5.7v-.8h5l-.39.56a3.19,3.19,0,0,0-.51-2,1.94,1.94,0,0,0-1.6-.7,2.11,2.11,0,0,0-1.72.77,3.36,3.36,0,0,0-.62,2.14,3.32,3.32,0,0,0,.65,2.22,2.4,2.4,0,0,0,1.91.75,3.61,3.61,0,0,0,1.27-.22,3.8,3.8,0,0,0,1.16-.67Z"/><path class="cls-6" d="M156.5,17.5H155l3.13-3.88.71-.89L161.05,10h1.48l-2.94,3.66-.73.91Zm4.74,0-2.38-3-.71-.91-3-3.66h1.47l2.19,2.77.73.89,3.11,3.88Z"/><path class="cls-6" d="M163,10.92V10h4.85v1Zm4.82,5.5v1l-.5.11a4.58,4.58,0,0,1-.55,0,2.26,2.26,0,0,1-1.67-.61,2.35,2.35,0,0,1-.63-1.79V8l1.22-.44V15a2.11,2.11,0,0,0,.17.93,1,1,0,0,0,.47.46,1.83,1.83,0,0,0,.68.12l.4,0Z"/></g></g></g></svg>