<svg xmlns="http://www.w3.org/2000/svg" viewBox="0 0 595.39 65.78"><defs><style>.cls-1{fill:none;}.cls-2{fill:#b2d5c7;}.cls-3{isolation:isolate;}.cls-4{fill:#010101;}.cls-5{fill:#3c866d;}.cls-6{fill:#4ba587;}.cls-7{fill:#81c1ab;}.cls-8{fill:#fff;}.cls-9{opacity:0.6;}</style></defs><g id="Layer_2" data-name="Layer 2"><g id="Layer_1-2" data-name="Layer 1"><rect class="cls-1" x="0.12" width="595.28" height="18"/><rect class="cls-2" x="94.68" y="31.69" width="62.81" height="34.09" rx="5.67"/><g class="cls-3"><path class="cls-4" d="M99.19,38V37H104v1Zm4.82,5.5v1a3.22,3.22,0,0,1-.5.11,3.16,3.16,0,0,1-.55,0,2.29,2.29,0,0,1-1.67-.6,2.37,2.37,0,0,1-.63-1.8V35.08l1.22-.43V42.1a2.08,2.08,0,0,0,.17.93.91.91,0,0,0,.47.46,1.65,1.65,0,0,0,.68.13,2.41,2.41,0,0,0,.4,0A2.83,2.83,0,0,0,104,43.48Z"/><path class="cls-4" d="M111.69,43.66a3.49,3.49,0,0,1-1.27.74,4.73,4.73,0,0,1-1.58.27,4.16,4.16,0,0,1-2-.47,3.12,3.12,0,0,1-1.3-1.34,4.94,4.94,0,0,1,0-4.14,3.44,3.44,0,0,1,1.25-1.39,3.55,3.55,0,0,1,1.85-.49,3.29,3.29,0,0,1,1.73.44,2.85,2.85,0,0,1,1.1,1.27,4.6,4.6,0,0,1,.38,2v.23h-5.7V40h5l-.39.55a3.14,3.14,0,0,0-.51-2,1.91,1.91,0,0,0-1.6-.71,2.09,2.09,0,0,0-1.72.78,3.31,3.31,0,0,0-.62,2.13,3.31,3.31,0,0,0,.65,2.22,2.37,2.37,0,0,0,1.91.75,3.85,3.85,0,0,0,1.27-.21,4,4,0,0,0,1.16-.67Z"/><path class="cls-4" d="M114,44.56h-1.48l3.13-3.88.71-.88L118.59,37h1.48l-2.94,3.66-.73.91Zm4.74,0-2.38-3-.71-.91-3-3.66h1.47l2.19,2.78.73.88,3.11,3.88Z"/><path class="cls-4" d="M120.52,38V37h4.85v1Zm4.82,5.5v1a3.22,3.22,0,0,1-.5.11,3.16,3.16,0,0,1-.55,0,2.29,2.29,0,0,1-1.67-.6,2.37,2.37,0,0,1-.63-1.8V35.08l1.22-.43V42.1a2.08,2.08,0,0,0,.17.93.91.91,0,0,0,.47.46,1.65,1.65,0,0,0,.68.13,2.41,2.41,0,0,0,.4,0A2.83,2.83,0,0,0,125.34,43.48Z"/><path class="cls-4" d="M100.26,62.56V57.13c0-.35,0-.7,0-1.05s0-.71-.1-1.06h1.15l.14,1.56-.15.12a2.61,2.61,0,0,1,1-1.39,3.09,3.09,0,0,1,1.69-.47c1.81,0,2.72,1,2.72,3v4.74h-1.22V57.88a2.29,2.29,0,0,0-.42-1.53,1.64,1.64,0,0,0-1.32-.49,2.21,2.21,0,0,0-1.68.65,2.34,2.34,0,0,0-.63,1.73v4.32Z"/><path class="cls-4" d="M111.7,62.67a2.61,2.61,0,0,1-2-.75A3.22,3.22,0,0,1,109,59.7V55h1.21v4.65a2.24,2.24,0,0,0,.42,1.5,1.62,1.62,0,0,0,1.28.48,2.17,2.17,0,0,0,1.62-.64,2.42,2.42,0,0,0,.61-1.73V55h1.22v7.54h-1.19V60.93l.18-.09a2.48,2.48,0,0,1-1,1.36A2.91,2.91,0,0,1,111.7,62.67Z"/><path class="cls-4" d="M117.69,62.56V57.13c0-.35,0-.7,0-1.05s0-.71-.1-1.06h1.15l.14,1.56-.15.1a2.49,2.49,0,0,1,.94-1.36,2.62,2.62,0,0,1,1.58-.48,2.46,2.46,0,0,1,1.7.54A2.62,2.62,0,0,1,123.7,57l-.36-.2a2.58,2.58,0,0,1,1-1.45,2.87,2.87,0,0,1,1.75-.54,2.33,2.33,0,0,1,1.87.74,3.4,3.4,0,0,1,.63,2.24v4.74h-1.21V57.88a2.49,2.49,0,0,0-.38-1.53,1.38,1.38,0,0,0-1.18-.49,1.82,1.82,0,0,0-1.49.65,2.57,2.57,0,0,0-.55,1.75v4.3h-1.22V57.88a2.42,2.42,0,0,0-.38-1.53,1.4,1.4,0,0,0-1.19-.49,1.86,1.86,0,0,0-1.51.65,2.62,2.62,0,0,0-.55,1.75v4.3Z"/><path class="cls-4" d="M130.87,62.56v-11h1.22V57l-.17-.15a2.52,2.52,0,0,1,1-1.44,2.87,2.87,0,0,1,1.74-.52,3.17,3.17,0,0,1,1.75.48,3.24,3.24,0,0,1,1.18,1.35,4.52,4.52,0,0,1,.43,2,4.68,4.68,0,0,1-.43,2.08,3.21,3.21,0,0,1-1.18,1.38,3.14,3.14,0,0,1-1.75.49,2.93,2.93,0,0,1-1.74-.51,2.54,2.54,0,0,1-1-1.46l.17-.16v2Zm3.54-.9a2,2,0,0,0,1.71-.77,3.4,3.4,0,0,0,.62-2.17,3.24,3.24,0,0,0-.62-2.11,2.09,2.09,0,0,0-1.71-.75,2,2,0,0,0-1.72.76,3.37,3.37,0,0,0-.6,2.14,3.42,3.42,0,0,0,.6,2.15A2.07,2.07,0,0,0,134.41,61.66Z"/><path class="cls-4" d="M146.05,61.66a3.53,3.53,0,0,1-1.26.74,4.83,4.83,0,0,1-1.59.27,4.09,4.09,0,0,1-2-.47,3.14,3.14,0,0,1-1.31-1.34,4.51,4.51,0,0,1-.46-2.09,4.42,4.42,0,0,1,.45-2.05,3.39,3.39,0,0,1,1.26-1.39,3.52,3.52,0,0,1,1.85-.49,3.26,3.26,0,0,1,1.72.44,2.93,2.93,0,0,1,1.11,1.27,4.76,4.76,0,0,1,.38,2v.23h-5.7V58h5l-.39.55a3.08,3.08,0,0,0-.52-2,1.9,1.9,0,0,0-1.6-.71,2.06,2.06,0,0,0-1.71.78,4,4,0,0,0,0,4.35,2.35,2.35,0,0,0,1.91.75,3.89,3.89,0,0,0,1.27-.21,4.15,4.15,0,0,0,1.16-.67Z"/><path class="cls-4" d="M148,62.56V57.13c0-.35,0-.7,0-1.05a9.28,9.28,0,0,0-.1-1.06h1.16l.16,1.86-.16-.05a2.37,2.37,0,0,1,.91-1.49,2.62,2.62,0,0,1,1.56-.5l.37,0,.32.07,0,1.11a2.39,2.39,0,0,0-.79-.12,2.06,2.06,0,0,0-1.25.34,2,2,0,0,0-.69.88,2.87,2.87,0,0,0-.22,1.12v4.3Z"/></g><polygon class="cls-4" points="148.5 44.38 153.48 35.75 143.53 35.75 148.5 44.38"/><path class="cls-5" d="M9.12,1H266V6c0,10-8-8-8,7.5s8-2.5,8,7.5v5H9.12V21c0-10-8,8-8-7.5s8,2.5,8-7.5Z"/><path class="cls-6" d="M8.12,0H265V5c0,10-8-8-8,7.5s8-2.5,8,7.5v5H8.12V20c0-10-8,8-8-7.5s8,2.5,8-7.5Z"/><path class="cls-7" d="M9.12,24.5h-1v-6h1Zm251.13-4.77-.5-.86,3.68-2.1.5.86ZM.77,18.13a20.9,20.9,0,0,1,0-11.26l1,.26a19.79,19.79,0,0,0,0,10.74ZM9.12,8h-1V0H264.5V1H9.12Z"/><g class="cls-3"><path class="cls-8" d="M19.29,20.74V12.07c0-.35,0-.7,0-1.06a9.1,9.1,0,0,0-.09-1h1.15l.14,1.55-.12.23a2.5,2.5,0,0,1,1-1.45,2.93,2.93,0,0,1,1.74-.51,3.14,3.14,0,0,1,1.75.49A3.33,3.33,0,0,1,26,11.65a4.64,4.64,0,0,1,.43,2.07A4.57,4.57,0,0,1,26,15.78a3.11,3.11,0,0,1-1.17,1.35,3.2,3.2,0,0,1-1.76.48,2.87,2.87,0,0,1-1.74-.52,2.47,2.47,0,0,1-1-1.45l.16-.15v5.25Zm3.54-4.14a2.09,2.09,0,0,0,1.71-.75,3.28,3.28,0,0,0,.61-2.13,3.36,3.36,0,0,0-.61-2.15,2,2,0,0,0-1.71-.77,2.09,2.09,0,0,0-1.73.75,3.35,3.35,0,0,0-.6,2.14,3.38,3.38,0,0,0,.6,2.15A2.07,2.07,0,0,0,22.83,16.6Z"/><path class="cls-8" d="M28.29,17.5V12.07c0-.35,0-.7,0-1.06a9.1,9.1,0,0,0-.09-1h1.15l.17,1.86-.17-.05a2.32,2.32,0,0,1,.91-1.49,2.58,2.58,0,0,1,1.57-.5,2.06,2.06,0,0,1,.36,0,1.6,1.6,0,0,1,.33.07l0,1.1a2.76,2.76,0,0,0-.8-.11,2.06,2.06,0,0,0-1.25.34,1.92,1.92,0,0,0-.69.88,2.8,2.8,0,0,0-.22,1.12v4.3Z"/><path class="cls-8" d="M36.69,17.61a3.64,3.64,0,0,1-1.89-.48,3.33,3.33,0,0,1-1.24-1.36,4.52,4.52,0,0,1-.44-2.08,4.51,4.51,0,0,1,.44-2.07,3.21,3.21,0,0,1,1.24-1.36,3.64,3.64,0,0,1,1.89-.48,3.6,3.6,0,0,1,1.88.48,3.21,3.21,0,0,1,1.24,1.36,4.51,4.51,0,0,1,.45,2.07,4.52,4.52,0,0,1-.45,2.08,3.33,3.33,0,0,1-1.24,1.36A3.6,3.6,0,0,1,36.69,17.61Zm0-1a2.08,2.08,0,0,0,1.71-.74A3.34,3.34,0,0,0,39,13.69a3.29,3.29,0,0,0-.61-2.14,2.34,2.34,0,0,0-3.43,0,3.23,3.23,0,0,0-.62,2.14,3.4,3.4,0,0,0,.6,2.17A2.15,2.15,0,0,0,36.69,16.6Z"/><path class="cls-8" d="M42.15,17.5V12.07c0-.35,0-.7,0-1.06A9.1,9.1,0,0,0,42,10h1.15l.14,1.55-.15.11a2.53,2.53,0,0,1,.93-1.36,2.67,2.67,0,0,1,1.59-.48,2.48,2.48,0,0,1,1.7.54A2.64,2.64,0,0,1,48.16,12l-.36-.2a2.53,2.53,0,0,1,1-1.45,2.85,2.85,0,0,1,1.75-.54,2.29,2.29,0,0,1,1.87.74A3.38,3.38,0,0,1,53,12.76V17.5H51.81V12.82a2.54,2.54,0,0,0-.38-1.54,1.4,1.4,0,0,0-1.18-.48,1.87,1.87,0,0,0-1.5.64,2.66,2.66,0,0,0-.54,1.76v4.3H47V12.82a2.54,2.54,0,0,0-.38-1.54,1.43,1.43,0,0,0-1.19-.48,1.87,1.87,0,0,0-1.51.64,2.61,2.61,0,0,0-.55,1.76v4.3Z"/><path class="cls-8" d="M55.33,20.74V12.07c0-.35,0-.7,0-1.06s-.05-.71-.1-1h1.16l.13,1.55-.12.23a2.51,2.51,0,0,1,1-1.45,2.93,2.93,0,0,1,1.74-.51,3.08,3.08,0,0,1,1.74.49A3.35,3.35,0,0,1,62,11.65a4.78,4.78,0,0,1,.43,2.07A4.7,4.7,0,0,1,62,15.78a3.13,3.13,0,0,1-2.93,1.83,2.87,2.87,0,0,1-1.74-.52,2.48,2.48,0,0,1-1-1.45l.17-.15v5.25Zm3.54-4.14a2.09,2.09,0,0,0,1.71-.75,3.28,3.28,0,0,0,.62-2.13,3.36,3.36,0,0,0-.62-2.15,2,2,0,0,0-1.71-.77,2.07,2.07,0,0,0-1.72.75,3.35,3.35,0,0,0-.6,2.14,3.38,3.38,0,0,0,.6,2.15A2,2,0,0,0,58.87,16.6Z"/><path class="cls-8" d="M63.25,10.92V10H68.1v1Zm4.82,5.5v1a4.64,4.64,0,0,1-.51.11,4.26,4.26,0,0,1-.54,0,2.33,2.33,0,0,1-1.68-.6,2.41,2.41,0,0,1-.62-1.8V8l1.22-.43V15a2,2,0,0,0,.17.93,1,1,0,0,0,.47.46,1.83,1.83,0,0,0,.68.12,2.49,2.49,0,0,0,.4,0A2.83,2.83,0,0,0,68.07,16.42Z"/><path class="cls-8" d="M72.42,10.92V10H77v1Zm4.74-3.35a2.85,2.85,0,0,0-.78-.12,1.59,1.59,0,0,0-.66.13.92.92,0,0,0-.45.46A2,2,0,0,0,75.1,9V17.5H73.89V8.8A2.45,2.45,0,0,1,74.49,7a2.27,2.27,0,0,1,1.65-.59l.51,0a3.1,3.1,0,0,1,.51.11Z"/><path class="cls-8" d="M81.58,17.61a3.58,3.58,0,0,1-1.88-.48,3.35,3.35,0,0,1-1.25-1.36A4.65,4.65,0,0,1,78,13.69a4.64,4.64,0,0,1,.44-2.07,3.23,3.23,0,0,1,1.25-1.36,3.92,3.92,0,0,1,3.76,0,3.23,3.23,0,0,1,1.25,1.36,4.64,4.64,0,0,1,.44,2.07,4.65,4.65,0,0,1-.44,2.08,3.35,3.35,0,0,1-1.25,1.36A3.58,3.58,0,0,1,81.58,17.61Zm0-1a2.12,2.12,0,0,0,1.72-.74,3.4,3.4,0,0,0,.61-2.17,3.29,3.29,0,0,0-.62-2.14,2.09,2.09,0,0,0-1.71-.75,2.12,2.12,0,0,0-1.72.75,3.29,3.29,0,0,0-.62,2.14,3.34,3.34,0,0,0,.61,2.17A2.11,2.11,0,0,0,81.58,16.6Z"/><path class="cls-8" d="M87,17.5V12.07c0-.35,0-.7,0-1.06s0-.71-.1-1h1.16l.16,1.86-.16-.05a2.35,2.35,0,0,1,.9-1.49,2.6,2.6,0,0,1,1.57-.5,2.23,2.23,0,0,1,.37,0,1.65,1.65,0,0,1,.32.07l0,1.1a2.69,2.69,0,0,0-.79-.11,2.11,2.11,0,0,0-1.26.34,2.06,2.06,0,0,0-.69.88,3,3,0,0,0-.21,1.12v4.3Z"/></g><g class="cls-9"><rect class="cls-8" x="94.68" y="5" width="52.47" height="16" rx="4"/></g><g class="cls-3"><path class="cls-4" d="M99.79,10.92V10h4.84v1Zm4.81,5.5v1a4.48,4.48,0,0,1-.5.11,4.43,4.43,0,0,1-.55,0,2.31,2.31,0,0,1-1.67-.6,2.41,2.41,0,0,1-.62-1.8V8l1.21-.43V15a2,2,0,0,0,.18.93,1,1,0,0,0,.47.46,1.78,1.78,0,0,0,.67.12,2.62,2.62,0,0,0,.41,0A2.73,2.73,0,0,0,104.6,16.42Z"/><path class="cls-4" d="M112.28,16.6a3.53,3.53,0,0,1-1.26.74,5.1,5.1,0,0,1-1.59.27,4.09,4.09,0,0,1-2-.47,3.19,3.19,0,0,1-1.31-1.34,4.57,4.57,0,0,1-.46-2.09,4.5,4.5,0,0,1,.45-2.06,3.37,3.37,0,0,1,1.26-1.38,3.43,3.43,0,0,1,1.85-.49,3.17,3.17,0,0,1,1.72.44A2.88,2.88,0,0,1,112,11.49a4.76,4.76,0,0,1,.38,2v.22h-5.7v-.8h5l-.39.56a3.08,3.08,0,0,0-.52-2,1.9,1.9,0,0,0-1.6-.71,2.08,2.08,0,0,0-1.71.77,3.31,3.31,0,0,0-.63,2.14,3.27,3.27,0,0,0,.66,2.22,2.39,2.39,0,0,0,1.91.75,3.65,3.65,0,0,0,1.27-.22,4.11,4.11,0,0,0,1.16-.66Z"/><path class="cls-4" d="M114.64,17.5h-1.49l3.14-3.88.7-.89L119.18,10h1.49l-2.94,3.66-.74.91Zm4.74,0-2.39-3-.7-.91-3-3.66h1.47L117,12.73l.74.89,3.1,3.88Z"/><path class="cls-4" d="M121.12,10.92V10H126v1Zm4.81,5.5v1a4.48,4.48,0,0,1-.5.11,4.43,4.43,0,0,1-.55,0,2.31,2.31,0,0,1-1.67-.6,2.41,2.41,0,0,1-.62-1.8V8l1.21-.43V15A2,2,0,0,0,124,16a1,1,0,0,0,.47.46,1.78,1.78,0,0,0,.67.12,2.62,2.62,0,0,0,.41,0A2.73,2.73,0,0,0,125.93,16.42Z"/></g><g class="cls-3"><path class="cls-8" d="M155.34,17.5,152.55,10h1.28l2.33,6.64h-.39l2.4-6.64h1.06l2.37,6.64h-.39L163.58,10h1.2L162,17.5h-1.17l-2.49-6.79H159l-2.47,6.79Z"/><path class="cls-8" d="M166.23,6.76h1.49V8.14h-1.49Zm.12,10.74V10h1.22V17.5Z"/><path class="cls-8" d="M168.86,10.92V10h4.84v1Zm4.81,5.5v1a4.48,4.48,0,0,1-.5.11,4.43,4.43,0,0,1-.55,0A2.31,2.31,0,0,1,171,17a2.41,2.41,0,0,1-.62-1.8V8l1.21-.43V15a2,2,0,0,0,.18.93,1,1,0,0,0,.47.46,1.78,1.78,0,0,0,.67.12,2.62,2.62,0,0,0,.41,0A2.73,2.73,0,0,0,173.67,16.42Z"/><path class="cls-8" d="M175.17,17.5v-11h1.22v5l-.2.14a2.59,2.59,0,0,1,1.05-1.38,3,3,0,0,1,1.7-.47c1.81,0,2.71,1,2.71,3V17.5h-1.21V12.82a2.34,2.34,0,0,0-.42-1.54,1.67,1.67,0,0,0-1.32-.48,2.24,2.24,0,0,0-1.68.64,2.38,2.38,0,0,0-.63,1.74V17.5Z"/><path class="cls-8" d="M187.86,17.5V12.07c0-.35,0-.7,0-1.06a9.1,9.1,0,0,0-.1-1h1.16l.13,1.55-.15.11a2.55,2.55,0,0,1,.94-1.36,2.64,2.64,0,0,1,1.58-.48,2.51,2.51,0,0,1,1.71.54,2.64,2.64,0,0,1,.77,1.65l-.36-.2a2.53,2.53,0,0,1,1-1.45,2.82,2.82,0,0,1,1.74-.54,2.32,2.32,0,0,1,1.88.74,3.38,3.38,0,0,1,.63,2.24V17.5h-1.22V12.82a2.55,2.55,0,0,0-.37-1.54A1.42,1.42,0,0,0,196,10.8a1.85,1.85,0,0,0-1.49.64,2.67,2.67,0,0,0-.55,1.76v4.3h-1.21V12.82a2.54,2.54,0,0,0-.38-1.54,1.46,1.46,0,0,0-1.2-.48,1.85,1.85,0,0,0-1.5.64,2.61,2.61,0,0,0-.55,1.76v4.3Z"/><path class="cls-8" d="M207.23,16.6a3.49,3.49,0,0,1-1.27.74,5,5,0,0,1-1.58.27,4.16,4.16,0,0,1-2-.47,3.17,3.17,0,0,1-1.3-1.34,4.44,4.44,0,0,1-.46-2.09,4.5,4.5,0,0,1,.45-2.06,3.41,3.41,0,0,1,1.25-1.38,3.46,3.46,0,0,1,1.85-.49,3.2,3.2,0,0,1,1.73.44,2.8,2.8,0,0,1,1.1,1.27,4.6,4.6,0,0,1,.38,2v.22h-5.7v-.8h5l-.39.56a3.14,3.14,0,0,0-.51-2,1.91,1.91,0,0,0-1.6-.71,2.11,2.11,0,0,0-1.72.77,3.36,3.36,0,0,0-.62,2.14,3.32,3.32,0,0,0,.65,2.22,2.4,2.4,0,0,0,1.91.75,3.61,3.61,0,0,0,1.27-.22,4,4,0,0,0,1.16-.66Z"/><path class="cls-8" d="M211.76,17.61a4.42,4.42,0,0,1-3-1l.41-.9a4.11,4.11,0,0,0,1.24.68,4.17,4.17,0,0,0,1.41.22,2.41,2.41,0,0,0,1.3-.29,1,1,0,0,0,.44-.85.89.89,0,0,0-.3-.71,2.3,2.3,0,0,0-1-.43l-1.27-.3a2.78,2.78,0,0,1-1.46-.75A1.78,1.78,0,0,1,209,12a1.93,1.93,0,0,1,.36-1.16,2.34,2.34,0,0,1,1-.79,3.77,3.77,0,0,1,1.53-.28,4.37,4.37,0,0,1,1.5.25,3.32,3.32,0,0,1,1.19.73l-.41.89a4,4,0,0,0-1.1-.67,3.34,3.34,0,0,0-1.18-.22,2.14,2.14,0,0,0-1.25.32,1,1,0,0,0-.44.85,1,1,0,0,0,.28.74,1.89,1.89,0,0,0,.89.42l1.27.32a2.89,2.89,0,0,1,1.57.74,1.77,1.77,0,0,1,.5,1.31,1.84,1.84,0,0,1-.79,1.56A3.57,3.57,0,0,1,211.76,17.61Z"/><path class="cls-8" d="M219.2,17.61a4.42,4.42,0,0,1-3-1l.41-.9a4.11,4.11,0,0,0,1.24.68,4.17,4.17,0,0,0,1.41.22,2.41,2.41,0,0,0,1.3-.29,1,1,0,0,0,.44-.85.89.89,0,0,0-.3-.71,2.3,2.3,0,0,0-1-.43l-1.27-.3A2.78,2.78,0,0,1,217,13.3a1.78,1.78,0,0,1-.52-1.29,1.93,1.93,0,0,1,.36-1.16,2.34,2.34,0,0,1,1-.79,3.77,3.77,0,0,1,1.53-.28,4.37,4.37,0,0,1,1.5.25,3.32,3.32,0,0,1,1.19.73l-.41.89a4,4,0,0,0-1.1-.67,3.34,3.34,0,0,0-1.18-.22,2.14,2.14,0,0,0-1.25.32,1,1,0,0,0-.44.85,1,1,0,0,0,.28.74,1.89,1.89,0,0,0,.89.42l1.27.32a2.89,2.89,0,0,1,1.57.74,1.77,1.77,0,0,1,.5,1.31,1.84,1.84,0,0,1-.79,1.56A3.57,3.57,0,0,1,219.2,17.61Z"/><path class="cls-8" d="M227,17.61a3.23,3.23,0,0,1-1.76-.48,3.11,3.11,0,0,1-1.17-1.35,4.85,4.85,0,0,1-.41-2.06,4.78,4.78,0,0,1,.42-2.07,3.26,3.26,0,0,1,1.18-1.38A3.08,3.08,0,0,1,227,9.78a3,3,0,0,1,1.76.51,2.5,2.5,0,0,1,1,1.45l-.18.12V10h1.2V17.5h-1.2V15.55l.18.09a2.47,2.47,0,0,1-1,1.45A2.91,2.91,0,0,1,227,17.61Zm.24-1a2,2,0,0,0,1.71-.76,3.38,3.38,0,0,0,.6-2.15,3.35,3.35,0,0,0-.6-2.14,2.33,2.33,0,0,0-3.44,0,3.36,3.36,0,0,0-.62,2.15,3.28,3.28,0,0,0,.62,2.13A2.13,2.13,0,0,0,227.22,16.6Z"/><path class="cls-8" d="M236.4,20.84a5.52,5.52,0,0,1-3-.77l.21-1a6.55,6.55,0,0,0,1.34.58,5.15,5.15,0,0,0,1.42.18,2.2,2.2,0,0,0,1.65-.58,2.38,2.38,0,0,0,.56-1.71v-2l.16-.2a2.68,2.68,0,0,1-.56,1,2.5,2.5,0,0,1-.94.69,3.15,3.15,0,0,1-1.26.24,3.18,3.18,0,0,1-2.94-1.79,4.19,4.19,0,0,1-.43-2,4.24,4.24,0,0,1,.43-2A3.15,3.15,0,0,1,236,9.78a3,3,0,0,1,1.78.51,2.53,2.53,0,0,1,1,1.45l-.18-.16V10h1.22v7.48A3.46,3.46,0,0,1,239,20,3.49,3.49,0,0,1,236.4,20.84Zm-.15-4.58a2.16,2.16,0,0,0,1.72-.73,3,3,0,0,0,.62-2,3,3,0,0,0-.62-2,2.15,2.15,0,0,0-1.72-.72,2.19,2.19,0,0,0-1.74.72,2.94,2.94,0,0,0-.64,2,2.94,2.94,0,0,0,.64,2A2.22,2.22,0,0,0,236.25,16.26Z"/><path class="cls-8" d="M248.33,16.6a3.49,3.49,0,0,1-1.27.74,5,5,0,0,1-1.58.27,4.16,4.16,0,0,1-2-.47,3.17,3.17,0,0,1-1.3-1.34,4.44,4.44,0,0,1-.46-2.09,4.5,4.5,0,0,1,.45-2.06,3.41,3.41,0,0,1,1.25-1.38,3.46,3.46,0,0,1,1.85-.49,3.2,3.2,0,0,1,1.73.44,2.8,2.8,0,0,1,1.1,1.27,4.6,4.6,0,0,1,.38,2v.22h-5.7v-.8h5l-.39.56a3.14,3.14,0,0,0-.51-2,1.91,1.91,0,0,0-1.6-.71,2.11,2.11,0,0,0-1.72.77,3.36,3.36,0,0,0-.62,2.14,3.32,3.32,0,0,0,.65,2.22,2.4,2.4,0,0,0,1.91.75,3.61,3.61,0,0,0,1.27-.22,4,4,0,0,0,1.16-.66Z"/></g><path class="cls-5" d="M267,1h67.83V26H267V21c0-10-8,8-8-7.5s8,2.5,8-7.5Z"/><path class="cls-6" d="M266,0h67.83V25H266V20c0-10-8,8-8-7.5s8,2.5,8-7.5Z"/><path class="cls-7" d="M267,24.5h-1v-6h1Zm-8.34-6.37a20.9,20.9,0,0,1,0-11.26l1,.26a20,20,0,0,0,0,10.74ZM267,8h-1V0h67.33V1H267Z"/><g class="cls-9"><rect class="cls-8" x="293" y="5" width="13.83" height="16" rx="4"/></g><polygon class="cls-4" points="138.17 17.31 143.15 8.69 133.19 8.69 138.17 17.31"/><path class="cls-8" d="M278.14,5.32l2,1.56a8,8,0,0,0-1.87,2.72,7.42,7.42,0,0,0-.46,2.57l-1.25-.88h3.79v5.39H275V12.89a11,11,0,0,1,.7-4A10.29,10.29,0,0,1,278.14,5.32Zm8.71,0,2,1.56A8,8,0,0,0,287,9.6a7.43,7.43,0,0,0-.47,2.57l-1.24-.88H289v5.39h-5.34V12.89a11.18,11.18,0,0,1,.7-4A10.46,10.46,0,0,1,286.85,5.32Z"/><path class="cls-8" d="M313,16.68l-2-1.56a8.76,8.76,0,0,0,1.86-2.75,7.18,7.18,0,0,0,.47-2.54l1.24.83h-3.78V5.32h5.34V9.11a10.77,10.77,0,0,1-.7,3.94A11.12,11.12,0,0,1,313,16.68Zm8.71,0-2-1.56a8.76,8.76,0,0,0,1.86-2.75,7.18,7.18,0,0,0,.47-2.54l1.24.83h-3.78V5.32h5.34V9.11a11,11,0,0,1-.7,3.94A11.12,11.12,0,0,1,321.7,16.68Z"/></g></g></svg>