<svg xmlns="http://www.w3.org/2000/svg" viewBox="0 0 595.28 61.75"><defs><style>.cls-1{fill:none;}.cls-2{fill:#b2d5c7;}.cls-3{isolation:isolate;}.cls-4{fill:#010101;}.cls-5{fill:#3c866d;}.cls-6{fill:#4ba587;}.cls-7{fill:#81c1ab;}.cls-8{opacity:0.6;}.cls-9{fill:#fff;}.cls-10{fill:#31272b;}</style></defs><g id="Layer_2" data-name="Layer 2"><g id="Layer_1-2" data-name="Layer 1"><rect class="cls-1" width="595.28" height="18"/><rect class="cls-2" x="5" y="45.69" width="62.81" height="16.06" rx="5.67"/><g class="cls-3"><path class="cls-4" d="M13.13,58.67a4.42,4.42,0,0,1-3-1l.41-.89a4.69,4.69,0,0,0,1.23.68,4.55,4.55,0,0,0,1.42.21,2.34,2.34,0,0,0,1.3-.29,1,1,0,0,0,.44-.85.91.91,0,0,0-.3-.71,2.42,2.42,0,0,0-1-.43l-1.27-.3a2.86,2.86,0,0,1-1.47-.75,1.8,1.8,0,0,1-.51-1.29,2,2,0,0,1,.36-1.16,2.42,2.42,0,0,1,1-.79,3.77,3.77,0,0,1,1.53-.28,4.63,4.63,0,0,1,1.5.25,3.21,3.21,0,0,1,1.19.74l-.41.89a3.7,3.7,0,0,0-1.1-.67,3.17,3.17,0,0,0-1.18-.22,2.12,2.12,0,0,0-1.25.31,1.09,1.09,0,0,0-.17,1.59,2,2,0,0,0,.9.42l1.27.32a3.07,3.07,0,0,1,1.57.74,1.95,1.95,0,0,1-.29,2.87A3.59,3.59,0,0,1,13.13,58.67Z"/><path class="cls-4" d="M24.2,57.66a3.58,3.58,0,0,1-1.27.74,4.77,4.77,0,0,1-1.58.27,4.13,4.13,0,0,1-2-.47A3.14,3.14,0,0,1,18,56.86a4.51,4.51,0,0,1-.45-2.09A4.42,4.42,0,0,1,18,52.72a3.37,3.37,0,0,1,1.25-1.39,3.52,3.52,0,0,1,1.85-.49,3.29,3.29,0,0,1,1.73.44A2.91,2.91,0,0,1,24,52.55a4.76,4.76,0,0,1,.38,2v.23h-5.7V54h5l-.39.55a3.08,3.08,0,0,0-.52-2,1.88,1.88,0,0,0-1.59-.71,2.07,2.07,0,0,0-1.72.78,4,4,0,0,0,0,4.35,2.35,2.35,0,0,0,1.91.75,3.89,3.89,0,0,0,1.27-.21,4.15,4.15,0,0,0,1.16-.67Z"/><path class="cls-4" d="M26.17,58.56V53.13c0-.35,0-.7,0-1.05a7.46,7.46,0,0,0-.1-1.06h1.16l.17,1.86-.17-.05a2.37,2.37,0,0,1,.91-1.49,2.65,2.65,0,0,1,1.57-.5l.36,0,.33.07,0,1.11a2.39,2.39,0,0,0-.79-.12,2.06,2.06,0,0,0-1.25.34,2,2,0,0,0-.69.88,2.87,2.87,0,0,0-.22,1.12v4.3Z"/><path class="cls-4" d="M31.48,47.82H33V49.2H31.48Zm.13,10.74V51h1.21v7.54Z"/><path class="cls-4" d="M38.07,58.67a3.28,3.28,0,0,1-1.76-.47,3.09,3.09,0,0,1-1.17-1.35,4.78,4.78,0,0,1-.41-2.07,4.57,4.57,0,0,1,.42-2.06,3.27,3.27,0,0,1,1.17-1.39,3.22,3.22,0,0,1,1.75-.49,2.94,2.94,0,0,1,1.75.51,2.54,2.54,0,0,1,1,1.45l-.18.13V51h1.2v7.54h-1.2v-2l.18.09a2.54,2.54,0,0,1-1,1.46A2.94,2.94,0,0,1,38.07,58.67Zm.24-1A2.06,2.06,0,0,0,40,56.91a3.42,3.42,0,0,0,.6-2.15A3.3,3.3,0,0,0,40,52.61a2.06,2.06,0,0,0-1.7-.75,2.1,2.1,0,0,0-1.73.77A3.32,3.32,0,0,0,36,54.78a3.2,3.2,0,0,0,.62,2.13A2.09,2.09,0,0,0,38.31,57.66Z"/><path class="cls-4" d="M44.17,58.56v-11h1.22v11Z"/></g><polygon class="cls-4" points="58.82 58.38 63.8 49.75 53.84 49.75 58.82 58.38"/><path class="cls-5" d="M1,9A8,8,0,0,1,9,1h7l6,4h3l6-4H256.27V36H30.5l-6,4h-3l-6-4H9a8,8,0,0,1-8-8ZM135.62,6h-14.5v5c0,10-8-8-8,7.5s8-2.5,8,7.5v6h14.5Z"/><path class="cls-6" d="M0,8A8,8,0,0,1,8,0h7l6,4h3l6-4H255.27V35H29.5l-6,4h-3l-6-4H8a8,8,0,0,1-8-8ZM134.62,5h-14.5v5c0,10-8-8-8,7.5s8-2.5,8,7.5v6h14.5Z"/><path class="cls-7" d="M2.34,32.66A8,8,0,0,1,0,27V8H1V27A7,7,0,0,0,3.05,32ZM135.62,32h-15V31h14V5.5h1Zm-20.36-7.27-.49-.86,3.68-2.1.49.86ZM1,7.53,0,7.47A8,8,0,0,1,8,0h7.17l6,4h2.7l6-4H254.77V1H30.15l-6,4h-3.3l-6-4H8A7,7,0,0,0,1,7.53Z"/><g class="cls-8"><rect class="cls-9" x="5" y="10" width="62.8" height="16" rx="4"/></g><g class="cls-3"><path class="cls-4" d="M13.72,22.61a4.38,4.38,0,0,1-3-1l.4-.9a4.11,4.11,0,0,0,1.24.68,4.23,4.23,0,0,0,1.42.22,2.37,2.37,0,0,0,1.29-.29,1,1,0,0,0,.44-.85.91.91,0,0,0-.29-.71,2.41,2.41,0,0,0-1-.43l-1.27-.3a2.78,2.78,0,0,1-1.46-.75A1.78,1.78,0,0,1,11,17a1.93,1.93,0,0,1,.36-1.16,2.37,2.37,0,0,1,1-.79,3.7,3.7,0,0,1,1.53-.28,4.46,4.46,0,0,1,1.5.25,3.25,3.25,0,0,1,1.18.74l-.41.88A3.87,3.87,0,0,0,15,16a3.28,3.28,0,0,0-1.17-.21,2.17,2.17,0,0,0-1.26.31,1,1,0,0,0-.44.86,1,1,0,0,0,.28.73,1.89,1.89,0,0,0,.89.42l1.28.32a2.92,2.92,0,0,1,1.56.74,1.77,1.77,0,0,1,.5,1.31A1.84,1.84,0,0,1,15.88,22,3.57,3.57,0,0,1,13.72,22.61Z"/><path class="cls-4" d="M24.79,21.6a3.49,3.49,0,0,1-1.27.74,4.73,4.73,0,0,1-1.58.27,4.16,4.16,0,0,1-2-.47,3.17,3.17,0,0,1-1.3-1.34,4.42,4.42,0,0,1-.46-2.09,4.5,4.5,0,0,1,.45-2.06,3.41,3.41,0,0,1,1.25-1.38,3.46,3.46,0,0,1,1.85-.49,3.2,3.2,0,0,1,1.73.44,2.8,2.8,0,0,1,1.1,1.27,4.6,4.6,0,0,1,.38,2v.22H19.23V17.9h5l-.39.55a3.14,3.14,0,0,0-.51-2,1.91,1.91,0,0,0-1.6-.71,2.11,2.11,0,0,0-1.72.77,3.36,3.36,0,0,0-.62,2.14A3.32,3.32,0,0,0,20,20.85,2.41,2.41,0,0,0,22,21.6a3.56,3.56,0,0,0,1.26-.22,3.77,3.77,0,0,0,1.16-.66Z"/><path class="cls-4" d="M26.77,22.5V17.07c0-.35,0-.7,0-1.06s-.05-.7-.1-1.05H27.8L28,16.82l-.17-.05a2.36,2.36,0,0,1,.91-1.49,2.6,2.6,0,0,1,1.57-.5,2.23,2.23,0,0,1,.37,0,1.65,1.65,0,0,1,.32.07l0,1.11a2.45,2.45,0,0,0-.8-.12,1.92,1.92,0,0,0-1.94,1.22A3,3,0,0,0,28,18.2v4.3Z"/><path class="cls-4" d="M32.08,11.76h1.49v1.38H32.08ZM32.2,22.5V15h1.21V22.5Z"/><path class="cls-4" d="M38.66,22.61a3.23,3.23,0,0,1-1.76-.48,3.11,3.11,0,0,1-1.17-1.35,4.85,4.85,0,0,1-.41-2.06,4.78,4.78,0,0,1,.42-2.07,3.26,3.26,0,0,1,1.18-1.38,3.08,3.08,0,0,1,1.74-.49,3,3,0,0,1,1.76.51,2.5,2.5,0,0,1,1,1.45l-.18.12V15h1.2V22.5h-1.2V20.55l.18.09a2.52,2.52,0,0,1-1,1.46A3,3,0,0,1,38.66,22.61Zm.24-1a2,2,0,0,0,1.71-.76,3.38,3.38,0,0,0,.6-2.15,3.35,3.35,0,0,0-.6-2.14,2.33,2.33,0,0,0-3.44,0,3.36,3.36,0,0,0-.62,2.15,3.28,3.28,0,0,0,.62,2.13A2.13,2.13,0,0,0,38.9,21.6Z"/><path class="cls-4" d="M44.77,22.5v-11H46v11Z"/></g><g class="cls-3"><path class="cls-9" d="M74,25.74V17.07c0-.35,0-.7,0-1.06s0-.7-.1-1.05H75l.14,1.56-.12.22a2.5,2.5,0,0,1,1-1.45,2.93,2.93,0,0,1,1.74-.51,3.09,3.09,0,0,1,1.75.49,3.35,3.35,0,0,1,1.19,1.38,4.78,4.78,0,0,1,.42,2.07,4.7,4.7,0,0,1-.42,2.06,3.13,3.13,0,0,1-2.94,1.83A2.93,2.93,0,0,1,76,22.1a2.52,2.52,0,0,1-1-1.46l.16-.15v5.25Zm3.54-4.14a2.09,2.09,0,0,0,1.71-.75,3.28,3.28,0,0,0,.62-2.13,3.36,3.36,0,0,0-.62-2.15,2,2,0,0,0-1.71-.77,2.09,2.09,0,0,0-1.73.75,3.35,3.35,0,0,0-.6,2.14,3.38,3.38,0,0,0,.6,2.15A2.07,2.07,0,0,0,77.51,21.6Z"/><path class="cls-9" d="M83,22.5V17.07c0-.35,0-.7,0-1.06s0-.7-.1-1.05H84l.17,1.86L84,16.77a2.36,2.36,0,0,1,.91-1.49,2.6,2.6,0,0,1,1.57-.5,2.23,2.23,0,0,1,.37,0,1.65,1.65,0,0,1,.32.07l0,1.11a2.41,2.41,0,0,0-.8-.12,1.92,1.92,0,0,0-1.94,1.22,3,3,0,0,0-.22,1.12v4.3Z"/><path class="cls-9" d="M88.28,11.76h1.48v1.38H88.28ZM88.4,22.5V15h1.21V22.5Z"/><path class="cls-9" d="M92,22.5V17.07c0-.35,0-.7,0-1.06s0-.7-.1-1.05H93l.14,1.56-.15.12A2.58,2.58,0,0,1,94,15.25a3,3,0,0,1,1.69-.47c1.81,0,2.72,1,2.72,3V22.5H97.23V17.82a2.34,2.34,0,0,0-.42-1.54,1.67,1.67,0,0,0-1.32-.48,2.24,2.24,0,0,0-1.68.64,2.38,2.38,0,0,0-.63,1.74V22.5Z"/><path class="cls-9" d="M99.68,15.92V15h4.84v1Zm4.81,5.5v1a4.48,4.48,0,0,1-.5.11,4.43,4.43,0,0,1-.55,0,2.31,2.31,0,0,1-1.67-.6,2.41,2.41,0,0,1-.62-1.8V13l1.21-.43V20a2,2,0,0,0,.18.93,1,1,0,0,0,.47.46,1.78,1.78,0,0,0,.67.13,2.54,2.54,0,0,0,.41,0A2.73,2.73,0,0,0,104.49,21.42Z"/></g><g class="cls-8"><rect class="cls-9" x="139.62" y="10" width="13.83" height="16" rx="4"/></g><g class="cls-3"><path class="cls-9" d="M162.52,22.61a3.26,3.26,0,0,1-1.77-.48,3.11,3.11,0,0,1-1.17-1.35,4.85,4.85,0,0,1-.41-2.06,4.78,4.78,0,0,1,.42-2.07,3.26,3.26,0,0,1,1.18-1.38,3.12,3.12,0,0,1,1.75-.49,2.94,2.94,0,0,1,1.75.51,2.51,2.51,0,0,1,1,1.45l-.18.12V15h1.2V22.5h-1.2V20.55l.18.09a2.54,2.54,0,0,1-1,1.46A2.94,2.94,0,0,1,162.52,22.61Zm.24-1a2,2,0,0,0,1.71-.76,3.38,3.38,0,0,0,.6-2.15,3.35,3.35,0,0,0-.61-2.14,2.08,2.08,0,0,0-1.7-.75,2.11,2.11,0,0,0-1.74.77,3.36,3.36,0,0,0-.62,2.15,3.28,3.28,0,0,0,.62,2.13A2.15,2.15,0,0,0,162.76,21.6Z"/><path class="cls-9" d="M175.27,22.5h-1.2v-2l.18.16a2.54,2.54,0,0,1-1,1.46,2.94,2.94,0,0,1-1.75.51,3.2,3.2,0,0,1-1.75-.49,3.26,3.26,0,0,1-1.18-1.38,4.86,4.86,0,0,1-.42-2.08,4.81,4.81,0,0,1,.41-2.05,3.22,3.22,0,0,1,1.17-1.35,3.26,3.26,0,0,1,1.77-.48,2.94,2.94,0,0,1,1.75.51,2.58,2.58,0,0,1,1,1.45l-.2.15V11.46h1.22Zm-3.51-.9a2.06,2.06,0,0,0,1.7-.76,3.38,3.38,0,0,0,.61-2.15,3.38,3.38,0,0,0-.6-2.14,2.06,2.06,0,0,0-1.71-.75,2.15,2.15,0,0,0-1.74.75,3.24,3.24,0,0,0-.62,2.11,3.42,3.42,0,0,0,.62,2.17A2.13,2.13,0,0,0,171.76,21.6Z"/><path class="cls-9" d="M184.26,22.5h-1.19v-2l.17.16a2.52,2.52,0,0,1-1,1.46,3,3,0,0,1-1.76.51,3.16,3.16,0,0,1-1.74-.49,3.26,3.26,0,0,1-1.18-1.38,4.86,4.86,0,0,1-.42-2.08,4.81,4.81,0,0,1,.41-2.05,3.1,3.1,0,0,1,2.93-1.83,3,3,0,0,1,1.76.51,2.56,2.56,0,0,1,1,1.45l-.19.15V11.46h1.21Zm-3.51-.9a2.07,2.07,0,0,0,1.71-.76,3.38,3.38,0,0,0,.61-2.15,3.38,3.38,0,0,0-.61-2.14,2.06,2.06,0,0,0-1.71-.75,2.13,2.13,0,0,0-1.73.75,3.24,3.24,0,0,0-.62,2.11,3.42,3.42,0,0,0,.62,2.17A2.12,2.12,0,0,0,180.75,21.6Z"/><path class="cls-9" d="M190.53,22.5V17.07c0-.35,0-.7,0-1.06a9.32,9.32,0,0,0-.1-1.05h1.16l.13,1.56-.15.12a2.54,2.54,0,0,1,1.06-1.39,3,3,0,0,1,1.69-.47c1.81,0,2.71,1,2.71,3V22.5H195.8V17.82a2.34,2.34,0,0,0-.42-1.54,1.67,1.67,0,0,0-1.32-.48,2.24,2.24,0,0,0-1.68.64,2.38,2.38,0,0,0-.63,1.74V22.5Z"/><path class="cls-9" d="M205.49,21.6a3.49,3.49,0,0,1-1.27.74,4.73,4.73,0,0,1-1.58.27,4.16,4.16,0,0,1-2-.47,3.17,3.17,0,0,1-1.3-1.34,4.42,4.42,0,0,1-.46-2.09,4.5,4.5,0,0,1,.45-2.06,3.41,3.41,0,0,1,1.25-1.38,3.46,3.46,0,0,1,1.85-.49,3.2,3.2,0,0,1,1.73.44,2.8,2.8,0,0,1,1.1,1.27,4.6,4.6,0,0,1,.38,2v.22h-5.7V17.9h5l-.39.55a3.14,3.14,0,0,0-.51-2,1.91,1.91,0,0,0-1.6-.71,2.11,2.11,0,0,0-1.72.77,3.36,3.36,0,0,0-.62,2.14,3.32,3.32,0,0,0,.65,2.22,2.4,2.4,0,0,0,1.91.75,3.61,3.61,0,0,0,1.27-.22,3.77,3.77,0,0,0,1.16-.66Z"/><path class="cls-9" d="M209.4,22.5,206.61,15h1.28l2.32,6.64h-.39l2.4-6.64h1.07l2.37,6.64h-.39L217.64,15h1.2l-2.79,7.54h-1.17l-2.49-6.79h.66l-2.48,6.79Z"/><path class="cls-9" d="M224.33,22.5v-11h1.21v11Z"/><path class="cls-9" d="M227.78,11.76h1.48v1.38h-1.48Zm.12,10.74V15h1.21V22.5Z"/><path class="cls-9" d="M231.47,22.5V17.07c0-.35,0-.7,0-1.06s0-.7-.1-1.05h1.15l.14,1.56-.15.12a2.58,2.58,0,0,1,1-1.39,3,3,0,0,1,1.69-.47c1.81,0,2.72,1,2.72,3V22.5h-1.22V17.82a2.34,2.34,0,0,0-.42-1.54A1.67,1.67,0,0,0,235,15.8a2.24,2.24,0,0,0-1.68.64,2.38,2.38,0,0,0-.63,1.74V22.5Z"/><path class="cls-9" d="M246.42,21.6a3.53,3.53,0,0,1-1.26.74,4.83,4.83,0,0,1-1.59.27,4.09,4.09,0,0,1-2-.47,3.19,3.19,0,0,1-1.31-1.34,4.54,4.54,0,0,1-.46-2.09,4.5,4.5,0,0,1,.45-2.06,3.37,3.37,0,0,1,1.26-1.38,3.43,3.43,0,0,1,1.85-.49,3.17,3.17,0,0,1,1.72.44,2.88,2.88,0,0,1,1.11,1.27,4.76,4.76,0,0,1,.38,2v.22h-5.7V17.9h5l-.39.55a3.08,3.08,0,0,0-.52-2,1.9,1.9,0,0,0-1.6-.71,2.08,2.08,0,0,0-1.71.77,3.31,3.31,0,0,0-.63,2.14,3.27,3.27,0,0,0,.66,2.22,2.39,2.39,0,0,0,1.91.75,3.65,3.65,0,0,0,1.27-.22,3.88,3.88,0,0,0,1.16-.66Z"/></g><polygon class="cls-4" points="58.82 22.31 63.8 13.69 53.84 13.69 58.82 22.31"/><path class="cls-10" d="M152.15,12.26a49.59,49.59,0,0,0-5.62,10.43c-.74,1.87-1.81,1.54-2.9.41a22.48,22.48,0,0,1-1.75-2.33c-.41-.56-1.46-1.11-.69-1.84s1.92-.27,2.4.66c1.07,2.08,1.54,1.38,2.25-.25.87-2,2-3.83,3-5.74C149.51,12.34,150.38,11.52,152.15,12.26Z"/></g></g></svg>