<svg xmlns="http://www.w3.org/2000/svg" viewBox="0 0 595.28 355.13"><defs><style>.cls-1{fill:none;}.cls-2{fill:#3d867a;}.cls-3{fill:#4ba697;}.cls-4{fill:#82c1b6;}.cls-5{isolation:isolate;}.cls-6{fill:#fff;}.cls-7{opacity:0.6;}.cls-8{fill:#010101;}.cls-9{fill:#b2d5c7;}</style></defs><g id="Layer_2" data-name="Layer 2"><g id="Layer_1-2" data-name="Layer 1"><rect class="cls-1" width="595.28" height="18"/><path class="cls-2" d="M1,9A8,8,0,0,1,9,1H306V101H9a8,8,0,0,1-8-8Z"/><path class="cls-3" d="M0,8A8,8,0,0,1,8,0H305V100H8a8,8,0,0,1-8-8Z"/><path class="cls-4" d="M2.34,97.66A8.05,8.05,0,0,1,0,92V8H1V92a7.06,7.06,0,0,0,2.05,5ZM1,7.53,0,7.47A8,8,0,0,1,8,0H304.47V1H8A7,7,0,0,0,1,7.53Z"/><g class="cls-5"><path class="cls-6" d="M13.72,17.61a4.38,4.38,0,0,1-3-1l.4-.9a4.11,4.11,0,0,0,1.24.68,4.23,4.23,0,0,0,1.42.22,2.37,2.37,0,0,0,1.29-.29,1,1,0,0,0,.44-.85.91.91,0,0,0-.29-.71,2.41,2.41,0,0,0-1-.43l-1.27-.3a2.78,2.78,0,0,1-1.46-.75A1.78,1.78,0,0,1,11,12a1.93,1.93,0,0,1,.36-1.16,2.37,2.37,0,0,1,1-.79,3.7,3.7,0,0,1,1.53-.28,4.46,4.46,0,0,1,1.5.25,3.25,3.25,0,0,1,1.18.74l-.41.88A3.87,3.87,0,0,0,15,11a3.28,3.28,0,0,0-1.17-.21,2.17,2.17,0,0,0-1.26.31,1,1,0,0,0-.44.86,1,1,0,0,0,.28.73,1.89,1.89,0,0,0,.89.42l1.28.32a2.92,2.92,0,0,1,1.56.74,1.77,1.77,0,0,1,.5,1.31A1.84,1.84,0,0,1,15.88,17,3.57,3.57,0,0,1,13.72,17.61Z"/><path class="cls-6" d="M24.79,16.6a3.49,3.49,0,0,1-1.27.74,4.73,4.73,0,0,1-1.58.27,4.16,4.16,0,0,1-2-.47,3.17,3.17,0,0,1-1.3-1.34,4.42,4.42,0,0,1-.46-2.09,4.5,4.5,0,0,1,.45-2.06,3.41,3.41,0,0,1,1.25-1.38,3.46,3.46,0,0,1,1.85-.49,3.2,3.2,0,0,1,1.73.44,2.8,2.8,0,0,1,1.1,1.27,4.6,4.6,0,0,1,.38,2v.22H19.23V12.9h5l-.39.55a3.14,3.14,0,0,0-.51-2,1.91,1.91,0,0,0-1.6-.71,2.11,2.11,0,0,0-1.72.77,3.36,3.36,0,0,0-.62,2.14A3.32,3.32,0,0,0,20,15.85,2.41,2.41,0,0,0,22,16.6a3.56,3.56,0,0,0,1.26-.22,3.77,3.77,0,0,0,1.16-.66Z"/><path class="cls-6" d="M25.66,10.92V10H30.5v1Zm4.81,5.5v1a4.48,4.48,0,0,1-.5.11,4.43,4.43,0,0,1-.55,0,2.31,2.31,0,0,1-1.67-.6,2.41,2.41,0,0,1-.62-1.8V8l1.21-.43V15a2,2,0,0,0,.18.93,1,1,0,0,0,.47.46,1.78,1.78,0,0,0,.67.13,2.54,2.54,0,0,0,.41,0A2.73,2.73,0,0,0,30.47,16.42Z"/><path class="cls-6" d="M34.64,17.61a2.61,2.61,0,0,1-2-.75,3.22,3.22,0,0,1-.68-2.22V10h1.21v4.65a2.24,2.24,0,0,0,.42,1.5,1.62,1.62,0,0,0,1.28.48,2.14,2.14,0,0,0,1.62-.65,2.38,2.38,0,0,0,.61-1.72V10h1.22V17.5H37.1V15.87l.18-.09a2.48,2.48,0,0,1-1,1.36A2.91,2.91,0,0,1,34.64,17.61Z"/><path class="cls-6" d="M40.63,20.74V12.07c0-.35,0-.7,0-1.06s0-.7-.1-1h1.15l.14,1.56-.12.22a2.5,2.5,0,0,1,1-1.45,2.93,2.93,0,0,1,1.74-.51,3.12,3.12,0,0,1,1.75.49,3.35,3.35,0,0,1,1.19,1.38,4.78,4.78,0,0,1,.42,2.07,4.7,4.7,0,0,1-.42,2.06,3.13,3.13,0,0,1-2.94,1.83,2.93,2.93,0,0,1-1.74-.51,2.52,2.52,0,0,1-1-1.46l.16-.15v5.25Zm3.54-4.14a2.09,2.09,0,0,0,1.71-.75,3.28,3.28,0,0,0,.61-2.13,3.36,3.36,0,0,0-.61-2.15,2,2,0,0,0-1.71-.77,2.09,2.09,0,0,0-1.73.75,3.35,3.35,0,0,0-.6,2.14,3.38,3.38,0,0,0,.6,2.15A2.07,2.07,0,0,0,44.17,16.6Z"/></g><g class="cls-7"><rect class="cls-6" x="54.47" y="5" width="48.93" height="16" rx="4"/></g><g class="cls-5"><path class="cls-8" d="M64.18,17.62a8.43,8.43,0,0,1-1.55-.14A5.63,5.63,0,0,1,61.3,17a5.07,5.07,0,0,1-1.11-.76l.46-.94a5.24,5.24,0,0,0,1.63,1,5.78,5.78,0,0,0,1.91.28,3.41,3.41,0,0,0,2-.5,1.65,1.65,0,0,0,.71-1.42,1.15,1.15,0,0,0-.36-.89,2.33,2.33,0,0,0-1-.54,13.81,13.81,0,0,0-1.37-.38,14.57,14.57,0,0,1-1.45-.39,5.32,5.32,0,0,1-1.23-.54,2.47,2.47,0,0,1-.83-.84,2.5,2.5,0,0,1-.3-1.28,2.76,2.76,0,0,1,.48-1.61,3.13,3.13,0,0,1,1.35-1.09,5,5,0,0,1,2.06-.39,5.92,5.92,0,0,1,1.41.16,5.18,5.18,0,0,1,1.25.46,4.46,4.46,0,0,1,1,.73L67.48,9A5.11,5.11,0,0,0,66,8.05a4.66,4.66,0,0,0-1.69-.3,3.2,3.2,0,0,0-1.95.53,1.73,1.73,0,0,0-.71,1.47,1.37,1.37,0,0,0,.32.94,2.22,2.22,0,0,0,.88.58,12.18,12.18,0,0,0,1.31.4q.78.18,1.5.39a6.83,6.83,0,0,1,1.28.51,2.55,2.55,0,0,1,.89.8,2.16,2.16,0,0,1,.33,1.24,2.67,2.67,0,0,1-.48,1.59,3.1,3.1,0,0,1-1.36,1.05A5.36,5.36,0,0,1,64.18,17.62Z"/><path class="cls-8" d="M70.13,17.5V6.82h4.26a3.8,3.8,0,0,1,2.57.8,2.73,2.73,0,0,1,.93,2.19A2.76,2.76,0,0,1,77,12a3.79,3.79,0,0,1-2.57.81h-3V17.5Zm1.23-5.71h2.93a2.68,2.68,0,0,0,1.78-.52,1.83,1.83,0,0,0,.6-1.46,1.81,1.81,0,0,0-.6-1.46,2.68,2.68,0,0,0-1.78-.51H71.36Z"/><path class="cls-8" d="M79.9,17.5V6.82h1.23V17.5Z"/></g><g class="cls-5"><path class="cls-6" d="M112.73,17.61a3.7,3.7,0,0,1-1.92-.48,3.26,3.26,0,0,1-1.25-1.35,4.57,4.57,0,0,1-.44-2.06,4.5,4.5,0,0,1,.45-2.06,3.29,3.29,0,0,1,1.27-1.39,3.72,3.72,0,0,1,2-.49,4.12,4.12,0,0,1,1.48.26,3.11,3.11,0,0,1,1.18.73l-.41.9A4.9,4.9,0,0,0,114,11a3,3,0,0,0-1.11-.21,2.25,2.25,0,0,0-1.8.76,3.16,3.16,0,0,0-.67,2.16,3.12,3.12,0,0,0,.66,2.13,2.28,2.28,0,0,0,1.81.75,2.84,2.84,0,0,0,1.1-.22,4.35,4.35,0,0,0,1.09-.65l.41.9a3.34,3.34,0,0,1-1.21.71A4.29,4.29,0,0,1,112.73,17.61Z"/><path class="cls-6" d="M120.11,17.61a3.6,3.6,0,0,1-1.88-.48A3.27,3.27,0,0,1,117,15.77a4.52,4.52,0,0,1-.45-2.08,4.51,4.51,0,0,1,.45-2.07,3.21,3.21,0,0,1,1.24-1.36,3.6,3.6,0,0,1,1.88-.48,3.64,3.64,0,0,1,1.89.48,3.21,3.21,0,0,1,1.24,1.36,4.51,4.51,0,0,1,.44,2.07,4.52,4.52,0,0,1-.44,2.08A3.27,3.27,0,0,1,122,17.13,3.64,3.64,0,0,1,120.11,17.61Zm0-1a2.11,2.11,0,0,0,1.72-.74,3.34,3.34,0,0,0,.61-2.17,3.29,3.29,0,0,0-.62-2.14,2.32,2.32,0,0,0-3.42,0,3.23,3.23,0,0,0-.63,2.14,3.4,3.4,0,0,0,.61,2.17A2.13,2.13,0,0,0,120.11,16.6Z"/><path class="cls-6" d="M125.57,17.5V12.07c0-.35,0-.7,0-1.06a9.32,9.32,0,0,0-.1-1h1.16l.13,1.56-.15.12a2.58,2.58,0,0,1,1-1.39,3,3,0,0,1,1.7-.47c1.81,0,2.71,1,2.71,3V17.5h-1.21V12.82a2.34,2.34,0,0,0-.42-1.54,1.67,1.67,0,0,0-1.32-.48,2.24,2.24,0,0,0-1.68.64,2.38,2.38,0,0,0-.63,1.74V17.5Z"/><path class="cls-6" d="M140.6,10V17.5h-1.21V10.92h-6.11V10Zm-5.85,7.54V9A3.31,3.31,0,0,1,135,7.5a1.71,1.71,0,0,1,.91-.82,4.45,4.45,0,0,1,1.71-.26h.48v.94h-.38a3.55,3.55,0,0,0-1.12.14.81.81,0,0,0-.53.52A3.83,3.83,0,0,0,136,9.19V17.5Zm4.49-10.81h1.51V8.1h-1.51Z"/><path class="cls-6" d="M146.26,20.85a5.53,5.53,0,0,1-3-.78l.21-1a6,6,0,0,0,1.33.58,5.23,5.23,0,0,0,1.43.18,2.16,2.16,0,0,0,1.64-.58,2.32,2.32,0,0,0,.56-1.71v-2l.17-.2a2.82,2.82,0,0,1-.56,1,2.58,2.58,0,0,1-.94.69,3.15,3.15,0,0,1-1.26.24,3.21,3.21,0,0,1-3-1.79,4.32,4.32,0,0,1-.43-2,4.36,4.36,0,0,1,.43-2,3.18,3.18,0,0,1,3-1.78,3,3,0,0,1,1.78.51,2.58,2.58,0,0,1,1,1.45l-.18-.16V10h1.21v7.48A3.42,3.42,0,0,1,148.8,20,3.45,3.45,0,0,1,146.26,20.85Zm-.15-4.59a2.17,2.17,0,0,0,1.72-.73,3,3,0,0,0,.62-2,3,3,0,0,0-.62-2,2.16,2.16,0,0,0-1.72-.72,2.23,2.23,0,0,0-1.75.72,3,3,0,0,0-.64,2,3,3,0,0,0,.64,2A2.23,2.23,0,0,0,146.11,16.26Z"/><path class="cls-6" d="M154.67,17.61a2.61,2.61,0,0,1-2-.75,3.22,3.22,0,0,1-.68-2.22V10h1.21v4.65a2.24,2.24,0,0,0,.42,1.5,1.62,1.62,0,0,0,1.28.48,2.14,2.14,0,0,0,1.62-.65,2.38,2.38,0,0,0,.61-1.72V10h1.22V17.5h-1.19V15.87l.18-.09a2.48,2.48,0,0,1-1,1.36A2.91,2.91,0,0,1,154.67,17.61Z"/><path class="cls-6" d="M160.66,17.5V12.07c0-.35,0-.7,0-1.06s0-.7-.1-1h1.15l.17,1.86-.17-.05a2.36,2.36,0,0,1,.91-1.49,2.6,2.6,0,0,1,1.57-.5,2.23,2.23,0,0,1,.37,0,1.65,1.65,0,0,1,.32.07l0,1.11a2.45,2.45,0,0,0-.8-.12,1.92,1.92,0,0,0-1.94,1.22,3,3,0,0,0-.22,1.12v4.3Z"/><path class="cls-6" d="M168.83,17.61a3.23,3.23,0,0,1-1.76-.48,3.11,3.11,0,0,1-1.17-1.35,4.85,4.85,0,0,1-.41-2.06,4.78,4.78,0,0,1,.42-2.07,3.26,3.26,0,0,1,1.18-1.38,3.08,3.08,0,0,1,1.74-.49,3,3,0,0,1,1.76.51,2.5,2.5,0,0,1,1,1.45l-.18.12V10h1.2V17.5h-1.2V15.55l.18.09a2.52,2.52,0,0,1-1,1.46A3,3,0,0,1,168.83,17.61Zm.24-1a2,2,0,0,0,1.71-.76,3.38,3.38,0,0,0,.6-2.15,3.35,3.35,0,0,0-.6-2.14,2.33,2.33,0,0,0-3.44,0,3.36,3.36,0,0,0-.62,2.15,3.28,3.28,0,0,0,.62,2.13A2.13,2.13,0,0,0,169.07,16.6Z"/><path class="cls-6" d="M173.87,10.92V10h4.85v1Zm4.82,5.5v1a5,5,0,0,1-.5.11,4.58,4.58,0,0,1-.55,0A2.29,2.29,0,0,1,176,17a2.37,2.37,0,0,1-.63-1.8V8l1.22-.43V15a2.11,2.11,0,0,0,.17.93,1,1,0,0,0,.47.46,1.83,1.83,0,0,0,.68.13,2.41,2.41,0,0,0,.4,0A2.83,2.83,0,0,0,178.69,16.42Z"/><path class="cls-6" d="M180.07,6.76h1.48V8.14h-1.48Zm.12,10.74V10h1.21V17.5Z"/><path class="cls-6" d="M186.88,17.61a3.58,3.58,0,0,1-1.88-.48,3.29,3.29,0,0,1-1.25-1.36,4.65,4.65,0,0,1-.44-2.08,4.64,4.64,0,0,1,.44-2.07A3.23,3.23,0,0,1,185,10.26a3.92,3.92,0,0,1,3.76,0A3.23,3.23,0,0,1,190,11.62a4.64,4.64,0,0,1,.44,2.07,4.65,4.65,0,0,1-.44,2.08,3.29,3.29,0,0,1-1.25,1.36A3.58,3.58,0,0,1,186.88,17.61Zm0-1a2.12,2.12,0,0,0,1.72-.74,3.4,3.4,0,0,0,.6-2.17,3.29,3.29,0,0,0-.61-2.14,2.09,2.09,0,0,0-1.71-.75,2.12,2.12,0,0,0-1.72.75,3.29,3.29,0,0,0-.62,2.14,3.34,3.34,0,0,0,.61,2.17A2.11,2.11,0,0,0,186.88,16.6Z"/><path class="cls-6" d="M192.34,17.5V12.07c0-.35,0-.7,0-1.06s0-.7-.1-1h1.15l.14,1.56-.15.12a2.58,2.58,0,0,1,1-1.39,3,3,0,0,1,1.69-.47c1.81,0,2.72,1,2.72,3V17.5H197.6V12.82a2.34,2.34,0,0,0-.42-1.54,1.67,1.67,0,0,0-1.32-.48,2.24,2.24,0,0,0-1.68.64,2.38,2.38,0,0,0-.63,1.74V17.5Z"/><path class="cls-6" d="M200.9,10.12h1.55v1.56H200.9Zm0,5.84h1.55V17.5H200.9Z"/></g><g class="cls-5"><path class="cls-6" d="M17.82,42.5h-1.2v-2l.18.16a2.54,2.54,0,0,1-1,1.46,3,3,0,0,1-1.75.51,3.17,3.17,0,0,1-1.75-.49,3.26,3.26,0,0,1-1.18-1.38,4.86,4.86,0,0,1-.42-2.08,4.81,4.81,0,0,1,.41-2,3.22,3.22,0,0,1,1.17-1.35,3.26,3.26,0,0,1,1.77-.48,3,3,0,0,1,1.75.51,2.58,2.58,0,0,1,1,1.45l-.2.15V31.46h1.22Zm-3.51-.9a2.06,2.06,0,0,0,1.7-.76,3.38,3.38,0,0,0,.61-2.15,3.38,3.38,0,0,0-.6-2.14,2.08,2.08,0,0,0-1.71-.75,2.15,2.15,0,0,0-1.74.75A3.24,3.24,0,0,0,12,38.66a3.42,3.42,0,0,0,.62,2.17A2.13,2.13,0,0,0,14.31,41.6Z"/><path class="cls-6" d="M23.07,42.61a3.26,3.26,0,0,1-1.77-.48,3.11,3.11,0,0,1-1.17-1.35,4.85,4.85,0,0,1-.41-2.06,4.78,4.78,0,0,1,.42-2.07,3.26,3.26,0,0,1,1.18-1.38,3.09,3.09,0,0,1,1.75-.49,3,3,0,0,1,1.75.51,2.51,2.51,0,0,1,1,1.45l-.18.12V35h1.2V42.5h-1.2v-2l.18.09a2.54,2.54,0,0,1-1,1.46A3,3,0,0,1,23.07,42.61Zm.24-1A2.06,2.06,0,0,0,25,40.84a3.38,3.38,0,0,0,.6-2.15A3.35,3.35,0,0,0,25,36.55a2.08,2.08,0,0,0-1.7-.75,2.11,2.11,0,0,0-1.74.77A3.36,3.36,0,0,0,21,38.72a3.28,3.28,0,0,0,.62,2.13A2.15,2.15,0,0,0,23.31,41.6Z"/><path class="cls-6" d="M28.1,35.92V35H33v1Zm4.82,5.5v1a5,5,0,0,1-.5.11,4.58,4.58,0,0,1-.55,0A2.29,2.29,0,0,1,30.2,42a2.37,2.37,0,0,1-.63-1.8V33l1.22-.43V40A2.11,2.11,0,0,0,31,41a1,1,0,0,0,.47.46,1.83,1.83,0,0,0,.68.13,2.41,2.41,0,0,0,.4,0A2.83,2.83,0,0,0,32.92,41.42Z"/><path class="cls-6" d="M37.31,42.61a3.23,3.23,0,0,1-1.76-.48,3.11,3.11,0,0,1-1.17-1.35A4.85,4.85,0,0,1,34,38.72a4.78,4.78,0,0,1,.42-2.07,3.26,3.26,0,0,1,1.18-1.38,3.08,3.08,0,0,1,1.74-.49,3,3,0,0,1,1.76.51,2.5,2.5,0,0,1,1,1.45l-.18.12V35h1.2V42.5h-1.2v-2l.18.09a2.52,2.52,0,0,1-1,1.46A3,3,0,0,1,37.31,42.61Zm.24-1a2,2,0,0,0,1.71-.76,3.38,3.38,0,0,0,.6-2.15,3.35,3.35,0,0,0-.6-2.14,2.33,2.33,0,0,0-3.44,0,3.36,3.36,0,0,0-.62,2.15,3.28,3.28,0,0,0,.62,2.13A2.13,2.13,0,0,0,37.55,41.6Z"/><path class="cls-6" d="M49.88,42.61a4.4,4.4,0,0,1-3-1l.4-.9a4.23,4.23,0,0,0,1.24.68,4.27,4.27,0,0,0,1.42.22,2.43,2.43,0,0,0,1.3-.29,1,1,0,0,0,.44-.85.89.89,0,0,0-.3-.71,2.3,2.3,0,0,0-1-.43l-1.28-.3a2.82,2.82,0,0,1-1.46-.75A1.82,1.82,0,0,1,47.12,37a1.93,1.93,0,0,1,.36-1.16,2.37,2.37,0,0,1,1-.79A3.77,3.77,0,0,1,50,34.78a4.37,4.37,0,0,1,1.5.25,3.16,3.16,0,0,1,1.18.74l-.4.88A4.17,4.17,0,0,0,51.2,36,3.37,3.37,0,0,0,50,35.77a2.12,2.12,0,0,0-1.25.31,1,1,0,0,0-.45.86,1,1,0,0,0,.28.73,1.94,1.94,0,0,0,.89.42l1.28.32a3,3,0,0,1,1.57.74,1.81,1.81,0,0,1,.5,1.31A1.85,1.85,0,0,1,52,42,3.57,3.57,0,0,1,49.88,42.61Z"/><path class="cls-6" d="M54.77,42.5v-11H56v5l-.2.15a2.58,2.58,0,0,1,1.05-1.39,3,3,0,0,1,1.7-.47c1.81,0,2.71,1,2.71,3V42.5H60V37.82a2.34,2.34,0,0,0-.42-1.54,1.67,1.67,0,0,0-1.32-.48,2.24,2.24,0,0,0-1.68.64A2.38,2.38,0,0,0,56,38.18V42.5Z"/><path class="cls-6" d="M63.43,31.76h1.48v1.38H63.43Zm.12,10.74V35h1.21V42.5Z"/><path class="cls-6" d="M66.05,35.92V35h4.53v1Zm4.74-3.35a2.85,2.85,0,0,0-.78-.12,1.54,1.54,0,0,0-.65.13.93.93,0,0,0-.46.46,2.06,2.06,0,0,0-.16.91V42.5H67.52V33.8a2.45,2.45,0,0,1,.6-1.81,2.27,2.27,0,0,1,1.65-.59,4.36,4.36,0,0,1,.51,0,3.1,3.1,0,0,1,.51.11Z"/><path class="cls-6" d="M70.76,35.92V35h4.85v1Zm4.82,5.5v1a5,5,0,0,1-.5.11,4.58,4.58,0,0,1-.55,0,2.29,2.29,0,0,1-1.67-.6,2.37,2.37,0,0,1-.63-1.8V33l1.22-.43V40a2.11,2.11,0,0,0,.17.93,1,1,0,0,0,.47.46,1.83,1.83,0,0,0,.68.13,2.41,2.41,0,0,0,.4,0A2.83,2.83,0,0,0,75.58,41.42Z"/></g><g class="cls-7"><rect class="cls-6" x="79.43" y="30" width="97.98" height="16" rx="4"/></g><g class="cls-5"><path class="cls-8" d="M85.75,42.5V31.82h1l4.34,9.86h-.57l4.29-9.86h1V42.5H94.71V33.44l.46.06-3.93,9h-.87l-4-9,.5-.06V42.5Z"/><path class="cls-8" d="M101.88,42.62a8.43,8.43,0,0,1-1.55-.14A5.63,5.63,0,0,1,99,42a5.07,5.07,0,0,1-1.11-.76l.46-.94a5.35,5.35,0,0,0,1.63,1,5.82,5.82,0,0,0,1.91.28,3.41,3.41,0,0,0,2-.5,1.65,1.65,0,0,0,.71-1.42,1.18,1.18,0,0,0-.35-.89,2.46,2.46,0,0,0-1-.54c-.41-.14-.87-.26-1.38-.38a14.57,14.57,0,0,1-1.45-.39,5.06,5.06,0,0,1-1.22-.54,2.41,2.41,0,0,1-.84-.84,2.5,2.5,0,0,1-.3-1.28,2.76,2.76,0,0,1,.48-1.61,3.13,3.13,0,0,1,1.35-1.09A5,5,0,0,1,102,31.7a5.92,5.92,0,0,1,1.41.16,5,5,0,0,1,1.25.46,4.26,4.26,0,0,1,1,.73l-.48,1a5.11,5.11,0,0,0-1.52-1,4.66,4.66,0,0,0-1.69-.3,3.2,3.2,0,0,0-2,.53,1.73,1.73,0,0,0-.71,1.47,1.37,1.37,0,0,0,.32.94,2.22,2.22,0,0,0,.88.58,12.18,12.18,0,0,0,1.31.4q.78.18,1.5.39a6.57,6.57,0,0,1,1.28.51,2.47,2.47,0,0,1,.89.8,2.16,2.16,0,0,1,.33,1.24,2.67,2.67,0,0,1-.48,1.59,3.1,3.1,0,0,1-1.36,1A5.36,5.36,0,0,1,101.88,42.62Z"/><path class="cls-8" d="M107.83,42.5V31.82h4.29a4,4,0,0,1,2.54.73,2.47,2.47,0,0,1,.91,2.06,2.44,2.44,0,0,1-.5,1.57,2.74,2.74,0,0,1-1.39.91V37a2.78,2.78,0,0,1,1.22,4.78,4.1,4.1,0,0,1-2.63.75Zm1.22-5.94h2.88a2.89,2.89,0,0,0,1.82-.48,1.68,1.68,0,0,0,.61-1.41,1.61,1.61,0,0,0-.6-1.37,3,3,0,0,0-1.83-.46h-2.88Zm0,4.92h3.12A3,3,0,0,0,114,41a1.73,1.73,0,0,0,.59-1.46,1.8,1.8,0,0,0-.6-1.47,2.85,2.85,0,0,0-1.84-.49h-3.12Z"/><path class="cls-8" d="M118.05,42.5V31.82h6.6v1h-5.39v3.7h5.09v1h-5.09v4.9Z"/><path class="cls-8" d="M126.49,42.5V31.82h1.23V42.5Z"/><path class="cls-8" d="M130.36,42.5V31.82h4.25a4.06,4.06,0,0,1,2.65.77,2.7,2.7,0,0,1,.92,2.2,2.68,2.68,0,0,1-.94,2.17,4,4,0,0,1-2.63.79l1.11-.21a1.56,1.56,0,0,1,1,.32,2.19,2.19,0,0,1,.68,1l1.35,3.61h-1.31L136.12,39a1.58,1.58,0,0,0-.69-.9,2.8,2.8,0,0,0-1.18-.21h-2.67V42.5Zm1.22-5.68h2.92a2.87,2.87,0,0,0,1.86-.51,1.86,1.86,0,0,0,.6-1.5,1.79,1.79,0,0,0-.6-1.48,2.89,2.89,0,0,0-1.86-.49h-2.92Z"/><path class="cls-8" d="M144.13,42.62a8.32,8.32,0,0,1-1.54-.14,5.71,5.71,0,0,1-1.34-.45,5.07,5.07,0,0,1-1.11-.76l.47-.94a5.24,5.24,0,0,0,1.63,1,5.78,5.78,0,0,0,1.91.28,3.41,3.41,0,0,0,2-.5,1.65,1.65,0,0,0,.7-1.42,1.15,1.15,0,0,0-.35-.89,2.33,2.33,0,0,0-1-.54,13.81,13.81,0,0,0-1.37-.38,14.77,14.77,0,0,1-1.46-.39,5.24,5.24,0,0,1-1.22-.54,2.47,2.47,0,0,1-.83-.84,2.5,2.5,0,0,1-.3-1.28,2.76,2.76,0,0,1,.48-1.61,3.13,3.13,0,0,1,1.35-1.09,5,5,0,0,1,2.05-.39,5.92,5.92,0,0,1,1.41.16,5.26,5.26,0,0,1,1.26.46,4.4,4.4,0,0,1,1,.73l-.48,1a5.07,5.07,0,0,0-1.51-1,4.71,4.71,0,0,0-1.7-.3,3.2,3.2,0,0,0-1.95.53,1.72,1.72,0,0,0-.7,1.47,1.37,1.37,0,0,0,.31.94,2.26,2.26,0,0,0,.89.58,12,12,0,0,0,1.3.4q.78.18,1.5.39a6.94,6.94,0,0,1,1.29.51,2.55,2.55,0,0,1,.89.8,2.16,2.16,0,0,1,.33,1.24,2.67,2.67,0,0,1-.48,1.59,3.13,3.13,0,0,1-1.37,1A5.36,5.36,0,0,1,144.13,42.62Z"/><path class="cls-8" d="M152.44,42.5V32.87h-3.72v-1h8.69v1h-3.72V42.5Z"/></g><g class="cls-5"><path class="cls-6" d="M14.34,67.61a3.67,3.67,0,0,1-1.92-.48,3.29,3.29,0,0,1-1.26-1.35,4.57,4.57,0,0,1-.44-2.06,4.5,4.5,0,0,1,.45-2.06,3.36,3.36,0,0,1,1.27-1.39,3.75,3.75,0,0,1,2-.49,4.11,4.11,0,0,1,1.47.26,3.11,3.11,0,0,1,1.18.73l-.4.9A5,5,0,0,0,15.56,61a3,3,0,0,0-1.1-.21,2.26,2.26,0,0,0-1.81.76A3.16,3.16,0,0,0,12,63.72a3.12,3.12,0,0,0,.66,2.13,2.3,2.3,0,0,0,1.82.75,2.83,2.83,0,0,0,1.09-.22,4.4,4.4,0,0,0,1.1-.65l.4.9a3.34,3.34,0,0,1-1.21.71A4.24,4.24,0,0,1,14.34,67.61Z"/><path class="cls-6" d="M18.59,67.5v-11h1.22v11Z"/><path class="cls-6" d="M25.28,67.61a3.6,3.6,0,0,1-1.88-.48,3.27,3.27,0,0,1-1.24-1.36,5,5,0,0,1,0-4.15,3.21,3.21,0,0,1,1.24-1.36,3.6,3.6,0,0,1,1.88-.48,3.64,3.64,0,0,1,1.89.48,3.21,3.21,0,0,1,1.24,1.36,5.11,5.11,0,0,1,0,4.15,3.27,3.27,0,0,1-1.24,1.36A3.64,3.64,0,0,1,25.28,67.61Zm0-1A2.11,2.11,0,0,0,27,65.86a3.34,3.34,0,0,0,.61-2.17A3.29,3.29,0,0,0,27,61.55a2.32,2.32,0,0,0-3.42,0,3.23,3.23,0,0,0-.63,2.14,3.4,3.4,0,0,0,.61,2.17A2.13,2.13,0,0,0,25.28,66.6Z"/><path class="cls-6" d="M33.91,67.61A3.7,3.7,0,0,1,32,67.13a3.2,3.2,0,0,1-1.25-1.35,4.44,4.44,0,0,1-.44-2.06,4.49,4.49,0,0,1,.44-2.06A3.38,3.38,0,0,1,32,60.27,3.72,3.72,0,0,1,34,59.78a4.16,4.16,0,0,1,1.48.26,3.15,3.15,0,0,1,1.17.73l-.4.9A4.73,4.73,0,0,0,35.13,61,3,3,0,0,0,34,60.8a2.28,2.28,0,0,0-1.81.76,3.21,3.21,0,0,0-.67,2.16,3.12,3.12,0,0,0,.66,2.13A2.3,2.3,0,0,0,34,66.6a2.79,2.79,0,0,0,1.09-.22,4.4,4.4,0,0,0,1.1-.65l.4.9a3.38,3.38,0,0,1-1.2.71A4.33,4.33,0,0,1,33.91,67.61Z"/><path class="cls-6" d="M38.17,67.5v-11h1.21v11Zm5.08,0-4.11-3.85L42.94,60h1.54l-4.2,4,0-.76,4.51,4.27Z"/><path class="cls-6" d="M56.45,67.5h-1.2v-2l.18.16a2.52,2.52,0,0,1-1,1.46,3,3,0,0,1-1.76.51A3.16,3.16,0,0,1,51,67.12a3.26,3.26,0,0,1-1.18-1.38,4.86,4.86,0,0,1-.42-2.08,4.81,4.81,0,0,1,.41-2,3.1,3.1,0,0,1,2.93-1.83,3,3,0,0,1,1.76.51,2.56,2.56,0,0,1,1,1.45l-.19.15V56.46h1.21Zm-3.51-.9a2.07,2.07,0,0,0,1.71-.76,4.13,4.13,0,0,0,0-4.29,2.06,2.06,0,0,0-1.71-.75,2.13,2.13,0,0,0-1.73.75,3.24,3.24,0,0,0-.62,2.11,3.42,3.42,0,0,0,.62,2.17A2.12,2.12,0,0,0,52.94,66.6Z"/><path class="cls-6" d="M58.69,56.76h1.48v1.38H58.69Zm.12,10.74V60H60V67.5Z"/><path class="cls-6" d="M64.6,67.5,61.39,60h1.27l2.73,6.65H65L67.79,60H69L65.75,67.5Z"/><path class="cls-6" d="M70.22,56.76h1.49v1.38H70.22Zm.12,10.74V60h1.22V67.5Z"/><path class="cls-6" d="M80.56,67.5h-1.2v-2l.18.16a2.54,2.54,0,0,1-1,1.46,2.94,2.94,0,0,1-1.75.51,3.22,3.22,0,0,1-1.75-.49,3.33,3.33,0,0,1-1.18-1.38,4.86,4.86,0,0,1-.42-2.08,4.66,4.66,0,0,1,.42-2,3.09,3.09,0,0,1,1.17-1.35,3.2,3.2,0,0,1,1.76-.48,2.94,2.94,0,0,1,1.75.51,2.58,2.58,0,0,1,1,1.45l-.2.15V56.46h1.22Zm-3.51-.9a2,2,0,0,0,1.7-.76,3.32,3.32,0,0,0,.61-2.15,3.38,3.38,0,0,0-.6-2.14,2.06,2.06,0,0,0-1.71-.75,2.12,2.12,0,0,0-1.73.75,3.18,3.18,0,0,0-.63,2.11,3.36,3.36,0,0,0,.63,2.17A2.1,2.1,0,0,0,77.05,66.6Z"/><path class="cls-6" d="M89.09,66.6a3.53,3.53,0,0,1-1.26.74,4.83,4.83,0,0,1-1.59.27,4.09,4.09,0,0,1-2-.47,3.19,3.19,0,0,1-1.31-1.34,5,5,0,0,1,0-4.15,3.37,3.37,0,0,1,1.26-1.38A3.43,3.43,0,0,1,86,59.78a3.17,3.17,0,0,1,1.72.44,2.88,2.88,0,0,1,1.11,1.27,4.76,4.76,0,0,1,.38,2v.22h-5.7V62.9h5l-.39.55a3.08,3.08,0,0,0-.52-2,1.9,1.9,0,0,0-1.6-.71,2.08,2.08,0,0,0-1.71.77,3.31,3.31,0,0,0-.63,2.14,3.27,3.27,0,0,0,.66,2.22,2.39,2.39,0,0,0,1.91.75,3.65,3.65,0,0,0,1.27-.22,3.88,3.88,0,0,0,1.16-.66Z"/></g><g class="cls-7"><rect class="cls-6" x="93.12" y="55" width="88.48" height="16" rx="4"/></g><g class="cls-5"><path class="cls-8" d="M99.36,67.5v-.93l3.74-4.14a7.44,7.44,0,0,0,1.09-1.51,3,3,0,0,0,.35-1.35,1.76,1.76,0,0,0-.51-1.36,2.05,2.05,0,0,0-1.46-.47A4.09,4.09,0,0,0,101,58a6.13,6.13,0,0,0-1.5.93L99.08,58a4.63,4.63,0,0,1,1.59-1,5.45,5.45,0,0,1,1.93-.36,3.86,3.86,0,0,1,1.69.34,2.54,2.54,0,0,1,1.1,1,2.79,2.79,0,0,1,.39,1.5,4.05,4.05,0,0,1-.41,1.76,8.65,8.65,0,0,1-1.37,1.9l-3.6,3.9-.09-.6h5.92v1Z"/><path class="cls-8" d="M114.3,70.23a15.1,15.1,0,0,1-1-2.26,13.84,13.84,0,0,1-.55-2.22,15,15,0,0,1-.17-2.24,14,14,0,0,1,1.71-6.69h1a22.54,22.54,0,0,0-.88,2.46,15.38,15.38,0,0,0-.45,6.29,15.81,15.81,0,0,0,.45,2.19,23.91,23.91,0,0,0,.87,2.47Z"/><path class="cls-8" d="M120.29,67.61a5.22,5.22,0,0,1-2-.36,3,3,0,0,1-1.33-1,2.65,2.65,0,0,1-.47-1.57,2.49,2.49,0,0,1,.75-1.85,3.48,3.48,0,0,1,2-.91l-.07.22a3.19,3.19,0,0,1-1.81-.91,2.37,2.37,0,0,1-.64-1.68,2.48,2.48,0,0,1,.46-1.51,2.84,2.84,0,0,1,1.26-1,4.69,4.69,0,0,1,1.87-.35,4.64,4.64,0,0,1,1.86.35,2.84,2.84,0,0,1,1.26,1,2.48,2.48,0,0,1,.46,1.51,2.37,2.37,0,0,1-.64,1.68,3,3,0,0,1-1.79.91l-.09-.22a3.35,3.35,0,0,1,2,.92,2.5,2.5,0,0,1,.73,1.84,2.65,2.65,0,0,1-.47,1.57,3,3,0,0,1-1.33,1A5.17,5.17,0,0,1,120.29,67.61Zm0-1a3.15,3.15,0,0,0,1.93-.51,1.76,1.76,0,0,0,.68-1.49,1.65,1.65,0,0,0-.74-1.43,3.85,3.85,0,0,0-1.87-.64,3.89,3.89,0,0,0-1.88.64,1.64,1.64,0,0,0-.73,1.43,1.75,1.75,0,0,0,.67,1.49A3.18,3.18,0,0,0,120.29,66.59Zm0-4.92A3.25,3.25,0,0,0,122,61a1.7,1.7,0,0,0,.65-1.39,1.74,1.74,0,0,0-.62-1.41,2.72,2.72,0,0,0-1.73-.5,2.75,2.75,0,0,0-1.74.5,1.74,1.74,0,0,0-.62,1.41,1.7,1.7,0,0,0,.65,1.39A3.29,3.29,0,0,0,120.29,61.67Z"/><path class="cls-8" d="M126.11,67.5V56.82h1l4.33,9.86h-.57l4.29-9.86h1V67.5h-1.14V58.44l.47.06-3.93,9h-.87l-4-9,.49-.06,0,9.06Z"/><path class="cls-8" d="M138.84,67.5V56.82h1.22V67.5Zm.57-4.9v-1h7.74v1Zm7.05,4.9V56.82h1.23V67.5Z"/><path class="cls-8" d="M149.76,67.5v-.84l5.16-6.24.2.5h-5.19V60h6v.88l-5.13,6.21-.16-.51h5.46v1Z"/><path class="cls-8" d="M158.27,70.23h-1a20,20,0,0,0,.87-2.47,16,16,0,0,0,.59-4.25,15.82,15.82,0,0,0-.59-4.23,20.45,20.45,0,0,0-.87-2.46h1a14.9,14.9,0,0,1,1.3,3.35,14.46,14.46,0,0,1,.4,3.34,14.32,14.32,0,0,1-.72,4.46A15.1,15.1,0,0,1,158.27,70.23Z"/></g><g class="cls-5"><path class="cls-6" d="M14.71,92.62a8.32,8.32,0,0,1-1.54-.14A5.71,5.71,0,0,1,11.83,92a5.07,5.07,0,0,1-1.11-.76l.47-1a5.31,5.31,0,0,0,1.62,1,5.87,5.87,0,0,0,1.92.29,3.45,3.45,0,0,0,2-.5,1.67,1.67,0,0,0,.7-1.42,1.18,1.18,0,0,0-.35-.89,2.46,2.46,0,0,0-1-.54c-.41-.14-.87-.27-1.37-.39a14.1,14.1,0,0,1-1.46-.38,5.07,5.07,0,0,1-1.22-.55,2.41,2.41,0,0,1-.84-.84,2.44,2.44,0,0,1-.29-1.27,2.69,2.69,0,0,1,.48-1.61,3.07,3.07,0,0,1,1.35-1.09,4.93,4.93,0,0,1,2.05-.39,5.92,5.92,0,0,1,1.41.16,5,5,0,0,1,1.25.45,4.58,4.58,0,0,1,1,.74L18,84a5.15,5.15,0,0,0-1.51-.94,4.71,4.71,0,0,0-1.7-.3,3.2,3.2,0,0,0-2,.52,1.72,1.72,0,0,0-.7,1.47,1.39,1.39,0,0,0,.31,1,2.19,2.19,0,0,0,.89.58,12.07,12.07,0,0,0,1.3.39q.78.18,1.5.39a6.57,6.57,0,0,1,1.28.52,2.5,2.5,0,0,1,.9.8,2.12,2.12,0,0,1,.32,1.23,2.61,2.61,0,0,1-.48,1.59,3,3,0,0,1-1.36,1A5.36,5.36,0,0,1,14.71,92.62Z"/><path class="cls-6" d="M20.66,92.5V81.82h4.26a3.85,3.85,0,0,1,2.58.79,3.06,3.06,0,0,1,0,4.38,3.79,3.79,0,0,1-2.57.81h-3v4.7Zm1.23-5.72h2.93a2.68,2.68,0,0,0,1.78-.51,1.85,1.85,0,0,0,.6-1.47,1.79,1.79,0,0,0-.6-1.45,2.68,2.68,0,0,0-1.78-.51H21.89Z"/><path class="cls-6" d="M30.43,92.5V81.82h1.23V92.5Z"/><path class="cls-6" d="M38.06,92.5V87.07c0-.35,0-.7,0-1.06a9.5,9.5,0,0,0-.1-1.06H39.1l.13,1.56-.15.11A2.57,2.57,0,0,1,40,85.25a2.71,2.71,0,0,1,1.58-.48,2.51,2.51,0,0,1,1.71.54A2.67,2.67,0,0,1,44.08,87l-.36-.19a2.56,2.56,0,0,1,1-1.46,2.82,2.82,0,0,1,1.74-.54,2.32,2.32,0,0,1,1.88.75,3.38,3.38,0,0,1,.63,2.24V92.5H47.72V87.82a2.55,2.55,0,0,0-.37-1.54,1.43,1.43,0,0,0-1.19-.49,1.86,1.86,0,0,0-1.49.65,2.64,2.64,0,0,0-.55,1.75V92.5H42.91V87.82a2.54,2.54,0,0,0-.38-1.54,1.46,1.46,0,0,0-1.2-.49,1.85,1.85,0,0,0-1.5.65,2.59,2.59,0,0,0-.55,1.75V92.5Z"/><path class="cls-6" d="M54.37,92.6a3.58,3.58,0,0,1-1.88-.48,3.26,3.26,0,0,1-1.25-1.35,5.11,5.11,0,0,1,0-4.15,3.26,3.26,0,0,1,1.25-1.37,3.92,3.92,0,0,1,3.76,0,3.26,3.26,0,0,1,1.25,1.37,5.11,5.11,0,0,1,0,4.15,3.26,3.26,0,0,1-1.25,1.35A3.58,3.58,0,0,1,54.37,92.6Zm0-1a2.12,2.12,0,0,0,1.72-.74,3.4,3.4,0,0,0,.6-2.17,3.32,3.32,0,0,0-.61-2.15,2.09,2.09,0,0,0-1.71-.75,2.12,2.12,0,0,0-1.72.75,4.1,4.1,0,0,0,0,4.32A2.11,2.11,0,0,0,54.37,91.6Z"/><path class="cls-6" d="M66.47,92.5h-1.2v-2l.18.17a2.5,2.5,0,0,1-1,1.45,2.91,2.91,0,0,1-1.76.51A3.16,3.16,0,0,1,61,92.12a3.26,3.26,0,0,1-1.18-1.38,5.37,5.37,0,0,1,0-4.14A3.22,3.22,0,0,1,61,85.25a3.31,3.31,0,0,1,1.76-.48,3,3,0,0,1,1.76.52,2.56,2.56,0,0,1,1,1.45l-.19.15V81.46h1.21ZM63,91.6a2.07,2.07,0,0,0,1.71-.76,4.13,4.13,0,0,0,0-4.29A2.07,2.07,0,0,0,63,85.79a2.13,2.13,0,0,0-1.73.75,3.27,3.27,0,0,0-.62,2.12,3.42,3.42,0,0,0,.62,2.17A2.12,2.12,0,0,0,63,91.6Z"/><path class="cls-6" d="M75,91.6a3.48,3.48,0,0,1-1.27.73,4.73,4.73,0,0,1-1.58.27,4.16,4.16,0,0,1-2-.46,3.17,3.17,0,0,1-1.3-1.34,5,5,0,0,1,0-4.15,3.41,3.41,0,0,1,1.25-1.38,3.46,3.46,0,0,1,1.85-.5,3.21,3.21,0,0,1,1.73.45,2.82,2.82,0,0,1,1.1,1.26,4.6,4.6,0,0,1,.38,2v.23h-5.7v-.8h5l-.39.56a3.19,3.19,0,0,0-.51-2,1.91,1.91,0,0,0-1.6-.7,2.11,2.11,0,0,0-1.72.77,3.36,3.36,0,0,0-.62,2.14,3.32,3.32,0,0,0,.65,2.22,2.4,2.4,0,0,0,1.91.75,3.61,3.61,0,0,0,1.27-.22,3.8,3.8,0,0,0,1.16-.67Z"/><path class="cls-6" d="M83,95.23A15.19,15.19,0,0,1,82,93a12.71,12.71,0,0,1-.54-2.21,14,14,0,0,1,0-4.48A14,14,0,0,1,83,81.82h1a20.45,20.45,0,0,0-.87,2.46,14.68,14.68,0,0,0-.46,2.18,15.15,15.15,0,0,0,0,4.11,14.54,14.54,0,0,0,.46,2.19A21.59,21.59,0,0,0,84,95.23Z"/><path class="cls-6" d="M85.54,81.76H87v1.38H85.54Zm.12,10.74V85h1.21V92.5Z"/><path class="cls-6" d="M95.87,92.5h-1.2v-2l.18.17a2.5,2.5,0,0,1-1,1.45,2.91,2.91,0,0,1-1.76.51,3.16,3.16,0,0,1-1.74-.48,3.26,3.26,0,0,1-1.18-1.38,5.37,5.37,0,0,1,0-4.14,3.22,3.22,0,0,1,1.17-1.35,3.31,3.31,0,0,1,1.76-.48,3,3,0,0,1,1.76.52,2.56,2.56,0,0,1,1,1.45l-.19.15V81.46h1.21Zm-3.51-.9a2.07,2.07,0,0,0,1.71-.76,4.13,4.13,0,0,0,0-4.29,2.07,2.07,0,0,0-1.71-.76,2.13,2.13,0,0,0-1.73.75A3.27,3.27,0,0,0,90,88.66a3.42,3.42,0,0,0,.62,2.17A2.12,2.12,0,0,0,92.36,91.6Z"/><path class="cls-6" d="M98.23,92.5v-11h1.21v11Z"/><path class="cls-6" d="M108,91.6a3.48,3.48,0,0,1-1.27.73,4.73,4.73,0,0,1-1.58.27,4.16,4.16,0,0,1-2-.46,3.17,3.17,0,0,1-1.3-1.34,5,5,0,0,1,0-4.15,3.41,3.41,0,0,1,1.25-1.38,3.46,3.46,0,0,1,1.85-.5,3.21,3.21,0,0,1,1.73.45,2.82,2.82,0,0,1,1.1,1.26,4.6,4.6,0,0,1,.38,2v.23h-5.7v-.8h5l-.39.56a3.19,3.19,0,0,0-.51-2,1.91,1.91,0,0,0-1.6-.7,2.11,2.11,0,0,0-1.72.77,3.36,3.36,0,0,0-.62,2.14,3.32,3.32,0,0,0,.65,2.22,2.4,2.4,0,0,0,1.91.75,3.61,3.61,0,0,0,1.27-.22,3.8,3.8,0,0,0,1.16-.67Z"/><path class="cls-6" d="M113.8,89V88H118v1Z"/><path class="cls-6" d="M130.4,91.6a3.48,3.48,0,0,1-1.27.73,4.73,4.73,0,0,1-1.58.27,4.16,4.16,0,0,1-2-.46,3.17,3.17,0,0,1-1.3-1.34,5,5,0,0,1,0-4.15,3.41,3.41,0,0,1,1.25-1.38,3.5,3.5,0,0,1,1.86-.5,3.17,3.17,0,0,1,1.72.45,2.82,2.82,0,0,1,1.1,1.26,4.6,4.6,0,0,1,.39,2v.23h-5.7v-.8h5l-.39.56a3.19,3.19,0,0,0-.52-2,1.91,1.91,0,0,0-1.6-.7,2.11,2.11,0,0,0-1.72.77,3.36,3.36,0,0,0-.62,2.14,3.32,3.32,0,0,0,.65,2.22,2.42,2.42,0,0,0,1.92.75,3.65,3.65,0,0,0,1.27-.22,3.92,3.92,0,0,0,1.16-.67Z"/><path class="cls-6" d="M139,92.5h-1.2v-2l.18.17a2.51,2.51,0,0,1-1,1.45,2.87,2.87,0,0,1-1.75.51,3.19,3.19,0,0,1-1.75-.48,3.26,3.26,0,0,1-1.18-1.38,5.37,5.37,0,0,1,0-4.14,3.22,3.22,0,0,1,1.17-1.35,3.35,3.35,0,0,1,1.77-.48,3,3,0,0,1,1.75.52,2.58,2.58,0,0,1,1,1.45l-.2.15V81.46H139Zm-3.51-.9a2,2,0,0,0,1.7-.76,4.11,4.11,0,0,0,0-4.29,2.07,2.07,0,0,0-1.71-.76,2.15,2.15,0,0,0-1.74.75,3.27,3.27,0,0,0-.62,2.12,3.42,3.42,0,0,0,.62,2.17A2.13,2.13,0,0,0,135.52,91.6Z"/><path class="cls-6" d="M144.7,95.84a5.53,5.53,0,0,1-3-.78l.21-1a6,6,0,0,0,1.33.59,5.23,5.23,0,0,0,1.43.18,2.17,2.17,0,0,0,1.64-.58,2.39,2.39,0,0,0,.56-1.72v-2l.17-.19a2.7,2.7,0,0,1-.57,1,2.44,2.44,0,0,1-.93.68,3.15,3.15,0,0,1-1.26.24,3.25,3.25,0,0,1-1.77-.47,3.19,3.19,0,0,1-1.18-1.31,4.7,4.7,0,0,1,0-3.93,3.19,3.19,0,0,1,1.18-1.31,3.26,3.26,0,0,1,1.77-.48,3,3,0,0,1,1.77.52,2.54,2.54,0,0,1,1,1.45l-.18-.17V85h1.21v7.49a3,3,0,0,1-3.4,3.4Zm-.15-4.59a2.13,2.13,0,0,0,1.71-.72,3.51,3.51,0,0,0,0-4,2.13,2.13,0,0,0-1.71-.73,2.22,2.22,0,0,0-1.75.73,3.46,3.46,0,0,0,0,4A2.21,2.21,0,0,0,144.55,91.25Z"/><path class="cls-6" d="M156.62,91.6a3.48,3.48,0,0,1-1.27.73,4.73,4.73,0,0,1-1.58.27,4.16,4.16,0,0,1-2-.46,3.17,3.17,0,0,1-1.3-1.34,5,5,0,0,1,0-4.15,3.41,3.41,0,0,1,1.25-1.38,3.5,3.5,0,0,1,1.86-.5,3.17,3.17,0,0,1,1.72.45,2.82,2.82,0,0,1,1.1,1.26,4.6,4.6,0,0,1,.39,2v.23h-5.7v-.8h5l-.39.56a3.19,3.19,0,0,0-.52-2,1.91,1.91,0,0,0-1.6-.7,2.11,2.11,0,0,0-1.72.77,3.36,3.36,0,0,0-.62,2.14,3.32,3.32,0,0,0,.65,2.22,2.42,2.42,0,0,0,1.92.75,3.56,3.56,0,0,0,1.26-.22,3.84,3.84,0,0,0,1.17-.67Z"/><path class="cls-6" d="M158.81,95.23h-1a20,20,0,0,0,.87-2.47,15.41,15.41,0,0,0,.58-4.25,15.27,15.27,0,0,0-.58-4.23,20.45,20.45,0,0,0-.87-2.46h1a14.39,14.39,0,0,1,1.29,3.35,13.94,13.94,0,0,1,.4,3.34,15,15,0,0,1-.17,2.24A13.73,13.73,0,0,1,159.8,93,15.19,15.19,0,0,1,158.81,95.23Z"/></g><g class="cls-7"><rect class="cls-6" x="163.75" y="80" width="136.22" height="16" rx="4"/></g><g class="cls-5"><path class="cls-8" d="M173.25,92.62a3.14,3.14,0,0,1-2.78-1.39,7.14,7.14,0,0,1-.95-4.07,7.23,7.23,0,0,1,.94-4.07,3.5,3.5,0,0,1,5.58,0,7.17,7.17,0,0,1,.94,4,7.17,7.17,0,0,1-.95,4.08A3.15,3.15,0,0,1,173.25,92.62Zm0-1a2,2,0,0,0,1.88-1.08,7,7,0,0,0,.61-3.36,6.86,6.86,0,0,0-.61-3.33,2.2,2.2,0,0,0-3.76,0,6.91,6.91,0,0,0-.61,3.33,7,7,0,0,0,.61,3.36A2,2,0,0,0,173.25,91.58Z"/><path class="cls-8" d="M184.93,95.23a15.19,15.19,0,0,1-1-2.27,12.71,12.71,0,0,1-.54-2.21,14,14,0,0,1,0-4.48,14,14,0,0,1,1.53-4.45h1a20.45,20.45,0,0,0-.87,2.46,14.68,14.68,0,0,0-.46,2.18,15.15,15.15,0,0,0,0,4.11,14.54,14.54,0,0,0,.46,2.19,21.59,21.59,0,0,0,.86,2.47Z"/><path class="cls-8" d="M187.74,92.5V81.82H189v9.63h5.35v1Z"/><path class="cls-8" d="M198.87,92.6a3.58,3.58,0,0,1-1.88-.48,3.26,3.26,0,0,1-1.25-1.35,5.11,5.11,0,0,1,0-4.15A3.26,3.26,0,0,1,197,85.25a3.92,3.92,0,0,1,3.76,0A3.26,3.26,0,0,1,202,86.62a5.11,5.11,0,0,1,0,4.15,3.26,3.26,0,0,1-1.25,1.35A3.58,3.58,0,0,1,198.87,92.6Zm0-1a2.12,2.12,0,0,0,1.72-.74,3.4,3.4,0,0,0,.6-2.17,3.32,3.32,0,0,0-.61-2.15,2.09,2.09,0,0,0-1.71-.75,2.12,2.12,0,0,0-1.72.75,4.1,4.1,0,0,0,0,4.32A2.11,2.11,0,0,0,198.87,91.6Z"/><path class="cls-8" d="M206.26,92.5,203.47,85h1.28l2.32,6.65h-.39l2.4-6.65h1.07l2.37,6.65h-.39L214.5,85h1.2l-2.79,7.55h-1.17l-2.49-6.8h.66l-2.48,6.8Z"/><path class="cls-8" d="M221.11,89V88h4.25v1Z"/><path class="cls-8" d="M231.69,92.5V81.82h6.6v1H232.9v3.71H238v1H232.9V92.5Z"/><path class="cls-8" d="M242.73,92.6a3.2,3.2,0,0,1-1.76-.47,3,3,0,0,1-1.17-1.35,4.7,4.7,0,0,1-.42-2.06,4.78,4.78,0,0,1,.42-2.07A3.33,3.33,0,0,1,241,85.27a3.15,3.15,0,0,1,1.75-.5,2.94,2.94,0,0,1,1.75.51,2.54,2.54,0,0,1,1,1.46l-.18.12V85h1.2V92.5h-1.2v-2l.18.09a2.51,2.51,0,0,1-1,1.45A2.87,2.87,0,0,1,242.73,92.6Zm.24-1a2,2,0,0,0,1.71-.76,3.38,3.38,0,0,0,.6-2.15,3.32,3.32,0,0,0-.61-2.15,2.06,2.06,0,0,0-1.7-.75,2.08,2.08,0,0,0-1.73.78,3.3,3.3,0,0,0-.63,2.15,3.22,3.22,0,0,0,.63,2.13A2.12,2.12,0,0,0,243,91.6Z"/><path class="cls-8" d="M248.83,92.5v-11h1.22v11Z"/><path class="cls-8" d="M252.4,92.5v-11h1.22v11Z"/><path class="cls-8" d="M255.85,81.76h1.49v1.38h-1.49ZM256,92.5V85h1.22V92.5Z"/><path class="cls-8" d="M259.54,92.5V87.07c0-.35,0-.7,0-1.06a9.5,9.5,0,0,0-.1-1.06h1.16l.13,1.56-.15.12a2.55,2.55,0,0,1,1.05-1.38,3,3,0,0,1,1.7-.48c1.81,0,2.71,1,2.71,3V92.5h-1.21V87.82a2.34,2.34,0,0,0-.42-1.54,1.67,1.67,0,0,0-1.32-.49,2.24,2.24,0,0,0-1.68.65,2.38,2.38,0,0,0-.63,1.74V92.5Z"/><path class="cls-8" d="M271.63,95.84a5.53,5.53,0,0,1-3-.78l.21-1a6.1,6.1,0,0,0,1.34.59,5.15,5.15,0,0,0,1.42.18,2.2,2.2,0,0,0,1.65-.58,2.39,2.39,0,0,0,.56-1.72v-2l.16-.19a2.68,2.68,0,0,1-.56,1,2.48,2.48,0,0,1-.94.68,3.15,3.15,0,0,1-1.26.24,3.15,3.15,0,0,1-2.94-1.78,4.7,4.7,0,0,1,0-3.93,3.18,3.18,0,0,1,2.94-1.79,3,3,0,0,1,1.78.52,2.53,2.53,0,0,1,1,1.45l-.18-.17V85H275v7.49a3,3,0,0,1-3.41,3.4Zm-.15-4.59a2.15,2.15,0,0,0,1.72-.72,3.55,3.55,0,0,0,0-4,2.16,2.16,0,0,0-1.72-.73,2.2,2.2,0,0,0-1.74.73,3.46,3.46,0,0,0,0,4A2.19,2.19,0,0,0,271.48,91.25Z"/><path class="cls-8" d="M277.69,95.23h-1a20,20,0,0,0,.87-2.47,15.41,15.41,0,0,0,.58-4.25,15.27,15.27,0,0,0-.58-4.23,20.45,20.45,0,0,0-.87-2.46h1A14.39,14.39,0,0,1,279,85.17a13.94,13.94,0,0,1,.4,3.34,15,15,0,0,1-.17,2.24,13.73,13.73,0,0,1-.55,2.21A15.19,15.19,0,0,1,277.69,95.23Z"/></g><polygon class="cls-8" points="94.42 17.31 99.4 8.69 89.44 8.69 94.42 17.31"/><polygon class="cls-8" points="168.44 42.31 173.42 33.69 163.46 33.69 168.44 42.31"/><polygon class="cls-8" points="172.62 67.31 177.6 58.69 167.64 58.69 172.62 67.31"/><polygon class="cls-8" points="290.99 92.31 295.97 83.69 286.01 83.69 290.99 92.31"/><rect class="cls-9" x="49.78" y="106.69" width="44.6" height="15.46" rx="5.67"/><g class="cls-5"><path class="cls-8" d="M58.89,119.68a7.54,7.54,0,0,1-1.54-.14,4.92,4.92,0,0,1-1.34-.45,4.75,4.75,0,0,1-1.11-.76l.47-.94a5.31,5.31,0,0,0,1.62,1,5.89,5.89,0,0,0,1.92.28,3.33,3.33,0,0,0,2-.5,1.63,1.63,0,0,0,.7-1.42,1.2,1.2,0,0,0-.35-.89,2.74,2.74,0,0,0-1-.54c-.41-.13-.86-.26-1.37-.38s-1-.24-1.46-.38a5.49,5.49,0,0,1-1.22-.55,2.38,2.38,0,0,1-.83-.84,2.5,2.5,0,0,1-.3-1.28,2.78,2.78,0,0,1,.48-1.61,3.2,3.2,0,0,1,1.35-1.09,5,5,0,0,1,2-.39,6.48,6.48,0,0,1,1.41.16,5.46,5.46,0,0,1,1.25.46,4.26,4.26,0,0,1,1,.73l-.48,1a5.07,5.07,0,0,0-1.51-1,4.71,4.71,0,0,0-1.7-.3,3.2,3.2,0,0,0-1.95.53,1.72,1.72,0,0,0-.7,1.47,1.37,1.37,0,0,0,.31.94,2.16,2.16,0,0,0,.89.58,10.09,10.09,0,0,0,1.3.4q.78.18,1.5.39a6,6,0,0,1,1.28.52,2.48,2.48,0,0,1,.9.79,2.18,2.18,0,0,1,.33,1.24,2.67,2.67,0,0,1-.48,1.59,3.13,3.13,0,0,1-1.37,1A5.36,5.36,0,0,1,58.89,119.68Z"/><path class="cls-8" d="M64.85,119.56V108.88h4.26a3.82,3.82,0,0,1,2.57.8,3.06,3.06,0,0,1,0,4.38,3.76,3.76,0,0,1-2.56.81h-3v4.69Zm1.23-5.71H69a2.66,2.66,0,0,0,1.79-.52,2.08,2.08,0,0,0,0-2.92A2.71,2.71,0,0,0,69,109.9H66.08Z"/><path class="cls-8" d="M74.61,119.56V108.88h1.23v10.68Z"/></g><polygon class="cls-8" points="85.06 119.38 90.04 110.75 80.09 110.75 85.06 119.38"/><g class="cls-5"><path d="M3.72,119.64a4.38,4.38,0,0,1-3-1l.4-.9a4.11,4.11,0,0,0,1.24.68,4.23,4.23,0,0,0,1.42.22,2.37,2.37,0,0,0,1.29-.29,1,1,0,0,0,.44-.85.91.91,0,0,0-.29-.71,2.41,2.41,0,0,0-1-.43l-1.27-.3a2.78,2.78,0,0,1-1.46-.75A1.78,1.78,0,0,1,1,114a1.93,1.93,0,0,1,.36-1.16,2.37,2.37,0,0,1,1-.79,3.7,3.7,0,0,1,1.53-.28,4.46,4.46,0,0,1,1.5.25,3.25,3.25,0,0,1,1.18.74l-.41.88A3.87,3.87,0,0,0,5,113a3.28,3.28,0,0,0-1.17-.21,2.17,2.17,0,0,0-1.26.31,1,1,0,0,0-.44.86,1,1,0,0,0,.28.73,1.89,1.89,0,0,0,.89.42l1.28.32a2.92,2.92,0,0,1,1.56.74,1.77,1.77,0,0,1,.5,1.31,1.84,1.84,0,0,1-.79,1.56A3.57,3.57,0,0,1,3.72,119.64Z"/><path d="M14.79,118.63a3.49,3.49,0,0,1-1.27.74,4.73,4.73,0,0,1-1.58.27,4.16,4.16,0,0,1-2-.47,3.17,3.17,0,0,1-1.3-1.34,4.42,4.42,0,0,1-.46-2.09,4.5,4.5,0,0,1,.45-2.06,3.41,3.41,0,0,1,1.25-1.38,3.46,3.46,0,0,1,1.85-.49,3.2,3.2,0,0,1,1.73.44,2.8,2.8,0,0,1,1.1,1.27,4.6,4.6,0,0,1,.38,2v.22H9.23v-.79h5l-.39.55a3.14,3.14,0,0,0-.51-2,1.91,1.91,0,0,0-1.6-.71,2.11,2.11,0,0,0-1.72.77,3.36,3.36,0,0,0-.62,2.14,3.32,3.32,0,0,0,.65,2.22,2.41,2.41,0,0,0,1.92.75,3.56,3.56,0,0,0,1.26-.22,3.77,3.77,0,0,0,1.16-.66Z"/><path d="M15.66,113v-1H20.5v1Zm4.81,5.5v1a4.48,4.48,0,0,1-.5.11,4.43,4.43,0,0,1-.55,0,2.31,2.31,0,0,1-1.67-.6,2.41,2.41,0,0,1-.62-1.8v-7.19l1.21-.43v7.45a2,2,0,0,0,.18.93,1,1,0,0,0,.47.46,1.78,1.78,0,0,0,.67.13,2.54,2.54,0,0,0,.41,0A2.73,2.73,0,0,0,20.47,118.45Z"/><path d="M24.64,119.64a2.61,2.61,0,0,1-2-.75,3.22,3.22,0,0,1-.68-2.22V112h1.21v4.65a2.24,2.24,0,0,0,.42,1.5,1.62,1.62,0,0,0,1.28.48,2.14,2.14,0,0,0,1.62-.65,2.38,2.38,0,0,0,.61-1.72V112h1.22v7.54H27.1V117.9l.18-.09a2.48,2.48,0,0,1-1,1.36A2.91,2.91,0,0,1,24.64,119.64Z"/><path d="M30.63,122.77V114.1c0-.35,0-.7,0-1.06s-.05-.7-.1-1.05h1.15l.14,1.56-.12.22a2.5,2.5,0,0,1,1-1.45,2.93,2.93,0,0,1,1.74-.51,3.12,3.12,0,0,1,1.75.49,3.35,3.35,0,0,1,1.19,1.38,4.78,4.78,0,0,1,.42,2.07,4.7,4.7,0,0,1-.42,2.06,3.13,3.13,0,0,1-2.94,1.83,2.93,2.93,0,0,1-1.74-.51,2.52,2.52,0,0,1-1-1.46l.16-.15v5.25Zm3.54-4.14a2.09,2.09,0,0,0,1.71-.75,3.28,3.28,0,0,0,.61-2.13,3.36,3.36,0,0,0-.61-2.15,2,2,0,0,0-1.71-.77,2.09,2.09,0,0,0-1.73.75,4.13,4.13,0,0,0,0,4.29A2.07,2.07,0,0,0,34.17,118.63Z"/></g><rect class="cls-9" x="75.32" y="127.17" width="97.96" height="33.95" rx="5.67"/><g class="cls-5"><path class="cls-8" d="M81.05,140V129.36h1l4.33,9.86h-.57l4.29-9.86h1V140H90V131l.47.06-3.93,9h-.87l-4-9,.49-.06,0,9.06Z"/><path class="cls-8" d="M97.17,140.16a8.32,8.32,0,0,1-1.54-.14,5.28,5.28,0,0,1-1.34-.45,5.07,5.07,0,0,1-1.11-.76l.47-.94a5.31,5.31,0,0,0,1.62,1,5.89,5.89,0,0,0,1.92.28,3.41,3.41,0,0,0,2-.5,1.65,1.65,0,0,0,.7-1.42,1.18,1.18,0,0,0-.35-.89,2.6,2.6,0,0,0-1-.54c-.41-.14-.86-.26-1.37-.38a14.77,14.77,0,0,1-1.46-.39,5.06,5.06,0,0,1-1.22-.54,2.38,2.38,0,0,1-.83-.84,2.5,2.5,0,0,1-.3-1.28,2.78,2.78,0,0,1,.48-1.61,3.2,3.2,0,0,1,1.35-1.09,5,5,0,0,1,2.05-.39,6.48,6.48,0,0,1,1.41.16,5.46,5.46,0,0,1,1.25.46,4.26,4.26,0,0,1,1,.73l-.48.95a5.07,5.07,0,0,0-1.51-.95,4.71,4.71,0,0,0-1.7-.3,3.2,3.2,0,0,0-2,.53,1.72,1.72,0,0,0-.7,1.47,1.37,1.37,0,0,0,.31.94,2.16,2.16,0,0,0,.89.58,12,12,0,0,0,1.3.4q.78.18,1.5.39a6.57,6.57,0,0,1,1.28.51,2.6,2.6,0,0,1,.9.8,2.16,2.16,0,0,1,.33,1.24,2.67,2.67,0,0,1-.48,1.59,3.13,3.13,0,0,1-1.37,1A5.36,5.36,0,0,1,97.17,140.16Z"/><path class="cls-8" d="M103.13,140V129.36h4.29a3.93,3.93,0,0,1,2.53.73,2.48,2.48,0,0,1,.92,2.06,2.43,2.43,0,0,1-.51,1.57,2.65,2.65,0,0,1-1.38.91v-.12a2.59,2.59,0,0,1,1.57.88,2.64,2.64,0,0,1,.57,1.74,2.61,2.61,0,0,1-.93,2.16,4.07,4.07,0,0,1-2.62.75Zm1.21-5.94h2.88a2.89,2.89,0,0,0,1.82-.48,1.68,1.68,0,0,0,.61-1.41,1.62,1.62,0,0,0-.6-1.37,3,3,0,0,0-1.83-.46h-2.88Zm0,4.92h3.12a3,3,0,0,0,1.85-.46,1.74,1.74,0,0,0,.6-1.46,1.8,1.8,0,0,0-.6-1.47,2.88,2.88,0,0,0-1.85-.49h-3.12Z"/><path class="cls-8" d="M113.34,140V129.36h6.6v1h-5.38v3.7h5.08v1h-5.08V140Z"/><path class="cls-8" d="M121.79,140V129.36H123V140Z"/><path class="cls-8" d="M125.65,140V129.36h4.25a4.06,4.06,0,0,1,2.65.77,2.7,2.7,0,0,1,.92,2.2,2.66,2.66,0,0,1-.94,2.17,4,4,0,0,1-2.63.79l1.11-.21a1.67,1.67,0,0,1,1,.32,2.18,2.18,0,0,1,.67,1L134,140h-1.31l-1.31-3.55a1.57,1.57,0,0,0-.7-.89,2.64,2.64,0,0,0-1.18-.22h-2.67V140Zm1.22-5.68h2.93a2.84,2.84,0,0,0,1.85-.51,1.86,1.86,0,0,0,.6-1.5,1.79,1.79,0,0,0-.6-1.48,2.94,2.94,0,0,0-1.85-.49h-2.93Z"/><path class="cls-8" d="M139.43,140.16a8.43,8.43,0,0,1-1.55-.14,5.21,5.21,0,0,1-1.33-.45,5.07,5.07,0,0,1-1.11-.76l.46-.94a5.24,5.24,0,0,0,1.63,1,5.78,5.78,0,0,0,1.91.28,3.41,3.41,0,0,0,2-.5,1.65,1.65,0,0,0,.71-1.42,1.15,1.15,0,0,0-.36-.89,2.44,2.44,0,0,0-1-.54,13.81,13.81,0,0,0-1.37-.38A14.57,14.57,0,0,1,138,135a5.32,5.32,0,0,1-1.23-.54,2.47,2.47,0,0,1-.83-.84,2.5,2.5,0,0,1-.3-1.28,2.78,2.78,0,0,1,.48-1.61,3.2,3.2,0,0,1,1.35-1.09,5,5,0,0,1,2.06-.39,6.48,6.48,0,0,1,1.41.16,5.64,5.64,0,0,1,1.25.46,4.46,4.46,0,0,1,1,.73l-.48.95a5.11,5.11,0,0,0-1.52-.95,4.66,4.66,0,0,0-1.69-.3,3.2,3.2,0,0,0-2,.53,1.73,1.73,0,0,0-.71,1.47,1.37,1.37,0,0,0,.32.94,2.12,2.12,0,0,0,.88.58,12.18,12.18,0,0,0,1.31.4q.78.18,1.5.39a6.83,6.83,0,0,1,1.28.51,2.65,2.65,0,0,1,.89.8,2.16,2.16,0,0,1,.33,1.24,2.67,2.67,0,0,1-.48,1.59,3.1,3.1,0,0,1-1.36,1A5.36,5.36,0,0,1,139.43,140.16Z"/><path class="cls-8" d="M147.73,140v-9.63H144v-1h8.68v1H149V140Z"/><path class="cls-8" d="M81.05,158V147.36h1.23V157h5.35v1Z"/><path class="cls-8" d="M92.36,158.16a8.43,8.43,0,0,1-1.55-.14,5.21,5.21,0,0,1-1.33-.45,5.07,5.07,0,0,1-1.11-.76l.46-.94a5.24,5.24,0,0,0,1.63,1,5.78,5.78,0,0,0,1.91.28,3.41,3.41,0,0,0,2-.5,1.65,1.65,0,0,0,.71-1.42,1.15,1.15,0,0,0-.36-.89,2.44,2.44,0,0,0-1-.54,13.81,13.81,0,0,0-1.37-.38,14.57,14.57,0,0,1-1.45-.39,5.32,5.32,0,0,1-1.23-.54,2.47,2.47,0,0,1-.83-.84,2.5,2.5,0,0,1-.3-1.28,2.78,2.78,0,0,1,.48-1.61,3.2,3.2,0,0,1,1.35-1.09,5,5,0,0,1,2.06-.39,6.48,6.48,0,0,1,1.41.16,5.64,5.64,0,0,1,1.25.46,4.46,4.46,0,0,1,1,.73l-.48.95a5.11,5.11,0,0,0-1.52-.95,4.66,4.66,0,0,0-1.69-.3,3.2,3.2,0,0,0-2,.53,1.73,1.73,0,0,0-.71,1.47,1.37,1.37,0,0,0,.32.94,2.12,2.12,0,0,0,.88.58,12.18,12.18,0,0,0,1.31.4q.78.18,1.5.39a6.83,6.83,0,0,1,1.28.51,2.65,2.65,0,0,1,.89.8,2.16,2.16,0,0,1,.33,1.24,2.67,2.67,0,0,1-.48,1.59,3.1,3.1,0,0,1-1.36,1A5.36,5.36,0,0,1,92.36,158.16Z"/><path class="cls-8" d="M98.31,158V147.36h4.29a4,4,0,0,1,2.54.73,2.76,2.76,0,0,1,.41,3.63,2.72,2.72,0,0,1-1.39.91v-.12a2.78,2.78,0,0,1,1.22,4.78,4.12,4.12,0,0,1-2.63.75Zm1.22-5.94h2.88a2.91,2.91,0,0,0,1.82-.48,1.7,1.7,0,0,0,.61-1.41,1.62,1.62,0,0,0-.6-1.37,3,3,0,0,0-1.83-.46H99.53Zm0,4.92h3.12a3,3,0,0,0,1.85-.46,1.76,1.76,0,0,0,.59-1.46,1.8,1.8,0,0,0-.6-1.47,2.85,2.85,0,0,0-1.84-.49H99.53Z"/><path class="cls-8" d="M108.53,158V147.36h6.6v1h-5.39v3.7h5.09v1h-5.09V158Z"/><path class="cls-8" d="M117,158V147.36h1.23V158Z"/><path class="cls-8" d="M120.84,158V147.36h4.25a4,4,0,0,1,2.64.77,3,3,0,0,1,0,4.37,4,4,0,0,1-2.63.79l1.1-.21a1.62,1.62,0,0,1,1,.32,2.19,2.19,0,0,1,.68,1l1.35,3.61h-1.31l-1.32-3.55a1.49,1.49,0,0,0-.7-.89,2.6,2.6,0,0,0-1.17-.22h-2.67V158Zm1.22-5.68H125a2.82,2.82,0,0,0,1.85-.51,1.83,1.83,0,0,0,.61-1.5,1.79,1.79,0,0,0-.6-1.48,3,3,0,0,0-1.86-.49h-2.92Z"/><path class="cls-8" d="M134.61,158.16a8.32,8.32,0,0,1-1.54-.14,5.28,5.28,0,0,1-1.34-.45,5.07,5.07,0,0,1-1.11-.76l.47-.94a5.31,5.31,0,0,0,1.62,1,5.89,5.89,0,0,0,1.92.28,3.41,3.41,0,0,0,2-.5,1.65,1.65,0,0,0,.7-1.42,1.18,1.18,0,0,0-.35-.89,2.6,2.6,0,0,0-1-.54c-.41-.14-.86-.26-1.37-.38a14.77,14.77,0,0,1-1.46-.39,5.06,5.06,0,0,1-1.22-.54,2.38,2.38,0,0,1-.83-.84,2.5,2.5,0,0,1-.3-1.28,2.78,2.78,0,0,1,.48-1.61,3.2,3.2,0,0,1,1.35-1.09,5,5,0,0,1,2-.39,6.48,6.48,0,0,1,1.41.16,5.46,5.46,0,0,1,1.25.46,4.26,4.26,0,0,1,1,.73l-.48.95a5.07,5.07,0,0,0-1.51-.95,4.71,4.71,0,0,0-1.7-.3,3.2,3.2,0,0,0-1.95.53,1.72,1.72,0,0,0-.7,1.47,1.37,1.37,0,0,0,.31.94,2.16,2.16,0,0,0,.89.58,12,12,0,0,0,1.3.4q.78.18,1.5.39a6.57,6.57,0,0,1,1.28.51,2.6,2.6,0,0,1,.9.8,2.16,2.16,0,0,1,.33,1.24,2.67,2.67,0,0,1-.48,1.59,3.13,3.13,0,0,1-1.37,1A5.36,5.36,0,0,1,134.61,158.16Z"/><path class="cls-8" d="M142.92,158v-9.63H139.2v-1h8.69v1h-3.72V158Z"/></g><polygon class="cls-8" points="163.61 139.85 168.59 131.23 158.63 131.23 163.61 139.85"/><g class="cls-5"><path d="M7.82,140H6.62v-2l.18.17a2.51,2.51,0,0,1-1,1.45,3,3,0,0,1-1.75.51,3.17,3.17,0,0,1-1.75-.48,3.26,3.26,0,0,1-1.18-1.38,5.37,5.37,0,0,1,0-4.14,3.22,3.22,0,0,1,1.17-1.35,3.26,3.26,0,0,1,1.77-.48,3,3,0,0,1,1.75.52,2.58,2.58,0,0,1,1,1.45l-.2.15V129H7.82Zm-3.51-.9a2.06,2.06,0,0,0,1.7-.76,4.11,4.11,0,0,0,0-4.29,2.08,2.08,0,0,0-1.71-.76,2.15,2.15,0,0,0-1.74.75A3.27,3.27,0,0,0,2,136.17a3.42,3.42,0,0,0,.62,2.17A2.13,2.13,0,0,0,4.31,139.11Z"/><path d="M13.07,140.11a3.25,3.25,0,0,1-1.77-.47,3.11,3.11,0,0,1-1.17-1.35,4.85,4.85,0,0,1-.41-2.06,4.78,4.78,0,0,1,.42-2.07,3.26,3.26,0,0,1,1.18-1.38,3.1,3.1,0,0,1,1.75-.5,3,3,0,0,1,1.75.51,2.54,2.54,0,0,1,1,1.46l-.18.12v-1.91h1.2V140h-1.2v-1.95l.18.09a2.51,2.51,0,0,1-1,1.45A3,3,0,0,1,13.07,140.11Zm.24-1a2.06,2.06,0,0,0,1.71-.76,4.12,4.12,0,0,0,0-4.3,2.08,2.08,0,0,0-1.7-.75,2.11,2.11,0,0,0-1.74.78,3.36,3.36,0,0,0-.62,2.15,3.28,3.28,0,0,0,.62,2.13A2.15,2.15,0,0,0,13.31,139.11Z"/><path d="M18.11,133.42v-1H23v1Zm4.81,5.51v1l-.5.12a4.68,4.68,0,0,1-.55,0,2.29,2.29,0,0,1-1.67-.6,2.37,2.37,0,0,1-.62-1.8v-7.18l1.21-.44v7.46a2.11,2.11,0,0,0,.17.93,1,1,0,0,0,.48.46,1.74,1.74,0,0,0,.67.12,2.54,2.54,0,0,0,.41,0A2.9,2.9,0,0,0,22.92,138.93Z"/><path d="M27.32,140.11a3.25,3.25,0,0,1-1.77-.47,3.11,3.11,0,0,1-1.17-1.35,4.85,4.85,0,0,1-.41-2.06,4.78,4.78,0,0,1,.42-2.07,3.26,3.26,0,0,1,1.18-1.38,3.1,3.1,0,0,1,1.75-.5,3,3,0,0,1,1.75.51,2.54,2.54,0,0,1,1,1.46l-.18.12v-1.91h1.2V140h-1.2v-1.95l.18.09a2.51,2.51,0,0,1-1,1.45A3,3,0,0,1,27.32,140.11Zm.24-1a2.06,2.06,0,0,0,1.71-.76,4.12,4.12,0,0,0,0-4.3,2.08,2.08,0,0,0-1.7-.75,2.11,2.11,0,0,0-1.74.78,3.36,3.36,0,0,0-.62,2.15,3.28,3.28,0,0,0,.62,2.13A2.15,2.15,0,0,0,27.56,139.11Z"/><path d="M39.89,140.11a4.4,4.4,0,0,1-3-1l.41-.9a4.06,4.06,0,0,0,1.23.68,4.27,4.27,0,0,0,1.42.22,2.43,2.43,0,0,0,1.3-.29,1,1,0,0,0,.44-.85.89.89,0,0,0-.3-.71,2.3,2.3,0,0,0-1-.43l-1.27-.3a2.86,2.86,0,0,1-1.47-.75,1.81,1.81,0,0,1-.51-1.29,2,2,0,0,1,.35-1.16,2.43,2.43,0,0,1,1-.79,3.76,3.76,0,0,1,1.53-.29,4.38,4.38,0,0,1,1.5.26,3.27,3.27,0,0,1,1.19.73l-.41.89a4.17,4.17,0,0,0-1.1-.67,3.38,3.38,0,0,0-1.18-.22,2.12,2.12,0,0,0-1.25.32,1,1,0,0,0-.44.85,1,1,0,0,0,.27.74,2,2,0,0,0,.9.42l1.27.31a3,3,0,0,1,1.57.75,1.81,1.81,0,0,1,.5,1.31,1.84,1.84,0,0,1-.79,1.56A3.59,3.59,0,0,1,39.89,140.11Z"/><path d="M44.78,140V129H46v5l-.19.15a2.51,2.51,0,0,1,1.05-1.38,3,3,0,0,1,1.69-.48c1.81,0,2.71,1,2.71,3V140H50v-4.68a2.34,2.34,0,0,0-.42-1.54,1.67,1.67,0,0,0-1.32-.49,2.24,2.24,0,0,0-1.68.65,2.38,2.38,0,0,0-.63,1.74V140Z"/><path d="M53.43,129.27h1.49v1.38H53.43ZM53.55,140v-7.55h1.21V140Z"/><path d="M56.05,133.42v-1h4.53v1Zm4.75-3.34A3,3,0,0,0,60,130a1.57,1.57,0,0,0-.65.13.91.91,0,0,0-.46.45,2.11,2.11,0,0,0-.16.92V140H57.53v-8.7a2.45,2.45,0,0,1,.59-1.81,2.27,2.27,0,0,1,1.66-.59l.5,0a3.39,3.39,0,0,1,.52.1Z"/><path d="M60.76,133.42v-1h4.85v1Zm4.82,5.51v1l-.5.12a4.68,4.68,0,0,1-.55,0,2.29,2.29,0,0,1-1.67-.6,2.37,2.37,0,0,1-.63-1.8v-7.18l1.22-.44v7.46a2.11,2.11,0,0,0,.17.93,1,1,0,0,0,.47.46,1.83,1.83,0,0,0,.68.12,2.41,2.41,0,0,0,.4,0A2.69,2.69,0,0,0,65.58,138.93Z"/></g><rect class="cls-9" x="89.32" y="166.46" width="112" height="109.66" rx="5.67"/><g class="cls-5"><path class="cls-8" d="M95,179.34v-.93l3.73-4.14a7.56,7.56,0,0,0,1.1-1.52,2.94,2.94,0,0,0,.34-1.35,1.77,1.77,0,0,0-.51-1.36,2.07,2.07,0,0,0-1.45-.47,4.1,4.1,0,0,0-1.53.31,6.07,6.07,0,0,0-1.5.92l-.47-.94a4.63,4.63,0,0,1,1.59-1,5.5,5.5,0,0,1,1.94-.36,3.93,3.93,0,0,1,1.68.33,2.57,2.57,0,0,1,1.11,1,2.79,2.79,0,0,1,.39,1.5,3.9,3.9,0,0,1-.42,1.76A8.12,8.12,0,0,1,99.6,175L96,178.9l-.09-.6h5.93v1Z"/><path class="cls-8" d="M109.91,182.07a15.19,15.19,0,0,1-1-2.27,13,13,0,0,1-.55-2.21,14.49,14.49,0,0,1,0-4.49,15,15,0,0,1,.54-2.2,14.48,14.48,0,0,1,1-2.24h1a20.61,20.61,0,0,0-.88,2.46,14.42,14.42,0,0,0-.46,2.18,16.31,16.31,0,0,0,0,4.11,15.07,15.07,0,0,0,.46,2.19,22.28,22.28,0,0,0,.86,2.47Z"/><path class="cls-8" d="M115.89,179.44a5.37,5.37,0,0,1-2-.35,3,3,0,0,1-1.33-1,2.61,2.61,0,0,1-.47-1.58,2.47,2.47,0,0,1,.75-1.84,3.49,3.49,0,0,1,2-.92l-.08.23a3.23,3.23,0,0,1-1.81-.92,2.4,2.4,0,0,1-.63-1.68,2.57,2.57,0,0,1,.45-1.51,3,3,0,0,1,1.26-1,5.31,5.31,0,0,1,3.74,0,3,3,0,0,1,1.26,1,2.57,2.57,0,0,1,.46,1.51,2.43,2.43,0,0,1-.64,1.69,3.13,3.13,0,0,1-1.79.91l-.09-.23a3.43,3.43,0,0,1,2,.92,2.56,2.56,0,0,1,.73,1.84,2.62,2.62,0,0,1-.48,1.58,3,3,0,0,1-1.32,1A5.42,5.42,0,0,1,115.89,179.44Zm0-1a3.18,3.18,0,0,0,1.94-.51,1.73,1.73,0,0,0,.67-1.48,1.69,1.69,0,0,0-.73-1.44,4,4,0,0,0-1.88-.63A3.91,3.91,0,0,0,114,175a1.68,1.68,0,0,0-.74,1.44,1.74,1.74,0,0,0,.68,1.48A3.15,3.15,0,0,0,115.89,178.42Zm0-4.92a3.21,3.21,0,0,0,1.7-.64,1.84,1.84,0,0,0,0-2.8,3.24,3.24,0,0,0-3.46,0,1.86,1.86,0,0,0,0,2.8A3.21,3.21,0,0,0,115.89,173.5Z"/><path class="cls-8" d="M125.62,179.34V168.66h1l4.34,9.85h-.57l4.29-9.85h1v10.68h-1.14v-9.06l.47.06-3.94,9h-.87l-4-9,.5-.06v9.06Z"/><path class="cls-8" d="M138.36,179.34V168.66h1.22v10.68Zm.57-4.91v-1h7.74v1Zm7,4.91V168.66h1.23v10.68Z"/><path class="cls-8" d="M149.28,179.34v-.84l5.16-6.24.19.49h-5.19v-1h6.05v.89l-5.13,6.21-.17-.51h5.46v1Z"/><path class="cls-8" d="M157.78,182.07h-1a20.56,20.56,0,0,0,.87-2.47,16.42,16.42,0,0,0,.45-2.19,16.31,16.31,0,0,0,0-4.11,15.68,15.68,0,0,0-.45-2.18,20.45,20.45,0,0,0-.87-2.46h1a14.72,14.72,0,0,1,1.3,3.35,14.39,14.39,0,0,1,.39,3.34,13.91,13.91,0,0,1-.17,2.24,13,13,0,0,1-.55,2.21A15.19,15.19,0,0,1,157.78,182.07Z"/><path class="cls-8" d="M99.38,197.34V188.2h.37l-4.44,6.41,0-.62h6.9v1H94.46v-.93l5.14-7.42h1v10.68Z"/><path class="cls-8" d="M109.91,200.07a15.19,15.19,0,0,1-1-2.27,13,13,0,0,1-.55-2.21,14.49,14.49,0,0,1,0-4.49,15,15,0,0,1,.54-2.2,14.48,14.48,0,0,1,1-2.24h1a20.61,20.61,0,0,0-.88,2.46,14.42,14.42,0,0,0-.46,2.18,16.31,16.31,0,0,0,0,4.11,15.07,15.07,0,0,0,.46,2.19,22.28,22.28,0,0,0,.86,2.47Z"/><path class="cls-8" d="M117.05,197.34V188.2h.37L113,194.61l0-.62h6.9v1h-7.77v-.93l5.14-7.42h1v10.68Z"/><path class="cls-8" d="M125.62,197.34V186.66h1l4.34,9.85h-.57l4.29-9.85h1v10.68h-1.14v-9.06l.47.06-3.94,9h-.87l-4-9,.5-.06v9.06Z"/><path class="cls-8" d="M138.36,197.34V186.66h1.22v10.68Zm.57-4.91v-1h7.74v1Zm7,4.91V186.66h1.23v10.68Z"/><path class="cls-8" d="M149.28,197.34v-.84l5.16-6.24.19.49h-5.19v-1h6.05v.89l-5.13,6.21-.17-.51h5.46v1Z"/><path class="cls-8" d="M157.78,200.07h-1a20.56,20.56,0,0,0,.87-2.47,16.42,16.42,0,0,0,.45-2.19,16.31,16.31,0,0,0,0-4.11,15.68,15.68,0,0,0-.45-2.18,20.45,20.45,0,0,0-.87-2.46h1a14.72,14.72,0,0,1,1.3,3.35,14.39,14.39,0,0,1,.39,3.34,13.91,13.91,0,0,1-.17,2.24,13,13,0,0,1-.55,2.21A15.19,15.19,0,0,1,157.78,200.07Z"/><path class="cls-8" d="M94.68,213.79h1.55v1.55H94.68Z"/><path class="cls-8" d="M94.68,231.79h1.55v1.55H94.68Z"/><path class="cls-8" d="M98.57,251.46a3.57,3.57,0,0,1-3-1.35,6.1,6.1,0,0,1-1-3.84,8.62,8.62,0,0,1,.49-3.1,4.1,4.1,0,0,1,1.41-2,3.62,3.62,0,0,1,2.21-.67,5,5,0,0,1,1.8.33,4.77,4.77,0,0,1,1.55,1l-.47.94a5.64,5.64,0,0,0-1.45-.94,3.66,3.66,0,0,0-1.4-.29,2.4,2.4,0,0,0-2.14,1.22,6.55,6.55,0,0,0-.77,3.46v1.29l-.18-.4a2.89,2.89,0,0,1,.56-1.33,3.06,3.06,0,0,1,1.08-.87,3.31,3.31,0,0,1,1.45-.31,3.4,3.4,0,0,1,1.74.43,3,3,0,0,1,1.17,1.19A3.62,3.62,0,0,1,102,248a3.57,3.57,0,0,1-.44,1.77,3.27,3.27,0,0,1-1.22,1.23A3.52,3.52,0,0,1,98.57,251.46Zm-.06-1a2.21,2.21,0,0,0,1.65-.65,2.68,2.68,0,0,0,0-3.45,2.24,2.24,0,0,0-1.67-.65,2.39,2.39,0,0,0-1.23.31,2.16,2.16,0,0,0-.84.83,2.71,2.71,0,0,0,0,2.48,2.1,2.1,0,0,0,.84.83A2.54,2.54,0,0,0,98.51,250.42Z"/><path class="cls-8" d="M108.38,251.34V242.2h.37l-4.44,6.41,0-.62h6.9v1h-7.77v-.93l5.14-7.42h1v10.68Z"/><path class="cls-8" d="M118.91,254.07a15.19,15.19,0,0,1-1-2.27,13,13,0,0,1-.55-2.21,14.49,14.49,0,0,1,0-4.49,15,15,0,0,1,.54-2.2,14.48,14.48,0,0,1,1-2.24h1a20.61,20.61,0,0,0-.88,2.46,14.42,14.42,0,0,0-.46,2.18,16.31,16.31,0,0,0,0,4.11,15.07,15.07,0,0,0,.46,2.19,22.28,22.28,0,0,0,.86,2.47Z"/><path class="cls-8" d="M121.64,251.34v-.93l3.73-4.14a8,8,0,0,0,1.1-1.52,3.07,3.07,0,0,0,.34-1.35,1.77,1.77,0,0,0-.51-1.36,2.07,2.07,0,0,0-1.45-.47,4.1,4.1,0,0,0-1.53.31,6.07,6.07,0,0,0-1.5.92l-.47-.94a4.63,4.63,0,0,1,1.59-1,5.5,5.5,0,0,1,1.94-.36,3.93,3.93,0,0,1,1.68.33,2.63,2.63,0,0,1,1.11,1,2.79,2.79,0,0,1,.39,1.5,3.9,3.9,0,0,1-.42,1.76,8.12,8.12,0,0,1-1.37,1.9l-3.6,3.9-.09-.6h5.93v1Z"/><path class="cls-8" d="M134.05,251.44a5.57,5.57,0,0,1-1.92-.35,4.68,4.68,0,0,1-1.59-1l.47-.94a6.09,6.09,0,0,0,1.49.91,4,4,0,0,0,1.55.32,2.43,2.43,0,0,0,1.77-.64,2.34,2.34,0,0,0,.63-1.73,2.58,2.58,0,0,0-.28-1.24,2.06,2.06,0,0,0-.8-.83,2.44,2.44,0,0,0-1.23-.3,2.94,2.94,0,0,0-1.37.31,3,3,0,0,0-1.07.93h-.86v-6.25h6.41v1h-5.18V246l-.39-.05a3,3,0,0,1,1.12-1,3.39,3.39,0,0,1,1.54-.35,3.46,3.46,0,0,1,1.77.43,2.93,2.93,0,0,1,1.15,1.19,3.73,3.73,0,0,1,.41,1.77,3.59,3.59,0,0,1-.44,1.78A3.19,3.19,0,0,1,136,251,4,4,0,0,1,134.05,251.44Z"/><path class="cls-8" d="M142.89,251.46a3.16,3.16,0,0,1-2.78-1.39,7.13,7.13,0,0,1-1-4.07,7.22,7.22,0,0,1,.95-4.07,3.5,3.5,0,0,1,5.58,0,9.22,9.22,0,0,1,0,8.13A3.15,3.15,0,0,1,142.89,251.46Zm0-1a2,2,0,0,0,1.88-1.08,7,7,0,0,0,.61-3.36,6.86,6.86,0,0,0-.61-3.33,2.2,2.2,0,0,0-3.76,0,6.91,6.91,0,0,0-.61,3.33,7,7,0,0,0,.61,3.36A2,2,0,0,0,142.89,250.42Z"/><path class="cls-8" d="M152.62,251.34V240.66h1.23v10.68Zm6.74,0-5.88-5.43,5.62-5.25h1.58l-6,5.62.06-.79,6.25,5.85Z"/><path class="cls-8" d="M162.13,251.34V240.66h1.22v10.68Zm.57-4.91v-1h7.74v1Zm7.05,4.91V240.66H171v10.68Z"/><path class="cls-8" d="M173.05,251.34v-.84l5.16-6.24.2.49h-5.19v-1h6v.89l-5.13,6.21-.16-.51h5.46v1Z"/><path class="cls-8" d="M181.56,254.07h-1a20.56,20.56,0,0,0,.87-2.47,16.42,16.42,0,0,0,.45-2.19,15.15,15.15,0,0,0,0-4.11,15.68,15.68,0,0,0-.45-2.18,20.45,20.45,0,0,0-.87-2.46h1a14.27,14.27,0,0,1,1.3,3.35,13.88,13.88,0,0,1,.4,3.34,15.15,15.15,0,0,1-.17,2.24,14,14,0,0,1-.55,2.21A15.19,15.19,0,0,1,181.56,254.07Z"/><path class="cls-8" d="M95.64,269.34v-1h6v1Zm2.36-.56v-9.4l.7.36-2.89,1.84V260.4l2.73-1.74h.7v10.12Z"/><path class="cls-8" d="M104,269.34v-.93l3.73-4.14a7.56,7.56,0,0,0,1.1-1.52,2.94,2.94,0,0,0,.34-1.35,1.77,1.77,0,0,0-.51-1.36,2.07,2.07,0,0,0-1.45-.47,4.1,4.1,0,0,0-1.53.31,6.07,6.07,0,0,0-1.5.92l-.47-.94a4.63,4.63,0,0,1,1.59-1,5.5,5.5,0,0,1,1.94-.36,3.93,3.93,0,0,1,1.68.33,2.57,2.57,0,0,1,1.11,1,2.79,2.79,0,0,1,.39,1.5,3.9,3.9,0,0,1-.42,1.76,8.12,8.12,0,0,1-1.37,1.9l-3.6,3.9-.09-.6h5.93v1Z"/><path class="cls-8" d="M116.22,269.44a5.37,5.37,0,0,1-2-.35,3,3,0,0,1-1.33-1,2.61,2.61,0,0,1-.47-1.58,2.47,2.47,0,0,1,.75-1.84,3.49,3.49,0,0,1,2-.92l-.08.23a3.23,3.23,0,0,1-1.81-.92,2.4,2.4,0,0,1-.63-1.68,2.57,2.57,0,0,1,.45-1.51,3,3,0,0,1,1.26-1,5.31,5.31,0,0,1,3.74,0,3,3,0,0,1,1.26,1,2.57,2.57,0,0,1,.46,1.51,2.43,2.43,0,0,1-.64,1.69,3.13,3.13,0,0,1-1.79.91l-.09-.23a3.43,3.43,0,0,1,2,.92,2.56,2.56,0,0,1,.73,1.84,2.62,2.62,0,0,1-.48,1.58,3,3,0,0,1-1.32,1A5.42,5.42,0,0,1,116.22,269.44Zm0-1a3.18,3.18,0,0,0,1.94-.51,1.73,1.73,0,0,0,.67-1.48,1.67,1.67,0,0,0-.73-1.44,4,4,0,0,0-1.88-.63,4,4,0,0,0-1.87.63,1.68,1.68,0,0,0-.74,1.44,1.74,1.74,0,0,0,.68,1.48A3.15,3.15,0,0,0,116.22,268.42Zm0-4.92a3.21,3.21,0,0,0,1.7-.64,1.84,1.84,0,0,0,0-2.8,3.24,3.24,0,0,0-3.46,0,1.86,1.86,0,0,0,0,2.8A3.21,3.21,0,0,0,116.22,263.5Z"/><path class="cls-8" d="M127.91,272.07a15.19,15.19,0,0,1-1-2.27,13,13,0,0,1-.55-2.21,14.49,14.49,0,0,1,0-4.49,15,15,0,0,1,.54-2.2,14.48,14.48,0,0,1,1-2.24h1a20.61,20.61,0,0,0-.88,2.46,14.42,14.42,0,0,0-.46,2.18,16.31,16.31,0,0,0,0,4.11,15.07,15.07,0,0,0,.46,2.19,22.28,22.28,0,0,0,.86,2.47Z"/><path class="cls-8" d="M131.31,269.34v-1h5.95v1Zm2.35-.56v-9.4l.71.36-2.9,1.84V260.4l2.73-1.74h.71v10.12Z"/><path class="cls-8" d="M139.63,269.34v-.93l3.74-4.14a7.46,7.46,0,0,0,1.09-1.52,3,3,0,0,0,.35-1.35,1.77,1.77,0,0,0-.51-1.36,2.1,2.1,0,0,0-1.46-.47,4.1,4.1,0,0,0-1.53.31,6.07,6.07,0,0,0-1.5.92l-.46-.94a4.63,4.63,0,0,1,1.59-1,5.45,5.45,0,0,1,1.93-.36,4,4,0,0,1,1.69.33,2.54,2.54,0,0,1,1.1,1,2.79,2.79,0,0,1,.39,1.5,3.89,3.89,0,0,1-.41,1.76,8.12,8.12,0,0,1-1.37,1.9l-3.6,3.9-.09-.6h5.92v1Z"/><path class="cls-8" d="M152.05,269.44a5.57,5.57,0,0,1-1.92-.35,4.68,4.68,0,0,1-1.59-1l.47-.94a6.09,6.09,0,0,0,1.49.91,4,4,0,0,0,1.55.32,2.43,2.43,0,0,0,1.77-.64,2.34,2.34,0,0,0,.63-1.73,2.58,2.58,0,0,0-.28-1.24,2.06,2.06,0,0,0-.8-.83,2.44,2.44,0,0,0-1.23-.3,2.94,2.94,0,0,0-1.37.31,3,3,0,0,0-1.07.93h-.86v-6.25h6.41v1h-5.18V264l-.39-.05a3,3,0,0,1,1.12-1,3.39,3.39,0,0,1,1.54-.35,3.46,3.46,0,0,1,1.77.43,2.93,2.93,0,0,1,1.15,1.19,3.73,3.73,0,0,1,.41,1.77,3.59,3.59,0,0,1-.44,1.78A3.19,3.19,0,0,1,154,269,4,4,0,0,1,152.05,269.44Z"/><path class="cls-8" d="M161.62,269.34V258.66h1.23v10.68Zm6.74,0-5.88-5.43,5.62-5.25h1.58l-6,5.62.06-.79,6.25,5.85Z"/><path class="cls-8" d="M171.13,269.34V258.66h1.22v10.68Zm.57-4.91v-1h7.74v1Zm7.05,4.91V258.66H180v10.68Z"/><path class="cls-8" d="M182.05,269.34v-.84l5.16-6.24.2.49h-5.19v-1h6v.89l-5.13,6.21-.16-.51h5.46v1Z"/><path class="cls-8" d="M190.56,272.07h-1a20.56,20.56,0,0,0,.87-2.47,16.42,16.42,0,0,0,.45-2.19,15.15,15.15,0,0,0,0-4.11,15.68,15.68,0,0,0-.45-2.18,20.45,20.45,0,0,0-.87-2.46h1a14.27,14.27,0,0,1,1.3,3.35,13.88,13.88,0,0,1,.4,3.34,15.15,15.15,0,0,1-.17,2.24,14,14,0,0,1-.55,2.21A15.19,15.19,0,0,1,190.56,272.07Z"/></g><polygon class="cls-8" points="190.6 179.15 195.58 170.53 185.63 170.53 190.6 179.15"/><g class="cls-5"><path d="M4.34,179.41a3.67,3.67,0,0,1-1.92-.48,3.29,3.29,0,0,1-1.26-1.35,5,5,0,0,1,0-4.12,3.42,3.42,0,0,1,1.27-1.39,3.75,3.75,0,0,1,2-.49,4.34,4.34,0,0,1,1.47.26,3.24,3.24,0,0,1,1.18.73l-.4.9a4.54,4.54,0,0,0-1.09-.65,2.81,2.81,0,0,0-1.1-.22,2.26,2.26,0,0,0-1.81.76A3.16,3.16,0,0,0,2,175.52a3.12,3.12,0,0,0,.66,2.13,2.3,2.3,0,0,0,1.82.75,3,3,0,0,0,1.09-.21,4.78,4.78,0,0,0,1.1-.66l.4.9a3.51,3.51,0,0,1-1.21.72A4.46,4.46,0,0,1,4.34,179.41Z"/><path d="M8.59,179.3v-11H9.81v11Z"/><path d="M15.28,179.41a3.6,3.6,0,0,1-1.88-.48,3.21,3.21,0,0,1-1.24-1.36,5,5,0,0,1,0-4.15,3.21,3.21,0,0,1,1.24-1.36,3.6,3.6,0,0,1,1.88-.48,3.64,3.64,0,0,1,1.89.48,3.21,3.21,0,0,1,1.24,1.36,5.11,5.11,0,0,1,0,4.15,3.21,3.21,0,0,1-1.24,1.36A3.64,3.64,0,0,1,15.28,179.41Zm0-1a2.08,2.08,0,0,0,1.72-.74,3.32,3.32,0,0,0,.61-2.17,3.29,3.29,0,0,0-.62-2.14,2.09,2.09,0,0,0-1.71-.75,2.09,2.09,0,0,0-1.71.75,3.23,3.23,0,0,0-.63,2.14,3.38,3.38,0,0,0,.61,2.17A2.1,2.1,0,0,0,15.28,178.4Z"/><path d="M23.91,179.41a3.7,3.7,0,0,1-1.92-.48,3.2,3.2,0,0,1-1.25-1.35,4.44,4.44,0,0,1-.44-2.06,4.52,4.52,0,0,1,.44-2.06A3.44,3.44,0,0,1,22,172.07a3.72,3.72,0,0,1,1.95-.49,4.39,4.39,0,0,1,1.48.26,3.28,3.28,0,0,1,1.17.73l-.4.9a4.35,4.35,0,0,0-1.09-.65,2.77,2.77,0,0,0-1.1-.22,2.28,2.28,0,0,0-1.81.76,3.21,3.21,0,0,0-.67,2.16,3.12,3.12,0,0,0,.66,2.13,2.3,2.3,0,0,0,1.82.75,3,3,0,0,0,1.09-.21,4.78,4.78,0,0,0,1.1-.66l.4.9a3.55,3.55,0,0,1-1.2.72A4.57,4.57,0,0,1,23.91,179.41Z"/><path d="M28.17,179.3v-11h1.21v11Zm5.08,0-4.11-3.85,3.8-3.68h1.54l-4.2,4,0-.76,4.51,4.27Z"/><path d="M46.45,179.3h-1.2v-2l.18.16a2.52,2.52,0,0,1-1,1.46,3,3,0,0,1-1.76.51,3.08,3.08,0,0,1-1.74-.49,3.15,3.15,0,0,1-1.18-1.38,5.35,5.35,0,0,1,0-4.13,3.1,3.1,0,0,1,2.93-1.83,2.91,2.91,0,0,1,1.76.52,2.51,2.51,0,0,1,1,1.44l-.19.15v-5.43h1.21Zm-3.51-.9a2.09,2.09,0,0,0,1.71-.75,3.43,3.43,0,0,0,.6-2.16,3.33,3.33,0,0,0-.6-2.13,2,2,0,0,0-1.71-.76,2.13,2.13,0,0,0-1.73.75,3.24,3.24,0,0,0-.62,2.11,3.4,3.4,0,0,0,.62,2.17A2.09,2.09,0,0,0,42.94,178.4Z"/><path d="M48.69,168.56h1.48v1.38H48.69Zm.12,10.74v-7.54H50v7.54Z"/><path d="M54.6,179.3l-3.21-7.53h1.27l2.73,6.65H55l2.76-6.65H59l-3.26,7.53Z"/><path d="M60.22,168.56h1.49v1.38H60.22Zm.12,10.74v-7.54h1.22v7.54Z"/><path d="M70.56,179.3h-1.2v-2l.18.16a2.54,2.54,0,0,1-1,1.46,2.94,2.94,0,0,1-1.75.51,3.14,3.14,0,0,1-1.75-.49,3.21,3.21,0,0,1-1.18-1.38,4.83,4.83,0,0,1-.42-2.08,4.66,4.66,0,0,1,.42-2.05,3.09,3.09,0,0,1,1.17-1.35,3.2,3.2,0,0,1,1.76-.48,2.88,2.88,0,0,1,1.75.52,2.52,2.52,0,0,1,1,1.44l-.2.15v-5.43h1.22Zm-3.51-.9a2.06,2.06,0,0,0,1.7-.75,4.11,4.11,0,0,0,0-4.29,2,2,0,0,0-1.71-.76,2.12,2.12,0,0,0-1.73.75,3.18,3.18,0,0,0-.63,2.11,3.34,3.34,0,0,0,.63,2.17A2.07,2.07,0,0,0,67.05,178.4Z"/><path d="M79.09,178.4a3.53,3.53,0,0,1-1.26.74,4.83,4.83,0,0,1-1.59.27,4.09,4.09,0,0,1-2-.47,3.14,3.14,0,0,1-1.31-1.34,5,5,0,0,1,0-4.15,3.37,3.37,0,0,1,1.26-1.38,3.43,3.43,0,0,1,1.85-.49,3.26,3.26,0,0,1,1.72.44,2.93,2.93,0,0,1,1.11,1.27,4.76,4.76,0,0,1,.38,2v.22h-5.7v-.79h5l-.39.55a3.08,3.08,0,0,0-.52-2,1.9,1.9,0,0,0-1.6-.71,2.06,2.06,0,0,0-1.71.78,4,4,0,0,0,0,4.35,2.39,2.39,0,0,0,1.91.75,3.89,3.89,0,0,0,1.27-.21,4.15,4.15,0,0,0,1.16-.67Z"/></g><rect class="cls-9" x="161.49" y="282.32" width="141.39" height="72.8" rx="5.67"/><g class="cls-5"><path class="cls-8" d="M170.4,295.32a3.16,3.16,0,0,1-2.78-1.39,7.16,7.16,0,0,1-1-4.07,7.28,7.28,0,0,1,1-4.08,3.51,3.51,0,0,1,5.58,0,9.24,9.24,0,0,1,0,8.14A3.15,3.15,0,0,1,170.4,295.32Zm0-1a2,2,0,0,0,1.88-1.08,7,7,0,0,0,.61-3.36,6.93,6.93,0,0,0-.61-3.34,2.2,2.2,0,0,0-3.76,0,6.91,6.91,0,0,0-.61,3.33,7,7,0,0,0,.61,3.36A2,2,0,0,0,170.4,294.28Z"/><path class="cls-8" d="M182.08,297.93a15.19,15.19,0,0,1-1-2.27,12.93,12.93,0,0,1-.54-2.21,14.09,14.09,0,0,1,0-4.49,14.74,14.74,0,0,1,.55-2.2,14.4,14.4,0,0,1,1-2.24h1a20.45,20.45,0,0,0-.87,2.46,14.42,14.42,0,0,0-.46,2.18,15.15,15.15,0,0,0,0,4.11,15.07,15.07,0,0,0,.46,2.19,22.28,22.28,0,0,0,.86,2.47Z"/><path class="cls-8" d="M184.89,295.2V284.52h1.23v9.63h5.35v1.05Z"/><path class="cls-8" d="M196,295.3a3.58,3.58,0,0,1-1.88-.48,3.23,3.23,0,0,1-1.25-1.36,4.58,4.58,0,0,1-.44-2.07,4.64,4.64,0,0,1,.44-2.07,3.26,3.26,0,0,1,1.25-1.37,3.92,3.92,0,0,1,3.76,0,3.26,3.26,0,0,1,1.25,1.37,4.64,4.64,0,0,1,.44,2.07,4.58,4.58,0,0,1-.44,2.07,3.23,3.23,0,0,1-1.25,1.36A3.58,3.58,0,0,1,196,295.3Zm0-1a2.1,2.1,0,0,0,1.72-.75,4.14,4.14,0,0,0,0-4.31,2.09,2.09,0,0,0-1.71-.75,2.12,2.12,0,0,0-1.72.75,4.08,4.08,0,0,0,0,4.31A2.09,2.09,0,0,0,196,294.3Z"/><path class="cls-8" d="M203.41,295.2l-2.79-7.55h1.28l2.32,6.65h-.39l2.4-6.65h1.07l2.37,6.65h-.39l2.37-6.65h1.2l-2.79,7.55h-1.17l-2.49-6.8h.66l-2.48,6.8Z"/><path class="cls-8" d="M218.26,291.67v-1h4.25v1Z"/><path class="cls-8" d="M228.84,295.2V284.52h6.6v1h-5.39v3.71h5.09v1h-5.09v4.91Z"/><path class="cls-8" d="M239.88,295.3a3.34,3.34,0,0,1-1.77-.47,3.22,3.22,0,0,1-1.17-1.35,4.88,4.88,0,0,1-.41-2.06,4.78,4.78,0,0,1,.42-2.07,3.26,3.26,0,0,1,1.18-1.38,3.12,3.12,0,0,1,1.75-.5,2.94,2.94,0,0,1,1.75.51,2.54,2.54,0,0,1,1,1.46l-.18.12v-1.91h1.2v7.55h-1.2v-1.95l.18.09a2.51,2.51,0,0,1-1,1.45A2.94,2.94,0,0,1,239.88,295.3Zm.24-1a2.07,2.07,0,0,0,1.71-.76,4.12,4.12,0,0,0,0-4.3,2.07,2.07,0,0,0-1.7-.75,2.13,2.13,0,0,0-1.74.77,3.41,3.41,0,0,0-.62,2.16,3.28,3.28,0,0,0,.62,2.13A2.15,2.15,0,0,0,240.12,294.3Z"/><path class="cls-8" d="M246,295.2v-11h1.22v11Z"/><path class="cls-8" d="M249.55,295.2v-11h1.22v11Z"/><path class="cls-8" d="M253,284.46h1.49v1.38H253Zm.12,10.74v-7.55h1.22v7.55Z"/><path class="cls-8" d="M256.69,295.2v-5.43c0-.35,0-.71,0-1.06s-.05-.71-.1-1.06h1.16l.13,1.56-.15.12a2.61,2.61,0,0,1,1.05-1.39,3.12,3.12,0,0,1,1.7-.47c1.81,0,2.71,1,2.71,3v4.74H262v-4.68a2.32,2.32,0,0,0-.42-1.54,1.64,1.64,0,0,0-1.32-.49,2.24,2.24,0,0,0-1.68.65,2.38,2.38,0,0,0-.63,1.74v4.32Z"/><path class="cls-8" d="M268.78,298.54a5.53,5.53,0,0,1-3-.78l.21-1a6.1,6.1,0,0,0,1.34.59,5.15,5.15,0,0,0,1.42.18,2.2,2.2,0,0,0,1.64-.58,2.36,2.36,0,0,0,.57-1.72v-2l.16-.19a2.9,2.9,0,0,1-.56,1,2.67,2.67,0,0,1-.94.68,3.15,3.15,0,0,1-1.26.24,3.18,3.18,0,0,1-2.95-1.78,4.36,4.36,0,0,1-.42-2,4.32,4.32,0,0,1,.42-2,3.17,3.17,0,0,1,2.95-1.79,3,3,0,0,1,1.78.52,2.54,2.54,0,0,1,1,1.45l-.18-.17v-1.62h1.22v7.49a3,3,0,0,1-3.41,3.4Zm-.15-4.59a2.14,2.14,0,0,0,1.72-.73,3.54,3.54,0,0,0,0-4,2.14,2.14,0,0,0-1.72-.73,2.2,2.2,0,0,0-1.75.73,3.51,3.51,0,0,0,0,4A2.23,2.23,0,0,0,268.63,294Z"/><path class="cls-8" d="M274.84,297.93h-1a20.56,20.56,0,0,0,.87-2.47,16.42,16.42,0,0,0,.45-2.19,16.31,16.31,0,0,0,0-4.11,15.68,15.68,0,0,0-.45-2.18,20.45,20.45,0,0,0-.87-2.46h1a14.22,14.22,0,0,1,1.29,3.35,13.88,13.88,0,0,1,.4,3.34,15.15,15.15,0,0,1-.17,2.24,14,14,0,0,1-.55,2.21A15.19,15.19,0,0,1,274.84,297.93Z"/><path class="cls-8" d="M167.82,313.2v-1h6v1Zm2.35-.56v-9.4l.71.36-2.9,1.84v-1.18l2.73-1.74h.71v10.12Z"/><path class="cls-8" d="M182.08,315.93a15.19,15.19,0,0,1-1-2.27,12.93,12.93,0,0,1-.54-2.21,14.09,14.09,0,0,1,0-4.49,14.74,14.74,0,0,1,.55-2.2,14.4,14.4,0,0,1,1-2.24h1a20.45,20.45,0,0,0-.87,2.46,14.42,14.42,0,0,0-.46,2.18,15.15,15.15,0,0,0,0,4.11,15.07,15.07,0,0,0,.46,2.19,22.28,22.28,0,0,0,.86,2.47Z"/><path class="cls-8" d="M184.89,313.2V302.52h1.23v9.63h5.35v1.05Z"/><path class="cls-8" d="M196,313.3a3.58,3.58,0,0,1-1.88-.48,3.23,3.23,0,0,1-1.25-1.36,4.58,4.58,0,0,1-.44-2.07,4.64,4.64,0,0,1,.44-2.07,3.26,3.26,0,0,1,1.25-1.37,3.92,3.92,0,0,1,3.76,0,3.26,3.26,0,0,1,1.25,1.37,4.64,4.64,0,0,1,.44,2.07,4.58,4.58,0,0,1-.44,2.07,3.23,3.23,0,0,1-1.25,1.36A3.58,3.58,0,0,1,196,313.3Zm0-1a2.1,2.1,0,0,0,1.72-.75,4.14,4.14,0,0,0,0-4.31,2.09,2.09,0,0,0-1.71-.75,2.12,2.12,0,0,0-1.72.75,4.08,4.08,0,0,0,0,4.31A2.09,2.09,0,0,0,196,312.3Z"/><path class="cls-8" d="M203.41,313.2l-2.79-7.55h1.28l2.32,6.65h-.39l2.4-6.65h1.07l2.37,6.65h-.39l2.37-6.65h1.2l-2.79,7.55h-1.17l-2.49-6.8h.66l-2.48,6.8Z"/><path class="cls-8" d="M218.26,309.67v-1h4.25v1Z"/><path class="cls-8" d="M228.84,313.2V302.52h4.24a4.06,4.06,0,0,1,2.65.76,2.73,2.73,0,0,1,.92,2.21,2.64,2.64,0,0,1-.94,2.16,3.93,3.93,0,0,1-2.63.79l1.11-.21a1.65,1.65,0,0,1,1,.32,2.23,2.23,0,0,1,.67,1l1.35,3.62h-1.3l-1.32-3.56a1.53,1.53,0,0,0-.7-.89,2.64,2.64,0,0,0-1.18-.22h-2.67v4.67Zm1.21-5.69H233a2.84,2.84,0,0,0,1.85-.51,1.86,1.86,0,0,0,.61-1.5,1.8,1.8,0,0,0-.6-1.48,3,3,0,0,0-1.86-.48h-2.93Z"/><path class="cls-8" d="M242,313.3a3.34,3.34,0,0,1-1.77-.47,3.22,3.22,0,0,1-1.17-1.35,4.88,4.88,0,0,1-.41-2.06,4.78,4.78,0,0,1,.42-2.07,3.26,3.26,0,0,1,1.18-1.38,3.12,3.12,0,0,1,1.75-.5,2.94,2.94,0,0,1,1.75.51,2.54,2.54,0,0,1,1,1.46l-.18.12v-1.91h1.2v7.55h-1.2v-1.95l.18.09a2.51,2.51,0,0,1-1,1.45A2.94,2.94,0,0,1,242,313.3Zm.24-1a2.07,2.07,0,0,0,1.71-.76,4.12,4.12,0,0,0,0-4.3,2.07,2.07,0,0,0-1.7-.75,2.13,2.13,0,0,0-1.74.77,3.41,3.41,0,0,0-.62,2.16,3.28,3.28,0,0,0,.62,2.13A2.15,2.15,0,0,0,242.22,312.3Z"/><path class="cls-8" d="M248,302.46h1.49v1.38H248Zm.12,10.74v-7.55h1.22v7.55Z"/><path class="cls-8" d="M254.2,313.3a4.39,4.39,0,0,1-3-1l.4-.9a4.33,4.33,0,0,0,1.24.68,4.5,4.5,0,0,0,1.42.22,2.28,2.28,0,0,0,1.29-.3.93.93,0,0,0,.45-.84.92.92,0,0,0-.3-.72,2.43,2.43,0,0,0-1-.42l-1.28-.3A2.78,2.78,0,0,1,252,309a1.78,1.78,0,0,1-.52-1.29,2,2,0,0,1,.36-1.17,2.43,2.43,0,0,1,1-.78,3.76,3.76,0,0,1,1.53-.29,4.38,4.38,0,0,1,1.5.26,3.14,3.14,0,0,1,1.18.73l-.4.89a3.83,3.83,0,0,0-1.11-.67,3.08,3.08,0,0,0-1.17-.22,2.17,2.17,0,0,0-1.26.32,1,1,0,0,0-.44.85,1,1,0,0,0,.28.74,1.89,1.89,0,0,0,.89.42l1.28.31a3,3,0,0,1,1.56.74,1.82,1.82,0,0,1,.51,1.32,1.85,1.85,0,0,1-.8,1.56A3.57,3.57,0,0,1,254.2,313.3Z"/><path class="cls-8" d="M259,302.46h1.49v1.38H259Zm.12,10.74v-7.55h1.22v7.55Z"/><path class="cls-8" d="M262.66,313.2v-5.43c0-.35,0-.71,0-1.06s-.05-.71-.1-1.06h1.16l.13,1.56-.15.12a2.61,2.61,0,0,1,1.05-1.39,3.12,3.12,0,0,1,1.7-.47c1.81,0,2.71,1,2.71,3v4.74h-1.21v-4.68a2.32,2.32,0,0,0-.42-1.54,1.64,1.64,0,0,0-1.32-.49,2.24,2.24,0,0,0-1.68.65,2.38,2.38,0,0,0-.63,1.74v4.32Z"/><path class="cls-8" d="M274.75,316.54a5.53,5.53,0,0,1-3-.78l.21-1a6.1,6.1,0,0,0,1.34.59,5.15,5.15,0,0,0,1.42.18,2.2,2.2,0,0,0,1.64-.58,2.36,2.36,0,0,0,.57-1.72v-2l.16-.19a2.9,2.9,0,0,1-.56,1,2.67,2.67,0,0,1-.94.68,3.15,3.15,0,0,1-1.26.24,3.18,3.18,0,0,1-2.95-1.78,4.36,4.36,0,0,1-.42-2,4.32,4.32,0,0,1,.42-2,3.17,3.17,0,0,1,2.95-1.79,3,3,0,0,1,1.78.52,2.54,2.54,0,0,1,1,1.45l-.18-.17v-1.62h1.22v7.49a3,3,0,0,1-3.41,3.4ZM274.6,312a2.14,2.14,0,0,0,1.72-.73,3.54,3.54,0,0,0,0-4,2.14,2.14,0,0,0-1.72-.73,2.2,2.2,0,0,0-1.75.73,3.51,3.51,0,0,0,0,4A2.23,2.23,0,0,0,274.6,312Z"/><path class="cls-8" d="M280.81,315.93h-1a20.56,20.56,0,0,0,.87-2.47,16.42,16.42,0,0,0,.45-2.19,16.31,16.31,0,0,0,0-4.11,15.68,15.68,0,0,0-.45-2.18,20.45,20.45,0,0,0-.87-2.46h1a14.22,14.22,0,0,1,1.29,3.35,13.88,13.88,0,0,1,.4,3.34,15.15,15.15,0,0,1-.17,2.24,14,14,0,0,1-.55,2.21A15.19,15.19,0,0,1,280.81,315.93Z"/><path class="cls-8" d="M167.14,331.2v-.93l3.74-4.14a7.46,7.46,0,0,0,1.09-1.52,3,3,0,0,0,.35-1.35,1.77,1.77,0,0,0-.51-1.36,2.1,2.1,0,0,0-1.46-.47,3.91,3.91,0,0,0-1.53.31,5.79,5.79,0,0,0-1.5.92l-.46-.94a4.63,4.63,0,0,1,1.59-1,5.45,5.45,0,0,1,1.93-.36,4,4,0,0,1,1.69.33,2.54,2.54,0,0,1,1.1,1,2.79,2.79,0,0,1,.39,1.5,3.89,3.89,0,0,1-.41,1.76,8.12,8.12,0,0,1-1.37,1.9l-3.6,3.9-.09-.6H174v1Z"/><path class="cls-8" d="M182.08,333.93a15.19,15.19,0,0,1-1-2.27,12.93,12.93,0,0,1-.54-2.21,14.09,14.09,0,0,1,0-4.49,14.74,14.74,0,0,1,.55-2.2,14.4,14.4,0,0,1,1-2.24h1a20.45,20.45,0,0,0-.87,2.46,14.42,14.42,0,0,0-.46,2.18,15.15,15.15,0,0,0,0,4.11,15.07,15.07,0,0,0,.46,2.19,22.28,22.28,0,0,0,.86,2.47Z"/><path class="cls-8" d="M184.89,331.2V320.52h1.21V331.2Zm.57-4.91v-1h7.74v1Zm7,4.91V320.52h1.23V331.2Z"/><path class="cls-8" d="M196.11,320.46h1.48v1.38h-1.48Zm.12,10.74v-7.55h1.21v7.55Z"/><path class="cls-8" d="M203.11,334.54a5.53,5.53,0,0,1-3-.78l.21-1a6.1,6.1,0,0,0,1.34.59,5.15,5.15,0,0,0,1.42.18,2.2,2.2,0,0,0,1.64-.58,2.36,2.36,0,0,0,.57-1.72v-2l.16-.19a2.9,2.9,0,0,1-.56,1,2.59,2.59,0,0,1-.94.68,3.15,3.15,0,0,1-1.26.24,3.15,3.15,0,0,1-2.94-1.78,4.7,4.7,0,0,1,0-3.93,3.14,3.14,0,0,1,2.94-1.79,3,3,0,0,1,1.78.52,2.54,2.54,0,0,1,1,1.45l-.18-.17v-1.62h1.22v7.49a3,3,0,0,1-3.41,3.4ZM203,330a2.14,2.14,0,0,0,1.72-.73,3.54,3.54,0,0,0,0-4,2.14,2.14,0,0,0-1.72-.73,2.2,2.2,0,0,0-1.75.73,3.51,3.51,0,0,0,0,4A2.23,2.23,0,0,0,203,330Z"/><path class="cls-8" d="M208.86,331.2v-11h1.21v5l-.19.15a2.61,2.61,0,0,1,1.05-1.39,3.09,3.09,0,0,1,1.69-.47c1.81,0,2.72,1,2.72,3v4.74h-1.22v-4.68a2.32,2.32,0,0,0-.42-1.54,1.64,1.64,0,0,0-1.32-.49,2.24,2.24,0,0,0-1.68.65,2.38,2.38,0,0,0-.63,1.74v4.32Z"/><path class="cls-8" d="M221.47,327.67v-1h4.25v1Z"/><path class="cls-8" d="M232.05,331.2V320.52h6.6v1h-5.39v3.71h5.09v1h-5.09v4.91Z"/><path class="cls-8" d="M243.09,331.3a3.34,3.34,0,0,1-1.77-.47,3.22,3.22,0,0,1-1.17-1.35,4.88,4.88,0,0,1-.41-2.06,4.78,4.78,0,0,1,.42-2.07,3.26,3.26,0,0,1,1.18-1.38,3.12,3.12,0,0,1,1.75-.5,2.94,2.94,0,0,1,1.75.51,2.54,2.54,0,0,1,1,1.46l-.18.12v-1.91h1.2v7.55h-1.2v-1.95l.18.09a2.51,2.51,0,0,1-1,1.45A2.94,2.94,0,0,1,243.09,331.3Zm.24-1a2.07,2.07,0,0,0,1.71-.76,4.12,4.12,0,0,0,0-4.3,2.07,2.07,0,0,0-1.7-.75,2.13,2.13,0,0,0-1.74.77,3.41,3.41,0,0,0-.62,2.16,3.28,3.28,0,0,0,.62,2.13A2.15,2.15,0,0,0,243.33,330.3Z"/><path class="cls-8" d="M249.19,331.2v-11h1.22v11Z"/><path class="cls-8" d="M252.76,331.2v-11H254v11Z"/><path class="cls-8" d="M256.21,320.46h1.49v1.38h-1.49Zm.12,10.74v-7.55h1.22v7.55Z"/><path class="cls-8" d="M259.9,331.2v-5.43c0-.35,0-.71,0-1.06s-.05-.71-.1-1.06h1.16l.13,1.56-.15.12a2.61,2.61,0,0,1,1.05-1.39,3.12,3.12,0,0,1,1.7-.47c1.81,0,2.71,1,2.71,3v4.74h-1.21v-4.68a2.32,2.32,0,0,0-.42-1.54,1.64,1.64,0,0,0-1.32-.49,2.24,2.24,0,0,0-1.68.65,2.38,2.38,0,0,0-.63,1.74v4.32Z"/><path class="cls-8" d="M272,334.54a5.53,5.53,0,0,1-3-.78l.21-1a6.1,6.1,0,0,0,1.34.59,5.15,5.15,0,0,0,1.42.18,2.2,2.2,0,0,0,1.64-.58,2.36,2.36,0,0,0,.57-1.72v-2l.16-.19a2.9,2.9,0,0,1-.56,1,2.67,2.67,0,0,1-.94.68,3.15,3.15,0,0,1-1.26.24,3.18,3.18,0,0,1-3-1.78,4.36,4.36,0,0,1-.42-2,4.32,4.32,0,0,1,.42-2,3.17,3.17,0,0,1,3-1.79,3,3,0,0,1,1.78.52,2.54,2.54,0,0,1,1,1.45l-.18-.17v-1.62h1.22v7.49a3,3,0,0,1-3.41,3.4Zm-.15-4.59a2.14,2.14,0,0,0,1.72-.73,3.54,3.54,0,0,0,0-4,2.14,2.14,0,0,0-1.72-.73,2.2,2.2,0,0,0-1.75.73,3.51,3.51,0,0,0,0,4A2.23,2.23,0,0,0,271.84,330Z"/><path class="cls-8" d="M278.05,333.93h-1a20.56,20.56,0,0,0,.87-2.47,16.42,16.42,0,0,0,.45-2.19,16.31,16.31,0,0,0,0-4.11,15.68,15.68,0,0,0-.45-2.18,20.45,20.45,0,0,0-.87-2.46h1a14.22,14.22,0,0,1,1.29,3.35,13.88,13.88,0,0,1,.4,3.34,15.15,15.15,0,0,1-.17,2.24,14,14,0,0,1-.55,2.21A15.19,15.19,0,0,1,278.05,333.93Z"/><path class="cls-8" d="M170.29,349.3a5.72,5.72,0,0,1-2-.34,4.54,4.54,0,0,1-1.62-1l.48-.94a5.53,5.53,0,0,0,1.49.92,4.34,4.34,0,0,0,1.6.31,2.62,2.62,0,0,0,1.74-.51,1.89,1.89,0,0,0,.59-1.5,1.77,1.77,0,0,0-.62-1.48,2.89,2.89,0,0,0-1.84-.49H168.9v-1h1a2.75,2.75,0,0,0,1.81-.53,1.84,1.84,0,0,0,.63-1.5,1.7,1.7,0,0,0-.51-1.33,2.14,2.14,0,0,0-1.47-.47,3.92,3.92,0,0,0-1.54.31,5.58,5.58,0,0,0-1.49.92l-.46-.94a4.53,4.53,0,0,1,1.59-1,5.42,5.42,0,0,1,2-.35,4,4,0,0,1,1.68.33,2.53,2.53,0,0,1,1.1,1,2.64,2.64,0,0,1,.38,1.45,2.8,2.8,0,0,1-.51,1.69,2.63,2.63,0,0,1-1.42.95l0-.15a2.8,2.8,0,0,1,1.65.92,2.65,2.65,0,0,1,.57,1.75,2.74,2.74,0,0,1-.94,2.2A3.87,3.87,0,0,1,170.29,349.3Z"/><path class="cls-8" d="M182.08,351.93a15.19,15.19,0,0,1-1-2.27,12.93,12.93,0,0,1-.54-2.21,14.09,14.09,0,0,1,0-4.49,14.74,14.74,0,0,1,.55-2.2,14.4,14.4,0,0,1,1-2.24h1a20.45,20.45,0,0,0-.87,2.46,14.42,14.42,0,0,0-.46,2.18,15.15,15.15,0,0,0,0,4.11,15.07,15.07,0,0,0,.46,2.19,22.28,22.28,0,0,0,.86,2.47Z"/><path class="cls-8" d="M184.89,349.2V338.52h1.21V349.2Zm.57-4.91v-1h7.74v1Zm7,4.91V338.52h1.23V349.2Z"/><path class="cls-8" d="M196.11,338.46h1.48v1.38h-1.48Zm.12,10.74v-7.55h1.21v7.55Z"/><path class="cls-8" d="M203.11,352.54a5.53,5.53,0,0,1-3-.78l.21-1a6.1,6.1,0,0,0,1.34.59,5.15,5.15,0,0,0,1.42.18,2.2,2.2,0,0,0,1.64-.58,2.36,2.36,0,0,0,.57-1.72v-2l.16-.19a2.9,2.9,0,0,1-.56,1,2.59,2.59,0,0,1-.94.68,3.15,3.15,0,0,1-1.26.24,3.15,3.15,0,0,1-2.94-1.78,4.7,4.7,0,0,1,0-3.93,3.14,3.14,0,0,1,2.94-1.79,3,3,0,0,1,1.78.52,2.54,2.54,0,0,1,1,1.45l-.18-.17v-1.62h1.22v7.49a3,3,0,0,1-3.41,3.4ZM203,348a2.14,2.14,0,0,0,1.72-.73,3.54,3.54,0,0,0,0-4,2.14,2.14,0,0,0-1.72-.73,2.2,2.2,0,0,0-1.75.73,3.51,3.51,0,0,0,0,4A2.23,2.23,0,0,0,203,348Z"/><path class="cls-8" d="M208.86,349.2v-11h1.21v5l-.19.15a2.61,2.61,0,0,1,1.05-1.39,3.09,3.09,0,0,1,1.69-.47c1.81,0,2.72,1,2.72,3v4.74h-1.22v-4.68a2.32,2.32,0,0,0-.42-1.54,1.64,1.64,0,0,0-1.32-.49,2.24,2.24,0,0,0-1.68.65,2.38,2.38,0,0,0-.63,1.74v4.32Z"/><path class="cls-8" d="M221.47,345.67v-1h4.25v1Z"/><path class="cls-8" d="M232.05,349.2V338.52h4.24a4.06,4.06,0,0,1,2.65.76,2.73,2.73,0,0,1,.92,2.21,2.64,2.64,0,0,1-.94,2.16,3.93,3.93,0,0,1-2.63.79l1.11-.21a1.65,1.65,0,0,1,1,.32,2.23,2.23,0,0,1,.67,1l1.35,3.62h-1.3l-1.32-3.56a1.53,1.53,0,0,0-.7-.89,2.64,2.64,0,0,0-1.18-.22h-2.67v4.67Zm1.21-5.69h2.93A2.84,2.84,0,0,0,238,343a1.86,1.86,0,0,0,.61-1.5,1.8,1.8,0,0,0-.6-1.48,3,3,0,0,0-1.86-.48h-2.93Z"/><path class="cls-8" d="M245.19,349.3a3.34,3.34,0,0,1-1.77-.47,3.22,3.22,0,0,1-1.17-1.35,4.88,4.88,0,0,1-.41-2.06,4.78,4.78,0,0,1,.42-2.07,3.26,3.26,0,0,1,1.18-1.38,3.12,3.12,0,0,1,1.75-.5,2.94,2.94,0,0,1,1.75.51,2.54,2.54,0,0,1,1,1.46l-.18.12v-1.91h1.2v7.55h-1.2v-1.95l.18.09a2.51,2.51,0,0,1-1,1.45A2.94,2.94,0,0,1,245.19,349.3Zm.24-1a2.07,2.07,0,0,0,1.71-.76,4.12,4.12,0,0,0,0-4.3,2.07,2.07,0,0,0-1.7-.75,2.13,2.13,0,0,0-1.74.77,3.41,3.41,0,0,0-.62,2.16,3.28,3.28,0,0,0,.62,2.13A2.15,2.15,0,0,0,245.43,348.3Z"/><path class="cls-8" d="M251.17,338.46h1.49v1.38h-1.49Zm.12,10.74v-7.55h1.22v7.55Z"/><path class="cls-8" d="M257.41,349.3a4.39,4.39,0,0,1-3-1l.4-.9a4.33,4.33,0,0,0,1.24.68,4.5,4.5,0,0,0,1.42.22,2.28,2.28,0,0,0,1.29-.3.93.93,0,0,0,.45-.84.92.92,0,0,0-.3-.72,2.43,2.43,0,0,0-1-.42l-1.28-.3a2.78,2.78,0,0,1-1.46-.75,1.78,1.78,0,0,1-.52-1.29,2,2,0,0,1,.36-1.17,2.43,2.43,0,0,1,1-.78,3.76,3.76,0,0,1,1.53-.29,4.38,4.38,0,0,1,1.5.26,3.14,3.14,0,0,1,1.18.73l-.4.89a3.83,3.83,0,0,0-1.11-.67,3.08,3.08,0,0,0-1.17-.22,2.17,2.17,0,0,0-1.26.32,1,1,0,0,0-.44.85,1,1,0,0,0,.28.74,1.89,1.89,0,0,0,.89.42l1.28.31a3,3,0,0,1,1.56.74,1.82,1.82,0,0,1,.51,1.32,1.85,1.85,0,0,1-.8,1.56A3.57,3.57,0,0,1,257.41,349.3Z"/><path class="cls-8" d="M262.18,338.46h1.49v1.38h-1.49Zm.12,10.74v-7.55h1.22v7.55Z"/><path class="cls-8" d="M265.87,349.2v-5.43c0-.35,0-.71,0-1.06s-.05-.71-.1-1.06h1.16l.13,1.56-.15.12a2.61,2.61,0,0,1,1.05-1.39,3.12,3.12,0,0,1,1.7-.47c1.81,0,2.71,1,2.71,3v4.74h-1.21v-4.68a2.32,2.32,0,0,0-.42-1.54,1.64,1.64,0,0,0-1.32-.49,2.24,2.24,0,0,0-1.68.65,2.38,2.38,0,0,0-.63,1.74v4.32Z"/><path class="cls-8" d="M278,352.54a5.53,5.53,0,0,1-3-.78l.21-1a6.1,6.1,0,0,0,1.34.59,5.15,5.15,0,0,0,1.42.18,2.2,2.2,0,0,0,1.64-.58,2.36,2.36,0,0,0,.57-1.72v-2l.16-.19a2.9,2.9,0,0,1-.56,1,2.67,2.67,0,0,1-.94.68,3.15,3.15,0,0,1-1.26.24,3.18,3.18,0,0,1-2.95-1.78,4.36,4.36,0,0,1-.42-2,4.32,4.32,0,0,1,.42-2,3.17,3.17,0,0,1,2.95-1.79,3,3,0,0,1,1.78.52,2.54,2.54,0,0,1,1,1.45l-.18-.17v-1.62h1.22v7.49a3,3,0,0,1-3.41,3.4Zm-.15-4.59a2.14,2.14,0,0,0,1.72-.73,3.54,3.54,0,0,0,0-4,2.14,2.14,0,0,0-1.72-.73,2.2,2.2,0,0,0-1.75.73,3.51,3.51,0,0,0,0,4A2.23,2.23,0,0,0,277.81,348Z"/><path class="cls-8" d="M284,351.93h-1a20.56,20.56,0,0,0,.87-2.47,16.42,16.42,0,0,0,.45-2.19,16.31,16.31,0,0,0,0-4.11,15.68,15.68,0,0,0-.45-2.18,20.45,20.45,0,0,0-.87-2.46h1a14.22,14.22,0,0,1,1.29,3.35,13.88,13.88,0,0,1,.4,3.34,15.15,15.15,0,0,1-.17,2.24,14,14,0,0,1-.55,2.21A15.19,15.19,0,0,1,284,351.93Z"/></g><polygon class="cls-8" points="291.78 295.01 296.76 286.39 286.8 286.39 291.78 295.01"/><g class="cls-5"><path d="M4.71,295.28a7.54,7.54,0,0,1-1.54-.14,4.92,4.92,0,0,1-1.34-.45,4.75,4.75,0,0,1-1.11-.76l.47-.94a5.31,5.31,0,0,0,1.62,1,5.89,5.89,0,0,0,1.92.28,3.38,3.38,0,0,0,2-.5,1.66,1.66,0,0,0,.7-1.42,1.2,1.2,0,0,0-.35-.89,2.74,2.74,0,0,0-1-.54c-.41-.13-.87-.26-1.37-.38s-1-.24-1.46-.38a5.49,5.49,0,0,1-1.22-.55,2.5,2.5,0,0,1-.84-.84,2.5,2.5,0,0,1-.29-1.28,2.71,2.71,0,0,1,.48-1.61,3.14,3.14,0,0,1,1.35-1.09,4.93,4.93,0,0,1,2.05-.39,6.48,6.48,0,0,1,1.41.16,5.46,5.46,0,0,1,1.25.46,4.26,4.26,0,0,1,1,.73l-.48,1a5.2,5.2,0,0,0-1.51-1,4.71,4.71,0,0,0-1.7-.3,3.2,3.2,0,0,0-1.95.53,1.72,1.72,0,0,0-.7,1.47,1.37,1.37,0,0,0,.31.94,2.09,2.09,0,0,0,.89.58,10.09,10.09,0,0,0,1.3.4q.78.18,1.5.39a6,6,0,0,1,1.28.52,2.48,2.48,0,0,1,.9.79,2.18,2.18,0,0,1,.32,1.24,2.61,2.61,0,0,1-.48,1.59,3,3,0,0,1-1.36,1.05A5.36,5.36,0,0,1,4.71,295.28Z"/><path d="M10.66,295.16V284.48h4.26a3.85,3.85,0,0,1,2.58.8,3.06,3.06,0,0,1,0,4.38,3.79,3.79,0,0,1-2.57.81h-3v4.69Zm1.23-5.71h2.93a2.63,2.63,0,0,0,1.78-.52,2.08,2.08,0,0,0,0-2.92,2.68,2.68,0,0,0-1.78-.51H11.89Z"/><path d="M20.43,295.16V284.48h1.23v10.68Z"/><path d="M28.06,295.16v-5.43c0-.35,0-.7,0-1.05a9.28,9.28,0,0,0-.1-1.06H29.1l.13,1.56-.15.1a2.55,2.55,0,0,1,.94-1.36,2.64,2.64,0,0,1,1.58-.48,2.51,2.51,0,0,1,1.71.54,2.67,2.67,0,0,1,.77,1.65l-.36-.2a2.53,2.53,0,0,1,1-1.45,2.82,2.82,0,0,1,1.74-.54,2.35,2.35,0,0,1,1.88.74,3.4,3.4,0,0,1,.63,2.24v4.74H37.72v-4.68a2.5,2.5,0,0,0-.37-1.53,1.4,1.4,0,0,0-1.19-.49,1.85,1.85,0,0,0-1.49.64,2.67,2.67,0,0,0-.55,1.76v4.3H32.91v-4.68a2.49,2.49,0,0,0-.38-1.53,1.43,1.43,0,0,0-1.2-.49,1.85,1.85,0,0,0-1.5.64,2.61,2.61,0,0,0-.55,1.76v4.3Z"/><path d="M44.37,295.27a3.58,3.58,0,0,1-1.88-.48,3.23,3.23,0,0,1-1.25-1.36,5.11,5.11,0,0,1,0-4.15,3.23,3.23,0,0,1,1.25-1.36,3.92,3.92,0,0,1,3.76,0,3.23,3.23,0,0,1,1.25,1.36,5.11,5.11,0,0,1,0,4.15,3.23,3.23,0,0,1-1.25,1.36A3.58,3.58,0,0,1,44.37,295.27Zm0-1a2.09,2.09,0,0,0,1.72-.74,3.38,3.38,0,0,0,.6-2.17,3.29,3.29,0,0,0-.61-2.14,2.09,2.09,0,0,0-1.71-.75,2.12,2.12,0,0,0-1.72.75,3.29,3.29,0,0,0-.62,2.14,3.32,3.32,0,0,0,.61,2.17A2.08,2.08,0,0,0,44.37,294.26Z"/><path d="M56.47,295.16H55.28v-2l.17.16a2.52,2.52,0,0,1-1,1.46,3,3,0,0,1-1.76.51,3.08,3.08,0,0,1-1.74-.49,3.15,3.15,0,0,1-1.18-1.38,5.35,5.35,0,0,1,0-4.13,3.1,3.1,0,0,1,2.93-1.83,2.91,2.91,0,0,1,1.76.52,2.51,2.51,0,0,1,1,1.44l-.19.15v-5.43h1.21Zm-3.51-.9a2.09,2.09,0,0,0,1.71-.75,3.43,3.43,0,0,0,.61-2.16,3.33,3.33,0,0,0-.61-2.13,2,2,0,0,0-1.71-.76,2.13,2.13,0,0,0-1.73.75,3.24,3.24,0,0,0-.62,2.11,3.4,3.4,0,0,0,.62,2.17A2.09,2.09,0,0,0,53,294.26Z"/><path d="M65,294.26a3.49,3.49,0,0,1-1.27.74,4.73,4.73,0,0,1-1.58.27,4.16,4.16,0,0,1-2-.47,3.12,3.12,0,0,1-1.3-1.34,4.39,4.39,0,0,1-.46-2.09,4.5,4.5,0,0,1,.45-2.06,3.41,3.41,0,0,1,1.25-1.38,3.46,3.46,0,0,1,1.85-.49,3.29,3.29,0,0,1,1.73.44,2.85,2.85,0,0,1,1.1,1.27,4.6,4.6,0,0,1,.38,2v.22h-5.7v-.79h5l-.39.55a3.14,3.14,0,0,0-.51-2,1.91,1.91,0,0,0-1.6-.71,2.09,2.09,0,0,0-1.72.78,4,4,0,0,0,0,4.35,2.4,2.4,0,0,0,1.91.75,3.85,3.85,0,0,0,1.27-.21,4,4,0,0,0,1.16-.67Z"/><path d="M73,297.89a15.1,15.1,0,0,1-1-2.26,12.93,12.93,0,0,1-.54-2.21,14.09,14.09,0,0,1,0-4.49,14.74,14.74,0,0,1,.55-2.2,14.49,14.49,0,0,1,1-2.25h1a20.45,20.45,0,0,0-.87,2.46,14.54,14.54,0,0,0-.46,2.19,15.78,15.78,0,0,0-.14,2,16.24,16.24,0,0,0,.14,2.07,15.07,15.07,0,0,0,.46,2.19,22.16,22.16,0,0,0,.86,2.46Z"/><path d="M75.54,284.42H77v1.38H75.54Zm.12,10.74v-7.54h1.21v7.54Z"/><path d="M85.87,295.16h-1.2v-2l.18.16a2.52,2.52,0,0,1-1,1.46,3,3,0,0,1-1.76.51,3.08,3.08,0,0,1-1.74-.49,3.15,3.15,0,0,1-1.18-1.38,5.35,5.35,0,0,1,0-4.13,3.1,3.1,0,0,1,2.93-1.83,2.91,2.91,0,0,1,1.76.52,2.51,2.51,0,0,1,1,1.44l-.19.15v-5.43h1.21Zm-3.51-.9a2.09,2.09,0,0,0,1.71-.75,3.43,3.43,0,0,0,.6-2.16,3.33,3.33,0,0,0-.6-2.13,2,2,0,0,0-1.71-.76,2.13,2.13,0,0,0-1.73.75,3.24,3.24,0,0,0-.62,2.11,3.4,3.4,0,0,0,.62,2.17A2.09,2.09,0,0,0,82.36,294.26Z"/><path d="M88.23,295.16v-11h1.21v11Z"/><path d="M98,294.26a3.49,3.49,0,0,1-1.27.74,4.73,4.73,0,0,1-1.58.27,4.16,4.16,0,0,1-2-.47,3.12,3.12,0,0,1-1.3-1.34,4.39,4.39,0,0,1-.46-2.09,4.5,4.5,0,0,1,.45-2.06,3.41,3.41,0,0,1,1.25-1.38,3.46,3.46,0,0,1,1.85-.49,3.29,3.29,0,0,1,1.73.44,2.85,2.85,0,0,1,1.1,1.27,4.6,4.6,0,0,1,.38,2v.22h-5.7v-.79h5l-.39.55a3.14,3.14,0,0,0-.51-2,1.91,1.91,0,0,0-1.6-.71,2.09,2.09,0,0,0-1.72.78,4,4,0,0,0,0,4.35,2.4,2.4,0,0,0,1.91.75,3.85,3.85,0,0,0,1.27-.21,4,4,0,0,0,1.16-.67Z"/><path d="M103.8,291.64v-1H108v1Z"/><path d="M120.4,294.26a3.53,3.53,0,0,1-1.26.74,4.83,4.83,0,0,1-1.59.27,4.09,4.09,0,0,1-2-.47,3.14,3.14,0,0,1-1.31-1.34,5,5,0,0,1,0-4.15,3.37,3.37,0,0,1,1.26-1.38,3.43,3.43,0,0,1,1.85-.49,3.26,3.26,0,0,1,1.72.44,2.93,2.93,0,0,1,1.11,1.27,4.76,4.76,0,0,1,.38,2v.22h-5.7v-.79h5l-.39.55a3.08,3.08,0,0,0-.52-2,1.9,1.9,0,0,0-1.6-.71,2.06,2.06,0,0,0-1.71.78,4,4,0,0,0,0,4.35,2.39,2.39,0,0,0,1.91.75,3.89,3.89,0,0,0,1.27-.21,4.15,4.15,0,0,0,1.16-.67Z"/><path d="M129,295.16h-1.2v-2l.18.16a2.54,2.54,0,0,1-1,1.46,2.94,2.94,0,0,1-1.75.51,3.12,3.12,0,0,1-1.75-.49,3.21,3.21,0,0,1-1.18-1.38,5.35,5.35,0,0,1,0-4.13,3.13,3.13,0,0,1,2.94-1.83A2.88,2.88,0,0,1,127,288a2.52,2.52,0,0,1,1,1.44l-.2.15v-5.43H129Zm-3.51-.9a2.06,2.06,0,0,0,1.7-.75,4.11,4.11,0,0,0,0-4.29,2,2,0,0,0-1.71-.76,2.15,2.15,0,0,0-1.74.75,3.24,3.24,0,0,0-.62,2.11,3.4,3.4,0,0,0,.62,2.17A2.11,2.11,0,0,0,125.52,294.26Z"/><path d="M134.7,298.51a5.53,5.53,0,0,1-3-.78l.21-1a6,6,0,0,0,1.33.58,5.23,5.23,0,0,0,1.43.18,2.21,2.21,0,0,0,1.64-.57,2.41,2.41,0,0,0,.56-1.72v-2l.17-.2a2.82,2.82,0,0,1-.57,1,2.55,2.55,0,0,1-.93.68,3.15,3.15,0,0,1-1.26.24,3.17,3.17,0,0,1-2.95-1.79,4.7,4.7,0,0,1,0-3.93,3.18,3.18,0,0,1,2.95-1.78,3,3,0,0,1,1.78.52,2.52,2.52,0,0,1,1,1.44l-.18-.16v-1.62h1.21v7.48a3.42,3.42,0,0,1-.86,2.55A3.47,3.47,0,0,1,134.7,298.51Zm-.15-4.59a2.14,2.14,0,0,0,1.72-.73,3.54,3.54,0,0,0,0-4,2.14,2.14,0,0,0-1.72-.73,2.19,2.19,0,0,0-1.75.73,3.46,3.46,0,0,0,0,4A2.21,2.21,0,0,0,134.55,293.92Z"/><path d="M146.62,294.26a3.53,3.53,0,0,1-1.26.74,4.83,4.83,0,0,1-1.59.27,4.16,4.16,0,0,1-2-.47,3.12,3.12,0,0,1-1.3-1.34,5,5,0,0,1,0-4.15,3.41,3.41,0,0,1,1.25-1.38,3.49,3.49,0,0,1,1.86-.49,3.26,3.26,0,0,1,1.72.44,2.93,2.93,0,0,1,1.11,1.27,4.76,4.76,0,0,1,.38,2v.22h-5.7v-.79h5l-.39.55a3.08,3.08,0,0,0-.52-2,1.9,1.9,0,0,0-1.6-.71,2.09,2.09,0,0,0-1.72.78,3.31,3.31,0,0,0-.62,2.13,3.27,3.27,0,0,0,.66,2.22,2.39,2.39,0,0,0,1.91.75,3.89,3.89,0,0,0,1.27-.21,4.15,4.15,0,0,0,1.16-.67Z"/><path d="M148.81,297.89h-1a20.45,20.45,0,0,0,.87-2.46,16.42,16.42,0,0,0,.45-2.19,16.21,16.21,0,0,0,.13-2.07,15.41,15.41,0,0,0-.58-4.23,20.45,20.45,0,0,0-.87-2.46h1a14.29,14.29,0,0,1,1.29,3.36,13.79,13.79,0,0,1,.4,3.33,15.28,15.28,0,0,1-.17,2.25,14,14,0,0,1-.55,2.21A15.1,15.1,0,0,1,148.81,297.89Z"/></g></g></g></svg>