<svg xmlns="http://www.w3.org/2000/svg" viewBox="0 0 595.28 65.43"><defs><style>.cls-1{fill:none;}.cls-2{fill:#8e4582;}.cls-3{fill:#b056a1;}.cls-4{fill:#c788bb;}.cls-5{fill:#483d86;}.cls-6{fill:#5c4da0;}.cls-7{fill:#8d82bd;}.cls-8{opacity:0.6;}.cls-9{fill:#fff;}.cls-10{isolation:isolate;}.cls-11{fill:#010101;}.cls-12{fill:#afa7d1;}</style></defs><g id="Layer_2" data-name="Layer 2"><g id="Layer_1-2" data-name="Layer 1"><rect class="cls-1" width="595.28" height="18"/><path class="cls-2" d="M1,9A8,8,0,0,1,9,1h7l6,4h3l6-4H154.67V6c0,10-8-8-8,7.5s8-2.5,8,7.5v5H30.5l-6,4h-3l-6-4H9a8,8,0,0,1-8-8Z"/><path class="cls-3" d="M0,8A8,8,0,0,1,8,0h7l6,4h3l6-4H153.67V5c0,10-8-8-8,7.5s8-2.5,8,7.5v5H29.5l-6,4h-3l-6-4H8a8,8,0,0,1-8-8Z"/><path class="cls-4" d="M2.34,22.66A8,8,0,0,1,0,17V8H1v9A7,7,0,0,0,3.05,22Zm146.57-2.93-.49-.86,3.68-2.1.49.86ZM1,7.53,0,7.47A8,8,0,0,1,8,0h7.17l6,4h2.7l6-4H153.17V1h-123l-6,4h-3.3l-6-4H8A7,7,0,0,0,1,7.53Z"/><path class="cls-5" d="M155.67,1H229.1V26H155.67V21c0-10-8,8-8-7.5s8,2.5,8-7.5Z"/><path class="cls-6" d="M154.67,0H228.1V25H154.67V20c0-10-8,8-8-7.5s8,2.5,8-7.5Z"/><path class="cls-7" d="M155.67,24.5h-1v-6h1Zm-8.35-6.37a20.9,20.9,0,0,1,0-11.26l1,.26a19.79,19.79,0,0,0,0,10.74ZM155.67,8h-1V0H227.6V1H155.67Z"/><g class="cls-8"><rect class="cls-9" x="159.67" y="5" width="63.43" height="16" rx="4"/></g><g class="cls-10"><path class="cls-11" d="M166,17.5V6.82h1.21V17.5Zm.57-4.91v-1h7.74v1Zm7.05,4.91V6.82h1.23V17.5Z"/><path class="cls-11" d="M177.48,17.5V6.82h1.23V17.5Z"/><path class="cls-11" d="M186.07,17.62a5.51,5.51,0,0,1-2.75-.65,4.33,4.33,0,0,1-1.76-1.88,6.63,6.63,0,0,1-.6-2.95,6.6,6.6,0,0,1,.6-2.93,4.38,4.38,0,0,1,1.74-1.87A5.34,5.34,0,0,1,186,6.7,5.92,5.92,0,0,1,188,7a4.43,4.43,0,0,1,1.63,1l-.48.94a5.61,5.61,0,0,0-1.53-1A4.68,4.68,0,0,0,186,7.75a3.46,3.46,0,0,0-2.78,1.13,4.86,4.86,0,0,0-1,3.26,4.88,4.88,0,0,0,1,3.31,3.6,3.6,0,0,0,2.88,1.13,7.61,7.61,0,0,0,1.52-.14,7,7,0,0,0,1.35-.38l-.3.63V12.91H186v-1h3.78v4.95a4.84,4.84,0,0,1-1,.39,9.64,9.64,0,0,1-1.3.26A10.93,10.93,0,0,1,186.07,17.62Z"/><path class="cls-11" d="M192.31,17.5V6.82h1.22V17.5Zm.57-4.91v-1h7.74v1Zm7.05,4.91V6.82h1.23V17.5Z"/></g><g class="cls-10"><path class="cls-9" d="M17.82,17.5h-1.2v-2l.18.17a2.51,2.51,0,0,1-1,1.45,3,3,0,0,1-1.75.51,3.17,3.17,0,0,1-1.75-.48,3.26,3.26,0,0,1-1.18-1.38,4.86,4.86,0,0,1-.42-2.08,4.85,4.85,0,0,1,.41-2.06,3.22,3.22,0,0,1,1.17-1.35,3.26,3.26,0,0,1,1.77-.48,3,3,0,0,1,1.75.52,2.58,2.58,0,0,1,1,1.45l-.2.15V6.46h1.22Zm-3.51-.9a2.06,2.06,0,0,0,1.7-.76,3.38,3.38,0,0,0,.61-2.15,3.38,3.38,0,0,0-.6-2.14,2.08,2.08,0,0,0-1.71-.76,2.15,2.15,0,0,0-1.74.75A3.27,3.27,0,0,0,12,13.66a3.42,3.42,0,0,0,.62,2.17A2.13,2.13,0,0,0,14.31,16.6Z"/><path class="cls-9" d="M20.05,6.76h1.49V8.14H20.05Zm.12,10.74V10h1.21V17.5Z"/><path class="cls-9" d="M26.29,17.6a4.38,4.38,0,0,1-3-1l.4-.9a4.11,4.11,0,0,0,1.24.68,4.23,4.23,0,0,0,1.42.22,2.39,2.39,0,0,0,1.29-.29,1,1,0,0,0,.44-.85.91.91,0,0,0-.29-.71,2.41,2.41,0,0,0-1-.43l-1.27-.3a2.78,2.78,0,0,1-1.46-.75A1.78,1.78,0,0,1,23.53,12a1.93,1.93,0,0,1,.36-1.16,2.31,2.31,0,0,1,1-.79,3.68,3.68,0,0,1,1.52-.29,4.38,4.38,0,0,1,1.5.26,3.19,3.19,0,0,1,1.19.73l-.41.89A4,4,0,0,0,27.6,11a3.3,3.3,0,0,0-1.18-.22,2.14,2.14,0,0,0-1.25.32,1,1,0,0,0-.44.85,1,1,0,0,0,.28.74,1.89,1.89,0,0,0,.89.42l1.27.31a3,3,0,0,1,1.57.75,1.77,1.77,0,0,1,.5,1.31A1.84,1.84,0,0,1,28.45,17,3.57,3.57,0,0,1,26.29,17.6Z"/><path class="cls-9" d="M31.18,20.74V12.07c0-.35,0-.7,0-1.06s-.05-.71-.1-1.06h1.15l.14,1.56-.12.23a2.52,2.52,0,0,1,1-1.46,2.93,2.93,0,0,1,1.74-.51,3.1,3.1,0,0,1,1.75.5,3.35,3.35,0,0,1,1.19,1.38,4.78,4.78,0,0,1,.42,2.07,4.7,4.7,0,0,1-.42,2.06,3.1,3.1,0,0,1-2.94,1.82,2.93,2.93,0,0,1-1.74-.51,2.5,2.5,0,0,1-1-1.45l.16-.15v5.25Zm3.54-4.14a2.09,2.09,0,0,0,1.71-.75,3.28,3.28,0,0,0,.62-2.13,3.36,3.36,0,0,0-.62-2.15,2.06,2.06,0,0,0-1.71-.78,2.09,2.09,0,0,0-1.73.75,3.38,3.38,0,0,0-.6,2.15,3.38,3.38,0,0,0,.6,2.15A2.07,2.07,0,0,0,34.72,16.6Z"/><path class="cls-9" d="M40.18,17.5v-11h1.21v11Z"/><path class="cls-9" d="M46.64,17.6a3.22,3.22,0,0,1-1.76-.47,3.11,3.11,0,0,1-1.17-1.35,4.85,4.85,0,0,1-.41-2.06,4.78,4.78,0,0,1,.42-2.07,3.26,3.26,0,0,1,1.18-1.38,3.09,3.09,0,0,1,1.74-.5,3,3,0,0,1,1.76.51,2.52,2.52,0,0,1,1,1.46l-.18.12V10h1.2V17.5h-1.2V15.55l.18.09a2.5,2.5,0,0,1-1,1.45A3,3,0,0,1,46.64,17.6Zm.24-1a2,2,0,0,0,1.71-.76,3.38,3.38,0,0,0,.6-2.15,3.38,3.38,0,0,0-.6-2.15,2.32,2.32,0,0,0-3.44,0,3.36,3.36,0,0,0-.62,2.15,3.28,3.28,0,0,0,.62,2.13A2.13,2.13,0,0,0,46.88,16.6Z"/><path class="cls-9" d="M55.15,17.89,51.76,10H53l2.73,6.66Zm-2.76,3L52.13,20a7,7,0,0,0,1.17-.38,2.59,2.59,0,0,0,.79-.57,3,3,0,0,0,.56-.91L55.13,17l.27-.38L58.16,10h1.22l-3.53,8.24a5.15,5.15,0,0,1-.91,1.46,3.41,3.41,0,0,1-1.15.83A5.87,5.87,0,0,1,52.39,20.9Z"/><path class="cls-9" d="M64.63,17.5v-11h1.21v5.43l-.16-.15a2.56,2.56,0,0,1,1-1.45,2.94,2.94,0,0,1,1.74-.52,3.2,3.2,0,0,1,1.76.48,3.31,3.31,0,0,1,1.18,1.35,4.7,4.7,0,0,1,.42,2.06,4.86,4.86,0,0,1-.42,2.08,3.35,3.35,0,0,1-1.19,1.38,3.19,3.19,0,0,1-1.75.48,2.93,2.93,0,0,1-1.74-.51,2.5,2.5,0,0,1-1-1.45l.16-.17v2Zm3.54-.9a2.08,2.08,0,0,0,1.71-.77,3.42,3.42,0,0,0,.61-2.17,3.26,3.26,0,0,0-.61-2.12,2.34,2.34,0,0,0-3.44,0,3.38,3.38,0,0,0-.6,2.14,3.38,3.38,0,0,0,.6,2.15A2.07,2.07,0,0,0,68.17,16.6Z"/><path class="cls-9" d="M73.63,17.5V12.07c0-.35,0-.7,0-1.06s0-.71-.1-1.06h1.15l.17,1.86-.17,0a2.36,2.36,0,0,1,.91-1.49,2.61,2.61,0,0,1,1.57-.51,2.22,2.22,0,0,1,.37,0,1.65,1.65,0,0,1,.32.06l0,1.11a2.45,2.45,0,0,0-.8-.12,1.94,1.94,0,0,0-1.94,1.23,3,3,0,0,0-.22,1.11V17.5Z"/><path class="cls-9" d="M78.94,6.76h1.48V8.14H78.94Zm.12,10.74V10h1.21V17.5Z"/><path class="cls-9" d="M85.94,20.84a5.53,5.53,0,0,1-3-.78l.21-1a6.1,6.1,0,0,0,1.34.59,5.15,5.15,0,0,0,1.42.18,2.2,2.2,0,0,0,1.65-.58,2.39,2.39,0,0,0,.56-1.72v-2l.16-.19a2.68,2.68,0,0,1-.56,1,2.48,2.48,0,0,1-.94.68,3.15,3.15,0,0,1-1.26.24,3.15,3.15,0,0,1-2.94-1.78,4.24,4.24,0,0,1-.43-2,4.19,4.19,0,0,1,.43-2,3.18,3.18,0,0,1,2.94-1.79,3,3,0,0,1,1.78.52,2.53,2.53,0,0,1,1,1.45l-.18-.17V10h1.22v7.49A3.46,3.46,0,0,1,88.49,20,3.49,3.49,0,0,1,85.94,20.84Zm-.15-4.59a2.15,2.15,0,0,0,1.72-.72,3,3,0,0,0,.62-2,3,3,0,0,0-.62-2,2.16,2.16,0,0,0-1.72-.73,2.2,2.2,0,0,0-1.74.73,2.91,2.91,0,0,0-.64,2,2.91,2.91,0,0,0,.64,2A2.19,2.19,0,0,0,85.79,16.25Z"/><path class="cls-9" d="M91.69,17.5v-11H92.9v5l-.19.15a2.55,2.55,0,0,1,1.05-1.38,3,3,0,0,1,1.69-.48c1.81,0,2.72,1,2.72,3V17.5H97V12.82a2.34,2.34,0,0,0-.42-1.54,1.67,1.67,0,0,0-1.32-.49,2.24,2.24,0,0,0-1.68.65,2.38,2.38,0,0,0-.63,1.74V17.5Z"/><path class="cls-9" d="M99.4,10.91V10h4.84v1Zm4.81,5.51v1a2.95,2.95,0,0,1-1,.15,2.31,2.31,0,0,1-1.67-.6,2.41,2.41,0,0,1-.62-1.8V8l1.21-.44V15a2,2,0,0,0,.18.93,1,1,0,0,0,.47.46,1.78,1.78,0,0,0,.67.12,2.54,2.54,0,0,0,.41,0A2.59,2.59,0,0,0,104.21,16.42Z"/><path class="cls-9" d="M105.71,17.5V12.07c0-.35,0-.7,0-1.06a9.5,9.5,0,0,0-.1-1.06h1.16l.13,1.56-.15.12a2.55,2.55,0,0,1,1-1.38,3,3,0,0,1,1.7-.48c1.81,0,2.71,1,2.71,3V17.5H111V12.82a2.34,2.34,0,0,0-.42-1.54,1.67,1.67,0,0,0-1.32-.49,2.24,2.24,0,0,0-1.68.65,2.38,2.38,0,0,0-.63,1.74V17.5Z"/><path class="cls-9" d="M120.67,16.6a3.48,3.48,0,0,1-1.27.73,4.73,4.73,0,0,1-1.58.27,4.16,4.16,0,0,1-2-.46,3.17,3.17,0,0,1-1.3-1.34,4.46,4.46,0,0,1-.46-2.1,4.45,4.45,0,0,1,.45-2,3.41,3.41,0,0,1,1.25-1.38,3.46,3.46,0,0,1,1.85-.5,3.21,3.21,0,0,1,1.73.45,2.77,2.77,0,0,1,1.1,1.26,4.6,4.6,0,0,1,.38,2v.23h-5.7v-.8h5l-.39.56a3.17,3.17,0,0,0-.51-2,1.91,1.91,0,0,0-1.6-.7,2.11,2.11,0,0,0-1.72.77,3.36,3.36,0,0,0-.62,2.14,3.32,3.32,0,0,0,.65,2.22,2.4,2.4,0,0,0,1.91.75,3.61,3.61,0,0,0,1.27-.22,3.8,3.8,0,0,0,1.16-.67Z"/><path class="cls-9" d="M125.2,17.6a4.42,4.42,0,0,1-3-1l.41-.9a4.11,4.11,0,0,0,1.24.68,4.17,4.17,0,0,0,1.41.22,2.41,2.41,0,0,0,1.3-.29,1,1,0,0,0,.44-.85.89.89,0,0,0-.3-.71,2.3,2.3,0,0,0-1-.43l-1.27-.3A2.78,2.78,0,0,1,123,13.3a1.78,1.78,0,0,1-.52-1.29,1.93,1.93,0,0,1,.36-1.16,2.34,2.34,0,0,1,1-.79,3.76,3.76,0,0,1,1.53-.29,4.38,4.38,0,0,1,1.5.26,3.19,3.19,0,0,1,1.19.73l-.41.89a4,4,0,0,0-1.1-.67,3.34,3.34,0,0,0-1.18-.22,2.14,2.14,0,0,0-1.25.32,1,1,0,0,0-.44.85,1,1,0,0,0,.28.74,1.89,1.89,0,0,0,.89.42l1.27.31a3,3,0,0,1,1.57.75,1.77,1.77,0,0,1,.5,1.31,1.84,1.84,0,0,1-.79,1.56A3.57,3.57,0,0,1,125.2,17.6Z"/><path class="cls-9" d="M132.64,17.6a4.42,4.42,0,0,1-3-1l.41-.9a4.11,4.11,0,0,0,1.24.68,4.17,4.17,0,0,0,1.41.22,2.41,2.41,0,0,0,1.3-.29,1,1,0,0,0,.44-.85.89.89,0,0,0-.3-.71,2.3,2.3,0,0,0-1-.43l-1.27-.3a2.78,2.78,0,0,1-1.46-.75,1.78,1.78,0,0,1-.52-1.29,1.93,1.93,0,0,1,.36-1.16,2.34,2.34,0,0,1,1-.79,3.76,3.76,0,0,1,1.53-.29,4.38,4.38,0,0,1,1.5.26,3.19,3.19,0,0,1,1.19.73l-.41.89A4,4,0,0,0,134,11a3.34,3.34,0,0,0-1.18-.22,2.14,2.14,0,0,0-1.25.32,1,1,0,0,0-.44.85,1,1,0,0,0,.28.74,1.89,1.89,0,0,0,.89.42l1.27.31a3,3,0,0,1,1.57.75,1.81,1.81,0,0,1,.5,1.31A1.84,1.84,0,0,1,134.8,17,3.57,3.57,0,0,1,132.64,17.6Z"/></g><polygon class="cls-11" points="214.12 17.31 219.1 8.69 209.14 8.69 214.12 17.31"/><rect class="cls-12" x="159.67" y="31.69" width="63.37" height="33.74" rx="5.67"/><g class="cls-10"><path class="cls-11" d="M165.39,44.56V33.88h1.22V44.56Zm.57-4.9v-1h7.74v1Zm7,4.9V33.88h1.23V44.56Z"/><path class="cls-11" d="M176.88,44.56V33.88h1.23V44.56Z"/><path class="cls-11" d="M185.48,44.68a5.45,5.45,0,0,1-2.76-.65A4.28,4.28,0,0,1,181,42.16a6.52,6.52,0,0,1-.61-2.95,6.44,6.44,0,0,1,.61-2.93,4.21,4.21,0,0,1,1.74-1.87,5.32,5.32,0,0,1,2.68-.65,6.06,6.06,0,0,1,2,.34,4.48,4.48,0,0,1,1.63,1l-.48,1a5.37,5.37,0,0,0-1.53-1,4.42,4.42,0,0,0-1.66-.3A3.47,3.47,0,0,0,182.6,36a4.9,4.9,0,0,0-1,3.26,4.9,4.9,0,0,0,1,3.31,3.63,3.63,0,0,0,2.88,1.13,8.51,8.51,0,0,0,1.52-.14,7.85,7.85,0,0,0,1.34-.39l-.3.63V40h-2.65V39h3.78v5a5.05,5.05,0,0,1-1,.39,9.83,9.83,0,0,1-1.31.25A10.66,10.66,0,0,1,185.48,44.68Z"/><path class="cls-11" d="M191.71,44.56V33.88h1.22V44.56Zm.58-4.9v-1H200v1Zm7.05,4.9V33.88h1.23V44.56Z"/><path class="cls-11" d="M165.39,62.56V51.88h1.23v9.63H172v1.05Z"/><path class="cls-11" d="M177.48,62.68a4.91,4.91,0,0,1-2.59-.66,4.43,4.43,0,0,1-1.68-1.89,7.47,7.47,0,0,1,0-5.82,4.28,4.28,0,0,1,1.67-1.89,4.9,4.9,0,0,1,2.6-.66,5,5,0,0,1,2.6.66,4.3,4.3,0,0,1,1.68,1.89,6.64,6.64,0,0,1,.58,2.9,6.73,6.73,0,0,1-.59,2.92A4.43,4.43,0,0,1,180.07,62,4.91,4.91,0,0,1,177.48,62.68Zm0-1a3.24,3.24,0,0,0,2.64-1.14,5,5,0,0,0,.95-3.28,5,5,0,0,0-.95-3.26,3.24,3.24,0,0,0-2.64-1.14A3.27,3.27,0,0,0,174.83,54a5,5,0,0,0-1,3.26,5,5,0,0,0,1,3.27A3.25,3.25,0,0,0,177.48,61.63Z"/><path class="cls-11" d="M187.26,62.56l-3.75-10.68h1.26L188,61.51h-.48l3.35-9.63.94,0,3.29,9.61h-.47l3.3-9.63h1.22l-3.74,10.68h-1l-3.21-9.21h.33l-3.22,9.21Z"/></g><polygon class="cls-11" points="214.12 44.38 219.1 35.75 209.14 35.75 214.12 44.38"/></g></g></svg>