<svg xmlns="http://www.w3.org/2000/svg" viewBox="0 0 595.28 144.44"><defs><style>.cls-1{fill:#21222b;}.cls-2{opacity:0.17;}.cls-3{fill:#e8e8e8;}.cls-4{fill:#fff;}.cls-5{fill:#ff5100;}.cls-6{fill:#231f20;}.cls-7{fill:none;}</style></defs><g id="Layer_2" data-name="Layer 2"><g id="Layer_1-2" data-name="Layer 1"><rect class="cls-1" x="1" width="192.76" height="102.6"/><rect x="5.66" y="4.66" width="183.43" height="93.27"/><g class="cls-2"><polygon class="cls-3" points="178.82 0 7.89 102.6 193.75 102.6 193.75 0 178.82 0"/></g><rect class="cls-4" x="8.09" y="15.22" width="1.22" height="1.22"/><rect class="cls-4" x="8.09" y="8.12" width="1.22" height="1.22"/><rect class="cls-4" x="9.51" y="15.22" width="1.22" height="1.22"/><rect class="cls-4" x="10.93" y="15.22" width="1.22" height="1.22"/><rect class="cls-4" x="9.51" y="12.38" width="1.22" height="1.22"/><rect class="cls-4" x="9.51" y="13.8" width="1.22" height="1.22"/><rect class="cls-4" x="9.51" y="10.96" width="1.22" height="1.22"/><rect class="cls-4" x="9.51" y="9.54" width="1.22" height="1.22"/><rect class="cls-4" x="9.51" y="8.12" width="1.22" height="1.22"/><rect class="cls-4" x="9.51" y="6.7" width="1.22" height="1.22"/><rect class="cls-4" x="8.09" y="23.73" width="1.22" height="1.22"/><rect class="cls-4" x="8.09" y="26.57" width="1.22" height="1.22"/><rect class="cls-4" x="8.09" y="18.06" width="1.22" height="1.22"/><rect class="cls-4" x="6.67" y="25.15" width="1.22" height="1.22"/><rect class="cls-4" x="6.67" y="26.57" width="1.22" height="1.22"/><rect class="cls-4" x="6.67" y="19.47" width="1.22" height="1.22"/><rect class="cls-4" x="10.93" y="22.31" width="1.22" height="1.22"/><rect class="cls-4" x="10.93" y="26.57" width="1.22" height="1.22"/><rect class="cls-4" x="10.93" y="18.06" width="1.22" height="1.22"/><rect class="cls-4" x="9.51" y="26.57" width="1.22" height="1.22"/><rect class="cls-4" x="9.51" y="22.31" width="1.22" height="1.22"/><rect class="cls-4" x="9.51" y="18.06" width="1.22" height="1.22"/><rect class="cls-4" x="12.34" y="26.57" width="1.22" height="1.22"/><rect class="cls-4" x="12.34" y="20.89" width="1.22" height="1.22"/><rect class="cls-4" x="12.34" y="19.47" width="1.22" height="1.22"/><rect class="cls-4" x="12.34" y="32.24" width="1.22" height="1.22"/><rect class="cls-4" x="12.34" y="36.5" width="1.22" height="1.22"/><rect class="cls-4" x="12.34" y="35.08" width="1.22" height="1.22"/><rect class="cls-4" x="12.34" y="30.83" width="1.22" height="1.22"/><rect class="cls-4" x="8.09" y="37.92" width="1.22" height="1.22"/><rect class="cls-4" x="8.09" y="29.41" width="1.22" height="1.22"/><rect class="cls-4" x="6.67" y="36.5" width="1.22" height="1.22"/><rect class="cls-4" x="6.67" y="30.83" width="1.22" height="1.22"/><rect class="cls-4" x="10.93" y="37.92" width="1.22" height="1.22"/><rect class="cls-4" x="10.93" y="33.66" width="1.22" height="1.22"/><rect class="cls-4" x="10.93" y="29.41" width="1.22" height="1.22"/><rect class="cls-4" x="9.51" y="33.66" width="1.22" height="1.22"/><rect class="cls-4" x="9.51" y="37.92" width="1.22" height="1.22"/><rect class="cls-4" x="9.51" y="29.41" width="1.22" height="1.22"/><rect class="cls-4" x="10.93" y="49.27" width="1.22" height="1.22"/><rect class="cls-4" x="10.93" y="46.43" width="1.22" height="1.22"/><rect class="cls-4" x="10.93" y="45.01" width="1.22" height="1.22"/><rect class="cls-4" x="10.93" y="43.6" width="1.22" height="1.22"/><rect class="cls-4" x="10.93" y="47.85" width="1.22" height="1.22"/><rect class="cls-4" x="10.93" y="42.18" width="1.22" height="1.22"/><rect class="cls-4" x="10.93" y="40.76" width="1.22" height="1.22"/><rect class="cls-4" x="9.51" y="46.43" width="1.22" height="1.22"/><rect class="cls-4" x="9.51" y="42.18" width="1.22" height="1.22"/><rect class="cls-4" x="12.34" y="46.43" width="1.22" height="1.22"/><rect class="cls-4" x="8.09" y="43.6" width="1.22" height="1.22"/><rect class="cls-4" x="8.09" y="46.43" width="1.22" height="1.22"/><rect class="cls-4" x="6.67" y="46.43" width="1.22" height="1.22"/><rect class="cls-4" x="6.67" y="45.01" width="1.22" height="1.22"/><rect class="cls-4" x="12.34" y="57.78" width="1.22" height="1.22"/><rect class="cls-4" x="12.34" y="59.2" width="1.22" height="1.22"/><rect class="cls-4" x="12.34" y="56.37" width="1.22" height="1.22"/><rect class="cls-4" x="12.34" y="52.11" width="1.22" height="1.22"/><rect class="cls-4" x="8.09" y="54.95" width="1.22" height="1.22"/><rect class="cls-4" x="8.09" y="60.62" width="1.22" height="1.22"/><rect class="cls-4" x="8.09" y="52.11" width="1.22" height="1.22"/><rect class="cls-4" x="6.67" y="54.95" width="1.22" height="1.22"/><rect class="cls-4" x="6.67" y="59.2" width="1.22" height="1.22"/><rect class="cls-4" x="6.67" y="53.53" width="1.22" height="1.22"/><rect class="cls-4" x="6.67" y="52.11" width="1.22" height="1.22"/><rect class="cls-4" x="10.93" y="54.95" width="1.22" height="1.22"/><rect class="cls-4" x="10.93" y="60.62" width="1.22" height="1.22"/><rect class="cls-4" x="10.93" y="52.11" width="1.22" height="1.22"/><rect class="cls-4" x="9.51" y="54.95" width="1.22" height="1.22"/><rect class="cls-4" x="9.51" y="60.62" width="1.22" height="1.22"/><rect class="cls-4" x="9.51" y="52.11" width="1.22" height="1.22"/><rect class="cls-4" x="8.09" y="64.88" width="1.22" height="1.22"/><rect class="cls-4" x="8.09" y="67.72" width="1.22" height="1.22"/><rect class="cls-4" x="8.09" y="71.97" width="1.22" height="1.22"/><rect class="cls-4" x="6.67" y="67.72" width="1.22" height="1.22"/><rect class="cls-4" x="6.67" y="69.14" width="1.22" height="1.22"/><rect class="cls-4" x="6.67" y="70.55" width="1.22" height="1.22"/><rect class="cls-4" x="6.67" y="66.3" width="1.22" height="1.22"/><rect class="cls-4" x="10.93" y="67.72" width="1.22" height="1.22"/><rect class="cls-4" x="10.93" y="71.97" width="1.22" height="1.22"/><rect class="cls-4" x="10.93" y="63.46" width="1.22" height="1.22"/><rect class="cls-4" x="9.51" y="67.72" width="1.22" height="1.22"/><rect class="cls-4" x="9.51" y="71.97" width="1.22" height="1.22"/><rect class="cls-4" x="9.51" y="63.46" width="1.22" height="1.22"/><rect class="cls-4" x="12.34" y="70.55" width="1.22" height="1.22"/><rect class="cls-4" x="12.34" y="69.14" width="1.22" height="1.22"/><rect class="cls-4" x="8.09" y="80.49" width="1.22" height="1.22"/><rect class="cls-4" x="8.09" y="81.91" width="1.22" height="1.22"/><rect class="cls-4" x="8.09" y="83.32" width="1.22" height="1.22"/><rect class="cls-4" x="8.09" y="74.81" width="1.22" height="1.22"/><rect class="cls-4" x="6.67" y="74.81" width="1.22" height="1.22"/><rect class="cls-4" x="10.93" y="77.65" width="1.22" height="1.22"/><rect class="cls-4" x="10.93" y="74.81" width="1.22" height="1.22"/><rect class="cls-4" x="9.51" y="79.07" width="1.22" height="1.22"/><rect class="cls-4" x="9.51" y="74.81" width="1.22" height="1.22"/><rect class="cls-4" x="12.34" y="76.23" width="1.22" height="1.22"/><rect class="cls-4" x="12.34" y="74.81" width="1.22" height="1.22"/><rect class="cls-4" x="10.93" y="94.68" width="1.22" height="1.22"/><rect class="cls-4" x="10.93" y="90.42" width="1.22" height="1.22"/><rect class="cls-4" x="10.93" y="86.16" width="1.22" height="1.22"/><rect class="cls-4" x="9.51" y="90.42" width="1.22" height="1.22"/><rect class="cls-4" x="9.51" y="94.68" width="1.22" height="1.22"/><rect class="cls-4" x="9.51" y="86.16" width="1.22" height="1.22"/><rect class="cls-4" x="12.34" y="89" width="1.22" height="1.22"/><rect class="cls-4" x="12.34" y="91.84" width="1.22" height="1.22"/><rect class="cls-4" x="12.34" y="93.26" width="1.22" height="1.22"/><rect class="cls-4" x="12.34" y="87.58" width="1.22" height="1.22"/><rect class="cls-4" x="8.09" y="90.42" width="1.22" height="1.22"/><rect class="cls-4" x="8.09" y="94.68" width="1.22" height="1.22"/><rect class="cls-4" x="8.09" y="86.16" width="1.22" height="1.22"/><rect class="cls-4" x="6.67" y="87.58" width="1.22" height="1.22"/><rect class="cls-4" x="6.67" y="89" width="1.22" height="1.22"/><rect class="cls-4" x="6.67" y="93.26" width="1.22" height="1.22"/><rect class="cls-4" x="6.67" y="91.84" width="1.22" height="1.22"/><rect class="cls-4" x="182.61" y="15.22" width="1.22" height="1.22"/><rect class="cls-4" x="182.61" y="8.12" width="1.22" height="1.22"/><rect class="cls-4" x="184.03" y="15.22" width="1.22" height="1.22"/><rect class="cls-4" x="185.45" y="15.22" width="1.22" height="1.22"/><rect class="cls-4" x="184.03" y="12.38" width="1.22" height="1.22"/><rect class="cls-4" x="184.03" y="13.8" width="1.22" height="1.22"/><rect class="cls-4" x="184.03" y="10.96" width="1.22" height="1.22"/><rect class="cls-4" x="184.03" y="9.54" width="1.22" height="1.22"/><rect class="cls-4" x="184.03" y="8.12" width="1.22" height="1.22"/><rect class="cls-4" x="184.03" y="6.7" width="1.22" height="1.22"/><rect class="cls-4" x="182.61" y="23.73" width="1.22" height="1.22"/><rect class="cls-4" x="182.61" y="26.57" width="1.22" height="1.22"/><rect class="cls-4" x="182.61" y="18.06" width="1.22" height="1.22"/><rect class="cls-4" x="181.19" y="25.15" width="1.22" height="1.22"/><rect class="cls-4" x="181.19" y="26.57" width="1.22" height="1.22"/><rect class="cls-4" x="181.19" y="19.47" width="1.22" height="1.22"/><rect class="cls-4" x="185.45" y="22.31" width="1.22" height="1.22"/><rect class="cls-4" x="185.45" y="26.57" width="1.22" height="1.22"/><rect class="cls-4" x="185.45" y="18.06" width="1.22" height="1.22"/><rect class="cls-4" x="184.03" y="26.57" width="1.22" height="1.22"/><rect class="cls-4" x="184.03" y="22.31" width="1.22" height="1.22"/><rect class="cls-4" x="184.03" y="18.06" width="1.22" height="1.22"/><rect class="cls-4" x="186.87" y="26.57" width="1.22" height="1.22"/><rect class="cls-4" x="186.87" y="20.89" width="1.22" height="1.22"/><rect class="cls-4" x="186.87" y="19.47" width="1.22" height="1.22"/><rect class="cls-4" x="186.87" y="32.24" width="1.22" height="1.22"/><rect class="cls-4" x="186.87" y="36.5" width="1.22" height="1.22"/><rect class="cls-4" x="186.87" y="35.08" width="1.22" height="1.22"/><rect class="cls-4" x="186.87" y="30.83" width="1.22" height="1.22"/><rect class="cls-4" x="182.61" y="37.92" width="1.22" height="1.22"/><rect class="cls-4" x="182.61" y="29.41" width="1.22" height="1.22"/><rect class="cls-4" x="181.19" y="36.5" width="1.22" height="1.22"/><rect class="cls-4" x="181.19" y="30.83" width="1.22" height="1.22"/><rect class="cls-4" x="185.45" y="37.92" width="1.22" height="1.22"/><rect class="cls-4" x="185.45" y="33.66" width="1.22" height="1.22"/><rect class="cls-4" x="185.45" y="29.41" width="1.22" height="1.22"/><rect class="cls-4" x="184.03" y="33.66" width="1.22" height="1.22"/><rect class="cls-4" x="184.03" y="37.92" width="1.22" height="1.22"/><rect class="cls-4" x="184.03" y="29.41" width="1.22" height="1.22"/><rect class="cls-4" x="185.45" y="49.27" width="1.22" height="1.22"/><rect class="cls-4" x="185.45" y="46.43" width="1.22" height="1.22"/><rect class="cls-4" x="185.45" y="45.01" width="1.22" height="1.22"/><rect class="cls-4" x="185.45" y="43.6" width="1.22" height="1.22"/><rect class="cls-4" x="185.45" y="47.85" width="1.22" height="1.22"/><rect class="cls-4" x="185.45" y="42.18" width="1.22" height="1.22"/><rect class="cls-4" x="185.45" y="40.76" width="1.22" height="1.22"/><rect class="cls-4" x="184.03" y="46.43" width="1.22" height="1.22"/><rect class="cls-4" x="184.03" y="42.18" width="1.22" height="1.22"/><rect class="cls-4" x="186.87" y="46.43" width="1.22" height="1.22"/><rect class="cls-4" x="182.61" y="43.6" width="1.22" height="1.22"/><rect class="cls-4" x="182.61" y="46.43" width="1.22" height="1.22"/><rect class="cls-4" x="181.19" y="46.43" width="1.22" height="1.22"/><rect class="cls-4" x="181.19" y="45.01" width="1.22" height="1.22"/><rect class="cls-4" x="186.87" y="57.78" width="1.22" height="1.22"/><rect class="cls-4" x="186.87" y="59.2" width="1.22" height="1.22"/><rect class="cls-4" x="186.87" y="56.37" width="1.22" height="1.22"/><rect class="cls-4" x="186.87" y="52.11" width="1.22" height="1.22"/><rect class="cls-4" x="182.61" y="54.95" width="1.22" height="1.22"/><rect class="cls-4" x="182.61" y="60.62" width="1.22" height="1.22"/><rect class="cls-4" x="182.61" y="52.11" width="1.22" height="1.22"/><rect class="cls-4" x="181.19" y="54.95" width="1.22" height="1.22"/><rect class="cls-4" x="181.19" y="59.2" width="1.22" height="1.22"/><rect class="cls-4" x="181.19" y="53.53" width="1.22" height="1.22"/><rect class="cls-4" x="181.19" y="52.11" width="1.22" height="1.22"/><rect class="cls-4" x="185.45" y="54.95" width="1.22" height="1.22"/><rect class="cls-4" x="185.45" y="60.62" width="1.22" height="1.22"/><rect class="cls-4" x="185.45" y="52.11" width="1.22" height="1.22"/><rect class="cls-4" x="184.03" y="54.95" width="1.22" height="1.22"/><rect class="cls-4" x="184.03" y="60.62" width="1.22" height="1.22"/><rect class="cls-4" x="184.03" y="52.11" width="1.22" height="1.22"/><rect class="cls-4" x="182.61" y="64.88" width="1.22" height="1.22"/><rect class="cls-4" x="182.61" y="67.72" width="1.22" height="1.22"/><rect class="cls-4" x="182.61" y="71.97" width="1.22" height="1.22"/><rect class="cls-4" x="181.19" y="67.72" width="1.22" height="1.22"/><rect class="cls-4" x="181.19" y="69.14" width="1.22" height="1.22"/><rect class="cls-4" x="181.19" y="70.55" width="1.22" height="1.22"/><rect class="cls-4" x="181.19" y="66.3" width="1.22" height="1.22"/><rect class="cls-4" x="185.45" y="67.72" width="1.22" height="1.22"/><rect class="cls-4" x="185.45" y="71.97" width="1.22" height="1.22"/><rect class="cls-4" x="185.45" y="63.46" width="1.22" height="1.22"/><rect class="cls-4" x="184.03" y="67.72" width="1.22" height="1.22"/><rect class="cls-4" x="184.03" y="71.97" width="1.22" height="1.22"/><rect class="cls-4" x="184.03" y="63.46" width="1.22" height="1.22"/><rect class="cls-4" x="186.87" y="70.55" width="1.22" height="1.22"/><rect class="cls-4" x="186.87" y="69.14" width="1.22" height="1.22"/><rect class="cls-4" x="182.61" y="80.49" width="1.22" height="1.22"/><rect class="cls-4" x="182.61" y="81.91" width="1.22" height="1.22"/><rect class="cls-4" x="182.61" y="83.32" width="1.22" height="1.22"/><rect class="cls-4" x="182.61" y="74.81" width="1.22" height="1.22"/><rect class="cls-4" x="181.19" y="74.81" width="1.22" height="1.22"/><rect class="cls-4" x="185.45" y="77.65" width="1.22" height="1.22"/><rect class="cls-4" x="185.45" y="74.81" width="1.22" height="1.22"/><rect class="cls-4" x="184.03" y="79.07" width="1.22" height="1.22"/><rect class="cls-4" x="184.03" y="74.81" width="1.22" height="1.22"/><rect class="cls-4" x="186.87" y="76.23" width="1.22" height="1.22"/><rect class="cls-4" x="186.87" y="74.81" width="1.22" height="1.22"/><rect class="cls-4" x="185.45" y="94.68" width="1.22" height="1.22"/><rect class="cls-4" x="185.45" y="90.42" width="1.22" height="1.22"/><rect class="cls-4" x="185.45" y="86.16" width="1.22" height="1.22"/><rect class="cls-4" x="184.03" y="90.42" width="1.22" height="1.22"/><rect class="cls-4" x="184.03" y="94.68" width="1.22" height="1.22"/><rect class="cls-4" x="184.03" y="86.16" width="1.22" height="1.22"/><rect class="cls-4" x="186.87" y="89" width="1.22" height="1.22"/><rect class="cls-4" x="186.87" y="91.84" width="1.22" height="1.22"/><rect class="cls-4" x="186.87" y="93.26" width="1.22" height="1.22"/><rect class="cls-4" x="186.87" y="87.58" width="1.22" height="1.22"/><rect class="cls-4" x="182.61" y="90.42" width="1.22" height="1.22"/><rect class="cls-4" x="182.61" y="94.68" width="1.22" height="1.22"/><rect class="cls-4" x="182.61" y="86.16" width="1.22" height="1.22"/><rect class="cls-4" x="181.19" y="87.58" width="1.22" height="1.22"/><rect class="cls-4" x="181.19" y="89" width="1.22" height="1.22"/><rect class="cls-4" x="181.19" y="93.26" width="1.22" height="1.22"/><rect class="cls-4" x="181.19" y="91.84" width="1.22" height="1.22"/><rect class="cls-4" x="94.64" y="15.22" width="1.22" height="1.22"/><rect class="cls-4" x="94.64" y="8.12" width="1.22" height="1.22"/><rect class="cls-4" x="96.06" y="15.22" width="1.22" height="1.22"/><rect class="cls-4" x="97.48" y="15.22" width="1.22" height="1.22"/><rect class="cls-4" x="96.06" y="12.38" width="1.22" height="1.22"/><rect class="cls-4" x="96.06" y="13.8" width="1.22" height="1.22"/><rect class="cls-4" x="96.06" y="10.96" width="1.22" height="1.22"/><rect class="cls-4" x="96.06" y="9.54" width="1.22" height="1.22"/><rect class="cls-4" x="96.06" y="8.12" width="1.22" height="1.22"/><rect class="cls-4" x="96.06" y="6.7" width="1.22" height="1.22"/><rect class="cls-4" x="94.64" y="23.73" width="1.22" height="1.22"/><rect class="cls-4" x="94.64" y="26.57" width="1.22" height="1.22"/><rect class="cls-4" x="94.64" y="18.06" width="1.22" height="1.22"/><rect class="cls-4" x="93.22" y="25.15" width="1.22" height="1.22"/><rect class="cls-4" x="93.22" y="26.57" width="1.22" height="1.22"/><rect class="cls-4" x="93.22" y="19.47" width="1.22" height="1.22"/><rect class="cls-4" x="97.48" y="22.31" width="1.22" height="1.22"/><rect class="cls-4" x="97.48" y="26.57" width="1.22" height="1.22"/><rect class="cls-4" x="97.48" y="18.06" width="1.22" height="1.22"/><rect class="cls-4" x="96.06" y="26.57" width="1.22" height="1.22"/><rect class="cls-4" x="96.06" y="22.31" width="1.22" height="1.22"/><rect class="cls-4" x="96.06" y="18.06" width="1.22" height="1.22"/><rect class="cls-4" x="98.9" y="26.57" width="1.22" height="1.22"/><rect class="cls-4" x="98.9" y="20.89" width="1.22" height="1.22"/><rect class="cls-4" x="98.9" y="19.47" width="1.22" height="1.22"/><rect class="cls-4" x="98.9" y="32.24" width="1.22" height="1.22"/><rect class="cls-4" x="98.9" y="36.5" width="1.22" height="1.22"/><rect class="cls-4" x="98.9" y="35.08" width="1.22" height="1.22"/><rect class="cls-4" x="98.9" y="30.83" width="1.22" height="1.22"/><rect class="cls-4" x="94.64" y="37.92" width="1.22" height="1.22"/><rect class="cls-4" x="94.64" y="29.41" width="1.22" height="1.22"/><rect class="cls-4" x="93.22" y="36.5" width="1.22" height="1.22"/><rect class="cls-4" x="93.22" y="30.83" width="1.22" height="1.22"/><rect class="cls-4" x="97.48" y="37.92" width="1.22" height="1.22"/><rect class="cls-4" x="97.48" y="33.66" width="1.22" height="1.22"/><rect class="cls-4" x="97.48" y="29.41" width="1.22" height="1.22"/><rect class="cls-4" x="96.06" y="33.66" width="1.22" height="1.22"/><rect class="cls-4" x="96.06" y="37.92" width="1.22" height="1.22"/><rect class="cls-4" x="96.06" y="29.41" width="1.22" height="1.22"/><rect class="cls-4" x="97.48" y="49.27" width="1.22" height="1.22"/><rect class="cls-4" x="97.48" y="46.43" width="1.22" height="1.22"/><rect class="cls-4" x="97.48" y="45.01" width="1.22" height="1.22"/><rect class="cls-4" x="97.48" y="43.6" width="1.22" height="1.22"/><rect class="cls-4" x="97.48" y="47.85" width="1.22" height="1.22"/><rect class="cls-4" x="97.48" y="42.18" width="1.22" height="1.22"/><rect class="cls-4" x="97.48" y="40.76" width="1.22" height="1.22"/><rect class="cls-4" x="96.06" y="46.43" width="1.22" height="1.22"/><rect class="cls-4" x="96.06" y="42.18" width="1.22" height="1.22"/><rect class="cls-4" x="98.9" y="46.43" width="1.22" height="1.22"/><rect class="cls-4" x="94.64" y="43.6" width="1.22" height="1.22"/><rect class="cls-4" x="94.64" y="46.43" width="1.22" height="1.22"/><rect class="cls-4" x="93.22" y="46.43" width="1.22" height="1.22"/><rect class="cls-4" x="93.22" y="45.01" width="1.22" height="1.22"/><rect class="cls-4" x="98.9" y="57.78" width="1.22" height="1.22"/><rect class="cls-4" x="98.9" y="59.2" width="1.22" height="1.22"/><rect class="cls-4" x="98.9" y="56.37" width="1.22" height="1.22"/><rect class="cls-4" x="98.9" y="52.11" width="1.22" height="1.22"/><rect class="cls-4" x="94.64" y="54.95" width="1.22" height="1.22"/><rect class="cls-4" x="94.64" y="60.62" width="1.22" height="1.22"/><rect class="cls-4" x="94.64" y="52.11" width="1.22" height="1.22"/><rect class="cls-4" x="93.22" y="54.95" width="1.22" height="1.22"/><rect class="cls-4" x="93.22" y="59.2" width="1.22" height="1.22"/><rect class="cls-4" x="93.22" y="53.53" width="1.22" height="1.22"/><rect class="cls-4" x="93.22" y="52.11" width="1.22" height="1.22"/><rect class="cls-4" x="97.48" y="54.95" width="1.22" height="1.22"/><rect class="cls-4" x="97.48" y="60.62" width="1.22" height="1.22"/><rect class="cls-4" x="97.48" y="52.11" width="1.22" height="1.22"/><rect class="cls-4" x="96.06" y="54.95" width="1.22" height="1.22"/><rect class="cls-4" x="96.06" y="60.62" width="1.22" height="1.22"/><rect class="cls-4" x="96.06" y="52.11" width="1.22" height="1.22"/><rect class="cls-4" x="94.64" y="64.88" width="1.22" height="1.22"/><rect class="cls-4" x="94.64" y="67.72" width="1.22" height="1.22"/><rect class="cls-4" x="94.64" y="71.97" width="1.22" height="1.22"/><rect class="cls-4" x="93.22" y="67.72" width="1.22" height="1.22"/><rect class="cls-4" x="93.22" y="69.14" width="1.22" height="1.22"/><rect class="cls-4" x="93.22" y="70.55" width="1.22" height="1.22"/><rect class="cls-4" x="93.22" y="66.3" width="1.22" height="1.22"/><rect class="cls-4" x="97.48" y="67.72" width="1.22" height="1.22"/><rect class="cls-4" x="97.48" y="71.97" width="1.22" height="1.22"/><rect class="cls-4" x="97.48" y="63.46" width="1.22" height="1.22"/><rect class="cls-4" x="96.06" y="67.72" width="1.22" height="1.22"/><rect class="cls-4" x="96.06" y="71.97" width="1.22" height="1.22"/><rect class="cls-4" x="96.06" y="63.46" width="1.22" height="1.22"/><rect class="cls-4" x="98.9" y="70.55" width="1.22" height="1.22"/><rect class="cls-4" x="98.9" y="69.14" width="1.22" height="1.22"/><rect class="cls-4" x="94.64" y="80.49" width="1.22" height="1.22"/><rect class="cls-4" x="94.64" y="81.91" width="1.22" height="1.22"/><rect class="cls-4" x="94.64" y="83.32" width="1.22" height="1.22"/><rect class="cls-4" x="94.64" y="74.81" width="1.22" height="1.22"/><rect class="cls-4" x="93.22" y="74.81" width="1.22" height="1.22"/><rect class="cls-4" x="97.48" y="77.65" width="1.22" height="1.22"/><rect class="cls-4" x="97.48" y="74.81" width="1.22" height="1.22"/><rect class="cls-4" x="96.06" y="79.07" width="1.22" height="1.22"/><rect class="cls-4" x="96.06" y="74.81" width="1.22" height="1.22"/><rect class="cls-4" x="98.9" y="76.23" width="1.22" height="1.22"/><rect class="cls-4" x="98.9" y="74.81" width="1.22" height="1.22"/><rect class="cls-4" x="97.48" y="94.68" width="1.22" height="1.22"/><rect class="cls-4" x="97.48" y="90.42" width="1.22" height="1.22"/><rect class="cls-4" x="97.48" y="86.16" width="1.22" height="1.22"/><rect class="cls-4" x="96.06" y="90.42" width="1.22" height="1.22"/><rect class="cls-4" x="96.06" y="94.68" width="1.22" height="1.22"/><rect class="cls-4" x="96.06" y="86.16" width="1.22" height="1.22"/><rect class="cls-4" x="98.9" y="89" width="1.22" height="1.22"/><rect class="cls-4" x="98.9" y="91.84" width="1.22" height="1.22"/><rect class="cls-4" x="98.9" y="93.26" width="1.22" height="1.22"/><rect class="cls-4" x="98.9" y="87.58" width="1.22" height="1.22"/><rect class="cls-4" x="94.64" y="90.42" width="1.22" height="1.22"/><rect class="cls-4" x="94.64" y="94.68" width="1.22" height="1.22"/><rect class="cls-4" x="94.64" y="86.16" width="1.22" height="1.22"/><rect class="cls-4" x="93.22" y="87.58" width="1.22" height="1.22"/><rect class="cls-4" x="93.22" y="89" width="1.22" height="1.22"/><rect class="cls-4" x="93.22" y="93.26" width="1.22" height="1.22"/><rect class="cls-4" x="93.22" y="91.84" width="1.22" height="1.22"/><path class="cls-5" d="M216,12.07H196.16a.51.51,0,0,1-.5-.5.5.5,0,0,1,.5-.5H216a.5.5,0,0,1,.5.5A.5.5,0,0,1,216,12.07Z"/><path class="cls-5" d="M10.11,127.43a.51.51,0,0,1-.5-.5V107.08a.51.51,0,0,1,.5-.5.5.5,0,0,1,.5.5v19.85A.5.5,0,0,1,10.11,127.43Z"/><path class="cls-5" d="M96.67,127.43a.5.5,0,0,1-.5-.5V107.08a.5.5,0,0,1,.5-.5.51.51,0,0,1,.5.5v19.85A.51.51,0,0,1,96.67,127.43Z"/><path class="cls-5" d="M184.64,127.43a.5.5,0,0,1-.5-.5V107.08a.5.5,0,1,1,1,0v19.85A.5.5,0,0,1,184.64,127.43Z"/><path class="cls-6" d="M220.35,15.61V5.31h1.14v10.3Z"/><path class="cls-6" d="M223.57,5.59H225V6.88h-1.39Zm.11,10v-7h1.14v7Z"/><path class="cls-6" d="M227,15.61V10.54c0-.32,0-.65,0-1s-.05-.66-.1-1H228l.13,1.46-.14.11a2.41,2.41,0,0,1,1-1.3,2.89,2.89,0,0,1,1.58-.44c1.69,0,2.53.93,2.53,2.79v4.42h-1.13V11.24a2.16,2.16,0,0,0-.39-1.43,1.55,1.55,0,0,0-1.23-.46,2.06,2.06,0,0,0-1.57.61,2.22,2.22,0,0,0-.59,1.62v4Z"/><path class="cls-6" d="M241,14.77a3.23,3.23,0,0,1-1.18.69,4.38,4.38,0,0,1-1.48.25,4,4,0,0,1-1.88-.43A3,3,0,0,1,235.21,14a4.19,4.19,0,0,1-.42-1.95,4.18,4.18,0,0,1,.42-1.92,3.23,3.23,0,0,1,1.16-1.29,3.31,3.31,0,0,1,1.73-.46,3,3,0,0,1,1.61.41,2.67,2.67,0,0,1,1,1.19,4.33,4.33,0,0,1,.36,1.85v.21h-5.32v-.75h4.68l-.37.52a2.92,2.92,0,0,0-.48-1.89,1.77,1.77,0,0,0-1.49-.66,2,2,0,0,0-1.61.72,3.17,3.17,0,0,0-.58,2,3.12,3.12,0,0,0,.61,2.07,2.24,2.24,0,0,0,1.79.7,3.61,3.61,0,0,0,1.18-.2A3.86,3.86,0,0,0,240.6,14Z"/><path class="cls-6" d="M246.48,15.61V10.54c0-.32,0-.65,0-1s-.05-.66-.1-1h1.08l.13,1.46-.14.11a2.41,2.41,0,0,1,1-1.3A2.89,2.89,0,0,1,250,8.4c1.69,0,2.53.93,2.53,2.79v4.42h-1.13V11.24A2.16,2.16,0,0,0,251,9.81a1.55,1.55,0,0,0-1.23-.46,2.06,2.06,0,0,0-1.57.61,2.22,2.22,0,0,0-.59,1.62v4Z"/><path class="cls-6" d="M257.16,15.71a2.43,2.43,0,0,1-1.9-.7,3,3,0,0,1-.64-2.07V8.57h1.14v4.34a2.11,2.11,0,0,0,.39,1.4,1.5,1.5,0,0,0,1.19.45,2,2,0,0,0,1.51-.6,2.27,2.27,0,0,0,.58-1.61v-4h1.13v7h-1.11V14.09l.17-.09a2.39,2.39,0,0,1-.94,1.28A2.81,2.81,0,0,1,257.16,15.71Z"/><path class="cls-6" d="M262.74,15.61V10.54c0-.32,0-.65,0-1a8.28,8.28,0,0,0-.09-1h1.08l.13,1.46-.14.09a2.34,2.34,0,0,1,.87-1.27,2.47,2.47,0,0,1,1.48-.45,2.3,2.3,0,0,1,1.59.51,2.45,2.45,0,0,1,.72,1.54l-.34-.19a2.33,2.33,0,0,1,.91-1.35,2.62,2.62,0,0,1,1.63-.51,2.19,2.19,0,0,1,1.75.69,3.21,3.21,0,0,1,.58,2.1v4.42h-1.13V11.24a2.37,2.37,0,0,0-.35-1.43,1.32,1.32,0,0,0-1.11-.46,1.72,1.72,0,0,0-1.39.61,2.43,2.43,0,0,0-.51,1.63v4h-1.13V11.24a2.29,2.29,0,0,0-.36-1.43,1.34,1.34,0,0,0-1.11-.46,1.73,1.73,0,0,0-1.41.61,2.43,2.43,0,0,0-.51,1.63v4Z"/><path class="cls-6" d="M275.05,15.61V5.31h1.13v5.07l-.15-.14a2.42,2.42,0,0,1,.91-1.36,2.72,2.72,0,0,1,1.62-.48,3,3,0,0,1,1.64.45,3.08,3.08,0,0,1,1.1,1.26,4.25,4.25,0,0,1,.4,1.92,4.43,4.43,0,0,1-.4,1.94,3,3,0,0,1-1.11,1.28,2.88,2.88,0,0,1-1.63.46,2.72,2.72,0,0,1-1.62-.48,2.33,2.33,0,0,1-.91-1.35l.15-.16v1.89Zm3.3-.84a1.93,1.93,0,0,0,1.6-.72,3.17,3.17,0,0,0,.57-2,3.07,3.07,0,0,0-.57-2,2,2,0,0,0-1.6-.7,2,2,0,0,0-1.61.71,3.17,3.17,0,0,0-.56,2,3.17,3.17,0,0,0,.56,2A1.92,1.92,0,0,0,278.35,14.77Z"/><path class="cls-6" d="M289.22,14.77a3.36,3.36,0,0,1-1.19.69,4.37,4.37,0,0,1-1.47.25,4,4,0,0,1-1.89-.43A3,3,0,0,1,283.46,14a4.07,4.07,0,0,1-.43-1.95,4.18,4.18,0,0,1,.42-1.92,3.18,3.18,0,0,1,1.17-1.29,3.29,3.29,0,0,1,1.73-.46,3.08,3.08,0,0,1,1.61.41A2.73,2.73,0,0,1,289,10a4.49,4.49,0,0,1,.35,1.85v.21H284v-.75h4.68l-.37.52a2.92,2.92,0,0,0-.48-1.89,1.77,1.77,0,0,0-1.49-.66,1.93,1.93,0,0,0-1.6.72,3.11,3.11,0,0,0-.58,2,3.06,3.06,0,0,0,.61,2.07,2.21,2.21,0,0,0,1.78.7,3.57,3.57,0,0,0,1.18-.2,3.86,3.86,0,0,0,1.09-.62Z"/><path class="cls-6" d="M291.06,15.61V10.54c0-.32,0-.65,0-1a8.28,8.28,0,0,0-.09-1H292l.15,1.74-.15-.05a2.18,2.18,0,0,1,.85-1.39,2.45,2.45,0,0,1,1.46-.47l.34,0,.3.07,0,1a2.4,2.4,0,0,0-.74-.11,2,2,0,0,0-1.17.32,1.92,1.92,0,0,0-.65.82,2.83,2.83,0,0,0-.2,1v4Z"/><path class="cls-6" d="M1.09,141.32V131H2.23v10.3Z"/><path class="cls-6" d="M10.19,140.48a3.32,3.32,0,0,1-1.18.69,4.64,4.64,0,0,1-1.48.25A3.84,3.84,0,0,1,5.65,141a2.94,2.94,0,0,1-1.22-1.25,4.62,4.62,0,0,1,0-3.87,3.18,3.18,0,0,1,1.17-1.29,3.22,3.22,0,0,1,1.73-.46,3.06,3.06,0,0,1,1.61.41,2.67,2.67,0,0,1,1,1.19,4.31,4.31,0,0,1,.36,1.84v.21H5V137H9.67l-.36.52a2.92,2.92,0,0,0-.48-1.89A1.77,1.77,0,0,0,7.34,135a2,2,0,0,0-1.61.72,3.15,3.15,0,0,0-.58,2,3.12,3.12,0,0,0,.61,2.07,2.24,2.24,0,0,0,1.79.7,3.61,3.61,0,0,0,1.18-.2,3.72,3.72,0,0,0,1.08-.63Z"/><path class="cls-6" d="M11,135.17v-.89h4.23v.89Zm4.43-3.12a2.88,2.88,0,0,0-.73-.11,1.51,1.51,0,0,0-.61.12.9.9,0,0,0-.43.43,2,2,0,0,0-.15.85v8H12.4V133.2a2.26,2.26,0,0,1,.57-1.69,2.07,2.07,0,0,1,1.54-.55l.47,0a2.73,2.73,0,0,1,.48.1Z"/><path class="cls-6" d="M15.43,135.17v-.89H20v.89Zm4.49,5.14v1a3.94,3.94,0,0,1-.47.1,2.64,2.64,0,0,1-.51,0,2.18,2.18,0,0,1-1.56-.56,2.24,2.24,0,0,1-.58-1.68v-6.71l1.13-.4v7a1.83,1.83,0,0,0,.17.87.84.84,0,0,0,.44.43,1.54,1.54,0,0,0,.63.12,2.05,2.05,0,0,0,.37,0A2.15,2.15,0,0,0,19.92,140.31Z"/><path class="cls-6" d="M76.07,141.32v-5.07c0-.32,0-.65,0-1s0-.66-.09-1H77l.13,1.45-.14.1a2.39,2.39,0,0,1,.87-1.27,2.47,2.47,0,0,1,1.48-.45,2.35,2.35,0,0,1,1.59.5,2.46,2.46,0,0,1,.72,1.54l-.33-.18a2.37,2.37,0,0,1,.9-1.36,2.68,2.68,0,0,1,1.63-.5,2.18,2.18,0,0,1,1.75.69,3.21,3.21,0,0,1,.59,2.1v4.42H85.08V137a2.3,2.3,0,0,0-.35-1.43,1.28,1.28,0,0,0-1.1-.46,1.74,1.74,0,0,0-1.4.6,2.48,2.48,0,0,0-.51,1.64v4H80.59V137a2.29,2.29,0,0,0-.36-1.43,1.31,1.31,0,0,0-1.11-.46,1.75,1.75,0,0,0-1.41.6,2.48,2.48,0,0,0-.51,1.64v4Z"/><path class="cls-6" d="M88.26,131.3h1.39v1.28H88.26Zm.11,10v-7h1.14v7Z"/><path class="cls-6" d="M97.91,141.32H96.79v-1.89l.16.15a2.28,2.28,0,0,1-.91,1.36,2.71,2.71,0,0,1-1.63.48,2.88,2.88,0,0,1-1.63-.46,2.94,2.94,0,0,1-1.1-1.28,4.57,4.57,0,0,1-.4-1.94,4.39,4.39,0,0,1,.39-1.92,2.9,2.9,0,0,1,2.74-1.71,2.71,2.71,0,0,1,1.63.48,2.38,2.38,0,0,1,.91,1.35l-.18.14V131h1.14Zm-3.28-.84a1.93,1.93,0,0,0,1.59-.71,3.12,3.12,0,0,0,.57-2,3.16,3.16,0,0,0-.56-2,1.94,1.94,0,0,0-1.6-.71,2,2,0,0,0-1.62.7,3.07,3.07,0,0,0-.58,2,3.19,3.19,0,0,0,.58,2A2,2,0,0,0,94.63,140.48Z"/><path class="cls-6" d="M106.31,141.32h-1.12v-1.89l.16.15a2.28,2.28,0,0,1-.91,1.36,2.71,2.71,0,0,1-1.63.48,2.88,2.88,0,0,1-1.63-.46,2.94,2.94,0,0,1-1.1-1.28,4.91,4.91,0,0,1,0-3.86,2.9,2.9,0,0,1,2.74-1.71,2.71,2.71,0,0,1,1.63.48,2.38,2.38,0,0,1,.91,1.35l-.18.14V131h1.14Zm-3.28-.84a1.93,1.93,0,0,0,1.59-.71,3.12,3.12,0,0,0,.57-2,3.16,3.16,0,0,0-.56-2,1.94,1.94,0,0,0-1.6-.71,2,2,0,0,0-1.62.7,3.07,3.07,0,0,0-.58,2,3.19,3.19,0,0,0,.58,2A2,2,0,0,0,103,140.48Z"/><path class="cls-6" d="M108.5,141.32V131h1.14v10.3Z"/><path class="cls-6" d="M117.6,140.48a3.23,3.23,0,0,1-1.18.69,4.64,4.64,0,0,1-1.48.25,3.87,3.87,0,0,1-1.88-.44,2.94,2.94,0,0,1-1.22-1.25,4.67,4.67,0,0,1,0-3.87,3.09,3.09,0,0,1,2.89-1.75,3,3,0,0,1,1.61.41,2.67,2.67,0,0,1,1,1.19,4.31,4.31,0,0,1,.36,1.84v.21h-5.32V137h4.68l-.37.52a2.92,2.92,0,0,0-.48-1.89,1.77,1.77,0,0,0-1.49-.66,2,2,0,0,0-1.61.72,3.15,3.15,0,0,0-.58,2,3.12,3.12,0,0,0,.61,2.07,2.24,2.24,0,0,0,1.79.7,3.61,3.61,0,0,0,1.18-.2,3.9,3.9,0,0,0,1.09-.63Z"/><path class="cls-6" d="M170.76,141.32v-5.07c0-.32,0-.65,0-1s-.05-.66-.09-1h1.07l.16,1.73-.16,0a2.26,2.26,0,0,1,.85-1.39,2.48,2.48,0,0,1,1.47-.47l.34,0,.3.06,0,1a2.35,2.35,0,0,0-.74-.11,2,2,0,0,0-1.17.32,1.9,1.9,0,0,0-.64.82,2.65,2.65,0,0,0-.21,1v4Z"/><path class="cls-6" d="M175.72,131.3h1.38v1.28h-1.38Zm.11,10v-7H177v7Z"/><path class="cls-6" d="M182.25,144.44a5.14,5.14,0,0,1-2.77-.73l.2-.92a6.22,6.22,0,0,0,1.24.55,5,5,0,0,0,1.33.16,2.08,2.08,0,0,0,1.54-.53,2.23,2.23,0,0,0,.52-1.61v-1.9l.16-.18a2.77,2.77,0,0,1-.53,1,2.52,2.52,0,0,1-.87.64,3,3,0,0,1-1.18.22,3.11,3.11,0,0,1-1.65-.44,2.93,2.93,0,0,1-1.1-1.23,4.39,4.39,0,0,1,0-3.66,3,3,0,0,1,1.1-1.23,3.11,3.11,0,0,1,1.65-.44,2.81,2.81,0,0,1,1.66.48,2.44,2.44,0,0,1,.92,1.35l-.17-.15v-1.51h1.13v7a2.82,2.82,0,0,1-3.18,3.18Zm-.14-4.28a2,2,0,0,0,1.61-.68,3.3,3.3,0,0,0,0-3.74,2,2,0,0,0-1.61-.68,2.07,2.07,0,0,0-1.63.68,3.27,3.27,0,0,0,0,3.75A2.1,2.1,0,0,0,182.11,140.16Z"/><path class="cls-6" d="M187.62,141.32V131h1.13v4.69l-.18.14a2.41,2.41,0,0,1,1-1.3,2.89,2.89,0,0,1,1.58-.44c1.69,0,2.53.93,2.53,2.79v4.42h-1.13V137a2.16,2.16,0,0,0-.39-1.43,1.52,1.52,0,0,0-1.23-.46,2.09,2.09,0,0,0-1.57.6,2.26,2.26,0,0,0-.59,1.63v4Z"/><path class="cls-6" d="M194.81,135.17v-.89h4.52v.89Zm4.5,5.14v1a2.83,2.83,0,0,1-.47.1,2.78,2.78,0,0,1-.51,0,2.18,2.18,0,0,1-1.57-.56,2.25,2.25,0,0,1-.58-1.68v-6.71l1.14-.4v7a1.85,1.85,0,0,0,.16.87.87.87,0,0,0,.44.43,1.61,1.61,0,0,0,.63.12,2.25,2.25,0,0,0,.38,0A2.4,2.4,0,0,0,199.31,140.31Z"/><rect class="cls-7" width="595.28" height="18"/></g></g></svg>