<svg xmlns="http://www.w3.org/2000/svg" viewBox="0 0 595.28 65.43"><defs><style>.cls-1{fill:none;}.cls-2{fill:#8e4582;}.cls-3{fill:#b056a1;}.cls-4{fill:#c788bb;}.cls-5{fill:#483d86;}.cls-6{fill:#5c4da0;}.cls-7{fill:#8d82bd;}.cls-8{opacity:0.6;}.cls-9{fill:#fff;}.cls-10{isolation:isolate;}.cls-11{fill:#010101;}.cls-12{fill:#afa7d1;}</style></defs><g id="Layer_2" data-name="Layer 2"><g id="Layer_1-2" data-name="Layer 1"><rect class="cls-1" width="595.28" height="18"/><path class="cls-2" d="M1,9A8,8,0,0,1,9,1h7l6,4h3l6-4h95.43V6c0,10-8-8-8,7.5s8-2.5,8,7.5v5H30.5l-6,4h-3l-6-4H9a8,8,0,0,1-8-8Z"/><path class="cls-3" d="M0,8A8,8,0,0,1,8,0h7l6,4h3l6-4h95.43V5c0,10-8-8-8,7.5s8-2.5,8,7.5v5H29.5l-6,4h-3l-6-4H8a8,8,0,0,1-8-8Z"/><path class="cls-4" d="M2.34,22.66A8,8,0,0,1,0,17V8H1v9A7,7,0,0,0,3.05,22Zm118.34-2.92-.49-.87,3.68-2.1.49.86ZM1,7.53,0,7.47A8,8,0,0,1,8,0h7.17l6,4h2.7l6-4h95.08V1H30.15l-6,4h-3.3l-6-4H8A7,7,0,0,0,1,7.53Z"/><path class="cls-5" d="M127.43,1h73.44V26H127.43V21c0-10-8,8-8-7.5s8,2.5,8-7.5Z"/><path class="cls-6" d="M126.43,0h73.44V25H126.43V20c0-10-8,8-8-7.5s8,2.5,8-7.5Z"/><path class="cls-7" d="M127.43,24.5h-1v-6h1Zm-8.34-6.37a20.9,20.9,0,0,1,0-11.26l1,.26a19.79,19.79,0,0,0,0,10.74ZM127.43,8h-1V0h72.94V1H127.43Z"/><g class="cls-8"><rect class="cls-9" x="131.43" y="5" width="63.43" height="16" rx="4"/></g><g class="cls-10"><path class="cls-11" d="M137.75,17.5V6.82H139V17.5Zm.57-4.91v-1h7.74v1Zm7.05,4.91V6.82h1.23V17.5Z"/><path class="cls-11" d="M149.24,17.5V6.82h1.23V17.5Z"/><path class="cls-11" d="M157.84,17.62a5.51,5.51,0,0,1-2.75-.65,4.33,4.33,0,0,1-1.76-1.88,6.63,6.63,0,0,1-.61-2.95,6.6,6.6,0,0,1,.61-2.93,4.38,4.38,0,0,1,1.74-1.87,5.34,5.34,0,0,1,2.68-.64A5.92,5.92,0,0,1,159.8,7a4.39,4.39,0,0,1,1.62,1l-.48.94a5.61,5.61,0,0,0-1.53-1,4.63,4.63,0,0,0-1.66-.29A3.46,3.46,0,0,0,155,8.88a4.86,4.86,0,0,0-1,3.26,4.88,4.88,0,0,0,1,3.31,3.6,3.6,0,0,0,2.88,1.13,7.61,7.61,0,0,0,1.52-.14,6.84,6.84,0,0,0,1.34-.38l-.3.63V12.91h-2.65v-1h3.78v4.95a4.84,4.84,0,0,1-1,.39,9.64,9.64,0,0,1-1.3.26A10.93,10.93,0,0,1,157.84,17.62Z"/><path class="cls-11" d="M164.08,17.5V6.82h1.21V17.5Zm.57-4.91v-1h7.74v1Zm7,4.91V6.82h1.23V17.5Z"/></g><g class="cls-10"><path class="cls-9" d="M17.82,17.5h-1.2v-2l.18.17a2.51,2.51,0,0,1-1,1.45,3,3,0,0,1-1.75.51,3.17,3.17,0,0,1-1.75-.48,3.26,3.26,0,0,1-1.18-1.38,4.86,4.86,0,0,1-.42-2.08,4.85,4.85,0,0,1,.41-2.06,3.22,3.22,0,0,1,1.17-1.35,3.26,3.26,0,0,1,1.77-.48,3,3,0,0,1,1.75.52,2.58,2.58,0,0,1,1,1.45l-.2.15V6.46h1.22Zm-3.51-.9a2.06,2.06,0,0,0,1.7-.76,3.38,3.38,0,0,0,.61-2.15,3.38,3.38,0,0,0-.6-2.14,2.08,2.08,0,0,0-1.71-.76,2.15,2.15,0,0,0-1.74.75A3.27,3.27,0,0,0,12,13.66a3.42,3.42,0,0,0,.62,2.17A2.13,2.13,0,0,0,14.31,16.6Z"/><path class="cls-9" d="M20.05,6.76h1.49V8.14H20.05Zm.12,10.74V10h1.21V17.5Z"/><path class="cls-9" d="M26.29,17.6a4.38,4.38,0,0,1-3-1l.4-.9a4.11,4.11,0,0,0,1.24.68,4.23,4.23,0,0,0,1.42.22,2.39,2.39,0,0,0,1.29-.29,1,1,0,0,0,.44-.85.91.91,0,0,0-.29-.71,2.41,2.41,0,0,0-1-.43l-1.27-.3a2.78,2.78,0,0,1-1.46-.75A1.78,1.78,0,0,1,23.53,12a1.93,1.93,0,0,1,.36-1.16,2.31,2.31,0,0,1,1-.79,3.68,3.68,0,0,1,1.52-.29,4.38,4.38,0,0,1,1.5.26,3.19,3.19,0,0,1,1.19.73l-.41.89A4,4,0,0,0,27.6,11a3.3,3.3,0,0,0-1.18-.22,2.14,2.14,0,0,0-1.25.32,1,1,0,0,0-.44.85,1,1,0,0,0,.28.74,1.89,1.89,0,0,0,.89.42l1.27.31a3,3,0,0,1,1.57.75,1.77,1.77,0,0,1,.5,1.31A1.84,1.84,0,0,1,28.45,17,3.57,3.57,0,0,1,26.29,17.6Z"/><path class="cls-9" d="M31.18,20.74V12.07c0-.35,0-.7,0-1.06s-.05-.71-.1-1.06h1.15l.14,1.56-.12.23a2.52,2.52,0,0,1,1-1.46,2.93,2.93,0,0,1,1.74-.51,3.1,3.1,0,0,1,1.75.5,3.35,3.35,0,0,1,1.19,1.38,4.78,4.78,0,0,1,.42,2.07,4.7,4.7,0,0,1-.42,2.06,3.1,3.1,0,0,1-2.94,1.82,2.93,2.93,0,0,1-1.74-.51,2.5,2.5,0,0,1-1-1.45l.16-.15v5.25Zm3.54-4.14a2.09,2.09,0,0,0,1.71-.75,3.28,3.28,0,0,0,.62-2.13,3.36,3.36,0,0,0-.62-2.15,2.06,2.06,0,0,0-1.71-.78,2.09,2.09,0,0,0-1.73.75,3.38,3.38,0,0,0-.6,2.15,3.38,3.38,0,0,0,.6,2.15A2.07,2.07,0,0,0,34.72,16.6Z"/><path class="cls-9" d="M40.18,17.5v-11h1.21v11Z"/><path class="cls-9" d="M46.64,17.6a3.22,3.22,0,0,1-1.76-.47,3.11,3.11,0,0,1-1.17-1.35,4.85,4.85,0,0,1-.41-2.06,4.78,4.78,0,0,1,.42-2.07,3.26,3.26,0,0,1,1.18-1.38,3.09,3.09,0,0,1,1.74-.5,3,3,0,0,1,1.76.51,2.52,2.52,0,0,1,1,1.46l-.18.12V10h1.2V17.5h-1.2V15.55l.18.09a2.5,2.5,0,0,1-1,1.45A3,3,0,0,1,46.64,17.6Zm.24-1a2,2,0,0,0,1.71-.76,3.38,3.38,0,0,0,.6-2.15,3.38,3.38,0,0,0-.6-2.15,2.32,2.32,0,0,0-3.44,0,3.36,3.36,0,0,0-.62,2.15,3.28,3.28,0,0,0,.62,2.13A2.13,2.13,0,0,0,46.88,16.6Z"/><path class="cls-9" d="M55.15,17.89,51.76,10H53l2.73,6.66Zm-2.76,3L52.13,20a7,7,0,0,0,1.17-.38,2.59,2.59,0,0,0,.79-.57,3,3,0,0,0,.56-.91L55.13,17l.27-.38L58.16,10h1.22l-3.53,8.24a5.15,5.15,0,0,1-.91,1.46,3.41,3.41,0,0,1-1.15.83A5.87,5.87,0,0,1,52.39,20.9Z"/><path class="cls-9" d="M64.63,20.74V12.07c0-.35,0-.7,0-1.06s0-.71-.1-1.06h1.15l.14,1.56-.12.23a2.52,2.52,0,0,1,1-1.46,2.93,2.93,0,0,1,1.74-.51,3.12,3.12,0,0,1,1.75.5,3.35,3.35,0,0,1,1.19,1.38,4.78,4.78,0,0,1,.42,2.07,4.7,4.7,0,0,1-.42,2.06,3.1,3.1,0,0,1-2.94,1.82,2.93,2.93,0,0,1-1.74-.51,2.5,2.5,0,0,1-1-1.45l.16-.15v5.25Zm3.54-4.14a2.09,2.09,0,0,0,1.71-.75,3.28,3.28,0,0,0,.61-2.13,3.36,3.36,0,0,0-.61-2.15,2.06,2.06,0,0,0-1.71-.78,2.09,2.09,0,0,0-1.73.75,3.38,3.38,0,0,0-.6,2.15,3.38,3.38,0,0,0,.6,2.15A2.07,2.07,0,0,0,68.17,16.6Z"/><path class="cls-9" d="M76.75,17.6a3.58,3.58,0,0,1-1.88-.48,3.26,3.26,0,0,1-1.25-1.35,4.65,4.65,0,0,1-.44-2.08,4.64,4.64,0,0,1,.44-2.07,3.26,3.26,0,0,1,1.25-1.37,3.92,3.92,0,0,1,3.76,0,3.26,3.26,0,0,1,1.25,1.37,4.64,4.64,0,0,1,.44,2.07,4.65,4.65,0,0,1-.44,2.08,3.26,3.26,0,0,1-1.25,1.35A3.58,3.58,0,0,1,76.75,17.6Zm0-1a2.12,2.12,0,0,0,1.72-.74,3.4,3.4,0,0,0,.6-2.17,3.32,3.32,0,0,0-.61-2.15,2.09,2.09,0,0,0-1.71-.75,2.12,2.12,0,0,0-1.72.75,3.32,3.32,0,0,0-.62,2.15A3.34,3.34,0,0,0,75,15.86,2.11,2.11,0,0,0,76.75,16.6Z"/><path class="cls-9" d="M84.14,17.5,81.35,10h1.28L85,16.6h-.39L87,10H88L90.4,16.6H90L92.38,10h1.2L90.79,17.5H89.62l-2.49-6.8h.66l-2.48,6.8Z"/><path class="cls-9" d="M101.24,16.6a3.52,3.52,0,0,1-1.26.73,4.83,4.83,0,0,1-1.59.27,4.09,4.09,0,0,1-2-.46,3.19,3.19,0,0,1-1.31-1.34,4.58,4.58,0,0,1-.46-2.1,4.45,4.45,0,0,1,.45-2,3.37,3.37,0,0,1,1.26-1.38,3.44,3.44,0,0,1,1.85-.5,3.17,3.17,0,0,1,1.72.45A2.85,2.85,0,0,1,101,11.48a4.76,4.76,0,0,1,.38,2v.23h-5.7v-.8h5l-.39.56a3.11,3.11,0,0,0-.52-2,1.9,1.9,0,0,0-1.6-.7,2.08,2.08,0,0,0-1.71.77,3.31,3.31,0,0,0-.63,2.14,3.27,3.27,0,0,0,.66,2.22,2.39,2.39,0,0,0,1.91.75,3.65,3.65,0,0,0,1.27-.22,3.92,3.92,0,0,0,1.16-.67Z"/><path class="cls-9" d="M103.22,17.5V12.07c0-.35,0-.7,0-1.06a9.5,9.5,0,0,0-.1-1.06h1.16l.16,1.86-.16,0a2.32,2.32,0,0,1,.91-1.49,2.56,2.56,0,0,1,1.56-.51,2.13,2.13,0,0,1,.37,0,1.52,1.52,0,0,1,.32.06l0,1.11a2.39,2.39,0,0,0-.79-.12,2.06,2.06,0,0,0-1.25.35,1.92,1.92,0,0,0-.69.88,2.78,2.78,0,0,0-.22,1.11V17.5Z"/></g><polygon class="cls-11" points="185.89 17.31 190.87 8.69 180.91 8.69 185.89 17.31"/><rect class="cls-12" x="131.43" y="31.69" width="63.37" height="33.74" rx="5.67"/><g class="cls-10"><path class="cls-11" d="M137.16,44.56V33.88h1.21V44.56Zm.57-4.9v-1h7.74v1Zm7.05,4.9V33.88H146V44.56Z"/><path class="cls-11" d="M148.65,44.56V33.88h1.23V44.56Z"/><path class="cls-11" d="M157.24,44.68a5.41,5.41,0,0,1-2.75-.65,4.3,4.3,0,0,1-1.76-1.87,6.66,6.66,0,0,1-.6-2.95,6.57,6.57,0,0,1,.6-2.93,4.32,4.32,0,0,1,1.74-1.87,5.34,5.34,0,0,1,2.68-.65,6.16,6.16,0,0,1,2,.34,4.57,4.57,0,0,1,1.63,1l-.48,1a5.37,5.37,0,0,0-1.53-1,4.47,4.47,0,0,0-1.67-.3A3.43,3.43,0,0,0,154.37,36a4.84,4.84,0,0,0-1,3.26,4.9,4.9,0,0,0,1,3.31,3.63,3.63,0,0,0,2.88,1.13,8.42,8.42,0,0,0,1.52-.14,7.71,7.71,0,0,0,1.35-.39l-.3.63V40h-2.66V39H161v5a4.84,4.84,0,0,1-1,.39,9.67,9.67,0,0,1-1.3.25A10.93,10.93,0,0,1,157.24,44.68Z"/><path class="cls-11" d="M163.48,44.56V33.88h1.22V44.56Zm.57-4.9v-1h7.74v1Zm7,4.9V33.88h1.23V44.56Z"/><path class="cls-11" d="M137.16,62.56V51.88h1.23v9.63h5.35v1.05Z"/><path class="cls-11" d="M149.25,62.68a4.89,4.89,0,0,1-2.59-.66A4.3,4.3,0,0,1,145,60.13a6.57,6.57,0,0,1-.59-2.91,6.65,6.65,0,0,1,.58-2.91,4.34,4.34,0,0,1,1.67-1.89,5.45,5.45,0,0,1,5.2,0,4.3,4.3,0,0,1,1.68,1.89,7.41,7.41,0,0,1,0,5.82A4.3,4.3,0,0,1,151.83,62,4.85,4.85,0,0,1,149.25,62.68Zm0-1a3.24,3.24,0,0,0,2.64-1.14,5,5,0,0,0,.94-3.28,5,5,0,0,0-.94-3.26,3.64,3.64,0,0,0-5.29,0,4.93,4.93,0,0,0-.95,3.26,5,5,0,0,0,.95,3.27A3.24,3.24,0,0,0,149.25,61.63Z"/><path class="cls-11" d="M159,62.56l-3.75-10.68h1.26l3.27,9.63h-.48l3.34-9.63,1,0,3.28,9.61h-.46l3.3-9.63H171l-3.73,10.68h-1.05L163,53.35h.33l-3.23,9.21Z"/></g><polygon class="cls-11" points="185.89 44.38 190.87 35.75 180.91 35.75 185.89 44.38"/></g></g></svg>