<svg xmlns="http://www.w3.org/2000/svg" viewBox="0 0 595.28 182.5"><defs><style>.cls-1{fill:#fff;}.cls-2{fill:#ff5100;}.cls-3{fill:#231f20;}.cls-4{fill:#a3a3a3;}.cls-5{fill:none;}</style></defs><g id="Layer_2" data-name="Layer 2"><g id="Layer_1-2" data-name="Layer 1"><rect x="55.97" y="40.77" width="283.46" height="141.73"/><rect class="cls-1" x="196.71" y="3.39" width="2" height="216.49" transform="translate(29.84 264.51) rotate(-71.78)"/><path class="cls-1" d="M93.89,81.42A3.76,3.76,0,1,1,98.64,79,3.76,3.76,0,0,1,93.89,81.42Z"/><path class="cls-1" d="M299.17,149a3.76,3.76,0,1,0-2.4-4.74A3.76,3.76,0,0,0,299.17,149Z"/><path class="cls-2" d="M95.55,35.58H56.47a.5.5,0,0,1,0-1H95.55a.5.5,0,0,1,0,1Z"/><rect class="cls-2" x="95.05" y="31.83" width="1" height="6.5"/><rect class="cls-2" x="55.97" y="31.83" width="1" height="6.5"/><path class="cls-3" d="M69.2,30.08H67.83L71.62,25l.68-.85,2.91-4h1.36L72.94,25l-.66.87Zm6.18,0-3.1-4.23L71.62,25,68,20.11h1.37l2.92,4,.64.86,3.79,5.1Z"/><path class="cls-3" d="M78.64,30.08v-1H84.2v1Zm2.2-.52V20.78l.66.34-2.71,1.72v-1.1l2.55-1.63H82v9.45Z"/><path class="cls-2" d="M300.55,15.58H56.47a.5.5,0,0,1,0-1H300.55a.5.5,0,0,1,0,1Z"/><rect class="cls-2" x="300.05" y="11.83" width="1" height="6.5"/><rect class="cls-2" x="55.97" y="11.83" width="1" height="6.5"/><path class="cls-3" d="M171.59,10.08h-1.37L174,5l.67-.85,2.92-4H179L175.33,5l-.66.87Zm6.17,0-3.09-4.23L174,5,170.4.11h1.37l2.91,4,.65.86,3.79,5.1Z"/><path class="cls-3" d="M180.4,10.08V9.21l3.48-3.86a6.63,6.63,0,0,0,1-1.42,2.69,2.69,0,0,0,.33-1.26,1.61,1.61,0,0,0-.48-1.26A1.9,1.9,0,0,0,183.39,1a3.71,3.71,0,0,0-1.42.28,5.62,5.62,0,0,0-1.41.86l-.43-.88a4.33,4.33,0,0,1,1.48-.89A5,5,0,0,1,183.42,0,3.47,3.47,0,0,1,185,.32a2.33,2.33,0,0,1,1,.9,2.54,2.54,0,0,1,.37,1.4A3.63,3.63,0,0,1,186,4.26,7.42,7.42,0,0,1,184.72,6l-3.36,3.64-.08-.56h5.53v1Z"/><path class="cls-3" d="M30.14,63.94V59.46l.26.81L26.22,54h1.35l3.36,5.21h-.39L33.9,54h1.31l-4.16,6.3.24-.81v4.48Z"/><path class="cls-3" d="M36.77,63.94V63h5.55v1ZM39,63.42V54.64l.66.34-2.7,1.72V55.6L39.47,54h.66v9.45Z"/><path class="cls-2" d="M47.32,77.14a.5.5,0,0,1-.5-.5V41.27a.51.51,0,0,1,.5-.5.5.5,0,0,1,.5.5V76.64A.5.5,0,0,1,47.32,77.14Z"/><rect class="cls-2" x="44.07" y="40.77" width="6.5" height="1"/><rect class="cls-2" x="44.07" y="76.14" width="6.5" height="1"/><path class="cls-3" d="M3.92,98.5V94l.25.81L0,88.53H1.34L4.7,93.74H4.31l3.36-5.21H9l-4.16,6.3L5.07,94V98.5Z"/><path class="cls-3" d="M9.91,98.5v-.87l3.49-3.87a7,7,0,0,0,1-1.41,2.8,2.8,0,0,0,.32-1.26,1.68,1.68,0,0,0-.47-1.27,2,2,0,0,0-1.36-.44,3.77,3.77,0,0,0-1.43.29,5.58,5.58,0,0,0-1.4.86l-.43-.88a4.25,4.25,0,0,1,1.48-.9,5.21,5.21,0,0,1,1.81-.33,3.64,3.64,0,0,1,1.57.31,2.38,2.38,0,0,1,1,.9A2.65,2.65,0,0,1,15.9,91a3.69,3.69,0,0,1-.38,1.65,8,8,0,0,1-1.28,1.77l-3.36,3.64-.09-.56h5.53v1Z"/><path class="cls-2" d="M21.32,146.14a.5.5,0,0,1-.5-.5V41.27a.51.51,0,0,1,.5-.5.5.5,0,0,1,.5.5V145.64A.5.5,0,0,1,21.32,146.14Z"/><rect class="cls-2" x="18.07" y="40.77" width="6.5" height="1"/><rect class="cls-2" x="18.07" y="145.14" width="6.5" height="1"/><path class="cls-4" d="M59.85,77.64h-6a.5.5,0,0,1,0-1h6a.5.5,0,1,1,0,1Z"/><path class="cls-4" d="M75.7,77.64H67.78a.5.5,0,0,1,0-1H75.7a.5.5,0,0,1,0,1Z"/><path class="cls-4" d="M89.62,77.64h-6a.5.5,0,0,1,0-1h6a.5.5,0,0,1,0,1Z"/><path class="cls-4" d="M96.05,72.79a.51.51,0,0,1-.5-.5v-6a.5.5,0,0,1,.5-.5.5.5,0,0,1,.5.5v6A.5.5,0,0,1,96.05,72.79Z"/><path class="cls-4" d="M96.05,60.07a.5.5,0,0,1-.5-.5V52.85a.51.51,0,0,1,.5-.5.5.5,0,0,1,.5.5v6.72A.5.5,0,0,1,96.05,60.07Z"/><path class="cls-4" d="M96.05,46.64a.5.5,0,0,1-.5-.5v-6a.5.5,0,0,1,.5-.5.5.5,0,0,1,.5.5v6A.5.5,0,0,1,96.05,46.64Z"/><path class="cls-4" d="M32.74,146.64h-6a.5.5,0,0,1,0-1h6a.5.5,0,1,1,0,1Z"/><path class="cls-4" d="M272.23,146.64h-12a.5.5,0,0,1,0-1h12a.5.5,0,0,1,0,1Zm-24,0h-12a.5.5,0,0,1,0-1h12a.5.5,0,0,1,0,1Zm-23.95,0h-12a.5.5,0,0,1,0-1h12a.5.5,0,1,1,0,1Zm-24,0h-12a.5.5,0,1,1,0-1h12a.5.5,0,0,1,0,1Zm-23.95,0h-12a.5.5,0,0,1,0-1h12a.5.5,0,0,1,0,1Zm-24,0h-12a.5.5,0,0,1,0-1h12a.5.5,0,1,1,0,1Zm-23.95,0h-12a.5.5,0,0,1,0-1h12a.5.5,0,0,1,0,1Zm-24,0h-12a.5.5,0,0,1,0-1h12a.5.5,0,0,1,0,1Zm-23.94,0h-12a.5.5,0,0,1,0-1h12a.5.5,0,0,1,0,1Zm-24,0h-12a.5.5,0,0,1,0-1h12a.5.5,0,0,1,0,1Z"/><path class="cls-4" d="M290.21,146.64h-6a.5.5,0,0,1,0-1h6a.5.5,0,0,1,0,1Z"/><path class="cls-4" d="M301.05,137.64a.51.51,0,0,1-.5-.5v-6a.5.5,0,0,1,.5-.5.5.5,0,0,1,.5.5v6A.5.5,0,0,1,301.05,137.64Z"/><path class="cls-4" d="M301.05,120a.5.5,0,0,1-.5-.5V107.82a.51.51,0,0,1,.5-.5.5.5,0,0,1,.5.5v11.66A.5.5,0,0,1,301.05,120Zm0-23.31a.51.51,0,0,1-.5-.5V84.51a.5.5,0,0,1,.5-.5.5.5,0,0,1,.5.5V96.17A.5.5,0,0,1,301.05,96.67Zm0-23.32a.5.5,0,0,1-.5-.5V61.2a.5.5,0,0,1,.5-.5.5.5,0,0,1,.5.5V72.85A.5.5,0,0,1,301.05,73.35Zm0-23.31a.5.5,0,0,1-.5-.5V37.88a.51.51,0,0,1,.5-.5.5.5,0,0,1,.5.5V49.54A.5.5,0,0,1,301.05,50Z"/><path class="cls-4" d="M301.05,26.73a.51.51,0,0,1-.5-.5v-6a.5.5,0,0,1,.5-.5.5.5,0,0,1,.5.5v6A.5.5,0,0,1,301.05,26.73Z"/><rect class="cls-5" width="595.28" height="18"/></g></g></svg>