<svg xmlns="http://www.w3.org/2000/svg" viewBox="0 0 595.28 41"><defs><style>.cls-1{fill:none;}.cls-2{fill:#474484;}.cls-3{fill:#5a55a5;}.cls-4{fill:#8b87be;}.cls-5{fill:#3d4986;}.cls-6{fill:#4c5ba6;}.cls-7{fill:#818dc1;}.cls-8{opacity:0.6;}.cls-9{fill:#fff;}.cls-10{isolation:isolate;}.cls-11{fill:#010101;}</style></defs><g id="Layer_2" data-name="Layer 2"><g id="Layer_1-2" data-name="Layer 1"><rect class="cls-1" width="595.28" height="18"/><path class="cls-2" d="M1,9A8,8,0,0,1,9,1h7l6,4h3l6-4H226V37H30.5l-6,4h-3l-6-4H9a8,8,0,0,1-8-8ZM150.3,6H119.5v5c0,10-8-8-8,7.5s8-2.5,8,7.5v7h30.8ZM216,6H185.2v5c0,10-8-8-8,7.5s8-2.5,8,7.5v7H216Z"/><path class="cls-3" d="M0,8A8,8,0,0,1,8,0h7l6,4h3l6-4H225V36H29.5l-6,4h-3l-6-4H8a8,8,0,0,1-8-8ZM149.3,5H118.5v5c0,10-8-8-8,7.5s8-2.5,8,7.5v7h30.8ZM215,5H184.2v5c0,10-8-8-8,7.5s8-2.5,8,7.5v7H215Z"/><path class="cls-4" d="M2.34,33.66A8,8,0,0,1,0,28V8H1V28a7,7,0,0,0,2.05,5ZM216,33H184.7V32H215V5.5h1Zm-65.7,0H119V32h30.3V5.5h1Zm29-8.27-.5-.86,3.68-2.1.5.86Zm-65.7,0-.5-.86,3.68-2.1.5.86ZM1,7.53,0,7.47A8,8,0,0,1,8,0h7.17l6,4h2.7l6-4H224.5V1H30.15l-6,4h-3.3l-6-4H8A7,7,0,0,0,1,7.53Z"/><path class="cls-5" d="M120.5,7h28.8V32H120.5V27c0-10-8,8-8-7.5s8,2.5,8-7.5Z"/><path class="cls-6" d="M119.5,6h28.8V31H119.5V26c0-10-8,8-8-7.5s8,2.5,8-7.5Z"/><path class="cls-7" d="M120.5,30.5h-1v-6h1Zm-8.34-6.37a20.9,20.9,0,0,1,0-11.26l1,.26a20,20,0,0,0,0,10.74ZM120.5,14h-1V6h28.3V7H120.5Z"/><g class="cls-8"><rect class="cls-9" x="124.5" y="11" width="18.8" height="16" rx="4"/></g><g class="cls-10"><path class="cls-11" d="M134,23.62a3.14,3.14,0,0,1-2.78-1.39,7.14,7.14,0,0,1-.95-4.07,7.23,7.23,0,0,1,.94-4.07,3.5,3.5,0,0,1,5.58,0,7.2,7.2,0,0,1,.94,4.05,7.17,7.17,0,0,1-.95,4.08A3.13,3.13,0,0,1,134,23.62Zm0-1a2,2,0,0,0,1.88-1.08,7,7,0,0,0,.61-3.36,6.86,6.86,0,0,0-.61-3.33,2.19,2.19,0,0,0-3.76,0,6.87,6.87,0,0,0-.61,3.32,7,7,0,0,0,.61,3.36A2,2,0,0,0,134,22.58Z"/></g><path class="cls-5" d="M186.2,7H215V32H186.2V27c0-10-8,8-8-7.5s8,2.5,8-7.5Z"/><path class="cls-6" d="M185.2,6H214V31H185.2V26c0-10-8,8-8-7.5s8,2.5,8-7.5Z"/><path class="cls-7" d="M186.2,30.5h-1v-6h1Zm-8.34-6.37a20.9,20.9,0,0,1,0-11.26l1,.26a20,20,0,0,0,0,10.74ZM186.2,14h-1V6h28.3V7H186.2Z"/><g class="cls-8"><rect class="cls-9" x="190.2" y="11" width="18.8" height="16" rx="4"/></g><g class="cls-10"><path class="cls-11" d="M199.7,23.62a3.14,3.14,0,0,1-2.78-1.39,7.14,7.14,0,0,1-.95-4.07,7.23,7.23,0,0,1,.94-4.07,3.5,3.5,0,0,1,5.58,0,7.19,7.19,0,0,1,.95,4.05,7.17,7.17,0,0,1-1,4.08A3.13,3.13,0,0,1,199.7,23.62Zm0-1a2,2,0,0,0,1.88-1.08,7,7,0,0,0,.61-3.36,6.86,6.86,0,0,0-.61-3.33,2.19,2.19,0,0,0-3.76,0,6.87,6.87,0,0,0-.61,3.32,7,7,0,0,0,.61,3.36A2,2,0,0,0,199.7,22.58Z"/></g><g class="cls-10"><path class="cls-9" d="M17.82,22.5h-1.2v-2l.18.17a2.51,2.51,0,0,1-1,1.45,2.9,2.9,0,0,1-1.75.52,3.17,3.17,0,0,1-1.75-.49,3.26,3.26,0,0,1-1.18-1.38,4.86,4.86,0,0,1-.42-2.08,4.81,4.81,0,0,1,.41-2.05,3.06,3.06,0,0,1,2.94-1.83,3,3,0,0,1,1.75.51,2.58,2.58,0,0,1,1,1.45l-.2.15V11.46h1.22Zm-3.51-.9a2.06,2.06,0,0,0,1.7-.76,3.38,3.38,0,0,0,.61-2.15,3.38,3.38,0,0,0-.6-2.14,2.08,2.08,0,0,0-1.71-.76,2.15,2.15,0,0,0-1.74.75A3.27,3.27,0,0,0,12,18.66a3.42,3.42,0,0,0,.62,2.17A2.13,2.13,0,0,0,14.31,21.6Z"/><path class="cls-9" d="M20.17,22.5V17.07c0-.35,0-.7,0-1.06s0-.71-.1-1.05h1.16l.16,1.86-.16-.05a2.31,2.31,0,0,1,.9-1.49,2.6,2.6,0,0,1,1.57-.5,2.23,2.23,0,0,1,.37,0,1.14,1.14,0,0,1,.32.07l0,1.1a2.69,2.69,0,0,0-.79-.11,2.11,2.11,0,0,0-1.26.34,2.06,2.06,0,0,0-.69.88,3,3,0,0,0-.22,1.12v4.3Z"/><path class="cls-9" d="M28.35,22.61a3.26,3.26,0,0,1-1.77-.48,3.11,3.11,0,0,1-1.17-1.35A4.85,4.85,0,0,1,25,18.72a4.78,4.78,0,0,1,.42-2.07,3.26,3.26,0,0,1,1.18-1.38,3.12,3.12,0,0,1,1.75-.49,2.94,2.94,0,0,1,1.75.51,2.48,2.48,0,0,1,1,1.45l-.18.12V15h1.2V22.5H30.9V20.55l.18.09a2.51,2.51,0,0,1-1,1.45A2.88,2.88,0,0,1,28.35,22.61Zm.24-1a2,2,0,0,0,1.71-.76,3.38,3.38,0,0,0,.6-2.15,3.38,3.38,0,0,0-.61-2.15,2.07,2.07,0,0,0-1.7-.75,2.11,2.11,0,0,0-1.74.78,3.36,3.36,0,0,0-.62,2.15,3.28,3.28,0,0,0,.62,2.13A2.15,2.15,0,0,0,28.59,21.6Z"/><path class="cls-9" d="M36.48,22.5,33.69,15H35l2.33,6.64H36.9L39.3,15h1.06l2.37,6.64h-.39L44.71,15h1.2L43.12,22.5H42l-2.49-6.79h.66L37.65,22.5Z"/><path class="cls-9" d="M51.4,25.74V17.07c0-.35,0-.7,0-1.06s-.05-.71-.1-1.05h1.16l.13,1.55-.12.23a2.47,2.47,0,0,1,1-1.45,2.94,2.94,0,0,1,1.75-.51,3.08,3.08,0,0,1,1.74.49,3.35,3.35,0,0,1,1.19,1.38,4.78,4.78,0,0,1,.43,2.07,4.7,4.7,0,0,1-.43,2.06,3.13,3.13,0,0,1-2.93,1.83,2.88,2.88,0,0,1-1.75-.52,2.5,2.5,0,0,1-1-1.45l.16-.15v5.25Zm3.54-4.14a2.09,2.09,0,0,0,1.71-.75,3.28,3.28,0,0,0,.62-2.13,3.36,3.36,0,0,0-.62-2.15,2.06,2.06,0,0,0-1.71-.78,2.09,2.09,0,0,0-1.73.75,3.44,3.44,0,0,0-.6,2.15,3.44,3.44,0,0,0,.6,2.15A2.07,2.07,0,0,0,54.94,21.6Z"/><path class="cls-9" d="M60.28,11.76h1.49v1.38H60.28ZM60.4,22.5V15h1.21V22.5Z"/><path class="cls-9" d="M64.45,22.5H63l3.14-3.88.7-.89L69,15h1.49l-2.94,3.66-.74.91Zm4.74,0-2.39-3-.7-.91L63.15,15h1.46l2.19,2.77.74.89,3.11,3.88Z"/><path class="cls-9" d="M78,21.6a3.5,3.5,0,0,1-1.27.73,4.84,4.84,0,0,1-1.59.28,4.12,4.12,0,0,1-2-.47,3.19,3.19,0,0,1-1.31-1.34,4.57,4.57,0,0,1-.45-2.09,4.6,4.6,0,0,1,.44-2.06A3.35,3.35,0,0,1,75,14.78a3.17,3.17,0,0,1,1.72.44,2.88,2.88,0,0,1,1.11,1.27,4.74,4.74,0,0,1,.38,2v.23h-5.7v-.8h5l-.39.56a3.13,3.13,0,0,0-.52-2,1.92,1.92,0,0,0-1.6-.7,2.08,2.08,0,0,0-1.71.77,3.31,3.31,0,0,0-.62,2.14,3.27,3.27,0,0,0,.65,2.22,2.39,2.39,0,0,0,1.91.75,3.65,3.65,0,0,0,1.27-.22,3.92,3.92,0,0,0,1.16-.67Z"/><path class="cls-9" d="M80,22.5v-11h1.22v11Z"/></g><g class="cls-10"><path class="cls-9" d="M94.52,22.5H93.05L97.12,17l.72-.92L101,11.82h1.45L98.53,17l-.71.93Zm6.62,0L97.82,18l-.7-.94-3.87-5.21h1.47l3.12,4.29.69.93,4.06,5.46Z"/></g><g class="cls-10"><path class="cls-9" d="M163.23,22.5V17.7l.27.87L159,11.82h1.44l3.6,5.58h-.42l3.6-5.58h1.41l-4.46,6.75.26-.87v4.8Z"/></g></g></g></svg>