<svg xmlns="http://www.w3.org/2000/svg" viewBox="0 0 595.28 113.13"><defs><style>.cls-1{fill:none;}.cls-2{fill:#474484;}.cls-3{fill:#5a55a5;}.cls-4{fill:#8b87be;}.cls-5{fill:#3d4986;}.cls-6{fill:#4c5ba6;}.cls-7{fill:#818dc1;}.cls-8{opacity:0.6;}.cls-9{fill:#fff;}.cls-10{isolation:isolate;}.cls-11{fill:#010101;}.cls-12{fill:#afaad2;}</style></defs><g id="Layer_2" data-name="Layer 2"><g id="Layer_1-2" data-name="Layer 1"><rect class="cls-1" width="595.28" height="18"/><path class="cls-2" d="M1,9A8,8,0,0,1,9,1h7l6,4h3l6-4H395.7V37H30.5l-6,4h-3l-6-4H9a8,8,0,0,1-8-8ZM202.65,6h-30.8v5c0,10-8-8-8,7.5s8-2.5,8,7.5v7h30.8Zm74.5,0h-39.6v5c0,10-8-8-8,7.5s8-2.5,8,7.5v7h39.6Z"/><path class="cls-3" d="M0,8A8,8,0,0,1,8,0h7l6,4h3l6-4H394.7V36H29.5l-6,4h-3l-6-4H8a8,8,0,0,1-8-8ZM201.65,5h-30.8v5c0,10-8-8-8,7.5s8-2.5,8,7.5v7h30.8Zm74.5,0h-39.6v5c0,10-8-8-8,7.5s8-2.5,8,7.5v7h39.6Z"/><path class="cls-4" d="M2.34,33.66A8,8,0,0,1,0,28V8H1V28a7,7,0,0,0,2.05,5ZM277.15,33h-40.1V32h39.1V5.5h1Zm-74.5,0h-31.3V32h30.3V5.5h1Zm29-8.26-.5-.87,3.68-2.1.5.86Zm-65.7,0-.5-.87,3.68-2.1.5.86ZM1,7.53,0,7.47A8.05,8.05,0,0,1,8,0h7.15l6,4h2.7l6-4H394.2V1h-364l-6,4h-3.3l-6-4H8A7,7,0,0,0,1,7.53Z"/><path class="cls-5" d="M172.85,7h28.8V32h-28.8V27c0-10-8,8-8-7.5s8,2.5,8-7.5Z"/><path class="cls-6" d="M171.85,6h28.8V31h-28.8V26c0-10-8,8-8-7.5s8,2.5,8-7.5Z"/><path class="cls-7" d="M172.85,30.5h-1v-6h1Zm-8.34-6.37a20.71,20.71,0,0,1,0-11.26l1,.26a20,20,0,0,0,0,10.74ZM172.85,14h-1V6h28.3V7h-27.3Z"/><g class="cls-8"><rect class="cls-9" x="176.85" y="11" width="18.8" height="16" rx="4"/></g><g class="cls-10"><path class="cls-11" d="M186.35,23.62a3.14,3.14,0,0,1-2.78-1.39,7.13,7.13,0,0,1-1-4.07,7.22,7.22,0,0,1,.95-4.07,3.5,3.5,0,0,1,5.58,0,7.2,7.2,0,0,1,.94,4.05,7.17,7.17,0,0,1-1,4.08A3.13,3.13,0,0,1,186.35,23.62Zm0-1a2,2,0,0,0,1.88-1.08,7,7,0,0,0,.61-3.36,6.86,6.86,0,0,0-.61-3.33,2.19,2.19,0,0,0-3.76,0,6.87,6.87,0,0,0-.61,3.32,7,7,0,0,0,.61,3.36A2,2,0,0,0,186.35,22.58Z"/></g><path class="cls-5" d="M238.55,7h37.6V32h-37.6V27c0-10-8,8-8-7.5s8,2.5,8-7.5Z"/><path class="cls-6" d="M237.55,6h37.6V31h-37.6V26c0-10-8,8-8-7.5s8,2.5,8-7.5Z"/><path class="cls-7" d="M238.55,30.5h-1v-6h1Zm-8.34-6.37a20.71,20.71,0,0,1,0-11.26l1,.26a20,20,0,0,0,0,10.74ZM238.55,14h-1V6h37.1V7h-36.1Z"/><g class="cls-8"><rect class="cls-9" x="242.55" y="11" width="27.6" height="16" rx="4"/></g><g class="cls-10"><path class="cls-11" d="M252.21,23.61a5.26,5.26,0,0,1-1.91-.36,4.56,4.56,0,0,1-1.6-1l.47-.95a6.09,6.09,0,0,0,1.49.91,4,4,0,0,0,1.55.32,2.39,2.39,0,0,0,1.77-.64,2.34,2.34,0,0,0,.63-1.73,2.61,2.61,0,0,0-.28-1.24,2.13,2.13,0,0,0-.8-.83,2.41,2.41,0,0,0-1.23-.3,3,3,0,0,0-1.37.31,3,3,0,0,0-1.07.94H249V12.82h6.41v1h-5.18v4.32l-.39,0a3,3,0,0,1,1.12-1,3.39,3.39,0,0,1,1.54-.35,3.57,3.57,0,0,1,1.77.43,3,3,0,0,1,1.15,1.2,3.69,3.69,0,0,1,.41,1.76,3.53,3.53,0,0,1-.44,1.78,3.12,3.12,0,0,1-1.26,1.21A4,4,0,0,1,252.21,23.61Z"/><path class="cls-11" d="M261.4,23.62a3.59,3.59,0,0,1-3-1.34,6.15,6.15,0,0,1-1.05-3.85,8.66,8.66,0,0,1,.49-3.1,4.12,4.12,0,0,1,1.41-1.95,3.57,3.57,0,0,1,2.21-.68,4.84,4.84,0,0,1,1.8.34,4.68,4.68,0,0,1,1.55,1l-.47.94A5.59,5.59,0,0,0,262.9,14a3.48,3.48,0,0,0-1.4-.29A2.37,2.37,0,0,0,259.36,15a6.41,6.41,0,0,0-.77,3.46v1.29l-.18-.41A2.88,2.88,0,0,1,259,18a3.09,3.09,0,0,1,1.09-.87,3.46,3.46,0,0,1,1.45-.31,3.51,3.51,0,0,1,1.74.43,3.07,3.07,0,0,1,1.17,1.2,3.86,3.86,0,0,1,0,3.54,3.32,3.32,0,0,1-1.22,1.22A3.55,3.55,0,0,1,261.4,23.62Zm-.06-1a2.15,2.15,0,0,0,1.64-.65,2.37,2.37,0,0,0,.63-1.73,2.38,2.38,0,0,0-.63-1.72,2.2,2.2,0,0,0-1.66-.65,2.39,2.39,0,0,0-1.23.31,2.12,2.12,0,0,0-.84.84,2.42,2.42,0,0,0-.3,1.22,2.49,2.49,0,0,0,.3,1.25,2.19,2.19,0,0,0,.84.84A2.51,2.51,0,0,0,261.34,22.58Z"/></g><g class="cls-10"><path class="cls-9" d="M17.82,22.5h-1.2v-2l.18.17a2.51,2.51,0,0,1-1,1.45,2.9,2.9,0,0,1-1.75.52,3.17,3.17,0,0,1-1.75-.49,3.26,3.26,0,0,1-1.18-1.38,4.86,4.86,0,0,1-.42-2.08,4.81,4.81,0,0,1,.41-2.05,3.06,3.06,0,0,1,2.94-1.83,3,3,0,0,1,1.75.51,2.58,2.58,0,0,1,1,1.45l-.2.15V11.46h1.22Zm-3.51-.9a2.06,2.06,0,0,0,1.7-.76,3.38,3.38,0,0,0,.61-2.15,3.38,3.38,0,0,0-.6-2.14,2.08,2.08,0,0,0-1.71-.76,2.15,2.15,0,0,0-1.74.75A3.27,3.27,0,0,0,12,18.66a3.42,3.42,0,0,0,.62,2.17A2.13,2.13,0,0,0,14.31,21.6Z"/><path class="cls-9" d="M20.17,22.5V17.07c0-.35,0-.7,0-1.06s0-.71-.1-1.05h1.16l.16,1.86-.16-.05a2.31,2.31,0,0,1,.9-1.49,2.6,2.6,0,0,1,1.57-.5,2.23,2.23,0,0,1,.37,0,1.14,1.14,0,0,1,.32.07l0,1.1a2.69,2.69,0,0,0-.79-.11,2.11,2.11,0,0,0-1.26.34,2.06,2.06,0,0,0-.69.88,3,3,0,0,0-.22,1.12v4.3Z"/><path class="cls-9" d="M28.34,22.61a3.23,3.23,0,0,1-1.76-.48,3.11,3.11,0,0,1-1.17-1.35A4.85,4.85,0,0,1,25,18.72a4.78,4.78,0,0,1,.42-2.07,3.26,3.26,0,0,1,1.18-1.38,3.08,3.08,0,0,1,1.74-.49,3,3,0,0,1,1.76.51,2.47,2.47,0,0,1,1,1.45l-.17.12V15h1.19V22.5H30.9V20.55l.17.09a2.5,2.5,0,0,1-1,1.45A2.91,2.91,0,0,1,28.34,22.61Zm.25-1a2.07,2.07,0,0,0,1.71-.76,3.44,3.44,0,0,0,.6-2.15,3.38,3.38,0,0,0-.61-2.15,2.32,2.32,0,0,0-3.44,0,3.36,3.36,0,0,0-.62,2.15,3.28,3.28,0,0,0,.62,2.13A2.14,2.14,0,0,0,28.59,21.6Z"/><path class="cls-9" d="M36.47,22.5,33.68,15H35l2.32,6.64H36.9L39.3,15h1.06l2.37,6.64h-.39L44.71,15h1.2L43.12,22.5H42l-2.49-6.79h.66L37.65,22.5Z"/><path class="cls-9" d="M51.4,22.5v-11h1.21v5.43l-.16-.15a2.56,2.56,0,0,1,1-1.45,2.93,2.93,0,0,1,1.74-.51,3.28,3.28,0,0,1,1.76.47,3.41,3.41,0,0,1,1.18,1.36,4.66,4.66,0,0,1,.42,2.05,4.86,4.86,0,0,1-.42,2.08,3.35,3.35,0,0,1-1.19,1.38,3.2,3.2,0,0,1-1.75.49,2.87,2.87,0,0,1-1.74-.52,2.5,2.5,0,0,1-1-1.45l.16-.17v2Zm3.54-.9a2.08,2.08,0,0,0,1.71-.77,3.42,3.42,0,0,0,.61-2.17,3.26,3.26,0,0,0-.61-2.12,2.34,2.34,0,0,0-3.44,0,3.38,3.38,0,0,0-.6,2.14,3.38,3.38,0,0,0,.6,2.15A2.07,2.07,0,0,0,54.94,21.6Z"/><path class="cls-9" d="M63.29,22.61a3.23,3.23,0,0,1-1.76-.48,3.11,3.11,0,0,1-1.17-1.35A4.85,4.85,0,0,1,60,18.72a4.78,4.78,0,0,1,.42-2.07,3.26,3.26,0,0,1,1.18-1.38,3.08,3.08,0,0,1,1.74-.49,3,3,0,0,1,1.76.51,2.47,2.47,0,0,1,1,1.45l-.18.12V15H67V22.5h-1.2V20.55l.18.09a2.5,2.5,0,0,1-1,1.45A2.91,2.91,0,0,1,63.29,22.61Zm.24-1a2,2,0,0,0,1.71-.76,3.38,3.38,0,0,0,.6-2.15,3.38,3.38,0,0,0-.6-2.15,2.32,2.32,0,0,0-3.44,0,3.36,3.36,0,0,0-.62,2.15,3.28,3.28,0,0,0,.62,2.13A2.13,2.13,0,0,0,63.53,21.6Z"/><path class="cls-9" d="M68.33,15.92V15h4.85v1Zm4.82,5.5v1l-.5.11a4.58,4.58,0,0,1-.55,0A2.26,2.26,0,0,1,70.43,22a2.35,2.35,0,0,1-.63-1.79V13L71,12.58V20a2.11,2.11,0,0,0,.17.93,1,1,0,0,0,.47.46,1.83,1.83,0,0,0,.68.12l.4,0Z"/><path class="cls-9" d="M73.63,15.92V15h4.84v1Zm4.81,5.5v1l-.5.11a4.43,4.43,0,0,1-.55,0A2.27,2.27,0,0,1,75.72,22a2.39,2.39,0,0,1-.62-1.79V13l1.21-.44V20a2,2,0,0,0,.18.93,1,1,0,0,0,.47.46,1.78,1.78,0,0,0,.67.12l.41,0Z"/><path class="cls-9" d="M86.12,21.6a3.38,3.38,0,0,1-1.26.73,4.84,4.84,0,0,1-1.59.28,4.09,4.09,0,0,1-2-.47A3.19,3.19,0,0,1,80,20.8a4.57,4.57,0,0,1-.46-2.09,4.47,4.47,0,0,1,.45-2.06,3.37,3.37,0,0,1,1.26-1.38,3.43,3.43,0,0,1,1.85-.49,3.17,3.17,0,0,1,1.72.44,2.88,2.88,0,0,1,1.11,1.27,4.74,4.74,0,0,1,.38,2v.23h-5.7v-.8h5l-.39.56a3.13,3.13,0,0,0-.52-2,1.92,1.92,0,0,0-1.6-.7,2.08,2.08,0,0,0-1.71.77,3.31,3.31,0,0,0-.63,2.14,3.27,3.27,0,0,0,.66,2.22,2.39,2.39,0,0,0,1.91.75,3.65,3.65,0,0,0,1.27-.22,3.92,3.92,0,0,0,1.16-.67Z"/><path class="cls-9" d="M88.1,22.5V17.07c0-.35,0-.7,0-1.06A9.1,9.1,0,0,0,88,15h1.16l.16,1.86-.16-.05a2.32,2.32,0,0,1,.91-1.49,2.55,2.55,0,0,1,1.56-.5,2.17,2.17,0,0,1,.37,0,1.07,1.07,0,0,1,.32.07l0,1.1a2.69,2.69,0,0,0-.79-.11,2.06,2.06,0,0,0-1.25.34,1.92,1.92,0,0,0-.69.88,2.8,2.8,0,0,0-.22,1.12v4.3Z"/><path class="cls-9" d="M96.38,22.89,93,15h1.28L97,21.62Zm-2.76,3L93.37,25a6.57,6.57,0,0,0,1.16-.38,2.47,2.47,0,0,0,.8-.57,3,3,0,0,0,.56-.91L96.37,22l.27-.37L99.4,15h1.21l-3.52,8.23a5.16,5.16,0,0,1-.92,1.46,3.66,3.66,0,0,1-1.14.84A6.63,6.63,0,0,1,93.62,25.91Z"/><path class="cls-9" d="M105.86,22.5v-11h1.22v11Z"/><path class="cls-9" d="M115.61,21.6a3.38,3.38,0,0,1-1.26.73,4.84,4.84,0,0,1-1.59.28,4.09,4.09,0,0,1-2-.47,3.19,3.19,0,0,1-1.31-1.34,4.57,4.57,0,0,1-.46-2.09,4.47,4.47,0,0,1,.45-2.06,3.37,3.37,0,0,1,1.26-1.38,3.43,3.43,0,0,1,1.85-.49,3.17,3.17,0,0,1,1.72.44,2.88,2.88,0,0,1,1.11,1.27,4.74,4.74,0,0,1,.38,2v.23h-5.7v-.8h5l-.39.56a3.13,3.13,0,0,0-.52-2,1.92,1.92,0,0,0-1.6-.7,2.08,2.08,0,0,0-1.71.77,3.31,3.31,0,0,0-.63,2.14,3.27,3.27,0,0,0,.66,2.22,2.39,2.39,0,0,0,1.91.75,3.65,3.65,0,0,0,1.27-.22,3.92,3.92,0,0,0,1.16-.67Z"/><path class="cls-9" d="M119.72,22.5,116.51,15h1.28l2.73,6.65h-.36L122.92,15h1.21l-3.25,7.53Z"/><path class="cls-9" d="M131.56,21.6a3.34,3.34,0,0,1-1.27.73,4.74,4.74,0,0,1-1.58.28,4.16,4.16,0,0,1-2-.47,3.17,3.17,0,0,1-1.3-1.34,4.44,4.44,0,0,1-.46-2.09,4.47,4.47,0,0,1,.45-2.06,3.41,3.41,0,0,1,1.25-1.38,3.46,3.46,0,0,1,1.85-.49,3.2,3.2,0,0,1,1.73.44,2.8,2.8,0,0,1,1.1,1.27,4.59,4.59,0,0,1,.38,2v.23H126v-.8h5l-.39.56a3.19,3.19,0,0,0-.51-2,1.94,1.94,0,0,0-1.6-.7,2.11,2.11,0,0,0-1.72.77,3.36,3.36,0,0,0-.62,2.14,3.32,3.32,0,0,0,.65,2.22,2.4,2.4,0,0,0,1.91.75,3.61,3.61,0,0,0,1.27-.22,3.8,3.8,0,0,0,1.16-.67Z"/><path class="cls-9" d="M133.54,22.5v-11h1.21v11Z"/></g><g class="cls-10"><path class="cls-9" d="M146.87,22.5H145.4L149.47,17l.72-.92,3.12-4.29h1.45L150.88,17l-.71.93Zm6.62,0L150.17,18l-.7-.94-3.87-5.21h1.47l3.12,4.29.69.93,4.06,5.46Z"/></g><g class="cls-10"><path class="cls-9" d="M215.58,22.5V17.7l.27.87-4.47-6.75h1.44l3.6,5.58H216l3.6-5.58H221l-4.46,6.75.26-.87v4.8Z"/></g><g class="cls-10"><path class="cls-9" d="M287.32,25.74V17.07c0-.35,0-.7,0-1.06s-.05-.71-.1-1.05h1.15l.14,1.55-.12.23a2.47,2.47,0,0,1,1-1.45,2.93,2.93,0,0,1,1.74-.51,3.12,3.12,0,0,1,1.75.49A3.35,3.35,0,0,1,294,16.65a4.78,4.78,0,0,1,.42,2.07,4.7,4.7,0,0,1-.42,2.06,3.13,3.13,0,0,1-2.94,1.83,2.87,2.87,0,0,1-1.74-.52,2.5,2.5,0,0,1-1-1.45l.16-.15v5.25Zm3.54-4.14a2.09,2.09,0,0,0,1.71-.75,3.28,3.28,0,0,0,.61-2.13,3.36,3.36,0,0,0-.61-2.15,2.06,2.06,0,0,0-1.71-.78,2.09,2.09,0,0,0-1.73.75,3.38,3.38,0,0,0-.6,2.15,3.38,3.38,0,0,0,.6,2.15A2.07,2.07,0,0,0,290.86,21.6Z"/><path class="cls-9" d="M302.5,21.6a3.34,3.34,0,0,1-1.27.73,4.74,4.74,0,0,1-1.58.28,4.16,4.16,0,0,1-2-.47,3.17,3.17,0,0,1-1.3-1.34,4.44,4.44,0,0,1-.46-2.09,4.47,4.47,0,0,1,.45-2.06,3.41,3.41,0,0,1,1.25-1.38,3.46,3.46,0,0,1,1.85-.49,3.2,3.2,0,0,1,1.73.44,2.8,2.8,0,0,1,1.1,1.27,4.59,4.59,0,0,1,.38,2v.23h-5.7v-.8h5l-.39.56a3.19,3.19,0,0,0-.51-2,1.94,1.94,0,0,0-1.6-.7,2.11,2.11,0,0,0-1.72.77,3.36,3.36,0,0,0-.62,2.14,3.32,3.32,0,0,0,.65,2.22,2.4,2.4,0,0,0,1.91.75,3.61,3.61,0,0,0,1.27-.22,3.8,3.8,0,0,0,1.16-.67Z"/><path class="cls-9" d="M304.48,22.5V17.07c0-.35,0-.7,0-1.06s0-.71-.1-1.05h1.15l.17,1.86-.17-.05a2.36,2.36,0,0,1,.91-1.49,2.6,2.6,0,0,1,1.57-.5,2.23,2.23,0,0,1,.37,0,1.14,1.14,0,0,1,.32.07l0,1.1a2.76,2.76,0,0,0-.8-.11,1.92,1.92,0,0,0-1.94,1.22,3,3,0,0,0-.22,1.12v4.3Z"/><path class="cls-9" d="M312.92,22.61a3.61,3.61,0,0,1-1.92-.49,3.24,3.24,0,0,1-1.25-1.34,4.57,4.57,0,0,1-.44-2.06,4.5,4.5,0,0,1,.45-2.06A3.29,3.29,0,0,1,311,15.27a3.72,3.72,0,0,1,2-.49,4.12,4.12,0,0,1,1.48.26,3.22,3.22,0,0,1,1.18.72l-.41.91a4.9,4.9,0,0,0-1.08-.66,3,3,0,0,0-1.11-.22,2.26,2.26,0,0,0-1.8.77,3.16,3.16,0,0,0-.67,2.16,3.12,3.12,0,0,0,.66,2.13,2.28,2.28,0,0,0,1.81.75,2.84,2.84,0,0,0,1.1-.22,4.35,4.35,0,0,0,1.09-.65l.41.9a3.34,3.34,0,0,1-1.21.71A4.29,4.29,0,0,1,312.92,22.61Z"/><path class="cls-9" d="M323.36,21.6a3.38,3.38,0,0,1-1.26.73,4.84,4.84,0,0,1-1.59.28,4.09,4.09,0,0,1-2-.47,3.19,3.19,0,0,1-1.31-1.34,4.57,4.57,0,0,1-.46-2.09,4.47,4.47,0,0,1,.45-2.06,3.37,3.37,0,0,1,1.26-1.38,3.43,3.43,0,0,1,1.85-.49,3.17,3.17,0,0,1,1.72.44,2.88,2.88,0,0,1,1.11,1.27,4.74,4.74,0,0,1,.38,2v.23h-5.7v-.8h5l-.39.56a3.13,3.13,0,0,0-.52-2,1.92,1.92,0,0,0-1.6-.7,2.08,2.08,0,0,0-1.71.77,3.31,3.31,0,0,0-.63,2.14,3.27,3.27,0,0,0,.66,2.22,2.39,2.39,0,0,0,1.91.75,3.65,3.65,0,0,0,1.27-.22,3.92,3.92,0,0,0,1.16-.67Z"/><path class="cls-9" d="M325.34,22.5V17.07c0-.35,0-.7,0-1.06a9.1,9.1,0,0,0-.1-1.05h1.16l.13,1.55-.15.12a2.59,2.59,0,0,1,1.05-1.38,3,3,0,0,1,1.7-.47c1.81,0,2.71,1,2.71,3V22.5h-1.21V17.82a2.34,2.34,0,0,0-.42-1.54,1.67,1.67,0,0,0-1.32-.49,2.24,2.24,0,0,0-1.68.65,2.38,2.38,0,0,0-.63,1.74V22.5Z"/><path class="cls-9" d="M333.05,15.92V15h4.85v1Zm4.82,5.5v1l-.5.11a4.58,4.58,0,0,1-.55,0,2.26,2.26,0,0,1-1.67-.61,2.35,2.35,0,0,1-.63-1.79V13l1.22-.44V20a2.11,2.11,0,0,0,.17.93,1,1,0,0,0,.47.46,1.83,1.83,0,0,0,.68.12l.4,0Z"/></g><g class="cls-8"><rect class="cls-9" x="342.07" y="10" width="47.63" height="16" rx="4"/></g><g class="cls-10"><path class="cls-11" d="M349.92,18.29a2.12,2.12,0,0,1-1.74-.82,4,4,0,0,1-.63-2.46,4,4,0,0,1,.63-2.46,2.15,2.15,0,0,1,1.74-.79,2.1,2.1,0,0,1,1.72.79,4,4,0,0,1,.63,2.46,4,4,0,0,1-.63,2.46A2.07,2.07,0,0,1,349.92,18.29Zm0-.87a1,1,0,0,0,.93-.58,4,4,0,0,0,.31-1.83,4,4,0,0,0-.31-1.81,1,1,0,0,0-.93-.57,1,1,0,0,0-.94.57,4,4,0,0,0-.31,1.81,4,4,0,0,0,.31,1.83A1,1,0,0,0,349.92,17.42Zm-.2,5.08,6.18-10.68h1.16L350.89,22.5Zm7.14.06a2.08,2.08,0,0,1-1.73-.81,3.91,3.91,0,0,1-.64-2.46,3.87,3.87,0,0,1,.64-2.46,2.29,2.29,0,0,1,3.46,0,3.94,3.94,0,0,1,.63,2.46,4,4,0,0,1-.63,2.46A2.08,2.08,0,0,1,356.86,22.56Zm0-.87a1,1,0,0,0,.94-.57,4.12,4.12,0,0,0,.31-1.83,4.13,4.13,0,0,0-.31-1.82,1.07,1.07,0,0,0-1.88,0,4.16,4.16,0,0,0-.3,1.82,4.15,4.15,0,0,0,.3,1.83A1,1,0,0,0,356.86,21.69Z"/><path class="cls-11" d="M364.21,22.62a3.14,3.14,0,0,1-2.78-1.39,7.14,7.14,0,0,1-.95-4.07,7.23,7.23,0,0,1,.94-4.07,3.5,3.5,0,0,1,5.58,0,7.19,7.19,0,0,1,.95,4.05,7.17,7.17,0,0,1-1,4.08A3.13,3.13,0,0,1,364.21,22.62Zm0-1a2,2,0,0,0,1.88-1.08,7,7,0,0,0,.61-3.36,6.86,6.86,0,0,0-.61-3.33,2.19,2.19,0,0,0-3.76,0,6.87,6.87,0,0,0-.61,3.32,7,7,0,0,0,.61,3.36A2,2,0,0,0,364.21,21.58Z"/></g><polygon class="cls-11" points="380.72 22.31 385.7 13.69 375.74 13.69 380.72 22.31"/><rect class="cls-12" x="341.72" y="42.69" width="58.78" height="70.44" rx="5.67"/><g class="cls-10"><path class="cls-11" d="M349,51.35a2.11,2.11,0,0,1-1.74-.81,4,4,0,0,1-.63-2.46,3.94,3.94,0,0,1,.63-2.46,2.13,2.13,0,0,1,1.74-.8,2.08,2.08,0,0,1,1.72.8,3.94,3.94,0,0,1,.63,2.46,4,4,0,0,1-.63,2.46A2.06,2.06,0,0,1,349,51.35Zm0-.87a1,1,0,0,0,.93-.57,4,4,0,0,0,.31-1.83,4,4,0,0,0-.31-1.82,1,1,0,0,0-.93-.57,1,1,0,0,0-.94.57,4,4,0,0,0-.31,1.82,4,4,0,0,0,.31,1.83A1,1,0,0,0,349,50.48Zm-.2,5.08L355,44.88h1.16L350,55.56Zm7.14.06a2.08,2.08,0,0,1-1.73-.81,3.89,3.89,0,0,1-.64-2.46,3.87,3.87,0,0,1,.64-2.46,2.29,2.29,0,0,1,3.46,0,3.94,3.94,0,0,1,.63,2.46,4,4,0,0,1-.63,2.46A2.08,2.08,0,0,1,355.92,55.62Zm0-.87a1,1,0,0,0,.94-.57,4.12,4.12,0,0,0,.31-1.83,4.05,4.05,0,0,0-.31-1.81,1.06,1.06,0,0,0-1.88,0,4.08,4.08,0,0,0-.3,1.81,4.15,4.15,0,0,0,.3,1.83A1,1,0,0,0,355.92,54.75Z"/><path class="cls-11" d="M363.27,55.68a3.16,3.16,0,0,1-2.78-1.38,7.2,7.2,0,0,1-.95-4.08,7.25,7.25,0,0,1,.94-4.07,3.5,3.5,0,0,1,5.58,0,7.23,7.23,0,0,1,.95,4.06,7.19,7.19,0,0,1-1,4.08A3.14,3.14,0,0,1,363.27,55.68Zm0-1a2,2,0,0,0,1.88-1.08,7,7,0,0,0,.61-3.36,6.93,6.93,0,0,0-.61-3.34,2.19,2.19,0,0,0-3.76,0,6.91,6.91,0,0,0-.61,3.33,7,7,0,0,0,.61,3.36A2,2,0,0,0,363.27,54.65Z"/><path class="cls-11" d="M349,69.35a2.11,2.11,0,0,1-1.74-.81,5.12,5.12,0,0,1,0-4.92,2.13,2.13,0,0,1,1.74-.8,2.08,2.08,0,0,1,1.72.8,5.12,5.12,0,0,1,0,4.92A2.06,2.06,0,0,1,349,69.35Zm0-.87a1,1,0,0,0,.93-.57,5.53,5.53,0,0,0,0-3.65,1,1,0,0,0-.93-.57,1,1,0,0,0-.94.57,5.53,5.53,0,0,0,0,3.65A1,1,0,0,0,349,68.48Zm-.2,5.08L355,62.88h1.16L350,73.56Zm7.14.06a2.08,2.08,0,0,1-1.73-.81,5,5,0,0,1,0-4.92,2.29,2.29,0,0,1,3.46,0,5.12,5.12,0,0,1,0,4.92A2.08,2.08,0,0,1,355.92,73.62Zm0-.87a1,1,0,0,0,.94-.57,4.12,4.12,0,0,0,.31-1.83,4.05,4.05,0,0,0-.31-1.81,1.06,1.06,0,0,0-1.88,0,4.08,4.08,0,0,0-.3,1.81,4.15,4.15,0,0,0,.3,1.83A1,1,0,0,0,355.92,72.75Z"/><path class="cls-11" d="M363.44,73.67a5.57,5.57,0,0,1-1.92-.35,4.68,4.68,0,0,1-1.59-1l.46-.95a6.15,6.15,0,0,0,1.49.92,4.06,4.06,0,0,0,1.56.31,2.2,2.2,0,0,0,2.4-2.37,2.54,2.54,0,0,0-.29-1.23,2.09,2.09,0,0,0-.8-.84,2.4,2.4,0,0,0-1.22-.3,3.11,3.11,0,0,0-1.38.31,3.15,3.15,0,0,0-1.07.94h-.85V62.88h6.4v1h-5.17v4.32l-.39,0a3,3,0,0,1,1.11-1,3.38,3.38,0,0,1,1.54-.34,3.46,3.46,0,0,1,1.77.43,2.89,2.89,0,0,1,1.16,1.19,3.73,3.73,0,0,1,.4,1.77,3.59,3.59,0,0,1-.44,1.78,3.14,3.14,0,0,1-1.25,1.2A4,4,0,0,1,363.44,73.67Z"/><path class="cls-11" d="M372.27,73.68a3.16,3.16,0,0,1-2.78-1.38,7.2,7.2,0,0,1-.95-4.08,7.25,7.25,0,0,1,.94-4.07,3.5,3.5,0,0,1,5.58,0,7.23,7.23,0,0,1,.95,4.06,7.19,7.19,0,0,1-1,4.08A3.14,3.14,0,0,1,372.27,73.68Zm0-1a2,2,0,0,0,1.88-1.08,7,7,0,0,0,.61-3.36,6.93,6.93,0,0,0-.61-3.34,2.19,2.19,0,0,0-3.76,0,6.91,6.91,0,0,0-.61,3.33,7,7,0,0,0,.61,3.36A2,2,0,0,0,372.27,72.65Z"/><path class="cls-11" d="M349,87.35a2.11,2.11,0,0,1-1.74-.81,5.12,5.12,0,0,1,0-4.92,2.13,2.13,0,0,1,1.74-.8,2.08,2.08,0,0,1,1.72.8,5.12,5.12,0,0,1,0,4.92A2.06,2.06,0,0,1,349,87.35Zm0-.87a1,1,0,0,0,.93-.57,5.53,5.53,0,0,0,0-3.65,1,1,0,0,0-.93-.57,1,1,0,0,0-.94.57,5.53,5.53,0,0,0,0,3.65A1,1,0,0,0,349,86.48Zm-.2,5.08L355,80.88h1.16L350,91.56Zm7.14.06a2.08,2.08,0,0,1-1.73-.81,5,5,0,0,1,0-4.92,2.29,2.29,0,0,1,3.46,0,5.12,5.12,0,0,1,0,4.92A2.08,2.08,0,0,1,355.92,91.62Zm0-.87a1,1,0,0,0,.94-.57,4.12,4.12,0,0,0,.31-1.83,4.05,4.05,0,0,0-.31-1.81,1.06,1.06,0,0,0-1.88,0,4.08,4.08,0,0,0-.3,1.81,4.15,4.15,0,0,0,.3,1.83A1,1,0,0,0,355.92,90.75Z"/><path class="cls-11" d="M361.79,91.56h-1.32l5.23-10.14.11.5h-6.06v-1h7.05v.92Z"/><path class="cls-11" d="M372.44,91.67a5.57,5.57,0,0,1-1.92-.35,4.68,4.68,0,0,1-1.59-1l.46-.95a6.15,6.15,0,0,0,1.49.92,4.06,4.06,0,0,0,1.56.31,2.2,2.2,0,0,0,2.4-2.37,2.54,2.54,0,0,0-.29-1.23,2.09,2.09,0,0,0-.8-.84,2.4,2.4,0,0,0-1.22-.3,3.11,3.11,0,0,0-1.38.31,3.15,3.15,0,0,0-1.07.94h-.85V80.88h6.4v1h-5.17v4.32l-.39,0a3,3,0,0,1,1.11-1,3.38,3.38,0,0,1,1.54-.34,3.46,3.46,0,0,1,1.77.43,2.89,2.89,0,0,1,1.16,1.19,3.73,3.73,0,0,1,.4,1.77,3.59,3.59,0,0,1-.44,1.78,3.14,3.14,0,0,1-1.25,1.2A4,4,0,0,1,372.44,91.67Z"/><path class="cls-11" d="M349,105.35a2.11,2.11,0,0,1-1.74-.81,5.12,5.12,0,0,1,0-4.92,2.13,2.13,0,0,1,1.74-.8,2.08,2.08,0,0,1,1.72.8,5.12,5.12,0,0,1,0,4.92A2.06,2.06,0,0,1,349,105.35Zm0-.87a1,1,0,0,0,.93-.57,5.53,5.53,0,0,0,0-3.65,1,1,0,0,0-.93-.57,1,1,0,0,0-.94.57,5.53,5.53,0,0,0,0,3.65A1,1,0,0,0,349,104.48Zm-.2,5.08L355,98.88h1.16L350,109.56Zm7.14.06a2.08,2.08,0,0,1-1.73-.81,5,5,0,0,1,0-4.92,2.29,2.29,0,0,1,3.46,0,5.12,5.12,0,0,1,0,4.92A2.08,2.08,0,0,1,355.92,109.62Zm0-.87a1,1,0,0,0,.94-.57,4.12,4.12,0,0,0,.31-1.83,4.05,4.05,0,0,0-.31-1.81,1.06,1.06,0,0,0-1.88,0,4.08,4.08,0,0,0-.3,1.81,4.15,4.15,0,0,0,.3,1.83A1,1,0,0,0,355.92,108.75Z"/><path class="cls-11" d="M360.69,109.56v-1h6v1Zm2.36-.55V99.6l.7.36-2.89,1.85v-1.19l2.73-1.74h.7V109Z"/><path class="cls-11" d="M372.27,109.68a3.16,3.16,0,0,1-2.78-1.38,9.26,9.26,0,0,1,0-8.15,3.5,3.5,0,0,1,5.58,0,9.15,9.15,0,0,1,0,8.14A3.14,3.14,0,0,1,372.27,109.68Zm0-1a2,2,0,0,0,1.88-1.08,7,7,0,0,0,.61-3.36,6.93,6.93,0,0,0-.61-3.34,2.19,2.19,0,0,0-3.76,0,6.91,6.91,0,0,0-.61,3.33,7,7,0,0,0,.61,3.36A2,2,0,0,0,372.27,108.65Z"/><path class="cls-11" d="M381.27,109.68a3.16,3.16,0,0,1-2.78-1.38,9.26,9.26,0,0,1,0-8.15,3.5,3.5,0,0,1,5.58,0,9.15,9.15,0,0,1,0,8.14A3.14,3.14,0,0,1,381.27,109.68Zm0-1a2,2,0,0,0,1.88-1.08,7,7,0,0,0,.61-3.36,6.93,6.93,0,0,0-.61-3.34,2.19,2.19,0,0,0-3.76,0,6.91,6.91,0,0,0-.61,3.33,7,7,0,0,0,.61,3.36A2,2,0,0,0,381.27,108.65Z"/></g><polygon class="cls-11" points="389.54 55.38 394.52 46.75 384.56 46.75 389.54 55.38"/></g></g></svg>