<svg xmlns="http://www.w3.org/2000/svg" viewBox="0 0 595.28 67.25"><defs><style>.cls-1{fill:#231f20;}.cls-2{fill:none;}</style></defs><g id="Layer_2" data-name="Layer 2"><g id="Layer_1-2" data-name="Layer 1"><rect class="cls-1" x="23.09" y="40.41" width="4.95" height="4.95"/><rect class="cls-1" x="5.77" y="40.41" width="4.95" height="4.95"/><rect class="cls-1" y="34.63" width="4.95" height="4.95"/><rect class="cls-1" y="23.09" width="4.95" height="4.95"/><rect class="cls-1" y="17.32" width="4.95" height="4.95"/><rect class="cls-1" y="40.41" width="4.95" height="4.95"/><rect class="cls-1" y="28.86" width="4.95" height="4.95"/><rect class="cls-1" y="11.55" width="4.95" height="4.95"/><rect class="cls-1" x="17.32" y="40.41" width="4.95" height="4.95"/><rect class="cls-1" x="11.55" y="28.86" width="4.95" height="4.95"/><rect class="cls-1" x="11.55" y="23.09" width="4.95" height="4.95"/><rect class="cls-1" x="11.55" y="17.32" width="4.95" height="4.95"/><rect class="cls-1" x="11.55" y="40.41" width="4.95" height="4.95"/><rect class="cls-1" x="11.55" y="11.54" width="4.95" height="4.95"/><rect class="cls-1" x="75.04" y="28.86" width="4.95" height="4.95"/><rect class="cls-1" x="75.04" y="23.09" width="4.95" height="4.95"/><rect class="cls-1" x="75.04" y="17.32" width="4.95" height="4.95"/><rect class="cls-1" x="75.04" y="34.63" width="4.95" height="4.95"/><rect class="cls-1" x="75.04" y="40.41" width="4.95" height="4.95"/><rect class="cls-1" x="75.04" y="11.54" width="4.95" height="4.95"/><rect class="cls-1" x="69.27" y="40.41" width="4.95" height="4.95"/><rect class="cls-1" x="80.81" y="28.86" width="4.95" height="4.95"/><rect class="cls-1" x="80.81" y="23.09" width="4.95" height="4.95"/><rect class="cls-1" x="80.81" y="17.32" width="4.95" height="4.95"/><rect class="cls-1" x="80.81" y="11.54" width="4.95" height="4.95"/><rect class="cls-1" x="40.4" y="40.41" width="4.95" height="4.95"/><rect class="cls-1" x="34.63" y="40.41" width="4.95" height="4.95"/><rect class="cls-1" x="51.95" y="40.41" width="4.95" height="4.95"/><rect class="cls-1" x="46.18" y="40.41" width="4.95" height="4.95"/><rect class="cls-1" x="57.72" y="40.41" width="4.95" height="4.95"/><rect class="cls-1" x="28.86" y="40.41" width="4.95" height="4.95"/><rect class="cls-1" x="63.49" y="40.41" width="4.95" height="4.95"/><rect class="cls-1" y="5.77" width="4.95" height="4.95"/><rect class="cls-1" x="75.04" y="5.77" width="4.95" height="4.95"/><rect class="cls-1" x="23.09" width="4.95" height="4.95"/><rect class="cls-1" x="5.77" width="4.95" height="4.95"/><rect class="cls-1" width="4.95" height="4.95"/><rect class="cls-1" x="17.32" width="4.95" height="4.95"/><rect class="cls-1" x="11.55" width="4.95" height="4.95"/><rect class="cls-1" x="75.04" width="4.95" height="4.95"/><rect class="cls-1" x="69.27" width="4.95" height="4.95"/><rect class="cls-1" x="40.4" width="4.95" height="4.95"/><rect class="cls-1" x="34.63" width="4.95" height="4.95"/><rect class="cls-1" x="51.95" width="4.95" height="4.95"/><rect class="cls-1" x="46.18" width="4.95" height="4.95"/><rect class="cls-1" x="57.72" width="4.95" height="4.95"/><rect class="cls-1" x="28.86" width="4.95" height="4.95"/><rect class="cls-1" x="63.49" width="4.95" height="4.95"/><rect class="cls-1" x="152.07" y="17.32" width="4.95" height="4.95"/><rect class="cls-1" x="152.07" y="28.86" width="4.95" height="4.95"/><rect class="cls-1" x="152.07" y="23.09" width="4.95" height="4.95"/><rect class="cls-1" x="152.07" y="40.41" width="4.95" height="4.95"/><rect class="cls-1" x="152.07" y="11.54" width="4.95" height="4.95"/><rect class="cls-1" x="134.75" y="40.41" width="4.95" height="4.95"/><rect class="cls-1" x="128.98" y="34.63" width="4.95" height="4.95"/><rect class="cls-1" x="128.98" y="23.09" width="4.95" height="4.95"/><rect class="cls-1" x="128.98" y="17.32" width="4.95" height="4.95"/><rect class="cls-1" x="128.98" y="40.41" width="4.95" height="4.95"/><rect class="cls-1" x="128.98" y="28.86" width="4.95" height="4.95"/><rect class="cls-1" x="128.98" y="11.54" width="4.95" height="4.95"/><rect class="cls-1" x="146.3" y="28.86" width="4.95" height="4.95"/><rect class="cls-1" x="146.3" y="17.32" width="4.95" height="4.95"/><rect class="cls-1" x="146.3" y="23.09" width="4.95" height="4.95"/><rect class="cls-1" x="146.3" y="40.41" width="4.95" height="4.95"/><rect class="cls-1" x="146.3" y="11.54" width="4.95" height="4.95"/><rect class="cls-1" x="140.52" y="28.86" width="4.95" height="4.95"/><rect class="cls-1" x="140.52" y="23.09" width="4.95" height="4.95"/><rect class="cls-1" x="140.52" y="17.32" width="4.95" height="4.95"/><rect class="cls-1" x="140.52" y="40.41" width="4.95" height="4.95"/><rect class="cls-1" x="140.52" y="11.54" width="4.95" height="4.95"/><rect class="cls-1" x="204.02" y="28.86" width="4.95" height="4.95"/><rect class="cls-1" x="204.02" y="23.09" width="4.95" height="4.95"/><rect class="cls-1" x="204.02" y="17.32" width="4.95" height="4.95"/><rect class="cls-1" x="204.02" y="34.63" width="4.95" height="4.95"/><rect class="cls-1" x="204.02" y="40.41" width="4.95" height="4.95"/><rect class="cls-1" x="204.02" y="11.54" width="4.95" height="4.95"/><rect class="cls-1" x="198.24" y="40.41" width="4.95" height="4.95"/><rect class="cls-1" x="209.79" y="28.86" width="4.95" height="4.95"/><rect class="cls-1" x="209.79" y="23.09" width="4.95" height="4.95"/><rect class="cls-1" x="209.79" y="17.32" width="4.95" height="4.95"/><rect class="cls-1" x="209.79" y="11.54" width="4.95" height="4.95"/><rect class="cls-1" x="169.39" y="40.41" width="4.95" height="4.95"/><rect class="cls-1" x="163.61" y="40.41" width="4.95" height="4.95"/><rect class="cls-1" x="180.93" y="40.41" width="4.95" height="4.95"/><rect class="cls-1" x="175.16" y="40.41" width="4.95" height="4.95"/><rect class="cls-1" x="186.7" y="40.41" width="4.95" height="4.95"/><rect class="cls-1" x="157.84" y="17.32" width="4.95" height="4.95"/><rect class="cls-1" x="157.84" y="28.86" width="4.95" height="4.95"/><rect class="cls-1" x="157.84" y="23.09" width="4.95" height="4.95"/><rect class="cls-1" x="157.84" y="40.41" width="4.95" height="4.95"/><rect class="cls-1" x="157.84" y="11.54" width="4.95" height="4.95"/><rect class="cls-1" x="192.47" y="40.41" width="4.95" height="4.95"/><rect class="cls-1" x="128.98" y="5.77" width="4.95" height="4.95"/><rect class="cls-1" x="204.02" y="5.77" width="4.95" height="4.95"/><rect class="cls-1" x="152.07" width="4.95" height="4.95"/><rect class="cls-1" x="134.75" width="4.95" height="4.95"/><rect class="cls-1" x="128.98" width="4.95" height="4.95"/><rect class="cls-1" x="146.3" width="4.95" height="4.95"/><rect class="cls-1" x="140.52" width="4.95" height="4.95"/><rect class="cls-1" x="204.02" width="4.95" height="4.95"/><rect class="cls-1" x="198.25" width="4.95" height="4.95"/><rect class="cls-1" x="169.38" width="4.95" height="4.95"/><rect class="cls-1" x="163.61" width="4.95" height="4.95"/><rect class="cls-1" x="180.93" width="4.95" height="4.95"/><rect class="cls-1" x="175.16" width="4.95" height="4.95"/><rect class="cls-1" x="186.7" width="4.95" height="4.95"/><rect class="cls-1" x="157.84" width="4.95" height="4.95"/><rect class="cls-1" x="192.47" width="4.95" height="4.95"/><rect class="cls-1" x="410.02" y="17.32" width="4.95" height="4.95"/><rect class="cls-1" x="410.02" y="28.86" width="4.95" height="4.95"/><rect class="cls-1" x="410.02" y="23.09" width="4.95" height="4.95"/><rect class="cls-1" x="410.02" y="40.4" width="4.95" height="4.95"/><rect class="cls-1" x="410.02" y="11.55" width="4.95" height="4.95"/><rect class="cls-1" x="392.71" y="40.4" width="4.95" height="4.95"/><rect class="cls-1" x="386.94" y="34.63" width="4.95" height="4.95"/><rect class="cls-1" x="386.94" y="23.09" width="4.95" height="4.95"/><rect class="cls-1" x="386.94" y="17.32" width="4.95" height="4.95"/><rect class="cls-1" x="386.94" y="40.4" width="4.95" height="4.95"/><rect class="cls-1" x="386.94" y="28.86" width="4.95" height="4.95"/><rect class="cls-1" x="386.94" y="11.55" width="4.95" height="4.95"/><rect class="cls-1" x="404.25" y="28.86" width="4.95" height="4.95"/><rect class="cls-1" x="404.25" y="17.32" width="4.95" height="4.95"/><rect class="cls-1" x="404.25" y="23.09" width="4.95" height="4.95"/><rect class="cls-1" x="404.25" y="40.4" width="4.95" height="4.95"/><rect class="cls-1" x="404.25" y="11.55" width="4.95" height="4.95"/><rect class="cls-1" x="398.48" y="28.86" width="4.95" height="4.95"/><rect class="cls-1" x="398.48" y="23.09" width="4.95" height="4.95"/><rect class="cls-1" x="398.48" y="17.32" width="4.95" height="4.95"/><rect class="cls-1" x="398.48" y="40.4" width="4.95" height="4.95"/><rect class="cls-1" x="398.48" y="11.55" width="4.95" height="4.95"/><rect class="cls-1" x="461.97" y="28.86" width="4.95" height="4.95"/><rect class="cls-1" x="461.97" y="23.09" width="4.95" height="4.95"/><rect class="cls-1" x="461.97" y="17.32" width="4.95" height="4.95"/><rect class="cls-1" x="461.97" y="34.63" width="4.95" height="4.95"/><rect class="cls-1" x="461.97" y="40.4" width="4.95" height="4.95"/><rect class="cls-1" x="461.97" y="11.55" width="4.95" height="4.95"/><rect class="cls-1" x="456.2" y="40.4" width="4.95" height="4.95"/><rect class="cls-1" x="467.74" y="28.86" width="4.95" height="4.95"/><rect class="cls-1" x="467.74" y="23.09" width="4.95" height="4.95"/><rect class="cls-1" x="467.74" y="17.32" width="4.95" height="4.95"/><rect class="cls-1" x="467.74" y="11.55" width="4.95" height="4.95"/><rect class="cls-1" x="427.34" y="23.09" width="4.95" height="4.95"/><rect class="cls-1" x="427.34" y="17.32" width="4.95" height="4.95"/><rect class="cls-1" x="427.34" y="28.86" width="4.95" height="4.95"/><rect class="cls-1" x="427.34" y="11.55" width="4.95" height="4.95"/><rect class="cls-1" x="427.34" y="40.4" width="4.95" height="4.95"/><rect class="cls-1" x="421.57" y="28.86" width="4.95" height="4.95"/><rect class="cls-1" x="421.57" y="17.32" width="4.95" height="4.95"/><rect class="cls-1" x="421.57" y="23.09" width="4.95" height="4.95"/><rect class="cls-1" x="421.57" y="40.4" width="4.95" height="4.95"/><rect class="cls-1" x="421.57" y="11.55" width="4.95" height="4.95"/><rect class="cls-1" x="438.89" y="28.86" width="4.95" height="4.95"/><rect class="cls-1" x="438.89" y="17.32" width="4.95" height="4.95"/><rect class="cls-1" x="438.89" y="23.09" width="4.95" height="4.95"/><rect class="cls-1" x="438.89" y="40.4" width="4.95" height="4.95"/><rect class="cls-1" x="438.89" y="11.55" width="4.95" height="4.95"/><rect class="cls-1" x="433.11" y="17.32" width="4.95" height="4.95"/><rect class="cls-1" x="433.11" y="23.09" width="4.95" height="4.95"/><rect class="cls-1" x="433.11" y="28.86" width="4.95" height="4.95"/><rect class="cls-1" x="433.11" y="40.4" width="4.95" height="4.95"/><rect class="cls-1" x="433.11" y="11.55" width="4.95" height="4.95"/><rect class="cls-1" x="444.66" y="17.32" width="4.95" height="4.95"/><rect class="cls-1" x="444.66" y="23.09" width="4.95" height="4.95"/><rect class="cls-1" x="444.66" y="28.86" width="4.95" height="4.95"/><rect class="cls-1" x="444.66" y="40.4" width="4.95" height="4.95"/><rect class="cls-1" x="444.66" y="11.55" width="4.95" height="4.95"/><rect class="cls-1" x="415.8" y="17.32" width="4.95" height="4.95"/><rect class="cls-1" x="415.8" y="28.86" width="4.95" height="4.95"/><rect class="cls-1" x="415.8" y="23.09" width="4.95" height="4.95"/><rect class="cls-1" x="415.8" y="40.4" width="4.95" height="4.95"/><rect class="cls-1" x="415.8" y="11.55" width="4.95" height="4.95"/><rect class="cls-1" x="450.43" y="17.32" width="4.95" height="4.95"/><rect class="cls-1" x="450.43" y="28.86" width="4.95" height="4.95"/><rect class="cls-1" x="450.43" y="23.09" width="4.95" height="4.95"/><rect class="cls-1" x="450.43" y="40.4" width="4.95" height="4.95"/><rect class="cls-1" x="386.94" y="5.77" width="4.95" height="4.95"/><rect class="cls-1" x="461.97" y="5.77" width="4.95" height="4.95"/><rect class="cls-1" x="450.43" y="11.55" width="4.95" height="4.95"/><rect class="cls-1" x="410.02" width="4.95" height="4.95"/><rect class="cls-1" x="392.71" width="4.95" height="4.95"/><rect class="cls-1" x="386.94" width="4.95" height="4.95"/><rect class="cls-1" x="404.25" width="4.95" height="4.95"/><rect class="cls-1" x="398.48" width="4.95" height="4.95"/><rect class="cls-1" x="461.97" width="4.95" height="4.95"/><rect class="cls-1" x="456.2" width="4.95" height="4.95"/><rect class="cls-1" x="427.34" width="4.95" height="4.95"/><rect class="cls-1" x="421.57" width="4.95" height="4.95"/><rect class="cls-1" x="438.89" width="4.95" height="4.95"/><rect class="cls-1" x="433.11" width="4.95" height="4.95"/><rect class="cls-1" x="444.66" width="4.95" height="4.95"/><rect class="cls-1" x="415.8" width="4.95" height="4.95"/><rect class="cls-1" x="450.43" width="4.95" height="4.95"/><rect class="cls-1" x="281.05" y="17.32" width="4.95" height="4.95"/><rect class="cls-1" x="281.05" y="28.86" width="4.95" height="4.95"/><rect class="cls-1" x="281.05" y="23.09" width="4.95" height="4.95"/><rect class="cls-1" x="281.05" y="40.41" width="4.95" height="4.95"/><rect class="cls-1" x="281.05" y="11.55" width="4.95" height="4.95"/><rect class="cls-1" x="263.73" y="40.41" width="4.95" height="4.95"/><rect class="cls-1" x="257.96" y="34.63" width="4.95" height="4.95"/><rect class="cls-1" x="257.96" y="23.09" width="4.95" height="4.95"/><rect class="cls-1" x="257.96" y="17.32" width="4.95" height="4.95"/><rect class="cls-1" x="257.96" y="40.41" width="4.95" height="4.95"/><rect class="cls-1" x="257.96" y="28.86" width="4.95" height="4.95"/><rect class="cls-1" x="257.96" y="11.55" width="4.95" height="4.95"/><rect class="cls-1" x="275.27" y="28.86" width="4.95" height="4.95"/><rect class="cls-1" x="275.27" y="17.32" width="4.95" height="4.95"/><rect class="cls-1" x="275.27" y="23.09" width="4.95" height="4.95"/><rect class="cls-1" x="275.27" y="40.41" width="4.95" height="4.95"/><rect class="cls-1" x="275.27" y="11.55" width="4.95" height="4.95"/><rect class="cls-1" x="269.5" y="28.86" width="4.95" height="4.95"/><rect class="cls-1" x="269.5" y="23.09" width="4.95" height="4.95"/><rect class="cls-1" x="269.5" y="17.32" width="4.95" height="4.95"/><rect class="cls-1" x="269.5" y="40.41" width="4.95" height="4.95"/><rect class="cls-1" x="269.5" y="11.55" width="4.95" height="4.95"/><rect class="cls-1" x="332.99" y="28.86" width="4.95" height="4.95"/><rect class="cls-1" x="332.99" y="23.09" width="4.95" height="4.95"/><rect class="cls-1" x="332.99" y="17.32" width="4.95" height="4.95"/><rect class="cls-1" x="332.99" y="34.63" width="4.95" height="4.95"/><rect class="cls-1" x="332.99" y="40.41" width="4.95" height="4.95"/><rect class="cls-1" x="332.99" y="11.55" width="4.95" height="4.95"/><rect class="cls-1" x="327.22" y="40.41" width="4.95" height="4.95"/><rect class="cls-1" x="338.77" y="28.86" width="4.95" height="4.95"/><rect class="cls-1" x="338.77" y="23.09" width="4.95" height="4.95"/><rect class="cls-1" x="338.77" y="17.32" width="4.95" height="4.95"/><rect class="cls-1" x="338.77" y="11.55" width="4.95" height="4.95"/><rect class="cls-1" x="298.36" y="23.09" width="4.95" height="4.95"/><rect class="cls-1" x="298.36" y="17.32" width="4.95" height="4.95"/><rect class="cls-1" x="298.36" y="28.86" width="4.95" height="4.95"/><rect class="cls-1" x="298.36" y="11.55" width="4.95" height="4.95"/><rect class="cls-1" x="298.36" y="40.41" width="4.95" height="4.95"/><rect class="cls-1" x="292.59" y="28.86" width="4.95" height="4.95"/><rect class="cls-1" x="292.59" y="17.32" width="4.95" height="4.95"/><rect class="cls-1" x="292.59" y="23.09" width="4.95" height="4.95"/><rect class="cls-1" x="292.59" y="40.41" width="4.95" height="4.95"/><rect class="cls-1" x="292.59" y="11.55" width="4.95" height="4.95"/><rect class="cls-1" x="309.91" y="40.41" width="4.95" height="4.95"/><rect class="cls-1" x="304.13" y="17.32" width="4.95" height="4.95"/><rect class="cls-1" x="304.13" y="23.09" width="4.95" height="4.95"/><rect class="cls-1" x="304.13" y="28.86" width="4.95" height="4.95"/><rect class="cls-1" x="304.13" y="40.41" width="4.95" height="4.95"/><rect class="cls-1" x="304.13" y="11.55" width="4.95" height="4.95"/><rect class="cls-1" x="315.68" y="40.41" width="4.95" height="4.95"/><rect class="cls-1" x="286.82" y="17.32" width="4.95" height="4.95"/><rect class="cls-1" x="286.82" y="28.86" width="4.95" height="4.95"/><rect class="cls-1" x="286.82" y="23.09" width="4.95" height="4.95"/><rect class="cls-1" x="286.82" y="40.41" width="4.95" height="4.95"/><rect class="cls-1" x="286.82" y="11.55" width="4.95" height="4.95"/><rect class="cls-1" x="321.45" y="40.41" width="4.95" height="4.95"/><rect class="cls-1" x="257.96" y="5.77" width="4.95" height="4.95"/><rect class="cls-1" x="332.99" y="5.77" width="4.95" height="4.95"/><rect class="cls-1" x="281.05" width="4.95" height="4.95"/><rect class="cls-1" x="263.73" width="4.95" height="4.95"/><rect class="cls-1" x="257.96" width="4.95" height="4.95"/><rect class="cls-1" x="275.27" width="4.95" height="4.95"/><rect class="cls-1" x="269.5" width="4.95" height="4.95"/><rect class="cls-1" x="332.99" width="4.95" height="4.95"/><rect class="cls-1" x="327.22" width="4.95" height="4.95"/><rect class="cls-1" x="298.36" width="4.95" height="4.95"/><rect class="cls-1" x="292.59" width="4.95" height="4.95"/><rect class="cls-1" x="309.91" width="4.95" height="4.95"/><rect class="cls-1" x="304.13" width="4.95" height="4.95"/><rect class="cls-1" x="315.68" width="4.95" height="4.95"/><rect class="cls-1" x="286.82" width="4.95" height="4.95"/><rect class="cls-1" x="321.45" width="4.95" height="4.95"/><path class="cls-1" d="M160.35,63.21a2,2,0,0,1-1.62-.76,3.72,3.72,0,0,1-.59-2.3,3.67,3.67,0,0,1,.59-2.29,2,2,0,0,1,1.62-.74,1.93,1.93,0,0,1,1.61.74,3.67,3.67,0,0,1,.59,2.29,3.72,3.72,0,0,1-.59,2.3A1.94,1.94,0,0,1,160.35,63.21Zm0-.82a.92.92,0,0,0,.87-.53,3.65,3.65,0,0,0,.29-1.71,3.61,3.61,0,0,0-.29-1.69.93.93,0,0,0-.87-.53,1,1,0,0,0-.88.53,3.76,3.76,0,0,0-.28,1.69,3.8,3.8,0,0,0,.28,1.71A.94.94,0,0,0,160.35,62.39Zm-.18,4.75,5.77-10H167l-5.75,10Zm6.66.06a2,2,0,0,1-1.62-.76,3.72,3.72,0,0,1-.59-2.3,3.67,3.67,0,0,1,.59-2.29,2,2,0,0,1,1.62-.74,1.93,1.93,0,0,1,1.61.74,3.67,3.67,0,0,1,.59,2.29,3.72,3.72,0,0,1-.59,2.3A1.94,1.94,0,0,1,166.83,67.2Zm0-.82a.94.94,0,0,0,.88-.53,3.8,3.8,0,0,0,.28-1.71,3.76,3.76,0,0,0-.28-1.69,1,1,0,0,0-.88-.53.93.93,0,0,0-.87.53,3.61,3.61,0,0,0-.29,1.69,3.65,3.65,0,0,0,.29,1.71A.92.92,0,0,0,166.83,66.38Z"/><path class="cls-1" d="M173.84,67.24a5.1,5.1,0,0,1-1.79-.33,4.29,4.29,0,0,1-1.48-.9l.43-.89a5.52,5.52,0,0,0,1.4.86,3.82,3.82,0,0,0,1.44.29,2.27,2.27,0,0,0,1.65-.59,2.18,2.18,0,0,0,.59-1.62,2.42,2.42,0,0,0-.26-1.16,1.92,1.92,0,0,0-.75-.77,2.19,2.19,0,0,0-1.14-.28,2.68,2.68,0,0,0-1.28.29,2.83,2.83,0,0,0-1,.87h-.8V57.17h6v.95H172v4l-.37,0a2.8,2.8,0,0,1,1.05-.91,3.17,3.17,0,0,1,1.43-.32,3.2,3.2,0,0,1,1.65.4,2.75,2.75,0,0,1,1.08,1.11,3.53,3.53,0,0,1,.38,1.66,3.31,3.31,0,0,1-.41,1.65,2.89,2.89,0,0,1-1.17,1.13A3.77,3.77,0,0,1,173.84,67.24Z"/><path class="cls-1" d="M182.09,67.25a3,3,0,0,1-2.6-1.29,6.75,6.75,0,0,1-.89-3.8,6.73,6.73,0,0,1,.89-3.8,3.25,3.25,0,0,1,5.2,0,6.68,6.68,0,0,1,.89,3.78,6.79,6.79,0,0,1-.89,3.81A2.94,2.94,0,0,1,182.09,67.25Zm0-1a1.9,1.9,0,0,0,1.76-1,6.62,6.62,0,0,0,.57-3.14,6.43,6.43,0,0,0-.57-3.11,2.06,2.06,0,0,0-3.52,0,6.65,6.65,0,0,0-.56,3.11,6.76,6.76,0,0,0,.56,3.14A1.9,1.9,0,0,0,182.09,66.29Z"/><path class="cls-1" d="M289.31,63.21a2,2,0,0,1-1.62-.76,3.66,3.66,0,0,1-.6-2.3,3.6,3.6,0,0,1,.6-2.29,2.13,2.13,0,0,1,3.23,0,3.67,3.67,0,0,1,.58,2.29,3.73,3.73,0,0,1-.58,2.3A2,2,0,0,1,289.31,63.21Zm0-.82a.92.92,0,0,0,.87-.53,3.78,3.78,0,0,0,.29-1.71,3.74,3.74,0,0,0-.29-1.69,1,1,0,0,0-1.75,0,3.74,3.74,0,0,0-.29,1.69,3.78,3.78,0,0,0,.29,1.71A.92.92,0,0,0,289.31,62.39Zm-.19,4.75,5.77-10H296l-5.75,10Zm6.67.06a2,2,0,0,1-1.62-.76,3.66,3.66,0,0,1-.59-2.3,3.61,3.61,0,0,1,.59-2.29,2,2,0,0,1,1.62-.74,1.93,1.93,0,0,1,1.61.74,3.67,3.67,0,0,1,.59,2.29,3.72,3.72,0,0,1-.59,2.3A1.94,1.94,0,0,1,295.79,67.2Zm0-.82a.92.92,0,0,0,.87-.53,3.78,3.78,0,0,0,.29-1.71,3.74,3.74,0,0,0-.29-1.69.93.93,0,0,0-.87-.53,1,1,0,0,0-.88.53,3.76,3.76,0,0,0-.28,1.69,3.8,3.8,0,0,0,.28,1.71A.93.93,0,0,0,295.79,66.38Z"/><path class="cls-1" d="M301.26,67.14H300l4.89-9.46.09.46h-5.65v-1h6.58V58Z"/><path class="cls-1" d="M311.2,67.24a5.1,5.1,0,0,1-1.79-.33,4.29,4.29,0,0,1-1.48-.9l.43-.89a5.65,5.65,0,0,0,1.39.86,3.87,3.87,0,0,0,1.45.29,2.27,2.27,0,0,0,1.65-.59,2.22,2.22,0,0,0,.59-1.62,2.54,2.54,0,0,0-.26-1.16,1.92,1.92,0,0,0-.75-.77,2.19,2.19,0,0,0-1.14-.28,2.66,2.66,0,0,0-1.28.29,2.85,2.85,0,0,0-1,.87h-.79V57.17h6v.95h-4.83v4l-.36,0a2.85,2.85,0,0,1,1-.91,3.51,3.51,0,0,1,3.09.08,2.75,2.75,0,0,1,1.08,1.11,3.53,3.53,0,0,1,.38,1.66,3.21,3.21,0,0,1-.42,1.65A2.81,2.81,0,0,1,313,66.83,3.8,3.8,0,0,1,311.2,67.24Z"/><path class="cls-1" d="M414.11,63.21a2,2,0,0,1-1.62-.76,3.66,3.66,0,0,1-.6-2.3,3.6,3.6,0,0,1,.6-2.29,2.13,2.13,0,0,1,3.23,0,3.67,3.67,0,0,1,.58,2.29,3.73,3.73,0,0,1-.58,2.3A2,2,0,0,1,414.11,63.21Zm0-.82a.92.92,0,0,0,.87-.53,3.78,3.78,0,0,0,.29-1.71,3.74,3.74,0,0,0-.29-1.69,1,1,0,0,0-1.75,0,3.74,3.74,0,0,0-.29,1.69,3.78,3.78,0,0,0,.29,1.71A.92.92,0,0,0,414.11,62.39Zm-.19,4.75,5.77-10h1.08l-5.75,10Zm6.67.06a2,2,0,0,1-1.62-.76,3.66,3.66,0,0,1-.59-2.3,3.61,3.61,0,0,1,.59-2.29,2,2,0,0,1,1.62-.74,1.93,1.93,0,0,1,1.61.74,3.67,3.67,0,0,1,.59,2.29,3.72,3.72,0,0,1-.59,2.3A1.94,1.94,0,0,1,420.59,67.2Zm0-.82a.92.92,0,0,0,.87-.53,3.78,3.78,0,0,0,.29-1.71,3.74,3.74,0,0,0-.29-1.69.93.93,0,0,0-.87-.53,1,1,0,0,0-.88.53,3.76,3.76,0,0,0-.28,1.69,3.8,3.8,0,0,0,.28,1.71A.93.93,0,0,0,420.59,66.38Z"/><path class="cls-1" d="M425,67.14v-1h5.56v1Zm2.2-.52V57.84l.66.34-2.71,1.72V58.8l2.55-1.63h.66v9.45Z"/><path class="cls-1" d="M435.85,67.25a3,3,0,0,1-2.6-1.29,6.75,6.75,0,0,1-.89-3.8,6.82,6.82,0,0,1,.88-3.8,3.26,3.26,0,0,1,5.21,0,6.68,6.68,0,0,1,.88,3.78,6.79,6.79,0,0,1-.88,3.81A3,3,0,0,1,435.85,67.25Zm0-1a1.9,1.9,0,0,0,1.76-1,6.76,6.76,0,0,0,.56-3.14,6.57,6.57,0,0,0-.56-3.11,2.06,2.06,0,0,0-3.52,0,6.51,6.51,0,0,0-.57,3.11,6.62,6.62,0,0,0,.57,3.14A1.89,1.89,0,0,0,435.85,66.29Z"/><path class="cls-1" d="M444.25,67.25a3,3,0,0,1-2.6-1.29,6.75,6.75,0,0,1-.89-3.8,6.82,6.82,0,0,1,.88-3.8,3.26,3.26,0,0,1,5.21,0,6.68,6.68,0,0,1,.88,3.78,6.71,6.71,0,0,1-.89,3.81A2.92,2.92,0,0,1,444.25,67.25Zm0-1a1.87,1.87,0,0,0,1.75-1,6.62,6.62,0,0,0,.57-3.14A6.43,6.43,0,0,0,446,59a2.05,2.05,0,0,0-3.51,0,6.51,6.51,0,0,0-.57,3.11,6.62,6.62,0,0,0,.57,3.14A1.89,1.89,0,0,0,444.25,66.29Z"/><rect class="cls-2" width="595.28" height="18"/><path class="cls-1" d="M35.55,63.21a1.94,1.94,0,0,1-1.61-.76,3.66,3.66,0,0,1-.6-2.3,3.6,3.6,0,0,1,.6-2.29,2.12,2.12,0,0,1,3.22,0,3.67,3.67,0,0,1,.59,2.29,3.72,3.72,0,0,1-.59,2.3A1.94,1.94,0,0,1,35.55,63.21Zm0-.82a.93.93,0,0,0,.88-.53,3.78,3.78,0,0,0,.29-1.71,3.74,3.74,0,0,0-.29-1.69,1,1,0,0,0-.88-.53.93.93,0,0,0-.87.53,3.74,3.74,0,0,0-.29,1.69,3.78,3.78,0,0,0,.29,1.71A.92.92,0,0,0,35.55,62.39Zm-.18,4.75,5.77-10h1.08l-5.76,10ZM42,67.2a1.94,1.94,0,0,1-1.61-.76,3.66,3.66,0,0,1-.6-2.3,3.6,3.6,0,0,1,.6-2.29,2.12,2.12,0,0,1,3.22,0,3.61,3.61,0,0,1,.59,2.29,3.66,3.66,0,0,1-.59,2.3A1.93,1.93,0,0,1,42,67.2Zm0-.82a.92.92,0,0,0,.88-.53,3.78,3.78,0,0,0,.29-1.71,3.74,3.74,0,0,0-.29-1.69,1,1,0,0,0-1.75,0,3.74,3.74,0,0,0-.29,1.69,3.78,3.78,0,0,0,.29,1.71A.92.92,0,0,0,42,66.38Z"/><path class="cls-1" d="M48.93,67.2a3,3,0,0,1-2.6-1.3,6.73,6.73,0,0,1-.89-3.8,6.73,6.73,0,0,1,.89-3.8,3.25,3.25,0,0,1,5.2,0,6.69,6.69,0,0,1,.89,3.79,6.73,6.73,0,0,1-.89,3.8A3,3,0,0,1,48.93,67.2Zm0-1a1.9,1.9,0,0,0,1.76-1,6.62,6.62,0,0,0,.56-3.13A6.52,6.52,0,0,0,50.69,59a2.05,2.05,0,0,0-3.52,0,6.62,6.62,0,0,0-.56,3.11,6.75,6.75,0,0,0,.56,3.13A1.9,1.9,0,0,0,48.93,66.23Z"/></g></g></svg>