<svg xmlns="http://www.w3.org/2000/svg" viewBox="0 0 595.28 41"><defs><style>.cls-1{fill:none;}.cls-2{fill:#474484;}.cls-3{fill:#5a55a5;}.cls-4{fill:#8b87be;}.cls-5{fill:#3d4986;}.cls-6{fill:#4c5ba6;}.cls-7{fill:#818dc1;}.cls-8{opacity:0.6;}.cls-9{fill:#fff;}.cls-10{isolation:isolate;}.cls-11{fill:#010101;}</style></defs><g id="Layer_2" data-name="Layer 2"><g id="Layer_1-2" data-name="Layer 1"><rect class="cls-1" width="595.28" height="18"/><path class="cls-2" d="M1,9A8,8,0,0,1,9,1h7l6,4h3l6-4H292.27V37H30.5l-6,4h-3l-6-4H9a8,8,0,0,1-8-8ZM207.77,6h-39.6v5c0,10-8-8-8,7.5s8-2.5,8,7.5v7h39.6Zm74.5,0h-39.6v5c0,10-8-8-8,7.5s8-2.5,8,7.5v7h39.6Z"/><path class="cls-3" d="M0,8A8,8,0,0,1,8,0h7l6,4h3l6-4H291.27V36H29.5l-6,4h-3l-6-4H8a8,8,0,0,1-8-8ZM206.77,5h-39.6v5c0,10-8-8-8,7.5s8-2.5,8,7.5v7h39.6Zm74.5,0h-39.6v5c0,10-8-8-8,7.5s8-2.5,8,7.5v7h39.6Z"/><path class="cls-4" d="M2.34,33.66A8,8,0,0,1,0,28V8H1V28a7,7,0,0,0,2.05,5ZM282.27,33h-40.1V32h39.1V5.5h1Zm-74.5,0h-40.1V32h39.1V5.5h1Zm29-8.27-.49-.86,3.68-2.1.49.86Zm-74.5,0-.49-.86,3.68-2.1.49.86ZM1,7.53,0,7.47A8,8,0,0,1,8,0h7.17l6,4h2.7l6-4H290.77V1H30.15l-6,4h-3.3l-6-4H8A7,7,0,0,0,1,7.53Z"/><path class="cls-5" d="M169.17,7h37.6V32h-37.6V27c0-10-8,8-8-7.5s8,2.5,8-7.5Z"/><path class="cls-6" d="M168.17,6h37.6V31h-37.6V26c0-10-8,8-8-7.5s8,2.5,8-7.5Z"/><path class="cls-7" d="M169.17,30.5h-1v-6h1Zm-8.35-6.37a20.9,20.9,0,0,1,0-11.26l1,.26a19.79,19.79,0,0,0,0,10.74ZM169.17,14h-1V6h37.1V7h-36.1Z"/><g class="cls-8"><rect class="cls-9" x="173.17" y="11" width="27.6" height="16" rx="4"/></g><g class="cls-10"><path class="cls-11" d="M182.56,23.61a5.83,5.83,0,0,1-2-.35,4.56,4.56,0,0,1-1.61-1l.48-.95a5.29,5.29,0,0,0,1.49.92,4.15,4.15,0,0,0,1.6.31,2.57,2.57,0,0,0,1.73-.51,1.86,1.86,0,0,0,.6-1.5,1.79,1.79,0,0,0-.62-1.48,3,3,0,0,0-1.84-.49h-1.23v-1h1A2.81,2.81,0,0,0,184,17a1.84,1.84,0,0,0,.63-1.5,1.7,1.7,0,0,0-.52-1.34,2.1,2.1,0,0,0-1.46-.46,4.1,4.1,0,0,0-1.54.3,5.85,5.85,0,0,0-1.49.92l-.46-.94a4.68,4.68,0,0,1,1.59-1,5.65,5.65,0,0,1,1.95-.35,3.85,3.85,0,0,1,1.68.34,2.5,2.5,0,0,1,1.1,1,2.74,2.74,0,0,1,.38,1.46,2.69,2.69,0,0,1-.52,1.68,2.47,2.47,0,0,1-1.41.95l-.05-.15a2.8,2.8,0,0,1,1.65.92,2.68,2.68,0,0,1,.57,1.76,2.7,2.7,0,0,1-.94,2.19A3.82,3.82,0,0,1,182.56,23.61Z"/><path class="cls-11" d="M192,23.62a3.57,3.57,0,0,1-3-1.34A6.15,6.15,0,0,1,188,18.43a8.9,8.9,0,0,1,.48-3.1,4.26,4.26,0,0,1,1.41-1.95,3.62,3.62,0,0,1,2.22-.68,4.84,4.84,0,0,1,1.8.34,4.54,4.54,0,0,1,1.54,1L195,15a5.76,5.76,0,0,0-1.45-.93,3.51,3.51,0,0,0-1.4-.29A2.4,2.4,0,0,0,190,15a6.51,6.51,0,0,0-.76,3.46v1.29L189,19.3a2.88,2.88,0,0,1,.55-1.33,3,3,0,0,1,1.09-.87,3.42,3.42,0,0,1,1.45-.31,3.51,3.51,0,0,1,1.74.43,3.07,3.07,0,0,1,1.17,1.2,3.58,3.58,0,0,1,.42,1.76A3.51,3.51,0,0,1,195,22a3.29,3.29,0,0,1-1.21,1.22A3.59,3.59,0,0,1,192,23.62Zm-.06-1a2.17,2.17,0,0,0,1.65-.65,2.37,2.37,0,0,0,.63-1.73,2.38,2.38,0,0,0-.63-1.72,2.21,2.21,0,0,0-1.66-.65,2.39,2.39,0,0,0-1.23.31,2.12,2.12,0,0,0-.84.84,2.42,2.42,0,0,0-.3,1.22,2.49,2.49,0,0,0,.3,1.25,2.19,2.19,0,0,0,.84.84A2.5,2.5,0,0,0,192,22.58Z"/></g><path class="cls-5" d="M243.67,7h37.6V32h-37.6V27c0-10-8,8-8-7.5s8,2.5,8-7.5Z"/><path class="cls-6" d="M242.67,6h37.6V31h-37.6V26c0-10-8,8-8-7.5s8,2.5,8-7.5Z"/><path class="cls-7" d="M243.67,30.5h-1v-6h1Zm-8.35-6.37a20.9,20.9,0,0,1,0-11.26l1,.26a19.79,19.79,0,0,0,0,10.74ZM243.67,14h-1V6h37.1V7h-36.1Z"/><g class="cls-8"><rect class="cls-9" x="247.67" y="11" width="27.6" height="16" rx="4"/></g><g class="cls-10"><path class="cls-11" d="M257.33,23.61a5.35,5.35,0,0,1-1.92-.36,4.51,4.51,0,0,1-1.59-1l.47-.95a5.91,5.91,0,0,0,1.49.91,4,4,0,0,0,1.55.32,2.35,2.35,0,0,0,1.76-.64,2.31,2.31,0,0,0,.64-1.73,2.61,2.61,0,0,0-.28-1.24,2.09,2.09,0,0,0-.81-.83,2.37,2.37,0,0,0-1.22-.3,2.91,2.91,0,0,0-1.37.31,3,3,0,0,0-1.07.94h-.86V12.82h6.41v1h-5.18v4.32l-.39,0a2.94,2.94,0,0,1,1.12-1,3.36,3.36,0,0,1,1.54-.35,3.57,3.57,0,0,1,1.77.43,3,3,0,0,1,1.15,1.2,3.69,3.69,0,0,1,.41,1.76A3.44,3.44,0,0,1,260.5,22a3,3,0,0,1-1.25,1.21A4,4,0,0,1,257.33,23.61Z"/><path class="cls-11" d="M266.51,23.62a3.57,3.57,0,0,1-3-1.34,6.15,6.15,0,0,1-1-3.85,8.9,8.9,0,0,1,.48-3.1,4.26,4.26,0,0,1,1.41-1.95,3.62,3.62,0,0,1,2.22-.68,4.84,4.84,0,0,1,1.8.34,4.54,4.54,0,0,1,1.54,1l-.46.94A5.76,5.76,0,0,0,268,14a3.51,3.51,0,0,0-1.4-.29A2.4,2.4,0,0,0,264.47,15a6.51,6.51,0,0,0-.76,3.46v1.29l-.18-.41a2.88,2.88,0,0,1,.55-1.33,3,3,0,0,1,1.09-.87,3.42,3.42,0,0,1,1.45-.31,3.51,3.51,0,0,1,1.74.43,3.07,3.07,0,0,1,1.17,1.2,3.58,3.58,0,0,1,.42,1.76A3.51,3.51,0,0,1,269.5,22a3.29,3.29,0,0,1-1.21,1.22A3.59,3.59,0,0,1,266.51,23.62Zm-.06-1a2.17,2.17,0,0,0,1.65-.65,2.37,2.37,0,0,0,.63-1.73,2.38,2.38,0,0,0-.63-1.72,2.21,2.21,0,0,0-1.66-.65,2.39,2.39,0,0,0-1.23.31,2.12,2.12,0,0,0-.84.84,2.42,2.42,0,0,0-.3,1.22,2.49,2.49,0,0,0,.3,1.25,2.19,2.19,0,0,0,.84.84A2.5,2.5,0,0,0,266.45,22.58Z"/></g><g class="cls-10"><path class="cls-9" d="M17.82,22.5h-1.2v-2l.18.17a2.51,2.51,0,0,1-1,1.45,2.9,2.9,0,0,1-1.75.52,3.17,3.17,0,0,1-1.75-.49,3.26,3.26,0,0,1-1.18-1.38,4.86,4.86,0,0,1-.42-2.08,4.81,4.81,0,0,1,.41-2.05,3.06,3.06,0,0,1,2.94-1.83,3,3,0,0,1,1.75.51,2.58,2.58,0,0,1,1,1.45l-.2.15V11.46h1.22Zm-3.51-.9a2.06,2.06,0,0,0,1.7-.76,3.38,3.38,0,0,0,.61-2.15,3.38,3.38,0,0,0-.6-2.14,2.08,2.08,0,0,0-1.71-.76,2.15,2.15,0,0,0-1.74.75A3.27,3.27,0,0,0,12,18.66a3.42,3.42,0,0,0,.62,2.17A2.13,2.13,0,0,0,14.31,21.6Z"/><path class="cls-9" d="M20.17,22.5V17.07c0-.35,0-.7,0-1.06s0-.71-.1-1.05h1.16l.16,1.86-.16-.05a2.31,2.31,0,0,1,.9-1.49,2.6,2.6,0,0,1,1.57-.5,2.23,2.23,0,0,1,.37,0,1.14,1.14,0,0,1,.32.07l0,1.1a2.69,2.69,0,0,0-.79-.11,2.11,2.11,0,0,0-1.26.34,2.06,2.06,0,0,0-.69.88,3,3,0,0,0-.22,1.12v4.3Z"/><path class="cls-9" d="M28.35,22.61a3.26,3.26,0,0,1-1.77-.48,3.11,3.11,0,0,1-1.17-1.35A4.85,4.85,0,0,1,25,18.72a4.78,4.78,0,0,1,.42-2.07,3.26,3.26,0,0,1,1.18-1.38,3.12,3.12,0,0,1,1.75-.49,2.94,2.94,0,0,1,1.75.51,2.48,2.48,0,0,1,1,1.45l-.18.12V15h1.2V22.5H30.9V20.55l.18.09a2.51,2.51,0,0,1-1,1.45A2.88,2.88,0,0,1,28.35,22.61Zm.24-1a2,2,0,0,0,1.71-.76,3.38,3.38,0,0,0,.6-2.15,3.38,3.38,0,0,0-.61-2.15,2.07,2.07,0,0,0-1.7-.75,2.11,2.11,0,0,0-1.74.78,3.36,3.36,0,0,0-.62,2.15,3.28,3.28,0,0,0,.62,2.13A2.15,2.15,0,0,0,28.59,21.6Z"/><path class="cls-9" d="M36.48,22.5,33.69,15H35l2.33,6.64H36.9L39.3,15h1.06l2.37,6.64h-.39L44.71,15h1.2L43.12,22.5H42l-2.49-6.79h.66L37.65,22.5Z"/><path class="cls-9" d="M54.57,22.61a3.58,3.58,0,0,1-1.92-.49,3.26,3.26,0,0,1-1.26-1.34A4.57,4.57,0,0,1,51,18.72a4.5,4.5,0,0,1,.45-2.06,3.36,3.36,0,0,1,1.27-1.39,3.75,3.75,0,0,1,2-.49A4.11,4.11,0,0,1,56.1,15a3.22,3.22,0,0,1,1.18.72l-.4.91A5.2,5.2,0,0,0,55.79,16a3,3,0,0,0-1.1-.22,2.26,2.26,0,0,0-1.81.77,3.16,3.16,0,0,0-.67,2.16,3.12,3.12,0,0,0,.66,2.13,2.3,2.3,0,0,0,1.82.75,2.83,2.83,0,0,0,1.09-.22,4.58,4.58,0,0,0,1.1-.65l.4.9a3.34,3.34,0,0,1-1.21.71A4.24,4.24,0,0,1,54.57,22.61Z"/><path class="cls-9" d="M58.82,22.5v-11H60v5l-.2.14a2.56,2.56,0,0,1,1.06-1.38,3,3,0,0,1,1.69-.47c1.81,0,2.71,1,2.71,3V22.5H64.09V17.82a2.34,2.34,0,0,0-.42-1.54,1.67,1.67,0,0,0-1.32-.49,2.24,2.24,0,0,0-1.68.65A2.38,2.38,0,0,0,60,18.18V22.5Z"/><path class="cls-9" d="M70.49,22.61a3.23,3.23,0,0,1-1.76-.48,3.11,3.11,0,0,1-1.17-1.35,4.85,4.85,0,0,1-.41-2.06,4.78,4.78,0,0,1,.42-2.07,3.26,3.26,0,0,1,1.18-1.38,3.08,3.08,0,0,1,1.74-.49,3,3,0,0,1,1.76.51,2.47,2.47,0,0,1,1,1.45l-.17.12V15h1.19V22.5H73.05V20.55l.17.09a2.5,2.5,0,0,1-1,1.45A2.91,2.91,0,0,1,70.49,22.61Zm.24-1a2,2,0,0,0,1.71-.76,3.38,3.38,0,0,0,.61-2.15,3.38,3.38,0,0,0-.61-2.15,2.32,2.32,0,0,0-3.44,0,3.36,3.36,0,0,0-.62,2.15A3.28,3.28,0,0,0,69,20.85,2.13,2.13,0,0,0,70.73,21.6Z"/><path class="cls-9" d="M76.6,22.5V17.07c0-.35,0-.7,0-1.06s0-.71-.1-1.05h1.15l.17,1.86-.17-.05a2.36,2.36,0,0,1,.91-1.49,2.6,2.6,0,0,1,1.57-.5,2.23,2.23,0,0,1,.37,0,1.14,1.14,0,0,1,.32.07l0,1.1a2.71,2.71,0,0,0-.8-.11A1.92,1.92,0,0,0,78,17.08a3,3,0,0,0-.22,1.12v4.3Z"/><path class="cls-9" d="M85.19,25.84a5.6,5.6,0,0,1-3-.77l.21-1a6.25,6.25,0,0,0,1.33.58,5.2,5.2,0,0,0,1.42.18,2.18,2.18,0,0,0,1.65-.58,2.39,2.39,0,0,0,.56-1.72v-2l.17-.19a2.84,2.84,0,0,1-.57,1,2.54,2.54,0,0,1-.93.69,3.18,3.18,0,0,1-1.26.24A3.24,3.24,0,0,1,83,21.8a3.19,3.19,0,0,1-1.18-1.31,4.19,4.19,0,0,1-.43-2,4.24,4.24,0,0,1,.43-2A3.19,3.19,0,0,1,83,15.25a3.23,3.23,0,0,1,1.77-.47,3,3,0,0,1,1.77.51,2.54,2.54,0,0,1,1,1.45l-.19-.16V15H88.6v7.48A3.46,3.46,0,0,1,87.74,25,3.48,3.48,0,0,1,85.19,25.84Zm-.14-4.59a2.13,2.13,0,0,0,1.71-.72,3,3,0,0,0,.62-2,3,3,0,0,0-.62-2,2.13,2.13,0,0,0-1.71-.73,2.21,2.21,0,0,0-1.75.73,2.92,2.92,0,0,0-.64,2,2.94,2.94,0,0,0,.64,2A2.22,2.22,0,0,0,85.05,21.25Z"/><path class="cls-9" d="M97.12,21.6a3.34,3.34,0,0,1-1.27.73,4.74,4.74,0,0,1-1.58.28,4.16,4.16,0,0,1-2-.47A3.17,3.17,0,0,1,91,20.8a4.44,4.44,0,0,1-.46-2.09,4.47,4.47,0,0,1,.45-2.06,3.41,3.41,0,0,1,1.25-1.38,3.47,3.47,0,0,1,1.86-.49,3.19,3.19,0,0,1,1.72.44,2.8,2.8,0,0,1,1.1,1.27,4.59,4.59,0,0,1,.38,2v.23H91.56v-.8h5l-.4.56a3.19,3.19,0,0,0-.51-2,1.94,1.94,0,0,0-1.6-.7,2.11,2.11,0,0,0-1.72.77,3.36,3.36,0,0,0-.62,2.14,3.32,3.32,0,0,0,.65,2.22,2.41,2.41,0,0,0,1.92.75,3.56,3.56,0,0,0,1.26-.22,3.8,3.8,0,0,0,1.16-.67Z"/><path class="cls-9" d="M102.89,11.76h1.49v1.38h-1.49ZM103,22.5V15h1.22V22.5Z"/><path class="cls-9" d="M109.75,22.61a3.61,3.61,0,0,1-1.92-.49,3.18,3.18,0,0,1-1.25-1.34,4.44,4.44,0,0,1-.45-2.06,4.5,4.5,0,0,1,.45-2.06,3.31,3.31,0,0,1,1.28-1.39,3.72,3.72,0,0,1,2-.49,4.16,4.16,0,0,1,1.48.26,3.27,3.27,0,0,1,1.17.72l-.4.91A4.73,4.73,0,0,0,111,16a3,3,0,0,0-1.1-.22,2.29,2.29,0,0,0-1.81.77,3.21,3.21,0,0,0-.67,2.16,3.12,3.12,0,0,0,.66,2.13,2.3,2.3,0,0,0,1.82.75,2.79,2.79,0,0,0,1.09-.22,4.4,4.4,0,0,0,1.1-.65l.4.9a3.38,3.38,0,0,1-1.2.71A4.33,4.33,0,0,1,109.75,22.61Z"/><path class="cls-9" d="M117.13,22.61a3.49,3.49,0,0,1-1.88-.49A3.26,3.26,0,0,1,114,20.77a4.65,4.65,0,0,1-.44-2.08,4.64,4.64,0,0,1,.44-2.07,3.32,3.32,0,0,1,1.25-1.37,4,4,0,0,1,3.76,0,3.32,3.32,0,0,1,1.25,1.37,4.64,4.64,0,0,1,.44,2.07,4.65,4.65,0,0,1-.44,2.08A3.26,3.26,0,0,1,119,22.12,3.49,3.49,0,0,1,117.13,22.61Zm0-1a2.12,2.12,0,0,0,1.72-.74,3.4,3.4,0,0,0,.6-2.17,3.32,3.32,0,0,0-.61-2.15,2.09,2.09,0,0,0-1.71-.75,2.12,2.12,0,0,0-1.72.75,3.32,3.32,0,0,0-.62,2.15,3.34,3.34,0,0,0,.61,2.17A2.11,2.11,0,0,0,117.13,21.6Z"/><path class="cls-9" d="M122.59,22.5V17.07c0-.35,0-.7,0-1.06s0-.71-.1-1.05h1.15l.14,1.55-.15.12a2.59,2.59,0,0,1,1-1.38,3,3,0,0,1,1.69-.47c1.81,0,2.72,1,2.72,3V22.5h-1.22V17.82a2.34,2.34,0,0,0-.42-1.54,1.67,1.67,0,0,0-1.32-.49,2.24,2.24,0,0,0-1.68.65,2.38,2.38,0,0,0-.63,1.74V22.5Z"/></g><g class="cls-10"><path class="cls-9" d="M143.19,22.5h-1.47L145.78,17l.72-.92,3.12-4.29h1.46L147.19,17l-.7.93Zm6.61,0L146.49,18l-.71-.94-3.87-5.21h1.47l3.12,4.29.69.93,4.07,5.46Z"/></g><g class="cls-10"><path class="cls-9" d="M220.7,22.5V17.7l.27.87-4.47-6.75h1.44l3.6,5.58h-.42l3.6-5.58h1.41l-4.46,6.75.26-.87v4.8Z"/></g></g></g></svg>