<svg xmlns="http://www.w3.org/2000/svg" viewBox="0 0 595.28 29"><defs><style>.cls-1{fill:none;}.cls-2{fill:#7a3d86;}.cls-3{fill:#954e9e;}.cls-4{fill:#b682b9;}.cls-5{isolation:isolate;}.cls-6{fill:#fff;}</style></defs><g id="Layer_2" data-name="Layer 2"><g id="Layer_1-2" data-name="Layer 1"><rect class="cls-1" width="595.28" height="18"/><path class="cls-2" d="M1,9A8,8,0,0,1,9,1h7l6,4h3l6-4h82.15V25H30.5l-6,4h-3l-6-4H9a8,8,0,0,1-8-8Z"/><path class="cls-3" d="M0,8A8,8,0,0,1,8,0h7l6,4h3l6-4h82.15V24H29.5l-6,4h-3l-6-4H8a8,8,0,0,1-8-8Z"/><path class="cls-4" d="M2.34,21.66A8,8,0,0,1,0,16V8H1v8A7,7,0,0,0,3.05,21ZM1,7.53,0,7.47A8,8,0,0,1,8,0h7.17l6,4h2.7l6-4h81.8V1H30.15l-6,4h-3.3l-6-4H8A7,7,0,0,0,1,7.53Z"/><g class="cls-5"><path class="cls-6" d="M17.81,17.5h-1.2v-2l.18.17a2.5,2.5,0,0,1-1,1.45,2.91,2.91,0,0,1-1.76.52,3.16,3.16,0,0,1-1.74-.49,3.26,3.26,0,0,1-1.18-1.38,4.86,4.86,0,0,1-.42-2.08,4.81,4.81,0,0,1,.41-2.05,3.06,3.06,0,0,1,2.93-1.83,3,3,0,0,1,1.76.51,2.56,2.56,0,0,1,1,1.45l-.19.15V6.46h1.21Zm-3.51-.9A2.07,2.07,0,0,0,16,15.84a3.38,3.38,0,0,0,.6-2.15,3.38,3.38,0,0,0-.6-2.14,2.07,2.07,0,0,0-1.71-.76,2.13,2.13,0,0,0-1.73.75A3.27,3.27,0,0,0,12,13.66a3.42,3.42,0,0,0,.62,2.17A2.12,2.12,0,0,0,14.3,16.6Z"/><path class="cls-6" d="M23.29,17.61a3.58,3.58,0,0,1-1.88-.48,3.35,3.35,0,0,1-1.25-1.36,4.65,4.65,0,0,1-.44-2.08,4.64,4.64,0,0,1,.44-2.07,3.32,3.32,0,0,1,1.25-1.37,4,4,0,0,1,3.76,0,3.32,3.32,0,0,1,1.25,1.37,4.64,4.64,0,0,1,.44,2.07,4.65,4.65,0,0,1-.44,2.08,3.35,3.35,0,0,1-1.25,1.36A3.58,3.58,0,0,1,23.29,17.61Zm0-1A2.12,2.12,0,0,0,25,15.86a3.4,3.4,0,0,0,.6-2.17A3.32,3.32,0,0,0,25,11.54a2.09,2.09,0,0,0-1.71-.75,2.12,2.12,0,0,0-1.72.75A3.32,3.32,0,0,0,21,13.69a3.34,3.34,0,0,0,.61,2.17A2.11,2.11,0,0,0,23.29,16.6Z"/><path class="cls-6" d="M35.21,17.61a4.4,4.4,0,0,1-3-1l.4-.9a4.23,4.23,0,0,0,1.24.68,4.27,4.27,0,0,0,1.42.22,2.43,2.43,0,0,0,1.3-.29,1,1,0,0,0,.44-.85.89.89,0,0,0-.3-.71,2.3,2.3,0,0,0-1-.43l-1.28-.3A2.82,2.82,0,0,1,33,13.3,1.82,1.82,0,0,1,32.45,12a1.93,1.93,0,0,1,.36-1.16,2.37,2.37,0,0,1,1-.79,3.77,3.77,0,0,1,1.53-.28,4.37,4.37,0,0,1,1.5.25,3.28,3.28,0,0,1,1.18.73l-.4.89a4.17,4.17,0,0,0-1.1-.67,3.38,3.38,0,0,0-1.18-.22,2.12,2.12,0,0,0-1.25.32,1.07,1.07,0,0,0-.17,1.59,1.94,1.94,0,0,0,.89.42l1.28.32a2.92,2.92,0,0,1,1.57.74,1.81,1.81,0,0,1,.5,1.31,1.85,1.85,0,0,1-.8,1.56A3.57,3.57,0,0,1,35.21,17.61Z"/><path class="cls-6" d="M43.22,17.61a3.6,3.6,0,0,1-1.88-.48,3.33,3.33,0,0,1-1.24-1.36,4.52,4.52,0,0,1-.45-2.08,4.51,4.51,0,0,1,.45-2.07,3.3,3.3,0,0,1,1.24-1.37,3.69,3.69,0,0,1,1.88-.47,3.73,3.73,0,0,1,1.89.47,3.3,3.3,0,0,1,1.24,1.37,4.51,4.51,0,0,1,.44,2.07,4.52,4.52,0,0,1-.44,2.08,3.33,3.33,0,0,1-1.24,1.36A3.64,3.64,0,0,1,43.22,17.61Zm0-1a2.11,2.11,0,0,0,1.72-.74,3.34,3.34,0,0,0,.61-2.17,3.32,3.32,0,0,0-.62-2.15,2.32,2.32,0,0,0-3.42,0,3.26,3.26,0,0,0-.63,2.15,3.4,3.4,0,0,0,.61,2.17A2.13,2.13,0,0,0,43.22,16.6Z"/><path class="cls-6" d="M48.68,17.5V12.07c0-.35,0-.7,0-1.06a9.1,9.1,0,0,0-.1-1h1.16l.13,1.55-.15.11a2.61,2.61,0,0,1,.94-1.37,2.7,2.7,0,0,1,1.58-.47,2.51,2.51,0,0,1,1.71.54A2.61,2.61,0,0,1,54.7,12l-.36-.19a2.5,2.5,0,0,1,1-1.45,2.82,2.82,0,0,1,1.74-.54,2.32,2.32,0,0,1,1.88.74,3.38,3.38,0,0,1,.63,2.24V17.5H58.34V12.82A2.55,2.55,0,0,0,58,11.28a1.43,1.43,0,0,0-1.19-.49,1.86,1.86,0,0,0-1.49.65,2.67,2.67,0,0,0-.55,1.76v4.3H53.53V12.82a2.54,2.54,0,0,0-.38-1.54,1.46,1.46,0,0,0-1.2-.49,1.85,1.85,0,0,0-1.5.65,2.61,2.61,0,0,0-.55,1.76v4.3Z"/><path class="cls-6" d="M68.05,16.6a3.34,3.34,0,0,1-1.27.73,4.74,4.74,0,0,1-1.58.28,4.16,4.16,0,0,1-2-.47,3.17,3.17,0,0,1-1.3-1.34,4.44,4.44,0,0,1-.46-2.09,4.47,4.47,0,0,1,.45-2.06,3.41,3.41,0,0,1,1.25-1.38A3.46,3.46,0,0,1,65,9.78a3.2,3.2,0,0,1,1.73.44,2.8,2.8,0,0,1,1.1,1.27,4.59,4.59,0,0,1,.38,2v.23h-5.7v-.8h5l-.39.56a3.19,3.19,0,0,0-.51-2,1.94,1.94,0,0,0-1.6-.7,2.11,2.11,0,0,0-1.72.77,3.36,3.36,0,0,0-.62,2.14,3.32,3.32,0,0,0,.65,2.22,2.4,2.4,0,0,0,1.91.75,3.61,3.61,0,0,0,1.27-.22,3.8,3.8,0,0,0,1.16-.67Z"/><path class="cls-6" d="M68.92,10.92V10h4.84v1Zm4.81,5.5v1l-.5.11a4.43,4.43,0,0,1-.55,0A2.27,2.27,0,0,1,71,17a2.39,2.39,0,0,1-.62-1.79V8l1.21-.44V15a2,2,0,0,0,.18.93,1,1,0,0,0,.47.46,1.78,1.78,0,0,0,.67.12l.41,0Z"/><path class="cls-6" d="M75.23,17.5v-11h1.22v5l-.2.14a2.59,2.59,0,0,1,1-1.38A3,3,0,0,1,79,9.78c1.81,0,2.71,1,2.71,3V17.5H80.5V12.82a2.34,2.34,0,0,0-.42-1.54,1.67,1.67,0,0,0-1.32-.49,2.24,2.24,0,0,0-1.68.65,2.38,2.38,0,0,0-.63,1.74V17.5Z"/><path class="cls-6" d="M83.89,6.76h1.48V8.14H83.89ZM84,17.5V10h1.21V17.5Z"/><path class="cls-6" d="M87.58,17.5V12.07c0-.35,0-.7,0-1.06s0-.71-.1-1h1.15l.14,1.55-.15.12a2.59,2.59,0,0,1,1.05-1.38,3,3,0,0,1,1.69-.47c1.81,0,2.72,1,2.72,3V17.5H92.84V12.82a2.34,2.34,0,0,0-.42-1.54,1.67,1.67,0,0,0-1.32-.49,2.24,2.24,0,0,0-1.68.65,2.38,2.38,0,0,0-.63,1.74V17.5Z"/><path class="cls-6" d="M99.67,20.84a5.61,5.61,0,0,1-3-.77l.21-1a6.48,6.48,0,0,0,1.33.58,5.23,5.23,0,0,0,1.43.18,2.16,2.16,0,0,0,1.64-.58,2.35,2.35,0,0,0,.56-1.72v-2l.17-.19a2.82,2.82,0,0,1-.56,1,2.58,2.58,0,0,1-.94.69,3.15,3.15,0,0,1-1.26.24,3.21,3.21,0,0,1-3-1.79,4.32,4.32,0,0,1-.43-2,4.36,4.36,0,0,1,.43-2,3.18,3.18,0,0,1,3-1.78,3,3,0,0,1,1.78.51,2.58,2.58,0,0,1,1,1.45l-.18-.16V10h1.21v7.48a3.42,3.42,0,0,1-.86,2.55A3.45,3.45,0,0,1,99.67,20.84Zm-.15-4.59a2.16,2.16,0,0,0,1.72-.72,3,3,0,0,0,.62-2,3,3,0,0,0-.62-2,2.17,2.17,0,0,0-1.72-.73,2.23,2.23,0,0,0-1.75.73,3,3,0,0,0-.64,2,3,3,0,0,0,.64,2A2.25,2.25,0,0,0,99.52,16.25Z"/></g></g></g></svg>