<svg xmlns="http://www.w3.org/2000/svg" viewBox="0 0 595.28 110"><defs><style>.cls-1{fill:none;}.cls-2{fill:#7a3d86;}.cls-3{fill:#954e9e;}.cls-4{fill:#b682b9;}.cls-5{isolation:isolate;}.cls-6{fill:#fff;}</style></defs><g id="Layer_2" data-name="Layer 2"><g id="Layer_1-2" data-name="Layer 1"><rect class="cls-1" width="595.28" height="18"/><path class="cls-2" d="M1,9A8,8,0,0,1,9,1H160.58V26H51l-6,4H42l-6-4H29a8,8,0,0,0-8,8v9a8,8,0,0,0,8,8H160.58V76H51l-6,4H42l-6-4H29a8,8,0,0,0-8,8v8a8,8,0,0,0,8,8H160.58v10H9a8,8,0,0,1-8-8Z"/><path class="cls-3" d="M0,8A8,8,0,0,1,8,0H159.58V25H50l-6,4H41l-6-4H28a8,8,0,0,0-8,8v9a8,8,0,0,0,8,8H159.58V75H50l-6,4H41l-6-4H28a8,8,0,0,0-8,8v8a8,8,0,0,0,8,8H159.58v10H8a8,8,0,0,1-8-8Z"/><path class="cls-4" d="M2.34,106.66A8,8,0,0,1,0,101V8H1v93a7,7,0,0,0,2.05,5ZM159.08,100H28a8.94,8.94,0,0,1-6.36-2.64l.7-.7A8,8,0,0,0,28,99H159.08Zm0-49H28a8.94,8.94,0,0,1-6.36-2.64l.7-.7A8,8,0,0,0,28,50H159.08ZM1,7.53,0,7.47A8,8,0,0,1,8,0h151.1V1H8A7,7,0,0,0,1,7.53Z"/><g class="cls-5"><path class="cls-6" d="M13.19,17.5,10.4,10h1.28L14,16.6h-.39L16,10h1.07l2.37,6.64h-.39L21.43,10h1.2L19.84,17.5H18.67l-2.49-6.79h.66L14.36,17.5Z"/><path class="cls-6" d="M27,17.61a3.2,3.2,0,0,1-1.76-.48,3,3,0,0,1-1.17-1.35,4.7,4.7,0,0,1-.42-2.06,4.78,4.78,0,0,1,.42-2.07,3.33,3.33,0,0,1,1.18-1.38A3.14,3.14,0,0,1,27,9.78a2.94,2.94,0,0,1,1.75.51,2.51,2.51,0,0,1,1,1.45l-.18.12V10h1.2V17.5h-1.2V15.55l.18.09a2.51,2.51,0,0,1-1,1.45A2.88,2.88,0,0,1,27,17.61Zm.24-1A2,2,0,0,0,29,15.84a3.38,3.38,0,0,0,.6-2.15A3.32,3.32,0,0,0,29,11.54a2.06,2.06,0,0,0-1.7-.75,2.08,2.08,0,0,0-1.73.78,3.3,3.3,0,0,0-.63,2.15,3.22,3.22,0,0,0,.63,2.13A2.12,2.12,0,0,0,27.25,16.6Z"/><path class="cls-6" d="M32.05,10.92V10h4.84v1Zm4.81,5.5v1l-.5.11a4.43,4.43,0,0,1-.55,0A2.27,2.27,0,0,1,34.14,17a2.39,2.39,0,0,1-.62-1.79V8l1.21-.44V15a2,2,0,0,0,.18.93,1,1,0,0,0,.47.46,1.78,1.78,0,0,0,.67.12l.41,0Z"/><path class="cls-6" d="M41.53,17.61a3.7,3.7,0,0,1-1.92-.48,3.26,3.26,0,0,1-1.25-1.35,4.44,4.44,0,0,1-.45-2.06,4.5,4.5,0,0,1,.45-2.06,3.31,3.31,0,0,1,1.28-1.39,3.72,3.72,0,0,1,2-.49,4.16,4.16,0,0,1,1.48.26,3.27,3.27,0,0,1,1.17.72l-.4.91A4.73,4.73,0,0,0,42.75,11a3,3,0,0,0-1.1-.22,2.29,2.29,0,0,0-1.81.77,3.21,3.21,0,0,0-.67,2.16,3.12,3.12,0,0,0,.66,2.13,2.3,2.3,0,0,0,1.82.75,2.79,2.79,0,0,0,1.09-.22,4.4,4.4,0,0,0,1.1-.65l.4.9a3.38,3.38,0,0,1-1.2.71A4.33,4.33,0,0,1,41.53,17.61Z"/><path class="cls-6" d="M45.79,17.5v-11H47v5l-.19.14a2.59,2.59,0,0,1,1-1.38,3,3,0,0,1,1.69-.47c1.81,0,2.72,1,2.72,3V17.5H51.05V12.82a2.34,2.34,0,0,0-.42-1.54,1.67,1.67,0,0,0-1.32-.49,2.24,2.24,0,0,0-1.68.65A2.38,2.38,0,0,0,47,13.18V17.5Z"/><path class="cls-6" d="M55,17.5H53.51L57.58,12l.72-.92,3.12-4.29h1.45L59,12l-.71.93Zm6.62,0L58.28,13l-.7-.94L53.71,6.82h1.47l3.12,4.29L59,12l4.06,5.46Z"/><path class="cls-6" d="M68.26,17.5V12.07c0-.35,0-.7,0-1.06s0-.71-.1-1h1.15l.17,1.86-.17-.05a2.36,2.36,0,0,1,.91-1.49,2.6,2.6,0,0,1,1.57-.5,2.23,2.23,0,0,1,.37,0,1.14,1.14,0,0,1,.32.07l0,1.1a2.76,2.76,0,0,0-.8-.11,1.92,1.92,0,0,0-1.94,1.22,3,3,0,0,0-.22,1.12v4.3Z"/><path class="cls-6" d="M76.36,17.61a2.6,2.6,0,0,1-2-.75,3.19,3.19,0,0,1-.69-2.23V10h1.22v4.65a2.24,2.24,0,0,0,.42,1.5,1.62,1.62,0,0,0,1.27.47,2.13,2.13,0,0,0,1.62-.64,2.41,2.41,0,0,0,.62-1.73V10H80V17.5H78.82V15.87l.18-.09a2.53,2.53,0,0,1-1,1.36A2.93,2.93,0,0,1,76.36,17.61Z"/><path class="cls-6" d="M82.34,17.5V12.07c0-.35,0-.7,0-1.06a9.1,9.1,0,0,0-.1-1h1.16l.13,1.55-.15.12a2.59,2.59,0,0,1,1-1.38,3,3,0,0,1,1.7-.47c1.81,0,2.71,1,2.71,3V17.5H87.61V12.82a2.34,2.34,0,0,0-.42-1.54,1.67,1.67,0,0,0-1.32-.49,2.24,2.24,0,0,0-1.68.65,2.38,2.38,0,0,0-.63,1.74V17.5Z"/><path class="cls-6" d="M101.29,10V17.5h-1.22V10.92H94V10ZM95.44,17.5V9a3.17,3.17,0,0,1,.28-1.45,1.65,1.65,0,0,1,.9-.82,4.45,4.45,0,0,1,1.71-.26h.48v.94h-.37a3.62,3.62,0,0,0-1.13.14.77.77,0,0,0-.52.52,3.78,3.78,0,0,0-.14,1.17V17.5ZM99.92,6.68h1.52V8.09H99.92Z"/><path class="cls-6" d="M103.63,17.5V12.07c0-.35,0-.7,0-1.06s0-.71-.1-1h1.15l.17,1.86-.17-.05a2.36,2.36,0,0,1,.91-1.49,2.6,2.6,0,0,1,1.57-.5,2.06,2.06,0,0,1,.36,0,1.14,1.14,0,0,1,.33.07l0,1.1a2.76,2.76,0,0,0-.8-.11,1.92,1.92,0,0,0-1.94,1.22,3,3,0,0,0-.22,1.12v4.3Z"/><path class="cls-6" d="M111.53,17.61a4.4,4.4,0,0,1-3-1l.4-.9a4.23,4.23,0,0,0,1.24.68,4.27,4.27,0,0,0,1.42.22,2.43,2.43,0,0,0,1.3-.29,1,1,0,0,0,.44-.85.89.89,0,0,0-.3-.71,2.3,2.3,0,0,0-1-.43l-1.28-.3a2.82,2.82,0,0,1-1.46-.75,1.82,1.82,0,0,1-.52-1.29,1.93,1.93,0,0,1,.36-1.16,2.37,2.37,0,0,1,1-.79,3.77,3.77,0,0,1,1.53-.28,4.37,4.37,0,0,1,1.5.25,3.28,3.28,0,0,1,1.18.73l-.4.89a4.17,4.17,0,0,0-1.1-.67,3.38,3.38,0,0,0-1.18-.22,2.12,2.12,0,0,0-1.25.32,1.07,1.07,0,0,0-.17,1.59,1.94,1.94,0,0,0,.89.42l1.28.32a2.92,2.92,0,0,1,1.57.74,1.81,1.81,0,0,1,.5,1.31,1.85,1.85,0,0,1-.8,1.56A3.57,3.57,0,0,1,111.53,17.61Z"/><path class="cls-6" d="M115.28,10.92V10h4.85v1Zm4.82,5.5v1l-.5.11a4.58,4.58,0,0,1-.55,0,2.26,2.26,0,0,1-1.67-.61,2.35,2.35,0,0,1-.63-1.79V8L118,7.58V15a2.11,2.11,0,0,0,.17.93,1,1,0,0,0,.47.46,1.83,1.83,0,0,0,.68.12l.4,0Z"/><path class="cls-6" d="M121.4,10.12H123v1.56H121.4Zm0,5.84H123V17.5H121.4Z"/></g><g class="cls-5"><path class="cls-6" d="M13.19,67.5,10.4,60h1.28L14,66.6h-.39L16,60h1.07l2.37,6.64h-.39L21.43,60h1.2L19.84,67.5H18.67l-2.49-6.79h.66L14.36,67.5Z"/><path class="cls-6" d="M27,67.61a3.2,3.2,0,0,1-1.76-.48,3,3,0,0,1-1.17-1.35,4.7,4.7,0,0,1-.42-2.06,4.78,4.78,0,0,1,.42-2.07,3.33,3.33,0,0,1,1.18-1.38A3.14,3.14,0,0,1,27,59.78a2.94,2.94,0,0,1,1.75.51,2.51,2.51,0,0,1,1,1.45l-.18.12V60h1.2V67.5h-1.2v-2l.18.09a2.51,2.51,0,0,1-1,1.45A2.88,2.88,0,0,1,27,67.61Zm.24-1A2,2,0,0,0,29,65.84a3.38,3.38,0,0,0,.6-2.15A3.32,3.32,0,0,0,29,61.54a2.06,2.06,0,0,0-1.7-.75,2.08,2.08,0,0,0-1.73.78,3.3,3.3,0,0,0-.63,2.15,3.22,3.22,0,0,0,.63,2.13A2.12,2.12,0,0,0,27.25,66.6Z"/><path class="cls-6" d="M32.05,60.92V60h4.84v1Zm4.81,5.5v1l-.5.11a4.43,4.43,0,0,1-.55,0A2.27,2.27,0,0,1,34.14,67a2.39,2.39,0,0,1-.62-1.79V58l1.21-.44V65a2,2,0,0,0,.18.93,1,1,0,0,0,.47.46,1.78,1.78,0,0,0,.67.12l.41,0Z"/><path class="cls-6" d="M41.53,67.61a3.7,3.7,0,0,1-1.92-.48,3.26,3.26,0,0,1-1.25-1.35,4.44,4.44,0,0,1-.45-2.06,4.5,4.5,0,0,1,.45-2.06,3.31,3.31,0,0,1,1.28-1.39,3.72,3.72,0,0,1,2-.49,4.16,4.16,0,0,1,1.48.26,3.27,3.27,0,0,1,1.17.72l-.4.91A4.73,4.73,0,0,0,42.75,61a3,3,0,0,0-1.1-.22,2.29,2.29,0,0,0-1.81.77,3.21,3.21,0,0,0-.67,2.16,3.12,3.12,0,0,0,.66,2.13,2.3,2.3,0,0,0,1.82.75,2.79,2.79,0,0,0,1.09-.22,4.4,4.4,0,0,0,1.1-.65l.4.9a3.38,3.38,0,0,1-1.2.71A4.33,4.33,0,0,1,41.53,67.61Z"/><path class="cls-6" d="M45.79,67.5v-11H47v5l-.19.14a2.59,2.59,0,0,1,1-1.38,3,3,0,0,1,1.69-.47c1.81,0,2.72,1,2.72,3V67.5H51.05V62.82a2.34,2.34,0,0,0-.42-1.54,1.67,1.67,0,0,0-1.32-.49,2.24,2.24,0,0,0-1.68.65A2.38,2.38,0,0,0,47,63.18V67.5Z"/><path class="cls-6" d="M55,67.5H53.51L57.58,62l.72-.92,3.12-4.29h1.45L59,62l-.71.93Zm6.62,0L58.28,63l-.7-.94-3.87-5.21h1.47l3.12,4.29L59,62l4.06,5.46Z"/><path class="cls-6" d="M68.26,67.5v-11h1.21v11Z"/><path class="cls-6" d="M75,67.61a3.58,3.58,0,0,1-1.88-.48,3.35,3.35,0,0,1-1.25-1.36,5.11,5.11,0,0,1,0-4.15,3.32,3.32,0,0,1,1.25-1.37,4,4,0,0,1,3.76,0,3.32,3.32,0,0,1,1.25,1.37,5.11,5.11,0,0,1,0,4.15,3.35,3.35,0,0,1-1.25,1.36A3.58,3.58,0,0,1,75,67.61Zm0-1a2.12,2.12,0,0,0,1.72-.74,3.4,3.4,0,0,0,.6-2.17,3.32,3.32,0,0,0-.61-2.15A2.09,2.09,0,0,0,75,60.79a2.12,2.12,0,0,0-1.72.75,4.1,4.1,0,0,0,0,4.32A2.11,2.11,0,0,0,75,66.6Z"/><path class="cls-6" d="M83.53,67.61a3.58,3.58,0,0,1-1.88-.48,3.35,3.35,0,0,1-1.25-1.36,5.11,5.11,0,0,1,0-4.15,3.32,3.32,0,0,1,1.25-1.37,4,4,0,0,1,3.76,0,3.32,3.32,0,0,1,1.25,1.37,5.11,5.11,0,0,1,0,4.15,3.35,3.35,0,0,1-1.25,1.36A3.58,3.58,0,0,1,83.53,67.61Zm0-1a2.12,2.12,0,0,0,1.72-.74,3.4,3.4,0,0,0,.6-2.17,3.32,3.32,0,0,0-.61-2.15,2.09,2.09,0,0,0-1.71-.75,2.12,2.12,0,0,0-1.72.75,4.1,4.1,0,0,0,0,4.32A2.11,2.11,0,0,0,83.53,66.6Z"/><path class="cls-6" d="M89,70.74V62.07c0-.35,0-.7,0-1.06s0-.71-.1-1H90l.14,1.55-.12.23a2.5,2.5,0,0,1,1-1.45,2.93,2.93,0,0,1,1.74-.51,3.12,3.12,0,0,1,1.75.49,3.35,3.35,0,0,1,1.19,1.38,4.78,4.78,0,0,1,.42,2.07,4.7,4.7,0,0,1-.42,2.06,3.13,3.13,0,0,1-2.94,1.83A2.87,2.87,0,0,1,91,67.09a2.5,2.5,0,0,1-1-1.45l.16-.15v5.25Zm3.54-4.14a2.09,2.09,0,0,0,1.71-.75,3.28,3.28,0,0,0,.61-2.13,3.36,3.36,0,0,0-.61-2.15,2.06,2.06,0,0,0-1.71-.78,2.09,2.09,0,0,0-1.73.75,4.15,4.15,0,0,0,0,4.3A2.07,2.07,0,0,0,92.53,66.6Z"/><path class="cls-6" d="M100.84,60.92V60h4.53v1Zm4.74-3.35a2.85,2.85,0,0,0-.78-.12,1.51,1.51,0,0,0-.65.13.9.9,0,0,0-.46.46,2,2,0,0,0-.17.91V67.5h-1.21V58.8a2.45,2.45,0,0,1,.6-1.81,2.27,2.27,0,0,1,1.65-.59,4.36,4.36,0,0,1,.51,0,3.1,3.1,0,0,1,.51.11Z"/><path class="cls-6" d="M110,67.61a3.58,3.58,0,0,1-1.88-.48,3.33,3.33,0,0,1-1.24-1.36,5,5,0,0,1,0-4.15,3.3,3.3,0,0,1,1.24-1.37,4,4,0,0,1,3.76,0,3.25,3.25,0,0,1,1.25,1.37,5.11,5.11,0,0,1,0,4.15,3.29,3.29,0,0,1-1.25,1.36A3.58,3.58,0,0,1,110,67.61Zm0-1a2.11,2.11,0,0,0,1.72-.74,4.1,4.1,0,0,0,0-4.32,2.09,2.09,0,0,0-1.71-.75,2.12,2.12,0,0,0-1.72.75,4.1,4.1,0,0,0,0,4.32A2.11,2.11,0,0,0,110,66.6Z"/><path class="cls-6" d="M115.46,67.5V62.07c0-.35,0-.7,0-1.06s0-.71-.1-1h1.16l.16,1.86-.16,0a2.35,2.35,0,0,1,.9-1.49,2.6,2.6,0,0,1,1.57-.5,2.17,2.17,0,0,1,.37,0,1.14,1.14,0,0,1,.32.07l0,1.1a2.69,2.69,0,0,0-.79-.11,2.06,2.06,0,0,0-1.25.34,1.92,1.92,0,0,0-.69.88,2.8,2.8,0,0,0-.22,1.12v4.3Z"/><path class="cls-6" d="M126.92,66.6a3.38,3.38,0,0,1-1.26.73,4.84,4.84,0,0,1-1.59.28,4.09,4.09,0,0,1-2-.47,3.19,3.19,0,0,1-1.31-1.34,4.57,4.57,0,0,1-.46-2.09,4.47,4.47,0,0,1,.45-2.06A3.37,3.37,0,0,1,122,60.27a3.43,3.43,0,0,1,1.85-.49,3.17,3.17,0,0,1,1.72.44,2.88,2.88,0,0,1,1.11,1.27,4.74,4.74,0,0,1,.38,2v.23h-5.7v-.8h5l-.39.56a3.13,3.13,0,0,0-.52-2,1.92,1.92,0,0,0-1.6-.7,2.08,2.08,0,0,0-1.71.77,3.31,3.31,0,0,0-.63,2.14,3.27,3.27,0,0,0,.66,2.22,2.39,2.39,0,0,0,1.91.75,3.65,3.65,0,0,0,1.27-.22,3.92,3.92,0,0,0,1.16-.67Z"/><path class="cls-6" d="M131,67.5,127.82,60h1.28l2.73,6.65h-.36L134.23,60h1.21l-3.25,7.53Z"/><path class="cls-6" d="M142.87,66.6a3.34,3.34,0,0,1-1.27.73,4.74,4.74,0,0,1-1.58.28,4.16,4.16,0,0,1-2-.47,3.17,3.17,0,0,1-1.3-1.34,5,5,0,0,1,0-4.15,3.34,3.34,0,0,1,1.25-1.38,3.46,3.46,0,0,1,1.85-.49,3.2,3.2,0,0,1,1.73.44,2.8,2.8,0,0,1,1.1,1.27,4.59,4.59,0,0,1,.38,2v.23h-5.7v-.8h5l-.39.56a3.19,3.19,0,0,0-.51-2,1.94,1.94,0,0,0-1.6-.7,2.1,2.1,0,0,0-1.72.77,4.06,4.06,0,0,0,0,4.36,2.4,2.4,0,0,0,1.91.75,3.61,3.61,0,0,0,1.27-.22,3.8,3.8,0,0,0,1.16-.67Z"/><path class="cls-6" d="M144.85,67.5V62.07c0-.35,0-.7,0-1.06a9.1,9.1,0,0,0-.09-1h1.15l.17,1.86-.17,0a2.32,2.32,0,0,1,.91-1.49,2.58,2.58,0,0,1,1.57-.5,2.06,2.06,0,0,1,.36,0,1.14,1.14,0,0,1,.33.07l0,1.1a2.76,2.76,0,0,0-.8-.11,2.06,2.06,0,0,0-1.25.34,1.92,1.92,0,0,0-.69.88,2.8,2.8,0,0,0-.22,1.12v4.3Z"/><path class="cls-6" d="M150.26,60.12h1.55v1.56h-1.55Zm0,5.84h1.55V67.5h-1.55Z"/></g></g></g></svg>