<svg xmlns="http://www.w3.org/2000/svg" viewBox="0 0 595.28 42.52"><defs><style>.cls-1{fill:#231f20;}.cls-2{fill:#954e9e;}.cls-3{fill:#aa6dad;}.cls-4{fill:#ff5100;}.cls-5{fill:#d54427;}.cls-6{fill:none;}</style></defs><g id="Layer_2" data-name="Layer 2"><g id="Layer_1-2" data-name="Layer 1"><path class="cls-1" d="M85.23,34.35V8.71H102v3.71H89.8v7.06h11.49v3.71H89.8V34.35Z"/><path class="cls-1" d="M111.69,34.6a6.4,6.4,0,0,1-5-1.86c-1.12-1.23-1.68-3.1-1.68-5.59v-11h4.5v11a4.35,4.35,0,0,0,.83,2.92,3.16,3.16,0,0,0,2.49.93A4.08,4.08,0,0,0,116,29.74a4.9,4.9,0,0,0,1.19-3.46V16.17h4.54V34.35h-4.39V30.6l.46,0a6.14,6.14,0,0,1-2.37,3A6.63,6.63,0,0,1,111.69,34.6Z"/><path class="cls-1" d="M126.52,34.35v-13c0-.86,0-1.72,0-2.59s-.12-1.71-.24-2.55h4.25l.4,3.6-.4.1a6.59,6.59,0,0,1,2.58-3.11A7.29,7.29,0,0,1,137,15.7q6.48,0,6.48,7.49V34.35H139v-11a4.83,4.83,0,0,0-.83-3.12,3.14,3.14,0,0,0-2.56-1,4.36,4.36,0,0,0-3.33,1.32A4.86,4.86,0,0,0,131,24.05v10.3Z"/><path class="cls-1" d="M156.44,34.6a10,10,0,0,1-4.92-1.14,7.55,7.55,0,0,1-3.16-3.24,10.45,10.45,0,0,1-1.1-4.95,10.53,10.53,0,0,1,1.15-5,8.12,8.12,0,0,1,3.28-3.34,9.9,9.9,0,0,1,5-1.19,11.53,11.53,0,0,1,3.73.61,8.06,8.06,0,0,1,3,1.69l-1.3,3.17a8.64,8.64,0,0,0-2.44-1.42,7.25,7.25,0,0,0-2.6-.49,4.89,4.89,0,0,0-3.76,1.51,6.37,6.37,0,0,0-1.38,4.43,6.33,6.33,0,0,0,1.36,4.39,4.91,4.91,0,0,0,3.82,1.52,7.39,7.39,0,0,0,2.56-.49,8.12,8.12,0,0,0,2.44-1.46l1.3,3.17a8.08,8.08,0,0,1-3,1.67A12.53,12.53,0,0,1,156.44,34.6Z"/><path class="cls-1" d="M164.21,19.55V16.17H177v3.38ZM177,30.6v3.57a7.5,7.5,0,0,1-1.42.34,11.86,11.86,0,0,1-1.5.09,6.28,6.28,0,0,1-4.73-1.73,6.84,6.84,0,0,1-1.68-5V11.74l4.5-1.51V27.69a4,4,0,0,0,.4,1.92,2.24,2.24,0,0,0,1.06,1,3.79,3.79,0,0,0,1.5.29,5.29,5.29,0,0,0,.9-.07C176.34,30.77,176.67,30.7,177,30.6Z"/><path class="cls-1" d="M179.87,7.92h5v4.43h-5Zm.22,26.43V16.17h4.5V34.35Z"/><path class="cls-1" d="M197.73,34.6a10,10,0,0,1-4.91-1.15,7.83,7.83,0,0,1-3.19-3.26,10.54,10.54,0,0,1-1.12-5,10.69,10.69,0,0,1,1.12-5,7.79,7.79,0,0,1,3.19-3.29,9.9,9.9,0,0,1,4.91-1.15,9.76,9.76,0,0,1,4.84,1.15,8,8,0,0,1,3.21,3.29,10.69,10.69,0,0,1,1.13,5,10.54,10.54,0,0,1-1.13,5,8.06,8.06,0,0,1-3.21,3.26A9.87,9.87,0,0,1,197.73,34.6Zm0-3.46a4.19,4.19,0,0,0,3.44-1.49,7.06,7.06,0,0,0,1.2-4.48,7,7,0,0,0-1.2-4.45,4.16,4.16,0,0,0-3.44-1.49,4.3,4.3,0,0,0-3.51,1.49A6.83,6.83,0,0,0,193,25.17a6.94,6.94,0,0,0,1.22,4.48A4.32,4.32,0,0,0,197.73,31.14Z"/><path class="cls-1" d="M210.76,34.35v-13c0-.86,0-1.72,0-2.59s-.12-1.71-.24-2.55h4.25l.4,3.6-.4.1a6.57,6.57,0,0,1,2.57-3.11,7.32,7.32,0,0,1,4-1.06q6.48,0,6.48,7.49V34.35h-4.5v-11a4.83,4.83,0,0,0-.83-3.12,3.15,3.15,0,0,0-2.56-1,4.36,4.36,0,0,0-3.33,1.32,4.82,4.82,0,0,0-1.24,3.47v10.3Z"/><path class="cls-1" d="M239.13,34.6a12.38,12.38,0,0,1-7.85-2.27l1.26-3.17a10.48,10.48,0,0,0,3.13,1.62,11.57,11.57,0,0,0,3.53.54,4.82,4.82,0,0,0,2.52-.54,1.68,1.68,0,0,0,.86-1.51A1.57,1.57,0,0,0,242,28a5.52,5.52,0,0,0-2.09-.85l-3-.68a7.23,7.23,0,0,1-3.73-1.82,4.51,4.51,0,0,1-1.24-3.26,4.79,4.79,0,0,1,.94-2.93,6.06,6.06,0,0,1,2.63-2,9.9,9.9,0,0,1,3.92-.72,12,12,0,0,1,3.74.59A9.61,9.61,0,0,1,246.26,18L245,21.1a10.21,10.21,0,0,0-2.79-1.55,8.33,8.33,0,0,0-2.83-.5,4.36,4.36,0,0,0-2.41.57,1.82,1.82,0,0,0-.86,1.59,1.62,1.62,0,0,0,.52,1.26,4.13,4.13,0,0,0,1.82.75l3.06.76a7.6,7.6,0,0,1,3.94,1.85,4.62,4.62,0,0,1,1.24,3.37,4.62,4.62,0,0,1-2,3.94A9.26,9.26,0,0,1,239.13,34.6Z"/><path class="cls-2" d="M50.1,0a9.36,9.36,0,0,0-9.25,8l-1.37,9.59H34.63a2.6,2.6,0,0,0,0,5.2h4.11l-1.57,11a4.15,4.15,0,0,1-8.26-.59,2.6,2.6,0,1,0-5.19,0,9.35,9.35,0,0,0,18.6,1.33L44,22.81h5.93a2.6,2.6,0,1,0,0-5.2H44.73L46,8.76a4.15,4.15,0,0,1,8.26.59,2.6,2.6,0,0,0,5.2,0A9.35,9.35,0,0,0,50.1,0Z"/><path class="cls-3" d="M34.46,37.32a4.17,4.17,0,0,0,4.11-3.56l1.56-10.95H38.74l-1.57,11a4.17,4.17,0,0,1-3.41,3.5,4,4,0,0,0,.7.06Z"/><path class="cls-3" d="M42.25,8a9.35,9.35,0,0,1,8.57-8q-.36,0-.72,0a9.36,9.36,0,0,0-9.25,8l-1.37,9.59h1.4Z"/><path class="cls-3" d="M55.65,9.35A4.15,4.15,0,0,0,51.5,5.2a4,4,0,0,0-.7.06,4.15,4.15,0,0,1,3.45,4.09,2.61,2.61,0,0,0,2.6,2.6,2.69,2.69,0,0,0,.7-.1,2.61,2.61,0,0,1-1.9-2.5Z"/><path class="cls-3" d="M25.11,33.17a2.61,2.61,0,0,1,1.9-2.5,2.63,2.63,0,0,0-.7-.1,2.6,2.6,0,0,0-2.59,2.6,9.35,9.35,0,0,0,9.34,9.35c.23,0,.46,0,.68,0A9.35,9.35,0,0,1,25.11,33.17Z"/><path class="cls-3" d="M34.63,22.81H36a2.6,2.6,0,0,1,0-5.2h-1.4a2.6,2.6,0,0,0,0,5.2Z"/><path class="cls-4" d="M58,35.67l2.4-2.4a2.61,2.61,0,0,0-3.69-3.69L54.28,32l-2.4-2.39a2.61,2.61,0,1,0-3.69,3.69l2.4,2.4-2.4,2.39a2.61,2.61,0,1,0,3.69,3.69l2.4-2.39,2.4,2.39a2.61,2.61,0,0,0,3.69-3.69Z"/><path class="cls-5" d="M50.36,41.75a2.61,2.61,0,0,1,0-3.69l2.4-2.39-2.4-2.4a2.61,2.61,0,0,1,0-3.69,2.55,2.55,0,0,1,.76-.53,2.61,2.61,0,0,0-2.93,4.22l2.4,2.4-2.4,2.39A2.62,2.62,0,0,0,50,42.52a2.54,2.54,0,0,0,1.08-.24,2.55,2.55,0,0,1-.76-.53Z"/><rect class="cls-6" width="595.28" height="18"/></g></g></svg>