<svg xmlns="http://www.w3.org/2000/svg" viewBox="0 0 595.39 25"><defs><style>.cls-1{fill:#7a3d86;}.cls-2{fill:#954e9e;}.cls-3{fill:#b682b9;}.cls-4{isolation:isolate;}.cls-5{fill:#fff;}.cls-6{fill:none;}</style></defs><g id="Layer_2" data-name="Layer 2"><g id="Layer_1-2" data-name="Layer 1"><path class="cls-1" d="M9.12,1H121.27V25H9.12V21c0-10-8,8-8-7.5s8,2.5,8-7.5Z"/><path class="cls-2" d="M8.12,0H120.27V24H8.12V20c0-10-8,8-8-7.5s8,2.5,8-7.5Z"/><path class="cls-3" d="M9.12,23.5h-1v-5h1ZM.77,18.13a20.9,20.9,0,0,1,0-11.26l1,.26a19.79,19.79,0,0,0,0,10.74ZM9.12,8h-1V0H119.77V1H9.12Z"/><g class="cls-4"><path class="cls-5" d="M25.93,17.5h-1.2v-2l.18.17a2.47,2.47,0,0,1-1,1.45,2.91,2.91,0,0,1-1.76.52,3.22,3.22,0,0,1-1.75-.49,3.31,3.31,0,0,1-1.17-1.38,4.86,4.86,0,0,1-.42-2.08,4.66,4.66,0,0,1,.41-2.05,3.09,3.09,0,0,1,1.17-1.35,3.2,3.2,0,0,1,1.76-.48,3,3,0,0,1,1.76.51,2.56,2.56,0,0,1,1,1.45l-.19.15V6.46h1.21Zm-3.51-.9a2,2,0,0,0,1.7-.76,3.32,3.32,0,0,0,.61-2.15,3.38,3.38,0,0,0-.6-2.14,2.06,2.06,0,0,0-1.71-.75,2.12,2.12,0,0,0-1.73.75,3.18,3.18,0,0,0-.62,2.11,3.36,3.36,0,0,0,.62,2.17A2.1,2.1,0,0,0,22.42,16.6Z"/><path class="cls-5" d="M31.41,17.61a3.64,3.64,0,0,1-1.89-.48,3.33,3.33,0,0,1-1.24-1.36,4.52,4.52,0,0,1-.44-2.08,4.51,4.51,0,0,1,.44-2.07,3.21,3.21,0,0,1,1.24-1.36,3.64,3.64,0,0,1,1.89-.48,3.6,3.6,0,0,1,1.88.48,3.21,3.21,0,0,1,1.24,1.36A4.51,4.51,0,0,1,35,13.69a4.52,4.52,0,0,1-.45,2.08,3.33,3.33,0,0,1-1.24,1.36A3.6,3.6,0,0,1,31.41,17.61Zm0-1a2.08,2.08,0,0,0,1.71-.74,3.34,3.34,0,0,0,.61-2.17,3.29,3.29,0,0,0-.61-2.14,2.34,2.34,0,0,0-3.43,0,3.23,3.23,0,0,0-.62,2.14,3.4,3.4,0,0,0,.6,2.17A2.15,2.15,0,0,0,31.41,16.6Z"/><path class="cls-5" d="M43.33,17.61a4.4,4.4,0,0,1-3-1l.4-.9a4.11,4.11,0,0,0,1.24.68,4.23,4.23,0,0,0,1.42.22,2.37,2.37,0,0,0,1.29-.29,1,1,0,0,0,.45-.85.89.89,0,0,0-.3-.71,2.3,2.3,0,0,0-1-.43l-1.28-.3a2.78,2.78,0,0,1-1.46-.75A1.78,1.78,0,0,1,40.57,12a1.93,1.93,0,0,1,.36-1.16,2.37,2.37,0,0,1,1-.79,3.77,3.77,0,0,1,1.53-.28A4.37,4.37,0,0,1,45,10a3.28,3.28,0,0,1,1.18.73l-.4.89A4.06,4.06,0,0,0,44.64,11a3.29,3.29,0,0,0-1.17-.22,2.17,2.17,0,0,0-1.26.32,1,1,0,0,0-.44.85,1,1,0,0,0,.28.74,1.89,1.89,0,0,0,.89.42l1.28.32a2.85,2.85,0,0,1,1.56.74,1.78,1.78,0,0,1,.51,1.31,1.85,1.85,0,0,1-.8,1.56A3.57,3.57,0,0,1,43.33,17.61Z"/><path class="cls-5" d="M51.34,17.61a3.58,3.58,0,0,1-1.88-.48,3.35,3.35,0,0,1-1.25-1.36,4.65,4.65,0,0,1-.44-2.08,4.64,4.64,0,0,1,.44-2.07,3.23,3.23,0,0,1,1.25-1.36,3.92,3.92,0,0,1,3.76,0,3.23,3.23,0,0,1,1.25,1.36,4.64,4.64,0,0,1,.44,2.07,4.65,4.65,0,0,1-.44,2.08,3.35,3.35,0,0,1-1.25,1.36A3.58,3.58,0,0,1,51.34,17.61Zm0-1a2.12,2.12,0,0,0,1.72-.74,3.4,3.4,0,0,0,.61-2.17,3.29,3.29,0,0,0-.62-2.14,2.09,2.09,0,0,0-1.71-.75,2.12,2.12,0,0,0-1.72.75A3.29,3.29,0,0,0,49,13.69a3.34,3.34,0,0,0,.61,2.17A2.11,2.11,0,0,0,51.34,16.6Z"/><path class="cls-5" d="M56.8,17.5V12.07c0-.35,0-.7,0-1.06s-.05-.71-.1-1h1.16L58,11.51l-.15.11a2.49,2.49,0,0,1,.94-1.36,2.62,2.62,0,0,1,1.58-.48,2.46,2.46,0,0,1,1.7.54A2.6,2.6,0,0,1,62.82,12l-.36-.2a2.57,2.57,0,0,1,1-1.45,2.87,2.87,0,0,1,1.75-.54,2.32,2.32,0,0,1,1.88.74,3.38,3.38,0,0,1,.63,2.24V17.5H66.46V12.82a2.55,2.55,0,0,0-.37-1.54,1.42,1.42,0,0,0-1.19-.48,1.84,1.84,0,0,0-1.49.64,2.61,2.61,0,0,0-.55,1.76v4.3H61.65V12.82a2.47,2.47,0,0,0-.39-1.54,1.42,1.42,0,0,0-1.19-.48,1.88,1.88,0,0,0-1.51.64A2.66,2.66,0,0,0,58,13.2v4.3Z"/><path class="cls-5" d="M76.17,16.6a3.58,3.58,0,0,1-1.27.74,5,5,0,0,1-1.58.27,4.13,4.13,0,0,1-2-.47A3.19,3.19,0,0,1,70,15.8a4.57,4.57,0,0,1-.45-2.09A4.5,4.5,0,0,1,70,11.65a3.34,3.34,0,0,1,1.25-1.38,3.43,3.43,0,0,1,1.85-.49,3.2,3.2,0,0,1,1.73.44,2.86,2.86,0,0,1,1.1,1.27,4.76,4.76,0,0,1,.38,2v.22H70.6v-.8h5l-.39.56a3.08,3.08,0,0,0-.52-2,1.88,1.88,0,0,0-1.59-.71,2.1,2.1,0,0,0-1.72.77,3.31,3.31,0,0,0-.62,2.14,3.27,3.27,0,0,0,.65,2.22,2.39,2.39,0,0,0,1.91.75,3.65,3.65,0,0,0,1.27-.22,4.11,4.11,0,0,0,1.16-.66Z"/><path class="cls-5" d="M77,10.92V10h4.84v1Zm4.81,5.5v1a5,5,0,0,1-.5.11,4.58,4.58,0,0,1-.55,0,2.29,2.29,0,0,1-1.67-.6,2.37,2.37,0,0,1-.62-1.8V8l1.21-.43V15a2.11,2.11,0,0,0,.17.93,1,1,0,0,0,.48.46,1.78,1.78,0,0,0,.67.12,2.62,2.62,0,0,0,.41,0A2.73,2.73,0,0,0,81.85,16.42Z"/><path class="cls-5" d="M83.35,17.5v-11h1.22v5l-.2.15a2.58,2.58,0,0,1,1-1.39,3,3,0,0,1,1.7-.47c1.81,0,2.71,1,2.71,3V17.5H88.62V12.82a2.34,2.34,0,0,0-.42-1.54,1.67,1.67,0,0,0-1.32-.48,2.24,2.24,0,0,0-1.68.64,2.38,2.38,0,0,0-.63,1.74V17.5Z"/><path class="cls-5" d="M92,6.76h1.48V8.14H92Zm.12,10.74V10h1.21V17.5Z"/><path class="cls-5" d="M95.7,17.5V12.07c0-.35,0-.7,0-1.06a9.1,9.1,0,0,0-.09-1h1.15l.14,1.55-.15.13a2.58,2.58,0,0,1,1-1.39,3,3,0,0,1,1.69-.47c1.81,0,2.72,1,2.72,3V17.5H101V12.82a2.34,2.34,0,0,0-.42-1.54,1.67,1.67,0,0,0-1.32-.48,2.24,2.24,0,0,0-1.68.64,2.38,2.38,0,0,0-.63,1.74V17.5Z"/><path class="cls-5" d="M107.79,20.84a5.52,5.52,0,0,1-3-.77l.21-1a6.48,6.48,0,0,0,1.33.58,5.23,5.23,0,0,0,1.43.18,2.17,2.17,0,0,0,1.64-.58,2.38,2.38,0,0,0,.56-1.71v-2l.17-.2a2.7,2.7,0,0,1-.57,1,2.54,2.54,0,0,1-.93.69,3.15,3.15,0,0,1-1.26.24,3.26,3.26,0,0,1-1.77-.48,3.19,3.19,0,0,1-1.18-1.31,4.19,4.19,0,0,1-.43-2,4.24,4.24,0,0,1,.43-2,3.19,3.19,0,0,1,1.18-1.31,3.25,3.25,0,0,1,1.77-.47,3,3,0,0,1,1.77.51,2.54,2.54,0,0,1,1,1.45l-.18-.16V10h1.21v7.48a3.46,3.46,0,0,1-.86,2.55A3.47,3.47,0,0,1,107.79,20.84Zm-.15-4.58a2.13,2.13,0,0,0,1.71-.73,3,3,0,0,0,.63-2,3,3,0,0,0-.63-2,2.13,2.13,0,0,0-1.71-.72,2.21,2.21,0,0,0-1.75.72,2.94,2.94,0,0,0-.64,2,2.92,2.92,0,0,0,.64,2A2.25,2.25,0,0,0,107.64,16.26Z"/></g><rect class="cls-6" x="0.12" width="595.28" height="18"/></g></g></svg>