<svg xmlns="http://www.w3.org/2000/svg" viewBox="0 0 595.28 78.14"><defs><style>.cls-1{fill:none;}.cls-2{fill:#483d86;}.cls-3{fill:#5c4da0;}.cls-4{fill:#8d82bd;}.cls-5{fill:#3d4986;}.cls-6{fill:#4c5ba6;}.cls-7{fill:#818dc1;}.cls-8{opacity:0.6;}.cls-9{fill:#fff;}.cls-10{isolation:isolate;}.cls-11{fill:#010101;}.cls-12{fill:#afa7d1;}</style></defs><g id="Layer_2" data-name="Layer 2"><g id="Layer_1-2" data-name="Layer 1"><rect class="cls-1" width="595.28" height="18"/><path class="cls-2" d="M1,9A8,8,0,0,1,9,1h7l6,4h3l6-4H296.48V37H30.5l-6,4h-3l-6-4H9a8,8,0,0,1-8-8ZM286.48,6h-48.4v5c0,10-8-8-8,7.5s8-2.5,8,7.5v7h48.4Z"/><path class="cls-3" d="M0,8A8,8,0,0,1,8,0h7l6,4h3l6-4H295.48V36H29.5l-6,4h-3l-6-4H8a8,8,0,0,1-8-8ZM285.48,5h-48.4v5c0,10-8-8-8,7.5s8-2.5,8,7.5v7h48.4Z"/><path class="cls-4" d="M2.34,33.66A8,8,0,0,1,0,28V8H1V28a7,7,0,0,0,2.05,5ZM286.48,33h-48.9V32h47.9V5.5h1Zm-54.25-8.27-.49-.86,3.68-2.1.49.86ZM1,7.53,0,7.47A8,8,0,0,1,8,0h7.17l6,4h2.7l6-4H295V1H30.15l-6,4h-3.3l-6-4H8A7,7,0,0,0,1,7.53Z"/><path class="cls-5" d="M239.08,7h46.4V32h-46.4V27c0-10-8,8-8-7.5s8,2.5,8-7.5Z"/><path class="cls-6" d="M238.08,6h46.4V31h-46.4V26c0-10-8,8-8-7.5s8,2.5,8-7.5Z"/><path class="cls-7" d="M239.08,30.5h-1v-6h1Zm-8.34-6.37a20.9,20.9,0,0,1,0-11.26l1,.26a19.79,19.79,0,0,0,0,10.74ZM239.08,14h-1V6H284V7h-44.9Z"/><g class="cls-8"><rect class="cls-9" x="243.08" y="11" width="36.4" height="16" rx="4"/></g><g class="cls-10"><path class="cls-11" d="M250,23.5v-1h6v1Zm2.36-.55V13.54l.7.36-2.89,1.85V14.56l2.73-1.74h.7V23Z"/><path class="cls-11" d="M261.58,23.62a3.15,3.15,0,0,1-2.78-1.39,7.22,7.22,0,0,1-.95-4.07,7.23,7.23,0,0,1,.94-4.07,3.5,3.5,0,0,1,5.58,0,7.19,7.19,0,0,1,.95,4.05,7.23,7.23,0,0,1-.95,4.08A3.16,3.16,0,0,1,261.58,23.62Zm0-1a2,2,0,0,0,1.89-1.08,7.21,7.21,0,0,0,.6-3.37,7,7,0,0,0-.6-3.33,2.2,2.2,0,0,0-3.77,0,7,7,0,0,0-.61,3.32,7.19,7.19,0,0,0,.61,3.37A2,2,0,0,0,261.58,22.59Z"/><path class="cls-11" d="M270.58,23.62a3.15,3.15,0,0,1-2.78-1.39,7.22,7.22,0,0,1-.95-4.07,7.23,7.23,0,0,1,.94-4.07,3.5,3.5,0,0,1,5.58,0,7.19,7.19,0,0,1,.95,4.05,7.23,7.23,0,0,1-.95,4.08A3.16,3.16,0,0,1,270.58,23.62Zm0-1a2,2,0,0,0,1.89-1.08,7.21,7.21,0,0,0,.6-3.37,7,7,0,0,0-.6-3.33,2.2,2.2,0,0,0-3.77,0,7,7,0,0,0-.61,3.32,7.19,7.19,0,0,0,.61,3.37A2,2,0,0,0,270.58,22.59Z"/></g><g class="cls-10"><path class="cls-9" d="M11.32,22.5V11.82h1.23v9.63h5.36V22.5Z"/><path class="cls-9" d="M19.49,22.5V11.82h6.75v1H20.71v3.72H26v1H20.71v3.89h5.53v1Z"/><path class="cls-9" d="M28.32,22.5V11.82H31.9a6.32,6.32,0,0,1,2.91.62,4.23,4.23,0,0,1,1.83,1.82,6.07,6.07,0,0,1,.63,2.88,6,6,0,0,1-.64,2.91,4.29,4.29,0,0,1-1.83,1.82,6.18,6.18,0,0,1-2.9.63Zm1.23-1.05h2.28a4.14,4.14,0,0,0,3.11-1.08,4.49,4.49,0,0,0,1-3.23c0-2.84-1.39-4.27-4.15-4.27H29.55Z"/><path class="cls-9" d="M43.27,22.5v-11h1.21v5.43l-.16-.15a2.56,2.56,0,0,1,1-1.45A2.93,2.93,0,0,1,47,14.78a3.2,3.2,0,0,1,1.76.48A3.31,3.31,0,0,1,50,16.61a4.66,4.66,0,0,1,.42,2.05A4.86,4.86,0,0,1,50,20.74a3.35,3.35,0,0,1-1.19,1.38,3.17,3.17,0,0,1-1.75.49,2.87,2.87,0,0,1-1.74-.52,2.47,2.47,0,0,1-1-1.45l.16-.17v2Zm3.54-.9a2.08,2.08,0,0,0,1.71-.77,3.42,3.42,0,0,0,.62-2.17,3.24,3.24,0,0,0-.62-2.11,2.35,2.35,0,0,0-3.44,0,3.38,3.38,0,0,0-.6,2.14,3.38,3.38,0,0,0,.6,2.15A2.07,2.07,0,0,0,46.81,21.6Z"/><path class="cls-9" d="M52.27,22.5V17.07c0-.35,0-.7,0-1.06s0-.71-.1-1.05H53.3l.17,1.86-.17-.05a2.36,2.36,0,0,1,.91-1.49,2.6,2.6,0,0,1,1.57-.5,2.23,2.23,0,0,1,.37,0,1.65,1.65,0,0,1,.32.07l0,1.1a2.71,2.71,0,0,0-.8-.11,1.92,1.92,0,0,0-1.94,1.22,3,3,0,0,0-.22,1.12v4.3Z"/><path class="cls-9" d="M57.58,11.76h1.48v1.38H57.58ZM57.7,22.5V15h1.21V22.5Z"/><path class="cls-9" d="M64.58,25.84a5.52,5.52,0,0,1-3-.77l.21-1a6.55,6.55,0,0,0,1.34.58,5.15,5.15,0,0,0,1.42.18,2.2,2.2,0,0,0,1.65-.58,2.38,2.38,0,0,0,.56-1.71v-2l.16-.2a2.68,2.68,0,0,1-.56,1,2.5,2.5,0,0,1-.94.69,3.15,3.15,0,0,1-1.26.24,3.18,3.18,0,0,1-2.94-1.79,4.19,4.19,0,0,1-.43-2,4.24,4.24,0,0,1,.43-2,3.15,3.15,0,0,1,2.94-1.78,3,3,0,0,1,1.78.51,2.53,2.53,0,0,1,1,1.45l-.18-.16V15H68v7.48A3.46,3.46,0,0,1,67.13,25,3.49,3.49,0,0,1,64.58,25.84Zm-.15-4.58a2.16,2.16,0,0,0,1.72-.73,3,3,0,0,0,.62-2,3,3,0,0,0-.62-2,2.15,2.15,0,0,0-1.72-.72,2.19,2.19,0,0,0-1.74.72,2.94,2.94,0,0,0-.64,2,2.94,2.94,0,0,0,.64,2A2.22,2.22,0,0,0,64.43,21.26Z"/><path class="cls-9" d="M70.33,22.5v-11h1.21v5l-.19.14a2.59,2.59,0,0,1,1.05-1.38,3,3,0,0,1,1.69-.47c1.81,0,2.72,1,2.72,3V22.5H75.59V17.82a2.34,2.34,0,0,0-.42-1.54,1.67,1.67,0,0,0-1.32-.48,2.24,2.24,0,0,0-1.68.64,2.38,2.38,0,0,0-.63,1.74V22.5Z"/><path class="cls-9" d="M78,15.92V15h4.84v1Zm4.81,5.5v1a4.48,4.48,0,0,1-.5.11,4.43,4.43,0,0,1-.55,0,2.31,2.31,0,0,1-1.67-.6,2.41,2.41,0,0,1-.62-1.8V13l1.21-.43V20a2,2,0,0,0,.18.93,1,1,0,0,0,.47.46,1.78,1.78,0,0,0,.67.12,2.62,2.62,0,0,0,.41,0A2.73,2.73,0,0,0,82.85,21.42Z"/><path class="cls-9" d="M84.35,22.5V17.07c0-.35,0-.7,0-1.06a9.1,9.1,0,0,0-.1-1.05h1.16l.13,1.55-.15.12a2.59,2.59,0,0,1,1-1.38,3,3,0,0,1,1.7-.47c1.81,0,2.71,1,2.71,3V22.5H89.62V17.82a2.34,2.34,0,0,0-.42-1.54,1.67,1.67,0,0,0-1.32-.48,2.24,2.24,0,0,0-1.68.64,2.38,2.38,0,0,0-.63,1.74V22.5Z"/><path class="cls-9" d="M99.31,21.6a3.49,3.49,0,0,1-1.27.74,5,5,0,0,1-1.58.27,4.16,4.16,0,0,1-2-.47,3.17,3.17,0,0,1-1.3-1.34,4.44,4.44,0,0,1-.46-2.09,4.5,4.5,0,0,1,.45-2.06,3.41,3.41,0,0,1,1.25-1.38,3.46,3.46,0,0,1,1.85-.49,3.2,3.2,0,0,1,1.73.44,2.8,2.8,0,0,1,1.1,1.27,4.6,4.6,0,0,1,.38,2v.22h-5.7v-.8h5l-.39.56a3.14,3.14,0,0,0-.51-2,1.91,1.91,0,0,0-1.6-.71,2.11,2.11,0,0,0-1.72.77,3.36,3.36,0,0,0-.62,2.14,3.32,3.32,0,0,0,.65,2.22,2.4,2.4,0,0,0,1.91.75,3.61,3.61,0,0,0,1.27-.22,4,4,0,0,0,1.16-.66Z"/><path class="cls-9" d="M103.84,22.61a4.42,4.42,0,0,1-3-1l.41-.9a4.11,4.11,0,0,0,1.24.68,4.17,4.17,0,0,0,1.41.22,2.41,2.41,0,0,0,1.3-.29,1,1,0,0,0,.44-.85.89.89,0,0,0-.3-.71,2.3,2.3,0,0,0-1-.43l-1.27-.3a2.78,2.78,0,0,1-1.46-.75,1.78,1.78,0,0,1-.52-1.29,1.93,1.93,0,0,1,.36-1.16,2.34,2.34,0,0,1,1-.79,3.77,3.77,0,0,1,1.53-.28,4.37,4.37,0,0,1,1.5.25,3.32,3.32,0,0,1,1.19.73l-.41.89a4,4,0,0,0-1.1-.67,3.34,3.34,0,0,0-1.18-.22,2.14,2.14,0,0,0-1.25.32,1,1,0,0,0-.44.85,1,1,0,0,0,.28.74,1.89,1.89,0,0,0,.89.42l1.27.32a2.89,2.89,0,0,1,1.57.74,1.77,1.77,0,0,1,.5,1.31A1.84,1.84,0,0,1,106,22,3.57,3.57,0,0,1,103.84,22.61Z"/><path class="cls-9" d="M111.28,22.61a4.42,4.42,0,0,1-3-1l.41-.9a4.11,4.11,0,0,0,1.24.68,4.17,4.17,0,0,0,1.41.22,2.41,2.41,0,0,0,1.3-.29,1,1,0,0,0,.44-.85.89.89,0,0,0-.3-.71,2.3,2.3,0,0,0-1-.43l-1.27-.3A2.78,2.78,0,0,1,109,18.3a1.78,1.78,0,0,1-.52-1.29,1.93,1.93,0,0,1,.36-1.16,2.34,2.34,0,0,1,1-.79,3.77,3.77,0,0,1,1.53-.28,4.37,4.37,0,0,1,1.5.25,3.32,3.32,0,0,1,1.19.73l-.41.89a4,4,0,0,0-1.1-.67,3.34,3.34,0,0,0-1.18-.22,2.14,2.14,0,0,0-1.25.32,1,1,0,0,0-.44.85,1,1,0,0,0,.28.74,1.89,1.89,0,0,0,.89.42l1.27.32a2.89,2.89,0,0,1,1.57.74,1.77,1.77,0,0,1,.5,1.31,1.84,1.84,0,0,1-.79,1.56A3.57,3.57,0,0,1,111.28,22.61Z"/></g><g class="cls-8"><rect class="cls-9" x="117.67" y="10" width="60.22" height="16" rx="4"/></g><g class="cls-10"><path class="cls-11" d="M123.84,22.5v-11h1.21v11Z"/><path class="cls-11" d="M133.59,21.6a3.58,3.58,0,0,1-1.27.74,5,5,0,0,1-1.58.27,4.13,4.13,0,0,1-2-.47,3.19,3.19,0,0,1-1.31-1.34,4.57,4.57,0,0,1-.45-2.09,4.5,4.5,0,0,1,.45-2.06,3.34,3.34,0,0,1,1.25-1.38,3.43,3.43,0,0,1,1.85-.49,3.2,3.2,0,0,1,1.73.44,2.86,2.86,0,0,1,1.1,1.27,4.76,4.76,0,0,1,.38,2v.22H128v-.8h5l-.39.56a3.08,3.08,0,0,0-.52-2,1.88,1.88,0,0,0-1.59-.71,2.1,2.1,0,0,0-1.72.77,3.31,3.31,0,0,0-.62,2.14,3.27,3.27,0,0,0,.65,2.22,2.39,2.39,0,0,0,1.91.75,3.65,3.65,0,0,0,1.27-.22,4.11,4.11,0,0,0,1.16-.66Z"/><path class="cls-11" d="M134.49,15.92V15H139v1Zm4.74-3.35a2.85,2.85,0,0,0-.78-.12,1.59,1.59,0,0,0-.66.13.92.92,0,0,0-.45.46,2,2,0,0,0-.17.91V22.5H136V13.8a2.45,2.45,0,0,1,.6-1.81,2.27,2.27,0,0,1,1.65-.59l.51,0a3.1,3.1,0,0,1,.51.11Z"/><path class="cls-11" d="M139.2,15.92V15H144v1Zm4.81,5.5v1a5,5,0,0,1-.5.11,4.58,4.58,0,0,1-.55,0,2.29,2.29,0,0,1-1.67-.6,2.37,2.37,0,0,1-.62-1.8V13l1.21-.43V20a2.11,2.11,0,0,0,.17.93,1,1,0,0,0,.48.46,1.78,1.78,0,0,0,.67.12,2.62,2.62,0,0,0,.41,0A2.73,2.73,0,0,0,144,21.42Z"/></g><g class="cls-10"><path class="cls-9" d="M188,22.5v-11h1.21v11Z"/><path class="cls-9" d="M197.72,21.6a3.49,3.49,0,0,1-1.27.74,5,5,0,0,1-1.58.27,4.16,4.16,0,0,1-2-.47,3.17,3.17,0,0,1-1.3-1.34,4.44,4.44,0,0,1-.46-2.09,4.5,4.5,0,0,1,.45-2.06,3.41,3.41,0,0,1,1.25-1.38,3.46,3.46,0,0,1,1.85-.49,3.2,3.2,0,0,1,1.73.44,2.8,2.8,0,0,1,1.1,1.27,4.6,4.6,0,0,1,.38,2v.22h-5.7v-.8h5l-.39.56a3.14,3.14,0,0,0-.51-2,1.91,1.91,0,0,0-1.6-.71,2.11,2.11,0,0,0-1.72.77,3.36,3.36,0,0,0-.62,2.14,3.32,3.32,0,0,0,.65,2.22,2.4,2.4,0,0,0,1.91.75,3.61,3.61,0,0,0,1.27-.22,4,4,0,0,0,1.16-.66Z"/><path class="cls-9" d="M201.83,22.5,198.62,15h1.27l2.73,6.65h-.36L205,15h1.22L203,22.5Z"/><path class="cls-9" d="M213.66,21.6a3.53,3.53,0,0,1-1.26.74,5.1,5.1,0,0,1-1.59.27,4.09,4.09,0,0,1-2-.47,3.19,3.19,0,0,1-1.31-1.34,4.57,4.57,0,0,1-.46-2.09,4.5,4.5,0,0,1,.45-2.06,3.37,3.37,0,0,1,1.26-1.38,3.43,3.43,0,0,1,1.85-.49,3.17,3.17,0,0,1,1.72.44,2.88,2.88,0,0,1,1.11,1.27,4.76,4.76,0,0,1,.38,2v.22h-5.7v-.8h5l-.39.56a3.08,3.08,0,0,0-.52-2,1.9,1.9,0,0,0-1.6-.71,2.08,2.08,0,0,0-1.71.77,3.31,3.31,0,0,0-.63,2.14,3.27,3.27,0,0,0,.66,2.22,2.39,2.39,0,0,0,1.91.75,3.65,3.65,0,0,0,1.27-.22,4.11,4.11,0,0,0,1.16-.66Z"/><path class="cls-9" d="M215.64,22.5v-11h1.22v11Z"/></g><rect class="cls-12" x="117.67" y="42.69" width="60.1" height="35.45" rx="5.81"/><g class="cls-10"><path class="cls-11" d="M123.24,55.56v-11h1.22v11Z"/><path class="cls-11" d="M133,54.66a3.49,3.49,0,0,1-1.27.74,4.73,4.73,0,0,1-1.58.27,4.16,4.16,0,0,1-2-.47,3.12,3.12,0,0,1-1.3-1.34,4.94,4.94,0,0,1,0-4.14,3.44,3.44,0,0,1,1.25-1.39,3.58,3.58,0,0,1,1.86-.49,3.26,3.26,0,0,1,1.72.44,2.85,2.85,0,0,1,1.1,1.27,4.6,4.6,0,0,1,.39,2v.23h-5.7V51h5l-.39.55a3.14,3.14,0,0,0-.52-2,1.91,1.91,0,0,0-1.6-.71,2.09,2.09,0,0,0-1.72.78,4,4,0,0,0,0,4.35,2.39,2.39,0,0,0,1.92.75,3.79,3.79,0,0,0,1.26-.21,4.06,4.06,0,0,0,1.17-.67Z"/><path class="cls-11" d="M133.89,49V48h4.53v1Zm4.74-3.35a2.85,2.85,0,0,0-.78-.12,1.67,1.67,0,0,0-.65.13.94.94,0,0,0-.46.46,2.06,2.06,0,0,0-.16.91v8.55h-1.22v-8.7a2.41,2.41,0,0,1,.6-1.8,2.22,2.22,0,0,1,1.65-.59,4.35,4.35,0,0,1,.51,0,3.1,3.1,0,0,1,.51.11Z"/><path class="cls-11" d="M138.6,49V48h4.85v1Zm4.82,5.5v1a3.1,3.1,0,0,1-.51.11,3,3,0,0,1-.54,0,2.33,2.33,0,0,1-1.68-.6,2.41,2.41,0,0,1-.62-1.8V46.08l1.22-.43V53.1a2,2,0,0,0,.17.93.88.88,0,0,0,.47.46,1.65,1.65,0,0,0,.68.13,2.41,2.41,0,0,0,.4,0A2.83,2.83,0,0,0,143.42,54.48Z"/><path class="cls-11" d="M123.24,73.56V68.13c0-.35,0-.7,0-1s0-.71-.1-1.06h1.16l.16,1.86-.16,0a2.4,2.4,0,0,1,.9-1.49,2.67,2.67,0,0,1,1.57-.5l.37,0,.32.07,0,1.11a2.39,2.39,0,0,0-.79-.12,1.92,1.92,0,0,0-2,1.22,3.05,3.05,0,0,0-.21,1.12v4.3Z"/><path class="cls-11" d="M128.55,62.82H130V64.2h-1.49Zm.12,10.74V66h1.22v7.54Z"/><path class="cls-11" d="M135.56,76.91a5.53,5.53,0,0,1-3-.78l.21-1a6,6,0,0,0,1.33.58,5.23,5.23,0,0,0,1.43.18,2.21,2.21,0,0,0,1.64-.57,2.41,2.41,0,0,0,.56-1.72v-2l.17-.2a2.82,2.82,0,0,1-.57,1,2.55,2.55,0,0,1-.93.68,3.15,3.15,0,0,1-1.26.24,3.34,3.34,0,0,1-1.77-.47,3.29,3.29,0,0,1-1.18-1.32,4.7,4.7,0,0,1,0-3.93,3.26,3.26,0,0,1,1.18-1.31,3.34,3.34,0,0,1,1.77-.47,2.92,2.92,0,0,1,1.77.52,2.49,2.49,0,0,1,1,1.44l-.18-.16V66H139v7.49a3,3,0,0,1-3.4,3.4Zm-.15-4.59a2.1,2.1,0,0,0,1.71-.73,3.49,3.49,0,0,0,0-4,2.1,2.1,0,0,0-1.71-.73,2.19,2.19,0,0,0-1.75.73,3.46,3.46,0,0,0,0,4A2.21,2.21,0,0,0,135.41,72.32Z"/><path class="cls-11" d="M141.3,73.56v-11h1.22v5l-.2.15a2.61,2.61,0,0,1,1.05-1.39,3.12,3.12,0,0,1,1.7-.47c1.81,0,2.71,1,2.71,3v4.74h-1.21V68.88a2.29,2.29,0,0,0-.42-1.53,1.64,1.64,0,0,0-1.32-.49,2.21,2.21,0,0,0-1.68.65,2.34,2.34,0,0,0-.63,1.73v4.32Z"/><path class="cls-11" d="M149,67V66h4.85v1Zm4.82,5.5v1a3.1,3.1,0,0,1-.51.11,3,3,0,0,1-.54,0,2.33,2.33,0,0,1-1.68-.6,2.41,2.41,0,0,1-.62-1.8V64.08l1.22-.43V71.1a2,2,0,0,0,.17.93.88.88,0,0,0,.47.46,1.65,1.65,0,0,0,.68.13,2.41,2.41,0,0,0,.4,0A2.83,2.83,0,0,0,153.83,72.48Z"/></g><polygon class="cls-11" points="168.91 55.38 173.88 46.75 163.93 46.75 168.91 55.38"/><polygon class="cls-11" points="168.91 22.31 173.88 13.69 163.93 13.69 168.91 22.31"/></g></g></svg>