<svg xmlns="http://www.w3.org/2000/svg" viewBox="0 0 595.39 140.25"><defs><style>.cls-1{fill:none;}.cls-2{fill:#483d86;}.cls-3{fill:#5c4da0;}.cls-4{fill:#8d82bd;}.cls-5{isolation:isolate;}.cls-6{fill:#fff;}.cls-7{opacity:0.6;}.cls-8{fill:#010101;}.cls-9{fill:#afa7d1;}</style></defs><g id="Layer_2" data-name="Layer 2"><g id="Layer_1-2" data-name="Layer 1"><rect class="cls-1" x="0.12" width="595.28" height="18"/><path class="cls-2" d="M9.12,1H260.7V26H9.12V21c0-10-8,8-8-7.5s8,2.5,8-7.5Z"/><path class="cls-3" d="M8.12,0H259.7V25H8.12V20c0-10-8,8-8-7.5s8,2.5,8-7.5Z"/><path class="cls-4" d="M9.12,24.5h-1v-6h1ZM.77,18.13a20.9,20.9,0,0,1,0-11.26l1,.26a19.79,19.79,0,0,0,0,10.74ZM9.12,8h-1V0H259.2V1H9.12Z"/><g class="cls-5"><path class="cls-6" d="M19.29,17.5V12.07c0-.35,0-.7,0-1.06a9.1,9.1,0,0,0-.09-1h1.15l.17,1.86-.17-.05a2.32,2.32,0,0,1,.91-1.49,2.58,2.58,0,0,1,1.57-.5,2.06,2.06,0,0,1,.36,0,1.14,1.14,0,0,1,.33.07l0,1.1a2.76,2.76,0,0,0-.8-.11,2.06,2.06,0,0,0-1.25.34,1.92,1.92,0,0,0-.69.88,2.8,2.8,0,0,0-.22,1.12v4.3Z"/><path class="cls-6" d="M30.75,16.6a3.42,3.42,0,0,1-1.27.73,4.78,4.78,0,0,1-1.58.28,4.13,4.13,0,0,1-2-.47,3.19,3.19,0,0,1-1.31-1.34,4.57,4.57,0,0,1-.45-2.09,4.47,4.47,0,0,1,.45-2.06,3.34,3.34,0,0,1,1.25-1.38,3.43,3.43,0,0,1,1.85-.49,3.2,3.2,0,0,1,1.73.44,2.86,2.86,0,0,1,1.1,1.27,4.74,4.74,0,0,1,.38,2v.23h-5.7v-.8h5l-.39.56a3.13,3.13,0,0,0-.52-2,1.9,1.9,0,0,0-1.59-.7,2.1,2.1,0,0,0-1.72.77,3.31,3.31,0,0,0-.62,2.14A3.27,3.27,0,0,0,26,15.85a2.39,2.39,0,0,0,1.91.75,3.65,3.65,0,0,0,1.27-.22,3.92,3.92,0,0,0,1.16-.67Z"/><path class="cls-6" d="M35.62,17.61a3.2,3.2,0,0,1-1.76-.48,3,3,0,0,1-1.17-1.35,4.71,4.71,0,0,1-.41-2.06,4.78,4.78,0,0,1,.42-2.07,3.31,3.31,0,0,1,1.17-1.38,3.14,3.14,0,0,1,1.75-.49,3,3,0,0,1,1.76.51,2.47,2.47,0,0,1,1,1.45l-.18.12V10h1.2V17.5h-1.2V15.55l.18.09a2.5,2.5,0,0,1-1,1.45A2.91,2.91,0,0,1,35.62,17.61Zm.24-1a2,2,0,0,0,1.71-.76,3.38,3.38,0,0,0,.6-2.15,3.32,3.32,0,0,0-.61-2.15,2.06,2.06,0,0,0-1.7-.75,2.08,2.08,0,0,0-1.73.78,3.3,3.3,0,0,0-.62,2.15,3.22,3.22,0,0,0,.62,2.13A2.12,2.12,0,0,0,35.86,16.6Z"/><path class="cls-6" d="M48.37,17.5h-1.2v-2l.18.17a2.5,2.5,0,0,1-1,1.45,2.91,2.91,0,0,1-1.76.52,3.22,3.22,0,0,1-1.75-.49,3.31,3.31,0,0,1-1.17-1.38,4.86,4.86,0,0,1-.42-2.08,4.66,4.66,0,0,1,.41-2.05,3.17,3.17,0,0,1,1.17-1.36,3.28,3.28,0,0,1,1.76-.47,3,3,0,0,1,1.76.51,2.56,2.56,0,0,1,1,1.45l-.19.15V6.46h1.21Zm-3.51-.9a2,2,0,0,0,1.7-.76,3.32,3.32,0,0,0,.61-2.15,3.38,3.38,0,0,0-.6-2.14,2.07,2.07,0,0,0-1.71-.76,2.12,2.12,0,0,0-1.73.75,3.21,3.21,0,0,0-.62,2.12,3.36,3.36,0,0,0,.62,2.17A2.1,2.1,0,0,0,44.86,16.6Z"/><path class="cls-6" d="M59.52,17.62A5.58,5.58,0,0,1,56.76,17,4.31,4.31,0,0,1,55,15.09a6.5,6.5,0,0,1-.61-2.95A6.47,6.47,0,0,1,55,9.21a4.31,4.31,0,0,1,1.74-1.87,5.42,5.42,0,0,1,2.68-.64,5.82,5.82,0,0,1,2,.34,4.35,4.35,0,0,1,1.63,1L62.62,9a5.42,5.42,0,0,0-1.53-1,4.63,4.63,0,0,0-1.66-.29,3.5,3.5,0,0,0-2.79,1.13,4.93,4.93,0,0,0-1,3.26,4.88,4.88,0,0,0,1,3.31,3.6,3.6,0,0,0,2.88,1.13,7.68,7.68,0,0,0,1.52-.14,7,7,0,0,0,1.34-.38l-.3.63V12.91H59.46v-1h3.78v4.95a4.52,4.52,0,0,1-1,.4,11.73,11.73,0,0,1-1.31.25A10.66,10.66,0,0,1,59.52,17.62Z"/><path class="cls-6" d="M65.53,14V13h4.25v1Z"/><path class="cls-6" d="M72.19,17.5V6.82h4.26a3.75,3.75,0,0,1,2.57.8A2.72,2.72,0,0,1,80,9.8,2.76,2.76,0,0,1,79,12a3.79,3.79,0,0,1-2.57.8h-3v4.7Zm1.23-5.71h2.93a2.68,2.68,0,0,0,1.78-.52,1.85,1.85,0,0,0,.6-1.47,1.79,1.79,0,0,0-.6-1.45,2.68,2.68,0,0,0-1.78-.51H73.42Z"/><path class="cls-6" d="M84.45,17.61a3.26,3.26,0,0,1-1.77-.48,3.11,3.11,0,0,1-1.17-1.35,4.85,4.85,0,0,1-.41-2.06,4.78,4.78,0,0,1,.42-2.07,3.26,3.26,0,0,1,1.18-1.38,3.09,3.09,0,0,1,1.75-.49,2.94,2.94,0,0,1,1.75.51,2.48,2.48,0,0,1,1,1.45l-.18.12V10h1.2V17.5H87V15.55l.18.09a2.51,2.51,0,0,1-1,1.45A2.88,2.88,0,0,1,84.45,17.61Zm.24-1a2.06,2.06,0,0,0,1.71-.76,3.38,3.38,0,0,0,.6-2.15,3.38,3.38,0,0,0-.61-2.15,2.08,2.08,0,0,0-1.7-.75,2.11,2.11,0,0,0-1.74.78,3.36,3.36,0,0,0-.62,2.15A3.28,3.28,0,0,0,83,15.85,2.15,2.15,0,0,0,84.69,16.6Z"/><path class="cls-6" d="M97.2,17.5H96v-2l.18.17a2.51,2.51,0,0,1-1,1.45,2.88,2.88,0,0,1-1.75.52,3.17,3.17,0,0,1-1.75-.49,3.26,3.26,0,0,1-1.18-1.38,4.86,4.86,0,0,1-.42-2.08,4.81,4.81,0,0,1,.41-2.05,3.06,3.06,0,0,1,2.94-1.83,2.94,2.94,0,0,1,1.75.51,2.58,2.58,0,0,1,1,1.45l-.2.15V6.46H97.2Zm-3.51-.9a2.06,2.06,0,0,0,1.7-.76A3.38,3.38,0,0,0,96,13.69a3.38,3.38,0,0,0-.6-2.14,2.08,2.08,0,0,0-1.71-.76,2.15,2.15,0,0,0-1.74.75,3.27,3.27,0,0,0-.62,2.12A3.42,3.42,0,0,0,92,15.83,2.13,2.13,0,0,0,93.69,16.6Z"/><path class="cls-6" d="M103.46,17.5v-11h1.22v5.43l-.17-.15a2.58,2.58,0,0,1,1-1.45,2.93,2.93,0,0,1,1.74-.51,3.25,3.25,0,0,1,1.75.47,3.34,3.34,0,0,1,1.18,1.36,4.52,4.52,0,0,1,.43,2.05,4.71,4.71,0,0,1-.43,2.08A3.33,3.33,0,0,1,109,17.12a3.22,3.22,0,0,1-1.75.49,2.87,2.87,0,0,1-1.74-.52,2.51,2.51,0,0,1-1-1.45l.17-.17v2Zm3.54-.9a2.08,2.08,0,0,0,1.71-.77,3.42,3.42,0,0,0,.62-2.17,3.27,3.27,0,0,0-.62-2.12,2.33,2.33,0,0,0-3.43,0,3.38,3.38,0,0,0-.6,2.14,3.38,3.38,0,0,0,.6,2.15A2,2,0,0,0,107,16.6Z"/><path class="cls-6" d="M115.13,17.61a2.61,2.61,0,0,1-2-.75,3.23,3.23,0,0,1-.68-2.23V10h1.21v4.65a2.24,2.24,0,0,0,.42,1.5,1.65,1.65,0,0,0,1.28.47,2.13,2.13,0,0,0,1.62-.64,2.41,2.41,0,0,0,.61-1.73V10h1.22V17.5h-1.19V15.87l.18-.09a2.48,2.48,0,0,1-1,1.36A2.91,2.91,0,0,1,115.13,17.61Z"/><path class="cls-6" d="M120.05,10.92V10h4.85v1Zm4.82,5.5v1l-.5.11a4.58,4.58,0,0,1-.55,0,2.26,2.26,0,0,1-1.67-.61,2.35,2.35,0,0,1-.63-1.79V8l1.22-.44V15a2.11,2.11,0,0,0,.17.93,1,1,0,0,0,.47.46,1.83,1.83,0,0,0,.68.12l.4,0Z"/><path class="cls-6" d="M125.35,10.92V10h4.84v1Zm4.81,5.5v1l-.5.11a4.43,4.43,0,0,1-.55,0,2.27,2.27,0,0,1-1.67-.61,2.39,2.39,0,0,1-.62-1.79V8L128,7.58V15a2,2,0,0,0,.18.93,1,1,0,0,0,.47.46,1.78,1.78,0,0,0,.67.12l.41,0Z"/><path class="cls-6" d="M134.78,17.61a3.51,3.51,0,0,1-1.88-.49,3.24,3.24,0,0,1-1.24-1.35,4.52,4.52,0,0,1-.45-2.08,4.51,4.51,0,0,1,.45-2.07,3.3,3.3,0,0,1,1.24-1.37,3.69,3.69,0,0,1,1.88-.47,3.73,3.73,0,0,1,1.89.47,3.3,3.3,0,0,1,1.24,1.37,4.51,4.51,0,0,1,.44,2.07,4.52,4.52,0,0,1-.44,2.08,3.24,3.24,0,0,1-1.24,1.35A3.55,3.55,0,0,1,134.78,17.61Zm0-1a2.11,2.11,0,0,0,1.72-.74,3.34,3.34,0,0,0,.61-2.17,3.32,3.32,0,0,0-.62-2.15,2.32,2.32,0,0,0-3.42,0,3.26,3.26,0,0,0-.63,2.15,3.4,3.4,0,0,0,.61,2.17A2.13,2.13,0,0,0,134.78,16.6Z"/><path class="cls-6" d="M140.24,17.5V12.07c0-.35,0-.7,0-1.06a9.1,9.1,0,0,0-.1-1h1.16l.13,1.55-.15.12a2.59,2.59,0,0,1,1.05-1.38,3,3,0,0,1,1.7-.47c1.81,0,2.71,1,2.71,3V17.5h-1.21V12.82a2.34,2.34,0,0,0-.42-1.54,1.67,1.67,0,0,0-1.32-.49,2.24,2.24,0,0,0-1.68.65,2.38,2.38,0,0,0-.63,1.74V17.5Z"/><path class="cls-6" d="M156.05,17.61a3.51,3.51,0,0,1-1.88-.49,3.24,3.24,0,0,1-1.24-1.35,4.52,4.52,0,0,1-.45-2.08,4.51,4.51,0,0,1,.45-2.07,3.3,3.3,0,0,1,1.24-1.37,3.69,3.69,0,0,1,1.88-.47,3.73,3.73,0,0,1,1.89.47,3.3,3.3,0,0,1,1.24,1.37,4.51,4.51,0,0,1,.44,2.07,4.52,4.52,0,0,1-.44,2.08,3.24,3.24,0,0,1-1.24,1.35A3.55,3.55,0,0,1,156.05,17.61Zm0-1a2.11,2.11,0,0,0,1.72-.74,3.34,3.34,0,0,0,.61-2.17,3.32,3.32,0,0,0-.62-2.15,2.32,2.32,0,0,0-3.42,0,3.26,3.26,0,0,0-.63,2.15,3.4,3.4,0,0,0,.61,2.17A2.13,2.13,0,0,0,156.05,16.6Z"/><path class="cls-6" d="M161.51,17.5V12.07c0-.35,0-.7,0-1.06a9.1,9.1,0,0,0-.1-1h1.16l.13,1.55-.15.12a2.59,2.59,0,0,1,1.05-1.38,3,3,0,0,1,1.7-.47c1.81,0,2.71,1,2.71,3V17.5h-1.21V12.82a2.34,2.34,0,0,0-.42-1.54,1.67,1.67,0,0,0-1.32-.49,2.24,2.24,0,0,0-1.68.65,2.38,2.38,0,0,0-.63,1.74V17.5Z"/><path class="cls-6" d="M173.45,17.61a3.61,3.61,0,0,1-1.92-.49,3.24,3.24,0,0,1-1.25-1.34,4.57,4.57,0,0,1-.44-2.06,4.5,4.5,0,0,1,.45-2.06,3.29,3.29,0,0,1,1.27-1.39,3.72,3.72,0,0,1,1.95-.49A4.12,4.12,0,0,1,175,10a3.22,3.22,0,0,1,1.18.72l-.41.91a4.9,4.9,0,0,0-1.08-.66,3,3,0,0,0-1.11-.22,2.26,2.26,0,0,0-1.8.77,3.16,3.16,0,0,0-.67,2.16,3.12,3.12,0,0,0,.66,2.13,2.28,2.28,0,0,0,1.81.75,2.84,2.84,0,0,0,1.1-.22,4.35,4.35,0,0,0,1.09-.65l.41.9a3.34,3.34,0,0,1-1.21.71A4.29,4.29,0,0,1,173.45,17.61Z"/><path class="cls-6" d="M183.89,16.6a3.38,3.38,0,0,1-1.26.73,4.84,4.84,0,0,1-1.59.28,4.09,4.09,0,0,1-2-.47,3.19,3.19,0,0,1-1.31-1.34,4.57,4.57,0,0,1-.46-2.09,4.47,4.47,0,0,1,.45-2.06A3.37,3.37,0,0,1,179,10.27a3.43,3.43,0,0,1,1.85-.49,3.17,3.17,0,0,1,1.72.44,2.88,2.88,0,0,1,1.11,1.27,4.74,4.74,0,0,1,.38,2v.23h-5.7v-.8h5l-.39.56a3.13,3.13,0,0,0-.52-2,1.92,1.92,0,0,0-1.6-.7,2.08,2.08,0,0,0-1.71.77,3.31,3.31,0,0,0-.63,2.14,3.27,3.27,0,0,0,.66,2.22,2.39,2.39,0,0,0,1.91.75,3.65,3.65,0,0,0,1.27-.22,3.92,3.92,0,0,0,1.16-.67Z"/></g><g class="cls-7"><rect class="cls-6" x="191" y="5" width="63.7" height="16" rx="4"/></g><g class="cls-5"><path class="cls-8" d="M197.32,17.5V6.82h4.29a3.93,3.93,0,0,1,2.53.73,2.48,2.48,0,0,1,.92,2.06,2.5,2.5,0,0,1-.5,1.57,2.71,2.71,0,0,1-1.39.9V12a2.6,2.6,0,0,1,1.57.89,2.64,2.64,0,0,1,.57,1.74,2.61,2.61,0,0,1-.93,2.16,4.07,4.07,0,0,1-2.62.75Zm1.21-5.94h2.88a2.94,2.94,0,0,0,1.83-.48,1.7,1.7,0,0,0,.6-1.41,1.61,1.61,0,0,0-.6-1.37,3,3,0,0,0-1.83-.46h-2.88Zm0,4.92h3.12a3,3,0,0,0,1.86-.47,1.73,1.73,0,0,0,.59-1.45,1.8,1.8,0,0,0-.6-1.47,2.88,2.88,0,0,0-1.85-.5h-3.12Z"/><path class="cls-8" d="M206.2,18.29V17.5h7.33v.79Z"/><path class="cls-8" d="M218.84,17.62a4.24,4.24,0,0,1-3.16-1.09,4.36,4.36,0,0,1-1.08-3.21V6.82h1.21v6.6a3.25,3.25,0,0,0,.77,2.36,3.6,3.6,0,0,0,4.5,0,3.28,3.28,0,0,0,.76-2.36V6.82h1.23v6.5A4.42,4.42,0,0,1,222,16.53,4.27,4.27,0,0,1,218.84,17.62Z"/><path class="cls-8" d="M225.64,17.5V6.82h4.26a3.75,3.75,0,0,1,2.57.8,2.71,2.71,0,0,1,.92,2.18,2.76,2.76,0,0,1-.93,2.2,3.76,3.76,0,0,1-2.56.8h-3v4.7Zm1.23-5.71h2.92a2.71,2.71,0,0,0,1.79-.52,1.85,1.85,0,0,0,.6-1.47,1.79,1.79,0,0,0-.6-1.45,2.71,2.71,0,0,0-1.79-.51h-2.92Z"/></g><polygon class="cls-8" points="245.72 17.31 250.7 8.69 240.74 8.69 245.72 17.31"/><rect class="cls-9" x="191" y="31.69" width="78.74" height="108.56" rx="5.67"/><g class="cls-5"><path class="cls-8" d="M196.72,44.57V33.89H201a4,4,0,0,1,2.54.72,2.5,2.5,0,0,1,.91,2.07,2.39,2.39,0,0,1-.5,1.56,2.68,2.68,0,0,1-1.39.91V39a2.78,2.78,0,0,1,1.22,4.79,4.1,4.1,0,0,1-2.63.75Zm1.22-5.94h2.88a2.89,2.89,0,0,0,1.82-.48,1.68,1.68,0,0,0,.61-1.41,1.64,1.64,0,0,0-.6-1.38,3,3,0,0,0-1.83-.45h-2.88Zm0,4.92h3.12a3,3,0,0,0,1.85-.47,1.71,1.71,0,0,0,.59-1.45,1.8,1.8,0,0,0-.6-1.47,2.85,2.85,0,0,0-1.84-.5h-3.12Z"/><path class="cls-8" d="M205.6,45.36v-.79h7.34v.79Z"/><path class="cls-8" d="M218.25,44.69a4.31,4.31,0,0,1-3.17-1.09A4.4,4.4,0,0,1,214,40.38V33.89h1.22v6.6a3.27,3.27,0,0,0,.76,2.36,3.05,3.05,0,0,0,2.27.79,3,3,0,0,0,2.23-.8,3.26,3.26,0,0,0,.77-2.35v-6.6h1.23v6.49a4.39,4.39,0,0,1-1.08,3.21A4.23,4.23,0,0,1,218.25,44.69Z"/><path class="cls-8" d="M225,44.57V33.89h4.26a3.85,3.85,0,0,1,2.58.79,3.06,3.06,0,0,1,0,4.38,3.79,3.79,0,0,1-2.57.81h-3v4.7Zm1.23-5.72h2.93a2.63,2.63,0,0,0,1.78-.52,1.81,1.81,0,0,0,.6-1.46,1.79,1.79,0,0,0-.6-1.45,2.68,2.68,0,0,0-1.78-.51h-2.93Z"/><path class="cls-8" d="M196.72,62.57V51.89H201a4,4,0,0,1,2.54.72,2.5,2.5,0,0,1,.91,2.07,2.39,2.39,0,0,1-.5,1.56,2.68,2.68,0,0,1-1.39.91V57a2.78,2.78,0,0,1,1.22,4.79,4.1,4.1,0,0,1-2.63.75Zm1.22-5.94h2.88a2.89,2.89,0,0,0,1.82-.48,1.68,1.68,0,0,0,.61-1.41,1.64,1.64,0,0,0-.6-1.38,3,3,0,0,0-1.83-.45h-2.88Zm0,4.92h3.12a3,3,0,0,0,1.85-.47,1.71,1.71,0,0,0,.59-1.45,1.8,1.8,0,0,0-.6-1.47,2.85,2.85,0,0,0-1.84-.5h-3.12Z"/><path class="cls-8" d="M205.6,63.36v-.79h7.34v.79Z"/><path class="cls-8" d="M214.38,62.57V51.89H218a6.19,6.19,0,0,1,2.91.62,4.21,4.21,0,0,1,1.83,1.81,7,7,0,0,1,0,5.79,4.33,4.33,0,0,1-1.84,1.83,6.18,6.18,0,0,1-2.9.63Zm1.23-1h2.28A4.12,4.12,0,0,0,221,60.44a4.47,4.47,0,0,0,1-3.23q0-4.27-4.15-4.27h-2.28Z"/><path class="cls-8" d="M230,62.69a4.91,4.91,0,0,1-2.59-.66,4.43,4.43,0,0,1-1.68-1.89,7.56,7.56,0,0,1,0-5.83,4.28,4.28,0,0,1,1.68-1.88,5.43,5.43,0,0,1,5.19,0,4.28,4.28,0,0,1,1.68,1.88,6.64,6.64,0,0,1,.59,2.9,6.78,6.78,0,0,1-.59,2.93A4.43,4.43,0,0,1,232.63,62,4.91,4.91,0,0,1,230,62.69Zm0-1a3.25,3.25,0,0,0,2.64-1.15,5,5,0,0,0,.94-3.28,5,5,0,0,0-.94-3.26A3.23,3.23,0,0,0,230,52.82,3.27,3.27,0,0,0,227.39,54a5,5,0,0,0-.95,3.25,5,5,0,0,0,.95,3.27A3.26,3.26,0,0,0,230,61.64Z"/><path class="cls-8" d="M239.82,62.57l-3.75-10.68h1.26l3.27,9.63h-.48l3.34-9.63h.95l3.28,9.62h-.46l3.3-9.63h1.21L248,62.57h-1l-3.21-9.21h.33l-3.23,9.21Z"/><path class="cls-8" d="M253.57,62.57V51.89h1L261.33,61l-.36.09V51.89h1.17V62.57h-1l-6.8-9.06.35-.11v9.17Z"/><path class="cls-8" d="M196.72,80.57V69.89H201a4,4,0,0,1,2.54.72,2.5,2.5,0,0,1,.91,2.07,2.39,2.39,0,0,1-.5,1.56,2.68,2.68,0,0,1-1.39.91V75a2.78,2.78,0,0,1,1.22,4.79,4.1,4.1,0,0,1-2.63.75Zm1.22-5.94h2.88a2.89,2.89,0,0,0,1.82-.48,1.68,1.68,0,0,0,.61-1.41,1.64,1.64,0,0,0-.6-1.38,3,3,0,0,0-1.83-.45h-2.88Zm0,4.92h3.12a3,3,0,0,0,1.85-.47,1.71,1.71,0,0,0,.59-1.45,1.8,1.8,0,0,0-.6-1.47,2.85,2.85,0,0,0-1.84-.5h-3.12Z"/><path class="cls-8" d="M205.6,81.36v-.79h7.34v.79Z"/><path class="cls-8" d="M214.38,80.57V69.89h1.23v9.63H221v1Z"/><path class="cls-8" d="M222.55,80.57V69.89h6.75v1h-5.53v3.72H229v1h-5.23v3.89h5.53v1Z"/><path class="cls-8" d="M231.37,80.57V69.89H238v1h-5.38v3.71h5.08v1h-5.08v4.91Z"/><path class="cls-8" d="M242.43,80.57V70.94h-3.72v-1h8.68v1h-3.72v9.63Z"/><path class="cls-8" d="M196.72,98.57V87.89H201a4,4,0,0,1,2.54.72,2.5,2.5,0,0,1,.91,2.07,2.39,2.39,0,0,1-.5,1.56,2.68,2.68,0,0,1-1.39.91V93a2.78,2.78,0,0,1,1.22,4.79,4.1,4.1,0,0,1-2.63.75Zm1.22-5.94h2.88a2.89,2.89,0,0,0,1.82-.48,1.68,1.68,0,0,0,.61-1.41,1.64,1.64,0,0,0-.6-1.38,3,3,0,0,0-1.83-.45h-2.88Zm0,4.92h3.12a3,3,0,0,0,1.85-.47,1.71,1.71,0,0,0,.59-1.45,1.8,1.8,0,0,0-.6-1.47,2.85,2.85,0,0,0-1.84-.5h-3.12Z"/><path class="cls-8" d="M205.6,99.36v-.79h7.34v.79Z"/><path class="cls-8" d="M214.38,98.57V87.89h4.24a4,4,0,0,1,2.65.76,2.7,2.7,0,0,1,.92,2.21,2.67,2.67,0,0,1-.93,2.16,4,4,0,0,1-2.64.79l1.11-.21a1.65,1.65,0,0,1,1,.32,2.23,2.23,0,0,1,.67,1l1.35,3.62h-1.3L220.14,95a1.49,1.49,0,0,0-.7-.89,2.61,2.61,0,0,0-1.18-.22h-2.67v4.67Zm1.21-5.69h2.93a2.82,2.82,0,0,0,1.85-.51,1.83,1.83,0,0,0,.61-1.5,1.8,1.8,0,0,0-.6-1.48,3,3,0,0,0-1.86-.48h-2.93Z"/><path class="cls-8" d="M224.77,98.57V87.89H226V98.57Z"/><path class="cls-8" d="M233.37,98.69a5.41,5.41,0,0,1-2.75-.66,4.3,4.3,0,0,1-1.76-1.87,6.66,6.66,0,0,1-.61-3,6.57,6.57,0,0,1,.61-2.93,4.32,4.32,0,0,1,1.74-1.87,5.34,5.34,0,0,1,2.68-.64,6.16,6.16,0,0,1,2.05.33,4.55,4.55,0,0,1,1.62,1l-.48.94a5.37,5.37,0,0,0-1.53-1,4.42,4.42,0,0,0-1.66-.29A3.43,3.43,0,0,0,230.5,90a4.84,4.84,0,0,0-1,3.26,4.9,4.9,0,0,0,1,3.31,3.63,3.63,0,0,0,2.88,1.13,8.42,8.42,0,0,0,1.52-.14,7.61,7.61,0,0,0,1.34-.38l-.3.63V94h-2.65V93h3.78v5a4.84,4.84,0,0,1-1,.39,9.64,9.64,0,0,1-1.3.26A10.93,10.93,0,0,1,233.37,98.69Z"/><path class="cls-8" d="M239.61,98.57V87.89h1.21V98.57Zm.57-4.91v-1h7.74v1Zm7,4.91V87.89h1.23V98.57Z"/><path class="cls-8" d="M253.68,98.57V88.94H250v-1h8.68v1h-3.72v9.63Z"/><path class="cls-8" d="M196.72,116.57V105.89H201a4,4,0,0,1,2.54.72,2.5,2.5,0,0,1,.91,2.07,2.39,2.39,0,0,1-.5,1.56,2.68,2.68,0,0,1-1.39.91V111a2.78,2.78,0,0,1,1.22,4.79,4.1,4.1,0,0,1-2.63.75Zm1.22-5.94h2.88a2.89,2.89,0,0,0,1.82-.48,1.68,1.68,0,0,0,.61-1.41,1.64,1.64,0,0,0-.6-1.38,3,3,0,0,0-1.83-.45h-2.88Zm0,4.92h3.12a3,3,0,0,0,1.85-.47,1.71,1.71,0,0,0,.59-1.45,1.8,1.8,0,0,0-.6-1.47,2.85,2.85,0,0,0-1.84-.5h-3.12Z"/><path class="cls-8" d="M205.6,117.36v-.79h7.34v.79Z"/><path class="cls-8" d="M214.9,116.57h-1.27l4.69-10.68h1.08l4.7,10.68h-1.26l-4.19-9.78h.45Zm.72-2.75.44-1h5.61l.43,1Z"/><path class="cls-8" d="M196.72,134.57V123.89H201a4,4,0,0,1,2.54.72,2.5,2.5,0,0,1,.91,2.07,2.39,2.39,0,0,1-.5,1.56,2.68,2.68,0,0,1-1.39.91V129a2.78,2.78,0,0,1,1.22,4.79,4.1,4.1,0,0,1-2.63.75Zm1.22-5.94h2.88a2.89,2.89,0,0,0,1.82-.48,1.68,1.68,0,0,0,.61-1.41,1.64,1.64,0,0,0-.6-1.38,3,3,0,0,0-1.83-.45h-2.88Zm0,4.92h3.12a3,3,0,0,0,1.85-.47,1.71,1.71,0,0,0,.59-1.45,1.8,1.8,0,0,0-.6-1.47,2.85,2.85,0,0,0-1.84-.5h-3.12Z"/><path class="cls-8" d="M205.6,135.36v-.79h7.34v.79Z"/><path class="cls-8" d="M214.38,134.57V123.89h4.29a4,4,0,0,1,2.53.72,2.51,2.51,0,0,1,.92,2.07,2.45,2.45,0,0,1-.5,1.56,2.72,2.72,0,0,1-1.39.91V129a2.6,2.6,0,0,1,1.57.89,2.64,2.64,0,0,1,.57,1.74,2.61,2.61,0,0,1-.93,2.16,4.07,4.07,0,0,1-2.62.75Zm1.21-5.94h2.88a2.94,2.94,0,0,0,1.83-.48,1.7,1.7,0,0,0,.6-1.41,1.64,1.64,0,0,0-.6-1.38,3,3,0,0,0-1.83-.45h-2.88Zm0,4.92h3.12a3,3,0,0,0,1.86-.47,1.74,1.74,0,0,0,.59-1.45,1.8,1.8,0,0,0-.6-1.47,2.88,2.88,0,0,0-1.85-.5h-3.12Z"/></g><polygon class="cls-8" points="258.72 44.38 263.7 35.75 253.74 35.75 258.72 44.38"/></g></g></svg>