<svg xmlns="http://www.w3.org/2000/svg" viewBox="0 0 595.39 139.84"><defs><style>.cls-1{fill:none;}.cls-2{fill:#483d86;}.cls-3{fill:#5c4da0;}.cls-4{fill:#8d82bd;}.cls-5{isolation:isolate;}.cls-6{fill:#fff;}.cls-7{opacity:0.6;}.cls-8{fill:#010101;}.cls-9{fill:#afa7d1;}</style></defs><g id="Layer_2" data-name="Layer 2"><g id="Layer_1-2" data-name="Layer 1"><rect class="cls-1" x="0.12" width="595.28" height="18"/><path class="cls-2" d="M9.12,1H175.6V26H9.12V21c0-10-8,8-8-7.5s8,2.5,8-7.5Z"/><path class="cls-3" d="M8.12,0H174.6V25H8.12V20c0-10-8,8-8-7.5s8,2.5,8-7.5Z"/><path class="cls-4" d="M9.12,24.5h-1v-6h1ZM.77,18.13a20.9,20.9,0,0,1,0-11.26l1,.26a19.79,19.79,0,0,0,0,10.74ZM9.12,8h-1V0h166V1H9.12Z"/><g class="cls-5"><path class="cls-6" d="M16.29,17.5V12.07c0-.35,0-.7,0-1.06A9.47,9.47,0,0,0,16.17,10h1.15l.17,1.86-.17,0a2.32,2.32,0,0,1,.91-1.49,2.59,2.59,0,0,1,1.57-.51,2,2,0,0,1,.36,0,1.61,1.61,0,0,1,.33.06l0,1.11a2.76,2.76,0,0,0-.8-.11,2.06,2.06,0,0,0-1.25.34,1.92,1.92,0,0,0-.69.88,2.78,2.78,0,0,0-.22,1.11V17.5Z"/><path class="cls-6" d="M27.75,16.6a3.56,3.56,0,0,1-1.27.73,4.78,4.78,0,0,1-1.58.28,4.13,4.13,0,0,1-2-.47,3.19,3.19,0,0,1-1.31-1.34,4.58,4.58,0,0,1-.45-2.1,4.45,4.45,0,0,1,.45-2,3.34,3.34,0,0,1,1.25-1.38,3.44,3.44,0,0,1,1.85-.5,3.21,3.21,0,0,1,1.73.45,2.89,2.89,0,0,1,1.1,1.26,4.76,4.76,0,0,1,.38,2v.23h-5.7v-.8h5l-.39.56a3.13,3.13,0,0,0-.52-2,1.88,1.88,0,0,0-1.59-.7,2.1,2.1,0,0,0-1.72.77,3.31,3.31,0,0,0-.62,2.14A3.27,3.27,0,0,0,23,15.85a2.39,2.39,0,0,0,1.91.75,3.65,3.65,0,0,0,1.27-.22,3.92,3.92,0,0,0,1.16-.67Z"/><path class="cls-6" d="M32.62,17.61a3.2,3.2,0,0,1-1.76-.48,3,3,0,0,1-1.17-1.35,4.71,4.71,0,0,1-.41-2.06,4.78,4.78,0,0,1,.42-2.07,3.31,3.31,0,0,1,1.17-1.38,3.15,3.15,0,0,1,1.75-.5,3,3,0,0,1,1.76.51,2.52,2.52,0,0,1,1,1.46l-.18.12V10h1.2V17.5h-1.2V15.55l.18.09a2.5,2.5,0,0,1-1,1.45A2.91,2.91,0,0,1,32.62,17.61Zm.24-1a2,2,0,0,0,1.71-.76,3.38,3.38,0,0,0,.6-2.15,3.32,3.32,0,0,0-.61-2.15,2.06,2.06,0,0,0-1.7-.75,2.08,2.08,0,0,0-1.73.78,3.3,3.3,0,0,0-.62,2.15,3.22,3.22,0,0,0,.62,2.13A2.12,2.12,0,0,0,32.86,16.6Z"/><path class="cls-6" d="M45.37,17.5h-1.2v-2l.18.17a2.5,2.5,0,0,1-1,1.45,2.91,2.91,0,0,1-1.76.52,3.22,3.22,0,0,1-1.75-.49,3.31,3.31,0,0,1-1.17-1.38,4.86,4.86,0,0,1-.42-2.08,4.66,4.66,0,0,1,.41-2.05,3.06,3.06,0,0,1,1.17-1.36,3.29,3.29,0,0,1,1.76-.48,3,3,0,0,1,1.76.52,2.56,2.56,0,0,1,1,1.45l-.19.15V6.46h1.21Zm-3.51-.9a2,2,0,0,0,1.7-.76,3.32,3.32,0,0,0,.61-2.15,3.38,3.38,0,0,0-.6-2.14,2.07,2.07,0,0,0-1.71-.76,2.12,2.12,0,0,0-1.73.75,3.21,3.21,0,0,0-.62,2.12,3.36,3.36,0,0,0,.62,2.17A2.1,2.1,0,0,0,41.86,16.6Z"/><path class="cls-6" d="M58.29,17.5h-1.2v-2l.18.17a2.51,2.51,0,0,1-1,1.45,2.88,2.88,0,0,1-1.75.52,3.2,3.2,0,0,1-1.75-.49,3.26,3.26,0,0,1-1.18-1.38,4.86,4.86,0,0,1-.42-2.08,4.81,4.81,0,0,1,.41-2.05,3.19,3.19,0,0,1,1.17-1.36,3.35,3.35,0,0,1,1.77-.48,3,3,0,0,1,1.75.52,2.58,2.58,0,0,1,1,1.45l-.2.15V6.46h1.22Zm-3.51-.9a2,2,0,0,0,1.7-.76,3.38,3.38,0,0,0,.61-2.15,3.38,3.38,0,0,0-.6-2.14,2.07,2.07,0,0,0-1.71-.76,2.15,2.15,0,0,0-1.74.75,3.27,3.27,0,0,0-.62,2.12A3.42,3.42,0,0,0,53,15.83,2.13,2.13,0,0,0,54.78,16.6Z"/><path class="cls-6" d="M60.52,6.76H62V8.14H60.52Zm.12,10.74V10h1.22V17.5Z"/><path class="cls-6" d="M67.53,20.84a5.53,5.53,0,0,1-3-.78l.21-1a6,6,0,0,0,1.33.59,5.23,5.23,0,0,0,1.43.18,2.17,2.17,0,0,0,1.64-.58,2.39,2.39,0,0,0,.56-1.72v-2l.17-.19a2.7,2.7,0,0,1-.57,1,2.44,2.44,0,0,1-.93.68,3.15,3.15,0,0,1-1.26.24,3.25,3.25,0,0,1-1.77-.47,3.19,3.19,0,0,1-1.18-1.31,4.24,4.24,0,0,1-.43-2,4.19,4.19,0,0,1,.43-2,3.19,3.19,0,0,1,1.18-1.31,3.26,3.26,0,0,1,1.77-.48,3,3,0,0,1,1.77.52,2.54,2.54,0,0,1,1,1.45l-.18-.17V10h1.21v7.49A3.46,3.46,0,0,1,70.07,20,3.47,3.47,0,0,1,67.53,20.84Zm-.15-4.59a2.13,2.13,0,0,0,1.71-.72,3,3,0,0,0,.63-2,3,3,0,0,0-.63-2,2.13,2.13,0,0,0-1.71-.73,2.22,2.22,0,0,0-1.75.73,2.91,2.91,0,0,0-.64,2,2.91,2.91,0,0,0,.64,2A2.21,2.21,0,0,0,67.38,16.25Z"/><path class="cls-6" d="M73.15,6.76h1.49V8.14H73.15Zm.12,10.74V10h1.22V17.5Z"/><path class="cls-6" d="M75.78,10.91V10h4.84v1Zm4.81,5.51v1l-.5.12a4.58,4.58,0,0,1-.55,0A2.3,2.3,0,0,1,77.87,17a2.36,2.36,0,0,1-.62-1.8V8l1.21-.44V15a2.11,2.11,0,0,0,.17.93,1,1,0,0,0,.48.46,1.78,1.78,0,0,0,.67.12,2.54,2.54,0,0,0,.41,0A2.59,2.59,0,0,0,80.59,16.42Z"/><path class="cls-6" d="M85,17.61a3.26,3.26,0,0,1-1.77-.48,3.11,3.11,0,0,1-1.17-1.35,4.85,4.85,0,0,1-.41-2.06,4.78,4.78,0,0,1,.42-2.07,3.26,3.26,0,0,1,1.18-1.38A3.12,3.12,0,0,1,85,9.77a2.94,2.94,0,0,1,1.75.51,2.54,2.54,0,0,1,1,1.46l-.18.12V10h1.2V17.5h-1.2V15.55l.18.09a2.51,2.51,0,0,1-1,1.45A2.88,2.88,0,0,1,85,17.61Zm.24-1a2,2,0,0,0,1.71-.76,3.38,3.38,0,0,0,.6-2.15,3.38,3.38,0,0,0-.61-2.15,2.07,2.07,0,0,0-1.7-.75,2.11,2.11,0,0,0-1.74.78,3.36,3.36,0,0,0-.62,2.15,3.28,3.28,0,0,0,.62,2.13A2.15,2.15,0,0,0,85.23,16.6Z"/><path class="cls-6" d="M91.09,17.5v-11h1.22v11Z"/><path class="cls-6" d="M98.57,20.74V12.07c0-.35,0-.7,0-1.06a7.6,7.6,0,0,0-.1-1.06h1.16l.13,1.56-.11.23a2.52,2.52,0,0,1,1-1.46,2.93,2.93,0,0,1,1.74-.51,3.15,3.15,0,0,1,1.75.5,3.33,3.33,0,0,1,1.18,1.38,4.64,4.64,0,0,1,.43,2.07,4.57,4.57,0,0,1-.43,2.06,3.13,3.13,0,0,1-1.18,1.35,3.17,3.17,0,0,1-1.75.48,2.87,2.87,0,0,1-1.74-.52,2.5,2.5,0,0,1-1-1.45l.16-.15v5.25Zm3.54-4.14a2.09,2.09,0,0,0,1.71-.75,3.22,3.22,0,0,0,.62-2.13,3.3,3.3,0,0,0-.62-2.15,2.3,2.3,0,0,0-3.43,0,3.38,3.38,0,0,0-.6,2.15,3.38,3.38,0,0,0,.6,2.15A2,2,0,0,0,102.11,16.6Z"/><path class="cls-6" d="M107.45,6.76h1.49V8.14h-1.49Zm.12,10.74V10h1.22V17.5Z"/><path class="cls-6" d="M111.14,17.5V12.07c0-.35,0-.7,0-1.06A9.5,9.5,0,0,0,111,10h1.16l.13,1.56-.15.12a2.52,2.52,0,0,1,1.06-1.38,3,3,0,0,1,1.69-.48c1.81,0,2.71,1,2.71,3V17.5h-1.21V12.82a2.34,2.34,0,0,0-.42-1.54,1.67,1.67,0,0,0-1.32-.49,2.24,2.24,0,0,0-1.68.65,2.38,2.38,0,0,0-.63,1.74V17.5Z"/><path class="cls-6" d="M123.19,14.74v-.88h7.74v.88Zm.3-4.4V9.46h7.74v.88ZM124,17.5l2.08-10.68h1L125,17.5Zm3.37,0,2.09-10.68h1L128.33,17.5Z"/></g><g class="cls-7"><rect class="cls-6" x="134.33" y="5" width="35.27" height="16" rx="4"/></g><g class="cls-5"><path class="cls-8" d="M143.83,17.62a3.15,3.15,0,0,1-2.78-1.39,7.22,7.22,0,0,1-1-4.07A7.23,7.23,0,0,1,141,8.09a3.5,3.5,0,0,1,5.58,0,7.17,7.17,0,0,1,.95,4.05,7.26,7.26,0,0,1-.95,4.08A3.18,3.18,0,0,1,143.83,17.62Zm0-1a2,2,0,0,0,1.89-1.08,7.19,7.19,0,0,0,.6-3.36,7,7,0,0,0-.6-3.33,2.21,2.21,0,0,0-3.77,0,7,7,0,0,0-.61,3.33A7.17,7.17,0,0,0,142,15.5,2,2,0,0,0,143.83,16.58Z"/></g><polygon class="cls-8" points="161.62 17.31 166.6 8.69 156.64 8.69 161.62 17.31"/><rect class="cls-9" x="134.33" y="31.69" width="35.34" height="108.15" rx="5.67"/><g class="cls-5"><path class="cls-8" d="M140.66,44.57v-1h6v1ZM143,44v-9.4l.71.36-2.9,1.84V35.63l2.73-1.74h.71V44Z"/><path class="cls-8" d="M140,62.57v-.93l3.74-4.14A7.46,7.46,0,0,0,144.81,56a3,3,0,0,0,.35-1.35,1.77,1.77,0,0,0-.51-1.36,2.1,2.1,0,0,0-1.46-.47,3.91,3.91,0,0,0-1.53.31,5.79,5.79,0,0,0-1.5.92l-.46-.94a4.63,4.63,0,0,1,1.59-1,5.45,5.45,0,0,1,1.93-.36,4,4,0,0,1,1.69.33,2.54,2.54,0,0,1,1.1,1,2.79,2.79,0,0,1,.39,1.5,3.89,3.89,0,0,1-.41,1.76,8.12,8.12,0,0,1-1.37,1.9l-3.6,3.9-.09-.6h5.92v1Z"/><path class="cls-8" d="M139.7,79h1.54v1.55H139.7Z"/><path class="cls-8" d="M139.7,97h1.54v1.55H139.7Z"/><path class="cls-8" d="M140.28,116.57H139l4.69-10.68h1.08l4.7,10.68h-1.26L144,106.79h.45Zm.72-2.75.44-1h5.61l.43,1Z"/><path class="cls-8" d="M155.4,116.57v-9.14h.38l-4.44,6.41v-.62h6.9v1h-7.77v-.93l5.15-7.42h1v10.68Z"/><path class="cls-8" d="M140.28,134.57H139l4.69-10.68h1.08l4.7,10.68h-1.26L144,124.79h.45Zm.72-2.75.44-1h5.61l.43,1Z"/><path class="cls-8" d="M154.41,134.67a5.57,5.57,0,0,1-1.92-.35,4.68,4.68,0,0,1-1.59-1l.47-.94a6.09,6.09,0,0,0,1.49.91,4,4,0,0,0,1.55.32,2.43,2.43,0,0,0,1.77-.64,2.36,2.36,0,0,0,.63-1.73,2.58,2.58,0,0,0-.28-1.24,2.06,2.06,0,0,0-.8-.83,2.44,2.44,0,0,0-1.23-.3,3.06,3.06,0,0,0-1.37.3,3.15,3.15,0,0,0-1.07.94h-.86v-6.25h6.41v1h-5.18v4.32l-.39,0a3,3,0,0,1,1.12-1,3.36,3.36,0,0,1,1.54-.35,3.46,3.46,0,0,1,1.77.43,2.87,2.87,0,0,1,1.15,1.19,3.73,3.73,0,0,1,.41,1.77,3.59,3.59,0,0,1-.44,1.78,3.19,3.19,0,0,1-1.26,1.21A4,4,0,0,1,154.41,134.67Z"/></g><polygon class="cls-8" points="161.62 44.38 166.6 35.75 156.64 35.75 161.62 44.38"/></g></g></svg>