<svg xmlns="http://www.w3.org/2000/svg" viewBox="0 0 595.39 150.84"><defs><style>.cls-1{fill:none;}.cls-2{fill:#483d86;}.cls-3{fill:#5c4da0;}.cls-4{fill:#8d82bd;}.cls-5{opacity:0.6;}.cls-6{fill:#fff;}.cls-7{isolation:isolate;}.cls-8{fill:#010101;}.cls-9{fill:#3d4986;}.cls-10{fill:#4c5ba6;}.cls-11{fill:#818dc1;}.cls-12{fill:#afa7d1;}</style></defs><g id="Layer_2" data-name="Layer 2"><g id="Layer_1-2" data-name="Layer 1"><rect class="cls-1" x="0.12" width="595.28" height="18"/><path class="cls-2" d="M9.12,1H513.18V37H9.12V21c0-10-8,8-8-7.5s8,2.5,8-7.5Zm158,5H91.68v5c0,10-8-8-8,7.5s8-2.5,8,7.5v7h75.44ZM472.8,6H424.4v5c0,10-8-8-8,7.5s8-2.5,8,7.5v7h48.4Z"/><path class="cls-3" d="M8.12,0H512.18V36H8.12V20c0-10-8,8-8-7.5s8,2.5,8-7.5Zm158,5H90.68v5c0,10-8-8-8,7.5s8-2.5,8,7.5v7h75.44ZM471.8,5H423.4v5c0,10-8-8-8,7.5s8-2.5,8,7.5v7h48.4Z"/><path class="cls-4" d="M9.12,35.5h-1v-17h1ZM472.8,33H423.9V32h47.9V5.5h1ZM167.12,33H91.18V32h74.94V5.5h1Zm251.43-8.27-.5-.86,3.68-2.1.5.86Zm-332.72,0-.49-.86L89,21.77l.49.86ZM.77,18.13a20.9,20.9,0,0,1,0-11.26l1,.26a19.79,19.79,0,0,0,0,10.74ZM9.12,8h-1V0H511.68V1H9.12Z"/><path class="cls-2" d="M92.68,7h73.44V32H92.68V27c0-10-8,8-8-7.5s8,2.5,8-7.5Z"/><path class="cls-3" d="M91.68,6h73.44V31H91.68V26c0-10-8,8-8-7.5s8,2.5,8-7.5Z"/><path class="cls-4" d="M92.68,30.5h-1v-6h1Zm-8.34-6.37a20.9,20.9,0,0,1,0-11.26l1,.26a19.79,19.79,0,0,0,0,10.74ZM92.68,14h-1V6h72.94V7H92.68Z"/><g class="cls-5"><rect class="cls-6" x="96.68" y="11" width="63.43" height="16" rx="4"/></g><g class="cls-7"><path class="cls-8" d="M103,23.5V12.82h1.22V23.5Zm.57-4.91v-1h7.74v1Zm7.05,4.91V12.82h1.23V23.5Z"/><path class="cls-8" d="M114.49,23.5V12.82h1.23V23.5Z"/><path class="cls-8" d="M123.09,23.62a5.51,5.51,0,0,1-2.75-.65,4.33,4.33,0,0,1-1.76-1.88,6.63,6.63,0,0,1-.61-2.95,6.6,6.6,0,0,1,.61-2.93,4.38,4.38,0,0,1,1.74-1.87A5.34,5.34,0,0,1,123,12.7a5.92,5.92,0,0,1,2,.34,4.39,4.39,0,0,1,1.62,1l-.48.94a5.61,5.61,0,0,0-1.53-1,4.63,4.63,0,0,0-1.66-.29,3.46,3.46,0,0,0-2.78,1.13,4.86,4.86,0,0,0-1,3.26,4.88,4.88,0,0,0,1,3.31,3.6,3.6,0,0,0,2.88,1.13,7.61,7.61,0,0,0,1.52-.14,6.84,6.84,0,0,0,1.34-.38l-.3.63V18.91H123v-1h3.78v4.95a4.84,4.84,0,0,1-1,.39,9.64,9.64,0,0,1-1.3.26A10.93,10.93,0,0,1,123.09,23.62Z"/><path class="cls-8" d="M129.33,23.5V12.82h1.21V23.5Zm.57-4.91v-1h7.74v1Zm7,4.91V12.82h1.23V23.5Z"/></g><path class="cls-9" d="M425.4,7h46.4V32H425.4V27c0-10-8,8-8-7.5s8,2.5,8-7.5Z"/><path class="cls-10" d="M424.4,6h46.4V31H424.4V26c0-10-8,8-8-7.5s8,2.5,8-7.5Z"/><path class="cls-11" d="M425.4,30.5h-1v-6h1Zm-8.34-6.37a20.9,20.9,0,0,1,0-11.26l1,.26a20,20,0,0,0,0,10.74ZM425.4,14h-1V6h45.9V7H425.4Z"/><g class="cls-5"><rect class="cls-6" x="429.4" y="11" width="36.4" height="16" rx="4"/></g><g class="cls-7"><path class="cls-8" d="M436.32,23.5v-1h6v1Zm2.36-.56v-9.4l.7.36-2.89,1.84V14.56l2.73-1.74h.7V22.94Z"/><path class="cls-8" d="M447.9,23.62a3.14,3.14,0,0,1-2.78-1.39,7.14,7.14,0,0,1-.95-4.07,7.23,7.23,0,0,1,.94-4.07,3.5,3.5,0,0,1,5.58,0,7.17,7.17,0,0,1,.95,4.05,7.19,7.19,0,0,1-1,4.08A3.15,3.15,0,0,1,447.9,23.62Zm0-1a2,2,0,0,0,1.88-1.08,7,7,0,0,0,.61-3.36,6.86,6.86,0,0,0-.61-3.33,2.2,2.2,0,0,0-3.76,0,6.91,6.91,0,0,0-.61,3.33A7,7,0,0,0,446,21.5,2,2,0,0,0,447.9,22.58Z"/><path class="cls-8" d="M456.9,23.62a3.14,3.14,0,0,1-2.78-1.39,7.13,7.13,0,0,1-1-4.07,7.22,7.22,0,0,1,.95-4.07,3.5,3.5,0,0,1,5.58,0,7.17,7.17,0,0,1,.94,4.05,7.2,7.2,0,0,1-.95,4.08A3.15,3.15,0,0,1,456.9,23.62Zm0-1a2,2,0,0,0,1.88-1.08,7,7,0,0,0,.61-3.36,6.86,6.86,0,0,0-.61-3.33,2.2,2.2,0,0,0-3.76,0,6.91,6.91,0,0,0-.61,3.33A7,7,0,0,0,455,21.5,2,2,0,0,0,456.9,22.58Z"/></g><g class="cls-7"><path class="cls-6" d="M17.29,22.5V17.07c0-.35,0-.7,0-1.06A9.47,9.47,0,0,0,17.17,15h1.15l.14,1.56-.15.11a2.56,2.56,0,0,1,.93-1.37,2.67,2.67,0,0,1,1.59-.48,2.48,2.48,0,0,1,1.7.54A2.67,2.67,0,0,1,23.3,17l-.36-.19a2.56,2.56,0,0,1,1-1.46,2.85,2.85,0,0,1,1.75-.54,2.3,2.3,0,0,1,1.87.75,3.38,3.38,0,0,1,.63,2.24V22.5H27V17.82a2.54,2.54,0,0,0-.38-1.54,1.41,1.41,0,0,0-1.18-.49,1.88,1.88,0,0,0-1.5.65,2.63,2.63,0,0,0-.54,1.75V22.5H22.13V17.82a2.54,2.54,0,0,0-.38-1.54,1.44,1.44,0,0,0-1.19-.49,1.87,1.87,0,0,0-1.51.65,2.59,2.59,0,0,0-.55,1.75V22.5Z"/><path class="cls-6" d="M36.65,21.6a3.48,3.48,0,0,1-1.27.73,4.73,4.73,0,0,1-1.58.27,4.16,4.16,0,0,1-2-.46,3.17,3.17,0,0,1-1.3-1.34A4.46,4.46,0,0,1,30,18.7a4.45,4.45,0,0,1,.45-2.05,3.41,3.41,0,0,1,1.25-1.38,3.5,3.5,0,0,1,1.86-.5,3.17,3.17,0,0,1,1.72.45,2.77,2.77,0,0,1,1.1,1.26,4.6,4.6,0,0,1,.39,2v.23h-5.7v-.8h5l-.39.56a3.17,3.17,0,0,0-.52-2,1.91,1.91,0,0,0-1.6-.7,2.11,2.11,0,0,0-1.72.77,3.36,3.36,0,0,0-.62,2.14,3.32,3.32,0,0,0,.65,2.22,2.42,2.42,0,0,0,1.92.75,3.56,3.56,0,0,0,1.26-.22,3.84,3.84,0,0,0,1.17-.67Z"/><path class="cls-6" d="M41.53,22.6a3.25,3.25,0,0,1-1.77-.47,3.11,3.11,0,0,1-1.17-1.35,4.85,4.85,0,0,1-.41-2.06,4.78,4.78,0,0,1,.42-2.07,3.26,3.26,0,0,1,1.18-1.38,3.12,3.12,0,0,1,1.75-.5,2.94,2.94,0,0,1,1.75.51,2.54,2.54,0,0,1,1,1.46l-.18.12V15h1.2V22.5h-1.2V20.55l.18.09a2.51,2.51,0,0,1-1,1.45A2.94,2.94,0,0,1,41.53,22.6Zm.24-1a2,2,0,0,0,1.71-.76,3.38,3.38,0,0,0,.6-2.15,3.38,3.38,0,0,0-.61-2.15,2.07,2.07,0,0,0-1.7-.75,2.11,2.11,0,0,0-1.74.78,3.36,3.36,0,0,0-.62,2.15A3.28,3.28,0,0,0,40,20.85,2.15,2.15,0,0,0,41.77,21.6Z"/><path class="cls-6" d="M50.18,22.6a4.39,4.39,0,0,1-3-1l.4-.9a4.11,4.11,0,0,0,1.24.68,4.23,4.23,0,0,0,1.42.22,2.37,2.37,0,0,0,1.29-.29,1,1,0,0,0,.45-.85.89.89,0,0,0-.3-.71,2.3,2.3,0,0,0-1-.43l-1.28-.3a2.78,2.78,0,0,1-1.46-.75A1.78,1.78,0,0,1,47.42,17a1.93,1.93,0,0,1,.36-1.16,2.37,2.37,0,0,1,1-.79,3.76,3.76,0,0,1,1.53-.29,4.38,4.38,0,0,1,1.5.26,3.14,3.14,0,0,1,1.18.73l-.4.89A4.06,4.06,0,0,0,51.49,16a3.29,3.29,0,0,0-1.17-.22,2.17,2.17,0,0,0-1.26.32,1,1,0,0,0-.44.85,1,1,0,0,0,.28.74,1.89,1.89,0,0,0,.89.42l1.28.31a2.93,2.93,0,0,1,1.56.75,1.78,1.78,0,0,1,.51,1.31,1.85,1.85,0,0,1-.8,1.56A3.57,3.57,0,0,1,50.18,22.6Z"/><path class="cls-6" d="M57.74,22.6a2.6,2.6,0,0,1-2-.75A3.17,3.17,0,0,1,55,19.63V15h1.21V19.6a2.24,2.24,0,0,0,.42,1.5,1.62,1.62,0,0,0,1.28.48,2.13,2.13,0,0,0,1.62-.64,2.41,2.41,0,0,0,.61-1.73V15h1.22V22.5H60.2V20.86l.18-.09a2.55,2.55,0,0,1-1,1.37A2.93,2.93,0,0,1,57.74,22.6Z"/><path class="cls-6" d="M63.73,22.5V17.07c0-.35,0-.7,0-1.06A9.47,9.47,0,0,0,63.61,15h1.15l.17,1.86-.17,0a2.32,2.32,0,0,1,.91-1.49,2.59,2.59,0,0,1,1.57-.51,2,2,0,0,1,.36,0,1.61,1.61,0,0,1,.33.06l0,1.11a2.45,2.45,0,0,0-.8-.12,2.06,2.06,0,0,0-1.25.35,1.92,1.92,0,0,0-.69.88,2.78,2.78,0,0,0-.22,1.11V22.5Z"/><path class="cls-6" d="M75.19,21.6a3.56,3.56,0,0,1-1.27.73,4.77,4.77,0,0,1-1.58.27,4.13,4.13,0,0,1-2-.46A3.19,3.19,0,0,1,69,20.8a4.58,4.58,0,0,1-.45-2.1A4.45,4.45,0,0,1,69,16.65a3.34,3.34,0,0,1,1.25-1.38,3.44,3.44,0,0,1,1.85-.5,3.21,3.21,0,0,1,1.73.45,2.83,2.83,0,0,1,1.1,1.26,4.76,4.76,0,0,1,.38,2v.23h-5.7v-.8h5l-.39.56a3.11,3.11,0,0,0-.52-2,1.88,1.88,0,0,0-1.59-.7,2.1,2.1,0,0,0-1.72.77,3.31,3.31,0,0,0-.62,2.14,3.27,3.27,0,0,0,.65,2.22,2.39,2.39,0,0,0,1.91.75,3.65,3.65,0,0,0,1.27-.22,3.92,3.92,0,0,0,1.16-.67Z"/></g><g class="cls-7"><path class="cls-6" d="M177.29,25.74V17.07c0-.35,0-.7,0-1.06a9.47,9.47,0,0,0-.09-1.06h1.15l.14,1.56-.12.23a2.52,2.52,0,0,1,1-1.46,2.93,2.93,0,0,1,1.74-.51,3.15,3.15,0,0,1,1.75.5A3.33,3.33,0,0,1,184,16.65a4.64,4.64,0,0,1,.43,2.07,4.57,4.57,0,0,1-.43,2.06,3.11,3.11,0,0,1-1.17,1.35,3.2,3.2,0,0,1-1.76.47,2.93,2.93,0,0,1-1.74-.51,2.5,2.5,0,0,1-1-1.45l.16-.15v5.25Zm3.54-4.14a2.09,2.09,0,0,0,1.71-.75,3.28,3.28,0,0,0,.61-2.13,3.36,3.36,0,0,0-.61-2.15,2.06,2.06,0,0,0-1.71-.78,2.09,2.09,0,0,0-1.73.75,3.38,3.38,0,0,0-.6,2.15,3.38,3.38,0,0,0,.6,2.15A2.07,2.07,0,0,0,180.83,21.6Z"/><path class="cls-6" d="M189,22.6a2.64,2.64,0,0,1-2-.75,3.22,3.22,0,0,1-.68-2.22V15h1.22V19.6a2.24,2.24,0,0,0,.42,1.5,1.59,1.59,0,0,0,1.27.48,2.13,2.13,0,0,0,1.62-.64,2.41,2.41,0,0,0,.62-1.73V15h1.21V22.5h-1.18V20.86l.18-.09a2.52,2.52,0,0,1-1,1.37A2.87,2.87,0,0,1,189,22.6Z"/><path class="cls-6" d="M194.94,22.5v-11h1.22v11Z"/><path class="cls-6" d="M201.06,22.6a4.39,4.39,0,0,1-3-1l.4-.9a4.11,4.11,0,0,0,1.24.68,4.23,4.23,0,0,0,1.42.22,2.37,2.37,0,0,0,1.29-.29,1,1,0,0,0,.45-.85.89.89,0,0,0-.3-.71,2.3,2.3,0,0,0-1-.43l-1.28-.3a2.78,2.78,0,0,1-1.46-.75A1.78,1.78,0,0,1,198.3,17a1.93,1.93,0,0,1,.36-1.16,2.37,2.37,0,0,1,1-.79,3.76,3.76,0,0,1,1.53-.29,4.38,4.38,0,0,1,1.5.26,3.14,3.14,0,0,1,1.18.73l-.4.89a4.06,4.06,0,0,0-1.11-.67,3.29,3.29,0,0,0-1.17-.22,2.17,2.17,0,0,0-1.26.32,1,1,0,0,0-.44.85,1,1,0,0,0,.28.74,1.89,1.89,0,0,0,.89.42l1.28.31a2.93,2.93,0,0,1,1.56.75,1.78,1.78,0,0,1,.51,1.31,1.85,1.85,0,0,1-.8,1.56A3.57,3.57,0,0,1,201.06,22.6Z"/><path class="cls-6" d="M212.13,21.6a3.48,3.48,0,0,1-1.27.73,4.73,4.73,0,0,1-1.58.27,4.16,4.16,0,0,1-2-.46A3.17,3.17,0,0,1,206,20.8a4.46,4.46,0,0,1-.46-2.1,4.45,4.45,0,0,1,.45-2.05,3.41,3.41,0,0,1,1.25-1.38,3.5,3.5,0,0,1,1.86-.5,3.17,3.17,0,0,1,1.72.45,2.77,2.77,0,0,1,1.1,1.26,4.6,4.6,0,0,1,.39,2v.23h-5.7v-.8h5l-.39.56a3.17,3.17,0,0,0-.52-2,1.91,1.91,0,0,0-1.6-.7,2.11,2.11,0,0,0-1.72.77,3.36,3.36,0,0,0-.62,2.14,3.32,3.32,0,0,0,.65,2.22,2.42,2.42,0,0,0,1.92.75,3.56,3.56,0,0,0,1.26-.22,3.84,3.84,0,0,0,1.17-.67Z"/><path class="cls-6" d="M221.15,22.6a3.64,3.64,0,0,1-1.89-.48A3.24,3.24,0,0,1,218,20.77a4.52,4.52,0,0,1-.44-2.08,4.51,4.51,0,0,1,.44-2.07,3.24,3.24,0,0,1,1.24-1.37,3.64,3.64,0,0,1,1.89-.48,3.6,3.6,0,0,1,1.88.48,3.24,3.24,0,0,1,1.24,1.37,4.51,4.51,0,0,1,.45,2.07,4.52,4.52,0,0,1-.45,2.08A3.24,3.24,0,0,1,223,22.12,3.6,3.6,0,0,1,221.15,22.6Zm0-1a2.08,2.08,0,0,0,1.71-.74,3.34,3.34,0,0,0,.61-2.17,3.32,3.32,0,0,0-.61-2.15,2.34,2.34,0,0,0-3.43,0,3.26,3.26,0,0,0-.62,2.15,3.4,3.4,0,0,0,.6,2.17A2.15,2.15,0,0,0,221.15,21.6Z"/><path class="cls-6" d="M226.61,22.5V17.07c0-.35,0-.7,0-1.06a9.47,9.47,0,0,0-.09-1.06h1.15l.14,1.56-.15.12a2.55,2.55,0,0,1,1.05-1.38,3,3,0,0,1,1.69-.48c1.81,0,2.72,1,2.72,3V22.5h-1.22V17.82a2.34,2.34,0,0,0-.42-1.54,1.67,1.67,0,0,0-1.32-.49,2.24,2.24,0,0,0-1.68.65,2.38,2.38,0,0,0-.63,1.74V22.5Z"/><path class="cls-6" d="M239.3,25.74V17.07c0-.35,0-.7,0-1.06a9.47,9.47,0,0,0-.09-1.06h1.15l.14,1.56-.12.23a2.52,2.52,0,0,1,1-1.46,2.93,2.93,0,0,1,1.74-.51,3.15,3.15,0,0,1,1.75.5A3.33,3.33,0,0,1,246,16.65a4.64,4.64,0,0,1,.43,2.07,4.57,4.57,0,0,1-.43,2.06,3.11,3.11,0,0,1-1.17,1.35,3.2,3.2,0,0,1-1.76.47,2.93,2.93,0,0,1-1.74-.51,2.5,2.5,0,0,1-1-1.45l.16-.15v5.25Zm3.54-4.14a2.09,2.09,0,0,0,1.71-.75,3.28,3.28,0,0,0,.61-2.13,3.36,3.36,0,0,0-.61-2.15,2.06,2.06,0,0,0-1.71-.78,2.09,2.09,0,0,0-1.73.75,3.38,3.38,0,0,0-.6,2.15,3.38,3.38,0,0,0,.6,2.15A2.07,2.07,0,0,0,242.84,21.6Z"/><path class="cls-6" d="M248.18,11.76h1.48v1.38h-1.48Zm.12,10.74V15h1.21V22.5Z"/><path class="cls-6" d="M251.87,22.5V17.07c0-.35,0-.7,0-1.06a9.47,9.47,0,0,0-.09-1.06h1.15l.14,1.56-.15.12a2.55,2.55,0,0,1,1.05-1.38,3,3,0,0,1,1.69-.48c1.81,0,2.72,1,2.72,3V22.5h-1.22V17.82a2.34,2.34,0,0,0-.42-1.54,1.67,1.67,0,0,0-1.32-.49,2.24,2.24,0,0,0-1.68.65,2.38,2.38,0,0,0-.63,1.74V22.5Z"/><path class="cls-6" d="M263.91,19.74v-.89h7.74v.89Zm.3-4.4v-.88H272v.88Zm.51,7.16,2.08-10.68h1L265.68,22.5Zm3.37,0,2.09-10.68h1L269.05,22.5Z"/></g><g class="cls-5"><rect class="cls-6" x="275.33" y="10" width="35.27" height="16" rx="4"/></g><g class="cls-7"><path class="cls-8" d="M284.83,22.62a3.15,3.15,0,0,1-2.78-1.39,7.22,7.22,0,0,1-.95-4.07,7.23,7.23,0,0,1,.94-4.07,3.5,3.5,0,0,1,5.58,0,7.17,7.17,0,0,1,.95,4.05,7.28,7.28,0,0,1-.95,4.08A3.18,3.18,0,0,1,284.83,22.62Zm0-1a2,2,0,0,0,1.89-1.08,7.19,7.19,0,0,0,.6-3.36,7,7,0,0,0-.6-3.33,2.21,2.21,0,0,0-3.77,0,7,7,0,0,0-.61,3.33A7.17,7.17,0,0,0,283,20.5,2,2,0,0,0,284.83,21.58Z"/></g><g class="cls-7"><path class="cls-6" d="M318.87,25.23a15.19,15.19,0,0,1-1-2.27,13.73,13.73,0,0,1-.55-2.21,15,15,0,0,1-.17-2.24,14,14,0,0,1,1.71-6.69h1a22.54,22.54,0,0,0-.88,2.46,15.38,15.38,0,0,0-.45,6.29,15.81,15.81,0,0,0,.45,2.19,23.91,23.91,0,0,0,.87,2.47Z"/><path class="cls-6" d="M320.46,15.91V15h4.85v1Zm4.82,5.51v1a4.7,4.7,0,0,1-.51.12,4.39,4.39,0,0,1-.54,0,2.33,2.33,0,0,1-1.68-.6,2.41,2.41,0,0,1-.62-1.8V13l1.22-.44V20a2,2,0,0,0,.17.93,1,1,0,0,0,.47.46,1.83,1.83,0,0,0,.68.12,2.5,2.5,0,0,0,.4,0A2.69,2.69,0,0,0,325.28,21.42Z"/><path class="cls-6" d="M326.66,11.76h1.48v1.38h-1.48Zm.12,10.74V15H328V22.5Z"/><path class="cls-6" d="M330.34,22.5V17.07c0-.35,0-.7,0-1.06a7.6,7.6,0,0,0-.1-1.06h1.16l.13,1.56-.15.11a2.63,2.63,0,0,1,.94-1.37,2.67,2.67,0,0,1,1.59-.48,2.5,2.5,0,0,1,1.7.54,2.67,2.67,0,0,1,.77,1.65l-.36-.19a2.56,2.56,0,0,1,1-1.46,2.83,2.83,0,0,1,1.75-.54,2.3,2.3,0,0,1,1.87.75,3.38,3.38,0,0,1,.63,2.24V22.5H340V17.82a2.54,2.54,0,0,0-.38-1.54,1.41,1.41,0,0,0-1.18-.49,1.88,1.88,0,0,0-1.5.65,2.63,2.63,0,0,0-.54,1.75V22.5h-1.22V17.82a2.54,2.54,0,0,0-.38-1.54,1.45,1.45,0,0,0-1.2-.49,1.85,1.85,0,0,0-1.5.65,2.59,2.59,0,0,0-.55,1.75V22.5Z"/><path class="cls-6" d="M349.71,21.6a3.48,3.48,0,0,1-1.27.73,4.73,4.73,0,0,1-1.58.27,4.16,4.16,0,0,1-2-.46,3.17,3.17,0,0,1-1.3-1.34,4.46,4.46,0,0,1-.46-2.1,4.45,4.45,0,0,1,.45-2.05,3.41,3.41,0,0,1,1.25-1.38,3.46,3.46,0,0,1,1.85-.5,3.21,3.21,0,0,1,1.73.45,2.77,2.77,0,0,1,1.1,1.26,4.6,4.6,0,0,1,.38,2v.23h-5.7v-.8h5l-.39.56a3.17,3.17,0,0,0-.51-2,1.91,1.91,0,0,0-1.6-.7,2.11,2.11,0,0,0-1.72.77,3.36,3.36,0,0,0-.62,2.14,3.32,3.32,0,0,0,.65,2.22,2.4,2.4,0,0,0,1.91.75,3.61,3.61,0,0,0,1.27-.22,3.8,3.8,0,0,0,1.16-.67Z"/><path class="cls-6" d="M354.81,22.6a3.58,3.58,0,0,1-1.88-.48,3.26,3.26,0,0,1-1.25-1.35,4.65,4.65,0,0,1-.44-2.08,4.64,4.64,0,0,1,.44-2.07,3.26,3.26,0,0,1,1.25-1.37,3.92,3.92,0,0,1,3.76,0,3.26,3.26,0,0,1,1.25,1.37,4.64,4.64,0,0,1,.44,2.07,4.65,4.65,0,0,1-.44,2.08,3.26,3.26,0,0,1-1.25,1.35A3.58,3.58,0,0,1,354.81,22.6Zm0-1a2.12,2.12,0,0,0,1.72-.74,3.4,3.4,0,0,0,.61-2.17,3.32,3.32,0,0,0-.62-2.15,2.09,2.09,0,0,0-1.71-.75,2.12,2.12,0,0,0-1.72.75,3.32,3.32,0,0,0-.62,2.15,3.34,3.34,0,0,0,.61,2.17A2.11,2.11,0,0,0,354.81,21.6Z"/><path class="cls-6" d="M362.94,22.6a2.6,2.6,0,0,1-2-.75,3.17,3.17,0,0,1-.69-2.22V15h1.22V19.6a2.24,2.24,0,0,0,.42,1.5,1.59,1.59,0,0,0,1.27.48,2.13,2.13,0,0,0,1.62-.64,2.41,2.41,0,0,0,.62-1.73V15h1.21V22.5H365.4V20.86l.18-.09a2.55,2.55,0,0,1-1,1.37A2.93,2.93,0,0,1,362.94,22.6Z"/><path class="cls-6" d="M367.86,15.91V15h4.84v1Zm4.81,5.51v1a2.95,2.95,0,0,1-1.05.15A2.31,2.31,0,0,1,370,22a2.41,2.41,0,0,1-.62-1.8V13l1.21-.44V20a2,2,0,0,0,.18.93,1,1,0,0,0,.47.46,1.78,1.78,0,0,0,.67.12,2.54,2.54,0,0,0,.41,0A2.59,2.59,0,0,0,372.67,21.42Z"/><path class="cls-6" d="M381,22.6a3.22,3.22,0,0,1-1.76-.47,3.11,3.11,0,0,1-1.17-1.35,4.85,4.85,0,0,1-.41-2.06,4.78,4.78,0,0,1,.42-2.07,3.26,3.26,0,0,1,1.18-1.38,3.09,3.09,0,0,1,1.74-.5,3,3,0,0,1,1.76.51,2.52,2.52,0,0,1,1,1.46l-.18.12V15h1.2V22.5h-1.2V20.55l.18.09a2.5,2.5,0,0,1-1,1.45A3,3,0,0,1,381,22.6Zm.24-1a2,2,0,0,0,1.71-.76,3.38,3.38,0,0,0,.6-2.15,3.38,3.38,0,0,0-.6-2.15,2.32,2.32,0,0,0-3.44,0,3.36,3.36,0,0,0-.62,2.15,3.28,3.28,0,0,0,.62,2.13A2.13,2.13,0,0,0,381.22,21.6Z"/><path class="cls-6" d="M386,15.91V15h4.53v1Zm4.74-3.34a2.85,2.85,0,0,0-.78-.12,1.54,1.54,0,0,0-.65.13.91.91,0,0,0-.46.45,2.11,2.11,0,0,0-.16.92V22.5h-1.22V13.8a2.45,2.45,0,0,1,.6-1.81,2.27,2.27,0,0,1,1.65-.59,4.36,4.36,0,0,1,.51,0,3.06,3.06,0,0,1,.51.1Z"/><path class="cls-6" d="M390.73,15.91V15h4.85v1Zm4.82,5.51v1l-.5.12a4.68,4.68,0,0,1-.55,0,2.29,2.29,0,0,1-1.67-.6,2.37,2.37,0,0,1-.63-1.8V13l1.22-.44V20a2.11,2.11,0,0,0,.17.93,1,1,0,0,0,.47.46,1.83,1.83,0,0,0,.68.12,2.41,2.41,0,0,0,.4,0A2.69,2.69,0,0,0,395.55,21.42Z"/><path class="cls-6" d="M403.23,21.6a3.48,3.48,0,0,1-1.27.73,4.73,4.73,0,0,1-1.58.27,4.16,4.16,0,0,1-2-.46,3.17,3.17,0,0,1-1.3-1.34,4.46,4.46,0,0,1-.46-2.1,4.45,4.45,0,0,1,.45-2.05,3.41,3.41,0,0,1,1.25-1.38,3.46,3.46,0,0,1,1.85-.5,3.21,3.21,0,0,1,1.73.45,2.77,2.77,0,0,1,1.1,1.26,4.6,4.6,0,0,1,.38,2v.23h-5.7v-.8h5l-.39.56a3.17,3.17,0,0,0-.51-2,1.91,1.91,0,0,0-1.6-.7,2.11,2.11,0,0,0-1.72.77,3.36,3.36,0,0,0-.62,2.14,3.32,3.32,0,0,0,.65,2.22,2.4,2.4,0,0,0,1.91.75,3.61,3.61,0,0,0,1.27-.22,3.8,3.8,0,0,0,1.16-.67Z"/><path class="cls-6" d="M405.21,22.5V17.07c0-.35,0-.7,0-1.06s-.05-.71-.1-1.06h1.15l.17,1.86-.17,0a2.36,2.36,0,0,1,.91-1.49,2.61,2.61,0,0,1,1.57-.51,2.22,2.22,0,0,1,.37,0,1.65,1.65,0,0,1,.32.06l0,1.11a2.45,2.45,0,0,0-.8-.12,1.94,1.94,0,0,0-1.94,1.23,3,3,0,0,0-.22,1.11V22.5Z"/></g><g class="cls-7"><path class="cls-6" d="M489.29,15V22.5H488.1V20.86l.18-.09a2.55,2.55,0,0,1-1,1.37,2.93,2.93,0,0,1-1.63.46,2.82,2.82,0,0,1-1.07-.18,2,2,0,0,1-.76-.54l.33-.45v4.31h-1.21V15h1.21V19.6a2.24,2.24,0,0,0,.42,1.5,1.62,1.62,0,0,0,1.28.48,2.13,2.13,0,0,0,1.62-.64,2.41,2.41,0,0,0,.61-1.73V15Z"/><path class="cls-6" d="M494.18,22.6a4.42,4.42,0,0,1-3-1l.41-.9a4.18,4.18,0,0,0,1.23.68,4.27,4.27,0,0,0,1.42.22,2.43,2.43,0,0,0,1.3-.29,1,1,0,0,0,.44-.85.89.89,0,0,0-.3-.71,2.3,2.3,0,0,0-1-.43l-1.27-.3a2.86,2.86,0,0,1-1.47-.75,1.81,1.81,0,0,1-.51-1.29,1.93,1.93,0,0,1,.36-1.16,2.34,2.34,0,0,1,1-.79,3.76,3.76,0,0,1,1.53-.29,4.38,4.38,0,0,1,1.5.26,3.19,3.19,0,0,1,1.19.73l-.41.89a4.17,4.17,0,0,0-1.1-.67,3.38,3.38,0,0,0-1.18-.22,2.12,2.12,0,0,0-1.25.32,1,1,0,0,0-.44.85,1,1,0,0,0,.27.74,2,2,0,0,0,.9.42l1.27.31a3,3,0,0,1,1.57.75,1.81,1.81,0,0,1,.5,1.31,1.84,1.84,0,0,1-.79,1.56A3.59,3.59,0,0,1,494.18,22.6Z"/><path class="cls-6" d="M499.38,25.23h-1a21.76,21.76,0,0,0,.87-2.47,15.41,15.41,0,0,0,.58-4.25,15.27,15.27,0,0,0-.58-4.23,22.35,22.35,0,0,0-.87-2.46h1a14.39,14.39,0,0,1,1.29,3.35,13.94,13.94,0,0,1,.4,3.34,15,15,0,0,1-.17,2.24,13.73,13.73,0,0,1-.55,2.21A15.19,15.19,0,0,1,499.38,25.23Z"/></g><polygon class="cls-8" points="151.14 23.31 156.12 14.69 146.16 14.69 151.14 23.31"/><polygon class="cls-8" points="301.62 22.31 306.6 13.69 296.64 13.69 301.62 22.31"/><rect class="cls-12" x="96.68" y="42.69" width="63.37" height="33.74" rx="5.67"/><g class="cls-7"><path class="cls-8" d="M102.41,55.57V44.89h1.21V55.57Zm.57-4.91v-1h7.74v1Zm7,4.91V44.89h1.23V55.57Z"/><path class="cls-8" d="M113.9,55.57V44.89h1.23V55.57Z"/><path class="cls-8" d="M122.49,55.69a5.44,5.44,0,0,1-2.75-.66A4.23,4.23,0,0,1,118,53.16a6.52,6.52,0,0,1-.61-2.95,6.44,6.44,0,0,1,.61-2.93,4.24,4.24,0,0,1,1.73-1.87,5.34,5.34,0,0,1,2.68-.64,6.16,6.16,0,0,1,2,.33,4.59,4.59,0,0,1,1.63,1l-.48.94a5.37,5.37,0,0,0-1.53-1,4.47,4.47,0,0,0-1.67-.29A3.43,3.43,0,0,0,119.62,47a4.84,4.84,0,0,0-1,3.26,4.9,4.9,0,0,0,1,3.31,3.63,3.63,0,0,0,2.88,1.13,8.62,8.62,0,0,0,1.53-.14,7.86,7.86,0,0,0,1.34-.38l-.3.63V51h-2.66V50h3.78v5a4.84,4.84,0,0,1-1,.39,9.64,9.64,0,0,1-1.3.26A10.93,10.93,0,0,1,122.49,55.69Z"/><path class="cls-8" d="M128.73,55.57V44.89H130V55.57Zm.57-4.91v-1H137v1Zm7,4.91V44.89h1.23V55.57Z"/><path class="cls-8" d="M102.41,73.57V62.89h1.23v9.63H109v1Z"/><path class="cls-8" d="M114.5,73.69a4.91,4.91,0,0,1-2.59-.66,4.43,4.43,0,0,1-1.68-1.89,7.56,7.56,0,0,1,0-5.83,4.28,4.28,0,0,1,1.68-1.88,5.43,5.43,0,0,1,5.19,0,4.28,4.28,0,0,1,1.68,1.88,6.64,6.64,0,0,1,.59,2.9,6.78,6.78,0,0,1-.59,2.93A4.43,4.43,0,0,1,117.09,73,4.91,4.91,0,0,1,114.5,73.69Zm0-1a3.25,3.25,0,0,0,2.64-1.15,5,5,0,0,0,.94-3.28,5,5,0,0,0-.94-3.26,3.23,3.23,0,0,0-2.64-1.13A3.27,3.27,0,0,0,111.85,65a5,5,0,0,0-.95,3.25,5,5,0,0,0,.95,3.27A3.26,3.26,0,0,0,114.5,72.64Z"/><path class="cls-8" d="M124.28,73.57l-3.75-10.68h1.26l3.27,9.63h-.48l3.34-9.63h1l3.28,9.62h-.46l3.3-9.63h1.21l-3.73,10.68h-1.05l-3.21-9.21h.33l-3.23,9.21Z"/></g><polygon class="cls-8" points="151.14 55.38 156.12 46.75 146.16 46.75 151.14 55.38"/><rect class="cls-12" x="275.33" y="42.69" width="35.34" height="108.15" rx="5.67"/><g class="cls-7"><path class="cls-8" d="M281.66,55.56v-1h5.95v1ZM284,55V45.6l.71.36-2.9,1.85V46.62l2.73-1.74h.71V55Z"/><path class="cls-8" d="M281,73.56v-.93l3.74-4.14A7.44,7.44,0,0,0,285.81,67a3,3,0,0,0,.35-1.35,1.77,1.77,0,0,0-.51-1.36,2.1,2.1,0,0,0-1.46-.47,3.91,3.91,0,0,0-1.53.31,5.79,5.79,0,0,0-1.5.92l-.46-1a4.63,4.63,0,0,1,1.59-1,5.45,5.45,0,0,1,1.93-.36,4,4,0,0,1,1.69.34,2.54,2.54,0,0,1,1.1,1,2.79,2.79,0,0,1,.39,1.5,3.89,3.89,0,0,1-.41,1.76,8.12,8.12,0,0,1-1.37,1.9l-3.6,3.9-.09-.6h5.92v1Z"/><path class="cls-8" d="M280.7,90h1.54v1.54H280.7Z"/><path class="cls-8" d="M280.7,108h1.54v1.54H280.7Z"/><path class="cls-8" d="M281.28,127.56H280l4.69-10.68h1.08l4.7,10.68h-1.26L285,117.78h.45Zm.72-2.74.44-1h5.61l.43,1Z"/><path class="cls-8" d="M296.4,127.56v-9.13h.38l-4.44,6.4v-.61h6.9v1h-7.77v-.93l5.15-7.43h1v10.68Z"/><path class="cls-8" d="M281.28,145.56H280l4.69-10.68h1.08l4.7,10.68h-1.26L285,135.78h.45Zm.72-2.74.44-1h5.61l.43,1Z"/><path class="cls-8" d="M295.41,145.67a5.57,5.57,0,0,1-1.92-.35,4.68,4.68,0,0,1-1.59-1l.47-.95a6.15,6.15,0,0,0,1.49.92,4,4,0,0,0,1.55.31,2.42,2.42,0,0,0,1.77-.63,2.38,2.38,0,0,0,.63-1.74,2.54,2.54,0,0,0-.28-1.23,2.09,2.09,0,0,0-.8-.84,2.44,2.44,0,0,0-1.23-.3,3.07,3.07,0,0,0-1.37.31,3.15,3.15,0,0,0-1.07.94h-.86v-6.26h6.41v1h-5.18v4.32l-.39,0a3,3,0,0,1,1.12-1,3.38,3.38,0,0,1,1.54-.34,3.46,3.46,0,0,1,1.77.43,2.87,2.87,0,0,1,1.15,1.19,3.73,3.73,0,0,1,.41,1.77,3.59,3.59,0,0,1-.44,1.78,3.17,3.17,0,0,1-1.26,1.2A4,4,0,0,1,295.41,145.67Z"/></g><polygon class="cls-8" points="302.62 55.38 307.6 46.75 297.64 46.75 302.62 55.38"/></g></g></svg>