<svg xmlns="http://www.w3.org/2000/svg" viewBox="0 0 595.28 139.87"><defs><style>.cls-1{fill:none;}.cls-2{fill:#483d86;}.cls-3{fill:#5c4da0;}.cls-4{fill:#8d82bd;}.cls-5{isolation:isolate;}.cls-6{fill:#fff;}.cls-7{opacity:0.6;}.cls-8{fill:#010101;}.cls-9{fill:#afa7d1;}</style></defs><g id="Layer_2" data-name="Layer 2"><g id="Layer_1-2" data-name="Layer 1"><rect class="cls-1" width="595.28" height="18"/><path class="cls-2" d="M1,9A8,8,0,0,1,9,1h7l6,4h3l6-4H196.45V6c0,10-8-8-8,7.5s8-2.5,8,7.5v5H30.5l-6,4h-3l-6-4H9a8,8,0,0,1-8-8Z"/><path class="cls-3" d="M0,8A8,8,0,0,1,8,0h7l6,4h3l6-4H195.45V5c0,10-8-8-8,7.5s8-2.5,8,7.5v5H29.5l-6,4h-3l-6-4H8a8,8,0,0,1-8-8Z"/><path class="cls-4" d="M2.34,22.66A8,8,0,0,1,0,17V8H1v9A7,7,0,0,0,3.05,22ZM190.7,19.73l-.5-.86,3.68-2.1.5.86ZM1,7.53,0,7.47A8,8,0,0,1,8,0h7.17l6,4h2.7l6-4H195V1H30.15l-6,4h-3.3l-6-4H8A7,7,0,0,0,1,7.53Z"/><g class="cls-5"><path class="cls-6" d="M12.72,17.61a4.38,4.38,0,0,1-3-1l.4-.9a4.11,4.11,0,0,0,1.24.68,4.23,4.23,0,0,0,1.42.22,2.37,2.37,0,0,0,1.29-.29,1,1,0,0,0,.44-.85.91.91,0,0,0-.29-.71,2.41,2.41,0,0,0-1-.43l-1.27-.3a2.78,2.78,0,0,1-1.46-.75A1.78,1.78,0,0,1,10,12a1.93,1.93,0,0,1,.36-1.16,2.37,2.37,0,0,1,1-.79,3.7,3.7,0,0,1,1.53-.29,4.46,4.46,0,0,1,1.5.26,3.23,3.23,0,0,1,1.18.73l-.41.89A3.87,3.87,0,0,0,14,11a3.29,3.29,0,0,0-1.17-.22,2.17,2.17,0,0,0-1.26.32,1,1,0,0,0-.44.85,1,1,0,0,0,.28.74,1.89,1.89,0,0,0,.89.42l1.28.31a2.93,2.93,0,0,1,1.56.75,1.77,1.77,0,0,1,.5,1.31A1.84,1.84,0,0,1,14.88,17,3.57,3.57,0,0,1,12.72,17.61Z"/><path class="cls-6" d="M23.79,16.6a3.48,3.48,0,0,1-1.27.73,4.74,4.74,0,0,1-1.58.28,4.16,4.16,0,0,1-2-.47,3.17,3.17,0,0,1-1.3-1.34,4.46,4.46,0,0,1-.46-2.1,4.45,4.45,0,0,1,.45-2,3.41,3.41,0,0,1,1.25-1.38,3.46,3.46,0,0,1,1.85-.5,3.21,3.21,0,0,1,1.73.45,2.82,2.82,0,0,1,1.1,1.26,4.6,4.6,0,0,1,.38,2v.23H18.23v-.8h5l-.39.56a3.19,3.19,0,0,0-.51-2,1.91,1.91,0,0,0-1.6-.7,2.11,2.11,0,0,0-1.72.77,3.36,3.36,0,0,0-.62,2.14A3.32,3.32,0,0,0,19,15.85,2.41,2.41,0,0,0,21,16.6a3.56,3.56,0,0,0,1.26-.22,3.8,3.8,0,0,0,1.16-.67Z"/><path class="cls-6" d="M24.66,10.91V10H29.5v1Zm4.81,5.51v1a4.54,4.54,0,0,1-.5.12,4.43,4.43,0,0,1-.55,0A2.32,2.32,0,0,1,26.75,17a2.39,2.39,0,0,1-.62-1.8V8l1.21-.44V15a2,2,0,0,0,.18.93,1,1,0,0,0,.47.46,1.78,1.78,0,0,0,.67.12,2.54,2.54,0,0,0,.41,0A2.59,2.59,0,0,0,29.47,16.42Z"/><path class="cls-6" d="M37.78,17.61A3.23,3.23,0,0,1,36,17.13a3.11,3.11,0,0,1-1.17-1.35,4.85,4.85,0,0,1-.41-2.06,4.78,4.78,0,0,1,.42-2.07A3.26,3.26,0,0,1,36,10.27a3.09,3.09,0,0,1,1.74-.5,3,3,0,0,1,1.76.51,2.52,2.52,0,0,1,1,1.46l-.18.12V10h1.2V17.5h-1.2V15.55l.18.09a2.5,2.5,0,0,1-1,1.45A2.91,2.91,0,0,1,37.78,17.61Zm.24-1a2,2,0,0,0,1.71-.76,3.38,3.38,0,0,0,.6-2.15,3.38,3.38,0,0,0-.6-2.15,2.32,2.32,0,0,0-3.44,0,3.36,3.36,0,0,0-.62,2.15,3.28,3.28,0,0,0,.62,2.13A2.13,2.13,0,0,0,38,16.6Z"/><path class="cls-6" d="M43.89,17.5V12.07c0-.35,0-.7,0-1.06s0-.71-.1-1.06h1.15l.14,1.56-.15.12A2.55,2.55,0,0,1,46,10.25a3,3,0,0,1,1.69-.48c1.81,0,2.72,1,2.72,3V17.5H49.15V12.82a2.34,2.34,0,0,0-.42-1.54,1.67,1.67,0,0,0-1.32-.49,2.24,2.24,0,0,0-1.68.65,2.38,2.38,0,0,0-.63,1.74V17.5Z"/><path class="cls-6" d="M55.56,17.61a3.2,3.2,0,0,1-1.76-.48,3,3,0,0,1-1.17-1.35,4.7,4.7,0,0,1-.42-2.06,4.78,4.78,0,0,1,.42-2.07,3.33,3.33,0,0,1,1.18-1.38,3.15,3.15,0,0,1,1.75-.5,2.94,2.94,0,0,1,1.75.51,2.54,2.54,0,0,1,1,1.46l-.18.12V10h1.2V17.5h-1.2V15.55l.18.09a2.51,2.51,0,0,1-1,1.45A2.88,2.88,0,0,1,55.56,17.61Zm.24-1a2,2,0,0,0,1.71-.76,3.38,3.38,0,0,0,.6-2.15,3.32,3.32,0,0,0-.61-2.15,2.06,2.06,0,0,0-1.7-.75,2.08,2.08,0,0,0-1.73.78,3.3,3.3,0,0,0-.63,2.15,3.22,3.22,0,0,0,.63,2.13A2.12,2.12,0,0,0,55.8,16.6Z"/><path class="cls-6" d="M61.66,17.5v-11h1.22v11Z"/><path class="cls-6" d="M68.35,17.61a3.61,3.61,0,0,1-1.88-.49,3.24,3.24,0,0,1-1.24-1.35,4.52,4.52,0,0,1-.45-2.08,4.51,4.51,0,0,1,.45-2.07,3.24,3.24,0,0,1,1.24-1.37,3.7,3.7,0,0,1,1.88-.48,3.74,3.74,0,0,1,1.89.48,3.24,3.24,0,0,1,1.24,1.37,4.51,4.51,0,0,1,.44,2.07,4.52,4.52,0,0,1-.44,2.08,3.24,3.24,0,0,1-1.24,1.35A3.64,3.64,0,0,1,68.35,17.61Zm0-1a2.11,2.11,0,0,0,1.72-.74,3.34,3.34,0,0,0,.61-2.17,3.32,3.32,0,0,0-.62-2.15,2.32,2.32,0,0,0-3.42,0A3.26,3.26,0,0,0,66,13.69a3.4,3.4,0,0,0,.61,2.17A2.13,2.13,0,0,0,68.35,16.6Z"/><path class="cls-6" d="M77.13,20.84a5.61,5.61,0,0,1-3-.77l.21-1a6,6,0,0,0,1.33.59,5.23,5.23,0,0,0,1.43.18,2.16,2.16,0,0,0,1.64-.58,2.35,2.35,0,0,0,.56-1.72v-2l.17-.19a2.82,2.82,0,0,1-.56,1A2.56,2.56,0,0,1,78,17a3.15,3.15,0,0,1-1.26.24,3.18,3.18,0,0,1-2.95-1.78,4.36,4.36,0,0,1-.43-2,4.32,4.32,0,0,1,.43-2,3.21,3.21,0,0,1,2.95-1.79,3,3,0,0,1,1.78.52,2.58,2.58,0,0,1,1,1.45l-.18-.17V10h1.21v7.49A3.42,3.42,0,0,1,79.67,20,3.45,3.45,0,0,1,77.13,20.84ZM77,16.25a2.16,2.16,0,0,0,1.72-.72,3,3,0,0,0,.62-2,3,3,0,0,0-.62-2A2.17,2.17,0,0,0,77,10.79a2.23,2.23,0,0,0-1.75.73,3,3,0,0,0-.64,2,3,3,0,0,0,.64,2A2.23,2.23,0,0,0,77,16.25Z"/><path class="cls-6" d="M86.79,20.74V12.07c0-.35,0-.7,0-1.06s0-.71-.1-1.06h1.15L88,11.51l-.12.23a2.52,2.52,0,0,1,1-1.46,2.93,2.93,0,0,1,1.74-.51,3.12,3.12,0,0,1,1.75.5,3.35,3.35,0,0,1,1.19,1.38,4.78,4.78,0,0,1,.42,2.07,4.7,4.7,0,0,1-.42,2.06,3.13,3.13,0,0,1-2.94,1.83,2.87,2.87,0,0,1-1.74-.52,2.5,2.5,0,0,1-1-1.45l.16-.15v5.25Zm3.54-4.14A2.09,2.09,0,0,0,92,15.85a3.28,3.28,0,0,0,.61-2.13A3.36,3.36,0,0,0,92,11.57a2.06,2.06,0,0,0-1.71-.78,2.09,2.09,0,0,0-1.73.75,3.38,3.38,0,0,0-.6,2.15,3.38,3.38,0,0,0,.6,2.15A2.07,2.07,0,0,0,90.33,16.6Z"/><path class="cls-6" d="M95.67,6.76h1.48V8.14H95.67Zm.12,10.74V10H97V17.5Z"/><path class="cls-6" d="M99.36,17.5V12.07c0-.35,0-.7,0-1.06s0-.71-.1-1.06h1.15l.14,1.56-.15.12a2.55,2.55,0,0,1,1.05-1.38,3,3,0,0,1,1.69-.48c1.81,0,2.72,1,2.72,3V17.5h-1.22V12.82a2.34,2.34,0,0,0-.42-1.54,1.67,1.67,0,0,0-1.32-.49,2.24,2.24,0,0,0-1.68.65,2.38,2.38,0,0,0-.63,1.74V17.5Z"/><path class="cls-6" d="M111.4,14.74v-.88h7.74v.88Zm.3-4.4V9.46h7.74v.88Zm.51,7.16L114.3,6.82h1L113.17,17.5Zm3.38,0,2.08-10.68h1L116.55,17.5Z"/></g><g class="cls-7"><rect class="cls-6" x="123.67" y="5" width="35.27" height="16" rx="4"/></g><g class="cls-5"><path class="cls-8" d="M133.06,17.61a5.83,5.83,0,0,1-2-.35,4.58,4.58,0,0,1-1.61-1l.48-.94a5.29,5.29,0,0,0,1.49.92,4.15,4.15,0,0,0,1.6.31,2.57,2.57,0,0,0,1.73-.51,1.86,1.86,0,0,0,.6-1.5,1.79,1.79,0,0,0-.62-1.48,3,3,0,0,0-1.84-.49h-1.23v-1h1a2.75,2.75,0,0,0,1.81-.53,1.82,1.82,0,0,0,.63-1.5,1.68,1.68,0,0,0-.52-1.33,2.1,2.1,0,0,0-1.46-.47,4.11,4.11,0,0,0-1.54.31,5.85,5.85,0,0,0-1.49.92L129.63,8a4.68,4.68,0,0,1,1.59-1,5.65,5.65,0,0,1,1.95-.35,3.85,3.85,0,0,1,1.68.34A2.5,2.5,0,0,1,136,8a2.72,2.72,0,0,1,.38,1.45,2.7,2.7,0,0,1-.52,1.69,2.52,2.52,0,0,1-1.41.95l-.05-.15a2.8,2.8,0,0,1,1.65.92,2.68,2.68,0,0,1,.57,1.76,2.72,2.72,0,0,1-.94,2.19A3.82,3.82,0,0,1,133.06,17.61Z"/></g><g class="cls-5"><path class="cls-6" d="M164,10.91V10h4.84v1Zm4.81,5.51v1a4.54,4.54,0,0,1-.5.12,4.43,4.43,0,0,1-.55,0,2.32,2.32,0,0,1-1.67-.61,2.39,2.39,0,0,1-.62-1.8V8l1.21-.44V15a2,2,0,0,0,.18.93,1,1,0,0,0,.47.46,1.78,1.78,0,0,0,.67.12,2.54,2.54,0,0,0,.41,0A2.59,2.59,0,0,0,168.85,16.42Z"/><path class="cls-6" d="M173.47,17.61a3.61,3.61,0,0,1-1.88-.49,3.24,3.24,0,0,1-1.24-1.35,4.52,4.52,0,0,1-.45-2.08,4.51,4.51,0,0,1,.45-2.07,3.24,3.24,0,0,1,1.24-1.37,3.7,3.7,0,0,1,1.88-.48,3.74,3.74,0,0,1,1.89.48,3.24,3.24,0,0,1,1.24,1.37,4.51,4.51,0,0,1,.44,2.07,4.52,4.52,0,0,1-.44,2.08,3.24,3.24,0,0,1-1.24,1.35A3.64,3.64,0,0,1,173.47,17.61Zm0-1a2.11,2.11,0,0,0,1.72-.74,3.34,3.34,0,0,0,.61-2.17,3.32,3.32,0,0,0-.62-2.15,2.32,2.32,0,0,0-3.42,0,3.26,3.26,0,0,0-.63,2.15,3.4,3.4,0,0,0,.61,2.17A2.13,2.13,0,0,0,173.47,16.6Z"/></g><polygon class="cls-8" points="150.96 17.31 155.93 8.69 145.98 8.69 150.96 17.31"/><rect class="cls-9" x="123.67" y="31.69" width="35.34" height="108.18" rx="5.67"/><g class="cls-5"><path class="cls-8" d="M132.47,44.67a5.56,5.56,0,0,1-2-.35,4.34,4.34,0,0,1-1.61-1l.48-1a5.29,5.29,0,0,0,1.48.93,4.39,4.39,0,0,0,1.61.31,2.54,2.54,0,0,0,1.73-.52,1.89,1.89,0,0,0,.59-1.5,1.76,1.76,0,0,0-.61-1.47,2.92,2.92,0,0,0-1.85-.49h-1.23v-1h1a2.78,2.78,0,0,0,1.82-.52,1.84,1.84,0,0,0,.63-1.5,1.69,1.69,0,0,0-.52-1.33,2.12,2.12,0,0,0-1.46-.47,4,4,0,0,0-1.55.31,5.54,5.54,0,0,0-1.48.92l-.47-1a4.66,4.66,0,0,1,1.59-1,5.42,5.42,0,0,1,1.95-.35,4,4,0,0,1,1.68.33,2.53,2.53,0,0,1,1.1,1,2.64,2.64,0,0,1,.39,1.45,2.8,2.8,0,0,1-.52,1.69,2.63,2.63,0,0,1-1.42.95l0-.15a2.84,2.84,0,0,1,1.65.91,2.7,2.7,0,0,1,.57,1.76,2.75,2.75,0,0,1-.95,2.2A3.85,3.85,0,0,1,132.47,44.67Z"/><path class="cls-8" d="M132.74,62.67a5.57,5.57,0,0,1-1.92-.35,4.68,4.68,0,0,1-1.59-1l.46-1a5.85,5.85,0,0,0,1.49.92,4.07,4.07,0,0,0,1.56.32A2.41,2.41,0,0,0,134.5,61a2.38,2.38,0,0,0,.64-1.73,2.58,2.58,0,0,0-.29-1.24,2.15,2.15,0,0,0-.8-.84,2.4,2.4,0,0,0-1.22-.29,3.11,3.11,0,0,0-1.38.3,3.15,3.15,0,0,0-1.07.94h-.85V51.89h6.4v1h-5.17v4.33l-.39,0a3.08,3.08,0,0,1,1.11-1,3.52,3.52,0,0,1,1.54-.34,3.46,3.46,0,0,1,1.77.43A2.89,2.89,0,0,1,136,57.48a3.73,3.73,0,0,1,.4,1.77,3.59,3.59,0,0,1-.44,1.78,3.14,3.14,0,0,1-1.25,1.2A4,4,0,0,1,132.74,62.67Z"/><path class="cls-8" d="M129,79h1.55v1.55H129Z"/><path class="cls-8" d="M129,97h1.55v1.55H129Z"/><path class="cls-8" d="M130,116.57v-1h6v1Zm2.36-.56v-9.4l.7.36-2.89,1.84v-1.19l2.73-1.73h.7V116Z"/><path class="cls-8" d="M139,116.57v-1h6v1Zm2.36-.56v-9.4l.7.36-2.89,1.84v-1.19l2.73-1.73h.7V116Z"/><path class="cls-8" d="M130,134.57v-1h6v1Zm2.36-.56v-9.4l.7.36-2.89,1.84v-1.19l2.73-1.73h.7V134Z"/><path class="cls-8" d="M141.47,134.67a5.56,5.56,0,0,1-2-.35,4.34,4.34,0,0,1-1.61-1l.48-.95a5.29,5.29,0,0,0,1.48.93,4.39,4.39,0,0,0,1.61.31,2.54,2.54,0,0,0,1.73-.52,1.89,1.89,0,0,0,.59-1.5,1.76,1.76,0,0,0-.61-1.47,2.92,2.92,0,0,0-1.85-.49h-1.23v-1h1a2.78,2.78,0,0,0,1.82-.52,1.84,1.84,0,0,0,.63-1.5,1.69,1.69,0,0,0-.52-1.33,2.12,2.12,0,0,0-1.46-.47,4,4,0,0,0-1.55.31,5.54,5.54,0,0,0-1.48.92l-.47-1a4.66,4.66,0,0,1,1.59-1,5.42,5.42,0,0,1,1.95-.35,4,4,0,0,1,1.68.33,2.53,2.53,0,0,1,1.1,1,2.64,2.64,0,0,1,.39,1.45,2.8,2.8,0,0,1-.52,1.69,2.63,2.63,0,0,1-1.42,1l0-.15a2.84,2.84,0,0,1,1.65.91,2.7,2.7,0,0,1,.57,1.76,2.75,2.75,0,0,1-.95,2.2A3.85,3.85,0,0,1,141.47,134.67Z"/></g><polygon class="cls-8" points="150.96 44.38 155.93 35.75 145.98 35.75 150.96 44.38"/></g></g></svg>