<svg xmlns="http://www.w3.org/2000/svg" viewBox="0 0 595.28 43.04"><defs><style>.cls-1{fill:#231f20;}.cls-2{fill:#dbd9dc;}.cls-3{fill:#c9c6ca;}.cls-4{fill:#5c4da0;}.cls-5{fill:#a2d9d6;}.cls-6{fill:#fff;}.cls-7{fill:none;}</style></defs><g id="Layer_2" data-name="Layer 2"><g id="Layer_1-2" data-name="Layer 1"><path class="cls-1" d="M85.23,35.26V9.63h4.64V35.26Z"/><path class="cls-1" d="M95.09,35.26v-13c0-.86,0-1.73,0-2.59s-.11-1.72-.23-2.56h4.24l.4,3.6-.4.11a6.54,6.54,0,0,1,2.58-3.11,7.29,7.29,0,0,1,3.94-1.06q6.48,0,6.48,7.48V35.26h-4.5v-11a4.82,4.82,0,0,0-.83-3.11,3.13,3.13,0,0,0-2.55-1,4.36,4.36,0,0,0-3.33,1.31A4.87,4.87,0,0,0,99.59,25V35.26Z"/><path class="cls-1" d="M116.77,43V22.23c0-.84,0-1.7-.06-2.57a24,24,0,0,0-.23-2.58h4.25l.39,3.6-.25.22a5.48,5.48,0,0,1,2.27-3.15,7,7,0,0,1,4-1.13,7.44,7.44,0,0,1,4.2,1.2,8.33,8.33,0,0,1,2.86,3.35,11.28,11.28,0,0,1,1,5,10.94,10.94,0,0,1-1,4.95,7.5,7.5,0,0,1-7.06,4.38,7.19,7.19,0,0,1-4-1.1,5.29,5.29,0,0,1-2.27-3.12l.4-.57V43Zm9.21-11a4.18,4.18,0,0,0,3.46-1.53,6.84,6.84,0,0,0,1.22-4.34,7.17,7.17,0,0,0-1.22-4.46A4.12,4.12,0,0,0,126,20.14a4.22,4.22,0,0,0-3.51,1.53,7.11,7.11,0,0,0-1.2,4.45,7,7,0,0,0,1.2,4.39A4.2,4.2,0,0,0,126,32.06Z"/><path class="cls-1" d="M145.67,35.52a6.42,6.42,0,0,1-5-1.86Q139,31.82,139,28.06v-11h4.5v11a4.3,4.3,0,0,0,.83,2.92,3.15,3.15,0,0,0,2.48.93A4.1,4.1,0,0,0,150,30.66a5,5,0,0,0,1.19-3.46V17.08h4.53V35.26h-4.39V31.52l.47,0a6.19,6.19,0,0,1-2.38,3A6.69,6.69,0,0,1,145.67,35.52Z"/><path class="cls-1" d="M158.27,20.47V17.08h12.82v3.39Zm12.82,11.05v3.56a6.85,6.85,0,0,1-1.42.35,11.86,11.86,0,0,1-1.5.09,6.29,6.29,0,0,1-4.73-1.73,6.84,6.84,0,0,1-1.67-5V12.66l4.5-1.52V28.6a4,4,0,0,0,.39,1.93,2.24,2.24,0,0,0,1.06,1,3.79,3.79,0,0,0,1.5.29,6.56,6.56,0,0,0,.9-.07A9.88,9.88,0,0,0,171.09,31.52Z"/><path class="cls-1" d="M176.45,37.39h-3.78L182,8.16h3.85Z"/><path class="cls-1" d="M198.7,35.55A12.75,12.75,0,0,1,192.22,34,10.58,10.58,0,0,1,188,29.43a15.48,15.48,0,0,1-1.48-7,15.45,15.45,0,0,1,1.48-7,10.53,10.53,0,0,1,4.21-4.52,14.08,14.08,0,0,1,13,0,10.53,10.53,0,0,1,4.21,4.52,15.34,15.34,0,0,1,1.48,7,15.34,15.34,0,0,1-1.5,7A10.76,10.76,0,0,1,205.2,34,12.75,12.75,0,0,1,198.7,35.55Zm0-3.67a6.84,6.84,0,0,0,5.55-2.43q2-2.43,2-7t-2-7a7.59,7.59,0,0,0-11.06,0q-2,2.4-2,7t2,7A6.78,6.78,0,0,0,198.7,31.88Z"/><path class="cls-1" d="M221.88,35.52a6.42,6.42,0,0,1-5-1.86q-1.67-1.84-1.67-5.6v-11h4.5v11a4.3,4.3,0,0,0,.83,2.92A3.15,3.15,0,0,0,223,32a4.1,4.1,0,0,0,3.17-1.29,5,5,0,0,0,1.19-3.46V17.08h4.53V35.26H227.5V31.52l.47,0a6.19,6.19,0,0,1-2.38,3A6.69,6.69,0,0,1,221.88,35.52Z"/><path class="cls-1" d="M234.48,20.47V17.08H247.3v3.39ZM247.3,31.52v3.56a6.85,6.85,0,0,1-1.42.35,11.86,11.86,0,0,1-1.5.09,6.29,6.29,0,0,1-4.73-1.73,6.84,6.84,0,0,1-1.67-5V12.66l4.5-1.52V28.6a4,4,0,0,0,.39,1.93,2.24,2.24,0,0,0,1.06,1,3.82,3.82,0,0,0,1.5.29,6.56,6.56,0,0,0,.9-.07A9.88,9.88,0,0,0,247.3,31.52Z"/><path class="cls-1" d="M250.36,43V22.23c0-.84,0-1.7-.05-2.57s-.12-1.74-.24-2.58h4.25l.4,3.6-.26.22a5.52,5.52,0,0,1,2.27-3.15,7,7,0,0,1,4-1.13,7.43,7.43,0,0,1,4.19,1.2,8.25,8.25,0,0,1,2.86,3.35,11.28,11.28,0,0,1,1.05,5,10.94,10.94,0,0,1-1.05,4.95,7.5,7.5,0,0,1-7,4.38,7.2,7.2,0,0,1-4-1.1,5.33,5.33,0,0,1-2.27-3.12l.4-.57V43Zm9.22-11A4.16,4.16,0,0,0,263,30.53a6.78,6.78,0,0,0,1.23-4.34A7.11,7.11,0,0,0,263,21.73a4.1,4.1,0,0,0-3.45-1.59,4.19,4.19,0,0,0-3.51,1.53,7,7,0,0,0-1.21,4.45,7,7,0,0,0,1.21,4.39A4.18,4.18,0,0,0,259.58,32.06Z"/><path class="cls-1" d="M279.27,35.52a6.4,6.4,0,0,1-5-1.86q-1.68-1.84-1.68-5.6v-11h4.5v11A4.35,4.35,0,0,0,277.9,31a3.15,3.15,0,0,0,2.48.93,4.1,4.1,0,0,0,3.17-1.29,5,5,0,0,0,1.19-3.46V17.08h4.54V35.26h-4.4V31.52l.47,0a6.22,6.22,0,0,1-2.37,3A6.73,6.73,0,0,1,279.27,35.52Z"/><path class="cls-1" d="M291.87,20.47V17.08h12.81v3.39Zm12.81,11.05v3.56a6.85,6.85,0,0,1-1.42.35,11.81,11.81,0,0,1-1.49.09A6.32,6.32,0,0,1,297,33.79a6.88,6.88,0,0,1-1.67-5V12.66l4.5-1.52V28.6a3.88,3.88,0,0,0,.4,1.93,2.16,2.16,0,0,0,1.06,1,3.74,3.74,0,0,0,1.49.29,6.56,6.56,0,0,0,.9-.07A9.88,9.88,0,0,0,304.68,31.52Z"/><path class="cls-2" d="M23.63,33l-.94-.94,5.39-5.39A2.67,2.67,0,0,1,30,25.91h3.83v1.33H30a1.33,1.33,0,0,0-.94.39Z"/><path class="cls-2" d="M54.89,16.61H51.06V15.28h3.83a1.33,1.33,0,0,0,.94-.39L61.22,9.5l.94.94-5.39,5.39A2.67,2.67,0,0,1,54.89,16.61Z"/><path class="cls-2" d="M37.78,12.62H36.45V8.8a1.32,1.32,0,0,0-.39-.94l-5.4-5.4.94-.94L37,6.92a2.65,2.65,0,0,1,.78,1.88Z"/><path class="cls-2" d="M53.25,41l-5.4-5.4a2.64,2.64,0,0,1-.77-1.88V29.9H48.4v3.82a1.32,1.32,0,0,0,.39.94l5.4,5.4Z"/><rect class="cls-3" x="47.08" y="3.32" width="1.33" height="9.3"/><rect class="cls-3" x="36.45" y="29.9" width="1.33" height="9.3"/><rect class="cls-3" x="24.49" y="15.28" width="9.3" height="1.33"/><rect class="cls-3" x="51.06" y="25.91" width="9.3" height="1.33"/><path class="cls-2" d="M44.42,34.55V8a.67.67,0,0,1,.66-.66h0a.67.67,0,0,1,.67.66V34.55a.67.67,0,0,1-.67.66h0A.67.67,0,0,1,44.42,34.55Z"/><path class="cls-2" d="M39.1,34.55V8a.67.67,0,0,1,.67-.66h0a.66.66,0,0,1,.66.66V34.55a.66.66,0,0,1-.66.66h0A.67.67,0,0,1,39.1,34.55Z"/><path class="cls-3" d="M41.76,41.86V.66a.67.67,0,0,1,1.33,0v41.2a.67.67,0,0,1-1.33,0Z"/><path class="cls-2" d="M55.71,19.27H29.14a.67.67,0,0,1-.67-.67h0a.67.67,0,0,1,.67-.66H55.71a.67.67,0,0,1,.67.66h0A.67.67,0,0,1,55.71,19.27Z"/><path class="cls-2" d="M55.71,24.58H29.14a.67.67,0,0,1-.67-.66h0a.67.67,0,0,1,.67-.67H55.71a.67.67,0,0,1,.67.67h0A.67.67,0,0,1,55.71,24.58Z"/><path class="cls-3" d="M63,21.92H21.83a.66.66,0,0,1,0-1.32H63a.66.66,0,1,1,0,1.32Z"/><path class="cls-4" d="M49.73,31.23H35.12a2.66,2.66,0,0,1-2.66-2.66V14a2.66,2.66,0,0,1,2.66-2.66H49.73A2.66,2.66,0,0,1,52.39,14V28.57A2.66,2.66,0,0,1,49.73,31.23Z"/><path class="cls-5" d="M49.73,29.9H35.12a1.33,1.33,0,0,1-1.33-1.33V14a1.33,1.33,0,0,1,1.33-1.33H49.73A1.33,1.33,0,0,1,51.06,14V28.57A1.33,1.33,0,0,1,49.73,29.9Z"/><path class="cls-6" d="M49.07,19.6a3,3,0,0,0-2.3-2.84,2.63,2.63,0,0,0,.06-.48A2.44,2.44,0,0,0,44.29,14a2.6,2.6,0,0,0-1.86.76A2.63,2.63,0,0,0,40.56,14,2.45,2.45,0,0,0,38,16.28a1.89,1.89,0,0,0,.06.47,3,3,0,0,0-2.3,2.85,2.77,2.77,0,0,0,.66,1.77,3.11,3.11,0,0,0-.66,1.88,3.24,3.24,0,0,0,1.5,2.68,2.79,2.79,0,0,0,2.9,2.64,3,3,0,0,0,2.25-1,3,3,0,0,0,2.24,1,2.8,2.8,0,0,0,2.88-2.47,2.92,2.92,0,0,0,1.52-2.51,2.83,2.83,0,0,0-.85-2A2.82,2.82,0,0,0,49.07,19.6Zm-2.26,2.58a1.62,1.62,0,0,1,.93,1.41,1.5,1.5,0,0,1-.5,1.09,2.79,2.79,0,0,0-1.63-1.28.66.66,0,1,0-.39,1.26,1.39,1.39,0,0,1,1,1.25,1.6,1.6,0,0,1-3.16,0v-4a1.47,1.47,0,0,1,1.58-1.32.66.66,0,0,0,.66-.67.65.65,0,0,0-.66-.66,3.11,3.11,0,0,0-1.58.43V19a.67.67,0,1,0-1.33,0v3.38a2.59,2.59,0,0,0-.63-.29.66.66,0,0,0-.83.43.67.67,0,0,0,.43.84,1.35,1.35,0,0,1,1,1.24v1.33a1.6,1.6,0,0,1-3.15,0,1.22,1.22,0,0,1,.37-.86.66.66,0,1,0-.94-.94,3,3,0,0,0-.35.45,1.82,1.82,0,0,1-.58-1.31,2.07,2.07,0,0,1,1.73-1.92.67.67,0,0,0-.3-1.3,4,4,0,0,0-1.12.45,1.45,1.45,0,0,1-.31-.88A1.82,1.82,0,0,1,39,17.94a.71.71,0,0,0,.4-.11.67.67,0,0,0,.23-.85.78.78,0,0,0-.1-.15.87.87,0,0,1-.21-.55,1.23,1.23,0,0,1,2.41,0,.67.67,0,0,0,1.33,0,1.23,1.23,0,0,1,2.41,0,.88.88,0,0,1-.09.37,3.46,3.46,0,0,0-1,.23.67.67,0,0,0,.52,1.23,2.27,2.27,0,0,1,.86-.17,1.82,1.82,0,0,1,2,1.66,1.6,1.6,0,0,1-.93,1.4.68.68,0,0,0-.36.59A.67.67,0,0,0,46.81,22.18Z"/><circle class="cls-4" cx="24.49" cy="15.94" r="1.33"/><circle class="cls-4" cx="60.36" cy="26.57" r="1.33"/><circle class="cls-4" cx="23.16" cy="32.55" r="1.33"/><circle class="cls-4" cx="61.69" cy="9.97" r="1.33"/><circle class="cls-4" cx="47.74" cy="3.32" r="1.33"/><circle class="cls-4" cx="37.11" cy="39.2" r="1.33"/><circle class="cls-4" cx="31.13" cy="1.99" r="1.33"/><circle class="cls-4" cx="53.72" cy="40.53" r="1.33"/><rect class="cls-7" width="595.28" height="18"/></g></g></svg>