<svg xmlns="http://www.w3.org/2000/svg" viewBox="0 0 595.39 138.87"><defs><style>.cls-1{fill:none;}.cls-2{fill:#afa7d1;}.cls-3{isolation:isolate;}.cls-4{fill:#010101;}.cls-5{fill:#483d86;}.cls-6{fill:#5c4da0;}.cls-7{fill:#8d82bd;}.cls-8{fill:#fff;}.cls-9{opacity:0.6;}</style></defs><g id="Layer_2" data-name="Layer 2"><g id="Layer_1-2" data-name="Layer 1"><rect class="cls-1" x="0.12" width="595.28" height="18"/><rect class="cls-2" x="142.2" y="30.69" width="45.54" height="108.18" rx="5.67"/><g class="cls-3"><path class="cls-4" d="M148.15,43.57h-1.27l4.69-10.68h1.08l4.7,10.68h-1.26l-4.19-9.78h.45Zm.72-2.75.44-1h5.61l.43,1Z"/><path class="cls-4" d="M162.11,43.69a3.18,3.18,0,0,1-2.78-1.39,7.24,7.24,0,0,1-1-4.07,7.37,7.37,0,0,1,.94-4.08,3.52,3.52,0,0,1,5.59,0,7.32,7.32,0,0,1,.94,4.06,7.28,7.28,0,0,1-.95,4.08A3.18,3.18,0,0,1,162.11,43.69Zm0-1A2,2,0,0,0,164,41.57a7.17,7.17,0,0,0,.61-3.36,7.05,7.05,0,0,0-.61-3.34,2,2,0,0,0-1.89-1,2,2,0,0,0-1.88,1.06,7,7,0,0,0-.61,3.33,7.17,7.17,0,0,0,.61,3.36A2,2,0,0,0,162.11,42.65Z"/><path class="cls-4" d="M148.15,61.57h-1.27l4.69-10.68h1.08l4.7,10.68h-1.26l-4.19-9.78h.45Zm.72-2.75.44-1h5.61l.43,1Z"/><path class="cls-4" d="M159.53,61.57v-1h6v1Zm2.36-.56v-9.4l.7.36-2.89,1.84V52.63l2.73-1.74h.71V61Z"/><path class="cls-4" d="M147.57,78h1.54v1.55h-1.54Z"/><path class="cls-4" d="M147.57,96h1.54v1.55h-1.54Z"/><path class="cls-4" d="M148.15,115.57h-1.27l4.69-10.68h1.08l4.7,10.68h-1.26l-4.19-9.78h.45Zm.72-2.75.44-1h5.61l.43,1Z"/><path class="cls-4" d="M159.53,115.57v-1h6v1Zm2.36-.56v-9.4l.7.36-2.89,1.84v-1.18l2.73-1.74h.71V115Z"/><path class="cls-4" d="M171.11,115.69a3.18,3.18,0,0,1-2.78-1.39,7.24,7.24,0,0,1-1-4.07,7.37,7.37,0,0,1,.94-4.08,3.52,3.52,0,0,1,5.59,0,9.24,9.24,0,0,1,0,8.14A3.18,3.18,0,0,1,171.11,115.69Zm0-1a2,2,0,0,0,1.89-1.08,7.17,7.17,0,0,0,.61-3.36,7.05,7.05,0,0,0-.61-3.34,2,2,0,0,0-1.89-1.05,2,2,0,0,0-1.88,1.06,7,7,0,0,0-.61,3.33,7.17,7.17,0,0,0,.61,3.36A2,2,0,0,0,171.11,114.65Z"/><path class="cls-4" d="M148.15,133.57h-1.27l4.69-10.68h1.08l4.7,10.68h-1.26l-4.19-9.78h.45Zm.72-2.75.44-1h5.61l.43,1Z"/><path class="cls-4" d="M159.53,133.57v-1h6v1Zm2.36-.56v-9.4l.7.36-2.89,1.84v-1.18l2.73-1.74h.71V133Z"/><path class="cls-4" d="M168.53,133.57v-1h6v1Zm2.36-.56v-9.4l.7.36-2.89,1.84v-1.18l2.73-1.74h.71V133Z"/></g><polygon class="cls-4" points="177.22 43.38 182.19 34.75 172.24 34.75 177.22 43.38"/><path class="cls-5" d="M9.12,1H194.23V26H9.12V21c0-10-8,8-8-7.5s8,2.5,8-7.5Z"/><path class="cls-6" d="M8.12,0H193.23V25H8.12V20c0-10-8,8-8-7.5s8,2.5,8-7.5Z"/><path class="cls-7" d="M9.12,24.5h-1v-6h1ZM.77,18.13a20.9,20.9,0,0,1,0-11.26l1,.26a19.79,19.79,0,0,0,0,10.74ZM9.12,8h-1V0H192.73V1H9.12Z"/><g class="cls-3"><path class="cls-8" d="M18.29,17.5V12.07c0-.35,0-.7,0-1.06A9.47,9.47,0,0,0,18.17,10h1.15l.17,1.86-.17,0a2.32,2.32,0,0,1,.91-1.49,2.59,2.59,0,0,1,1.57-.51,2,2,0,0,1,.36,0,1.61,1.61,0,0,1,.33.06l0,1.11a2.75,2.75,0,0,0-.8-.12,2.06,2.06,0,0,0-1.25.35,1.92,1.92,0,0,0-.69.88,2.78,2.78,0,0,0-.22,1.11V17.5Z"/><path class="cls-8" d="M29.75,16.6a3.56,3.56,0,0,1-1.27.73,4.77,4.77,0,0,1-1.58.27,4.13,4.13,0,0,1-2-.46,3.19,3.19,0,0,1-1.31-1.34,4.58,4.58,0,0,1-.45-2.1,4.45,4.45,0,0,1,.45-2,3.34,3.34,0,0,1,1.25-1.38,3.44,3.44,0,0,1,1.85-.5,3.21,3.21,0,0,1,1.73.45,2.89,2.89,0,0,1,1.1,1.26,4.76,4.76,0,0,1,.38,2v.23h-5.7v-.8h5l-.39.56a3.13,3.13,0,0,0-.52-2,1.88,1.88,0,0,0-1.59-.7,2.1,2.1,0,0,0-1.72.77,3.31,3.31,0,0,0-.62,2.14A3.27,3.27,0,0,0,25,15.85a2.39,2.39,0,0,0,1.91.75,3.65,3.65,0,0,0,1.27-.22,3.92,3.92,0,0,0,1.16-.67Z"/><path class="cls-8" d="M34.62,17.6a3.2,3.2,0,0,1-1.76-.47,3,3,0,0,1-1.17-1.35,4.71,4.71,0,0,1-.41-2.06,4.78,4.78,0,0,1,.42-2.07,3.31,3.31,0,0,1,1.17-1.38,3.15,3.15,0,0,1,1.75-.5,3,3,0,0,1,1.76.51,2.52,2.52,0,0,1,1,1.46l-.18.12V10h1.2V17.5h-1.2V15.55l.18.09a2.5,2.5,0,0,1-1,1.45A2.91,2.91,0,0,1,34.62,17.6Zm.24-1a2,2,0,0,0,1.71-.76,3.38,3.38,0,0,0,.6-2.15,3.32,3.32,0,0,0-.61-2.15,2.06,2.06,0,0,0-1.7-.75,2.08,2.08,0,0,0-1.73.78,3.3,3.3,0,0,0-.62,2.15,3.22,3.22,0,0,0,.62,2.13A2.12,2.12,0,0,0,34.86,16.6Z"/><path class="cls-8" d="M47.37,17.5h-1.2v-2l.18.17a2.5,2.5,0,0,1-1,1.45,2.91,2.91,0,0,1-1.76.51,3.22,3.22,0,0,1-1.75-.48,3.31,3.31,0,0,1-1.17-1.38,4.86,4.86,0,0,1-.42-2.08,4.74,4.74,0,0,1,.41-2.06,3.09,3.09,0,0,1,1.17-1.35,3.29,3.29,0,0,1,1.76-.48,3,3,0,0,1,1.76.52,2.56,2.56,0,0,1,1,1.45l-.19.15V6.46h1.21Zm-3.51-.9a2,2,0,0,0,1.7-.76,3.32,3.32,0,0,0,.61-2.15,3.38,3.38,0,0,0-.6-2.14,2.07,2.07,0,0,0-1.71-.76,2.12,2.12,0,0,0-1.73.75,3.21,3.21,0,0,0-.62,2.12,3.36,3.36,0,0,0,.62,2.17A2.1,2.1,0,0,0,43.86,16.6Z"/><path class="cls-8" d="M56.54,17.6a3.25,3.25,0,0,1-1.77-.47,3.11,3.11,0,0,1-1.17-1.35,4.85,4.85,0,0,1-.41-2.06,4.78,4.78,0,0,1,.42-2.07,3.26,3.26,0,0,1,1.18-1.38,3.12,3.12,0,0,1,1.75-.5,2.94,2.94,0,0,1,1.75.51,2.54,2.54,0,0,1,1,1.46l-.18.12V10h1.2V17.5h-1.2V15.55l.18.09a2.51,2.51,0,0,1-1,1.45A2.87,2.87,0,0,1,56.54,17.6Zm.24-1a2,2,0,0,0,1.71-.76,3.38,3.38,0,0,0,.6-2.15,3.38,3.38,0,0,0-.61-2.15,2.07,2.07,0,0,0-1.7-.75,2.11,2.11,0,0,0-1.74.78,3.36,3.36,0,0,0-.62,2.15A3.28,3.28,0,0,0,55,15.85,2.15,2.15,0,0,0,56.78,16.6Z"/><path class="cls-8" d="M62.64,17.5V12.07c0-.35,0-.7,0-1.06s0-.71-.1-1.06h1.16l.13,1.56-.15.12a2.55,2.55,0,0,1,1-1.38,3,3,0,0,1,1.7-.48c1.81,0,2.71,1,2.71,3V17.5H67.91V12.82a2.34,2.34,0,0,0-.42-1.54,1.67,1.67,0,0,0-1.32-.49,2.24,2.24,0,0,0-1.68.65,2.38,2.38,0,0,0-.63,1.74V17.5Z"/><path class="cls-8" d="M74.31,17.6a3.2,3.2,0,0,1-1.76-.47,3,3,0,0,1-1.17-1.35A4.71,4.71,0,0,1,71,13.72a4.78,4.78,0,0,1,.42-2.07,3.31,3.31,0,0,1,1.17-1.38,3.15,3.15,0,0,1,1.75-.5,3,3,0,0,1,1.76.51,2.52,2.52,0,0,1,1,1.46l-.18.12V10h1.2V17.5h-1.2V15.55l.18.09a2.5,2.5,0,0,1-1,1.45A2.91,2.91,0,0,1,74.31,17.6Zm.24-1a2,2,0,0,0,1.71-.76,3.38,3.38,0,0,0,.6-2.15,3.32,3.32,0,0,0-.61-2.15,2.06,2.06,0,0,0-1.7-.75,2.08,2.08,0,0,0-1.73.78,3.3,3.3,0,0,0-.62,2.15,3.22,3.22,0,0,0,.62,2.13A2.12,2.12,0,0,0,74.55,16.6Z"/><path class="cls-8" d="M80.42,17.5v-11h1.21v11Z"/><path class="cls-8" d="M87.11,17.6a3.64,3.64,0,0,1-1.89-.48A3.24,3.24,0,0,1,84,15.77a4.52,4.52,0,0,1-.44-2.08A4.51,4.51,0,0,1,84,11.62a3.24,3.24,0,0,1,1.24-1.37,3.74,3.74,0,0,1,1.89-.48,3.7,3.7,0,0,1,1.88.48,3.24,3.24,0,0,1,1.24,1.37,4.51,4.51,0,0,1,.45,2.07,4.52,4.52,0,0,1-.45,2.08A3.24,3.24,0,0,1,89,17.12,3.6,3.6,0,0,1,87.11,17.6Zm0-1a2.08,2.08,0,0,0,1.71-.74,3.34,3.34,0,0,0,.61-2.17,3.32,3.32,0,0,0-.61-2.15,2.34,2.34,0,0,0-3.43,0,3.26,3.26,0,0,0-.62,2.15,3.4,3.4,0,0,0,.6,2.17A2.15,2.15,0,0,0,87.11,16.6Z"/><path class="cls-8" d="M95.88,20.84a5.53,5.53,0,0,1-3-.78l.21-1a6.1,6.1,0,0,0,1.34.59,5.15,5.15,0,0,0,1.42.18,2.16,2.16,0,0,0,1.64-.58,2.35,2.35,0,0,0,.57-1.72v-2l.16-.19a2.82,2.82,0,0,1-.56,1,2.56,2.56,0,0,1-.94.68,3.15,3.15,0,0,1-1.26.24,3.18,3.18,0,0,1-2.95-1.78,4.36,4.36,0,0,1-.42-2,4.32,4.32,0,0,1,.42-2,3.21,3.21,0,0,1,2.95-1.79,3,3,0,0,1,1.78.52,2.58,2.58,0,0,1,1,1.45l-.18-.17V10h1.22v7.49A3.42,3.42,0,0,1,98.42,20,3.45,3.45,0,0,1,95.88,20.84Zm-.15-4.59a2.16,2.16,0,0,0,1.72-.72,3,3,0,0,0,.62-2,3,3,0,0,0-.62-2,2.17,2.17,0,0,0-1.72-.73,2.23,2.23,0,0,0-1.75.73,3,3,0,0,0-.63,2,3,3,0,0,0,.63,2A2.23,2.23,0,0,0,95.73,16.25Z"/><path class="cls-8" d="M105.54,20.74V12.07c0-.35,0-.7,0-1.06s0-.71-.1-1.06h1.16l.13,1.56-.12.23a2.54,2.54,0,0,1,1-1.46,2.93,2.93,0,0,1,1.74-.51,3.09,3.09,0,0,1,1.74.5,3.35,3.35,0,0,1,1.19,1.38,4.78,4.78,0,0,1,.43,2.07,4.7,4.7,0,0,1-.43,2.06,3.1,3.1,0,0,1-2.93,1.82,2.86,2.86,0,0,1-1.74-.51,2.51,2.51,0,0,1-1-1.45l.17-.15v5.25Zm3.54-4.14a2.09,2.09,0,0,0,1.71-.75,3.28,3.28,0,0,0,.62-2.13,3.36,3.36,0,0,0-.62-2.15,2.3,2.3,0,0,0-3.43,0,3.38,3.38,0,0,0-.6,2.15,3.38,3.38,0,0,0,.6,2.15A2,2,0,0,0,109.08,16.6Z"/><path class="cls-8" d="M114.42,6.76h1.49V8.14h-1.49Zm.12,10.74V10h1.22V17.5Z"/><path class="cls-8" d="M118.11,17.5V12.07c0-.35,0-.7,0-1.06s0-.71-.1-1.06h1.16l.13,1.56-.15.12a2.55,2.55,0,0,1,1.05-1.38,3,3,0,0,1,1.7-.48c1.8,0,2.71,1,2.71,3V17.5h-1.21V12.82a2.34,2.34,0,0,0-.42-1.54,1.67,1.67,0,0,0-1.32-.49,2.24,2.24,0,0,0-1.68.65,2.39,2.39,0,0,0-.64,1.74V17.5Z"/><path class="cls-8" d="M130.15,14.74v-.89h7.74v.89Zm.3-4.4V9.46h7.74v.88ZM131,17.5l2.09-10.68h1L131.92,17.5Zm3.38,0,2.08-10.68h1L135.3,17.5Z"/></g><g class="cls-9"><rect class="cls-8" x="142.2" y="5" width="46.03" height="16" rx="4"/></g><g class="cls-3"><path class="cls-4" d="M148.74,17.5h-1.27l4.69-10.68h1.08l4.7,10.68h-1.26l-4.19-9.78H153Zm.73-2.75.43-1h5.61l.44,1Z"/><path class="cls-4" d="M162.71,17.62a3.14,3.14,0,0,1-2.78-1.39,7.13,7.13,0,0,1-1-4.07,7.22,7.22,0,0,1,.95-4.07,3.5,3.5,0,0,1,5.58,0,7.17,7.17,0,0,1,.94,4.05,7.17,7.17,0,0,1-.95,4.08A3.15,3.15,0,0,1,162.71,17.62Zm0-1a2,2,0,0,0,1.88-1.08,7,7,0,0,0,.61-3.36,6.86,6.86,0,0,0-.61-3.33,2.2,2.2,0,0,0-3.76,0,6.91,6.91,0,0,0-.61,3.33,7,7,0,0,0,.61,3.36A2,2,0,0,0,162.71,16.58Z"/></g><polygon class="cls-4" points="177.22 17.31 182.19 8.69 172.24 8.69 177.22 17.31"/></g></g></svg>