<svg xmlns="http://www.w3.org/2000/svg" viewBox="0 0 595.28 63"><defs><style>.cls-1{fill:none;}.cls-2{fill:#3c6186;}.cls-3{fill:#4c79a6;}.cls-4{fill:#81a1c1;}.cls-5{fill:#3a53a4;}.cls-6{fill:#fff;}.cls-7{isolation:isolate;}</style></defs><g id="Layer_2" data-name="Layer 2"><g id="Layer_1-2" data-name="Layer 1"><rect class="cls-1" width="595.28" height="18"/><path class="cls-2" d="M1,9A8,8,0,0,1,9,1h7l6,4h3l6-4H68.18V6c0,10-8-8-8,7.5s8-2.5,8,7.5v4h0l-6,4h-3l-6-4h-7a8,8,0,0,0-8,8v8a8,8,0,0,0,8,8h22V59H30.5l-6,4h-3l-6-4H9a8,8,0,0,1-8-8Z"/><path class="cls-3" d="M0,8A8,8,0,0,1,8,0h7l6,4h3l6-4H67.18V5c0,10-8-8-8,7.5s8-2.5,8,7.5v4h0l-6,4h-3l-6-4h-7a8,8,0,0,0-8,8v8a8,8,0,0,0,8,8h22V58H29.5l-6,4h-3l-6-4H8a8,8,0,0,1-8-8Z"/><path class="cls-4" d="M2.34,55.66A8,8,0,0,1,0,50V8H1V50a7,7,0,0,0,2.05,5ZM66.68,49H45.18a8.94,8.94,0,0,1-6.36-2.64l.71-.7A7.94,7.94,0,0,0,45.18,48h21.5ZM62.43,19.73l-.49-.86,3.68-2.1.49.86ZM1,7.53,0,7.47A8,8,0,0,1,8,0h7.17l6,4h2.7l6-4H66.68V1H30.15l-6,4h-3.3l-6-4H8A7,7,0,0,0,1,7.53Z"/><rect class="cls-5" x="9" y="6.13" width="16" height="16" rx="4"/><path class="cls-6" d="M21,22.63H13a4.51,4.51,0,0,1-4.5-4.5v-8A4.51,4.51,0,0,1,13,5.63h8a4.51,4.51,0,0,1,4.5,4.5v8A4.51,4.51,0,0,1,21,22.63Zm-8-16a3.5,3.5,0,0,0-3.5,3.5v8a3.5,3.5,0,0,0,3.5,3.5h8a3.5,3.5,0,0,0,3.5-3.5v-8A3.5,3.5,0,0,0,21,6.63Z"/><path class="cls-6" d="M13.2,13.42v1.37l-.92.68-.11.41.9,1.56.41.11,1-.46,1.18.68.13,1.14.3.3h1.8l.3-.3.13-1.14,1.18-.68,1.05.46.41-.11.9-1.56-.11-.41-.92-.68V13.42l.92-.67.11-.41L21,10.78l-.41-.11-1.05.46-1.18-.68-.13-1.14-.3-.3h-1.8l-.3.3-.13,1.13-1.18.69-1-.46-.41.11-.89,1.56.1.41Z"/><circle class="cls-5" cx="17" cy="14.13" r="2.7"/><path class="cls-6" d="M17,17.33a3.2,3.2,0,1,1,3.2-3.2A3.21,3.21,0,0,1,17,17.33Zm0-5.4a2.2,2.2,0,1,0,2.2,2.2A2.2,2.2,0,0,0,17,11.93Z"/><g class="cls-7"><path class="cls-6" d="M38.05,7.76h1.49V9.14H38.05Zm.12,10.74V11h1.21V18.5Z"/><path class="cls-6" d="M40.67,11.91V11H45.2v1Zm4.75-3.34a2.92,2.92,0,0,0-.79-.12,1.57,1.57,0,0,0-.65.13.86.86,0,0,0-.45.45,2,2,0,0,0-.17.92V18.5H42.15V9.8A2.45,2.45,0,0,1,42.74,8,2.27,2.27,0,0,1,44.4,7.4a4.19,4.19,0,0,1,.5,0,3.39,3.39,0,0,1,.52.1Z"/></g><g class="cls-7"><path class="cls-6" d="M16,43.5h-1.2v-2l.17.17a2.45,2.45,0,0,1-1,1.45,3,3,0,0,1-1.75.51,3.17,3.17,0,0,1-1.75-.48,3.26,3.26,0,0,1-1.18-1.38,5.37,5.37,0,0,1,0-4.14,3.22,3.22,0,0,1,1.17-1.35,3.26,3.26,0,0,1,1.77-.48,3,3,0,0,1,1.75.52,2.52,2.52,0,0,1,1,1.45l-.19.15V32.46H16Zm-3.51-.9a2.06,2.06,0,0,0,1.7-.76,3.38,3.38,0,0,0,.61-2.15,3.38,3.38,0,0,0-.6-2.14,2.1,2.1,0,0,0-1.71-.76,2.15,2.15,0,0,0-1.74.75,3.27,3.27,0,0,0-.62,2.12,3.42,3.42,0,0,0,.62,2.17A2.13,2.13,0,0,0,12.52,42.6Z"/><path class="cls-6" d="M21.5,43.6a3.58,3.58,0,0,1-1.88-.48,3.26,3.26,0,0,1-1.25-1.35,5.11,5.11,0,0,1,0-4.15,3.26,3.26,0,0,1,1.25-1.37,3.92,3.92,0,0,1,3.76,0,3.26,3.26,0,0,1,1.25,1.37,5.11,5.11,0,0,1,0,4.15,3.26,3.26,0,0,1-1.25,1.35A3.58,3.58,0,0,1,21.5,43.6Zm0-1a2.12,2.12,0,0,0,1.72-.74,3.4,3.4,0,0,0,.61-2.17,3.32,3.32,0,0,0-.62-2.15,2.09,2.09,0,0,0-1.71-.75,2.12,2.12,0,0,0-1.72.75,3.32,3.32,0,0,0-.62,2.15,3.34,3.34,0,0,0,.61,2.17A2.11,2.11,0,0,0,21.5,42.6Z"/></g></g></g></svg>