<svg xmlns="http://www.w3.org/2000/svg" viewBox="0 0 595.39 75"><defs><style>.cls-1{fill:none;}.cls-2{fill:#3c6186;}.cls-3{fill:#4c79a6;}.cls-4{fill:#81a1c1;}.cls-5{isolation:isolate;}.cls-6{fill:#fff;}</style></defs><g id="Layer_2" data-name="Layer 2"><g id="Layer_1-2" data-name="Layer 1"><rect class="cls-1" x="0.12" width="595.28" height="18"/><path class="cls-2" d="M9.12,1H81.78V6c0,10-8-8-8,7.5s8-2.5,8,7.5V31c0,10-8-8-8,7.5s8-2.5,8,7.5V56c0,10-8-8-8,7.5s8-2.5,8,7.5v4H9.12V21c0-10-8,8-8-7.5s8,2.5,8-7.5Z"/><path class="cls-3" d="M8.12,0H80.78V5c0,10-8-8-8,7.5s8-2.5,8,7.5V30c0,10-8-8-8,7.5s8-2.5,8,7.5V55c0,10-8-8-8,7.5s8-2.5,8,7.5v4H8.12V20c0-10-8,8-8-7.5s8,2.5,8-7.5Z"/><path class="cls-4" d="M9.12,73.5h-1v-55h1ZM76,69.73l-.49-.86,3.68-2.1.49.86Zm0-25-.49-.86,3.68-2.1.49.86Zm0-25-.49-.86,3.68-2.1.49.86ZM.77,18.13a20.9,20.9,0,0,1,0-11.26l1,.26a19.79,19.79,0,0,0,0,10.74ZM9.12,8h-1V0H80.28V1H9.12Z"/><g class="cls-5"><path class="cls-6" d="M18.22,10.91V10h4.85v1ZM23,16.42v1a4.7,4.7,0,0,1-.51.12,4.26,4.26,0,0,1-.54,0A2.3,2.3,0,0,1,20.31,17a2.39,2.39,0,0,1-.62-1.8V8l1.22-.44V15a2,2,0,0,0,.17.93,1,1,0,0,0,.47.46,1.83,1.83,0,0,0,.68.12l.4,0Z"/><path class="cls-6" d="M30.72,16.6a3.42,3.42,0,0,1-1.27.73,4.78,4.78,0,0,1-1.58.28,4.13,4.13,0,0,1-2-.47,3.19,3.19,0,0,1-1.31-1.34,4.58,4.58,0,0,1-.45-2.1,4.45,4.45,0,0,1,.45-2,3.34,3.34,0,0,1,1.25-1.38,3.43,3.43,0,0,1,1.85-.49,3.2,3.2,0,0,1,1.73.44,2.86,2.86,0,0,1,1.1,1.27,4.71,4.71,0,0,1,.38,2v.23h-5.7v-.8h5l-.39.56a3.13,3.13,0,0,0-.52-2,1.88,1.88,0,0,0-1.59-.7,2.1,2.1,0,0,0-1.72.77,3.31,3.31,0,0,0-.62,2.14A3.27,3.27,0,0,0,26,15.85a2.39,2.39,0,0,0,1.91.75,3.65,3.65,0,0,0,1.27-.22,3.92,3.92,0,0,0,1.16-.67Z"/><path class="cls-6" d="M35.25,17.61a4.42,4.42,0,0,1-3-1l.41-.9a4.18,4.18,0,0,0,1.23.68,4.27,4.27,0,0,0,1.42.22,2.43,2.43,0,0,0,1.3-.29,1,1,0,0,0,.44-.85.89.89,0,0,0-.3-.71,2.3,2.3,0,0,0-1-.43l-1.27-.3A2.86,2.86,0,0,1,33,13.3,1.81,1.81,0,0,1,32.49,12a1.93,1.93,0,0,1,.36-1.16,2.34,2.34,0,0,1,1-.79,3.77,3.77,0,0,1,1.53-.28,4.37,4.37,0,0,1,1.5.25,3.32,3.32,0,0,1,1.19.73l-.41.89a4.17,4.17,0,0,0-1.1-.67,3.38,3.38,0,0,0-1.18-.22,2.12,2.12,0,0,0-1.25.32,1,1,0,0,0-.44.85,1,1,0,0,0,.27.74,2,2,0,0,0,.9.42l1.27.32a2.92,2.92,0,0,1,1.57.74,1.81,1.81,0,0,1,.5,1.31A1.84,1.84,0,0,1,37.41,17,3.57,3.57,0,0,1,35.25,17.61Z"/><path class="cls-6" d="M39,10.91V10h4.84v1Zm4.81,5.51v1l-.5.12a4.58,4.58,0,0,1-.55,0A2.26,2.26,0,0,1,41.09,17a2.36,2.36,0,0,1-.62-1.8V8l1.21-.44V15a2.11,2.11,0,0,0,.17.93,1,1,0,0,0,.48.46,1.78,1.78,0,0,0,.67.12l.41,0Z"/></g><g class="cls-5"><path class="cls-6" d="M19.17,31.76h1.48v1.38H19.17Zm.12,10.74V35H20.5V42.5Z"/><path class="cls-6" d="M21.79,35.91V35h4.53v1Zm4.74-3.34a2.85,2.85,0,0,0-.78-.12,1.51,1.51,0,0,0-.65.13.91.91,0,0,0-.46.45,2.11,2.11,0,0,0-.16.92V42.5H23.26V33.8a2.45,2.45,0,0,1,.6-1.81,2.27,2.27,0,0,1,1.65-.59,4.36,4.36,0,0,1,.51,0,4.59,4.59,0,0,1,.51.1Z"/><path class="cls-6" d="M30.76,35.91V35h4.85v1Zm4.82,5.51v1l-.51.12a4.26,4.26,0,0,1-.54,0A2.3,2.3,0,0,1,32.85,42a2.39,2.39,0,0,1-.62-1.8V33l1.22-.44V40a2,2,0,0,0,.17.93,1,1,0,0,0,.47.46,1.83,1.83,0,0,0,.68.12l.4,0Z"/><path class="cls-6" d="M37.08,42.5V37.07c0-.35,0-.7,0-1.06A9.47,9.47,0,0,0,37,35h1.15l.17,1.87-.17,0A2.32,2.32,0,0,1,39,35.28a2.58,2.58,0,0,1,1.57-.5,2.06,2.06,0,0,1,.36,0,1.14,1.14,0,0,1,.33.07l0,1.1a2.76,2.76,0,0,0-.8-.11,2.06,2.06,0,0,0-1.25.34,1.92,1.92,0,0,0-.69.88,2.8,2.8,0,0,0-.22,1.12v4.3Z"/><path class="cls-6" d="M45.18,42.61a2.64,2.64,0,0,1-2-.75,3.23,3.23,0,0,1-.68-2.23V35h1.22v4.66a2.28,2.28,0,0,0,.42,1.5,1.62,1.62,0,0,0,1.27.47A2.13,2.13,0,0,0,47,40.94a2.41,2.41,0,0,0,.62-1.73V35h1.21V42.5H47.64V40.87l.18-.09a2.53,2.53,0,0,1-1,1.36A2.88,2.88,0,0,1,45.18,42.61Z"/><path class="cls-6" d="M57.34,41.6a3.34,3.34,0,0,1-1.27.73,4.74,4.74,0,0,1-1.58.28,4.16,4.16,0,0,1-2-.47,3.17,3.17,0,0,1-1.3-1.34,5,5,0,0,1,0-4.15,3.41,3.41,0,0,1,1.25-1.38,3.49,3.49,0,0,1,1.86-.49,3.17,3.17,0,0,1,1.72.44,2.8,2.8,0,0,1,1.1,1.27,4.55,4.55,0,0,1,.39,2v.23h-5.7v-.8h5l-.39.56a3.19,3.19,0,0,0-.52-2,1.91,1.91,0,0,0-1.6-.7,2.11,2.11,0,0,0-1.72.77,3.36,3.36,0,0,0-.62,2.14,3.32,3.32,0,0,0,.65,2.22,2.42,2.42,0,0,0,1.92.75,3.56,3.56,0,0,0,1.26-.22,3.84,3.84,0,0,0,1.17-.67Z"/></g><g class="cls-5"><path class="cls-6" d="M19.17,56.76h1.48v1.38H19.17Zm.12,10.74V60H20.5V67.5Z"/><path class="cls-6" d="M21.79,60.91V60h4.53v1Zm4.74-3.34a2.85,2.85,0,0,0-.78-.12,1.51,1.51,0,0,0-.65.13.91.91,0,0,0-.46.45,2.11,2.11,0,0,0-.16.92V67.5H23.26V58.8a2.45,2.45,0,0,1,.6-1.81,2.27,2.27,0,0,1,1.65-.59,4.36,4.36,0,0,1,.51,0,4.59,4.59,0,0,1,.51.1Z"/><path class="cls-6" d="M30.76,60.91V60h4.53v1Zm4.74-3.34a2.85,2.85,0,0,0-.78-.12,1.51,1.51,0,0,0-.65.13.91.91,0,0,0-.46.45,2.11,2.11,0,0,0-.16.92V67.5H32.23V58.8a2.45,2.45,0,0,1,.6-1.81,2.27,2.27,0,0,1,1.65-.59,4.36,4.36,0,0,1,.51,0,4.59,4.59,0,0,1,.51.1Z"/><path class="cls-6" d="M39.7,67.61a3.2,3.2,0,0,1-1.76-.48,3,3,0,0,1-1.17-1.35,4.71,4.71,0,0,1-.41-2.06,4.78,4.78,0,0,1,.42-2.07A3.31,3.31,0,0,1,38,60.27a3.14,3.14,0,0,1,1.75-.49,3,3,0,0,1,1.76.5,2.52,2.52,0,0,1,1,1.46l-.18.12V60h1.2V67.5h-1.2v-2l.18.09a2.5,2.5,0,0,1-1,1.45A2.91,2.91,0,0,1,39.7,67.61Zm.24-1a2,2,0,0,0,1.71-.76,3.38,3.38,0,0,0,.6-2.15,3.32,3.32,0,0,0-.61-2.15,2.06,2.06,0,0,0-1.7-.75,2.08,2.08,0,0,0-1.73.78,3.3,3.3,0,0,0-.62,2.15,3.22,3.22,0,0,0,.62,2.13A2.12,2.12,0,0,0,39.94,66.6Z"/><path class="cls-6" d="M45.81,67.5v-11H47v11Z"/><path class="cls-6" d="M51.93,67.61a4.42,4.42,0,0,1-3-1l.41-.9a4.18,4.18,0,0,0,1.23.68,4.27,4.27,0,0,0,1.42.22,2.43,2.43,0,0,0,1.3-.29,1,1,0,0,0,.44-.85.89.89,0,0,0-.3-.71,2.3,2.3,0,0,0-1-.43l-1.27-.3a2.86,2.86,0,0,1-1.47-.75A1.81,1.81,0,0,1,49.17,62a1.93,1.93,0,0,1,.36-1.16,2.34,2.34,0,0,1,1-.79,3.77,3.77,0,0,1,1.53-.28,4.37,4.37,0,0,1,1.5.25,3.32,3.32,0,0,1,1.19.73l-.41.89a4.17,4.17,0,0,0-1.1-.67,3.38,3.38,0,0,0-1.18-.22,2.12,2.12,0,0,0-1.25.32,1,1,0,0,0-.44.85,1,1,0,0,0,.27.74,2,2,0,0,0,.9.42l1.27.32a2.92,2.92,0,0,1,1.57.74,1.81,1.81,0,0,1,.5,1.31A1.84,1.84,0,0,1,54.09,67,3.57,3.57,0,0,1,51.93,67.61Z"/><path class="cls-6" d="M63,66.6a3.42,3.42,0,0,1-1.27.73,4.78,4.78,0,0,1-1.58.28,4.13,4.13,0,0,1-2-.47,3.19,3.19,0,0,1-1.31-1.34,4.58,4.58,0,0,1-.45-2.1,4.45,4.45,0,0,1,.45-2.05,3.34,3.34,0,0,1,1.25-1.38,3.43,3.43,0,0,1,1.85-.49,3.2,3.2,0,0,1,1.73.44,2.86,2.86,0,0,1,1.1,1.27,4.71,4.71,0,0,1,.38,2v.23h-5.7v-.8h5l-.39.56a3.13,3.13,0,0,0-.52-2,1.88,1.88,0,0,0-1.59-.7,2.1,2.1,0,0,0-1.72.77,3.31,3.31,0,0,0-.62,2.14,3.27,3.27,0,0,0,.65,2.22,2.39,2.39,0,0,0,1.91.75,3.65,3.65,0,0,0,1.27-.22,3.92,3.92,0,0,0,1.16-.67Z"/></g></g></g></svg>