<svg xmlns="http://www.w3.org/2000/svg" viewBox="0 0 595.28 38.59"><defs><style>.cls-1{fill:#231f20;}.cls-2{fill:#eab2b7;}.cls-3{fill:#e28086;}.cls-4{fill:#e5999e;}.cls-5{fill:#f6d4d6;}.cls-6{fill:none;}</style></defs><g id="Layer_2" data-name="Layer 2"><g id="Layer_1-2" data-name="Layer 1"><path class="cls-1" d="M85.23,30.57V4.93h4.64V26.75h12v3.82Z"/><path class="cls-1" d="M113.2,30.82a10,10,0,0,1-4.91-1.15,8,8,0,0,1-3.19-3.26,10.66,10.66,0,0,1-1.11-5,10.81,10.81,0,0,1,1.11-5,7.91,7.91,0,0,1,3.19-3.29,9.93,9.93,0,0,1,4.91-1.15A9.76,9.76,0,0,1,118,13.07a8,8,0,0,1,3.21,3.29,10.69,10.69,0,0,1,1.13,5,10.54,10.54,0,0,1-1.13,5A8.06,8.06,0,0,1,118,29.67,9.87,9.87,0,0,1,113.2,30.82Zm0-3.46a4.17,4.17,0,0,0,3.44-1.49,7.06,7.06,0,0,0,1.21-4.48,7,7,0,0,0-1.21-4.45,4.15,4.15,0,0,0-3.44-1.49,4.3,4.3,0,0,0-3.51,1.49,6.83,6.83,0,0,0-1.24,4.45,7,7,0,0,0,1.22,4.48A4.33,4.33,0,0,0,113.2,27.36Z"/><path class="cls-1" d="M134.59,38.59a15.18,15.18,0,0,1-7.38-1.72l.72-3.42a15.23,15.23,0,0,0,3.26,1.27,13,13,0,0,0,3.33.42A5,5,0,0,0,138.15,34a4.78,4.78,0,0,0,1.22-3.6v-4.5h.44A6.22,6.22,0,0,1,138.46,28a6.72,6.72,0,0,1-2.22,1.51,7.13,7.13,0,0,1-2.84.56,8,8,0,0,1-4.21-1.12,7.48,7.48,0,0,1-2.86-3.15,10.41,10.41,0,0,1-1-4.77,10.41,10.41,0,0,1,1-4.77,7.65,7.65,0,0,1,2.86-3.17,7.89,7.89,0,0,1,4.21-1.13,7.15,7.15,0,0,1,4.07,1.15,5.7,5.7,0,0,1,2.34,3.1l-.44.07V12.39h4.47V30q0,4.25-2.34,6.43C139.94,37.87,137.63,38.59,134.59,38.59Zm0-12.06a4.38,4.38,0,0,0,3.5-1.47A6.13,6.13,0,0,0,139.37,21a6.13,6.13,0,0,0-1.25-4.07,4.38,4.38,0,0,0-3.5-1.47,4.49,4.49,0,0,0-3.56,1.47,6,6,0,0,0-1.3,4.07,6,6,0,0,0,1.3,4.07A4.49,4.49,0,0,0,134.62,26.53Z"/><path class="cls-1" d="M148.45,4.14h5V8.57h-5Zm.21,26.43V12.39h4.5V30.57Z"/><path class="cls-1" d="M166.27,30.82a10,10,0,0,1-4.92-1.14,7.62,7.62,0,0,1-3.17-3.24,10.57,10.57,0,0,1-1.09-5,10.53,10.53,0,0,1,1.15-5,8.16,8.16,0,0,1,3.27-3.34,10,10,0,0,1,5-1.19,11.57,11.57,0,0,1,3.73.61,8.06,8.06,0,0,1,3,1.69l-1.3,3.17A8.69,8.69,0,0,0,169.43,16a7.16,7.16,0,0,0-2.59-.49A4.87,4.87,0,0,0,163.08,17a6.37,6.37,0,0,0-1.39,4.43,6.33,6.33,0,0,0,1.37,4.39,4.89,4.89,0,0,0,3.82,1.52,7.29,7.29,0,0,0,2.55-.49,8.16,8.16,0,0,0,2.45-1.46l1.3,3.17a8.08,8.08,0,0,1-3,1.67A12.53,12.53,0,0,1,166.27,30.82Z"/><path class="cls-2" d="M48,30.23c-1.22-.9-.16-4.21-.16-5.84l-6.39,1.87,4,7.35a1.67,1.67,0,0,0,1.48.88,1.69,1.69,0,0,0,1.63-2.13Z"/><path class="cls-3" d="M46,26.26A4.94,4.94,0,0,0,51,31.2h.87a6.42,6.42,0,0,0,6.45-5.35c-.78.27-2.16-2.55-3-2.55Z"/><path class="cls-2" d="M35.6,26.26H55.8a7.87,7.87,0,0,0,5.58-2.32,2.69,2.69,0,0,0,0-3.8l-.7-.7.14.13a1.68,1.68,0,0,0,2.87-1.16v0A18.29,18.29,0,0,0,58.37,5.45a1.69,1.69,0,0,0-2.39,0l-.23.23a1.69,1.69,0,0,0-.25-2.59h0A18.27,18.27,0,0,0,45.31,0h-1.2a1.68,1.68,0,0,0-1.68,1.68A1.69,1.69,0,0,0,40.74,0H37a16.49,16.49,0,0,0-7.83,2,1.68,1.68,0,0,0-.37,2.66l-.42-.42a1.69,1.69,0,0,0-2.31-.06,16.5,16.5,0,0,0-4.45,6.48A6.78,6.78,0,0,0,28,19.81h1.59a.21.21,0,0,1,.21.22c0,.12,0,.25,0,.38a5.85,5.85,0,0,0,5.86,5.85Z"/><path class="cls-4" d="M58.37,5.45a1.69,1.69,0,0,0-2.11-.24,18.27,18.27,0,0,1,4,11.45v0a7.88,7.88,0,0,1-7.88,7.87H32.18a6.66,6.66,0,0,1-.78-.05,5.89,5.89,0,0,0,4.2,1.76H55.8a7.87,7.87,0,0,0,5.58-2.32,2.69,2.69,0,0,0,0-3.8l-.56-.57a1.68,1.68,0,0,0,2.87-1.16v0A18.29,18.29,0,0,0,58.37,5.45Z"/><path class="cls-5" d="M26.36,6.87c-.24.28-.48.56-.7.86a1,1,0,0,0,.09,1.39v0A1.07,1.07,0,0,0,27.36,9c.19-.25.39-.49.6-.73a1.07,1.07,0,0,0,0-1.44h0A1.07,1.07,0,0,0,26.36,6.87Z"/><path class="cls-5" d="M25.89,14.45a2.44,2.44,0,0,1-.4-1.88,1.06,1.06,0,1,0-2.07-.43,4.29,4.29,0,0,0,.71,3.53,4.62,4.62,0,0,0,2.45,1.8,1.07,1.07,0,0,0,1.37-1v0a1.06,1.06,0,0,0-.74-1,2.43,2.43,0,0,1-1.32-1Z"/><path class="cls-4" d="M48.05,13.92H46.44V7.83a.64.64,0,1,0-1.28,0v6.09H38.73V7.83a.64.64,0,1,0-1.28,0v6.09H34.94a6.49,6.49,0,0,0-2.88.67l-3.12-3.12a.64.64,0,1,0-.91.91L31,15.29a6.52,6.52,0,0,0-2.47,4.52h1.07a.2.2,0,0,1,.2.18,5.21,5.21,0,0,1,5.19-4.79H48.05a.64.64,0,0,0,.64-.64.64.64,0,0,0-.64-.64Z"/><path class="cls-4" d="M48.36,19.3A7.84,7.84,0,0,0,53.92,17l2-2a.63.63,0,0,0,0-.9.65.65,0,0,0-.91,0l-2,2A6.54,6.54,0,0,1,48.36,18h-11a5.06,5.06,0,0,0-3.58,1.48l-.22.22a.65.65,0,0,0,0,.91.64.64,0,0,0,.91,0l.22-.22a3.76,3.76,0,0,1,2.67-1.11Z"/><path class="cls-4" d="M53.84,24.47a9,9,0,0,0-6.35-2.63h-8a.64.64,0,1,0,0,1.28h8a7.62,7.62,0,0,1,5.44,2.26l.88.88h1.81Z"/><path class="cls-4" d="M56.64,17.8a.64.64,0,1,0,.91.9l1.16-1.15a4.43,4.43,0,0,0,.59-5.49l-.5-.78a.64.64,0,0,0-.88-.2.65.65,0,0,0-.2.89l.5.78a3.14,3.14,0,0,1-.42,3.89Z"/><path class="cls-4" d="M28.37,4.22A1.68,1.68,0,0,0,26.31,4l3.17,3.17a.64.64,0,0,0,.91,0,.65.65,0,0,0,0-.91Z"/><path class="cls-4" d="M41.78,8a.64.64,0,0,0,.65-.64V1.68A1.68,1.68,0,0,0,41.14.05V7.33A.64.64,0,0,0,41.78,8Z"/><path class="cls-4" d="M56,3.6a1.65,1.65,0,0,0-.5-.52h0a18.59,18.59,0,0,0-3.74-1.92A18.05,18.05,0,0,1,54.17,3a1.61,1.61,0,0,1,.07,2.36L51.9,7.7a.65.65,0,0,0,0,.91.63.63,0,0,0,.46.19.61.61,0,0,0,.45-.19l2.94-2.94A1.69,1.69,0,0,0,56,3.6Z"/><rect class="cls-6" width="595.28" height="18"/></g></g></svg>