<svg xmlns="http://www.w3.org/2000/svg" viewBox="0 0 595.28 76"><defs><style>.cls-1{fill:none;}.cls-2{fill:#3e863f;}.cls-3{fill:#4da649;}.cls-4{fill:#81c181;}.cls-5{fill:#3d4986;}.cls-6{fill:#4c5ba6;}.cls-7{fill:#818dc1;}.cls-8{opacity:0.6;}.cls-9{fill:#fff;}.cls-10{isolation:isolate;}.cls-11{fill:#010101;}</style></defs><g id="Layer_2" data-name="Layer 2"><g id="Layer_1-2" data-name="Layer 1"><rect class="cls-1" width="595.28" height="18"/><path class="cls-2" d="M1,9A8,8,0,0,1,9,1h7l6,4h3l6-4H167.23V37h-99l-6,4h-3l-6-4h-7a8,8,0,0,0-8,8v9a8,8,0,0,0,8,8h22V72H30.5l-6,4h-3l-6-4H9a8,8,0,0,1-8-8ZM110.47,6H70.87v5c0,10-8-8-8,7.5s8-2.5,8,7.5v7h39.6Z"/><path class="cls-3" d="M0,8A8,8,0,0,1,8,0h7l6,4h3l6-4H166.23V36h-99l-6,4h-3l-6-4h-7a8,8,0,0,0-8,8v9a8,8,0,0,0,8,8h22V71H29.5l-6,4h-3l-6-4H8a8,8,0,0,1-8-8ZM109.47,5H69.87v5c0,10-8-8-8,7.5s8-2.5,8,7.5v7h39.6Z"/><path class="cls-4" d="M2.34,68.66A8,8,0,0,1,0,63V8H1V63a7,7,0,0,0,2.05,5ZM66.68,62H45.18a8.94,8.94,0,0,1-6.36-2.64l.71-.7A7.94,7.94,0,0,0,45.18,61h21.5Zm43.79-29H70.37V32h39.1V5.5h1ZM65,24.73l-.49-.86,3.68-2.1.49.86ZM1,7.53,0,7.47A8,8,0,0,1,8,0h7.17l6,4h2.7l6-4H165.73V1H30.15l-6,4h-3.3l-6-4H8A7,7,0,0,0,1,7.53Z"/><path class="cls-5" d="M71.87,7h37.6V32H71.87V27c0-10-8,8-8-7.5s8,2.5,8-7.5Z"/><path class="cls-6" d="M70.87,6h37.6V31H70.87V26c0-10-8,8-8-7.5s8,2.5,8-7.5Z"/><path class="cls-7" d="M71.87,30.5h-1v-6h1Zm-8.35-6.37a20.9,20.9,0,0,1,0-11.26l1,.26a19.79,19.79,0,0,0,0,10.74ZM71.87,14h-1V6H108V7H71.87Z"/><g class="cls-8"><rect class="cls-9" x="75.87" y="11" width="27.6" height="16" rx="4"/></g><g class="cls-10"><path class="cls-11" d="M82.79,23.5v-1h5.95v1ZM85.14,23V13.54l.71.36L83,15.74V14.56l2.73-1.74h.71V23Z"/><path class="cls-11" d="M94.37,23.62a3.17,3.17,0,0,1-2.79-1.39,7.22,7.22,0,0,1-1-4.07,7.22,7.22,0,0,1,1-4.07,3.5,3.5,0,0,1,5.58,0,7.17,7.17,0,0,1,.94,4.05,7.26,7.26,0,0,1-.95,4.08A3.16,3.16,0,0,1,94.37,23.62Zm0-1a2,2,0,0,0,1.88-1.08,7.17,7.17,0,0,0,.61-3.36,7,7,0,0,0-.61-3.33,2,2,0,0,0-1.88-1.06,2,2,0,0,0-1.89,1.07,7,7,0,0,0-.6,3.32,7.19,7.19,0,0,0,.6,3.36A2,2,0,0,0,94.37,22.58Z"/></g><g class="cls-10"><path class="cls-9" d="M11.17,22.5V17.07c0-.35,0-.7,0-1.06s-.05-.71-.1-1.06h1.16l.16,1.87-.16-.05a2.31,2.31,0,0,1,.9-1.49,2.6,2.6,0,0,1,1.57-.5,2.23,2.23,0,0,1,.37,0,1.65,1.65,0,0,1,.32.06l0,1.11a2.69,2.69,0,0,0-.79-.11,2.11,2.11,0,0,0-1.26.34,2.06,2.06,0,0,0-.69.88,3,3,0,0,0-.22,1.12v4.3Z"/><path class="cls-9" d="M22.63,21.6a3.48,3.48,0,0,1-1.27.73,4.74,4.74,0,0,1-1.58.28,4.16,4.16,0,0,1-2-.47,3.17,3.17,0,0,1-1.3-1.34A4.46,4.46,0,0,1,16,18.7a4.45,4.45,0,0,1,.45-2.05,3.41,3.41,0,0,1,1.25-1.38,3.49,3.49,0,0,1,1.86-.49,3.17,3.17,0,0,1,1.72.44,2.8,2.8,0,0,1,1.1,1.27,4.55,4.55,0,0,1,.39,2v.23h-5.7v-.8h5l-.39.56a3.19,3.19,0,0,0-.52-2,1.91,1.91,0,0,0-1.6-.7,2.11,2.11,0,0,0-1.72.77,3.36,3.36,0,0,0-.62,2.14,3.32,3.32,0,0,0,.65,2.22,2.42,2.42,0,0,0,1.92.75,3.56,3.56,0,0,0,1.26-.22,3.84,3.84,0,0,0,1.17-.67Z"/><path class="cls-9" d="M24.61,25.74V17.07c0-.35,0-.7,0-1.06s-.05-.71-.1-1.06h1.16l.13,1.56-.12.23a2.52,2.52,0,0,1,1-1.46,3,3,0,0,1,1.75-.5,3.08,3.08,0,0,1,1.74.49,3.35,3.35,0,0,1,1.19,1.38,4.78,4.78,0,0,1,.42,2.07,4.7,4.7,0,0,1-.42,2.06,3.13,3.13,0,0,1-2.93,1.83,2.88,2.88,0,0,1-1.75-.52,2.5,2.5,0,0,1-1-1.45l.16-.15v5.25Zm3.54-4.14a2.09,2.09,0,0,0,1.71-.75,3.28,3.28,0,0,0,.62-2.13,3.36,3.36,0,0,0-.62-2.15,2.06,2.06,0,0,0-1.71-.78,2.09,2.09,0,0,0-1.73.75,3.44,3.44,0,0,0-.6,2.15,3.44,3.44,0,0,0,.6,2.15A2.07,2.07,0,0,0,28.15,21.6Z"/><path class="cls-9" d="M39.79,21.6a3.48,3.48,0,0,1-1.27.73,4.74,4.74,0,0,1-1.58.28,4.16,4.16,0,0,1-2-.47,3.17,3.17,0,0,1-1.3-1.34,4.46,4.46,0,0,1-.46-2.1,4.45,4.45,0,0,1,.45-2.05,3.41,3.41,0,0,1,1.25-1.38,3.46,3.46,0,0,1,1.85-.49,3.2,3.2,0,0,1,1.73.44,2.8,2.8,0,0,1,1.1,1.27,4.56,4.56,0,0,1,.38,2v.23H34.23v-.8h5l-.39.56a3.19,3.19,0,0,0-.51-2,1.91,1.91,0,0,0-1.6-.7,2.11,2.11,0,0,0-1.72.77,3.36,3.36,0,0,0-.62,2.14A3.32,3.32,0,0,0,35,20.85,2.41,2.41,0,0,0,37,21.6a3.56,3.56,0,0,0,1.26-.22,3.8,3.8,0,0,0,1.16-.67Z"/><path class="cls-9" d="M44.66,22.61a3.23,3.23,0,0,1-1.76-.48,3.11,3.11,0,0,1-1.17-1.35,4.85,4.85,0,0,1-.41-2.06,4.78,4.78,0,0,1,.42-2.07,3.26,3.26,0,0,1,1.18-1.38,3.08,3.08,0,0,1,1.74-.49,3,3,0,0,1,1.76.5,2.52,2.52,0,0,1,1,1.46l-.18.12V15h1.2V22.5h-1.2V20.55l.18.09a2.5,2.5,0,0,1-1,1.45A2.91,2.91,0,0,1,44.66,22.61Zm.24-1a2,2,0,0,0,1.71-.76,3.38,3.38,0,0,0,.6-2.15,3.38,3.38,0,0,0-.6-2.15,2.32,2.32,0,0,0-3.44,0,3.36,3.36,0,0,0-.62,2.15,3.28,3.28,0,0,0,.62,2.13A2.13,2.13,0,0,0,44.9,21.6Z"/><path class="cls-9" d="M49.7,15.91V15h4.85v1Zm4.82,5.51v1l-.5.12a4.58,4.58,0,0,1-.55,0A2.3,2.3,0,0,1,51.8,22a2.36,2.36,0,0,1-.63-1.8V13l1.22-.44V20a2.11,2.11,0,0,0,.17.93,1,1,0,0,0,.47.46,1.83,1.83,0,0,0,.68.12l.4,0Z"/></g><g class="cls-10"><path class="cls-9" d="M119.57,15.91V15h4.85v1Zm4.82,5.51v1a4.7,4.7,0,0,1-.51.12,4.26,4.26,0,0,1-.54,0,2.34,2.34,0,0,1-1.68-.61,2.39,2.39,0,0,1-.62-1.8V13l1.22-.44V20a2,2,0,0,0,.17.93,1,1,0,0,0,.47.46,1.83,1.83,0,0,0,.68.12l.4,0Z"/><path class="cls-9" d="M125.77,11.76h1.48v1.38h-1.48Zm.12,10.74V15h1.21V22.5Z"/><path class="cls-9" d="M129.46,22.5V17.07c0-.35,0-.7,0-1.06a9.47,9.47,0,0,0-.09-1.06h1.15l.14,1.56-.15.11a2.56,2.56,0,0,1,.93-1.37,2.74,2.74,0,0,1,1.59-.47,2.43,2.43,0,0,1,1.7.54,2.61,2.61,0,0,1,.77,1.64l-.36-.19a2.5,2.5,0,0,1,1-1.45,2.78,2.78,0,0,1,1.75-.54,2.29,2.29,0,0,1,1.87.74,3.38,3.38,0,0,1,.63,2.24V22.5h-1.21V17.82a2.54,2.54,0,0,0-.38-1.54,1.41,1.41,0,0,0-1.18-.49,1.88,1.88,0,0,0-1.5.65,2.65,2.65,0,0,0-.54,1.76v4.3H134.3V17.82a2.54,2.54,0,0,0-.38-1.54,1.44,1.44,0,0,0-1.19-.49,1.87,1.87,0,0,0-1.51.65,2.6,2.6,0,0,0-.55,1.76v4.3Z"/><path class="cls-9" d="M148.82,21.6a3.48,3.48,0,0,1-1.27.73,4.74,4.74,0,0,1-1.58.28,4.16,4.16,0,0,1-2-.47,3.17,3.17,0,0,1-1.3-1.34,4.46,4.46,0,0,1-.46-2.1,4.45,4.45,0,0,1,.45-2.05,3.41,3.41,0,0,1,1.25-1.38,3.49,3.49,0,0,1,1.86-.49,3.17,3.17,0,0,1,1.72.44,2.8,2.8,0,0,1,1.1,1.27,4.55,4.55,0,0,1,.39,2v.23h-5.7v-.8h5l-.39.56a3.19,3.19,0,0,0-.52-2,1.91,1.91,0,0,0-1.6-.7,2.11,2.11,0,0,0-1.72.77,3.36,3.36,0,0,0-.62,2.14,3.32,3.32,0,0,0,.65,2.22,2.42,2.42,0,0,0,1.92.75,3.56,3.56,0,0,0,1.26-.22,3.84,3.84,0,0,0,1.17-.67Z"/><path class="cls-9" d="M153.35,22.61a4.4,4.4,0,0,1-3-1l.4-.9a4.11,4.11,0,0,0,1.24.68,4.23,4.23,0,0,0,1.42.22,2.37,2.37,0,0,0,1.29-.29,1,1,0,0,0,.45-.85.89.89,0,0,0-.3-.71,2.3,2.3,0,0,0-1-.43l-1.28-.3a2.78,2.78,0,0,1-1.46-.75,1.78,1.78,0,0,1-.52-1.29,1.93,1.93,0,0,1,.36-1.16,2.37,2.37,0,0,1,1-.79,3.77,3.77,0,0,1,1.53-.28A4.37,4.37,0,0,1,155,15a3.28,3.28,0,0,1,1.18.73l-.4.89a4.06,4.06,0,0,0-1.11-.67,3.29,3.29,0,0,0-1.17-.22,2.17,2.17,0,0,0-1.26.32,1,1,0,0,0-.44.85,1,1,0,0,0,.28.74,1.89,1.89,0,0,0,.89.42l1.28.31a2.93,2.93,0,0,1,1.56.75,1.78,1.78,0,0,1,.51,1.31,1.85,1.85,0,0,1-.8,1.56A3.57,3.57,0,0,1,153.35,22.61Z"/></g><g class="cls-10"><path class="cls-9" d="M17.82,53.5h-1.2v-2l.18.17a2.51,2.51,0,0,1-1,1.45,2.9,2.9,0,0,1-1.75.52,3.17,3.17,0,0,1-1.75-.49,3.26,3.26,0,0,1-1.18-1.38,4.86,4.86,0,0,1-.42-2.08,4.81,4.81,0,0,1,.41-2,3.25,3.25,0,0,1,1.17-1.36,3.34,3.34,0,0,1,1.77-.47,3,3,0,0,1,1.75.51,2.58,2.58,0,0,1,1,1.45l-.2.15V42.46h1.22Zm-3.51-.9a2.06,2.06,0,0,0,1.7-.76,4.11,4.11,0,0,0,0-4.29,2.08,2.08,0,0,0-1.71-.76,2.15,2.15,0,0,0-1.74.75A3.27,3.27,0,0,0,12,49.66a3.42,3.42,0,0,0,.62,2.17A2.13,2.13,0,0,0,14.31,52.6Z"/><path class="cls-9" d="M23.29,53.61a3.49,3.49,0,0,1-1.88-.49,3.26,3.26,0,0,1-1.25-1.35,5.11,5.11,0,0,1,0-4.15,3.26,3.26,0,0,1,1.25-1.37,4,4,0,0,1,3.76,0,3.26,3.26,0,0,1,1.25,1.37,5.11,5.11,0,0,1,0,4.15,3.26,3.26,0,0,1-1.25,1.35A3.49,3.49,0,0,1,23.29,53.61Zm0-1A2.12,2.12,0,0,0,25,51.86a3.4,3.4,0,0,0,.61-2.17A3.32,3.32,0,0,0,25,47.54a2.09,2.09,0,0,0-1.71-.75,2.12,2.12,0,0,0-1.72.75,4.1,4.1,0,0,0,0,4.32A2.11,2.11,0,0,0,23.29,52.6Z"/></g></g></g></svg>