<svg xmlns="http://www.w3.org/2000/svg" viewBox="0 0 595.39 138.73"><defs><style>.cls-1{fill:none;}.cls-2{fill:#aaacd4;}.cls-3{isolation:isolate;}.cls-4{fill:#010101;}.cls-5{fill:#3d4986;}.cls-6{fill:#4c5ba6;}.cls-7{fill:#818dc1;}.cls-8{opacity:0.6;}.cls-9{fill:#fff;}</style></defs><g id="Layer_2" data-name="Layer 2"><g id="Layer_1-2" data-name="Layer 1"><rect class="cls-1" x="0.12" width="595.28" height="18"/><rect class="cls-2" x="13.12" y="31.69" width="46.27" height="107.04" rx="5.67"/><g class="cls-3"><path class="cls-4" d="M21.84,44.67a4.42,4.42,0,0,1-3-1l.41-.9a4.46,4.46,0,0,0,1.23.69,4.55,4.55,0,0,0,1.42.21,2.34,2.34,0,0,0,1.3-.29,1,1,0,0,0,.44-.85.9.9,0,0,0-.3-.71,2.42,2.42,0,0,0-1-.43l-1.27-.3a2.86,2.86,0,0,1-1.47-.75,1.81,1.81,0,0,1-.51-1.29,2,2,0,0,1,.36-1.16,2.42,2.42,0,0,1,1-.79A3.77,3.77,0,0,1,22,36.84a4.37,4.37,0,0,1,1.5.25,3.21,3.21,0,0,1,1.19.74l-.41.88a3.87,3.87,0,0,0-1.1-.66A3.17,3.17,0,0,0,22,37.83a2.12,2.12,0,0,0-1.25.31,1.09,1.09,0,0,0-.17,1.59,2,2,0,0,0,.9.42l1.27.32a3.07,3.07,0,0,1,1.57.74A1.95,1.95,0,0,1,24,44.08,3.57,3.57,0,0,1,21.84,44.67Z"/><path class="cls-4" d="M26.61,33.82h1.48V35.2H26.61Zm.12,10.74V37h1.21v7.54Z"/><path class="cls-4" d="M30.3,44.56V39.13q0-.52,0-1.05A9.28,9.28,0,0,0,30.18,37h1.15l.14,1.56-.15.12a2.61,2.61,0,0,1,1-1.39,3.09,3.09,0,0,1,1.69-.47c1.81,0,2.72,1,2.72,3v4.74H35.56V39.88a2.29,2.29,0,0,0-.42-1.53,1.64,1.64,0,0,0-1.32-.49,2.24,2.24,0,0,0-1.68.64,2.38,2.38,0,0,0-.63,1.74v4.32Z"/><path class="cls-4" d="M22.45,62.67a3.7,3.7,0,0,1-1.92-.48,3.2,3.2,0,0,1-1.25-1.35,4.44,4.44,0,0,1-.44-2.06,4.53,4.53,0,0,1,.45-2.06,3.35,3.35,0,0,1,1.27-1.39,3.72,3.72,0,0,1,2-.49A4.39,4.39,0,0,1,24,55.1a3.33,3.33,0,0,1,1.18.73l-.41.9a4.35,4.35,0,0,0-1.09-.65,2.77,2.77,0,0,0-1.1-.22,2.28,2.28,0,0,0-1.81.76,3.21,3.21,0,0,0-.66,2.16,3.12,3.12,0,0,0,.66,2.13,2.28,2.28,0,0,0,1.81.75,3,3,0,0,0,1.1-.21,4.73,4.73,0,0,0,1.09-.66l.41.9a3.6,3.6,0,0,1-1.21.72A4.57,4.57,0,0,1,22.45,62.67Z"/><path class="cls-4" d="M29.83,62.67A3.58,3.58,0,0,1,28,62.19a3.23,3.23,0,0,1-1.25-1.36,5.11,5.11,0,0,1,0-4.15A3.23,3.23,0,0,1,28,55.32a3.92,3.92,0,0,1,3.76,0A3.23,3.23,0,0,1,33,56.68a5.11,5.11,0,0,1,0,4.15,3.23,3.23,0,0,1-1.25,1.36A3.58,3.58,0,0,1,29.83,62.67Zm0-1a2.09,2.09,0,0,0,1.72-.74,3.38,3.38,0,0,0,.61-2.17,3.29,3.29,0,0,0-.62-2.14,2.09,2.09,0,0,0-1.71-.75,2.12,2.12,0,0,0-1.72.75,3.29,3.29,0,0,0-.62,2.14,3.32,3.32,0,0,0,.61,2.17A2.08,2.08,0,0,0,29.83,61.66Z"/><path class="cls-4" d="M37.84,62.67a4.4,4.4,0,0,1-3-1l.4-.9a4.37,4.37,0,0,0,1.24.69,4.51,4.51,0,0,0,1.42.21,2.28,2.28,0,0,0,1.29-.29,1,1,0,0,0,.45-.85.9.9,0,0,0-.3-.71,2.42,2.42,0,0,0-1-.43l-1.28-.3a2.78,2.78,0,0,1-1.46-.75,1.78,1.78,0,0,1-.52-1.29,2,2,0,0,1,.36-1.16,2.45,2.45,0,0,1,1-.79A3.77,3.77,0,0,1,38,54.84a4.37,4.37,0,0,1,1.5.25,3.16,3.16,0,0,1,1.18.74l-.4.88a3.78,3.78,0,0,0-1.11-.66A3.08,3.08,0,0,0,38,55.83a2.17,2.17,0,0,0-1.26.31,1,1,0,0,0-.44.86,1,1,0,0,0,.28.73,1.89,1.89,0,0,0,.89.42l1.28.32a3,3,0,0,1,1.56.74,1.79,1.79,0,0,1,.51,1.31,1.85,1.85,0,0,1-.8,1.56A3.57,3.57,0,0,1,37.84,62.67Z"/><path class="cls-4" d="M18.22,74V73h4.85v1ZM23,79.48v1a3.1,3.1,0,0,1-.51.11,3,3,0,0,1-.54,0,2.33,2.33,0,0,1-1.68-.6,2.41,2.41,0,0,1-.62-1.8V71.08l1.22-.43V78.1a2,2,0,0,0,.17.93.91.91,0,0,0,.47.46,1.65,1.65,0,0,0,.68.13,2.41,2.41,0,0,0,.4,0A2.83,2.83,0,0,0,23,79.48Z"/><path class="cls-4" d="M27.43,80.67a3.28,3.28,0,0,1-1.76-.47,3.09,3.09,0,0,1-1.17-1.35,5.37,5.37,0,0,1,0-4.14,3.31,3.31,0,0,1,1.17-1.38,3.14,3.14,0,0,1,1.75-.49,3,3,0,0,1,1.76.51,2.5,2.5,0,0,1,1,1.45l-.18.12V73h1.2v7.54H30v-2l.18.09a2.52,2.52,0,0,1-1,1.46A3,3,0,0,1,27.43,80.67Zm.24-1a2.06,2.06,0,0,0,1.71-.75,3.43,3.43,0,0,0,.6-2.16,3.29,3.29,0,0,0-.61-2.14,2.06,2.06,0,0,0-1.7-.75,2.1,2.1,0,0,0-1.73.77,3.32,3.32,0,0,0-.62,2.15,3.22,3.22,0,0,0,.62,2.13A2.12,2.12,0,0,0,27.67,79.66Z"/><path class="cls-4" d="M33.54,80.56V75.13q0-.52,0-1A9.28,9.28,0,0,0,33.42,73h1.15l.14,1.56-.15.12a2.61,2.61,0,0,1,1-1.39,3.09,3.09,0,0,1,1.69-.47c1.81,0,2.72,1,2.72,3v4.74H38.8V75.88a2.29,2.29,0,0,0-.42-1.53,1.64,1.64,0,0,0-1.32-.49,2.24,2.24,0,0,0-1.68.64,2.38,2.38,0,0,0-.63,1.74v4.32Z"/><path class="cls-4" d="M22.18,98.67a3.28,3.28,0,0,1-1.76-.47,3.09,3.09,0,0,1-1.17-1.35,5.37,5.37,0,0,1,0-4.14,3.31,3.31,0,0,1,1.17-1.38,3.14,3.14,0,0,1,1.75-.49,3,3,0,0,1,1.76.51,2.5,2.5,0,0,1,1,1.45l-.18.12V91h1.2v7.54h-1.2v-2l.18.09a2.52,2.52,0,0,1-1,1.46A3,3,0,0,1,22.18,98.67Zm.24-1a2.06,2.06,0,0,0,1.71-.75,3.43,3.43,0,0,0,.6-2.16,3.29,3.29,0,0,0-.61-2.14,2.06,2.06,0,0,0-1.7-.75,2.1,2.1,0,0,0-1.73.77,3.32,3.32,0,0,0-.62,2.15,3.22,3.22,0,0,0,.62,2.13A2.12,2.12,0,0,0,22.42,97.66Z"/><path class="cls-4" d="M30.84,98.67a4.42,4.42,0,0,1-3-1l.41-.9a4.46,4.46,0,0,0,1.23.69,4.55,4.55,0,0,0,1.42.21,2.34,2.34,0,0,0,1.3-.29,1,1,0,0,0,.44-.85.9.9,0,0,0-.3-.71,2.42,2.42,0,0,0-1-.43l-1.27-.3a2.86,2.86,0,0,1-1.47-.75,1.81,1.81,0,0,1-.51-1.29,2,2,0,0,1,.36-1.16,2.42,2.42,0,0,1,1-.79A3.77,3.77,0,0,1,31,90.84a4.37,4.37,0,0,1,1.5.25,3.21,3.21,0,0,1,1.19.74l-.41.88a3.87,3.87,0,0,0-1.1-.66A3.17,3.17,0,0,0,31,91.83a2.12,2.12,0,0,0-1.25.31,1.09,1.09,0,0,0-.17,1.59,2,2,0,0,0,.9.42l1.27.32a3.07,3.07,0,0,1,1.57.74A1.95,1.95,0,0,1,33,98.08,3.57,3.57,0,0,1,30.84,98.67Z"/><path class="cls-4" d="M35.61,87.82h1.48V89.2H35.61Zm.12,10.74V91h1.21v7.54Z"/><path class="cls-4" d="M39.3,98.56V93.13q0-.52,0-1A9.28,9.28,0,0,0,39.18,91h1.15l.14,1.56-.15.12a2.61,2.61,0,0,1,1-1.39,3.09,3.09,0,0,1,1.69-.47c1.81,0,2.72,1,2.72,3v4.74H44.56V93.88a2.29,2.29,0,0,0-.42-1.53,1.64,1.64,0,0,0-1.32-.49,2.24,2.24,0,0,0-1.68.64,2.38,2.38,0,0,0-.63,1.74v4.32Z"/><path class="cls-4" d="M22.18,116.67a3.28,3.28,0,0,1-1.76-.47,3.09,3.09,0,0,1-1.17-1.35,5.37,5.37,0,0,1,0-4.14,3.31,3.31,0,0,1,1.17-1.38,3.14,3.14,0,0,1,1.75-.49,3,3,0,0,1,1.76.51,2.5,2.5,0,0,1,1,1.45l-.18.12V109h1.2v7.54h-1.2v-2l.18.09a2.52,2.52,0,0,1-1,1.46A3,3,0,0,1,22.18,116.67Zm.24-1a2.06,2.06,0,0,0,1.71-.75,3.43,3.43,0,0,0,.6-2.16,3.29,3.29,0,0,0-.61-2.14,2.06,2.06,0,0,0-1.7-.75,2.1,2.1,0,0,0-1.73.77,3.32,3.32,0,0,0-.62,2.15,3.22,3.22,0,0,0,.62,2.13A2.12,2.12,0,0,0,22.42,115.66Z"/><path class="cls-4" d="M31.45,116.67a3.7,3.7,0,0,1-1.92-.48,3.2,3.2,0,0,1-1.25-1.35,4.44,4.44,0,0,1-.44-2.06,4.53,4.53,0,0,1,.45-2.06,3.35,3.35,0,0,1,1.27-1.39,3.72,3.72,0,0,1,2-.49,4.39,4.39,0,0,1,1.48.26,3.33,3.33,0,0,1,1.18.73l-.41.9a4.35,4.35,0,0,0-1.09-.65,2.77,2.77,0,0,0-1.1-.22,2.28,2.28,0,0,0-1.81.76,3.21,3.21,0,0,0-.66,2.16,3.12,3.12,0,0,0,.66,2.13,2.28,2.28,0,0,0,1.81.75,3,3,0,0,0,1.1-.21,4.73,4.73,0,0,0,1.09-.66l.41.9a3.6,3.6,0,0,1-1.21.72A4.57,4.57,0,0,1,31.45,116.67Z"/><path class="cls-4" d="M38.83,116.67a3.58,3.58,0,0,1-1.88-.48,3.23,3.23,0,0,1-1.25-1.36,5.11,5.11,0,0,1,0-4.15A3.23,3.23,0,0,1,37,109.32a3.92,3.92,0,0,1,3.76,0A3.23,3.23,0,0,1,42,110.68a5.11,5.11,0,0,1,0,4.15,3.23,3.23,0,0,1-1.25,1.36A3.58,3.58,0,0,1,38.83,116.67Zm0-1a2.09,2.09,0,0,0,1.72-.74,3.38,3.38,0,0,0,.61-2.17,3.29,3.29,0,0,0-.62-2.14,2.09,2.09,0,0,0-1.71-.75,2.12,2.12,0,0,0-1.72.75,3.29,3.29,0,0,0-.62,2.14,3.32,3.32,0,0,0,.61,2.17A2.08,2.08,0,0,0,38.83,115.66Z"/><path class="cls-4" d="M46.84,116.67a4.4,4.4,0,0,1-3-1l.4-.9a4.37,4.37,0,0,0,1.24.69,4.51,4.51,0,0,0,1.42.21,2.28,2.28,0,0,0,1.29-.29,1,1,0,0,0,.45-.85.9.9,0,0,0-.3-.71,2.42,2.42,0,0,0-1-.43l-1.28-.3a2.78,2.78,0,0,1-1.46-.75,1.78,1.78,0,0,1-.52-1.29,2,2,0,0,1,.36-1.16,2.45,2.45,0,0,1,1-.79,3.77,3.77,0,0,1,1.53-.28,4.37,4.37,0,0,1,1.5.25,3.16,3.16,0,0,1,1.18.74l-.4.88a3.78,3.78,0,0,0-1.11-.66,3.08,3.08,0,0,0-1.17-.22,2.17,2.17,0,0,0-1.26.31,1,1,0,0,0-.44.86,1,1,0,0,0,.28.73,1.89,1.89,0,0,0,.89.42l1.28.32a3,3,0,0,1,1.56.74,1.79,1.79,0,0,1,.51,1.31,1.85,1.85,0,0,1-.8,1.56A3.57,3.57,0,0,1,46.84,116.67Z"/><path class="cls-4" d="M22.18,134.67a3.28,3.28,0,0,1-1.76-.47,3.09,3.09,0,0,1-1.17-1.35,5.37,5.37,0,0,1,0-4.14,3.31,3.31,0,0,1,1.17-1.38,3.14,3.14,0,0,1,1.75-.49,3,3,0,0,1,1.76.51,2.5,2.5,0,0,1,1,1.45l-.18.12V127h1.2v7.54h-1.2v-1.95l.18.09a2.52,2.52,0,0,1-1,1.46A3,3,0,0,1,22.18,134.67Zm.24-1a2.06,2.06,0,0,0,1.71-.75,3.43,3.43,0,0,0,.6-2.16,3.29,3.29,0,0,0-.61-2.14,2.06,2.06,0,0,0-1.7-.75,2.1,2.1,0,0,0-1.73.77,3.32,3.32,0,0,0-.62,2.15,3.22,3.22,0,0,0,.62,2.13A2.12,2.12,0,0,0,22.42,133.66Z"/><path class="cls-4" d="M27.22,128v-1h4.85v1Zm4.82,5.5v1a3.1,3.1,0,0,1-.51.11,3,3,0,0,1-.54,0,2.33,2.33,0,0,1-1.68-.6,2.41,2.41,0,0,1-.62-1.8v-7.19l1.22-.43v7.45a2,2,0,0,0,.17.93.91.91,0,0,0,.47.46,1.65,1.65,0,0,0,.68.13,2.41,2.41,0,0,0,.4,0A2.83,2.83,0,0,0,32,133.48Z"/><path class="cls-4" d="M36.43,134.67a3.28,3.28,0,0,1-1.76-.47,3.09,3.09,0,0,1-1.17-1.35,5.37,5.37,0,0,1,0-4.14,3.31,3.31,0,0,1,1.17-1.38,3.14,3.14,0,0,1,1.75-.49,3,3,0,0,1,1.76.51,2.5,2.5,0,0,1,1,1.45l-.18.12V127h1.2v7.54H39v-1.95l.18.09a2.52,2.52,0,0,1-1,1.46A3,3,0,0,1,36.43,134.67Zm.24-1a2.06,2.06,0,0,0,1.71-.75,3.43,3.43,0,0,0,.6-2.16,3.29,3.29,0,0,0-.61-2.14,2.06,2.06,0,0,0-1.7-.75,2.1,2.1,0,0,0-1.73.77,3.32,3.32,0,0,0-.62,2.15,3.22,3.22,0,0,0,.62,2.13A2.12,2.12,0,0,0,36.67,133.66Z"/><path class="cls-4" d="M42.54,134.56v-5.43q0-.52,0-1a9.28,9.28,0,0,0-.09-1.06h1.15l.14,1.56-.15.12a2.61,2.61,0,0,1,1-1.39,3.09,3.09,0,0,1,1.69-.47c1.81,0,2.72,1,2.72,3v4.74H47.8v-4.68a2.29,2.29,0,0,0-.42-1.53,1.64,1.64,0,0,0-1.32-.49,2.24,2.24,0,0,0-1.68.64,2.38,2.38,0,0,0-.63,1.74v4.32Z"/></g><polygon class="cls-4" points="49.02 44.38 53.99 35.75 44.04 35.75 49.02 44.38"/><path class="cls-5" d="M9.12,1h63.8V6c0,10-8-8-8,7.5s8-2.5,8,7.5v5H9.12V21c0-10-8,8-8-7.5s8,2.5,8-7.5Z"/><path class="cls-6" d="M8.12,0h63.8V5c0,10-8-8-8,7.5s8-2.5,8,7.5v5H8.12V20c0-10-8,8-8-7.5s8,2.5,8-7.5Z"/><path class="cls-7" d="M9.12,24.5h-1v-6h1Zm58-4.77-.49-.86,3.68-2.1.49.86ZM.77,18.13a20.9,20.9,0,0,1,0-11.26l1,.26a19.79,19.79,0,0,0,0,10.74ZM9.12,8h-1V0h63.3V1H9.12Z"/><g class="cls-8"><rect class="cls-9" x="13.12" y="5" width="45.8" height="16" rx="4"/></g><g class="cls-3"><path class="cls-4" d="M21.84,17.61a4.42,4.42,0,0,1-3-1l.41-.9a4.18,4.18,0,0,0,1.23.68,4.27,4.27,0,0,0,1.42.22,2.43,2.43,0,0,0,1.3-.29,1,1,0,0,0,.44-.85.89.89,0,0,0-.3-.71,2.3,2.3,0,0,0-1-.43l-1.27-.3a2.86,2.86,0,0,1-1.47-.75A1.81,1.81,0,0,1,19.08,12a1.93,1.93,0,0,1,.36-1.16,2.34,2.34,0,0,1,1-.79A3.77,3.77,0,0,1,22,9.78a4.37,4.37,0,0,1,1.5.25,3.19,3.19,0,0,1,1.19.73l-.41.89a4.17,4.17,0,0,0-1.1-.67A3.38,3.38,0,0,0,22,10.76a2.12,2.12,0,0,0-1.25.32,1,1,0,0,0-.44.85,1,1,0,0,0,.27.74,2,2,0,0,0,.9.42l1.27.31a3,3,0,0,1,1.57.75,1.81,1.81,0,0,1,.5,1.31A1.84,1.84,0,0,1,24,17,3.57,3.57,0,0,1,21.84,17.61Z"/><path class="cls-4" d="M26.61,6.76h1.48V8.14H26.61Zm.12,10.74V10h1.21V17.5Z"/><path class="cls-4" d="M30.3,17.5V12.07c0-.35,0-.7,0-1.06A9.47,9.47,0,0,0,30.18,10h1.15l.14,1.56-.15.12a2.59,2.59,0,0,1,1-1.38,3,3,0,0,1,1.69-.47c1.81,0,2.72,1,2.72,3V17.5H35.56V12.82a2.34,2.34,0,0,0-.42-1.54,1.67,1.67,0,0,0-1.32-.49,2.24,2.24,0,0,0-1.68.65,2.38,2.38,0,0,0-.63,1.74V17.5Z"/></g><polygon class="cls-4" points="49.02 17.31 53.99 8.69 44.04 8.69 49.02 17.31"/></g></g></svg>