<svg xmlns="http://www.w3.org/2000/svg" viewBox="0 0 595.39 26"><defs><style>.cls-1{fill:none;}.cls-2{fill:#3d4986;}.cls-3{fill:#4c5ba6;}.cls-4{fill:#818dc1;}.cls-5{opacity:0.6;}.cls-6{fill:#fff;}.cls-7{isolation:isolate;}.cls-8{fill:#010101;}</style></defs><g id="Layer_2" data-name="Layer 2"><g id="Layer_1-2" data-name="Layer 1"><rect class="cls-1" x="0.12" width="595.28" height="18"/><path class="cls-2" d="M9.12,1h28.8V26H9.12V21c0-10-8,8-8-7.5s8,2.5,8-7.5Z"/><path class="cls-3" d="M8.12,0h28.8V25H8.12V20c0-10-8,8-8-7.5s8,2.5,8-7.5Z"/><path class="cls-4" d="M9.12,24.5h-1v-6h1ZM.77,18.13a20.9,20.9,0,0,1,0-11.26l1,.26a19.79,19.79,0,0,0,0,10.74ZM9.12,8h-1V0h28.3V1H9.12Z"/><g class="cls-5"><rect class="cls-6" x="13.12" y="5" width="18.8" height="16" rx="4"/></g><g class="cls-7"><path class="cls-8" d="M22.62,17.62a3.17,3.17,0,0,1-2.79-1.39,7.22,7.22,0,0,1-.95-4.07,7.22,7.22,0,0,1,.95-4.07A3.15,3.15,0,0,1,22.62,6.7a3.15,3.15,0,0,1,2.79,1.39,7.17,7.17,0,0,1,.94,4.05,7.26,7.26,0,0,1-1,4.08A3.16,3.16,0,0,1,22.62,17.62Zm0-1A2,2,0,0,0,24.5,15.5a7.17,7.17,0,0,0,.61-3.36,7,7,0,0,0-.61-3.33,2,2,0,0,0-1.88-1.06,2,2,0,0,0-1.89,1.07,7,7,0,0,0-.6,3.32,7.19,7.19,0,0,0,.6,3.36A2,2,0,0,0,22.62,16.58Z"/></g></g></g></svg>