<svg xmlns="http://www.w3.org/2000/svg" viewBox="0 0 595.39 37"><defs><style>.cls-1{fill:none;}.cls-2{fill:#3d4986;}.cls-3{fill:#4c5ba6;}.cls-4{fill:#818dc1;}.cls-5{opacity:0.6;}.cls-6{fill:#fff;}.cls-7{isolation:isolate;}.cls-8{fill:#010101;}</style></defs><g id="Layer_2" data-name="Layer 2"><g id="Layer_1-2" data-name="Layer 1"><rect class="cls-1" x="0.12" width="595.28" height="18"/><path class="cls-2" d="M9.12,1H307.47V37H9.12V21c0-10-8,8-8-7.5s8,2.5,8-7.5Zm103.1,5H97.72v5c0,10-8-8-8,7.5s8-2.5,8,7.5v6h14.5Zm81.33,0h-30.8v5c0,10-8-8-8,7.5s8-2.5,8,7.5v7h30.8ZM297.47,6h-48.4v5c0,10-8-8-8,7.5s8-2.5,8,7.5v7h48.4Z"/><path class="cls-3" d="M8.12,0H306.47V36H8.12V20c0-10-8,8-8-7.5s8,2.5,8-7.5Zm103.1,5H96.72v5c0,10-8-8-8,7.5s8-2.5,8,7.5v6h14.5Zm81.33,0h-30.8v5c0,10-8-8-8,7.5s8-2.5,8,7.5v7h30.8ZM296.47,5h-48.4v5c0,10-8-8-8,7.5s8-2.5,8,7.5v7h48.4Z"/><path class="cls-4" d="M9.12,35.5h-1v-17h1ZM297.47,33h-48.9V32h47.9V5.5h1ZM193.55,33h-31.3V32h30.3V5.5h1Zm-81.33-1h-15V31h14V5.5h1Zm131-7.27-.49-.86,3.68-2.1.49.86Zm-86.31,0-.5-.86,3.68-2.1.5.86Zm-65,0-.49-.86,3.68-2.1.49.86ZM.77,18.13a20.9,20.9,0,0,1,0-11.26l1,.26a19.79,19.79,0,0,0,0,10.74ZM9.12,8h-1V0H306V1H9.12Z"/><path class="cls-2" d="M163.75,7h28.8V32h-28.8V27c0-10-8,8-8-7.5s8,2.5,8-7.5Z"/><path class="cls-3" d="M162.75,6h28.8V31h-28.8V26c0-10-8,8-8-7.5s8,2.5,8-7.5Z"/><path class="cls-4" d="M163.75,30.5h-1v-6h1Zm-8.34-6.37a20.9,20.9,0,0,1,0-11.26l1,.26a20,20,0,0,0,0,10.74ZM163.75,14h-1V6h28.3V7h-27.3Z"/><g class="cls-5"><rect class="cls-6" x="167.75" y="11" width="18.8" height="16" rx="4"/></g><g class="cls-7"><path class="cls-8" d="M174.67,23.5v-1h6v1ZM177,23V13.54l.7.36-2.89,1.85V14.56l2.73-1.74h.7V23Z"/></g><path class="cls-2" d="M250.07,7h46.4V32h-46.4V27c0-10-8,8-8-7.5s8,2.5,8-7.5Z"/><path class="cls-3" d="M249.07,6h46.4V31h-46.4V26c0-10-8,8-8-7.5s8,2.5,8-7.5Z"/><path class="cls-4" d="M250.07,30.5h-1v-6h1Zm-8.35-6.37a20.9,20.9,0,0,1,0-11.26l1,.26a19.79,19.79,0,0,0,0,10.74ZM250.07,14h-1V6H295V7h-44.9Z"/><g class="cls-5"><rect class="cls-6" x="254.07" y="11" width="36.4" height="16" rx="4"/></g><g class="cls-7"><path class="cls-8" d="M261,23.5v-1h5.95v1Zm2.35-.55V13.54l.71.36-2.9,1.85V14.56l2.73-1.74h.71V23Z"/><path class="cls-8" d="M272.57,23.62a3.17,3.17,0,0,1-2.79-1.39,7.22,7.22,0,0,1-.95-4.07,7.22,7.22,0,0,1,.95-4.07,3.5,3.5,0,0,1,5.58,0,7.2,7.2,0,0,1,.94,4.05,7.23,7.23,0,0,1-.95,4.08A3.14,3.14,0,0,1,272.57,23.62Zm0-1a2,2,0,0,0,1.88-1.09,7.12,7.12,0,0,0,.61-3.36,7,7,0,0,0-.61-3.33,2,2,0,0,0-1.88-1.06,2,2,0,0,0-1.89,1.07,7,7,0,0,0-.6,3.32,7.14,7.14,0,0,0,.6,3.36A2,2,0,0,0,272.57,22.59Z"/><path class="cls-8" d="M281.57,23.62a3.17,3.17,0,0,1-2.79-1.39,7.22,7.22,0,0,1-.95-4.07,7.22,7.22,0,0,1,.95-4.07,3.5,3.5,0,0,1,5.58,0,7.2,7.2,0,0,1,.94,4.05,7.23,7.23,0,0,1-.95,4.08A3.14,3.14,0,0,1,281.57,23.62Zm0-1a2,2,0,0,0,1.88-1.09,7.12,7.12,0,0,0,.61-3.36,7,7,0,0,0-.61-3.33,2,2,0,0,0-1.88-1.06,2,2,0,0,0-1.89,1.07,7,7,0,0,0-.6,3.32,7.14,7.14,0,0,0,.6,3.36A2,2,0,0,0,281.57,22.59Z"/></g><g class="cls-7"><path class="cls-6" d="M22.45,22.61a3.7,3.7,0,0,1-1.92-.48,3.26,3.26,0,0,1-1.25-1.35,4.44,4.44,0,0,1-.44-2.06,4.5,4.5,0,0,1,.45-2.06,3.29,3.29,0,0,1,1.27-1.39,3.72,3.72,0,0,1,2-.49A4.16,4.16,0,0,1,24,15a3.31,3.31,0,0,1,1.18.72l-.41.91A4.73,4.73,0,0,0,23.67,16a3,3,0,0,0-1.1-.21,2.28,2.28,0,0,0-1.81.76,3.21,3.21,0,0,0-.66,2.16,3.12,3.12,0,0,0,.66,2.13,2.28,2.28,0,0,0,1.81.75,2.84,2.84,0,0,0,1.1-.22,4.35,4.35,0,0,0,1.09-.65l.41.9a3.43,3.43,0,0,1-1.21.71A4.33,4.33,0,0,1,22.45,22.61Z"/><path class="cls-6" d="M29.83,22.61A3.58,3.58,0,0,1,28,22.13a3.35,3.35,0,0,1-1.25-1.36,4.65,4.65,0,0,1-.44-2.08,4.64,4.64,0,0,1,.44-2.07A3.32,3.32,0,0,1,28,15.25a4,4,0,0,1,3.76,0A3.32,3.32,0,0,1,33,16.62a4.64,4.64,0,0,1,.44,2.07A4.65,4.65,0,0,1,33,20.77a3.35,3.35,0,0,1-1.25,1.36A3.58,3.58,0,0,1,29.83,22.61Zm0-1a2.12,2.12,0,0,0,1.72-.74,3.4,3.4,0,0,0,.61-2.17,3.29,3.29,0,0,0-.62-2.14,2.09,2.09,0,0,0-1.71-.75,2.12,2.12,0,0,0-1.72.75,3.29,3.29,0,0,0-.62,2.14,3.34,3.34,0,0,0,.61,2.17A2.11,2.11,0,0,0,29.83,21.6Z"/><path class="cls-6" d="M35.29,22.5V17.07c0-.35,0-.7,0-1.06s-.05-.71-.1-1.05h1.16l.13,1.55-.15.12a2.59,2.59,0,0,1,1-1.38,3,3,0,0,1,1.7-.47c1.81,0,2.71,1,2.71,3V22.5H40.56V17.82a2.34,2.34,0,0,0-.42-1.54,1.67,1.67,0,0,0-1.32-.48,2.24,2.24,0,0,0-1.68.64,2.38,2.38,0,0,0-.63,1.74V22.5Z"/><path class="cls-6" d="M46.62,22.61a4.42,4.42,0,0,1-3-1l.41-.9a4.18,4.18,0,0,0,1.23.68,4.27,4.27,0,0,0,1.42.22,2.43,2.43,0,0,0,1.3-.29,1,1,0,0,0,.44-.85.89.89,0,0,0-.3-.71,2.3,2.3,0,0,0-1-.43l-1.27-.3a2.86,2.86,0,0,1-1.47-.75A1.81,1.81,0,0,1,43.86,17a1.93,1.93,0,0,1,.36-1.16,2.34,2.34,0,0,1,1-.79,3.77,3.77,0,0,1,1.53-.28,4.37,4.37,0,0,1,1.5.25,3.32,3.32,0,0,1,1.19.73l-.41.89a4.17,4.17,0,0,0-1.1-.67,3.38,3.38,0,0,0-1.18-.22,2.12,2.12,0,0,0-1.25.32,1.09,1.09,0,0,0-.17,1.59,2,2,0,0,0,.9.42l1.27.32a2.92,2.92,0,0,1,1.57.74,1.81,1.81,0,0,1,.5,1.31A1.84,1.84,0,0,1,48.78,22,3.57,3.57,0,0,1,46.62,22.61Z"/><path class="cls-6" d="M50.37,15.92V15h4.84v1Zm4.81,5.5v1l-.5.11a4.58,4.58,0,0,1-.55,0A2.26,2.26,0,0,1,52.46,22a2.35,2.35,0,0,1-.62-1.79V13l1.21-.43V20a2.11,2.11,0,0,0,.17.93,1,1,0,0,0,.48.46,1.78,1.78,0,0,0,.67.12,2.62,2.62,0,0,0,.41,0Z"/><path class="cls-6" d="M56.68,22.5V17.07c0-.35,0-.7,0-1.06s0-.71-.1-1.05h1.16l.16,1.86-.16-.05a2.35,2.35,0,0,1,.9-1.49,2.6,2.6,0,0,1,1.57-.5,2.23,2.23,0,0,1,.37,0,1.65,1.65,0,0,1,.32.07l0,1.1a2.69,2.69,0,0,0-.79-.11,2.11,2.11,0,0,0-1.26.34,2.06,2.06,0,0,0-.69.88,3,3,0,0,0-.21,1.12v4.3Z"/><path class="cls-6" d="M64.86,22.61a3.26,3.26,0,0,1-1.77-.48,3.11,3.11,0,0,1-1.17-1.35,4.85,4.85,0,0,1-.41-2.06,4.78,4.78,0,0,1,.42-2.07,3.26,3.26,0,0,1,1.18-1.38,3.12,3.12,0,0,1,1.75-.49,2.94,2.94,0,0,1,1.75.51,2.51,2.51,0,0,1,1,1.45l-.18.12V15h1.2V22.5h-1.2V20.55l.18.09a2.51,2.51,0,0,1-1,1.45A2.88,2.88,0,0,1,64.86,22.61Zm.24-1a2,2,0,0,0,1.71-.76,3.38,3.38,0,0,0,.6-2.15,3.35,3.35,0,0,0-.61-2.14,2.07,2.07,0,0,0-1.7-.75,2.11,2.11,0,0,0-1.74.77,3.36,3.36,0,0,0-.62,2.15,3.28,3.28,0,0,0,.62,2.13A2.15,2.15,0,0,0,65.1,21.6Z"/><path class="cls-6" d="M70.84,11.76h1.49v1.38H70.84ZM71,22.5V15h1.22V22.5Z"/><path class="cls-6" d="M74.53,22.5V17.07c0-.35,0-.7,0-1.06s-.05-.71-.1-1.05h1.16l.13,1.55-.15.12a2.59,2.59,0,0,1,1-1.38,3,3,0,0,1,1.7-.47c1.81,0,2.71,1,2.71,3V22.5H79.8V17.82a2.34,2.34,0,0,0-.42-1.54,1.67,1.67,0,0,0-1.32-.48,2.24,2.24,0,0,0-1.68.64,2.38,2.38,0,0,0-.63,1.74V22.5Z"/></g><g class="cls-7"><path class="cls-6" d="M122.39,22.5v-11h1.21v11Z"/><path class="cls-6" d="M129.08,22.61a3.64,3.64,0,0,1-1.89-.48A3.33,3.33,0,0,1,126,20.77a4.52,4.52,0,0,1-.44-2.08,4.51,4.51,0,0,1,.44-2.07,3.3,3.3,0,0,1,1.24-1.37,3.73,3.73,0,0,1,1.89-.47,3.69,3.69,0,0,1,1.88.47,3.3,3.3,0,0,1,1.24,1.37,4.51,4.51,0,0,1,.45,2.07,4.52,4.52,0,0,1-.45,2.08A3.33,3.33,0,0,1,131,22.13,3.6,3.6,0,0,1,129.08,22.61Zm0-1a2.08,2.08,0,0,0,1.71-.74,3.34,3.34,0,0,0,.61-2.17,3.29,3.29,0,0,0-.61-2.14,2.34,2.34,0,0,0-3.43,0,3.23,3.23,0,0,0-.62,2.14,3.4,3.4,0,0,0,.6,2.17A2.15,2.15,0,0,0,129.08,21.6Z"/><path class="cls-6" d="M136.47,22.5,133.68,15H135l2.32,6.64h-.39l2.4-6.64h1.07l2.37,6.64h-.39L144.71,15h1.2l-2.79,7.54H142l-2.49-6.79h.66l-2.48,6.79Z"/></g><g class="cls-7"><path class="cls-6" d="M203.72,22.5v-11h1.22v5l-.2.14a2.59,2.59,0,0,1,1-1.38,3,3,0,0,1,1.7-.47c1.81,0,2.71,1,2.71,3V22.5H209V17.82a2.34,2.34,0,0,0-.42-1.54,1.67,1.67,0,0,0-1.32-.48,2.24,2.24,0,0,0-1.68.64,2.38,2.38,0,0,0-.63,1.74V22.5Z"/><path class="cls-6" d="M212.38,11.76h1.48v1.38h-1.48Zm.12,10.74V15h1.21V22.5Z"/><path class="cls-6" d="M219.38,25.84a5.52,5.52,0,0,1-3-.77l.21-1a6.55,6.55,0,0,0,1.34.58,5.15,5.15,0,0,0,1.42.18,2.16,2.16,0,0,0,1.64-.58,2.34,2.34,0,0,0,.57-1.71V20.5l.16-.19a2.82,2.82,0,0,1-.56,1,2.58,2.58,0,0,1-.94.69,3.15,3.15,0,0,1-1.26.24,3.21,3.21,0,0,1-3-1.79,4.32,4.32,0,0,1-.42-2,4.36,4.36,0,0,1,.42-2,3.18,3.18,0,0,1,3-1.78,3,3,0,0,1,1.78.51,2.58,2.58,0,0,1,1,1.45l-.18-.16V15h1.22v7.48a3.42,3.42,0,0,1-.87,2.55A3.45,3.45,0,0,1,219.38,25.84Zm-.15-4.59a2.16,2.16,0,0,0,1.72-.72,3,3,0,0,0,.62-2,3,3,0,0,0-.62-2,2.16,2.16,0,0,0-1.72-.72,2.23,2.23,0,0,0-1.75.72,3,3,0,0,0-.63,2,3,3,0,0,0,.63,2A2.25,2.25,0,0,0,219.23,21.25Z"/><path class="cls-6" d="M225.13,22.5v-11h1.21v5l-.19.14a2.59,2.59,0,0,1,1-1.38,3,3,0,0,1,1.69-.47c1.81,0,2.72,1,2.72,3V22.5h-1.22V17.82a2.34,2.34,0,0,0-.42-1.54,1.67,1.67,0,0,0-1.32-.48,2.24,2.24,0,0,0-1.68.64,2.38,2.38,0,0,0-.63,1.74V22.5Z"/></g></g></g></svg>