<svg xmlns="http://www.w3.org/2000/svg" viewBox="0 0 595.39 36"><defs><style>.cls-1{fill:none;}.cls-2{fill:#3d4986;}.cls-3{fill:#4c5ba6;}.cls-4{fill:#818dc1;}.cls-5{isolation:isolate;}.cls-6{fill:#fff;}</style></defs><g id="Layer_2" data-name="Layer 2"><g id="Layer_1-2" data-name="Layer 1"><rect class="cls-1" x="0.12" width="595.28" height="18"/><path class="cls-2" d="M9.12,1h186V36H9.12V21c0-10-8,8-8-7.5s8,2.5,8-7.5ZM135.78,6h-14.5v5c0,10-8-8-8,7.5s8-2.5,8,7.5v6h14.5Zm49.3,0h-14.5v5c0,10-8-8-8,7.5s8-2.5,8,7.5v6h14.5Z"/><path class="cls-3" d="M8.12,0h186V35H8.12V20c0-10-8,8-8-7.5s8,2.5,8-7.5ZM134.78,5h-14.5v5c0,10-8-8-8,7.5s8-2.5,8,7.5v6h14.5Zm49.3,0h-14.5v5c0,10-8-8-8,7.5s8-2.5,8,7.5v6h14.5Z"/><path class="cls-4" d="M9.12,34.5h-1v-16h1Zm176-2.5h-15V31h14V5.5h1Zm-49.3,0h-15V31h14V5.5h1Zm28.95-7.27-.49-.86,3.68-2.1.49.86Zm-49.3,0-.49-.86,3.68-2.1.49.86ZM.77,18.13a20.9,20.9,0,0,1,0-11.26l1,.26a19.79,19.79,0,0,0,0,10.74ZM9.12,8h-1V0H193.58V1H9.12Z"/><g class="cls-5"><path class="cls-6" d="M19.29,22.5V17.07c0-.35,0-.7,0-1.06A9.1,9.1,0,0,0,19.17,15h1.15l.17,1.86-.17-.05a2.32,2.32,0,0,1,.91-1.49,2.58,2.58,0,0,1,1.57-.5,2.06,2.06,0,0,1,.36,0,1.6,1.6,0,0,1,.33.07l0,1.1a2.76,2.76,0,0,0-.8-.11,2.06,2.06,0,0,0-1.25.34,1.92,1.92,0,0,0-.69.88,2.8,2.8,0,0,0-.22,1.12v4.3Z"/><path class="cls-6" d="M30.75,21.6a3.58,3.58,0,0,1-1.27.74,5,5,0,0,1-1.58.27,4.13,4.13,0,0,1-2-.47,3.19,3.19,0,0,1-1.31-1.34,4.57,4.57,0,0,1-.45-2.09,4.5,4.5,0,0,1,.45-2.06,3.34,3.34,0,0,1,1.25-1.38,3.43,3.43,0,0,1,1.85-.49,3.2,3.2,0,0,1,1.73.44,2.86,2.86,0,0,1,1.1,1.27,4.76,4.76,0,0,1,.38,2v.22h-5.7v-.8h5l-.39.56a3.08,3.08,0,0,0-.52-2,1.88,1.88,0,0,0-1.59-.71,2.1,2.1,0,0,0-1.72.77,3.31,3.31,0,0,0-.62,2.14A3.27,3.27,0,0,0,26,20.85a2.39,2.39,0,0,0,1.91.75,3.65,3.65,0,0,0,1.27-.22,4.11,4.11,0,0,0,1.16-.66Z"/><path class="cls-6" d="M32.73,22.5V17.07c0-.35,0-.7,0-1.06A9.1,9.1,0,0,0,32.61,15h1.15l.14,1.55-.15.11a2.53,2.53,0,0,1,.93-1.36,2.67,2.67,0,0,1,1.59-.48,2.48,2.48,0,0,1,1.7.54A2.64,2.64,0,0,1,38.74,17l-.36-.2a2.53,2.53,0,0,1,1-1.45,2.85,2.85,0,0,1,1.75-.54,2.29,2.29,0,0,1,1.87.74,3.38,3.38,0,0,1,.63,2.24V22.5H42.39V17.82A2.54,2.54,0,0,0,42,16.28a1.4,1.4,0,0,0-1.18-.48,1.87,1.87,0,0,0-1.5.64,2.66,2.66,0,0,0-.54,1.76v4.3H37.57V17.82a2.54,2.54,0,0,0-.38-1.54A1.43,1.43,0,0,0,36,15.8a1.87,1.87,0,0,0-1.51.64,2.61,2.61,0,0,0-.55,1.76v4.3Z"/><path class="cls-6" d="M48.81,22.61A3.26,3.26,0,0,1,47,22.13a3.11,3.11,0,0,1-1.17-1.35,4.85,4.85,0,0,1-.41-2.06,4.78,4.78,0,0,1,.42-2.07,3.26,3.26,0,0,1,1.18-1.38,3.12,3.12,0,0,1,1.75-.49,2.94,2.94,0,0,1,1.75.51,2.51,2.51,0,0,1,1,1.45l-.18.12V15h1.2V22.5h-1.2V20.55l.18.09a2.48,2.48,0,0,1-1,1.45A2.88,2.88,0,0,1,48.81,22.61Zm.24-1a2,2,0,0,0,1.71-.76,3.38,3.38,0,0,0,.6-2.15,3.35,3.35,0,0,0-.61-2.14,2.07,2.07,0,0,0-1.7-.75,2.11,2.11,0,0,0-1.74.77,3.36,3.36,0,0,0-.62,2.15,3.28,3.28,0,0,0,.62,2.13A2.15,2.15,0,0,0,49.05,21.6Z"/><path class="cls-6" d="M54.79,11.76h1.49v1.38H54.79Zm.12,10.74V15h1.22V22.5Z"/><path class="cls-6" d="M58.48,22.5V17.07c0-.35,0-.7,0-1.06s-.05-.71-.1-1.05h1.16l.13,1.55-.15.13a2.58,2.58,0,0,1,1-1.39,3,3,0,0,1,1.7-.47c1.81,0,2.71,1,2.71,3V22.5H63.75V17.82a2.34,2.34,0,0,0-.42-1.54A1.67,1.67,0,0,0,62,15.8a2.24,2.24,0,0,0-1.68.64,2.38,2.38,0,0,0-.63,1.74V22.5Z"/><path class="cls-6" d="M73.9,22.5H72.7v-2l.18.17a2.47,2.47,0,0,1-1,1.45,2.91,2.91,0,0,1-1.76.52,3.22,3.22,0,0,1-1.75-.49,3.31,3.31,0,0,1-1.17-1.38,4.86,4.86,0,0,1-.42-2.08,4.66,4.66,0,0,1,.41-2.05,3.09,3.09,0,0,1,1.17-1.35,3.2,3.2,0,0,1,1.76-.48,3,3,0,0,1,1.76.51,2.56,2.56,0,0,1,1,1.45l-.19.15V11.46H73.9Zm-3.51-.9a2,2,0,0,0,1.7-.76,3.32,3.32,0,0,0,.61-2.15,3.38,3.38,0,0,0-.6-2.14,2.06,2.06,0,0,0-1.71-.75,2.12,2.12,0,0,0-1.73.75A3.18,3.18,0,0,0,68,18.66a3.36,3.36,0,0,0,.62,2.17A2.1,2.1,0,0,0,70.39,21.6Z"/><path class="cls-6" d="M82.44,21.6a3.58,3.58,0,0,1-1.27.74,5,5,0,0,1-1.58.27,4.13,4.13,0,0,1-2-.47,3.19,3.19,0,0,1-1.31-1.34,4.57,4.57,0,0,1-.45-2.09,4.5,4.5,0,0,1,.45-2.06,3.34,3.34,0,0,1,1.25-1.38,3.43,3.43,0,0,1,1.85-.49,3.2,3.2,0,0,1,1.73.44,2.86,2.86,0,0,1,1.1,1.27,4.76,4.76,0,0,1,.38,2v.22h-5.7v-.8h5l-.39.56a3.08,3.08,0,0,0-.52-2,1.88,1.88,0,0,0-1.59-.71,2.1,2.1,0,0,0-1.72.77A3.31,3.31,0,0,0,77,18.63a3.27,3.27,0,0,0,.65,2.22,2.39,2.39,0,0,0,1.91.75,3.65,3.65,0,0,0,1.27-.22A4.11,4.11,0,0,0,82,20.72Z"/><path class="cls-6" d="M84.42,22.5V17.07c0-.35,0-.7,0-1.06A9.1,9.1,0,0,0,84.3,15h1.15l.17,1.86-.17-.05a2.32,2.32,0,0,1,.91-1.49,2.58,2.58,0,0,1,1.57-.5,2.06,2.06,0,0,1,.36,0,1.6,1.6,0,0,1,.33.07l0,1.1a2.76,2.76,0,0,0-.8-.11,2.06,2.06,0,0,0-1.25.34,1.92,1.92,0,0,0-.69.88,2.8,2.8,0,0,0-.22,1.12v4.3Z"/><path class="cls-6" d="M96.88,22.61A3.58,3.58,0,0,1,95,22.13a3.35,3.35,0,0,1-1.25-1.36,4.65,4.65,0,0,1-.44-2.08,4.64,4.64,0,0,1,.44-2.07A3.23,3.23,0,0,1,95,15.26a3.92,3.92,0,0,1,3.76,0A3.23,3.23,0,0,1,100,16.62a4.64,4.64,0,0,1,.44,2.07,4.65,4.65,0,0,1-.44,2.08,3.35,3.35,0,0,1-1.25,1.36A3.58,3.58,0,0,1,96.88,22.61Zm0-1a2.12,2.12,0,0,0,1.72-.74,3.4,3.4,0,0,0,.61-2.17,3.29,3.29,0,0,0-.62-2.14,2.09,2.09,0,0,0-1.71-.75,2.12,2.12,0,0,0-1.72.75,3.29,3.29,0,0,0-.62,2.14,3.34,3.34,0,0,0,.61,2.17A2.11,2.11,0,0,0,96.88,21.6Z"/><path class="cls-6" d="M101.26,15.92V15h4.53v1ZM106,12.57a2.85,2.85,0,0,0-.78-.12,1.51,1.51,0,0,0-.65.13.9.9,0,0,0-.46.46A2.06,2.06,0,0,0,104,14V22.5h-1.22V13.8a2.45,2.45,0,0,1,.6-1.81A2.27,2.27,0,0,1,105,11.4l.51,0a3.1,3.1,0,0,1,.51.11Z"/></g><g class="cls-5"><path class="cls-6" d="M153,17.72v.94h-7.38v-.94Zm-4.48-1.8V14.47h1.41v1.45Zm0,6V20.49h1.41v1.44Z"/></g></g></g></svg>