<svg xmlns="http://www.w3.org/2000/svg" viewBox="0 0 595.28 42.52"><defs><style>.cls-1{fill:#231f20;}.cls-2{fill:#7dc790;}.cls-3{fill:#fdcd0c;}.cls-4{fill:#faac19;}.cls-5{fill:#60be75;}.cls-6{fill:#b7d9f2;}.cls-7{fill:#e58e82;}.cls-8{fill:#92c6eb;}.cls-9{fill:#e06d57;}.cls-10{fill:#f6f1f1;}.cls-11{fill:#e2dfe2;}.cls-12{fill:#4c5ba6;}.cls-13{fill:none;}</style></defs><g id="Layer_2" data-name="Layer 2"><g id="Layer_1-2" data-name="Layer 1"><path class="cls-1" d="M85.23,34.38V8.75h3.71l9.68,22.07H96.86l9.61-22.07h3.71V34.38H106l0-19,1.23.29-8,18.68H96.18L88,15.7l1.3-.29,0,19Z"/><path class="cls-1" d="M122.49,34.63a7.81,7.81,0,0,1-4.21-1.13,7.47,7.47,0,0,1-2.83-3.24,11.51,11.51,0,0,1-1-5,11.71,11.71,0,0,1,1-5,7.91,7.91,0,0,1,2.83-3.35,7.44,7.44,0,0,1,4.19-1.21,7,7,0,0,1,4,1.14A5.6,5.6,0,0,1,128.83,20l-.43.25V16.2h4.42V34.38H128.4v-4.1l.43.14a5.5,5.5,0,0,1-2.33,3.12A7.23,7.23,0,0,1,122.49,34.63Zm1.22-3.45a4.16,4.16,0,0,0,3.46-1.55,6.91,6.91,0,0,0,1.23-4.39,7,7,0,0,0-1.23-4.45,4.17,4.17,0,0,0-3.46-1.53,4.23,4.23,0,0,0-3.52,1.59,7,7,0,0,0-1.26,4.46,6.66,6.66,0,0,0,1.26,4.34A4.3,4.3,0,0,0,123.71,31.18Z"/><path class="cls-1" d="M135.45,19.59V16.2h12.82v3.39Zm12.82,11.05V34.2a6.9,6.9,0,0,1-1.43.34,11.58,11.58,0,0,1-1.49.09,6.27,6.27,0,0,1-4.73-1.72,6.86,6.86,0,0,1-1.68-5V11.77l4.5-1.51V27.72a3.88,3.88,0,0,0,.4,1.93,2.2,2.2,0,0,0,1.06,1,3.74,3.74,0,0,0,1.49.29,5.11,5.11,0,0,0,.9-.08A9.76,9.76,0,0,0,148.27,30.64Z"/><path class="cls-1" d="M151.33,34.38V7.89h4.5v12l-.54,0a6.42,6.42,0,0,1,2.57-3.11,7.29,7.29,0,0,1,3.94-1.07q6.48,0,6.48,7.49V34.38h-4.5v-11a4.76,4.76,0,0,0-.83-3.11,3.13,3.13,0,0,0-2.55-1,4.39,4.39,0,0,0-3.33,1.31,4.86,4.86,0,0,0-1.24,3.48V34.38Z"/><path class="cls-2" d="M62.83,42.52H50.63c-.47,0-1.11-.91-1.11-1.38l.37-10.66a.86.86,0,0,1,.86-.85l1.42-2.33H62.83a.87.87,0,0,1,.86.86v13.5A.86.86,0,0,1,62.83,42.52Z"/><path class="cls-3" d="M35.53,42.52H23.09a1.1,1.1,0,0,1-.94-1.05l.25-13.31a.79.79,0,0,1,.76-.86h9.52l1.5,2.32L36.38,31V41.66a.85.85,0,0,1-.85.86Z"/><path class="cls-4" d="M35.53,27.3H32.68V28a3,3,0,0,0,3,3h.71V28.16a.86.86,0,0,0-.85-.86Z"/><path class="cls-5" d="M49.52,28.46l-1.05.41V41.66a.85.85,0,0,0,.85.86H51a.85.85,0,0,1-.86-.86V30.87A3,3,0,0,0,52.17,28V27.3H50Z"/><path class="cls-6" d="M62.83,15.22H52.17L50,12.69,49.58.86c0-.48.58-.86,1.05-.86h12.2a.86.86,0,0,1,.86.86v13.5A.87.87,0,0,1,62.83,15.22Z"/><path class="cls-7" d="M32.68,15.22H23.24a1.22,1.22,0,0,1-1.07-1l0-12.84c0-.47.55-1.36,1-1.36H35.53a.85.85,0,0,1,.85.86V11.51l-2.3,1.17Z"/><path class="cls-4" d="M22.79,41.66V28.16a.86.86,0,0,1,.85-.86H22a.86.86,0,0,0-.85.86v13.5a.85.85,0,0,0,.85.86h1.62A.85.85,0,0,1,22.79,41.66Z"/><path class="cls-8" d="M50.09,11.65V.86A.85.85,0,0,1,51,0H49.32a.85.85,0,0,0-.85.86V13.65l1,.47.56,1.1h2.14v-.71a3,3,0,0,0-2.08-2.86Z"/><path class="cls-9" d="M22.79,14.36V.86A.85.85,0,0,1,23.64,0H22a.85.85,0,0,0-.85.86v13.5a.86.86,0,0,0,.85.86h1.62A.86.86,0,0,1,22.79,14.36Z"/><path class="cls-9" d="M36.38,13.65V11.51h-.71a3,3,0,0,0-3,3v.71h2.14l.51-1.16Z"/><path class="cls-10" d="M32.3,6.27H30.57a.45.45,0,0,1-.46-.45V4.08a.92.92,0,0,0-.92-.92h-.83a.92.92,0,0,0-.92.92V5.82a.45.45,0,0,1-.46.45H25.25a.92.92,0,0,0-.92.92V8a.92.92,0,0,0,.92.91H27a.46.46,0,0,1,.46.46v1.74a.92.92,0,0,0,.92.91h.83a.92.92,0,0,0,.92-.91V9.4a.46.46,0,0,1,.46-.46H32.3A.92.92,0,0,0,33.22,8V7.19A.92.92,0,0,0,32.3,6.27Z"/><path class="cls-10" d="M32.21,36.46,31,35.24a.48.48,0,0,1,0-.65l1.23-1.23a.92.92,0,0,0,0-1.3l-.59-.59a.91.91,0,0,0-1.29,0L29.1,32.7a.46.46,0,0,1-.65,0l-1.23-1.23a.91.91,0,0,0-1.29,0l-.59.59a.92.92,0,0,0,0,1.3l1.22,1.23a.46.46,0,0,1,0,.65l-1.22,1.22a.92.92,0,0,0,0,1.3l.59.59a.91.91,0,0,0,1.29,0l1.23-1.23a.46.46,0,0,1,.65,0l1.23,1.23a.91.91,0,0,0,1.29,0l.59-.59a.92.92,0,0,0,0-1.3Z"/><path class="cls-10" d="M51.63,8.11v-1a.84.84,0,0,1,.83-.84h7.23a.84.84,0,0,1,.83.84v1a.83.83,0,0,1-.83.83H52.46A.83.83,0,0,1,51.63,8.11Z"/><path class="cls-10" d="M52.89,38.81l-.71-.71a.85.85,0,0,1,0-1.18L58.09,31a.83.83,0,0,1,1.17,0l.71.72a.82.82,0,0,1,0,1.17l-5.9,5.91A.85.85,0,0,1,52.89,38.81Z"/><circle class="cls-10" cx="52.37" cy="31.2" r="1.43"/><circle class="cls-10" cx="59.78" cy="38.62" r="1.43"/><path class="cls-10" d="M49.18,28.87H36.81c-.47,0-.7-.38-.7-.86l-.32-13.5c0-.48.78-.86,1.25-.86H49.18a.85.85,0,0,1,.85.86V28A.85.85,0,0,1,49.18,28.87Z"/><path class="cls-11" d="M36.54,28V14.51a.85.85,0,0,1,.86-.86H35.67a.85.85,0,0,0-.85.86V28a.85.85,0,0,0,.85.86H37.4A.85.85,0,0,1,36.54,28Z"/><path class="cls-12" d="M38,19.11v-1a.83.83,0,0,1,.83-.83H46a.83.83,0,0,1,.83.83v1a.83.83,0,0,1-.83.83H38.81a.83.83,0,0,1-.83-.83Z"/><path class="cls-12" d="M38,24.41v-1a.84.84,0,0,1,.83-.84H46a.84.84,0,0,1,.83.84v1a.83.83,0,0,1-.83.83H38.81a.83.83,0,0,1-.83-.83Z"/><rect class="cls-13" width="595.28" height="18"/></g></g></svg>