<svg xmlns="http://www.w3.org/2000/svg" viewBox="0 0 595.39 169.96"><defs><style>.cls-1{fill:none;}.cls-2{fill:#3d4986;}.cls-3{fill:#4c5ba6;}.cls-4{fill:#818dc1;}.cls-5{isolation:isolate;}.cls-6{fill:#fff;}.cls-7{opacity:0.6;}.cls-8{fill:#010101;}.cls-9{fill:#aaacd4;}</style></defs><g id="Layer_2" data-name="Layer 2"><g id="Layer_1-2" data-name="Layer 1"><rect class="cls-1" x="0.12" width="595.28" height="18"/><path class="cls-2" d="M9.12,1H129V36H9.12V21c0-10-8,8-8-7.5s8,2.5,8-7.5Zm30.5,5H25.12v5c0,10-8-8-8,7.5s8-2.5,8,7.5v6h14.5Z"/><path class="cls-3" d="M8.12,0H128V35H8.12V20c0-10-8,8-8-7.5s8,2.5,8-7.5Zm30.5,5H24.12v5c0,10-8-8-8,7.5s8-2.5,8,7.5v6h14.5Z"/><path class="cls-4" d="M9.12,34.5h-1v-16h1ZM39.62,32h-15V31h14V5.5h1ZM19.26,24.73l-.49-.86,3.68-2.1.49.86ZM.77,18.13a20.9,20.9,0,0,1,0-11.26l1,.26a19.79,19.79,0,0,0,0,10.74ZM9.12,8h-1V0H127.48V1H9.12Z"/><g class="cls-5"><path class="cls-6" d="M49.67,11.76h1.48v1.38H49.67Zm.12,10.74V15H51V22.5Z"/><path class="cls-6" d="M55.91,22.61a4.42,4.42,0,0,1-3-1l.41-.9a4.18,4.18,0,0,0,1.23.68,4.27,4.27,0,0,0,1.42.22,2.43,2.43,0,0,0,1.3-.29,1,1,0,0,0,.44-.85.89.89,0,0,0-.3-.71,2.3,2.3,0,0,0-1-.43l-1.27-.3a2.86,2.86,0,0,1-1.47-.75A1.81,1.81,0,0,1,53.15,17a1.93,1.93,0,0,1,.36-1.16,2.34,2.34,0,0,1,1-.79A3.77,3.77,0,0,1,56,14.78a4.37,4.37,0,0,1,1.5.25,3.21,3.21,0,0,1,1.19.74l-.41.88a4.17,4.17,0,0,0-1.1-.67A3.37,3.37,0,0,0,56,15.77a2.12,2.12,0,0,0-1.25.31,1.09,1.09,0,0,0-.17,1.59,2,2,0,0,0,.9.42l1.27.32a3,3,0,0,1,1.57.74,1.81,1.81,0,0,1,.5,1.31A1.84,1.84,0,0,1,58.07,22,3.57,3.57,0,0,1,55.91,22.61Z"/></g><g class="cls-7"><rect class="cls-6" x="64.37" y="10" width="58.62" height="16" rx="4"/></g><g class="cls-5"><path class="cls-8" d="M76.72,21.6a3.58,3.58,0,0,1-1.27.74,4.77,4.77,0,0,1-1.58.27,4.13,4.13,0,0,1-2-.47,3.19,3.19,0,0,1-1.31-1.34,4.54,4.54,0,0,1-.45-2.09,4.5,4.5,0,0,1,.45-2.06,3.34,3.34,0,0,1,1.25-1.38,3.43,3.43,0,0,1,1.85-.49,3.2,3.2,0,0,1,1.73.44,2.86,2.86,0,0,1,1.1,1.27,4.76,4.76,0,0,1,.38,2v.22h-5.7V17.9h5l-.39.55a3.08,3.08,0,0,0-.52-2,1.88,1.88,0,0,0-1.59-.71,2.1,2.1,0,0,0-1.72.77,3.31,3.31,0,0,0-.62,2.14A3.27,3.27,0,0,0,72,20.85a2.39,2.39,0,0,0,1.91.75,3.65,3.65,0,0,0,1.27-.22,3.88,3.88,0,0,0,1.16-.66Z"/><path class="cls-8" d="M80.83,22.5,77.62,15h1.27l2.73,6.65h-.36L84,15h1.22L82,22.5Z"/><path class="cls-8" d="M92.66,21.6a3.49,3.49,0,0,1-1.27.74,4.73,4.73,0,0,1-1.58.27,4.16,4.16,0,0,1-2-.47,3.17,3.17,0,0,1-1.3-1.34A4.42,4.42,0,0,1,86,18.71a4.5,4.5,0,0,1,.45-2.06,3.41,3.41,0,0,1,1.25-1.38,3.49,3.49,0,0,1,1.86-.49,3.17,3.17,0,0,1,1.72.44,2.8,2.8,0,0,1,1.1,1.27,4.6,4.6,0,0,1,.39,2v.22H87.1V17.9h5l-.39.55a3.14,3.14,0,0,0-.52-2,1.91,1.91,0,0,0-1.6-.71,2.11,2.11,0,0,0-1.72.77,3.36,3.36,0,0,0-.62,2.14,3.32,3.32,0,0,0,.65,2.22,2.42,2.42,0,0,0,1.92.75,3.56,3.56,0,0,0,1.26-.22,3.81,3.81,0,0,0,1.17-.66Z"/><path class="cls-8" d="M94.64,22.5V17.07c0-.35,0-.7,0-1.06s-.05-.7-.1-1.05h1.16l.13,1.56-.15.12a2.58,2.58,0,0,1,1-1.39,3,3,0,0,1,1.7-.47c1.81,0,2.71,1,2.71,3V22.5H99.91V17.82a2.34,2.34,0,0,0-.42-1.54,1.67,1.67,0,0,0-1.32-.48,2.24,2.24,0,0,0-1.68.64,2.38,2.38,0,0,0-.63,1.74V22.5Z"/></g><polygon class="cls-8" points="113.74 22.31 118.72 13.69 108.76 13.69 113.74 22.31"/><rect class="cls-9" x="64.37" y="41.69" width="86.6" height="128.27" rx="5.67"/><g class="cls-5"><path class="cls-8" d="M76.72,53.66a3.58,3.58,0,0,1-1.27.74,4.77,4.77,0,0,1-1.58.27,4.13,4.13,0,0,1-2-.47,3.14,3.14,0,0,1-1.31-1.34,5,5,0,0,1,0-4.15,3.34,3.34,0,0,1,1.25-1.38,3.43,3.43,0,0,1,1.85-.49,3.29,3.29,0,0,1,1.73.44,2.91,2.91,0,0,1,1.1,1.27,4.76,4.76,0,0,1,.38,2v.22h-5.7V50h5l-.39.55a3.08,3.08,0,0,0-.52-2,1.88,1.88,0,0,0-1.59-.71,2.07,2.07,0,0,0-1.72.78,4,4,0,0,0,0,4.35,2.35,2.35,0,0,0,1.91.75,3.89,3.89,0,0,0,1.27-.21,4.15,4.15,0,0,0,1.16-.67Z"/><path class="cls-8" d="M80.83,54.56,77.62,47h1.27l2.73,6.65h-.36L84,47h1.22L82,54.56Z"/><path class="cls-8" d="M92.66,53.66a3.49,3.49,0,0,1-1.27.74,4.73,4.73,0,0,1-1.58.27,4.16,4.16,0,0,1-2-.47,3.12,3.12,0,0,1-1.3-1.34A4.39,4.39,0,0,1,86,50.77a4.5,4.5,0,0,1,.45-2.06,3.41,3.41,0,0,1,1.25-1.38,3.49,3.49,0,0,1,1.86-.49,3.26,3.26,0,0,1,1.72.44,2.85,2.85,0,0,1,1.1,1.27,4.6,4.6,0,0,1,.39,2v.22H87.1V50h5l-.39.55a3.14,3.14,0,0,0-.52-2,1.91,1.91,0,0,0-1.6-.71,2.09,2.09,0,0,0-1.72.78,4,4,0,0,0,0,4.35,2.39,2.39,0,0,0,1.92.75,3.79,3.79,0,0,0,1.26-.21,4.06,4.06,0,0,0,1.17-.67Z"/><path class="cls-8" d="M94.64,54.56V49.13c0-.35,0-.7,0-1.05s-.05-.71-.1-1.06h1.16l.13,1.56-.15.12a2.61,2.61,0,0,1,1-1.39,3.12,3.12,0,0,1,1.7-.47c1.81,0,2.71,1,2.71,3v4.74H99.91V49.88a2.29,2.29,0,0,0-.42-1.53,1.64,1.64,0,0,0-1.32-.49,2.24,2.24,0,0,0-1.68.64,2.38,2.38,0,0,0-.63,1.74v4.32Z"/><path class="cls-8" d="M73.66,72.67a3.64,3.64,0,0,1-1.89-.48,3.21,3.21,0,0,1-1.24-1.36,5.11,5.11,0,0,1,0-4.15,3.21,3.21,0,0,1,1.24-1.36,3.64,3.64,0,0,1,1.89-.48,3.6,3.6,0,0,1,1.88.48,3.21,3.21,0,0,1,1.24,1.36,5,5,0,0,1,0,4.15,3.21,3.21,0,0,1-1.24,1.36A3.6,3.6,0,0,1,73.66,72.67Zm0-1a2.06,2.06,0,0,0,1.71-.74,4.11,4.11,0,0,0,0-4.31,2.34,2.34,0,0,0-3.43,0,3.23,3.23,0,0,0-.62,2.14,3.36,3.36,0,0,0,.6,2.17A2.12,2.12,0,0,0,73.66,71.66Z"/><path class="cls-8" d="M85.76,72.56h-1.2v-2l.18.16a2.52,2.52,0,0,1-1,1.46,3,3,0,0,1-1.76.51,3.14,3.14,0,0,1-1.75-.49,3.19,3.19,0,0,1-1.17-1.38,4.83,4.83,0,0,1-.42-2.08,4.66,4.66,0,0,1,.41-2,3.09,3.09,0,0,1,1.17-1.35A3.2,3.2,0,0,1,82,64.84a2.91,2.91,0,0,1,1.76.52,2.51,2.51,0,0,1,1,1.44l-.19.15V61.52h1.21Zm-3.51-.9a2.06,2.06,0,0,0,1.7-.75,4.11,4.11,0,0,0,0-4.29,2,2,0,0,0-1.71-.76,2.12,2.12,0,0,0-1.73.75,3.18,3.18,0,0,0-.62,2.11,3.34,3.34,0,0,0,.62,2.17A2.07,2.07,0,0,0,82.25,71.66Z"/><path class="cls-8" d="M94.76,72.56h-1.2v-2l.18.16a2.52,2.52,0,0,1-1,1.46,3,3,0,0,1-1.76.51,3.14,3.14,0,0,1-1.75-.49,3.19,3.19,0,0,1-1.17-1.38,4.83,4.83,0,0,1-.42-2.08,4.66,4.66,0,0,1,.41-2,3.09,3.09,0,0,1,1.17-1.35A3.2,3.2,0,0,1,91,64.84a2.91,2.91,0,0,1,1.76.52,2.51,2.51,0,0,1,1,1.44l-.19.15V61.52h1.21Zm-3.51-.9a2.06,2.06,0,0,0,1.7-.75,4.11,4.11,0,0,0,0-4.29,2,2,0,0,0-1.71-.76,2.12,2.12,0,0,0-1.73.75,3.18,3.18,0,0,0-.62,2.11,3.34,3.34,0,0,0,.62,2.17A2.07,2.07,0,0,0,91.25,71.66Z"/><path class="cls-8" d="M70.54,93.8V85.13q0-.52,0-1A9.28,9.28,0,0,0,70.42,83h1.15l.14,1.56-.12.22a2.5,2.5,0,0,1,1-1.45,2.93,2.93,0,0,1,1.74-.51,3.14,3.14,0,0,1,1.75.49,3.33,3.33,0,0,1,1.18,1.38,5.2,5.2,0,0,1,0,4.14,3.22,3.22,0,0,1-1.17,1.35,3.28,3.28,0,0,1-1.76.47,2.93,2.93,0,0,1-1.74-.51,2.52,2.52,0,0,1-1-1.46l.16-.15V93.8Zm3.54-4.14a2.06,2.06,0,0,0,1.71-.75,3.26,3.26,0,0,0,.61-2.13,3.37,3.37,0,0,0-.61-2.15,2.33,2.33,0,0,0-3.44,0,3.35,3.35,0,0,0-.6,2.14,3.43,3.43,0,0,0,.6,2.16A2.09,2.09,0,0,0,74.08,89.66Z"/><path class="cls-8" d="M79.54,90.56V85.13q0-.52,0-1A9.28,9.28,0,0,0,79.42,83h1.15l.17,1.86-.17,0a2.35,2.35,0,0,1,.91-1.49,2.65,2.65,0,0,1,1.57-.5l.36,0,.33.07,0,1.11a2.45,2.45,0,0,0-.8-.12,2.06,2.06,0,0,0-1.25.34,2,2,0,0,0-.69.88,2.87,2.87,0,0,0-.22,1.12v4.3Z"/><path class="cls-8" d="M84.85,79.82h1.48V81.2H84.85ZM85,90.56V83h1.21v7.54Z"/><path class="cls-8" d="M88.54,90.56V85.13q0-.52,0-1A9.28,9.28,0,0,0,88.42,83h1.15l.14,1.56-.15.1a2.53,2.53,0,0,1,.93-1.36,2.67,2.67,0,0,1,1.59-.48,2.48,2.48,0,0,1,1.7.54A2.67,2.67,0,0,1,94.55,85l-.36-.2a2.53,2.53,0,0,1,1-1.45,2.85,2.85,0,0,1,1.75-.54,2.33,2.33,0,0,1,1.87.74,3.4,3.4,0,0,1,.63,2.24v4.74H98.2V85.88a2.49,2.49,0,0,0-.38-1.53,1.38,1.38,0,0,0-1.18-.49,1.87,1.87,0,0,0-1.5.64,2.66,2.66,0,0,0-.54,1.76v4.3H93.38V85.88A2.49,2.49,0,0,0,93,84.35a1.41,1.41,0,0,0-1.19-.49,1.87,1.87,0,0,0-1.51.64,2.61,2.61,0,0,0-.55,1.76v4.3Z"/><path class="cls-8" d="M107.9,89.66a3.49,3.49,0,0,1-1.27.74,4.73,4.73,0,0,1-1.58.27,4.16,4.16,0,0,1-2-.47,3.12,3.12,0,0,1-1.3-1.34,4.39,4.39,0,0,1-.46-2.09,4.5,4.5,0,0,1,.45-2.06A3.41,3.41,0,0,1,103,83.33a3.49,3.49,0,0,1,1.86-.49,3.26,3.26,0,0,1,1.72.44,2.85,2.85,0,0,1,1.1,1.27,4.6,4.6,0,0,1,.39,2v.22h-5.7V86h5l-.39.55a3.14,3.14,0,0,0-.52-2,1.91,1.91,0,0,0-1.6-.71,2.09,2.09,0,0,0-1.72.78,4,4,0,0,0,0,4.35,2.39,2.39,0,0,0,1.92.75,3.79,3.79,0,0,0,1.26-.21,4.06,4.06,0,0,0,1.17-.67Z"/><path class="cls-8" d="M72.56,108.56,69.77,101h1.28l2.32,6.64H73l2.4-6.64h1.07l2.37,6.64h-.39L80.8,101H82l-2.79,7.54H78l-2.49-6.79h.66l-2.48,6.79Z"/><path class="cls-8" d="M83.57,108.56v-11h1.22v5l-.2.15a2.61,2.61,0,0,1,1-1.39,3.12,3.12,0,0,1,1.7-.47c1.81,0,2.71,1,2.71,3v4.74H88.84v-4.68a2.29,2.29,0,0,0-.42-1.53,1.64,1.64,0,0,0-1.32-.49,2.24,2.24,0,0,0-1.68.64,2.38,2.38,0,0,0-.63,1.74v4.32Z"/><path class="cls-8" d="M95.47,108.67a3.64,3.64,0,0,1-1.89-.48,3.21,3.21,0,0,1-1.24-1.36,5.11,5.11,0,0,1,0-4.15,3.21,3.21,0,0,1,1.24-1.36,3.64,3.64,0,0,1,1.89-.48,3.6,3.6,0,0,1,1.88.48,3.21,3.21,0,0,1,1.24,1.36,5,5,0,0,1,0,4.15,3.21,3.21,0,0,1-1.24,1.36A3.6,3.6,0,0,1,95.47,108.67Zm0-1a2.06,2.06,0,0,0,1.71-.74,4.11,4.11,0,0,0,0-4.31,2.34,2.34,0,0,0-3.43,0,3.23,3.23,0,0,0-.62,2.14,3.36,3.36,0,0,0,.6,2.17A2.12,2.12,0,0,0,95.47,107.66Z"/><path class="cls-8" d="M100.93,108.56v-11h1.21v11Z"/><path class="cls-8" d="M110.68,107.66a3.58,3.58,0,0,1-1.27.74,4.77,4.77,0,0,1-1.58.27,4.13,4.13,0,0,1-2-.47,3.14,3.14,0,0,1-1.31-1.34,5,5,0,0,1,0-4.15,3.34,3.34,0,0,1,1.25-1.38,3.43,3.43,0,0,1,1.85-.49,3.29,3.29,0,0,1,1.73.44,2.91,2.91,0,0,1,1.1,1.27,4.76,4.76,0,0,1,.38,2v.22h-5.7V104h5l-.39.55a3.08,3.08,0,0,0-.52-2,1.88,1.88,0,0,0-1.59-.71,2.07,2.07,0,0,0-1.72.78,4,4,0,0,0,0,4.35,2.35,2.35,0,0,0,1.91.75,3.89,3.89,0,0,0,1.27-.21,4.15,4.15,0,0,0,1.16-.67Z"/><path class="cls-8" d="M70.54,129.8v-8.67q0-.52,0-1a9.28,9.28,0,0,0-.09-1.06h1.15l.14,1.56-.12.22a2.5,2.5,0,0,1,1-1.45,2.93,2.93,0,0,1,1.74-.51,3.14,3.14,0,0,1,1.75.49,3.33,3.33,0,0,1,1.18,1.38,5.2,5.2,0,0,1,0,4.14,3.22,3.22,0,0,1-1.17,1.35,3.28,3.28,0,0,1-1.76.47,2.93,2.93,0,0,1-1.74-.51,2.52,2.52,0,0,1-1-1.46l.16-.15v5.25Zm3.54-4.14a2.06,2.06,0,0,0,1.71-.75,3.26,3.26,0,0,0,.61-2.13,3.37,3.37,0,0,0-.61-2.15,2.33,2.33,0,0,0-3.44,0,3.35,3.35,0,0,0-.6,2.14,3.43,3.43,0,0,0,.6,2.16A2.09,2.09,0,0,0,74.08,125.66Z"/><path class="cls-8" d="M82.66,126.67a3.64,3.64,0,0,1-1.89-.48,3.21,3.21,0,0,1-1.24-1.36,5.11,5.11,0,0,1,0-4.15,3.21,3.21,0,0,1,1.24-1.36,3.64,3.64,0,0,1,1.89-.48,3.6,3.6,0,0,1,1.88.48,3.21,3.21,0,0,1,1.24,1.36,5,5,0,0,1,0,4.15,3.21,3.21,0,0,1-1.24,1.36A3.6,3.6,0,0,1,82.66,126.67Zm0-1a2.06,2.06,0,0,0,1.71-.74,4.11,4.11,0,0,0,0-4.31,2.34,2.34,0,0,0-3.43,0,3.23,3.23,0,0,0-.62,2.14,3.36,3.36,0,0,0,.6,2.17A2.12,2.12,0,0,0,82.66,125.66Z"/><path class="cls-8" d="M90.67,126.67a4.42,4.42,0,0,1-3-1l.41-.9a4.46,4.46,0,0,0,1.23.69,4.55,4.55,0,0,0,1.42.21,2.34,2.34,0,0,0,1.3-.29,1,1,0,0,0,.44-.85.9.9,0,0,0-.3-.71,2.42,2.42,0,0,0-1-.43l-1.27-.3a2.86,2.86,0,0,1-1.47-.75,1.81,1.81,0,0,1-.51-1.29,2,2,0,0,1,.36-1.16,2.42,2.42,0,0,1,1-.79,3.77,3.77,0,0,1,1.53-.28,4.37,4.37,0,0,1,1.5.25,3.21,3.21,0,0,1,1.19.74l-.41.88a3.87,3.87,0,0,0-1.1-.66,3.17,3.17,0,0,0-1.18-.22,2.12,2.12,0,0,0-1.25.31,1.09,1.09,0,0,0-.17,1.59,2,2,0,0,0,.9.42l1.27.32a3.07,3.07,0,0,1,1.57.74,1.95,1.95,0,0,1-.29,2.87A3.57,3.57,0,0,1,90.67,126.67Z"/><path class="cls-8" d="M95.44,115.82h1.48v1.38H95.44Zm.12,10.74V119h1.21v7.54Z"/><path class="cls-8" d="M98.06,120v-1h4.85v1Zm4.82,5.5v1a3.1,3.1,0,0,1-.51.11,3,3,0,0,1-.54,0,2.33,2.33,0,0,1-1.68-.6,2.41,2.41,0,0,1-.62-1.8v-7.19l1.22-.43v7.45a2,2,0,0,0,.17.93.91.91,0,0,0,.47.46,1.65,1.65,0,0,0,.68.13,2.41,2.41,0,0,0,.4,0A2.83,2.83,0,0,0,102.88,125.48Z"/><path class="cls-8" d="M104.26,115.82h1.48v1.38h-1.48Zm.12,10.74V119h1.21v7.54Z"/><path class="cls-8" d="M110.17,126.56,107,119h1.27l2.73,6.65h-.36l2.76-6.65h1.22l-3.26,7.53Z"/><path class="cls-8" d="M122,125.66a3.49,3.49,0,0,1-1.27.74,4.73,4.73,0,0,1-1.58.27,4.16,4.16,0,0,1-2-.47,3.12,3.12,0,0,1-1.3-1.34,4.39,4.39,0,0,1-.46-2.09,4.5,4.5,0,0,1,.45-2.06,3.41,3.41,0,0,1,1.25-1.38,3.49,3.49,0,0,1,1.86-.49,3.26,3.26,0,0,1,1.72.44,2.85,2.85,0,0,1,1.1,1.27,4.6,4.6,0,0,1,.39,2v.22h-5.7V122h5l-.39.55a3.14,3.14,0,0,0-.52-2,1.91,1.91,0,0,0-1.6-.71,2.09,2.09,0,0,0-1.72.78,4,4,0,0,0,0,4.35,2.39,2.39,0,0,0,1.92.75,3.79,3.79,0,0,0,1.26-.21,4.06,4.06,0,0,0,1.17-.67Z"/><path class="cls-8" d="M70.54,144.56v-5.43q0-.52,0-1a9.28,9.28,0,0,0-.09-1.06h1.15l.14,1.56-.15.12a2.61,2.61,0,0,1,1-1.39,3.09,3.09,0,0,1,1.69-.47c1.81,0,2.72,1,2.72,3v4.74H75.8v-4.68a2.29,2.29,0,0,0-.42-1.53,1.64,1.64,0,0,0-1.32-.49,2.24,2.24,0,0,0-1.68.64,2.38,2.38,0,0,0-.63,1.74v4.32Z"/><path class="cls-8" d="M85.49,143.66a3.49,3.49,0,0,1-1.27.74,4.73,4.73,0,0,1-1.58.27,4.16,4.16,0,0,1-2-.47,3.12,3.12,0,0,1-1.3-1.34,4.39,4.39,0,0,1-.46-2.09,4.5,4.5,0,0,1,.45-2.06,3.41,3.41,0,0,1,1.25-1.38,3.49,3.49,0,0,1,1.86-.49,3.26,3.26,0,0,1,1.72.44,2.85,2.85,0,0,1,1.1,1.27,4.6,4.6,0,0,1,.39,2v.22h-5.7V140h5l-.39.55a3.14,3.14,0,0,0-.52-2,1.91,1.91,0,0,0-1.6-.71,2.09,2.09,0,0,0-1.72.78,4,4,0,0,0,0,4.35,2.39,2.39,0,0,0,1.92.75,3.79,3.79,0,0,0,1.26-.21,4.06,4.06,0,0,0,1.17-.67Z"/><path class="cls-8" d="M90.79,147.91a5.53,5.53,0,0,1-3-.78l.21-1a6,6,0,0,0,1.33.58,5.23,5.23,0,0,0,1.43.18,2.21,2.21,0,0,0,1.64-.57,2.41,2.41,0,0,0,.56-1.72v-2l.17-.2a2.82,2.82,0,0,1-.57,1,2.55,2.55,0,0,1-.93.68,3.15,3.15,0,0,1-1.26.24,3.34,3.34,0,0,1-1.77-.47,3.29,3.29,0,0,1-1.18-1.32,4.7,4.7,0,0,1,0-3.93,3.26,3.26,0,0,1,1.18-1.31,3.34,3.34,0,0,1,1.77-.47,2.92,2.92,0,0,1,1.77.52,2.49,2.49,0,0,1,1,1.44l-.18-.16V137h1.21v7.48a3,3,0,0,1-3.4,3.41Zm-.15-4.59a2.1,2.1,0,0,0,1.71-.73,3.49,3.49,0,0,0,0-4,2.1,2.1,0,0,0-1.71-.73,2.19,2.19,0,0,0-1.75.73,3.46,3.46,0,0,0,0,4A2.21,2.21,0,0,0,90.64,143.32Z"/><path class="cls-8" d="M99.43,144.67a3.34,3.34,0,0,1-1.77-.47,3.22,3.22,0,0,1-1.17-1.35,4.93,4.93,0,0,1-.41-2.07,4.78,4.78,0,0,1,.42-2.07,3.26,3.26,0,0,1,1.18-1.38,3.12,3.12,0,0,1,1.75-.49,2.94,2.94,0,0,1,1.75.51,2.51,2.51,0,0,1,1,1.45l-.18.12V137h1.2v7.54H102v-1.95l.18.09a2.54,2.54,0,0,1-1,1.46A2.94,2.94,0,0,1,99.43,144.67Zm.24-1a2.06,2.06,0,0,0,1.71-.75,3.43,3.43,0,0,0,.6-2.16,3.35,3.35,0,0,0-.61-2.14,2.07,2.07,0,0,0-1.7-.75,2.13,2.13,0,0,0-1.74.77,3.38,3.38,0,0,0-.62,2.15,3.26,3.26,0,0,0,.62,2.13A2.12,2.12,0,0,0,99.67,143.66Z"/><path class="cls-8" d="M104.47,138v-1h4.84v1Zm4.81,5.5v1a3.22,3.22,0,0,1-.5.11,3.16,3.16,0,0,1-.55,0,2.29,2.29,0,0,1-1.67-.6,2.37,2.37,0,0,1-.62-1.8v-7.19l1.21-.43v7.45a2.11,2.11,0,0,0,.17.93,1,1,0,0,0,.48.46,1.6,1.6,0,0,0,.67.13,2.54,2.54,0,0,0,.41,0A2.73,2.73,0,0,0,109.28,143.48Z"/><path class="cls-8" d="M110.66,133.82h1.49v1.38h-1.49Zm.12,10.74V137H112v7.54Z"/><path class="cls-8" d="M116.57,144.56,113.36,137h1.28l2.73,6.65H117l2.76-6.65H121l-3.25,7.53Z"/><path class="cls-8" d="M128.41,143.66a3.58,3.58,0,0,1-1.27.74,4.77,4.77,0,0,1-1.58.27,4.13,4.13,0,0,1-2-.47,3.14,3.14,0,0,1-1.31-1.34,5,5,0,0,1,0-4.15,3.34,3.34,0,0,1,1.25-1.38,3.43,3.43,0,0,1,1.85-.49,3.29,3.29,0,0,1,1.73.44,2.91,2.91,0,0,1,1.1,1.27,4.76,4.76,0,0,1,.38,2v.22h-5.7V140h5l-.39.55a3.08,3.08,0,0,0-.52-2,1.88,1.88,0,0,0-1.59-.71,2.07,2.07,0,0,0-1.72.78,4,4,0,0,0,0,4.35,2.35,2.35,0,0,0,1.91.75,3.89,3.89,0,0,0,1.27-.21,4.15,4.15,0,0,0,1.16-.67Z"/><path class="cls-8" d="M77.18,162.56H76v-2l.18.16a2.52,2.52,0,0,1-1,1.46,3,3,0,0,1-1.76.51,3.14,3.14,0,0,1-1.75-.49,3.19,3.19,0,0,1-1.17-1.38,4.83,4.83,0,0,1-.42-2.08,4.66,4.66,0,0,1,.41-2.05,3.09,3.09,0,0,1,1.17-1.35,3.2,3.2,0,0,1,1.76-.48,2.91,2.91,0,0,1,1.76.52,2.51,2.51,0,0,1,1,1.44L76,157v-5.43h1.21Zm-3.51-.9a2.06,2.06,0,0,0,1.7-.75,4.11,4.11,0,0,0,0-4.29,2,2,0,0,0-1.71-.76,2.12,2.12,0,0,0-1.73.75,3.18,3.18,0,0,0-.62,2.11,3.34,3.34,0,0,0,.62,2.17A2.07,2.07,0,0,0,73.67,161.66Z"/><path class="cls-8" d="M79.42,151.82H80.9v1.38H79.42Zm.12,10.74V155h1.21v7.54Z"/><path class="cls-8" d="M85.33,162.56,82.12,155h1.27l2.73,6.65h-.36L88.52,155h1.22l-3.26,7.53Z"/><path class="cls-8" d="M91,151.82h1.49v1.38H91Zm.12,10.74V155h1.22v7.54Z"/><path class="cls-8" d="M97.19,162.67a4.4,4.4,0,0,1-3-1l.4-.9a4.37,4.37,0,0,0,1.24.69,4.51,4.51,0,0,0,1.42.21,2.28,2.28,0,0,0,1.29-.29,1,1,0,0,0,.45-.85.9.9,0,0,0-.3-.71,2.42,2.42,0,0,0-1-.43l-1.28-.3a2.78,2.78,0,0,1-1.46-.75,1.78,1.78,0,0,1-.52-1.29,2,2,0,0,1,.36-1.16,2.45,2.45,0,0,1,1-.79,3.77,3.77,0,0,1,1.53-.28,4.37,4.37,0,0,1,1.5.25,3.16,3.16,0,0,1,1.18.74l-.4.88a3.78,3.78,0,0,0-1.11-.66,3.08,3.08,0,0,0-1.17-.22,2.17,2.17,0,0,0-1.26.31,1,1,0,0,0-.44.86,1,1,0,0,0,.28.73,1.89,1.89,0,0,0,.89.42l1.28.32a3,3,0,0,1,1.56.74,1.79,1.79,0,0,1,.51,1.31,1.85,1.85,0,0,1-.8,1.56A3.57,3.57,0,0,1,97.19,162.67Z"/><path class="cls-8" d="M102,151.82h1.49v1.38H102Zm.12,10.74V155h1.22v7.54Z"/><path class="cls-8" d="M105.65,162.56v-11h1.22V157l-.17-.15a2.52,2.52,0,0,1,1-1.44,2.87,2.87,0,0,1,1.74-.52,3.17,3.17,0,0,1,1.75.48,3.31,3.31,0,0,1,1.18,1.35,4.66,4.66,0,0,1,.43,2.05,4.83,4.83,0,0,1-.43,2.08,3.23,3.23,0,0,1-1.19,1.38,3.08,3.08,0,0,1-1.74.49,2.93,2.93,0,0,1-1.74-.51,2.54,2.54,0,0,1-1-1.46l.17-.16v2Zm3.54-.9a2,2,0,0,0,1.71-.77,3.4,3.4,0,0,0,.62-2.17,3.24,3.24,0,0,0-.62-2.11,2.09,2.09,0,0,0-1.71-.75,2,2,0,0,0-1.72.76,3.33,3.33,0,0,0-.6,2.13,3.43,3.43,0,0,0,.6,2.16A2.07,2.07,0,0,0,109.19,161.66Z"/><path class="cls-8" d="M114.65,162.56v-11h1.22v11Z"/><path class="cls-8" d="M124.4,161.66a3.49,3.49,0,0,1-1.27.74,4.73,4.73,0,0,1-1.58.27,4.16,4.16,0,0,1-2-.47,3.12,3.12,0,0,1-1.3-1.34,4.39,4.39,0,0,1-.46-2.09,4.5,4.5,0,0,1,.45-2.06,3.41,3.41,0,0,1,1.25-1.38,3.49,3.49,0,0,1,1.86-.49,3.26,3.26,0,0,1,1.72.44,2.85,2.85,0,0,1,1.1,1.27,4.6,4.6,0,0,1,.39,2v.22h-5.7V158h5l-.39.55a3.14,3.14,0,0,0-.52-2,1.91,1.91,0,0,0-1.6-.71,2.09,2.09,0,0,0-1.72.78,4,4,0,0,0,0,4.35,2.39,2.39,0,0,0,1.92.75,3.79,3.79,0,0,0,1.26-.21,4.06,4.06,0,0,0,1.17-.67Z"/><path class="cls-8" d="M130.3,162.56v-11h1.21V157l-.16-.15a2.51,2.51,0,0,1,1-1.44,2.87,2.87,0,0,1,1.74-.52,3.1,3.1,0,0,1,2.93,1.83,4.52,4.52,0,0,1,.43,2.05,4.68,4.68,0,0,1-.43,2.08,3.21,3.21,0,0,1-1.18,1.38,3.14,3.14,0,0,1-1.75.49,2.93,2.93,0,0,1-1.74-.51,2.52,2.52,0,0,1-1-1.46l.16-.16v2Zm3.54-.9a2,2,0,0,0,1.71-.77,3.4,3.4,0,0,0,.61-2.17,3.24,3.24,0,0,0-.61-2.11,2.34,2.34,0,0,0-3.44,0,3.33,3.33,0,0,0-.6,2.13,3.43,3.43,0,0,0,.6,2.16A2.09,2.09,0,0,0,133.84,161.66Z"/><path class="cls-8" d="M141.61,163,138.22,155h1.27l2.73,6.66Zm-2.76,3-.26-.95a5.84,5.84,0,0,0,1.16-.38,2.45,2.45,0,0,0,.8-.56,3.21,3.21,0,0,0,.56-.92l.48-1.11.27-.37,2.76-6.66h1.22l-3.53,8.23a5.37,5.37,0,0,1-.91,1.47,3.66,3.66,0,0,1-1.15.83A6,6,0,0,1,138.85,166Z"/></g><polygon class="cls-8" points="139.05 54.38 144.02 45.75 134.07 45.75 139.05 54.38"/></g></g></svg>