<svg xmlns="http://www.w3.org/2000/svg" viewBox="0 0 595.28 284.71"><defs><style>.cls-1{fill:none;}.cls-2{fill:#e2e2e2;}.cls-3{fill:#b7b7b7;}.cls-4{isolation:isolate;}.cls-5{fill:#010101;}.cls-6{fill:#6d863b;}.cls-7{fill:#87a549;}.cls-8{fill:#abc282;}.cls-9{fill:#fff;}.cls-10{opacity:0.6;}.cls-11{fill:#3d4986;}.cls-12{fill:#4c5ba6;}.cls-13{fill:#818dc1;}.cls-14{fill:#d8d6b1;}</style></defs><g id="Layer_2" data-name="Layer 2"><g id="Layer_1-2" data-name="Layer 1"><rect class="cls-1" y="0.5" width="595.28" height="18"/><rect class="cls-2" x="153.51" y="0.5" width="139.65" height="37.68" rx="5.67"/><path class="cls-3" d="M287.49,38.68H159.17A6.17,6.17,0,0,1,153,32.51V6.17A6.17,6.17,0,0,1,159.17,0H287.49a6.18,6.18,0,0,1,6.17,6.17V32.51A6.18,6.18,0,0,1,287.49,38.68ZM159.17,1A5.17,5.17,0,0,0,154,6.17V32.51a5.17,5.17,0,0,0,5.16,5.17H287.49a5.18,5.18,0,0,0,5.17-5.17V6.17A5.18,5.18,0,0,0,287.49,1Z"/><g class="cls-4"><path class="cls-5" d="M159.83,14.87V4.19h1l4.33,9.86h-.57l4.29-9.86h1V14.87h-1.14V5.81l.47.06-3.93,9h-.87l-4-9,.49-.06,0,9.06Z"/><path class="cls-5" d="M174.81,15.26l-3.39-7.93h1.28L175.43,14Zm-2.76,3-.25-1A6.07,6.07,0,0,0,173,17a2.4,2.4,0,0,0,.79-.56,3,3,0,0,0,.57-.92l.48-1.11.27-.37,2.76-6.66H179l-3.52,8.23A5.16,5.16,0,0,1,174.6,17a3.44,3.44,0,0,1-1.15.84A5.87,5.87,0,0,1,172.05,18.28Z"/><path class="cls-5" d="M183.92,15a8.43,8.43,0,0,1-1.55-.14A5.21,5.21,0,0,1,181,14.4a5.07,5.07,0,0,1-1.11-.76l.46-.94a5.24,5.24,0,0,0,1.63,1,5.78,5.78,0,0,0,1.91.28,3.41,3.41,0,0,0,2-.5,1.65,1.65,0,0,0,.71-1.42,1.15,1.15,0,0,0-.36-.89,2.44,2.44,0,0,0-1-.54,13.81,13.81,0,0,0-1.37-.38,14.57,14.57,0,0,1-1.45-.39,5.32,5.32,0,0,1-1.23-.54,2.47,2.47,0,0,1-.83-.84,2.5,2.5,0,0,1-.3-1.28,2.78,2.78,0,0,1,.48-1.61A3.2,3.2,0,0,1,182,4.46,5,5,0,0,1,184,4.07a6.48,6.48,0,0,1,1.41.16,5.64,5.64,0,0,1,1.25.46,4.46,4.46,0,0,1,1,.73l-.48,1a5.11,5.11,0,0,0-1.52-1,4.66,4.66,0,0,0-1.69-.3,3.2,3.2,0,0,0-1.95.53,1.73,1.73,0,0,0-.71,1.47,1.37,1.37,0,0,0,.32.94,2.12,2.12,0,0,0,.88.58,12.18,12.18,0,0,0,1.31.4q.78.18,1.5.39a6.83,6.83,0,0,1,1.28.51,2.65,2.65,0,0,1,.89.8,2.16,2.16,0,0,1,.33,1.24,2.67,2.67,0,0,1-.48,1.59,3.1,3.1,0,0,1-1.36,1A5.36,5.36,0,0,1,183.92,15Z"/><path class="cls-5" d="M188.61,8.29v-1h4.85v1Zm4.82,5.5v1a4.64,4.64,0,0,1-.51.11,3,3,0,0,1-.54,0,2.33,2.33,0,0,1-1.68-.6,2.41,2.41,0,0,1-.62-1.8V5.39L191.3,5v7.45a2,2,0,0,0,.17.93.91.91,0,0,0,.47.46,1.65,1.65,0,0,0,.68.13,2.41,2.41,0,0,0,.4,0A2.83,2.83,0,0,0,193.43,13.79Z"/><path class="cls-5" d="M201.11,14a3.58,3.58,0,0,1-1.27.74,4.77,4.77,0,0,1-1.58.27,4.13,4.13,0,0,1-2-.47,3.14,3.14,0,0,1-1.31-1.34,4.51,4.51,0,0,1-.45-2.09A4.5,4.5,0,0,1,194.93,9a3.34,3.34,0,0,1,1.25-1.38A3.43,3.43,0,0,1,198,7.15a3.29,3.29,0,0,1,1.73.44,2.91,2.91,0,0,1,1.1,1.27,4.76,4.76,0,0,1,.38,2v.22h-5.7v-.79h5l-.39.55a3.08,3.08,0,0,0-.52-2,1.88,1.88,0,0,0-1.59-.71,2.1,2.1,0,0,0-1.72.77,3.31,3.31,0,0,0-.62,2.14,3.27,3.27,0,0,0,.65,2.22,2.39,2.39,0,0,0,1.91.75,3.89,3.89,0,0,0,1.27-.21,4.15,4.15,0,0,0,1.16-.67Z"/><path class="cls-5" d="M203.09,18.11V9.44q0-.53,0-1A9.28,9.28,0,0,0,203,7.33h1.15l.14,1.56-.12.22a2.5,2.5,0,0,1,1-1.45,2.93,2.93,0,0,1,1.74-.51,3.14,3.14,0,0,1,1.75.49A3.33,3.33,0,0,1,209.78,9a4.64,4.64,0,0,1,.43,2.07,4.57,4.57,0,0,1-.43,2.06,3.19,3.19,0,0,1-1.17,1.36,3.28,3.28,0,0,1-1.76.47,2.93,2.93,0,0,1-1.74-.51,2.52,2.52,0,0,1-1-1.46l.16-.15v5.25ZM206.63,14a2.09,2.09,0,0,0,1.71-.75,3.28,3.28,0,0,0,.61-2.13,3.37,3.37,0,0,0-.61-2.15,2.33,2.33,0,0,0-3.44,0,3.35,3.35,0,0,0-.6,2.14,3.43,3.43,0,0,0,.6,2.16A2.09,2.09,0,0,0,206.63,14Z"/><path class="cls-5" d="M212.09,18.11V9.44q0-.53,0-1a7.46,7.46,0,0,0-.1-1.06h1.16l.13,1.56-.11.22a2.5,2.5,0,0,1,1-1.45,2.93,2.93,0,0,1,1.74-.51,3.14,3.14,0,0,1,1.75.49A3.33,3.33,0,0,1,218.78,9a4.64,4.64,0,0,1,.43,2.07,4.57,4.57,0,0,1-.43,2.06,3.19,3.19,0,0,1-1.17,1.36,3.28,3.28,0,0,1-1.76.47,2.93,2.93,0,0,1-1.74-.51,2.52,2.52,0,0,1-1-1.46l.16-.15v5.25ZM215.63,14a2.1,2.1,0,0,0,1.71-.75,3.28,3.28,0,0,0,.61-2.13,3.37,3.37,0,0,0-.61-2.15,2.33,2.33,0,0,0-3.44,0,3.35,3.35,0,0,0-.6,2.14,3.43,3.43,0,0,0,.6,2.16A2.09,2.09,0,0,0,215.63,14Z"/><path class="cls-5" d="M227.27,14a3.58,3.58,0,0,1-1.27.74,4.77,4.77,0,0,1-1.58.27,4.13,4.13,0,0,1-2-.47,3.14,3.14,0,0,1-1.31-1.34,4.51,4.51,0,0,1-.45-2.09A4.5,4.5,0,0,1,221.09,9a3.34,3.34,0,0,1,1.25-1.38,3.43,3.43,0,0,1,1.85-.49,3.29,3.29,0,0,1,1.73.44A2.91,2.91,0,0,1,227,8.86a4.76,4.76,0,0,1,.38,2v.22h-5.7v-.79h5l-.39.55a3.08,3.08,0,0,0-.52-2,1.9,1.9,0,0,0-1.59-.71,2.1,2.1,0,0,0-1.72.77,3.31,3.31,0,0,0-.62,2.14,3.27,3.27,0,0,0,.65,2.22,2.39,2.39,0,0,0,1.91.75,3.89,3.89,0,0,0,1.27-.21,4.15,4.15,0,0,0,1.16-.67Z"/><path class="cls-5" d="M229.25,14.87V9.44q0-.53,0-1a9.28,9.28,0,0,0-.09-1.06h1.15l.17,1.86-.17,0a2.32,2.32,0,0,1,.91-1.49,2.58,2.58,0,0,1,1.57-.5,2.06,2.06,0,0,1,.36,0l.33.07,0,1.11a2.45,2.45,0,0,0-.8-.12,2.06,2.06,0,0,0-1.25.34,2,2,0,0,0-.69.88,2.87,2.87,0,0,0-.22,1.12v4.3Z"/><path class="cls-5" d="M159.83,32.87V22.19h4.24a4.06,4.06,0,0,1,2.65.77,2.7,2.7,0,0,1,.92,2.2,2.66,2.66,0,0,1-.94,2.17,4,4,0,0,1-2.63.79l1.11-.21a1.65,1.65,0,0,1,1,.32,2.18,2.18,0,0,1,.67,1l1.35,3.61h-1.3l-1.32-3.55a1.53,1.53,0,0,0-.7-.89,2.64,2.64,0,0,0-1.18-.22H161v4.66ZM161,27.19H164a2.84,2.84,0,0,0,1.85-.51,1.86,1.86,0,0,0,.61-1.5,1.79,1.79,0,0,0-.6-1.48,3,3,0,0,0-1.86-.49H161Z"/><path class="cls-5" d="M176.25,32a3.49,3.49,0,0,1-1.27.74,4.73,4.73,0,0,1-1.58.27,4.16,4.16,0,0,1-2-.47,3.12,3.12,0,0,1-1.3-1.34,4.39,4.39,0,0,1-.46-2.09,4.5,4.5,0,0,1,.45-2.06,3.41,3.41,0,0,1,1.25-1.38,3.49,3.49,0,0,1,1.86-.49,3.26,3.26,0,0,1,1.72.44,2.85,2.85,0,0,1,1.1,1.27,4.6,4.6,0,0,1,.39,2v.22h-5.7v-.79h5l-.39.55a3.14,3.14,0,0,0-.52-2,1.91,1.91,0,0,0-1.6-.71,2.11,2.11,0,0,0-1.72.77,3.36,3.36,0,0,0-.62,2.14,3.32,3.32,0,0,0,.65,2.22,2.42,2.42,0,0,0,1.92.75,3.79,3.79,0,0,0,1.26-.21,4.06,4.06,0,0,0,1.17-.67Z"/><path class="cls-5" d="M178.23,32.87V27.44c0-.35,0-.7,0-1.05s-.05-.71-.1-1.06h1.16l.13,1.56-.15.12a2.61,2.61,0,0,1,1.05-1.39,3.12,3.12,0,0,1,1.7-.47c1.81,0,2.71,1,2.71,3v4.74H183.5V28.19a2.34,2.34,0,0,0-.42-1.54,1.67,1.67,0,0,0-1.32-.48,2.24,2.24,0,0,0-1.68.64,2.38,2.38,0,0,0-.63,1.74v4.32Z"/><path class="cls-5" d="M189.9,33a3.28,3.28,0,0,1-1.76-.47A3.06,3.06,0,0,1,187,31.15a4.71,4.71,0,0,1-.41-2.06A4.78,4.78,0,0,1,187,27a3.31,3.31,0,0,1,1.17-1.38,3.14,3.14,0,0,1,1.75-.49,3,3,0,0,1,1.76.51,2.5,2.5,0,0,1,1,1.45l-.18.12v-1.9h1.2v7.54h-1.2V30.92l.18.09a2.52,2.52,0,0,1-1,1.46A3,3,0,0,1,189.9,33Zm.24-1a2.06,2.06,0,0,0,1.71-.75,3.43,3.43,0,0,0,.6-2.16,3.29,3.29,0,0,0-.61-2.14,2.06,2.06,0,0,0-1.7-.75,2.1,2.1,0,0,0-1.73.77,3.32,3.32,0,0,0-.62,2.15,3.22,3.22,0,0,0,.62,2.13A2.12,2.12,0,0,0,190.14,32Z"/><path class="cls-5" d="M196,32.87V27.44q0-.53,0-1.05a9.28,9.28,0,0,0-.09-1.06H197l.14,1.56L197,27a2.53,2.53,0,0,1,.93-1.36,2.67,2.67,0,0,1,1.59-.48,2.48,2.48,0,0,1,1.7.54,2.67,2.67,0,0,1,.77,1.65l-.36-.2a2.53,2.53,0,0,1,1-1.45,2.85,2.85,0,0,1,1.75-.54,2.33,2.33,0,0,1,1.87.74,3.4,3.4,0,0,1,.63,2.24v4.74h-1.21V28.19a2.54,2.54,0,0,0-.38-1.54,1.4,1.4,0,0,0-1.18-.48,1.87,1.87,0,0,0-1.5.64,2.66,2.66,0,0,0-.54,1.76v4.3h-1.22V28.19a2.54,2.54,0,0,0-.38-1.54,1.43,1.43,0,0,0-1.19-.48,1.87,1.87,0,0,0-1.51.64,2.61,2.61,0,0,0-.55,1.76v4.3Z"/><path class="cls-5" d="M215.37,32a3.49,3.49,0,0,1-1.27.74,4.73,4.73,0,0,1-1.58.27,4.16,4.16,0,0,1-2-.47,3.12,3.12,0,0,1-1.3-1.34,4.39,4.39,0,0,1-.46-2.09,4.5,4.5,0,0,1,.45-2.06,3.41,3.41,0,0,1,1.25-1.38,3.49,3.49,0,0,1,1.86-.49,3.26,3.26,0,0,1,1.72.44,2.85,2.85,0,0,1,1.1,1.27,4.6,4.6,0,0,1,.39,2v.22h-5.7v-.79h5l-.39.55a3.14,3.14,0,0,0-.52-2,1.91,1.91,0,0,0-1.6-.71,2.11,2.11,0,0,0-1.72.77A3.36,3.36,0,0,0,210,29a3.32,3.32,0,0,0,.65,2.22,2.42,2.42,0,0,0,1.92.75,3.79,3.79,0,0,0,1.26-.21,4.06,4.06,0,0,0,1.17-.67Z"/><path class="cls-5" d="M221.15,22.13h1.48v1.38h-1.48Zm.12,10.74V25.33h1.21v7.54Z"/><path class="cls-5" d="M224.84,32.87V27.44q0-.53,0-1.05a7.46,7.46,0,0,0-.1-1.06h1.16l.13,1.56-.14.12a2.61,2.61,0,0,1,1-1.39,3.09,3.09,0,0,1,1.69-.47c1.81,0,2.72,1,2.72,3v4.74H230.1V28.19a2.34,2.34,0,0,0-.42-1.54,1.67,1.67,0,0,0-1.32-.48,2.24,2.24,0,0,0-1.68.64,2.38,2.38,0,0,0-.63,1.74v4.32Z"/><path class="cls-5" d="M236.16,33a4.38,4.38,0,0,1-3-1l.4-.9a4.11,4.11,0,0,0,1.24.68,4.23,4.23,0,0,0,1.42.22,2.37,2.37,0,0,0,1.29-.29.94.94,0,0,0,.44-.85.91.91,0,0,0-.29-.71,2.55,2.55,0,0,0-1-.43l-1.27-.3a2.78,2.78,0,0,1-1.46-.75,1.78,1.78,0,0,1-.52-1.29,2,2,0,0,1,.36-1.16,2.45,2.45,0,0,1,1-.79,3.7,3.7,0,0,1,1.53-.28,4.46,4.46,0,0,1,1.5.25,3.25,3.25,0,0,1,1.18.74l-.41.88a4,4,0,0,0-1.1-.67,3.28,3.28,0,0,0-1.17-.21,2.15,2.15,0,0,0-1.26.31,1,1,0,0,0-.44.86,1,1,0,0,0,.28.73,1.89,1.89,0,0,0,.89.42l1.28.32a3,3,0,0,1,1.56.74,1.77,1.77,0,0,1,.5,1.31,1.84,1.84,0,0,1-.79,1.56A3.57,3.57,0,0,1,236.16,33Z"/><path class="cls-5" d="M239.91,26.29v-1h4.84v1Zm4.81,5.5v1a4.48,4.48,0,0,1-.5.11,3.09,3.09,0,0,1-.55,0,2.31,2.31,0,0,1-1.67-.6,2.41,2.41,0,0,1-.62-1.8V23.39l1.21-.43v7.45a2,2,0,0,0,.18.93.91.91,0,0,0,.47.46,1.6,1.6,0,0,0,.67.13,2.54,2.54,0,0,0,.41,0A2.73,2.73,0,0,0,244.72,31.79Z"/><path class="cls-5" d="M249.12,33a3.28,3.28,0,0,1-1.76-.47,3.06,3.06,0,0,1-1.17-1.36,4.71,4.71,0,0,1-.41-2.06,4.78,4.78,0,0,1,.41-2.07,3.33,3.33,0,0,1,1.18-1.38,3.14,3.14,0,0,1,1.75-.49,2.94,2.94,0,0,1,1.75.51,2.51,2.51,0,0,1,1,1.45l-.18.12v-1.9h1.2v7.54h-1.2V30.92l.18.09a2.54,2.54,0,0,1-1,1.46A2.94,2.94,0,0,1,249.12,33Zm.24-1a2.06,2.06,0,0,0,1.71-.75,3.43,3.43,0,0,0,.6-2.16,3.29,3.29,0,0,0-.61-2.14,2.06,2.06,0,0,0-1.7-.75,2.1,2.1,0,0,0-1.73.77,3.32,3.32,0,0,0-.63,2.15,3.22,3.22,0,0,0,.63,2.13A2.12,2.12,0,0,0,249.36,32Z"/><path class="cls-5" d="M255.22,32.87V27.44c0-.35,0-.7,0-1.05a9.28,9.28,0,0,0-.1-1.06h1.16l.13,1.56-.15.12a2.61,2.61,0,0,1,1.05-1.39,3.12,3.12,0,0,1,1.7-.47c1.81,0,2.71,1,2.71,3v4.74h-1.21V28.19a2.34,2.34,0,0,0-.42-1.54,1.67,1.67,0,0,0-1.32-.48,2.24,2.24,0,0,0-1.68.64,2.38,2.38,0,0,0-.63,1.74v4.32Z"/><path class="cls-5" d="M267.16,33a3.7,3.7,0,0,1-1.92-.48A3.26,3.26,0,0,1,264,31.15,5,5,0,0,1,264,27a3.35,3.35,0,0,1,1.27-1.39,3.72,3.72,0,0,1,2-.49,4.12,4.12,0,0,1,1.48.26,3.24,3.24,0,0,1,1.18.73l-.41.9a4.49,4.49,0,0,0-1.08-.65,2.85,2.85,0,0,0-1.11-.22,2.25,2.25,0,0,0-1.8.76,3.16,3.16,0,0,0-.67,2.16,3.12,3.12,0,0,0,.66,2.13,2.28,2.28,0,0,0,1.81.75,3,3,0,0,0,1.1-.21,4.73,4.73,0,0,0,1.09-.66l.41.9a3.51,3.51,0,0,1-1.21.72A4.52,4.52,0,0,1,267.16,33Z"/><path class="cls-5" d="M277.6,32a3.53,3.53,0,0,1-1.26.74,4.83,4.83,0,0,1-1.59.27,4.09,4.09,0,0,1-2-.47,3.14,3.14,0,0,1-1.31-1.34,5,5,0,0,1,0-4.15,3.37,3.37,0,0,1,1.26-1.38,3.43,3.43,0,0,1,1.85-.49,3.26,3.26,0,0,1,1.72.44,2.93,2.93,0,0,1,1.11,1.27,4.76,4.76,0,0,1,.38,2v.22H272v-.79h5l-.39.55a3.08,3.08,0,0,0-.52-2,1.9,1.9,0,0,0-1.6-.71,2.08,2.08,0,0,0-1.71.77A3.31,3.31,0,0,0,272.2,29a3.27,3.27,0,0,0,.66,2.22,2.39,2.39,0,0,0,1.91.75,3.89,3.89,0,0,0,1.27-.21,4.15,4.15,0,0,0,1.16-.67Z"/><path class="cls-5" d="M279.37,31.33h1.55v1.54h-1.55Z"/><path class="cls-5" d="M282.84,31.33h1.54v1.54h-1.54Z"/><path class="cls-5" d="M286.3,31.33h1.55v1.54H286.3Z"/></g><path class="cls-6" d="M1,52.87a8,8,0,0,1,8-8H376v80c0,10-8-8-8,7.5s8-2.5,8,7.5v11c0,10-8-8-8,7.5s8-2.5,8,7.5v5H9a8,8,0,0,1-8-8Z"/><path class="cls-7" d="M0,51.87a8,8,0,0,1,8-8H375v80c0,10-8-8-8,7.5s8-2.5,8,7.5v11c0,10-8-8-8,7.5s8-2.5,8,7.5v5H8a8,8,0,0,1-8-8Z"/><path class="cls-8" d="M2.34,167.52A7.94,7.94,0,0,1,0,161.87v-110H1v110a7,7,0,0,0,2.05,4.95Zm367.89-2.92-.49-.87,3.68-2.1.49.87Zm0-26-.49-.87,3.68-2.1.49.87ZM1,51.4l-1-.07a8,8,0,0,1,8-7.46h366.5v1H8A7,7,0,0,0,1,51.4Z"/><g class="cls-4"><path class="cls-9" d="M13.72,61.47a4.38,4.38,0,0,1-3-1l.4-.9a4.11,4.11,0,0,0,1.24.68,4.23,4.23,0,0,0,1.42.22,2.37,2.37,0,0,0,1.29-.29,1,1,0,0,0,.44-.85.91.91,0,0,0-.29-.71,2.41,2.41,0,0,0-1-.43l-1.27-.3a2.78,2.78,0,0,1-1.46-.75A1.78,1.78,0,0,1,11,55.88a1.93,1.93,0,0,1,.36-1.16,2.37,2.37,0,0,1,1-.79,3.7,3.7,0,0,1,1.53-.29,4.46,4.46,0,0,1,1.5.26,3.23,3.23,0,0,1,1.18.73l-.41.89a3.87,3.87,0,0,0-1.1-.67,3.29,3.29,0,0,0-1.17-.22A2.17,2.17,0,0,0,12.6,55a1,1,0,0,0-.44.85,1,1,0,0,0,.28.74,1.89,1.89,0,0,0,.89.42l1.28.31a2.93,2.93,0,0,1,1.56.75,1.77,1.77,0,0,1,.5,1.31,1.84,1.84,0,0,1-.79,1.56A3.57,3.57,0,0,1,13.72,61.47Z"/><path class="cls-9" d="M24.79,60.47a3.48,3.48,0,0,1-1.27.73,4.73,4.73,0,0,1-1.58.27,4.16,4.16,0,0,1-2-.46,3.17,3.17,0,0,1-1.3-1.34,5,5,0,0,1,0-4.15,3.41,3.41,0,0,1,1.25-1.38,3.46,3.46,0,0,1,1.85-.5,3.21,3.21,0,0,1,1.73.45,2.77,2.77,0,0,1,1.1,1.26,4.6,4.6,0,0,1,.38,2v.23H19.23v-.8h5l-.39.56a3.17,3.17,0,0,0-.51-2,1.91,1.91,0,0,0-1.6-.7,2.11,2.11,0,0,0-1.72.77,3.36,3.36,0,0,0-.62,2.14A3.32,3.32,0,0,0,20,59.72a2.41,2.41,0,0,0,1.92.75,3.56,3.56,0,0,0,1.26-.22,4,4,0,0,0,1.16-.67Z"/><path class="cls-9" d="M25.66,54.78v-1H30.5v1Zm4.81,5.51v1a2.95,2.95,0,0,1-1,.15,2.31,2.31,0,0,1-1.67-.6,2.41,2.41,0,0,1-.62-1.8V51.89l1.21-.44v7.46a2,2,0,0,0,.18.93,1,1,0,0,0,.47.46,1.78,1.78,0,0,0,.67.12,2.54,2.54,0,0,0,.41,0A2.59,2.59,0,0,0,30.47,60.29Z"/><path class="cls-9" d="M34.64,61.47a2.61,2.61,0,0,1-2-.75,3.22,3.22,0,0,1-.68-2.22V53.82h1.21v4.65a2.24,2.24,0,0,0,.42,1.5,1.62,1.62,0,0,0,1.28.48,2.13,2.13,0,0,0,1.62-.64,2.41,2.41,0,0,0,.61-1.73V53.82h1.22v7.55H37.1V59.73l.18-.09a2.5,2.5,0,0,1-1,1.37A2.9,2.9,0,0,1,34.64,61.47Z"/><path class="cls-9" d="M40.63,64.61V55.94c0-.35,0-.71,0-1.06s0-.71-.1-1.06h1.15l.14,1.56-.12.23a2.52,2.52,0,0,1,1-1.46,2.93,2.93,0,0,1,1.74-.51,3.12,3.12,0,0,1,1.75.5,3.35,3.35,0,0,1,1.19,1.38,5.29,5.29,0,0,1,0,4.13,3.1,3.1,0,0,1-2.94,1.82A2.93,2.93,0,0,1,42.65,61a2.5,2.5,0,0,1-1-1.45l.16-.15v5.25Zm3.54-4.14a2.09,2.09,0,0,0,1.71-.75,3.28,3.28,0,0,0,.61-2.13,3.36,3.36,0,0,0-.61-2.15,2.06,2.06,0,0,0-1.71-.78,2.09,2.09,0,0,0-1.73.75,4.15,4.15,0,0,0,0,4.3A2.07,2.07,0,0,0,44.17,60.47Z"/><path class="cls-9" d="M56.09,61.47a4.39,4.39,0,0,1-3-1l.4-.9a4.23,4.23,0,0,0,1.24.68,4.27,4.27,0,0,0,1.42.22,2.43,2.43,0,0,0,1.3-.29,1,1,0,0,0,.44-.85.89.89,0,0,0-.3-.71,2.3,2.3,0,0,0-1-.43l-1.28-.3a2.82,2.82,0,0,1-1.46-.75,1.82,1.82,0,0,1-.52-1.29,1.93,1.93,0,0,1,.36-1.16,2.37,2.37,0,0,1,1-.79,3.76,3.76,0,0,1,1.53-.29,4.38,4.38,0,0,1,1.5.26,3.14,3.14,0,0,1,1.18.73l-.4.89a4.17,4.17,0,0,0-1.1-.67,3.38,3.38,0,0,0-1.18-.22A2.12,2.12,0,0,0,55,55a1,1,0,0,0-.45.85,1,1,0,0,0,.28.74,1.94,1.94,0,0,0,.89.42l1.28.31a3,3,0,0,1,1.57.75,1.81,1.81,0,0,1,.5,1.31,1.85,1.85,0,0,1-.8,1.56A3.57,3.57,0,0,1,56.09,61.47Z"/><path class="cls-9" d="M59.84,54.78v-1h4.85v1Zm4.82,5.51v1l-.5.12a4.68,4.68,0,0,1-.55,0,2.29,2.29,0,0,1-1.67-.6,2.37,2.37,0,0,1-.63-1.8V51.89l1.22-.44v7.46a2.11,2.11,0,0,0,.17.93,1,1,0,0,0,.47.46,1.83,1.83,0,0,0,.68.12,2.41,2.41,0,0,0,.4,0A2.69,2.69,0,0,0,64.66,60.29Z"/><path class="cls-9" d="M72.34,60.47a3.48,3.48,0,0,1-1.27.73,4.73,4.73,0,0,1-1.58.27,4.16,4.16,0,0,1-2-.46,3.17,3.17,0,0,1-1.3-1.34,5,5,0,0,1,0-4.15,3.41,3.41,0,0,1,1.25-1.38,3.46,3.46,0,0,1,1.85-.5,3.21,3.21,0,0,1,1.73.45,2.77,2.77,0,0,1,1.1,1.26,4.6,4.6,0,0,1,.38,2v.23h-5.7v-.8h5l-.39.56a3.17,3.17,0,0,0-.51-2,1.91,1.91,0,0,0-1.6-.7,2.11,2.11,0,0,0-1.72.77,3.36,3.36,0,0,0-.62,2.14,3.32,3.32,0,0,0,.65,2.22,2.4,2.4,0,0,0,1.91.75,3.61,3.61,0,0,0,1.27-.22,4,4,0,0,0,1.16-.67Z"/><path class="cls-9" d="M74.32,64.61V55.94c0-.35,0-.71,0-1.06s0-.71-.1-1.06h1.15l.14,1.56-.12.23a2.52,2.52,0,0,1,1-1.46,2.93,2.93,0,0,1,1.74-.51,3.12,3.12,0,0,1,1.75.5A3.35,3.35,0,0,1,81,55.52a5.29,5.29,0,0,1,0,4.13,3.1,3.1,0,0,1-2.94,1.82A2.93,2.93,0,0,1,76.34,61a2.5,2.5,0,0,1-1-1.45l.16-.15v5.25Zm3.54-4.14a2.09,2.09,0,0,0,1.71-.75,3.28,3.28,0,0,0,.61-2.13,3.36,3.36,0,0,0-.61-2.15,2.06,2.06,0,0,0-1.71-.78,2.09,2.09,0,0,0-1.73.75,4.15,4.15,0,0,0,0,4.3A2.07,2.07,0,0,0,77.86,60.47Z"/><path class="cls-9" d="M83.32,64.61V55.94c0-.35,0-.71,0-1.06s0-.71-.1-1.06h1.15l.14,1.56-.12.23a2.52,2.52,0,0,1,1-1.46,2.93,2.93,0,0,1,1.74-.51,3.12,3.12,0,0,1,1.75.5A3.35,3.35,0,0,1,90,55.52a5.29,5.29,0,0,1,0,4.13,3.1,3.1,0,0,1-2.94,1.82A2.93,2.93,0,0,1,85.34,61a2.5,2.5,0,0,1-1-1.45l.16-.15v5.25Zm3.54-4.14a2.09,2.09,0,0,0,1.71-.75,3.28,3.28,0,0,0,.61-2.13,3.36,3.36,0,0,0-.61-2.15,2.06,2.06,0,0,0-1.71-.78,2.09,2.09,0,0,0-1.73.75,4.15,4.15,0,0,0,0,4.3A2.07,2.07,0,0,0,86.86,60.47Z"/><path class="cls-9" d="M98.5,60.47a3.48,3.48,0,0,1-1.27.73,4.73,4.73,0,0,1-1.58.27,4.16,4.16,0,0,1-2-.46,3.17,3.17,0,0,1-1.3-1.34,5,5,0,0,1,0-4.15,3.41,3.41,0,0,1,1.25-1.38,3.46,3.46,0,0,1,1.85-.5,3.21,3.21,0,0,1,1.73.45,2.77,2.77,0,0,1,1.1,1.26,4.6,4.6,0,0,1,.38,2v.23h-5.7v-.8h5l-.39.56a3.17,3.17,0,0,0-.51-2,1.91,1.91,0,0,0-1.6-.7,2.11,2.11,0,0,0-1.72.77,3.36,3.36,0,0,0-.62,2.14,3.32,3.32,0,0,0,.65,2.22,2.4,2.4,0,0,0,1.91.75,3.61,3.61,0,0,0,1.27-.22,4,4,0,0,0,1.16-.67Z"/><path class="cls-9" d="M100.48,61.37V55.94c0-.35,0-.71,0-1.06s0-.71-.1-1.06h1.15l.17,1.86-.17,0a2.36,2.36,0,0,1,.91-1.49,2.61,2.61,0,0,1,1.57-.51,2.22,2.22,0,0,1,.37,0,1.65,1.65,0,0,1,.32.06l0,1.11a2.45,2.45,0,0,0-.8-.12,2,2,0,0,0-1.94,1.22,3.06,3.06,0,0,0-.22,1.12v4.31Z"/><path class="cls-9" d="M109.82,61.37V55.94c0-.35,0-.71,0-1.06a9.28,9.28,0,0,0-.1-1.06h1.16l.13,1.56-.15.11a2.57,2.57,0,0,1,.94-1.37,2.64,2.64,0,0,1,1.58-.48,2.51,2.51,0,0,1,1.71.54,2.67,2.67,0,0,1,.77,1.65l-.36-.19a2.56,2.56,0,0,1,1-1.46,2.82,2.82,0,0,1,1.74-.54,2.32,2.32,0,0,1,1.88.75,3.38,3.38,0,0,1,.63,2.24v4.74h-1.22V56.69a2.55,2.55,0,0,0-.37-1.54,1.43,1.43,0,0,0-1.19-.49,1.86,1.86,0,0,0-1.49.65,2.64,2.64,0,0,0-.55,1.75v4.31h-1.21V56.69a2.54,2.54,0,0,0-.38-1.54,1.46,1.46,0,0,0-1.2-.49,1.85,1.85,0,0,0-1.5.65,2.59,2.59,0,0,0-.55,1.75v4.31Z"/><path class="cls-9" d="M126.13,61.47a3.58,3.58,0,0,1-1.88-.48A3.26,3.26,0,0,1,123,59.64a5.11,5.11,0,0,1,0-4.15,3.26,3.26,0,0,1,1.25-1.37,3.92,3.92,0,0,1,3.76,0,3.26,3.26,0,0,1,1.25,1.37,5.11,5.11,0,0,1,0,4.15A3.26,3.26,0,0,1,128,61,3.58,3.58,0,0,1,126.13,61.47Zm0-1a2.12,2.12,0,0,0,1.72-.74,3.4,3.4,0,0,0,.6-2.17,3.32,3.32,0,0,0-.61-2.15,2.09,2.09,0,0,0-1.71-.75,2.12,2.12,0,0,0-1.72.75,4.1,4.1,0,0,0,0,4.32A2.11,2.11,0,0,0,126.13,60.47Z"/><path class="cls-9" d="M130.51,54.78v-1h4.84v1Zm4.81,5.51v1a2.95,2.95,0,0,1-1,.15,2.31,2.31,0,0,1-1.67-.6,2.41,2.41,0,0,1-.62-1.8V51.89l1.21-.44v7.46a2,2,0,0,0,.18.93,1,1,0,0,0,.47.46,1.78,1.78,0,0,0,.67.12,2.54,2.54,0,0,0,.41,0A2.59,2.59,0,0,0,135.32,60.29Z"/><path class="cls-9" d="M139.94,61.47a3.6,3.6,0,0,1-1.88-.48,3.24,3.24,0,0,1-1.24-1.35,5,5,0,0,1,0-4.15,3.24,3.24,0,0,1,1.24-1.37,3.6,3.6,0,0,1,1.88-.48,3.64,3.64,0,0,1,1.89.48,3.24,3.24,0,0,1,1.24,1.37,5.11,5.11,0,0,1,0,4.15A3.24,3.24,0,0,1,141.83,61,3.64,3.64,0,0,1,139.94,61.47Zm0-1a2.11,2.11,0,0,0,1.72-.74,4.1,4.1,0,0,0,0-4.32,2.32,2.32,0,0,0-3.42,0,3.26,3.26,0,0,0-.63,2.15,3.4,3.4,0,0,0,.61,2.17A2.13,2.13,0,0,0,139.94,60.47Z"/><path class="cls-9" d="M145.4,61.37V55.94c0-.35,0-.71,0-1.06a9.28,9.28,0,0,0-.1-1.06h1.16l.16,1.86-.16,0a2.32,2.32,0,0,1,.91-1.49,2.56,2.56,0,0,1,1.56-.51,2.13,2.13,0,0,1,.37,0,1.52,1.52,0,0,1,.32.06l0,1.11a2.39,2.39,0,0,0-.79-.12,2.06,2.06,0,0,0-1.25.35,2,2,0,0,0-.69.87,2.87,2.87,0,0,0-.22,1.12v4.31Z"/></g><g class="cls-10"><rect class="cls-9" x="153.45" y="48.87" width="99.82" height="16" rx="4"/></g><g class="cls-4"><path class="cls-5" d="M159.77,61.37V50.69h1l4.34,9.85h-.57l4.29-9.85h1V61.37h-1.14V52.31l.46.06-3.93,9h-.87l-4-9,.5-.06v9.06Z"/><path class="cls-5" d="M174.75,61.76l-3.38-7.94h1.27l2.73,6.66Zm-2.75,3-.26-.94a5.8,5.8,0,0,0,1.16-.39,2.45,2.45,0,0,0,.8-.56,3.15,3.15,0,0,0,.56-.91l.48-1.11.27-.38,2.76-6.66H179l-3.52,8.24a5.55,5.55,0,0,1-.91,1.46,3.51,3.51,0,0,1-1.15.83A6.16,6.16,0,0,1,172,64.77Z"/><path class="cls-5" d="M183.86,61.49a8.32,8.32,0,0,1-1.54-.14A5.71,5.71,0,0,1,181,60.9a5.07,5.07,0,0,1-1.11-.76l.47-1a5.31,5.31,0,0,0,1.62,1,5.87,5.87,0,0,0,1.92.29,3.45,3.45,0,0,0,2-.5,1.67,1.67,0,0,0,.7-1.42,1.18,1.18,0,0,0-.35-.89,2.46,2.46,0,0,0-1-.54c-.41-.14-.87-.27-1.37-.39a14.1,14.1,0,0,1-1.46-.38,5.07,5.07,0,0,1-1.22-.55,2.5,2.5,0,0,1-.84-.84,2.46,2.46,0,0,1-.29-1.27,2.69,2.69,0,0,1,.48-1.61A3.07,3.07,0,0,1,181.9,51a4.93,4.93,0,0,1,2-.39,5.92,5.92,0,0,1,1.41.16,5,5,0,0,1,1.25.45,4.29,4.29,0,0,1,1,.74l-.48.94a5.15,5.15,0,0,0-1.51-.94,4.71,4.71,0,0,0-1.7-.3,3.2,3.2,0,0,0-1.95.52,1.72,1.72,0,0,0-.7,1.47,1.39,1.39,0,0,0,.31,1,2.19,2.19,0,0,0,.89.58,12.07,12.07,0,0,0,1.3.39q.78.18,1.5.39a6,6,0,0,1,1.28.52,2.66,2.66,0,0,1,.9.79,2.26,2.26,0,0,1,.32,1.24,2.61,2.61,0,0,1-.48,1.59,3.1,3.1,0,0,1-1.36,1A5.36,5.36,0,0,1,183.86,61.49Z"/><path class="cls-5" d="M188.56,54.78v-1h4.84v1Zm4.81,5.51v1l-.5.12a4.68,4.68,0,0,1-.55,0,2.29,2.29,0,0,1-1.67-.6,2.37,2.37,0,0,1-.62-1.8V51.89l1.21-.44v7.46a2.11,2.11,0,0,0,.17.93,1,1,0,0,0,.48.46,1.78,1.78,0,0,0,.67.12,2.54,2.54,0,0,0,.41,0A2.59,2.59,0,0,0,193.37,60.29Z"/><path class="cls-5" d="M201.05,60.47a3.48,3.48,0,0,1-1.27.73,4.73,4.73,0,0,1-1.58.27,4.16,4.16,0,0,1-2-.46,3.17,3.17,0,0,1-1.3-1.34,5,5,0,0,1,0-4.15,3.41,3.41,0,0,1,1.25-1.38,3.46,3.46,0,0,1,1.85-.5,3.21,3.21,0,0,1,1.73.45,2.77,2.77,0,0,1,1.1,1.26,4.6,4.6,0,0,1,.38,2v.23h-5.7v-.8h5l-.39.56a3.17,3.17,0,0,0-.51-2,1.91,1.91,0,0,0-1.6-.7,2.11,2.11,0,0,0-1.72.77,3.36,3.36,0,0,0-.62,2.14,3.32,3.32,0,0,0,.65,2.22,2.4,2.4,0,0,0,1.91.75,3.61,3.61,0,0,0,1.27-.22,4,4,0,0,0,1.16-.67Z"/><path class="cls-5" d="M203,64.61V55.94c0-.35,0-.71,0-1.06s0-.71-.1-1.06h1.16l.13,1.56-.12.23a2.52,2.52,0,0,1,1-1.46,2.94,2.94,0,0,1,1.75-.51,3.09,3.09,0,0,1,1.74.5,3.35,3.35,0,0,1,1.19,1.38,5.29,5.29,0,0,1,0,4.13,3.1,3.1,0,0,1-2.93,1.82,2.94,2.94,0,0,1-1.75-.51,2.5,2.5,0,0,1-1-1.45l.16-.15v5.25Zm3.54-4.14a2.09,2.09,0,0,0,1.71-.75,3.28,3.28,0,0,0,.62-2.13,3.36,3.36,0,0,0-.62-2.15,2.06,2.06,0,0,0-1.71-.78,2.09,2.09,0,0,0-1.73.75,4.15,4.15,0,0,0,0,4.3A2.07,2.07,0,0,0,206.57,60.47Z"/><path class="cls-5" d="M212,64.61V55.94c0-.35,0-.71,0-1.06s0-.71-.1-1.06h1.15l.14,1.56-.12.23a2.52,2.52,0,0,1,1-1.46,2.93,2.93,0,0,1,1.74-.51,3.12,3.12,0,0,1,1.75.5,3.35,3.35,0,0,1,1.19,1.38,5.29,5.29,0,0,1,0,4.13,3.1,3.1,0,0,1-2.94,1.82,2.93,2.93,0,0,1-1.74-.51,2.5,2.5,0,0,1-1-1.45l.16-.15v5.25Zm3.54-4.14a2.09,2.09,0,0,0,1.71-.75,3.28,3.28,0,0,0,.61-2.13,3.36,3.36,0,0,0-.61-2.15,2.06,2.06,0,0,0-1.71-.78,2.09,2.09,0,0,0-1.73.75,4.15,4.15,0,0,0,0,4.3A2.07,2.07,0,0,0,215.57,60.47Z"/><path class="cls-5" d="M227.21,60.47a3.48,3.48,0,0,1-1.27.73,4.73,4.73,0,0,1-1.58.27,4.16,4.16,0,0,1-2-.46,3.17,3.17,0,0,1-1.3-1.34,5,5,0,0,1,0-4.15,3.41,3.41,0,0,1,1.25-1.38,3.46,3.46,0,0,1,1.85-.5,3.21,3.21,0,0,1,1.73.45,2.77,2.77,0,0,1,1.1,1.26,4.6,4.6,0,0,1,.38,2v.23h-5.7v-.8h5l-.39.56a3.17,3.17,0,0,0-.51-2,1.91,1.91,0,0,0-1.6-.7,2.11,2.11,0,0,0-1.72.77,3.36,3.36,0,0,0-.62,2.14,3.32,3.32,0,0,0,.65,2.22,2.4,2.4,0,0,0,1.91.75,3.61,3.61,0,0,0,1.27-.22,4,4,0,0,0,1.16-.67Z"/><path class="cls-5" d="M229.19,61.37V55.94c0-.35,0-.71,0-1.06s0-.71-.1-1.06h1.15l.17,1.86-.17,0a2.36,2.36,0,0,1,.91-1.49,2.61,2.61,0,0,1,1.57-.51,2.22,2.22,0,0,1,.37,0,1.65,1.65,0,0,1,.32.06l0,1.11a2.45,2.45,0,0,0-.8-.12,2,2,0,0,0-1.94,1.22,3.06,3.06,0,0,0-.22,1.12v4.31Z"/></g><g class="cls-4"><path class="cls-9" d="M262,61.47a4.42,4.42,0,0,1-3-1l.41-.9a4.18,4.18,0,0,0,1.23.68,4.27,4.27,0,0,0,1.42.22,2.43,2.43,0,0,0,1.3-.29,1,1,0,0,0,.44-.85.89.89,0,0,0-.3-.71,2.3,2.3,0,0,0-1-.43l-1.27-.3a2.86,2.86,0,0,1-1.47-.75,1.81,1.81,0,0,1-.51-1.29,1.93,1.93,0,0,1,.36-1.16,2.34,2.34,0,0,1,1-.79,3.76,3.76,0,0,1,1.53-.29,4.38,4.38,0,0,1,1.5.26,3.19,3.19,0,0,1,1.19.73l-.41.89a4.17,4.17,0,0,0-1.1-.67,3.38,3.38,0,0,0-1.18-.22,2.12,2.12,0,0,0-1.25.32,1,1,0,0,0-.44.85,1,1,0,0,0,.27.74,2,2,0,0,0,.9.42l1.27.31a3,3,0,0,1,1.57.75,1.81,1.81,0,0,1,.5,1.31,1.84,1.84,0,0,1-.79,1.56A3.57,3.57,0,0,1,262,61.47Z"/><path class="cls-9" d="M265.74,54.78v-1h4.84v1Zm4.81,5.51v1l-.5.12a4.68,4.68,0,0,1-.55,0,2.29,2.29,0,0,1-1.67-.6,2.37,2.37,0,0,1-.62-1.8V51.89l1.21-.44v7.46a2.11,2.11,0,0,0,.17.93,1,1,0,0,0,.48.46,1.78,1.78,0,0,0,.67.12,2.54,2.54,0,0,0,.41,0A2.59,2.59,0,0,0,270.55,60.29Z"/><path class="cls-9" d="M278.23,60.47a3.48,3.48,0,0,1-1.27.73,4.73,4.73,0,0,1-1.58.27,4.16,4.16,0,0,1-2-.46,3.17,3.17,0,0,1-1.3-1.34,5,5,0,0,1,0-4.15,3.41,3.41,0,0,1,1.25-1.38,3.5,3.5,0,0,1,1.86-.5,3.17,3.17,0,0,1,1.72.45,2.77,2.77,0,0,1,1.1,1.26,4.6,4.6,0,0,1,.39,2v.23h-5.7v-.8h5l-.39.56a3.17,3.17,0,0,0-.52-2,1.91,1.91,0,0,0-1.6-.7,2.11,2.11,0,0,0-1.72.77,3.36,3.36,0,0,0-.62,2.14,3.32,3.32,0,0,0,.65,2.22,2.42,2.42,0,0,0,1.92.75,3.56,3.56,0,0,0,1.26-.22,4.06,4.06,0,0,0,1.17-.67Z"/><path class="cls-9" d="M280.21,64.61V55.94c0-.35,0-.71,0-1.06s-.05-.71-.1-1.06h1.16l.13,1.56-.12.23a2.54,2.54,0,0,1,1-1.46,2.93,2.93,0,0,1,1.74-.51,3.09,3.09,0,0,1,1.74.5,3.35,3.35,0,0,1,1.19,1.38,5.17,5.17,0,0,1,0,4.13A3.1,3.1,0,0,1,284,61.47a2.93,2.93,0,0,1-1.74-.51,2.51,2.51,0,0,1-1-1.45l.17-.15v5.25Zm3.54-4.14a2.09,2.09,0,0,0,1.71-.75,3.28,3.28,0,0,0,.62-2.13,3.36,3.36,0,0,0-.62-2.15,2.3,2.3,0,0,0-3.43,0,4.15,4.15,0,0,0,0,4.3A2,2,0,0,0,283.75,60.47Z"/><path class="cls-9" d="M289.21,64.61V55.94c0-.35,0-.71,0-1.06s-.05-.71-.1-1.06h1.16l.13,1.56-.12.23a2.54,2.54,0,0,1,1-1.46,2.93,2.93,0,0,1,1.74-.51,3.09,3.09,0,0,1,1.74.5,3.35,3.35,0,0,1,1.19,1.38,5.17,5.17,0,0,1,0,4.13A3.1,3.1,0,0,1,293,61.47a2.93,2.93,0,0,1-1.74-.51,2.51,2.51,0,0,1-1-1.45l.17-.15v5.25Zm3.54-4.14a2.09,2.09,0,0,0,1.71-.75,3.28,3.28,0,0,0,.62-2.13,3.36,3.36,0,0,0-.62-2.15,2.3,2.3,0,0,0-3.43,0,4.15,4.15,0,0,0,0,4.3A2,2,0,0,0,292.75,60.47Z"/><path class="cls-9" d="M304.39,60.47a3.48,3.48,0,0,1-1.27.73,4.73,4.73,0,0,1-1.58.27,4.16,4.16,0,0,1-2-.46,3.17,3.17,0,0,1-1.3-1.34,5,5,0,0,1,0-4.15,3.41,3.41,0,0,1,1.25-1.38,3.5,3.5,0,0,1,1.86-.5,3.17,3.17,0,0,1,1.72.45,2.77,2.77,0,0,1,1.1,1.26,4.6,4.6,0,0,1,.39,2v.23h-5.7v-.8h5l-.39.56a3.17,3.17,0,0,0-.52-2,1.91,1.91,0,0,0-1.6-.7,2.11,2.11,0,0,0-1.72.77A3.36,3.36,0,0,0,299,57.5a3.32,3.32,0,0,0,.65,2.22,2.42,2.42,0,0,0,1.92.75,3.56,3.56,0,0,0,1.26-.22,4.06,4.06,0,0,0,1.17-.67Z"/><path class="cls-9" d="M306.37,61.37V55.94c0-.35,0-.71,0-1.06s-.05-.71-.1-1.06h1.16l.16,1.86-.16,0a2.35,2.35,0,0,1,.9-1.49,2.61,2.61,0,0,1,1.57-.51,2.22,2.22,0,0,1,.37,0,1.65,1.65,0,0,1,.32.06l0,1.11a2.39,2.39,0,0,0-.79-.12,2,2,0,0,0-1.95,1.22,3.05,3.05,0,0,0-.21,1.12v4.31Z"/><path class="cls-9" d="M315.72,61.37V55.94c0-.35,0-.71,0-1.06a9.28,9.28,0,0,0-.09-1.06h1.15l.14,1.56-.15.11a2.56,2.56,0,0,1,.93-1.37,2.67,2.67,0,0,1,1.59-.48,2.48,2.48,0,0,1,1.7.54,2.67,2.67,0,0,1,.77,1.65l-.36-.19a2.56,2.56,0,0,1,1-1.46,2.85,2.85,0,0,1,1.75-.54,2.3,2.3,0,0,1,1.87.75,3.38,3.38,0,0,1,.63,2.24v4.74h-1.21V56.69a2.54,2.54,0,0,0-.38-1.54,1.41,1.41,0,0,0-1.18-.49,1.88,1.88,0,0,0-1.5.65,2.63,2.63,0,0,0-.54,1.75v4.31h-1.22V56.69a2.54,2.54,0,0,0-.38-1.54,1.44,1.44,0,0,0-1.19-.49,1.87,1.87,0,0,0-1.51.65,2.59,2.59,0,0,0-.55,1.75v4.31Z"/><path class="cls-9" d="M332,61.47a3.58,3.58,0,0,1-1.88-.48,3.26,3.26,0,0,1-1.25-1.35,5.11,5.11,0,0,1,0-4.15,3.26,3.26,0,0,1,1.25-1.37,3.92,3.92,0,0,1,3.76,0,3.26,3.26,0,0,1,1.25,1.37,5.11,5.11,0,0,1,0,4.15A3.26,3.26,0,0,1,333.9,61,3.58,3.58,0,0,1,332,61.47Zm0-1a2.12,2.12,0,0,0,1.72-.74,3.4,3.4,0,0,0,.61-2.17,3.32,3.32,0,0,0-.62-2.15,2.09,2.09,0,0,0-1.71-.75,2.12,2.12,0,0,0-1.72.75,4.1,4.1,0,0,0,0,4.32A2.11,2.11,0,0,0,332,60.47Z"/><path class="cls-9" d="M336.4,54.78v-1h4.85v1Zm4.82,5.51v1l-.51.12a4.39,4.39,0,0,1-.54,0,2.33,2.33,0,0,1-1.68-.6,2.41,2.41,0,0,1-.62-1.8V51.89l1.22-.44v7.46a2,2,0,0,0,.17.93,1,1,0,0,0,.47.46,1.83,1.83,0,0,0,.68.12,2.41,2.41,0,0,0,.4,0A2.69,2.69,0,0,0,341.22,60.29Z"/><path class="cls-9" d="M345.84,61.47A3.64,3.64,0,0,1,344,61a3.24,3.24,0,0,1-1.24-1.35,5.11,5.11,0,0,1,0-4.15A3.24,3.24,0,0,1,344,54.12a3.64,3.64,0,0,1,1.89-.48,3.6,3.6,0,0,1,1.88.48A3.24,3.24,0,0,1,349,55.49a5,5,0,0,1,0,4.15A3.24,3.24,0,0,1,347.72,61,3.6,3.6,0,0,1,345.84,61.47Zm0-1a2.08,2.08,0,0,0,1.71-.74,4.13,4.13,0,0,0,0-4.32,2.34,2.34,0,0,0-3.43,0,3.26,3.26,0,0,0-.62,2.15,3.4,3.4,0,0,0,.6,2.17A2.15,2.15,0,0,0,345.84,60.47Z"/><path class="cls-9" d="M351.3,61.37V55.94c0-.35,0-.71,0-1.06a9.28,9.28,0,0,0-.09-1.06h1.15l.17,1.86-.17,0a2.32,2.32,0,0,1,.91-1.49,2.59,2.59,0,0,1,1.57-.51,2,2,0,0,1,.36,0,1.61,1.61,0,0,1,.33.06l0,1.11a2.45,2.45,0,0,0-.8-.12,2.06,2.06,0,0,0-1.25.35,2,2,0,0,0-.69.87,2.87,2.87,0,0,0-.22,1.12v4.31Z"/><path class="cls-9" d="M356.71,54h1.54v1.56h-1.54Zm0,5.83h1.54v1.55h-1.54Z"/></g><g class="cls-4"><path class="cls-9" d="M219.37,86.37V80.94c0-.35,0-.71,0-1.06s0-.71-.1-1.06h1.16l.13,1.56-.15.12a2.61,2.61,0,0,1,1.05-1.39,3.12,3.12,0,0,1,1.7-.47c1.8,0,2.71,1,2.71,3v4.74h-1.21V81.69a2.34,2.34,0,0,0-.42-1.54,1.67,1.67,0,0,0-1.32-.49,2.24,2.24,0,0,0-1.68.65,2.38,2.38,0,0,0-.63,1.74v4.32Z"/><path class="cls-9" d="M230.82,86.47a2.64,2.64,0,0,1-2-.75,3.22,3.22,0,0,1-.68-2.22V78.82h1.22v4.65a2.3,2.3,0,0,0,.41,1.5,1.63,1.63,0,0,0,1.28.48,2.13,2.13,0,0,0,1.62-.64,2.41,2.41,0,0,0,.62-1.73V78.82h1.21v7.55h-1.18V84.73l.18-.09a2.57,2.57,0,0,1-1,1.37A2.89,2.89,0,0,1,230.82,86.47Z"/><path class="cls-9" d="M236.8,86.37V80.94c0-.35,0-.71,0-1.06s-.05-.71-.1-1.06h1.16l.13,1.56-.15.11a2.52,2.52,0,0,1,.94-1.37,2.62,2.62,0,0,1,1.58-.48,2.46,2.46,0,0,1,1.7.54,2.67,2.67,0,0,1,.78,1.65l-.36-.19a2.54,2.54,0,0,1,1-1.46,2.87,2.87,0,0,1,1.75-.54,2.32,2.32,0,0,1,1.88.75,3.44,3.44,0,0,1,.62,2.24v4.74h-1.21V81.69a2.55,2.55,0,0,0-.37-1.54,1.43,1.43,0,0,0-1.19-.49,1.85,1.85,0,0,0-1.49.65,2.59,2.59,0,0,0-.55,1.75v4.31h-1.21V81.69a2.47,2.47,0,0,0-.39-1.54,1.43,1.43,0,0,0-1.19-.49,1.89,1.89,0,0,0-1.51.65,2.64,2.64,0,0,0-.55,1.75v4.31Z"/><path class="cls-9" d="M250,86.37v-11h1.22v5.43l-.16-.15a2.56,2.56,0,0,1,1-1.45,2.87,2.87,0,0,1,1.74-.52,3.17,3.17,0,0,1,1.75.48,3.24,3.24,0,0,1,1.18,1.35,4.57,4.57,0,0,1,.43,2.06,4.64,4.64,0,0,1-.43,2.07A3.21,3.21,0,0,1,255.5,86a3.14,3.14,0,0,1-1.75.49A2.93,2.93,0,0,1,252,86a2.5,2.5,0,0,1-1-1.45l.16-.17v2Zm3.55-.9a2,2,0,0,0,1.7-.78,3.31,3.31,0,0,0,.62-2.16,3.21,3.21,0,0,0-.62-2.12,2.33,2.33,0,0,0-3.43,0,4.13,4.13,0,0,0,0,4.29A2.07,2.07,0,0,0,253.53,85.47Z"/><path class="cls-9" d="M265.17,85.47a3.56,3.56,0,0,1-1.27.73,4.77,4.77,0,0,1-1.58.27,4.13,4.13,0,0,1-2-.46A3.19,3.19,0,0,1,259,84.67a5.06,5.06,0,0,1,0-4.15,3.38,3.38,0,0,1,3.11-1.88,3.21,3.21,0,0,1,1.73.45,2.83,2.83,0,0,1,1.1,1.26,4.76,4.76,0,0,1,.38,2v.23h-5.7v-.8h5l-.39.56a3.11,3.11,0,0,0-.52-2,1.89,1.89,0,0,0-1.59-.7,2.1,2.1,0,0,0-1.72.77,3.31,3.31,0,0,0-.62,2.14,3.27,3.27,0,0,0,.65,2.22,2.39,2.39,0,0,0,1.91.75,3.65,3.65,0,0,0,1.27-.22,4.15,4.15,0,0,0,1.16-.67Z"/><path class="cls-9" d="M267.14,86.37V80.94c0-.35,0-.71,0-1.06a9.28,9.28,0,0,0-.1-1.06h1.16l.16,1.86-.16,0a2.32,2.32,0,0,1,.91-1.49,2.56,2.56,0,0,1,1.56-.51,2.13,2.13,0,0,1,.37,0,1.52,1.52,0,0,1,.32.06l0,1.11a2.39,2.39,0,0,0-.79-.12,2.06,2.06,0,0,0-1.25.35,2,2,0,0,0-.69.87,2.87,2.87,0,0,0-.22,1.12v4.31Z"/><path class="cls-9" d="M279.61,86.47a3.58,3.58,0,0,1-1.88-.48,3.26,3.26,0,0,1-1.25-1.35,5.11,5.11,0,0,1,0-4.15,3.26,3.26,0,0,1,1.25-1.37,3.92,3.92,0,0,1,3.76,0,3.26,3.26,0,0,1,1.25,1.37,5.11,5.11,0,0,1,0,4.15A3.26,3.26,0,0,1,281.49,86,3.58,3.58,0,0,1,279.61,86.47Zm0-1a2.12,2.12,0,0,0,1.72-.74,3.4,3.4,0,0,0,.6-2.17,3.32,3.32,0,0,0-.61-2.15,2.09,2.09,0,0,0-1.71-.75,2.12,2.12,0,0,0-1.72.75,4.1,4.1,0,0,0,0,4.32A2.11,2.11,0,0,0,279.61,85.47Z"/><path class="cls-9" d="M284,79.78v-1h4.53v1Zm4.74-3.34a2.85,2.85,0,0,0-.78-.12,1.67,1.67,0,0,0-.65.12.94.94,0,0,0-.46.46,2.1,2.1,0,0,0-.17.92v8.55h-1.21v-8.7a2.45,2.45,0,0,1,.6-1.81,2.27,2.27,0,0,1,1.65-.59,4.36,4.36,0,0,1,.51,0,3.06,3.06,0,0,1,.51.1Z"/><path class="cls-9" d="M294,89.61V80.94c0-.35,0-.71,0-1.06a9.28,9.28,0,0,0-.1-1.06h1.16l.13,1.56-.12.23a2.54,2.54,0,0,1,1-1.46,2.93,2.93,0,0,1,1.74-.51,3.15,3.15,0,0,1,1.75.5,3.33,3.33,0,0,1,1.18,1.38,5.17,5.17,0,0,1,0,4.13A3.18,3.18,0,0,1,299.54,86a3.25,3.25,0,0,1-1.75.47,2.93,2.93,0,0,1-1.74-.51,2.51,2.51,0,0,1-1-1.45l.17-.15v5.25Zm3.54-4.14a2.09,2.09,0,0,0,1.71-.75,3.28,3.28,0,0,0,.62-2.13,3.36,3.36,0,0,0-.62-2.15,2.3,2.3,0,0,0-3.43,0,4.15,4.15,0,0,0,0,4.3A2,2,0,0,0,297.56,85.47Z"/><path class="cls-9" d="M302.9,75.63h1.49V77H302.9ZM303,86.37V78.82h1.22v7.55Z"/><path class="cls-9" d="M306.59,86.37V80.94c0-.35,0-.71,0-1.06a9.28,9.28,0,0,0-.1-1.06h1.16l.13,1.56-.15.12a2.61,2.61,0,0,1,1.05-1.39,3.12,3.12,0,0,1,1.7-.47c1.81,0,2.71,1,2.71,3v4.74h-1.21V81.69a2.34,2.34,0,0,0-.42-1.54,1.67,1.67,0,0,0-1.32-.49,2.24,2.24,0,0,0-1.68.65,2.38,2.38,0,0,0-.63,1.74v4.32Z"/><path class="cls-9" d="M317.92,86.47a4.42,4.42,0,0,1-3-1l.41-.9a4.11,4.11,0,0,0,1.24.68,4.17,4.17,0,0,0,1.41.22,2.41,2.41,0,0,0,1.3-.29,1,1,0,0,0,.44-.85.89.89,0,0,0-.3-.71,2.3,2.3,0,0,0-1-.43l-1.27-.3a2.78,2.78,0,0,1-1.46-.75,1.78,1.78,0,0,1-.52-1.29,1.93,1.93,0,0,1,.36-1.16,2.34,2.34,0,0,1,1-.79,3.76,3.76,0,0,1,1.53-.29,4.38,4.38,0,0,1,1.5.26,3.19,3.19,0,0,1,1.19.73l-.41.89a4,4,0,0,0-1.1-.67,3.34,3.34,0,0,0-1.18-.22,2.14,2.14,0,0,0-1.25.32,1,1,0,0,0-.44.85,1,1,0,0,0,.28.74,1.89,1.89,0,0,0,.89.42l1.27.31a3,3,0,0,1,1.57.75,1.77,1.77,0,0,1,.5,1.31,1.84,1.84,0,0,1-.79,1.56A3.57,3.57,0,0,1,317.92,86.47Z"/></g><g class="cls-10"><rect class="cls-9" x="326.72" y="73.87" width="35.27" height="16" rx="4"/></g><g class="cls-4"><path class="cls-5" d="M333,86.37v-.93l3.74-4.14a7.46,7.46,0,0,0,1.09-1.52,3,3,0,0,0,.35-1.35,1.77,1.77,0,0,0-.51-1.36,2.1,2.1,0,0,0-1.46-.47,4.1,4.1,0,0,0-1.53.31,6.07,6.07,0,0,0-1.5.92l-.46-.94a4.63,4.63,0,0,1,1.59-1,5.45,5.45,0,0,1,1.93-.36,4,4,0,0,1,1.69.33,2.6,2.6,0,0,1,1.1,1,2.79,2.79,0,0,1,.39,1.5,4.1,4.1,0,0,1-.41,1.77A8.62,8.62,0,0,1,337.6,82l-3.6,3.9-.09-.6h5.92v1Z"/></g><g class="cls-4"><path class="cls-9" d="M198.52,114.61v-8.67c0-.35,0-.71,0-1.06s-.05-.71-.1-1.06h1.16l.13,1.56-.12.23a2.54,2.54,0,0,1,1-1.46,2.93,2.93,0,0,1,1.74-.51,3.09,3.09,0,0,1,1.74.5,3.35,3.35,0,0,1,1.19,1.38,5.17,5.17,0,0,1,0,4.13,3.1,3.1,0,0,1-2.93,1.82,2.93,2.93,0,0,1-1.74-.51,2.51,2.51,0,0,1-1-1.45l.17-.15v5.25Zm3.54-4.14a2.09,2.09,0,0,0,1.71-.75,3.28,3.28,0,0,0,.62-2.13,3.36,3.36,0,0,0-.62-2.15,2.3,2.3,0,0,0-3.43,0,4.15,4.15,0,0,0,0,4.3A2,2,0,0,0,202.06,110.47Z"/><path class="cls-9" d="M207.4,100.63h1.49V102H207.4Zm.12,10.74v-7.55h1.22v7.55Z"/><path class="cls-9" d="M211.09,111.37v-5.43c0-.35,0-.71,0-1.06s0-.71-.1-1.06h1.16l.13,1.56-.15.12a2.61,2.61,0,0,1,1-1.39,3.12,3.12,0,0,1,1.7-.47c1.81,0,2.71,1,2.71,3v4.74h-1.21v-4.68a2.34,2.34,0,0,0-.42-1.54,1.67,1.67,0,0,0-1.32-.49,2.24,2.24,0,0,0-1.68.65,2.38,2.38,0,0,0-.63,1.74v4.32Z"/><path class="cls-9" d="M220.62,111.37v-1h5.95v1Zm2.35-.56v-9.4l.71.36-2.9,1.84v-1.18l2.73-1.74h.71v10.12Z"/><path class="cls-9" d="M232.13,108.61v-.89h7.75v.89Zm.31-4.4v-.88h7.73v.88Zm.5,7.16L235,100.69h1l-2.09,10.68Zm3.38,0,2.08-10.68h1l-2.08,10.68Z"/></g><g class="cls-10"><rect class="cls-9" x="242.9" y="98.87" width="35.27" height="16" rx="4"/></g><g class="cls-4"><path class="cls-5" d="M249.82,111.37v-1h6v1Zm2.36-.56v-9.4l.7.36L250,103.61v-1.18l2.73-1.74h.7v10.12Z"/></g><g class="cls-4"><path class="cls-9" d="M282.34,114.61v-8.67c0-.35,0-.71,0-1.06a9.28,9.28,0,0,0-.09-1.06h1.15l.14,1.56-.12.23a2.52,2.52,0,0,1,1-1.46,2.93,2.93,0,0,1,1.74-.51,3.15,3.15,0,0,1,1.75.5,3.33,3.33,0,0,1,1.18,1.38,5.17,5.17,0,0,1,0,4.13,3.16,3.16,0,0,1-1.17,1.35,3.28,3.28,0,0,1-1.76.47,2.93,2.93,0,0,1-1.74-.51,2.5,2.5,0,0,1-1-1.45l.16-.15v5.25Zm3.54-4.14a2.09,2.09,0,0,0,1.71-.75,3.28,3.28,0,0,0,.61-2.13,3.36,3.36,0,0,0-.61-2.15,2.06,2.06,0,0,0-1.71-.78,2.09,2.09,0,0,0-1.73.75,4.15,4.15,0,0,0,0,4.3A2.07,2.07,0,0,0,285.88,110.47Z"/><path class="cls-9" d="M291.22,100.63h1.48V102h-1.48Zm.12,10.74v-7.55h1.21v7.55Z"/><path class="cls-9" d="M294.91,111.37v-5.43c0-.35,0-.71,0-1.06a9.28,9.28,0,0,0-.09-1.06h1.15l.14,1.56-.15.12a2.61,2.61,0,0,1,1.05-1.39,3.09,3.09,0,0,1,1.69-.47c1.81,0,2.72,1,2.72,3v4.74h-1.22v-4.68a2.34,2.34,0,0,0-.42-1.54,1.67,1.67,0,0,0-1.32-.49,2.24,2.24,0,0,0-1.68.65,2.38,2.38,0,0,0-.63,1.74v4.32Z"/><path class="cls-9" d="M303.76,111.37v-.93l3.73-4.14a7.56,7.56,0,0,0,1.1-1.52,2.94,2.94,0,0,0,.34-1.35,1.77,1.77,0,0,0-.51-1.36,2.07,2.07,0,0,0-1.45-.47,4.1,4.1,0,0,0-1.53.31,6.07,6.07,0,0,0-1.5.92l-.47-.94a4.63,4.63,0,0,1,1.59-1,5.5,5.5,0,0,1,1.94-.36,3.93,3.93,0,0,1,1.68.33,2.57,2.57,0,0,1,1.11,1,2.79,2.79,0,0,1,.39,1.5,4,4,0,0,1-.42,1.77,8.3,8.3,0,0,1-1.37,1.89l-3.6,3.9-.09-.6h5.93v1Z"/><path class="cls-9" d="M316,108.61v-.89h7.74v.89Zm.3-4.4v-.88H324v.88Zm.51,7.16,2.09-10.68h1l-2.09,10.68Zm3.38,0,2.08-10.68h1l-2.08,10.68Z"/></g><g class="cls-10"><rect class="cls-9" x="326.72" y="98.87" width="35.27" height="16" rx="4"/></g><g class="cls-4"><path class="cls-5" d="M333,111.37v-.93l3.74-4.14a7.46,7.46,0,0,0,1.09-1.52,3,3,0,0,0,.35-1.35,1.77,1.77,0,0,0-.51-1.36,2.1,2.1,0,0,0-1.46-.47,4.1,4.1,0,0,0-1.53.31,6.07,6.07,0,0,0-1.5.92l-.46-.94a4.63,4.63,0,0,1,1.59-1,5.45,5.45,0,0,1,1.93-.36,4,4,0,0,1,1.69.33,2.6,2.6,0,0,1,1.1,1,2.79,2.79,0,0,1,.39,1.5,4.1,4.1,0,0,1-.41,1.77A8.62,8.62,0,0,1,337.6,107l-3.6,3.9-.09-.6h5.92v1Z"/></g><g class="cls-4"><path class="cls-9" d="M150,136.37v-11h1.22v5l-.2.15a2.61,2.61,0,0,1,1-1.39,3.12,3.12,0,0,1,1.7-.47c1.81,0,2.71,1,2.71,3v4.74h-1.21v-4.68a2.34,2.34,0,0,0-.42-1.54,1.67,1.67,0,0,0-1.32-.49,2.24,2.24,0,0,0-1.68.65,2.38,2.38,0,0,0-.63,1.74v4.32Z"/><path class="cls-9" d="M161.87,136.47A3.64,3.64,0,0,1,160,136a3.24,3.24,0,0,1-1.24-1.35,5.11,5.11,0,0,1,0-4.15,3.24,3.24,0,0,1,1.24-1.37,3.64,3.64,0,0,1,1.89-.48,3.6,3.6,0,0,1,1.88.48,3.24,3.24,0,0,1,1.24,1.37,5,5,0,0,1,0,4.15,3.24,3.24,0,0,1-1.24,1.35A3.6,3.6,0,0,1,161.87,136.47Zm0-1a2.08,2.08,0,0,0,1.71-.74,4.13,4.13,0,0,0,0-4.32,2.34,2.34,0,0,0-3.43,0,3.26,3.26,0,0,0-.62,2.15,3.4,3.4,0,0,0,.6,2.17A2.15,2.15,0,0,0,161.87,135.47Z"/><path class="cls-9" d="M169.26,136.37l-2.79-7.55h1.28l2.32,6.65h-.39l2.4-6.65h1.07l2.37,6.65h-.39l2.37-6.65h1.2l-2.79,7.55h-1.17l-2.49-6.8h.66l-2.48,6.8Z"/><path class="cls-9" d="M184.19,136.37v-5.43c0-.35,0-.71,0-1.06a9.28,9.28,0,0,0-.09-1.06h1.15l.14,1.56-.15.11a2.56,2.56,0,0,1,.93-1.37,2.67,2.67,0,0,1,1.59-.48,2.48,2.48,0,0,1,1.7.54,2.67,2.67,0,0,1,.77,1.65l-.36-.19a2.56,2.56,0,0,1,1-1.46,2.85,2.85,0,0,1,1.75-.54,2.3,2.3,0,0,1,1.87.75,3.38,3.38,0,0,1,.63,2.24v4.74h-1.21v-4.68a2.54,2.54,0,0,0-.38-1.54,1.41,1.41,0,0,0-1.18-.49,1.88,1.88,0,0,0-1.5.65,2.63,2.63,0,0,0-.54,1.75v4.31H189v-4.68a2.54,2.54,0,0,0-.38-1.54,1.44,1.44,0,0,0-1.19-.49,1.87,1.87,0,0,0-1.51.65,2.59,2.59,0,0,0-.55,1.75v4.31Z"/><path class="cls-9" d="M200.27,136.47a3.34,3.34,0,0,1-1.77-.47,3.16,3.16,0,0,1-1.17-1.35,4.88,4.88,0,0,1-.41-2.06,4.78,4.78,0,0,1,.42-2.07,3.26,3.26,0,0,1,1.18-1.38,3.12,3.12,0,0,1,1.75-.5,2.94,2.94,0,0,1,1.75.51,2.54,2.54,0,0,1,1,1.46l-.18.12v-1.91H204v7.55h-1.2v-2l.18.09a2.51,2.51,0,0,1-1,1.45A2.94,2.94,0,0,1,200.27,136.47Zm.24-1a2,2,0,0,0,1.71-.76,4.12,4.12,0,0,0,0-4.3,2.08,2.08,0,0,0-1.7-.75,2.11,2.11,0,0,0-1.74.78,3.36,3.36,0,0,0-.62,2.15,3.28,3.28,0,0,0,.62,2.13A2.15,2.15,0,0,0,200.51,135.47Z"/><path class="cls-9" d="M206.37,136.37v-5.43c0-.35,0-.71,0-1.06s0-.71-.1-1.06h1.16l.13,1.56-.15.12a2.61,2.61,0,0,1,1.05-1.39,3.12,3.12,0,0,1,1.7-.47c1.8,0,2.71,1,2.71,3v4.74h-1.21v-4.68a2.34,2.34,0,0,0-.42-1.54,1.67,1.67,0,0,0-1.32-.49,2.24,2.24,0,0,0-1.68.65,2.38,2.38,0,0,0-.63,1.74v4.32Z"/><path class="cls-9" d="M217.55,136.76l-3.39-7.94h1.27l2.73,6.66Zm-2.76,3-.26-.94a5.8,5.8,0,0,0,1.16-.39,2.45,2.45,0,0,0,.8-.56,3.15,3.15,0,0,0,.56-.91l.48-1.11.27-.38,2.76-6.66h1.22l-3.53,8.24a5.55,5.55,0,0,1-.91,1.46,3.51,3.51,0,0,1-1.15.83A6,6,0,0,1,214.79,139.77Z"/><path class="cls-9" d="M229.57,136.47a4.39,4.39,0,0,1-3-1l.4-.9a4.23,4.23,0,0,0,1.24.68,4.27,4.27,0,0,0,1.42.22,2.43,2.43,0,0,0,1.3-.29,1,1,0,0,0,.44-.85.89.89,0,0,0-.3-.71,2.3,2.3,0,0,0-1-.43l-1.28-.3a2.82,2.82,0,0,1-1.46-.75,1.82,1.82,0,0,1-.52-1.29,1.93,1.93,0,0,1,.36-1.16,2.37,2.37,0,0,1,1-.79,3.76,3.76,0,0,1,1.53-.29,4.38,4.38,0,0,1,1.5.26,3.14,3.14,0,0,1,1.18.73l-.4.89a4.17,4.17,0,0,0-1.1-.67,3.38,3.38,0,0,0-1.18-.22,2.12,2.12,0,0,0-1.25.32,1,1,0,0,0-.45.85,1,1,0,0,0,.28.74,1.94,1.94,0,0,0,.89.42l1.28.31A3,3,0,0,1,232,133a1.81,1.81,0,0,1,.5,1.31,1.85,1.85,0,0,1-.8,1.56A3.57,3.57,0,0,1,229.57,136.47Z"/><path class="cls-9" d="M233.32,129.78v-1h4.85v1Zm4.82,5.51v1l-.5.12a4.68,4.68,0,0,1-.55,0,2.29,2.29,0,0,1-1.67-.6,2.37,2.37,0,0,1-.62-1.8v-7.18l1.21-.44v7.46a2.11,2.11,0,0,0,.17.93,1,1,0,0,0,.47.46,1.83,1.83,0,0,0,.68.12,2.41,2.41,0,0,0,.4,0A2.69,2.69,0,0,0,238.14,135.29Z"/><path class="cls-9" d="M245.82,135.47a3.48,3.48,0,0,1-1.27.73,4.73,4.73,0,0,1-1.58.27,4.16,4.16,0,0,1-2-.46,3.17,3.17,0,0,1-1.3-1.34,5,5,0,0,1,0-4.15,3.41,3.41,0,0,1,1.25-1.38,3.46,3.46,0,0,1,1.85-.5,3.21,3.21,0,0,1,1.73.45,2.77,2.77,0,0,1,1.1,1.26,4.6,4.6,0,0,1,.38,2v.23h-5.7v-.8h5l-.39.56a3.17,3.17,0,0,0-.51-2,1.91,1.91,0,0,0-1.6-.7,2.11,2.11,0,0,0-1.72.77,3.36,3.36,0,0,0-.62,2.14,3.32,3.32,0,0,0,.65,2.22,2.4,2.4,0,0,0,1.91.75,3.61,3.61,0,0,0,1.27-.22,4,4,0,0,0,1.16-.67Z"/><path class="cls-9" d="M247.8,139.61v-8.67c0-.35,0-.71,0-1.06s-.05-.71-.1-1.06h1.15l.14,1.56-.12.23a2.52,2.52,0,0,1,1-1.46,2.93,2.93,0,0,1,1.74-.51,3.12,3.12,0,0,1,1.75.5,3.35,3.35,0,0,1,1.19,1.38,5.29,5.29,0,0,1,0,4.13,3.1,3.1,0,0,1-2.94,1.82,2.93,2.93,0,0,1-1.74-.51,2.5,2.5,0,0,1-1-1.45l.16-.15v5.25Zm3.54-4.14a2.09,2.09,0,0,0,1.71-.75,3.28,3.28,0,0,0,.61-2.13,3.36,3.36,0,0,0-.61-2.15,2.06,2.06,0,0,0-1.71-.78,2.09,2.09,0,0,0-1.73.75,4.15,4.15,0,0,0,0,4.3A2.07,2.07,0,0,0,251.34,135.47Z"/><path class="cls-9" d="M259.35,136.47a4.42,4.42,0,0,1-3-1l.41-.9a4.11,4.11,0,0,0,1.24.68,4.17,4.17,0,0,0,1.41.22,2.41,2.41,0,0,0,1.3-.29,1,1,0,0,0,.44-.85.89.89,0,0,0-.3-.71,2.3,2.3,0,0,0-1-.43l-1.27-.3a2.78,2.78,0,0,1-1.46-.75,1.78,1.78,0,0,1-.52-1.29,1.93,1.93,0,0,1,.36-1.16,2.34,2.34,0,0,1,1-.79,3.76,3.76,0,0,1,1.53-.29,4.38,4.38,0,0,1,1.5.26,3.19,3.19,0,0,1,1.19.73l-.41.89a4,4,0,0,0-1.1-.67,3.34,3.34,0,0,0-1.18-.22,2.14,2.14,0,0,0-1.25.32,1,1,0,0,0-.44.85,1,1,0,0,0,.28.74,1.89,1.89,0,0,0,.89.42l1.27.31a3,3,0,0,1,1.57.75,1.77,1.77,0,0,1,.5,1.31,1.84,1.84,0,0,1-.79,1.56A3.57,3.57,0,0,1,259.35,136.47Z"/><path class="cls-9" d="M268.15,139.61v-8.67c0-.35,0-.71,0-1.06a9.28,9.28,0,0,0-.1-1.06h1.16l.13,1.56-.12.23a2.54,2.54,0,0,1,1-1.46,2.93,2.93,0,0,1,1.74-.51,3.15,3.15,0,0,1,1.75.5,3.33,3.33,0,0,1,1.18,1.38,5.17,5.17,0,0,1,0,4.13,3.18,3.18,0,0,1-1.18,1.35,3.25,3.25,0,0,1-1.75.47,2.93,2.93,0,0,1-1.74-.51,2.51,2.51,0,0,1-1-1.45l.17-.15v5.25Zm3.54-4.14a2.09,2.09,0,0,0,1.71-.75,3.28,3.28,0,0,0,.62-2.13,3.36,3.36,0,0,0-.62-2.15,2.3,2.3,0,0,0-3.43,0,4.15,4.15,0,0,0,0,4.3A2,2,0,0,0,271.69,135.47Z"/><path class="cls-9" d="M283.33,135.47a3.52,3.52,0,0,1-1.26.73,4.83,4.83,0,0,1-1.59.27,4.09,4.09,0,0,1-2-.46,3.19,3.19,0,0,1-1.31-1.34,4.58,4.58,0,0,1-.46-2.1,4.45,4.45,0,0,1,.45-2,3.37,3.37,0,0,1,1.26-1.38,3.44,3.44,0,0,1,1.85-.5,3.17,3.17,0,0,1,1.72.45,2.85,2.85,0,0,1,1.11,1.26,4.76,4.76,0,0,1,.38,2v.23h-5.7v-.8h5l-.39.56a3.11,3.11,0,0,0-.52-2,1.9,1.9,0,0,0-1.6-.7,2.08,2.08,0,0,0-1.71.77,3.31,3.31,0,0,0-.63,2.14,3.27,3.27,0,0,0,.66,2.22,2.39,2.39,0,0,0,1.91.75,3.65,3.65,0,0,0,1.27-.22,4.15,4.15,0,0,0,1.16-.67Z"/><path class="cls-9" d="M285.31,136.37v-5.43c0-.35,0-.71,0-1.06a9.28,9.28,0,0,0-.1-1.06h1.16l.16,1.86-.16,0a2.32,2.32,0,0,1,.91-1.49,2.56,2.56,0,0,1,1.56-.51,2.13,2.13,0,0,1,.37,0,1.52,1.52,0,0,1,.32.06l0,1.11a2.39,2.39,0,0,0-.79-.12,2.06,2.06,0,0,0-1.25.35,2,2,0,0,0-.69.87,2.87,2.87,0,0,0-.22,1.12v4.31Z"/><path class="cls-9" d="M294.66,136.37v-5.43c0-.35,0-.71,0-1.06s-.05-.71-.1-1.06h1.15l.17,1.86-.17,0a2.36,2.36,0,0,1,.91-1.49,2.61,2.61,0,0,1,1.57-.51,2.22,2.22,0,0,1,.37,0,1.65,1.65,0,0,1,.32.06l0,1.11a2.45,2.45,0,0,0-.8-.12,2,2,0,0,0-1.94,1.22,3.06,3.06,0,0,0-.22,1.12v4.31Z"/><path class="cls-9" d="M306.12,135.47a3.48,3.48,0,0,1-1.27.73,4.73,4.73,0,0,1-1.58.27,4.16,4.16,0,0,1-2-.46,3.17,3.17,0,0,1-1.3-1.34,5,5,0,0,1,0-4.15,3.41,3.41,0,0,1,1.25-1.38,3.46,3.46,0,0,1,1.85-.5,3.21,3.21,0,0,1,1.73.45,2.77,2.77,0,0,1,1.1,1.26,4.6,4.6,0,0,1,.38,2v.23h-5.7v-.8h5l-.39.56a3.17,3.17,0,0,0-.51-2,1.91,1.91,0,0,0-1.6-.7,2.11,2.11,0,0,0-1.72.77,3.36,3.36,0,0,0-.62,2.14,3.32,3.32,0,0,0,.65,2.22,2.4,2.4,0,0,0,1.91.75,3.61,3.61,0,0,0,1.27-.22,4,4,0,0,0,1.16-.67Z"/><path class="cls-9" d="M310.23,136.37,307,128.84h1.27l2.73,6.64h-.36l2.76-6.64h1.22l-3.26,7.53Z"/><path class="cls-9" d="M319,136.47a3.6,3.6,0,0,1-1.88-.48,3.24,3.24,0,0,1-1.24-1.35,5,5,0,0,1,0-4.15,3.24,3.24,0,0,1,1.24-1.37,3.6,3.6,0,0,1,1.88-.48,3.64,3.64,0,0,1,1.89.48,3.24,3.24,0,0,1,1.24,1.37,5.11,5.11,0,0,1,0,4.15,3.24,3.24,0,0,1-1.24,1.35A3.64,3.64,0,0,1,319,136.47Zm0-1a2.11,2.11,0,0,0,1.72-.74,4.1,4.1,0,0,0,0-4.32,2.32,2.32,0,0,0-3.42,0,3.26,3.26,0,0,0-.63,2.15,3.4,3.4,0,0,0,.61,2.17A2.13,2.13,0,0,0,319,135.47Z"/><path class="cls-9" d="M324.46,136.37v-11h1.22v11Z"/><path class="cls-9" d="M330.7,136.47a2.61,2.61,0,0,1-2-.75,3.22,3.22,0,0,1-.68-2.22v-4.68h1.21v4.65a2.24,2.24,0,0,0,.42,1.5,1.62,1.62,0,0,0,1.28.48,2.13,2.13,0,0,0,1.62-.64,2.41,2.41,0,0,0,.61-1.73v-4.26h1.22v7.55h-1.19v-1.64l.18-.09a2.5,2.5,0,0,1-1,1.37A2.9,2.9,0,0,1,330.7,136.47Z"/><path class="cls-9" d="M335.62,129.78v-1h4.85v1Zm4.82,5.51v1l-.5.12a4.68,4.68,0,0,1-.55,0,2.33,2.33,0,0,1-1.68-.6,2.41,2.41,0,0,1-.62-1.8v-7.18l1.22-.44v7.46a2.11,2.11,0,0,0,.17.93,1,1,0,0,0,.47.46,1.83,1.83,0,0,0,.68.12,2.41,2.41,0,0,0,.4,0A2.69,2.69,0,0,0,340.44,135.29Z"/><path class="cls-9" d="M341.82,125.63h1.48V127h-1.48Zm.12,10.74v-7.55h1.21v7.55Z"/><path class="cls-9" d="M348.63,136.47a3.58,3.58,0,0,1-1.88-.48,3.26,3.26,0,0,1-1.25-1.35,5.11,5.11,0,0,1,0-4.15,3.26,3.26,0,0,1,1.25-1.37,3.92,3.92,0,0,1,3.76,0,3.17,3.17,0,0,1,1.24,1.37,5,5,0,0,1,0,4.15,3.18,3.18,0,0,1-1.24,1.35A3.6,3.6,0,0,1,348.63,136.47Zm0-1a2.08,2.08,0,0,0,1.71-.74,4.13,4.13,0,0,0,0-4.32,2.34,2.34,0,0,0-3.43,0,3.26,3.26,0,0,0-.62,2.15,3.34,3.34,0,0,0,.61,2.17A2.11,2.11,0,0,0,348.63,135.47Z"/><path class="cls-9" d="M354.09,136.37v-5.43c0-.35,0-.71,0-1.06s-.05-.71-.1-1.06h1.15l.14,1.56-.15.12a2.61,2.61,0,0,1,1.05-1.39,3.09,3.09,0,0,1,1.69-.47c1.81,0,2.72,1,2.72,3v4.74h-1.22v-4.68a2.34,2.34,0,0,0-.42-1.54,1.67,1.67,0,0,0-1.32-.49,2.24,2.24,0,0,0-1.68.65,2.38,2.38,0,0,0-.63,1.74v4.32Z"/></g><g class="cls-4"><path class="cls-9" d="M238.2,162.47a4.39,4.39,0,0,1-3-1l.4-.9a4.23,4.23,0,0,0,1.24.68,4.27,4.27,0,0,0,1.42.22,2.43,2.43,0,0,0,1.3-.29,1,1,0,0,0,.44-.85.89.89,0,0,0-.3-.71,2.3,2.3,0,0,0-1-.43l-1.28-.3a2.82,2.82,0,0,1-1.46-.75,1.82,1.82,0,0,1-.52-1.29,1.93,1.93,0,0,1,.36-1.16,2.37,2.37,0,0,1,1-.79,3.76,3.76,0,0,1,1.53-.29,4.38,4.38,0,0,1,1.5.26,3.14,3.14,0,0,1,1.18.73l-.4.89a4.17,4.17,0,0,0-1.1-.67,3.38,3.38,0,0,0-1.18-.22,2.12,2.12,0,0,0-1.25.32,1,1,0,0,0-.45.85,1,1,0,0,0,.28.74,1.94,1.94,0,0,0,.89.42l1.28.31a3,3,0,0,1,1.57.75,1.81,1.81,0,0,1,.5,1.31,1.85,1.85,0,0,1-.8,1.56A3.57,3.57,0,0,1,238.2,162.47Z"/><path class="cls-9" d="M249.27,161.47a3.52,3.52,0,0,1-1.26.73,4.83,4.83,0,0,1-1.59.27,4.09,4.09,0,0,1-2-.46,3.19,3.19,0,0,1-1.31-1.34,4.58,4.58,0,0,1-.46-2.1,4.45,4.45,0,0,1,.45-2,3.37,3.37,0,0,1,1.26-1.38,3.44,3.44,0,0,1,1.85-.5,3.17,3.17,0,0,1,1.72.45,2.85,2.85,0,0,1,1.11,1.26,4.76,4.76,0,0,1,.38,2v.23h-5.7v-.8h5l-.39.56a3.11,3.11,0,0,0-.52-2,1.9,1.9,0,0,0-1.6-.7,2.08,2.08,0,0,0-1.71.77,3.31,3.31,0,0,0-.63,2.14,3.27,3.27,0,0,0,.66,2.22,2.39,2.39,0,0,0,1.91.75,3.65,3.65,0,0,0,1.27-.22,4.15,4.15,0,0,0,1.16-.67Z"/><path class="cls-9" d="M250.14,155.78v-1H255v1Zm4.82,5.51v1l-.5.12a4.68,4.68,0,0,1-.55,0,2.29,2.29,0,0,1-1.67-.6,2.37,2.37,0,0,1-.63-1.8v-7.18l1.22-.44v7.46a2.11,2.11,0,0,0,.17.93,1,1,0,0,0,.47.46,1.83,1.83,0,0,0,.68.12,2.41,2.41,0,0,0,.4,0A2.69,2.69,0,0,0,255,161.29Z"/><path class="cls-9" d="M262.92,162.47a4.39,4.39,0,0,1-3-1l.4-.9a4.23,4.23,0,0,0,1.24.68,4.27,4.27,0,0,0,1.42.22,2.43,2.43,0,0,0,1.3-.29,1,1,0,0,0,.44-.85.89.89,0,0,0-.3-.71,2.3,2.3,0,0,0-1-.43l-1.28-.3a2.82,2.82,0,0,1-1.46-.75,1.82,1.82,0,0,1-.52-1.29,1.93,1.93,0,0,1,.36-1.16,2.37,2.37,0,0,1,1-.79,3.76,3.76,0,0,1,1.53-.29,4.38,4.38,0,0,1,1.5.26,3.14,3.14,0,0,1,1.18.73l-.4.89a4.17,4.17,0,0,0-1.1-.67,3.38,3.38,0,0,0-1.18-.22,2.12,2.12,0,0,0-1.25.32,1,1,0,0,0-.45.85,1,1,0,0,0,.28.74,1.94,1.94,0,0,0,.89.42l1.28.31a3,3,0,0,1,1.57.75,1.81,1.81,0,0,1,.5,1.31,1.85,1.85,0,0,1-.8,1.56A3.57,3.57,0,0,1,262.92,162.47Z"/><path class="cls-9" d="M267.81,165.61v-8.67c0-.35,0-.71,0-1.06a9.28,9.28,0,0,0-.1-1.06h1.16l.13,1.56-.12.23a2.54,2.54,0,0,1,1-1.46,2.93,2.93,0,0,1,1.74-.51,3.15,3.15,0,0,1,1.75.5,3.33,3.33,0,0,1,1.18,1.38,5.17,5.17,0,0,1,0,4.13,3.18,3.18,0,0,1-1.18,1.35,3.25,3.25,0,0,1-1.75.47,2.93,2.93,0,0,1-1.74-.51,2.51,2.51,0,0,1-1-1.45l.17-.15v5.25Zm3.54-4.14a2.09,2.09,0,0,0,1.71-.75,3.28,3.28,0,0,0,.62-2.13,3.36,3.36,0,0,0-.62-2.15,2.3,2.3,0,0,0-3.43,0,4.15,4.15,0,0,0,0,4.3A2,2,0,0,0,271.35,161.47Z"/><path class="cls-9" d="M283,161.47a3.52,3.52,0,0,1-1.26.73,4.83,4.83,0,0,1-1.59.27,4.09,4.09,0,0,1-2-.46,3.19,3.19,0,0,1-1.31-1.34,4.58,4.58,0,0,1-.46-2.1,4.45,4.45,0,0,1,.45-2,3.37,3.37,0,0,1,1.26-1.38,3.44,3.44,0,0,1,1.85-.5,3.17,3.17,0,0,1,1.72.45,2.85,2.85,0,0,1,1.11,1.26,4.76,4.76,0,0,1,.38,2v.23h-5.7v-.8h5l-.39.56a3.11,3.11,0,0,0-.52-2,1.9,1.9,0,0,0-1.6-.7,2.11,2.11,0,0,0-1.72.77,3.36,3.36,0,0,0-.62,2.14,3.27,3.27,0,0,0,.66,2.22,2.39,2.39,0,0,0,1.91.75,3.65,3.65,0,0,0,1.27-.22,4.15,4.15,0,0,0,1.16-.67Z"/><path class="cls-9" d="M291.15,161.47a3.48,3.48,0,0,1-1.27.73,4.73,4.73,0,0,1-1.58.27,4.16,4.16,0,0,1-2-.46,3.17,3.17,0,0,1-1.3-1.34,5,5,0,0,1,0-4.15,3.41,3.41,0,0,1,1.25-1.38,3.5,3.5,0,0,1,1.86-.5,3.17,3.17,0,0,1,1.72.45,2.77,2.77,0,0,1,1.1,1.26,4.6,4.6,0,0,1,.39,2v.23h-5.7v-.8h5l-.39.56a3.17,3.17,0,0,0-.52-2,1.91,1.91,0,0,0-1.6-.7,2.11,2.11,0,0,0-1.72.77,3.36,3.36,0,0,0-.62,2.14,3.32,3.32,0,0,0,.65,2.22,2.42,2.42,0,0,0,1.92.75,3.65,3.65,0,0,0,1.27-.22,4.15,4.15,0,0,0,1.16-.67Z"/><path class="cls-9" d="M299.78,162.37h-1.2v-2l.18.17a2.51,2.51,0,0,1-1,1.45,2.94,2.94,0,0,1-1.75.51,3.12,3.12,0,0,1-1.75-.49,3.21,3.21,0,0,1-1.18-1.38,4.78,4.78,0,0,1-.42-2.07,4.85,4.85,0,0,1,.41-2.06,3.13,3.13,0,0,1,2.94-1.83,2.88,2.88,0,0,1,1.75.52,2.58,2.58,0,0,1,1,1.45l-.2.15v-5.43h1.22Zm-3.51-.9a2,2,0,0,0,1.7-.76,3.32,3.32,0,0,0,.61-2.15,3.38,3.38,0,0,0-.6-2.14,2.07,2.07,0,0,0-1.71-.76,2.15,2.15,0,0,0-1.74.75,3.27,3.27,0,0,0-.62,2.12,3.37,3.37,0,0,0,.62,2.16A2.11,2.11,0,0,0,296.27,161.47Z"/><path class="cls-9" d="M308.15,165.1a15.19,15.19,0,0,1-1-2.27,13,13,0,0,1-.55-2.21,14.42,14.42,0,0,1,0-4.48,14.82,14.82,0,0,1,.54-2.21,14.48,14.48,0,0,1,1-2.24h1a20.61,20.61,0,0,0-.88,2.46,14.68,14.68,0,0,0-.46,2.18,16.31,16.31,0,0,0,0,4.11,14.8,14.8,0,0,0,.46,2.19,21.59,21.59,0,0,0,.86,2.47Z"/><path class="cls-9" d="M311,162.37V151.69h4.25a4,4,0,0,1,2.64.76,2.7,2.7,0,0,1,.93,2.21,2.67,2.67,0,0,1-.94,2.16,4,4,0,0,1-2.63.79l1.11-.21a1.56,1.56,0,0,1,1,.33,2.15,2.15,0,0,1,.68,1l1.35,3.62H318l-1.32-3.56a1.49,1.49,0,0,0-.7-.89,2.57,2.57,0,0,0-1.17-.22h-2.67v4.67Zm1.22-5.69h2.92a2.82,2.82,0,0,0,1.85-.51,1.83,1.83,0,0,0,.61-1.5,1.8,1.8,0,0,0-.6-1.48,3,3,0,0,0-1.86-.48h-2.92Z"/><path class="cls-9" d="M321.35,162.37V151.69h4.26a3.82,3.82,0,0,1,2.57.79,3.06,3.06,0,0,1,0,4.38,3.76,3.76,0,0,1-2.56.81h-3v4.7Zm1.23-5.72h2.92a2.71,2.71,0,0,0,1.79-.51,1.85,1.85,0,0,0,.6-1.47,1.79,1.79,0,0,0-.6-1.45,2.71,2.71,0,0,0-1.79-.51h-2.92Z"/><path class="cls-9" d="M331.11,162.37V151.69h1l4.34,9.85h-.57l4.29-9.85h1v10.68h-1.14v-9.06l.46.06-3.93,9h-.87l-4-9,.5-.06v9.06Z"/><path class="cls-9" d="M344,165.1h-1a20,20,0,0,0,.87-2.47,16.11,16.11,0,0,0,.45-2.19,15.6,15.6,0,0,0-.45-6.29,20.45,20.45,0,0,0-.87-2.46h1a14.22,14.22,0,0,1,1.29,3.35,13.94,13.94,0,0,1,.4,3.34,15,15,0,0,1-.17,2.24,14,14,0,0,1-.55,2.21A15.19,15.19,0,0,1,344,165.1Z"/><path class="cls-9" d="M351.3,155.78v-1h4.85v1Zm4.82,5.51v1a4.7,4.7,0,0,1-.51.12,4.39,4.39,0,0,1-.54,0,2.33,2.33,0,0,1-1.68-.6,2.41,2.41,0,0,1-.62-1.8v-7.18l1.22-.44v7.46a2,2,0,0,0,.17.93,1,1,0,0,0,.47.46,1.83,1.83,0,0,0,.68.12,2.41,2.41,0,0,0,.4,0A2.69,2.69,0,0,0,356.12,161.29Z"/><path class="cls-9" d="M360.74,162.47a3.64,3.64,0,0,1-1.89-.48,3.24,3.24,0,0,1-1.24-1.35,5.11,5.11,0,0,1,0-4.15,3.24,3.24,0,0,1,1.24-1.37,3.64,3.64,0,0,1,1.89-.48,3.6,3.6,0,0,1,1.88.48,3.24,3.24,0,0,1,1.24,1.37,5,5,0,0,1,0,4.15,3.24,3.24,0,0,1-1.24,1.35A3.6,3.6,0,0,1,360.74,162.47Zm0-1a2.08,2.08,0,0,0,1.71-.74,4.13,4.13,0,0,0,0-4.32,2.34,2.34,0,0,0-3.43,0,3.26,3.26,0,0,0-.62,2.15,3.4,3.4,0,0,0,.6,2.17A2.15,2.15,0,0,0,360.74,161.47Z"/></g><path class="cls-11" d="M377,119.87h46.4v25H377v-5c0-10-8,8-8-7.5s8,2.5,8-7.5Z"/><path class="cls-12" d="M376,118.87h46.4v25H376v-5c0-10-8,8-8-7.5s8,2.5,8-7.5Z"/><path class="cls-13" d="M377,143.37h-1v-6h1ZM368.64,137a20.94,20.94,0,0,1,0-11.27l1,.27a19.75,19.75,0,0,0,0,10.73ZM377,126.87h-1v-8h45.9v1H377Z"/><g class="cls-10"><rect class="cls-9" x="380.98" y="123.87" width="36.4" height="16" rx="4"/></g><g class="cls-4"><path class="cls-5" d="M387.9,136.37v-1h6v1Zm2.36-.56v-9.4l.7.36-2.89,1.84v-1.18l2.73-1.74h.7v10.12Z"/><path class="cls-5" d="M399.48,136.49a3.18,3.18,0,0,1-2.78-1.39,9.24,9.24,0,0,1,0-8.14,3.5,3.5,0,0,1,5.58,0,7.17,7.17,0,0,1,1,4,7.28,7.28,0,0,1-1,4.08A3.18,3.18,0,0,1,399.48,136.49Zm0-1a2,2,0,0,0,1.89-1.08A7.19,7.19,0,0,0,402,131a7,7,0,0,0-.6-3.33,2.21,2.21,0,0,0-3.77,0A7,7,0,0,0,397,131a7.17,7.17,0,0,0,.61,3.36A2,2,0,0,0,399.48,135.45Z"/><path class="cls-5" d="M408.48,136.49a3.18,3.18,0,0,1-2.78-1.39,9.24,9.24,0,0,1,0-8.14,3.5,3.5,0,0,1,5.58,0,7.17,7.17,0,0,1,1,4,7.28,7.28,0,0,1-1,4.08A3.18,3.18,0,0,1,408.48,136.49Zm0-1a2,2,0,0,0,1.89-1.08A7.19,7.19,0,0,0,411,131a7,7,0,0,0-.6-3.33,2.21,2.21,0,0,0-3.77,0A7,7,0,0,0,406,131a7.17,7.17,0,0,0,.61,3.36A2,2,0,0,0,408.48,135.45Z"/></g><path class="cls-11" d="M377,145.87h37.6v25H377v-5c0-10-8,8-8-7.5s8,2.5,8-7.5Z"/><path class="cls-12" d="M376,144.87h37.6v25H376v-5c0-10-8,8-8-7.5s8,2.5,8-7.5Z"/><path class="cls-13" d="M377,169.37h-1v-6h1ZM368.64,163a20.94,20.94,0,0,1,0-11.27l1,.27a19.75,19.75,0,0,0,0,10.73ZM377,152.87h-1v-8h37.1v1H377Z"/><g class="cls-10"><rect class="cls-9" x="380.98" y="149.87" width="27.6" height="16" rx="4"/></g><g class="cls-4"><path class="cls-5" d="M387.9,162.37v-1h6v1Zm2.36-.56v-9.4l.7.36-2.89,1.84v-1.18l2.73-1.74h.7v10.12Z"/><path class="cls-5" d="M399.48,162.49a3.18,3.18,0,0,1-2.78-1.39,9.24,9.24,0,0,1,0-8.14,3.5,3.5,0,0,1,5.58,0,7.17,7.17,0,0,1,1,4,7.28,7.28,0,0,1-1,4.08A3.18,3.18,0,0,1,399.48,162.49Zm0-1a2,2,0,0,0,1.89-1.08A7.19,7.19,0,0,0,402,157a7,7,0,0,0-.6-3.33,2.21,2.21,0,0,0-3.77,0A7,7,0,0,0,397,157a7.17,7.17,0,0,0,.61,3.36A2,2,0,0,0,399.48,161.45Z"/></g><polygon class="cls-5" points="353.01 86.18 357.98 77.56 348.03 77.56 353.01 86.18"/><polygon class="cls-5" points="353.01 111.18 357.98 102.56 348.03 102.56 353.01 111.18"/><polygon class="cls-5" points="269.19 111.18 274.17 102.56 264.21 102.56 269.19 111.18"/><polygon class="cls-5" points="244.29 61.18 249.27 52.56 239.31 52.56 244.29 61.18"/><rect class="cls-14" x="111.49" y="176.56" width="35.34" height="35.18" rx="5.67"/><g class="cls-4"><path class="cls-5" d="M117.14,189.43v-.93l3.74-4.14a7.44,7.44,0,0,0,1.09-1.51,3,3,0,0,0,.35-1.35,1.76,1.76,0,0,0-.51-1.36,2.05,2.05,0,0,0-1.46-.47,3.91,3.91,0,0,0-1.53.31,5.79,5.79,0,0,0-1.5.92l-.46-1a4.63,4.63,0,0,1,1.59-1,5.45,5.45,0,0,1,1.93-.36,3.83,3.83,0,0,1,1.69.34,2.48,2.48,0,0,1,1.1,1,2.79,2.79,0,0,1,.39,1.5,3.89,3.89,0,0,1-.41,1.76,8.12,8.12,0,0,1-1.37,1.9l-3.6,3.9-.09-.6H124v1Z"/><path class="cls-5" d="M121.55,207.43V198.3h.38l-4.44,6.4v-.61h6.9v1h-7.77v-.93l5.15-7.43h1v10.68Z"/></g><polygon class="cls-5" points="138.78 189.24 143.76 180.62 133.8 180.62 138.78 189.24"/><g class="cls-4"><path d="M1.17,189.4V184c0-.35,0-.7,0-1.06s0-.71-.1-1.06H2.21l.13,1.56-.15.12a2.55,2.55,0,0,1,1.05-1.38,3,3,0,0,1,1.7-.48c1.8,0,2.71,1,2.71,3v4.74H6.44v-4.68A2.34,2.34,0,0,0,6,183.18a1.69,1.69,0,0,0-1.33-.49,2.24,2.24,0,0,0-1.67.65,2.39,2.39,0,0,0-.64,1.74v4.32Z"/><path d="M12.61,189.5a2.61,2.61,0,0,1-2-.75,3.22,3.22,0,0,1-.68-2.22v-4.68h1.21v4.65a2.24,2.24,0,0,0,.42,1.5,1.63,1.63,0,0,0,1.28.48,2.13,2.13,0,0,0,1.62-.64,2.41,2.41,0,0,0,.62-1.73v-4.26h1.21v7.55H15.07v-1.64l.18-.09a2.5,2.5,0,0,1-1,1.37A2.9,2.9,0,0,1,12.61,189.5Z"/><path d="M18.6,189.4V184c0-.35,0-.7,0-1.06s0-.71-.1-1.06h1.15l.14,1.56-.15.11a2.52,2.52,0,0,1,.94-1.37,2.62,2.62,0,0,1,1.58-.48,2.46,2.46,0,0,1,1.7.54,2.62,2.62,0,0,1,.77,1.65l-.36-.19a2.61,2.61,0,0,1,1-1.46,2.87,2.87,0,0,1,1.75-.54,2.3,2.3,0,0,1,1.87.75,3.38,3.38,0,0,1,.63,2.24v4.74H28.26v-4.68a2.54,2.54,0,0,0-.38-1.54,1.41,1.41,0,0,0-1.18-.49,1.85,1.85,0,0,0-1.49.65,2.59,2.59,0,0,0-.55,1.75v4.31H23.44v-4.68a2.48,2.48,0,0,0-.38-1.54,1.43,1.43,0,0,0-1.19-.49,1.89,1.89,0,0,0-1.51.65,2.64,2.64,0,0,0-.55,1.75v4.31Z"/><path d="M31.78,189.4v-11H33v5.43l-.16-.15a2.52,2.52,0,0,1,1-1.45,2.94,2.94,0,0,1,1.74-.52,3.17,3.17,0,0,1,1.75.48,3.24,3.24,0,0,1,1.18,1.35,4.57,4.57,0,0,1,.43,2.06,4.71,4.71,0,0,1-.43,2.08A3.33,3.33,0,0,1,37.3,189a3.22,3.22,0,0,1-1.75.48,2.93,2.93,0,0,1-1.74-.51,2.45,2.45,0,0,1-1-1.45l.16-.17v2Zm3.54-.9a2.08,2.08,0,0,0,1.71-.77,3.42,3.42,0,0,0,.62-2.17,3.27,3.27,0,0,0-.62-2.12,2.33,2.33,0,0,0-3.43,0,4.13,4.13,0,0,0,0,4.29A2,2,0,0,0,35.32,188.5Z"/><path d="M47,188.5a3.52,3.52,0,0,1-1.26.73,4.83,4.83,0,0,1-1.59.27,4.12,4.12,0,0,1-2-.46,3.19,3.19,0,0,1-1.31-1.34,4.58,4.58,0,0,1-.45-2.1,4.45,4.45,0,0,1,.44-2,3.38,3.38,0,0,1,3.11-1.88,3.17,3.17,0,0,1,1.72.45,2.85,2.85,0,0,1,1.11,1.26,4.76,4.76,0,0,1,.38,2v.23H41.4v-.8h5l-.39.56a3.11,3.11,0,0,0-.52-2,1.9,1.9,0,0,0-1.6-.7,2.08,2.08,0,0,0-1.71.77,3.31,3.31,0,0,0-.62,2.14,3.27,3.27,0,0,0,.65,2.22,2.39,2.39,0,0,0,1.91.75,3.65,3.65,0,0,0,1.27-.22,3.92,3.92,0,0,0,1.16-.67Z"/><path d="M48.94,189.4V184c0-.35,0-.7,0-1.06a9.5,9.5,0,0,0-.1-1.06H50l.16,1.86-.16,0a2.32,2.32,0,0,1,.91-1.49,2.56,2.56,0,0,1,1.56-.51,2.13,2.13,0,0,1,.37,0,1.52,1.52,0,0,1,.32.06l0,1.11a2.39,2.39,0,0,0-.79-.12,2.06,2.06,0,0,0-1.25.35,1.92,1.92,0,0,0-.69.88,2.78,2.78,0,0,0-.22,1.11v4.31Z"/><path d="M61.41,189.5a3.58,3.58,0,0,1-1.88-.48,3.26,3.26,0,0,1-1.25-1.35,5.11,5.11,0,0,1,0-4.15,3.26,3.26,0,0,1,1.25-1.37,3.92,3.92,0,0,1,3.76,0,3.26,3.26,0,0,1,1.25,1.37,5.11,5.11,0,0,1,0,4.15A3.26,3.26,0,0,1,63.29,189,3.58,3.58,0,0,1,61.41,189.5Zm0-1a2.12,2.12,0,0,0,1.72-.74,3.4,3.4,0,0,0,.6-2.17,3.32,3.32,0,0,0-.61-2.15,2.09,2.09,0,0,0-1.71-.75,2.12,2.12,0,0,0-1.72.75,4.1,4.1,0,0,0,0,4.32A2.11,2.11,0,0,0,61.41,188.5Z"/><path d="M65.79,182.81v-1h4.53v1Zm4.74-3.34a2.85,2.85,0,0,0-.78-.12,1.51,1.51,0,0,0-.65.13.88.88,0,0,0-.46.45,2.1,2.1,0,0,0-.17.92v8.55H67.26v-8.7a2.45,2.45,0,0,1,.6-1.81,2.27,2.27,0,0,1,1.65-.59,4.36,4.36,0,0,1,.51,0,3.06,3.06,0,0,1,.51.1Z"/><path d="M75.82,192.64V184c0-.35,0-.7,0-1.06a9.5,9.5,0,0,0-.1-1.06h1.16l.13,1.56-.12.23a2.54,2.54,0,0,1,1-1.46,2.93,2.93,0,0,1,1.74-.51,3.15,3.15,0,0,1,1.75.5,3.33,3.33,0,0,1,1.18,1.38,4.64,4.64,0,0,1,.43,2.07,4.57,4.57,0,0,1-.43,2.06A3.13,3.13,0,0,1,81.34,189a3.16,3.16,0,0,1-1.75.47,2.93,2.93,0,0,1-1.74-.51,2.51,2.51,0,0,1-1-1.45l.17-.15v5.25Zm3.54-4.14a2.09,2.09,0,0,0,1.71-.75,3.28,3.28,0,0,0,.62-2.13,3.36,3.36,0,0,0-.62-2.15,2.3,2.3,0,0,0-3.43,0,4.15,4.15,0,0,0,0,4.3A2,2,0,0,0,79.36,188.5Z"/><path d="M84.7,178.66h1.49V180H84.7Zm.12,10.74v-7.55H86v7.55Z"/><path d="M88.39,189.4V184c0-.35,0-.7,0-1.06a9.5,9.5,0,0,0-.1-1.06h1.16l.13,1.56-.15.12a2.55,2.55,0,0,1,1-1.38,3,3,0,0,1,1.7-.48c1.81,0,2.71,1,2.71,3v4.74H93.66v-4.68a2.34,2.34,0,0,0-.42-1.54,1.67,1.67,0,0,0-1.32-.49,2.24,2.24,0,0,0-1.68.65,2.38,2.38,0,0,0-.63,1.74v4.32Z"/><path d="M99.72,189.5a4.42,4.42,0,0,1-3-1l.41-.9a4.11,4.11,0,0,0,1.24.68,4.17,4.17,0,0,0,1.41.22,2.41,2.41,0,0,0,1.3-.29,1,1,0,0,0,.44-.85.89.89,0,0,0-.3-.71,2.3,2.3,0,0,0-1-.43l-1.27-.3a2.78,2.78,0,0,1-1.46-.75,1.78,1.78,0,0,1-.52-1.29,1.93,1.93,0,0,1,.36-1.16,2.34,2.34,0,0,1,1-.79,3.76,3.76,0,0,1,1.53-.29,4.38,4.38,0,0,1,1.5.26,3.19,3.19,0,0,1,1.19.73l-.41.89a4,4,0,0,0-1.1-.67,3.34,3.34,0,0,0-1.18-.22,2.14,2.14,0,0,0-1.25.32,1,1,0,0,0-.44.85,1,1,0,0,0,.28.74,1.89,1.89,0,0,0,.89.42l1.27.31a3,3,0,0,1,1.57.75,1.77,1.77,0,0,1,.5,1.31,1.84,1.84,0,0,1-.79,1.56A3.57,3.57,0,0,1,99.72,189.5Z"/></g><g class="cls-4"><path d="M162.28,192.64V184c0-.35,0-.7,0-1.06a9.47,9.47,0,0,0-.09-1.06h1.15l.14,1.56-.12.23a2.52,2.52,0,0,1,1-1.46,2.93,2.93,0,0,1,1.74-.51,3.15,3.15,0,0,1,1.75.5,3.33,3.33,0,0,1,1.18,1.38,4.64,4.64,0,0,1,.43,2.07,4.57,4.57,0,0,1-.43,2.06A3.11,3.11,0,0,1,167.8,189a3.2,3.2,0,0,1-1.76.47,2.93,2.93,0,0,1-1.74-.51,2.5,2.5,0,0,1-1-1.45l.16-.15v5.25Zm3.54-4.14a2.09,2.09,0,0,0,1.71-.75,3.28,3.28,0,0,0,.61-2.13,3.36,3.36,0,0,0-.61-2.15,2.06,2.06,0,0,0-1.71-.78,2.09,2.09,0,0,0-1.73.75,4.15,4.15,0,0,0,0,4.3A2.07,2.07,0,0,0,165.82,188.5Z"/><path d="M171.16,178.66h1.48V180h-1.48Zm.12,10.74v-7.55h1.21v7.55Z"/><path d="M174.85,189.4V184c0-.35,0-.7,0-1.06a9.47,9.47,0,0,0-.09-1.06h1.15l.14,1.56-.15.12a2.55,2.55,0,0,1,1-1.38,3,3,0,0,1,1.69-.48c1.81,0,2.72,1,2.72,3v4.74h-1.22v-4.68a2.34,2.34,0,0,0-.42-1.54,1.67,1.67,0,0,0-1.32-.49,2.24,2.24,0,0,0-1.68.65,2.38,2.38,0,0,0-.63,1.74v4.32Z"/><path d="M184.37,189.4v-1h6v1Zm2.36-.56v-9.4l.7.36-2.89,1.84v-1.18l2.73-1.74h.7v10.12Z"/><path d="M195.89,186.64v-.89h7.74v.89Zm.3-4.4v-.88h7.74v.88Zm.51,7.16,2.08-10.68h1l-2.08,10.68Zm3.37,0,2.09-10.68h1L201,189.4Z"/><path d="M212.6,189.5a4.27,4.27,0,0,1-1.81-.35,2.9,2.9,0,0,1-1.2-1,2.59,2.59,0,0,1-.43-1.47,2.79,2.79,0,0,1,.63-1.78,6.92,6.92,0,0,1,2-1.61,14.7,14.7,0,0,0,1.52-1,3.07,3.07,0,0,0,.77-.76,1.48,1.48,0,0,0,.21-.76,1.22,1.22,0,0,0-.36-.92,1.27,1.27,0,0,0-.94-.36,1.48,1.48,0,0,0-1.07.39,1.31,1.31,0,0,0-.4,1,1.65,1.65,0,0,0,.1.58,2.36,2.36,0,0,0,.35.62q.25.35.72.87l3.66,4.14a5.91,5.91,0,0,0,.94.84,7,7,0,0,0,1.25.7l-.66.84a7.5,7.5,0,0,1-1.32-.76,6.51,6.51,0,0,1-1-.87l-3.88-4.37a8.9,8.9,0,0,1-.8-1,3.15,3.15,0,0,1-.42-.81,2.28,2.28,0,0,1-.13-.78,2.16,2.16,0,0,1,1.25-2,3,3,0,0,1,1.37-.3,2.56,2.56,0,0,1,1.75.58,2,2,0,0,1,.65,1.57,2.27,2.27,0,0,1-.27,1.1,3.35,3.35,0,0,1-.91,1,15.13,15.13,0,0,1-1.76,1.18,8.29,8.29,0,0,0-1.23.86,2.67,2.67,0,0,0-.66.83,2.05,2.05,0,0,0-.21.93A1.64,1.64,0,0,0,211,188a2.55,2.55,0,0,0,1.65.49,3.15,3.15,0,0,0,2-.66A4.48,4.48,0,0,0,216,186a8,8,0,0,0,.54-2.84h1.08a9.14,9.14,0,0,1-.43,2.61,6.37,6.37,0,0,1-1,2,4.79,4.79,0,0,1-1.55,1.3A4.31,4.31,0,0,1,212.6,189.5Z"/><path d="M223.5,192.64V184c0-.35,0-.7,0-1.06a9.5,9.5,0,0,0-.1-1.06h1.16l.13,1.56-.12.23a2.54,2.54,0,0,1,1-1.46,2.93,2.93,0,0,1,1.74-.51,3.15,3.15,0,0,1,1.75.5,3.33,3.33,0,0,1,1.18,1.38,4.64,4.64,0,0,1,.43,2.07,4.57,4.57,0,0,1-.43,2.06A3.13,3.13,0,0,1,229,189a3.16,3.16,0,0,1-1.75.47,2.93,2.93,0,0,1-1.74-.51,2.51,2.51,0,0,1-1-1.45l.17-.15v5.25ZM227,188.5a2.09,2.09,0,0,0,1.71-.75,3.28,3.28,0,0,0,.62-2.13,3.36,3.36,0,0,0-.62-2.15,2.3,2.3,0,0,0-3.43,0,4.15,4.15,0,0,0,0,4.3A2,2,0,0,0,227,188.5Z"/><path d="M232.38,178.66h1.49V180h-1.49Zm.12,10.74v-7.55h1.22v7.55Z"/><path d="M236.07,189.4V184c0-.35,0-.7,0-1.06a9.5,9.5,0,0,0-.1-1.06h1.16l.13,1.56-.15.12a2.55,2.55,0,0,1,1-1.38,3,3,0,0,1,1.7-.48c1.81,0,2.71,1,2.71,3v4.74h-1.21v-4.68a2.34,2.34,0,0,0-.42-1.54,1.67,1.67,0,0,0-1.32-.49,2.24,2.24,0,0,0-1.68.65,2.38,2.38,0,0,0-.63,1.74v4.32Z"/><path d="M244.92,189.4v-.93l3.74-4.14a7.46,7.46,0,0,0,1.09-1.52,3,3,0,0,0,.35-1.35,1.73,1.73,0,0,0-.51-1.35,2.06,2.06,0,0,0-1.46-.48,4.1,4.1,0,0,0-1.53.31,6.07,6.07,0,0,0-1.5.92l-.46-.94a4.63,4.63,0,0,1,1.59-1,5.45,5.45,0,0,1,1.93-.36,3.83,3.83,0,0,1,1.69.34,2.46,2.46,0,0,1,1.1,1,2.79,2.79,0,0,1,.39,1.5,4,4,0,0,1-.41,1.77,8.3,8.3,0,0,1-1.37,1.89L246,189l-.09-.6h5.92v1Z"/><path d="M257.12,186.64v-.89h7.74v.89Zm.3-4.4v-.88h7.74v.88Zm.51,7.16L260,178.72h1l-2.08,10.68Zm3.37,0,2.09-10.68h1l-2.09,10.68Z"/></g><rect class="cls-14" x="269.49" y="176.56" width="35.34" height="108.15" rx="5.67"/><g class="cls-4"><path class="cls-5" d="M275.82,189.43v-1h5.95v1Zm2.35-.55v-9.41l.71.36-2.9,1.85v-1.19l2.73-1.74h.71v10.13Z"/><path class="cls-5" d="M275.14,207.43v-.93l3.74-4.14a7.44,7.44,0,0,0,1.09-1.51,3,3,0,0,0,.35-1.35,1.76,1.76,0,0,0-.51-1.36,2.05,2.05,0,0,0-1.46-.47,3.91,3.91,0,0,0-1.53.31,5.79,5.79,0,0,0-1.5.92l-.46-1a4.63,4.63,0,0,1,1.59-1,5.45,5.45,0,0,1,1.93-.36,3.83,3.83,0,0,1,1.69.34,2.48,2.48,0,0,1,1.1,1,2.79,2.79,0,0,1,.39,1.5,3.89,3.89,0,0,1-.41,1.76,8.12,8.12,0,0,1-1.37,1.9l-3.6,3.9-.09-.6H282v1Z"/><path class="cls-5" d="M274.86,223.89h1.54v1.54h-1.54Z"/><path class="cls-5" d="M274.86,241.89h1.54v1.54h-1.54Z"/><path class="cls-5" d="M275.44,261.43h-1.27l4.69-10.68h1.08l4.7,10.68h-1.26l-4.19-9.78h.45Zm.72-2.74.44-1h5.61l.43,1Z"/><path class="cls-5" d="M290.56,261.43V252.3h.38l-4.44,6.4v-.61h6.9v1h-7.77v-.93l5.15-7.43h1v10.68Z"/><path class="cls-5" d="M275.44,279.43h-1.27l4.69-10.68h1.08l4.7,10.68h-1.26l-4.19-9.78h.45Zm.72-2.74.44-1h5.61l.43,1Z"/><path class="cls-5" d="M289.57,279.54a5.57,5.57,0,0,1-1.92-.35,4.68,4.68,0,0,1-1.59-1l.47-1a6.15,6.15,0,0,0,1.49.92,4,4,0,0,0,1.55.31,2.39,2.39,0,0,0,1.77-.64,2.34,2.34,0,0,0,.63-1.73,2.54,2.54,0,0,0-.28-1.23,2.09,2.09,0,0,0-.8-.84,2.44,2.44,0,0,0-1.23-.3,2.94,2.94,0,0,0-1.37.31,3,3,0,0,0-1.07.94h-.86v-6.26h6.41v1h-5.18v4.32l-.39,0a3,3,0,0,1,1.12-1,3.38,3.38,0,0,1,1.54-.34,3.56,3.56,0,0,1,1.77.42,3,3,0,0,1,1.15,1.2,3.73,3.73,0,0,1,.41,1.77,3.59,3.59,0,0,1-.44,1.78,3.17,3.17,0,0,1-1.26,1.2A4,4,0,0,1,289.57,279.54Z"/></g><polygon class="cls-5" points="296.78 189.24 301.76 180.62 291.8 180.62 296.78 189.24"/></g></g></svg>