<svg xmlns="http://www.w3.org/2000/svg" viewBox="0 0 595.28 250.14"><defs><style>.cls-1{fill:#2395bc;}.cls-2{fill:#27aae1;}.cls-3{fill:#727373;}.cls-4{fill:#2d2d2d;}.cls-5{opacity:0.5;}.cls-6{fill:#231f20;}.cls-7{fill:#666566;}.cls-8{fill:none;}</style></defs><g id="Layer_2" data-name="Layer 2"><g id="Layer_1-2" data-name="Layer 1"><rect class="cls-1" x="92.5" y="74.64" width="59" height="31" rx="7.5"/><rect class="cls-1" x="93" y="219.14" width="59" height="31" rx="7.5"/><path class="cls-2" d="M155.38,234.64H89.62a9.12,9.12,0,0,1-9.12-9.12L80,99.26a9.12,9.12,0,0,1,9.12-9.12h65.76A9.12,9.12,0,0,1,164,99.26l.5,126.26A9.12,9.12,0,0,1,155.38,234.64Z"/><path class="cls-3" d="M156.28,137.67A34.28,34.28,0,0,0,121,103.4c-16.66.47-31.95,15-33.19,31.64a34.19,34.19,0,0,0,8.75,25.62,28.76,28.76,0,0,1,7.66,19.27l.5,32.95a8.5,8.5,0,0,0,8.5,8.51h18.54a8.5,8.5,0,0,0,8.5-8.51l-.5-32.85a29,29,0,0,1,7.66-19.38A34.14,34.14,0,0,0,156.28,137.67Z"/><circle class="cls-4" cx="122" cy="137.67" r="21"/><g class="cls-5"><path class="cls-4" d="M238.41,145.91a5.74,5.74,0,0,0,5.59-5.74v-5a5.75,5.75,0,0,0-5.59-5.75l-105.5-3a5.75,5.75,0,0,0-5.91,5.75v11a5.75,5.75,0,0,0,5.91,5.75ZM171,137.67a3.5,3.5,0,1,1,3.5,3.5A3.5,3.5,0,0,1,171,137.67Zm18,0a3.5,3.5,0,1,1,3.5,3.5A3.5,3.5,0,0,1,189,137.67Zm18,0a3.5,3.5,0,1,1,3.5,3.5A3.5,3.5,0,0,1,207,137.67Zm18,0a3.5,3.5,0,1,1,3.5,3.5A3.5,3.5,0,0,1,225,137.67Z"/><path class="cls-4" d="M5.59,129.42A5.75,5.75,0,0,0,0,135.17v5a5.74,5.74,0,0,0,5.59,5.74l105.5,3a5.75,5.75,0,0,0,5.91-5.75v-11a5.75,5.75,0,0,0-5.91-5.75ZM73,137.67a3.5,3.5,0,1,1-3.5-3.5A3.5,3.5,0,0,1,73,137.67Zm-18,0a3.5,3.5,0,1,1-3.5-3.5A3.5,3.5,0,0,1,55,137.67Zm-18,0a3.5,3.5,0,1,1-3.5-3.5A3.5,3.5,0,0,1,37,137.67Zm-18,0a3.5,3.5,0,1,1-3.5-3.5A3.5,3.5,0,0,1,19,137.67Z"/></g><g class="cls-5"><path class="cls-4" d="M130.25,21.25a5.75,5.75,0,0,0-5.75-5.58h-5a5.75,5.75,0,0,0-5.75,5.58l-3,105.5a5.76,5.76,0,0,0,5.75,5.92h11a5.76,5.76,0,0,0,5.75-5.92ZM122,88.67a3.5,3.5,0,1,1,3.5-3.5A3.5,3.5,0,0,1,122,88.67Zm0-18a3.5,3.5,0,1,1,3.5-3.5A3.5,3.5,0,0,1,122,70.67Zm0-18a3.5,3.5,0,1,1,3.5-3.5A3.5,3.5,0,0,1,122,52.67Zm0-18a3.5,3.5,0,1,1,3.5-3.5A3.5,3.5,0,0,1,122,34.67Z"/></g><path class="cls-6" d="M234.64,123.25A3,3,0,0,1,232,122a6.68,6.68,0,0,1-.89-3.81,6.76,6.76,0,0,1,.88-3.8,3.28,3.28,0,0,1,5.21,0,8.6,8.6,0,0,1,0,7.6A2.93,2.93,0,0,1,234.64,123.25Zm0-1a1.87,1.87,0,0,0,1.75-1,6.65,6.65,0,0,0,.57-3.14,6.43,6.43,0,0,0-.57-3.11,2.05,2.05,0,0,0-3.51,0,6.51,6.51,0,0,0-.57,3.11,6.65,6.65,0,0,0,.57,3.14A1.88,1.88,0,0,0,234.64,122.28Z"/><path class="cls-6" d="M241.42,117.2a2.15,2.15,0,0,1-1-.26,2,2,0,0,1-.74-.74,2.13,2.13,0,0,1,0-2.11,1.9,1.9,0,0,1,.74-.72,2.05,2.05,0,0,1,1-.27,2,2,0,0,1,1,.27,2,2,0,0,1,1,1.77,2.06,2.06,0,0,1-.27,1.06,2,2,0,0,1-1.78,1Zm0-.75a1.16,1.16,0,0,0,.89-.37,1.27,1.27,0,0,0,.36-.94,1.29,1.29,0,0,0-.36-.93,1.19,1.19,0,0,0-.89-.37,1.24,1.24,0,0,0-.91.37,1.33,1.33,0,0,0-.35.93,1.3,1.3,0,0,0,.35.94A1.2,1.2,0,0,0,241.42,116.45Z"/><path class="cls-6" d="M114.91,1.9a3.31,3.31,0,0,1,2.78,1.26,5.66,5.66,0,0,1,1,3.59,8.22,8.22,0,0,1-.46,2.89,3.85,3.85,0,0,1-1.32,1.83,3.4,3.4,0,0,1-2.08.63,4.67,4.67,0,0,1-1.67-.32,4.26,4.26,0,0,1-1.45-.92l.45-.88a5.55,5.55,0,0,0,1.36.88,3.33,3.33,0,0,0,1.3.27,2.24,2.24,0,0,0,2-1.14,6.17,6.17,0,0,0,.7-3.23V5.56l.18.36a2.63,2.63,0,0,1-.51,1.26,2.66,2.66,0,0,1-1,.81,3.17,3.17,0,0,1-1.35.28,3.23,3.23,0,0,1-1.61-.39,2.8,2.8,0,0,1-1.09-1.12,3.25,3.25,0,0,1-.4-1.65,3.21,3.21,0,0,1,.42-1.65,2.84,2.84,0,0,1,1.14-1.14A3.21,3.21,0,0,1,114.91,1.9Zm.06,1a2,2,0,0,0-1.55.61,2.23,2.23,0,0,0-.58,1.62,2.18,2.18,0,0,0,.59,1.6,2,2,0,0,0,1.55.61A2.31,2.31,0,0,0,116.13,7a2.09,2.09,0,0,0,.78-.78,2.24,2.24,0,0,0,.28-1.14,2.3,2.3,0,0,0-.28-1.17,2.09,2.09,0,0,0-.78-.78A2.34,2.34,0,0,0,115,2.87Z"/><path class="cls-6" d="M123.62,12.1a3,3,0,0,1-2.6-1.3,6.73,6.73,0,0,1-.89-3.8A6.73,6.73,0,0,1,121,3.2a3.26,3.26,0,0,1,5.21,0A6.72,6.72,0,0,1,127.1,7a6.65,6.65,0,0,1-.89,3.8A2.93,2.93,0,0,1,123.62,12.1Zm0-1a1.87,1.87,0,0,0,1.75-1A6.57,6.57,0,0,0,125.94,7a6.5,6.5,0,0,0-.57-3.12,1.87,1.87,0,0,0-1.75-1,1.89,1.89,0,0,0-1.76,1A6.48,6.48,0,0,0,121.29,7a6.57,6.57,0,0,0,.57,3.13A1.89,1.89,0,0,0,123.62,11.13Z"/><path class="cls-6" d="M130.41,6.05a2.06,2.06,0,0,1-1.06-.27,2,2,0,0,1-.74-.73A2.12,2.12,0,0,1,128.33,4a2.06,2.06,0,0,1,.28-1.05,2,2,0,0,1,.74-.73A2.16,2.16,0,0,1,130.41,2a2.1,2.1,0,0,1,1,.26,2.07,2.07,0,0,1,.74.73A2.05,2.05,0,0,1,132.45,4a2.12,2.12,0,0,1-.27,1.06,2.07,2.07,0,0,1-.74.73A2,2,0,0,1,130.41,6.05Zm0-.76a1.18,1.18,0,0,0,.88-.36,1.28,1.28,0,0,0,.36-.94,1.29,1.29,0,0,0-.36-.93,1.15,1.15,0,0,0-.88-.37,1.17,1.17,0,0,0-.91.37,1.28,1.28,0,0,0-.35.93,1.27,1.27,0,0,0,.35.94A1.2,1.2,0,0,0,130.41,5.29Z"/><path class="cls-6" d="M1.79,122.57v-1H7.35v1Zm2.2-.52v-8.77l.66.33L2,115.33v-1.1l2.54-1.63h.66v9.45Z"/><path class="cls-6" d="M12.6,122.67a4.91,4.91,0,0,1-1.89-.33,2.77,2.77,0,0,1-1.24-.94A2.48,2.48,0,0,1,9,119.93a2.32,2.32,0,0,1,.7-1.73,3.29,3.29,0,0,1,1.88-.85l-.08.21a3,3,0,0,1-1.68-.85,2.23,2.23,0,0,1-.6-1.57,2.4,2.4,0,0,1,.43-1.41,2.74,2.74,0,0,1,1.18-.92,4.46,4.46,0,0,1,1.74-.32,4.46,4.46,0,0,1,1.74.32,2.8,2.8,0,0,1,1.18.92,2.4,2.4,0,0,1,.43,1.41,2.23,2.23,0,0,1-.6,1.57,2.85,2.85,0,0,1-1.67.85l-.09-.21a3.15,3.15,0,0,1,1.9.86,2.38,2.38,0,0,1,.68,1.72,2.48,2.48,0,0,1-.44,1.47,2.83,2.83,0,0,1-1.24.94A4.91,4.91,0,0,1,12.6,122.67Zm0-1a3,3,0,0,0,1.81-.48,1.61,1.61,0,0,0,.62-1.38,1.54,1.54,0,0,0-.68-1.34,3.75,3.75,0,0,0-1.75-.6,3.75,3.75,0,0,0-1.75.6,1.54,1.54,0,0,0-.69,1.34,1.62,1.62,0,0,0,.63,1.38A3,3,0,0,0,12.6,121.72Zm0-4.59a3.08,3.08,0,0,0,1.59-.61,1.59,1.59,0,0,0,.61-1.3,1.62,1.62,0,0,0-.58-1.31,2.54,2.54,0,0,0-1.62-.47,2.54,2.54,0,0,0-1.62.47,1.59,1.59,0,0,0-.58,1.31,1.57,1.57,0,0,0,.61,1.3A3.08,3.08,0,0,0,12.6,117.13Z"/><path class="cls-6" d="M21,122.68a3,3,0,0,1-2.6-1.29,6.73,6.73,0,0,1-.89-3.8,6.82,6.82,0,0,1,.88-3.8,3,3,0,0,1,2.61-1.3,2.93,2.93,0,0,1,2.6,1.3,6.68,6.68,0,0,1,.88,3.78,6.77,6.77,0,0,1-.88,3.81A3,3,0,0,1,21,122.68Zm0-1a1.9,1.9,0,0,0,1.76-1,6.76,6.76,0,0,0,.56-3.14,6.62,6.62,0,0,0-.56-3.11,1.9,1.9,0,0,0-1.76-1,1.88,1.88,0,0,0-1.76,1,6.46,6.46,0,0,0-.57,3.1,6.62,6.62,0,0,0,.57,3.14A1.89,1.89,0,0,0,21,121.72Z"/><path class="cls-6" d="M27.79,116.64a2.09,2.09,0,0,1-1.06-.27,2,2,0,0,1-.74-.73,2.12,2.12,0,0,1-.27-1.06,2.05,2.05,0,0,1,.27-1,2,2,0,0,1,.74-.73,2.09,2.09,0,0,1,1.06-.27,2,2,0,0,1,1.77,1,2.05,2.05,0,0,1,.27,1,2.12,2.12,0,0,1-.27,1.06,2,2,0,0,1-1.77,1Zm0-.76a1.21,1.21,0,0,0,.89-.36,1.33,1.33,0,0,0,.35-.94,1.31,1.31,0,0,0-.35-.93,1.19,1.19,0,0,0-.89-.37,1.17,1.17,0,0,0-.91.37,1.27,1.27,0,0,0-.35.93,1.29,1.29,0,0,0,.35.94A1.2,1.2,0,0,0,27.79,115.88Z"/><path class="cls-6" d="M175.28,214.13a8.2,8.2,0,0,1-1.44-.13,5,5,0,0,1-1.25-.42,4.71,4.71,0,0,1-1-.71L172,212a4.71,4.71,0,0,0,1.52.89,5.33,5.33,0,0,0,1.78.27,3.16,3.16,0,0,0,1.85-.47,1.52,1.52,0,0,0,.66-1.32,1.11,1.11,0,0,0-.33-.84,2.41,2.41,0,0,0-.9-.5,12,12,0,0,0-1.28-.36c-.47-.1-.93-.22-1.36-.35a5.42,5.42,0,0,1-1.14-.52A2.13,2.13,0,0,1,172,208a2.28,2.28,0,0,1-.28-1.19,2.62,2.62,0,0,1,.44-1.5,2.91,2.91,0,0,1,1.26-1,4.77,4.77,0,0,1,1.92-.36,6.28,6.28,0,0,1,1.32.14,4.94,4.94,0,0,1,1.17.43,4.19,4.19,0,0,1,1,.69l-.45.88a4.62,4.62,0,0,0-1.42-.88,4.27,4.27,0,0,0-1.58-.28,3,3,0,0,0-1.82.49,1.59,1.59,0,0,0-.65,1.37,1.26,1.26,0,0,0,.29.88,2.14,2.14,0,0,0,.83.54,11,11,0,0,0,1.21.37c.49.11,1,.23,1.4.36a6.66,6.66,0,0,1,1.2.49,2.3,2.3,0,0,1,.83.74,2,2,0,0,1,.31,1.15,2.5,2.5,0,0,1-.45,1.49,2.88,2.88,0,0,1-1.27,1A5,5,0,0,1,175.28,214.13Z"/><path class="cls-6" d="M180.84,214v-10h6.3V205H182v3.47h4.89v1H182v3.62h5.17v1Z"/><path class="cls-6" d="M189.07,214v-10h4a3.81,3.81,0,0,1,2.47.71,2.84,2.84,0,0,1,0,4.08,3.72,3.72,0,0,1-2.46.74l1-.2a1.53,1.53,0,0,1,.94.3,2.06,2.06,0,0,1,.63,1l1.25,3.38h-1.21l-1.23-3.32a1.4,1.4,0,0,0-.66-.83,2.4,2.4,0,0,0-1.09-.21h-2.5V214Zm1.13-5.31h2.73a2.63,2.63,0,0,0,1.73-.48,1.7,1.7,0,0,0,.57-1.4,1.67,1.67,0,0,0-.56-1.37,2.68,2.68,0,0,0-1.74-.46H190.2Z"/><path class="cls-6" d="M201.78,214l-4.35-10h1.22l3.87,9h-.46l3.89-9h1.19l-4.35,10Z"/><path class="cls-6" d="M212.32,214.13a4.57,4.57,0,0,1-2.41-.62,4.08,4.08,0,0,1-1.57-1.76,6.2,6.2,0,0,1-.55-2.72,6.31,6.31,0,0,1,.54-2.72,4.12,4.12,0,0,1,1.56-1.76,5.15,5.15,0,0,1,4.86,0,4,4,0,0,1,1.56,1.76,6.12,6.12,0,0,1,.55,2.71,6.24,6.24,0,0,1-.55,2.73,4.14,4.14,0,0,1-1.57,1.76A4.58,4.58,0,0,1,212.32,214.13Zm0-1a3,3,0,0,0,2.47-1.07,4.71,4.71,0,0,0,.88-3.06,4.64,4.64,0,0,0-.88-3.05,3.42,3.42,0,0,0-4.94,0,4.63,4.63,0,0,0-.89,3,4.7,4.7,0,0,0,.89,3A3,3,0,0,0,212.32,213.15Z"/><path class="cls-6" d="M222.47,214V209c0-.33,0-.66,0-1a8.28,8.28,0,0,0-.09-1h1.08l.12,1.46-.14.1a2.38,2.38,0,0,1,.88-1.28,2.51,2.51,0,0,1,1.48-.44,2.3,2.3,0,0,1,1.59.5,2.56,2.56,0,0,1,.72,1.54l-.34-.18a2.42,2.42,0,0,1,.9-1.36,2.65,2.65,0,0,1,1.63-.5,2.16,2.16,0,0,1,1.75.69,3.12,3.12,0,0,1,.59,2.09V214h-1.13v-4.37a2.42,2.42,0,0,0-.35-1.44,1.32,1.32,0,0,0-1.11-.45,1.72,1.72,0,0,0-1.39.6,2.46,2.46,0,0,0-.51,1.64v4H227v-4.37a2.35,2.35,0,0,0-.35-1.44,1.34,1.34,0,0,0-1.12-.45,1.74,1.74,0,0,0-1.4.6,2.46,2.46,0,0,0-.51,1.64v4Z"/><path class="cls-6" d="M237.69,214.11a3.36,3.36,0,0,1-1.76-.44,3,3,0,0,1-1.16-1.27,4.77,4.77,0,0,1,0-3.87,3.07,3.07,0,0,1,1.16-1.28,3.74,3.74,0,0,1,3.52,0,3.07,3.07,0,0,1,1.16,1.28,4.77,4.77,0,0,1,0,3.87,3,3,0,0,1-1.16,1.27A3.36,3.36,0,0,1,237.69,214.11Zm0-.93a1.93,1.93,0,0,0,1.6-.7,3.83,3.83,0,0,0,0-4,2.18,2.18,0,0,0-3.2,0,3,3,0,0,0-.58,2,3.1,3.1,0,0,0,.56,2A2,2,0,0,0,237.69,213.18Z"/><path class="cls-6" d="M241.78,207.87V207h4.52v.9Zm4.49,5.14v1a2.66,2.66,0,0,1-.47.11,3.89,3.89,0,0,1-.51,0,2.13,2.13,0,0,1-1.56-.56,2.21,2.21,0,0,1-.58-1.68v-6.7l1.13-.41v7a2,2,0,0,0,.16.87.94.94,0,0,0,.45.43,1.73,1.73,0,0,0,.63.11,2.12,2.12,0,0,0,.37,0A2.15,2.15,0,0,0,246.27,213Z"/><path class="cls-6" d="M250.58,214.11a3.32,3.32,0,0,1-1.75-.44,3.06,3.06,0,0,1-1.17-1.27,4.77,4.77,0,0,1,0-3.87,3.09,3.09,0,0,1,1.17-1.28,3.72,3.72,0,0,1,3.51,0,3,3,0,0,1,1.16,1.28,4.67,4.67,0,0,1,0,3.87,3,3,0,0,1-1.16,1.27A3.33,3.33,0,0,1,250.58,214.11Zm0-.93a2,2,0,0,0,1.61-.7,3.16,3.16,0,0,0,.56-2,3.09,3.09,0,0,0-.57-2,2.18,2.18,0,0,0-3.2,0,3,3,0,0,0-.58,2,3.1,3.1,0,0,0,.57,2A1.93,1.93,0,0,0,250.58,213.18Z"/><path class="cls-6" d="M255.68,214V209c0-.33,0-.66,0-1s0-.66-.09-1h1.07l.16,1.74-.16,0a2.23,2.23,0,0,1,.85-1.39,2.41,2.41,0,0,1,1.47-.47,1.88,1.88,0,0,1,.34,0,1.33,1.33,0,0,1,.3.06l0,1a2.09,2.09,0,0,0-.74-.12,1.89,1.89,0,0,0-1.17.33,1.79,1.79,0,0,0-.64.82,2.61,2.61,0,0,0-.21,1v4Z"/><path class="cls-6" d="M171,224.67v-.9h4.52v.9Zm4.49,5.14v1a2.56,2.56,0,0,1-.46.11,4.12,4.12,0,0,1-.51,0,2.14,2.14,0,0,1-1.57-.56,2.25,2.25,0,0,1-.58-1.68V222l1.14-.41v7a1.9,1.9,0,0,0,.16.87.92.92,0,0,0,.44.43,1.81,1.81,0,0,0,.63.11,2.3,2.3,0,0,0,.38,0A2.06,2.06,0,0,0,175.47,229.81Z"/><path class="cls-6" d="M179.79,230.91a3.33,3.33,0,0,1-1.76-.44,3,3,0,0,1-1.16-1.27,4.67,4.67,0,0,1,0-3.87,3,3,0,0,1,1.16-1.28,3.72,3.72,0,0,1,3.51,0,3.09,3.09,0,0,1,1.17,1.28,4.77,4.77,0,0,1,0,3.87,3.06,3.06,0,0,1-1.17,1.27A3.32,3.32,0,0,1,179.79,230.91Zm0-.93a1.93,1.93,0,0,0,1.6-.7,3.8,3.8,0,0,0,0-4,1.93,1.93,0,0,0-1.59-.7,2,2,0,0,0-1.61.7,3.8,3.8,0,0,0,0,4A2,2,0,0,0,179.79,230Z"/><path class="cls-6" d="M184.88,233.84v-8.09c0-.33,0-.66,0-1a8.28,8.28,0,0,0-.09-1h1.08l.12,1.46-.11.21a2.35,2.35,0,0,1,.91-1.36,2.8,2.8,0,0,1,1.63-.47,2.9,2.9,0,0,1,1.63.46,3.09,3.09,0,0,1,1.1,1.29,4.32,4.32,0,0,1,.4,1.93,4.25,4.25,0,0,1-.4,1.92,2.89,2.89,0,0,1-1.1,1.26,2.93,2.93,0,0,1-1.63.44,2.73,2.73,0,0,1-1.63-.47,2.35,2.35,0,0,1-.91-1.36l.16-.14v4.9Zm3.31-3.86a2,2,0,0,0,1.59-.7,3,3,0,0,0,.58-2,3.1,3.1,0,0,0-.58-2,2.16,2.16,0,0,0-3.2,0,3.87,3.87,0,0,0,0,4A1.93,1.93,0,0,0,188.19,230Z"/><path class="cls-6" d="M199,230.82l-3-7h1.19l2.55,6.2h-.34l2.58-6.2h1.13l-3,7Z"/><path class="cls-6" d="M204.26,220.79h1.38v1.29h-1.38Zm.11,10v-7h1.13v7Z"/><path class="cls-6" d="M213.47,230a3.3,3.3,0,0,1-1.18.68,4.42,4.42,0,0,1-1.48.25,3.81,3.81,0,0,1-1.88-.43,2.94,2.94,0,0,1-1.22-1.25,4.62,4.62,0,0,1,0-3.87,3.18,3.18,0,0,1,1.17-1.29,3.22,3.22,0,0,1,1.73-.46,3,3,0,0,1,1.61.41,2.65,2.65,0,0,1,1,1.18,4.36,4.36,0,0,1,.36,1.85v.21h-5.32v-.74H213l-.36.52a2.86,2.86,0,0,0-.49-1.89,1.76,1.76,0,0,0-1.49-.66,2,2,0,0,0-1.6.72,3.78,3.78,0,0,0,0,4.07,2.25,2.25,0,0,0,1.78.7,3.43,3.43,0,0,0,1.19-.21,3.47,3.47,0,0,0,1.08-.62Z"/><path class="cls-6" d="M217.12,230.82l-2.6-7h1.19l2.17,6.21h-.36l2.24-6.21h1L223,230h-.36l2.21-6.21h1.12l-2.6,7h-1.1l-2.32-6.35h.62l-2.31,6.35Z"/><circle class="cls-7" cx="122" cy="137.67" r="7.5"/><rect class="cls-8" width="595.28" height="18"/></g></g></svg>