<svg xmlns="http://www.w3.org/2000/svg" viewBox="0 0 595.28 39.87"><defs><style>.cls-1{fill:#231f20;}.cls-2{fill:#cbc4cc;}.cls-3{fill:#b6aeb6;}.cls-4{fill:#7b6e7a;}.cls-5{fill:#695f69;}.cls-6{fill:#a6a0a8;}.cls-7{fill:#958f96;}.cls-8{fill:#c4c3c7;}.cls-9{fill:#625862;}.cls-10{fill:#87a549;}.cls-11{fill:#607d37;}.cls-12{fill:#f2f0f3;}.cls-13{fill:#b3b3b3;}.cls-14{fill:#b8b5b9;}.cls-15{fill:none;}</style></defs><g id="Layer_2" data-name="Layer 2"><g id="Layer_1-2" data-name="Layer 1"><path class="cls-1" d="M85.23,32.62V7h3.71l9.68,22.07H96.86L106.47,7h3.71V32.62H106l0-19,1.23.29-8,18.68H96.18L88,13.94l1.3-.29,0,19Z"/><path class="cls-1" d="M123.68,32.88a9.9,9.9,0,0,1-4.91-1.16,7.75,7.75,0,0,1-3.19-3.25,10.55,10.55,0,0,1-1.12-5,10.65,10.65,0,0,1,1.12-5,7.73,7.73,0,0,1,3.19-3.29A9.9,9.9,0,0,1,123.68,14a9.76,9.76,0,0,1,4.84,1.15,8,8,0,0,1,3.21,3.29,10.65,10.65,0,0,1,1.13,5,10.55,10.55,0,0,1-1.13,5,8,8,0,0,1-3.21,3.25A9.76,9.76,0,0,1,123.68,32.88Zm0-3.46a4.19,4.19,0,0,0,3.44-1.49,7.08,7.08,0,0,0,1.2-4.49,7,7,0,0,0-1.2-4.44,4.17,4.17,0,0,0-3.44-1.5,4.31,4.31,0,0,0-3.51,1.5,6.8,6.8,0,0,0-1.24,4.44,7,7,0,0,0,1.22,4.49A4.32,4.32,0,0,0,123.68,29.42Z"/><path class="cls-1" d="M134.37,17.83V14.44h12.82v3.39Zm12.82,11.05v3.56a7,7,0,0,1-1.42.35,11.86,11.86,0,0,1-1.5.09,6.28,6.28,0,0,1-4.73-1.73,6.84,6.84,0,0,1-1.68-5V10l4.5-1.52V26a3.88,3.88,0,0,0,.4,1.93,2.2,2.2,0,0,0,1.06,1,3.79,3.79,0,0,0,1.5.29,6.56,6.56,0,0,0,.9-.07C146.5,29.05,146.83,29,147.19,28.88Z"/><path class="cls-1" d="M158.53,32.88a9.94,9.94,0,0,1-4.92-1.16,7.78,7.78,0,0,1-3.18-3.25,10.55,10.55,0,0,1-1.12-5,10.65,10.65,0,0,1,1.12-5,7.77,7.77,0,0,1,3.18-3.29A9.94,9.94,0,0,1,158.53,14a9.76,9.76,0,0,1,4.84,1.15,7.87,7.87,0,0,1,3.2,3.29,10.54,10.54,0,0,1,1.14,5,10.44,10.44,0,0,1-1.14,5,7.89,7.89,0,0,1-3.2,3.25A9.76,9.76,0,0,1,158.53,32.88Zm0-3.46A4.19,4.19,0,0,0,162,27.93a7.08,7.08,0,0,0,1.2-4.49A7,7,0,0,0,162,19a4.17,4.17,0,0,0-3.44-1.5A4.31,4.31,0,0,0,155,19a6.8,6.8,0,0,0-1.24,4.44A7,7,0,0,0,155,27.93,4.32,4.32,0,0,0,158.53,29.42Z"/><path class="cls-1" d="M171.56,32.62v-13c0-.84,0-1.7-.05-2.57s-.12-1.74-.24-2.58h4.25l.5,4.68-.5-.25a5.62,5.62,0,0,1,2.12-3.63A6.13,6.13,0,0,1,181.39,14a8,8,0,0,1,1,.07,3.62,3.62,0,0,1,.82.22l-.07,4.1a6.07,6.07,0,0,0-2.37-.46,4.91,4.91,0,0,0-2.65.64,4.23,4.23,0,0,0-1.55,1.75,5.63,5.63,0,0,0-.52,2.47v9.82Z"/><path class="cls-1" d="M192.19,32.88a12.38,12.38,0,0,1-7.85-2.27l1.26-3.17a10.48,10.48,0,0,0,3.13,1.62,11.57,11.57,0,0,0,3.53.54,4.82,4.82,0,0,0,2.52-.54,1.68,1.68,0,0,0,.86-1.51,1.6,1.6,0,0,0-.61-1.32,5.71,5.71,0,0,0-2.09-.84l-3-.69a7.22,7.22,0,0,1-3.73-1.81A4.53,4.53,0,0,1,185,19.63a4.82,4.82,0,0,1,.94-2.94,6.12,6.12,0,0,1,2.63-2,9.9,9.9,0,0,1,3.92-.72,11.71,11.71,0,0,1,3.74.59,9.61,9.61,0,0,1,3.14,1.71l-1.3,3.1a10,10,0,0,0-2.79-1.55,8.34,8.34,0,0,0-2.83-.51,4.36,4.36,0,0,0-2.41.58,1.81,1.81,0,0,0-.86,1.58,1.59,1.59,0,0,0,.52,1.26,4,4,0,0,0,1.82.76l3.06.76a7.6,7.6,0,0,1,3.94,1.85,4.61,4.61,0,0,1,1.24,3.37,4.62,4.62,0,0,1-2,3.94A9.26,9.26,0,0,1,192.19,32.88Z"/><path class="cls-2" d="M34.67,20.28l-10.25.86H22.59a1.43,1.43,0,0,1,0-2.85h1.84l10.24.86Z"/><path class="cls-3" d="M27.58,18.29l-.85,2.85H24.42V18.29Z"/><path class="cls-4" d="M33.32,22.15l-4.9.86h-.84a.85.85,0,0,1-.85-.86V17.28a.85.85,0,0,1,.85-.86h.84l4.9.86Z"/><path class="cls-5" d="M31.5,16.42,29.79,23H28.42V16.42Z"/><path class="cls-6" d="M50.63,38.14H37.8l1.66-5.94H49Z"/><path class="cls-7" d="M52.34,38.14H49.78L48.12,32.2h2.56Z"/><path class="cls-8" d="M54,39.87H34.58a1.34,1.34,0,0,1,0-2.68H54a1.34,1.34,0,0,1,0,2.68Z"/><path class="cls-6" d="M39.91,2.2h8.67v8.07H39.91Z"/><path class="cls-7" d="M47.73,2.2h2.56v8.07H47.73Z"/><path class="cls-8" d="M50.19,4H38.39a1.25,1.25,0,0,1-1.24-1.25A2.72,2.72,0,0,1,39.87,0h8.84a2.72,2.72,0,0,1,2.72,2.72A1.24,1.24,0,0,1,50.19,4Z"/><path class="cls-8" d="M53.23,32.37h-18a3.85,3.85,0,0,1-3.85-3.85V10.91a3.85,3.85,0,0,1,3.85-3.85h18a3,3,0,0,1,3,3V29.37A3,3,0,0,1,53.23,32.37Z"/><path class="cls-2" d="M60.69,25.43H59.47a2.14,2.14,0,0,1-2.14-2.14V16.14A2.14,2.14,0,0,1,59.47,14h1.22a2.14,2.14,0,0,1,2.14,2.14v7.15A2.14,2.14,0,0,1,60.69,25.43Z"/><path class="cls-3" d="M63.69,16.14v7.15a2.14,2.14,0,0,1-2.14,2.14H59.84A2.13,2.13,0,0,0,62,23.29V16.14A2.13,2.13,0,0,0,59.84,14h1.71a2.14,2.14,0,0,1,2.14,2.14Z"/><path class="cls-9" d="M55.18,14H32.86a.64.64,0,0,1-.64-.64.64.64,0,0,1,.64-.64H55.18a.64.64,0,0,1,.64.64A.64.64,0,0,1,55.18,14Z"/><path class="cls-9" d="M54.28,20.36H33.86a.65.65,0,0,1,0-1.29H54.28a.65.65,0,1,1,0,1.29Z"/><path class="cls-9" d="M54.07,26.68H33.86a.64.64,0,0,1-.64-.64.64.64,0,0,1,.64-.64H54.07a.64.64,0,0,1,.64.64A.64.64,0,0,1,54.07,26.68Z"/><path class="cls-10" d="M58.11,10.06V29.37a3,3,0,0,1-3,3H52.64V7.06h2.48a3,3,0,0,1,3,3Z"/><path class="cls-11" d="M60.51,10.06V29.37a3,3,0,0,1-3,3H54.33a3,3,0,0,0,3-3V10.06a3,3,0,0,0-3-3h3.18a3,3,0,0,1,3,3Z"/><path class="cls-12" d="M56.68,12.4a.64.64,0,0,1-.64-.64.65.65,0,1,1,.64.64Z"/><path class="cls-12" d="M56.68,28.73a.64.64,0,0,1-.64-.64.65.65,0,1,1,.64.64Z"/><path class="cls-13" d="M55.72,37.19H53.15a1.34,1.34,0,1,1,0,2.68h2.57a1.34,1.34,0,0,0,0-2.68Z"/><path class="cls-14" d="M50.43,0H47.86a2.72,2.72,0,0,1,2.72,2.72A1.25,1.25,0,0,1,49.33,4H51.9a1.24,1.24,0,0,0,1.24-1.25A2.71,2.71,0,0,0,50.43,0Z"/><path class="cls-10" d="M35.07,7.06V32.37H33.64a3.85,3.85,0,0,1-3.85-3.85V10.91a3.85,3.85,0,0,1,3.85-3.85Z"/><rect class="cls-15" width="595.28" height="18"/></g></g></svg>