<svg xmlns="http://www.w3.org/2000/svg" viewBox="0 0 595.39 26"><defs><style>.cls-1{fill:none;}.cls-2{fill:#167b9e;}.cls-3{fill:#1398c4;}.cls-4{fill:#5eb7d6;}.cls-5{isolation:isolate;}.cls-6{fill:#fff;}.cls-7{opacity:0.6;}.cls-8{fill:#010101;}</style></defs><g id="Layer_2" data-name="Layer 2"><g id="Layer_1-2" data-name="Layer 1"><rect class="cls-1" x="0.12" width="595.28" height="18"/><path class="cls-2" d="M9.12,1H299.85V26H9.12V21c0-10-8,8-8-7.5s8,2.5,8-7.5Z"/><path class="cls-3" d="M8.12,0H298.85V25H8.12V20c0-10-8,8-8-7.5s8,2.5,8-7.5Z"/><path class="cls-4" d="M9.12,24.5h-1v-6h1ZM.77,18.13a20.9,20.9,0,0,1,0-11.26l1,.26a19.79,19.79,0,0,0,0,10.74ZM9.12,8h-1V0H298.35V1H9.12Z"/><g class="cls-5"><path class="cls-6" d="M25.93,17.5h-1.2v-2l.18.16a2.5,2.5,0,0,1-1,1.45,2.91,2.91,0,0,1-1.76.52,3.22,3.22,0,0,1-1.75-.49,3.31,3.31,0,0,1-1.17-1.38,4.86,4.86,0,0,1-.42-2.08,4.66,4.66,0,0,1,.41-2.05,3.12,3.12,0,0,1,1.17-1.36,3.28,3.28,0,0,1,1.76-.47,3,3,0,0,1,1.76.51,2.56,2.56,0,0,1,1,1.45l-.19.15V6.46h1.21Zm-3.51-.9a2,2,0,0,0,1.7-.76,3.32,3.32,0,0,0,.61-2.15,3.38,3.38,0,0,0-.6-2.14,2.06,2.06,0,0,0-1.71-.75,2.12,2.12,0,0,0-1.73.75,3.18,3.18,0,0,0-.62,2.11,3.36,3.36,0,0,0,.62,2.17A2.1,2.1,0,0,0,22.42,16.6Z"/><path class="cls-6" d="M34.47,16.6a3.56,3.56,0,0,1-1.27.73,4.78,4.78,0,0,1-1.58.28,4.13,4.13,0,0,1-2-.47,3.19,3.19,0,0,1-1.31-1.34,4.57,4.57,0,0,1-.45-2.09,4.47,4.47,0,0,1,.45-2.06,3.34,3.34,0,0,1,1.25-1.38,3.43,3.43,0,0,1,1.85-.49,3.2,3.2,0,0,1,1.73.44,2.89,2.89,0,0,1,1.1,1.26,4.84,4.84,0,0,1,.38,2v.22H28.9v-.8h5l-.39.56a3.11,3.11,0,0,0-.52-2,1.9,1.9,0,0,0-1.59-.7,2.1,2.1,0,0,0-1.72.77,3.31,3.31,0,0,0-.62,2.14,3.27,3.27,0,0,0,.65,2.22,2.39,2.39,0,0,0,1.91.75,3.65,3.65,0,0,0,1.27-.22,4.11,4.11,0,0,0,1.16-.66Z"/><path class="cls-6" d="M35.34,10.91V10h4.84v.95Zm4.81,5.51v1l-.5.11a4.58,4.58,0,0,1-.55,0A2.3,2.3,0,0,1,37.43,17a2.35,2.35,0,0,1-.62-1.79V8L38,7.58V15a2.11,2.11,0,0,0,.17.93,1,1,0,0,0,.48.46,1.78,1.78,0,0,0,.67.13,2.54,2.54,0,0,0,.41,0Z"/><path class="cls-6" d="M47.83,16.6a3.48,3.48,0,0,1-1.27.73,4.74,4.74,0,0,1-1.58.28,4.16,4.16,0,0,1-2-.47,3.17,3.17,0,0,1-1.3-1.34,4.44,4.44,0,0,1-.46-2.09,4.47,4.47,0,0,1,.45-2.06,3.41,3.41,0,0,1,1.25-1.38,3.49,3.49,0,0,1,1.86-.49,3.17,3.17,0,0,1,1.72.44,2.82,2.82,0,0,1,1.1,1.26,4.68,4.68,0,0,1,.39,2v.22h-5.7v-.8h5l-.39.56a3.17,3.17,0,0,0-.52-2,1.94,1.94,0,0,0-1.6-.7,2.11,2.11,0,0,0-1.72.77,3.36,3.36,0,0,0-.62,2.14,3.32,3.32,0,0,0,.65,2.22A2.42,2.42,0,0,0,45,16.6a3.56,3.56,0,0,0,1.26-.22,4,4,0,0,0,1.17-.66Z"/><path class="cls-6" d="M53,17.61a3.7,3.7,0,0,1-1.92-.48,3.29,3.29,0,0,1-1.26-1.35,4.57,4.57,0,0,1-.44-2.06,4.5,4.5,0,0,1,.45-2.06,3.31,3.31,0,0,1,1.28-1.39A3.72,3.72,0,0,1,53,9.78a4.07,4.07,0,0,1,1.47.26,3.22,3.22,0,0,1,1.18.72l-.4.9A5.3,5.3,0,0,0,54.2,11a3,3,0,0,0-1.1-.21,2.27,2.27,0,0,0-1.81.76,3.16,3.16,0,0,0-.67,2.16,3.12,3.12,0,0,0,.66,2.13,2.3,2.3,0,0,0,1.82.75,2.79,2.79,0,0,0,1.09-.22,4.4,4.4,0,0,0,1.1-.65l.4.9a3.34,3.34,0,0,1-1.21.71A4.24,4.24,0,0,1,53,17.61Z"/><path class="cls-6" d="M56.19,10.91V10H61v.95ZM61,16.42v1l-.5.11a4.58,4.58,0,0,1-.55,0A2.3,2.3,0,0,1,58.28,17a2.35,2.35,0,0,1-.62-1.79V8l1.21-.44V15A2.11,2.11,0,0,0,59,16a1,1,0,0,0,.48.46,1.78,1.78,0,0,0,.67.13,2.54,2.54,0,0,0,.41,0Z"/><path class="cls-6" d="M66.42,17.5V12.07c0-.35,0-.7,0-1.06a9.3,9.3,0,0,0-.09-1h1.15l.14,1.55-.15.11a2.56,2.56,0,0,1,.93-1.37A2.74,2.74,0,0,1,70,9.78a2.53,2.53,0,0,1,1.7.53A2.7,2.7,0,0,1,72.43,12l-.36-.2a2.56,2.56,0,0,1,1-1.46,2.91,2.91,0,0,1,1.75-.53,2.29,2.29,0,0,1,1.87.74,3.38,3.38,0,0,1,.63,2.24V17.5H76.08V12.82a2.54,2.54,0,0,0-.38-1.54,1.4,1.4,0,0,0-1.18-.48,1.87,1.87,0,0,0-1.5.64,2.66,2.66,0,0,0-.54,1.76v4.3H71.26V12.82a2.54,2.54,0,0,0-.38-1.54,1.43,1.43,0,0,0-1.19-.48,1.87,1.87,0,0,0-1.51.64,2.61,2.61,0,0,0-.55,1.76v4.3Z"/><path class="cls-6" d="M82.72,17.61a3.58,3.58,0,0,1-1.88-.48,3.29,3.29,0,0,1-1.25-1.36,4.65,4.65,0,0,1-.44-2.08,4.64,4.64,0,0,1,.44-2.07,3.26,3.26,0,0,1,1.25-1.37,4,4,0,0,1,3.76,0,3.26,3.26,0,0,1,1.25,1.37,4.64,4.64,0,0,1,.44,2.07,4.65,4.65,0,0,1-.44,2.08,3.29,3.29,0,0,1-1.25,1.36A3.58,3.58,0,0,1,82.72,17.61Zm0-1a2.12,2.12,0,0,0,1.72-.74,3.4,3.4,0,0,0,.61-2.17,3.29,3.29,0,0,0-.62-2.14,2.09,2.09,0,0,0-1.71-.75,2.12,2.12,0,0,0-1.72.75,3.29,3.29,0,0,0-.62,2.14A3.34,3.34,0,0,0,81,15.86,2.11,2.11,0,0,0,82.72,16.6Z"/><path class="cls-6" d="M87.1,10.91V10H92v.95Zm4.82,5.51v1l-.51.11a4.26,4.26,0,0,1-.54,0A2.34,2.34,0,0,1,89.19,17a2.39,2.39,0,0,1-.62-1.79V8l1.22-.44V15A2,2,0,0,0,90,16a1,1,0,0,0,.47.46,1.83,1.83,0,0,0,.68.13,2.41,2.41,0,0,0,.4,0Z"/><path class="cls-6" d="M93.3,6.76h1.48V8.14H93.3Zm.12,10.74V10h1.21V17.5Z"/><path class="cls-6" d="M100.11,17.61a3.64,3.64,0,0,1-1.89-.48A3.27,3.27,0,0,1,97,15.77a4.52,4.52,0,0,1-.44-2.08A4.51,4.51,0,0,1,97,11.62a3.24,3.24,0,0,1,1.24-1.37,3.73,3.73,0,0,1,1.89-.47,3.69,3.69,0,0,1,1.88.47,3.24,3.24,0,0,1,1.24,1.37,4.51,4.51,0,0,1,.45,2.07,4.52,4.52,0,0,1-.45,2.08A3.27,3.27,0,0,1,102,17.13,3.6,3.6,0,0,1,100.11,17.61Zm0-1a2.08,2.08,0,0,0,1.71-.74,3.34,3.34,0,0,0,.61-2.17,3.29,3.29,0,0,0-.61-2.14,2.34,2.34,0,0,0-3.43,0,3.23,3.23,0,0,0-.62,2.14,3.4,3.4,0,0,0,.6,2.17A2.15,2.15,0,0,0,100.11,16.6Z"/><path class="cls-6" d="M105.57,17.5V12.07c0-.35,0-.7,0-1.06a9.3,9.3,0,0,0-.09-1h1.15l.14,1.55-.15.13a2.58,2.58,0,0,1,1-1.39,3,3,0,0,1,1.69-.47c1.81,0,2.72,1,2.72,3V17.5h-1.22V12.82a2.34,2.34,0,0,0-.42-1.54,1.67,1.67,0,0,0-1.32-.48,2.24,2.24,0,0,0-1.68.64,2.38,2.38,0,0,0-.63,1.74V17.5Z"/></g><g class="cls-5"><path class="cls-6" d="M121.16,10.91V10H126v.95ZM126,16.42v1l-.5.11a4.58,4.58,0,0,1-.55,0,2.3,2.3,0,0,1-1.67-.61,2.35,2.35,0,0,1-.62-1.79V8l1.21-.44V15A2.11,2.11,0,0,0,124,16a1,1,0,0,0,.48.46,1.78,1.78,0,0,0,.67.13,2.54,2.54,0,0,0,.41,0Z"/><path class="cls-6" d="M127.47,17.5v-11h1.22v5l-.2.16a2.58,2.58,0,0,1,1-1.39,3,3,0,0,1,1.7-.47c1.81,0,2.71,1,2.71,3V17.5h-1.21V12.82a2.34,2.34,0,0,0-.42-1.54A1.67,1.67,0,0,0,131,10.8a2.24,2.24,0,0,0-1.68.64,2.38,2.38,0,0,0-.63,1.74V17.5Z"/><path class="cls-6" d="M136.25,17.5V12.07c0-.35,0-.7,0-1.06a9.3,9.3,0,0,0-.09-1h1.15l.17,1.85-.17,0a2.32,2.32,0,0,1,.91-1.49,2.58,2.58,0,0,1,1.57-.5,2.06,2.06,0,0,1,.36,0,1.14,1.14,0,0,1,.33.07l0,1.11a2.21,2.21,0,0,0-.8-.12,2.06,2.06,0,0,0-1.25.34,1.92,1.92,0,0,0-.69.88,2.83,2.83,0,0,0-.22,1.12v4.3Z"/><path class="cls-6" d="M147.71,16.6a3.56,3.56,0,0,1-1.27.73,4.78,4.78,0,0,1-1.58.28,4.13,4.13,0,0,1-2-.47,3.19,3.19,0,0,1-1.31-1.34,4.57,4.57,0,0,1-.45-2.09,4.47,4.47,0,0,1,.45-2.06,3.34,3.34,0,0,1,1.25-1.38,3.43,3.43,0,0,1,1.85-.49,3.2,3.2,0,0,1,1.73.44,2.89,2.89,0,0,1,1.1,1.26,4.84,4.84,0,0,1,.38,2v.22h-5.7v-.8h5l-.39.56a3.11,3.11,0,0,0-.52-2,1.9,1.9,0,0,0-1.59-.7,2.1,2.1,0,0,0-1.72.77,3.31,3.31,0,0,0-.62,2.14,3.27,3.27,0,0,0,.65,2.22,2.39,2.39,0,0,0,1.91.75,3.65,3.65,0,0,0,1.27-.22,4.11,4.11,0,0,0,1.16-.66Z"/><path class="cls-6" d="M152.24,17.61a4.42,4.42,0,0,1-3-1l.41-.9a4.18,4.18,0,0,0,1.23.68,4.27,4.27,0,0,0,1.42.22,2.43,2.43,0,0,0,1.3-.29,1,1,0,0,0,.44-.85.89.89,0,0,0-.3-.71,2.3,2.3,0,0,0-1-.43l-1.27-.3A2.86,2.86,0,0,1,150,13.3a1.81,1.81,0,0,1-.51-1.29,1.93,1.93,0,0,1,.36-1.16,2.34,2.34,0,0,1,1-.79,3.77,3.77,0,0,1,1.53-.28,4.37,4.37,0,0,1,1.5.25,3.32,3.32,0,0,1,1.19.73l-.41.89a4.17,4.17,0,0,0-1.1-.67,3.38,3.38,0,0,0-1.18-.22,2.12,2.12,0,0,0-1.25.32,1,1,0,0,0-.44.85,1,1,0,0,0,.27.74,2,2,0,0,0,.9.42l1.27.31a3.08,3.08,0,0,1,1.57.75,1.81,1.81,0,0,1,.5,1.31A1.84,1.84,0,0,1,154.4,17,3.59,3.59,0,0,1,152.24,17.61Z"/><path class="cls-6" d="M157.13,17.5v-11h1.21v5l-.19.16a2.58,2.58,0,0,1,1-1.39,3,3,0,0,1,1.69-.47c1.81,0,2.72,1,2.72,3V17.5h-1.22V12.82a2.34,2.34,0,0,0-.42-1.54,1.67,1.67,0,0,0-1.32-.48,2.24,2.24,0,0,0-1.68.64,2.38,2.38,0,0,0-.63,1.74V17.5Z"/><path class="cls-6" d="M169,17.61a3.58,3.58,0,0,1-1.88-.48,3.29,3.29,0,0,1-1.25-1.36,4.65,4.65,0,0,1-.44-2.08,4.64,4.64,0,0,1,.44-2.07,3.26,3.26,0,0,1,1.25-1.37,4,4,0,0,1,3.76,0,3.26,3.26,0,0,1,1.25,1.37,4.64,4.64,0,0,1,.44,2.07,4.65,4.65,0,0,1-.44,2.08,3.29,3.29,0,0,1-1.25,1.36A3.58,3.58,0,0,1,169,17.61Zm0-1a2.12,2.12,0,0,0,1.72-.74,3.4,3.4,0,0,0,.61-2.17,3.29,3.29,0,0,0-.62-2.14A2.09,2.09,0,0,0,169,10.8a2.12,2.12,0,0,0-1.72.75,3.29,3.29,0,0,0-.62,2.14,3.34,3.34,0,0,0,.61,2.17A2.11,2.11,0,0,0,169,16.6Z"/><path class="cls-6" d="M174.48,17.5v-11h1.22v11Z"/><path class="cls-6" d="M184.7,17.5h-1.2v-2l.18.16a2.51,2.51,0,0,1-1,1.45,2.88,2.88,0,0,1-1.75.52,3.17,3.17,0,0,1-1.75-.49A3.26,3.26,0,0,1,178,15.74a4.86,4.86,0,0,1-.42-2.08,4.81,4.81,0,0,1,.41-2.05,3.25,3.25,0,0,1,1.17-1.36A3.34,3.34,0,0,1,181,9.78a2.94,2.94,0,0,1,1.75.51,2.58,2.58,0,0,1,1,1.45l-.2.15V6.46h1.22Zm-3.51-.9a2.06,2.06,0,0,0,1.7-.76,3.38,3.38,0,0,0,.61-2.15,3.38,3.38,0,0,0-.6-2.14,2.08,2.08,0,0,0-1.71-.75,2.15,2.15,0,0,0-1.74.75,3.24,3.24,0,0,0-.62,2.11,3.42,3.42,0,0,0,.62,2.17A2.13,2.13,0,0,0,181.19,16.6Z"/></g><g class="cls-7"><rect class="cls-6" x="189.43" y="5" width="18.8" height="16" rx="4"/></g><g class="cls-5"><path class="cls-8" d="M199.1,17.61a5.35,5.35,0,0,1-1.92-.36,4.51,4.51,0,0,1-1.59-1l.46-.95a5.68,5.68,0,0,0,1.5.91,3.81,3.81,0,0,0,1.55.32,2.35,2.35,0,0,0,1.76-.64,2.31,2.31,0,0,0,.64-1.73,2.61,2.61,0,0,0-.29-1.24,2.06,2.06,0,0,0-.8-.83,2.37,2.37,0,0,0-1.22-.3,2.91,2.91,0,0,0-1.37.31,3,3,0,0,0-1.08.93h-.85V6.82h6.4v1h-5.17v4.32l-.39,0a2.94,2.94,0,0,1,1.12-1,3.31,3.31,0,0,1,1.53-.34,3.56,3.56,0,0,1,1.77.42,3,3,0,0,1,1.16,1.19,3.75,3.75,0,0,1,.4,1.77,3.43,3.43,0,0,1-.44,1.78A3,3,0,0,1,201,17.17,4,4,0,0,1,199.1,17.61Z"/></g><g class="cls-5"><path class="cls-6" d="M221.05,17.5h-1.2v-2l.18.16a2.51,2.51,0,0,1-1,1.45,2.88,2.88,0,0,1-1.75.52,3.22,3.22,0,0,1-1.75-.49,3.33,3.33,0,0,1-1.18-1.38,4.86,4.86,0,0,1-.42-2.08,4.66,4.66,0,0,1,.42-2.05,3.12,3.12,0,0,1,1.17-1.36,3.28,3.28,0,0,1,1.76-.47,2.94,2.94,0,0,1,1.75.51,2.58,2.58,0,0,1,1,1.45l-.2.15V6.46h1.22Zm-3.51-.9a2,2,0,0,0,1.7-.76,3.32,3.32,0,0,0,.61-2.15,3.38,3.38,0,0,0-.6-2.14,2.06,2.06,0,0,0-1.71-.75,2.12,2.12,0,0,0-1.73.75,3.18,3.18,0,0,0-.63,2.11,3.36,3.36,0,0,0,.63,2.17A2.1,2.1,0,0,0,217.54,16.6Z"/><path class="cls-6" d="M226.07,17.61a2.61,2.61,0,0,1-2-.75,3.22,3.22,0,0,1-.68-2.22V10h1.21v4.65a2.24,2.24,0,0,0,.42,1.5,1.65,1.65,0,0,0,1.28.47,2.13,2.13,0,0,0,1.62-.64,2.4,2.4,0,0,0,.61-1.72V10h1.22V17.5h-1.19V15.87l.18-.09a2.48,2.48,0,0,1-1,1.36A2.91,2.91,0,0,1,226.07,17.61Z"/><path class="cls-6" d="M232.06,17.5V12.07c0-.35,0-.7,0-1.06s0-.7-.1-1h1.15l.17,1.85-.17,0a2.36,2.36,0,0,1,.91-1.49,2.6,2.6,0,0,1,1.57-.5,2.23,2.23,0,0,1,.37,0,1.14,1.14,0,0,1,.32.07l0,1.11a2.21,2.21,0,0,0-.8-.12,1.92,1.92,0,0,0-1.94,1.22,3,3,0,0,0-.22,1.12v4.3Z"/><path class="cls-6" d="M240.23,17.61a3.23,3.23,0,0,1-1.76-.48,3.11,3.11,0,0,1-1.17-1.35,4.85,4.85,0,0,1-.41-2.06,4.78,4.78,0,0,1,.42-2.07,3.26,3.26,0,0,1,1.18-1.38,3.08,3.08,0,0,1,1.74-.49,3,3,0,0,1,1.76.51,2.5,2.5,0,0,1,1,1.45l-.18.12V10H244V17.5h-1.2V15.55l.18.09a2.5,2.5,0,0,1-1,1.45A2.91,2.91,0,0,1,240.23,17.61Zm.24-1a2,2,0,0,0,1.71-.76,3.38,3.38,0,0,0,.6-2.15,3.35,3.35,0,0,0-.6-2.14,2.33,2.33,0,0,0-3.44,0,3.36,3.36,0,0,0-.62,2.15,3.28,3.28,0,0,0,.62,2.13A2.13,2.13,0,0,0,240.47,16.6Z"/><path class="cls-6" d="M245.27,10.91V10h4.85v.95Zm4.82,5.51v1l-.5.11a4.58,4.58,0,0,1-.55,0,2.3,2.3,0,0,1-1.67-.61,2.35,2.35,0,0,1-.63-1.79V8L248,7.58V15a2.11,2.11,0,0,0,.17.93,1,1,0,0,0,.47.46,1.83,1.83,0,0,0,.68.13,2.41,2.41,0,0,0,.4,0Z"/><path class="cls-6" d="M251.47,6.76H253V8.14h-1.48Zm.12,10.74V10h1.21V17.5Z"/><path class="cls-6" d="M258.28,17.61a3.58,3.58,0,0,1-1.88-.48,3.29,3.29,0,0,1-1.25-1.36,4.65,4.65,0,0,1-.44-2.08,4.64,4.64,0,0,1,.44-2.07,3.26,3.26,0,0,1,1.25-1.37,4,4,0,0,1,3.76,0,3.26,3.26,0,0,1,1.25,1.37,4.64,4.64,0,0,1,.44,2.07,4.65,4.65,0,0,1-.44,2.08,3.29,3.29,0,0,1-1.25,1.36A3.58,3.58,0,0,1,258.28,17.61Zm0-1a2.12,2.12,0,0,0,1.72-.74,3.4,3.4,0,0,0,.6-2.17,3.29,3.29,0,0,0-.61-2.14,2.09,2.09,0,0,0-1.71-.75,2.12,2.12,0,0,0-1.72.75,3.29,3.29,0,0,0-.62,2.14,3.34,3.34,0,0,0,.61,2.17A2.11,2.11,0,0,0,258.28,16.6Z"/><path class="cls-6" d="M263.74,17.5V12.07c0-.35,0-.7,0-1.06s-.05-.7-.1-1h1.15l.14,1.55-.15.13a2.58,2.58,0,0,1,1.05-1.39,3,3,0,0,1,1.69-.47c1.81,0,2.72,1,2.72,3V17.5H269V12.82a2.34,2.34,0,0,0-.42-1.54,1.67,1.67,0,0,0-1.32-.48,2.24,2.24,0,0,0-1.68.64,2.38,2.38,0,0,0-.63,1.74V17.5Z"/></g><g class="cls-7"><rect class="cls-6" x="275.05" y="5" width="18.8" height="16" rx="4"/></g><g class="cls-5"><path class="cls-8" d="M281.3,17.5v-.93L285,12.43a7.29,7.29,0,0,0,1.1-1.52,2.91,2.91,0,0,0,.34-1.35A1.75,1.75,0,0,0,286,8.21a2,2,0,0,0-1.45-.48A4.1,4.1,0,0,0,283,8a6.13,6.13,0,0,0-1.5.93L281,8a4.63,4.63,0,0,1,1.59-1,5.5,5.5,0,0,1,1.94-.36,3.79,3.79,0,0,1,1.68.34,2.49,2.49,0,0,1,1.11,1,2.79,2.79,0,0,1,.39,1.5,3.94,3.94,0,0,1-.42,1.77,8.09,8.09,0,0,1-1.37,1.89l-3.6,3.9-.09-.59h5.93v1Z"/></g></g></g></svg>