<svg xmlns="http://www.w3.org/2000/svg" viewBox="0 0 595.28 42.52"><defs><style>.cls-1{fill:#231f20;}.cls-2{fill:#ff5100;}.cls-3{fill:#555058;}.cls-4{fill:#464146;}.cls-5{fill:#1398c4;}.cls-6{fill:#1d809b;}.cls-7{fill:#c4c3c7;}.cls-8{fill:none;}</style></defs><g id="Layer_2" data-name="Layer 2"><g id="Layer_1-2" data-name="Layer 1"><path class="cls-1" d="M95.13,34.36A20.06,20.06,0,0,1,91.35,34,16,16,0,0,1,88,33a11.69,11.69,0,0,1-2.76-1.66L86.78,28a13.75,13.75,0,0,0,4,2.08,14.15,14.15,0,0,0,4.43.65,7.67,7.67,0,0,0,4.12-.93,3,3,0,0,0,1.46-2.63,2.34,2.34,0,0,0-.65-1.68,5.12,5.12,0,0,0-1.94-1.13,28.93,28.93,0,0,0-3.21-.9,26,26,0,0,1-4-1.06,10.78,10.78,0,0,1-2.88-1.5,5.68,5.68,0,0,1-1.75-2.07,6.32,6.32,0,0,1-.59-2.86,6.88,6.88,0,0,1,1.22-4A8,8,0,0,1,90.4,9.15a12.63,12.63,0,0,1,5.2-1,17,17,0,0,1,3.51.36,14.91,14.91,0,0,1,3.15,1,9.38,9.38,0,0,1,2.48,1.64l-1.58,3.38a12.41,12.41,0,0,0-3.6-2.07,11.73,11.73,0,0,0-3.92-.66,6.69,6.69,0,0,0-3.93,1,3.22,3.22,0,0,0-1.44,2.8,2.51,2.51,0,0,0,.6,1.73,4.34,4.34,0,0,0,1.83,1.15,25.64,25.64,0,0,0,3.19.94,31.86,31.86,0,0,1,4,1.08,12.46,12.46,0,0,1,3,1.46,5.42,5.42,0,0,1,2.48,4.8,6.76,6.76,0,0,1-1.22,4,7.81,7.81,0,0,1-3.51,2.63A14.72,14.72,0,0,1,95.13,34.36Z"/><path class="cls-1" d="M124.94,32.06a9.12,9.12,0,0,1-3.19,1.67,12.6,12.6,0,0,1-3.83.6,10.77,10.77,0,0,1-5.09-1.12,7.7,7.7,0,0,1-3.3-3.24,10.37,10.37,0,0,1-1.15-5A10.62,10.62,0,0,1,109.49,20a8.43,8.43,0,0,1,3.1-3.35,8.66,8.66,0,0,1,4.57-1.2,8.07,8.07,0,0,1,4.32,1.1,7.28,7.28,0,0,1,2.79,3.15,11,11,0,0,1,1,4.86v.68H112.34l0-2.41H122.6L121.37,24a6.21,6.21,0,0,0-1-4,3.64,3.64,0,0,0-3.08-1.37,4,4,0,0,0-3.35,1.53,7,7,0,0,0-1.18,4.37,7.13,7.13,0,0,0,1.33,4.77,5,5,0,0,0,4,1.53,9,9,0,0,0,2.9-.48A9.15,9.15,0,0,0,123.64,29Z"/><path class="cls-1" d="M129,34.08V21c0-.86,0-1.72,0-2.59s-.12-1.71-.24-2.55H133l.4,3.6-.4.1a6.59,6.59,0,0,1,2.58-3.11,7.29,7.29,0,0,1,3.94-1.06q6.48,0,6.48,7.49V34.08h-4.5v-11a4.83,4.83,0,0,0-.83-3.12,3.13,3.13,0,0,0-2.55-1,4.37,4.37,0,0,0-3.34,1.32,4.86,4.86,0,0,0-1.24,3.47v10.3Z"/><path class="cls-1" d="M157.41,34.33a12.38,12.38,0,0,1-7.85-2.27l1.26-3.17A10.6,10.6,0,0,0,154,30.51a11.57,11.57,0,0,0,3.53.54,4.77,4.77,0,0,0,2.52-.54,1.68,1.68,0,0,0,.87-1.51,1.58,1.58,0,0,0-.62-1.31,5.46,5.46,0,0,0-2.08-.85l-3-.68a7.19,7.19,0,0,1-3.72-1.82,4.48,4.48,0,0,1-1.25-3.26,4.86,4.86,0,0,1,.94-2.93,6.06,6.06,0,0,1,2.63-2,9.93,9.93,0,0,1,3.92-.72,12.06,12.06,0,0,1,3.75.59,9.57,9.57,0,0,1,3.13,1.71l-1.3,3.1a10.21,10.21,0,0,0-2.79-1.55,8.31,8.31,0,0,0-2.82-.5,4.37,4.37,0,0,0-2.42.57,1.82,1.82,0,0,0-.86,1.59,1.62,1.62,0,0,0,.52,1.26,4.18,4.18,0,0,0,1.82.75l3.06.76a7.6,7.6,0,0,1,3.94,1.85,4.62,4.62,0,0,1,1.24,3.37,4.62,4.62,0,0,1-2,3.94A9.26,9.26,0,0,1,157.41,34.33Z"/><path class="cls-1" d="M177,34.33a10,10,0,0,1-4.91-1.15,7.89,7.89,0,0,1-3.19-3.26,10.66,10.66,0,0,1-1.12-5,10.81,10.81,0,0,1,1.12-5,7.85,7.85,0,0,1,3.19-3.29A9.9,9.9,0,0,1,177,15.43a9.76,9.76,0,0,1,4.84,1.15,8,8,0,0,1,3.21,3.29,10.69,10.69,0,0,1,1.13,5,10.54,10.54,0,0,1-1.13,5,8.06,8.06,0,0,1-3.21,3.26A9.87,9.87,0,0,1,177,34.33Zm0-3.46a4.19,4.19,0,0,0,3.44-1.49,7.06,7.06,0,0,0,1.2-4.48,7,7,0,0,0-1.2-4.45A4.16,4.16,0,0,0,177,19a4.3,4.3,0,0,0-3.51,1.49,6.83,6.83,0,0,0-1.24,4.45,7,7,0,0,0,1.22,4.48A4.32,4.32,0,0,0,177,30.87Z"/><path class="cls-1" d="M190.06,34.08V21c0-.84,0-1.69-.05-2.57s-.12-1.73-.24-2.57H194l.51,4.68-.51-.26a5.61,5.61,0,0,1,2.13-3.63,6.1,6.1,0,0,1,3.74-1.23,6.36,6.36,0,0,1,1,.08,3.73,3.73,0,0,1,.83.21l-.08,4.11a5.9,5.9,0,0,0-2.37-.47,4.84,4.84,0,0,0-2.65.65,4.14,4.14,0,0,0-1.55,1.74,5.81,5.81,0,0,0-.52,2.47v9.83Z"/><path class="cls-1" d="M210.69,34.33a12.38,12.38,0,0,1-7.85-2.27l1.26-3.17a10.6,10.6,0,0,0,3.13,1.62,11.57,11.57,0,0,0,3.53.54,4.77,4.77,0,0,0,2.52-.54,1.68,1.68,0,0,0,.87-1.51,1.58,1.58,0,0,0-.62-1.31,5.46,5.46,0,0,0-2.08-.85l-3-.68a7.19,7.19,0,0,1-3.72-1.82,4.48,4.48,0,0,1-1.25-3.26,4.86,4.86,0,0,1,.94-2.93,6.06,6.06,0,0,1,2.63-2,9.93,9.93,0,0,1,3.92-.72,12.06,12.06,0,0,1,3.75.59,9.57,9.57,0,0,1,3.13,1.71l-1.3,3.1a10.21,10.21,0,0,0-2.79-1.55,8.31,8.31,0,0,0-2.82-.5,4.37,4.37,0,0,0-2.42.57,1.82,1.82,0,0,0-.86,1.59,1.62,1.62,0,0,0,.52,1.26A4.18,4.18,0,0,0,210,23l3.06.76A7.6,7.6,0,0,1,217,25.56a4.62,4.62,0,0,1,1.24,3.37,4.62,4.62,0,0,1-2,3.94A9.26,9.26,0,0,1,210.69,34.33Z"/><path class="cls-2" d="M46.05,25.77H38.8V22.14a3.63,3.63,0,0,1,7.25,0Z"/><path class="cls-2" d="M42.43,18.52a3.68,3.68,0,0,0-1.56.35,3.63,3.63,0,0,1,2.06,3.27v3.63h3.12V22.14a3.62,3.62,0,0,0-3.62-3.62Z"/><path class="cls-3" d="M53.41,33.86h-22V27a2.7,2.7,0,0,1,2.7-2.71H50.71A2.7,2.7,0,0,1,53.41,27Z"/><path class="cls-4" d="M50.71,24.3H47.09A2.7,2.7,0,0,1,49.79,27v3.92h3.62V27A2.7,2.7,0,0,0,50.71,24.3Z"/><path class="cls-5" d="M63.2,42.52H21.66v-6.3a5.28,5.28,0,0,1,5.28-5.29h31a5.29,5.29,0,0,1,5.29,5.29v6.3Z"/><path class="cls-6" d="M57.91,30.93H54.29a5.28,5.28,0,0,1,5.28,5.29v6.3H63.2v-6.3A5.29,5.29,0,0,0,57.91,30.93Z"/><path class="cls-2" d="M47,35.86h-.41a1.1,1.1,0,0,1,0-2.2H47a1.1,1.1,0,0,1,0,2.2Z"/><path class="cls-2" d="M46.83,35.86h-.41a1.1,1.1,0,0,1,0-2.2h.41a1.1,1.1,0,0,1,0,2.2Z"/><path class="cls-2" d="M51.91,35.86h-.42a1.1,1.1,0,0,1,0-2.2h.42a1.1,1.1,0,0,1,0,2.2Z"/><path class="cls-2" d="M57,35.86h-.41a1.1,1.1,0,0,1,0-2.2H57a1.1,1.1,0,0,1,0,2.2Z"/><path class="cls-7" d="M45.55,15.38a1.1,1.1,0,0,1-.78-.32,3.32,3.32,0,0,0-4.69,0,1.09,1.09,0,0,1-1.55,0,1.1,1.1,0,0,1,0-1.56,5.51,5.51,0,0,1,7.79,0,1.1,1.1,0,0,1,0,1.56,1.09,1.09,0,0,1-.77.32Z"/><path class="cls-7" d="M49.37,11.55a1.05,1.05,0,0,1-.77-.32,8.74,8.74,0,0,0-12.34,0,1.1,1.1,0,0,1-1.56,0,1.09,1.09,0,0,1,0-1.55,10.92,10.92,0,0,1,15.45,0,1.1,1.1,0,0,1-.78,1.87Z"/><path class="cls-7" d="M54,7a1.1,1.1,0,0,1-.78-.33,15.23,15.23,0,0,0-21.51,0,1.1,1.1,0,0,1-1.55-1.55,17.42,17.42,0,0,1,24.62,0,1.11,1.11,0,0,1,0,1.55A1.1,1.1,0,0,1,54,7Z"/><rect class="cls-8" width="595.28" height="18"/></g></g></svg>