<svg xmlns="http://www.w3.org/2000/svg" viewBox="0 0 595.39 26"><defs><style>.cls-1{fill:none;}.cls-2{fill:#167b9e;}.cls-3{fill:#1398c4;}.cls-4{fill:#5eb7d6;}.cls-5{isolation:isolate;}.cls-6{fill:#fff;}</style></defs><g id="Layer_2" data-name="Layer 2"><g id="Layer_1-2" data-name="Layer 1"><rect class="cls-1" x="0.12" width="595.28" height="18"/><path class="cls-2" d="M9.12,1H123.67V26H9.12V21c0-10-8,8-8-7.5s8,2.5,8-7.5Z"/><path class="cls-3" d="M8.12,0H122.67V25H8.12V20c0-10-8,8-8-7.5s8,2.5,8-7.5Z"/><path class="cls-4" d="M9.12,24.5h-1v-6h1ZM.77,18.13a20.9,20.9,0,0,1,0-11.26l1,.26a19.79,19.79,0,0,0,0,10.74ZM9.12,8h-1V0H122.17V1H9.12Z"/><g class="cls-5"><path class="cls-6" d="M22.6,20.84a5.52,5.52,0,0,1-3-.77l.21-1a6.55,6.55,0,0,0,1.34.58,5.15,5.15,0,0,0,1.42.18,2.16,2.16,0,0,0,1.64-.58,2.34,2.34,0,0,0,.57-1.71v-2l.16-.2a2.82,2.82,0,0,1-.56,1,2.58,2.58,0,0,1-.94.69,3.15,3.15,0,0,1-1.26.24,3.21,3.21,0,0,1-2.95-1.79,4.32,4.32,0,0,1-.42-2,4.36,4.36,0,0,1,.42-2,3.18,3.18,0,0,1,2.95-1.78,3,3,0,0,1,1.78.51,2.58,2.58,0,0,1,1,1.45l-.18-.16V10H26v7.48A3.42,3.42,0,0,1,25.14,20,3.45,3.45,0,0,1,22.6,20.84Zm-.15-4.58a2.17,2.17,0,0,0,1.72-.73,3,3,0,0,0,.62-2,3,3,0,0,0-.62-2,2.16,2.16,0,0,0-1.72-.72,2.23,2.23,0,0,0-1.75.72,3,3,0,0,0-.63,2,3,3,0,0,0,.63,2A2.26,2.26,0,0,0,22.45,16.26Z"/><path class="cls-6" d="M34.53,16.6a3.58,3.58,0,0,1-1.27.74,5,5,0,0,1-1.58.27,4.13,4.13,0,0,1-2-.47,3.19,3.19,0,0,1-1.31-1.34,4.57,4.57,0,0,1-.45-2.09,4.47,4.47,0,0,1,.45-2.06,3.34,3.34,0,0,1,1.25-1.38,3.43,3.43,0,0,1,1.85-.49,3.2,3.2,0,0,1,1.73.44,2.86,2.86,0,0,1,1.1,1.27,4.74,4.74,0,0,1,.38,2v.23H29v-.8h5l-.39.56a3.13,3.13,0,0,0-.52-2,1.9,1.9,0,0,0-1.59-.7,2.1,2.1,0,0,0-1.72.77,3.31,3.31,0,0,0-.62,2.14,3.27,3.27,0,0,0,.65,2.22,2.39,2.39,0,0,0,1.91.75A3.65,3.65,0,0,0,33,16.38a3.92,3.92,0,0,0,1.16-.67Z"/><path class="cls-6" d="M35.4,10.92V10h4.84v1Zm4.81,5.5v1a5,5,0,0,1-.5.11,4.58,4.58,0,0,1-.55,0,2.29,2.29,0,0,1-1.67-.6,2.37,2.37,0,0,1-.62-1.8V8l1.21-.43V15a2.11,2.11,0,0,0,.17.93,1,1,0,0,0,.48.46,1.78,1.78,0,0,0,.67.12,2.62,2.62,0,0,0,.41,0A2.73,2.73,0,0,0,40.21,16.42Z"/><path class="cls-6" d="M45.78,17.5V6.82h1l4.33,9.85h-.57l4.29-9.85h1V17.5H54.73V8.44l.47.06-3.93,9H50.4l-4-9,.49-.06,0,9.06Z"/><path class="cls-6" d="M58.74,17.5H57.46l4.7-10.68h1.08L67.93,17.5H66.67L62.49,7.72h.45Zm.72-2.74.43-1H65.5l.44,1Z"/><path class="cls-6" d="M73.89,17.62A5.58,5.58,0,0,1,71.13,17a4.31,4.31,0,0,1-1.75-1.88,6.47,6.47,0,0,1-.61-2.95,6.49,6.49,0,0,1,.61-2.93,4.31,4.31,0,0,1,1.74-1.87A5.42,5.42,0,0,1,73.8,6.7a5.82,5.82,0,0,1,2,.34,4.35,4.35,0,0,1,1.63,1L77,9a5.42,5.42,0,0,0-1.53-1,4.63,4.63,0,0,0-1.66-.29A3.5,3.5,0,0,0,71,8.88a4.93,4.93,0,0,0-1,3.26,4.88,4.88,0,0,0,1,3.31,3.61,3.61,0,0,0,2.88,1.14,7.68,7.68,0,0,0,1.52-.15,7,7,0,0,0,1.34-.38l-.3.63V12.91H73.83v-1h3.78v4.95a4.52,4.52,0,0,1-1,.4,11.73,11.73,0,0,1-1.31.25A10.66,10.66,0,0,1,73.89,17.62Z"/><path class="cls-6" d="M83.2,17.61a5.83,5.83,0,0,1-2-.35,4.56,4.56,0,0,1-1.61-1l.48-.95a5.29,5.29,0,0,0,1.49.92,4.15,4.15,0,0,0,1.6.31,2.57,2.57,0,0,0,1.73-.51,1.86,1.86,0,0,0,.6-1.5,1.79,1.79,0,0,0-.62-1.48A3,3,0,0,0,83,12.59H81.81v-1h1A2.81,2.81,0,0,0,84.61,11a1.84,1.84,0,0,0,.63-1.5,1.7,1.7,0,0,0-.52-1.34,2.1,2.1,0,0,0-1.46-.46,4.1,4.1,0,0,0-1.54.3A5.85,5.85,0,0,0,80.23,9L79.77,8a4.68,4.68,0,0,1,1.59-1,5.65,5.65,0,0,1,2-.35A3.85,3.85,0,0,1,85,7a2.5,2.5,0,0,1,1.1,1,2.74,2.74,0,0,1,.38,1.46A2.69,2.69,0,0,1,86,11.13a2.53,2.53,0,0,1-1.41,1l-.05-.16a2.85,2.85,0,0,1,1.65.92,2.68,2.68,0,0,1,.57,1.76,2.7,2.7,0,0,1-.94,2.19A3.82,3.82,0,0,1,83.2,17.61Z"/><path class="cls-6" d="M89.73,17.5v-1h6v1ZM92.08,17V7.54l.71.36-2.9,1.85V8.56l2.73-1.74h.71V17Z"/><path class="cls-6" d="M98.73,17.5v-1h6v1Zm2.35-.55V7.54l.71.36-2.9,1.85V8.56l2.73-1.74h.71V17Z"/><path class="cls-6" d="M110.31,17.62a3.17,3.17,0,0,1-2.79-1.39,7.22,7.22,0,0,1-1-4.07,7.22,7.22,0,0,1,1-4.07,3.5,3.5,0,0,1,5.58,0,7.2,7.2,0,0,1,.94,4.05,7.23,7.23,0,0,1-1,4.08A3.14,3.14,0,0,1,110.31,17.62Zm0-1a2,2,0,0,0,1.88-1.08,7.19,7.19,0,0,0,.61-3.37,7,7,0,0,0-.61-3.33,2,2,0,0,0-1.88-1.06,2,2,0,0,0-1.89,1.07,7,7,0,0,0-.6,3.32,7.21,7.21,0,0,0,.6,3.37A2,2,0,0,0,110.31,16.59Z"/></g></g></g></svg>