<svg xmlns="http://www.w3.org/2000/svg" viewBox="0 0 595.39 120.31"><defs><style>.cls-1{fill:none;}.cls-2{fill:#167b9e;}.cls-3{fill:#1398c4;}.cls-4{fill:#5eb7d6;}.cls-5{isolation:isolate;}.cls-6{fill:#fff;}.cls-7{opacity:0.6;}.cls-8{fill:#010101;}.cls-9{fill:#a6cde2;}</style></defs><g id="Layer_2" data-name="Layer 2"><g id="Layer_1-2" data-name="Layer 1"><rect class="cls-1" x="0.12" width="595.28" height="18"/><path class="cls-2" d="M9.12,1h256.8V26H9.12V21c0-10-8,8-8-7.5s8,2.5,8-7.5Z"/><path class="cls-3" d="M8.12,0h256.8V25H8.12V20c0-10-8,8-8-7.5s8,2.5,8-7.5Z"/><path class="cls-4" d="M9.12,24.5h-1v-6h1ZM.77,18.13a20.9,20.9,0,0,1,0-11.26l1,.26a19.79,19.79,0,0,0,0,10.74ZM9.12,8h-1V0h256.3V1H9.12Z"/><g class="cls-5"><path class="cls-6" d="M22.6,20.84a5.61,5.61,0,0,1-3-.77l.21-1a6.55,6.55,0,0,0,1.34.58,5.15,5.15,0,0,0,1.42.18,2.16,2.16,0,0,0,1.64-.58,2.35,2.35,0,0,0,.57-1.72v-2l.16-.19a2.82,2.82,0,0,1-.56,1,2.58,2.58,0,0,1-.94.69,3.15,3.15,0,0,1-1.26.24,3.21,3.21,0,0,1-2.95-1.79,4.32,4.32,0,0,1-.42-2,4.36,4.36,0,0,1,.42-2,3.18,3.18,0,0,1,2.95-1.78,3,3,0,0,1,1.78.51,2.58,2.58,0,0,1,1,1.45l-.18-.16V10H26v7.48A3.42,3.42,0,0,1,25.14,20,3.45,3.45,0,0,1,22.6,20.84Zm-.15-4.59a2.16,2.16,0,0,0,1.72-.72,3,3,0,0,0,.62-2,3,3,0,0,0-.62-2,2.17,2.17,0,0,0-1.72-.73,2.23,2.23,0,0,0-1.75.73,3,3,0,0,0-.63,2,3,3,0,0,0,.63,2A2.25,2.25,0,0,0,22.45,16.25Z"/><path class="cls-6" d="M34.53,16.6a3.42,3.42,0,0,1-1.27.73,4.78,4.78,0,0,1-1.58.28,4.13,4.13,0,0,1-2-.47,3.19,3.19,0,0,1-1.31-1.34,4.57,4.57,0,0,1-.45-2.09,4.47,4.47,0,0,1,.45-2.06,3.34,3.34,0,0,1,1.25-1.38,3.43,3.43,0,0,1,1.85-.49,3.2,3.2,0,0,1,1.73.44,2.86,2.86,0,0,1,1.1,1.27,4.74,4.74,0,0,1,.38,2v.23H29v-.8h5l-.39.56a3.13,3.13,0,0,0-.52-2,1.9,1.9,0,0,0-1.59-.7,2.1,2.1,0,0,0-1.72.77,3.31,3.31,0,0,0-.62,2.14,3.27,3.27,0,0,0,.65,2.22,2.39,2.39,0,0,0,1.91.75A3.65,3.65,0,0,0,33,16.38a3.92,3.92,0,0,0,1.16-.67Z"/><path class="cls-6" d="M35.4,10.92V10h4.84v1Zm4.81,5.5v1l-.5.11a4.58,4.58,0,0,1-.55,0A2.26,2.26,0,0,1,37.49,17a2.35,2.35,0,0,1-.62-1.79V8l1.21-.44V15a2.11,2.11,0,0,0,.17.93,1,1,0,0,0,.48.46,1.78,1.78,0,0,0,.67.12l.41,0Z"/><path class="cls-6" d="M45.63,17.5V12.07c0-.35,0-.7,0-1.06a9.1,9.1,0,0,0-.09-1h1.15l.14,1.55-.15.11a2.6,2.6,0,0,1,.93-1.37,2.74,2.74,0,0,1,1.59-.47,2.48,2.48,0,0,1,1.7.54A2.61,2.61,0,0,1,51.64,12l-.36-.19a2.5,2.5,0,0,1,1-1.45A2.85,2.85,0,0,1,54,9.78a2.29,2.29,0,0,1,1.87.74,3.38,3.38,0,0,1,.63,2.24V17.5H55.29V12.82a2.54,2.54,0,0,0-.38-1.54,1.41,1.41,0,0,0-1.18-.49,1.88,1.88,0,0,0-1.5.65,2.66,2.66,0,0,0-.54,1.76v4.3H50.47V12.82a2.54,2.54,0,0,0-.38-1.54,1.44,1.44,0,0,0-1.19-.49,1.87,1.87,0,0,0-1.51.65,2.61,2.61,0,0,0-.55,1.76v4.3Z"/><path class="cls-6" d="M61.71,17.61a3.26,3.26,0,0,1-1.77-.48,3.11,3.11,0,0,1-1.17-1.35,4.85,4.85,0,0,1-.41-2.06,4.78,4.78,0,0,1,.42-2.07A3.26,3.26,0,0,1,60,10.27a3.12,3.12,0,0,1,1.75-.49,2.94,2.94,0,0,1,1.75.51,2.48,2.48,0,0,1,1,1.45l-.18.12V10h1.2V17.5h-1.2V15.55l.18.09a2.51,2.51,0,0,1-1,1.45A2.88,2.88,0,0,1,61.71,17.61Zm.24-1a2,2,0,0,0,1.71-.76,3.38,3.38,0,0,0,.6-2.15,3.38,3.38,0,0,0-.61-2.15,2.07,2.07,0,0,0-1.7-.75,2.11,2.11,0,0,0-1.74.78,3.36,3.36,0,0,0-.62,2.15,3.28,3.28,0,0,0,.62,2.13A2.15,2.15,0,0,0,62,16.6Z"/><path class="cls-6" d="M71.13,20.84a5.61,5.61,0,0,1-3-.77l.21-1a6.48,6.48,0,0,0,1.33.58,5.23,5.23,0,0,0,1.43.18,2.17,2.17,0,0,0,1.64-.58,2.39,2.39,0,0,0,.56-1.72v-2l.17-.19a2.7,2.7,0,0,1-.57,1A2.46,2.46,0,0,1,72,17a3.15,3.15,0,0,1-1.26.24A3.26,3.26,0,0,1,69,16.8a3.19,3.19,0,0,1-1.18-1.31,4.19,4.19,0,0,1-.43-2,4.24,4.24,0,0,1,.43-2A3.19,3.19,0,0,1,69,10.25a3.25,3.25,0,0,1,1.77-.47,3,3,0,0,1,1.77.51,2.54,2.54,0,0,1,1,1.45l-.18-.16V10h1.21v7.48A3.46,3.46,0,0,1,73.67,20,3.47,3.47,0,0,1,71.13,20.84ZM71,16.25a2.13,2.13,0,0,0,1.71-.72,3,3,0,0,0,.63-2,3,3,0,0,0-.63-2A2.13,2.13,0,0,0,71,10.79a2.22,2.22,0,0,0-1.75.73,2.92,2.92,0,0,0-.64,2,2.94,2.94,0,0,0,.64,2A2.24,2.24,0,0,0,71,16.25Z"/><path class="cls-6" d="M76.87,17.5V12.07c0-.35,0-.7,0-1.06s0-.71-.1-1h1.16L78,11.51l-.15.12a2.59,2.59,0,0,1,1-1.38,3,3,0,0,1,1.7-.47c1.81,0,2.71,1,2.71,3V17.5H82.14V12.82a2.34,2.34,0,0,0-.42-1.54,1.67,1.67,0,0,0-1.32-.49,2.24,2.24,0,0,0-1.68.65,2.38,2.38,0,0,0-.63,1.74V17.5Z"/><path class="cls-6" d="M91.83,16.6a3.42,3.42,0,0,1-1.27.73,4.78,4.78,0,0,1-1.58.28,4.13,4.13,0,0,1-2-.47,3.19,3.19,0,0,1-1.31-1.34,4.57,4.57,0,0,1-.45-2.09,4.47,4.47,0,0,1,.45-2.06,3.34,3.34,0,0,1,1.25-1.38,3.43,3.43,0,0,1,1.85-.49,3.2,3.2,0,0,1,1.73.44,2.86,2.86,0,0,1,1.1,1.27,4.74,4.74,0,0,1,.38,2v.23h-5.7v-.8h5l-.39.56a3.13,3.13,0,0,0-.52-2,1.9,1.9,0,0,0-1.59-.7,2.1,2.1,0,0,0-1.72.77,3.31,3.31,0,0,0-.62,2.14,3.27,3.27,0,0,0,.65,2.22A2.39,2.39,0,0,0,89,16.6a3.65,3.65,0,0,0,1.27-.22,3.92,3.92,0,0,0,1.16-.67Z"/><path class="cls-6" d="M92.7,10.92V10h4.84v1Zm4.81,5.5v1l-.5.11a4.58,4.58,0,0,1-.55,0A2.26,2.26,0,0,1,94.79,17a2.35,2.35,0,0,1-.62-1.79V8l1.21-.44V15a2.11,2.11,0,0,0,.17.93,1,1,0,0,0,.48.46,1.78,1.78,0,0,0,.67.12l.41,0Z"/><path class="cls-6" d="M102.13,17.61a3.49,3.49,0,0,1-1.88-.49A3.26,3.26,0,0,1,99,15.77a4.65,4.65,0,0,1-.44-2.08A4.64,4.64,0,0,1,99,11.62a3.32,3.32,0,0,1,1.25-1.37,4,4,0,0,1,3.76,0,3.32,3.32,0,0,1,1.25,1.37,4.64,4.64,0,0,1,.44,2.07,4.65,4.65,0,0,1-.44,2.08A3.26,3.26,0,0,1,104,17.12,3.49,3.49,0,0,1,102.13,17.61Zm0-1a2.12,2.12,0,0,0,1.72-.74,3.4,3.4,0,0,0,.61-2.17,3.32,3.32,0,0,0-.62-2.15,2.09,2.09,0,0,0-1.71-.75,2.12,2.12,0,0,0-1.72.75,3.32,3.32,0,0,0-.62,2.15,3.34,3.34,0,0,0,.61,2.17A2.11,2.11,0,0,0,102.13,16.6Z"/><path class="cls-6" d="M107.59,17.5V12.07c0-.35,0-.7,0-1.06s0-.71-.1-1h1.16l.13,1.55-.15.11a2.56,2.56,0,0,1,.94-1.37,2.68,2.68,0,0,1,1.58-.47,2.46,2.46,0,0,1,1.7.54,2.62,2.62,0,0,1,.78,1.64l-.36-.19a2.53,2.53,0,0,1,1-1.45A2.87,2.87,0,0,1,116,9.78a2.32,2.32,0,0,1,1.88.74,3.38,3.38,0,0,1,.63,2.24V17.5h-1.22V12.82a2.55,2.55,0,0,0-.37-1.54,1.43,1.43,0,0,0-1.19-.49,1.85,1.85,0,0,0-1.49.65,2.61,2.61,0,0,0-.55,1.76v4.3h-1.21V12.82a2.47,2.47,0,0,0-.39-1.54,1.43,1.43,0,0,0-1.19-.49,1.89,1.89,0,0,0-1.51.65,2.67,2.67,0,0,0-.55,1.76v4.3Z"/><path class="cls-6" d="M127,16.6a3.42,3.42,0,0,1-1.27.73,4.78,4.78,0,0,1-1.58.28,4.13,4.13,0,0,1-2-.47,3.19,3.19,0,0,1-1.31-1.34,4.57,4.57,0,0,1-.45-2.09,4.47,4.47,0,0,1,.45-2.06A3.34,3.34,0,0,1,122,10.27a3.43,3.43,0,0,1,1.85-.49,3.2,3.2,0,0,1,1.73.44,2.86,2.86,0,0,1,1.1,1.27,4.74,4.74,0,0,1,.38,2v.23h-5.7v-.8h5l-.39.56a3.13,3.13,0,0,0-.52-2,1.92,1.92,0,0,0-1.59-.7,2.1,2.1,0,0,0-1.72.77,3.31,3.31,0,0,0-.62,2.14,3.27,3.27,0,0,0,.65,2.22,2.39,2.39,0,0,0,1.91.75,3.65,3.65,0,0,0,1.27-.22,3.92,3.92,0,0,0,1.16-.67Z"/><path class="cls-6" d="M127.82,10.92V10h4.85v1Zm4.82,5.5v1l-.5.11a4.58,4.58,0,0,1-.55,0,2.26,2.26,0,0,1-1.67-.61,2.35,2.35,0,0,1-.62-1.79V8l1.21-.44V15a2.11,2.11,0,0,0,.17.93,1,1,0,0,0,.48.46,1.74,1.74,0,0,0,.67.12l.41,0Z"/><path class="cls-6" d="M140.32,16.6a3.34,3.34,0,0,1-1.27.73,4.74,4.74,0,0,1-1.58.28,4.16,4.16,0,0,1-2-.47,3.17,3.17,0,0,1-1.3-1.34,4.44,4.44,0,0,1-.46-2.09,4.47,4.47,0,0,1,.45-2.06,3.41,3.41,0,0,1,1.25-1.38,3.46,3.46,0,0,1,1.85-.49,3.2,3.2,0,0,1,1.73.44,2.8,2.8,0,0,1,1.1,1.27,4.59,4.59,0,0,1,.38,2v.23h-5.69v-.8h5l-.39.56a3.19,3.19,0,0,0-.51-2,1.94,1.94,0,0,0-1.6-.7,2.11,2.11,0,0,0-1.72.77,3.36,3.36,0,0,0-.62,2.14,3.32,3.32,0,0,0,.65,2.22,2.41,2.41,0,0,0,1.92.75,3.56,3.56,0,0,0,1.26-.22,3.8,3.8,0,0,0,1.16-.67Z"/><path class="cls-6" d="M142.3,17.5V12.07c0-.35,0-.7,0-1.06s-.05-.71-.1-1h1.16l.16,1.86-.16-.05a2.31,2.31,0,0,1,.9-1.49,2.6,2.6,0,0,1,1.57-.5,2.23,2.23,0,0,1,.37,0,1.14,1.14,0,0,1,.32.07l0,1.1a2.69,2.69,0,0,0-.79-.11,2.11,2.11,0,0,0-1.26.34,2.06,2.06,0,0,0-.69.88,3,3,0,0,0-.22,1.12v4.3Z"/></g><g class="cls-7"><rect class="cls-6" x="148.3" y="5" width="36.03" height="16" rx="4"/></g><g class="cls-5"><path class="cls-8" d="M154.89,17.5h-1.47L157.49,12l.71-.92,3.12-4.29h1.46L158.9,12l-.71.93Zm6.62,0L158.19,13l-.7-.94-3.88-5.21h1.48l3.11,4.29.7.93L163,17.5Z"/></g><g class="cls-5"><path class="cls-6" d="M196.76,10V17.5h-1.22V10.92h-6.1V10Zm-5.85,7.54V9a3.17,3.17,0,0,1,.28-1.45,1.62,1.62,0,0,1,.9-.82,4.45,4.45,0,0,1,1.71-.26h.48v.94h-.37a3.62,3.62,0,0,0-1.13.14.77.77,0,0,0-.52.52,3.78,3.78,0,0,0-.14,1.17V17.5Zm4.48-10.82h1.52V8.09h-1.52Z"/><path class="cls-6" d="M199.1,17.5v-11h1.21v11Z"/><path class="cls-6" d="M201.6,10.92V10h4.85v1Zm4.82,5.5v1l-.5.11a4.58,4.58,0,0,1-.55,0A2.26,2.26,0,0,1,203.7,17a2.35,2.35,0,0,1-.63-1.79V8l1.22-.44V15a2.11,2.11,0,0,0,.17.93,1,1,0,0,0,.47.46,1.83,1.83,0,0,0,.68.12l.4,0Z"/><path class="cls-6" d="M214.1,16.6a3.34,3.34,0,0,1-1.27.73,4.74,4.74,0,0,1-1.58.28,4.16,4.16,0,0,1-2-.47,3.17,3.17,0,0,1-1.3-1.34,4.44,4.44,0,0,1-.46-2.09,4.47,4.47,0,0,1,.45-2.06,3.41,3.41,0,0,1,1.25-1.38A3.46,3.46,0,0,1,211,9.78a3.2,3.2,0,0,1,1.73.44,2.8,2.8,0,0,1,1.1,1.27,4.59,4.59,0,0,1,.38,2v.23h-5.7v-.8h5l-.39.56a3.19,3.19,0,0,0-.51-2,1.94,1.94,0,0,0-1.6-.7,2.11,2.11,0,0,0-1.72.77,3.36,3.36,0,0,0-.62,2.14,3.32,3.32,0,0,0,.65,2.22,2.4,2.4,0,0,0,1.91.75,3.61,3.61,0,0,0,1.27-.22,3.8,3.8,0,0,0,1.16-.67Z"/><path class="cls-6" d="M216.08,17.5V12.07c0-.35,0-.7,0-1.06s-.05-.71-.1-1h1.15l.17,1.86-.17-.05a2.36,2.36,0,0,1,.91-1.49,2.6,2.6,0,0,1,1.57-.5,2.23,2.23,0,0,1,.37,0,1.14,1.14,0,0,1,.32.07l0,1.1a2.76,2.76,0,0,0-.8-.11,1.92,1.92,0,0,0-1.94,1.22,3,3,0,0,0-.22,1.12v4.3Z"/></g><g class="cls-7"><rect class="cls-6" x="224.65" y="5" width="35.27" height="16" rx="4"/></g><g class="cls-5"><path class="cls-8" d="M234.15,17.62a3.14,3.14,0,0,1-2.78-1.39,7.14,7.14,0,0,1-1-4.07,7.23,7.23,0,0,1,.94-4.07,3.5,3.5,0,0,1,5.58,0,7.19,7.19,0,0,1,.95,4.05,7.17,7.17,0,0,1-1,4.08A3.13,3.13,0,0,1,234.15,17.62Zm0-1A2,2,0,0,0,236,15.5a7,7,0,0,0,.61-3.36A6.86,6.86,0,0,0,236,8.81a2.19,2.19,0,0,0-3.76,0,6.87,6.87,0,0,0-.61,3.32,7,7,0,0,0,.61,3.36A2,2,0,0,0,234.15,16.58Z"/></g><polygon class="cls-8" points="175.35 17.31 180.33 8.69 170.38 8.69 175.35 17.31"/><polygon class="cls-8" points="250.94 17.31 255.92 8.69 245.96 8.69 250.94 17.31"/><rect class="cls-9" x="148.3" y="31.69" width="35.55" height="52.03" rx="5.67"/><g class="cls-5"><path class="cls-8" d="M154.29,44.56h-1.47l4.07-5.47.72-.92,3.12-4.29h1.45L158.3,39.1l-.71.93Zm6.62,0L157.59,40l-.7-.94L153,33.88h1.47l3.12,4.29.69.93,4.06,5.46Z"/><path class="cls-8" d="M156.63,62.56v-4.8l.27.87-4.47-6.75h1.44l3.6,5.58h-.42l3.6-5.58h1.41l-4.45,6.75.25-.87v4.8Z"/><path class="cls-8" d="M153.38,80.56v-.91l6.55-9.36,0,.63h-6.52v-1h7.54v.9l-6.55,9.38,0-.63h6.67v1Z"/></g><polygon class="cls-8" points="175.35 44.38 180.33 35.75 170.38 35.75 175.35 44.38"/><rect class="cls-9" x="224.65" y="31.69" width="39.48" height="88.61" rx="6.34"/><g class="cls-5"><path class="cls-8" d="M233.55,44.68a3.17,3.17,0,0,1-2.78-1.38,7.28,7.28,0,0,1-1-4.08,7.25,7.25,0,0,1,.94-4.07,3.5,3.5,0,0,1,5.58,0,7.23,7.23,0,0,1,.95,4.06,7.28,7.28,0,0,1-.95,4.08A3.17,3.17,0,0,1,233.55,44.68Zm0-1a2,2,0,0,0,1.89-1.08,7.19,7.19,0,0,0,.6-3.36,7.07,7.07,0,0,0-.6-3.34,2,2,0,0,0-1.89-1.06,2,2,0,0,0-1.88,1.07,7,7,0,0,0-.61,3.33,7.17,7.17,0,0,0,.61,3.36A2,2,0,0,0,233.55,43.65Z"/><path class="cls-8" d="M230.3,62.56v-.93L234,57.49a7.53,7.53,0,0,0,1.1-1.51,2.94,2.94,0,0,0,.34-1.35,1.77,1.77,0,0,0-.51-1.36,2.07,2.07,0,0,0-1.45-.47,3.91,3.91,0,0,0-1.53.31,5.79,5.79,0,0,0-1.5.92l-.47-1a4.63,4.63,0,0,1,1.59-1,5.5,5.5,0,0,1,1.94-.36,4,4,0,0,1,1.69.34,2.6,2.6,0,0,1,1.1,1,2.79,2.79,0,0,1,.39,1.5,4,4,0,0,1-.41,1.76,8.51,8.51,0,0,1-1.38,1.9l-3.6,3.9-.09-.6h5.93v1Z"/><path class="cls-8" d="M242.72,62.67a5.57,5.57,0,0,1-1.92-.35,4.68,4.68,0,0,1-1.59-1l.46-1a6,6,0,0,0,1.5.92,4,4,0,0,0,1.55.31,2.38,2.38,0,0,0,1.76-.63,2.35,2.35,0,0,0,.64-1.74,2.54,2.54,0,0,0-.29-1.23,2,2,0,0,0-.8-.84,2.37,2.37,0,0,0-1.22-.3,3,3,0,0,0-1.37.31,3.09,3.09,0,0,0-1.08.94h-.85V51.88h6.4v1h-5.17v4.32l-.39,0a2.94,2.94,0,0,1,1.12-1,3.31,3.31,0,0,1,1.53-.34,3.46,3.46,0,0,1,1.77.43,2.89,2.89,0,0,1,1.16,1.19,3.73,3.73,0,0,1,.4,1.77,3.48,3.48,0,0,1-.44,1.78,3.08,3.08,0,0,1-1.25,1.2A4,4,0,0,1,242.72,62.67Z"/><path class="cls-8" d="M233.72,80.67a5.57,5.57,0,0,1-1.92-.35,4.68,4.68,0,0,1-1.59-1l.46-.95a6,6,0,0,0,1.5.92,4,4,0,0,0,1.55.31,2.38,2.38,0,0,0,1.76-.63,2.35,2.35,0,0,0,.64-1.74,2.54,2.54,0,0,0-.29-1.23,2,2,0,0,0-.8-.84,2.37,2.37,0,0,0-1.22-.3,3,3,0,0,0-1.37.31,3.09,3.09,0,0,0-1.08.94h-.85V69.88h6.4v1h-5.17v4.32l-.39,0a2.94,2.94,0,0,1,1.12-1,3.31,3.31,0,0,1,1.53-.34,3.46,3.46,0,0,1,1.77.43,2.89,2.89,0,0,1,1.16,1.19,3.73,3.73,0,0,1,.4,1.77,3.48,3.48,0,0,1-.44,1.78,3.08,3.08,0,0,1-1.25,1.2A4,4,0,0,1,233.72,80.67Z"/><path class="cls-8" d="M242.55,80.68a3.17,3.17,0,0,1-2.78-1.38,7.28,7.28,0,0,1-1-4.08,7.25,7.25,0,0,1,.94-4.07,3.5,3.5,0,0,1,5.58,0,7.23,7.23,0,0,1,.95,4.06,7.28,7.28,0,0,1-.95,4.08A3.17,3.17,0,0,1,242.55,80.68Zm0-1a2,2,0,0,0,1.89-1.08,7.19,7.19,0,0,0,.6-3.36,7.07,7.07,0,0,0-.6-3.34,2,2,0,0,0-1.89-1.06,2,2,0,0,0-1.88,1.07,7,7,0,0,0-.61,3.33,7.17,7.17,0,0,0,.61,3.36A2,2,0,0,0,242.55,79.65Z"/><path class="cls-8" d="M232.07,98.56h-1.32L236,88.42l.11.5H230v-1h7.05v.92Z"/><path class="cls-8" d="M242.72,98.67a5.57,5.57,0,0,1-1.92-.35,4.68,4.68,0,0,1-1.59-1l.46-.95a6,6,0,0,0,1.5.92,4,4,0,0,0,1.55.31,2.38,2.38,0,0,0,1.76-.63,2.35,2.35,0,0,0,.64-1.74,2.54,2.54,0,0,0-.29-1.23,2,2,0,0,0-.8-.84,2.37,2.37,0,0,0-1.22-.3,3,3,0,0,0-1.37.31,3.09,3.09,0,0,0-1.08.94h-.85V87.88h6.4v1h-5.17v4.32l-.39,0a2.94,2.94,0,0,1,1.12-1,3.31,3.31,0,0,1,1.53-.34,3.46,3.46,0,0,1,1.77.43,2.89,2.89,0,0,1,1.16,1.19,3.73,3.73,0,0,1,.4,1.77,3.48,3.48,0,0,1-.44,1.78,3.08,3.08,0,0,1-1.25,1.2A4,4,0,0,1,242.72,98.67Z"/><path class="cls-8" d="M231,116.56v-1h6v1Zm2.36-.55V106.6l.7.36-2.89,1.85v-1.19l2.73-1.74h.7V116Z"/><path class="cls-8" d="M242.55,116.68a3.17,3.17,0,0,1-2.78-1.38,9.26,9.26,0,0,1,0-8.15,3.5,3.5,0,0,1,5.58,0,9.19,9.19,0,0,1,0,8.14A3.17,3.17,0,0,1,242.55,116.68Zm0-1a2,2,0,0,0,1.89-1.08,7.19,7.19,0,0,0,.6-3.36,7.07,7.07,0,0,0-.6-3.34,2,2,0,0,0-1.89-1.06,2,2,0,0,0-1.88,1.07,7,7,0,0,0-.61,3.33,7.17,7.17,0,0,0,.61,3.36A2,2,0,0,0,242.55,115.65Z"/><path class="cls-8" d="M251.55,116.68a3.17,3.17,0,0,1-2.78-1.38,9.26,9.26,0,0,1,0-8.15,3.5,3.5,0,0,1,5.58,0,9.19,9.19,0,0,1,0,8.14A3.17,3.17,0,0,1,251.55,116.68Zm0-1a2,2,0,0,0,1.89-1.08,7.19,7.19,0,0,0,.6-3.36,7.07,7.07,0,0,0-.6-3.34,2,2,0,0,0-1.89-1.06,2,2,0,0,0-1.88,1.07,7,7,0,0,0-.61,3.33,7.17,7.17,0,0,0,.61,3.36A2,2,0,0,0,251.55,115.65Z"/></g><polygon class="cls-8" points="254.71 44.38 259.68 35.75 249.73 35.75 254.71 44.38"/></g></g></svg>