<svg xmlns="http://www.w3.org/2000/svg" viewBox="0 0 595.39 83.72"><defs><style>.cls-1{fill:none;}.cls-2{fill:#167b9e;}.cls-3{fill:#1398c4;}.cls-4{fill:#5eb7d6;}.cls-5{isolation:isolate;}.cls-6{fill:#fff;}.cls-7{opacity:0.6;}.cls-8{fill:#010101;}.cls-9{fill:#a6cde2;}</style></defs><g id="Layer_2" data-name="Layer 2"><g id="Layer_1-2" data-name="Layer 1"><rect class="cls-1" x="0.12" width="595.28" height="18"/><path class="cls-2" d="M9.12,1h150.3V26H9.12V21c0-10-8,8-8-7.5s8,2.5,8-7.5Z"/><path class="cls-3" d="M8.12,0h150.3V25H8.12V20c0-10-8,8-8-7.5s8,2.5,8-7.5Z"/><path class="cls-4" d="M9.12,24.5h-1v-6h1ZM.77,18.13a20.9,20.9,0,0,1,0-11.26l1,.26a19.79,19.79,0,0,0,0,10.74ZM9.12,8h-1V0h149.8V1H9.12Z"/><g class="cls-5"><path class="cls-6" d="M22.6,20.85a5.53,5.53,0,0,1-3-.78l.21-1a6,6,0,0,0,1.34.58,5.15,5.15,0,0,0,1.42.18,2.16,2.16,0,0,0,1.64-.58,2.35,2.35,0,0,0,.57-1.72v-2l.16-.2a2.82,2.82,0,0,1-.56,1,2.56,2.56,0,0,1-.94.68,3.15,3.15,0,0,1-1.26.24,3.18,3.18,0,0,1-2.95-1.78,4.36,4.36,0,0,1-.42-2,4.32,4.32,0,0,1,.42-2,3.21,3.21,0,0,1,2.95-1.79,3,3,0,0,1,1.78.52,2.58,2.58,0,0,1,1,1.45l-.18-.16V10H26v7.49A3.42,3.42,0,0,1,25.14,20,3.45,3.45,0,0,1,22.6,20.85Zm-.15-4.59a2.17,2.17,0,0,0,1.72-.73,3,3,0,0,0,.62-2,3,3,0,0,0-.62-2,2.17,2.17,0,0,0-1.72-.73,2.23,2.23,0,0,0-1.75.73,3,3,0,0,0-.63,2,3,3,0,0,0,.63,2A2.23,2.23,0,0,0,22.45,16.26Z"/><path class="cls-6" d="M34.53,16.6a3.58,3.58,0,0,1-1.27.74,5,5,0,0,1-1.58.26,4.13,4.13,0,0,1-2-.46,3.19,3.19,0,0,1-1.31-1.34,4.58,4.58,0,0,1-.45-2.1,4.48,4.48,0,0,1,.45-2,3.34,3.34,0,0,1,1.25-1.38,3.44,3.44,0,0,1,1.85-.5,3.21,3.21,0,0,1,1.73.45,2.81,2.81,0,0,1,1.1,1.27,4.68,4.68,0,0,1,.38,2v.23H29v-.8h5l-.39.56a3.08,3.08,0,0,0-.52-2,1.86,1.86,0,0,0-1.59-.71,2.1,2.1,0,0,0-1.72.77,3.31,3.31,0,0,0-.62,2.14,3.27,3.27,0,0,0,.65,2.22,2.39,2.39,0,0,0,1.91.75A3.65,3.65,0,0,0,33,16.38a3.92,3.92,0,0,0,1.16-.67Z"/><path class="cls-6" d="M35.4,10.92V10h4.84v1Zm4.81,5.5v1a3.29,3.29,0,0,1-.5.12,4.68,4.68,0,0,1-.55,0A2.29,2.29,0,0,1,37.49,17a2.4,2.4,0,0,1-.62-1.81V8l1.21-.43V15a2.11,2.11,0,0,0,.17.93,1,1,0,0,0,.48.46,1.78,1.78,0,0,0,.67.12,2.54,2.54,0,0,0,.41,0A1.79,1.79,0,0,0,40.21,16.42Z"/><path class="cls-6" d="M45.78,17.5V6.82H47V17.5Z"/><path class="cls-6" d="M49.65,17.5V6.82h1L55,16.68h-.57l4.29-9.86h1V17.5H58.6V8.44l.47.06-3.93,9h-.87l-4-9,.49-.06,0,9.06Z"/><path class="cls-6" d="M66.55,17.62a4.24,4.24,0,0,1-3.16-1.09,4.36,4.36,0,0,1-1.08-3.21V6.82h1.21v6.6a3.25,3.25,0,0,0,.77,2.36,3.58,3.58,0,0,0,4.5,0,3.24,3.24,0,0,0,.76-2.35V6.82h1.23v6.5a4.38,4.38,0,0,1-1.08,3.2A4.19,4.19,0,0,1,66.55,17.62Z"/><path class="cls-6" d="M80,17.6a3.25,3.25,0,0,1-1.77-.47,3.11,3.11,0,0,1-1.17-1.35,4.85,4.85,0,0,1-.41-2.06,4.78,4.78,0,0,1,.42-2.07,3.26,3.26,0,0,1,1.18-1.38A3.12,3.12,0,0,1,80,9.77a2.94,2.94,0,0,1,1.75.51,2.54,2.54,0,0,1,1,1.46l-.18.12V10h1.2V17.5h-1.2V15.55l.18.09a2.54,2.54,0,0,1-1,1.46A3,3,0,0,1,80,17.6Zm.24-1A2,2,0,0,0,82,15.84a3.38,3.38,0,0,0,.6-2.15A3.38,3.38,0,0,0,82,11.54a2.07,2.07,0,0,0-1.7-.75,2.11,2.11,0,0,0-1.74.78,3.36,3.36,0,0,0-.62,2.15,3.28,3.28,0,0,0,.62,2.13A2.15,2.15,0,0,0,80.25,16.6Z"/><path class="cls-6" d="M86.11,17.5V12.07c0-.35,0-.7,0-1.06S86,10.3,86,10h1.16l.13,1.56-.15.12a2.55,2.55,0,0,1,1.05-1.38,3,3,0,0,1,1.7-.48c1.81,0,2.71,1,2.71,3V17.5H91.38V12.82A2.34,2.34,0,0,0,91,11.28a1.67,1.67,0,0,0-1.32-.49,2.24,2.24,0,0,0-1.68.65,2.38,2.38,0,0,0-.63,1.74V17.5Z"/><path class="cls-6" d="M98.2,20.85a5.53,5.53,0,0,1-3-.78l.21-1a6,6,0,0,0,1.34.58,5.15,5.15,0,0,0,1.42.18,2.16,2.16,0,0,0,1.64-.58,2.35,2.35,0,0,0,.57-1.72v-2l.16-.2a2.82,2.82,0,0,1-.56,1,2.56,2.56,0,0,1-.94.68,3.15,3.15,0,0,1-1.26.24,3.18,3.18,0,0,1-3-1.78,4.36,4.36,0,0,1-.42-2,4.32,4.32,0,0,1,.42-2,3.21,3.21,0,0,1,3-1.79,3,3,0,0,1,1.78.52,2.58,2.58,0,0,1,1,1.45l-.18-.16V10h1.22v7.49a3.42,3.42,0,0,1-.87,2.55A3.45,3.45,0,0,1,98.2,20.85Zm-.15-4.59a2.17,2.17,0,0,0,1.72-.73,3,3,0,0,0,.62-2,3,3,0,0,0-.62-2,2.17,2.17,0,0,0-1.72-.73,2.23,2.23,0,0,0-1.75.73,3,3,0,0,0-.63,2,3,3,0,0,0,.63,2A2.23,2.23,0,0,0,98.05,16.26Z"/><path class="cls-6" d="M104,17.5v-11h1.21v11Z"/><path class="cls-6" d="M113.7,16.6a3.58,3.58,0,0,1-1.27.74,5,5,0,0,1-1.58.26,4.13,4.13,0,0,1-2-.46,3.19,3.19,0,0,1-1.31-1.34,4.58,4.58,0,0,1-.45-2.1,4.48,4.48,0,0,1,.45-2,3.34,3.34,0,0,1,1.25-1.38,3.44,3.44,0,0,1,1.85-.5,3.21,3.21,0,0,1,1.73.45,2.81,2.81,0,0,1,1.1,1.27,4.68,4.68,0,0,1,.38,2v.23h-5.7v-.8h5l-.39.56a3.08,3.08,0,0,0-.52-2,1.86,1.86,0,0,0-1.59-.71,2.1,2.1,0,0,0-1.72.77,3.31,3.31,0,0,0-.62,2.14,3.27,3.27,0,0,0,.65,2.22,2.39,2.39,0,0,0,1.91.75,3.65,3.65,0,0,0,1.27-.22,3.92,3.92,0,0,0,1.16-.67Z"/></g><g class="cls-7"><rect class="cls-6" x="117.38" y="5" width="36.03" height="16" rx="4"/></g><g class="cls-5"><path class="cls-8" d="M124,17.5H122.5L126.57,12l.72-.91,3.12-4.29h1.45L128,12l-.71.93Zm6.62,0L127.27,13l-.7-1-3.87-5.2h1.47l3.12,4.29L128,12,132,17.5Z"/></g><polygon class="cls-8" points="144.44 17.31 149.42 8.69 139.46 8.69 144.44 17.31"/><rect class="cls-9" x="117.38" y="31.69" width="35.55" height="52.03" rx="5.67"/><g class="cls-5"><path class="cls-8" d="M123.38,44.56h-1.47L126,39.09l.72-.91,3.12-4.3h1.46l-3.89,5.22-.7.93Zm6.61,0L126.68,40l-.71-.94-3.87-5.21h1.47l3.12,4.3.69.92,4.07,5.46Z"/><path class="cls-8" d="M125.72,62.56v-4.8l.27.87-4.47-6.75H123l3.6,5.58h-.42l3.6-5.58h1.41l-4.46,6.75.26-.87v4.8Z"/><path class="cls-8" d="M122.46,80.56v-.91L129,70.29l0,.63h-6.53v-1H130v.9l-6.56,9.38,0-.63h6.68v1Z"/></g><polygon class="cls-8" points="144.44 44.38 149.42 35.75 139.46 35.75 144.44 44.38"/></g></g></svg>