<svg xmlns="http://www.w3.org/2000/svg" viewBox="0 0 595.39 36"><defs><style>.cls-1{fill:none;}.cls-2{fill:#3c866d;}.cls-3{fill:#4ba587;}.cls-4{fill:#81c1ab;}.cls-5{isolation:isolate;}.cls-6{fill:#fff;}</style></defs><g id="Layer_2" data-name="Layer 2"><g id="Layer_1-2" data-name="Layer 1"><rect class="cls-1" x="0.12" width="595.28" height="18"/><path class="cls-2" d="M9.12,1H116.87V36H9.12V21c0-10-8,8-8-7.5s8,2.5,8-7.5Zm30.5,5H25.12v5c0,10-8-8-8,7.5s8-2.5,8,7.5v6h14.5Z"/><path class="cls-3" d="M8.12,0H115.87V35H8.12V20c0-10-8,8-8-7.5s8,2.5,8-7.5Zm30.5,5H24.12v5c0,10-8-8-8,7.5s8-2.5,8,7.5v6h14.5Z"/><path class="cls-4" d="M9.12,34.5h-1v-16h1ZM39.62,32h-15V31h14V5.5h1ZM19.26,24.73l-.49-.86,3.68-2.1.49.86ZM.77,18.13a20.9,20.9,0,0,1,0-11.26l1,.26a19.79,19.79,0,0,0,0,10.74ZM9.12,8h-1V0H115.37V1H9.12Z"/><g class="cls-5"><path class="cls-6" d="M49.67,11.76h1.48v1.38H49.67Zm.12,10.74V15H51V22.5Z"/><path class="cls-6" d="M55.91,22.61a4.42,4.42,0,0,1-3-1l.41-.9a4.18,4.18,0,0,0,1.23.68,4.27,4.27,0,0,0,1.42.22,2.43,2.43,0,0,0,1.3-.29,1,1,0,0,0,.44-.85.89.89,0,0,0-.3-.71,2.3,2.3,0,0,0-1-.43l-1.27-.3a2.86,2.86,0,0,1-1.47-.75A1.81,1.81,0,0,1,53.15,17a1.93,1.93,0,0,1,.36-1.16,2.34,2.34,0,0,1,1-.79A3.77,3.77,0,0,1,56,14.78a4.37,4.37,0,0,1,1.5.25,3.32,3.32,0,0,1,1.19.73l-.41.89a4.17,4.17,0,0,0-1.1-.67A3.38,3.38,0,0,0,56,15.76a2.12,2.12,0,0,0-1.25.32,1.09,1.09,0,0,0-.17,1.59,2,2,0,0,0,.9.42l1.27.32a2.92,2.92,0,0,1,1.57.74,1.81,1.81,0,0,1,.5,1.31A1.84,1.84,0,0,1,58.07,22,3.57,3.57,0,0,1,55.91,22.61Z"/><path class="cls-6" d="M70.89,21.6a3.34,3.34,0,0,1-1.27.73,4.74,4.74,0,0,1-1.58.28,4.16,4.16,0,0,1-2-.47,3.17,3.17,0,0,1-1.3-1.34,4.44,4.44,0,0,1-.46-2.09,4.47,4.47,0,0,1,.45-2.06A3.41,3.41,0,0,1,66,15.27a3.49,3.49,0,0,1,1.86-.49,3.17,3.17,0,0,1,1.72.44,2.8,2.8,0,0,1,1.1,1.27,4.58,4.58,0,0,1,.39,2v.23h-5.7v-.8h5l-.39.56a3.19,3.19,0,0,0-.52-2,1.94,1.94,0,0,0-1.6-.7,2.11,2.11,0,0,0-1.72.77,3.36,3.36,0,0,0-.62,2.14,3.32,3.32,0,0,0,.65,2.22,2.42,2.42,0,0,0,1.92.75,3.56,3.56,0,0,0,1.26-.22,3.84,3.84,0,0,0,1.17-.67Z"/><path class="cls-6" d="M72.87,22.5V17.07c0-.35,0-.7,0-1.06s0-.71-.1-1.05h1.16L74,16.51l-.15.11a2.56,2.56,0,0,1,.94-1.37,2.68,2.68,0,0,1,1.58-.47,2.46,2.46,0,0,1,1.7.54A2.57,2.57,0,0,1,78.89,17l-.36-.19a2.53,2.53,0,0,1,1-1.45,2.87,2.87,0,0,1,1.75-.54,2.32,2.32,0,0,1,1.88.74,3.38,3.38,0,0,1,.63,2.24V22.5H82.53V17.82a2.55,2.55,0,0,0-.37-1.54A1.43,1.43,0,0,0,81,15.79a1.85,1.85,0,0,0-1.49.65,2.61,2.61,0,0,0-.55,1.76v4.3H77.72V17.82a2.47,2.47,0,0,0-.39-1.54,1.43,1.43,0,0,0-1.19-.49,1.89,1.89,0,0,0-1.51.65,2.66,2.66,0,0,0-.54,1.76v4.3Z"/><path class="cls-6" d="M86.06,25.74V17.07c0-.35,0-.7,0-1.06A9.1,9.1,0,0,0,85.94,15h1.15l.14,1.55-.12.23a2.47,2.47,0,0,1,1-1.45,2.93,2.93,0,0,1,1.74-.51,3.14,3.14,0,0,1,1.75.49,3.33,3.33,0,0,1,1.18,1.38,4.64,4.64,0,0,1,.43,2.07,4.57,4.57,0,0,1-.43,2.06,3.11,3.11,0,0,1-1.17,1.35,3.2,3.2,0,0,1-1.76.48,2.87,2.87,0,0,1-1.74-.52,2.5,2.5,0,0,1-1-1.45l.16-.15v5.25ZM89.6,21.6a2.09,2.09,0,0,0,1.71-.75,3.28,3.28,0,0,0,.61-2.13,3.36,3.36,0,0,0-.61-2.15,2.06,2.06,0,0,0-1.71-.78,2.09,2.09,0,0,0-1.73.75,3.38,3.38,0,0,0-.6,2.15,3.38,3.38,0,0,0,.6,2.15A2.07,2.07,0,0,0,89.6,21.6Z"/><path class="cls-6" d="M94,15.92V15h4.84v1Zm4.81,5.5v1l-.5.11a4.58,4.58,0,0,1-.55,0A2.26,2.26,0,0,1,96.07,22a2.35,2.35,0,0,1-.62-1.79V13l1.21-.44V20a2.11,2.11,0,0,0,.17.93,1,1,0,0,0,.48.46,1.78,1.78,0,0,0,.67.12l.41,0Z"/><path class="cls-6" d="M102.78,22.89,99.39,15h1.28l2.73,6.66Zm-2.76,3L99.77,25a6.86,6.86,0,0,0,1.16-.38,2.43,2.43,0,0,0,.79-.57,2.84,2.84,0,0,0,.57-.91l.48-1.11.27-.37L105.8,15H107l-3.52,8.23a5.16,5.16,0,0,1-.92,1.46,3.59,3.59,0,0,1-1.15.84A6.37,6.37,0,0,1,100,25.91Z"/></g></g></g></svg>