<svg xmlns="http://www.w3.org/2000/svg" viewBox="0 0 595.28 238.2"><defs><style>.cls-1{fill:#3c876e;}.cls-2{fill:#4ba587;}.cls-3{fill:#81c1ab;}.cls-4{fill:#3c54a4;}.cls-5{fill:#fff;}.cls-6{isolation:isolate;}.cls-7{fill:#ddd;}.cls-8{opacity:0.9;}.cls-9{fill:#def1f0;}.cls-10{opacity:0;}.cls-11{fill:#020202;}.cls-12{fill:none;}</style></defs><g id="Layer_2" data-name="Layer 2"><g id="Layer_1-2" data-name="Layer 1"><g id="Layer_1-2-2" data-name="Layer 1-2"><path class="cls-1" d="M45,179.4H238.13v6c0,12-9.6-9.6-9.6,9s9.6-3,9.6,9v12c0,12-9.6-9.6-9.6,9s9.6-3,9.6,9v4.8H45V203.4c0-12-9.6,9.6-9.6-9s9.6,3,9.6-9Z"/><path class="cls-2" d="M43.79,178.2H236.93v6c0,12-9.6-9.6-9.6,9s9.6-3,9.6,9v12c0,12-9.6-9.6-9.6,9s9.6-3,9.6,9V237H43.79V202.2c0-12-9.6,9.6-9.6-9s9.6,3,9.6-9Z"/><path class="cls-3" d="M45,236.4h-1.2v-36H45Zm186.24-4.52-.6-1,4.41-2.52.6,1Zm0-30-.6-1,4.41-2.52.6,1ZM35,200a24.84,24.84,0,0,1,0-13.52l1.16.32a23.68,23.68,0,0,0,0,12.88ZM45,187.8h-1.2v-9.6H236.33v1.2H45Z"/><rect class="cls-4" x="55.79" y="184.2" width="19.2" height="19.2" rx="4.8"/><path class="cls-5" d="M70.19,204h-9.6a5.4,5.4,0,0,1-5.4-5.4V189a5.4,5.4,0,0,1,5.4-5.4h9.6a5.4,5.4,0,0,1,5.4,5.4v9.6A5.4,5.4,0,0,1,70.19,204Zm-9.6-19.2a4.2,4.2,0,0,0-4.2,4.2v9.6a4.2,4.2,0,0,0,4.2,4.2h9.6a4.2,4.2,0,0,0,4.2-4.2V189a4.2,4.2,0,0,0-4.2-4.2Z"/><path class="cls-5" d="M60.84,193v1.64l-1.11.81-.13.49,1.08,1.87.49.13,1.25-.54,1.43.82.15,1.36.36.36h2.16l.36-.36.15-1.37,1.42-.82,1.26.55.49-.13,1.08-1.87-.13-.49L70,194.6V193l1.11-.82.13-.49-1.08-1.87-.49-.13-1.26.55L67,189.38,66.88,188l-.36-.36H64.36L64,188l-.15,1.36-1.43.82-1.25-.55-.49.13-1.08,1.87.13.49Z"/><circle class="cls-4" cx="65.39" cy="193.8" r="3.24"/><path class="cls-5" d="M65.39,197.64a3.84,3.84,0,1,1,3.84-3.84A3.84,3.84,0,0,1,65.39,197.64Zm0-6.48A2.64,2.64,0,1,0,68,193.8,2.64,2.64,0,0,0,65.39,191.16Z"/><g class="cls-6"><path class="cls-5" d="M94,196.46l1.25.17a3.25,3.25,0,0,1-1.05,2,3,3,0,0,1-2.06.73,3.23,3.23,0,0,1-2.47-1,4.08,4.08,0,0,1-.93-2.87,5.31,5.31,0,0,1,.4-2.12A2.8,2.8,0,0,1,90.37,192a3.67,3.67,0,0,1,1.79-.46,3.11,3.11,0,0,1,2,.62,2.86,2.86,0,0,1,1,1.75l-1.23.19a2.11,2.11,0,0,0-.63-1.14,1.6,1.6,0,0,0-1.08-.38,2,2,0,0,0-1.55.69,3.25,3.25,0,0,0-.6,2.17,3.42,3.42,0,0,0,.58,2.19,1.89,1.89,0,0,0,1.5.68,1.76,1.76,0,0,0,1.25-.46A2.27,2.27,0,0,0,94,196.46Z"/><path class="cls-5" d="M96.33,199.2v-7.47h1.13v1.14a3,3,0,0,1,.81-1.05,1.42,1.42,0,0,1,.81-.26,2.48,2.48,0,0,1,1.3.41l-.43,1.18a1.76,1.76,0,0,0-.93-.28,1.25,1.25,0,0,0-.75.25,1.42,1.42,0,0,0-.47.69,5,5,0,0,0-.21,1.48v3.91Z"/><path class="cls-5" d="M106.25,196.8l1.3.16a3.18,3.18,0,0,1-1.14,1.78,3.89,3.89,0,0,1-4.74-.38,3.94,3.94,0,0,1-1-2.83,4.17,4.17,0,0,1,1-2.93,3.31,3.31,0,0,1,2.52-1,3.21,3.21,0,0,1,2.45,1,4.07,4.07,0,0,1,.95,2.87c0,.08,0,.19,0,.34H102a2.85,2.85,0,0,0,.7,1.88,2,2,0,0,0,1.56.66,1.92,1.92,0,0,0,1.19-.37A2.52,2.52,0,0,0,106.25,196.8Zm-4.16-2.05h4.17a2.55,2.55,0,0,0-.48-1.41,1.93,1.93,0,0,0-1.57-.74,2,2,0,0,0-1.46.59A2.29,2.29,0,0,0,102.09,194.75Z"/><path class="cls-5" d="M114,198.28a4.53,4.53,0,0,1-1.36.84,3.77,3.77,0,0,1-1.39.25,2.76,2.76,0,0,1-1.9-.6,2,2,0,0,1-.66-1.54,2.08,2.08,0,0,1,.91-1.73,3,3,0,0,1,.91-.41,8.12,8.12,0,0,1,1.12-.19,11.15,11.15,0,0,0,2.26-.44c0-.17,0-.28,0-.33a1.4,1.4,0,0,0-.36-1.09,2.1,2.1,0,0,0-1.44-.43,2.29,2.29,0,0,0-1.32.31,2,2,0,0,0-.63,1.11l-1.24-.17a3,3,0,0,1,.56-1.28,2.36,2.36,0,0,1,1.12-.75,4.83,4.83,0,0,1,1.69-.27,4.41,4.41,0,0,1,1.55.23,1.8,1.8,0,0,1,1.28,1.43,7.37,7.37,0,0,1,.06,1.16v1.69a18.73,18.73,0,0,0,.08,2.23,2.7,2.7,0,0,0,.32.9h-1.32A2.54,2.54,0,0,1,114,198.28Zm-.11-2.83a9.08,9.08,0,0,1-2.07.48,5.21,5.21,0,0,0-1.1.25,1.14,1.14,0,0,0-.5.41,1.11,1.11,0,0,0-.18.61,1.07,1.07,0,0,0,.39.84,1.66,1.66,0,0,0,1.12.34,2.64,2.64,0,0,0,1.3-.32,2,2,0,0,0,.84-.88,3.14,3.14,0,0,0,.2-1.26Z"/><path class="cls-5" d="M119.91,198.07l.19,1.12a5.14,5.14,0,0,1-1,.11,2.13,2.13,0,0,1-1.07-.22,1.21,1.21,0,0,1-.53-.57,4.63,4.63,0,0,1-.16-1.5v-4.29h-.92v-1h.92v-1.85l1.26-.76v2.61h1.27v1h-1.27v4.36a2,2,0,0,0,.07.7.58.58,0,0,0,.22.25.83.83,0,0,0,.43.09A4.44,4.44,0,0,0,119.91,198.07Z"/><path class="cls-5" d="M126.26,196.8l1.31.16a3.24,3.24,0,0,1-1.14,1.78,3.89,3.89,0,0,1-4.74-.38,3.94,3.94,0,0,1-1-2.83,4.13,4.13,0,0,1,1-2.93,3.31,3.31,0,0,1,2.52-1,3.17,3.17,0,0,1,2.44,1,4,4,0,0,1,1,2.87v.34H122a2.84,2.84,0,0,0,.69,1.88,2.08,2.08,0,0,0,1.57.66,1.87,1.87,0,0,0,1.18-.37A2.38,2.38,0,0,0,126.26,196.8Zm-4.15-2.05h4.17a2.55,2.55,0,0,0-.48-1.41,1.94,1.94,0,0,0-1.57-.74,2,2,0,0,0-1.46.59A2.29,2.29,0,0,0,122.11,194.75Z"/><path class="cls-5" d="M135.92,198.07l.19,1.12a5.14,5.14,0,0,1-1,.11,2.13,2.13,0,0,1-1.07-.22,1.21,1.21,0,0,1-.53-.57,4.63,4.63,0,0,1-.16-1.5v-4.29h-.92v-1h.92v-1.85l1.26-.76v2.61h1.27v1h-1.27v4.36a2,2,0,0,0,.07.7.58.58,0,0,0,.22.25.83.83,0,0,0,.43.09A4.44,4.44,0,0,0,135.92,198.07Z"/><path class="cls-5" d="M142.27,196.8l1.31.16a3.24,3.24,0,0,1-1.14,1.78,3.89,3.89,0,0,1-4.74-.38,3.94,3.94,0,0,1-1-2.83,4.13,4.13,0,0,1,1-2.93,3.31,3.31,0,0,1,2.52-1,3.21,3.21,0,0,1,2.45,1,4.07,4.07,0,0,1,.94,2.87v.34h-5.57a2.9,2.9,0,0,0,.69,1.88,2.08,2.08,0,0,0,1.57.66,1.87,1.87,0,0,0,1.18-.37A2.38,2.38,0,0,0,142.27,196.8Zm-4.15-2.05h4.17a2.55,2.55,0,0,0-.48-1.41,1.94,1.94,0,0,0-1.57-.74,2,2,0,0,0-1.46.59A2.29,2.29,0,0,0,138.12,194.75Z"/><path class="cls-5" d="M144.33,199.2l2.73-3.88-2.53-3.59h1.58l1.15,1.75c.22.34.39.62.52.84l.57-.82,1.26-1.77h1.51l-2.58,3.52,2.78,3.95h-1.56l-1.53-2.32-.41-.63-2,2.95Z"/><path class="cls-5" d="M155.13,198.07l.19,1.12a5.14,5.14,0,0,1-1,.11,2.13,2.13,0,0,1-1.07-.22,1.21,1.21,0,0,1-.53-.57,4.35,4.35,0,0,1-.16-1.5v-4.29h-.93v-1h.93v-1.85l1.26-.76v2.61h1.27v1h-1.27v4.36a2,2,0,0,0,.07.7.58.58,0,0,0,.22.25.83.83,0,0,0,.43.09A4.61,4.61,0,0,0,155.13,198.07Z"/><path class="cls-5" d="M161.75,199.2l-2.28-7.47h1.3L162,196l.44,1.61.39-1.54,1.19-4.38h1.3l1.12,4.33.37,1.43.43-1.44,1.28-4.32h1.23l-2.33,7.47h-1.32l-1.19-4.47-.29-1.27-1.51,5.74Z"/><path class="cls-5" d="M170.78,190.35v-1.46H172v1.46Zm0,8.85v-7.47H172v7.47Z"/><path class="cls-5" d="M176.73,198.07l.19,1.12a5.14,5.14,0,0,1-1,.11,2.13,2.13,0,0,1-1.07-.22,1.21,1.21,0,0,1-.53-.57,4.35,4.35,0,0,1-.16-1.5v-4.29h-.93v-1h.93v-1.85l1.26-.76v2.61h1.27v1h-1.27v4.36a2,2,0,0,0,.07.7.58.58,0,0,0,.22.25.83.83,0,0,0,.43.09A4.61,4.61,0,0,0,176.73,198.07Z"/><path class="cls-5" d="M178,199.2V188.89h1.27v3.7a2.83,2.83,0,0,1,2.23-1,3,3,0,0,1,1.44.33,2,2,0,0,1,.88.9,4.16,4.16,0,0,1,.26,1.68v4.73h-1.26v-4.73a1.94,1.94,0,0,0-.41-1.38,1.55,1.55,0,0,0-1.17-.44,2.05,2.05,0,0,0-1.06.3,1.58,1.58,0,0,0-.7.79,3.63,3.63,0,0,0-.21,1.38v4.08Z"/></g><path class="cls-2" d="M113.52,71.34C88.43,92.06,70.86,186.13,70.86,186.13s54.49-72.36,79.59-93.07Z"/><rect class="cls-2" width="263.97" height="164.4" rx="7.2"/><rect class="cls-5" x="7.2" y="7.2" width="249.57" height="150"/><path class="cls-7" d="M257.37,157.8H6.6V6.6H257.37ZM7.8,156.6H256.17V7.8H7.8Z"/><g class="cls-8"><path class="cls-9" d="M7.2,7.2H99a9.6,9.6,0,0,1,9.6,9.6V147.6a9.6,9.6,0,0,1-9.6,9.6H7.2Z"/></g><g class="cls-10"><rect class="cls-11" x="26.4" y="19.2" width="59.38" height="34.8"/></g><path class="cls-1" d="M27.6,30a9.6,9.6,0,0,1,9.6-9.6h8.4l7.2,4.8h3.6l7.2-4.8H87V49.2H63L55.8,54H52.2L45,49.2H37.2a9.6,9.6,0,0,1-9.6-9.6h0Z"/><path class="cls-2" d="M26.4,28.8A9.6,9.6,0,0,1,36,19.2h8.4L51.6,24h3.6l7.2-4.8H85.78V48h-24l-7.2,4.8H51L43.8,48H36a9.6,9.6,0,0,1-9.6-9.6Z"/><path class="cls-3" d="M29.22,45.22A9.63,9.63,0,0,1,26.4,38.4V28.8h1.2v9.6a8.48,8.48,0,0,0,2.46,6Zm-1.62-17-1.2-.08a9.62,9.62,0,0,1,9.58-9h8.6l7.2,4.8H55l7.2-4.8h23v1.2H62.58l-7.2,4.8h-4l-7.2-4.8H36A8.41,8.41,0,0,0,27.6,28.24Z"/><g class="cls-6"><path class="cls-5" d="M39.36,31.35V29.89h1.26v1.46Zm0,8.85V32.73h1.26V40.2Z"/><path class="cls-5" d="M45.31,39.07l.18,1.12a5,5,0,0,1-1,.11,2.11,2.11,0,0,1-1.07-.22,1.29,1.29,0,0,1-.54-.57,4.72,4.72,0,0,1-.15-1.5V33.72h-.93v-1h.93V30.88L44,30.12v2.61h1.27v1H44v4.36a2,2,0,0,0,.07.7.56.56,0,0,0,.21.25.88.88,0,0,0,.44.09A4.61,4.61,0,0,0,45.31,39.07Z"/><path class="cls-5" d="M51.66,37.8,53,38a3.25,3.25,0,0,1-1.15,1.78,3.46,3.46,0,0,1-2.14.63,3.41,3.41,0,0,1-2.59-1,3.94,3.94,0,0,1-1-2.83,4.13,4.13,0,0,1,1-2.93,3.27,3.27,0,0,1,2.51-1,3.19,3.19,0,0,1,2.45,1A4.07,4.07,0,0,1,53,36.45c0,.08,0,.19,0,.34H47.43a2.85,2.85,0,0,0,.7,1.88,2.07,2.07,0,0,0,1.56.66A1.9,1.9,0,0,0,50.88,39,2.38,2.38,0,0,0,51.66,37.8Zm-4.15-2h4.17a2.55,2.55,0,0,0-.48-1.41,2,2,0,0,0-1.57-.74,2,2,0,0,0-1.47.59A2.33,2.33,0,0,0,47.51,35.75Z"/><path class="cls-5" d="M54.56,40.2V32.73h1.13v1.05a2.62,2.62,0,0,1,.93-.88A2.68,2.68,0,0,1,58,32.56a2.43,2.43,0,0,1,1.36.35,1.79,1.79,0,0,1,.75,1,2.69,2.69,0,0,1,2.31-1.31,2.28,2.28,0,0,1,1.71.62,2.61,2.61,0,0,1,.6,1.89V40.2H63.42V35.5a3.26,3.26,0,0,0-.13-1.1,1,1,0,0,0-.44-.53,1.38,1.38,0,0,0-.76-.21,1.8,1.8,0,0,0-1.31.52,2.3,2.3,0,0,0-.52,1.68V40.2H59V35.35a2.12,2.12,0,0,0-.31-1.27,1.16,1.16,0,0,0-1-.42,1.86,1.86,0,0,0-1,.28,1.57,1.57,0,0,0-.65.82,4.6,4.6,0,0,0-.21,1.57V40.2Z"/></g><path class="cls-1" d="M129,37.2a9.6,9.6,0,0,1,9.6-9.6H189v30h0l-7.2,4.8h-3.6L171,57.6h-8.4a9.6,9.6,0,0,0-9.6,9.6h0v44.4a9.6,9.6,0,0,0,9.6,9.6H189v12H138.6a9.6,9.6,0,0,1-9.6-9.6h0Z"/><path class="cls-2" d="M127.78,36a9.6,9.6,0,0,1,9.6-9.6h50.4v30h0l-7.2,4.8H177l-7.2-4.8h-8.4a9.6,9.6,0,0,0-9.6,9.6h0v44.4a9.6,9.6,0,0,0,9.6,9.6h26.4v12H137.4a9.6,9.6,0,0,1-9.6-9.6Z"/><path class="cls-3" d="M130.58,129.18a9.5,9.5,0,0,1-2.82-6.78V36H129v86.4a8.39,8.39,0,0,0,2.46,5.94Zm56.61-8h-25.8a10.84,10.84,0,0,1-7.64-3.18l.86-.84a9.62,9.62,0,0,0,6.78,2.82h25.8ZM129,35.44l-1.2-.08a9.62,9.62,0,0,1,9.58-9h49.82v1.2H137.36A8.41,8.41,0,0,0,129,35.44Z"/><g class="cls-6"><path class="cls-5" d="M139.12,50.3l.24-1.08a2.31,2.31,0,0,0,.6.1.66.66,0,0,0,.57-.26,2.57,2.57,0,0,0,.19-1.28V39.93H142v7.88a3.68,3.68,0,0,1-.36,1.92,1.67,1.67,0,0,1-1.52.7A3.64,3.64,0,0,1,139.12,50.3Zm1.6-11.74V37.09H142v1.47Z"/><path class="cls-5" d="M143.46,43.67a3.86,3.86,0,0,1,1.15-3.08,3.5,3.5,0,0,1,2.35-.83,3.37,3.37,0,0,1,2.52,1,3.85,3.85,0,0,1,1,2.79,4.93,4.93,0,0,1-.43,2.27,3,3,0,0,1-1.26,1.28,3.6,3.6,0,0,1-1.8.46,3.37,3.37,0,0,1-2.54-1A4,4,0,0,1,143.46,43.67Zm1.3,0a3.2,3.2,0,0,0,.62,2.14,2.08,2.08,0,0,0,3.15,0,3.31,3.31,0,0,0,.62-2.19,3.1,3.1,0,0,0-.63-2.1,2,2,0,0,0-1.56-.71,2,2,0,0,0-1.58.71A3.23,3.23,0,0,0,144.76,43.67Z"/><path class="cls-5" d="M151.94,38.55V37.09h1.27v1.46Zm0,8.85V39.93h1.27V47.4Z"/><path class="cls-5" d="M155.14,47.4V39.93h1.14V41a2.67,2.67,0,0,1,2.37-1.23,3.12,3.12,0,0,1,1.24.25,2,2,0,0,1,.85.63,2.4,2.4,0,0,1,.39.94,6.86,6.86,0,0,1,.07,1.23V47.4h-1.26V42.86a3.38,3.38,0,0,0-.15-1.16,1.23,1.23,0,0,0-.52-.61,1.7,1.7,0,0,0-.88-.23,2.06,2.06,0,0,0-1.4.51,2.56,2.56,0,0,0-.59,2V47.4Z"/></g><path class="cls-1" d="M154.18,68.4a9.6,9.6,0,0,1,9.6-9.6h8.4l7.2,4.8H183l7.2-4.8h23.39V87.6h-24l-7.2,4.8h-3.6l-7.2-4.8h-17.4Z"/><path class="cls-2" d="M153,67.2a9.6,9.6,0,0,1,9.6-9.6H171l7.2,4.8h3.6l7.2-4.8h23.39V86.4h-24l-7.2,4.8h-3.6l-7.2-4.8H153Z"/><path class="cls-3" d="M154.18,85.8H153V67.2h1.2Zm0-19.16-1.2-.08a9.62,9.62,0,0,1,9.58-9h8.62l7.2,4.8h3.24l7.2-4.8h23v1.2H189.18L182,63.6h-4l-7.2-4.8h-8.24A8.43,8.43,0,0,0,154.18,66.64Z"/><g class="cls-6"><path class="cls-5" d="M165.94,69.75V68.29h1.26v1.46Zm0,8.85V71.13h1.26V78.6Z"/><path class="cls-5" d="M171.89,77.47l.18,1.12a5,5,0,0,1-.95.11,2.11,2.11,0,0,1-1.07-.22,1.21,1.21,0,0,1-.53-.57,4.35,4.35,0,0,1-.16-1.5V72.12h-.93v-1h.93V69.28l1.26-.76v2.61h1.27v1h-1.27v4.36a2,2,0,0,0,.07.7.56.56,0,0,0,.21.25.88.88,0,0,0,.44.09A4.61,4.61,0,0,0,171.89,77.47Z"/><path class="cls-5" d="M178.24,76.2l1.31.16a3.25,3.25,0,0,1-1.15,1.78,3.88,3.88,0,0,1-4.73-.38,3.94,3.94,0,0,1-1-2.83,4.13,4.13,0,0,1,1-2.93,3.27,3.27,0,0,1,2.51-1,3.19,3.19,0,0,1,2.45,1,4.07,4.07,0,0,1,1,2.87c0,.08,0,.19,0,.34H174a2.79,2.79,0,0,0,.69,1.88,2.07,2.07,0,0,0,1.56.66,1.9,1.9,0,0,0,1.19-.37A2.38,2.38,0,0,0,178.24,76.2Zm-4.15-2h4.17a2.55,2.55,0,0,0-.48-1.41,2,2,0,0,0-1.57-.74,2,2,0,0,0-1.47.59A2.33,2.33,0,0,0,174.09,74.15Z"/><path class="cls-5" d="M181.14,78.6V71.13h1.13v1.05a2.62,2.62,0,0,1,.93-.88,2.68,2.68,0,0,1,1.33-.34,2.43,2.43,0,0,1,1.36.35,1.79,1.79,0,0,1,.75,1A2.69,2.69,0,0,1,189,71a2.28,2.28,0,0,1,1.71.62,2.61,2.61,0,0,1,.6,1.89V78.6H190V73.9a3.26,3.26,0,0,0-.13-1.1,1,1,0,0,0-.44-.53,1.38,1.38,0,0,0-.76-.21,1.8,1.8,0,0,0-1.31.52,2.3,2.3,0,0,0-.52,1.68V78.6h-1.27V73.75a2.2,2.2,0,0,0-.3-1.27,1.19,1.19,0,0,0-1-.42,1.86,1.86,0,0,0-1,.28,1.57,1.57,0,0,0-.65.82,4.6,4.6,0,0,0-.21,1.57V78.6Z"/></g><path class="cls-1" d="M154.18,88.8h18l7.2,4.8H183l7.2-4.8h23.39v28.8h-24l-7.2,4.8h-3.6l-7.2-4.8h-7.8a9.6,9.6,0,0,1-9.6-9.6h0Z"/><path class="cls-2" d="M153,87.6h18l7.2,4.8h3.6l7.2-4.8h23.39v28.8h-24l-7.2,4.8h-3.6l-7.2-4.8h-7.8a9.6,9.6,0,0,1-9.6-9.6h0Z"/><path class="cls-3" d="M155.82,113.62a9.5,9.5,0,0,1-2.82-6.78V88.2h.58v-.6h17.6l7.2,4.8h3.24l7.2-4.8h23v1.2H189.18L182,93.6h-4l-7.2-4.8H154.2v18a8.39,8.39,0,0,0,2.46,5.94Z"/><g class="cls-6"><path class="cls-5" d="M165.94,99.75V98.29h1.26v1.46Zm0,8.85v-7.47h1.26v7.47Z"/><path class="cls-5" d="M171.89,107.47l.18,1.12a5,5,0,0,1-.95.11,2.11,2.11,0,0,1-1.07-.22,1.21,1.21,0,0,1-.53-.57,4.35,4.35,0,0,1-.16-1.5v-4.29h-.93v-1h.93V99.28l1.26-.76v2.61h1.27v1h-1.27v4.36a2,2,0,0,0,.07.7.56.56,0,0,0,.21.25.88.88,0,0,0,.44.09A4.61,4.61,0,0,0,171.89,107.47Z"/><path class="cls-5" d="M178.24,106.2l1.31.16a3.25,3.25,0,0,1-1.15,1.78,3.88,3.88,0,0,1-4.73-.38,3.94,3.94,0,0,1-1-2.83,4.13,4.13,0,0,1,1-2.93,3.27,3.27,0,0,1,2.51-1,3.19,3.19,0,0,1,2.45,1,4.07,4.07,0,0,1,1,2.87c0,.08,0,.19,0,.34H174a2.79,2.79,0,0,0,.69,1.88,2.07,2.07,0,0,0,1.56.66,1.9,1.9,0,0,0,1.19-.37A2.38,2.38,0,0,0,178.24,106.2Zm-4.15-2h4.17a2.55,2.55,0,0,0-.48-1.41,2,2,0,0,0-1.57-.74,2,2,0,0,0-1.47.59A2.33,2.33,0,0,0,174.09,104.15Z"/><path class="cls-5" d="M181.14,108.6v-7.47h1.13v1.05a2.62,2.62,0,0,1,.93-.88,2.68,2.68,0,0,1,1.33-.34,2.43,2.43,0,0,1,1.36.35,1.79,1.79,0,0,1,.75,1A2.69,2.69,0,0,1,189,101a2.28,2.28,0,0,1,1.71.62,2.61,2.61,0,0,1,.6,1.89v5.13H190v-4.7a3.26,3.26,0,0,0-.13-1.1,1,1,0,0,0-.44-.53,1.38,1.38,0,0,0-.76-.21,1.8,1.8,0,0,0-1.31.52,2.3,2.3,0,0,0-.52,1.68v4.34h-1.27v-4.85a2.2,2.2,0,0,0-.3-1.27,1.19,1.19,0,0,0-1-.42,1.86,1.86,0,0,0-1,.28,1.57,1.57,0,0,0-.65.82,4.6,4.6,0,0,0-.21,1.57v3.87Z"/></g><rect class="cls-12" width="595.28" height="18"/></g></g></g></svg>