<svg xmlns="http://www.w3.org/2000/svg" viewBox="0 0 595.39 50"><defs><style>.cls-1{fill:none;}.cls-2{fill:#3c866d;}.cls-3{fill:#4ba587;}.cls-4{fill:#81c1ab;}.cls-5{fill:#3a53a4;}.cls-6{fill:#fff;}.cls-7{isolation:isolate;}</style></defs><g id="Layer_2" data-name="Layer 2"><g id="Layer_1-2" data-name="Layer 1"><rect class="cls-1" x="0.12" width="595.28" height="18"/><path class="cls-2" d="M9.12,1h161V6c0,10-8-8-8,7.5s8-2.5,8,7.5V31c0,10-8-8-8,7.5s8-2.5,8,7.5v4H9.12V21c0-10-8,8-8-7.5s8,2.5,8-7.5Z"/><path class="cls-3" d="M8.12,0h161V5c0,10-8-8-8,7.5s8-2.5,8,7.5V30c0,10-8-8-8,7.5s8-2.5,8,7.5v4H8.12V20c0-10-8,8-8-7.5s8,2.5,8-7.5Z"/><path class="cls-4" d="M9.12,48.5h-1v-30h1Zm155.19-3.77-.49-.86,3.68-2.1.49.86Zm0-25-.49-.86,3.68-2.1.49.86ZM.77,18.13a20.9,20.9,0,0,1,0-11.26l1,.26a19.79,19.79,0,0,0,0,10.74ZM9.12,8h-1V0H168.57V1H9.12Z"/><rect class="cls-5" x="18.12" y="5" width="16" height="16" rx="4"/><path class="cls-6" d="M30.12,21.5h-8a4.51,4.51,0,0,1-4.5-4.5V9a4.51,4.51,0,0,1,4.5-4.5h8A4.51,4.51,0,0,1,34.62,9v8A4.51,4.51,0,0,1,30.12,21.5Zm-8-16A3.5,3.5,0,0,0,18.62,9v8a3.5,3.5,0,0,0,3.5,3.5h8a3.5,3.5,0,0,0,3.5-3.5V9a3.5,3.5,0,0,0-3.5-3.5Z"/><path class="cls-6" d="M22.32,12.3v1.36l-.92.68-.11.41.9,1.56.41.11,1-.46,1.19.69L25,17.78l.3.3h1.8l.3-.3.12-1.14L28.67,16l1,.46.41-.11.9-1.56-.11-.41L30,13.66V12.3l.92-.68.11-.41-.9-1.56-.41-.11-1,.46-1.19-.68-.12-1.14-.3-.3h-1.8l-.3.3-.13,1.14L23.64,10l-1-.46-.41.11-.9,1.56.11.41Z"/><circle class="cls-5" cx="26.12" cy="13" r="2.7"/><path class="cls-6" d="M26.12,16.2a3.2,3.2,0,1,1,3.2-3.2A3.2,3.2,0,0,1,26.12,16.2Zm0-5.4a2.2,2.2,0,1,0,2.2,2.2A2.2,2.2,0,0,0,26.12,10.8Z"/><g class="cls-7"><path class="cls-6" d="M49.45,17.61a3.61,3.61,0,0,1-1.92-.49,3.18,3.18,0,0,1-1.25-1.34,4.44,4.44,0,0,1-.44-2.06,4.5,4.5,0,0,1,.45-2.06,3.29,3.29,0,0,1,1.27-1.39,3.72,3.72,0,0,1,1.95-.49A4.16,4.16,0,0,1,51,10a3.31,3.31,0,0,1,1.18.72l-.41.91A4.73,4.73,0,0,0,50.67,11a3,3,0,0,0-1.1-.22,2.29,2.29,0,0,0-1.81.77,3.21,3.21,0,0,0-.66,2.16,3.12,3.12,0,0,0,.66,2.13,2.28,2.28,0,0,0,1.81.75,2.84,2.84,0,0,0,1.1-.22,4.35,4.35,0,0,0,1.09-.65l.41.9a3.43,3.43,0,0,1-1.21.71A4.33,4.33,0,0,1,49.45,17.61Z"/><path class="cls-6" d="M53.71,17.5V12.07c0-.35,0-.7,0-1.06s0-.71-.1-1h1.16l.16,1.86-.16-.05a2.35,2.35,0,0,1,.9-1.49,2.6,2.6,0,0,1,1.57-.5,2.23,2.23,0,0,1,.37,0,1.14,1.14,0,0,1,.32.07l0,1.1a2.69,2.69,0,0,0-.79-.11,2.11,2.11,0,0,0-1.26.34,2.06,2.06,0,0,0-.69.88,3,3,0,0,0-.21,1.12v4.3Z"/><path class="cls-6" d="M65.17,16.6a3.34,3.34,0,0,1-1.27.73,4.74,4.74,0,0,1-1.58.28,4.16,4.16,0,0,1-2-.47A3.17,3.17,0,0,1,59,15.8a4.44,4.44,0,0,1-.46-2.09A4.47,4.47,0,0,1,59,11.65a3.41,3.41,0,0,1,1.25-1.38,3.49,3.49,0,0,1,1.86-.49,3.17,3.17,0,0,1,1.72.44,2.8,2.8,0,0,1,1.1,1.27,4.58,4.58,0,0,1,.39,2v.23h-5.7v-.8h5l-.39.56a3.19,3.19,0,0,0-.52-2,1.94,1.94,0,0,0-1.6-.7,2.11,2.11,0,0,0-1.72.77,3.36,3.36,0,0,0-.62,2.14,3.32,3.32,0,0,0,.65,2.22,2.42,2.42,0,0,0,1.92.75,3.56,3.56,0,0,0,1.26-.22,3.84,3.84,0,0,0,1.17-.67Z"/><path class="cls-6" d="M70.05,17.61a3.26,3.26,0,0,1-1.77-.48,3.11,3.11,0,0,1-1.17-1.35,4.85,4.85,0,0,1-.41-2.06,4.78,4.78,0,0,1,.42-2.07,3.26,3.26,0,0,1,1.18-1.38,3.12,3.12,0,0,1,1.75-.49,2.94,2.94,0,0,1,1.75.51,2.48,2.48,0,0,1,1,1.45l-.18.12V10h1.2V17.5H72.6V15.55l.18.09a2.51,2.51,0,0,1-1,1.45A2.88,2.88,0,0,1,70.05,17.61Zm.24-1A2,2,0,0,0,72,15.84a3.38,3.38,0,0,0,.6-2.15A3.38,3.38,0,0,0,72,11.54a2.07,2.07,0,0,0-1.7-.75,2.11,2.11,0,0,0-1.74.78,3.36,3.36,0,0,0-.62,2.15,3.28,3.28,0,0,0,.62,2.13A2.15,2.15,0,0,0,70.29,16.6Z"/><path class="cls-6" d="M75.09,10.92V10h4.84v1Zm4.81,5.5v1l-.5.11a4.58,4.58,0,0,1-.55,0A2.26,2.26,0,0,1,77.18,17a2.35,2.35,0,0,1-.62-1.79V8l1.21-.44V15a2.11,2.11,0,0,0,.17.93,1,1,0,0,0,.48.46,1.78,1.78,0,0,0,.67.12l.41,0Z"/><path class="cls-6" d="M87.58,16.6a3.34,3.34,0,0,1-1.27.73,4.74,4.74,0,0,1-1.58.28,4.16,4.16,0,0,1-2-.47,3.17,3.17,0,0,1-1.3-1.34A4.44,4.44,0,0,1,81,13.71a4.47,4.47,0,0,1,.45-2.06,3.41,3.41,0,0,1,1.25-1.38,3.49,3.49,0,0,1,1.86-.49,3.17,3.17,0,0,1,1.72.44,2.8,2.8,0,0,1,1.1,1.27,4.58,4.58,0,0,1,.39,2v.23H82v-.8h5l-.39.56a3.19,3.19,0,0,0-.52-2,1.94,1.94,0,0,0-1.6-.7,2.11,2.11,0,0,0-1.72.77,3.36,3.36,0,0,0-.62,2.14,3.32,3.32,0,0,0,.65,2.22,2.42,2.42,0,0,0,1.92.75A3.56,3.56,0,0,0,86,16.38a3.84,3.84,0,0,0,1.17-.67Z"/><path class="cls-6" d="M92.41,10.92V10h4.85v1Zm4.82,5.5v1l-.51.11a4.26,4.26,0,0,1-.54,0A2.3,2.3,0,0,1,94.5,17a2.39,2.39,0,0,1-.62-1.79V8l1.22-.44V15a2,2,0,0,0,.17.93,1,1,0,0,0,.47.46,1.83,1.83,0,0,0,.68.12l.4,0Z"/><path class="cls-6" d="M104.91,16.6a3.42,3.42,0,0,1-1.27.73,4.78,4.78,0,0,1-1.58.28,4.13,4.13,0,0,1-2-.47,3.19,3.19,0,0,1-1.31-1.34,4.57,4.57,0,0,1-.45-2.09,4.47,4.47,0,0,1,.45-2.06A3.34,3.34,0,0,1,100,10.27a3.43,3.43,0,0,1,1.85-.49,3.2,3.2,0,0,1,1.73.44,2.86,2.86,0,0,1,1.1,1.27,4.74,4.74,0,0,1,.38,2v.23h-5.7v-.8h5l-.39.56a3.13,3.13,0,0,0-.52-2,1.9,1.9,0,0,0-1.59-.7,2.1,2.1,0,0,0-1.72.77,3.31,3.31,0,0,0-.62,2.14,3.27,3.27,0,0,0,.65,2.22,2.39,2.39,0,0,0,1.91.75,3.65,3.65,0,0,0,1.27-.22,3.92,3.92,0,0,0,1.16-.67Z"/><path class="cls-6" d="M107.26,17.5h-1.48l3.13-3.88.71-.89L111.81,10h1.48l-2.94,3.66-.73.91Zm4.74,0-2.38-3-.71-.91L106,10h1.47l2.19,2.77.73.89,3.11,3.88Z"/><path class="cls-6" d="M113.74,10.92V10h4.85v1Zm4.82,5.5v1l-.51.11a4.26,4.26,0,0,1-.54,0,2.3,2.3,0,0,1-1.68-.61,2.39,2.39,0,0,1-.62-1.79V8l1.22-.44V15a2,2,0,0,0,.17.93,1,1,0,0,0,.47.46,1.83,1.83,0,0,0,.68.12l.4,0Z"/><path class="cls-6" d="M126,17.5,123.21,10h1.27l2.33,6.64h-.39l2.4-6.64h1.06l2.37,6.64h-.39L134.23,10h1.2l-2.79,7.54h-1.17L129,10.71h.66l-2.47,6.79Z"/><path class="cls-6" d="M136.89,6.76h1.48V8.14h-1.48ZM137,17.5V10h1.21V17.5Z"/><path class="cls-6" d="M139.51,10.92V10h4.85v1Zm4.81,5.5v1l-.5.11a4.41,4.41,0,0,1-.54,0A2.28,2.28,0,0,1,141.6,17a2.39,2.39,0,0,1-.62-1.79V8l1.22-.44V15a2,2,0,0,0,.17.93,1,1,0,0,0,.47.46,1.78,1.78,0,0,0,.67.12l.41,0A4.1,4.1,0,0,0,144.32,16.42Z"/><path class="cls-6" d="M145.82,17.5v-11H147v5l-.2.14a2.6,2.6,0,0,1,1.06-1.38,3,3,0,0,1,1.69-.47c1.81,0,2.71,1,2.71,3V17.5h-1.21V12.82a2.34,2.34,0,0,0-.42-1.54,1.67,1.67,0,0,0-1.32-.49,2.24,2.24,0,0,0-1.68.65,2.38,2.38,0,0,0-.63,1.74V17.5Z"/></g></g></g></svg>