<svg xmlns="http://www.w3.org/2000/svg" viewBox="0 0 595.39 25"><defs><style>.cls-1{fill:none;}.cls-2{fill:#3c8655;}.cls-3{fill:#4aa669;}.cls-4{fill:#81c197;}.cls-5{isolation:isolate;}.cls-6{fill:#fff;}</style></defs><g id="Layer_2" data-name="Layer 2"><g id="Layer_1-2" data-name="Layer 1"><rect class="cls-1" x="0.12" width="595.28" height="18"/><path class="cls-2" d="M9.12,1h267.8V25H9.12V21c0-10-8,8-8-7.5s8,2.5,8-7.5Z"/><path class="cls-3" d="M8.12,0h267.8V24H8.12V20c0-10-8,8-8-7.5s8,2.5,8-7.5Z"/><path class="cls-4" d="M9.12,23.5h-1v-5h1ZM.77,18.13a20.9,20.9,0,0,1,0-11.26l1,.26a19.79,19.79,0,0,0,0,10.74ZM9.12,8h-1V0h267.3V1H9.12Z"/><g class="cls-5"><path class="cls-6" d="M22.45,17.61a3.7,3.7,0,0,1-1.92-.48,3.2,3.2,0,0,1-1.25-1.35,4.44,4.44,0,0,1-.44-2.06,4.5,4.5,0,0,1,.45-2.06,3.29,3.29,0,0,1,1.27-1.39,3.72,3.72,0,0,1,2-.49A4.16,4.16,0,0,1,24,10a3.19,3.19,0,0,1,1.18.73l-.41.9A4.73,4.73,0,0,0,23.67,11a3,3,0,0,0-1.1-.21,2.28,2.28,0,0,0-1.81.76,3.21,3.21,0,0,0-.66,2.16,3.12,3.12,0,0,0,.66,2.13,2.28,2.28,0,0,0,1.81.75,2.84,2.84,0,0,0,1.1-.22,4.35,4.35,0,0,0,1.09-.65l.41.9a3.43,3.43,0,0,1-1.21.71A4.33,4.33,0,0,1,22.45,17.61Z"/><path class="cls-6" d="M29.38,17.61a2.6,2.6,0,0,1-2-.75,3.17,3.17,0,0,1-.68-2.22V10h1.21v4.65a2.24,2.24,0,0,0,.42,1.5,1.62,1.62,0,0,0,1.28.48,2.14,2.14,0,0,0,1.62-.65,2.38,2.38,0,0,0,.61-1.72V10H33V17.5H31.84V15.87l.18-.09a2.53,2.53,0,0,1-1,1.36A2.93,2.93,0,0,1,29.38,17.61Z"/><path class="cls-6" d="M35.37,17.5V12.07c0-.35,0-.7,0-1.06a9.3,9.3,0,0,0-.09-1H36.4l.17,1.86-.17-.05a2.32,2.32,0,0,1,.91-1.49,2.58,2.58,0,0,1,1.57-.5,2.06,2.06,0,0,1,.36,0,1.6,1.6,0,0,1,.33.07l0,1.11a2.45,2.45,0,0,0-.8-.12,2.06,2.06,0,0,0-1.25.34,1.92,1.92,0,0,0-.69.88,2.83,2.83,0,0,0-.22,1.12v4.3Z"/><path class="cls-6" d="M40.8,17.5V12.07c0-.35,0-.7,0-1.06a9.3,9.3,0,0,0-.09-1h1.15L42,11.82l-.17-.05a2.32,2.32,0,0,1,.91-1.49,2.58,2.58,0,0,1,1.57-.5,2.06,2.06,0,0,1,.36,0,1.6,1.6,0,0,1,.33.07L45,11a2.45,2.45,0,0,0-.8-.12,2.06,2.06,0,0,0-1.25.34,1.92,1.92,0,0,0-.69.88A2.83,2.83,0,0,0,42,13.2v4.3Z"/><path class="cls-6" d="M52.26,16.6a3.58,3.58,0,0,1-1.27.74,4.77,4.77,0,0,1-1.58.27,4.13,4.13,0,0,1-2-.47,3.19,3.19,0,0,1-1.31-1.34,4.54,4.54,0,0,1-.45-2.09,4.5,4.5,0,0,1,.45-2.06,3.34,3.34,0,0,1,1.25-1.38,3.43,3.43,0,0,1,1.85-.49,3.2,3.2,0,0,1,1.73.44A2.86,2.86,0,0,1,52,11.49a4.76,4.76,0,0,1,.38,2v.22h-5.7V12.9h5l-.39.55a3.08,3.08,0,0,0-.52-2,1.88,1.88,0,0,0-1.59-.71,2.1,2.1,0,0,0-1.72.77,3.31,3.31,0,0,0-.62,2.14,3.27,3.27,0,0,0,.65,2.22,2.39,2.39,0,0,0,1.91.75,3.65,3.65,0,0,0,1.27-.22,3.88,3.88,0,0,0,1.16-.66Z"/><path class="cls-6" d="M54.24,17.5V12.07c0-.35,0-.7,0-1.06a9.3,9.3,0,0,0-.09-1h1.15l.14,1.56-.15.12a2.58,2.58,0,0,1,1.05-1.39A3,3,0,0,1,58,9.78c1.81,0,2.72,1,2.72,3V17.5H59.5V12.82a2.34,2.34,0,0,0-.42-1.54,1.67,1.67,0,0,0-1.32-.48,2.24,2.24,0,0,0-1.68.64,2.38,2.38,0,0,0-.63,1.74V17.5Z"/><path class="cls-6" d="M62,10.92V10h4.84v1Zm4.81,5.5v1a5,5,0,0,1-.5.11,4.58,4.58,0,0,1-.55,0A2.29,2.29,0,0,1,64,17a2.37,2.37,0,0,1-.62-1.8V8l1.21-.43V15a2.11,2.11,0,0,0,.17.93,1,1,0,0,0,.48.46,1.78,1.78,0,0,0,.67.13,2.54,2.54,0,0,0,.41,0A2.73,2.73,0,0,0,66.76,16.42Z"/><path class="cls-6" d="M78.36,16.6a3.58,3.58,0,0,1-1.27.74,4.77,4.77,0,0,1-1.58.27,4.13,4.13,0,0,1-2-.47,3.19,3.19,0,0,1-1.31-1.34,4.54,4.54,0,0,1-.45-2.09,4.5,4.5,0,0,1,.45-2.06,3.34,3.34,0,0,1,1.25-1.38,3.43,3.43,0,0,1,1.85-.49,3.2,3.2,0,0,1,1.73.44,2.86,2.86,0,0,1,1.1,1.27,4.76,4.76,0,0,1,.38,2v.22h-5.7V12.9h5l-.39.55a3.08,3.08,0,0,0-.52-2,1.88,1.88,0,0,0-1.59-.71,2.1,2.1,0,0,0-1.72.77A3.31,3.31,0,0,0,73,13.63a3.27,3.27,0,0,0,.65,2.22,2.39,2.39,0,0,0,1.91.75,3.65,3.65,0,0,0,1.27-.22A3.88,3.88,0,0,0,78,15.72Z"/><path class="cls-6" d="M80.34,17.5v-11h1.21v11Z"/><path class="cls-6" d="M86.8,17.61A3.2,3.2,0,0,1,85,17.13a3,3,0,0,1-1.17-1.35,4.71,4.71,0,0,1-.41-2.06,4.78,4.78,0,0,1,.42-2.07,3.31,3.31,0,0,1,1.17-1.38,3.14,3.14,0,0,1,1.75-.49,3,3,0,0,1,1.76.51,2.5,2.5,0,0,1,1,1.45l-.18.12V10h1.2V17.5h-1.2V15.55l.18.09a2.52,2.52,0,0,1-1,1.46A3,3,0,0,1,86.8,17.61Zm.24-1a2,2,0,0,0,1.71-.76,3.38,3.38,0,0,0,.6-2.15,3.29,3.29,0,0,0-.61-2.14,2.32,2.32,0,0,0-3.43,0,3.3,3.3,0,0,0-.62,2.15,3.22,3.22,0,0,0,.62,2.13A2.12,2.12,0,0,0,87,16.6Z"/><path class="cls-6" d="M92.91,20.74V12.07c0-.35,0-.7,0-1.06a9.3,9.3,0,0,0-.09-1h1.15l.14,1.56-.12.22a2.5,2.5,0,0,1,1-1.45,2.93,2.93,0,0,1,1.74-.51,3.14,3.14,0,0,1,1.75.49,3.33,3.33,0,0,1,1.18,1.38,4.64,4.64,0,0,1,.43,2.07,4.57,4.57,0,0,1-.43,2.06,3.11,3.11,0,0,1-1.17,1.35,3.2,3.2,0,0,1-1.76.48,2.93,2.93,0,0,1-1.74-.51,2.52,2.52,0,0,1-1-1.46l.16-.15v5.25Zm3.54-4.14a2.09,2.09,0,0,0,1.71-.75,3.28,3.28,0,0,0,.61-2.13,3.36,3.36,0,0,0-.61-2.15,2,2,0,0,0-1.71-.77,2.09,2.09,0,0,0-1.73.75,3.35,3.35,0,0,0-.6,2.14,3.38,3.38,0,0,0,.6,2.15A2.07,2.07,0,0,0,96.45,16.6Z"/><path class="cls-6" d="M104.46,17.61a4.42,4.42,0,0,1-3-1l.41-.9a4.18,4.18,0,0,0,1.23.68,4.27,4.27,0,0,0,1.42.22,2.43,2.43,0,0,0,1.3-.29,1,1,0,0,0,.44-.85.89.89,0,0,0-.3-.71,2.3,2.3,0,0,0-1-.43l-1.27-.3a2.86,2.86,0,0,1-1.47-.75A1.81,1.81,0,0,1,101.7,12a1.93,1.93,0,0,1,.36-1.16,2.34,2.34,0,0,1,1-.79,3.77,3.77,0,0,1,1.53-.28,4.37,4.37,0,0,1,1.5.25,3.21,3.21,0,0,1,1.19.74l-.41.88a4.17,4.17,0,0,0-1.1-.67,3.37,3.37,0,0,0-1.18-.21,2.12,2.12,0,0,0-1.25.31,1.09,1.09,0,0,0-.17,1.59,2,2,0,0,0,.9.42l1.27.32a3,3,0,0,1,1.57.74,1.81,1.81,0,0,1,.5,1.31,1.84,1.84,0,0,1-.79,1.56A3.57,3.57,0,0,1,104.46,17.61Z"/><path class="cls-6" d="M115.53,16.6a3.58,3.58,0,0,1-1.27.74,4.77,4.77,0,0,1-1.58.27,4.13,4.13,0,0,1-2-.47,3.19,3.19,0,0,1-1.31-1.34,4.54,4.54,0,0,1-.45-2.09,4.5,4.5,0,0,1,.45-2.06,3.34,3.34,0,0,1,1.25-1.38,3.43,3.43,0,0,1,1.85-.49,3.2,3.2,0,0,1,1.73.44,2.86,2.86,0,0,1,1.1,1.27,4.76,4.76,0,0,1,.38,2v.22H110V12.9h5l-.39.55a3.08,3.08,0,0,0-.52-2,1.88,1.88,0,0,0-1.59-.71,2.1,2.1,0,0,0-1.72.77,3.31,3.31,0,0,0-.62,2.14,3.27,3.27,0,0,0,.65,2.22,2.39,2.39,0,0,0,1.91.75,3.65,3.65,0,0,0,1.27-.22,3.88,3.88,0,0,0,1.16-.66Z"/><path class="cls-6" d="M124.15,17.5H123v-2l.18.16a2.52,2.52,0,0,1-1,1.46,3,3,0,0,1-1.76.51,3.22,3.22,0,0,1-1.75-.49,3.31,3.31,0,0,1-1.17-1.38,4.86,4.86,0,0,1-.42-2.08,4.66,4.66,0,0,1,.41-2.05,3.09,3.09,0,0,1,1.17-1.35,3.2,3.2,0,0,1,1.76-.48,3,3,0,0,1,1.76.51,2.56,2.56,0,0,1,1,1.45l-.19.15V6.46h1.21Zm-3.51-.9a2,2,0,0,0,1.7-.76,3.32,3.32,0,0,0,.61-2.15,3.38,3.38,0,0,0-.6-2.14,2.06,2.06,0,0,0-1.71-.75,2.12,2.12,0,0,0-1.73.75,3.18,3.18,0,0,0-.62,2.11,3.36,3.36,0,0,0,.62,2.17A2.1,2.1,0,0,0,120.64,16.6Z"/><path class="cls-6" d="M129.36,10.92V10h4.84v1Zm4.81,5.5v1a5,5,0,0,1-.5.11,4.58,4.58,0,0,1-.55,0,2.29,2.29,0,0,1-1.67-.6,2.37,2.37,0,0,1-.62-1.8V8L132,7.59V15a2.11,2.11,0,0,0,.17.93,1,1,0,0,0,.48.46,1.78,1.78,0,0,0,.67.13,2.54,2.54,0,0,0,.41,0A2.73,2.73,0,0,0,134.17,16.42Z"/><path class="cls-6" d="M135.55,6.76H137V8.14h-1.49Zm.12,10.74V10h1.22V17.5Z"/><path class="cls-6" d="M139.24,17.5V12.07c0-.35,0-.7,0-1.06s-.05-.7-.1-1h1.16l.13,1.56-.15.1a2.49,2.49,0,0,1,.94-1.36,2.62,2.62,0,0,1,1.58-.48,2.46,2.46,0,0,1,1.7.54,2.67,2.67,0,0,1,.78,1.65l-.36-.2a2.52,2.52,0,0,1,1-1.45,2.87,2.87,0,0,1,1.75-.54,2.32,2.32,0,0,1,1.88.74,3.38,3.38,0,0,1,.62,2.24V17.5H148.9V12.82a2.55,2.55,0,0,0-.37-1.54,1.42,1.42,0,0,0-1.19-.48,1.84,1.84,0,0,0-1.49.64,2.61,2.61,0,0,0-.55,1.76v4.3h-1.21V12.82a2.47,2.47,0,0,0-.39-1.54,1.42,1.42,0,0,0-1.19-.48,1.88,1.88,0,0,0-1.51.64,2.67,2.67,0,0,0-.55,1.76v4.3Z"/><path class="cls-6" d="M158.61,16.6a3.58,3.58,0,0,1-1.27.74,4.77,4.77,0,0,1-1.58.27,4.13,4.13,0,0,1-2-.47,3.19,3.19,0,0,1-1.31-1.34,4.54,4.54,0,0,1-.45-2.09,4.5,4.5,0,0,1,.45-2.06,3.34,3.34,0,0,1,1.25-1.38,3.43,3.43,0,0,1,1.85-.49,3.2,3.2,0,0,1,1.73.44,2.86,2.86,0,0,1,1.1,1.27,4.76,4.76,0,0,1,.38,2v.22H153V12.9h5l-.39.55a3.08,3.08,0,0,0-.52-2,1.9,1.9,0,0,0-1.59-.71,2.1,2.1,0,0,0-1.72.77,3.31,3.31,0,0,0-.62,2.14,3.27,3.27,0,0,0,.65,2.22,2.39,2.39,0,0,0,1.91.75,3.65,3.65,0,0,0,1.27-.22,3.88,3.88,0,0,0,1.16-.66Z"/><path class="cls-6" d="M166.6,20.23a15.1,15.1,0,0,1-1-2.26,13.84,13.84,0,0,1-.55-2.22,15,15,0,0,1-.17-2.24,14,14,0,0,1,1.71-6.69h1a22.54,22.54,0,0,0-.88,2.46,16.07,16.07,0,0,0-.46,2.18,15.36,15.36,0,0,0,.46,6.3,23.71,23.71,0,0,0,.86,2.47Z"/><path class="cls-6" d="M169.25,17.5V12.07c0-.35,0-.7,0-1.06a9.32,9.32,0,0,0-.1-1h1.16l.13,1.56-.15.1a2.55,2.55,0,0,1,.94-1.36,2.64,2.64,0,0,1,1.58-.48,2.51,2.51,0,0,1,1.71.54,2.67,2.67,0,0,1,.77,1.65l-.36-.2a2.53,2.53,0,0,1,1-1.45,2.82,2.82,0,0,1,1.74-.54,2.32,2.32,0,0,1,1.88.74,3.38,3.38,0,0,1,.63,2.24V17.5h-1.22V12.82a2.55,2.55,0,0,0-.37-1.54,1.42,1.42,0,0,0-1.19-.48,1.85,1.85,0,0,0-1.49.64,2.67,2.67,0,0,0-.55,1.76v4.3H174.1V12.82a2.54,2.54,0,0,0-.38-1.54,1.46,1.46,0,0,0-1.2-.48,1.85,1.85,0,0,0-1.5.64,2.61,2.61,0,0,0-.55,1.76v4.3Z"/><path class="cls-6" d="M182.32,6.76h1.48V8.14h-1.48Zm.12,10.74V10h1.21V17.5Z"/><path class="cls-6" d="M189.17,17.61a3.7,3.7,0,0,1-1.92-.48A3.26,3.26,0,0,1,186,15.78a4.57,4.57,0,0,1-.44-2.06,4.5,4.5,0,0,1,.45-2.06,3.29,3.29,0,0,1,1.27-1.39,3.72,3.72,0,0,1,1.95-.49,4.12,4.12,0,0,1,1.48.26,3.11,3.11,0,0,1,1.18.73l-.41.9A4.9,4.9,0,0,0,190.4,11a3,3,0,0,0-1.11-.21,2.25,2.25,0,0,0-1.8.76,3.16,3.16,0,0,0-.67,2.16,3.12,3.12,0,0,0,.66,2.13,2.28,2.28,0,0,0,1.81.75,2.84,2.84,0,0,0,1.1-.22,4.35,4.35,0,0,0,1.09-.65l.41.9a3.34,3.34,0,0,1-1.21.71A4.29,4.29,0,0,1,189.17,17.61Z"/><path class="cls-6" d="M193.43,17.5V12.07c0-.35,0-.7,0-1.06a9.32,9.32,0,0,0-.1-1h1.16l.16,1.86-.16-.05a2.32,2.32,0,0,1,.91-1.49,2.55,2.55,0,0,1,1.56-.5,2.17,2.17,0,0,1,.37,0,1.5,1.5,0,0,1,.32.07l0,1.11a2.39,2.39,0,0,0-.79-.12,2.06,2.06,0,0,0-1.25.34,1.92,1.92,0,0,0-.69.88,2.83,2.83,0,0,0-.22,1.12v4.3Z"/><path class="cls-6" d="M201.83,17.61a3.6,3.6,0,0,1-1.88-.48,3.27,3.27,0,0,1-1.24-1.36,4.52,4.52,0,0,1-.45-2.08,4.51,4.51,0,0,1,.45-2.07A3.21,3.21,0,0,1,200,10.26a3.6,3.6,0,0,1,1.88-.48,3.64,3.64,0,0,1,1.89.48A3.21,3.21,0,0,1,205,11.62a4.51,4.51,0,0,1,.44,2.07,4.52,4.52,0,0,1-.44,2.08,3.27,3.27,0,0,1-1.24,1.36A3.64,3.64,0,0,1,201.83,17.61Zm0-1a2.11,2.11,0,0,0,1.72-.74,3.34,3.34,0,0,0,.61-2.17,3.29,3.29,0,0,0-.62-2.14,2.32,2.32,0,0,0-3.42,0,3.23,3.23,0,0,0-.63,2.14,3.4,3.4,0,0,0,.61,2.17A2.13,2.13,0,0,0,201.83,16.6Z"/><path class="cls-6" d="M209.84,17.61a4.4,4.4,0,0,1-3-1l.4-.9a4.23,4.23,0,0,0,1.24.68,4.27,4.27,0,0,0,1.42.22,2.43,2.43,0,0,0,1.3-.29,1,1,0,0,0,.44-.85.89.89,0,0,0-.3-.71,2.3,2.3,0,0,0-1-.43l-1.28-.3a2.82,2.82,0,0,1-1.46-.75,1.82,1.82,0,0,1-.52-1.29,1.93,1.93,0,0,1,.36-1.16,2.37,2.37,0,0,1,1-.79A3.77,3.77,0,0,1,210,9.78a4.37,4.37,0,0,1,1.5.25,3.16,3.16,0,0,1,1.18.74l-.4.88a4.17,4.17,0,0,0-1.1-.67,3.37,3.37,0,0,0-1.18-.21,2.12,2.12,0,0,0-1.25.31,1,1,0,0,0-.45.86,1,1,0,0,0,.28.73,1.94,1.94,0,0,0,.89.42l1.28.32a3,3,0,0,1,1.57.74,1.81,1.81,0,0,1,.5,1.31A1.85,1.85,0,0,1,212,17,3.57,3.57,0,0,1,209.84,17.61Z"/><path class="cls-6" d="M220.91,16.6a3.53,3.53,0,0,1-1.26.74,4.83,4.83,0,0,1-1.59.27,4.09,4.09,0,0,1-2-.47,3.19,3.19,0,0,1-1.31-1.34,4.54,4.54,0,0,1-.46-2.09,4.5,4.5,0,0,1,.45-2.06A3.37,3.37,0,0,1,216,10.27a3.43,3.43,0,0,1,1.85-.49,3.17,3.17,0,0,1,1.72.44,2.88,2.88,0,0,1,1.11,1.27,4.76,4.76,0,0,1,.38,2v.22h-5.7V12.9h5l-.39.55a3.08,3.08,0,0,0-.52-2,1.9,1.9,0,0,0-1.6-.71,2.08,2.08,0,0,0-1.71.77,3.31,3.31,0,0,0-.63,2.14,3.27,3.27,0,0,0,.66,2.22,2.39,2.39,0,0,0,1.91.75,3.65,3.65,0,0,0,1.27-.22,3.88,3.88,0,0,0,1.16-.66Z"/><path class="cls-6" d="M226.06,17.61a3.7,3.7,0,0,1-1.92-.48,3.2,3.2,0,0,1-1.25-1.35,4.44,4.44,0,0,1-.45-2.06,4.5,4.5,0,0,1,.45-2.06,3.31,3.31,0,0,1,1.28-1.39,3.72,3.72,0,0,1,2-.49,4.16,4.16,0,0,1,1.48.26,3.15,3.15,0,0,1,1.17.73l-.4.9a4.73,4.73,0,0,0-1.09-.66,3,3,0,0,0-1.1-.21,2.28,2.28,0,0,0-1.81.76,3.21,3.21,0,0,0-.67,2.16,3.12,3.12,0,0,0,.66,2.13,2.3,2.3,0,0,0,1.82.75,2.79,2.79,0,0,0,1.09-.22,4.4,4.4,0,0,0,1.1-.65l.4.9a3.38,3.38,0,0,1-1.2.71A4.33,4.33,0,0,1,226.06,17.61Z"/><path class="cls-6" d="M233.44,17.61a3.58,3.58,0,0,1-1.88-.48,3.29,3.29,0,0,1-1.25-1.36,4.65,4.65,0,0,1-.44-2.08,4.64,4.64,0,0,1,.44-2.07,3.23,3.23,0,0,1,1.25-1.36,3.92,3.92,0,0,1,3.76,0,3.23,3.23,0,0,1,1.25,1.36,4.64,4.64,0,0,1,.44,2.07,4.65,4.65,0,0,1-.44,2.08,3.29,3.29,0,0,1-1.25,1.36A3.58,3.58,0,0,1,233.44,17.61Zm0-1a2.12,2.12,0,0,0,1.72-.74,3.4,3.4,0,0,0,.6-2.17,3.29,3.29,0,0,0-.61-2.14,2.09,2.09,0,0,0-1.71-.75,2.12,2.12,0,0,0-1.72.75,3.29,3.29,0,0,0-.62,2.14,3.34,3.34,0,0,0,.61,2.17A2.11,2.11,0,0,0,233.44,16.6Z"/><path class="cls-6" d="M238.9,17.5V12.07c0-.35,0-.7,0-1.06s0-.7-.1-1h1.15l.14,1.56-.15.12A2.58,2.58,0,0,1,241,10.25a3,3,0,0,1,1.69-.47c1.81,0,2.72,1,2.72,3V17.5h-1.22V12.82a2.34,2.34,0,0,0-.42-1.54,1.67,1.67,0,0,0-1.32-.48,2.24,2.24,0,0,0-1.68.64,2.38,2.38,0,0,0-.63,1.74V17.5Z"/><path class="cls-6" d="M254.32,17.5h-1.2v-2l.18.16a2.54,2.54,0,0,1-1,1.46,2.94,2.94,0,0,1-1.75.51,3.22,3.22,0,0,1-1.75-.49,3.33,3.33,0,0,1-1.18-1.38,4.86,4.86,0,0,1-.42-2.08,4.66,4.66,0,0,1,.42-2.05,3.09,3.09,0,0,1,1.17-1.35,3.2,3.2,0,0,1,1.76-.48,2.94,2.94,0,0,1,1.75.51,2.58,2.58,0,0,1,1,1.45l-.2.15V6.46h1.22Zm-3.51-.9a2,2,0,0,0,1.7-.76,3.32,3.32,0,0,0,.61-2.15,3.38,3.38,0,0,0-.6-2.14,2.06,2.06,0,0,0-1.71-.75,2.12,2.12,0,0,0-1.73.75,3.18,3.18,0,0,0-.63,2.11,3.36,3.36,0,0,0,.63,2.17A2.1,2.1,0,0,0,250.81,16.6Z"/><path class="cls-6" d="M259.22,17.61a4.4,4.4,0,0,1-3-1l.4-.9a4.23,4.23,0,0,0,1.24.68,4.27,4.27,0,0,0,1.42.22,2.43,2.43,0,0,0,1.3-.29,1,1,0,0,0,.44-.85.89.89,0,0,0-.3-.71,2.3,2.3,0,0,0-1-.43l-1.28-.3A2.82,2.82,0,0,1,257,13.3a1.82,1.82,0,0,1-.52-1.29,1.93,1.93,0,0,1,.36-1.16,2.37,2.37,0,0,1,1-.79,3.77,3.77,0,0,1,1.53-.28,4.37,4.37,0,0,1,1.5.25,3.16,3.16,0,0,1,1.18.74l-.4.88a4.17,4.17,0,0,0-1.1-.67,3.37,3.37,0,0,0-1.18-.21,2.12,2.12,0,0,0-1.25.31,1,1,0,0,0-.45.86,1,1,0,0,0,.28.73,1.94,1.94,0,0,0,.89.42l1.28.32a3,3,0,0,1,1.57.74,1.81,1.81,0,0,1,.5,1.31,1.85,1.85,0,0,1-.8,1.56A3.57,3.57,0,0,1,259.22,17.61Z"/><path class="cls-6" d="M264.43,20.23h-1a20,20,0,0,0,.87-2.47,16,16,0,0,0,.59-4.25,15.82,15.82,0,0,0-.59-4.23,20.45,20.45,0,0,0-.87-2.46h1a14.44,14.44,0,0,1,1.3,3.35,13.94,13.94,0,0,1,.4,3.34,15,15,0,0,1-.17,2.24,13.84,13.84,0,0,1-.55,2.22A15.1,15.1,0,0,1,264.43,20.23Z"/></g></g></g></svg>