<svg xmlns="http://www.w3.org/2000/svg" viewBox="0 0 595.28 26"><defs><style>.cls-1{fill:none;}.cls-2{fill:#3c8655;}.cls-3{fill:#4aa669;}.cls-4{fill:#81c197;}.cls-5{isolation:isolate;}.cls-6{fill:#fff;}</style></defs><g id="Layer_2" data-name="Layer 2"><g id="Layer_1-2" data-name="Layer 1"><rect class="cls-1" width="595.28" height="18"/><path class="cls-2" d="M1,9A8,8,0,0,1,9,1h7l6,4h3l6-4H202.52V26H9a8,8,0,0,1-8-8Z"/><path class="cls-3" d="M0,8A8,8,0,0,1,8,0h7l6,4h3l6-4H201.52V25H8a8,8,0,0,1-8-8Z"/><path class="cls-4" d="M2.34,22.66A8,8,0,0,1,0,17V8H1v9A7,7,0,0,0,3.05,22ZM1,7.53,0,7.47A8,8,0,0,1,8,0h7.17l6,4h2.7l6-4H201V1H30.15l-6,4h-3.3l-6-4H8A7,7,0,0,0,1,7.53Z"/><g class="cls-5"><path class="cls-6" d="M13.19,17.5,10.4,10h1.28L14,16.6h-.38L16,10h1.06l2.37,6.64h-.39L21.43,10h1.2L19.84,17.5H18.67l-2.49-6.79h.66L14.37,17.5Z"/><path class="cls-6" d="M27,17.61a3.2,3.2,0,0,1-1.76-.48,3,3,0,0,1-1.17-1.35,4.71,4.71,0,0,1-.41-2.06,4.64,4.64,0,0,1,.42-2.07,3.24,3.24,0,0,1,1.17-1.38A3.14,3.14,0,0,1,27,9.78a2.94,2.94,0,0,1,1.75.51,2.51,2.51,0,0,1,1,1.45l-.18.12V10h1.2V17.5h-1.2V15.55l.18.09a2.54,2.54,0,0,1-1,1.46A2.94,2.94,0,0,1,27,17.61Zm.24-1A2,2,0,0,0,29,15.84a3.38,3.38,0,0,0,.6-2.15A3.29,3.29,0,0,0,29,11.55a2.32,2.32,0,0,0-3.43,0,3.3,3.3,0,0,0-.62,2.15,3.22,3.22,0,0,0,.62,2.13A2.12,2.12,0,0,0,27.25,16.6Z"/><path class="cls-6" d="M33,6.76h1.49V8.14H33Zm.12,10.74V10h1.22V17.5Z"/><path class="cls-6" d="M35.62,10.92V10h4.84v1Zm4.81,5.5v1a4.48,4.48,0,0,1-.5.11,4.43,4.43,0,0,1-.55,0,2.31,2.31,0,0,1-1.67-.6,2.41,2.41,0,0,1-.62-1.8V8l1.21-.43V15a2,2,0,0,0,.18.93,1,1,0,0,0,.47.46,1.78,1.78,0,0,0,.67.13,2.54,2.54,0,0,0,.41,0A2.73,2.73,0,0,0,40.43,16.42Z"/><path class="cls-6" d="M44.78,10.92V10h4.53v1Zm4.75-3.35a3,3,0,0,0-.79-.12,1.54,1.54,0,0,0-.65.13.93.93,0,0,0-.46.46,2.06,2.06,0,0,0-.16.91V17.5H46.25V8.8A2.45,2.45,0,0,1,46.85,7,2.27,2.27,0,0,1,48.5,6.4l.51,0a3.46,3.46,0,0,1,.52.11Z"/><path class="cls-6" d="M54,17.61a3.58,3.58,0,0,1-1.88-.48,3.29,3.29,0,0,1-1.25-1.36,4.65,4.65,0,0,1-.44-2.08,4.64,4.64,0,0,1,.44-2.07,3.23,3.23,0,0,1,1.25-1.36,3.92,3.92,0,0,1,3.76,0,3.23,3.23,0,0,1,1.25,1.36,4.64,4.64,0,0,1,.44,2.07,4.65,4.65,0,0,1-.44,2.08,3.29,3.29,0,0,1-1.25,1.36A3.58,3.58,0,0,1,54,17.61Zm0-1a2.12,2.12,0,0,0,1.72-.74,3.4,3.4,0,0,0,.6-2.17,3.29,3.29,0,0,0-.61-2.14A2.09,2.09,0,0,0,54,10.8a2.12,2.12,0,0,0-1.72.75,3.29,3.29,0,0,0-.62,2.14,3.34,3.34,0,0,0,.61,2.17A2.11,2.11,0,0,0,54,16.6Z"/><path class="cls-6" d="M59.41,17.5V12.07c0-.35,0-.7,0-1.06s0-.7-.1-1h1.15l.17,1.86-.17-.05a2.36,2.36,0,0,1,.91-1.49,2.6,2.6,0,0,1,1.57-.5,2.23,2.23,0,0,1,.37,0,1.65,1.65,0,0,1,.32.07l0,1.11a2.45,2.45,0,0,0-.8-.12,1.92,1.92,0,0,0-1.94,1.22,3,3,0,0,0-.22,1.12v4.3Z"/><path class="cls-6" d="M70.87,16.6a3.49,3.49,0,0,1-1.27.74,4.73,4.73,0,0,1-1.58.27,4.16,4.16,0,0,1-2-.47,3.17,3.17,0,0,1-1.3-1.34,4.42,4.42,0,0,1-.46-2.09,4.5,4.5,0,0,1,.45-2.06,3.41,3.41,0,0,1,1.25-1.38,3.46,3.46,0,0,1,1.85-.49,3.2,3.2,0,0,1,1.73.44,2.8,2.8,0,0,1,1.1,1.27,4.6,4.6,0,0,1,.38,2v.22H65.3V12.9h5l-.39.55a3.14,3.14,0,0,0-.51-2,1.91,1.91,0,0,0-1.6-.71,2.11,2.11,0,0,0-1.72.77,3.36,3.36,0,0,0-.62,2.14,3.32,3.32,0,0,0,.65,2.22A2.4,2.4,0,0,0,68,16.6a3.61,3.61,0,0,0,1.27-.22,3.77,3.77,0,0,0,1.16-.66Z"/><path class="cls-6" d="M75,17.5,71.77,10H73l2.73,6.65h-.36L78.17,10h1.22L76.13,17.5Z"/><path class="cls-6" d="M86.81,16.6a3.53,3.53,0,0,1-1.26.74,4.83,4.83,0,0,1-1.59.27,4.09,4.09,0,0,1-2-.47,3.19,3.19,0,0,1-1.31-1.34,4.54,4.54,0,0,1-.46-2.09,4.5,4.5,0,0,1,.45-2.06,3.37,3.37,0,0,1,1.26-1.38,3.43,3.43,0,0,1,1.85-.49,3.17,3.17,0,0,1,1.72.44,2.88,2.88,0,0,1,1.11,1.27,4.76,4.76,0,0,1,.38,2v.22h-5.7V12.9h5l-.39.55a3.08,3.08,0,0,0-.52-2,1.9,1.9,0,0,0-1.6-.71,2.08,2.08,0,0,0-1.71.77,3.31,3.31,0,0,0-.63,2.14,3.27,3.27,0,0,0,.66,2.22A2.39,2.39,0,0,0,84,16.6a3.65,3.65,0,0,0,1.27-.22,3.88,3.88,0,0,0,1.16-.66Z"/><path class="cls-6" d="M88.79,17.5V12.07c0-.35,0-.7,0-1.06a9.32,9.32,0,0,0-.1-1h1.16L90,11.82l-.16-.05a2.32,2.32,0,0,1,.91-1.49,2.55,2.55,0,0,1,1.56-.5,2.17,2.17,0,0,1,.37,0,1.5,1.5,0,0,1,.32.07L93,11a2.39,2.39,0,0,0-.79-.12,2.06,2.06,0,0,0-1.25.34,1.92,1.92,0,0,0-.69.88A2.83,2.83,0,0,0,90,13.2v4.3Z"/><path class="cls-6" d="M100.24,20.23a15.1,15.1,0,0,1-1-2.26,13.84,13.84,0,0,1-.55-2.22,15,15,0,0,1-.17-2.24,14,14,0,0,1,1.71-6.69h1a22.54,22.54,0,0,0-.88,2.46,16.07,16.07,0,0,0-.46,2.18,15.36,15.36,0,0,0,.46,6.3,23.71,23.71,0,0,0,.86,2.47Z"/><path class="cls-6" d="M109,16.6a3.49,3.49,0,0,1-1.27.74,4.73,4.73,0,0,1-1.58.27,4.16,4.16,0,0,1-2-.47,3.17,3.17,0,0,1-1.3-1.34,4.42,4.42,0,0,1-.46-2.09,4.5,4.5,0,0,1,.45-2.06A3.41,3.41,0,0,1,104,10.27a3.46,3.46,0,0,1,1.85-.49,3.2,3.2,0,0,1,1.73.44,2.8,2.8,0,0,1,1.1,1.27,4.6,4.6,0,0,1,.38,2v.22h-5.7V12.9h5l-.39.55a3.14,3.14,0,0,0-.51-2,1.91,1.91,0,0,0-1.6-.71,2.11,2.11,0,0,0-1.72.77,3.36,3.36,0,0,0-.62,2.14,3.32,3.32,0,0,0,.65,2.22,2.4,2.4,0,0,0,1.91.75,3.61,3.61,0,0,0,1.27-.22,3.77,3.77,0,0,0,1.16-.66Z"/><path class="cls-6" d="M111,17.5V12.07c0-.35,0-.7,0-1.06s-.05-.7-.1-1H112l.14,1.56-.15.12a2.58,2.58,0,0,1,1-1.39,3,3,0,0,1,1.69-.47c1.81,0,2.72,1,2.72,3V17.5h-1.22V12.82a2.34,2.34,0,0,0-.42-1.54,1.67,1.67,0,0,0-1.32-.48,2.24,2.24,0,0,0-1.68.64,2.38,2.38,0,0,0-.63,1.74V17.5Z"/><path class="cls-6" d="M126.37,17.5h-1.2v-2l.18.16a2.54,2.54,0,0,1-1,1.46,2.94,2.94,0,0,1-1.75.51,3.22,3.22,0,0,1-1.75-.49,3.33,3.33,0,0,1-1.18-1.38,4.86,4.86,0,0,1-.42-2.08,4.66,4.66,0,0,1,.42-2.05,3.09,3.09,0,0,1,1.17-1.35,3.2,3.2,0,0,1,1.76-.48,2.94,2.94,0,0,1,1.75.51,2.58,2.58,0,0,1,1,1.45l-.2.15V6.46h1.22Zm-3.51-.9a2,2,0,0,0,1.7-.76,3.32,3.32,0,0,0,.61-2.15,3.38,3.38,0,0,0-.6-2.14,2.06,2.06,0,0,0-1.71-.75,2.12,2.12,0,0,0-1.73.75,3.18,3.18,0,0,0-.63,2.11,3.36,3.36,0,0,0,.63,2.17A2.1,2.1,0,0,0,122.86,16.6Z"/><path class="cls-6" d="M132.64,20.74V12.07c0-.35,0-.7,0-1.06s-.05-.7-.1-1h1.15l.14,1.56-.12.22a2.5,2.5,0,0,1,1-1.45,2.93,2.93,0,0,1,1.74-.51,3.12,3.12,0,0,1,1.75.49,3.35,3.35,0,0,1,1.19,1.38,4.78,4.78,0,0,1,.42,2.07,4.7,4.7,0,0,1-.42,2.06,3.13,3.13,0,0,1-2.94,1.83,2.93,2.93,0,0,1-1.74-.51,2.52,2.52,0,0,1-1-1.46l.16-.15v5.25Zm3.54-4.14a2.09,2.09,0,0,0,1.71-.75,3.28,3.28,0,0,0,.61-2.13,3.36,3.36,0,0,0-.61-2.15,2,2,0,0,0-1.71-.77,2.09,2.09,0,0,0-1.73.75,3.35,3.35,0,0,0-.6,2.14,3.38,3.38,0,0,0,.6,2.15A2.07,2.07,0,0,0,136.18,16.6Z"/><path class="cls-6" d="M141.64,17.5V12.07c0-.35,0-.7,0-1.06s-.05-.7-.1-1h1.15l.17,1.86-.17-.05a2.36,2.36,0,0,1,.91-1.49,2.6,2.6,0,0,1,1.57-.5,2.23,2.23,0,0,1,.37,0,1.65,1.65,0,0,1,.32.07l0,1.11a2.45,2.45,0,0,0-.8-.12,1.92,1.92,0,0,0-1.94,1.22,3,3,0,0,0-.22,1.12v4.3Z"/><path class="cls-6" d="M150,17.61a3.58,3.58,0,0,1-1.88-.48,3.29,3.29,0,0,1-1.25-1.36,4.65,4.65,0,0,1-.44-2.08,4.64,4.64,0,0,1,.44-2.07,3.23,3.23,0,0,1,1.25-1.36,3.92,3.92,0,0,1,3.76,0,3.23,3.23,0,0,1,1.25,1.36,4.64,4.64,0,0,1,.44,2.07,4.65,4.65,0,0,1-.44,2.08,3.29,3.29,0,0,1-1.25,1.36A3.58,3.58,0,0,1,150,17.61Zm0-1a2.12,2.12,0,0,0,1.72-.74,3.4,3.4,0,0,0,.6-2.17,3.29,3.29,0,0,0-.61-2.14A2.09,2.09,0,0,0,150,10.8a2.12,2.12,0,0,0-1.72.75,3.29,3.29,0,0,0-.62,2.14,3.34,3.34,0,0,0,.61,2.17A2.11,2.11,0,0,0,150,16.6Z"/><path class="cls-6" d="M158.81,20.85a5.53,5.53,0,0,1-3-.78l.21-1a6,6,0,0,0,1.34.58,5.15,5.15,0,0,0,1.42.18,2.2,2.2,0,0,0,1.65-.58,2.36,2.36,0,0,0,.56-1.71v-2l.16-.2a2.68,2.68,0,0,1-.56,1,2.5,2.5,0,0,1-.94.69,3.15,3.15,0,0,1-1.26.24,3.18,3.18,0,0,1-2.94-1.79,4.19,4.19,0,0,1-.43-2,4.24,4.24,0,0,1,.43-2,3.15,3.15,0,0,1,2.94-1.78,3,3,0,0,1,1.78.51,2.53,2.53,0,0,1,1,1.45l-.18-.16V10h1.22v7.48a3.46,3.46,0,0,1-.86,2.55A3.49,3.49,0,0,1,158.81,20.85Zm-.15-4.59a2.16,2.16,0,0,0,1.72-.73,3,3,0,0,0,.62-2,3,3,0,0,0-.62-2,2.15,2.15,0,0,0-1.72-.72,2.19,2.19,0,0,0-1.74.72,2.94,2.94,0,0,0-.64,2,2.91,2.91,0,0,0,.64,2A2.19,2.19,0,0,0,158.66,16.26Z"/><path class="cls-6" d="M164.56,17.5V12.07c0-.35,0-.7,0-1.06s0-.7-.1-1h1.15l.17,1.86-.17-.05a2.36,2.36,0,0,1,.91-1.49,2.6,2.6,0,0,1,1.57-.5,2.23,2.23,0,0,1,.37,0,1.65,1.65,0,0,1,.32.07l0,1.11a2.45,2.45,0,0,0-.8-.12A1.92,1.92,0,0,0,166,12.08a3,3,0,0,0-.22,1.12v4.3Z"/><path class="cls-6" d="M172.73,17.61a3.23,3.23,0,0,1-1.76-.48,3.11,3.11,0,0,1-1.17-1.35,4.85,4.85,0,0,1-.41-2.06,4.78,4.78,0,0,1,.42-2.07A3.26,3.26,0,0,1,171,10.27a3.08,3.08,0,0,1,1.74-.49,3,3,0,0,1,1.76.51,2.5,2.5,0,0,1,1,1.45l-.18.12V10h1.2V17.5h-1.2V15.55l.18.09a2.52,2.52,0,0,1-1,1.46A3,3,0,0,1,172.73,17.61Zm.24-1a2,2,0,0,0,1.71-.76,3.38,3.38,0,0,0,.6-2.15,3.35,3.35,0,0,0-.6-2.14,2.33,2.33,0,0,0-3.44,0,3.36,3.36,0,0,0-.62,2.15,3.28,3.28,0,0,0,.62,2.13A2.13,2.13,0,0,0,173,16.6Z"/><path class="cls-6" d="M178.84,17.5V12.07c0-.35,0-.7,0-1.06s0-.7-.1-1h1.15l.14,1.56-.15.1a2.49,2.49,0,0,1,.94-1.36,2.62,2.62,0,0,1,1.58-.48,2.46,2.46,0,0,1,1.7.54,2.62,2.62,0,0,1,.77,1.65l-.36-.2a2.58,2.58,0,0,1,1-1.45,2.87,2.87,0,0,1,1.75-.54,2.29,2.29,0,0,1,1.87.74,3.38,3.38,0,0,1,.63,2.24V17.5H188.5V12.82a2.54,2.54,0,0,0-.38-1.54,1.4,1.4,0,0,0-1.18-.48,1.84,1.84,0,0,0-1.49.64,2.61,2.61,0,0,0-.55,1.76v4.3h-1.22V12.82a2.48,2.48,0,0,0-.38-1.54,1.42,1.42,0,0,0-1.19-.48,1.88,1.88,0,0,0-1.51.64,2.67,2.67,0,0,0-.55,1.76v4.3Z"/><path class="cls-6" d="M192.34,20.23h-1a20,20,0,0,0,.87-2.47,16,16,0,0,0,.59-4.25,15.82,15.82,0,0,0-.59-4.23,20.45,20.45,0,0,0-.87-2.46h1a14.44,14.44,0,0,1,1.3,3.35,13.94,13.94,0,0,1,.4,3.34,15,15,0,0,1-.17,2.24,13.84,13.84,0,0,1-.55,2.22A15.1,15.1,0,0,1,192.34,20.23Z"/></g></g></g></svg>