<svg xmlns="http://www.w3.org/2000/svg" viewBox="0 0 595.28 95.9"><defs><style>.cls-1{fill:none;}.cls-2{fill:#b1d5be;}.cls-3{isolation:isolate;}.cls-4{fill:#010101;}.cls-5{fill:#3d865a;}.cls-6{fill:#49a670;}.cls-7{fill:#81c29b;}.cls-8{fill:#3d4986;}.cls-9{fill:#4c5ba6;}.cls-10{fill:#818dc1;}.cls-11{opacity:0.6;}.cls-12{fill:#fff;}</style></defs><g id="Layer_2" data-name="Layer 2"><g id="Layer_1-2" data-name="Layer 1"><rect class="cls-1" width="595.28" height="18"/><rect class="cls-2" x="98.88" y="42.69" width="57.91" height="53.21" rx="5.67"/><g class="cls-3"><path class="cls-4" d="M104.46,55.56v-11h1.21v5l-.19.15a2.61,2.61,0,0,1,1-1.39,3.09,3.09,0,0,1,1.69-.47c1.81,0,2.72,1,2.72,3v4.74h-1.22V50.88a2.29,2.29,0,0,0-.42-1.53,1.64,1.64,0,0,0-1.32-.49,2.24,2.24,0,0,0-1.68.64,2.38,2.38,0,0,0-.63,1.74v4.32Z"/><path class="cls-4" d="M116.35,55.67a3.58,3.58,0,0,1-1.88-.48,3.23,3.23,0,0,1-1.25-1.36,5.11,5.11,0,0,1,0-4.15,3.23,3.23,0,0,1,1.25-1.36,3.92,3.92,0,0,1,3.76,0,3.23,3.23,0,0,1,1.25,1.36,5.11,5.11,0,0,1,0,4.15,3.23,3.23,0,0,1-1.25,1.36A3.58,3.58,0,0,1,116.35,55.67Zm0-1a2.09,2.09,0,0,0,1.72-.74,3.38,3.38,0,0,0,.61-2.17,3.29,3.29,0,0,0-.62-2.14,2.09,2.09,0,0,0-1.71-.75,2.12,2.12,0,0,0-1.72.75,3.29,3.29,0,0,0-.62,2.14,3.32,3.32,0,0,0,.61,2.17A2.08,2.08,0,0,0,116.35,54.66Z"/><path class="cls-4" d="M124.48,55.67a2.6,2.6,0,0,1-2-.75,3.17,3.17,0,0,1-.68-2.22V48H123v4.65a2.24,2.24,0,0,0,.42,1.5,1.62,1.62,0,0,0,1.28.48A2.14,2.14,0,0,0,126.3,54a2.38,2.38,0,0,0,.61-1.72V48h1.22v7.54h-1.19V53.93l.18-.09a2.53,2.53,0,0,1-1,1.36A2.93,2.93,0,0,1,124.48,55.67Z"/><path class="cls-4" d="M130.47,55.56V50.13q0-.52,0-1.05a9.28,9.28,0,0,0-.09-1.06h1.15l.17,1.86-.17-.05a2.35,2.35,0,0,1,.91-1.49,2.65,2.65,0,0,1,1.57-.5l.36,0,.33.07,0,1.11a2.45,2.45,0,0,0-.8-.12,2.06,2.06,0,0,0-1.25.34,2,2,0,0,0-.69.88,2.87,2.87,0,0,0-.22,1.12v4.3Z"/><path class="cls-4" d="M104.46,73.56V68.13q0-.52,0-1a9.28,9.28,0,0,0-.09-1.06h1.15l.14,1.56-.15.1a2.53,2.53,0,0,1,.93-1.36,2.67,2.67,0,0,1,1.59-.48,2.48,2.48,0,0,1,1.7.54,2.67,2.67,0,0,1,.77,1.65l-.36-.2a2.53,2.53,0,0,1,1-1.45,2.85,2.85,0,0,1,1.75-.54,2.33,2.33,0,0,1,1.87.74,3.4,3.4,0,0,1,.63,2.24v4.74h-1.21V68.88a2.49,2.49,0,0,0-.38-1.53,1.38,1.38,0,0,0-1.18-.49,1.87,1.87,0,0,0-1.5.64,2.66,2.66,0,0,0-.54,1.76v4.3H109.3V68.88a2.49,2.49,0,0,0-.38-1.53,1.41,1.41,0,0,0-1.19-.49,1.87,1.87,0,0,0-1.51.64,2.61,2.61,0,0,0-.55,1.76v4.3Z"/><path class="cls-4" d="M117.52,62.82H119V64.2h-1.49Zm.12,10.74V66h1.22v7.54Z"/><path class="cls-4" d="M121.21,73.56V68.13c0-.35,0-.7,0-1s0-.71-.1-1.06h1.16l.13,1.56-.15.12a2.61,2.61,0,0,1,1-1.39,3.12,3.12,0,0,1,1.7-.47c1.81,0,2.71,1,2.71,3v4.74h-1.21V68.88a2.29,2.29,0,0,0-.42-1.53,1.64,1.64,0,0,0-1.32-.49,2.24,2.24,0,0,0-1.68.64,2.38,2.38,0,0,0-.63,1.74v4.32Z"/><path class="cls-4" d="M132.66,73.67a2.64,2.64,0,0,1-2-.75,3.22,3.22,0,0,1-.68-2.22V66h1.22v4.65a2.24,2.24,0,0,0,.42,1.5,1.59,1.59,0,0,0,1.27.48,2.14,2.14,0,0,0,1.62-.65,2.39,2.39,0,0,0,.62-1.72V66h1.21v7.54h-1.18V71.93l.18-.09a2.49,2.49,0,0,1-1,1.36A2.88,2.88,0,0,1,132.66,73.67Z"/><path class="cls-4" d="M137.58,67V66h4.84v1Zm4.81,5.5v1a3.22,3.22,0,0,1-.5.11,3.16,3.16,0,0,1-.55,0,2.29,2.29,0,0,1-1.67-.6,2.37,2.37,0,0,1-.62-1.8V64.08l1.21-.43V71.1a2.11,2.11,0,0,0,.17.93,1,1,0,0,0,.48.46,1.6,1.6,0,0,0,.67.13,2.54,2.54,0,0,0,.41,0A2.73,2.73,0,0,0,142.39,72.48Z"/><path class="cls-4" d="M150.07,72.66a3.49,3.49,0,0,1-1.27.74,4.73,4.73,0,0,1-1.58.27,4.16,4.16,0,0,1-2-.47,3.12,3.12,0,0,1-1.3-1.34,4.39,4.39,0,0,1-.46-2.09,4.5,4.5,0,0,1,.45-2.06,3.41,3.41,0,0,1,1.25-1.38,3.49,3.49,0,0,1,1.86-.49,3.26,3.26,0,0,1,1.72.44,2.85,2.85,0,0,1,1.1,1.27,4.6,4.6,0,0,1,.39,2v.22h-5.7V69h5l-.39.55a3.14,3.14,0,0,0-.52-2,1.91,1.91,0,0,0-1.6-.71,2.09,2.09,0,0,0-1.72.78,4,4,0,0,0,0,4.35,2.42,2.42,0,0,0,1.92.75,3.79,3.79,0,0,0,1.26-.21,4.06,4.06,0,0,0,1.17-.67Z"/><path class="cls-4" d="M107,91.67a4.42,4.42,0,0,1-3-1l.41-.9a4.46,4.46,0,0,0,1.23.69,4.55,4.55,0,0,0,1.42.21,2.34,2.34,0,0,0,1.3-.29,1,1,0,0,0,.44-.85.9.9,0,0,0-.3-.71,2.42,2.42,0,0,0-1-.43l-1.27-.3a2.86,2.86,0,0,1-1.47-.75,1.81,1.81,0,0,1-.51-1.29,2,2,0,0,1,.36-1.16,2.42,2.42,0,0,1,1-.79,3.77,3.77,0,0,1,1.53-.28,4.37,4.37,0,0,1,1.5.25,3.21,3.21,0,0,1,1.19.74l-.41.88a3.87,3.87,0,0,0-1.1-.66,3.17,3.17,0,0,0-1.18-.22,2.12,2.12,0,0,0-1.25.31,1.09,1.09,0,0,0-.17,1.59,2,2,0,0,0,.9.42l1.27.32a3.07,3.07,0,0,1,1.57.74,1.95,1.95,0,0,1-.29,2.87A3.57,3.57,0,0,1,107,91.67Z"/><path class="cls-4" d="M118.08,90.66a3.58,3.58,0,0,1-1.27.74,4.77,4.77,0,0,1-1.58.27,4.13,4.13,0,0,1-2-.47,3.14,3.14,0,0,1-1.31-1.34,5,5,0,0,1,0-4.15,3.34,3.34,0,0,1,1.25-1.38,3.43,3.43,0,0,1,1.85-.49,3.29,3.29,0,0,1,1.73.44,2.91,2.91,0,0,1,1.1,1.27,4.76,4.76,0,0,1,.38,2v.22h-5.7V87h5l-.39.55a3.08,3.08,0,0,0-.52-2,1.88,1.88,0,0,0-1.59-.71,2.07,2.07,0,0,0-1.72.78,4,4,0,0,0,0,4.35,2.39,2.39,0,0,0,1.91.75,3.89,3.89,0,0,0,1.27-.21,4.15,4.15,0,0,0,1.16-.67Z"/><path class="cls-4" d="M123.22,91.67a3.7,3.7,0,0,1-1.92-.48,3.2,3.2,0,0,1-1.25-1.35,4.44,4.44,0,0,1-.44-2.06,4.53,4.53,0,0,1,.45-2.06,3.35,3.35,0,0,1,1.27-1.39,3.72,3.72,0,0,1,2-.49,4.39,4.39,0,0,1,1.48.26,3.33,3.33,0,0,1,1.18.73l-.41.9a4.35,4.35,0,0,0-1.09-.65,2.77,2.77,0,0,0-1.1-.22,2.28,2.28,0,0,0-1.81.76,3.21,3.21,0,0,0-.66,2.16,3.12,3.12,0,0,0,.66,2.13,2.28,2.28,0,0,0,1.81.75,3,3,0,0,0,1.1-.21,4.73,4.73,0,0,0,1.09-.66l.41.9a3.6,3.6,0,0,1-1.21.72A4.57,4.57,0,0,1,123.22,91.67Z"/><path class="cls-4" d="M130.6,91.67a3.58,3.58,0,0,1-1.88-.48,3.23,3.23,0,0,1-1.25-1.36,5.11,5.11,0,0,1,0-4.15,3.23,3.23,0,0,1,1.25-1.36,3.92,3.92,0,0,1,3.76,0,3.23,3.23,0,0,1,1.25,1.36,5.11,5.11,0,0,1,0,4.15,3.23,3.23,0,0,1-1.25,1.36A3.58,3.58,0,0,1,130.6,91.67Zm0-1a2.09,2.09,0,0,0,1.72-.74,3.38,3.38,0,0,0,.61-2.17,3.29,3.29,0,0,0-.62-2.14,2.09,2.09,0,0,0-1.71-.75,2.12,2.12,0,0,0-1.72.75,3.29,3.29,0,0,0-.62,2.14,3.32,3.32,0,0,0,.61,2.17A2.08,2.08,0,0,0,130.6,90.66Z"/><path class="cls-4" d="M136.06,91.56V86.13c0-.35,0-.7,0-1s0-.71-.1-1.06h1.16l.13,1.56-.15.12a2.61,2.61,0,0,1,1-1.39,3.12,3.12,0,0,1,1.7-.47c1.81,0,2.71,1,2.71,3v4.74h-1.21V86.88a2.29,2.29,0,0,0-.42-1.53,1.64,1.64,0,0,0-1.32-.49,2.24,2.24,0,0,0-1.68.64,2.38,2.38,0,0,0-.63,1.74v4.32Z"/><path class="cls-4" d="M151.48,91.56h-1.2v-2l.18.16a2.52,2.52,0,0,1-1,1.46,3,3,0,0,1-1.76.51,3.14,3.14,0,0,1-1.75-.49,3.19,3.19,0,0,1-1.17-1.38,4.83,4.83,0,0,1-.42-2.08,4.66,4.66,0,0,1,.41-2A3.09,3.09,0,0,1,146,84.32a3.2,3.2,0,0,1,1.76-.48,2.91,2.91,0,0,1,1.76.52,2.51,2.51,0,0,1,1,1.44l-.19.15V80.52h1.21Zm-3.51-.9a2.06,2.06,0,0,0,1.7-.75,4.11,4.11,0,0,0,0-4.29,2,2,0,0,0-1.71-.76,2.12,2.12,0,0,0-1.73.75,3.18,3.18,0,0,0-.62,2.11,3.34,3.34,0,0,0,.62,2.17A2.07,2.07,0,0,0,148,90.66Z"/></g><polygon class="cls-4" points="147.68 55.38 152.66 46.75 142.7 46.75 147.68 55.38"/><path class="cls-5" d="M1,9A8,8,0,0,1,9,1h7l6,4h3l6-4H294.17V37H30.5l-6,4h-3l-6-4H9a8,8,0,0,1-8-8ZM218.47,6h-30.8v5c0,10-8-8-8,7.5s8-2.5,8,7.5v7h30.8Zm65.7,0h-30.8v5c0,10-8-8-8,7.5s8-2.5,8,7.5v7h30.8Z"/><path class="cls-6" d="M0,8A8,8,0,0,1,8,0h7l6,4h3l6-4H293.17V36H29.5l-6,4h-3l-6-4H8a8,8,0,0,1-8-8ZM217.47,5h-30.8v5c0,10-8-8-8,7.5s8-2.5,8,7.5v7h30.8Zm65.7,0h-30.8v5c0,10-8-8-8,7.5s8-2.5,8,7.5v7h30.8Z"/><path class="cls-7" d="M2.34,33.66A8,8,0,0,1,0,28V8H1V28a7,7,0,0,0,2.05,5ZM284.17,33h-31.3V32h30.3V5.5h1Zm-65.7,0h-31.3V32h30.3V5.5h1Zm29-8.27-.49-.86,3.68-2.1.49.86Zm-65.7,0-.49-.86,3.68-2.1.49.86ZM1,7.53,0,7.47A8,8,0,0,1,8,0h7.17l6,4h2.7l6-4H292.67V1H30.15l-6,4h-3.3l-6-4H8A7,7,0,0,0,1,7.53Z"/><path class="cls-8" d="M188.67,7h28.8V32h-28.8V27c0-10-8,8-8-7.5s8,2.5,8-7.5Z"/><path class="cls-9" d="M187.67,6h28.8V31h-28.8V26c0-10-8,8-8-7.5s8,2.5,8-7.5Z"/><path class="cls-10" d="M188.67,30.5h-1v-6h1Zm-8.35-6.37a20.9,20.9,0,0,1,0-11.26l1,.26a19.79,19.79,0,0,0,0,10.74ZM188.67,14h-1V6H216V7h-27.3Z"/><g class="cls-11"><rect class="cls-12" x="192.67" y="11" width="18.8" height="16" rx="4"/></g><g class="cls-3"><path class="cls-4" d="M202.17,23.62a3.17,3.17,0,0,1-2.79-1.39,7.22,7.22,0,0,1-.95-4.07,7.22,7.22,0,0,1,.95-4.07,3.5,3.5,0,0,1,5.58,0,7.21,7.21,0,0,1,.94,4.06,7.28,7.28,0,0,1-1,4.08A3.15,3.15,0,0,1,202.17,23.62Zm0-1a2,2,0,0,0,1.88-1.08,7.17,7.17,0,0,0,.61-3.36,7,7,0,0,0-.61-3.34,2,2,0,0,0-1.88-1.06,2,2,0,0,0-1.89,1.07,7.05,7.05,0,0,0-.6,3.33,7.19,7.19,0,0,0,.6,3.36A2,2,0,0,0,202.17,22.59Z"/></g><path class="cls-8" d="M254.37,7h28.8V32h-28.8V27c0-10-8,8-8-7.5s8,2.5,8-7.5Z"/><path class="cls-9" d="M253.37,6h28.8V31h-28.8V26c0-10-8,8-8-7.5s8,2.5,8-7.5Z"/><path class="cls-10" d="M254.37,30.5h-1v-6h1ZM246,24.13a20.9,20.9,0,0,1,0-11.26l1,.26a19.79,19.79,0,0,0,0,10.74ZM254.37,14h-1V6h28.3V7h-27.3Z"/><g class="cls-11"><rect class="cls-12" x="258.37" y="11" width="18.8" height="16" rx="4"/></g><g class="cls-3"><path class="cls-4" d="M267.87,23.62a3.17,3.17,0,0,1-2.79-1.39,7.22,7.22,0,0,1-.95-4.07,7.22,7.22,0,0,1,.95-4.07,3.5,3.5,0,0,1,5.58,0,7.21,7.21,0,0,1,.94,4.06,7.28,7.28,0,0,1-1,4.08A3.15,3.15,0,0,1,267.87,23.62Zm0-1a2,2,0,0,0,1.88-1.08,7.17,7.17,0,0,0,.61-3.36,7,7,0,0,0-.61-3.34,2,2,0,0,0-1.88-1.06A2,2,0,0,0,266,14.82a7.05,7.05,0,0,0-.6,3.33,7.19,7.19,0,0,0,.6,3.36A2,2,0,0,0,267.87,22.59Z"/></g><g class="cls-3"><path class="cls-12" d="M17.82,22.5h-1.2v-2l.18.16a2.54,2.54,0,0,1-1,1.46,3,3,0,0,1-1.75.51,3.17,3.17,0,0,1-1.75-.49,3.26,3.26,0,0,1-1.18-1.38,4.86,4.86,0,0,1-.42-2.08,4.81,4.81,0,0,1,.41-2.05,3.22,3.22,0,0,1,1.17-1.35,3.26,3.26,0,0,1,1.77-.48,3,3,0,0,1,1.75.51,2.58,2.58,0,0,1,1,1.45l-.2.15V11.46h1.22Zm-3.51-.9a2.06,2.06,0,0,0,1.7-.76,3.38,3.38,0,0,0,.61-2.15,3.38,3.38,0,0,0-.6-2.14,2.08,2.08,0,0,0-1.71-.75,2.15,2.15,0,0,0-1.74.75A3.24,3.24,0,0,0,12,18.66a3.42,3.42,0,0,0,.62,2.17A2.13,2.13,0,0,0,14.31,21.6Z"/><path class="cls-12" d="M20.05,11.76h1.49v1.38H20.05Zm.12,10.74V15h1.21V22.5Z"/><path class="cls-12" d="M26.29,22.61a4.38,4.38,0,0,1-3-1l.4-.9a4.11,4.11,0,0,0,1.24.68,4.23,4.23,0,0,0,1.42.22,2.39,2.39,0,0,0,1.29-.29,1,1,0,0,0,.44-.85.91.91,0,0,0-.29-.71,2.41,2.41,0,0,0-1-.43l-1.27-.3a2.78,2.78,0,0,1-1.46-.75A1.78,1.78,0,0,1,23.53,17a1.93,1.93,0,0,1,.36-1.16,2.31,2.31,0,0,1,1-.79,3.68,3.68,0,0,1,1.52-.28,4.37,4.37,0,0,1,1.5.25,3.21,3.21,0,0,1,1.19.74l-.41.88A4,4,0,0,0,27.6,16a3.29,3.29,0,0,0-1.18-.21,2.14,2.14,0,0,0-1.25.31,1,1,0,0,0-.44.86,1,1,0,0,0,.28.73,1.89,1.89,0,0,0,.89.42l1.27.32a3,3,0,0,1,1.57.74,1.77,1.77,0,0,1,.5,1.31A1.84,1.84,0,0,1,28.45,22,3.57,3.57,0,0,1,26.29,22.61Z"/><path class="cls-12" d="M31.18,25.74V17.07c0-.35,0-.7,0-1.06s-.05-.7-.1-1.05h1.15l.14,1.56-.12.22a2.5,2.5,0,0,1,1-1.45,2.93,2.93,0,0,1,1.74-.51,3.09,3.09,0,0,1,1.75.49,3.35,3.35,0,0,1,1.19,1.38,4.78,4.78,0,0,1,.42,2.07,4.7,4.7,0,0,1-.42,2.06,3.13,3.13,0,0,1-2.94,1.83,2.93,2.93,0,0,1-1.74-.51,2.52,2.52,0,0,1-1-1.46l.16-.15v5.25Zm3.54-4.14a2.09,2.09,0,0,0,1.71-.75,3.28,3.28,0,0,0,.62-2.13,3.36,3.36,0,0,0-.62-2.15,2,2,0,0,0-1.71-.77,2.09,2.09,0,0,0-1.73.75,3.35,3.35,0,0,0-.6,2.14,3.38,3.38,0,0,0,.6,2.15A2.07,2.07,0,0,0,34.72,21.6Z"/><path class="cls-12" d="M40.18,22.5v-11h1.21v11Z"/><path class="cls-12" d="M46.64,22.61a3.23,3.23,0,0,1-1.76-.48,3.11,3.11,0,0,1-1.17-1.35,4.85,4.85,0,0,1-.41-2.06,4.78,4.78,0,0,1,.42-2.07,3.26,3.26,0,0,1,1.18-1.38,3.08,3.08,0,0,1,1.74-.49,3,3,0,0,1,1.76.51,2.5,2.5,0,0,1,1,1.45l-.18.12V15h1.2V22.5h-1.2V20.55l.18.09a2.52,2.52,0,0,1-1,1.46A3,3,0,0,1,46.64,22.61Zm.24-1a2,2,0,0,0,1.71-.76,3.38,3.38,0,0,0,.6-2.15,3.35,3.35,0,0,0-.6-2.14,2.33,2.33,0,0,0-3.44,0,3.36,3.36,0,0,0-.62,2.15,3.28,3.28,0,0,0,.62,2.13A2.13,2.13,0,0,0,46.88,21.6Z"/><path class="cls-12" d="M55.15,22.89,51.76,15H53l2.73,6.66Zm-2.76,3L52.13,25a7,7,0,0,0,1.17-.38,2.56,2.56,0,0,0,.79-.56,3,3,0,0,0,.56-.92L55.13,22l.27-.37L58.16,15h1.22l-3.53,8.23a5.15,5.15,0,0,1-.91,1.46,3.44,3.44,0,0,1-1.15.84A5.87,5.87,0,0,1,52.39,25.91Z"/><path class="cls-12" d="M63.56,15.92V15h4.85v1Zm4.82,5.5v1a5,5,0,0,1-.5.11,4.58,4.58,0,0,1-.55,0,2.29,2.29,0,0,1-1.67-.6,2.37,2.37,0,0,1-.63-1.8V13l1.22-.43V20a2.11,2.11,0,0,0,.17.93,1,1,0,0,0,.47.46,1.83,1.83,0,0,0,.68.13,2.41,2.41,0,0,0,.4,0A2.83,2.83,0,0,0,68.38,21.42Z"/><path class="cls-12" d="M69.76,11.76h1.48v1.38H69.76Zm.12,10.74V15h1.21V22.5Z"/><path class="cls-12" d="M73.45,22.5V17.07c0-.35,0-.7,0-1.06s-.05-.7-.1-1.05h1.15l.14,1.56-.15.1a2.49,2.49,0,0,1,.94-1.36A2.62,2.62,0,0,1,77,14.78a2.46,2.46,0,0,1,1.7.54A2.62,2.62,0,0,1,79.46,17l-.36-.2a2.58,2.58,0,0,1,1-1.45,2.87,2.87,0,0,1,1.75-.54,2.29,2.29,0,0,1,1.87.74,3.38,3.38,0,0,1,.63,2.24V22.5H83.11V17.82a2.54,2.54,0,0,0-.38-1.54,1.4,1.4,0,0,0-1.18-.48,1.84,1.84,0,0,0-1.49.64,2.61,2.61,0,0,0-.55,1.76v4.3H78.29V17.82a2.48,2.48,0,0,0-.38-1.54,1.42,1.42,0,0,0-1.19-.48,1.88,1.88,0,0,0-1.51.64,2.67,2.67,0,0,0-.55,1.76v4.3Z"/><path class="cls-12" d="M92.81,21.6a3.53,3.53,0,0,1-1.26.74,4.83,4.83,0,0,1-1.59.27,4.09,4.09,0,0,1-2-.47,3.19,3.19,0,0,1-1.31-1.34,4.54,4.54,0,0,1-.46-2.09,4.5,4.5,0,0,1,.45-2.06,3.37,3.37,0,0,1,1.26-1.38,3.43,3.43,0,0,1,1.85-.49,3.17,3.17,0,0,1,1.72.44,2.88,2.88,0,0,1,1.11,1.27,4.76,4.76,0,0,1,.38,2v.22h-5.7V17.9h5l-.39.55a3.08,3.08,0,0,0-.52-2,1.9,1.9,0,0,0-1.6-.71,2.08,2.08,0,0,0-1.71.77,3.31,3.31,0,0,0-.63,2.14,3.27,3.27,0,0,0,.66,2.22A2.39,2.39,0,0,0,90,21.6a3.65,3.65,0,0,0,1.27-.22,3.88,3.88,0,0,0,1.16-.66Z"/></g><g class="cls-11"><rect class="cls-12" x="98.88" y="10" width="57.22" height="16" rx="4"/></g><g class="cls-3"><path class="cls-4" d="M105.05,22.5v-11h1.22v5l-.2.15a2.58,2.58,0,0,1,1.05-1.39,3,3,0,0,1,1.7-.47c1.81,0,2.71,1,2.71,3V22.5h-1.21V17.82a2.34,2.34,0,0,0-.42-1.54,1.67,1.67,0,0,0-1.32-.48,2.24,2.24,0,0,0-1.68.64,2.38,2.38,0,0,0-.63,1.74V22.5Z"/><path class="cls-4" d="M117,22.61a3.58,3.58,0,0,1-1.88-.48,3.29,3.29,0,0,1-1.25-1.36,4.65,4.65,0,0,1-.44-2.08,4.64,4.64,0,0,1,.44-2.07,3.23,3.23,0,0,1,1.25-1.36,3.92,3.92,0,0,1,3.76,0,3.23,3.23,0,0,1,1.25,1.36,4.64,4.64,0,0,1,.44,2.07,4.65,4.65,0,0,1-.44,2.08,3.29,3.29,0,0,1-1.25,1.36A3.58,3.58,0,0,1,117,22.61Zm0-1a2.12,2.12,0,0,0,1.72-.74,3.4,3.4,0,0,0,.6-2.17,3.29,3.29,0,0,0-.61-2.14A2.09,2.09,0,0,0,117,15.8a2.12,2.12,0,0,0-1.72.75,3.29,3.29,0,0,0-.62,2.14,3.34,3.34,0,0,0,.61,2.17A2.11,2.11,0,0,0,117,21.6Z"/><path class="cls-4" d="M125.08,22.61a2.6,2.6,0,0,1-2-.75,3.17,3.17,0,0,1-.69-2.22V15h1.22v4.65a2.24,2.24,0,0,0,.42,1.5,1.59,1.59,0,0,0,1.27.48,2.14,2.14,0,0,0,1.62-.65,2.39,2.39,0,0,0,.62-1.72V15h1.21V22.5h-1.18V20.87l.18-.09a2.53,2.53,0,0,1-1,1.36A2.93,2.93,0,0,1,125.08,22.61Z"/><path class="cls-4" d="M131.06,22.5V17.07c0-.35,0-.7,0-1.06a9.32,9.32,0,0,0-.1-1.05h1.16l.16,1.86-.16-.05a2.32,2.32,0,0,1,.91-1.49,2.55,2.55,0,0,1,1.56-.5,2.17,2.17,0,0,1,.37,0,1.5,1.5,0,0,1,.32.07l0,1.11a2.39,2.39,0,0,0-.79-.12,2.06,2.06,0,0,0-1.25.34,1.92,1.92,0,0,0-.69.88,2.83,2.83,0,0,0-.22,1.12v4.3Z"/></g><g class="cls-3"><path class="cls-12" d="M162.69,22.5h-1.47L165.29,17l.71-.92,3.13-4.29h1.45L166.7,17,166,18Zm6.62,0L166,18l-.7-.94-3.87-5.21h1.47L166,16.11l.7.93,4.06,5.46Z"/></g><g class="cls-3"><path class="cls-12" d="M231.4,22.5V17.7l.27.87-4.47-6.75h1.44l3.6,5.58h-.42l3.6-5.58h1.41l-4.46,6.75.26-.87v4.8Z"/></g><polygon class="cls-4" points="147.12 22.31 152.1 13.69 142.14 13.69 147.12 22.31"/></g></g></svg>