<svg xmlns="http://www.w3.org/2000/svg" viewBox="0 0 595.28 41"><defs><style>.cls-1{fill:none;}.cls-2{fill:#3c8655;}.cls-3{fill:#4aa669;}.cls-4{fill:#81c197;}.cls-5{fill:#3d4986;}.cls-6{fill:#4c5ba6;}.cls-7{fill:#818dc1;}.cls-8{opacity:0.6;}.cls-9{fill:#fff;}.cls-10{isolation:isolate;}.cls-11{fill:#010101;}</style></defs><g id="Layer_2" data-name="Layer 2"><g id="Layer_1-2" data-name="Layer 1"><rect class="cls-1" width="595.28" height="18"/><path class="cls-2" d="M1,9A8,8,0,0,1,9,1h7l6,4h3l6-4H216.65V37H30.5l-6,4h-3l-6-4H9a8,8,0,0,1-8-8ZM114.27,6H57.07v5c0,10-8-8-8,7.5s8-2.5,8,7.5v7h57.2Z"/><path class="cls-3" d="M0,8A8,8,0,0,1,8,0h7l6,4h3l6-4H215.65V36H29.5l-6,4h-3l-6-4H8a8,8,0,0,1-8-8ZM113.27,5H56.07v5c0,10-8-8-8,7.5s8-2.5,8,7.5v7h57.2Z"/><path class="cls-4" d="M2.34,33.66A8,8,0,0,1,0,28V8H1V28a7,7,0,0,0,2.05,5ZM114.27,33H56.57V32h56.7V5.5h1ZM51.21,24.73l-.49-.86,3.68-2.1.49.86ZM1,7.53,0,7.47A8,8,0,0,1,8,0h7.17l6,4h2.7l6-4h185.3V1h-185l-6,4h-3.3l-6-4H8A7,7,0,0,0,1,7.53Z"/><path class="cls-5" d="M58.07,7h55.2V32H58.07V27c0-10-8,8-8-7.5s8,2.5,8-7.5Z"/><path class="cls-6" d="M57.07,6h55.2V31H57.07V26c0-10-8,8-8-7.5s8,2.5,8-7.5Z"/><path class="cls-7" d="M58.07,30.5h-1v-6h1Zm-8.35-6.37a20.9,20.9,0,0,1,0-11.26l1,.26a19.79,19.79,0,0,0,0,10.74ZM58.07,14h-1V6h54.7V7H58.07Z"/><g class="cls-8"><rect class="cls-9" x="62.07" y="11" width="45.2" height="16" rx="4"/></g><g class="cls-10"><path class="cls-11" d="M69,23.5v-1h6v1ZM71.34,23V13.54l.71.36-2.9,1.85V14.56l2.73-1.74h.71V23Z"/><path class="cls-11" d="M80.57,23.62a3.17,3.17,0,0,1-2.79-1.39,7.22,7.22,0,0,1-1-4.07,7.22,7.22,0,0,1,1-4.07,3.5,3.5,0,0,1,5.58,0,7.21,7.21,0,0,1,.94,4.06,7.28,7.28,0,0,1-1,4.08A3.15,3.15,0,0,1,80.57,23.62Zm0-1a2,2,0,0,0,1.88-1.08,7.17,7.17,0,0,0,.61-3.36,7,7,0,0,0-.61-3.34,2,2,0,0,0-1.88-1.06,2,2,0,0,0-1.89,1.07,7.05,7.05,0,0,0-.6,3.33,7.19,7.19,0,0,0,.6,3.36A2,2,0,0,0,80.57,22.59Z"/><path class="cls-11" d="M89.57,23.62a3.17,3.17,0,0,1-2.79-1.39,7.22,7.22,0,0,1-1-4.07,7.22,7.22,0,0,1,1-4.07,3.5,3.5,0,0,1,5.58,0,7.21,7.21,0,0,1,.94,4.06,7.28,7.28,0,0,1-1,4.08A3.15,3.15,0,0,1,89.57,23.62Zm0-1a2,2,0,0,0,1.88-1.08,7.17,7.17,0,0,0,.61-3.36,7,7,0,0,0-.61-3.34,2,2,0,0,0-1.88-1.06,2,2,0,0,0-1.89,1.07,7.05,7.05,0,0,0-.6,3.33,7.19,7.19,0,0,0,.6,3.36A2,2,0,0,0,89.57,22.59Z"/><path class="cls-11" d="M98.57,23.62a3.17,3.17,0,0,1-2.79-1.39,7.22,7.22,0,0,1-1-4.07,7.22,7.22,0,0,1,1-4.07,3.5,3.5,0,0,1,5.58,0,7.21,7.21,0,0,1,.94,4.06,7.28,7.28,0,0,1-1,4.08A3.15,3.15,0,0,1,98.57,23.62Zm0-1a2,2,0,0,0,1.88-1.08,7.17,7.17,0,0,0,.61-3.36,7,7,0,0,0-.61-3.34,2,2,0,0,0-1.88-1.06,2,2,0,0,0-1.89,1.07,7.05,7.05,0,0,0-.6,3.33,7.19,7.19,0,0,0,.6,3.36A2,2,0,0,0,98.57,22.59Z"/></g><g class="cls-10"><path class="cls-9" d="M13.19,22.5,10.4,15h1.28L14,21.6h-.38L16,15h1.06l2.37,6.64h-.39L21.43,15h1.2L19.84,22.5H18.67l-2.49-6.79h.66L14.37,22.5Z"/><path class="cls-9" d="M27,22.61a3.2,3.2,0,0,1-1.76-.48,3,3,0,0,1-1.17-1.35,4.71,4.71,0,0,1-.41-2.06,4.64,4.64,0,0,1,.42-2.07,3.24,3.24,0,0,1,1.17-1.38A3.14,3.14,0,0,1,27,14.78a2.94,2.94,0,0,1,1.75.51,2.51,2.51,0,0,1,1,1.45l-.18.12V15h1.2V22.5h-1.2V20.55l.18.09a2.54,2.54,0,0,1-1,1.46A2.94,2.94,0,0,1,27,22.61Zm.24-1A2,2,0,0,0,29,20.84a3.38,3.38,0,0,0,.6-2.15A3.29,3.29,0,0,0,29,16.55a2.32,2.32,0,0,0-3.43,0,3.3,3.3,0,0,0-.62,2.15,3.22,3.22,0,0,0,.62,2.13A2.12,2.12,0,0,0,27.25,21.6Z"/><path class="cls-9" d="M33,11.76h1.49v1.38H33Zm.12,10.74V15h1.22V22.5Z"/><path class="cls-9" d="M35.62,15.92V15h4.84v1Zm4.81,5.5v1a4.48,4.48,0,0,1-.5.11,4.43,4.43,0,0,1-.55,0,2.31,2.31,0,0,1-1.67-.6,2.41,2.41,0,0,1-.62-1.8V13l1.21-.43V20a2,2,0,0,0,.18.93,1,1,0,0,0,.47.46,1.78,1.78,0,0,0,.67.13,2.54,2.54,0,0,0,.41,0A2.73,2.73,0,0,0,40.43,21.42Z"/></g><g class="cls-10"><path class="cls-9" d="M124.44,22.5V17.07c0-.35,0-.7,0-1.06a9.3,9.3,0,0,0-.09-1.05h1.15l.14,1.56-.15.1a2.53,2.53,0,0,1,.93-1.36,2.67,2.67,0,0,1,1.59-.48,2.48,2.48,0,0,1,1.7.54,2.67,2.67,0,0,1,.77,1.65l-.36-.2a2.53,2.53,0,0,1,1-1.45,2.85,2.85,0,0,1,1.75-.54,2.29,2.29,0,0,1,1.87.74,3.38,3.38,0,0,1,.63,2.24V22.5H134.1V17.82a2.54,2.54,0,0,0-.38-1.54,1.4,1.4,0,0,0-1.18-.48,1.87,1.87,0,0,0-1.5.64,2.66,2.66,0,0,0-.54,1.76v4.3h-1.22V17.82a2.54,2.54,0,0,0-.38-1.54,1.43,1.43,0,0,0-1.19-.48,1.87,1.87,0,0,0-1.51.64,2.61,2.61,0,0,0-.55,1.76v4.3Z"/><path class="cls-9" d="M137.5,11.76H139v1.38H137.5Zm.12,10.74V15h1.22V22.5Z"/><path class="cls-9" d="M141.19,22.5v-11h1.22v11Z"/><path class="cls-9" d="M144.76,22.5v-11H146v11Z"/><path class="cls-9" d="M148.21,11.76h1.49v1.38h-1.49Zm.12,10.74V15h1.22V22.5Z"/><path class="cls-9" d="M154.45,22.61a4.4,4.4,0,0,1-3-1l.4-.9a4.11,4.11,0,0,0,1.24.68,4.23,4.23,0,0,0,1.42.22,2.37,2.37,0,0,0,1.29-.29,1,1,0,0,0,.45-.85.89.89,0,0,0-.3-.71,2.3,2.3,0,0,0-1-.43l-1.28-.3a2.78,2.78,0,0,1-1.46-.75,1.78,1.78,0,0,1-.52-1.29,1.93,1.93,0,0,1,.36-1.16,2.37,2.37,0,0,1,1-.79,3.77,3.77,0,0,1,1.53-.28,4.37,4.37,0,0,1,1.5.25,3.16,3.16,0,0,1,1.18.74l-.4.88a4.06,4.06,0,0,0-1.11-.67,3.28,3.28,0,0,0-1.17-.21,2.17,2.17,0,0,0-1.26.31,1,1,0,0,0-.44.86,1,1,0,0,0,.28.73,1.89,1.89,0,0,0,.89.42l1.28.32a2.92,2.92,0,0,1,1.56.74,1.78,1.78,0,0,1,.51,1.31,1.85,1.85,0,0,1-.8,1.56A3.57,3.57,0,0,1,154.45,22.61Z"/><path class="cls-9" d="M165.52,21.6a3.49,3.49,0,0,1-1.27.74,4.73,4.73,0,0,1-1.58.27,4.16,4.16,0,0,1-2-.47,3.17,3.17,0,0,1-1.3-1.34,4.42,4.42,0,0,1-.46-2.09,4.5,4.5,0,0,1,.45-2.06,3.41,3.41,0,0,1,1.25-1.38,3.49,3.49,0,0,1,1.86-.49,3.17,3.17,0,0,1,1.72.44,2.8,2.8,0,0,1,1.1,1.27,4.6,4.6,0,0,1,.39,2v.22H160V17.9h5l-.39.55a3.14,3.14,0,0,0-.52-2,1.91,1.91,0,0,0-1.6-.71,2.11,2.11,0,0,0-1.72.77,3.36,3.36,0,0,0-.62,2.14,3.32,3.32,0,0,0,.65,2.22,2.42,2.42,0,0,0,1.92.75,3.56,3.56,0,0,0,1.26-.22,3.81,3.81,0,0,0,1.17-.66Z"/><path class="cls-9" d="M170.67,22.61a3.7,3.7,0,0,1-1.92-.48,3.29,3.29,0,0,1-1.26-1.35,4.57,4.57,0,0,1-.44-2.06,4.5,4.5,0,0,1,.45-2.06,3.31,3.31,0,0,1,1.28-1.39,3.72,3.72,0,0,1,1.95-.49,4.07,4.07,0,0,1,1.47.26,3.11,3.11,0,0,1,1.18.73l-.4.9a5,5,0,0,0-1.09-.66,3,3,0,0,0-1.1-.21,2.27,2.27,0,0,0-1.81.76,3.16,3.16,0,0,0-.67,2.16,3.12,3.12,0,0,0,.66,2.13,2.3,2.3,0,0,0,1.82.75,2.79,2.79,0,0,0,1.09-.22,4.4,4.4,0,0,0,1.1-.65l.4.9a3.34,3.34,0,0,1-1.21.71A4.24,4.24,0,0,1,170.67,22.61Z"/><path class="cls-9" d="M178.05,22.61a3.64,3.64,0,0,1-1.89-.48,3.27,3.27,0,0,1-1.24-1.36,4.52,4.52,0,0,1-.44-2.08,4.51,4.51,0,0,1,.44-2.07,3.21,3.21,0,0,1,1.24-1.36,3.64,3.64,0,0,1,1.89-.48,3.6,3.6,0,0,1,1.88.48,3.21,3.21,0,0,1,1.24,1.36,4.51,4.51,0,0,1,.45,2.07,4.52,4.52,0,0,1-.45,2.08,3.27,3.27,0,0,1-1.24,1.36A3.6,3.6,0,0,1,178.05,22.61Zm0-1a2.08,2.08,0,0,0,1.71-.74,3.34,3.34,0,0,0,.61-2.17,3.29,3.29,0,0,0-.61-2.14,2.34,2.34,0,0,0-3.43,0,3.23,3.23,0,0,0-.62,2.14,3.4,3.4,0,0,0,.6,2.17A2.15,2.15,0,0,0,178.05,21.6Z"/><path class="cls-9" d="M183.51,22.5V17.07c0-.35,0-.7,0-1.06a9.3,9.3,0,0,0-.09-1.05h1.15l.14,1.56-.15.12a2.58,2.58,0,0,1,1.05-1.39,3,3,0,0,1,1.69-.47c1.81,0,2.72,1,2.72,3V22.5h-1.22V17.82a2.34,2.34,0,0,0-.42-1.54A1.67,1.67,0,0,0,187,15.8a2.24,2.24,0,0,0-1.68.64,2.38,2.38,0,0,0-.63,1.74V22.5Z"/><path class="cls-9" d="M198.93,22.5h-1.2v-2l.18.16a2.54,2.54,0,0,1-1,1.46,2.94,2.94,0,0,1-1.75.51,3.2,3.2,0,0,1-1.75-.49,3.26,3.26,0,0,1-1.18-1.38,4.86,4.86,0,0,1-.42-2.08,4.81,4.81,0,0,1,.41-2.05,3.22,3.22,0,0,1,1.17-1.35,3.26,3.26,0,0,1,1.77-.48,2.94,2.94,0,0,1,1.75.51,2.58,2.58,0,0,1,1,1.45l-.2.15V11.46h1.22Zm-3.51-.9a2,2,0,0,0,1.7-.76,3.38,3.38,0,0,0,.61-2.15,3.38,3.38,0,0,0-.6-2.14,2.06,2.06,0,0,0-1.71-.75,2.15,2.15,0,0,0-1.74.75,3.24,3.24,0,0,0-.62,2.11,3.42,3.42,0,0,0,.62,2.17A2.13,2.13,0,0,0,195.42,21.6Z"/><path class="cls-9" d="M203.83,22.61a4.4,4.4,0,0,1-3-1l.4-.9a4.11,4.11,0,0,0,1.24.68,4.23,4.23,0,0,0,1.42.22,2.37,2.37,0,0,0,1.29-.29,1,1,0,0,0,.45-.85.89.89,0,0,0-.3-.71,2.3,2.3,0,0,0-1-.43l-1.28-.3a2.78,2.78,0,0,1-1.46-.75,1.78,1.78,0,0,1-.52-1.29,1.93,1.93,0,0,1,.36-1.16,2.37,2.37,0,0,1,1-.79,3.77,3.77,0,0,1,1.53-.28,4.37,4.37,0,0,1,1.5.25,3.16,3.16,0,0,1,1.18.74l-.4.88a4.06,4.06,0,0,0-1.11-.67,3.28,3.28,0,0,0-1.17-.21,2.17,2.17,0,0,0-1.26.31,1,1,0,0,0-.44.86,1,1,0,0,0,.28.73,1.89,1.89,0,0,0,.89.42l1.28.32a2.92,2.92,0,0,1,1.56.74,1.78,1.78,0,0,1,.51,1.31A1.85,1.85,0,0,1,206,22,3.57,3.57,0,0,1,203.83,22.61Z"/></g></g></g></svg>