<svg xmlns="http://www.w3.org/2000/svg" viewBox="0 0 595.39 138.08"><defs><style>.cls-1{fill:none;}.cls-2{fill:#3d865a;}.cls-3{fill:#49a670;}.cls-4{fill:#81c29b;}.cls-5{isolation:isolate;}.cls-6{fill:#fff;}.cls-7{opacity:0.6;}.cls-8{fill:#010101;}.cls-9{fill:#b1d5be;}</style></defs><g id="Layer_2" data-name="Layer 2"><g id="Layer_1-2" data-name="Layer 1"><rect class="cls-1" x="0.12" width="595.28" height="18"/><path class="cls-2" d="M9.12,1H102.9V26H9.12V21c0-10-8,8-8-7.5s8,2.5,8-7.5Z"/><path class="cls-3" d="M8.12,0H101.9V25H8.12V20c0-10-8,8-8-7.5s8,2.5,8-7.5Z"/><path class="cls-4" d="M9.12,24.5h-1v-6h1ZM.77,18.13a20.9,20.9,0,0,1,0-11.26l1,.26a19.79,19.79,0,0,0,0,10.74ZM9.12,8h-1V0H101.4V1H9.12Z"/><g class="cls-5"><path class="cls-6" d="M22.6,20.85a5.53,5.53,0,0,1-3-.78l.21-1a6,6,0,0,0,1.34.58,5.15,5.15,0,0,0,1.42.18,2.16,2.16,0,0,0,1.64-.58,2.32,2.32,0,0,0,.57-1.71v-2l.16-.2a2.82,2.82,0,0,1-.56,1,2.58,2.58,0,0,1-.94.69,3.15,3.15,0,0,1-1.26.24,3.21,3.21,0,0,1-2.95-1.79,4.32,4.32,0,0,1-.42-2,4.36,4.36,0,0,1,.42-2,3.18,3.18,0,0,1,2.95-1.78,3,3,0,0,1,1.78.51,2.58,2.58,0,0,1,1,1.45l-.18-.16V10H26v7.48A3.42,3.42,0,0,1,25.14,20,3.45,3.45,0,0,1,22.6,20.85Zm-.15-4.59a2.17,2.17,0,0,0,1.72-.73,3,3,0,0,0,.62-2,3,3,0,0,0-.62-2,2.16,2.16,0,0,0-1.72-.72,2.23,2.23,0,0,0-1.75.72,3,3,0,0,0-.63,2,3,3,0,0,0,.63,2A2.23,2.23,0,0,0,22.45,16.26Z"/><path class="cls-6" d="M34.53,16.6a3.58,3.58,0,0,1-1.27.74,4.77,4.77,0,0,1-1.58.27,4.13,4.13,0,0,1-2-.47,3.19,3.19,0,0,1-1.31-1.34,4.54,4.54,0,0,1-.45-2.09,4.5,4.5,0,0,1,.45-2.06,3.34,3.34,0,0,1,1.25-1.38,3.43,3.43,0,0,1,1.85-.49,3.2,3.2,0,0,1,1.73.44,2.86,2.86,0,0,1,1.1,1.27,4.76,4.76,0,0,1,.38,2v.22H29V12.9h5l-.39.55a3.08,3.08,0,0,0-.52-2,1.88,1.88,0,0,0-1.59-.71,2.1,2.1,0,0,0-1.72.77,3.31,3.31,0,0,0-.62,2.14,3.27,3.27,0,0,0,.65,2.22,2.39,2.39,0,0,0,1.91.75A3.65,3.65,0,0,0,33,16.38a3.88,3.88,0,0,0,1.16-.66Z"/><path class="cls-6" d="M35.4,10.92V10h4.84v1Zm4.81,5.5v1a5,5,0,0,1-.5.11,4.58,4.58,0,0,1-.55,0,2.29,2.29,0,0,1-1.67-.6,2.37,2.37,0,0,1-.62-1.8V8l1.21-.43V15a2.11,2.11,0,0,0,.17.93,1,1,0,0,0,.48.46,1.78,1.78,0,0,0,.67.13,2.54,2.54,0,0,0,.41,0A2.73,2.73,0,0,0,40.21,16.42Z"/></g><g class="cls-7"><rect class="cls-6" x="45.05" y="5" width="51.85" height="16" rx="4"/></g><g class="cls-5"><path class="cls-8" d="M57.87,17.5h-1.2v-2l.18.16a2.54,2.54,0,0,1-1,1.46,2.94,2.94,0,0,1-1.75.51,3.2,3.2,0,0,1-1.75-.49,3.26,3.26,0,0,1-1.18-1.38,4.86,4.86,0,0,1-.42-2.08,4.81,4.81,0,0,1,.41-2.05,3.22,3.22,0,0,1,1.17-1.35,3.26,3.26,0,0,1,1.77-.48,2.94,2.94,0,0,1,1.75.51,2.58,2.58,0,0,1,1,1.45l-.2.15V6.46h1.22Zm-3.51-.9a2,2,0,0,0,1.7-.76,3.38,3.38,0,0,0,.61-2.15,3.38,3.38,0,0,0-.6-2.14,2.06,2.06,0,0,0-1.71-.75,2.15,2.15,0,0,0-1.74.75A3.24,3.24,0,0,0,52,13.66a3.42,3.42,0,0,0,.62,2.17A2.13,2.13,0,0,0,54.36,16.6Z"/><path class="cls-8" d="M63.12,17.61a3.26,3.26,0,0,1-1.77-.48,3.11,3.11,0,0,1-1.17-1.35,4.85,4.85,0,0,1-.41-2.06,4.78,4.78,0,0,1,.42-2.07,3.26,3.26,0,0,1,1.18-1.38,3.12,3.12,0,0,1,1.75-.49,2.94,2.94,0,0,1,1.75.51,2.51,2.51,0,0,1,1,1.45l-.18.12V10h1.2V17.5h-1.2V15.55l.18.09a2.54,2.54,0,0,1-1,1.46A2.94,2.94,0,0,1,63.12,17.61Zm.24-1a2,2,0,0,0,1.71-.76,3.38,3.38,0,0,0,.6-2.15,3.35,3.35,0,0,0-.61-2.14,2.07,2.07,0,0,0-1.7-.75,2.11,2.11,0,0,0-1.74.77A3.36,3.36,0,0,0,61,13.72a3.28,3.28,0,0,0,.62,2.13A2.15,2.15,0,0,0,63.36,16.6Z"/><path class="cls-8" d="M71.62,17.89,68.23,10h1.28l2.73,6.66Zm-2.76,3L68.61,20a7.18,7.18,0,0,0,1.16-.38,2.56,2.56,0,0,0,.79-.56,3,3,0,0,0,.57-.92L71.61,17l.27-.37L74.64,10h1.21l-3.53,8.23a5.15,5.15,0,0,1-.91,1.46,3.44,3.44,0,0,1-1.15.84A5.87,5.87,0,0,1,68.86,20.91Z"/></g><polygon class="cls-8" points="87.92 17.31 92.9 8.69 82.94 8.69 87.92 17.31"/><rect class="cls-9" x="45.05" y="31.69" width="57.91" height="106.38" rx="5.67"/><g class="cls-5"><path class="cls-8" d="M57.27,44.56h-1.2v-2l.18.16a2.54,2.54,0,0,1-1,1.46,2.94,2.94,0,0,1-1.75.51,3.14,3.14,0,0,1-1.75-.49,3.21,3.21,0,0,1-1.18-1.38,4.83,4.83,0,0,1-.42-2.08,4.66,4.66,0,0,1,.42-2,3.09,3.09,0,0,1,1.17-1.35,3.2,3.2,0,0,1,1.76-.48,2.88,2.88,0,0,1,1.75.52,2.52,2.52,0,0,1,1,1.44l-.2.15V33.52h1.22Zm-3.51-.9a2.06,2.06,0,0,0,1.7-.75,3.37,3.37,0,0,0,.61-2.16,3.33,3.33,0,0,0-.6-2.13,2,2,0,0,0-1.71-.76,2.12,2.12,0,0,0-1.73.75,3.18,3.18,0,0,0-.63,2.11A3.34,3.34,0,0,0,52,42.89,2.07,2.07,0,0,0,53.76,43.66Z"/><path class="cls-8" d="M62.52,44.67a3.28,3.28,0,0,1-1.76-.47,3.09,3.09,0,0,1-1.17-1.35,5.31,5.31,0,0,1,0-4.14,3.33,3.33,0,0,1,1.18-1.38,3.14,3.14,0,0,1,1.75-.49,2.94,2.94,0,0,1,1.75.51,2.51,2.51,0,0,1,1,1.45l-.18.12V37h1.2v7.54h-1.2v-2l.18.09a2.54,2.54,0,0,1-1,1.46A2.94,2.94,0,0,1,62.52,44.67Zm.24-1a2.06,2.06,0,0,0,1.71-.75,3.43,3.43,0,0,0,.6-2.16,3.29,3.29,0,0,0-.61-2.14,2.06,2.06,0,0,0-1.7-.75,2.1,2.1,0,0,0-1.73.77,3.32,3.32,0,0,0-.63,2.15A3.22,3.22,0,0,0,61,42.91,2.12,2.12,0,0,0,62.76,43.66Z"/><path class="cls-8" d="M71,45,67.63,37h1.28l2.73,6.66Zm-2.76,3L68,47a5.84,5.84,0,0,0,1.16-.38,2.45,2.45,0,0,0,.8-.56,3.21,3.21,0,0,0,.56-.92L71,44.05l.27-.37L74,37h1.21l-3.52,8.23a5.38,5.38,0,0,1-.92,1.47,3.63,3.63,0,0,1-1.14.83A6.1,6.1,0,0,1,68.26,48Z"/><path class="cls-8" d="M50.62,62.56V57.13c0-.35,0-.7,0-1.05A9.28,9.28,0,0,0,50.5,55h1.16l.13,1.56-.15.1a2.55,2.55,0,0,1,.94-1.36,2.64,2.64,0,0,1,1.58-.48,2.51,2.51,0,0,1,1.71.54A2.67,2.67,0,0,1,56.64,57l-.36-.2a2.53,2.53,0,0,1,1-1.45A2.82,2.82,0,0,1,59,54.84a2.35,2.35,0,0,1,1.88.74,3.4,3.4,0,0,1,.63,2.24v4.74H60.28V57.88a2.5,2.5,0,0,0-.37-1.53,1.4,1.4,0,0,0-1.19-.49,1.85,1.85,0,0,0-1.49.64,2.67,2.67,0,0,0-.55,1.76v4.3H55.47V57.88a2.49,2.49,0,0,0-.38-1.53,1.43,1.43,0,0,0-1.2-.49,1.85,1.85,0,0,0-1.5.64,2.61,2.61,0,0,0-.55,1.76v4.3Z"/><path class="cls-8" d="M66.93,62.67a3.58,3.58,0,0,1-1.88-.48,3.23,3.23,0,0,1-1.25-1.36,5.11,5.11,0,0,1,0-4.15,3.23,3.23,0,0,1,1.25-1.36,3.92,3.92,0,0,1,3.76,0,3.23,3.23,0,0,1,1.25,1.36,5.11,5.11,0,0,1,0,4.15,3.23,3.23,0,0,1-1.25,1.36A3.58,3.58,0,0,1,66.93,62.67Zm0-1a2.09,2.09,0,0,0,1.72-.74,3.38,3.38,0,0,0,.6-2.17,3.29,3.29,0,0,0-.61-2.14,2.09,2.09,0,0,0-1.71-.75,2.12,2.12,0,0,0-1.72.75,3.29,3.29,0,0,0-.62,2.14,3.32,3.32,0,0,0,.61,2.17A2.08,2.08,0,0,0,66.93,61.66Z"/><path class="cls-8" d="M72.39,62.56V57.13c0-.35,0-.7,0-1.05s-.05-.71-.1-1.06h1.15l.14,1.56-.15.12a2.61,2.61,0,0,1,1-1.39,3.09,3.09,0,0,1,1.69-.47c1.81,0,2.72,1,2.72,3v4.74H77.65V57.88a2.29,2.29,0,0,0-.42-1.53,1.64,1.64,0,0,0-1.32-.49,2.24,2.24,0,0,0-1.68.64,2.38,2.38,0,0,0-.63,1.74v4.32Z"/><path class="cls-8" d="M80.1,56V55h4.84v1Zm4.81,5.5v1a3,3,0,0,1-.5.11,3.09,3.09,0,0,1-.55,0,2.31,2.31,0,0,1-1.67-.6,2.41,2.41,0,0,1-.62-1.8V53.08l1.21-.43V60.1A2,2,0,0,0,83,61a.91.91,0,0,0,.47.46,1.6,1.6,0,0,0,.67.13,2.54,2.54,0,0,0,.41,0A2.73,2.73,0,0,0,84.91,61.48Z"/><path class="cls-8" d="M86.41,62.56v-11h1.22v5l-.2.15a2.61,2.61,0,0,1,1-1.39,3.12,3.12,0,0,1,1.7-.47c1.81,0,2.71,1,2.71,3v4.74H91.68V57.88a2.29,2.29,0,0,0-.42-1.53,1.64,1.64,0,0,0-1.32-.49,2.24,2.24,0,0,0-1.68.64,2.38,2.38,0,0,0-.63,1.74v4.32Z"/><path class="cls-8" d="M53,81,49.63,73h1.28l2.73,6.66Zm-2.76,3L50,83a5.84,5.84,0,0,0,1.16-.38,2.45,2.45,0,0,0,.8-.56,3.21,3.21,0,0,0,.56-.92L53,80.05l.27-.37L56,73h1.21l-3.52,8.23a5.38,5.38,0,0,1-.92,1.47,3.63,3.63,0,0,1-1.14.83A6.1,6.1,0,0,1,50.26,84Z"/><path class="cls-8" d="M64.68,79.66a3.49,3.49,0,0,1-1.27.74,4.73,4.73,0,0,1-1.58.27,4.16,4.16,0,0,1-2-.47,3.12,3.12,0,0,1-1.3-1.34,4.39,4.39,0,0,1-.46-2.09,4.5,4.5,0,0,1,.45-2.06,3.41,3.41,0,0,1,1.25-1.38,3.46,3.46,0,0,1,1.85-.49,3.29,3.29,0,0,1,1.73.44,2.85,2.85,0,0,1,1.1,1.27,4.6,4.6,0,0,1,.38,2v.22h-5.7V76h5l-.39.55a3.14,3.14,0,0,0-.51-2,1.91,1.91,0,0,0-1.6-.71,2.09,2.09,0,0,0-1.72.78,4,4,0,0,0,0,4.35,2.4,2.4,0,0,0,1.91.75,3.85,3.85,0,0,0,1.27-.21,4,4,0,0,0,1.16-.67Z"/><path class="cls-8" d="M69.55,80.67a3.31,3.31,0,0,1-1.76-.47,3.22,3.22,0,0,1-1.17-1.35,4.93,4.93,0,0,1-.41-2.07,4.78,4.78,0,0,1,.42-2.07,3.26,3.26,0,0,1,1.18-1.38,3.08,3.08,0,0,1,1.74-.49,3,3,0,0,1,1.76.51,2.5,2.5,0,0,1,1,1.45l-.18.12V73h1.2v7.54H72.1v-2l.18.09a2.52,2.52,0,0,1-1,1.46A3,3,0,0,1,69.55,80.67Zm.24-1a2.06,2.06,0,0,0,1.71-.75,3.43,3.43,0,0,0,.6-2.16,3.35,3.35,0,0,0-.6-2.14,2.09,2.09,0,0,0-1.71-.75,2.12,2.12,0,0,0-1.73.77,3.38,3.38,0,0,0-.62,2.15,3.28,3.28,0,0,0,.62,2.13A2.13,2.13,0,0,0,69.79,79.66Z"/><path class="cls-8" d="M75.66,80.56V75.13c0-.35,0-.7,0-1s0-.71-.1-1.06h1.15l.17,1.86-.17,0a2.39,2.39,0,0,1,.91-1.49,2.67,2.67,0,0,1,1.57-.5l.37,0,.32.07,0,1.11a2.45,2.45,0,0,0-.8-.12,2.08,2.08,0,0,0-1.25.34,2.12,2.12,0,0,0-.69.88,3.06,3.06,0,0,0-.22,1.12v4.3Z"/><path class="cls-8" d="M50.62,98.56v-11h1.22v5l-.2.15a2.61,2.61,0,0,1,1-1.39,3.12,3.12,0,0,1,1.7-.47c1.81,0,2.71,1,2.71,3v4.74H55.89V93.88a2.29,2.29,0,0,0-.42-1.53,1.64,1.64,0,0,0-1.32-.49,2.24,2.24,0,0,0-1.68.64,2.38,2.38,0,0,0-.63,1.74v4.32Z"/><path class="cls-8" d="M62.52,98.67a3.58,3.58,0,0,1-1.88-.48,3.23,3.23,0,0,1-1.25-1.36,5.11,5.11,0,0,1,0-4.15,3.23,3.23,0,0,1,1.25-1.36,3.92,3.92,0,0,1,3.76,0,3.23,3.23,0,0,1,1.25,1.36,5.11,5.11,0,0,1,0,4.15,3.23,3.23,0,0,1-1.25,1.36A3.58,3.58,0,0,1,62.52,98.67Zm0-1a2.09,2.09,0,0,0,1.72-.74,3.38,3.38,0,0,0,.6-2.17,3.29,3.29,0,0,0-.61-2.14,2.09,2.09,0,0,0-1.71-.75,2.12,2.12,0,0,0-1.72.75,3.29,3.29,0,0,0-.62,2.14,3.32,3.32,0,0,0,.61,2.17A2.08,2.08,0,0,0,62.52,97.66Z"/><path class="cls-8" d="M70.65,98.67a2.6,2.6,0,0,1-2-.75,3.17,3.17,0,0,1-.69-2.22V91h1.22v4.65a2.24,2.24,0,0,0,.42,1.5,1.59,1.59,0,0,0,1.27.48A2.14,2.14,0,0,0,72.46,97a2.39,2.39,0,0,0,.62-1.72V91h1.21v7.54H73.11V96.93l.18-.09a2.53,2.53,0,0,1-1,1.36A2.93,2.93,0,0,1,70.65,98.67Z"/><path class="cls-8" d="M76.63,98.56V93.13c0-.35,0-.7,0-1a9.28,9.28,0,0,0-.1-1.06h1.16l.16,1.86-.16,0a2.35,2.35,0,0,1,.91-1.49,2.62,2.62,0,0,1,1.56-.5l.37,0,.32.07,0,1.11a2.39,2.39,0,0,0-.79-.12,2.06,2.06,0,0,0-1.25.34,2,2,0,0,0-.69.88,2.87,2.87,0,0,0-.22,1.12v4.3Z"/><path class="cls-8" d="M50.62,116.56v-5.43c0-.35,0-.7,0-1a9.28,9.28,0,0,0-.1-1.06h1.16l.13,1.56-.15.1a2.55,2.55,0,0,1,.94-1.36,2.64,2.64,0,0,1,1.58-.48,2.51,2.51,0,0,1,1.71.54,2.67,2.67,0,0,1,.77,1.65l-.36-.2a2.53,2.53,0,0,1,1-1.45,2.82,2.82,0,0,1,1.74-.54,2.35,2.35,0,0,1,1.88.74,3.4,3.4,0,0,1,.63,2.24v4.74H60.28v-4.68a2.5,2.5,0,0,0-.37-1.53,1.4,1.4,0,0,0-1.19-.49,1.85,1.85,0,0,0-1.49.64,2.67,2.67,0,0,0-.55,1.76v4.3H55.47v-4.68a2.49,2.49,0,0,0-.38-1.53,1.43,1.43,0,0,0-1.2-.49,1.85,1.85,0,0,0-1.5.64,2.61,2.61,0,0,0-.55,1.76v4.3Z"/><path class="cls-8" d="M63.69,105.82h1.48v1.38H63.69Zm.12,10.74V109H65v7.54Z"/><path class="cls-8" d="M67.38,116.56v-5.43c0-.35,0-.7,0-1s0-.71-.1-1.06h1.15l.14,1.56-.15.12a2.61,2.61,0,0,1,1-1.39,3.09,3.09,0,0,1,1.69-.47c1.81,0,2.72,1,2.72,3v4.74H72.64v-4.68a2.29,2.29,0,0,0-.42-1.53,1.64,1.64,0,0,0-1.32-.49,2.24,2.24,0,0,0-1.68.64,2.38,2.38,0,0,0-.63,1.74v4.32Z"/><path class="cls-8" d="M78.82,116.67a2.61,2.61,0,0,1-2-.75,3.22,3.22,0,0,1-.68-2.22V109h1.21v4.65a2.24,2.24,0,0,0,.42,1.5,1.62,1.62,0,0,0,1.28.48,2.14,2.14,0,0,0,1.62-.65,2.38,2.38,0,0,0,.61-1.72V109h1.22v7.54H81.28v-1.63l.18-.09a2.48,2.48,0,0,1-1,1.36A2.91,2.91,0,0,1,78.82,116.67Z"/><path class="cls-8" d="M83.74,110v-1h4.85v1Zm4.82,5.5v1a3.22,3.22,0,0,1-.5.11,3.16,3.16,0,0,1-.55,0,2.29,2.29,0,0,1-1.67-.6,2.37,2.37,0,0,1-.63-1.8v-7.19l1.22-.43v7.45a2.11,2.11,0,0,0,.17.93,1,1,0,0,0,.47.46,1.65,1.65,0,0,0,.68.13,2.41,2.41,0,0,0,.4,0A2.83,2.83,0,0,0,88.56,115.48Z"/><path class="cls-8" d="M96.24,115.66a3.49,3.49,0,0,1-1.27.74,4.73,4.73,0,0,1-1.58.27,4.16,4.16,0,0,1-2-.47,3.12,3.12,0,0,1-1.3-1.34,4.39,4.39,0,0,1-.46-2.09,4.5,4.5,0,0,1,.45-2.06,3.41,3.41,0,0,1,1.25-1.38,3.46,3.46,0,0,1,1.85-.49,3.29,3.29,0,0,1,1.73.44,2.85,2.85,0,0,1,1.1,1.27,4.6,4.6,0,0,1,.38,2v.22h-5.7V112h5l-.39.55a3.14,3.14,0,0,0-.51-2,1.91,1.91,0,0,0-1.6-.71,2.09,2.09,0,0,0-1.72.78,4,4,0,0,0,0,4.35,2.4,2.4,0,0,0,1.91.75,3.85,3.85,0,0,0,1.27-.21,4,4,0,0,0,1.16-.67Z"/><path class="cls-8" d="M53.17,134.67a4.4,4.4,0,0,1-3-1l.4-.9a4,4,0,0,0,2.66.9,2.34,2.34,0,0,0,1.3-.29,1,1,0,0,0,.44-.85.9.9,0,0,0-.3-.71,2.42,2.42,0,0,0-1-.43l-1.28-.3a2.82,2.82,0,0,1-1.46-.75,1.82,1.82,0,0,1-.52-1.29,2,2,0,0,1,.36-1.16,2.45,2.45,0,0,1,1-.79,3.77,3.77,0,0,1,1.53-.28,4.37,4.37,0,0,1,1.5.25,3.16,3.16,0,0,1,1.18.74l-.4.88a3.87,3.87,0,0,0-1.1-.66,3.17,3.17,0,0,0-1.18-.22,2.12,2.12,0,0,0-1.25.31,1,1,0,0,0-.45.86,1,1,0,0,0,.28.73,1.94,1.94,0,0,0,.89.42l1.28.32a3.07,3.07,0,0,1,1.57.74,1.94,1.94,0,0,1-.3,2.87A3.57,3.57,0,0,1,53.17,134.67Z"/><path class="cls-8" d="M64.24,133.66a3.53,3.53,0,0,1-1.26.74,4.83,4.83,0,0,1-1.59.27,4.09,4.09,0,0,1-2-.47,3.14,3.14,0,0,1-1.31-1.34,5,5,0,0,1,0-4.15,3.37,3.37,0,0,1,1.26-1.38,3.43,3.43,0,0,1,1.85-.49,3.26,3.26,0,0,1,1.72.44A2.93,2.93,0,0,1,64,128.55a4.76,4.76,0,0,1,.38,2v.22h-5.7V130h5l-.39.55a3.08,3.08,0,0,0-.52-2,1.9,1.9,0,0,0-1.6-.71,2.06,2.06,0,0,0-1.71.78,4,4,0,0,0,0,4.35,2.39,2.39,0,0,0,1.91.75,3.89,3.89,0,0,0,1.27-.21,4.15,4.15,0,0,0,1.16-.67Z"/><path class="cls-8" d="M69.39,134.67a3.7,3.7,0,0,1-1.92-.48,3.2,3.2,0,0,1-1.25-1.35,4.44,4.44,0,0,1-.45-2.06,4.53,4.53,0,0,1,.45-2.06,3.37,3.37,0,0,1,1.28-1.39,3.72,3.72,0,0,1,2-.49,4.39,4.39,0,0,1,1.48.26,3.28,3.28,0,0,1,1.17.73l-.4.9a4.35,4.35,0,0,0-1.09-.65,2.77,2.77,0,0,0-1.1-.22,2.28,2.28,0,0,0-1.81.76,3.21,3.21,0,0,0-.67,2.16,3.12,3.12,0,0,0,.66,2.13,2.3,2.3,0,0,0,1.82.75,3,3,0,0,0,1.09-.21,4.78,4.78,0,0,0,1.1-.66l.4.9a3.55,3.55,0,0,1-1.2.72A4.57,4.57,0,0,1,69.39,134.67Z"/><path class="cls-8" d="M76.77,134.67a3.58,3.58,0,0,1-1.88-.48,3.23,3.23,0,0,1-1.25-1.36,5.11,5.11,0,0,1,0-4.15,3.23,3.23,0,0,1,1.25-1.36,3.92,3.92,0,0,1,3.76,0,3.23,3.23,0,0,1,1.25,1.36,5.11,5.11,0,0,1,0,4.15,3.23,3.23,0,0,1-1.25,1.36A3.58,3.58,0,0,1,76.77,134.67Zm0-1a2.09,2.09,0,0,0,1.72-.74,3.38,3.38,0,0,0,.6-2.17,3.29,3.29,0,0,0-.61-2.14,2.09,2.09,0,0,0-1.71-.75,2.12,2.12,0,0,0-1.72.75,3.29,3.29,0,0,0-.62,2.14,3.32,3.32,0,0,0,.61,2.17A2.08,2.08,0,0,0,76.77,133.66Z"/><path class="cls-8" d="M82.23,134.56v-5.43c0-.35,0-.7,0-1s0-.71-.1-1.06h1.15l.14,1.56-.15.12a2.61,2.61,0,0,1,1-1.39,3.09,3.09,0,0,1,1.69-.47c1.81,0,2.72,1,2.72,3v4.74H87.49v-4.68a2.29,2.29,0,0,0-.42-1.53,1.64,1.64,0,0,0-1.32-.49,2.24,2.24,0,0,0-1.68.64,2.38,2.38,0,0,0-.63,1.74v4.32Z"/><path class="cls-8" d="M97.65,134.56h-1.2v-2l.18.16a2.54,2.54,0,0,1-1,1.46,2.94,2.94,0,0,1-1.75.51,3.14,3.14,0,0,1-1.75-.49A3.21,3.21,0,0,1,91,132.8a4.83,4.83,0,0,1-.42-2.08,4.66,4.66,0,0,1,.42-2.05,3.09,3.09,0,0,1,1.17-1.35,3.2,3.2,0,0,1,1.76-.48,2.88,2.88,0,0,1,1.75.52,2.52,2.52,0,0,1,1,1.44l-.2.15v-5.43h1.22Zm-3.51-.9a2.06,2.06,0,0,0,1.7-.75,4.11,4.11,0,0,0,0-4.29,2,2,0,0,0-1.71-.76,2.12,2.12,0,0,0-1.73.75,3.18,3.18,0,0,0-.63,2.11,3.34,3.34,0,0,0,.63,2.17A2.07,2.07,0,0,0,94.14,133.66Z"/></g><polygon class="cls-8" points="93.84 44.38 98.82 35.75 88.87 35.75 93.84 44.38"/></g></g></svg>