<svg xmlns="http://www.w3.org/2000/svg" viewBox="0 0 595.28 42.52"><defs><style>.cls-1{fill:#231f20;}.cls-2{fill:#5d6771;}.cls-3{fill:#a4a9ad;}.cls-4{fill:#343f49;}.cls-5{fill:#84a550;}.cls-6{fill:#62883b;}.cls-7{fill:none;}</style></defs><g id="Layer_2" data-name="Layer 2"><g id="Layer_1-2" data-name="Layer 1"><path class="cls-1" d="M96,34.36q-5.29,0-8-2.7t-2.72-7.95V8.44h4.54V24a7.21,7.21,0,0,0,1.56,5A6,6,0,0,0,96,30.69,5.77,5.77,0,0,0,100.48,29,7.22,7.22,0,0,0,102,24V8.44h4.61V23.71c0,3.48-.92,6.12-2.75,7.94S99.41,34.36,96,34.36Z"/><path class="cls-1" d="M120.69,34.36a20.06,20.06,0,0,1-3.78-.34,16.31,16.31,0,0,1-3.37-1,11.83,11.83,0,0,1-2.75-1.66L112.34,28a13.5,13.5,0,0,0,4,2.08,14.15,14.15,0,0,0,4.43.65,7.67,7.67,0,0,0,4.12-.93,3,3,0,0,0,1.46-2.63,2.34,2.34,0,0,0-.65-1.68,5.09,5.09,0,0,0-2-1.13,28.08,28.08,0,0,0-3.2-.9,26,26,0,0,1-4-1.06,11,11,0,0,1-2.89-1.5,5.65,5.65,0,0,1-1.74-2.07,6.32,6.32,0,0,1-.6-2.86,6.88,6.88,0,0,1,1.23-4A8,8,0,0,1,116,9.15a12.63,12.63,0,0,1,5.2-1,17,17,0,0,1,3.51.36,14.91,14.91,0,0,1,3.15,1,9.38,9.38,0,0,1,2.48,1.64l-1.58,3.38a12.41,12.41,0,0,0-3.6-2.07,11.73,11.73,0,0,0-3.92-.66,6.69,6.69,0,0,0-3.93,1,3.22,3.22,0,0,0-1.44,2.8,2.56,2.56,0,0,0,.59,1.73,4.44,4.44,0,0,0,1.84,1.15,25.64,25.64,0,0,0,3.19.94,31.21,31.21,0,0,1,4,1.08,12.35,12.35,0,0,1,3,1.46,5.42,5.42,0,0,1,2.48,4.8,6.76,6.76,0,0,1-1.22,4,7.81,7.81,0,0,1-3.51,2.63A14.72,14.72,0,0,1,120.69,34.36Z"/><path class="cls-1" d="M135.24,34.08V8.44H146.5a9.88,9.88,0,0,1,6.21,1.77A5.85,5.85,0,0,1,155,15.14a5.93,5.93,0,0,1-1.19,3.71A6.22,6.22,0,0,1,150.46,21v-.29a6.53,6.53,0,0,1,3.84,2.2,6.37,6.37,0,0,1,1.35,4.17,6.21,6.21,0,0,1-2.32,5.13,10.16,10.16,0,0,1-6.5,1.86Zm4.53-14.84h5.94a6.06,6.06,0,0,0,3.67-.9,3.18,3.18,0,0,0,1.19-2.7,3.13,3.13,0,0,0-1.19-2.7,6.3,6.3,0,0,0-3.67-.86h-5.94Zm0,11.2h6.59a6.21,6.21,0,0,0,3.72-.88,3.35,3.35,0,0,0,1.17-2.86,3.43,3.43,0,0,0-1.18-2.88,6,6,0,0,0-3.71-.94h-6.59Z"/><rect class="cls-2" x="56.38" y="3.24" width="5.53" height="8.82"/><rect class="cls-3" x="56.38" y="1.62" width="5.53" height="8.82"/><rect class="cls-4" x="57.96" y="7.18" width="2.76" height="1.48"/><rect class="cls-4" x="57.96" y="3.4" width="2.76" height="1.48"/><rect class="cls-5" x="46.67" width="9.71" height="12.06"/><rect class="cls-6" x="46.67" y="12.06" width="9.71" height="2.49"/><rect class="cls-2" x="22.94" y="31.2" width="5.53" height="8.82"/><rect class="cls-3" x="22.94" y="29.59" width="5.53" height="8.82"/><rect class="cls-4" x="24.13" y="35.15" width="2.76" height="1.48"/><rect class="cls-4" x="24.13" y="31.37" width="2.76" height="1.48"/><rect class="cls-5" x="28.47" y="27.97" width="9.71" height="12.06"/><rect class="cls-6" x="28.47" y="40.03" width="9.71" height="2.49"/><path class="cls-2" d="M54.87,36.51H38.18V34.18H54.87a5.88,5.88,0,0,0,0-11.75H30A8.21,8.21,0,0,1,30,6H46.67V8.34H30a5.88,5.88,0,0,0,0,11.75H54.87a8.21,8.21,0,1,1,0,16.42Z"/><rect class="cls-7" width="595.28" height="18"/></g></g></svg>