<svg xmlns="http://www.w3.org/2000/svg" viewBox="0 0 595.39 26"><defs><style>.cls-1{fill:none;}.cls-2{fill:#6b8542;}.cls-3{fill:#84a550;}.cls-4{fill:#aac186;}.cls-5{isolation:isolate;}.cls-6{fill:#fff;}</style></defs><g id="Layer_2" data-name="Layer 2"><g id="Layer_1-2" data-name="Layer 1"><rect class="cls-1" x="0.12" width="595.28" height="18"/><path class="cls-2" d="M9.12,1h169.8V26H9.12V21c0-10-8,8-8-7.5s8,2.5,8-7.5Z"/><path class="cls-3" d="M8.12,0h169.8V25H8.12V20c0-10-8,8-8-7.5s8,2.5,8-7.5Z"/><path class="cls-4" d="M9.12,24.5h-1v-6h1ZM.77,18.13a20.9,20.9,0,0,1,0-11.26l1,.26a19.79,19.79,0,0,0,0,10.74ZM9.12,8h-1V0h169.3V1H9.12Z"/><g class="cls-5"><path class="cls-6" d="M22.45,17.61a3.7,3.7,0,0,1-1.92-.48,3.2,3.2,0,0,1-1.25-1.35,4.44,4.44,0,0,1-.44-2.06,4.5,4.5,0,0,1,.45-2.06,3.29,3.29,0,0,1,1.27-1.39,3.72,3.72,0,0,1,2-.49A4.16,4.16,0,0,1,24,10a3.19,3.19,0,0,1,1.18.73l-.41.9A4.73,4.73,0,0,0,23.67,11a3,3,0,0,0-1.1-.21,2.28,2.28,0,0,0-1.81.76,3.21,3.21,0,0,0-.66,2.16,3.12,3.12,0,0,0,.66,2.13,2.28,2.28,0,0,0,1.81.75,2.84,2.84,0,0,0,1.1-.22,4.35,4.35,0,0,0,1.09-.65l.41.9a3.43,3.43,0,0,1-1.21.71A4.33,4.33,0,0,1,22.45,17.61Z"/><path class="cls-6" d="M26.71,17.5v-11h1.22v5l-.2.15a2.58,2.58,0,0,1,1.05-1.39,3,3,0,0,1,1.7-.47c1.81,0,2.71,1,2.71,3V17.5H32V12.82a2.34,2.34,0,0,0-.42-1.54,1.67,1.67,0,0,0-1.32-.48,2.24,2.24,0,0,0-1.68.64,2.38,2.38,0,0,0-.63,1.74V17.5Z"/><path class="cls-6" d="M41.67,16.6a3.58,3.58,0,0,1-1.27.74,4.77,4.77,0,0,1-1.58.27,4.13,4.13,0,0,1-2-.47,3.19,3.19,0,0,1-1.31-1.34A4.54,4.54,0,0,1,35,13.71a4.5,4.5,0,0,1,.45-2.06,3.34,3.34,0,0,1,1.25-1.38,3.43,3.43,0,0,1,1.85-.49,3.2,3.2,0,0,1,1.73.44,2.86,2.86,0,0,1,1.1,1.27,4.76,4.76,0,0,1,.38,2v.22H36.1v-.8h5l-.39.56a3.08,3.08,0,0,0-.52-2,1.88,1.88,0,0,0-1.59-.71,2.1,2.1,0,0,0-1.72.77,3.31,3.31,0,0,0-.62,2.14,3.27,3.27,0,0,0,.65,2.22,2.39,2.39,0,0,0,1.91.75,3.65,3.65,0,0,0,1.27-.22,3.88,3.88,0,0,0,1.16-.66Z"/><path class="cls-6" d="M46.81,17.61a3.7,3.7,0,0,1-1.92-.48,3.2,3.2,0,0,1-1.25-1.35,4.44,4.44,0,0,1-.44-2.06,4.5,4.5,0,0,1,.45-2.06,3.29,3.29,0,0,1,1.27-1.39,3.72,3.72,0,0,1,1.95-.49,4.16,4.16,0,0,1,1.48.26,3.19,3.19,0,0,1,1.18.73l-.41.9A4.73,4.73,0,0,0,48,11a3,3,0,0,0-1.1-.21,2.28,2.28,0,0,0-1.81.76,3.21,3.21,0,0,0-.66,2.16,3.12,3.12,0,0,0,.66,2.13,2.28,2.28,0,0,0,1.81.75,2.84,2.84,0,0,0,1.1-.22,4.35,4.35,0,0,0,1.09-.65l.41.9a3.43,3.43,0,0,1-1.21.71A4.33,4.33,0,0,1,46.81,17.61Z"/><path class="cls-6" d="M51.07,17.5v-11h1.22v11Zm5.09,0-4.11-3.86L55.84,10h1.55l-4.2,4,0-.76,4.52,4.27Z"/><path class="cls-6" d="M67,17.62a4.24,4.24,0,0,1-3.16-1.09,4.36,4.36,0,0,1-1.08-3.21V6.82H64v6.6a3.25,3.25,0,0,0,.77,2.36,3.6,3.6,0,0,0,4.5,0A3.28,3.28,0,0,0,70,13.42V6.82h1.23v6.5a4.39,4.39,0,0,1-1.08,3.21A4.23,4.23,0,0,1,67,17.62Z"/><path class="cls-6" d="M77.22,17.62a8.43,8.43,0,0,1-1.55-.14A5.63,5.63,0,0,1,74.34,17a5.07,5.07,0,0,1-1.11-.76l.46-.94a5.24,5.24,0,0,0,1.63,1,5.78,5.78,0,0,0,1.91.28,3.41,3.41,0,0,0,2-.5,1.65,1.65,0,0,0,.71-1.42,1.15,1.15,0,0,0-.36-.89,2.33,2.33,0,0,0-1-.54,13.81,13.81,0,0,0-1.37-.38,14.57,14.57,0,0,1-1.45-.39,5.32,5.32,0,0,1-1.23-.54,2.47,2.47,0,0,1-.83-.84,2.5,2.5,0,0,1-.3-1.28,2.76,2.76,0,0,1,.48-1.61,3.13,3.13,0,0,1,1.35-1.09,5,5,0,0,1,2.06-.39,5.92,5.92,0,0,1,1.41.16A5.18,5.18,0,0,1,80,7.32a4.46,4.46,0,0,1,1,.73L80.52,9A5.11,5.11,0,0,0,79,8.05a4.66,4.66,0,0,0-1.69-.3,3.2,3.2,0,0,0-2,.53,1.73,1.73,0,0,0-.71,1.47,1.37,1.37,0,0,0,.32.94,2.22,2.22,0,0,0,.88.58,12.18,12.18,0,0,0,1.31.4q.78.18,1.5.39a6.83,6.83,0,0,1,1.28.51,2.55,2.55,0,0,1,.89.8,2.16,2.16,0,0,1,.33,1.24,2.67,2.67,0,0,1-.48,1.59,3.17,3.17,0,0,1-1.36,1.05A5.36,5.36,0,0,1,77.22,17.62Z"/><path class="cls-6" d="M83.17,17.5V6.82h4.29A4,4,0,0,1,90,7.55a2.47,2.47,0,0,1,.91,2.06,2.5,2.5,0,0,1-.5,1.57,2.78,2.78,0,0,1-1.39.91V12a2.5,2.5,0,0,1,2.15,2.62,2.61,2.61,0,0,1-.93,2.16,4.12,4.12,0,0,1-2.63.75Zm1.22-5.94h2.88a2.91,2.91,0,0,0,1.82-.48,1.7,1.7,0,0,0,.61-1.41,1.61,1.61,0,0,0-.6-1.37,3,3,0,0,0-1.83-.46H84.39Zm0,4.92h3.12A3,3,0,0,0,89.36,16,1.76,1.76,0,0,0,90,14.56a1.8,1.8,0,0,0-.6-1.47,2.85,2.85,0,0,0-1.84-.49H84.39Z"/><path class="cls-6" d="M100.32,17.61a3.67,3.67,0,0,1-1.92-.48,3.29,3.29,0,0,1-1.26-1.35,4.57,4.57,0,0,1-.44-2.06,4.5,4.5,0,0,1,.45-2.06,3.31,3.31,0,0,1,1.28-1.39,3.69,3.69,0,0,1,1.95-.49,4.07,4.07,0,0,1,1.47.26,3.11,3.11,0,0,1,1.18.73l-.4.9a5,5,0,0,0-1.09-.66,3,3,0,0,0-1.1-.21,2.27,2.27,0,0,0-1.81.76A3.16,3.16,0,0,0,98,13.72a3.12,3.12,0,0,0,.66,2.13,2.3,2.3,0,0,0,1.82.75,2.83,2.83,0,0,0,1.09-.22,4.4,4.4,0,0,0,1.1-.65l.4.9a3.34,3.34,0,0,1-1.21.71A4.24,4.24,0,0,1,100.32,17.61Z"/><path class="cls-6" d="M107.7,17.61a3.61,3.61,0,0,1-1.89-.48,3.27,3.27,0,0,1-1.24-1.36,4.52,4.52,0,0,1-.44-2.08,4.51,4.51,0,0,1,.44-2.07,3.21,3.21,0,0,1,1.24-1.36,3.94,3.94,0,0,1,3.77,0,3.21,3.21,0,0,1,1.24,1.36,4.51,4.51,0,0,1,.44,2.07,4.52,4.52,0,0,1-.44,2.08,3.27,3.27,0,0,1-1.24,1.36A3.63,3.63,0,0,1,107.7,17.61Zm0-1a2.1,2.1,0,0,0,1.71-.74,3.34,3.34,0,0,0,.61-2.17,3.29,3.29,0,0,0-.61-2.14,2.34,2.34,0,0,0-3.43,0,3.23,3.23,0,0,0-.62,2.14,3.4,3.4,0,0,0,.6,2.17A2.15,2.15,0,0,0,107.7,16.6Z"/><path class="cls-6" d="M113.16,17.5V12.07c0-.35,0-.7,0-1.06a7.46,7.46,0,0,0-.1-1h1.16l.13,1.56-.14.12a2.58,2.58,0,0,1,1-1.39,3,3,0,0,1,1.69-.47c1.81,0,2.72,1,2.72,3V17.5h-1.22V12.82a2.34,2.34,0,0,0-.42-1.54,1.67,1.67,0,0,0-1.32-.48,2.24,2.24,0,0,0-1.68.64,2.38,2.38,0,0,0-.63,1.74V17.5Z"/><path class="cls-6" d="M121.93,17.5V12.07c0-.35,0-.7,0-1.06s0-.7-.1-1H123l.13,1.56-.15.12a2.58,2.58,0,0,1,1-1.39,3,3,0,0,1,1.7-.47c1.8,0,2.71,1,2.71,3V17.5H127.2V12.82a2.4,2.4,0,0,0-.42-1.54,1.7,1.7,0,0,0-1.33-.48,2.23,2.23,0,0,0-1.67.64,2.39,2.39,0,0,0-.64,1.74V17.5Z"/><path class="cls-6" d="M136.89,16.6a3.67,3.67,0,0,1-1.27.74,4.83,4.83,0,0,1-1.59.27,4.12,4.12,0,0,1-2-.47,3.19,3.19,0,0,1-1.31-1.34,4.54,4.54,0,0,1-.45-2.09,4.63,4.63,0,0,1,.44-2.06,3.35,3.35,0,0,1,3.11-1.87,3.17,3.17,0,0,1,1.72.44,2.88,2.88,0,0,1,1.11,1.27,4.76,4.76,0,0,1,.38,2v.22h-5.7v-.8h5l-.39.56a3.08,3.08,0,0,0-.52-2,1.9,1.9,0,0,0-1.6-.71,2.08,2.08,0,0,0-1.71.77,3.31,3.31,0,0,0-.62,2.14,3.27,3.27,0,0,0,.65,2.22,2.39,2.39,0,0,0,1.91.75,3.65,3.65,0,0,0,1.27-.22,3.88,3.88,0,0,0,1.16-.66Z"/><path class="cls-6" d="M142,17.61a3.7,3.7,0,0,1-1.92-.48,3.2,3.2,0,0,1-1.25-1.35,4.44,4.44,0,0,1-.45-2.06,4.5,4.5,0,0,1,.45-2.06,3.31,3.31,0,0,1,1.28-1.39,3.72,3.72,0,0,1,2-.49,4.16,4.16,0,0,1,1.48.26,3.15,3.15,0,0,1,1.17.73l-.4.9a4.73,4.73,0,0,0-1.09-.66,3,3,0,0,0-1.1-.21,2.28,2.28,0,0,0-1.81.76,3.21,3.21,0,0,0-.67,2.16,3.12,3.12,0,0,0,.66,2.13,2.3,2.3,0,0,0,1.82.75,2.79,2.79,0,0,0,1.09-.22,4.4,4.4,0,0,0,1.1-.65l.4.9a3.38,3.38,0,0,1-1.2.71A4.33,4.33,0,0,1,142,17.61Z"/><path class="cls-6" d="M145.24,10.92V10h4.84v1Zm4.81,5.5v1a4.48,4.48,0,0,1-.5.11,4.43,4.43,0,0,1-.55,0,2.31,2.31,0,0,1-1.67-.6,2.41,2.41,0,0,1-.62-1.8V8l1.21-.43V15a2,2,0,0,0,.18.93,1,1,0,0,0,.47.46,1.78,1.78,0,0,0,.67.13,2.54,2.54,0,0,0,.41,0A2.73,2.73,0,0,0,150.05,16.42Z"/><path class="cls-6" d="M151.43,6.76h1.49V8.14h-1.49Zm.12,10.74V10h1.22V17.5Z"/><path class="cls-6" d="M158.24,17.61a3.6,3.6,0,0,1-1.88-.48,3.27,3.27,0,0,1-1.24-1.36,4.52,4.52,0,0,1-.45-2.08,4.51,4.51,0,0,1,.45-2.07,3.21,3.21,0,0,1,1.24-1.36,3.6,3.6,0,0,1,1.88-.48,3.64,3.64,0,0,1,1.89.48,3.21,3.21,0,0,1,1.24,1.36,4.51,4.51,0,0,1,.44,2.07,4.52,4.52,0,0,1-.44,2.08,3.27,3.27,0,0,1-1.24,1.36A3.64,3.64,0,0,1,158.24,17.61Zm0-1a2.11,2.11,0,0,0,1.72-.74,3.34,3.34,0,0,0,.61-2.17,3.29,3.29,0,0,0-.62-2.14,2.32,2.32,0,0,0-3.42,0,3.23,3.23,0,0,0-.63,2.14,3.4,3.4,0,0,0,.61,2.17A2.13,2.13,0,0,0,158.24,16.6Z"/><path class="cls-6" d="M163.7,17.5V12.07c0-.35,0-.7,0-1.06a9.32,9.32,0,0,0-.1-1h1.16l.13,1.56-.15.12a2.58,2.58,0,0,1,1.05-1.39,3,3,0,0,1,1.7-.47c1.81,0,2.71,1,2.71,3V17.5H169V12.82a2.34,2.34,0,0,0-.42-1.54,1.67,1.67,0,0,0-1.32-.48,2.24,2.24,0,0,0-1.68.64,2.38,2.38,0,0,0-.63,1.74V17.5Z"/></g></g></g></svg>