<svg xmlns="http://www.w3.org/2000/svg" viewBox="0 0 595.39 167.25"><defs><style>.cls-1{fill:none;}.cls-2{fill:#873d61;}.cls-3{fill:#a74c78;}.cls-4{fill:#c281a1;}.cls-5{isolation:isolate;}.cls-6{fill:#fff;}.cls-7{opacity:0.6;}.cls-8{fill:#010101;}.cls-9{fill:#d8acbb;}</style></defs><g id="Layer_2" data-name="Layer 2"><g id="Layer_1-2" data-name="Layer 1"><rect class="cls-1" x="0.12" width="595.28" height="18"/><path class="cls-2" d="M9.12,1H169.23V36H9.12V21c0-10-8,8-8-7.5s8,2.5,8-7.5Zm30.5,5H25.12v5c0,10-8-8-8,7.5s8-2.5,8,7.5v6h14.5Z"/><path class="cls-3" d="M8.12,0H168.23V35H8.12V20c0-10-8,8-8-7.5s8,2.5,8-7.5Zm30.5,5H24.12v5c0,10-8-8-8,7.5s8-2.5,8,7.5v6h14.5Z"/><path class="cls-4" d="M9.12,34.5h-1v-16h1ZM39.62,32h-15V31h14V5.5h1ZM19.26,24.73l-.49-.86,3.68-2.1.49.86ZM.77,18.13a20.9,20.9,0,0,1,0-11.26l1,.26a19.79,19.79,0,0,0,0,10.74ZM9.12,8h-1V0H167.73V1H9.12Z"/><g class="cls-5"><path class="cls-6" d="M52.68,22.61a3.2,3.2,0,0,1-1.76-.48,3,3,0,0,1-1.17-1.35,4.71,4.71,0,0,1-.41-2.06,4.78,4.78,0,0,1,.42-2.07,3.31,3.31,0,0,1,1.17-1.38,3.14,3.14,0,0,1,1.75-.49,3,3,0,0,1,1.76.51,2.5,2.5,0,0,1,1,1.45l-.18.12V15h1.2V22.5h-1.2V20.55l.18.09a2.52,2.52,0,0,1-1,1.46A3,3,0,0,1,52.68,22.61Zm.24-1a2,2,0,0,0,1.71-.76,3.38,3.38,0,0,0,.6-2.15,3.29,3.29,0,0,0-.61-2.14,2.32,2.32,0,0,0-3.43,0,3.3,3.3,0,0,0-.62,2.15,3.22,3.22,0,0,0,.62,2.13A2.12,2.12,0,0,0,52.92,21.6Z"/><path class="cls-6" d="M61.34,22.61a4.42,4.42,0,0,1-3-1l.41-.9a4.18,4.18,0,0,0,1.23.68,4.27,4.27,0,0,0,1.42.22,2.43,2.43,0,0,0,1.3-.29,1,1,0,0,0,.44-.85.89.89,0,0,0-.3-.71,2.3,2.3,0,0,0-1-.43l-1.27-.3a2.86,2.86,0,0,1-1.47-.75A1.81,1.81,0,0,1,58.58,17a1.93,1.93,0,0,1,.36-1.16,2.34,2.34,0,0,1,1-.79,3.77,3.77,0,0,1,1.53-.28A4.37,4.37,0,0,1,63,15a3.21,3.21,0,0,1,1.19.74l-.41.88a4.17,4.17,0,0,0-1.1-.67,3.37,3.37,0,0,0-1.18-.21,2.12,2.12,0,0,0-1.25.31,1.09,1.09,0,0,0-.17,1.59,2,2,0,0,0,.9.42l1.27.32a3,3,0,0,1,1.57.74,1.81,1.81,0,0,1,.5,1.31A1.84,1.84,0,0,1,63.5,22,3.57,3.57,0,0,1,61.34,22.61Z"/></g><g class="cls-7"><rect class="cls-6" x="69.68" y="10" width="93.55" height="16" rx="4"/></g><g class="cls-5"><path class="cls-8" d="M79,22.61a3.7,3.7,0,0,1-1.92-.48,3.2,3.2,0,0,1-1.25-1.35,4.44,4.44,0,0,1-.45-2.06,4.5,4.5,0,0,1,.45-2.06,3.31,3.31,0,0,1,1.28-1.39,3.72,3.72,0,0,1,2-.49,4.16,4.16,0,0,1,1.48.26,3.15,3.15,0,0,1,1.17.73l-.4.9A4.73,4.73,0,0,0,80.24,16a3,3,0,0,0-1.1-.21,2.28,2.28,0,0,0-1.81.76,3.21,3.21,0,0,0-.67,2.16,3.12,3.12,0,0,0,.66,2.13,2.3,2.3,0,0,0,1.82.75,2.79,2.79,0,0,0,1.09-.22,4.4,4.4,0,0,0,1.1-.65l.4.9a3.38,3.38,0,0,1-1.2.71A4.33,4.33,0,0,1,79,22.61Z"/><path class="cls-8" d="M83.28,22.5v-11h1.21v5l-.19.15a2.58,2.58,0,0,1,1-1.39A3,3,0,0,1,87,14.78c1.81,0,2.72,1,2.72,3V22.5H88.54V17.82a2.34,2.34,0,0,0-.42-1.54,1.67,1.67,0,0,0-1.32-.48,2.24,2.24,0,0,0-1.68.64,2.38,2.38,0,0,0-.63,1.74V22.5Z"/><path class="cls-8" d="M95,22.61a3.2,3.2,0,0,1-1.76-.48A3,3,0,0,1,92,20.78a4.7,4.7,0,0,1-.42-2.06A4.78,4.78,0,0,1,92,16.65a3.33,3.33,0,0,1,1.18-1.38A3.14,3.14,0,0,1,95,14.78a2.94,2.94,0,0,1,1.75.51,2.51,2.51,0,0,1,1,1.45l-.18.12V15h1.2V22.5H97.5V20.55l.18.09a2.54,2.54,0,0,1-1,1.46A2.94,2.94,0,0,1,95,22.61Zm.24-1a2,2,0,0,0,1.71-.76,3.38,3.38,0,0,0,.6-2.15,3.29,3.29,0,0,0-.61-2.14,2.32,2.32,0,0,0-3.43,0,3.3,3.3,0,0,0-.63,2.15,3.22,3.22,0,0,0,.63,2.13A2.12,2.12,0,0,0,95.19,21.6Z"/><path class="cls-8" d="M101.05,22.5V17.07c0-.35,0-.7,0-1.06a9.32,9.32,0,0,0-.1-1.05h1.16l.16,1.86-.16-.05a2.32,2.32,0,0,1,.91-1.49,2.55,2.55,0,0,1,1.56-.5,2.17,2.17,0,0,1,.37,0,1.5,1.5,0,0,1,.32.07l0,1.11a2.39,2.39,0,0,0-.79-.12,2.06,2.06,0,0,0-1.25.34,1.92,1.92,0,0,0-.69.88,2.83,2.83,0,0,0-.22,1.12v4.3Z"/><path class="cls-8" d="M109.23,22.61a3.2,3.2,0,0,1-1.76-.48,3,3,0,0,1-1.17-1.35,4.7,4.7,0,0,1-.42-2.06,4.78,4.78,0,0,1,.42-2.07,3.33,3.33,0,0,1,1.18-1.38,3.14,3.14,0,0,1,1.75-.49,2.94,2.94,0,0,1,1.75.51,2.51,2.51,0,0,1,1,1.45l-.18.12V15H113V22.5h-1.2V20.55l.18.09a2.54,2.54,0,0,1-1,1.46A2.94,2.94,0,0,1,109.23,22.61Zm.24-1a2,2,0,0,0,1.71-.76,3.38,3.38,0,0,0,.6-2.15,3.29,3.29,0,0,0-.61-2.14,2.32,2.32,0,0,0-3.43,0,3.3,3.3,0,0,0-.63,2.15,3.22,3.22,0,0,0,.63,2.13A2.12,2.12,0,0,0,109.47,21.6Z"/><path class="cls-8" d="M118.5,22.61a3.7,3.7,0,0,1-1.92-.48,3.2,3.2,0,0,1-1.25-1.35,4.44,4.44,0,0,1-.45-2.06,4.5,4.5,0,0,1,.45-2.06,3.31,3.31,0,0,1,1.28-1.39,3.72,3.72,0,0,1,2-.49A4.16,4.16,0,0,1,120,15a3.15,3.15,0,0,1,1.17.73l-.4.9a5,5,0,0,0-1.09-.66,3,3,0,0,0-1.1-.21,2.28,2.28,0,0,0-1.81.76,3.21,3.21,0,0,0-.67,2.16,3.12,3.12,0,0,0,.66,2.13,2.3,2.3,0,0,0,1.82.75,2.79,2.79,0,0,0,1.09-.22,4.4,4.4,0,0,0,1.1-.65l.4.9a3.38,3.38,0,0,1-1.2.71A4.33,4.33,0,0,1,118.5,22.61Z"/><path class="cls-8" d="M121.71,15.92V15h4.84v1Zm4.81,5.5v1a4.48,4.48,0,0,1-.5.11,4.43,4.43,0,0,1-.55,0,2.31,2.31,0,0,1-1.67-.6,2.41,2.41,0,0,1-.62-1.8V13l1.21-.43V20a2,2,0,0,0,.18.93,1,1,0,0,0,.47.46,1.78,1.78,0,0,0,.67.13,2.54,2.54,0,0,0,.41,0A2.73,2.73,0,0,0,126.52,21.42Z"/><path class="cls-8" d="M134.2,21.6a3.53,3.53,0,0,1-1.26.74,4.83,4.83,0,0,1-1.59.27,4.09,4.09,0,0,1-2-.47A3.19,3.19,0,0,1,128,20.8a4.54,4.54,0,0,1-.46-2.09,4.5,4.5,0,0,1,.45-2.06,3.37,3.37,0,0,1,1.26-1.38,3.43,3.43,0,0,1,1.85-.49,3.17,3.17,0,0,1,1.72.44A2.88,2.88,0,0,1,134,16.49a4.76,4.76,0,0,1,.38,2v.22h-5.7V17.9h5l-.39.55a3.08,3.08,0,0,0-.52-2,1.9,1.9,0,0,0-1.6-.71,2.08,2.08,0,0,0-1.71.77,3.31,3.31,0,0,0-.63,2.14,3.27,3.27,0,0,0,.66,2.22,2.39,2.39,0,0,0,1.91.75,3.65,3.65,0,0,0,1.27-.22,3.88,3.88,0,0,0,1.16-.66Z"/><path class="cls-8" d="M136.18,22.5V17.07c0-.35,0-.7,0-1.06s0-.7-.1-1.05h1.16l.16,1.86-.16-.05a2.35,2.35,0,0,1,.9-1.49,2.6,2.6,0,0,1,1.57-.5,2.17,2.17,0,0,1,.37,0,1.65,1.65,0,0,1,.32.07l0,1.11a2.39,2.39,0,0,0-.79-.12,2.11,2.11,0,0,0-1.26.34,2.06,2.06,0,0,0-.69.88,3,3,0,0,0-.21,1.12v4.3Z"/></g><polygon class="cls-8" points="154.25 22.31 159.23 13.69 149.28 13.69 154.25 22.31"/><rect class="cls-9" x="69.68" y="41.69" width="109.32" height="125.56" rx="5.67"/><g class="cls-5"><path class="cls-8" d="M79,54.67a3.7,3.7,0,0,1-1.92-.48,3.2,3.2,0,0,1-1.25-1.35,4.4,4.4,0,0,1-.45-2.05,4.57,4.57,0,0,1,.45-2.07,3.44,3.44,0,0,1,1.28-1.39,3.81,3.81,0,0,1,2-.49,4.39,4.39,0,0,1,1.48.26,3.28,3.28,0,0,1,1.17.73l-.4.9a4.54,4.54,0,0,0-1.09-.65,2.77,2.77,0,0,0-1.1-.22,2.29,2.29,0,0,0-1.81.77,3.21,3.21,0,0,0-.67,2.16,3.12,3.12,0,0,0,.66,2.13,2.3,2.3,0,0,0,1.82.75,3,3,0,0,0,1.09-.22,4.73,4.73,0,0,0,1.1-.65l.4.9a3.54,3.54,0,0,1-1.2.71A4.57,4.57,0,0,1,79,54.67Z"/><path class="cls-8" d="M83.28,54.57v-11h1.21v5l-.19.15a2.61,2.61,0,0,1,1-1.39A3.09,3.09,0,0,1,87,46.84c1.81,0,2.72,1,2.72,3v4.74H88.54V49.89a2.32,2.32,0,0,0-.42-1.54,1.64,1.64,0,0,0-1.32-.49,2.24,2.24,0,0,0-1.68.65,2.38,2.38,0,0,0-.63,1.74v4.32Z"/><path class="cls-8" d="M95,54.67a3.28,3.28,0,0,1-1.76-.47A3.18,3.18,0,0,1,92,52.85a4.88,4.88,0,0,1-.41-2.06A4.78,4.78,0,0,1,92,48.72a3.42,3.42,0,0,1,1.18-1.39A3.2,3.2,0,0,1,95,46.84a2.94,2.94,0,0,1,1.75.51,2.54,2.54,0,0,1,1,1.46l-.18.12V47h1.2v7.55H97.5v-2l.18.09a2.54,2.54,0,0,1-1,1.45A2.94,2.94,0,0,1,95,54.67Zm.24-1a2.07,2.07,0,0,0,1.71-.76,3.4,3.4,0,0,0,.6-2.15,3.32,3.32,0,0,0-.61-2.15,2.06,2.06,0,0,0-1.7-.75,2.13,2.13,0,0,0-1.74.77,3.41,3.41,0,0,0-.62,2.16,3.28,3.28,0,0,0,.62,2.13A2.15,2.15,0,0,0,95.19,53.67Z"/><path class="cls-8" d="M101.05,54.57V49.14c0-.35,0-.71,0-1.06s0-.71-.1-1.06h1.16l.16,1.86-.16-.05a2.4,2.4,0,0,1,.9-1.49,2.67,2.67,0,0,1,1.57-.5l.37,0,.32.07,0,1.11a2.39,2.39,0,0,0-.79-.12,2.06,2.06,0,0,0-1.25.35,2,2,0,0,0-.69.87,2.87,2.87,0,0,0-.22,1.12v4.31Z"/><path class="cls-8" d="M109.23,54.67a3.28,3.28,0,0,1-1.76-.47,3.18,3.18,0,0,1-1.18-1.35,4.88,4.88,0,0,1-.41-2.06,4.78,4.78,0,0,1,.42-2.07,3.35,3.35,0,0,1,1.18-1.39,3.2,3.2,0,0,1,1.75-.49,2.94,2.94,0,0,1,1.75.51,2.54,2.54,0,0,1,1,1.46l-.18.12V47H113v7.55h-1.2v-2l.18.09a2.54,2.54,0,0,1-1,1.45A2.94,2.94,0,0,1,109.23,54.67Zm.24-1a2.07,2.07,0,0,0,1.71-.76,4.12,4.12,0,0,0,0-4.3,2.07,2.07,0,0,0-1.7-.75,2.13,2.13,0,0,0-1.74.77,3.41,3.41,0,0,0-.62,2.16,3.28,3.28,0,0,0,.62,2.13A2.15,2.15,0,0,0,109.47,53.67Z"/><path class="cls-8" d="M118.5,54.67a3.7,3.7,0,0,1-1.92-.48,3.29,3.29,0,0,1-1.26-1.35,4.52,4.52,0,0,1-.44-2.05,4.57,4.57,0,0,1,.45-2.07,3.44,3.44,0,0,1,1.28-1.39,3.81,3.81,0,0,1,2-.49,4.29,4.29,0,0,1,1.47.26,3.24,3.24,0,0,1,1.18.73l-.4.9a4.54,4.54,0,0,0-1.09-.65,2.81,2.81,0,0,0-1.1-.22,2.28,2.28,0,0,0-1.81.77,3.16,3.16,0,0,0-.67,2.16,3.12,3.12,0,0,0,.66,2.13,2.3,2.3,0,0,0,1.82.75,3,3,0,0,0,1.09-.22,4.73,4.73,0,0,0,1.1-.65l.4.9a3.49,3.49,0,0,1-1.21.71A4.46,4.46,0,0,1,118.5,54.67Z"/><path class="cls-8" d="M121.71,48V47h4.84v1Zm4.81,5.51v1a3.22,3.22,0,0,1-.5.11,3.16,3.16,0,0,1-.55,0,2.29,2.29,0,0,1-1.67-.6,2.37,2.37,0,0,1-.62-1.8V45.08l1.21-.43v7.46a2.11,2.11,0,0,0,.17.93,1,1,0,0,0,.48.45,1.6,1.6,0,0,0,.67.13,2.54,2.54,0,0,0,.41,0A2.59,2.59,0,0,0,126.52,53.49Z"/><path class="cls-8" d="M134.2,53.67a3.48,3.48,0,0,1-1.27.73,4.73,4.73,0,0,1-1.58.27,4.16,4.16,0,0,1-2-.46,3.14,3.14,0,0,1-1.3-1.35,4.39,4.39,0,0,1-.46-2.09,4.45,4.45,0,0,1,.45-2.05,3.51,3.51,0,0,1,1.25-1.39,3.58,3.58,0,0,1,1.86-.49,3.26,3.26,0,0,1,1.72.44,2.85,2.85,0,0,1,1.1,1.27,4.6,4.6,0,0,1,.39,2v.23h-5.7V50h5l-.39.56a3.17,3.17,0,0,0-.52-2,1.91,1.91,0,0,0-1.6-.7,2.08,2.08,0,0,0-1.72.77,4.06,4.06,0,0,0,0,4.36,2.42,2.42,0,0,0,1.92.75,3.9,3.9,0,0,0,1.27-.22,4.15,4.15,0,0,0,1.16-.67Z"/><path class="cls-8" d="M136.18,54.57V49.14c0-.35,0-.71,0-1.06s0-.71-.1-1.06h1.16l.16,1.86-.16-.05a2.4,2.4,0,0,1,.9-1.49,2.67,2.67,0,0,1,1.57-.5l.37,0,.32.07,0,1.11a2.39,2.39,0,0,0-.79-.12,2,2,0,0,0-1.95,1.22,3.05,3.05,0,0,0-.21,1.12v4.31Z"/><path class="cls-8" d="M74.79,66V65h4.84v1Zm4.81,5.51v1a3,3,0,0,1-.5.11,3.09,3.09,0,0,1-.55,0,2.31,2.31,0,0,1-1.67-.6,2.41,2.41,0,0,1-.62-1.8V63.08l1.21-.43v7.46a2,2,0,0,0,.18.93.89.89,0,0,0,.47.45,1.6,1.6,0,0,0,.67.13,2.54,2.54,0,0,0,.41,0A2.59,2.59,0,0,0,79.6,71.49Z"/><path class="cls-8" d="M87.28,71.67A3.52,3.52,0,0,1,86,72.4a4.83,4.83,0,0,1-1.59.27,4.09,4.09,0,0,1-2-.46,3.16,3.16,0,0,1-1.31-1.35,4.51,4.51,0,0,1-.46-2.09,4.45,4.45,0,0,1,.45-2,3.46,3.46,0,0,1,1.26-1.39,3.52,3.52,0,0,1,1.85-.49,3.26,3.26,0,0,1,1.72.44A2.93,2.93,0,0,1,87,66.55a4.76,4.76,0,0,1,.38,2v.23h-5.7V68h5l-.39.56a3.11,3.11,0,0,0-.52-2,1.9,1.9,0,0,0-1.6-.7,2,2,0,0,0-1.71.77,4,4,0,0,0,0,4.36,2.39,2.39,0,0,0,1.91.75,3.9,3.9,0,0,0,1.27-.22,4.15,4.15,0,0,0,1.16-.67Z"/><path class="cls-8" d="M89.64,72.57H88.15l3.14-3.89.7-.88L94.18,65h1.49l-2.94,3.66L92,69.6Zm4.74,0L92,69.6l-.7-.92-3-3.66H89.8L92,67.8l.74.88,3.1,3.89Z"/><path class="cls-8" d="M96.12,66V65H101v1Zm4.81,5.51v1a3.22,3.22,0,0,1-.5.11,3.16,3.16,0,0,1-.55,0,2.29,2.29,0,0,1-1.67-.6,2.37,2.37,0,0,1-.62-1.8V63.08l1.21-.43v7.46A2.11,2.11,0,0,0,99,71a1,1,0,0,0,.48.45,1.6,1.6,0,0,0,.67.13,2.54,2.54,0,0,0,.41,0A2.59,2.59,0,0,0,100.93,71.49Z"/><path class="cls-8" d="M75.85,90.57v-11h1.22V85l-.17-.15a2.54,2.54,0,0,1,1-1.45,2.87,2.87,0,0,1,1.74-.52,3.17,3.17,0,0,1,1.75.48,3.24,3.24,0,0,1,1.18,1.35A4.57,4.57,0,0,1,83,86.73a4.64,4.64,0,0,1-.43,2.07,3.21,3.21,0,0,1-1.18,1.38,3.14,3.14,0,0,1-1.75.49,2.93,2.93,0,0,1-1.74-.51,2.54,2.54,0,0,1-1-1.45l.17-.17v2Zm3.54-.9a2.06,2.06,0,0,0,1.71-.78,3.37,3.37,0,0,0,.62-2.16,3.27,3.27,0,0,0-.62-2.12,2.09,2.09,0,0,0-1.71-.75,2,2,0,0,0-1.72.76,4.13,4.13,0,0,0,0,4.29A2.08,2.08,0,0,0,79.39,89.67Z"/><path class="cls-8" d="M88,90.67a3.6,3.6,0,0,1-1.88-.48,3.21,3.21,0,0,1-1.24-1.36,4.45,4.45,0,0,1-.45-2.07,4.51,4.51,0,0,1,.45-2.07,3.24,3.24,0,0,1,1.24-1.37A3.6,3.6,0,0,1,88,82.84a3.64,3.64,0,0,1,1.89.48,3.24,3.24,0,0,1,1.24,1.37,4.51,4.51,0,0,1,.44,2.07,4.45,4.45,0,0,1-.44,2.07,3.21,3.21,0,0,1-1.24,1.36A3.64,3.64,0,0,1,88,90.67Zm0-1a2.08,2.08,0,0,0,1.72-.75,4.08,4.08,0,0,0,0-4.31,2.32,2.32,0,0,0-3.42,0,3.26,3.26,0,0,0-.63,2.15,3.35,3.35,0,0,0,.61,2.16A2.1,2.1,0,0,0,88,89.67Z"/><path class="cls-8" d="M96.55,90.67a3.58,3.58,0,0,1-1.88-.48,3.21,3.21,0,0,1-1.24-1.36A4.45,4.45,0,0,1,93,86.76a4.51,4.51,0,0,1,.45-2.07,3.24,3.24,0,0,1,1.24-1.37,3.92,3.92,0,0,1,3.76,0,3.2,3.2,0,0,1,1.25,1.37,4.64,4.64,0,0,1,.44,2.07,4.58,4.58,0,0,1-.44,2.07,3.17,3.17,0,0,1-1.25,1.36A3.58,3.58,0,0,1,96.55,90.67Zm0-1a2.1,2.1,0,0,0,1.72-.75,4.08,4.08,0,0,0,0-4.31,2.09,2.09,0,0,0-1.71-.75,2.12,2.12,0,0,0-1.72.75,4.08,4.08,0,0,0,0,4.31A2.09,2.09,0,0,0,96.55,89.67Z"/><path class="cls-8" d="M102,90.57v-11h1.22v11Z"/><path class="cls-8" d="M111.76,89.67a3.48,3.48,0,0,1-1.27.73,4.73,4.73,0,0,1-1.58.27,4.16,4.16,0,0,1-2-.46,3.14,3.14,0,0,1-1.3-1.35,4.39,4.39,0,0,1-.46-2.09,4.45,4.45,0,0,1,.45-2,3.51,3.51,0,0,1,1.25-1.39,3.58,3.58,0,0,1,1.86-.49,3.26,3.26,0,0,1,1.72.44,2.85,2.85,0,0,1,1.1,1.27,4.6,4.6,0,0,1,.39,2v.23h-5.7V86h5l-.39.56a3.17,3.17,0,0,0-.52-2,1.91,1.91,0,0,0-1.6-.7,2.08,2.08,0,0,0-1.72.77,4.06,4.06,0,0,0,0,4.36,2.42,2.42,0,0,0,1.92.75,3.9,3.9,0,0,0,1.27-.22,4.15,4.15,0,0,0,1.16-.67Z"/><path class="cls-8" d="M116.64,90.67a3.34,3.34,0,0,1-1.77-.47,3.22,3.22,0,0,1-1.17-1.35,4.88,4.88,0,0,1-.41-2.06,4.78,4.78,0,0,1,.42-2.07,3.35,3.35,0,0,1,1.18-1.39,3.2,3.2,0,0,1,1.75-.49,2.94,2.94,0,0,1,1.75.51,2.54,2.54,0,0,1,1,1.46l-.18.12V83h1.2v7.55h-1.2V88.62l.18.09a2.54,2.54,0,0,1-1,1.45A2.94,2.94,0,0,1,116.64,90.67Zm.24-1a2.07,2.07,0,0,0,1.71-.76,4.12,4.12,0,0,0,0-4.3,2.07,2.07,0,0,0-1.7-.75,2.13,2.13,0,0,0-1.74.77,3.41,3.41,0,0,0-.62,2.16,3.28,3.28,0,0,0,.62,2.13A2.15,2.15,0,0,0,116.88,89.67Z"/><path class="cls-8" d="M122.74,90.57V85.14c0-.35,0-.71,0-1.06s0-.71-.1-1.06h1.16l.13,1.56-.15.12a2.61,2.61,0,0,1,1-1.39,3.12,3.12,0,0,1,1.7-.47c1.81,0,2.71,1,2.71,3v4.74H128V85.89a2.32,2.32,0,0,0-.42-1.54,1.64,1.64,0,0,0-1.32-.49,2.24,2.24,0,0,0-1.68.65,2.38,2.38,0,0,0-.63,1.74v4.32Z"/><path class="cls-8" d="M78.4,108.67a4.39,4.39,0,0,1-3-1l.4-.9a4.47,4.47,0,0,0,1.24.68,4.55,4.55,0,0,0,1.42.22,2.34,2.34,0,0,0,1.3-.3.94.94,0,0,0,.44-.84.92.92,0,0,0-.3-.72,2.43,2.43,0,0,0-1-.42l-1.28-.3a2.82,2.82,0,0,1-1.46-.75,1.82,1.82,0,0,1-.52-1.29,2,2,0,0,1,.36-1.17,2.43,2.43,0,0,1,1-.78,3.76,3.76,0,0,1,1.53-.29,4.38,4.38,0,0,1,1.5.26,3.14,3.14,0,0,1,1.18.73l-.4.89a3.92,3.92,0,0,0-1.1-.67,3.17,3.17,0,0,0-1.18-.22,2.12,2.12,0,0,0-1.25.32,1,1,0,0,0-.45.85,1,1,0,0,0,.28.74,1.94,1.94,0,0,0,.89.42l1.28.31a3.07,3.07,0,0,1,1.57.74,1.85,1.85,0,0,1,.5,1.32,1.82,1.82,0,0,1-.8,1.55A3.5,3.5,0,0,1,78.4,108.67Z"/><path class="cls-8" d="M83.29,108.57v-11h1.22v5l-.2.15a2.61,2.61,0,0,1,1-1.39,3.12,3.12,0,0,1,1.7-.47c1.81,0,2.71,1,2.71,3v4.74H88.56v-4.68a2.32,2.32,0,0,0-.42-1.54,1.64,1.64,0,0,0-1.32-.49,2.24,2.24,0,0,0-1.68.65,2.38,2.38,0,0,0-.63,1.74v4.32Z"/><path class="cls-8" d="M95.19,108.67a3.58,3.58,0,0,1-1.88-.48,3.23,3.23,0,0,1-1.25-1.36,4.45,4.45,0,0,1-.44-2.07,4.51,4.51,0,0,1,.44-2.07,3.26,3.26,0,0,1,1.25-1.37,3.92,3.92,0,0,1,3.76,0,3.26,3.26,0,0,1,1.25,1.37,4.64,4.64,0,0,1,.44,2.07,4.58,4.58,0,0,1-.44,2.07,3.23,3.23,0,0,1-1.25,1.36A3.6,3.6,0,0,1,95.19,108.67Zm0-1a2.1,2.1,0,0,0,1.72-.75,4.14,4.14,0,0,0,0-4.31,2.09,2.09,0,0,0-1.71-.75,2.12,2.12,0,0,0-1.72.75,4.08,4.08,0,0,0,0,4.31A2.09,2.09,0,0,0,95.19,107.67Z"/><path class="cls-8" d="M100.65,108.57v-5.43c0-.35,0-.71,0-1.06a9.28,9.28,0,0,0-.09-1.06h1.15l.17,1.86-.17,0a2.37,2.37,0,0,1,.91-1.49,2.65,2.65,0,0,1,1.57-.5l.36,0,.33.07,0,1.11a2.45,2.45,0,0,0-.8-.12,2.06,2.06,0,0,0-1.25.35,2,2,0,0,0-.69.87,2.87,2.87,0,0,0-.22,1.12v4.31Z"/><path class="cls-8" d="M105.61,102v-1h4.85v1Zm4.82,5.51v1a3.1,3.1,0,0,1-.51.11,3,3,0,0,1-.54,0,2.33,2.33,0,0,1-1.68-.6,2.41,2.41,0,0,1-.62-1.8V99.08l1.22-.43v7.46a2,2,0,0,0,.17.93.89.89,0,0,0,.47.45,1.65,1.65,0,0,0,.68.13,2.41,2.41,0,0,0,.4,0A2.69,2.69,0,0,0,110.43,107.49Z"/><path class="cls-8" d="M115.84,108.57v-5.43c0-.35,0-.71,0-1.06s0-.71-.1-1.06h1.16l.13,1.56-.15.12a2.61,2.61,0,0,1,1-1.39,3.12,3.12,0,0,1,1.7-.47c1.81,0,2.71,1,2.71,3v4.74h-1.21v-4.68a2.32,2.32,0,0,0-.42-1.54,1.64,1.64,0,0,0-1.32-.49,2.24,2.24,0,0,0-1.68.65,2.38,2.38,0,0,0-.63,1.74v4.32Z"/><path class="cls-8" d="M127.29,108.67a2.64,2.64,0,0,1-2-.75,3.22,3.22,0,0,1-.68-2.22V101h1.22v4.65a2.24,2.24,0,0,0,.42,1.5,1.59,1.59,0,0,0,1.27.48,2.13,2.13,0,0,0,1.62-.64,2.41,2.41,0,0,0,.62-1.73V101h1.21v7.55h-1.18v-1.64l.18-.09a2.52,2.52,0,0,1-1,1.37A2.87,2.87,0,0,1,127.29,108.67Z"/><path class="cls-8" d="M133.27,108.57v-5.43c0-.35,0-.71,0-1.06s-.05-.71-.1-1.06h1.16l.13,1.56-.15.11a2.52,2.52,0,0,1,.94-1.37,2.62,2.62,0,0,1,1.58-.48,2.46,2.46,0,0,1,1.7.54,2.62,2.62,0,0,1,.78,1.65l-.36-.2a2.6,2.6,0,0,1,1-1.45,2.87,2.87,0,0,1,1.75-.54,2.35,2.35,0,0,1,1.88.74,3.43,3.43,0,0,1,.63,2.25v4.74h-1.22v-4.68a2.53,2.53,0,0,0-.37-1.54,1.4,1.4,0,0,0-1.19-.49,1.85,1.85,0,0,0-1.49.65,2.59,2.59,0,0,0-.55,1.75v4.31h-1.21v-4.68a2.45,2.45,0,0,0-.39-1.54,1.4,1.4,0,0,0-1.19-.49,1.89,1.89,0,0,0-1.51.65,2.63,2.63,0,0,0-.54,1.75v4.31Z"/><path class="cls-8" d="M146.46,108.57v-11h1.21V103l-.16-.15a2.53,2.53,0,0,1,1-1.45,2.87,2.87,0,0,1,1.74-.52,3.1,3.1,0,0,1,2.93,1.83,4.57,4.57,0,0,1,.43,2.06,4.64,4.64,0,0,1-.43,2.07,3.21,3.21,0,0,1-1.18,1.38,3.14,3.14,0,0,1-1.75.49,2.93,2.93,0,0,1-1.74-.51,2.53,2.53,0,0,1-1-1.45l.16-.17v2Zm3.54-.9a2.06,2.06,0,0,0,1.71-.78,3.37,3.37,0,0,0,.61-2.16,3.26,3.26,0,0,0-.61-2.12,2.34,2.34,0,0,0-3.44,0,4.13,4.13,0,0,0,0,4.29A2.1,2.1,0,0,0,150,107.67Z"/><path class="cls-8" d="M161.64,107.67a3.56,3.56,0,0,1-1.27.73,4.77,4.77,0,0,1-1.58.27,4.13,4.13,0,0,1-2-.46,3.16,3.16,0,0,1-1.31-1.35,4.51,4.51,0,0,1-.45-2.09,4.45,4.45,0,0,1,.45-2,3.43,3.43,0,0,1,1.25-1.39,3.52,3.52,0,0,1,1.85-.49,3.29,3.29,0,0,1,1.73.44,2.91,2.91,0,0,1,1.1,1.27,4.76,4.76,0,0,1,.38,2v.23h-5.7V104h5l-.39.56a3.11,3.11,0,0,0-.52-2,1.88,1.88,0,0,0-1.59-.7,2.07,2.07,0,0,0-1.72.77,4.06,4.06,0,0,0,0,4.36,2.39,2.39,0,0,0,1.91.75,3.9,3.9,0,0,0,1.27-.22,4.15,4.15,0,0,0,1.16-.67Z"/><path class="cls-8" d="M163.62,108.57v-5.43c0-.35,0-.71,0-1.06a9.28,9.28,0,0,0-.09-1.06h1.15l.17,1.86-.17,0a2.37,2.37,0,0,1,.91-1.49,2.65,2.65,0,0,1,1.57-.5l.36,0,.33.07,0,1.11a2.45,2.45,0,0,0-.8-.12,2.06,2.06,0,0,0-1.25.35,2,2,0,0,0-.69.87,2.87,2.87,0,0,0-.22,1.12v4.31Z"/><path class="cls-8" d="M75.85,126.57v-5.43c0-.35,0-.71,0-1.06a9.28,9.28,0,0,0-.1-1.06h1.16l.13,1.56-.15.12a2.61,2.61,0,0,1,1-1.39,3.12,3.12,0,0,1,1.7-.47c1.81,0,2.71,1,2.71,3v4.74H81.12v-4.68a2.32,2.32,0,0,0-.42-1.54,1.64,1.64,0,0,0-1.32-.49,2.24,2.24,0,0,0-1.68.65,2.38,2.38,0,0,0-.63,1.74v4.32Z"/><path class="cls-8" d="M87.3,126.67a2.6,2.6,0,0,1-2-.75,3.17,3.17,0,0,1-.69-2.22V119H85.8v4.65a2.24,2.24,0,0,0,.42,1.5,1.59,1.59,0,0,0,1.27.48,2.13,2.13,0,0,0,1.62-.64,2.41,2.41,0,0,0,.62-1.73V119h1.21v7.55H89.76v-1.64l.18-.09a2.55,2.55,0,0,1-1,1.37A2.93,2.93,0,0,1,87.3,126.67Z"/><path class="cls-8" d="M93.28,126.57v-5.43c0-.35,0-.71,0-1.06s-.05-.71-.1-1.06h1.16l.13,1.56-.15.11a2.57,2.57,0,0,1,.94-1.37,2.62,2.62,0,0,1,1.58-.48,2.51,2.51,0,0,1,1.71.54A2.67,2.67,0,0,1,99.3,121l-.36-.2a2.56,2.56,0,0,1,1-1.45,2.82,2.82,0,0,1,1.74-.54,2.35,2.35,0,0,1,1.88.74,3.43,3.43,0,0,1,.63,2.25v4.74h-1.22v-4.68a2.53,2.53,0,0,0-.37-1.54,1.4,1.4,0,0,0-1.19-.49,1.86,1.86,0,0,0-1.49.65,2.59,2.59,0,0,0-.55,1.75v4.31H98.13v-4.68a2.45,2.45,0,0,0-.39-1.54,1.4,1.4,0,0,0-1.19-.49,1.85,1.85,0,0,0-1.5.65,2.59,2.59,0,0,0-.55,1.75v4.31Z"/><path class="cls-8" d="M106.47,126.57v-11h1.21V121l-.16-.15a2.53,2.53,0,0,1,1-1.45,2.87,2.87,0,0,1,1.74-.52,3.2,3.2,0,0,1,1.76.48,3.31,3.31,0,0,1,1.18,1.35,4.7,4.7,0,0,1,.42,2.06,4.78,4.78,0,0,1-.42,2.07,3.23,3.23,0,0,1-1.19,1.38,3.14,3.14,0,0,1-1.75.49,2.93,2.93,0,0,1-1.74-.51,2.53,2.53,0,0,1-1-1.45l.16-.17v2Zm3.54-.9a2.06,2.06,0,0,0,1.71-.78,3.37,3.37,0,0,0,.61-2.16,3.26,3.26,0,0,0-.61-2.12,2.34,2.34,0,0,0-3.44,0,4.13,4.13,0,0,0,0,4.29A2.1,2.1,0,0,0,110,125.67Z"/><path class="cls-8" d="M121.65,125.67a3.48,3.48,0,0,1-1.27.73,4.77,4.77,0,0,1-1.58.27,4.13,4.13,0,0,1-2-.46,3.14,3.14,0,0,1-1.3-1.35,4.39,4.39,0,0,1-.46-2.09,4.45,4.45,0,0,1,.45-2,3.43,3.43,0,0,1,1.25-1.39,3.55,3.55,0,0,1,1.85-.49,3.29,3.29,0,0,1,1.73.44,2.85,2.85,0,0,1,1.1,1.27,4.6,4.6,0,0,1,.38,2v.23h-5.7V122h5l-.39.56a3.17,3.17,0,0,0-.51-2,1.91,1.91,0,0,0-1.6-.7,2.07,2.07,0,0,0-1.72.77,3.29,3.29,0,0,0-.62,2.14,3.32,3.32,0,0,0,.65,2.22,2.4,2.4,0,0,0,1.91.75,3.85,3.85,0,0,0,1.27-.22,4,4,0,0,0,1.16-.67Z"/><path class="cls-8" d="M123.63,126.57v-5.43c0-.35,0-.71,0-1.06a9.28,9.28,0,0,0-.09-1.06h1.15l.17,1.86-.17,0a2.37,2.37,0,0,1,.91-1.49,2.65,2.65,0,0,1,1.57-.5l.36,0,.33.07,0,1.11a2.45,2.45,0,0,0-.8-.12,2.06,2.06,0,0,0-1.25.35,2,2,0,0,0-.69.87,2.87,2.87,0,0,0-.22,1.12v4.31Z"/><path class="cls-8" d="M75.85,144.57v-11h1.22v11Z"/><path class="cls-8" d="M82.32,144.67a3.28,3.28,0,0,1-1.76-.47,3.09,3.09,0,0,1-1.17-1.35,5.29,5.29,0,0,1,0-4.13,3.42,3.42,0,0,1,1.18-1.39,3.2,3.2,0,0,1,1.75-.49,2.94,2.94,0,0,1,1.75.51,2.54,2.54,0,0,1,1,1.46l-.18.12V137h1.2v7.55h-1.2v-1.95l.18.09a2.54,2.54,0,0,1-1,1.45A2.94,2.94,0,0,1,82.32,144.67Zm.24-1a2.07,2.07,0,0,0,1.71-.76,3.4,3.4,0,0,0,.6-2.15,3.32,3.32,0,0,0-.61-2.15,2.06,2.06,0,0,0-1.7-.75,2.13,2.13,0,0,0-1.74.77,3.41,3.41,0,0,0-.62,2.16,3.28,3.28,0,0,0,.62,2.13A2.15,2.15,0,0,0,82.56,143.67Z"/><path class="cls-8" d="M88.42,144.57v-5.43c0-.35,0-.71,0-1.06a9.28,9.28,0,0,0-.1-1.06h1.16l.16,1.86-.16,0a2.4,2.4,0,0,1,.9-1.49,2.67,2.67,0,0,1,1.57-.5l.37,0,.32.07,0,1.11a2.39,2.39,0,0,0-.79-.12,2.06,2.06,0,0,0-1.25.35,2,2,0,0,0-.69.87,2.87,2.87,0,0,0-.22,1.12v4.31Z"/><path class="cls-8" d="M97,147.91a5.53,5.53,0,0,1-3-.78l.21-1a6,6,0,0,0,1.33.59,5.23,5.23,0,0,0,1.43.18,2.21,2.21,0,0,0,1.64-.58,2.41,2.41,0,0,0,.56-1.72v-2l.17-.19a2.78,2.78,0,0,1-.57,1,2.55,2.55,0,0,1-.93.68,3.15,3.15,0,0,1-1.26.24,3.15,3.15,0,0,1-2.95-1.78,4.7,4.7,0,0,1,0-3.93,3.14,3.14,0,0,1,2.95-1.79,3,3,0,0,1,1.78.52,2.54,2.54,0,0,1,1,1.45l-.18-.17V137h1.21v7.49a3.42,3.42,0,0,1-.86,2.55A3.47,3.47,0,0,1,97,147.91Zm-.15-4.59a2.14,2.14,0,0,0,1.72-.73,3.54,3.54,0,0,0,0-4,2.14,2.14,0,0,0-1.72-.73,2.19,2.19,0,0,0-1.75.73,3.46,3.46,0,0,0,0,4A2.21,2.21,0,0,0,96.87,143.32Z"/><path class="cls-8" d="M108.94,143.67a3.52,3.52,0,0,1-1.26.73,4.83,4.83,0,0,1-1.59.27,4.16,4.16,0,0,1-2-.46,3.14,3.14,0,0,1-1.3-1.35,4.51,4.51,0,0,1-.46-2.09,4.45,4.45,0,0,1,.45-2.05,3.51,3.51,0,0,1,1.25-1.39,3.58,3.58,0,0,1,1.86-.49,3.26,3.26,0,0,1,1.72.44,2.93,2.93,0,0,1,1.11,1.27,4.76,4.76,0,0,1,.38,2v.23h-5.7V140h5l-.39.56a3.17,3.17,0,0,0-.52-2,1.91,1.91,0,0,0-1.6-.7,2.08,2.08,0,0,0-1.72.77,3.34,3.34,0,0,0-.62,2.14,3.27,3.27,0,0,0,.66,2.22,2.39,2.39,0,0,0,1.91.75,3.9,3.9,0,0,0,1.27-.22,4.15,4.15,0,0,0,1.16-.67Z"/><path class="cls-8" d="M114.84,144.57v-5.43c0-.35,0-.71,0-1.06a9.28,9.28,0,0,0-.09-1.06h1.15l.14,1.56-.15.12a2.61,2.61,0,0,1,1-1.39,3.09,3.09,0,0,1,1.69-.47c1.81,0,2.72,1,2.72,3v4.74H120.1v-4.68a2.32,2.32,0,0,0-.42-1.54,1.64,1.64,0,0,0-1.32-.49,2.24,2.24,0,0,0-1.68.65,2.38,2.38,0,0,0-.63,1.74v4.32Z"/><path class="cls-8" d="M126.28,144.67a2.6,2.6,0,0,1-2-.75,3.17,3.17,0,0,1-.68-2.22V137h1.21v4.65a2.24,2.24,0,0,0,.42,1.5,1.62,1.62,0,0,0,1.28.48,2.13,2.13,0,0,0,1.62-.64,2.41,2.41,0,0,0,.61-1.73V137h1.22v7.55h-1.19v-1.64l.18-.09a2.55,2.55,0,0,1-1,1.37A2.93,2.93,0,0,1,126.28,144.67Z"/><path class="cls-8" d="M132.27,144.57v-5.43c0-.35,0-.71,0-1.06a9.28,9.28,0,0,0-.09-1.06h1.15l.14,1.56-.15.11a2.56,2.56,0,0,1,.93-1.37,2.67,2.67,0,0,1,1.59-.48,2.48,2.48,0,0,1,1.7.54,2.67,2.67,0,0,1,.77,1.65l-.36-.2a2.56,2.56,0,0,1,1-1.45,2.85,2.85,0,0,1,1.75-.54,2.33,2.33,0,0,1,1.87.74,3.43,3.43,0,0,1,.63,2.25v4.74h-1.21v-4.68a2.52,2.52,0,0,0-.38-1.54,1.38,1.38,0,0,0-1.18-.49,1.88,1.88,0,0,0-1.5.65,2.63,2.63,0,0,0-.54,1.75v4.31h-1.22v-4.68a2.52,2.52,0,0,0-.38-1.54,1.41,1.41,0,0,0-1.19-.49,1.87,1.87,0,0,0-1.51.65,2.59,2.59,0,0,0-.55,1.75v4.31Z"/><path class="cls-8" d="M145.45,144.57v-11h1.22V139l-.17-.15a2.54,2.54,0,0,1,1-1.45,2.87,2.87,0,0,1,1.74-.52,3.17,3.17,0,0,1,1.75.48,3.31,3.31,0,0,1,1.18,1.35,4.7,4.7,0,0,1,.43,2.06,4.78,4.78,0,0,1-.43,2.07,3.23,3.23,0,0,1-1.19,1.38,3.08,3.08,0,0,1-1.74.49,2.93,2.93,0,0,1-1.74-.51,2.54,2.54,0,0,1-1-1.45l.17-.17v2Zm3.54-.9a2.06,2.06,0,0,0,1.71-.78,3.37,3.37,0,0,0,.62-2.16,3.27,3.27,0,0,0-.62-2.12,2.09,2.09,0,0,0-1.71-.75,2,2,0,0,0-1.72.76,4.13,4.13,0,0,0,0,4.29A2.08,2.08,0,0,0,149,143.67Z"/><path class="cls-8" d="M160.63,143.67a3.48,3.48,0,0,1-1.27.73,4.73,4.73,0,0,1-1.58.27,4.16,4.16,0,0,1-2-.46,3.14,3.14,0,0,1-1.3-1.35,4.39,4.39,0,0,1-.46-2.09,4.45,4.45,0,0,1,.45-2.05,3.51,3.51,0,0,1,1.25-1.39,3.58,3.58,0,0,1,1.86-.49,3.26,3.26,0,0,1,1.72.44,2.85,2.85,0,0,1,1.1,1.27,4.6,4.6,0,0,1,.39,2v.23h-5.7V140h5l-.39.56a3.17,3.17,0,0,0-.52-2,1.91,1.91,0,0,0-1.6-.7,2.08,2.08,0,0,0-1.72.77,4.06,4.06,0,0,0,0,4.36,2.42,2.42,0,0,0,1.92.75,3.79,3.79,0,0,0,1.26-.22,4.06,4.06,0,0,0,1.17-.67Z"/><path class="cls-8" d="M162.61,144.57v-5.43c0-.35,0-.71,0-1.06s-.05-.71-.1-1.06h1.16l.16,1.86-.16,0a2.4,2.4,0,0,1,.9-1.49,2.67,2.67,0,0,1,1.57-.5l.37,0,.32.07,0,1.11a2.39,2.39,0,0,0-.79-.12,2,2,0,0,0-2,1.22,3.05,3.05,0,0,0-.21,1.12v4.31Z"/><path class="cls-8" d="M82.5,162.57H81.3v-2l.18.17a2.54,2.54,0,0,1-1,1.45,2.94,2.94,0,0,1-1.75.51,3.14,3.14,0,0,1-1.75-.49,3.21,3.21,0,0,1-1.18-1.38,4.78,4.78,0,0,1-.42-2.07,4.7,4.7,0,0,1,.42-2.06A3.09,3.09,0,0,1,77,155.32a3.2,3.2,0,0,1,1.76-.48,2.88,2.88,0,0,1,1.75.52,2.54,2.54,0,0,1,1,1.45l-.2.15v-5.43H82.5Zm-3.51-.9a2.06,2.06,0,0,0,1.7-.76,4.11,4.11,0,0,0,0-4.29,2,2,0,0,0-1.71-.76,2.12,2.12,0,0,0-1.73.75,3.21,3.21,0,0,0-.63,2.12,3.31,3.31,0,0,0,.63,2.16A2.08,2.08,0,0,0,79,161.67Z"/><path class="cls-8" d="M91,161.67a3.52,3.52,0,0,1-1.26.73,4.83,4.83,0,0,1-1.59.27,4.09,4.09,0,0,1-2-.46,3.16,3.16,0,0,1-1.31-1.35,4.51,4.51,0,0,1-.46-2.09,4.45,4.45,0,0,1,.45-2.05,3.46,3.46,0,0,1,1.26-1.39,3.52,3.52,0,0,1,1.85-.49,3.26,3.26,0,0,1,1.72.44,2.93,2.93,0,0,1,1.11,1.27,4.76,4.76,0,0,1,.38,2v.23h-5.7V158h5l-.39.56a3.11,3.11,0,0,0-.52-2,1.9,1.9,0,0,0-1.6-.7,2,2,0,0,0-1.71.77,4,4,0,0,0,0,4.36,2.39,2.39,0,0,0,1.91.75,3.9,3.9,0,0,0,1.27-.22,4.15,4.15,0,0,0,1.16-.67Z"/><path class="cls-8" d="M96.18,162.67a3.7,3.7,0,0,1-1.92-.48A3.2,3.2,0,0,1,93,160.84a4.4,4.4,0,0,1-.45-2.05,4.57,4.57,0,0,1,.45-2.07,3.44,3.44,0,0,1,1.28-1.39,3.81,3.81,0,0,1,1.95-.49,4.39,4.39,0,0,1,1.48.26,3.28,3.28,0,0,1,1.17.73l-.4.9a4.54,4.54,0,0,0-1.09-.65,2.77,2.77,0,0,0-1.1-.22,2.28,2.28,0,0,0-1.81.77,3.21,3.21,0,0,0-.67,2.16,3.12,3.12,0,0,0,.66,2.13,2.3,2.3,0,0,0,1.82.75,3,3,0,0,0,1.09-.22,4.73,4.73,0,0,0,1.1-.65l.4.9a3.49,3.49,0,0,1-1.21.71A4.46,4.46,0,0,1,96.18,162.67Z"/><path class="cls-8" d="M100.32,151.83h1.48v1.38h-1.48Zm.12,10.74V155h1.21v7.55Z"/><path class="cls-8" d="M104,162.57v-5.43c0-.35,0-.71,0-1.06a9.28,9.28,0,0,0-.09-1.06H105l.14,1.56-.15.11a2.56,2.56,0,0,1,.93-1.37,2.67,2.67,0,0,1,1.59-.48,2.48,2.48,0,0,1,1.7.54A2.67,2.67,0,0,1,110,157l-.36-.2a2.56,2.56,0,0,1,1-1.45,2.85,2.85,0,0,1,1.75-.54,2.33,2.33,0,0,1,1.87.74,3.43,3.43,0,0,1,.63,2.25v4.74h-1.21v-4.68a2.52,2.52,0,0,0-.38-1.54,1.38,1.38,0,0,0-1.18-.49,1.88,1.88,0,0,0-1.5.65,2.63,2.63,0,0,0-.54,1.75v4.31h-1.22v-4.68a2.52,2.52,0,0,0-.38-1.54,1.41,1.41,0,0,0-1.19-.49,1.87,1.87,0,0,0-1.51.65,2.59,2.59,0,0,0-.55,1.75v4.31Z"/><path class="cls-8" d="M120.09,162.67a3.34,3.34,0,0,1-1.77-.47,3.22,3.22,0,0,1-1.17-1.35,4.88,4.88,0,0,1-.41-2.06,4.78,4.78,0,0,1,.42-2.07,3.35,3.35,0,0,1,1.18-1.39,3.2,3.2,0,0,1,1.75-.49,2.94,2.94,0,0,1,1.75.51,2.54,2.54,0,0,1,1,1.46l-.18.12V155h1.2v7.55h-1.2v-1.95l.18.09a2.54,2.54,0,0,1-1,1.45A2.94,2.94,0,0,1,120.09,162.67Zm.24-1a2.07,2.07,0,0,0,1.71-.76,4.12,4.12,0,0,0,0-4.3,2.07,2.07,0,0,0-1.7-.75,2.13,2.13,0,0,0-1.74.77,3.41,3.41,0,0,0-.62,2.16,3.28,3.28,0,0,0,.62,2.13A2.15,2.15,0,0,0,120.33,161.67Z"/><path class="cls-8" d="M126.19,162.57v-11h1.22v11Z"/></g><polygon class="cls-8" points="168.36 54.38 173.34 45.75 163.38 45.75 168.36 54.38"/></g></g></svg>