<svg id="Layer_1" data-name="Layer 1" xmlns="http://www.w3.org/2000/svg" viewBox="0 0 96 124">
	<defs>
		<style>
			.cls-1{fill:#888;}.cls-2{fill:none;}.cls-3{fill:#fff;}.cls-4{isolation:isolate;font-size:10px;font-family:MyriadPro-Regular,
			Myriad Pro;}
		</style>
	</defs>
	<path class="cls-1" d="M1.88,93.88H8.47V92H0v8.47H1.88Z"/>
	<path class="cls-1" d="M23.53,92v1.88h6.59v6.59H32V92Z"/>
	<path class="cls-1" d="M30.12,122.12H23.53V124H32v-8.47H30.12Z"/>
	<path class="cls-1" d="M1.88,115.53H0V124H8.47v-1.88H1.88Z"/>
	<path class="cls-1"
	      d="M25.36,108.94h2.88v-1.88H25.36a9.42,9.42,0,0,0-8.42-8.42V95.76H15.06v2.88a9.42,9.42,0,0,0-8.42,8.42H3.76v1.88H6.64a9.43,9.43,0,0,0,8.42,8.43v2.87h1.88v-2.87A9.43,9.43,0,0,0,25.36,108.94Zm-8.42,6.53v-1.82H15.06v1.82a7.56,7.56,0,0,1-6.53-6.53h1.82v-1.88H8.53a7.56,7.56,0,0,1,6.53-6.53v1.82h1.88v-1.82a7.56,7.56,0,0,1,6.53,6.53H21.65v1.88h1.82A7.56,7.56,0,0,1,16.94,115.47Z"/>
	<path class="cls-1"
	      d="M16,104.24A3.76,3.76,0,1,0,19.76,108,3.76,3.76,0,0,0,16,104.24Zm0,5.64A1.88,1.88,0,1,1,17.88,108,1.88,1.88,0,0,1,16,109.88Z"/>
	<path class="cls-1"
	      d="M48,92a16,16,0,1,0,16,16A16,16,0,0,0,48,92Zm0,29.87A13.87,13.87,0,1,1,61.87,108,13.88,13.88,0,0,1,48,121.87Z"/>
	<path class="cls-1"
	      d="M55.21,106.93H49.07v-6.14a1.07,1.07,0,1,0-2.14,0v6.14H40.79a1.07,1.07,0,0,0,0,2.14h6.14v6.14a1.07,1.07,0,1,0,2.14,0v-6.14h6.14a1.07,1.07,0,1,0,0-2.14Z"/>
	<path class="cls-1"
	      d="M94.74,101.78a16.11,16.11,0,0,0-5.8-7,16,16,0,0,0-15.16-1.48,16.11,16.11,0,0,0-7,5.8,16,16,0,0,0-1.48,15.16,16.05,16.05,0,0,0,5.8,7,16,16,0,0,0,15.16,1.48,16.11,16.11,0,0,0,7-5.8,16,16,0,0,0,1.48-15.16Zm-2,11.61a14,14,0,0,1-5,6.11,13.86,13.86,0,0,1-13.14,1.28,14,14,0,0,1-6.11-5,13.86,13.86,0,0,1-1.28-13.14,14,14,0,0,1,5-6.11,13.86,13.86,0,0,1,13.14-1.28,14,14,0,0,1,6.11,5,13.86,13.86,0,0,1,1.28,13.14Z"/>
	<path class="cls-1" d="M88.35,107H71.65a1,1,0,0,0,0,2.08h16.7a1,1,0,0,0,0-2.08Z"/>
	<rect id="background" class="cls-2" width="96" height="124"/>
	<path d="M13,1.5v13L1.74,8Z"/>
	<path d="M17.5,3h13L24,14.26Z"/>
	<path d="M35,1.5v13L46.26,8Z"/>
	<path class="cls-3" d="M13,17.5v13L1.74,24Z"/>
	<path class="cls-3" d="M17.5,19h13L24,30.26Z"/>
	<path class="cls-3" d="M35,17.5v13L46.26,24Z"/>
	<text class="cls-4" transform="translate(51.75 28)">✓</text>
	<path class="cls-1" d="M2,41v6H44V41H33.5l-3-3h-15l-3,3Z"/>
	<rect class="cls-1" x="5" y="50" width="36" height="20"/>
	<rect class="cls-1" x="5" y="50" width="36" height="42" rx="4"/>
</svg>