<svg xmlns="http://www.w3.org/2000/svg" viewBox="0 0 193.1 107.1"><defs><style>.cls-1{fill:#fff;}.cls-2{fill:#232323;}.cls-3{fill:#ff5100;}.cls-4{fill:#00aeb3;}</style></defs><g id="Layer_2" data-name="Layer 2"><g id="Layer_1-2" data-name="Layer 1"><path class="cls-1" d="M193.07,86.71l-2.54-36.85a15.22,15.22,0,0,0-10.72-13.69,13.76,13.76,0,0,0-4.78-.5l-17,1.18a3.58,3.58,0,0,1-3.73-2.57,6.65,6.65,0,0,0-1.67-2.93L145.39,24a3.65,3.65,0,0,1,0-5.11l8.9-9.07a5.88,5.88,0,0,0,1.63-5.59A5.6,5.6,0,0,0,150.51.09h-.61l-14.05,3a9.88,9.88,0,0,0-3.65,2.23,3.61,3.61,0,0,1-4.82-.08,13,13,0,0,0-5.73-3.32L113.36.15a6.61,6.61,0,0,0-7.5,3.92,5.66,5.66,0,0,0-.27.79A3.73,3.73,0,0,1,102,7.68H99.73a1.82,1.82,0,0,1-1.82-1.82V3.66a1.82,1.82,0,0,0-1.82-1.83H84.73a1.82,1.82,0,0,0-1.82,1.83V5.75a1.82,1.82,0,0,1-1.82,1.82l-18.67.07a1.82,1.82,0,0,1-1.83-1.82V4.17a1.82,1.82,0,0,0-1.82-1.82H47.41a1.81,1.81,0,0,0-1.82,1.82V5.86a2,2,0,0,1-2,1.95l-40-.09A3.65,3.65,0,0,0,0,11.37V92.52A14.57,14.57,0,0,0,14.57,107.1H96.44a10.06,10.06,0,0,0,4.32-1,7.23,7.23,0,0,1,6.16-.2,9.77,9.77,0,0,0,4.17.93h0l.7,0,67.83-4.69A14.5,14.5,0,0,0,193.07,86.71Z"/><path class="cls-2" d="M26.14,13.19V29.64H5.47V13.19H9.54V25.52h4.23V13.19h4.07V25.52h4.07V13.19Z"/><path class="cls-2" d="M46.94,13.15V29.6H30.33V19.71H42.71V17H30.33V13.15ZM42.71,25.92V23.07H34.56v2.85Z"/><path class="cls-2" d="M55.12,17.26v8.26h8.31v4.12H51.05V7.81h4.07v5.34h8.31v4.11Z"/><path class="cls-2" d="M71.85,17.22v8.15H84.22V29.6H67.62V13h16.6v4.19Z"/><path class="cls-2" d="M104.82,13.15V29.64h-4.07V17.26h-8.3V29.64H88.37V7.3h4.08v5.85Z"/><g id="ARC"><path class="cls-3" d="M134.66,32.48l-1.78-2.24a4.25,4.25,0,0,1,.3-5.62l4-4.12a2.11,2.11,0,0,0,0,3l11.48,11.7a1.17,1.17,0,0,1-1.07,2l-8.33-1.78A8,8,0,0,1,134.66,32.48Z"/></g><path class="cls-2" d="M150.47,5.56,137,8.44a2.83,2.83,0,0,0-1.61,1L130.7,15.3a.89.89,0,0,1-1.4,0L127.44,13a4.25,4.25,0,0,1-.29,5.62L109.24,36.84a.14.14,0,0,0,.13.23l13.51-2.88a2.83,2.83,0,0,0,1.61-1l4.65-5.86a.91.91,0,0,1,1.41,0l1.85,2.33a4.25,4.25,0,0,1,.29-5.62L150.6,5.79A.14.14,0,0,0,150.47,5.56Z"/><g id="ARC-2" data-name="ARC"><path class="cls-3" d="M125.19,10.15,127,12.39a4.23,4.23,0,0,1-.3,5.62l-4,4.12a2.13,2.13,0,0,0,0-3L111.14,7.45a1.17,1.17,0,0,1,1.08-2l8.32,1.78A8.08,8.08,0,0,1,125.19,10.15Z"/></g><path class="cls-3" d="M33.77,51.8a4.6,4.6,0,0,1-3.24-1.34l-7.07-7.07a6.19,6.19,0,0,0-4.41-1.83H5.47V40H19.05a7.78,7.78,0,0,1,5.54,2.29l7.07,7.07a3,3,0,0,0,4.23,0L43,42.26A7.76,7.76,0,0,1,48.49,40h56.59v1.59H48.49a6.2,6.2,0,0,0-4.41,1.83L37,50.46A4.56,4.56,0,0,1,33.77,51.8Z"/><path class="cls-4" d="M71.84,67.49A4.28,4.28,0,0,0,68.41,69a7.21,7.21,0,0,0-1.3,4.72,7.32,7.32,0,0,0,1.28,4.73,4.62,4.62,0,0,0,6.94,0,7.38,7.38,0,0,0,1.28-4.73,7.32,7.32,0,0,0-1.28-4.7A4.27,4.27,0,0,0,71.84,67.49Z"/><path class="cls-4" d="M34.14,70.94a2,2,0,0,0,.68-1.64A1.73,1.73,0,0,0,34,67.8a4.05,4.05,0,0,0-2.35-.56c-.34,0-.75,0-1.2,0a9.58,9.58,0,0,0-1.06.1v4.11H32A3.44,3.44,0,0,0,34.14,70.94Z"/><path class="cls-4" d="M32.52,75.74h-3.1V80a5.41,5.41,0,0,0,1.25.19q.76.06,1.47.06a4.32,4.32,0,0,0,2.31-.58,2,2,0,0,0,.93-1.79C35.38,76.45,34.42,75.74,32.52,75.74Z"/><path class="cls-4" d="M101.74,83.77c-.35.17-.54.54-.87,1.34A4.52,4.52,0,0,1,98.46,88c-1.2.47-3.22.54-6.09-1.85-5.08-4.22-6.3-13.28-2.55-19,1.13-1.72,3.45-4.56,6.32-4.22a5.5,5.5,0,0,1,3.61,2.56c.59.74,1,1.24,1.35,1.25h0c.61,0,1.5-.91,2-1.78.84-1.36.72-2.63.41-4.94a27.34,27.34,0,0,1-.34-5.09,29.66,29.66,0,0,1,.39-3.68,4.52,4.52,0,0,0-4.44-5.28H48.49A3.72,3.72,0,0,0,45.82,47L38.75,54.1a7,7,0,0,1-9.95,0L21.73,47a3.76,3.76,0,0,0-2.68-1.11H14.48a9,9,0,0,0-9,9V92.61a9,9,0,0,0,9,9h82a4.5,4.5,0,0,0,4.49-4.11,20.11,20.11,0,0,1,2.17-7.71c.09-.15.18-.33.29-.52.63-1.14,2-3.51,1.33-4.58A2.79,2.79,0,0,0,101.74,83.77Zm-62.69-.52c-1.71,1.1-4.16,1.65-7.37,1.65l-1.39,0c-.53,0-1.09-.07-1.65-.14s-1.14-.16-1.69-.26A8.42,8.42,0,0,1,25.41,84a2.59,2.59,0,0,1-1.91-2.54V65.22a1.53,1.53,0,0,1,.4-1.13,2.91,2.91,0,0,1,1.1-.64,13.31,13.31,0,0,1,3-.61,33.38,33.38,0,0,1,3.65-.19,13,13,0,0,1,6.87,1.5,5.06,5.06,0,0,1,2.4,4.63A4.15,4.15,0,0,1,40,71.44a5.83,5.83,0,0,1-2.44,1.73q4,1.32,4,5A5.63,5.63,0,0,1,39.05,83.25Zm20.18.57a1.93,1.93,0,0,1-1.53.63H48.3a3,3,0,0,1-3.24-3.24v-18L46.28,63a10.67,10.67,0,0,1,1.6-.12,4.12,4.12,0,0,1,2.51.59,2.78,2.78,0,0,1,.76,2.3V79.54h8a4.86,4.86,0,0,1,.45,1,4.26,4.26,0,0,1,.21,1.36A2.74,2.74,0,0,1,59.23,83.82Zm22.82-5.24a9.7,9.7,0,0,1-2.32,3.52,9.92,9.92,0,0,1-3.5,2.14,13.57,13.57,0,0,1-8.78,0A9.74,9.74,0,0,1,64,82.08a10.1,10.1,0,0,1-2.3-3.52,12.78,12.78,0,0,1-.83-4.8A12.63,12.63,0,0,1,61.69,69,10.08,10.08,0,0,1,64,65.45a10,10,0,0,1,3.49-2.14,13.24,13.24,0,0,1,8.67,0,10.19,10.19,0,0,1,3.5,2.14A9.85,9.85,0,0,1,82,69a12.63,12.63,0,0,1,.85,4.81A13.12,13.12,0,0,1,82.05,78.58Z"/><path class="cls-4" d="M187.62,87.09,185,49.5a9,9,0,0,0-9.61-8.38L110.49,45.6a4.49,4.49,0,0,0-4.11,3.62,26.51,26.51,0,0,0-.48,5.83,24,24,0,0,0,.61,4.48c.5,2.37,1,4.61-.37,7.13-.44.83-2.08,3.55-4.7,3.64-1.89.06-3.08-1.27-4-2.23-.55-.62-1.08-1.21-1.53-1.23-.62,0-1.84.89-3,3-2.5,4.48-1.06,11.69,2.92,14.56,1.66,1.19,2.6,1.27,2.9,1.13s.34-.5.54-1.11a5.17,5.17,0,0,1,2.25-3.18A6,6,0,0,1,108.89,83c1.71,2.54.16,5.87-.77,7.85l-.23.49a16.16,16.16,0,0,0-1.28,5.15,4.51,4.51,0,0,0,4.8,4.92l67.83-4.68A9,9,0,0,0,187.62,87.09ZM128.1,81.58a3.09,3.09,0,0,1-1.34,1.21,12,12,0,0,1-1.74.68,12.12,12.12,0,0,1-2.76.47,14.22,14.22,0,0,1-4.46-.36,9.85,9.85,0,0,1-3.72-1.77,9.2,9.2,0,0,1-2.63-3.29,13.14,13.14,0,0,1-1.22-5,12.73,12.73,0,0,1,.52-4.85A10.26,10.26,0,0,1,112.84,65a9.82,9.82,0,0,1,3.31-2.4,12.51,12.51,0,0,1,4.19-1,9.78,9.78,0,0,1,5,.7,3.09,3.09,0,0,1,1.94,2.56,2.71,2.71,0,0,1-.34,1.59,4,4,0,0,1-1,1.12,10.84,10.84,0,0,0-2-.88,6.39,6.39,0,0,0-2.41-.25,5.15,5.15,0,0,0-4,1.93,6.92,6.92,0,0,0-1.1,4.74,6.43,6.43,0,0,0,1.87,4.57,5.73,5.73,0,0,0,4.4,1.28,6.68,6.68,0,0,0,2.39-.55,16.09,16.09,0,0,0,1.83-1,3.49,3.49,0,0,1,1,1.1,3.61,3.61,0,0,1,.44,1.56A2.65,2.65,0,0,1,128.1,81.58ZM150,79.93a3.16,3.16,0,0,1-.68,1.06,3.37,3.37,0,0,1-1,.7,3.88,3.88,0,0,1-1.24.29,3.62,3.62,0,0,1-2.37-.55,12,12,0,0,1-1.86-1.56l-5.44-5.53.54,7.85a8.17,8.17,0,0,1-1.17.29,12.15,12.15,0,0,1-1.62.22,3.89,3.89,0,0,1-2.6-.45,2.94,2.94,0,0,1-.87-2.21l-1.27-18.52,1.2-.27a10.71,10.71,0,0,1,1.59-.24,4.13,4.13,0,0,1,2.54.42,2.76,2.76,0,0,1,.92,2.24L137,69.3l6.65-8.84a5.18,5.18,0,0,1,3.45.66,2.66,2.66,0,0,1,1.17,2,3.46,3.46,0,0,1-.33,1.73,8.88,8.88,0,0,1-1.34,1.91l-4,4.64c1.62,1.57,3.09,2.95,4.41,4.17s2.37,2.2,3.17,3A3.35,3.35,0,0,1,150,79.93Zm18.25-3.16A5.93,5.93,0,0,1,166.63,79a8.69,8.69,0,0,1-2.79,1.57,14.66,14.66,0,0,1-3.91.76,16.33,16.33,0,0,1-3-.06,9.26,9.26,0,0,1-2.45-.6,4.28,4.28,0,0,1-1.69-1.14,2.81,2.81,0,0,1-.69-1.68,2.65,2.65,0,0,1,.47-1.76,4.65,4.65,0,0,1,1.21-1.18,9.58,9.58,0,0,0,2.47,1.15,8.22,8.22,0,0,0,3.12.35,4,4,0,0,0,2.36-.72,1.61,1.61,0,0,0,.61-1.3,1.31,1.31,0,0,0-.64-1.06,6.16,6.16,0,0,0-1.61-.64l-1.49-.38c-1.05-.28-2-.57-2.86-.87a8.74,8.74,0,0,1-2.24-1.15A5.39,5.39,0,0,1,152,68.57a6,6,0,0,1-.69-2.56,5.74,5.74,0,0,1,2-4.88,10.18,10.18,0,0,1,6.26-2.21,17.21,17.21,0,0,1,2.79,0,8.15,8.15,0,0,1,2.25.49,3.72,3.72,0,0,1,1.52,1,2.51,2.51,0,0,1,.63,1.54,2.79,2.79,0,0,1-.31,1.58,4.4,4.4,0,0,1-.93,1.16,8.09,8.09,0,0,0-2.11-.71,10.47,10.47,0,0,0-2.84-.17,4.64,4.64,0,0,0-2.26.59,1.28,1.28,0,0,0-.66,1.15,1,1,0,0,0,.51.82,4.71,4.71,0,0,0,1.4.51l1.88.47a13.14,13.14,0,0,1,5.21,2.34A5.81,5.81,0,0,1,168.64,74,6.24,6.24,0,0,1,168.24,76.77Z"/></g></g></svg>