<?xml version="1.0" encoding="utf-8"?>
<!-- Generator: Adobe Illustrator 25.0.0, SVG Export Plug-In . SVG Version: 6.00 Build 0)  -->
<svg version="1.1" id="Layer_1" xmlns="http://www.w3.org/2000/svg" xmlns:xlink="http://www.w3.org/1999/xlink" x="0px" y="0px"
	 viewBox="0 0 510.2 155.9" style="enable-background:new 0 0 510.2 155.9;" xml:space="preserve">
<style type="text/css">
	.st0{opacity:0.2;}
	.st1{clip-path:url(#SVGID_2_);}
	.st2{fill:url(#SVGID_3_);}
	.st3{fill:#231F20;}
	.st4{fill:none;}
	.st5{fill:#FFFFFF;}
	.st6{fill:#232323;}
	.st7{fill:#FF5100;}
	.st8{fill:#00AEB3;}
</style>
<g>
	<g id="Layer_2_1_">
		<g id="Layer_1-2">
			<g class="st0">
				<g>
					<defs>
						<rect id="SVGID_1_" x="0" y="0" width="510.2" height="155.9"/>
					</defs>
					<clipPath id="SVGID_2_">
						<use xlink:href="#SVGID_1_"  style="overflow:visible;"/>
					</clipPath>
					<g class="st1">
						
							<linearGradient id="SVGID_3_" gradientUnits="userSpaceOnUse" x1="-28.3469" y1="78.9126" x2="538.5831" y2="78.9126" gradientTransform="matrix(1 0 0 -1 0 156.8654)">
							<stop  offset="0" style="stop-color:#FFFFFF;stop-opacity:0.1"/>
							<stop  offset="1" style="stop-color:#000000;stop-opacity:0.15"/>
						</linearGradient>
						<rect x="-28.3" y="-205.5" class="st2" width="566.9" height="566.9"/>
						<path class="st3" d="M8.1-178.9c-0.9,0-1.8-0.2-2.6-0.7c-1.2-0.7-2.1-1.8-2.5-3.2l-1.5-5.2c0-0.1-0.1-0.2-0.2-0.2
							c-0.1,0-0.2,0-0.2,0l-5.2,1.5c-1.3,0.4-2.8,0.2-4-0.5c-1.2-0.7-2.1-1.8-2.5-3.2l-2.8-9.5c-0.4-1.3,0.4-2.7,1.7-3.1
							c1.3-0.4,2.7,0.4,3.1,1.7l2.7,9.5c0,0.1,0.1,0.2,0.2,0.2c0.1,0,0.2,0,0.2,0l5.2-1.5c1.4-0.4,2.8-0.2,4.1,0.5
							c1.2,0.7,2.1,1.8,2.5,3.2l1.5,5.2c0,0.1,0.1,0.2,0.2,0.2c0.1,0,0.2,0,0.3,0l9.5-2.7c1.3-0.4,2.7,0.4,3.1,1.7c0,0,0,0,0,0
							c0.4,1.3-0.3,2.7-1.6,3.1c0,0-0.1,0-0.1,0l-9.5,2.7C9.1-179,8.6-178.9,8.1-178.9z"/>
						<path class="st3" d="M121.5-154c-0.6,0-1.1-0.2-1.5-0.5l-7.8-6.1c-1.1-0.9-1.8-2.1-2-3.6c-0.2-1.4,0.2-2.8,1.1-3.9l3.3-4.3
							c0.1-0.1,0.1-0.4-0.1-0.5l-4.3-3.4c-1.1-0.9-1.8-2.1-2-3.6c-0.2-1.4,0.2-2.8,1.1-3.9l6.1-7.8c0.9-1.1,2.4-1.3,3.5-0.4
							c1.1,0.9,1.3,2.4,0.4,3.5c0,0,0,0,0,0l-6,7.8c-0.1,0.1-0.1,0.2-0.1,0.2c0,0.1,0.1,0.2,0.1,0.2l4.3,3.4
							c2.3,1.8,2.7,5.2,0.9,7.5l-3.3,4.3c-0.1,0.1-0.1,0.2-0.1,0.2c0,0.1,0.1,0.2,0.1,0.2l7.8,6.1c1.1,0.9,1.3,2.4,0.4,3.5
							c0,0,0,0,0,0C123-154.3,122.3-154,121.5-154z"/>
						<path class="st3" d="M96.5-127.6c-1.3,0-2.4-1-2.5-2.2l-1.1-9.8c0-0.1,0-0.2-0.1-0.2c-0.1-0.1-0.2-0.1-0.2-0.1l-5.4,0.6
							c-1.4,0.2-2.8-0.2-3.9-1.1c-1.1-0.9-1.8-2.2-2-3.6l-0.6-5.4c0-0.1-0.1-0.2-0.1-0.2c-0.1-0.1-0.2-0.1-0.2-0.1l-9.8,1.1
							c-1.4,0.2-2.6-0.8-2.8-2.2c0,0,0,0,0,0c-0.2-1.4,0.8-2.6,2.2-2.8l9.8-1.1c1.4-0.2,2.8,0.2,3.9,1.1c1.1,0.9,1.8,2.2,2,3.6
							l0.6,5.4c0,0.1,0.1,0.2,0.1,0.2c0.1,0.1,0.2,0.1,0.2,0.1l5.4-0.6c1.4-0.2,2.8,0.2,3.9,1.1c1.1,0.9,1.8,2.2,2,3.6l1.1,9.8
							c0.2,1.4-0.8,2.6-2.2,2.8c0,0,0,0,0,0L96.5-127.6z"/>
						<path class="st3" d="M151.9-177.1c-0.4,0-0.8,0-1.2-0.1l-9.6-2.2c-1.3-0.3-2.2-1.6-1.9-3c0,0,0,0,0,0c0.3-1.3,1.6-2.2,3-1.9
							c0,0,0,0,0,0l9.6,2.2c0.2,0,0.4-0.1,0.4-0.3l1.2-5.3c0.7-2.9,3.5-4.6,6.4-4l5.3,1.2c0.2,0,0.4-0.1,0.4-0.2l2.2-9.6
							c0.3-1.3,1.6-2.2,3-1.9c1.3,0.3,2.2,1.6,1.9,3c0,0,0,0,0,0l-2.2,9.6c-0.7,2.9-3.5,4.6-6.4,4l-5.3-1.2c-0.2,0-0.4,0.1-0.4,0.2
							c0,0,0,0,0,0l-1.2,5.3C156.6-178.8,154.4-177.1,151.9-177.1z"/>
						<path class="st3" d="M5.2-114.3c-0.2,0-0.5,0-0.7-0.1c-1.3-0.4-2.1-1.8-1.7-3.1c0,0,0,0,0,0l2.7-9.5c0-0.1,0-0.2,0-0.2
							c0-0.1-0.1-0.1-0.2-0.2l-5.3-1.5c-2.8-0.8-4.5-3.8-3.6-6.6l1.6-5.2c0-0.1,0-0.2,0-0.2c0-0.1-0.1-0.1-0.2-0.2l-9.5-2.8
							c-1.3-0.4-2.1-1.8-1.7-3.1c0.4-1.3,1.8-2.1,3.1-1.7l9.4,2.8c1.4,0.4,2.5,1.3,3.2,2.6c0.7,1.2,0.8,2.7,0.5,4.1l-1.5,5.2
							c0,0.2,0.1,0.4,0.2,0.4l5.2,1.5c1.4,0.4,2.5,1.3,3.2,2.6c0.7,1.2,0.9,2.7,0.4,4.1l-2.8,9.4C7.3-115,6.3-114.3,5.2-114.3z"/>
						<path class="st3" d="M217.1-177.7c-0.7,0-1.4-0.1-2-0.4l-9.1-3.7c-1.3-0.5-1.9-2-1.4-3.2c0,0,0,0,0,0c0.5-1.3,2-1.9,3.2-1.4
							c0,0,0,0,0,0l9.1,3.7c0.2,0.1,0.4,0,0.4-0.2c0,0,0,0,0,0l2-5.1c1.1-2.7,4.2-4.1,6.9-3l5.1,2c0.1,0,0.2,0,0.2,0
							c0.1,0,0.1-0.1,0.2-0.2l3.7-9.1c0.5-1.3,2-1.9,3.2-1.4c0,0,0,0,0,0c1.3,0.5,1.9,2,1.4,3.2l-3.7,9.1c-0.5,1.3-1.5,2.4-2.9,2.9
							c-1.3,0.5-2.8,0.5-4.1,0l-5.1-2c-0.2-0.1-0.4,0-0.4,0.2c0,0,0,0,0,0l-2,5C221.3-179.1,219.3-177.8,217.1-177.7z"/>
						<path class="st3" d="M179.9-126.9h-0.4l-9.8-0.7c-1.4-0.1-2.4-1.3-2.3-2.6c0,0,0,0,0,0c0.1-1.4,1.3-2.4,2.7-2.3c0,0,0,0,0,0
							l9.8,0.7c0.2,0,0.3-0.1,0.4-0.3l0.4-5.4c0.2-2.9,2.7-5.2,5.7-5c0,0,0,0,0,0l5.4,0.4c0.1,0,0.2,0,0.2-0.1
							c0.1-0.1,0.1-0.1,0.1-0.2l0.7-9.8c0.1-1.4,1.3-2.4,2.6-2.3c0,0,0,0,0,0c1.4,0.1,2.4,1.3,2.3,2.7c0,0,0,0,0,0l-0.7,9.8
							c-0.1,1.4-0.7,2.7-1.8,3.7c-1.1,0.9-2.5,1.4-3.9,1.3l-5.4-0.4c-0.2,0-0.3,0.1-0.4,0.3c0,0,0,0,0,0l-0.4,5.4
							C185.1-129.1,182.8-126.9,179.9-126.9z"/>
						<path class="st3" d="M5.5-69.3H5.2C3.7-69.3,2.4-70,1.4-71l-4.1-4.3c-0.1-0.1-0.3-0.2-0.5-0.2c-0.1,0-0.1,0-0.2,0l-3.9,3.8
							c-1.1,1-2.5,1.5-4,1.4c-1.4-0.1-2.7-0.8-3.7-1.8l-7.5-7.8c-1-1-0.9-2.6,0.1-3.5c0,0,0,0,0,0c1-1,2.6-0.9,3.5,0.1l7.4,7.8
							c0.1,0.1,0.3,0.2,0.5,0.2c0.1,0,0.1,0,0.2,0l3.9-3.8c1.1-1,2.5-1.5,4-1.4c1.4,0.1,2.7,0.7,3.7,1.7L5-74.5
							c0.1,0.1,0.3,0.2,0.5,0.2c0.1,0,0.1,0,0.2,0l7.2-6.8c1-1,2.6-0.9,3.5,0.1c1,1,0.9,2.6-0.1,3.5l-7.1,6.8
							C8.2-69.8,6.9-69.2,5.5-69.3z"/>
						<path class="st3" d="M83.3-85.7c-0.5,0-1-0.1-1.4-0.4c-1.2-0.7-1.5-2.3-0.7-3.5c0,0,0,0,0,0l5.3-8.3c1.6-2.5,4.9-3.2,7.4-1.6
							c0,0,0,0,0,0l4.6,3c0.1,0.1,0.2,0.1,0.2,0.1c0.1,0,0.2-0.1,0.2-0.1l3-4.6c0.8-1.2,2-2,3.4-2.3c1.4-0.3,2.8,0,4,0.7l8.3,5.3
							c1.2,0.7,1.5,2.3,0.7,3.5c0,0,0,0,0,0c-0.7,1.2-2.3,1.5-3.5,0.7c0,0,0,0,0,0l-8.3-5.4c-0.1,0-0.2,0-0.2,0
							c-0.1,0-0.2,0.1-0.2,0.1l-3,4.6c-0.8,1.2-2,2-3.4,2.3c-1.4,0.3-2.8,0-4-0.7l-4.6-3c-0.2-0.1-0.4-0.1-0.5,0.1c0,0,0,0,0,0
							l-5.3,8.3C85-86.1,84.2-85.7,83.3-85.7z"/>
						<path class="st3" d="M203.1,58.8c-0.1,0-0.3,0-0.4,0l-9.7-1.5c-1.4-0.2-2.7-1-3.5-2.1c-0.9-1.1-1.2-2.6-1-4l0.8-5.4
							c0-0.2-0.1-0.3-0.3-0.4l-5.4-0.8c-2.9-0.4-4.9-3.2-4.5-6.1l1.5-9.7c0.3-1.4,1.6-2.2,2.9-2c1.3,0.2,2.2,1.4,2,2.7l-1.5,9.7
							c0,0.1,0,0.2,0.1,0.2c0.1,0.1,0.1,0.1,0.2,0.1l5.4,0.8c1.4,0.2,2.7,1,3.5,2.1c0.9,1.1,1.2,2.6,1,4l-0.8,5.4
							c0,0.2,0.1,0.3,0.3,0.4c0,0,0,0,0,0l9.7,1.5c1.4,0.1,2.4,1.3,2.3,2.7S204.5,59,203.1,58.8L203.1,58.8z"/>
						<path class="st3" d="M17.6-3.5c-0.2,0-0.5,0-0.7-0.1c-1.3-0.4-2.1-1.8-1.7-3.1c0,0,0,0,0,0l2.7-9.5c0.8-2.8,3.8-4.5,6.6-3.6
							l5.2,1.5c0.1,0,0.1,0,0.2,0c0.1,0,0.1-0.1,0.2-0.2l1.5-5.2c0.8-2.8,3.8-4.5,6.6-3.6l9.4,2.7c1.3,0.4,2.1,1.8,1.7,3.1
							c-0.4,1.3-1.8,2.1-3.1,1.7l-9.4-2.7c-0.2,0-0.3,0.1-0.4,0.2l-1.5,5.2c-0.4,1.4-1.3,2.5-2.5,3.2c-1.2,0.7-2.7,0.9-4,0.5
							L23.1-15c-0.2,0-0.3,0.1-0.4,0.2L20-5.3C19.7-4.2,18.7-3.5,17.6-3.5z"/>
						<path class="st3" d="M1.9,67.6H1.8c-1.4,0-2.4-1.2-2.4-2.6l0.4-9.8c0-0.1,0-0.2-0.1-0.2c-0.1-0.1-0.1-0.1-0.2-0.1L-6,54.6
							c-2.9-0.1-5.2-2.6-5.1-5.5c0,0,0,0,0,0l0.2-5.5c0-0.2-0.1-0.3-0.3-0.3l-9.8-0.3c-1.4,0-2.4-1.2-2.4-2.6c0,0,0,0,0,0
							c0-1.4,1.2-2.4,2.6-2.4c0,0,0,0,0,0l9.8,0.4c2.9,0.1,5.2,2.6,5.1,5.5l-0.2,5.5c0,0.2,0.1,0.3,0.3,0.3l5.4,0.2
							c1.4,0,2.7,0.7,3.7,1.7c1,1,1.5,2.4,1.4,3.8l-0.4,9.8C4.4,66.5,3.3,67.6,1.9,67.6z"/>
						<path class="st3" d="M-19.1-2.1c-1,0-2-0.6-2.3-1.6C-22-5.1-21.3-6.5-20-7c0,0,0,0,0,0l9.2-3.4c0.1,0,0.1-0.1,0.2-0.2
							c0-0.1,0-0.2,0-0.3l-1.9-5.1c-1-2.8,0.4-5.8,3.2-6.8c0,0,0,0,0,0l5.1-1.9c0.1,0,0.2-0.1,0.2-0.2c0-0.1,0-0.2,0-0.2l-3.4-9.2
							c-0.5-1.3,0.1-2.7,1.4-3.2c1.3-0.5,2.7,0.1,3.2,1.4c0,0,0,0,0,0.1l3.4,9.2c0.5,1.3,0.4,2.8-0.2,4.1c-0.6,1.3-1.7,2.3-3,2.8
							l-5.1,1.9c-0.2,0.1-0.3,0.3-0.2,0.4l1.9,5.1c0.5,1.3,0.5,2.8-0.1,4.1c-0.6,1.3-1.7,2.3-3,2.8l-9.2,3.4
							C-18.5-2.2-18.8-2.1-19.1-2.1z"/>
						<path class="st3" d="M219.5,33.4c-1.2,0-2.2-0.8-2.5-2l-1.8-9.7c-0.5-2.9,1.4-5.7,4.3-6.2l5.4-1c0.1,0,0.2-0.1,0.2-0.1
							c0.1-0.1,0.1-0.2,0.1-0.2l-1-5.4c-0.5-2.9,1.4-5.7,4.3-6.2l9.7-1.8c1.4-0.3,2.7,0.6,2.9,2c0.3,1.4-0.6,2.7-2,2.9l-9.7,1.8
							c-0.1,0-0.2,0.1-0.2,0.1c-0.1,0.1-0.1,0.2-0.1,0.2l1,5.3c0.5,2.9-1.3,5.7-4.2,6.2c0,0,0,0,0,0l-5.4,1c-0.1,0-0.2,0.1-0.2,0.1
							c-0.1,0.1-0.1,0.2-0.1,0.2l1.8,9.7c0.2,1.4-0.6,2.7-2,2.9C219.9,33.4,219.7,33.4,219.5,33.4z"/>
						<path class="st3" d="M219.9-75.3c-0.6,0-1.3-0.1-1.9-0.3l-9.2-3.4c-1.3-0.5-2-1.9-1.5-3.2c0.5-1.3,1.9-2,3.2-1.5c0,0,0,0,0,0
							l9.2,3.4c0.2,0.1,0.4,0,0.4-0.2l1.9-5.1c0.5-1.3,1.5-2.4,2.8-3c1.3-0.6,2.7-0.7,4.1-0.2l5.1,1.9c0.2,0.1,0.4,0,0.4-0.2
							l3.4-9.2c0.5-1.3,1.9-2,3.2-1.5c0,0,0,0,0,0c1.3,0.5,2,1.9,1.5,3.2l-3.4,9.2c-1,2.8-4.1,4.2-6.8,3.2l-5.1-1.9
							c-0.1,0-0.2,0-0.3,0c-0.1,0-0.1,0.1-0.2,0.2l-1.9,5.1C224.1-76.7,222.1-75.3,219.9-75.3z"/>
						<path class="st3" d="M144.1-25.9c-0.3,0-0.6-0.1-0.8-0.1c-1.3-0.5-2-1.9-1.5-3.2c0,0,0,0,0,0l3.3-9.3c1-2.8,4-4.2,6.8-3.2
							L157-40c0.2,0.1,0.4,0,0.4-0.2c0,0,0,0,0,0l1.8-5.1c1-2.8,4-4.2,6.8-3.2l9.3,3.3c1.3,0.5,2,1.9,1.5,3.2
							c-0.5,1.3-1.9,2-3.2,1.5l-9.3-3.3c-0.2-0.1-0.4,0-0.4,0.2c0,0,0,0,0,0l-1.8,5.1c-1,2.8-4,4.2-6.8,3.2l-5.1-1.8
							c-0.2-0.1-0.4,0-0.4,0.2l-3.3,9.3C146.1-26.6,145.2-25.9,144.1-25.9z"/>
						<path class="st3" d="M240.5-12.7c-0.9,0-1.6-0.4-2.1-1.1l-5.3-8.3c-1.6-2.5-0.8-5.8,1.6-7.4l4.6-2.9c0.1,0,0.1-0.1,0.1-0.2
							c0-0.1,0-0.2,0-0.2l-2.9-4.6c-1.6-2.5-0.9-5.8,1.6-7.4c0,0,0,0,0,0l8.3-5.3c1.2-0.7,2.7-0.4,3.5,0.8c0.7,1.2,0.4,2.7-0.8,3.5
							l-8.3,5.3c-0.2,0.1-0.2,0.3-0.1,0.5l2.9,4.6c0.8,1.2,1,2.6,0.7,4c-0.3,1.4-1.1,2.6-2.3,3.4l-4.6,2.9c-0.2,0.1-0.2,0.3-0.1,0.5
							c0,0,0,0,0,0l5.3,8.3c0.7,1.2,0.4,2.7-0.8,3.5C241.4-12.8,241-12.6,240.5-12.7z"/>
						<path class="st3" d="M200.6-41.4h-0.1c-1.4-0.1-2.4-1.2-2.4-2.6l0.5-9.8c0-0.2-0.1-0.3-0.3-0.3c0,0,0,0,0,0l-5.4-0.3
							c-1.4-0.1-2.7-0.7-3.7-1.8c-1-1-1.4-2.4-1.4-3.8l0.3-5.4c0-0.2-0.1-0.3-0.3-0.3c0,0,0,0,0,0l-9.8-0.5
							c-1.4-0.1-2.4-1.2-2.4-2.6c0.1-1.4,1.3-2.4,2.6-2.4l9.8,0.5c2.9,0.2,5.2,2.7,5.1,5.6l-0.3,5.4c0,0.1,0,0.2,0.1,0.2
							c0.1,0.1,0.1,0.1,0.2,0.1l5.4,0.3c2.9,0.2,5.2,2.7,5,5.6l-0.5,9.8C202.9-42.4,201.9-41.4,200.6-41.4z"/>
						<path class="st3" d="M164.8,11c-0.7,0-1.4-0.1-2-0.4l-9.1-3.7c-1.3-0.5-1.9-2-1.4-3.3s2-1.9,3.3-1.4l0,0l9.1,3.7
							c0.2,0.1,0.4,0,0.4-0.2l2.1-5c1.1-2.7,4.2-4,6.9-2.9c0,0,0,0,0.1,0l5,2.1c0.2,0.1,0.4,0,0.4-0.2l3.7-9.1
							c0.5-1.3,2-1.9,3.3-1.4c0,0,0,0,0,0c1.2,0.5,1.9,1.9,1.4,3.2l-3.7,9.1c-1.1,2.7-4.2,4-7,2.9c0,0,0,0,0,0l-5-2.1
							c-0.1,0-0.2,0-0.2,0c-0.1,0-0.1,0.1-0.2,0.2l-2.1,5.1C169,9.7,167,11,164.8,11z"/>
						<path class="st3" d="M79.4-12.6c-0.4,0-0.8-0.1-1.1-0.2c-1.2-0.6-1.8-2.1-1.2-3.3c0,0,0,0,0,0l4.3-8.8c0.1-0.2,0-0.3-0.1-0.4
							c0,0,0,0,0,0l-4.9-2.4c-2.7-1.3-3.8-4.5-2.5-7.1c0,0,0,0,0-0.1l2.4-4.9c0-0.1,0-0.2,0-0.3c0-0.1-0.1-0.2-0.2-0.2l-8.8-4.2
							c-1.2-0.6-1.8-2.1-1.2-3.3c0,0,0,0,0,0c0.6-1.2,2.1-1.8,3.3-1.2c0,0,0,0,0,0l8.9,4.3c1.3,0.6,2.3,1.7,2.7,3
							c0.5,1.3,0.4,2.8-0.2,4.1l-2.4,4.9c-0.1,0.2,0,0.4,0.2,0.4c0,0,0,0,0,0l4.9,2.4c2.7,1.3,3.8,4.5,2.5,7.1L81.6-14
							C81.2-13.1,80.3-12.6,79.4-12.6z"/>
						<path class="st3" d="M130.9,30.6c-2.7,0-5-2.1-5.3-4.8l-0.6-5.4c0-0.2-0.2-0.3-0.4-0.3c0,0,0,0,0,0l-5.4,0.6
							c-2.9,0.3-5.5-1.8-5.9-4.7l-1-9.8c-0.1-1.4,0.8-2.6,2.2-2.8c1.4-0.1,2.6,0.8,2.8,2.2l0,0l1,9.8c0,0.1,0.1,0.2,0.1,0.2
							c0.1,0.1,0.2,0.1,0.2,0.1l5.4-0.6c2.9-0.3,5.5,1.8,5.8,4.7l0.6,5.4c0,0.1,0.1,0.2,0.1,0.2c0.1,0.1,0.2,0.1,0.2,0.1l9.8-1.1
							c1.4-0.1,2.6,0.9,2.8,2.2s-0.9,2.6-2.2,2.8l0,0l-9.8,1.1C131.3,30.6,131.1,30.6,130.9,30.6z"/>
						<path class="st3" d="M83.5,40.9c-0.4,0-0.8-0.1-1.1-0.3l-8.8-4.3c-2.6-1.3-3.7-4.5-2.4-7.1l2.4-4.9c0-0.1,0-0.2,0-0.2
							c0-0.1-0.1-0.2-0.2-0.2l-4.9-2.4c-2.6-1.3-3.7-4.5-2.5-7.1l4.3-8.9c0.6-1.2,2.1-1.8,3.3-1.1c1.2,0.6,1.8,2.1,1.1,3.3l-4.3,8.8
							c-0.1,0.2,0,0.4,0.2,0.5l4.9,2.4c1.3,0.6,2.2,1.7,2.7,3.1c0.5,1.3,0.4,2.8-0.3,4.1l-2.4,4.9c-0.1,0.2,0,0.4,0.2,0.4
							c0,0,0,0,0,0l8.8,4.3c1.2,0.6,1.8,2.1,1.2,3.3C85.3,40.4,84.5,40.9,83.5,40.9L83.5,40.9z"/>
						<path class="st3" d="M128.3,75.6c-1.4,0-2.5-1.1-2.5-2.5l-0.2-9.8c-0.1-2.9,2.3-5.4,5.2-5.4c0,0,0,0,0,0l5.4-0.1
							c0.1,0,0.2,0,0.2-0.1c0.1-0.1,0.1-0.2,0.1-0.2l-0.1-5.5c0-2.9,2.3-5.4,5.2-5.4l9.8-0.2c1.4,0,2.5,1.1,2.5,2.5
							c0,1.4-1.1,2.5-2.5,2.5l0,0l-9.8,0.2c-0.1,0-0.2,0-0.2,0.1c-0.1,0.1-0.1,0.2-0.1,0.2l0.1,5.5c0.1,2.9-2.3,5.4-5.2,5.4
							c0,0,0,0,0,0l-5.4,0.1c-0.1,0-0.2,0-0.2,0.1c-0.1,0.1-0.1,0.1-0.1,0.2l0.2,9.9C130.9,74.4,129.8,75.6,128.3,75.6
							C128.4,75.6,128.4,75.6,128.3,75.6L128.3,75.6z"/>
						<path class="st3" d="M224.9-141.8h-0.4c-1.3-0.3-2.2-1.5-2-2.9l1-5.6c0.2-1.1,0.8-2.1,1.7-2.7c0.9-0.6,2-0.9,3.1-0.7l2.3,0.4
							l0.4-2.3c0.4-2.3,2.5-3.8,4.8-3.4c0,0,0,0,0,0l5.7,1c1.3,0.2,2.2,1.5,2,2.9c-0.2,1.4-1.5,2.3-2.9,2.1l-4.8-0.8l-0.4,2.3
							c-0.2,1.1-0.8,2.1-1.7,2.7c-0.9,0.6-2,0.9-3.1,0.7l-2.3-0.4l-0.8,4.8C227.2-142.6,226.1-141.8,224.9-141.8z"/>
						<path class="st3" d="M49.8-178.2c-1.2,0-2.2-0.8-2.5-2c-0.3-1.4,0.6-2.7,2-2.9c0,0,0,0,0,0l4.8-0.9l-0.4-2.3
							c-0.4-2.3,1-4.4,3.3-4.9c0,0,0,0,0,0l2.3-0.4l-0.9-4.8c-0.3-1.4,0.6-2.7,2-2.9c0,0,0,0,0,0c1.4-0.3,2.7,0.6,2.9,2c0,0,0,0,0,0
							l1.1,5.6c0.4,2.3-1.1,4.4-3.3,4.9l-2.3,0.4l0.4,2.3c0.4,2.2-1,4.4-3.3,4.8c0,0,0,0,0,0l-5.6,1.1
							C50.1-178.2,49.9-178.2,49.8-178.2z"/>
						<path class="st3" d="M125.7-54.2c-1.2,0-2.4-0.6-3.2-1.5l-1.5-1.8l-1.8,1.5c-0.8,0.7-1.9,1-3,0.9c-1.1-0.1-2.1-0.7-2.8-1.5
							l-3.6-4.5c-0.9-1.1-0.7-2.6,0.3-3.5c0,0,0,0,0,0c1.1-0.9,2.6-0.7,3.5,0.4c0,0,0,0,0,0l3.1,3.8l1.8-1.5c0.8-0.7,1.9-1,3-0.9
							c1.1,0.1,2.1,0.7,2.8,1.5l1.5,1.8l3.8-3.1c1.1-0.9,2.6-0.7,3.5,0.4c0.9,1.1,0.7,2.6-0.4,3.5l-4.4,3.6
							C127.6-54.5,126.7-54.2,125.7-54.2z"/>
						<path class="st3" d="M33.4,72.6c-1.3,0-2.3-0.9-2.5-2.2l-0.7-5.7c-0.3-2.3,1.3-4.4,3.6-4.6c0,0,0,0,0,0l2.3-0.3l-0.3-2.3
							c-0.3-2.3,1.3-4.4,3.6-4.6c0,0,0,0,0,0l5.7-0.7c1.4-0.2,2.6,0.8,2.8,2.2s-0.8,2.6-2.2,2.8l0,0l-4.8,0.6l0.3,2.3
							c0.3,2.3-1.3,4.3-3.6,4.7L35.3,65l0.6,4.8c0.2,1.4-0.8,2.6-2.2,2.8C33.6,72.7,33.5,72.7,33.4,72.6z"/>
						<path class="st3" d="M138.8-103.9c-0.2,0-0.3,0-0.5,0c-1.4-0.3-2.3-1.6-2-2.9c0,0,0,0,0,0l0.9-4.8l-2.3-0.5
							c-1.1-0.2-2-0.8-2.6-1.8c-0.6-0.9-0.8-2-0.6-3.1l0.4-2.3l-4.8-1c-1.4-0.3-2.3-1.6-2-2.9c0,0,0,0,0,0c0.3-1.4,1.6-2.3,2.9-2
							c0,0,0,0,0,0l5.7,1.2c1.1,0.2,2,0.8,2.6,1.8c0.6,0.9,0.8,2,0.6,3.1l-0.4,2.3l2.3,0.5c1.1,0.2,2,0.8,2.6,1.8
							c0.6,0.9,0.8,2,0.6,3.1l-1.1,5.6C141-104.7,140-103.9,138.8-103.9z"/>
						<path class="st3" d="M42.5-119.4c-0.8,0-1.6-0.4-2.1-1.1l-3.2-4.8c-0.6-0.9-0.8-2-0.6-3.1c0.2-1.1,0.8-2,1.8-2.6l1.9-1.3
							l-1.3-2c-0.6-0.9-0.8-2-0.6-3.1c0.2-1.1,0.8-2,1.7-2.6l4.8-3.2c1.1-0.8,2.7-0.5,3.5,0.7c0.8,1.1,0.5,2.7-0.7,3.5c0,0,0,0,0,0
							l-4,2.7l1.3,1.9c1.3,1.9,0.8,4.5-1.1,5.8l-1.9,1.3l2.7,4.1c0.8,1.1,0.5,2.7-0.7,3.5c0,0,0,0,0,0
							C43.5-119.5,43-119.4,42.5-119.4z"/>
						<path class="st3" d="M237.4-111c-1.3,0-2.3-0.9-2.5-2.2l-0.6-4.8l-2.3,0.3c-2.3,0.3-4.3-1.3-4.6-3.6l-0.3-2.3l-4.9,0.6
							c-1.4,0.2-2.6-0.8-2.8-2.1c0,0,0,0,0,0c-0.2-1.4,0.8-2.6,2.2-2.8c0,0,0,0,0,0l5.7-0.7c1.1-0.1,2.2,0.2,3.1,0.8
							c0.9,0.7,1.4,1.7,1.6,2.8l0.3,2.3l2.3-0.3c2.3-0.3,4.3,1.3,4.6,3.6l0.7,5.7c0.2,1.4-0.8,2.6-2.2,2.8L237.4-111z"/>
						<path class="st3" d="M170.6-80.1c-0.9,0-1.6-0.4-2.1-1.2c-0.7-1.2-0.4-2.7,0.7-3.4c0,0,0,0,0,0l4.1-2.7l-1.3-2
							c-0.6-0.9-0.8-2-0.6-3.1c0.2-1.1,0.9-2,1.8-2.6l2-1.3l-2.6-4.1c-0.7-1.2-0.4-2.7,0.8-3.5c1.2-0.7,2.7-0.4,3.4,0.8l3.1,4.8
							c1.2,1.9,0.7,4.5-1.2,5.7l-2,1.3l1.3,2c0.6,0.9,0.8,2,0.6,3.1c-0.2,1.1-0.9,2-1.8,2.6l-4.8,3.1
							C171.5-80.3,171.1-80.1,170.6-80.1z"/>
						<path class="st3" d="M26.6,22.8h-0.4c-1.1-0.1-2.1-0.7-2.8-1.5l-1.5-1.8L20.1,21c-0.9,0.7-2,1-3,0.9c-1.1-0.1-2.1-0.7-2.8-1.5
							L10.7,16c-0.9-1.1-0.7-2.6,0.4-3.5c1.1-0.9,2.6-0.7,3.5,0.4l3.1,3.8l1.8-1.5c1.8-1.4,4.4-1.2,5.8,0.6c0,0,0,0,0,0l1.5,1.8
							l3.8-3.1c1-0.9,2.6-0.8,3.5,0.2s0.8,2.6-0.2,3.5c0,0-0.1,0.1-0.2,0.1l-4.4,3.6C28.5,22.5,27.6,22.8,26.6,22.8z"/>
						<path class="st3" d="M59.6-79c-1.3,0-2.3-0.9-2.5-2.2L56.5-86l-2.3,0.3c-1.1,0.1-2.2-0.2-3.1-0.8c-0.9-0.7-1.4-1.7-1.6-2.8
							l-0.3-2.3L44.4-91c-1.4,0.2-2.6-0.8-2.8-2.2c-0.2-1.4,0.8-2.6,2.1-2.8c0,0,0,0,0,0l5.7-0.7c2.3-0.3,4.3,1.3,4.6,3.6l0.3,2.3
							l2.3-0.3c1.1-0.1,2.2,0.2,3.1,0.8c0.9,0.7,1.4,1.7,1.6,2.8l0.7,5.7c0.2,1.4-0.7,2.6-2.1,2.8c0,0,0,0,0,0
							C59.9-79,59.8-79,59.6-79z"/>
						<path class="st3" d="M92.1,64.6c-1.4,0-2.5-1.1-2.5-2.5c0-0.6,0.2-1.2,0.6-1.6l3.8-4.4c1.5-1.7,4.1-1.9,5.9-0.5l1.8,1.5
							l1.5-1.8c1.5-1.7,4.1-1.9,5.8-0.5c0,0,0,0,0,0l4.4,3.7c1,0.9,1.2,2.5,0.3,3.5c-0.9,1-2.5,1.2-3.5,0.3l0,0l-3.7-3.2l-1.5,1.8
							c-1.5,1.7-4.1,1.9-5.8,0.5l-1.8-1.5L94,63.8C93.5,64.3,92.8,64.6,92.1,64.6z"/>
						<path class="st3" d="M242.2,72.4c-1.2,0-2.4-0.6-3.2-1.5l-1.5-1.8l-1.8,1.5c-1.8,1.4-4.4,1.2-5.8-0.6c0,0,0,0,0,0l-3.6-4.4
							c-0.8-1.1-0.6-2.7,0.5-3.5c1.1-0.8,2.5-0.6,3.4,0.4l3.1,3.8l1.8-1.5c1.8-1.4,4.4-1.2,5.8,0.6c0,0,0,0,0,0l1.5,1.8l3.7-3.1
							c1.1-0.9,2.6-0.7,3.5,0.4c0.9,1.1,0.7,2.6-0.4,3.5l-4.4,3.6C244.1,72.1,243.1,72.4,242.2,72.4z"/>
						<rect x="-28.3" y="-205.5" class="st4" width="283.5" height="283.5"/>
						<path class="st3" d="M291.5-178.9c-0.9,0-1.8-0.2-2.6-0.7c-1.2-0.7-2.1-1.8-2.5-3.2l-1.5-5.2c0-0.1-0.1-0.2-0.2-0.2
							c-0.1,0-0.2,0-0.3,0l-5.2,1.5c-1.3,0.4-2.8,0.2-4-0.5c-1.2-0.7-2.2-1.8-2.5-3.2L270-200c-0.4-1.3,0.4-2.7,1.7-3.1
							c1.3-0.4,2.7,0.4,3.1,1.7l2.7,9.5c0,0.1,0.1,0.2,0.2,0.2c0.1,0,0.2,0,0.3,0l5.2-1.5c1.4-0.4,2.8-0.2,4,0.5
							c1.2,0.7,2.1,1.8,2.5,3.2l1.5,5.2c0,0.1,0.1,0.2,0.1,0.2c0.1,0,0.2,0,0.3,0l9.5-2.7c1.3-0.4,2.7,0.4,3.1,1.7
							c0.4,1.3-0.4,2.7-1.7,3.1l-9.4,2.7C292.5-179,292-178.9,291.5-178.9z"/>
						<path class="st3" d="M404.9-154c-0.6,0-1.1-0.2-1.5-0.5l-7.8-6.1c-1.1-0.9-1.8-2.1-2-3.6c-0.2-1.4,0.2-2.8,1.1-3.9l3.4-4.3
							c0.1-0.1,0.1-0.4-0.1-0.5l-4.3-3.4c-1.1-0.9-1.8-2.1-2-3.6c-0.2-1.4,0.2-2.8,1.1-3.9l6-7.8c0.9-1.1,2.4-1.3,3.5-0.4
							c1.1,0.8,1.3,2.4,0.4,3.5c0,0,0,0,0,0l-6.1,7.8c-0.1,0.1-0.1,0.2-0.1,0.2c0,0.1,0.1,0.2,0.1,0.2l4.3,3.4
							c2.3,1.8,2.7,5.2,0.9,7.5l-3.4,4.3c-0.1,0.1-0.1,0.2-0.1,0.2c0,0.1,0.1,0.2,0.1,0.2l7.8,6.1c1.1,0.8,1.3,2.4,0.4,3.5
							c0,0,0,0,0,0C406.5-154.3,405.7-154,404.9-154z"/>
						<path class="st3" d="M380-127.6c-1.3,0-2.3-1-2.5-2.2l-1.1-9.8c0-0.1,0-0.2-0.1-0.2c-0.1-0.1-0.2-0.1-0.2-0.1l-5.4,0.6
							c-1.4,0.2-2.8-0.2-3.9-1.1c-1.1-0.9-1.8-2.2-2-3.6l-0.6-5.4c0-0.1-0.1-0.2-0.1-0.2c-0.1-0.1-0.2-0.1-0.2-0.1l-9.8,1.1
							c-1.4,0.2-2.6-0.8-2.8-2.2c0,0,0,0,0,0c-0.2-1.4,0.8-2.6,2.2-2.8c0,0,0,0,0,0l9.8-1.1c1.4-0.2,2.8,0.2,3.9,1.1
							c1.1,0.9,1.8,2.2,2,3.6l0.6,5.4c0,0.1,0.1,0.2,0.1,0.2c0.1,0.1,0.2,0.1,0.2,0.1l5.4-0.6c1.4-0.2,2.8,0.2,3.9,1.1
							c1.1,0.9,1.8,2.2,2,3.6l1.1,9.8c0.2,1.4-0.8,2.6-2.2,2.8c0,0,0,0,0,0L380-127.6z"/>
						<path class="st3" d="M435.4-177.1c-0.4,0-0.8,0-1.2-0.1l-9.6-2.2c-1.3-0.3-2.2-1.6-1.9-3c0.3-1.3,1.6-2.2,3-1.9c0,0,0,0,0,0
							l9.6,2.2c0.2,0,0.4-0.1,0.4-0.3l1.2-5.3c0.7-2.9,3.5-4.6,6.4-4l5.3,1.2c0.2,0,0.4-0.1,0.4-0.2c0,0,0,0,0,0l2.2-9.6
							c0.3-1.3,1.6-2.2,3-1.9c0,0,0,0,0,0c1.3,0.3,2.2,1.6,1.9,3l-2.2,9.6c-0.7,2.9-3.5,4.6-6.4,4l-5.3-1.2c-0.2,0-0.4,0.1-0.4,0.2
							c0,0,0,0,0,0l-1.2,5.3C440-178.8,437.9-177.1,435.4-177.1z"/>
						<path class="st3" d="M288.6-114.3c-0.2,0-0.5,0-0.7-0.1c-1.3-0.4-2.1-1.8-1.7-3.1l2.8-9.5c0-0.1,0-0.2,0-0.2
							c0-0.1-0.1-0.1-0.2-0.2l-5.2-1.5c-2.8-0.8-4.4-3.8-3.6-6.6l1.5-5.2c0-0.1,0-0.2,0-0.2c0-0.1-0.1-0.1-0.2-0.2l-9.5-2.8
							c-1.3-0.3-2.2-1.7-1.8-3c0,0,0-0.1,0-0.1c0.4-1.3,1.8-2.1,3.1-1.7c0,0,0,0,0,0l9.5,2.8c1.4,0.4,2.5,1.3,3.2,2.6
							c0.7,1.2,0.9,2.7,0.5,4.1l-1.5,5.2c-0.1,0.2,0.1,0.4,0.2,0.4l5.2,1.5c1.4,0.4,2.5,1.3,3.2,2.6c0.7,1.2,0.8,2.7,0.4,4.1
							l-2.8,9.5C290.7-115,289.7-114.3,288.6-114.3z"/>
						<path class="st3" d="M500.6-177.7c-0.7,0-1.4-0.1-2-0.4l-9.1-3.6c-1.3-0.5-1.9-2-1.4-3.2c0.5-1.3,2-1.9,3.2-1.4c0,0,0,0,0,0
							l9.1,3.7c0.2,0.1,0.4,0,0.4-0.2c0,0,0,0,0,0l2-5.1c1.1-2.7,4.2-4.1,6.9-3l5.1,2c0.1,0,0.2,0,0.3,0c0.1,0,0.1-0.1,0.2-0.2
							l3.7-9.1c0.5-1.3,2-1.9,3.2-1.4c0,0,0,0,0,0c1.3,0.5,1.9,2,1.4,3.2l-3.6,9.2c-0.5,1.3-1.5,2.4-2.8,2.9c-1.3,0.5-2.8,0.5-4.1,0
							l-5-2c-0.2-0.1-0.4,0-0.4,0.2l-2,5C504.8-179.1,502.8-177.7,500.6-177.7z"/>
						<path class="st3" d="M463.4-126.9H463l-9.8-0.7c-1.4-0.1-2.4-1.3-2.3-2.7c0,0,0,0,0,0c0.1-1.4,1.3-2.4,2.7-2.3c0,0,0,0,0,0
							l9.8,0.7c0.2,0,0.3-0.1,0.3-0.3c0,0,0,0,0,0l0.4-5.4c0.2-2.9,2.7-5.2,5.6-5c0,0,0,0,0.1,0l5.4,0.4c0.1,0,0.2,0,0.2-0.1
							c0.1-0.1,0.1-0.1,0.1-0.2l0.6-9.8c0.1-1.4,1.3-2.4,2.7-2.3c0,0,0,0,0,0c1.4,0.1,2.4,1.3,2.3,2.7l-0.6,9.8
							c-0.1,1.4-0.7,2.7-1.8,3.7c-1.1,0.9-2.5,1.4-3.9,1.3l-5.4-0.4c-0.2,0-0.3,0.1-0.4,0.3l-0.4,5.4
							C468.5-129.1,466.2-126.9,463.4-126.9z"/>
						<path class="st3" d="M289-69.3h-0.4c-1.4-0.1-2.8-0.7-3.8-1.8l-4.1-4.3c-0.1-0.1-0.3-0.2-0.5-0.2c-0.1,0-0.1,0-0.2,0l-3.9,3.8
							c-1.1,1-2.5,1.5-4,1.4c-1.4-0.1-2.8-0.7-3.8-1.8l-7.4-7.8c-1-1-0.9-2.6,0.1-3.5c1-1,2.6-0.9,3.5,0.1l7.5,7.8
							c0.1,0.1,0.3,0.2,0.5,0.2c0.1,0,0.1,0,0.2,0l3.9-3.8c1.1-1,2.5-1.5,4-1.4c1.4,0.1,2.8,0.7,3.8,1.8l4.1,4.3
							c0.1,0.1,0.3,0.2,0.5,0.2c0.1,0,0.1,0,0.2,0l7.1-6.8c1-1,2.6-0.9,3.5,0.1c1,1,0.9,2.6-0.1,3.5l-7.1,6.8
							C291.6-69.7,290.3-69.2,289-69.3z"/>
						<path class="st3" d="M366.8-85.7c-0.5,0-1-0.1-1.4-0.4c-1.2-0.8-1.5-2.3-0.7-3.5c0,0,0,0,0,0l5.3-8.3c1.6-2.5,4.9-3.2,7.4-1.6
							l4.6,3c0.1,0.1,0.2,0.1,0.2,0.1c0.1,0,0.2-0.1,0.2-0.1l3-4.6c0.8-1.2,2-2,3.4-2.3c1.4-0.3,2.8,0,4,0.7l8.3,5.3
							c1.2,0.8,1.5,2.3,0.7,3.5c-0.7,1.2-2.3,1.5-3.4,0.7c0,0,0,0,0,0l-8.3-5.4c-0.1,0-0.2,0-0.2,0c-0.1,0-0.2,0.1-0.2,0.1l-3,4.6
							c-0.8,1.2-2,2-3.4,2.3c-1.4,0.3-2.8,0-4-0.7l-4.6-3c-0.2-0.1-0.4-0.1-0.5,0.1c0,0,0,0,0,0l-5.4,8.3
							C368.4-86.1,367.6-85.7,366.8-85.7z"/>
						<path class="st3" d="M486.6,58.8h-0.4l-9.7-1.5c-2.9-0.5-4.9-3.2-4.4-6.1l0.8-5.4c0-0.1,0-0.2-0.1-0.2
							c-0.1-0.1-0.1-0.1-0.2-0.1l-5.4-0.8c-1.4-0.2-2.7-1-3.5-2.1c-0.9-1.1-1.2-2.6-1-4l1.5-9.7c0.3-1.4,1.6-2.2,2.9-2
							c1.3,0.2,2.2,1.4,2,2.7l-1.5,9.7c0,0.1,0,0.2,0.1,0.2c0.1,0.1,0.1,0.1,0.2,0.1l5.4,0.8c2.9,0.4,4.9,3.1,4.5,6c0,0,0,0,0,0
							l-0.8,5.4c0,0.1,0,0.2,0.1,0.2c0.1,0.1,0.1,0.1,0.2,0.1l9.7,1.5c1.4,0.1,2.4,1.3,2.3,2.7S487.9,59,486.6,58.8L486.6,58.8z"/>
						<path class="st3" d="M301.1-3.5c-0.2,0-0.5,0-0.7-0.1c-1.3-0.4-2.1-1.8-1.7-3.1l2.7-9.5c0.8-2.8,3.7-4.5,6.6-3.7
							c0,0,0,0,0.1,0l5.2,1.5c0.1,0,0.1,0,0.2,0c0.1,0,0.1-0.1,0.2-0.2l1.5-5.2c0.8-2.8,3.7-4.5,6.6-3.6l9.4,2.7
							c1.3,0.4,2.1,1.8,1.7,3.1c0,0,0,0,0,0c-0.4,1.3-1.8,2.1-3.1,1.7l-9.4-2.7c-0.2,0-0.3,0.1-0.4,0.2c0,0,0,0,0,0l-1.5,5.2
							c-0.4,1.4-1.3,2.5-2.5,3.2c-1.2,0.7-2.7,0.9-4,0.5l-5.2-1.5c-0.2,0-0.3,0.1-0.4,0.2l-2.7,9.5C303.1-4.2,302.2-3.5,301.1-3.5z"
							/>
						<path class="st3" d="M285.4,67.6h-0.1c-1.4,0-2.4-1.2-2.4-2.6c0,0,0,0,0,0l0.4-9.8c0-0.1,0-0.2-0.1-0.2
							c-0.1-0.1-0.1-0.1-0.2-0.1l-5.4-0.2c-2.9-0.1-5.2-2.6-5.1-5.5c0,0,0,0,0,0l0.2-5.5c0-0.2-0.1-0.3-0.3-0.3l-9.8-0.4
							c-1.4-0.1-2.5-1.2-2.4-2.6s1.2-2.5,2.6-2.4l9.8,0.4c2.9,0.1,5.2,2.6,5.1,5.5l-0.2,5.5c0,0.2,0.1,0.3,0.3,0.3c0,0,0,0,0,0
							l5.4,0.2c2.9,0.1,5.2,2.6,5.1,5.5c0,0,0,0,0,0l-0.4,9.8C287.9,66.5,286.7,67.6,285.4,67.6z"/>
						<path class="st3" d="M264.3-2.1c-1,0-2-0.6-2.3-1.6c-0.5-1.3,0.2-2.7,1.5-3.2c0,0,0,0,0,0l9.2-3.4c0.1,0,0.1-0.1,0.2-0.2
							c0-0.1,0-0.2,0-0.3L271-16c-1-2.8,0.4-5.8,3.1-6.9l5.1-1.9c0.1,0,0.2-0.1,0.2-0.2c0-0.1,0-0.2,0-0.2l-3.4-9.2
							c-0.5-1.3,0.2-2.7,1.5-3.2c1.3-0.5,2.7,0.2,3.2,1.4c0,0,0,0,0,0l3.4,9.2c0.5,1.3,0.4,2.8-0.1,4.1c-0.6,1.3-1.6,2.3-3,2.8
							l-5.1,1.9c-0.2,0.1-0.3,0.2-0.2,0.4c0,0,0,0,0,0l1.9,5.1c0.5,1.3,0.4,2.8-0.2,4.1c-0.6,1.3-1.7,2.3-3,2.8l-9.2,3.4
							C264.9-2.2,264.6-2.1,264.3-2.1z"/>
						<path class="st3" d="M503,33.4c-1.2,0-2.2-0.8-2.5-2l-1.8-9.7c-0.6-2.9,1.3-5.7,4.2-6.3c0,0,0,0,0,0l5.4-1
							c0.1,0,0.2-0.1,0.2-0.1c0.1-0.1,0.1-0.2,0-0.2l-1-5.4c-0.5-2.9,1.4-5.7,4.3-6.2c0,0,0,0,0,0l9.7-1.8c1.4-0.3,2.7,0.6,2.9,2
							s-0.6,2.7-2,2.9l0,0l-9.7,1.8c-0.1,0-0.2,0.1-0.2,0.1c-0.1,0.1-0.1,0.2-0.1,0.2l1,5.3c0.5,2.9-1.4,5.7-4.3,6.2c0,0,0,0,0,0
							l-5.4,1c-0.1,0-0.2,0.1-0.2,0.1c-0.1,0.1-0.1,0.2-0.1,0.2l1.8,9.7c0.3,1.4-0.6,2.7-2,2.9c0,0,0,0,0,0
							C503.3,33.3,503.2,33.4,503,33.4z"/>
						<path class="st3" d="M503.3-75.3c-0.6,0-1.2-0.1-1.8-0.3l-9.2-3.4c-1.3-0.5-2-1.9-1.5-3.2c0,0,0,0,0,0c0.5-1.3,1.9-2,3.2-1.5
							c0,0,0,0,0,0l9.2,3.4c0.2,0.1,0.4,0,0.4-0.2l1.9-5.1c0.5-1.3,1.5-2.4,2.8-3c1.3-0.6,2.7-0.7,4.1-0.2l5.1,1.9
							c0.2,0.1,0.4,0,0.4-0.2l3.4-9.2c0.5-1.3,1.9-2,3.2-1.5c0,0,0,0,0,0c1.3,0.5,2,1.9,1.5,3.2l-3.4,9.2c-1,2.8-4.1,4.2-6.8,3.2
							l-5.1-1.9c-0.1,0-0.2,0-0.2,0c-0.1,0-0.2,0.1-0.2,0.2l-1.9,5.1C507.6-76.7,505.6-75.3,503.3-75.3z"/>
						<path class="st3" d="M427.6-25.9c-0.3,0-0.6-0.1-0.8-0.1c-1.3-0.5-2-1.9-1.5-3.2l3.3-9.3c1-2.8,4-4.2,6.8-3.2c0,0,0,0,0,0
							l5.1,1.8c0.2,0.1,0.4,0,0.4-0.2c0,0,0,0,0,0l1.8-5.1c1-2.8,4-4.2,6.8-3.2l9.3,3.3c1.3,0.5,2,1.9,1.5,3.2
							c-0.5,1.3-1.9,2-3.2,1.5l-9.3-3.3c-0.2-0.1-0.4,0-0.4,0.2l-1.8,5.1c-1,2.8-4,4.2-6.8,3.2l-5.1-1.8c-0.2-0.1-0.4,0-0.4,0.2
							l-3.2,9.3C429.6-26.6,428.7-25.9,427.6-25.9z"/>
						<path class="st3" d="M523.9-12.7c-0.9,0-1.6-0.4-2.1-1.1l-5.3-8.3c-1.6-2.5-0.9-5.8,1.6-7.4l4.6-2.9c0.1,0,0.1-0.1,0.1-0.2
							c0-0.1,0-0.2,0-0.2l-2.9-4.6c-1.6-2.5-0.9-5.8,1.6-7.4c0,0,0,0,0,0l8.3-5.3c1.2-0.7,2.7-0.4,3.5,0.8c0.7,1.2,0.4,2.7-0.8,3.5
							l-8.3,5.3c-0.2,0.1-0.2,0.3-0.1,0.5l2.9,4.6c0.8,1.2,1,2.6,0.7,4c-0.3,1.4-1.1,2.6-2.3,3.4l-4.6,2.9c-0.2,0.1-0.2,0.3-0.1,0.5
							c0,0,0,0,0,0l5.3,8.3c0.7,1.2,0.4,2.7-0.8,3.5C524.9-12.8,524.4-12.6,523.9-12.7z"/>
						<path class="st3" d="M484-41.4h-0.1c-1.4-0.1-2.4-1.3-2.3-2.6l0.5-9.8c0-0.2-0.1-0.3-0.3-0.3c0,0,0,0,0,0l-5.4-0.3
							c-1.4-0.1-2.7-0.7-3.7-1.8c-1-1-1.4-2.4-1.4-3.8l0.3-5.4c0-0.2-0.1-0.3-0.3-0.3c0,0,0,0,0,0l-9.8-0.5c-1.4,0-2.4-1.2-2.4-2.6
							c0,0,0,0,0,0c0.1-1.4,1.2-2.4,2.6-2.4c0,0,0,0,0,0l9.8,0.5c2.9,0.2,5.2,2.7,5,5.6l-0.3,5.4c0,0.1,0,0.2,0.1,0.2
							c0.1,0.1,0.1,0.1,0.2,0.1l5.4,0.3c2.9,0.2,5.2,2.7,5,5.6l-0.5,9.8C486.4-42.4,485.3-41.4,484-41.4z"/>
						<path class="st3" d="M448.2,11c-0.7,0-1.4-0.1-2-0.4l-9.1-3.7c-1.3-0.5-1.9-2-1.4-3.3s2-1.9,3.3-1.4l9.1,3.7
							c0.2,0.1,0.4,0,0.4-0.2c0,0,0,0,0,0l2.1-5c1.1-2.7,4.2-4,6.9-2.9c0,0,0,0,0,0l5,2.1c0.2,0.1,0.4,0,0.4-0.2l3.7-9.1
							c0.5-1.3,2-1.9,3.3-1.4c0,0,0,0,0,0c1.3,0.5,1.9,2,1.4,3.3l-3.7,9.1c-1.1,2.7-4.2,4-7,2.9c0,0,0,0,0,0l-5-2.1
							c-0.1,0-0.2,0-0.3,0c-0.1,0-0.1,0.1-0.2,0.2l-2.1,5.1C452.4,9.7,450.4,11,448.2,11z"/>
						<path class="st3" d="M362.8-12.6c-0.4,0-0.7-0.1-1.1-0.2c-1.2-0.6-1.8-2.1-1.2-3.3c0,0,0,0,0,0l4.3-8.8c0.1-0.2,0-0.4-0.2-0.5
							l-4.9-2.4c-2.7-1.3-3.8-4.5-2.5-7.1c0,0,0,0,0-0.1l2.4-4.9c0-0.1,0-0.2,0-0.3c0-0.1-0.1-0.2-0.2-0.2l-8.9-4.3
							c-1.2-0.6-1.8-2.1-1.2-3.3c0,0,0,0,0,0c0.6-1.2,2.1-1.8,3.3-1.2c0,0,0,0,0,0l8.9,4.3c1.3,0.6,2.2,1.7,2.7,3
							c0.5,1.3,0.4,2.8-0.2,4.1l-2.4,4.9c-0.1,0.2,0,0.4,0.2,0.4c0,0,0,0,0,0l4.9,2.4c2.7,1.3,3.8,4.5,2.5,7.1c0,0,0,0,0,0l-4.3,8.9
							C364.7-13.1,363.8-12.6,362.8-12.6z"/>
						<path class="st3" d="M414.4,30.6c-2.7,0-5-2.1-5.3-4.8l-0.6-5.4c0-0.2-0.2-0.3-0.4-0.3c0,0,0,0,0,0l-5.4,0.6
							c-2.9,0.3-5.5-1.8-5.9-4.7l-1.1-9.8c-0.1-1.4,0.8-2.6,2.2-2.8c1.4-0.1,2.6,0.8,2.8,2.2l1.1,9.8c0,0.1,0.1,0.2,0.1,0.2
							c0.1,0.1,0.2,0.1,0.2,0.1l5.4-0.6c2.9-0.3,5.6,1.8,5.9,4.7c0,0,0,0,0,0l0.6,5.4c0,0.1,0.1,0.2,0.1,0.2
							c0.1,0.1,0.2,0.1,0.2,0.1l9.8-1.1c1.4-0.1,2.6,0.8,2.8,2.2c0.1,1.4-0.8,2.6-2.2,2.8l-9.8,1C414.8,30.6,414.6,30.6,414.4,30.6z
							"/>
						<path class="st3" d="M372,45.9c-0.4,0-0.8-0.1-1.1-0.3l-8.9-4.3c-2.6-1.3-3.7-4.5-2.4-7.1l2.4-4.9c0-0.1,0-0.2,0-0.2
							c0-0.1-0.1-0.2-0.2-0.2l-4.9-2.4c-2.6-1.3-3.7-4.5-2.4-7.1l4.3-8.8c0.6-1.2,2.1-1.8,3.3-1.1c1.2,0.6,1.8,2.1,1.1,3.3l-4.2,8.8
							c-0.1,0.2,0,0.4,0.1,0.4c0,0,0,0,0,0l4.9,2.4c2.6,1.3,3.7,4.5,2.5,7.1c0,0,0,0,0,0l-2.4,4.9c-0.1,0.2,0,0.3,0.1,0.4
							c0,0,0,0,0,0l8.8,4.3c1.2,0.6,1.8,2.1,1.2,3.3C373.8,45.4,373,45.9,372,45.9z"/>
						<path class="st3" d="M411.8,75.6c-1.4,0-2.5-1.1-2.5-2.5l-0.2-9.8c-0.1-2.9,2.3-5.4,5.2-5.4c0,0,0,0,0,0l5.5-0.1
							c0.1,0,0.2,0,0.2-0.1c0.1-0.1,0.1-0.2,0.1-0.2l-0.1-5.5c-0.1-2.9,2.3-5.4,5.2-5.4c0,0,0,0,0,0l9.8-0.2c1.4,0,2.5,1.1,2.5,2.5
							c0,1.4-1.1,2.5-2.5,2.5l0,0l-9.9,0.2c-0.1,0-0.2,0-0.2,0.1c-0.1,0.1-0.1,0.2-0.1,0.2l0.1,5.5c0.1,2.9-2.3,5.4-5.2,5.4
							c0,0,0,0,0,0l-5.5,0.1c-0.1,0-0.2,0-0.2,0.1c-0.1,0.1-0.1,0.1-0.1,0.2l0.2,9.9C414.3,74.4,413.2,75.6,411.8,75.6
							C411.8,75.6,411.8,75.6,411.8,75.6L411.8,75.6z"/>
						<path class="st3" d="M508.4-141.8H508c-1.4-0.2-2.3-1.5-2-2.9l1-5.6c0.2-1.1,0.8-2.1,1.7-2.7c0.9-0.6,2-0.9,3.1-0.7l2.3,0.4
							l0.4-2.3c0.4-2.3,2.5-3.8,4.8-3.4c0,0,0,0,0,0l5.7,1c1.4,0.2,2.3,1.5,2,2.9c-0.2,1.4-1.5,2.3-2.9,2.1l-4.8-0.8l-0.4,2.3
							c-0.2,1.1-0.8,2.1-1.8,2.7c-0.9,0.6-2,0.9-3.1,0.7l-2.3-0.4l-0.8,4.8C510.6-142.7,509.6-141.8,508.4-141.8z"/>
						<path class="st3" d="M333.2-178.2c-1.2,0-2.2-0.8-2.5-2c-0.3-1.4,0.6-2.7,2-2.9c0,0,0,0,0,0l4.8-0.9l-0.4-2.3
							c-0.4-2.3,1.1-4.4,3.3-4.9l2.3-0.4l-0.9-4.8c-0.3-1.4,0.6-2.7,2-2.9c0,0,0,0,0,0c1.4-0.3,2.7,0.6,2.9,2c0,0,0,0,0,0l1.1,5.6
							c0.4,2.3-1.1,4.4-3.3,4.9l-2.3,0.4l0.4,2.3c0.4,2.3-1.1,4.4-3.3,4.8c0,0,0,0,0,0l-5.6,1.1
							C333.6-178.2,333.4-178.2,333.2-178.2z"/>
						<path class="st3" d="M409.2-54.2c-1.2,0-2.4-0.6-3.2-1.5l-1.5-1.8l-1.8,1.5c-0.8,0.7-1.9,1-3,0.9c-1.1-0.1-2.1-0.7-2.8-1.5
							l-3.6-4.5c-0.9-1.1-0.7-2.6,0.4-3.5c1.1-0.9,2.6-0.7,3.5,0.4l3.1,3.8l1.8-1.5c0.8-0.7,1.9-1,3-0.9c1.1,0.1,2.1,0.7,2.8,1.5
							l1.5,1.8l3.8-3.1c1.1-0.9,2.6-0.7,3.5,0.4c0.9,1.1,0.7,2.6-0.4,3.5l-4.4,3.6C411.1-54.5,410.2-54.2,409.2-54.2z"/>
						<path class="st3" d="M316.9,72.6c-1.3,0-2.3-0.9-2.5-2.2l-0.7-5.7c-0.3-2.3,1.3-4.4,3.6-4.7l2.3-0.3l-0.3-2.3
							c-0.3-2.3,1.3-4.4,3.6-4.7l5.7-0.7c1.4-0.2,2.6,0.8,2.8,2.2s-0.8,2.6-2.2,2.8l0,0l-4.9,0.6l0.3,2.3c0.1,1.1-0.2,2.2-0.8,3.1
							c-0.7,0.9-1.7,1.4-2.8,1.6l-2.3,0.3l0.6,4.8c0.2,1.4-0.8,2.6-2.2,2.8c0,0,0,0,0,0C317.1,72.6,317,72.6,316.9,72.6z"/>
						<path class="st3" d="M422.3-103.9c-0.2,0-0.3,0-0.5,0c-1.4-0.3-2.3-1.6-2-2.9c0,0,0,0,0,0l1-4.8l-2.3-0.5
							c-1.1-0.2-2-0.8-2.6-1.8c-0.6-0.9-0.8-2-0.6-3.1l0.5-2.3l-4.8-1c-1.4-0.3-2.3-1.6-2-2.9c0,0,0,0,0,0c0.3-1.4,1.6-2.3,2.9-2
							c0,0,0,0,0,0l5.6,1.1c1.1,0.2,2,0.9,2.6,1.8c0.6,0.9,0.8,2,0.6,3.1l-0.5,2.3l2.3,0.5c1.1,0.2,2,0.8,2.6,1.8
							c0.6,0.9,0.8,2,0.6,3.1l-1.1,5.6C424.5-104.7,423.5-103.9,422.3-103.9z"/>
						<path class="st3" d="M326-119.4c-0.8,0-1.6-0.4-2.1-1.1l-3.2-4.8c-0.6-0.9-0.9-2-0.6-3.1c0.2-1.1,0.8-2,1.8-2.6l1.9-1.3
							l-1.3-1.9c-0.6-0.9-0.8-2-0.6-3.1c0.2-1.1,0.8-2,1.8-2.6l4.8-3.2c1.1-0.8,2.7-0.5,3.5,0.7c0.8,1.1,0.5,2.7-0.7,3.5
							c0,0,0,0,0,0l-4,2.7l1.3,1.9c1.3,1.9,0.8,4.5-1.1,5.8l-1.9,1.3l2.7,4.1c0.8,1.1,0.5,2.7-0.7,3.5
							C327-119.6,326.5-119.4,326-119.4z"/>
						<path class="st3" d="M520.9-111c-1.3,0-2.3-0.9-2.5-2.2l-0.6-4.8l-2.3,0.3c-2.3,0.3-4.3-1.3-4.6-3.6l-0.3-2.3l-4.9,0.6
							c-1.4,0.2-2.6-0.8-2.8-2.1c0,0,0,0,0,0c-0.2-1.4,0.8-2.6,2.2-2.8l5.7-0.7c1.1-0.1,2.2,0.2,3.1,0.8c0.9,0.7,1.4,1.7,1.6,2.8
							l0.3,2.3l2.3-0.3c2.3-0.3,4.4,1.3,4.7,3.6l0.7,5.7c0.2,1.4-0.8,2.6-2.2,2.8c0,0,0,0,0,0L520.9-111z"/>
						<path class="st3" d="M454-80.1c-0.9,0-1.6-0.4-2.1-1.2c-0.7-1.2-0.4-2.7,0.7-3.4c0,0,0,0,0,0l4.1-2.7l-1.3-2
							c-0.6-0.9-0.8-2-0.6-3.1c0.2-1.1,0.9-2,1.8-2.6l2-1.3l-2.6-4.1c-0.8-1.2-0.4-2.7,0.7-3.5c0,0,0,0,0,0c1.2-0.7,2.7-0.4,3.5,0.8
							l3.1,4.8c1.2,1.9,0.7,4.5-1.2,5.7c0,0,0,0,0,0l-2,1.3l1.3,2c0.6,0.9,0.8,2,0.6,3.1c-0.2,1.1-0.9,2-1.8,2.6l-4.8,3.1
							C455-80.2,454.5-80.1,454-80.1z"/>
						<path class="st3" d="M322.1,29.8h-0.4c-1.1-0.1-2.1-0.7-2.8-1.5l-1.5-1.8l-1.8,1.5c-1.8,1.4-4.4,1.2-5.8-0.6c0,0,0,0,0,0
							l-3.6-4.4c-0.9-1.1-0.7-2.6,0.3-3.5c1.1-0.9,2.6-0.7,3.5,0.3l3.1,3.8l1.8-1.5c1.8-1.4,4.4-1.2,5.9,0.6l1.5,1.8l3.8-3.1
							c1.1-0.8,2.7-0.6,3.5,0.5c0.8,1,0.6,2.5-0.3,3.4l-4.5,3.6C324,29.5,323.1,29.8,322.1,29.8z"/>
						<path class="st3" d="M343.1-79c-1.3,0-2.3-0.9-2.5-2.2L340-86l-2.3,0.3c-1.1,0.1-2.2-0.2-3.1-0.8c-0.9-0.7-1.4-1.7-1.6-2.8
							l-0.3-2.3l-4.9,0.6c-1.4,0.2-2.6-0.8-2.8-2.2c-0.2-1.4,0.7-2.6,2.1-2.8c0,0,0,0,0.1,0l5.7-0.7c2.3-0.3,4.4,1.3,4.6,3.6
							l0.3,2.3l2.3-0.3c1.1-0.1,2.2,0.2,3.1,0.8c0.9,0.7,1.4,1.7,1.6,2.8l0.7,5.7c0.2,1.4-0.8,2.6-2.1,2.8c0,0,0,0,0,0
							C343.3-79,343.2-79,343.1-79z"/>
						<path class="st3" d="M375.6,64.6c-1.4,0-2.5-1.1-2.5-2.5c0-0.6,0.2-1.2,0.6-1.6l3.7-4.3c1.5-1.7,4.1-1.9,5.9-0.5l1.7,1.5
							l1.5-1.8c1.5-1.7,4.1-1.9,5.9-0.5c0,0,0,0,0,0l4.4,3.7c1,0.9,1.2,2.5,0.3,3.5c-0.9,1-2.5,1.2-3.5,0.3l-3.7-3.2l-1.5,1.8
							c-1.5,1.7-4.1,1.9-5.9,0.5l-1.8-1.5l-3.2,3.7C377,64.3,376.3,64.6,375.6,64.6z"/>
						<path class="st3" d="M525.6,72.4c-1.2,0-2.4-0.6-3.2-1.5l-1.5-1.8l-1.8,1.5c-1.8,1.4-4.4,1.2-5.8-0.6l-3.6-4.4
							c-0.9-1.1-0.7-2.6,0.4-3.5c1.1-0.9,2.6-0.7,3.5,0.4l3.1,3.8l1.8-1.5c1.8-1.4,4.4-1.2,5.8,0.6c0,0,0,0,0,0l1.5,1.8l3.8-3.1
							c1.1-0.9,2.6-0.7,3.5,0.4c0.9,1.1,0.7,2.6-0.4,3.5l-4.5,3.6C527.5,72.1,526.6,72.4,525.6,72.4z"/>
						<rect x="255.1" y="-205.5" class="st4" width="283.5" height="283.5"/>
						<path class="st3" d="M8.1,104.5c-2.4,0-4.4-1.6-5.1-3.9l-1.5-5.2c0-0.1-0.1-0.2-0.2-0.2c-0.1,0-0.2,0-0.2,0l-5.2,1.5
							c-1.3,0.4-2.8,0.2-4-0.5c-1.2-0.7-2.2-1.8-2.6-3.2l-2.7-9.5c-0.4-1.3,0.4-2.7,1.7-3.1c1.3-0.4,2.7,0.4,3.1,1.7c0,0,0,0,0,0
							l2.7,9.5c0,0.1,0.1,0.2,0.2,0.2c0.1,0,0.2,0,0.2,0l5.2-1.5c2.8-0.8,5.8,0.8,6.6,3.6l1.5,5.2c0,0.1,0.1,0.2,0.2,0.2
							c0.1,0,0.2,0,0.3,0l9.5-2.7c1.3-0.4,2.7,0.4,3.1,1.8c0.4,1.3-0.4,2.7-1.8,3.1l-9.5,2.7C9.1,104.5,8.6,104.5,8.1,104.5z"/>
						<path class="st3" d="M121.5,129.4c-0.6,0-1.1-0.2-1.5-0.5l-7.8-6.1c-2.3-1.8-2.7-5.2-0.9-7.5l3.3-4.3c0.1-0.1,0.1-0.4-0.1-0.5
							l-4.3-3.3c-2.3-1.8-2.7-5.2-0.9-7.5l6.1-7.8c0.8-1.1,2.4-1.4,3.5-0.6c1.1,0.8,1.4,2.4,0.6,3.5c0,0.1-0.1,0.1-0.1,0.2l-6,7.8
							c-0.1,0.1-0.1,0.2-0.1,0.2c0,0.1,0.1,0.2,0.1,0.2l4.3,3.3c2.3,1.8,2.7,5.2,0.9,7.5l-3.3,4.3c-0.1,0.1-0.1,0.2-0.1,0.2
							c0,0.1,0.1,0.2,0.1,0.2l7.8,6c1.1,0.9,1.3,2.4,0.4,3.5C123,129,122.3,129.4,121.5,129.4L121.5,129.4z"/>
						<path class="st3" d="M96.5,155.8c-1.3,0-2.3-0.9-2.5-2.2l-1.1-9.8c0-0.1-0.1-0.2-0.1-0.2c-0.1-0.1-0.2-0.1-0.2-0.1l-5.4,0.6
							c-2.9,0.3-5.6-1.8-5.9-4.7c0,0,0,0,0,0l-0.6-5.4c0-0.1-0.1-0.2-0.1-0.2c-0.1-0.1-0.2-0.1-0.2-0.1l-9.8,1.1
							c-1.4,0.2-2.6-0.8-2.8-2.2c-0.2-1.4,0.8-2.6,2.2-2.8l0,0l9.8-1.1c2.9-0.3,5.6,1.8,5.9,4.7c0,0,0,0,0,0l0.6,5.4
							c0,0.1,0.1,0.2,0.1,0.2c0.1,0.1,0.2,0.1,0.2,0.1l5.4-0.6c2.9-0.3,5.6,1.8,5.9,4.7l1.2,9.8c0.2,1.4-0.8,2.6-2.2,2.8L96.5,155.8
							z"/>
						<path class="st3" d="M151.9,106.4c-0.4,0-0.8,0-1.2-0.1l-9.6-2.2c-1.3-0.3-2.2-1.6-1.9-3c0.3-1.3,1.6-2.2,3-1.9l0,0l9.6,2.2
							c0.2,0,0.4-0.1,0.4-0.2c0,0,0,0,0,0l1.2-5.3c0.7-2.9,3.5-4.6,6.4-4l5.3,1.2c0.2,0,0.4-0.1,0.4-0.3l2.2-9.6
							c0.3-1.3,1.6-2.2,3-1.9c1.3,0.3,2.2,1.6,1.9,3l-2.2,9.6c-0.7,2.9-3.5,4.6-6.4,4l-5.3-1.2c-0.2,0-0.4,0.1-0.4,0.3l-1.2,5.3
							C156.5,104.6,154.4,106.4,151.9,106.4z"/>
						<path class="st3" d="M5.2,169.2c-0.2,0-0.5,0-0.7-0.1c-1.3-0.4-2.1-1.8-1.7-3.1c0,0,0,0,0,0l2.7-9.4c0-0.1,0-0.2,0-0.3
							c0-0.1-0.1-0.1-0.2-0.2l-5.3-1.5c-2.8-0.8-4.4-3.8-3.6-6.6l1.6-5.2c0-0.1,0-0.2,0-0.3c0-0.1-0.1-0.1-0.2-0.2l-9.5-2.8
							c-1.3-0.4-2.1-1.8-1.7-3.1c0.4-1.3,1.8-2.1,3.1-1.7l9.4,2.8c1.4,0.4,2.5,1.3,3.2,2.6c0.7,1.2,0.8,2.7,0.5,4l-1.5,5.2
							c0,0.2,0.1,0.4,0.2,0.4l5.2,1.5c1.4,0.4,2.5,1.3,3.2,2.6c0.7,1.2,0.9,2.7,0.4,4.1l-2.8,9.5C7.4,168.4,6.3,169.2,5.2,169.2z"/>
						<path class="st3" d="M217.1,105.7c-0.7,0-1.4-0.1-2-0.4l-9.1-3.7c-1.3-0.5-2-1.9-1.5-3.2c0.5-1.3,1.9-2,3.2-1.5
							c0.1,0,0.1,0.1,0.2,0.1l9.1,3.7c0.2,0.1,0.4,0,0.4-0.2l2-5.1c1.1-2.7,4.2-4.1,6.9-3l5.1,2c0.1,0,0.2,0,0.2,0
							c0.1,0,0.2-0.1,0.2-0.2l3.7-9.1c0.5-1.3,2-1.9,3.3-1.3c1.2,0.5,1.8,1.9,1.4,3.2l-3.7,9.1c-1.1,2.7-4.2,4.1-6.9,3c0,0,0,0,0,0
							l-5.1-2c-0.2-0.1-0.4,0-0.4,0.2c0,0,0,0,0,0l-2,5.1C221.3,104.4,219.3,105.7,217.1,105.7z"/>
						<path class="st3" d="M179.9,156.5h-0.4l-9.8-0.6c-1.4-0.1-2.4-1.3-2.3-2.7s1.3-2.4,2.7-2.3l9.8,0.6c0.2,0,0.3-0.1,0.4-0.3
							c0,0,0,0,0,0l0.4-5.4c0.2-2.9,2.7-5.2,5.7-5c0,0,0,0,0,0l5.4,0.4c0.1,0,0.2,0,0.2-0.1c0.1-0.1,0.1-0.1,0.1-0.2l0.7-9.8
							c0.1-1.4,1.3-2.4,2.7-2.3c1.4,0.1,2.4,1.3,2.3,2.7l-0.7,9.8c-0.2,2.9-2.7,5.2-5.6,5c0,0,0,0-0.1,0l-5.4-0.4
							c-0.2,0-0.3,0.1-0.4,0.3l-0.4,5.4C185.1,154.4,182.7,156.5,179.9,156.5z"/>
						<path class="st3" d="M5.5,214.2H5.2c-1.4-0.1-2.8-0.7-3.8-1.8l-4.1-4.3c-0.1-0.1-0.3-0.2-0.5-0.2c0,0-0.1,0-0.2,0.1l-3.9,3.8
							c-1.1,1-2.5,1.5-4,1.4c-1.4-0.1-2.7-0.7-3.7-1.8l-7.5-7.8c-1-1-0.9-2.6,0.1-3.5c0,0,0,0,0,0c1-1,2.6-0.9,3.5,0.1l7.4,7.8
							c0.1,0.1,0.3,0.2,0.5,0.2c0.1,0,0.1,0,0.2,0l3.9-3.8c1.1-1,2.5-1.5,4-1.4c1.4,0.1,2.8,0.7,3.8,1.8l4,4.3
							c0.1,0.1,0.3,0.2,0.5,0.2c0.1,0,0.1,0,0.2,0l7.1-6.8c0.9-1.1,2.5-1.2,3.5-0.3c1.1,0.9,1.2,2.5,0.3,3.5
							c-0.1,0.1-0.2,0.2-0.3,0.3l-7.1,6.8C8.2,213.7,6.9,214.2,5.5,214.2z"/>
						<path class="st3" d="M83.3,197.8c-1.4,0-2.5-1.1-2.5-2.5c0-0.5,0.1-1,0.4-1.4l5.3-8.3c1.6-2.5,4.9-3.2,7.4-1.6c0,0,0,0,0.1,0
							l4.6,3c0.1,0.1,0.2,0.1,0.2,0.1c0.1,0,0.2-0.1,0.2-0.1l3-4.6c1.6-2.5,4.9-3.2,7.4-1.6c0,0,0,0,0,0l8.3,5.4
							c1.2,0.7,1.6,2.2,0.9,3.4c-0.7,1.2-2.2,1.6-3.4,0.9c-0.1,0-0.1-0.1-0.2-0.1l-8.3-5.4c-0.1-0.1-0.2-0.1-0.2-0.1
							c-0.1,0-0.2,0.1-0.2,0.1l-3,4.6c-1.6,2.5-4.9,3.2-7.4,1.6c0,0,0,0,0,0l-4.6-3c-0.2-0.1-0.4-0.1-0.5,0.1l-5.3,8.3
							C84.9,197.3,84.2,197.8,83.3,197.8z"/>
						<path class="st3" d="M203.1,342.3c-0.1,0-0.3,0-0.4,0l-9.7-1.5c-2.9-0.4-4.9-3.1-4.5-6c0,0,0,0,0,0l0.8-5.4
							c0-0.1,0-0.2-0.1-0.2c0-0.1-0.1-0.1-0.2-0.1l-5.4-0.8c-1.4-0.2-2.7-1-3.5-2.1c-0.9-1.1-1.2-2.6-1-4l1.5-9.7
							c0.2-1.4,1.4-2.4,2.8-2.2c1.4,0.2,2.4,1.4,2.2,2.8c0,0.1,0,0.1,0,0.2l-1.5,9.7c0,0.1,0,0.2,0.1,0.2c0.1,0.1,0.1,0.1,0.2,0.1
							l5.4,0.8c2.9,0.5,4.9,3.2,4.5,6.1l-0.8,5.4c0,0.1,0,0.2,0.1,0.2c0.1,0.1,0.1,0.1,0.2,0.1l9.7,1.5c1.4,0.1,2.4,1.3,2.3,2.7
							S204.5,342.4,203.1,342.3L203.1,342.3z"/>
						<path class="st3" d="M17.6,280c-0.2,0-0.5,0-0.7-0.1c-1.3-0.4-2.1-1.8-1.7-3.1c0,0,0,0,0,0l2.7-9.5c0.8-2.8,3.8-4.4,6.6-3.6
							l5.2,1.5c0.1,0,0.1,0,0.2,0c0.1,0,0.1-0.1,0.2-0.2l1.5-5.2c0.8-2.8,3.8-4.4,6.6-3.6l9.4,2.7c1.3,0.3,2.1,1.7,1.8,3
							c-0.3,1.3-1.7,2.1-3,1.8c-0.1,0-0.1,0-0.2,0l-9.4-2.7c-0.2,0-0.3,0.1-0.4,0.2c0,0,0,0,0,0l-1.5,5.2c-0.8,2.8-3.8,4.4-6.6,3.6
							l-5.2-1.5c-0.2,0-0.3,0.1-0.4,0.2l-2.7,9.4C19.7,279.2,18.7,280,17.6,280z"/>
						<path class="st3" d="M1.9,351H1.8c-1.4-0.1-2.5-1.2-2.4-2.6c0,0,0,0,0,0l0.4-9.8c0-0.1,0-0.2-0.1-0.2
							c-0.1-0.1-0.1-0.1-0.2-0.1L-6,338c-2.9-0.1-5.2-2.6-5.1-5.5l0.2-5.4c0-0.2-0.1-0.3-0.3-0.4c0,0,0,0,0,0l-9.8-0.4
							c-1.4-0.1-2.5-1.2-2.4-2.6c0,0,0,0,0,0c0-1.4,1.2-2.4,2.6-2.4c0,0,0,0,0,0l9.8,0.4c2.9,0.1,5.2,2.6,5.1,5.5l-0.2,5.4
							c0,0.2,0.1,0.3,0.3,0.4l5.4,0.2c1.4,0.1,2.8,0.7,3.7,1.8c1,1,1.5,2.4,1.4,3.8l-0.4,9.8C4.3,350,3.2,351,1.9,351z"/>
						<path class="st3" d="M-19.1,281.3c-1,0-2-0.6-2.3-1.6c-0.5-1.3,0.2-2.7,1.5-3.2l9.2-3.4c0.1,0,0.1-0.1,0.2-0.2
							c0-0.1,0-0.2,0-0.2l-1.9-5.1c-1-2.8,0.4-5.8,3.1-6.9c0,0,0,0,0,0l5.1-1.9c0.1,0,0.1-0.1,0.2-0.2c0-0.1,0-0.2,0-0.3l-3.4-9.2
							c-0.5-1.3,0.2-2.7,1.5-3.2c0,0,0,0,0,0c1.3-0.5,2.7,0.2,3.2,1.5l3.4,9.2c0.5,1.3,0.4,2.8-0.2,4.1c-0.6,1.3-1.7,2.3-3,2.8
							l-5.1,1.9c-0.2,0.1-0.3,0.3-0.2,0.4l1.9,5.1c0.5,1.3,0.5,2.8-0.1,4.1c-0.6,1.3-1.7,2.3-3,2.8l-9.2,3.4
							C-18.5,281.3-18.8,281.3-19.1,281.3z"/>
						<path class="st3" d="M219.5,316.8c-1.2,0-2.2-0.8-2.5-2l-1.8-9.7c-0.5-2.9,1.4-5.7,4.3-6.2c0,0,0,0,0,0l5.4-1
							c0.1,0,0.2-0.1,0.2-0.1c0.1-0.1,0.1-0.2,0.1-0.2l-1-5.4c-0.5-2.9,1.4-5.7,4.3-6.2c0,0,0,0,0,0l9.7-1.8c1.3-0.3,2.7,0.5,3,1.9
							c0.3,1.3-0.5,2.7-1.9,3c-0.1,0-0.1,0-0.2,0l-9.7,1.8c-0.1,0-0.2,0.1-0.2,0.1c-0.1,0.1-0.1,0.2-0.1,0.2l1,5.4
							c0.5,2.9-1.4,5.7-4.3,6.2c0,0,0,0,0,0l-5.4,1c-0.1,0-0.2,0.1-0.2,0.1c-0.1,0.1-0.1,0.2-0.1,0.2l1.8,9.7c0.2,1.4-0.6,2.7-2,2.9
							C219.9,316.8,219.7,316.8,219.5,316.8z"/>
						<path class="st3" d="M219.9,208.2c-0.6,0-1.2-0.1-1.8-0.3l-9.2-3.4c-1.3-0.5-2-1.9-1.5-3.2c0.5-1.3,1.9-2,3.2-1.5l9.2,3.4
							c0.2,0.1,0.4,0,0.4-0.2c0,0,0,0,0,0l1.9-5.1c0.5-1.3,1.5-2.4,2.8-3c1.3-0.6,2.8-0.7,4.1-0.2l5.1,1.9c0.2,0.1,0.4,0,0.4-0.2
							c0,0,0,0,0,0l3.4-9.2c0.5-1.3,1.9-2,3.2-1.5c1.3,0.5,2,1.9,1.5,3.2l-3.4,9.2c-1,2.8-4.1,4.2-6.8,3.2l-5.1-1.9
							c-0.2-0.1-0.4,0-0.4,0.2c0,0,0,0,0,0l-1.9,5.1C224.1,206.8,222.1,208.2,219.9,208.2z"/>
						<path class="st3" d="M144.1,257.5c-0.3,0-0.6,0-0.8-0.1c-1.3-0.5-2-1.9-1.5-3.2c0,0,0,0,0,0l3.3-9.3c1-2.8,4-4.2,6.8-3.2
							l5.1,1.8c0.2,0.1,0.4,0,0.4-0.2l1.8-5.1c1-2.8,4-4.2,6.8-3.2l9.3,3.3c1.3,0.5,2,1.9,1.5,3.2c-0.5,1.3-1.9,2-3.2,1.5l-9.3-3.3
							c-0.2-0.1-0.4,0-0.4,0.2l-1.8,5.2c-1,2.8-4,4.2-6.8,3.2c0,0,0,0,0,0l-5.1-1.8c-0.2-0.1-0.4,0-0.4,0.2c0,0,0,0,0,0l-3.3,9.3
							C146.1,256.9,145.2,257.5,144.1,257.5z"/>
						<path class="st3" d="M240.5,270.8c-0.9,0-1.7-0.4-2.1-1.2l-5.3-8.3c-1.6-2.5-0.8-5.8,1.6-7.4l4.6-2.9c0.1,0,0.1-0.1,0.1-0.2
							c0-0.1,0-0.2,0-0.2l-3-4.6c-1.6-2.5-0.9-5.8,1.6-7.4l8.3-5.3c1.1-0.8,2.7-0.5,3.5,0.6c0.8,1.1,0.5,2.7-0.6,3.5
							c-0.1,0-0.1,0.1-0.2,0.1l-8.3,5.3c-0.2,0.1-0.2,0.3-0.1,0.5l2.9,4.6c1.6,2.5,0.9,5.8-1.6,7.4l-4.6,2.9
							c-0.2,0.1-0.2,0.3-0.1,0.5c0,0,0,0,0,0l5.3,8.3c0.7,1.2,0.4,2.7-0.8,3.5C241.4,270.7,241,270.8,240.5,270.8z"/>
						<path class="st3" d="M200.6,242.1h-0.1c-1.4-0.1-2.4-1.3-2.4-2.6l0.5-9.8c0-0.2-0.1-0.3-0.3-0.3c0,0,0,0,0,0l-5.4-0.3
							c-2.9-0.2-5.2-2.7-5-5.6l0.3-5.4c0-0.2-0.1-0.3-0.3-0.3c0,0,0,0,0,0L178,217c-1.4-0.1-2.4-1.2-2.4-2.6
							c0.1-1.4,1.2-2.4,2.6-2.4l9.8,0.5c2.9,0.2,5.2,2.7,5.1,5.6l-0.3,5.4c0,0.1,0,0.2,0.1,0.2c0.1,0.1,0.2,0.1,0.2,0.1l5.4,0.3
							c2.9,0.2,5.1,2.7,5,5.6l-0.5,9.8C203,241,201.9,242.1,200.6,242.1z"/>
						<path class="st3" d="M164.8,294.4c-0.7,0-1.4-0.1-2-0.4l-9.1-3.7c-1.3-0.5-2-1.9-1.5-3.2s1.9-2,3.2-1.5c0.1,0,0.1,0.1,0.2,0.1
							l9.1,3.7c0.2,0.1,0.4,0,0.4-0.2l2.1-5c1.1-2.7,4.2-4,7-2.9c0,0,0,0,0,0l5,2.1c0.2,0.1,0.4,0,0.4-0.2l3.7-9.1
							c0.5-1.3,2-1.9,3.3-1.4c1.3,0.5,1.9,2,1.4,3.3l-3.8,9.1c-1.1,2.7-4.2,4-7,2.9c0,0,0,0,0,0l-5-2.1c-0.2-0.1-0.4,0-0.4,0.2
							l-2.1,5C168.9,293.1,167,294.4,164.8,294.4z"/>
						<path class="st3" d="M79.4,270.9c-1.4,0-2.5-1.1-2.5-2.5c0-0.4,0.1-0.8,0.3-1.1l4.3-8.9c0.1-0.2,0-0.3-0.1-0.4c0,0,0,0,0,0
							l-4.9-2.4c-2.7-1.3-3.8-4.5-2.5-7.1c0,0,0,0,0,0l2.4-4.9c0-0.1,0-0.2,0-0.3c0-0.1-0.1-0.2-0.2-0.2l-8.9-4.3
							c-1.2-0.6-1.8-2.1-1.2-3.3c0.6-1.2,2.1-1.8,3.3-1.2l8.9,4.3c2.7,1.3,3.8,4.5,2.5,7.1l-2.4,4.9c-0.1,0.2,0,0.4,0.2,0.4l4.9,2.4
							c2.7,1.3,3.8,4.5,2.5,7.1l-4.3,8.9C81.2,270.3,80.3,270.9,79.4,270.9z"/>
						<path class="st3" d="M130.9,314c-2.7,0-5-2.1-5.3-4.8l-0.6-5.4c0-0.2-0.2-0.3-0.4-0.3c0,0,0,0,0,0l-5.4,0.6
							c-1.4,0.2-2.8-0.2-3.9-1.1c-1.1-0.9-1.8-2.2-2-3.6l-1-9.8c-0.1-1.4,0.8-2.6,2.2-2.8c1.4-0.1,2.6,0.8,2.8,2.2l0,0l1,9.8
							c0,0.2,0.2,0.3,0.4,0.3l5.4-0.6c2.9-0.3,5.6,1.8,5.9,4.7l0.6,5.4c0,0.1,0.1,0.2,0.1,0.2c0.1,0.1,0.2,0.1,0.2,0.1l9.8-1
							c1.4-0.1,2.6,0.9,2.8,2.2c0.1,1.4-0.9,2.6-2.2,2.8l-9.8,1C131.3,314,131.1,314,130.9,314z"/>
						<path class="st3" d="M88.5,329.4c-0.4,0-0.8-0.1-1.1-0.2l-8.8-4.3c-2.6-1.3-3.7-4.5-2.4-7.1l2.4-4.9c0-0.1,0-0.2,0-0.3
							c0-0.1-0.1-0.2-0.2-0.2l-4.9-2.4c-2.6-1.3-3.7-4.5-2.5-7.1l4.3-8.8c0.7-1.2,2.2-1.7,3.4-1c1.1,0.6,1.6,2,1.1,3.2l-4.3,8.9
							c-0.1,0.2,0,0.4,0.2,0.5l4.9,2.4c1.3,0.6,2.2,1.7,2.7,3.1c0.5,1.3,0.4,2.8-0.3,4.1l-2.4,4.9c-0.1,0.2,0,0.4,0.2,0.5l8.8,4.3
							c1.2,0.6,1.8,2.1,1.2,3.3C90.3,328.9,89.5,329.4,88.5,329.4L88.5,329.4z"/>
						<path class="st3" d="M128.3,359.1c-1.4,0-2.5-1.1-2.5-2.5l-0.2-9.9c-0.1-2.9,2.3-5.4,5.2-5.4c0,0,0,0,0,0l5.4-0.1
							c0.1,0,0.2,0,0.2-0.1c0.1-0.1,0.1-0.1,0.1-0.2l-0.1-5.5c-0.1-2.9,2.3-5.4,5.2-5.4c0,0,0,0,0,0l9.8-0.2c1.4,0,2.5,1,2.5,2.4
							c0,0,0,0,0,0c0,1.4-1.1,2.5-2.5,2.5l-9.8,0.2c-0.1,0-0.2,0-0.2,0.1c-0.1,0.1-0.1,0.1-0.1,0.2l0.1,5.5c0,1.4-0.5,2.8-1.5,3.8
							c-1,1-2.3,1.6-3.8,1.6l-5.4,0.1c-0.1,0-0.2,0-0.2,0.1c-0.1,0.1-0.1,0.1-0.1,0.2l0.2,9.8C130.9,357.9,129.8,359,128.3,359.1
							C128.4,359.1,128.4,359.1,128.3,359.1L128.3,359.1z"/>
						<path class="st3" d="M224.9,141.6c-0.1,0-0.3,0-0.4,0c-1.3-0.2-2.2-1.5-2-2.9l1-5.7c0.4-2.3,2.5-3.8,4.8-3.4l2.3,0.4l0.4-2.3
							c0.4-2.3,2.5-3.8,4.8-3.4l5.7,1c1.4,0.2,2.3,1.5,2,2.9c-0.2,1.4-1.5,2.3-2.9,2l-4.8-0.8l-0.4,2.3c-0.4,2.3-2.5,3.8-4.8,3.4
							l-2.3-0.4l-0.8,4.8C227.2,140.8,226.1,141.7,224.9,141.6z"/>
						<path class="st3" d="M49.8,105.3c-1.4,0.1-2.6-0.9-2.7-2.3c-0.1-1.4,0.9-2.6,2.3-2.7l4.8-0.9l-0.4-2.3
							c-0.4-2.2,1.1-4.4,3.3-4.8l2.3-0.4L58.3,87c-0.3-1.4,0.6-2.7,1.9-3c1.4-0.3,2.7,0.6,3,1.9c0,0,0,0.1,0,0.1l1.1,5.6
							c0.5,2.2-1,4.4-3.2,4.9c0,0-0.1,0-0.1,0L58.7,97l0.4,2.3c0.4,2.3-1,4.4-3.3,4.9l-5.6,1.1C50.1,105.2,49.9,105.3,49.8,105.3z"
							/>
						<path class="st3" d="M125.7,229.3c-1.2,0-2.4-0.6-3.2-1.5l-1.5-1.8l-1.8,1.5c-1.8,1.4-4.4,1.2-5.8-0.6c0,0,0,0,0,0l-3.6-4.4
							c-0.9-1-0.8-2.6,0.2-3.5c1-0.9,2.6-0.8,3.5,0.2c0,0,0.1,0.1,0.1,0.1l3.1,3.8l1.8-1.5c1.8-1.5,4.4-1.2,5.8,0.6c0,0,0,0,0,0
							l1.5,1.8l3.8-3.1c1-0.9,2.6-0.8,3.5,0.2c0.9,1,0.8,2.6-0.2,3.5c0,0-0.1,0.1-0.2,0.1l-4.4,3.6
							C127.6,228.9,126.7,229.3,125.7,229.3z"/>
						<path class="st3" d="M33.4,356.1c-1.3,0-2.3-0.9-2.5-2.2l-0.7-5.7c-0.1-1.1,0.2-2.2,0.8-3.1c0.7-0.9,1.7-1.4,2.8-1.6l2.3-0.3
							l-0.3-2.3c-0.3-2.3,1.3-4.4,3.6-4.6c0,0,0,0,0,0l5.7-0.7c1.4-0.2,2.6,0.8,2.8,2.2s-0.8,2.6-2.2,2.8l0,0l-4.8,0.6l0.3,2.3
							c0.1,1.1-0.2,2.2-0.8,3.1c-0.7,0.9-1.7,1.4-2.8,1.6l-2.3,0.3l0.6,4.9c0.2,1.4-0.8,2.6-2.2,2.8L33.4,356.1z"/>
						<path class="st3" d="M138.8,179.6c-0.2,0-0.3,0-0.5,0c-1.4-0.3-2.3-1.6-2-2.9c0,0,0,0,0,0l0.9-4.8l-2.3-0.4
							c-2.2-0.5-3.7-2.6-3.3-4.9l0.4-2.3l-4.8-0.9c-1.4-0.3-2.2-1.6-2-3c0.3-1.4,1.6-2.2,3-2l5.6,1.1c2.2,0.5,3.7,2.6,3.3,4.9
							l-0.4,2.3l2.3,0.4c2.2,0.5,3.7,2.6,3.3,4.9l-1.1,5.6C141,178.8,140,179.6,138.8,179.6z"/>
						<path class="st3" d="M42.5,164.1c-0.8,0-1.6-0.4-2.1-1.1l-3.2-4.8c-1.3-1.9-0.8-4.5,1.1-5.8l1.9-1.3l-1.3-1.9
							c-1.3-1.9-0.8-4.5,1.1-5.8l4.8-3.2c1.1-0.8,2.7-0.5,3.5,0.7c0.8,1.1,0.5,2.7-0.7,3.5l0,0l-4,2.7L45,149
							c1.3,1.9,0.8,4.5-1.1,5.8l-1.9,1.3l2.7,4c0.8,1.1,0.5,2.7-0.7,3.5c0,0,0,0,0,0C43.6,163.9,43.1,164.1,42.5,164.1z"/>
						<path class="st3" d="M237.4,172.4c-1.3,0-2.3-0.9-2.5-2.2l-0.6-4.9l-2.3,0.3c-2.3,0.3-4.3-1.3-4.6-3.6l-0.3-2.3l-4.9,0.6
							c-1.4,0.2-2.6-0.8-2.8-2.2s0.8-2.6,2.2-2.8l0,0l5.7-0.7c2.3-0.3,4.3,1.3,4.6,3.6l0.3,2.3l2.3-0.3c2.3-0.3,4.3,1.3,4.6,3.6
							l0.7,5.7c0.2,1.4-0.8,2.6-2.2,2.8L237.4,172.4z"/>
						<path class="st3" d="M170.6,203.3c-1.4,0-2.5-1.1-2.5-2.5c0-0.8,0.4-1.6,1.1-2.1l4.1-2.6l-1.3-1.9c-1.2-1.9-0.7-4.5,1.2-5.7
							c0,0,0,0,0,0l2-1.3l-2.6-4.1c-0.8-1.2-0.4-2.7,0.7-3.5c1.2-0.8,2.7-0.4,3.5,0.7l3.1,4.8c1.2,1.9,0.7,4.5-1.2,5.7l-2,1.3
							l1.3,1.9c1.2,1.9,0.7,4.5-1.2,5.7c0,0,0,0,0,0l-4.8,3.2C171.5,203.2,171,203.4,170.6,203.3z"/>
						<path class="st3" d="M38.6,313.3c-0.1,0-0.3,0-0.4,0c-1.1-0.1-2.1-0.6-2.8-1.5l-1.5-1.8l-1.8,1.5c-1.8,1.4-4.4,1.2-5.8-0.6
							l-3.6-4.5c-0.9-1.1-0.7-2.6,0.4-3.5c1.1-0.9,2.6-0.7,3.5,0.4l3.1,3.8l1.8-1.5c1.8-1.4,4.4-1.2,5.8,0.6c0,0,0,0,0,0l1.5,1.8
							l3.8-3.1c1.1-0.9,2.6-0.7,3.5,0.4c0.9,1.1,0.7,2.6-0.4,3.5l-4.5,3.6C40.5,312.9,39.6,313.3,38.6,313.3z"/>
						<path class="st3" d="M59.6,204.5c-1.3,0-2.3-0.9-2.5-2.2l-0.6-4.9l-2.3,0.3c-2.3,0.3-4.4-1.3-4.7-3.6l-0.3-2.3l-4.8,0.6
							c-1.4,0.2-2.6-0.8-2.8-2.2c-0.2-1.4,0.8-2.6,2.2-2.8l0,0l5.7-0.7c2.3-0.3,4.3,1.3,4.6,3.6l0.3,2.3l2.3-0.3
							c2.3-0.3,4.4,1.3,4.7,3.6l0.7,5.7c0.2,1.4-0.8,2.6-2.2,2.8c0,0,0,0,0,0L59.6,204.5z"/>
						<path class="st3" d="M92.1,348.1c-1.4,0-2.5-1.1-2.5-2.5c0-0.6,0.2-1.2,0.6-1.6l3.8-4.4c1.5-1.7,4.1-1.9,5.9-0.5l1.8,1.5
							l1.5-1.8c1.5-1.7,4.1-1.9,5.8-0.5l4.4,3.7c1,0.9,1.2,2.5,0.3,3.5s-2.5,1.2-3.5,0.3l-3.7-3.2l-1.5,1.8
							c-1.5,1.7-4.1,1.9-5.9,0.4c0,0,0,0,0,0l-1.8-1.5l-3.2,3.8C93.5,347.8,92.8,348.1,92.1,348.1z"/>
						<path class="st3" d="M242.2,355.9c-1.2,0-2.4-0.6-3.2-1.5l-1.5-1.8l-1.8,1.5c-1.8,1.4-4.4,1.2-5.8-0.6l-3.6-4.4
							c-0.9-1.1-0.7-2.6,0.4-3.5c1.1-0.9,2.6-0.7,3.5,0.4l3.1,3.8l1.8-1.5c1.8-1.4,4.4-1.2,5.8,0.6l1.5,1.8l3.8-3.1
							c1-0.9,2.6-0.8,3.5,0.2c0.9,1,0.8,2.6-0.2,3.5c0,0-0.1,0.1-0.2,0.1l-4.4,3.7C244,355.6,243.1,355.9,242.2,355.9z"/>
						<rect x="-28.3" y="77.9" class="st4" width="283.5" height="283.5"/>
						<path class="st3" d="M291.5,104.5c-2.4,0-4.5-1.6-5.1-3.9l-1.5-5.2c0-0.1-0.1-0.2-0.2-0.2c-0.1,0-0.2,0-0.3,0l-5.2,1.5
							c-2.8,0.8-5.8-0.8-6.6-3.7l-2.7-9.5c-0.4-1.3,0.4-2.7,1.7-3.1c1.3-0.4,2.7,0.4,3.1,1.7l2.7,9.5c0,0.1,0.1,0.2,0.2,0.2
							c0.1,0,0.2,0,0.3,0l5.2-1.5c2.8-0.8,5.8,0.8,6.6,3.6c0,0,0,0,0,0l1.5,5.2c0,0.1,0.1,0.2,0.1,0.2c0.1,0,0.2,0,0.3,0l9.5-2.7
							c1.3-0.4,2.7,0.3,3.2,1.6c0.4,1.3-0.3,2.7-1.6,3.2c-0.1,0-0.1,0-0.2,0.1l-9.5,2.7C292.5,104.5,292,104.5,291.5,104.5z"/>
						<path class="st3" d="M404.9,129.4c-0.6,0-1.1-0.2-1.5-0.5l-7.8-6.1c-2.3-1.8-2.7-5.2-0.9-7.5c0,0,0,0,0,0l3.4-4.3
							c0.1-0.1,0.1-0.4-0.1-0.5c0,0,0,0,0,0l-4.3-3.3c-2.3-1.8-2.7-5.2-0.9-7.5c0,0,0,0,0,0l6-7.8c0.8-1.1,2.4-1.3,3.5-0.4
							c1.1,0.8,1.3,2.4,0.4,3.5l0,0l-6.1,7.8c-0.1,0.1-0.1,0.4,0.1,0.5c0,0,0,0,0,0l4.3,3.3c2.3,1.8,2.7,5.2,0.9,7.5l-3.4,4.3
							c-0.1,0.1-0.1,0.2-0.1,0.2c0,0.1,0.1,0.2,0.1,0.2l7.8,6c1.1,0.8,1.3,2.4,0.5,3.5C406.5,129,405.7,129.4,404.9,129.4
							L404.9,129.4z"/>
						<path class="st3" d="M386,158.8c-1.3,0-2.3-1-2.5-2.2l-1.1-9.8c0-0.1-0.1-0.2-0.1-0.2c-0.1-0.1-0.2-0.1-0.2-0.1l-5.4,0.6
							c-2.9,0.3-5.6-1.8-5.9-4.7l-0.6-5.4c0-0.1-0.1-0.2-0.1-0.2c-0.1-0.1-0.2-0.1-0.2-0.1l-9.8,1.1c-1.4,0.2-2.6-0.8-2.8-2.2
							s0.8-2.6,2.2-2.8l9.8-1.1c2.9-0.3,5.6,1.8,5.9,4.7c0,0,0,0,0,0l0.6,5.4c0,0.1,0.1,0.2,0.1,0.2c0.1,0.1,0.2,0.1,0.2,0.1
							l5.4-0.6c2.9-0.3,5.6,1.8,5.9,4.7l1.1,9.8c0.2,1.4-0.8,2.6-2.2,2.8c0,0,0,0,0,0L386,158.8z"/>
						<path class="st3" d="M435.4,106.4c-0.4,0-0.8,0-1.2-0.1l-9.6-2.2c-1.3-0.3-2.2-1.6-1.9-3c0.3-1.3,1.6-2.2,3-1.9l9.6,2.2
							c0.2,0,0.4-0.1,0.4-0.2l1.2-5.3c0.7-2.9,3.5-4.6,6.4-4l5.3,1.2c0.2,0,0.4-0.1,0.4-0.3l2.2-9.6c0.3-1.3,1.6-2.2,3-1.9
							c1.3,0.3,2.2,1.6,1.9,3l0,0l-2.2,9.6c-0.7,2.9-3.5,4.6-6.4,4l-5.3-1.2c-0.2,0-0.4,0.1-0.4,0.3l-1.2,5.3
							C440,104.7,437.8,106.4,435.4,106.4z"/>
						<path class="st3" d="M288.6,169.2c-0.2,0-0.5,0-0.7-0.1c-1.3-0.4-2.1-1.8-1.7-3.1l2.8-9.4c0-0.1,0-0.2,0-0.3
							c0-0.1-0.1-0.1-0.2-0.2l-5.2-1.5c-2.8-0.8-4.5-3.8-3.7-6.6l1.5-5.2c0-0.1,0-0.2,0-0.3c0-0.1-0.1-0.1-0.2-0.2l-9.5-2.8
							c-1.3-0.4-2-1.8-1.6-3.2c0.4-1.3,1.7-2,3-1.6l9.5,2.8c2.8,0.8,4.4,3.8,3.6,6.6l-1.5,5.2c-0.1,0.2,0.1,0.4,0.2,0.4c0,0,0,0,0,0
							l5.2,1.5c2.8,0.8,4.5,3.8,3.6,6.6c0,0,0,0,0,0l-2.8,9.4C290.7,168.4,289.7,169.2,288.6,169.2z"/>
						<path class="st3" d="M500.6,105.7c-0.7,0-1.4-0.1-2-0.4l-9.1-3.7c-1.3-0.5-1.9-1.9-1.5-3.2s1.9-1.9,3.2-1.5c0,0,0.1,0,0.1,0
							l9.1,3.7c0.2,0.1,0.4,0,0.4-0.2c0,0,0,0,0,0l2-5.1c1.1-2.7,4.2-4.1,6.9-3l5.1,2c0.1,0,0.2,0,0.3,0c0.1,0,0.1-0.1,0.2-0.2
							l3.7-9.1c0.5-1.3,1.9-1.9,3.2-1.5c1.3,0.5,1.9,1.9,1.5,3.2c0,0,0,0.1,0,0.1l-3.6,9.1c-1.1,2.7-4.2,4.1-6.9,3c0,0,0,0,0,0l-5-2
							c-0.2-0.1-0.4,0-0.4,0.2l-2,5.1C504.7,104.4,502.8,105.7,500.6,105.7z"/>
						<path class="st3" d="M455.4,145.5H455l-9.8-0.6c-1.4-0.1-2.4-1.3-2.3-2.7c0.1-1.4,1.3-2.4,2.7-2.3l0,0l9.8,0.6
							c0.2,0,0.3-0.1,0.3-0.3c0,0,0,0,0,0l0.4-5.4c0.2-2.9,2.7-5.2,5.6-5c0,0,0,0,0.1,0l5.4,0.4c0.1,0,0.2,0,0.2-0.1
							c0.1-0.1,0.1-0.1,0.1-0.2l0.6-9.8c0.1-1.4,1.3-2.4,2.7-2.3s2.4,1.3,2.3,2.7l0,0l-0.6,9.8c-0.2,2.9-2.7,5.2-5.7,5c0,0,0,0,0,0
							l-5.4-0.4c-0.2,0-0.3,0.1-0.4,0.3l-0.4,5.4C460.5,143.4,458.2,145.5,455.4,145.5z"/>
						<path class="st3" d="M289,214.2h-0.4c-1.4-0.1-2.8-0.7-3.8-1.8l-4.1-4.3c-0.1-0.1-0.3-0.2-0.5-0.2c-0.1,0-0.1,0-0.2,0.1
							l-3.9,3.8c-1.1,1-2.5,1.5-4,1.4c-1.4-0.1-2.8-0.7-3.8-1.8l-7.4-7.8c-1-1-0.9-2.6,0.1-3.5c1-1,2.6-0.9,3.5,0.1l7.5,7.8
							c0.1,0.1,0.3,0.2,0.5,0.2c0.1,0,0.1,0,0.2,0l3.9-3.8c1.1-1,2.5-1.5,4-1.4c1.4,0.1,2.8,0.7,3.8,1.8l4.1,4.3
							c0.1,0.1,0.3,0.2,0.5,0.2c0.1,0,0.1,0,0.2,0l7.1-6.8c1-1,2.6-0.9,3.5,0.1c1,1,0.9,2.6-0.1,3.5l-7.1,6.8
							C291.6,213.8,290.3,214.3,289,214.2z"/>
						<path class="st3" d="M366.8,197.8c-0.5,0-1-0.1-1.4-0.4c-1.2-0.8-1.5-2.3-0.7-3.5c0,0,0,0,0,0l5.4-8.3
							c1.6-2.5,4.9-3.2,7.4-1.6l4.6,3c0.1,0.1,0.2,0.1,0.2,0.1c0.1,0,0.2-0.1,0.2-0.1l3-4.6c1.6-2.5,4.9-3.2,7.4-1.6c0,0,0,0,0,0
							l8.3,5.4c1.1,0.8,1.4,2.4,0.6,3.5c-0.8,1.1-2.2,1.4-3.3,0.7l-8.3-5.4c-0.1-0.1-0.2-0.1-0.2-0.1c-0.1,0-0.2,0.1-0.2,0.1l-3,4.6
							c-1.6,2.5-4.9,3.2-7.4,1.6c0,0,0,0,0,0l-4.6-3c-0.2-0.1-0.4-0.1-0.5,0.1l-5.4,8.3C368.4,197.3,367.6,197.8,366.8,197.8z"/>
						<path class="st3" d="M486.6,342.3h-0.4l-9.7-1.5c-1.4-0.2-2.7-1-3.5-2.1c-0.9-1.1-1.2-2.6-1-4l0.8-5.4c0-0.1,0-0.2-0.1-0.2
							c-0.1-0.1-0.1-0.1-0.2-0.1l-5.4-0.8c-2.9-0.5-4.9-3.2-4.5-6.1l1.5-9.7c0.2-1.4,1.4-2.4,2.8-2.2c1.4,0.2,2.4,1.4,2.2,2.8
							c0,0.1,0,0.1,0,0.2l-1.5,9.7c0,0.1,0,0.2,0.1,0.2c0.1,0.1,0.1,0.1,0.2,0.1l5.4,0.8c1.4,0.2,2.7,1,3.5,2.1c0.9,1.1,1.2,2.6,1,4
							l-0.8,5.4c0,0.1,0,0.2,0.1,0.2c0.1,0.1,0.1,0.1,0.2,0.1l9.7,1.5c1.4,0.1,2.4,1.3,2.3,2.7S487.9,342.5,486.6,342.3L486.6,342.3
							L486.6,342.3z"/>
						<path class="st3" d="M301.1,280c-0.2,0-0.5,0-0.7-0.1c-1.3-0.4-2.1-1.8-1.7-3.1l2.7-9.5c0.8-2.8,3.7-4.5,6.6-3.6l5.2,1.5
							c0.1,0,0.1,0,0.2,0c0.1,0,0.1-0.1,0.2-0.2l1.5-5.2c0.8-2.8,3.7-4.5,6.6-3.6l9.4,2.7c1.3,0.4,2,1.8,1.6,3.2
							c-0.4,1.3-1.7,2-3,1.6l-9.4-2.7c-0.2,0-0.3,0.1-0.4,0.2c0,0,0,0,0,0l-1.5,5.2c-0.8,2.8-3.7,4.5-6.6,3.6l-5.2-1.5
							c-0.2,0-0.3,0.1-0.4,0.2c0,0,0,0,0,0l-2.7,9.5C303.1,279.3,302.2,280,301.1,280z"/>
						<path class="st3" d="M285.4,351h-0.1c-1.4-0.1-2.5-1.2-2.4-2.6l0.4-9.8c0-0.1,0-0.2-0.1-0.2c-0.1-0.1-0.1-0.1-0.2-0.1
							l-5.4-0.2c-2.9-0.1-5.2-2.6-5.1-5.5l0.2-5.4c0-0.2-0.1-0.3-0.3-0.4l-9.8-0.4c-1.4-0.1-2.5-1.2-2.4-2.6s1.2-2.5,2.6-2.4
							l9.8,0.4c2.9,0.1,5.2,2.6,5.1,5.5l-0.2,5.4c0,0.2,0.1,0.3,0.3,0.3c0,0,0,0,0,0l5.4,0.2c2.9,0.1,5.2,2.6,5.1,5.5l-0.4,9.8
							C287.8,349.9,286.7,351,285.4,351z"/>
						<path class="st3" d="M264.3,281.3c-1.4,0-2.5-1.1-2.5-2.5c0-1.1,0.7-2,1.6-2.4l9.2-3.4c0.1,0,0.2-0.1,0.2-0.2
							c0-0.1,0-0.2,0-0.2l-1.9-5.1c-1-2.8,0.4-5.8,3.1-6.9l5.1-1.9c0.1,0,0.2-0.1,0.2-0.2c0-0.1,0-0.2,0-0.3l-3.4-9.2
							c-0.5-1.3,0.2-2.7,1.5-3.2c1.3-0.5,2.7,0.2,3.2,1.5l3.4,9.2c1,2.8-0.4,5.8-3.1,6.9c0,0,0,0,0,0l-5.1,1.9
							c-0.2,0.1-0.3,0.2-0.2,0.4c0,0,0,0,0,0l1.9,5.1c0.5,1.3,0.4,2.8-0.2,4.1c-0.6,1.3-1.7,2.3-3,2.8l-9.2,3.4
							C264.9,281.3,264.6,281.3,264.3,281.3z"/>
						<path class="st3" d="M503,316.8c-1.2,0-2.2-0.8-2.5-2l-1.8-9.7c-0.5-2.9,1.4-5.7,4.3-6.2c0,0,0,0,0,0l5.4-1
							c0.1,0,0.2-0.1,0.2-0.1c0.1-0.1,0.1-0.2,0-0.2l-1-5.4c-0.5-2.9,1.3-5.7,4.2-6.2c0,0,0,0,0,0l9.7-1.8c1.3-0.3,2.7,0.5,3,1.9
							s-0.5,2.7-1.9,3c-0.1,0-0.2,0-0.2,0l-9.7,1.8c-0.1,0-0.2,0.1-0.2,0.1c-0.1,0.1-0.1,0.2-0.1,0.2l1,5.4c0.5,2.9-1.4,5.7-4.3,6.2
							l-5.4,1c-0.1,0-0.2,0.1-0.2,0.1c0,0.1-0.1,0.2-0.1,0.2l1.8,9.7c0.3,1.4-0.6,2.7-2,2.9c0,0,0,0,0,0
							C503.3,316.8,503.2,316.8,503,316.8z"/>
						<path class="st3" d="M503.3,208.2c-0.6,0-1.2-0.1-1.8-0.3l-9.2-3.4c-1.3-0.5-2-1.9-1.5-3.2c0.5-1.3,1.9-2,3.2-1.5l9.2,3.4
							c0.2,0.1,0.4,0,0.4-0.2c0,0,0,0,0,0l1.9-5.1c0.5-1.3,1.5-2.4,2.8-3c1.3-0.6,2.8-0.7,4.1-0.2l5.1,1.9c0.2,0.1,0.4,0,0.4-0.2
							c0,0,0,0,0,0l3.4-9.2c0.5-1.3,1.9-2,3.2-1.5c1.3,0.5,2,1.9,1.5,3.2l-3.4,9.2c-1,2.8-4.1,4.2-6.8,3.2l-5.1-1.9
							c-0.1,0-0.2,0-0.2,0c-0.1,0-0.2,0.1-0.2,0.2l-1.9,5.1C507.6,206.7,505.6,208.2,503.3,208.2z"/>
						<path class="st3" d="M427.6,257.5c-0.3,0-0.6,0-0.8-0.1c-1.3-0.5-2-1.9-1.5-3.2l3.3-9.3c1-2.8,4-4.2,6.8-3.2l5.1,1.8
							c0.2,0.1,0.4,0,0.4-0.2l1.8-5.1c1-2.8,4-4.2,6.8-3.2l9.3,3.3c1.3,0.5,2,1.9,1.5,3.2s-1.9,2-3.2,1.5l-9.3-3.3
							c-0.2-0.1-0.4,0-0.4,0.2l-1.8,5.2c-1,2.8-4,4.2-6.8,3.2c0,0,0,0,0,0l-5.1-1.8c-0.2-0.1-0.4,0-0.4,0.2l-3.2,9.2
							C429.6,256.9,428.7,257.6,427.6,257.5z"/>
						<path class="st3" d="M523.9,270.8c-0.9,0-1.7-0.4-2.1-1.2l-5.3-8.3c-1.6-2.5-0.9-5.8,1.6-7.4l4.6-2.9c0.1,0,0.1-0.1,0.1-0.2
							c0-0.1,0-0.2,0-0.2l-3-4.6c-1.6-2.5-0.8-5.8,1.6-7.4l8.3-5.3c1.2-0.7,2.7-0.3,3.4,0.9c0.7,1.1,0.3,2.6-0.7,3.3l-8.3,5.3
							c-0.2,0.1-0.2,0.3-0.1,0.5c0,0,0,0,0,0l2.9,4.6c1.6,2.5,0.9,5.8-1.6,7.4c0,0,0,0,0,0l-4.6,2.9c-0.2,0.1-0.2,0.3-0.1,0.5
							l5.3,8.3c0.7,1.2,0.4,2.7-0.8,3.4c0,0,0,0,0,0C524.8,270.7,524.4,270.8,523.9,270.8z"/>
						<path class="st3" d="M484,242.1h-0.1c-1.4-0.1-2.4-1.2-2.4-2.6c0,0,0,0,0,0l0.5-9.8c0-0.2-0.1-0.3-0.3-0.3c0,0,0,0,0,0
							l-5.4-0.3c-2.9-0.2-5.2-2.7-5.1-5.6c0,0,0,0,0,0l0.3-5.4c0-0.2-0.1-0.3-0.3-0.3c0,0,0,0,0,0l-9.8-0.5
							c-1.4-0.1-2.4-1.3-2.4-2.6c0.1-1.4,1.3-2.4,2.6-2.4l9.8,0.5c2.9,0.2,5.1,2.7,5,5.6l-0.3,5.4c0,0.1,0,0.2,0.1,0.2
							c0.1,0.1,0.1,0.1,0.2,0.1l5.4,0.3c2.9,0.2,5.2,2.7,5,5.6l-0.5,9.8C486.4,241,485.3,242,484,242.1z"/>
						<path class="st3" d="M448.2,294.4c-0.7,0-1.4-0.1-2-0.4l-9.1-3.7c-1.3-0.4-2-1.9-1.6-3.2c0.4-1.3,1.9-2,3.2-1.6
							c0.1,0,0.2,0.1,0.3,0.1l9.1,3.7c0.2,0.1,0.4,0,0.4-0.2c0,0,0,0,0,0l2.1-5c1.1-2.7,4.2-4,7-2.9l5,2.1c0.2,0.1,0.4,0,0.4-0.2
							c0,0,0,0,0,0l3.7-9.1c0.6-1.3,2.1-1.8,3.3-1.2c1.2,0.5,1.7,1.9,1.3,3.1l-3.7,9.1c-1.1,2.7-4.2,4-7,2.9c0,0,0,0,0,0l-5-2.1
							c-0.1,0-0.2,0-0.3,0c-0.1,0-0.1,0.1-0.2,0.2l-2.1,5C452.4,293.1,450.4,294.4,448.2,294.4z"/>
						<path class="st3" d="M362.8,270.9c-0.4,0-0.7-0.1-1.1-0.2c-1.2-0.6-1.8-2.1-1.2-3.3c0,0,0,0,0,0l4.3-8.9
							c0.1-0.2,0-0.4-0.2-0.4c0,0,0,0,0,0l-4.9-2.4c-2.7-1.3-3.8-4.5-2.5-7.1l2.4-4.9c0-0.1,0-0.2,0-0.3c0-0.1-0.1-0.2-0.2-0.2
							l-8.9-4.3c-1.3-0.5-1.8-2-1.3-3.3c0.5-1.3,2-1.8,3.3-1.3c0.1,0,0.1,0.1,0.2,0.1l8.9,4.3c2.6,1.3,3.8,4.5,2.5,7.1l-2.4,4.9
							c-0.1,0.2,0,0.4,0.2,0.4l4.9,2.4c2.7,1.3,3.8,4.5,2.5,7.1l-4.3,8.9C364.7,270.3,363.8,270.9,362.8,270.9z"/>
						<path class="st3" d="M414.4,314c-2.7,0-5-2.1-5.3-4.8l-0.6-5.4c0-0.2-0.2-0.3-0.4-0.3c0,0,0,0,0,0l-5.4,0.6
							c-2.9,0.3-5.5-1.8-5.9-4.7c0,0,0,0,0,0l-1.1-9.8c-0.1-1.4,0.8-2.6,2.2-2.8c1.4-0.1,2.6,0.8,2.8,2.2l0,0l1.1,9.8
							c0,0.1,0.1,0.2,0.1,0.2c0.1,0.1,0.2,0.1,0.2,0.1l5.4-0.6c2.9-0.3,5.6,1.8,5.9,4.7l0.6,5.4c0,0.1,0.1,0.2,0.1,0.2
							c0.1,0.1,0.2,0.1,0.2,0.1l9.8-1c1.4-0.1,2.6,0.8,2.8,2.2c0.1,1.4-0.8,2.6-2.2,2.8l-9.8,1C414.8,314,414.6,314,414.4,314z"/>
						<path class="st3" d="M372,329.4c-0.4,0-0.8-0.1-1.1-0.2l-8.9-4.3c-2.6-1.3-3.7-4.5-2.4-7.1l2.4-4.9c0.1-0.2,0-0.4-0.1-0.4
							c0,0,0,0,0,0l-4.9-2.4c-2.6-1.3-3.7-4.5-2.4-7.1l4.3-8.8c0.6-1.3,2-1.8,3.3-1.3s1.8,2,1.3,3.3c0,0.1-0.1,0.1-0.1,0.2L359,305
							c-0.1,0.2,0,0.4,0.1,0.5l4.9,2.4c2.6,1.3,3.7,4.5,2.5,7.1c0,0,0,0,0,0l-2.4,4.9c-0.1,0.2,0,0.4,0.1,0.4c0,0,0,0,0,0l8.8,4.3
							c1.2,0.6,1.8,2.1,1.2,3.3C373.8,328.8,373,329.4,372,329.4L372,329.4z"/>
						<path class="st3" d="M411.8,359.1c-1.4,0-2.5-1.1-2.5-2.5l-0.2-9.9c0-2.9,2.3-5.4,5.2-5.4l5.5-0.1c0.1,0,0.2,0,0.2-0.1
							c0.1-0.1,0.1-0.1,0.1-0.2l-0.1-5.5c0-1.4,0.5-2.8,1.5-3.8c1-1,2.3-1.6,3.8-1.7l9.8-0.2c1.4,0,2.5,1,2.5,2.4c0,0,0,0,0,0.1
							c0,1.4-1.1,2.5-2.4,2.5c0,0,0,0,0,0l-9.9,0.2c-0.1,0-0.2,0-0.2,0.1c-0.1,0.1-0.1,0.1-0.1,0.2l0.1,5.5c0.1,2.9-2.3,5.4-5.2,5.4
							l-5.5,0.1c-0.2,0-0.3,0.1-0.3,0.3c0,0,0,0,0,0l0.2,9.8C414.3,357.9,413.2,359,411.8,359.1C411.8,359,411.8,359,411.8,359.1
							L411.8,359.1z"/>
						<path class="st3" d="M503.4,141.6c-0.1,0-0.3,0-0.4,0c-1.4-0.2-2.3-1.5-2-2.9l1-5.7c0.4-2.3,2.5-3.8,4.8-3.4l2.3,0.4l0.4-2.3
							c0.4-2.3,2.5-3.8,4.8-3.4l5.7,1c1.4,0.2,2.3,1.5,2,2.9c-0.2,1.4-1.5,2.3-2.9,2l0,0l-4.8-0.8l-0.4,2.3
							c-0.2,1.1-0.8,2.1-1.7,2.7c-0.9,0.6-2,0.9-3.1,0.7l-2.3-0.4l-0.8,4.8C505.6,140.8,504.6,141.7,503.4,141.6z"/>
						<path class="st3" d="M333.2,105.3c-1.4,0.1-2.6-0.9-2.7-2.3c-0.1-1.4,0.9-2.6,2.3-2.7l4.8-0.9l-0.4-2.3
							c-0.4-2.3,1.1-4.4,3.3-4.9l2.3-0.4l-0.9-4.8c-0.3-1.4,0.6-2.7,1.9-3s2.7,0.6,3,1.9c0,0,0,0.1,0,0.1l1.1,5.6
							c0.4,2.3-1.1,4.4-3.3,4.8l-2.3,0.5l0.4,2.3c0.4,2.3-1.1,4.4-3.3,4.9l-5.6,1.1C333.5,105.2,333.4,105.3,333.2,105.3z"/>
						<path class="st3" d="M409.2,229.3c-1.2,0-2.4-0.6-3.2-1.5l-1.5-1.8l-1.8,1.5c-1.8,1.4-4.4,1.2-5.8-0.6c0,0,0,0,0,0l-3.6-4.4
							c-0.9-1.1-0.7-2.6,0.4-3.5c1.1-0.9,2.6-0.7,3.5,0.4l3.1,3.8l1.8-1.5c1.8-1.5,4.4-1.2,5.8,0.6c0,0,0,0,0,0l1.5,1.8l3.8-3.1
							c1-0.9,2.6-0.8,3.5,0.2c0.9,1,0.8,2.6-0.2,3.5c0,0-0.1,0.1-0.2,0.1l-4.4,3.6C411.1,228.9,410.2,229.3,409.2,229.3z"/>
						<path class="st3" d="M316.9,356.1c-1.3,0-2.3-0.9-2.5-2.2l-0.7-5.7c-0.3-2.3,1.3-4.4,3.6-4.6l2.3-0.3l-0.3-2.3
							c-0.3-2.3,1.3-4.4,3.6-4.6l5.7-0.7c1.4-0.2,2.6,0.8,2.8,2.2s-0.8,2.6-2.2,2.8l0,0l-4.9,0.6l0.3,2.3c0.3,2.3-1.3,4.4-3.6,4.6
							c0,0,0,0,0,0l-2.3,0.3l0.6,4.9c0.2,1.4-0.8,2.6-2.2,2.8c0,0,0,0,0,0L316.9,356.1z"/>
						<path class="st3" d="M427.3,174.6c-0.2,0-0.3,0-0.5,0c-1.4-0.3-2.3-1.6-2-2.9c0,0,0,0,0,0l1-4.8l-2.3-0.4
							c-2.3-0.4-3.7-2.6-3.3-4.9l0.5-2.3l-4.8-0.9c-1.4-0.3-2.2-1.6-2-3c0.3-1.4,1.6-2.2,3-2l5.6,1.1c2.3,0.4,3.7,2.6,3.3,4.9
							l-0.5,2.3l2.3,0.4c2.3,0.4,3.7,2.6,3.3,4.9l-1.1,5.6C429.5,173.8,428.5,174.6,427.3,174.6z"/>
						<path class="st3" d="M326,164.1c-0.8,0-1.6-0.4-2.1-1.1l-3.2-4.8c-1.3-1.9-0.8-4.5,1.1-5.7c0,0,0,0,0,0l1.9-1.3l-1.3-1.9
							c-1.3-1.9-0.8-4.5,1.1-5.7c0,0,0,0,0,0l4.8-3.2c1.1-0.8,2.7-0.5,3.5,0.7c0.8,1.1,0.5,2.7-0.7,3.5l-4,2.7l1.3,1.9
							c1.3,1.9,0.8,4.5-1.1,5.8l-1.9,1.3l2.7,4c0.8,1.1,0.5,2.7-0.7,3.5C327,163.9,326.5,164,326,164.1L326,164.1z"/>
						<path class="st3" d="M513.9,167.4c-1.3,0-2.3-0.9-2.5-2.2l-0.6-4.9l-2.3,0.3c-2.3,0.3-4.3-1.3-4.6-3.6l-0.3-2.3l-4.9,0.6
							c-1.4,0.2-2.6-0.8-2.8-2.2s0.8-2.6,2.2-2.8l5.7-0.7c2.3-0.3,4.3,1.3,4.6,3.6l0.3,2.3l2.3-0.3c2.3-0.3,4.4,1.3,4.7,3.6l0.7,5.7
							c0.2,1.4-0.8,2.6-2.1,2.8c0,0,0,0,0,0L513.9,167.4z"/>
						<path class="st3" d="M454,203.3c-1.4,0-2.5-1.1-2.5-2.5c0-0.8,0.4-1.6,1.1-2.1l4.1-2.6l-1.3-1.9c-1.2-1.9-0.7-4.5,1.2-5.7
							l2-1.3l-2.6-4.1c-0.8-1.2-0.4-2.7,0.7-3.5c1.2-0.8,2.7-0.4,3.5,0.7l3.1,4.8c1.2,1.9,0.7,4.5-1.2,5.7c0,0,0,0,0,0l-2,1.3
							l1.3,1.9c1.2,1.9,0.7,4.5-1.2,5.7c0,0,0,0,0,0l-4.8,3.2C455,203.2,454.5,203.4,454,203.3z"/>
						<path class="st3" d="M322.1,313.3c-0.1,0-0.3,0-0.4,0c-1.1-0.1-2.1-0.6-2.8-1.5l-1.5-1.8l-1.8,1.5c-1.8,1.4-4.4,1.2-5.8-0.6
							l-3.6-4.5c-0.9-1-0.8-2.6,0.2-3.5c1-0.9,2.6-0.8,3.5,0.2c0,0,0.1,0.1,0.1,0.2l3.1,3.8l1.8-1.5c1.8-1.4,4.4-1.2,5.9,0.6
							l1.5,1.8l3.8-3.1c1.1-0.9,2.6-0.7,3.5,0.4c0.9,1.1,0.7,2.6-0.4,3.5l0,0l-4.5,3.6C324,312.9,323.1,313.3,322.1,313.3z"/>
						<path class="st3" d="M343.1,204.5c-1.3,0-2.3-0.9-2.5-2.2l-0.6-4.9l-2.3,0.3c-2.3,0.3-4.4-1.3-4.6-3.6c0,0,0,0,0,0l-0.3-2.3
							l-4.9,0.6c-1.4,0.2-2.6-0.8-2.8-2.2s0.8-2.6,2.2-2.8l0,0l5.7-0.7c2.3-0.3,4.4,1.3,4.6,3.6l0.3,2.3l2.3-0.3
							c2.3-0.3,4.3,1.3,4.6,3.6l0.7,5.7c0.2,1.4-0.8,2.6-2.2,2.8L343.1,204.5z"/>
						<path class="st3" d="M375.6,348.1c-0.6,0-1.2-0.2-1.6-0.6c-1-0.9-1.2-2.5-0.3-3.5c0,0,0,0,0,0l3.7-4.4
							c1.5-1.7,4.1-1.9,5.9-0.5l1.8,1.5l1.5-1.8c1.5-1.7,4.1-1.9,5.9-0.5l4.4,3.7c1,0.9,1.2,2.5,0.3,3.5s-2.5,1.2-3.5,0.3l-3.7-3.2
							l-1.5,1.8c-1.5,1.7-4.1,1.9-5.9,0.5l-1.8-1.5l-3.2,3.7C377,347.8,376.3,348.1,375.6,348.1z"/>
						<path class="st3" d="M525.6,355.9c-1.2,0-2.4-0.6-3.2-1.5l-1.5-1.8l-1.8,1.5c-1.8,1.4-4.4,1.2-5.8-0.6l-3.6-4.4
							c-0.9-1-0.8-2.6,0.2-3.5s2.6-0.8,3.5,0.2c0,0,0.1,0.1,0.1,0.1l3.1,3.8l1.8-1.5c1.8-1.4,4.4-1.2,5.8,0.6l1.5,1.8l3.8-3.1
							c1-0.9,2.6-0.8,3.5,0.2c0.9,1,0.8,2.6-0.2,3.5c0,0-0.1,0.1-0.2,0.1l-4.5,3.7C527.5,355.6,526.6,355.9,525.6,355.9z"/>
						<rect x="255.1" y="77.9" class="st4" width="283.5" height="283.5"/>
					</g>
				</g>
			</g>
			
				<image style="overflow:visible;opacity:0.75;enable-background:new    ;" width="931" height="572" xlink:href="4A73AAFC.png"  transform="matrix(0.24 0 0 0.24 143.3831 9.2278)">
			</image>
			<path class="st5" d="M351.6,111.1l-2.5-36.8c-0.4-6.4-4.6-11.8-10.7-13.7c-1.5-0.5-3.2-0.6-4.8-0.5l-17,1.2
				c-1.7,0.1-3.3-0.9-3.7-2.6c-0.3-1.1-0.9-2.1-1.7-2.9l-7.2-7.4c-1.4-1.4-1.4-3.7,0-5.1l8.9-9.1c1.5-1.4,2.1-3.6,1.6-5.6
				c-0.7-2.4-2.9-4.1-5.4-4.1h-0.6l-14,3c-1.4,0.5-2.6,1.2-3.6,2.2c-1.4,1.2-3.5,1.2-4.8-0.1c-1.6-1.6-3.6-2.7-5.7-3.3l-8.3-1.8
				c-3.1-0.7-6.3,1-7.5,3.9c-0.1,0.3-0.2,0.5-0.3,0.8c-0.4,1.6-1.9,2.8-3.5,2.8h-2.3c-1,0-1.8-0.8-1.8-1.8c0,0,0,0,0,0v-2.2
				c0-1-0.8-1.8-1.8-1.8l0,0h-11.4c-1,0-1.8,0.8-1.8,1.8c0,0,0,0,0,0v2.1c0,1-0.8,1.8-1.8,1.8c0,0,0,0,0,0L221,32
				c-1,0-1.8-0.8-1.8-1.8c0,0,0,0,0,0v-1.7c0-1-0.8-1.8-1.8-1.8l0,0H206c-1,0-1.8,0.8-1.8,1.8v1.7c0,1.1-0.9,1.9-1.9,1.9l-40-0.1
				c-2,0-3.6,1.6-3.6,3.6v81.2c0,8,6.5,14.6,14.6,14.6H255c1.5,0,3-0.3,4.3-1c1.9-1,4.2-1,6.2-0.2c1.3,0.6,2.7,0.9,4.2,0.9l0,0
				c0.2,0,0.5,0,0.7,0l67.8-4.7C346.2,126,352.2,119.1,351.6,111.1z"/>
			<path class="st6" d="M184.7,37.6V54H164V37.6h4.1v12.3h4.2V37.6h4.1v12.3h4.1V37.6H184.7z"/>
			<path class="st6" d="M205.5,37.5V54h-16.6v-9.9h12.4v-2.7h-12.4v-3.9H205.5z M201.3,50.3v-2.8h-8.1v2.8H201.3z"/>
			<path class="st6" d="M213.7,41.7v8.3h8.3V54h-12.4V32.2h4.1v5.3h8.3v4.1L213.7,41.7z"/>
			<path class="st6" d="M230.4,41.6v8.1h12.4V54h-16.6V37.4h16.6v4.2L230.4,41.6z"/>
			<path class="st6" d="M263.4,37.5V54h-4.1V41.7H251V54h-4.1V31.7h4.1v5.8H263.4z"/>
			<g id="ARC">
				<path class="st7" d="M293.2,56.9l-1.8-2.2c-1.3-1.7-1.2-4.1,0.3-5.6l4-4.1c-0.8,0.8-0.8,2.2,0,3l11.5,11.7
					c0.4,0.5,0.4,1.2,0,1.7c-0.3,0.3-0.7,0.4-1,0.3l-8.3-1.8C296,59.4,294.4,58.3,293.2,56.9z"/>
			</g>
			<path class="st6" d="M309,30l-13.5,2.9c-0.6,0.1-1.2,0.5-1.6,1l-4.6,5.9c-0.3,0.4-0.9,0.5-1.2,0.2c-0.1,0-0.1-0.1-0.2-0.2
				l-1.8-2.4c1.3,1.7,1.2,4.1-0.3,5.6l-17.9,18.3c-0.1,0.1,0,0.1,0,0.2c0,0,0.1,0,0.1,0l13.5-2.9c0.6-0.1,1.2-0.5,1.6-1l4.6-5.9
				c0.3-0.4,0.9-0.4,1.3-0.1c0,0,0.1,0.1,0.1,0.1l1.9,2.3c-1.3-1.7-1.2-4.1,0.3-5.6l17.9-18.2c0-0.1,0-0.2-0.1-0.2
				C309.1,30,309,30,309,30z"/>
			<g id="ARC-2">
				<path class="st7" d="M283.8,34.6l1.8,2.2c1.3,1.7,1.2,4.1-0.3,5.6l-4,4.1c0.8-0.8,0.8-2.2,0-3l-11.5-11.7
					c-0.5-0.4-0.5-1.1-0.1-1.6c0.3-0.3,0.8-0.5,1.2-0.4l8.3,1.8C281,32,282.6,33.1,283.8,34.6z"/>
			</g>
			<path class="st7" d="M192.3,76.2c-1.2,0-2.4-0.5-3.2-1.3l-7.1-7.1c-1.2-1.2-2.7-1.8-4.4-1.8H164v-1.6h13.6c2.1,0,4.1,0.8,5.5,2.3
				l7.1,7.1c1.2,1.2,3.1,1.2,4.2,0l7.1-7.1c1.5-1.5,3.5-2.3,5.5-2.3h56.6V66H207c-1.7,0-3.2,0.6-4.4,1.8l-7.1,7.1
				C194.7,75.7,193.5,76.2,192.3,76.2z"/>
			<path class="st8" d="M230.4,91.9c-1.3,0-2.6,0.5-3.4,1.6c-1,1.4-1.4,3-1.3,4.7c-0.1,1.7,0.3,3.4,1.3,4.7c1.7,1.9,4.6,2.1,6.5,0.4
				c0.2-0.1,0.3-0.3,0.4-0.4c1-1.4,1.4-3.1,1.3-4.7c0.1-1.7-0.3-3.3-1.3-4.7C233.1,92.4,231.8,91.8,230.4,91.9z"/>
			<path class="st8" d="M192.7,95.3c0.5-0.4,0.7-1,0.7-1.6c0-0.6-0.3-1.2-0.8-1.5c-0.7-0.4-1.5-0.6-2.4-0.6h-1.2
				c-0.4,0-0.7,0.1-1.1,0.1v4.1h2.5C191.3,96,192.1,95.8,192.7,95.3z"/>
			<path class="st8" d="M191.1,100.1H188v4.2c0.4,0.1,0.8,0.2,1.2,0.2c0.5,0,1,0,1.5,0c0.8,0,1.6-0.2,2.3-0.6c0.6-0.4,1-1.1,0.9-1.8
				C193.9,100.9,193,100.1,191.1,100.1z"/>
			<path class="st8" d="M260.3,108.2c-0.4,0.2-0.5,0.5-0.9,1.3c-0.4,1.2-1.2,2.3-2.4,2.8c-1.2,0.5-3.2,0.5-6.1-1.8
				c-5.1-4.2-6.3-13.3-2.6-19c1.1-1.7,3.5-4.6,6.3-4.2c1.5,0.3,2.8,1.2,3.6,2.6c0.6,0.8,1,1.2,1.3,1.2l0,0c0.6,0,1.5-0.9,2-1.8
				c0.9-1.4,0.7-2.6,0.4-4.9c-0.3-1.7-0.4-3.4-0.3-5.1c0.1-1.2,0.2-2.5,0.4-3.7c0.4-2.5-1.2-4.8-3.7-5.2c-0.3,0-0.5-0.1-0.8-0.1
				h-50.6c-1,0-2,0.4-2.7,1.1l-7.1,7.1c-2.7,2.7-7.2,2.8-9.9,0c0,0,0,0,0,0l-7.1-7.1c-0.7-0.7-1.7-1.1-2.7-1.1h-4.6c-5,0-9,4-9,9
				V117c0,5,4,9,9,9h82c2.3,0,4.3-1.8,4.5-4.1c0.2-2.7,0.9-5.3,2.2-7.7c0.1-0.2,0.2-0.3,0.3-0.5c0.6-1.1,2-3.5,1.3-4.6
				C262.6,108.2,261.4,107.8,260.3,108.2z M197.6,107.6c-1.7,1.1-4.2,1.7-7.4,1.7c-0.4,0-0.9,0-1.4,0s-1.1-0.1-1.7-0.1
				s-1.1-0.2-1.7-0.3c-0.5-0.1-1-0.2-1.5-0.4c-1.1-0.3-1.9-1.4-1.9-2.6V89.6c0-0.4,0.1-0.8,0.4-1.1c0.3-0.3,0.7-0.5,1.1-0.7
				c1-0.3,2-0.5,3-0.6c1.2-0.1,2.4-0.2,3.7-0.2c2.4-0.1,4.8,0.4,6.9,1.5c1.6,1,2.5,2.8,2.4,4.6c0,1-0.3,1.9-0.9,2.7
				c-0.6,0.8-1.5,1.4-2.4,1.7c2.7,0.9,4,2.5,4,5C200.3,104.6,199.3,106.5,197.6,107.6z M217.8,108.2c-0.4,0.4-1,0.7-1.5,0.6h-9.4
				c-1.7,0.1-3.1-1.1-3.2-2.7c0-0.2,0-0.3,0-0.5V87.6l1.2-0.2c0.5-0.1,1.1-0.1,1.6-0.1c0.9-0.1,1.7,0.1,2.5,0.6
				c0.6,0.6,0.9,1.5,0.8,2.3v13.8h8c0.2,0.3,0.3,0.7,0.4,1c0.1,0.4,0.2,0.9,0.2,1.4C218.4,107,218.2,107.7,217.8,108.2L217.8,108.2z
				 M240.6,103c-0.5,1.3-1.3,2.5-2.3,3.5c-1,1-2.2,1.7-3.5,2.2c-2.8,1-5.9,1-8.8,0c-1.3-0.5-2.5-1.2-3.5-2.2c-1-1-1.8-2.2-2.3-3.5
				c-1.1-3.1-1.1-6.5,0-9.6c0.5-1.3,1.3-2.5,2.3-3.5c1-0.9,2.2-1.7,3.5-2.2c2.8-1,5.9-1,8.7,0c1.3,0.5,2.5,1.2,3.5,2.2
				c1,1,1.8,2.2,2.4,3.5c0.6,1.5,0.9,3.2,0.9,4.8C241.5,99.8,241.2,101.5,240.6,103z"/>
			<path class="st8" d="M346.2,111.5l-2.6-37.6c-0.3-5-4.6-8.7-9.6-8.4c0,0,0,0,0,0l-65,4.5c-2,0.1-3.7,1.6-4.1,3.6
				c-0.4,1.9-0.5,3.9-0.5,5.8c0.1,1.5,0.3,3,0.6,4.5c0.5,2.4,1,4.6-0.4,7.1c-0.4,0.8-2.1,3.6-4.7,3.6c-1.9,0.1-3.1-1.3-3.9-2.2
				c-0.6-0.6-1.1-1.2-1.5-1.2c-0.6,0-1.8,0.9-3,3c-2.5,4.5-1.1,11.7,2.9,14.6c1.7,1.2,2.6,1.3,2.9,1.1s0.3-0.5,0.5-1.1
				c0.3-1.3,1.1-2.5,2.2-3.2c2.5-1.2,5.6-0.5,7.3,1.7c1.7,2.6,0.2,5.9-0.8,7.8c-0.1,0.2-0.2,0.3-0.2,0.5c-0.7,1.6-1.2,3.4-1.3,5.2
				c-0.2,2.5,1.6,4.7,4.1,4.9c0.2,0,0.5,0,0.7,0l67.8-4.7C342.8,120.8,346.5,116.5,346.2,111.5C346.2,111.5,346.2,111.5,346.2,111.5
				z M286.7,106c-0.3,0.5-0.8,0.9-1.4,1.2c-0.6,0.3-1.1,0.5-1.7,0.7c-0.9,0.3-1.8,0.4-2.8,0.5c-1.5,0.1-3,0-4.5-0.3
				c-1.3-0.3-2.6-0.9-3.7-1.8c-1.1-0.9-2-2-2.6-3.3c-0.7-1.6-1.1-3.3-1.2-5c-0.1-1.6,0-3.3,0.5-4.9c0.4-1.4,1.1-2.6,2.1-3.7
				c0.9-1,2-1.8,3.3-2.4c1.3-0.6,2.7-0.9,4.2-1c1.7-0.2,3.4,0,5,0.7c1.1,0.4,1.8,1.4,1.9,2.6c0,0.6-0.1,1.1-0.4,1.6
				c-0.3,0.4-0.6,0.8-1,1.1c-0.6-0.4-1.3-0.6-2-0.9c-0.8-0.2-1.6-0.3-2.4-0.3c-1.6,0-3,0.7-4,1.9c-0.9,1.4-1.3,3.1-1.1,4.7
				c0,1.7,0.7,3.4,1.9,4.6c1.2,1,2.8,1.5,4.4,1.3c0.8,0,1.6-0.2,2.4-0.6c0.6-0.3,1.2-0.6,1.8-1c0.9,0.6,1.5,1.6,1.5,2.7
				C287,105,286.9,105.5,286.7,106z M308.6,104.3c-0.1,0.4-0.4,0.8-0.7,1.1c-0.3,0.3-0.6,0.5-1,0.7c-1.2,0.5-2.5,0.4-3.6-0.2
				c-0.7-0.5-1.3-1-1.9-1.6l-5.4-5.5l0.5,7.8c-0.4,0.1-0.8,0.2-1.2,0.3c-0.5,0.1-1.1,0.2-1.6,0.2c-0.9,0.1-1.8,0-2.6-0.4
				c-0.6-0.6-0.9-1.4-0.9-2.2L289,85.9l1.2-0.3c0.5-0.1,1.1-0.2,1.6-0.2c0.9-0.1,1.8,0,2.5,0.4c0.6,0.6,1,1.4,0.9,2.2l0.4,5.6
				l6.6-8.8c1.2-0.2,2.4,0,3.5,0.7c0.7,0.5,1.1,1.2,1.2,2c0,0.6-0.1,1.2-0.3,1.7c-0.4,0.7-0.8,1.3-1.3,1.9l-4,4.7
				c1.6,1.6,3.1,2.9,4.4,4.2c1.3,1.2,2.4,2.2,3.2,3C308.8,103.4,308.7,103.9,308.6,104.3L308.6,104.3z M326.8,101.2
				c-0.3,0.9-0.9,1.6-1.6,2.2c-0.8,0.7-1.8,1.2-2.8,1.6c-1.3,0.4-2.6,0.7-3.9,0.8c-1,0.1-2,0.1-3,0c-0.8-0.1-1.7-0.3-2.5-0.6
				c-0.6-0.2-1.2-0.6-1.7-1.1c-0.4-0.5-0.7-1.1-0.7-1.7c-0.1-0.6,0.1-1.2,0.5-1.8c0.3-0.5,0.7-0.9,1.2-1.2c0.8,0.5,1.6,0.9,2.5,1.2
				c1,0.3,2.1,0.4,3.1,0.3c0.8,0,1.7-0.2,2.4-0.7c0.4-0.3,0.6-0.8,0.6-1.3c0-0.4-0.3-0.8-0.6-1c-0.5-0.3-1-0.5-1.6-0.6l-1.5-0.4
				c-1-0.3-2-0.6-2.9-0.9c-0.8-0.3-1.6-0.7-2.2-1.2c-0.6-0.5-1.2-1.1-1.5-1.8c-0.4-0.8-0.6-1.7-0.7-2.6c-0.2-1.8,0.5-3.7,2-4.9
				c1.8-1.4,4-2.2,6.2-2.2c0.9-0.1,1.9-0.1,2.8,0c0.8,0.1,1.5,0.2,2.2,0.5c0.6,0.2,1.1,0.6,1.5,1c0.4,0.4,0.6,1,0.6,1.6
				c0.1,0.6,0,1.1-0.3,1.6c-0.2,0.4-0.6,0.8-0.9,1.2c-0.7-0.3-1.4-0.6-2.1-0.7c-0.9-0.2-1.9-0.2-2.8-0.2c-0.8,0-1.6,0.2-2.3,0.6
				c-0.4,0.2-0.7,0.7-0.6,1.1c0,0.3,0.2,0.7,0.5,0.8c0.4,0.2,0.9,0.4,1.4,0.5l1.9,0.5c1.9,0.4,3.7,1.2,5.2,2.3
				c1.3,1.1,2,2.6,2.1,4.3C327.3,99.4,327.2,100.3,326.8,101.2L326.8,101.2z"/>
		</g>
	</g>
</g>
</svg>
