<svg xmlns="http://www.w3.org/2000/svg" viewBox="0 0 595.28 139.69"><defs><style>.cls-1{fill:none;}.cls-2{fill:#483d86;}.cls-3{fill:#5c4da0;}.cls-4{fill:#8d82bd;}.cls-5{isolation:isolate;}.cls-6{fill:#fff;}.cls-7{opacity:0.6;}.cls-8{fill:#010101;}.cls-9{fill:#afa7d1;}</style></defs><g id="Layer_2" data-name="Layer 2"><g id="Layer_1-2" data-name="Layer 1"><rect class="cls-1" width="595.28" height="18"/><path class="cls-2" d="M1,9A8,8,0,0,1,9,1h7l6,4h3l6-4H259.33V26H30.5l-6,4h-3l-6-4H9a8,8,0,0,1-8-8Z"/><path class="cls-3" d="M0,8A8,8,0,0,1,8,0h7l6,4h3l6-4H258.33V25H29.5l-6,4h-3l-6-4H8a8,8,0,0,1-8-8Z"/><path class="cls-4" d="M2.34,22.66A8,8,0,0,1,0,17V8H1v9A7,7,0,0,0,3.05,22ZM1,7.53,0,7.47A8,8,0,0,1,8,0h7.17l6,4h2.7l6-4h228V1H30.15l-6,4h-3.3l-6-4H8A7,7,0,0,0,1,7.53Z"/><g class="cls-5"><path class="cls-6" d="M11.17,20.74V12.07c0-.35,0-.7,0-1.06s-.05-.7-.1-1h1.16l.13,1.56-.12.22a2.5,2.5,0,0,1,1-1.45,2.94,2.94,0,0,1,1.75-.51,3.08,3.08,0,0,1,1.74.49,3.35,3.35,0,0,1,1.19,1.38,4.78,4.78,0,0,1,.43,2.07,4.7,4.7,0,0,1-.43,2.06,3.13,3.13,0,0,1-2.93,1.83,2.94,2.94,0,0,1-1.75-.51,2.52,2.52,0,0,1-1-1.46l.16-.15v5.25Zm3.54-4.14a2.09,2.09,0,0,0,1.71-.75A3.28,3.28,0,0,0,17,13.72a3.36,3.36,0,0,0-.62-2.15,2,2,0,0,0-1.71-.77,2.09,2.09,0,0,0-1.73.75,3.41,3.41,0,0,0-.6,2.14,3.44,3.44,0,0,0,.6,2.15A2.07,2.07,0,0,0,14.71,16.6Z"/><path class="cls-6" d="M20.17,17.5v-11h1.21v11Z"/><path class="cls-6" d="M26.63,17.61a3.23,3.23,0,0,1-1.76-.48,3.11,3.11,0,0,1-1.17-1.35,4.85,4.85,0,0,1-.41-2.06,4.78,4.78,0,0,1,.42-2.07,3.26,3.26,0,0,1,1.18-1.38,3.08,3.08,0,0,1,1.74-.49,3,3,0,0,1,1.76.51,2.5,2.5,0,0,1,1,1.45l-.17.12V10h1.19V17.5H29.19V15.55l.17.09a2.52,2.52,0,0,1-1,1.46A3,3,0,0,1,26.63,17.61Zm.25-1a2.07,2.07,0,0,0,1.71-.76,3.44,3.44,0,0,0,.6-2.15,3.35,3.35,0,0,0-.61-2.14,2.33,2.33,0,0,0-3.44,0,3.36,3.36,0,0,0-.62,2.15,3.28,3.28,0,0,0,.62,2.13A2.14,2.14,0,0,0,26.88,16.6Z"/><path class="cls-6" d="M35.14,17.89,31.75,10H33l2.72,6.66Zm-2.76,3L32.13,20a7.18,7.18,0,0,0,1.16-.38,2.56,2.56,0,0,0,.79-.56,3.22,3.22,0,0,0,.57-.92L35.13,17l.27-.37L38.15,10h1.22l-3.53,8.23a5.15,5.15,0,0,1-.91,1.46,3.44,3.44,0,0,1-1.15.84A5.87,5.87,0,0,1,32.38,20.91Z"/><path class="cls-6" d="M43.55,10.92V10H48.4v1Zm4.82,5.5v1a5,5,0,0,1-.5.11,4.58,4.58,0,0,1-.55,0,2.29,2.29,0,0,1-1.67-.6,2.37,2.37,0,0,1-.63-1.8V8l1.22-.43V15a2.11,2.11,0,0,0,.17.93,1,1,0,0,0,.47.46,1.83,1.83,0,0,0,.68.13,2.41,2.41,0,0,0,.4,0A2.83,2.83,0,0,0,48.37,16.42Z"/><path class="cls-6" d="M53,17.61a3.58,3.58,0,0,1-1.88-.48,3.29,3.29,0,0,1-1.25-1.36,4.65,4.65,0,0,1-.44-2.08,4.64,4.64,0,0,1,.44-2.07,3.23,3.23,0,0,1,1.25-1.36,3.92,3.92,0,0,1,3.76,0,3.23,3.23,0,0,1,1.25,1.36,4.64,4.64,0,0,1,.44,2.07,4.65,4.65,0,0,1-.44,2.08,3.29,3.29,0,0,1-1.25,1.36A3.58,3.58,0,0,1,53,17.61Zm0-1a2.12,2.12,0,0,0,1.72-.74,3.4,3.4,0,0,0,.6-2.17,3.29,3.29,0,0,0-.61-2.14A2.09,2.09,0,0,0,53,10.8a2.12,2.12,0,0,0-1.72.75,3.29,3.29,0,0,0-.62,2.14,3.34,3.34,0,0,0,.61,2.17A2.11,2.11,0,0,0,53,16.6Z"/><path class="cls-6" d="M58.45,17.5V12.07c0-.35,0-.7,0-1.06s0-.7-.1-1h1.15l.14,1.56-.15.12a2.58,2.58,0,0,1,1.05-1.39,3,3,0,0,1,1.69-.47c1.81,0,2.72,1,2.72,3V17.5H63.71V12.82a2.34,2.34,0,0,0-.42-1.54A1.67,1.67,0,0,0,62,10.8a2.24,2.24,0,0,0-1.68.64,2.38,2.38,0,0,0-.63,1.74V17.5Z"/><path class="cls-6" d="M73.4,16.6a3.53,3.53,0,0,1-1.26.74,4.83,4.83,0,0,1-1.59.27,4.09,4.09,0,0,1-2-.47,3.19,3.19,0,0,1-1.31-1.34,4.54,4.54,0,0,1-.46-2.09,4.5,4.5,0,0,1,.45-2.06,3.37,3.37,0,0,1,1.26-1.38,3.43,3.43,0,0,1,1.85-.49,3.17,3.17,0,0,1,1.72.44,2.88,2.88,0,0,1,1.11,1.27,4.76,4.76,0,0,1,.38,2v.22h-5.7V12.9h5l-.39.55a3.08,3.08,0,0,0-.52-2,1.9,1.9,0,0,0-1.6-.71,2.08,2.08,0,0,0-1.71.77A3.31,3.31,0,0,0,68,13.63a3.27,3.27,0,0,0,.66,2.22,2.39,2.39,0,0,0,1.91.75,3.65,3.65,0,0,0,1.27-.22A3.88,3.88,0,0,0,73,15.72Z"/><path class="cls-6" d="M79.3,17.5V12.07c0-.35,0-.7,0-1.06s0-.7-.1-1h1.15l.14,1.56-.15.12a2.58,2.58,0,0,1,1.05-1.39,3,3,0,0,1,1.69-.47c1.81,0,2.72,1,2.72,3V17.5H84.56V12.82a2.34,2.34,0,0,0-.42-1.54,1.67,1.67,0,0,0-1.32-.48,2.24,2.24,0,0,0-1.68.64,2.38,2.38,0,0,0-.63,1.74V17.5Z"/><path class="cls-6" d="M91.19,17.61a3.6,3.6,0,0,1-1.88-.48,3.27,3.27,0,0,1-1.24-1.36,4.52,4.52,0,0,1-.45-2.08,4.51,4.51,0,0,1,.45-2.07,3.21,3.21,0,0,1,1.24-1.36,3.6,3.6,0,0,1,1.88-.48,3.64,3.64,0,0,1,1.89.48,3.21,3.21,0,0,1,1.24,1.36,4.51,4.51,0,0,1,.44,2.07,4.52,4.52,0,0,1-.44,2.08,3.27,3.27,0,0,1-1.24,1.36A3.64,3.64,0,0,1,91.19,17.61Zm0-1a2.11,2.11,0,0,0,1.72-.74,3.34,3.34,0,0,0,.61-2.17,3.29,3.29,0,0,0-.62-2.14,2.32,2.32,0,0,0-3.42,0,3.23,3.23,0,0,0-.63,2.14,3.4,3.4,0,0,0,.61,2.17A2.13,2.13,0,0,0,91.19,16.6Z"/><path class="cls-6" d="M95.57,10.92V10h4.85v1Zm4.82,5.5v1a5,5,0,0,1-.5.11,4.58,4.58,0,0,1-.55,0,2.29,2.29,0,0,1-1.67-.6,2.37,2.37,0,0,1-.63-1.8V8l1.22-.43V15a2.11,2.11,0,0,0,.17.93,1,1,0,0,0,.47.46,1.83,1.83,0,0,0,.68.13,2.41,2.41,0,0,0,.4,0A2.83,2.83,0,0,0,100.39,16.42Z"/><path class="cls-6" d="M108.07,16.6a3.49,3.49,0,0,1-1.27.74,4.73,4.73,0,0,1-1.58.27,4.16,4.16,0,0,1-2-.47,3.17,3.17,0,0,1-1.3-1.34,4.42,4.42,0,0,1-.46-2.09,4.5,4.5,0,0,1,.45-2.06,3.41,3.41,0,0,1,1.25-1.38A3.46,3.46,0,0,1,105,9.78a3.2,3.2,0,0,1,1.73.44,2.8,2.8,0,0,1,1.1,1.27,4.6,4.6,0,0,1,.38,2v.22h-5.7V12.9h5l-.39.55a3.14,3.14,0,0,0-.51-2,1.91,1.91,0,0,0-1.6-.71,2.11,2.11,0,0,0-1.72.77,3.36,3.36,0,0,0-.62,2.14,3.32,3.32,0,0,0,.65,2.22,2.4,2.4,0,0,0,1.91.75,3.61,3.61,0,0,0,1.27-.22,3.77,3.77,0,0,0,1.16-.66Z"/></g><g class="cls-7"><rect class="cls-6" x="112.43" y="5" width="45.25" height="16" rx="4"/></g><g class="cls-5"><path class="cls-8" d="M118.75,17.5V6.82H123a4,4,0,0,1,2.54.73,2.47,2.47,0,0,1,.91,2.06,2.44,2.44,0,0,1-.5,1.57,2.78,2.78,0,0,1-1.39.91V12a2.5,2.5,0,0,1,2.15,2.62,2.61,2.61,0,0,1-.93,2.16,4.1,4.1,0,0,1-2.63.75ZM120,11.56h2.88a2.89,2.89,0,0,0,1.82-.48,1.68,1.68,0,0,0,.61-1.41,1.61,1.61,0,0,0-.6-1.37,3,3,0,0,0-1.83-.46H120Zm0,4.92h3.12a3,3,0,0,0,1.85-.46,1.73,1.73,0,0,0,.59-1.46,1.8,1.8,0,0,0-.6-1.47,2.85,2.85,0,0,0-1.84-.49H120Z"/><path class="cls-8" d="M132.15,17.62a3.17,3.17,0,0,1-2.79-1.39,7.22,7.22,0,0,1-1-4.07,7.22,7.22,0,0,1,1-4.07,3.5,3.5,0,0,1,5.58,0,7.21,7.21,0,0,1,.94,4.06,7.2,7.2,0,0,1-.95,4.08A3.14,3.14,0,0,1,132.15,17.62Zm0-1A2,2,0,0,0,134,15.51a7,7,0,0,0,.61-3.36A6.9,6.9,0,0,0,134,8.81a2.19,2.19,0,0,0-3.76,0,6.91,6.91,0,0,0-.61,3.33,7,7,0,0,0,.61,3.36A2,2,0,0,0,132.15,16.59Z"/></g><g class="cls-5"><path class="cls-6" d="M163.85,17.5v-11h1.22v5.43l-.17-.15a2.58,2.58,0,0,1,1-1.45,2.93,2.93,0,0,1,1.74-.51,3.17,3.17,0,0,1,1.75.48,3.24,3.24,0,0,1,1.18,1.35,4.52,4.52,0,0,1,.43,2.05,4.71,4.71,0,0,1-.43,2.08,3.33,3.33,0,0,1-1.18,1.38,3.22,3.22,0,0,1-1.75.49,2.93,2.93,0,0,1-1.74-.51,2.54,2.54,0,0,1-1-1.46l.17-.16v2Zm3.54-.9a2.08,2.08,0,0,0,1.71-.77,3.42,3.42,0,0,0,.62-2.17,3.24,3.24,0,0,0-.62-2.11,2.34,2.34,0,0,0-3.43,0,3.38,3.38,0,0,0-.6,2.14,3.38,3.38,0,0,0,.6,2.15A2,2,0,0,0,167.39,16.6Z"/><path class="cls-6" d="M179,16.6a3.53,3.53,0,0,1-1.26.74,4.83,4.83,0,0,1-1.59.27,4.09,4.09,0,0,1-2-.47,3.19,3.19,0,0,1-1.31-1.34,4.54,4.54,0,0,1-.46-2.09,4.5,4.5,0,0,1,.45-2.06,3.37,3.37,0,0,1,1.26-1.38A3.43,3.43,0,0,1,176,9.78a3.17,3.17,0,0,1,1.72.44,2.88,2.88,0,0,1,1.11,1.27,4.76,4.76,0,0,1,.38,2v.22h-5.7V12.9h5l-.39.55a3.08,3.08,0,0,0-.52-2,1.9,1.9,0,0,0-1.6-.71,2.11,2.11,0,0,0-1.72.77,3.36,3.36,0,0,0-.62,2.14,3.27,3.27,0,0,0,.66,2.22,2.39,2.39,0,0,0,1.91.75,3.65,3.65,0,0,0,1.27-.22,3.88,3.88,0,0,0,1.16-.66Z"/><path class="cls-6" d="M183.91,17.61a3.2,3.2,0,0,1-1.76-.48A3.06,3.06,0,0,1,181,15.78a4.85,4.85,0,0,1-.41-2.06,4.78,4.78,0,0,1,.42-2.07,3.26,3.26,0,0,1,1.18-1.38,3.12,3.12,0,0,1,1.75-.49,2.94,2.94,0,0,1,1.75.51,2.51,2.51,0,0,1,1,1.45l-.18.12V10h1.2V17.5h-1.2V15.55l.18.09a2.54,2.54,0,0,1-1,1.46A2.94,2.94,0,0,1,183.91,17.61Zm.24-1a2,2,0,0,0,1.71-.76,3.38,3.38,0,0,0,.6-2.15,3.35,3.35,0,0,0-.61-2.14,2.07,2.07,0,0,0-1.7-.75,2.11,2.11,0,0,0-1.74.77,3.36,3.36,0,0,0-.62,2.15,3.28,3.28,0,0,0,.62,2.13A2.15,2.15,0,0,0,184.15,16.6Z"/><path class="cls-6" d="M189,10.92V10h4.84v1Zm4.81,5.5v1a5,5,0,0,1-.5.11,4.58,4.58,0,0,1-.55,0A2.29,2.29,0,0,1,191,17a2.37,2.37,0,0,1-.62-1.8V8l1.21-.43V15a2.11,2.11,0,0,0,.17.93,1,1,0,0,0,.48.46,1.78,1.78,0,0,0,.67.13,2.54,2.54,0,0,0,.41,0A2.73,2.73,0,0,0,193.76,16.42Z"/></g><g class="cls-7"><rect class="cls-6" x="198.4" y="5" width="54.93" height="16" rx="4"/></g><g class="cls-5"><path class="cls-8" d="M204.57,17.5v-11h1.21v5l-.19.15a2.58,2.58,0,0,1,1-1.39,3,3,0,0,1,1.69-.47c1.81,0,2.72,1,2.72,3V17.5h-1.22V12.82a2.34,2.34,0,0,0-.42-1.54,1.67,1.67,0,0,0-1.32-.48,2.24,2.24,0,0,0-1.68.64,2.38,2.38,0,0,0-.63,1.74V17.5Z"/><path class="cls-8" d="M216.24,17.61a3.2,3.2,0,0,1-1.76-.48,3,3,0,0,1-1.17-1.35,4.7,4.7,0,0,1-.42-2.06,4.78,4.78,0,0,1,.42-2.07,3.33,3.33,0,0,1,1.18-1.38,3.14,3.14,0,0,1,1.75-.49,2.94,2.94,0,0,1,1.75.51,2.51,2.51,0,0,1,1,1.45l-.18.12V10H220V17.5h-1.2V15.55l.18.09a2.54,2.54,0,0,1-1,1.46A2.94,2.94,0,0,1,216.24,17.61Zm.24-1a2,2,0,0,0,1.71-.76,3.38,3.38,0,0,0,.6-2.15,3.29,3.29,0,0,0-.61-2.14,2.32,2.32,0,0,0-3.43,0,3.3,3.3,0,0,0-.63,2.15,3.22,3.22,0,0,0,.63,2.13A2.12,2.12,0,0,0,216.48,16.6Z"/><path class="cls-8" d="M222.34,17.5v-11h1.22v11Z"/><path class="cls-8" d="M224.85,10.92V10h4.53v1Zm4.74-3.35a2.85,2.85,0,0,0-.78-.12,1.51,1.51,0,0,0-.65.13.9.9,0,0,0-.46.46,2,2,0,0,0-.17.91V17.5h-1.21V8.8a2.45,2.45,0,0,1,.6-1.81,2.27,2.27,0,0,1,1.65-.59,4.36,4.36,0,0,1,.51,0,3.1,3.1,0,0,1,.51.11Z"/></g><polygon class="cls-8" points="243.35 17.31 248.33 8.69 238.38 8.69 243.35 17.31"/><polygon class="cls-8" points="147.71 17.31 152.68 8.69 142.73 8.69 147.71 17.31"/><rect class="cls-9" x="112.43" y="31.69" width="44.88" height="108" rx="5.67"/><g class="cls-5"><path class="cls-8" d="M117.06,44.89V34.21h4.29a3.93,3.93,0,0,1,2.53.73,2.74,2.74,0,0,1,.42,3.63,2.77,2.77,0,0,1-1.39.9v-.12a2.6,2.6,0,0,1,1.57.89,2.64,2.64,0,0,1,.57,1.74,2.61,2.61,0,0,1-.93,2.16,4.07,4.07,0,0,1-2.62.75ZM118.27,39h2.88a2.89,2.89,0,0,0,1.82-.48,1.68,1.68,0,0,0,.61-1.41,1.61,1.61,0,0,0-.6-1.37,3,3,0,0,0-1.83-.46h-2.88Zm0,4.92h3.12a3,3,0,0,0,1.85-.47,1.72,1.72,0,0,0,.6-1.45,1.8,1.8,0,0,0-.6-1.47,2.88,2.88,0,0,0-1.85-.5h-3.12Z"/><path class="cls-8" d="M130.45,45a3.14,3.14,0,0,1-2.78-1.39,7.14,7.14,0,0,1-1-4.07,7.23,7.23,0,0,1,.94-4.07,3.5,3.5,0,0,1,5.58,0,7.17,7.17,0,0,1,.95,4.05,7.19,7.19,0,0,1-1,4.08A3.15,3.15,0,0,1,130.45,45Zm0-1a2,2,0,0,0,1.88-1.08,7,7,0,0,0,.61-3.36,6.86,6.86,0,0,0-.61-3.33,2.2,2.2,0,0,0-3.76,0,6.91,6.91,0,0,0-.61,3.33,7,7,0,0,0,.61,3.36A2,2,0,0,0,130.45,44Z"/><path class="cls-8" d="M121.62,63a5.07,5.07,0,0,1-2.64-.66,4.36,4.36,0,0,1-1.71-1.89,6.63,6.63,0,0,1-.6-2.93,6.51,6.51,0,0,1,.6-2.91A4.37,4.37,0,0,1,119,52.75a5.07,5.07,0,0,1,2.64-.66,5.75,5.75,0,0,1,2,.34,4.28,4.28,0,0,1,1.61,1l-.47.94a5.12,5.12,0,0,0-1.51-.94,4.59,4.59,0,0,0-1.64-.29,3.36,3.36,0,0,0-2.72,1.14,4.84,4.84,0,0,0-1,3.24,5,5,0,0,0,1,3.27,3.37,3.37,0,0,0,2.73,1.14,4.59,4.59,0,0,0,1.64-.28,5.16,5.16,0,0,0,1.51-.95l.47.95a4.28,4.28,0,0,1-1.61,1A5.75,5.75,0,0,1,121.62,63Z"/><path class="cls-8" d="M127.92,62.89v-1h6v1Zm2.35-.56v-9.4l.71.36-2.9,1.84V54l2.73-1.74h.71V62.33Z"/><path class="cls-8" d="M116.7,79.34h1.54v1.55H116.7Z"/><path class="cls-8" d="M116.7,97.34h1.54v1.55H116.7Z"/><path class="cls-8" d="M121.62,117a5.07,5.07,0,0,1-2.64-.66,4.36,4.36,0,0,1-1.71-1.89,6.63,6.63,0,0,1-.6-2.93,6.51,6.51,0,0,1,.6-2.91,4.37,4.37,0,0,1,1.71-1.87,5.07,5.07,0,0,1,2.64-.66,5.75,5.75,0,0,1,2,.34,4.28,4.28,0,0,1,1.61,1l-.47.94a5.12,5.12,0,0,0-1.51-.94,4.59,4.59,0,0,0-1.64-.29,3.36,3.36,0,0,0-2.72,1.14,4.84,4.84,0,0,0-1,3.24,5,5,0,0,0,1,3.27,3.37,3.37,0,0,0,2.73,1.14,4.59,4.59,0,0,0,1.64-.28,5.16,5.16,0,0,0,1.51-1l.47,1a4.28,4.28,0,0,1-1.61,1A5.75,5.75,0,0,1,121.62,117Z"/><path class="cls-8" d="M130.5,117a5.23,5.23,0,0,1-2-.35,3,3,0,0,1-1.33-1,2.68,2.68,0,0,1-.47-1.58,2.47,2.47,0,0,1,.75-1.84,3.49,3.49,0,0,1,2-.92l-.07.23a3.2,3.2,0,0,1-1.81-.92,2.37,2.37,0,0,1-.64-1.68,2.45,2.45,0,0,1,.46-1.5,2.86,2.86,0,0,1,1.26-1,4.69,4.69,0,0,1,1.87-.34,4.64,4.64,0,0,1,1.86.34,2.86,2.86,0,0,1,1.26,1,2.45,2.45,0,0,1,.46,1.5,2.39,2.39,0,0,1-.64,1.69,3,3,0,0,1-1.79.91l-.09-.23a3.35,3.35,0,0,1,2,.93,2.48,2.48,0,0,1,.73,1.83,2.68,2.68,0,0,1-.47,1.58,3,3,0,0,1-1.33,1A5.18,5.18,0,0,1,130.5,117Zm0-1a3.15,3.15,0,0,0,1.93-.51,1.74,1.74,0,0,0,.68-1.48,1.65,1.65,0,0,0-.74-1.43,3.85,3.85,0,0,0-1.87-.64,3.89,3.89,0,0,0-1.88.64,1.64,1.64,0,0,0-.73,1.43,1.73,1.73,0,0,0,.67,1.48A3.18,3.18,0,0,0,130.5,116Zm0-4.92a3.25,3.25,0,0,0,1.7-.64,1.86,1.86,0,0,0,0-2.8,2.72,2.72,0,0,0-1.73-.5,2.75,2.75,0,0,0-1.74.5,1.86,1.86,0,0,0,0,2.8A3.28,3.28,0,0,0,130.5,111.05Z"/><path class="cls-8" d="M117.06,134.89V124.21h3.58a6.32,6.32,0,0,1,2.91.62,4.23,4.23,0,0,1,1.83,1.82,6.07,6.07,0,0,1,.63,2.88,6.19,6.19,0,0,1-.63,2.91,4.37,4.37,0,0,1-1.84,1.82,6.18,6.18,0,0,1-2.9.63Zm1.23-1h2.28a4.14,4.14,0,0,0,3.11-1.08,4.51,4.51,0,0,0,1-3.23q0-4.27-4.15-4.27h-2.28Z"/><path class="cls-8" d="M131.43,135a5.23,5.23,0,0,1-2-.35,3,3,0,0,1-1.33-1,2.68,2.68,0,0,1-.47-1.58,2.47,2.47,0,0,1,.75-1.84,3.49,3.49,0,0,1,2-.92l-.07.23a3.2,3.2,0,0,1-1.81-.92,2.37,2.37,0,0,1-.64-1.68,2.45,2.45,0,0,1,.46-1.5,2.91,2.91,0,0,1,1.26-1,5.31,5.31,0,0,1,3.74,0,2.88,2.88,0,0,1,1.25,1,2.45,2.45,0,0,1,.46,1.5,2.39,2.39,0,0,1-.64,1.69,3,3,0,0,1-1.79.91l-.09-.23a3.41,3.41,0,0,1,2,.93,2.51,2.51,0,0,1,.72,1.83,2.68,2.68,0,0,1-.47,1.58,3,3,0,0,1-1.33,1A5.18,5.18,0,0,1,131.43,135Zm0-1a3.15,3.15,0,0,0,1.93-.51A1.74,1.74,0,0,0,134,132a1.65,1.65,0,0,0-.74-1.43,3.85,3.85,0,0,0-1.87-.64,3.89,3.89,0,0,0-1.88.64,1.64,1.64,0,0,0-.73,1.43,1.73,1.73,0,0,0,.67,1.48A3.18,3.18,0,0,0,131.43,134Zm0-4.92a3.25,3.25,0,0,0,1.7-.64,1.69,1.69,0,0,0,.65-1.4,1.72,1.72,0,0,0-.62-1.4,2.72,2.72,0,0,0-1.73-.5,2.75,2.75,0,0,0-1.74.5,1.86,1.86,0,0,0,0,2.8A3.28,3.28,0,0,0,131.43,129.05Z"/></g><polygon class="cls-8" points="147.71 44.7 152.68 36.08 142.73 36.08 147.71 44.7"/><rect class="cls-9" x="198.4" y="31.69" width="62.91" height="108" rx="5.67"/><g class="cls-5"><path class="cls-8" d="M202.87,44.89v-11h1.22v5l-.2.15a2.55,2.55,0,0,1,1.05-1.38,3,3,0,0,1,1.7-.48c1.81,0,2.71,1,2.71,3v4.74h-1.21V40.21a2.34,2.34,0,0,0-.42-1.54,1.67,1.67,0,0,0-1.32-.49,2.24,2.24,0,0,0-1.68.65,2.38,2.38,0,0,0-.63,1.74v4.32Z"/><path class="cls-8" d="M214.54,45a3.22,3.22,0,0,1-1.76-.47,3.11,3.11,0,0,1-1.17-1.35,4.85,4.85,0,0,1-.41-2.06,4.78,4.78,0,0,1,.42-2.07,3.26,3.26,0,0,1,1.18-1.38,3.09,3.09,0,0,1,1.74-.5,3,3,0,0,1,1.76.51,2.52,2.52,0,0,1,1,1.46l-.18.12V37.34h1.2v7.55h-1.2v-2l.18.09a2.5,2.5,0,0,1-1,1.45A3,3,0,0,1,214.54,45Zm.24-1a2,2,0,0,0,1.71-.76,3.38,3.38,0,0,0,.6-2.15,3.38,3.38,0,0,0-.6-2.15,2.32,2.32,0,0,0-3.44,0,3.36,3.36,0,0,0-.62,2.15,3.28,3.28,0,0,0,.62,2.13A2.13,2.13,0,0,0,214.78,44Z"/><path class="cls-8" d="M220.65,44.89v-11h1.21v11Z"/><path class="cls-8" d="M223.15,38.3v-1h4.53v1ZM227.89,35a2.85,2.85,0,0,0-.78-.12,1.54,1.54,0,0,0-.65.13.91.91,0,0,0-.46.45,2.11,2.11,0,0,0-.16.92v8.55h-1.22v-8.7a2.45,2.45,0,0,1,.6-1.81,2.27,2.27,0,0,1,1.65-.59,4.36,4.36,0,0,1,.51,0,3.06,3.06,0,0,1,.51.1Z"/><path class="cls-8" d="M209.52,66.13H208.3V60.88l.2.15a2.51,2.51,0,0,1-1,1.45,2.94,2.94,0,0,1-1.75.51,3.2,3.2,0,0,1-1.76-.47,3,3,0,0,1-1.17-1.35,4.7,4.7,0,0,1-.42-2.06,4.78,4.78,0,0,1,.42-2.07A3.33,3.33,0,0,1,204,55.66a3.15,3.15,0,0,1,1.75-.5,2.94,2.94,0,0,1,1.75.51,2.54,2.54,0,0,1,1,1.46l-.15-.23.16-1.56h1.13c0,.35-.07.71-.09,1.06s0,.71,0,1.06ZM206,62a2,2,0,0,0,1.71-.76,3.38,3.38,0,0,0,.6-2.15,3.32,3.32,0,0,0-.61-2.15,2.06,2.06,0,0,0-1.7-.75,2.08,2.08,0,0,0-1.73.78,3.3,3.3,0,0,0-.63,2.15,3.22,3.22,0,0,0,.63,2.13A2.12,2.12,0,0,0,206,62Z"/><path class="cls-8" d="M214.54,63a2.61,2.61,0,0,1-2-.75,3.22,3.22,0,0,1-.68-2.22V55.34H213V60a2.24,2.24,0,0,0,.42,1.5,1.62,1.62,0,0,0,1.28.48,2.13,2.13,0,0,0,1.62-.64A2.41,2.41,0,0,0,217,59.6V55.34h1.22v7.55H217V61.25l.18-.09a2.5,2.5,0,0,1-1,1.37A2.9,2.9,0,0,1,214.54,63Z"/><path class="cls-8" d="M223.42,63a3.22,3.22,0,0,1-1.76-.47,3.11,3.11,0,0,1-1.17-1.35,4.85,4.85,0,0,1-.41-2.06A4.78,4.78,0,0,1,220.5,57a3.26,3.26,0,0,1,1.18-1.38,3.09,3.09,0,0,1,1.74-.5,3,3,0,0,1,1.76.51,2.52,2.52,0,0,1,1,1.46l-.18.12V55.34h1.2v7.55H226v-2l.18.09a2.5,2.5,0,0,1-1,1.45A3,3,0,0,1,223.42,63Zm.24-1a2,2,0,0,0,1.71-.76,4.15,4.15,0,0,0,0-4.3,2.32,2.32,0,0,0-3.44,0,3.36,3.36,0,0,0-.62,2.15,3.28,3.28,0,0,0,.62,2.13A2.13,2.13,0,0,0,223.66,62Z"/><path class="cls-8" d="M229.53,62.89V57.46c0-.35,0-.7,0-1.06s0-.71-.1-1.06h1.15l.17,1.86-.17,0a2.36,2.36,0,0,1,.91-1.49,2.61,2.61,0,0,1,1.57-.51,2.22,2.22,0,0,1,.37,0,1.65,1.65,0,0,1,.32.06l0,1.11a2.45,2.45,0,0,0-.8-.12A1.94,1.94,0,0,0,231,57.47a3,3,0,0,0-.22,1.11v4.31Z"/><path class="cls-8" d="M234.49,56.3v-1h4.85v1Zm4.82,5.51v1l-.5.12a4.68,4.68,0,0,1-.55,0,2.29,2.29,0,0,1-1.67-.6,2.37,2.37,0,0,1-.63-1.8V53.41l1.22-.44v7.46a2.11,2.11,0,0,0,.17.93,1,1,0,0,0,.47.46,1.83,1.83,0,0,0,.68.12,2.41,2.41,0,0,0,.4,0A2.69,2.69,0,0,0,239.31,61.81Z"/><path class="cls-8" d="M247,62a3.48,3.48,0,0,1-1.27.73,4.73,4.73,0,0,1-1.58.27,4.16,4.16,0,0,1-2-.46,3.17,3.17,0,0,1-1.3-1.34,5,5,0,0,1,0-4.15,3.41,3.41,0,0,1,1.25-1.38,3.46,3.46,0,0,1,1.85-.5,3.21,3.21,0,0,1,1.73.45,2.77,2.77,0,0,1,1.1,1.26,4.6,4.6,0,0,1,.38,2v.23h-5.7v-.8h5l-.39.56a3.17,3.17,0,0,0-.51-2,1.91,1.91,0,0,0-1.6-.7,2.11,2.11,0,0,0-1.72.77,3.36,3.36,0,0,0-.62,2.14,3.32,3.32,0,0,0,.65,2.22,2.4,2.4,0,0,0,1.91.75,3.61,3.61,0,0,0,1.27-.22,3.8,3.8,0,0,0,1.16-.67Z"/><path class="cls-8" d="M249,62.89V57.46c0-.35,0-.7,0-1.06s0-.71-.1-1.06H250l.17,1.86-.17,0a2.36,2.36,0,0,1,.91-1.49,2.61,2.61,0,0,1,1.57-.51,2.22,2.22,0,0,1,.37,0,1.65,1.65,0,0,1,.32.06l0,1.11a2.45,2.45,0,0,0-.8-.12,1.94,1.94,0,0,0-1.94,1.23,3,3,0,0,0-.22,1.11v4.31Z"/><path class="cls-8" d="M209.05,80a3.52,3.52,0,0,1-1.26.73,4.83,4.83,0,0,1-1.59.27,4.09,4.09,0,0,1-2-.46,3.19,3.19,0,0,1-1.31-1.34,4.58,4.58,0,0,1-.46-2.1,4.45,4.45,0,0,1,.45-2,3.37,3.37,0,0,1,1.26-1.38,3.44,3.44,0,0,1,1.85-.5,3.17,3.17,0,0,1,1.72.45,2.85,2.85,0,0,1,1.11,1.26,4.76,4.76,0,0,1,.38,2v.23h-5.7v-.8h5l-.39.56a3.11,3.11,0,0,0-.52-2,1.9,1.9,0,0,0-1.6-.7,2.08,2.08,0,0,0-1.71.77,3.31,3.31,0,0,0-.63,2.14,3.27,3.27,0,0,0,.66,2.22,2.39,2.39,0,0,0,1.91.75,3.65,3.65,0,0,0,1.27-.22,3.92,3.92,0,0,0,1.16-.67Z"/><path class="cls-8" d="M210.91,70.15h1.49v1.38h-1.49ZM211,80.89V73.34h1.22v7.55Z"/><path class="cls-8" d="M217.92,84.23a5.53,5.53,0,0,1-3-.78l.21-1a6,6,0,0,0,1.33.59,5.23,5.23,0,0,0,1.43.18,2.16,2.16,0,0,0,1.64-.58,2.35,2.35,0,0,0,.56-1.72v-2l.17-.19a2.82,2.82,0,0,1-.56,1,2.56,2.56,0,0,1-.94.68,3.15,3.15,0,0,1-1.26.24,3.18,3.18,0,0,1-2.95-1.78,4.36,4.36,0,0,1-.43-2,4.32,4.32,0,0,1,.43-2,3.21,3.21,0,0,1,2.95-1.79,3,3,0,0,1,1.78.52,2.58,2.58,0,0,1,1,1.45l-.18-.17V73.34h1.21v7.49a3,3,0,0,1-3.4,3.4Zm-.15-4.59a2.16,2.16,0,0,0,1.72-.72,3.55,3.55,0,0,0,0-4,2.17,2.17,0,0,0-1.72-.73,2.23,2.23,0,0,0-1.75.73,3.46,3.46,0,0,0,0,4A2.23,2.23,0,0,0,217.77,79.64Z"/><path class="cls-8" d="M223.66,80.89v-11h1.22v5l-.2.15a2.55,2.55,0,0,1,1-1.38,3,3,0,0,1,1.7-.48c1.81,0,2.71,1,2.71,3v4.74h-1.21V76.21a2.34,2.34,0,0,0-.42-1.54,1.67,1.67,0,0,0-1.32-.49,2.24,2.24,0,0,0-1.68.65,2.38,2.38,0,0,0-.63,1.74v4.32Z"/><path class="cls-8" d="M231.37,74.3v-1h4.85v1Zm4.82,5.51v1l-.5.12a4.68,4.68,0,0,1-.55,0,2.29,2.29,0,0,1-1.67-.6,2.37,2.37,0,0,1-.63-1.8V71.41l1.22-.44v7.46a2.11,2.11,0,0,0,.17.93,1,1,0,0,0,.47.46,1.83,1.83,0,0,0,.68.12,2.41,2.41,0,0,0,.4,0A2.69,2.69,0,0,0,236.19,79.81Z"/><path class="cls-8" d="M237.69,80.89v-11h1.21v5l-.19.15a2.55,2.55,0,0,1,1-1.38,3,3,0,0,1,1.69-.48c1.81,0,2.72,1,2.72,3v4.74H243V76.21a2.34,2.34,0,0,0-.42-1.54,1.67,1.67,0,0,0-1.32-.49,2.24,2.24,0,0,0-1.68.65,2.38,2.38,0,0,0-.63,1.74v4.32Z"/><path class="cls-8" d="M204.9,98.89l-2.79-7.55h1.27L205.71,98h-.39l2.4-6.65h1.06L211.15,98h-.39l2.37-6.65h1.2l-2.79,7.55h-1.17l-2.49-6.8h.66l-2.47,6.8Z"/><path class="cls-8" d="M215.91,98.89v-11h1.21v5l-.19.15a2.55,2.55,0,0,1,1-1.38,3,3,0,0,1,1.69-.48c1.81,0,2.72,1,2.72,3v4.74h-1.22V94.21a2.34,2.34,0,0,0-.42-1.54,1.67,1.67,0,0,0-1.32-.49,2.24,2.24,0,0,0-1.68.65,2.38,2.38,0,0,0-.63,1.74v4.32Z"/><path class="cls-8" d="M227.8,99a3.6,3.6,0,0,1-1.88-.48,3.24,3.24,0,0,1-1.24-1.35,5,5,0,0,1,0-4.15,3.24,3.24,0,0,1,1.24-1.37,3.6,3.6,0,0,1,1.88-.48,3.64,3.64,0,0,1,1.89.48A3.24,3.24,0,0,1,230.93,93a5.11,5.11,0,0,1,0,4.15,3.24,3.24,0,0,1-1.24,1.35A3.64,3.64,0,0,1,227.8,99Zm0-1a2.11,2.11,0,0,0,1.72-.74,4.1,4.1,0,0,0,0-4.32,2.32,2.32,0,0,0-3.42,0,3.26,3.26,0,0,0-.63,2.15,3.4,3.4,0,0,0,.61,2.17A2.13,2.13,0,0,0,227.8,98Z"/><path class="cls-8" d="M233.26,98.89v-11h1.22v11Z"/><path class="cls-8" d="M243,98a3.52,3.52,0,0,1-1.26.73,4.83,4.83,0,0,1-1.59.27,4.09,4.09,0,0,1-2-.46,3.19,3.19,0,0,1-1.31-1.34,4.58,4.58,0,0,1-.46-2.1,4.45,4.45,0,0,1,.45-2,3.37,3.37,0,0,1,1.26-1.38,3.44,3.44,0,0,1,1.85-.5,3.17,3.17,0,0,1,1.72.45,2.85,2.85,0,0,1,1.11,1.26,4.76,4.76,0,0,1,.38,2v.23h-5.7v-.8h5l-.39.56a3.11,3.11,0,0,0-.52-2,1.9,1.9,0,0,0-1.6-.7,2.08,2.08,0,0,0-1.71.77,3.31,3.31,0,0,0-.63,2.14,3.27,3.27,0,0,0,.66,2.22,2.39,2.39,0,0,0,1.91.75,3.65,3.65,0,0,0,1.27-.22,3.92,3.92,0,0,0,1.16-.67Z"/><path class="cls-8" d="M209.52,116.89h-1.2v-2l.18.17a2.51,2.51,0,0,1-1,1.45,2.94,2.94,0,0,1-1.75.51,3.22,3.22,0,0,1-1.75-.48,3.33,3.33,0,0,1-1.18-1.38,4.86,4.86,0,0,1-.42-2.08,4.7,4.7,0,0,1,.42-2.06,3.09,3.09,0,0,1,1.17-1.35,3.2,3.2,0,0,1,1.76-.48,3,3,0,0,1,1.75.52,2.58,2.58,0,0,1,1,1.45l-.2.15v-5.43h1.22ZM206,116a2,2,0,0,0,1.7-.76,3.32,3.32,0,0,0,.61-2.15,3.38,3.38,0,0,0-.6-2.14,2.07,2.07,0,0,0-1.71-.76,2.12,2.12,0,0,0-1.73.75,3.21,3.21,0,0,0-.63,2.12,3.36,3.36,0,0,0,.63,2.17A2.1,2.1,0,0,0,206,116Z"/><path class="cls-8" d="M215,117a3.6,3.6,0,0,1-1.88-.48,3.24,3.24,0,0,1-1.24-1.35,5,5,0,0,1,0-4.15,3.24,3.24,0,0,1,1.24-1.37,3.6,3.6,0,0,1,1.88-.48,3.64,3.64,0,0,1,1.89.48,3.24,3.24,0,0,1,1.24,1.37,5.11,5.11,0,0,1,0,4.15,3.24,3.24,0,0,1-1.24,1.35A3.64,3.64,0,0,1,215,117Zm0-1a2.11,2.11,0,0,0,1.72-.74,4.1,4.1,0,0,0,0-4.32,2.32,2.32,0,0,0-3.42,0,3.26,3.26,0,0,0-.63,2.15,3.4,3.4,0,0,0,.61,2.17A2.13,2.13,0,0,0,215,116Z"/><path class="cls-8" d="M223.12,117a2.61,2.61,0,0,1-2-.75,3.22,3.22,0,0,1-.68-2.22v-4.68h1.21V114a2.24,2.24,0,0,0,.42,1.5,1.62,1.62,0,0,0,1.28.48,2.13,2.13,0,0,0,1.62-.64,2.41,2.41,0,0,0,.61-1.73v-4.26h1.22v7.55h-1.19v-1.64l.18-.09a2.5,2.5,0,0,1-1,1.37A2.9,2.9,0,0,1,223.12,117Z"/><path class="cls-8" d="M229.11,116.89v-11h1.21v5.43l-.16-.15a2.56,2.56,0,0,1,1-1.45,2.94,2.94,0,0,1,1.74-.52,3.2,3.2,0,0,1,1.76.48,3.31,3.31,0,0,1,1.18,1.35,4.7,4.7,0,0,1,.42,2.06,4.86,4.86,0,0,1-.42,2.08,3.35,3.35,0,0,1-1.19,1.38,3.19,3.19,0,0,1-1.75.48,2.93,2.93,0,0,1-1.74-.51,2.5,2.5,0,0,1-1-1.45l.16-.17v2Zm3.54-.9a2.08,2.08,0,0,0,1.71-.77,3.42,3.42,0,0,0,.61-2.17,3.26,3.26,0,0,0-.61-2.12,2.34,2.34,0,0,0-3.44,0,4.13,4.13,0,0,0,0,4.29A2.07,2.07,0,0,0,232.65,116Z"/><path class="cls-8" d="M238.11,116.89v-11h1.21v11Z"/><path class="cls-8" d="M247.86,116a3.48,3.48,0,0,1-1.27.73A4.73,4.73,0,0,1,245,117a4.16,4.16,0,0,1-2-.46,3.17,3.17,0,0,1-1.3-1.34,5,5,0,0,1,0-4.15,3.41,3.41,0,0,1,1.25-1.38,3.46,3.46,0,0,1,1.85-.5,3.21,3.21,0,0,1,1.73.45,2.77,2.77,0,0,1,1.1,1.26,4.6,4.6,0,0,1,.38,2v.23h-5.7v-.8h5l-.39.56a3.17,3.17,0,0,0-.51-2,1.91,1.91,0,0,0-1.6-.7,2.11,2.11,0,0,0-1.72.77,3.36,3.36,0,0,0-.62,2.14,3.32,3.32,0,0,0,.65,2.22A2.4,2.4,0,0,0,245,116a3.61,3.61,0,0,0,1.27-.22,3.8,3.8,0,0,0,1.16-.67Z"/><path class="cls-8" d="M202.45,134.89v-.84l5.16-6.24.2.49h-5.19v-1h6v.89l-5.13,6.21-.16-.51h5.46v1Z"/><path class="cls-8" d="M216.64,134a3.52,3.52,0,0,1-1.26.73,4.83,4.83,0,0,1-1.59.27,4.09,4.09,0,0,1-2-.46,3.19,3.19,0,0,1-1.31-1.34,4.58,4.58,0,0,1-.46-2.1,4.45,4.45,0,0,1,.45-2.05,3.37,3.37,0,0,1,1.26-1.38,3.44,3.44,0,0,1,1.85-.5,3.17,3.17,0,0,1,1.72.45,2.85,2.85,0,0,1,1.11,1.26,4.76,4.76,0,0,1,.38,2v.23h-5.7v-.8h5l-.39.56a3.11,3.11,0,0,0-.52-2,1.9,1.9,0,0,0-1.6-.7,2.08,2.08,0,0,0-1.71.77,3.31,3.31,0,0,0-.63,2.14,3.27,3.27,0,0,0,.66,2.22,2.39,2.39,0,0,0,1.91.75,3.65,3.65,0,0,0,1.27-.22,3.92,3.92,0,0,0,1.16-.67Z"/><path class="cls-8" d="M218.62,134.89v-5.43c0-.35,0-.7,0-1.06a9.5,9.5,0,0,0-.1-1.06h1.16l.16,1.86-.16,0a2.32,2.32,0,0,1,.91-1.49,2.56,2.56,0,0,1,1.56-.51,2.13,2.13,0,0,1,.37,0,1.52,1.52,0,0,1,.32.06l0,1.11a2.39,2.39,0,0,0-.79-.12,2.06,2.06,0,0,0-1.25.35,1.92,1.92,0,0,0-.69.88,2.78,2.78,0,0,0-.22,1.11v4.31Z"/><path class="cls-8" d="M227,135a3.6,3.6,0,0,1-1.88-.48,3.24,3.24,0,0,1-1.24-1.35,5,5,0,0,1,0-4.15,3.24,3.24,0,0,1,1.24-1.37,3.6,3.6,0,0,1,1.88-.48,3.64,3.64,0,0,1,1.89.48,3.24,3.24,0,0,1,1.24,1.37,5.11,5.11,0,0,1,0,4.15,3.24,3.24,0,0,1-1.24,1.35A3.64,3.64,0,0,1,227,135Zm0-1a2.11,2.11,0,0,0,1.72-.74,4.1,4.1,0,0,0,0-4.32,2.32,2.32,0,0,0-3.42,0,3.26,3.26,0,0,0-.63,2.15,3.4,3.4,0,0,0,.61,2.17A2.13,2.13,0,0,0,227,134Z"/></g><polygon class="cls-8" points="250.67 44.7 255.65 36.08 245.69 36.08 250.67 44.7"/></g></g></svg>