<svg xmlns="http://www.w3.org/2000/svg" viewBox="0 0 595.28 41"><defs><style>.cls-1,.cls-4,.cls-7{fill:none;}.cls-2{fill:#483d86;}.cls-3{fill:#5c4da0;}.cls-4{stroke:#8d82bd;}.cls-5{fill:#3d4986;}.cls-6{fill:#4c5ba6;}.cls-7{stroke:#818dc1;}.cls-8{opacity:0.6;}.cls-12,.cls-9{fill:#fff;}.cls-10,.cls-12{isolation:isolate;}.cls-11{fill:#010101;}.cls-12{font-size:15px;font-family:Mulish-Regular, Mulish;}.cls-13{letter-spacing:-0.01em;}</style></defs><g id="Layer_2" data-name="Layer 2"><g id="Layer_1-2" data-name="Layer 1"><rect class="cls-1" width="595.28" height="18"/><path class="cls-2" d="M1,9A8,8,0,0,1,9,1h7l6,4h3l6-4H185.83V37H30.5l-6,4h-3l-6-4H9a8,8,0,0,1-8-8ZM175.83,6h-48.4v5c0,10-8-8-8,7.5s8-2.5,8,7.5v7h48.4Z"/><path class="cls-3" d="M0,8A8,8,0,0,1,8,0h7l6,4h3l6-4H184.83V36H29.5l-6,4h-3l-6-4H8a8,8,0,0,1-8-8ZM174.83,5h-48.4v5c0,10-8-8-8,7.5s8-2.5,8,7.5v7h48.4Z"/><path class="cls-4" d="M.5,7.5A7.5,7.5,0,0,1,8,.5h7l6,4h3l6-4h9.5m0,0H184.33M2.7,33.3A7.47,7.47,0,0,1,.5,28V8M175.33,5.5v27h-48.4m-5.6-8.2L125,22.2"/><path class="cls-5" d="M128.43,7h46.4V32h-46.4V27c0-10-8,8-8-7.5s8,2.5,8-7.5Z"/><path class="cls-6" d="M127.43,6h46.4V31h-46.4V26c0-10-8,8-8-7.5s8,2.5,8-7.5Z"/><path class="cls-7" d="M127.93,6.5h45.4m-45.4,24v-6m-7.36-.5a20.35,20.35,0,0,1,0-11m7.36,1V6.5h.5"/><g class="cls-8"><rect class="cls-9" x="132.43" y="11" width="36.4" height="16" rx="4"/></g><g class="cls-10"><path class="cls-11" d="M138.68,23.5v-.93l3.73-4.14a7.53,7.53,0,0,0,1.1-1.51,3,3,0,0,0,.34-1.35,1.74,1.74,0,0,0-.51-1.36,2,2,0,0,0-1.45-.47,4.09,4.09,0,0,0-1.53.3,5.84,5.84,0,0,0-1.5.93l-.47-1a4.63,4.63,0,0,1,1.59-1,5.5,5.5,0,0,1,1.94-.36,3.86,3.86,0,0,1,1.69.34,2.54,2.54,0,0,1,1.1,1,2.75,2.75,0,0,1,.39,1.5,4.05,4.05,0,0,1-.41,1.76,8.74,8.74,0,0,1-1.38,1.9l-3.6,3.9-.09-.6h5.93v1Z"/><path class="cls-11" d="M147.68,23.5v-.93l3.73-4.14a7.53,7.53,0,0,0,1.1-1.51,3,3,0,0,0,.34-1.35,1.74,1.74,0,0,0-.51-1.36,2,2,0,0,0-1.45-.47,4.09,4.09,0,0,0-1.53.3,5.84,5.84,0,0,0-1.5.93l-.47-1a4.63,4.63,0,0,1,1.59-1,5.5,5.5,0,0,1,1.94-.36,3.86,3.86,0,0,1,1.69.34,2.54,2.54,0,0,1,1.1,1,2.75,2.75,0,0,1,.39,1.5,4.05,4.05,0,0,1-.41,1.76,8.74,8.74,0,0,1-1.38,1.9l-3.6,3.9-.09-.6h5.93v1Z"/><path class="cls-11" d="M159.93,23.62a3.14,3.14,0,0,1-2.78-1.39,7.14,7.14,0,0,1-1-4.07,7.23,7.23,0,0,1,.94-4.07,3.5,3.5,0,0,1,5.58,0,7.19,7.19,0,0,1,.95,4.05,7.15,7.15,0,0,1-1,4.08A3.13,3.13,0,0,1,159.93,23.62Zm0-1a2,2,0,0,0,1.88-1.08,7.07,7.07,0,0,0,.61-3.37,6.89,6.89,0,0,0-.61-3.33,2.19,2.19,0,0,0-3.76,0,6.87,6.87,0,0,0-.61,3.32,7.07,7.07,0,0,0,.61,3.37A2,2,0,0,0,159.93,22.59Z"/></g><text class="cls-12" transform="translate(10 22.5)">play f<tspan class="cls-13" x="38.5" y="0">r</tspan><tspan x="43.78" y="0">equency</tspan></text></g></g></svg>