<svg xmlns="http://www.w3.org/2000/svg" viewBox="0 0 595.28 139.84"><defs><style>.cls-1,.cls-4{fill:none;}.cls-2{fill:#483d86;}.cls-3{fill:#5c4da0;}.cls-4{stroke:#8d82bd;}.cls-5,.cls-9{isolation:isolate;}.cls-5{font-size:15px;font-family:Mulish-Regular, Mulish;}.cls-5,.cls-8{fill:#fff;}.cls-6{letter-spacing:0em;}.cls-7{opacity:0.6;}.cls-10{fill:#010101;}.cls-11{fill:#afa7d1;}</style></defs><g id="Layer_2" data-name="Layer 2"><g id="Layer_1-2" data-name="Layer 1"><rect class="cls-1" width="595.28" height="18"/><path class="cls-2" d="M1,9A8,8,0,0,1,9,1h7l6,4h3l6-4H200.62V26H30.5l-6,4h-3l-6-4H9a8,8,0,0,1-8-8Z"/><path class="cls-3" d="M0,8A8,8,0,0,1,8,0h7l6,4h3l6-4H199.62V25H29.5l-6,4h-3l-6-4H8a8,8,0,0,1-8-8Z"/><path class="cls-4" d="M.5,7.5A7.5,7.5,0,0,1,8,.5h7l6,4h3l6-4H199.12M2.7,22.3A7.47,7.47,0,0,1,.5,17V8"/><text class="cls-5" transform="translate(8 17.5)">turn <tspan class="cls-6" x="32.02" y="0">of</tspan><tspan x="45.63" y="0">f tone on pin #</tspan></text><g class="cls-7"><rect class="cls-8" x="159.35" y="5" width="35.27" height="16" rx="4"/></g><g class="cls-9"><path class="cls-10" d="M168.85,17.62a3.14,3.14,0,0,1-2.78-1.39,7.13,7.13,0,0,1-1-4.07,7.22,7.22,0,0,1,.95-4.07,3.5,3.5,0,0,1,5.58,0,7.2,7.2,0,0,1,.94,4.05,7.17,7.17,0,0,1-1,4.08A3.13,3.13,0,0,1,168.85,17.62Zm0-1a2,2,0,0,0,1.88-1.08,7,7,0,0,0,.61-3.36,6.89,6.89,0,0,0-.61-3.33,2.19,2.19,0,0,0-3.76,0,6.87,6.87,0,0,0-.61,3.32A7,7,0,0,0,167,15.5,2,2,0,0,0,168.85,16.58Z"/></g><polygon class="cls-10" points="185.64 17.31 190.62 8.69 180.66 8.69 185.64 17.31"/><rect class="cls-11" x="159.35" y="31.69" width="35.34" height="108.15" rx="5.67"/><g class="cls-9"><path class="cls-10" d="M165.67,44.56v-1h6v1ZM168,44V34.6l.7.36-2.89,1.85V35.62l2.73-1.74h.71V44Z"/><path class="cls-10" d="M165,62.56v-.93l3.73-4.14a7.53,7.53,0,0,0,1.1-1.51,2.94,2.94,0,0,0,.34-1.35,1.8,1.8,0,0,0-.5-1.36,2.12,2.12,0,0,0-1.46-.47,3.91,3.91,0,0,0-1.53.31,5.79,5.79,0,0,0-1.5.92l-.47-1a4.72,4.72,0,0,1,1.59-1,5.5,5.5,0,0,1,1.94-.36,4,4,0,0,1,1.69.34,2.6,2.6,0,0,1,1.1,1,2.79,2.79,0,0,1,.39,1.5,4,4,0,0,1-.41,1.76,8.2,8.2,0,0,1-1.38,1.9l-3.6,3.9-.09-.6h5.93v1Z"/><path class="cls-10" d="M164.71,79h1.55v1.54h-1.55Z"/><path class="cls-10" d="M164.71,97h1.55v1.54h-1.55Z"/><path class="cls-10" d="M165.3,116.56H164l4.69-10.68h1.08l4.7,10.68h-1.27l-4.18-9.78h.45Zm.72-2.74.44-1h5.61l.43,1Z"/><path class="cls-10" d="M180.42,116.56v-9.13h.37l-4.44,6.4,0-.61h6.9v1H175.5v-.93l5.14-7.43h1v10.68Z"/><path class="cls-10" d="M165.3,134.56H164l4.69-10.68h1.08l4.7,10.68h-1.27l-4.18-9.78h.45Zm.72-2.74.44-1h5.61l.43,1Z"/><path class="cls-10" d="M179.43,134.67a5.57,5.57,0,0,1-1.92-.35,4.68,4.68,0,0,1-1.59-1l.46-.95a6,6,0,0,0,1.5.92,4,4,0,0,0,1.55.31,2.38,2.38,0,0,0,1.76-.63,2.35,2.35,0,0,0,.64-1.74,2.54,2.54,0,0,0-.29-1.23,2,2,0,0,0-.8-.84,2.37,2.37,0,0,0-1.22-.3,3,3,0,0,0-1.37.31,3.09,3.09,0,0,0-1.08.94h-.85v-6.26h6.4v1h-5.17v4.32l-.39,0a2.94,2.94,0,0,1,1.12-1,3.31,3.31,0,0,1,1.53-.34,3.46,3.46,0,0,1,1.77.43,2.89,2.89,0,0,1,1.16,1.19,3.73,3.73,0,0,1,.4,1.77,3.48,3.48,0,0,1-.44,1.78,3.08,3.08,0,0,1-1.25,1.2A4,4,0,0,1,179.43,134.67Z"/></g><polygon class="cls-10" points="186.64 44.38 191.62 35.75 181.66 35.75 186.64 44.38"/></g></g></svg>