<svg xmlns="http://www.w3.org/2000/svg" viewBox="0 0 595.28 30"><defs><style>.cls-1{fill:#483d86;}.cls-2{fill:#5c4da0;}.cls-3{fill:#8d82bd;}.cls-4{fill:#3d4986;}.cls-5{fill:#4c5ba6;}.cls-6{fill:#818dc1;}.cls-7{opacity:0.6;}.cls-8{fill:#fff;}.cls-9{isolation:isolate;}.cls-10{fill:#010101;}.cls-11{fill:none;}</style></defs><g id="Layer_2" data-name="Layer 2"><g id="Layer_1-2" data-name="Layer 1"><path class="cls-1" d="M1,9A8,8,0,0,1,9,1h7l6,4h3l6-4H85.15V6c0,10-8-8-8,7.5s8-2.5,8,7.5v5H30.5l-6,4h-3l-6-4H9a8,8,0,0,1-8-8Z"/><path class="cls-2" d="M0,8A8,8,0,0,1,8,0h7l6,4h3l6-4H84.15V5c0,10-8-8-8,7.5s8-2.5,8,7.5v5H29.5l-6,4h-3l-6-4H8a8,8,0,0,1-8-8Z"/><path class="cls-3" d="M2.34,22.66A8,8,0,0,1,0,17V8H1v9A7,7,0,0,0,3.05,22ZM79.4,19.73l-.5-.86,3.68-2.1.5.86ZM1,7.53,0,7.47A8,8,0,0,1,8,0h7.17l6,4h2.7l6-4h53.8V1H30.15l-6,4h-3.3l-6-4H8A7,7,0,0,0,1,7.53Z"/><path class="cls-4" d="M86.15,1h37.6V26H86.15V21c0-10-8,8-8-7.5s8,2.5,8-7.5Z"/><path class="cls-5" d="M85.15,0h37.6V25H85.15V20c0-10-8,8-8-7.5s8,2.5,8-7.5Z"/><path class="cls-6" d="M86.15,24.5h-1v-6h1Zm-8.34-6.37a20.9,20.9,0,0,1,0-11.26l1,.26a20,20,0,0,0,0,10.74ZM86.15,8h-1V0h37.1V1H86.15Z"/><g class="cls-7"><rect class="cls-8" x="90.15" y="5" width="27.6" height="16" rx="4"/></g><g class="cls-9"><path class="cls-10" d="M100,17.62a3.59,3.59,0,0,1-3-1.34A6.15,6.15,0,0,1,96,12.43a8.66,8.66,0,0,1,.49-3.1,4.12,4.12,0,0,1,1.41-1.95,3.57,3.57,0,0,1,2.21-.68,4.84,4.84,0,0,1,1.8.34,4.59,4.59,0,0,1,1.55,1L103,9A5.59,5.59,0,0,0,101.5,8a3.48,3.48,0,0,0-1.4-.29A2.38,2.38,0,0,0,98,9a6.5,6.5,0,0,0-.77,3.46v1.29L97,13.3A2.89,2.89,0,0,1,97.57,12a3.06,3.06,0,0,1,1.08-.87,3.46,3.46,0,0,1,1.45-.31,3.51,3.51,0,0,1,1.74.43,3.07,3.07,0,0,1,1.17,1.2A3.86,3.86,0,0,1,103,16a3.32,3.32,0,0,1-1.22,1.22A3.52,3.52,0,0,1,100,17.62Zm-.06-1a2.17,2.17,0,0,0,1.65-.65,2.37,2.37,0,0,0,.63-1.73,2.38,2.38,0,0,0-.63-1.72,2.24,2.24,0,0,0-1.67-.65,2.39,2.39,0,0,0-1.23.31,2.12,2.12,0,0,0-.84.84,2.42,2.42,0,0,0-.3,1.22,2.49,2.49,0,0,0,.3,1.25,2.19,2.19,0,0,0,.84.84A2.54,2.54,0,0,0,99.94,16.58Z"/><path class="cls-10" d="M108.65,17.62a3.14,3.14,0,0,1-2.78-1.39,7.14,7.14,0,0,1-1-4.07,7.23,7.23,0,0,1,.94-4.07,3.5,3.5,0,0,1,5.58,0,7.19,7.19,0,0,1,1,4.05,7.17,7.17,0,0,1-1,4.08A3.13,3.13,0,0,1,108.65,17.62Zm0-1a2,2,0,0,0,1.88-1.08,7,7,0,0,0,.61-3.36,6.86,6.86,0,0,0-.61-3.33,2.19,2.19,0,0,0-3.76,0,6.87,6.87,0,0,0-.61,3.32,7,7,0,0,0,.61,3.36A2,2,0,0,0,108.65,16.58Z"/></g><g class="cls-9"><path class="cls-8" d="M13.72,17.61a4.4,4.4,0,0,1-3-1l.4-.9a4.11,4.11,0,0,0,1.24.68,4.23,4.23,0,0,0,1.42.22,2.37,2.37,0,0,0,1.29-.29,1,1,0,0,0,.45-.85.89.89,0,0,0-.3-.71,2.3,2.3,0,0,0-1-.43l-1.28-.3a2.78,2.78,0,0,1-1.46-.75A1.78,1.78,0,0,1,11,12a1.93,1.93,0,0,1,.36-1.16,2.37,2.37,0,0,1,1-.79,3.77,3.77,0,0,1,1.53-.28,4.37,4.37,0,0,1,1.5.25,3.28,3.28,0,0,1,1.18.73l-.4.89A4.06,4.06,0,0,0,15,11a3.29,3.29,0,0,0-1.17-.22,2.17,2.17,0,0,0-1.26.32,1,1,0,0,0-.44.85,1,1,0,0,0,.28.74,1.89,1.89,0,0,0,.89.42l1.28.32a2.85,2.85,0,0,1,1.56.74,1.78,1.78,0,0,1,.51,1.31,1.85,1.85,0,0,1-.8,1.56A3.57,3.57,0,0,1,13.72,17.61Z"/><path class="cls-8" d="M24.79,16.6a3.34,3.34,0,0,1-1.27.73,4.74,4.74,0,0,1-1.58.28,4.16,4.16,0,0,1-2-.47,3.17,3.17,0,0,1-1.3-1.34,4.44,4.44,0,0,1-.46-2.09,4.47,4.47,0,0,1,.45-2.06,3.41,3.41,0,0,1,1.25-1.38,3.49,3.49,0,0,1,1.86-.49,3.17,3.17,0,0,1,1.72.44,2.8,2.8,0,0,1,1.1,1.27,4.58,4.58,0,0,1,.39,2v.23h-5.7v-.8h5l-.39.56a3.19,3.19,0,0,0-.52-2,1.94,1.94,0,0,0-1.6-.7,2.11,2.11,0,0,0-1.72.77,3.36,3.36,0,0,0-.62,2.14A3.32,3.32,0,0,0,20,15.85,2.42,2.42,0,0,0,22,16.6a3.56,3.56,0,0,0,1.26-.22,3.84,3.84,0,0,0,1.17-.67Z"/><path class="cls-8" d="M25.66,10.92V10h4.85v1Zm4.82,5.5v1l-.51.11a4.26,4.26,0,0,1-.54,0A2.3,2.3,0,0,1,27.75,17a2.39,2.39,0,0,1-.62-1.79V8l1.22-.44V15a2,2,0,0,0,.17.93,1,1,0,0,0,.47.46,1.83,1.83,0,0,0,.68.12l.4,0Z"/><path class="cls-8" d="M36,17.5V6.82h4.29a3.91,3.91,0,0,1,2.53.73,2.48,2.48,0,0,1,.92,2.06,2.5,2.5,0,0,1-.5,1.57,2.71,2.71,0,0,1-1.39.9V12a2.66,2.66,0,0,1,1.58.89A2.69,2.69,0,0,1,44,14.59a2.61,2.61,0,0,1-.93,2.16,4.07,4.07,0,0,1-2.62.75Zm1.22-5.94h2.88A2.91,2.91,0,0,0,42,11.08a1.7,1.7,0,0,0,.61-1.41A1.63,1.63,0,0,0,42,8.3a3,3,0,0,0-1.83-.46H37.26Zm0,4.92h3.11A2.94,2.94,0,0,0,42.23,16a1.73,1.73,0,0,0,.59-1.45,1.8,1.8,0,0,0-.6-1.47,2.88,2.88,0,0,0-1.85-.5H37.26Z"/><path class="cls-8" d="M46.26,17.5V6.82h4.26a3.79,3.79,0,0,1,2.57.8A2.75,2.75,0,0,1,54,9.8a2.76,2.76,0,0,1-.93,2.2,3.76,3.76,0,0,1-2.56.8h-3v4.7Zm1.23-5.71h2.92a2.71,2.71,0,0,0,1.79-.52,1.88,1.88,0,0,0,.6-1.47,1.83,1.83,0,0,0-.6-1.45,2.71,2.71,0,0,0-1.79-.51H47.49Z"/><path class="cls-8" d="M56,17.5V6.82h1l4.33,9.85H60.8l4.29-9.85h1V17.5H65V8.44l.47.06-3.93,9h-.87l-4-9,.49-.06,0,9.06Z"/></g><rect class="cls-11" width="595.28" height="18"/></g></g></svg>