<svg xmlns="http://www.w3.org/2000/svg" viewBox="0 0 595.28 60.69"><defs><style>.cls-1{fill:#5c4da0;}.cls-2{fill:#ededee;}.cls-3{fill:#231f20;}.cls-4{fill:#b7c4ce;}.cls-5{fill:#a0adbb;}.cls-6{fill:#5a6d76;}.cls-7{fill:#465b62;}</style></defs><g id="Layer_2" data-name="Layer 2"><g id="Layer_1-2" data-name="Layer 1"><rect class="cls-1" y="4" width="595.28" height="56.69" rx="11.34"/><rect class="cls-2" width="595.28" height="56.69" rx="11.34"/><path class="cls-3" d="M87.14,38.84H82.46L94.05,13.21h3.78l11.59,25.63h-4.61l-9.43-22h1.26Zm.43-6,1.76-3.6H102.4l1.69,3.6Z"/><path class="cls-3" d="M118.42,39.09a6.45,6.45,0,0,1-5-1.85c-1.12-1.24-1.67-3.1-1.67-5.6v-11h4.5v11a4.3,4.3,0,0,0,.82,2.91,3.14,3.14,0,0,0,2.49.94,4.09,4.09,0,0,0,3.17-1.3,4.9,4.9,0,0,0,1.18-3.45V20.66h4.54V38.84H124V35.1l.47,0a6.23,6.23,0,0,1-2.38,3A6.7,6.7,0,0,1,118.42,39.09Z"/><path class="cls-3" d="M150.68,38.84h-4.43V34.23l.43.65A5.46,5.46,0,0,1,144.36,38a7.21,7.21,0,0,1-4,1.1,7.57,7.57,0,0,1-4.19-1.17,7.72,7.72,0,0,1-2.82-3.33,11.6,11.6,0,0,1-1-5,11.66,11.66,0,0,1,1-5,7.51,7.51,0,0,1,2.82-3.28,7.84,7.84,0,0,1,4.21-1.15,7.08,7.08,0,0,1,4,1.15,5.71,5.71,0,0,1,2.32,3.1l-.5.54V12.34h4.5Zm-9.11-3.2A4.14,4.14,0,0,0,145,34.09a7,7,0,0,0,1.23-4.43A6.89,6.89,0,0,0,145,25.27a4.14,4.14,0,0,0-3.45-1.55A4.32,4.32,0,0,0,138,25.25a6.66,6.66,0,0,0-1.26,4.34A7,7,0,0,0,138,34.05,4.25,4.25,0,0,0,141.57,35.64Z"/><path class="cls-3" d="M155.32,12.42h5v4.42h-5Zm.22,26.42V20.66H160V38.84Z"/><path class="cls-3" d="M173.18,39.09a9.94,9.94,0,0,1-4.92-1.15,7.81,7.81,0,0,1-3.18-3.26,10.51,10.51,0,0,1-1.12-5,10.65,10.65,0,0,1,1.12-5,7.79,7.79,0,0,1,3.18-3.3,10.05,10.05,0,0,1,4.92-1.15A9.9,9.9,0,0,1,178,21.34a7.9,7.9,0,0,1,3.2,3.3,10.54,10.54,0,0,1,1.14,5,10.4,10.4,0,0,1-1.14,5,7.91,7.91,0,0,1-3.2,3.26A9.79,9.79,0,0,1,173.18,39.09Zm0-3.45a4.15,4.15,0,0,0,3.43-1.5,7,7,0,0,0,1.21-4.48,7,7,0,0,0-1.21-4.45,4.17,4.17,0,0,0-3.43-1.49,4.3,4.3,0,0,0-3.51,1.49,6.83,6.83,0,0,0-1.25,4.45,6.92,6.92,0,0,0,1.23,4.48A4.28,4.28,0,0,0,173.18,35.64Z"/><path class="cls-4" d="M44.47,11.65,32.41,20l-.24.64h-2.4V35.9h2.44l.2.75L44.47,45A1,1,0,0,0,46,44.22V12.47A1,1,0,0,0,44.47,11.65Z"/><path class="cls-1" d="M49.64,24.8a1.11,1.11,0,0,0,0,1.46,3.18,3.18,0,0,1,.82,2.11,3.24,3.24,0,0,1-.8,2.12,1.11,1.11,0,0,0,0,1.46,1.38,1.38,0,0,0,2.07,0,5.35,5.35,0,0,0,0-7.25,1.4,1.4,0,0,0-2.08.06Z"/><path class="cls-1" d="M52.81,20.9h0A1.13,1.13,0,0,0,53,22.48,7.65,7.65,0,0,1,53,34.27a1.12,1.12,0,0,0-.15,1.58h0a1.42,1.42,0,0,0,2,.14,9.88,9.88,0,0,0-.08-15.25,1.41,1.41,0,0,0-2,.16Z"/><path class="cls-1" d="M56,17.05h0a1.1,1.1,0,0,0,.19,1.6,12.45,12.45,0,0,1,4.91,9.7,12.44,12.44,0,0,1-4.82,9.75,1.11,1.11,0,0,0-.18,1.6h0a1.41,1.41,0,0,0,1.93.17,14.73,14.73,0,0,0,5.71-11.54,14.79,14.79,0,0,0-5.82-11.49A1.39,1.39,0,0,0,56,17.05Z"/><path class="cls-5" d="M44.47,41.75,32.41,33.36v3.29L44.47,45A1,1,0,0,0,46,44.22V40.93A1,1,0,0,1,44.47,41.75Z"/><path class="cls-6" d="M32.41,36.65h-8.7a2.54,2.54,0,0,1-2.54-2.54V22.58A2.54,2.54,0,0,1,23.71,20h8.7Z"/><path class="cls-7" d="M21.17,30.81v3.3a2.54,2.54,0,0,0,2.54,2.54h8.7V33.36h-8.7A2.54,2.54,0,0,1,21.17,30.81Z"/></g></g></svg>