<svg xmlns="http://www.w3.org/2000/svg" viewBox="0 0 595.28 139.84"><defs><style>.cls-1{fill:none;}.cls-2{fill:#483d86;}.cls-3{fill:#5c4da0;}.cls-4{fill:#8d82bd;}.cls-5{isolation:isolate;}.cls-6{fill:#fff;}.cls-7{opacity:0.6;}.cls-8{fill:#010101;}.cls-9{fill:#afa7d1;}</style></defs><g id="Layer_2" data-name="Layer 2"><g id="Layer_1-2" data-name="Layer 1"><rect class="cls-1" width="595.28" height="18"/><path class="cls-2" d="M1,9A8,8,0,0,1,9,1h7l6,4h3l6-4H200.62V26H30.5l-6,4h-3l-6-4H9a8,8,0,0,1-8-8Z"/><path class="cls-3" d="M0,8A8,8,0,0,1,8,0h7l6,4h3l6-4H199.62V25H29.5l-6,4h-3l-6-4H8a8,8,0,0,1-8-8Z"/><path class="cls-4" d="M2.34,22.66A8,8,0,0,1,0,17V8H1v9A7,7,0,0,0,3.05,22ZM1,7.53,0,7.47A8,8,0,0,1,8,0h7.17l6,4h2.7l6-4H199.12V1h-169l-6,4h-3.3l-6-4H8A7,7,0,0,0,1,7.53Z"/><g class="cls-5"><path class="cls-6" d="M8.11,10.92V10H13v1Zm4.81,5.5v1l-.5.11a4.58,4.58,0,0,1-.55,0A2.26,2.26,0,0,1,10.2,17a2.35,2.35,0,0,1-.62-1.79V8l1.21-.44V15A2.11,2.11,0,0,0,11,16a1,1,0,0,0,.48.46,1.74,1.74,0,0,0,.67.12l.41,0Z"/><path class="cls-6" d="M17.09,17.61a2.6,2.6,0,0,1-2-.75,3.18,3.18,0,0,1-.68-2.23V10h1.21v4.65a2.24,2.24,0,0,0,.42,1.5,1.63,1.63,0,0,0,1.28.47,2.11,2.11,0,0,0,1.61-.64,2.37,2.37,0,0,0,.62-1.73V10h1.21V17.5H19.55V15.87l.18-.09a2.53,2.53,0,0,1-1,1.36A2.93,2.93,0,0,1,17.09,17.61Z"/><path class="cls-6" d="M23.07,17.5V12.07c0-.35,0-.7,0-1.06a9.1,9.1,0,0,0-.1-1h1.16l.17,1.86-.17-.05A2.32,2.32,0,0,1,25,10.28a2.56,2.56,0,0,1,1.57-.5,2.11,2.11,0,0,1,.36,0,1.21,1.21,0,0,1,.33.07l0,1.1a2.69,2.69,0,0,0-.79-.11,2.06,2.06,0,0,0-1.25.34,1.92,1.92,0,0,0-.69.88,2.8,2.8,0,0,0-.22,1.12v4.3Z"/><path class="cls-6" d="M28.5,17.5V12.07c0-.35,0-.7,0-1.06a7.32,7.32,0,0,0-.1-1h1.16l.13,1.55-.14.12a2.54,2.54,0,0,1,1-1.38,3,3,0,0,1,1.69-.47c1.81,0,2.71,1,2.71,3V17.5H33.77V12.82a2.34,2.34,0,0,0-.42-1.54A1.67,1.67,0,0,0,32,10.79a2.24,2.24,0,0,0-1.68.65,2.38,2.38,0,0,0-.63,1.74V17.5Z"/><path class="cls-6" d="M44.31,17.61a3.6,3.6,0,0,1-1.88-.48,3.33,3.33,0,0,1-1.24-1.36,4.52,4.52,0,0,1-.45-2.08,4.51,4.51,0,0,1,.45-2.07,3.3,3.3,0,0,1,1.24-1.37,3.69,3.69,0,0,1,1.88-.47,3.73,3.73,0,0,1,1.89.47,3.3,3.3,0,0,1,1.24,1.37,4.51,4.51,0,0,1,.44,2.07,4.52,4.52,0,0,1-.44,2.08,3.33,3.33,0,0,1-1.24,1.36A3.64,3.64,0,0,1,44.31,17.61Zm0-1A2.11,2.11,0,0,0,46,15.86a3.34,3.34,0,0,0,.61-2.17A3.32,3.32,0,0,0,46,11.54a2.32,2.32,0,0,0-3.42,0A3.26,3.26,0,0,0,42,13.69a3.4,3.4,0,0,0,.61,2.17A2.13,2.13,0,0,0,44.31,16.6Z"/><path class="cls-6" d="M48.69,10.92V10h4.53v1Zm4.75-3.35a2.92,2.92,0,0,0-.79-.12,1.57,1.57,0,0,0-.65.13.88.88,0,0,0-.45.46,1.89,1.89,0,0,0-.17.91V17.5H50.17V8.8A2.45,2.45,0,0,1,50.76,7a2.27,2.27,0,0,1,1.66-.59,4.19,4.19,0,0,1,.5,0,3.46,3.46,0,0,1,.52.11Z"/><path class="cls-6" d="M53.73,10.92V10h4.53v1Zm4.74-3.35a2.85,2.85,0,0,0-.78-.12,1.54,1.54,0,0,0-.65.13.93.93,0,0,0-.46.46,2,2,0,0,0-.16.91V17.5H55.2V8.8A2.45,2.45,0,0,1,55.8,7a2.27,2.27,0,0,1,1.65-.59l.51,0a3.1,3.1,0,0,1,.51.11Z"/><path class="cls-6" d="M62.7,10.92V10h4.85v1Zm4.82,5.5v1l-.5.11a4.58,4.58,0,0,1-.55,0A2.26,2.26,0,0,1,64.8,17a2.35,2.35,0,0,1-.63-1.79V8l1.22-.44V15a2.11,2.11,0,0,0,.17.93,1,1,0,0,0,.47.46,1.83,1.83,0,0,0,.68.12l.4,0Z"/><path class="cls-6" d="M72.14,17.61a3.58,3.58,0,0,1-1.88-.48A3.35,3.35,0,0,1,69,15.77a4.65,4.65,0,0,1-.44-2.08A4.64,4.64,0,0,1,69,11.62a3.32,3.32,0,0,1,1.25-1.37,4,4,0,0,1,3.76,0,3.32,3.32,0,0,1,1.25,1.37,4.64,4.64,0,0,1,.44,2.07,4.65,4.65,0,0,1-.44,2.08A3.35,3.35,0,0,1,74,17.13,3.58,3.58,0,0,1,72.14,17.61Zm0-1a2.12,2.12,0,0,0,1.72-.74,3.4,3.4,0,0,0,.6-2.17,3.32,3.32,0,0,0-.61-2.15,2.09,2.09,0,0,0-1.71-.75,2.12,2.12,0,0,0-1.72.75,3.32,3.32,0,0,0-.62,2.15,3.34,3.34,0,0,0,.61,2.17A2.11,2.11,0,0,0,72.14,16.6Z"/><path class="cls-6" d="M77.6,17.5V12.07c0-.35,0-.7,0-1.06s0-.71-.1-1h1.15l.14,1.55-.15.12a2.59,2.59,0,0,1,1-1.38,3,3,0,0,1,1.69-.47c1.81,0,2.72,1,2.72,3V17.5H82.86V12.82a2.34,2.34,0,0,0-.42-1.54,1.67,1.67,0,0,0-1.32-.49,2.24,2.24,0,0,0-1.68.65,2.38,2.38,0,0,0-.63,1.74V17.5Z"/><path class="cls-6" d="M92.55,16.6a3.38,3.38,0,0,1-1.26.73,4.84,4.84,0,0,1-1.59.28,4.09,4.09,0,0,1-2-.47,3.19,3.19,0,0,1-1.31-1.34,4.57,4.57,0,0,1-.46-2.09,4.47,4.47,0,0,1,.45-2.06,3.37,3.37,0,0,1,1.26-1.38,3.43,3.43,0,0,1,1.85-.49,3.17,3.17,0,0,1,1.72.44,2.88,2.88,0,0,1,1.11,1.27,4.74,4.74,0,0,1,.38,2v.23H87v-.8h5l-.39.56a3.13,3.13,0,0,0-.52-2,1.92,1.92,0,0,0-1.6-.7,2.08,2.08,0,0,0-1.71.77,3.31,3.31,0,0,0-.63,2.14,3.27,3.27,0,0,0,.66,2.22,2.39,2.39,0,0,0,1.91.75A3.65,3.65,0,0,0,91,16.38a3.92,3.92,0,0,0,1.16-.67Z"/><path class="cls-6" d="M101.57,17.61a3.58,3.58,0,0,1-1.88-.48,3.35,3.35,0,0,1-1.25-1.36A4.65,4.65,0,0,1,98,13.69a4.64,4.64,0,0,1,.44-2.07,3.32,3.32,0,0,1,1.25-1.37,4,4,0,0,1,3.76,0,3.32,3.32,0,0,1,1.25,1.37,4.64,4.64,0,0,1,.44,2.07,4.65,4.65,0,0,1-.44,2.08,3.35,3.35,0,0,1-1.25,1.36A3.58,3.58,0,0,1,101.57,17.61Zm0-1a2.12,2.12,0,0,0,1.72-.74,3.4,3.4,0,0,0,.6-2.17,3.32,3.32,0,0,0-.61-2.15,2.09,2.09,0,0,0-1.71-.75,2.12,2.12,0,0,0-1.72.75,3.32,3.32,0,0,0-.62,2.15,3.34,3.34,0,0,0,.61,2.17A2.11,2.11,0,0,0,101.57,16.6Z"/><path class="cls-6" d="M107,17.5V12.07c0-.35,0-.7,0-1.06s-.05-.71-.1-1h1.15l.14,1.55-.15.12a2.59,2.59,0,0,1,1-1.38,3,3,0,0,1,1.69-.47c1.81,0,2.72,1,2.72,3V17.5h-1.22V12.82a2.34,2.34,0,0,0-.42-1.54,1.67,1.67,0,0,0-1.32-.49,2.24,2.24,0,0,0-1.68.65,2.38,2.38,0,0,0-.63,1.74V17.5Z"/><path class="cls-6" d="M119.72,20.74V12.07c0-.35,0-.7,0-1.06s0-.71-.1-1h1.15l.14,1.55-.12.23a2.5,2.5,0,0,1,1-1.45,2.93,2.93,0,0,1,1.74-.51,3.12,3.12,0,0,1,1.75.49,3.35,3.35,0,0,1,1.19,1.38,4.78,4.78,0,0,1,.42,2.07,4.7,4.7,0,0,1-.42,2.06,3.13,3.13,0,0,1-2.94,1.83,2.87,2.87,0,0,1-1.74-.52,2.5,2.5,0,0,1-1-1.45l.16-.15v5.25Zm3.54-4.14a2.09,2.09,0,0,0,1.71-.75,3.28,3.28,0,0,0,.61-2.13,3.36,3.36,0,0,0-.61-2.15,2.06,2.06,0,0,0-1.71-.78,2.09,2.09,0,0,0-1.73.75,3.38,3.38,0,0,0-.6,2.15,3.38,3.38,0,0,0,.6,2.15A2.07,2.07,0,0,0,123.26,16.6Z"/><path class="cls-6" d="M128.6,6.76h1.48V8.14H128.6Zm.12,10.74V10h1.21V17.5Z"/><path class="cls-6" d="M132.29,17.5V12.07c0-.35,0-.7,0-1.06s-.05-.71-.1-1h1.15l.14,1.55-.15.12a2.59,2.59,0,0,1,1.05-1.38,3,3,0,0,1,1.69-.47c1.81,0,2.72,1,2.72,3V17.5h-1.22V12.82a2.34,2.34,0,0,0-.42-1.54,1.67,1.67,0,0,0-1.32-.49,2.24,2.24,0,0,0-1.68.65,2.38,2.38,0,0,0-.63,1.74V17.5Z"/><path class="cls-6" d="M144.33,14.74v-.88h7.74v.88Zm.3-4.4V9.46h7.74v.88Zm.51,7.16,2.09-10.68h1L146.1,17.5Zm3.38,0L150.6,6.82h1L149.48,17.5Z"/></g><g class="cls-7"><rect class="cls-6" x="159.35" y="5" width="35.27" height="16" rx="4"/></g><g class="cls-5"><path class="cls-8" d="M168.85,17.62a3.14,3.14,0,0,1-2.78-1.39,7.13,7.13,0,0,1-1-4.07,7.22,7.22,0,0,1,.95-4.07,3.5,3.5,0,0,1,5.58,0,7.2,7.2,0,0,1,.94,4.05,7.17,7.17,0,0,1-1,4.08A3.13,3.13,0,0,1,168.85,17.62Zm0-1a2,2,0,0,0,1.88-1.08,7,7,0,0,0,.61-3.36,6.89,6.89,0,0,0-.61-3.33,2.19,2.19,0,0,0-3.76,0,6.87,6.87,0,0,0-.61,3.32A7,7,0,0,0,167,15.5,2,2,0,0,0,168.85,16.58Z"/></g><polygon class="cls-8" points="185.64 17.31 190.62 8.69 180.66 8.69 185.64 17.31"/><rect class="cls-9" x="159.35" y="31.69" width="35.34" height="108.15" rx="5.67"/><g class="cls-5"><path class="cls-8" d="M165.67,44.56v-1h6v1ZM168,44V34.6l.7.36-2.89,1.85V35.62l2.73-1.74h.71V44Z"/><path class="cls-8" d="M165,62.56v-.93l3.73-4.14a7.53,7.53,0,0,0,1.1-1.51,2.94,2.94,0,0,0,.34-1.35,1.8,1.8,0,0,0-.5-1.36,2.12,2.12,0,0,0-1.46-.47,3.91,3.91,0,0,0-1.53.31,5.79,5.79,0,0,0-1.5.92l-.47-1a4.72,4.72,0,0,1,1.59-1,5.5,5.5,0,0,1,1.94-.36,4,4,0,0,1,1.69.34,2.6,2.6,0,0,1,1.1,1,2.79,2.79,0,0,1,.39,1.5,4,4,0,0,1-.41,1.76,8.2,8.2,0,0,1-1.38,1.9l-3.6,3.9-.09-.6h5.93v1Z"/><path class="cls-8" d="M164.71,79h1.55v1.54h-1.55Z"/><path class="cls-8" d="M164.71,97h1.55v1.54h-1.55Z"/><path class="cls-8" d="M165.3,116.56H164l4.69-10.68h1.08l4.7,10.68h-1.27l-4.18-9.78h.45Zm.72-2.74.44-1h5.61l.43,1Z"/><path class="cls-8" d="M180.42,116.56v-9.13h.37l-4.44,6.4,0-.61h6.9v1H175.5v-.93l5.14-7.43h1v10.68Z"/><path class="cls-8" d="M165.3,134.56H164l4.69-10.68h1.08l4.7,10.68h-1.27l-4.18-9.78h.45Zm.72-2.74.44-1h5.61l.43,1Z"/><path class="cls-8" d="M179.43,134.67a5.57,5.57,0,0,1-1.92-.35,4.68,4.68,0,0,1-1.59-1l.46-.95a6,6,0,0,0,1.5.92,4,4,0,0,0,1.55.31,2.38,2.38,0,0,0,1.76-.63,2.35,2.35,0,0,0,.64-1.74,2.54,2.54,0,0,0-.29-1.23,2,2,0,0,0-.8-.84,2.37,2.37,0,0,0-1.22-.3,3,3,0,0,0-1.37.31,3.09,3.09,0,0,0-1.08.94h-.85v-6.26h6.4v1h-5.17v4.32l-.39,0a2.94,2.94,0,0,1,1.12-1,3.31,3.31,0,0,1,1.53-.34,3.46,3.46,0,0,1,1.77.43,2.89,2.89,0,0,1,1.16,1.19,3.73,3.73,0,0,1,.4,1.77,3.48,3.48,0,0,1-.44,1.78,3.08,3.08,0,0,1-1.25,1.2A4,4,0,0,1,179.43,134.67Z"/></g><polygon class="cls-8" points="186.64 44.38 191.62 35.75 181.66 35.75 186.64 44.38"/></g></g></svg>