<svg xmlns="http://www.w3.org/2000/svg" viewBox="0 0 595.4 26"><defs><style>.cls-1,.cls-4{fill:none;}.cls-2{fill:#298c50;}.cls-3{fill:#32af63;}.cls-4{stroke:#73c593;}.cls-5{isolation:isolate;font-size:15px;fill:#fff;font-family:Mulish-Regular, Mulish;}.cls-6{letter-spacing:0em;}.cls-7{letter-spacing:0em;}.cls-8{letter-spacing:0.03em;}.cls-9{letter-spacing:-0.01em;}.cls-10{letter-spacing:0em;}</style></defs><g id="Layer_2" data-name="Layer 2"><g id="Layer_1-2" data-name="Layer 1"><rect class="cls-1" x="0.12" width="595.28" height="18"/><path class="cls-2" d="M9.12,1H159.74V26H9.12V21c0-10-8,8-8-7.5s8,2.5,8-7.5Z"/><path class="cls-3" d="M8.12,0H158.74V25H8.12V20c0-10-8,8-8-7.5s8,2.5,8-7.5Z"/><path class="cls-4" d="M8.62.5h19m0,0H158.24M8.62,24.5v-6M1.26,18a20.35,20.35,0,0,1,0-11M8.62,8V.5h.5"/><text class="cls-5" transform="translate(18.12 17.5)">g<tspan class="cls-6" x="9.06" y="0">e</tspan><tspan x="17.17" y="0">t ba</tspan><tspan class="cls-7" x="44.34" y="0">t</tspan><tspan x="49.63" y="0">te</tspan><tspan class="cls-8" x="63.04" y="0">r</tspan><tspan x="68.92" y="0">y l</tspan><tspan class="cls-9" x="84.37" y="0">ev</tspan><tspan class="cls-10" x="100.32" y="0">el </tspan><tspan class="cls-8" x="115.96" y="0">(V</tspan><tspan x="132.07" y="0">)</tspan></text></g></g></svg>