<svg xmlns="http://www.w3.org/2000/svg" viewBox="0 0 595.28 285.12"><defs><style>.cls-1{fill:#231f20;}.cls-2{fill:#ff5100;}.cls-3{fill:none;}</style></defs><g id="Layer_2" data-name="Layer 2"><g id="Layer_1-2" data-name="Layer 1"><circle cx="31.73" cy="263.48" r="2"/><path class="cls-1" d="M287.5,264.19a1.92,1.92,0,0,1-1.61-.76,4.69,4.69,0,0,1,0-4.59,2.12,2.12,0,0,1,3.22,0,4.76,4.76,0,0,1,0,4.59A1.92,1.92,0,0,1,287.5,264.19Zm0-.81a.93.93,0,0,0,.88-.54,5.13,5.13,0,0,0,0-3.4,1,1,0,0,0-1.75,0,5.13,5.13,0,0,0,0,3.4A.93.93,0,0,0,287.5,263.38Zm-.18,4.74,5.77-10h1.08l-5.76,10Zm6.67.06a1.93,1.93,0,0,1-1.62-.76,4.69,4.69,0,0,1,0-4.59,2.13,2.13,0,0,1,3.23,0,4.83,4.83,0,0,1,0,4.59A1.93,1.93,0,0,1,294,268.18Zm0-.81a.93.93,0,0,0,.87-.54,5.13,5.13,0,0,0,0-3.4,1,1,0,0,0-1.75,0,5.13,5.13,0,0,0,0,3.4A.93.93,0,0,0,294,267.37Z"/><path class="cls-1" d="M31.25,10,26.9,0h1.22L32,9h-.46l3.89-9h1.19L32.26,10Z"/><path class="cls-1" d="M4.59,31.34V22.81h.35l-4.14,6v-.57H7.25v1H0V28.3l4.8-6.93h.94v10Z"/><path class="cls-1" d="M9.2,33l-.53-.41a2.35,2.35,0,0,0,.5-.74,2.06,2.06,0,0,0,.13-.69l.33.23h-1V29.9h1.44v1a2.84,2.84,0,0,1-.19,1A2.78,2.78,0,0,1,9.2,33Z"/><path class="cls-1" d="M12.11,31.34v-.87l3.49-3.86a7.74,7.74,0,0,0,1-1.42,2.8,2.8,0,0,0,.32-1.26,1.65,1.65,0,0,0-.48-1.27,1.92,1.92,0,0,0-1.35-.44,3.73,3.73,0,0,0-1.43.29,5.58,5.58,0,0,0-1.4.86l-.44-.88a4.56,4.56,0,0,1,1.49-.9,5.2,5.2,0,0,1,1.8-.33,3.65,3.65,0,0,1,1.58.31,2.34,2.34,0,0,1,1,.91,2.6,2.6,0,0,1,.36,1.4,3.82,3.82,0,0,1-.38,1.64,8,8,0,0,1-1.28,1.77l-3.36,3.64L13,30.37h5.53v1Z"/><path class="cls-1" d="M4.59,75.27V66.74h.35l-4.14,6v-.57H7.25v.95H0v-.87L4.8,65.3h.94v10Z"/><path class="cls-1" d="M9.2,76.88l-.53-.41a2.24,2.24,0,0,0,.5-.74,2,2,0,0,0,.13-.68l.33.22h-1V73.83h1.44v1a2.89,2.89,0,0,1-.19,1.06A2.84,2.84,0,0,1,9.2,76.88Z"/><path class="cls-1" d="M15.15,75.38a3,3,0,0,1-2.6-1.29,6.75,6.75,0,0,1-.89-3.8,6.82,6.82,0,0,1,.88-3.8,3,3,0,0,1,2.61-1.3,2.93,2.93,0,0,1,2.6,1.3,6.68,6.68,0,0,1,.88,3.78,6.79,6.79,0,0,1-.88,3.81A3,3,0,0,1,15.15,75.38Zm0-1a1.9,1.9,0,0,0,1.76-1,6.76,6.76,0,0,0,.56-3.14,6.6,6.6,0,0,0-.56-3.11,1.9,1.9,0,0,0-1.76-1,1.89,1.89,0,0,0-1.76,1,6.51,6.51,0,0,0-.57,3.11,6.62,6.62,0,0,0,.57,3.14A1.89,1.89,0,0,0,15.15,74.42Z"/><path class="cls-1" d="M3.42,119.3A5.27,5.27,0,0,1,1.56,119a4.19,4.19,0,0,1-1.5-.91l.44-.88a5,5,0,0,0,1.39.86,4,4,0,0,0,1.5.29A2.41,2.41,0,0,0,5,117.86a1.77,1.77,0,0,0,.55-1.4A1.63,1.63,0,0,0,5,115.08a2.74,2.74,0,0,0-1.72-.45H2.11v-1H3a2.54,2.54,0,0,0,1.69-.49,1.73,1.73,0,0,0,.59-1.4,1.61,1.61,0,0,0-.48-1.25,2,2,0,0,0-1.37-.43,3.82,3.82,0,0,0-1.44.29,5.36,5.36,0,0,0-1.39.86l-.43-.88a4.25,4.25,0,0,1,1.48-.91,5.18,5.18,0,0,1,1.82-.33,3.67,3.67,0,0,1,1.57.32,2.37,2.37,0,0,1,1,.89,2.49,2.49,0,0,1,.36,1.36A2.57,2.57,0,0,1,6,113.26a2.43,2.43,0,0,1-1.33.89l0-.14a2.65,2.65,0,0,1,1.54.85,2.82,2.82,0,0,1-.35,3.69A3.58,3.58,0,0,1,3.42,119.3Z"/><path class="cls-1" d="M9.2,120.81l-.53-.4a2.35,2.35,0,0,0,.5-.74A2.1,2.1,0,0,0,9.3,119l.33.22h-1v-1.44h1.44v1a2.85,2.85,0,0,1-.19,1.06A2.75,2.75,0,0,1,9.2,120.81Z"/><path class="cls-1" d="M15.15,119.3a4.91,4.91,0,0,1-1.89-.33A2.77,2.77,0,0,1,12,118a2.48,2.48,0,0,1-.44-1.47,2.28,2.28,0,0,1,.7-1.72,3.23,3.23,0,0,1,1.87-.86l-.07.21a3,3,0,0,1-1.68-.85,2.22,2.22,0,0,1-.6-1.57,2.33,2.33,0,0,1,.43-1.41,2.72,2.72,0,0,1,1.18-.91,4.25,4.25,0,0,1,1.74-.33,4.29,4.29,0,0,1,1.74.33,2.78,2.78,0,0,1,1.18.91,2.4,2.4,0,0,1,.42,1.41,2.25,2.25,0,0,1-.59,1.58,2.9,2.9,0,0,1-1.67.84l-.09-.21a3.18,3.18,0,0,1,1.9.86,2.39,2.39,0,0,1,.68,1.72,2.48,2.48,0,0,1-.44,1.47A2.83,2.83,0,0,1,17,119,4.91,4.91,0,0,1,15.15,119.3Zm0-1a2.92,2.92,0,0,0,1.8-.48,1.62,1.62,0,0,0,.63-1.38,1.54,1.54,0,0,0-.68-1.34,3.63,3.63,0,0,0-1.75-.59,3.63,3.63,0,0,0-1.75.59,1.54,1.54,0,0,0-.69,1.34,1.62,1.62,0,0,0,.63,1.38A2.93,2.93,0,0,0,15.15,118.35Zm0-4.59a3.16,3.16,0,0,0,1.59-.6,1.61,1.61,0,0,0,.61-1.31,1.59,1.59,0,0,0-.58-1.3,2.48,2.48,0,0,0-1.62-.47,2.48,2.48,0,0,0-1.62.47,1.56,1.56,0,0,0-.58,1.3,1.59,1.59,0,0,0,.61,1.31A3.12,3.12,0,0,0,15.15,113.76Z"/><path class="cls-1" d="M3.42,163.24a5.28,5.28,0,0,1-1.86-.33A4.06,4.06,0,0,1,.06,162l.44-.88a5,5,0,0,0,1.39.86,4,4,0,0,0,1.5.29A2.41,2.41,0,0,0,5,161.79a1.76,1.76,0,0,0,.55-1.4A1.65,1.65,0,0,0,5,159a2.74,2.74,0,0,0-1.72-.45H2.11v-1H3a2.54,2.54,0,0,0,1.69-.49,1.71,1.71,0,0,0,.59-1.4,1.58,1.58,0,0,0-.48-1.24A2,2,0,0,0,3.47,154a3.82,3.82,0,0,0-1.44.29,5.36,5.36,0,0,0-1.39.86l-.43-.88a4.38,4.38,0,0,1,1.48-.9,5.18,5.18,0,0,1,1.82-.33,3.67,3.67,0,0,1,1.57.31,2.37,2.37,0,0,1,1,.89,2.51,2.51,0,0,1,.36,1.36A2.6,2.6,0,0,1,6,157.2a2.42,2.42,0,0,1-1.33.88l0-.14a2.6,2.6,0,0,1,1.54.86,2.5,2.5,0,0,1,.53,1.64,2.55,2.55,0,0,1-.88,2.05A3.58,3.58,0,0,1,3.42,163.24Z"/><path class="cls-1" d="M9.2,164.75l-.53-.41a2.35,2.35,0,0,0,.5-.74,2,2,0,0,0,.13-.69l.33.23h-1V161.7h1.44v1a2.93,2.93,0,0,1-.19,1.06A2.84,2.84,0,0,1,9.2,164.75Z"/><path class="cls-1" d="M15.47,163.25A3.36,3.36,0,0,1,12.68,162a5.77,5.77,0,0,1-1-3.59,8.28,8.28,0,0,1,.46-2.9,3.87,3.87,0,0,1,1.32-1.82,3.38,3.38,0,0,1,2.06-.63,4.59,4.59,0,0,1,1.68.31,4.37,4.37,0,0,1,1.44.92l-.43.88a5.27,5.27,0,0,0-1.35-.87,3.25,3.25,0,0,0-1.31-.28,2.23,2.23,0,0,0-2,1.14,6.09,6.09,0,0,0-.72,3.23v1.21l-.17-.38a2.66,2.66,0,0,1,1.54-2.05,3.11,3.11,0,0,1,1.35-.29,3.17,3.17,0,0,1,1.62.4,2.84,2.84,0,0,1,1.09,1.11,3.55,3.55,0,0,1,0,3.31,3,3,0,0,1-1.13,1.14A3.32,3.32,0,0,1,15.47,163.25Zm-.06-1a2,2,0,0,0,1.54-.6,2.51,2.51,0,0,0,0-3.23,2.07,2.07,0,0,0-1.55-.6,2.3,2.3,0,0,0-1.15.28,2.11,2.11,0,0,0-.78.79,2.24,2.24,0,0,0-.28,1.14,2.3,2.3,0,0,0,.28,1.17,2,2,0,0,0,.78.77A2.34,2.34,0,0,0,15.41,162.28Z"/><path class="cls-1" d="M3.42,207.17a5.51,5.51,0,0,1-1.86-.32,4.34,4.34,0,0,1-1.5-.91l.44-.88a5,5,0,0,0,1.39.86,4,4,0,0,0,1.5.28A2.41,2.41,0,0,0,5,205.73a1.79,1.79,0,0,0,.55-1.4A1.63,1.63,0,0,0,5,203a2.74,2.74,0,0,0-1.72-.46H2.11v-1H3A2.6,2.6,0,0,0,4.73,201a1.74,1.74,0,0,0,.59-1.4,1.61,1.61,0,0,0-.48-1.25A2,2,0,0,0,3.47,198a3.8,3.8,0,0,0-1.44.28,5.41,5.41,0,0,0-1.39.87l-.43-.89a4.38,4.38,0,0,1,1.48-.9A5.18,5.18,0,0,1,3.51,197a3.67,3.67,0,0,1,1.57.32,2.31,2.31,0,0,1,1,.89,2.47,2.47,0,0,1,.36,1.35A2.6,2.6,0,0,1,6,201.13a2.49,2.49,0,0,1-1.33.89l0-.14a2.59,2.59,0,0,1,1.54.85,2.82,2.82,0,0,1-.35,3.69A3.58,3.58,0,0,1,3.42,207.17Z"/><path class="cls-1" d="M9.2,208.68l-.53-.4a2.37,2.37,0,0,0,.5-.75,2,2,0,0,0,.13-.68l.33.22h-1v-1.44h1.44v1a2.7,2.7,0,0,1-.85,2Z"/><path class="cls-1" d="M16.23,207.07v-8.52h.35l-4.15,6,0-.57h6.44v1H11.63V204l4.81-6.93h.93v10Z"/><path class="cls-1" d="M3.42,251.1a5.27,5.27,0,0,1-1.86-.32,4.19,4.19,0,0,1-1.5-.91L.5,249a5,5,0,0,0,1.39.86,4,4,0,0,0,1.5.29A2.41,2.41,0,0,0,5,249.66a1.77,1.77,0,0,0,.55-1.4A1.65,1.65,0,0,0,5,246.88a2.74,2.74,0,0,0-1.72-.45H2.11v-1H3A2.54,2.54,0,0,0,4.73,245a1.73,1.73,0,0,0,.59-1.4,1.61,1.61,0,0,0-.48-1.25,2,2,0,0,0-1.37-.43,3.82,3.82,0,0,0-1.44.29A5.36,5.36,0,0,0,.64,243l-.43-.88a4.25,4.25,0,0,1,1.48-.91,5.17,5.17,0,0,1,1.82-.32,3.67,3.67,0,0,1,1.57.31,2.37,2.37,0,0,1,1,.89,2.49,2.49,0,0,1,.36,1.36A2.57,2.57,0,0,1,6,245.06a2.43,2.43,0,0,1-1.33.89l0-.14a2.6,2.6,0,0,1,1.54.86,2.48,2.48,0,0,1,.53,1.63,2.54,2.54,0,0,1-.88,2A3.58,3.58,0,0,1,3.42,251.1Z"/><path class="cls-1" d="M9.2,252.61l-.53-.4a2.35,2.35,0,0,0,.5-.74,2.1,2.1,0,0,0,.13-.69l.33.23h-1v-1.45h1.44v1a2.84,2.84,0,0,1-.19,1A2.75,2.75,0,0,1,9.2,252.61Z"/><path class="cls-1" d="M12.11,251v-.87l3.49-3.87a7.39,7.39,0,0,0,1-1.41,2.8,2.8,0,0,0,.32-1.26,1.65,1.65,0,0,0-.48-1.27,1.92,1.92,0,0,0-1.35-.44,3.73,3.73,0,0,0-1.43.29,5.58,5.58,0,0,0-1.4.86l-.44-.88a4.39,4.39,0,0,1,1.49-.9,5.2,5.2,0,0,1,1.8-.33,3.65,3.65,0,0,1,1.58.31,2.38,2.38,0,0,1,1,.9,2.63,2.63,0,0,1,.36,1.4,3.83,3.83,0,0,1-.38,1.65A8,8,0,0,1,16.44,247l-3.36,3.64L13,250h5.53v1Z"/><path class="cls-1" d="M48.43,285.12a3,3,0,0,1-2.59-1.3A6.65,6.65,0,0,1,45,280a6.73,6.73,0,0,1,.88-3.8,3.26,3.26,0,0,1,5.21,0,6.8,6.8,0,0,1,.88,3.79,6.73,6.73,0,0,1-.89,3.8A3,3,0,0,1,48.43,285.12Zm0-1a1.89,1.89,0,0,0,1.76-1,6.57,6.57,0,0,0,.57-3.13,6.5,6.5,0,0,0-.57-3.12,2,2,0,0,0-3.51,0,6.48,6.48,0,0,0-.57,3.11,6.57,6.57,0,0,0,.57,3.13A1.87,1.87,0,0,0,48.43,284.15Z"/><path class="cls-1" d="M85,285v-.86l3.48-3.87a7.07,7.07,0,0,0,1-1.41,2.8,2.8,0,0,0,.32-1.26,1.65,1.65,0,0,0-.48-1.27,2,2,0,0,0-1.36-.44,3.72,3.72,0,0,0-1.42.29,5.41,5.41,0,0,0-1.4.86l-.44-.88a4.15,4.15,0,0,1,1.49-.9,5.13,5.13,0,0,1,1.8-.34,3.68,3.68,0,0,1,1.58.32,2.44,2.44,0,0,1,1,.9,2.63,2.63,0,0,1,.36,1.4,3.7,3.7,0,0,1-.39,1.65A7.62,7.62,0,0,1,89.36,281L86,284.6l-.08-.56h5.53v1Z"/><path class="cls-1" d="M96.47,285.12a3,3,0,0,1-2.59-1.3A6.65,6.65,0,0,1,93,280a6.73,6.73,0,0,1,.88-3.8,3.26,3.26,0,0,1,5.21,0,8.58,8.58,0,0,1,0,7.59A3,3,0,0,1,96.47,285.12Zm0-1a1.89,1.89,0,0,0,1.76-1A6.57,6.57,0,0,0,98.8,280a6.5,6.5,0,0,0-.57-3.12,2,2,0,0,0-3.51,0,6.48,6.48,0,0,0-.57,3.11,6.57,6.57,0,0,0,.57,3.13A1.88,1.88,0,0,0,96.47,284.15Z"/><path class="cls-1" d="M133.19,285v-8.52h.35l-4.14,6v-.58h6.44v.95H128.6V282l4.8-6.93h.94v10Z"/><path class="cls-1" d="M140.51,285.12a3,3,0,0,1-2.59-1.3A6.65,6.65,0,0,1,137,280a6.73,6.73,0,0,1,.88-3.8,3.26,3.26,0,0,1,5.21,0,8.58,8.58,0,0,1,0,7.59A3,3,0,0,1,140.51,285.12Zm0-1a1.89,1.89,0,0,0,1.76-1,6.57,6.57,0,0,0,.57-3.13,6.5,6.5,0,0,0-.57-3.12,2,2,0,0,0-3.51,0,6.48,6.48,0,0,0-.57,3.11,6.57,6.57,0,0,0,.57,3.13A1.88,1.88,0,0,0,140.51,284.15Z"/><path class="cls-1" d="M176.33,285.12a3.31,3.31,0,0,1-2.78-1.26,5.73,5.73,0,0,1-1-3.59,8.24,8.24,0,0,1,.45-2.89,4,4,0,0,1,1.32-1.83,3.38,3.38,0,0,1,2.06-.63,4.6,4.6,0,0,1,1.68.32,4.32,4.32,0,0,1,1.45.92l-.44.88a5.26,5.26,0,0,0-1.35-.88,3.38,3.38,0,0,0-1.31-.27,2.24,2.24,0,0,0-2,1.14,6.07,6.07,0,0,0-.71,3.23v1.2l-.17-.38a2.62,2.62,0,0,1,.52-1.23,2.78,2.78,0,0,1,1-.82,3.17,3.17,0,0,1,1.35-.28,3.2,3.2,0,0,1,1.63.4,2.77,2.77,0,0,1,1.09,1.11,3.38,3.38,0,0,1,.39,1.65,3.31,3.31,0,0,1-.41,1.65A3,3,0,0,1,178,284.7,3.23,3.23,0,0,1,176.33,285.12Zm-.05-1a2,2,0,0,0,1.54-.61,2.49,2.49,0,0,0,0-3.22,2.09,2.09,0,0,0-1.56-.61,2.25,2.25,0,0,0-1.14.29,2,2,0,0,0-.79.78,2.38,2.38,0,0,0-.28,1.14,2.41,2.41,0,0,0,.28,1.17,2,2,0,0,0,.79.78A2.29,2.29,0,0,0,176.28,284.15Z"/><path class="cls-1" d="M184.41,285.12a3,3,0,0,1-2.6-1.3,8.64,8.64,0,0,1,0-7.6,3.26,3.26,0,0,1,5.21,0,6.8,6.8,0,0,1,.88,3.79,6.73,6.73,0,0,1-.89,3.8A3,3,0,0,1,184.41,285.12Zm0-1a1.89,1.89,0,0,0,1.76-1,6.57,6.57,0,0,0,.57-3.13,6.5,6.5,0,0,0-.57-3.12,2,2,0,0,0-3.51,0,6.48,6.48,0,0,0-.57,3.11,6.57,6.57,0,0,0,.57,3.13A1.87,1.87,0,0,0,184.41,284.15Z"/><path class="cls-1" d="M220,285.1a4.91,4.91,0,0,1-1.89-.33,2.77,2.77,0,0,1-1.24-.94,2.48,2.48,0,0,1-.44-1.47,2.28,2.28,0,0,1,.7-1.72,3.23,3.23,0,0,1,1.87-.86l-.07.21a3,3,0,0,1-1.68-.85,2.22,2.22,0,0,1-.6-1.57,2.33,2.33,0,0,1,.43-1.41,2.72,2.72,0,0,1,1.18-.91,4.75,4.75,0,0,1,3.48,0,2.78,2.78,0,0,1,1.18.91,2.4,2.4,0,0,1,.42,1.41,2.25,2.25,0,0,1-.59,1.58,2.9,2.9,0,0,1-1.67.84l-.09-.21a3.18,3.18,0,0,1,1.9.86,2.39,2.39,0,0,1,.68,1.72,2.48,2.48,0,0,1-.44,1.47,2.83,2.83,0,0,1-1.24.94A4.91,4.91,0,0,1,220,285.1Zm0-1a2.92,2.92,0,0,0,1.8-.48,1.61,1.61,0,0,0,.63-1.38,1.54,1.54,0,0,0-.68-1.34,2.89,2.89,0,0,0-3.5,0,1.54,1.54,0,0,0-.69,1.34,1.61,1.61,0,0,0,.63,1.38A2.93,2.93,0,0,0,220,284.15Zm0-4.59a3.16,3.16,0,0,0,1.59-.6,1.61,1.61,0,0,0,.61-1.31,1.59,1.59,0,0,0-.58-1.3,3,3,0,0,0-3.24,0,1.56,1.56,0,0,0-.58,1.3,1.59,1.59,0,0,0,.61,1.31A3.12,3.12,0,0,0,220,279.56Z"/><path class="cls-1" d="M228.41,285.12a3,3,0,0,1-2.6-1.3,6.73,6.73,0,0,1-.89-3.8,6.82,6.82,0,0,1,.88-3.8,3.26,3.26,0,0,1,5.21,0,8.62,8.62,0,0,1,0,7.59A3,3,0,0,1,228.41,285.12Zm0-1a1.9,1.9,0,0,0,1.76-1,6.72,6.72,0,0,0,.56-3.13,6.64,6.64,0,0,0-.56-3.12,2.05,2.05,0,0,0-3.52,0,6.48,6.48,0,0,0-.57,3.11,6.57,6.57,0,0,0,.57,3.13A1.89,1.89,0,0,0,228.41,284.15Z"/><path class="cls-1" d="M256.75,285v-1h5.56v1Zm2.2-.51v-8.78l.66.33-2.7,1.73v-1.11l2.55-1.62h.65v9.45Z"/><path class="cls-1" d="M267.56,285.12a3,3,0,0,1-2.6-1.3,8.56,8.56,0,0,1,0-7.6,3.25,3.25,0,0,1,5.2,0,8.54,8.54,0,0,1,0,7.59A3,3,0,0,1,267.56,285.12Zm0-1a1.9,1.9,0,0,0,1.76-1,6.59,6.59,0,0,0,.56-3.13,6.52,6.52,0,0,0-.56-3.12,2.05,2.05,0,0,0-3.52,0,6.62,6.62,0,0,0-.56,3.11,6.72,6.72,0,0,0,.56,3.13A1.9,1.9,0,0,0,267.56,284.15Z"/><path class="cls-1" d="M276,285.12a3,3,0,0,1-2.6-1.3,8.56,8.56,0,0,1,0-7.6,3.25,3.25,0,0,1,5.2,0,8.54,8.54,0,0,1,0,7.59A3,3,0,0,1,276,285.12Zm0-1a1.9,1.9,0,0,0,1.76-1,6.57,6.57,0,0,0,.57-3.13,6.5,6.5,0,0,0-.57-3.12,2.05,2.05,0,0,0-3.52,0,6.62,6.62,0,0,0-.56,3.11,6.72,6.72,0,0,0,.56,3.13A1.9,1.9,0,0,0,276,284.15Z"/><line x1="280.81" y1="263.48" x2="35.73" y2="263.48"/><path d="M280.81,264H35.73a.5.5,0,0,1-.5-.5.5.5,0,0,1,.5-.5H280.81a.5.5,0,0,1,.5.5A.51.51,0,0,1,280.81,264Z"/><line x1="48.43" y1="265.98" x2="48.43" y2="271.64"/><path d="M48.43,272.14a.5.5,0,0,1-.5-.5V266a.5.5,0,0,1,.5-.5.5.5,0,0,1,.5.5v5.66A.5.5,0,0,1,48.43,272.14Z"/><line x1="268.1" y1="265.98" x2="268.1" y2="271.64"/><path d="M268.1,272.14a.5.5,0,0,1-.5-.5V266a.5.5,0,0,1,1,0v5.66A.5.5,0,0,1,268.1,272.14Z"/><line x1="92.37" y1="265.98" x2="92.37" y2="271.64"/><path d="M92.37,272.14a.5.5,0,0,1-.5-.5V266a.5.5,0,0,1,.5-.5.5.5,0,0,1,.5.5v5.66A.5.5,0,0,1,92.37,272.14Z"/><line x1="136.3" y1="265.98" x2="136.3" y2="271.64"/><path d="M136.3,272.14a.5.5,0,0,1-.5-.5V266a.5.5,0,0,1,1,0v5.66A.5.5,0,0,1,136.3,272.14Z"/><line x1="180.23" y1="265.98" x2="180.23" y2="271.64"/><path d="M180.23,272.14a.5.5,0,0,1-.5-.5V266a.5.5,0,0,1,.5-.5.5.5,0,0,1,.5.5v5.66A.5.5,0,0,1,180.23,272.14Z"/><line x1="224.17" y1="265.98" x2="224.17" y2="271.64"/><path d="M224.17,272.14a.5.5,0,0,1-.5-.5V266a.5.5,0,0,1,.5-.5.5.5,0,0,1,.5.5v5.66A.5.5,0,0,1,224.17,272.14Z"/><line x1="31.73" y1="259.48" x2="31.73" y2="14.4"/><path d="M31.73,260a.5.5,0,0,1-.5-.5V14.4a.5.5,0,0,1,.5-.5.5.5,0,0,1,.5.5V259.48A.51.51,0,0,1,31.73,260Z"/><line x1="29.23" y1="27.1" x2="23.56" y2="27.1"/><path d="M29.23,27.6H23.56a.5.5,0,0,1-.5-.5.5.5,0,0,1,.5-.5h5.67a.51.51,0,0,1,.5.5A.5.5,0,0,1,29.23,27.6Z"/><line x1="29.23" y1="246.77" x2="23.56" y2="246.77"/><path d="M29.23,247.27H23.56a.5.5,0,1,1,0-1h5.67a.5.5,0,0,1,0,1Z"/><line x1="29.23" y1="71.04" x2="23.56" y2="71.04"/><path d="M29.23,71.54H23.56a.5.5,0,0,1-.5-.5.5.5,0,0,1,.5-.5h5.67a.5.5,0,0,1,.5.5A.51.51,0,0,1,29.23,71.54Z"/><line x1="29.23" y1="114.97" x2="23.56" y2="114.97"/><path d="M29.23,115.47H23.56a.5.5,0,0,1,0-1h5.67a.5.5,0,0,1,0,1Z"/><line x1="29.23" y1="158.9" x2="23.56" y2="158.9"/><path d="M29.23,159.4H23.56a.5.5,0,0,1-.5-.5.5.5,0,0,1,.5-.5h5.67a.51.51,0,0,1,.5.5A.5.5,0,0,1,29.23,159.4Z"/><line x1="29.23" y1="202.84" x2="23.56" y2="202.84"/><path d="M29.23,203.34H23.56a.5.5,0,0,1-.5-.5.5.5,0,0,1,.5-.5h5.67a.5.5,0,0,1,.5.5A.51.51,0,0,1,29.23,203.34Z"/><path class="cls-2" d="M49.17,246.57a.5.5,0,0,1-.5-.49c-1.56-101.93,45.23-117.14,99.4-134.76C188.75,98.1,234.85,83.11,267,27.55a.5.5,0,1,1,.86.5c-32.3,55.89-78.6,70.94-119.45,84.23-53.8,17.49-100.26,32.59-98.71,133.78a.5.5,0,0,1-.49.51Z"/><rect class="cls-3" width="595.28" height="18"/></g></g></svg>