<svg xmlns="http://www.w3.org/2000/svg" viewBox="0 0 595.39 26"><defs><style>.cls-1{fill:none;}.cls-2{fill:#298c50;}.cls-3{fill:#32af63;}.cls-4{fill:#73c593;}.cls-5{isolation:isolate;}.cls-6{fill:#fff;}</style></defs><g id="Layer_2" data-name="Layer 2"><g id="Layer_1-2" data-name="Layer 1"><rect class="cls-1" x="0.12" width="595.28" height="18"/><path class="cls-2" d="M9.12,1H160V26H9.12V21c0-10-8,8-8-7.5s8,2.5,8-7.5Z"/><path class="cls-3" d="M8.12,0H159V25H8.12V20c0-10-8,8-8-7.5s8,2.5,8-7.5Z"/><path class="cls-4" d="M9.12,24.5h-1v-6h1ZM.77,18.13a20.9,20.9,0,0,1,0-11.26l1,.26a19.79,19.79,0,0,0,0,10.74ZM9.12,8h-1V0H158.5V1H9.12Z"/><g class="cls-5"><path class="cls-6" d="M22.6,20.84a5.61,5.61,0,0,1-3-.77l.21-1a6.55,6.55,0,0,0,1.34.58,5.15,5.15,0,0,0,1.42.18,2.16,2.16,0,0,0,1.64-.58,2.35,2.35,0,0,0,.57-1.72v-2l.16-.19a2.82,2.82,0,0,1-.56,1,2.58,2.58,0,0,1-.94.69,3.15,3.15,0,0,1-1.26.24,3.21,3.21,0,0,1-2.95-1.79,4.32,4.32,0,0,1-.42-2,4.36,4.36,0,0,1,.42-2,3.18,3.18,0,0,1,2.95-1.78,3,3,0,0,1,1.78.51,2.58,2.58,0,0,1,1,1.45l-.18-.16V10H26v7.48A3.42,3.42,0,0,1,25.14,20,3.45,3.45,0,0,1,22.6,20.84Zm-.15-4.59a2.16,2.16,0,0,0,1.72-.72,3,3,0,0,0,.62-2,3,3,0,0,0-.62-2,2.17,2.17,0,0,0-1.72-.73,2.23,2.23,0,0,0-1.75.73,3,3,0,0,0-.63,2,3,3,0,0,0,.63,2A2.25,2.25,0,0,0,22.45,16.25Z"/><path class="cls-6" d="M34.53,16.6a3.42,3.42,0,0,1-1.27.73,4.78,4.78,0,0,1-1.58.28,4.13,4.13,0,0,1-2-.47,3.19,3.19,0,0,1-1.31-1.34,4.57,4.57,0,0,1-.45-2.09,4.47,4.47,0,0,1,.45-2.06,3.34,3.34,0,0,1,1.25-1.38,3.43,3.43,0,0,1,1.85-.49,3.2,3.2,0,0,1,1.73.44,2.86,2.86,0,0,1,1.1,1.27,4.74,4.74,0,0,1,.38,2v.23H29v-.8h5l-.39.56a3.13,3.13,0,0,0-.52-2,1.9,1.9,0,0,0-1.59-.7,2.1,2.1,0,0,0-1.72.77,3.31,3.31,0,0,0-.62,2.14,3.27,3.27,0,0,0,.65,2.22,2.39,2.39,0,0,0,1.91.75A3.65,3.65,0,0,0,33,16.38a3.92,3.92,0,0,0,1.16-.67Z"/><path class="cls-6" d="M35.4,10.92V10h4.84v1Zm4.81,5.5v1l-.5.11a4.58,4.58,0,0,1-.55,0A2.26,2.26,0,0,1,37.49,17a2.35,2.35,0,0,1-.62-1.79V8l1.21-.44V15a2.11,2.11,0,0,0,.17.93,1,1,0,0,0,.48.46,1.78,1.78,0,0,0,.67.12l.41,0Z"/><path class="cls-6" d="M45.63,17.5v-11h1.21v5.43l-.16-.15a2.56,2.56,0,0,1,1-1.45,2.93,2.93,0,0,1,1.74-.51,3.06,3.06,0,0,1,2.93,1.83,4.52,4.52,0,0,1,.43,2.05,4.71,4.71,0,0,1-.43,2.08,3.33,3.33,0,0,1-1.18,1.38,3.22,3.22,0,0,1-1.75.49,2.87,2.87,0,0,1-1.74-.52,2.5,2.5,0,0,1-1-1.45l.16-.17v2Zm3.54-.9a2.08,2.08,0,0,0,1.71-.77,3.42,3.42,0,0,0,.61-2.17,3.26,3.26,0,0,0-.61-2.12,2.34,2.34,0,0,0-3.44,0,3.38,3.38,0,0,0-.6,2.14,3.38,3.38,0,0,0,.6,2.15A2.07,2.07,0,0,0,49.17,16.6Z"/><path class="cls-6" d="M57.52,17.61a3.2,3.2,0,0,1-1.76-.48,3,3,0,0,1-1.17-1.35,4.71,4.71,0,0,1-.41-2.06,4.78,4.78,0,0,1,.42-2.07,3.31,3.31,0,0,1,1.17-1.38,3.14,3.14,0,0,1,1.75-.49,3,3,0,0,1,1.76.51,2.47,2.47,0,0,1,1,1.45l-.18.12V10h1.2V17.5h-1.2V15.55l.18.09a2.5,2.5,0,0,1-1,1.45A2.91,2.91,0,0,1,57.52,17.61Zm.24-1a2,2,0,0,0,1.71-.76,3.38,3.38,0,0,0,.6-2.15,3.32,3.32,0,0,0-.61-2.15,2.06,2.06,0,0,0-1.7-.75,2.08,2.08,0,0,0-1.73.78,3.3,3.3,0,0,0-.62,2.15A3.22,3.22,0,0,0,56,15.85,2.12,2.12,0,0,0,57.76,16.6Z"/><path class="cls-6" d="M62.56,10.92V10h4.85v1Zm4.82,5.5v1l-.51.11a4.26,4.26,0,0,1-.54,0A2.3,2.3,0,0,1,64.65,17,2.39,2.39,0,0,1,64,15.21V8l1.22-.44V15a2,2,0,0,0,.17.93,1,1,0,0,0,.47.46,1.83,1.83,0,0,0,.68.12l.4,0Z"/><path class="cls-6" d="M67.86,10.92V10H72.7v1Zm4.81,5.5v1l-.5.11a4.58,4.58,0,0,1-.55,0A2.26,2.26,0,0,1,70,17a2.35,2.35,0,0,1-.62-1.79V8l1.21-.44V15a2.11,2.11,0,0,0,.17.93,1,1,0,0,0,.48.46,1.78,1.78,0,0,0,.67.12l.41,0Z"/><path class="cls-6" d="M80.35,16.6a3.34,3.34,0,0,1-1.27.73,4.74,4.74,0,0,1-1.58.28,4.16,4.16,0,0,1-2-.47,3.17,3.17,0,0,1-1.3-1.34,4.44,4.44,0,0,1-.46-2.09,4.47,4.47,0,0,1,.45-2.06,3.41,3.41,0,0,1,1.25-1.38,3.49,3.49,0,0,1,1.86-.49,3.17,3.17,0,0,1,1.72.44,2.8,2.8,0,0,1,1.1,1.27,4.58,4.58,0,0,1,.39,2v.23h-5.7v-.8h5l-.39.56a3.19,3.19,0,0,0-.52-2,1.94,1.94,0,0,0-1.6-.7,2.11,2.11,0,0,0-1.72.77A3.36,3.36,0,0,0,75,13.63a3.32,3.32,0,0,0,.65,2.22,2.42,2.42,0,0,0,1.92.75,3.56,3.56,0,0,0,1.26-.22A3.84,3.84,0,0,0,80,15.71Z"/><path class="cls-6" d="M82.33,17.5V12.07c0-.35,0-.7,0-1.06s0-.71-.1-1h1.16l.16,1.86-.16-.05a2.35,2.35,0,0,1,.9-1.49,2.6,2.6,0,0,1,1.57-.5,2.23,2.23,0,0,1,.37,0,1.14,1.14,0,0,1,.32.07l0,1.1a2.69,2.69,0,0,0-.79-.11,2.11,2.11,0,0,0-1.26.34,2.06,2.06,0,0,0-.69.88,3,3,0,0,0-.21,1.12v4.3Z"/><path class="cls-6" d="M90.61,17.89,87.22,10H88.5l2.73,6.66Zm-2.76,3L87.6,20a6.86,6.86,0,0,0,1.16-.38,2.43,2.43,0,0,0,.79-.57,2.84,2.84,0,0,0,.57-.91L90.6,17l.27-.37L93.63,10h1.21l-3.52,8.23a5.16,5.16,0,0,1-.92,1.46,3.59,3.59,0,0,1-1.15.84A6.37,6.37,0,0,1,87.85,20.91Z"/><path class="cls-6" d="M100.09,17.5v-11h1.22v11Z"/><path class="cls-6" d="M109.84,16.6a3.34,3.34,0,0,1-1.27.73,4.74,4.74,0,0,1-1.58.28,4.16,4.16,0,0,1-2-.47,3.17,3.17,0,0,1-1.3-1.34,4.44,4.44,0,0,1-.46-2.09,4.47,4.47,0,0,1,.45-2.06,3.41,3.41,0,0,1,1.25-1.38,3.49,3.49,0,0,1,1.86-.49,3.17,3.17,0,0,1,1.72.44,2.8,2.8,0,0,1,1.1,1.27,4.58,4.58,0,0,1,.39,2v.23h-5.7v-.8h5l-.39.56a3.19,3.19,0,0,0-.52-2,1.94,1.94,0,0,0-1.6-.7,2.11,2.11,0,0,0-1.72.77,3.36,3.36,0,0,0-.62,2.14,3.32,3.32,0,0,0,.65,2.22,2.42,2.42,0,0,0,1.92.75,3.56,3.56,0,0,0,1.26-.22,3.84,3.84,0,0,0,1.17-.67Z"/><path class="cls-6" d="M114,17.5,110.74,10H112l2.73,6.65h-.36L117.15,10h1.21l-3.25,7.53Z"/><path class="cls-6" d="M125.79,16.6a3.42,3.42,0,0,1-1.27.73,4.78,4.78,0,0,1-1.58.28,4.13,4.13,0,0,1-2-.47,3.19,3.19,0,0,1-1.31-1.34,4.57,4.57,0,0,1-.45-2.09,4.47,4.47,0,0,1,.45-2.06,3.34,3.34,0,0,1,1.25-1.38,3.43,3.43,0,0,1,1.85-.49,3.2,3.2,0,0,1,1.73.44,2.86,2.86,0,0,1,1.1,1.27,4.74,4.74,0,0,1,.38,2v.23h-5.7v-.8h5l-.39.56a3.13,3.13,0,0,0-.52-2,1.9,1.9,0,0,0-1.59-.7,2.1,2.1,0,0,0-1.72.77,3.31,3.31,0,0,0-.62,2.14,3.27,3.27,0,0,0,.65,2.22,2.39,2.39,0,0,0,1.91.75,3.65,3.65,0,0,0,1.27-.22,3.92,3.92,0,0,0,1.16-.67Z"/><path class="cls-6" d="M127.77,17.5v-11H129v11Z"/><path class="cls-6" d="M137.35,20.23a14.76,14.76,0,0,1-1-2.27,13.73,13.73,0,0,1-.55-2.21,15,15,0,0,1-.17-2.24,14,14,0,0,1,1.71-6.69h1a22.54,22.54,0,0,0-.88,2.46,15.38,15.38,0,0,0-.45,6.29,15.81,15.81,0,0,0,.45,2.19,23.91,23.91,0,0,0,.87,2.47Z"/><path class="cls-6" d="M141.69,13.29a2.12,2.12,0,0,1-1.74-.82,4,4,0,0,1-.63-2.46A4,4,0,0,1,140,7.55a2.15,2.15,0,0,1,1.74-.79,2.1,2.1,0,0,1,1.72.79A4,4,0,0,1,144,10a4,4,0,0,1-.63,2.46A2.07,2.07,0,0,1,141.69,13.29Zm0-.87a1,1,0,0,0,.93-.58,4,4,0,0,0,.31-1.83,4,4,0,0,0-.31-1.81,1,1,0,0,0-.93-.57,1,1,0,0,0-.94.57,4,4,0,0,0-.31,1.81,4,4,0,0,0,.31,1.83A1,1,0,0,0,141.69,12.42Zm-.2,5.08,6.18-10.68h1.16L142.66,17.5Zm7.14.06a2.08,2.08,0,0,1-1.73-.81,3.91,3.91,0,0,1-.64-2.46,3.87,3.87,0,0,1,.64-2.46,2.29,2.29,0,0,1,3.46,0,3.94,3.94,0,0,1,.63,2.46,4,4,0,0,1-.63,2.46A2.08,2.08,0,0,1,148.63,17.56Zm0-.87a1,1,0,0,0,.94-.57,4.12,4.12,0,0,0,.31-1.83,4.13,4.13,0,0,0-.31-1.82,1.07,1.07,0,0,0-1.88,0,4.16,4.16,0,0,0-.3,1.82,4.15,4.15,0,0,0,.3,1.83A1,1,0,0,0,148.63,16.69Z"/><path class="cls-6" d="M153,20.23h-1a20,20,0,0,0,.87-2.47,16,16,0,0,0,.59-4.25,15.82,15.82,0,0,0-.59-4.23A20.45,20.45,0,0,0,152,6.82h1a14.9,14.9,0,0,1,1.3,3.35,14.46,14.46,0,0,1,.4,3.34A14.19,14.19,0,0,1,154,18,14.76,14.76,0,0,1,153,20.23Z"/></g></g></g></svg>