<svg xmlns="http://www.w3.org/2000/svg" viewBox="0 0 595.39 26"><defs><style>.cls-1{fill:none;}.cls-2{fill:#298c50;}.cls-3{fill:#32af63;}.cls-4{fill:#73c593;}.cls-5{isolation:isolate;}.cls-6{fill:#fff;}</style></defs><g id="Layer_2" data-name="Layer 2"><g id="Layer_1-2" data-name="Layer 1"><rect class="cls-1" x="0.12" width="595.28" height="18"/><path class="cls-2" d="M9.12,1H187.58V26H9.12V21c0-10-8,8-8-7.5s8,2.5,8-7.5Z"/><path class="cls-3" d="M8.12,0H186.58V25H8.12V20c0-10-8,8-8-7.5s8,2.5,8-7.5Z"/><path class="cls-4" d="M9.12,24.5h-1v-6h1ZM.77,18.13a20.9,20.9,0,0,1,0-11.26l1,.26a19.79,19.79,0,0,0,0,10.74ZM9.12,8h-1V0h178V1H9.12Z"/><g class="cls-5"><path class="cls-6" d="M25.93,17.5h-1.2v-2l.18.17a2.5,2.5,0,0,1-1,1.45,2.91,2.91,0,0,1-1.76.52,3.22,3.22,0,0,1-1.75-.49,3.31,3.31,0,0,1-1.17-1.38,4.86,4.86,0,0,1-.42-2.08,4.66,4.66,0,0,1,.41-2.05,3.17,3.17,0,0,1,1.17-1.36,3.28,3.28,0,0,1,1.76-.47,3,3,0,0,1,1.76.51,2.56,2.56,0,0,1,1,1.45l-.19.15V6.46h1.21Zm-3.51-.9a2,2,0,0,0,1.7-.76,3.32,3.32,0,0,0,.61-2.15,3.38,3.38,0,0,0-.6-2.14,2.07,2.07,0,0,0-1.71-.76,2.12,2.12,0,0,0-1.73.75,3.21,3.21,0,0,0-.62,2.12,3.36,3.36,0,0,0,.62,2.17A2.1,2.1,0,0,0,22.42,16.6Z"/><path class="cls-6" d="M34.47,16.6a3.58,3.58,0,0,1-1.27.74,5,5,0,0,1-1.58.27,4.13,4.13,0,0,1-2-.47,3.19,3.19,0,0,1-1.31-1.34,4.57,4.57,0,0,1-.45-2.09,4.47,4.47,0,0,1,.45-2.06,3.34,3.34,0,0,1,1.25-1.38,3.43,3.43,0,0,1,1.85-.49,3.2,3.2,0,0,1,1.73.44,2.86,2.86,0,0,1,1.1,1.27,4.74,4.74,0,0,1,.38,2v.23H28.9v-.8h5l-.39.56a3.13,3.13,0,0,0-.52-2,1.9,1.9,0,0,0-1.59-.7,2.1,2.1,0,0,0-1.72.77,3.31,3.31,0,0,0-.62,2.14,3.27,3.27,0,0,0,.65,2.22,2.39,2.39,0,0,0,1.91.75,3.65,3.65,0,0,0,1.27-.22,3.92,3.92,0,0,0,1.16-.67Z"/><path class="cls-6" d="M35.34,10.92V10h4.84v1Zm4.81,5.5v1l-.5.11a4.58,4.58,0,0,1-.55,0A2.26,2.26,0,0,1,37.43,17a2.35,2.35,0,0,1-.62-1.79V8L38,7.59V15a2.11,2.11,0,0,0,.17.93,1,1,0,0,0,.48.46,1.78,1.78,0,0,0,.67.12l.41,0Z"/><path class="cls-6" d="M47.83,16.6a3.49,3.49,0,0,1-1.27.74,5,5,0,0,1-1.58.27,4.16,4.16,0,0,1-2-.47,3.17,3.17,0,0,1-1.3-1.34,4.44,4.44,0,0,1-.46-2.09,4.47,4.47,0,0,1,.45-2.06,3.41,3.41,0,0,1,1.25-1.38,3.49,3.49,0,0,1,1.86-.49,3.17,3.17,0,0,1,1.72.44,2.8,2.8,0,0,1,1.1,1.27,4.58,4.58,0,0,1,.39,2v.23h-5.7v-.8h5l-.39.56a3.19,3.19,0,0,0-.52-2,1.94,1.94,0,0,0-1.6-.7,2.11,2.11,0,0,0-1.72.77,3.36,3.36,0,0,0-.62,2.14,3.32,3.32,0,0,0,.65,2.22A2.42,2.42,0,0,0,45,16.6a3.56,3.56,0,0,0,1.26-.22,3.84,3.84,0,0,0,1.17-.67Z"/><path class="cls-6" d="M53,17.61a3.7,3.7,0,0,1-1.92-.48,3.35,3.35,0,0,1-1.26-1.35,4.57,4.57,0,0,1-.44-2.06,4.5,4.5,0,0,1,.45-2.06,3.31,3.31,0,0,1,1.28-1.39A3.72,3.72,0,0,1,53,9.78a4.07,4.07,0,0,1,1.47.26,3.22,3.22,0,0,1,1.18.72l-.4.91A5,5,0,0,0,54.2,11a3,3,0,0,0-1.1-.22,2.28,2.28,0,0,0-1.81.77,3.16,3.16,0,0,0-.67,2.16,3.12,3.12,0,0,0,.66,2.13,2.3,2.3,0,0,0,1.82.75,2.79,2.79,0,0,0,1.09-.22,4.4,4.4,0,0,0,1.1-.65l.4.9a3.34,3.34,0,0,1-1.21.71A4.24,4.24,0,0,1,53,17.61Z"/><path class="cls-6" d="M56.19,10.92V10H61v1ZM61,16.42v1l-.5.11a4.58,4.58,0,0,1-.55,0A2.26,2.26,0,0,1,58.28,17a2.35,2.35,0,0,1-.62-1.79V8l1.21-.43V15A2.11,2.11,0,0,0,59,16a1,1,0,0,0,.48.46,1.78,1.78,0,0,0,.67.12l.41,0Z"/><path class="cls-6" d="M69.58,17.61a3.7,3.7,0,0,1-1.92-.48,3.26,3.26,0,0,1-1.25-1.35A4.44,4.44,0,0,1,66,13.72a4.5,4.5,0,0,1,.45-2.06,3.29,3.29,0,0,1,1.27-1.39,3.72,3.72,0,0,1,2-.49,4.16,4.16,0,0,1,1.48.26,3.31,3.31,0,0,1,1.18.72l-.41.91A4.73,4.73,0,0,0,70.8,11a3,3,0,0,0-1.1-.22,2.29,2.29,0,0,0-1.81.77,3.21,3.21,0,0,0-.66,2.16,3.12,3.12,0,0,0,.66,2.13,2.28,2.28,0,0,0,1.81.75,2.84,2.84,0,0,0,1.1-.22,4.35,4.35,0,0,0,1.09-.65l.41.9a3.43,3.43,0,0,1-1.21.71A4.33,4.33,0,0,1,69.58,17.61Z"/><path class="cls-6" d="M73.84,17.5v-11h1.22v5l-.2.14a2.59,2.59,0,0,1,1-1.38,3,3,0,0,1,1.7-.47c1.81,0,2.71,1,2.71,3V17.5H79.11V12.82a2.34,2.34,0,0,0-.42-1.54,1.67,1.67,0,0,0-1.32-.49,2.24,2.24,0,0,0-1.68.65,2.38,2.38,0,0,0-.63,1.74V17.5Z"/><path class="cls-6" d="M85.51,17.61a3.2,3.2,0,0,1-1.76-.48,3,3,0,0,1-1.17-1.35,4.71,4.71,0,0,1-.41-2.06,4.78,4.78,0,0,1,.42-2.07,3.31,3.31,0,0,1,1.17-1.38,3.14,3.14,0,0,1,1.75-.49,3,3,0,0,1,1.76.51,2.5,2.5,0,0,1,1,1.45l-.18.12V10h1.2V17.5h-1.2V15.55l.18.09a2.5,2.5,0,0,1-1,1.45A2.91,2.91,0,0,1,85.51,17.61Zm.24-1a2,2,0,0,0,1.71-.76,3.38,3.38,0,0,0,.6-2.15,3.32,3.32,0,0,0-.61-2.15,2.06,2.06,0,0,0-1.7-.75,2.08,2.08,0,0,0-1.73.78,3.3,3.3,0,0,0-.62,2.15A3.22,3.22,0,0,0,84,15.85,2.12,2.12,0,0,0,85.75,16.6Z"/><path class="cls-6" d="M91.62,17.5V12.07c0-.35,0-.7,0-1.06a9.1,9.1,0,0,0-.09-1h1.15l.17,1.86-.17-.05a2.32,2.32,0,0,1,.91-1.49,2.58,2.58,0,0,1,1.57-.5,2.06,2.06,0,0,1,.36,0,1.6,1.6,0,0,1,.33.07l0,1.1a2.76,2.76,0,0,0-.8-.11,2.06,2.06,0,0,0-1.25.34,1.92,1.92,0,0,0-.69.88,2.8,2.8,0,0,0-.22,1.12v4.3Z"/><path class="cls-6" d="M100.21,20.84a5.52,5.52,0,0,1-3-.77l.21-1a6.55,6.55,0,0,0,1.34.58,5.15,5.15,0,0,0,1.42.18,2.16,2.16,0,0,0,1.64-.58,2.35,2.35,0,0,0,.57-1.72v-2l.16-.19a2.82,2.82,0,0,1-.56,1,2.58,2.58,0,0,1-.94.69,3.15,3.15,0,0,1-1.26.24,3.21,3.21,0,0,1-2.95-1.79,4.32,4.32,0,0,1-.42-2,4.36,4.36,0,0,1,.42-2,3.18,3.18,0,0,1,2.95-1.78,3,3,0,0,1,1.78.51,2.58,2.58,0,0,1,1,1.45l-.18-.16V10h1.22v7.48a3.42,3.42,0,0,1-.87,2.55A3.45,3.45,0,0,1,100.21,20.84Zm-.15-4.59a2.16,2.16,0,0,0,1.72-.72,3,3,0,0,0,.62-2,3,3,0,0,0-.62-2,2.17,2.17,0,0,0-1.72-.73,2.23,2.23,0,0,0-1.75.73,3,3,0,0,0-.63,2,3,3,0,0,0,.63,2A2.25,2.25,0,0,0,100.06,16.25Z"/><path class="cls-6" d="M112.14,16.6a3.58,3.58,0,0,1-1.27.74,5,5,0,0,1-1.58.27,4.13,4.13,0,0,1-2-.47A3.19,3.19,0,0,1,106,15.8a4.57,4.57,0,0,1-.45-2.09,4.47,4.47,0,0,1,.45-2.06,3.34,3.34,0,0,1,1.25-1.38,3.43,3.43,0,0,1,1.85-.49,3.2,3.2,0,0,1,1.73.44,2.86,2.86,0,0,1,1.1,1.27,4.74,4.74,0,0,1,.38,2v.23h-5.7v-.8h5l-.39.56a3.13,3.13,0,0,0-.52-2,1.9,1.9,0,0,0-1.59-.7,2.1,2.1,0,0,0-1.72.77,3.31,3.31,0,0,0-.62,2.14,3.27,3.27,0,0,0,.65,2.22,2.39,2.39,0,0,0,1.91.75,3.65,3.65,0,0,0,1.27-.22,3.92,3.92,0,0,0,1.16-.67Z"/><path class="cls-6" d="M121.2,17.61a3.7,3.7,0,0,1-1.92-.48A3.35,3.35,0,0,1,118,15.78a4.57,4.57,0,0,1-.44-2.06,4.5,4.5,0,0,1,.45-2.06,3.31,3.31,0,0,1,1.28-1.39,3.72,3.72,0,0,1,2-.49,4.07,4.07,0,0,1,1.47.26,3.22,3.22,0,0,1,1.18.72l-.4.91a5,5,0,0,0-1.09-.66,3,3,0,0,0-1.1-.22,2.28,2.28,0,0,0-1.81.77,3.16,3.16,0,0,0-.67,2.16,3.12,3.12,0,0,0,.66,2.13,2.3,2.3,0,0,0,1.82.75,2.79,2.79,0,0,0,1.09-.22,4.4,4.4,0,0,0,1.1-.65l.4.9a3.34,3.34,0,0,1-1.21.71A4.24,4.24,0,0,1,121.2,17.61Z"/><path class="cls-6" d="M128.58,17.61a3.64,3.64,0,0,1-1.89-.48,3.33,3.33,0,0,1-1.24-1.36,4.52,4.52,0,0,1-.44-2.08,4.51,4.51,0,0,1,.44-2.07,3.3,3.3,0,0,1,1.24-1.37,3.73,3.73,0,0,1,1.89-.47,3.69,3.69,0,0,1,1.88.47,3.3,3.3,0,0,1,1.24,1.37,4.51,4.51,0,0,1,.45,2.07,4.52,4.52,0,0,1-.45,2.08,3.33,3.33,0,0,1-1.24,1.36A3.6,3.6,0,0,1,128.58,17.61Zm0-1a2.08,2.08,0,0,0,1.71-.74,3.34,3.34,0,0,0,.61-2.17,3.32,3.32,0,0,0-.61-2.15,2.34,2.34,0,0,0-3.43,0,3.26,3.26,0,0,0-.62,2.15,3.4,3.4,0,0,0,.6,2.17A2.15,2.15,0,0,0,128.58,16.6Z"/><path class="cls-6" d="M134,17.5V12.07c0-.35,0-.7,0-1.06a9.1,9.1,0,0,0-.09-1h1.15l.14,1.55-.15.11a2.6,2.6,0,0,1,.93-1.37,2.74,2.74,0,0,1,1.59-.47,2.48,2.48,0,0,1,1.7.54,2.61,2.61,0,0,1,.77,1.64l-.36-.19a2.5,2.5,0,0,1,1-1.45,2.85,2.85,0,0,1,1.75-.54,2.29,2.29,0,0,1,1.87.74,3.38,3.38,0,0,1,.63,2.24V17.5H143.7V12.82a2.54,2.54,0,0,0-.38-1.54,1.41,1.41,0,0,0-1.18-.49,1.88,1.88,0,0,0-1.5.65,2.66,2.66,0,0,0-.54,1.76v4.3h-1.22V12.82a2.54,2.54,0,0,0-.38-1.54,1.44,1.44,0,0,0-1.19-.49,1.87,1.87,0,0,0-1.51.65,2.61,2.61,0,0,0-.55,1.76v4.3Z"/><path class="cls-6" d="M147.22,20.74V12.07c0-.35,0-.7,0-1.06s0-.71-.1-1h1.16l.13,1.55-.12.23a2.51,2.51,0,0,1,1-1.45A2.93,2.93,0,0,1,151,9.78a3.08,3.08,0,0,1,1.74.49,3.35,3.35,0,0,1,1.19,1.38,4.78,4.78,0,0,1,.43,2.07,4.7,4.7,0,0,1-.43,2.06A3.13,3.13,0,0,1,151,17.61a2.87,2.87,0,0,1-1.74-.52,2.51,2.51,0,0,1-1-1.45l.17-.15v5.25Zm3.54-4.14a2.09,2.09,0,0,0,1.71-.75,3.28,3.28,0,0,0,.62-2.13,3.36,3.36,0,0,0-.62-2.15,2.3,2.3,0,0,0-3.43,0,3.38,3.38,0,0,0-.6,2.15,3.38,3.38,0,0,0,.6,2.15A2,2,0,0,0,150.76,16.6Z"/><path class="cls-6" d="M156.22,17.5v-11h1.22v11Z"/><path class="cls-6" d="M166,16.6a3.49,3.49,0,0,1-1.27.74,5,5,0,0,1-1.58.27,4.16,4.16,0,0,1-2-.47,3.17,3.17,0,0,1-1.3-1.34,4.44,4.44,0,0,1-.46-2.09,4.47,4.47,0,0,1,.45-2.06A3.41,3.41,0,0,1,161,10.27a3.49,3.49,0,0,1,1.86-.49,3.17,3.17,0,0,1,1.72.44,2.8,2.8,0,0,1,1.1,1.27,4.58,4.58,0,0,1,.39,2v.23h-5.7v-.8h5l-.39.56a3.19,3.19,0,0,0-.52-2,1.94,1.94,0,0,0-1.6-.7,2.11,2.11,0,0,0-1.72.77,3.36,3.36,0,0,0-.62,2.14,3.32,3.32,0,0,0,.65,2.22,2.42,2.42,0,0,0,1.92.75,3.56,3.56,0,0,0,1.26-.22,3.84,3.84,0,0,0,1.17-.67Z"/><path class="cls-6" d="M166.84,10.92V10h4.85v1Zm4.82,5.5v1l-.51.11a4.26,4.26,0,0,1-.54,0,2.3,2.3,0,0,1-1.68-.61,2.39,2.39,0,0,1-.62-1.79V8l1.22-.43V15a2,2,0,0,0,.17.93,1,1,0,0,0,.47.46,1.83,1.83,0,0,0,.68.12l.4,0Z"/><path class="cls-6" d="M179.34,16.6a3.58,3.58,0,0,1-1.27.74,5,5,0,0,1-1.58.27,4.13,4.13,0,0,1-2-.47,3.19,3.19,0,0,1-1.31-1.34,4.57,4.57,0,0,1-.45-2.09,4.47,4.47,0,0,1,.45-2.06,3.34,3.34,0,0,1,1.25-1.38,3.43,3.43,0,0,1,1.85-.49,3.2,3.2,0,0,1,1.73.44,2.86,2.86,0,0,1,1.1,1.27,4.74,4.74,0,0,1,.38,2v.23h-5.7v-.8h5l-.39.56a3.13,3.13,0,0,0-.52-2,1.9,1.9,0,0,0-1.59-.7,2.1,2.1,0,0,0-1.72.77,3.31,3.31,0,0,0-.62,2.14,3.27,3.27,0,0,0,.65,2.22,2.39,2.39,0,0,0,1.91.75,3.65,3.65,0,0,0,1.27-.22,3.92,3.92,0,0,0,1.16-.67Z"/></g></g></g></svg>