<svg xmlns="http://www.w3.org/2000/svg" viewBox="0 0 595.28 60.69"><defs><style>.cls-1,.cls-9{fill:#32af63;}.cls-2{fill:#ededee;}.cls-3{fill:#231f20;}.cls-4{fill:#bababa;}.cls-10,.cls-4,.cls-5,.cls-6,.cls-7,.cls-9{fill-rule:evenodd;}.cls-5{fill:#626e80;}.cls-6{fill:#414d63;}.cls-7{fill:#9b9a9a;}.cls-8{fill:#e6e6e5;}.cls-10{fill:#289b50;}</style></defs><g id="Layer_2" data-name="Layer 2"><g id="Layer_1-2" data-name="Layer 1"><rect class="cls-1" y="4" width="595.28" height="56.69" rx="11.34"/><rect class="cls-2" width="595.28" height="56.69" rx="11.34"/><path class="cls-3" d="M85.23,38.84V13.21H96.5A10,10,0,0,1,102.71,15,5.88,5.88,0,0,1,105,19.9a5.92,5.92,0,0,1-1.18,3.71,6.26,6.26,0,0,1-3.35,2.16v-.29a6.58,6.58,0,0,1,3.83,2.2,6.4,6.4,0,0,1,1.35,4.18A6.2,6.2,0,0,1,103.32,37a10.2,10.2,0,0,1-6.5,1.85ZM89.77,24h5.94a6.08,6.08,0,0,0,3.67-.9,3.18,3.18,0,0,0,1.19-2.7,3.11,3.11,0,0,0-1.19-2.7,6.24,6.24,0,0,0-3.67-.87H89.77Zm0,11.19h6.58a6.23,6.23,0,0,0,3.73-.88,3.35,3.35,0,0,0,1.17-2.86,3.44,3.44,0,0,0-1.19-2.88,6,6,0,0,0-3.71-.94H89.77Z"/><path class="cls-3" d="M116.8,39.09A7.89,7.89,0,0,1,112.59,38a7.47,7.47,0,0,1-2.83-3.24,11.57,11.57,0,0,1-1-4.95,11.68,11.68,0,0,1,1-5,8,8,0,0,1,2.83-3.35,7.36,7.36,0,0,1,4.19-1.21,7.08,7.08,0,0,1,4,1.14,5.63,5.63,0,0,1,2.32,3.15l-.43.25V20.66h4.42V38.84h-4.42v-4.1l.43.14A5.5,5.5,0,0,1,120.82,38,7.21,7.21,0,0,1,116.8,39.09ZM118,35.64a4.15,4.15,0,0,0,3.45-1.55,6.91,6.91,0,0,0,1.23-4.39,7,7,0,0,0-1.23-4.45A4.16,4.16,0,0,0,118,23.72a4.26,4.26,0,0,0-3.53,1.58,7,7,0,0,0-1.26,4.47,6.66,6.66,0,0,0,1.26,4.34A4.31,4.31,0,0,0,118,35.64Z"/><path class="cls-3" d="M129.76,24V20.66h12.82V24ZM142.58,35.1v3.56a7,7,0,0,1-1.42.34,11.86,11.86,0,0,1-1.5.09,6.24,6.24,0,0,1-4.73-1.73,6.82,6.82,0,0,1-1.68-5V16.23l4.5-1.51V32.18a3.88,3.88,0,0,0,.4,1.93,2.3,2.3,0,0,0,1.06,1,3.77,3.77,0,0,0,1.49.28,5.33,5.33,0,0,0,.91-.07C141.89,35.26,142.22,35.19,142.58,35.1Z"/><path class="cls-3" d="M143.12,24V20.66h12.81V24ZM155.93,35.1v3.56a6.81,6.81,0,0,1-1.42.34,11.81,11.81,0,0,1-1.49.09,6.28,6.28,0,0,1-4.74-1.73,6.86,6.86,0,0,1-1.67-5V16.23l4.5-1.51V32.18a3.88,3.88,0,0,0,.4,1.93,2.25,2.25,0,0,0,1.06,1,3.73,3.73,0,0,0,1.49.28,5.29,5.29,0,0,0,.9-.07C155.25,35.26,155.57,35.19,155.93,35.1Z"/><path class="cls-3" d="M174.62,36.82a9.39,9.39,0,0,1-3.19,1.68,12.91,12.91,0,0,1-3.83.59A11,11,0,0,1,162.5,38a7.85,7.85,0,0,1-3.29-3.24,10.42,10.42,0,0,1-1.15-5,10.56,10.56,0,0,1,1.11-4.95,8.36,8.36,0,0,1,3.1-3.35,8.55,8.55,0,0,1,4.57-1.21,8.16,8.16,0,0,1,4.32,1.1A7.28,7.28,0,0,1,174,24.44a11.09,11.09,0,0,1,1,4.86V30H162l0-2.41h10.23l-1.23,1.23a6.28,6.28,0,0,0-1-4A3.68,3.68,0,0,0,167,23.43,4,4,0,0,0,163.6,25a7,7,0,0,0-1.19,4.38,7.19,7.19,0,0,0,1.33,4.77,5.08,5.08,0,0,0,4,1.53,9,9,0,0,0,2.89-.49,9.31,9.31,0,0,0,2.65-1.42Z"/><path class="cls-3" d="M178.72,38.84v-13c0-.84,0-1.7-.05-2.58s-.12-1.73-.24-2.57h4.25l.5,4.68-.5-.25a5.66,5.66,0,0,1,2.12-3.64,6.21,6.21,0,0,1,3.75-1.22,6.5,6.5,0,0,1,1,.07,3.62,3.62,0,0,1,.82.22l-.07,4.1a6.07,6.07,0,0,0-2.37-.47,4.91,4.91,0,0,0-2.65.65,4.11,4.11,0,0,0-1.55,1.75,5.62,5.62,0,0,0-.52,2.46v9.83Z"/><path class="cls-3" d="M199.82,40l-8.39-19.37h4.71l5.73,14.26Zm-6.3,7-1-3.45a15.32,15.32,0,0,0,2.81-.85,5.77,5.77,0,0,0,1.85-1.24,6.16,6.16,0,0,0,1.24-1.95l1.3-3,1.15-1.65,5.83-14.26h4.47l-8.43,19.4a12.81,12.81,0,0,1-2.41,3.8A9.16,9.16,0,0,1,197.24,46,15,15,0,0,1,193.52,47Z"/><path class="cls-4" d="M44.1,7.09H40.56a1.18,1.18,0,0,0-1.18,1.18V9.6l2.88,1.46,3-1.46V8.27A1.18,1.18,0,0,0,44.1,7.09Z"/><path class="cls-5" d="M34.55,9.6H50.3a2.08,2.08,0,0,1,2.07,2.08V47.54a2.07,2.07,0,0,1-2.07,2.07H34.55a2.07,2.07,0,0,1-2.07-2.07V11.68A2.08,2.08,0,0,1,34.55,9.6Z"/><path class="cls-6" d="M34.49,47.54V11.68A2.08,2.08,0,0,1,36.56,9.6h-2a2.08,2.08,0,0,0-2.07,2.08V47.54a2.07,2.07,0,0,0,2.07,2.07h2A2.07,2.07,0,0,1,34.49,47.54Z"/><path class="cls-7" d="M40.88,8.27a1.19,1.19,0,0,1,1.19-1.18H40.56a1.18,1.18,0,0,0-1.18,1.18V9.6h1.5Z"/><path class="cls-8" d="M44,13.38H43.1v-.91a.68.68,0,0,0-1.35,0v.91h-.91a.68.68,0,0,0,0,1.35h.91v.91a.68.68,0,1,0,1.35,0v-.91H44a.68.68,0,0,0,0-1.35Z"/><path class="cls-8" d="M44.12,47.32H41A.67.67,0,1,1,41,46h3.16a.67.67,0,1,1,0,1.34Z"/><path class="cls-9" d="M48.26,26.4H36.59a.9.9,0,0,0-.9.9v4.61a.9.9,0,0,0,.9.9H48.26a.9.9,0,0,0,.9-.9V27.3A.9.9,0,0,0,48.26,26.4Z"/><path class="cls-10" d="M38,31.91V27.3a.9.9,0,0,1,.9-.9H36.59a.89.89,0,0,0-.89.9v4.61a.89.89,0,0,0,.89.9h2.26A.9.9,0,0,1,38,31.91Z"/><path class="cls-9" d="M48.26,18.4H36.59a.9.9,0,0,0-.9.9v4.61a.9.9,0,0,0,.9.9H48.26a.9.9,0,0,0,.9-.9V19.3A.9.9,0,0,0,48.26,18.4Z"/><path class="cls-10" d="M38,23.91V19.3a.9.9,0,0,1,.9-.9H36.59a.89.89,0,0,0-.89.9v4.61a.89.89,0,0,0,.89.9h2.26A.9.9,0,0,1,38,23.91Z"/><path class="cls-9" d="M48.26,34.4H36.59a.9.9,0,0,0-.9.9v4.61a.9.9,0,0,0,.9.9H48.26a.9.9,0,0,0,.9-.9V35.3A.9.9,0,0,0,48.26,34.4Z"/><path class="cls-10" d="M38,39.91V35.3a.9.9,0,0,1,.9-.9H36.59a.89.89,0,0,0-.89.9v4.61a.89.89,0,0,0,.89.9h2.26A.9.9,0,0,1,38,39.91Z"/></g></g></svg>