<svg xmlns="http://www.w3.org/2000/svg" viewBox="0 0 595.28 60.69"><defs><style>.cls-1{fill:#b056a1;}.cls-2{fill:#ededee;}.cls-3{fill:#231f20;}.cls-4{fill:#8b98cc;}.cls-5{fill:#a4def3;}.cls-6{fill:#77d0ee;}.cls-7{fill:#717fbe;}</style></defs><g id="Layer_2" data-name="Layer 2"><g id="Layer_1-2" data-name="Layer 1"><rect class="cls-1" y="4" width="595.28" height="56.69" rx="11.34"/><rect class="cls-2" width="595.28" height="56.69" rx="11.34"/><path class="cls-3" d="M85.23,38.84V13.21H96.5A10,10,0,0,1,102.71,15,5.88,5.88,0,0,1,105,19.9a5.92,5.92,0,0,1-1.18,3.71,6.26,6.26,0,0,1-3.35,2.16v-.29a6.58,6.58,0,0,1,3.83,2.2,6.4,6.4,0,0,1,1.35,4.18A6.2,6.2,0,0,1,103.32,37a10.2,10.2,0,0,1-6.5,1.85ZM89.77,24h5.94a6.08,6.08,0,0,0,3.67-.9,3.18,3.18,0,0,0,1.19-2.7,3.11,3.11,0,0,0-1.19-2.7,6.24,6.24,0,0,0-3.67-.87H89.77Zm0,11.19h6.58a6.23,6.23,0,0,0,3.73-.88,3.35,3.35,0,0,0,1.17-2.86,3.44,3.44,0,0,0-1.19-2.88,6,6,0,0,0-3.71-.94H89.77Z"/><path class="cls-3" d="M109.71,38.84V12.34h4.5v26.5Z"/><path class="cls-3" d="M125.66,39.09a6.46,6.46,0,0,1-5-1.85c-1.11-1.24-1.67-3.1-1.67-5.6v-11h4.5v11a4.3,4.3,0,0,0,.83,2.91,3.12,3.12,0,0,0,2.48.94,4.07,4.07,0,0,0,3.17-1.3,4.9,4.9,0,0,0,1.19-3.45V20.66h4.53V38.84h-4.39V35.1l.47,0a6.27,6.27,0,0,1-2.37,3A6.73,6.73,0,0,1,125.66,39.09Z"/><path class="cls-3" d="M156.11,36.82a9.25,9.25,0,0,1-3.18,1.68,12.92,12.92,0,0,1-3.84.59A10.92,10.92,0,0,1,144,38a7.81,7.81,0,0,1-3.3-3.24,10.54,10.54,0,0,1-1.15-5,10.45,10.45,0,0,1,1.12-4.95,8.29,8.29,0,0,1,3.1-3.35,8.52,8.52,0,0,1,4.57-1.21,8.16,8.16,0,0,1,4.32,1.1,7.28,7.28,0,0,1,2.79,3.15,11.09,11.09,0,0,1,1,4.86V30H143.51l0-2.41h10.22l-1.22,1.23a6.28,6.28,0,0,0-1-4,3.65,3.65,0,0,0-3.07-1.37A4,4,0,0,0,145.1,25a7,7,0,0,0-1.19,4.38,7.13,7.13,0,0,0,1.33,4.77,5.06,5.06,0,0,0,4,1.53,9,9,0,0,0,2.9-.49,9.31,9.31,0,0,0,2.65-1.42Z"/><path class="cls-3" d="M157.73,24V20.66h12.82V24ZM170.55,35.1v3.56a7,7,0,0,1-1.42.34,11.86,11.86,0,0,1-1.5.09,6.24,6.24,0,0,1-4.73-1.73,6.82,6.82,0,0,1-1.68-5V16.23l4.5-1.51V32.18a4,4,0,0,0,.4,1.93,2.3,2.3,0,0,0,1.06,1,3.78,3.78,0,0,0,1.5.28,5.29,5.29,0,0,0,.9-.07C169.86,35.26,170.19,35.19,170.55,35.1Z"/><path class="cls-3" d="M181.89,39.09A9.9,9.9,0,0,1,177,37.94a7.77,7.77,0,0,1-3.19-3.26,10.51,10.51,0,0,1-1.12-5,10.65,10.65,0,0,1,1.12-5,7.76,7.76,0,0,1,3.19-3.3,10,10,0,0,1,4.91-1.15,9.87,9.87,0,0,1,4.84,1.15,8,8,0,0,1,3.21,3.3,10.65,10.65,0,0,1,1.13,5,10.51,10.51,0,0,1-1.13,5,8,8,0,0,1-3.21,3.26A9.76,9.76,0,0,1,181.89,39.09Zm0-3.45a4.17,4.17,0,0,0,3.44-1.5,7,7,0,0,0,1.2-4.48,7,7,0,0,0-1.2-4.45,4.19,4.19,0,0,0-3.44-1.49,4.33,4.33,0,0,0-3.51,1.49,6.83,6.83,0,0,0-1.24,4.45,6.92,6.92,0,0,0,1.22,4.48A4.29,4.29,0,0,0,181.89,35.64Z"/><path class="cls-3" d="M203.2,39.09a9.9,9.9,0,0,1-4.91-1.15,7.83,7.83,0,0,1-3.19-3.26,10.63,10.63,0,0,1-1.12-5,10.77,10.77,0,0,1,1.12-5,7.81,7.81,0,0,1,3.19-3.3,10,10,0,0,1,4.91-1.15A9.87,9.87,0,0,1,208,21.34a8,8,0,0,1,3.21,3.3,10.65,10.65,0,0,1,1.13,5,10.51,10.51,0,0,1-1.13,5A8,8,0,0,1,208,37.94,9.76,9.76,0,0,1,203.2,39.09Zm0-3.45a4.17,4.17,0,0,0,3.44-1.5,7,7,0,0,0,1.2-4.48,7,7,0,0,0-1.2-4.45,4.19,4.19,0,0,0-3.44-1.49,4.33,4.33,0,0,0-3.51,1.49,6.83,6.83,0,0,0-1.24,4.45,7,7,0,0,0,1.22,4.48A4.29,4.29,0,0,0,203.2,35.64Z"/><path class="cls-3" d="M213.89,24V20.66h12.82V24ZM226.71,35.1v3.56a7,7,0,0,1-1.42.34,11.86,11.86,0,0,1-1.5.09,6.24,6.24,0,0,1-4.73-1.73,6.82,6.82,0,0,1-1.68-5V16.23l4.5-1.51V32.18a4,4,0,0,0,.4,1.93,2.3,2.3,0,0,0,1.06,1,3.78,3.78,0,0,0,1.5.28,5.29,5.29,0,0,0,.9-.07C226,35.26,226.35,35.19,226.71,35.1Z"/><path class="cls-3" d="M229.77,38.84V12.34h4.5v12l-.54,0a6.49,6.49,0,0,1,2.57-3.12,7.4,7.4,0,0,1,3.94-1.06q6.48,0,6.48,7.49V38.84h-4.5v-11a4.8,4.8,0,0,0-.82-3.11,3.17,3.17,0,0,0-2.56-1,4.35,4.35,0,0,0-3.33,1.31,4.84,4.84,0,0,0-1.24,3.47v10.3Z"/><path class="cls-4" d="M54.73,37.16l-13.9,12a1.9,1.9,0,0,1-1.23.46,2,2,0,0,1-.78-.17,1.88,1.88,0,0,1-1.09-1.71V39.47a1.88,1.88,0,1,1,3.75,0v4.16l6-5.15,3-2.57L30.29,22.22a1.88,1.88,0,0,1,2.11-3.11L54.56,34.18a1.92,1.92,0,0,1,.82,1.45A1.9,1.9,0,0,1,54.73,37.16Z"/><path class="cls-5" d="M41.48,39.47v4.16l-3.75,3.24v-7.4a1.88,1.88,0,1,1,3.75,0Z"/><path class="cls-6" d="M41.48,42v1.62l-3.75,3.24V45.25Z"/><path class="cls-7" d="M47.12,29.12l-3.34,2.27-5.62-3.82L41.5,25.3Z"/><path class="cls-5" d="M55.38,21.06a1.91,1.91,0,0,1-.82,1.45L32.4,37.58a1.87,1.87,0,0,1-2.11-3.1l20.14-13.7-7.34-6.33h0l-1.61-1.39v4.42a1.88,1.88,0,1,1-3.75,0V9a1.88,1.88,0,0,1,3.1-1.42l13.9,12A1.88,1.88,0,0,1,55.38,21.06Z"/><path class="cls-4" d="M41.48,13.06v4.42a1.88,1.88,0,1,1-3.75,0V9.82Z"/><path class="cls-7" d="M41.48,13.06v1.66l-3.75-3.24V9.82Z"/></g></g></svg>