<svg xmlns="http://www.w3.org/2000/svg" viewBox="0 0 595.28 121.13"><defs><style>.cls-1{fill:none;}.cls-2{fill:#8e4582;}.cls-3{fill:#b056a1;}.cls-4{fill:#c788bb;}.cls-5{isolation:isolate;}.cls-6{fill:#fff;}.cls-7{opacity:0.6;}.cls-8{fill:#010101;}.cls-9{fill:#dab4d4;}</style></defs><g id="Layer_2" data-name="Layer 2"><g id="Layer_1-2" data-name="Layer 1"><rect class="cls-1" width="595.28" height="18"/><path class="cls-2" d="M1,9A8,8,0,0,1,9,1h7l6,4h3l6-4H288.2V26H30.5l-6,4h-3l-6-4H9a8,8,0,0,1-8-8Z"/><path class="cls-3" d="M0,8A8,8,0,0,1,8,0h7l6,4h3l6-4H287.2V25H29.5l-6,4h-3l-6-4H8a8,8,0,0,1-8-8Z"/><path class="cls-4" d="M2.34,22.66A8,8,0,0,1,0,17V8H1v9A7,7,0,0,0,3.05,22ZM1,7.53,0,7.47A8,8,0,0,1,8,0h7.17l6,4h2.7l6-4H286.7V1H30.15l-6,4h-3.3l-6-4H8A7,7,0,0,0,1,7.53Z"/><g class="cls-5"><path class="cls-6" d="M11.32,17.5V6.82h4.29a4,4,0,0,1,2.54.73,2.5,2.5,0,0,1,.91,2.06,2.5,2.5,0,0,1-.5,1.57,2.71,2.71,0,0,1-1.39.9V12a2.6,2.6,0,0,1,1.58.88,2.64,2.64,0,0,1,.57,1.74,2.62,2.62,0,0,1-.94,2.16,4.07,4.07,0,0,1-2.62.75Zm1.22-5.94h2.88a2.91,2.91,0,0,0,1.82-.48,1.7,1.7,0,0,0,.61-1.41,1.61,1.61,0,0,0-.6-1.37,3,3,0,0,0-1.83-.46H12.54Zm0,4.92h3.11A2.94,2.94,0,0,0,17.51,16a1.73,1.73,0,0,0,.59-1.45,1.8,1.8,0,0,0-.6-1.47,2.88,2.88,0,0,0-1.85-.5H12.54Z"/><path class="cls-6" d="M21.38,17.5v-11H22.6v11Z"/><path class="cls-6" d="M27.62,17.61a2.61,2.61,0,0,1-2-.75,3.22,3.22,0,0,1-.68-2.22V10h1.21v4.65a2.24,2.24,0,0,0,.42,1.5,1.65,1.65,0,0,0,1.28.47,2.13,2.13,0,0,0,1.62-.64,2.4,2.4,0,0,0,.61-1.72V10h1.22V17.5H30.08V15.87l.18-.09a2.48,2.48,0,0,1-1,1.36A2.91,2.91,0,0,1,27.62,17.61Z"/><path class="cls-6" d="M39.79,16.6a3.34,3.34,0,0,1-1.27.73,4.74,4.74,0,0,1-1.58.28,4.16,4.16,0,0,1-2-.47,3.17,3.17,0,0,1-1.3-1.34,4.44,4.44,0,0,1-.46-2.09,4.47,4.47,0,0,1,.45-2.06,3.41,3.41,0,0,1,1.25-1.38,3.46,3.46,0,0,1,1.85-.49,3.2,3.2,0,0,1,1.73.44,2.8,2.8,0,0,1,1.1,1.27,4.6,4.6,0,0,1,.38,2v.22H34.23V12.9h5l-.39.55a3.19,3.19,0,0,0-.51-2,1.94,1.94,0,0,0-1.6-.7,2.11,2.11,0,0,0-1.72.77,3.36,3.36,0,0,0-.62,2.14A3.32,3.32,0,0,0,35,15.85,2.41,2.41,0,0,0,37,16.6a3.56,3.56,0,0,0,1.26-.22,4,4,0,0,0,1.16-.66Z"/><path class="cls-6" d="M40.66,10.92V10H45.5v1Zm4.81,5.5v1l-.5.11a4.43,4.43,0,0,1-.55,0A2.27,2.27,0,0,1,42.75,17a2.39,2.39,0,0,1-.62-1.79V8l1.21-.44V15a2,2,0,0,0,.18.93,1,1,0,0,0,.47.46,1.78,1.78,0,0,0,.67.13,2.54,2.54,0,0,0,.41,0Z"/><path class="cls-6" d="M50.09,17.61a3.6,3.6,0,0,1-1.88-.48A3.27,3.27,0,0,1,47,15.77a4.52,4.52,0,0,1-.44-2.08A4.51,4.51,0,0,1,47,11.62a3.3,3.3,0,0,1,1.24-1.37,3.69,3.69,0,0,1,1.88-.47,3.73,3.73,0,0,1,1.89.47,3.3,3.3,0,0,1,1.24,1.37,4.51,4.51,0,0,1,.44,2.07,4.52,4.52,0,0,1-.44,2.08A3.27,3.27,0,0,1,52,17.13,3.64,3.64,0,0,1,50.09,17.61Zm0-1a2.11,2.11,0,0,0,1.72-.74,3.34,3.34,0,0,0,.61-2.17,3.29,3.29,0,0,0-.62-2.14,2.32,2.32,0,0,0-3.42,0,3.23,3.23,0,0,0-.63,2.14,3.4,3.4,0,0,0,.61,2.17A2.13,2.13,0,0,0,50.09,16.6Z"/><path class="cls-6" d="M58.67,17.61a3.6,3.6,0,0,1-1.88-.48,3.27,3.27,0,0,1-1.24-1.36,4.52,4.52,0,0,1-.44-2.08,4.51,4.51,0,0,1,.44-2.07,3.3,3.3,0,0,1,1.24-1.37,3.69,3.69,0,0,1,1.88-.47,3.73,3.73,0,0,1,1.89.47,3.3,3.3,0,0,1,1.24,1.37,4.51,4.51,0,0,1,.44,2.07,4.52,4.52,0,0,1-.44,2.08,3.27,3.27,0,0,1-1.24,1.36A3.64,3.64,0,0,1,58.67,17.61Zm0-1a2.11,2.11,0,0,0,1.72-.74A3.34,3.34,0,0,0,61,13.69a3.23,3.23,0,0,0-.62-2.14,2.32,2.32,0,0,0-3.42,0,3.23,3.23,0,0,0-.62,2.14,3.4,3.4,0,0,0,.6,2.17A2.13,2.13,0,0,0,58.67,16.6Z"/><path class="cls-6" d="M63.05,10.92V10H67.9v1Zm4.82,5.5v1l-.5.11a4.58,4.58,0,0,1-.55,0A2.26,2.26,0,0,1,65.15,17a2.35,2.35,0,0,1-.62-1.79V8l1.21-.44V15a2.11,2.11,0,0,0,.17.93,1,1,0,0,0,.47.46,1.83,1.83,0,0,0,.68.13,2.41,2.41,0,0,0,.4,0Z"/><path class="cls-6" d="M69.37,17.5v-11h1.21v5l-.19.15a2.58,2.58,0,0,1,1-1.39,3,3,0,0,1,1.69-.47c1.81,0,2.72,1,2.72,3V17.5H74.63V12.82a2.34,2.34,0,0,0-.42-1.54,1.67,1.67,0,0,0-1.32-.48,2.24,2.24,0,0,0-1.68.64,2.38,2.38,0,0,0-.63,1.74V17.5Z"/><path class="cls-6" d="M82.06,17.5V12.07c0-.35,0-.7,0-1.06s-.05-.7-.1-1h1.15l.14,1.55-.15.11A2.56,2.56,0,0,1,84,10.25a2.68,2.68,0,0,1,1.58-.47,2.46,2.46,0,0,1,1.7.54A2.59,2.59,0,0,1,88.07,12l-.36-.2a2.55,2.55,0,0,1,1-1.45,2.87,2.87,0,0,1,1.75-.54,2.29,2.29,0,0,1,1.87.74,3.38,3.38,0,0,1,.63,2.24V17.5H91.72V12.82a2.54,2.54,0,0,0-.38-1.54,1.4,1.4,0,0,0-1.18-.48,1.84,1.84,0,0,0-1.49.64,2.61,2.61,0,0,0-.55,1.76v4.3H86.9V12.82a2.48,2.48,0,0,0-.38-1.54,1.42,1.42,0,0,0-1.19-.48,1.88,1.88,0,0,0-1.51.64,2.67,2.67,0,0,0-.55,1.76v4.3Z"/><path class="cls-6" d="M101.42,16.6a3.38,3.38,0,0,1-1.26.73,4.84,4.84,0,0,1-1.59.28,4.09,4.09,0,0,1-2-.47,3.19,3.19,0,0,1-1.31-1.34,4.57,4.57,0,0,1-.46-2.09,4.47,4.47,0,0,1,.45-2.06,3.37,3.37,0,0,1,1.26-1.38,3.43,3.43,0,0,1,1.85-.49,3.17,3.17,0,0,1,1.72.44,2.88,2.88,0,0,1,1.11,1.27,4.76,4.76,0,0,1,.38,2v.22h-5.7V12.9h5l-.39.55a3.13,3.13,0,0,0-.52-2,1.92,1.92,0,0,0-1.6-.7,2.08,2.08,0,0,0-1.71.77A3.31,3.31,0,0,0,96,13.63a3.27,3.27,0,0,0,.66,2.22,2.39,2.39,0,0,0,1.91.75,3.65,3.65,0,0,0,1.27-.22,4.11,4.11,0,0,0,1.16-.66Z"/><path class="cls-6" d="M110.05,17.5h-1.2v-2l.18.16a2.51,2.51,0,0,1-1,1.45,2.88,2.88,0,0,1-1.75.52,3.22,3.22,0,0,1-1.75-.49,3.33,3.33,0,0,1-1.18-1.38,4.86,4.86,0,0,1-.42-2.08,4.66,4.66,0,0,1,.42-2.05,3.17,3.17,0,0,1,1.17-1.36,3.28,3.28,0,0,1,1.76-.47,2.94,2.94,0,0,1,1.75.51,2.58,2.58,0,0,1,1,1.45l-.2.15V6.46h1.22Zm-3.51-.9a2,2,0,0,0,1.7-.76,3.32,3.32,0,0,0,.61-2.15,3.38,3.38,0,0,0-.6-2.14,2.06,2.06,0,0,0-1.71-.75,2.12,2.12,0,0,0-1.73.75,3.18,3.18,0,0,0-.63,2.11,3.36,3.36,0,0,0,.63,2.17A2.1,2.1,0,0,0,106.54,16.6Z"/><path class="cls-6" d="M112.28,6.76h1.49V8.14h-1.49Zm.12,10.74V10h1.22V17.5Z"/><path class="cls-6" d="M118.87,17.61a3.2,3.2,0,0,1-1.76-.48,3,3,0,0,1-1.17-1.35,4.7,4.7,0,0,1-.42-2.06,4.78,4.78,0,0,1,.42-2.07,3.33,3.33,0,0,1,1.18-1.38,3.14,3.14,0,0,1,1.75-.49,2.94,2.94,0,0,1,1.75.51,2.51,2.51,0,0,1,1,1.45l-.18.12V10h1.2V17.5h-1.2V15.55l.18.09a2.51,2.51,0,0,1-1,1.45A2.88,2.88,0,0,1,118.87,17.61Zm.24-1a2,2,0,0,0,1.71-.76,3.38,3.38,0,0,0,.6-2.15,3.29,3.29,0,0,0-.61-2.14,2.32,2.32,0,0,0-3.43,0,3.3,3.3,0,0,0-.63,2.15,3.22,3.22,0,0,0,.63,2.13A2.12,2.12,0,0,0,119.11,16.6Z"/><path class="cls-6" d="M132.05,17.61a3.7,3.7,0,0,1-1.92-.48,3.26,3.26,0,0,1-1.25-1.35,4.57,4.57,0,0,1-.44-2.06,4.5,4.5,0,0,1,.45-2.06,3.29,3.29,0,0,1,1.27-1.39,3.72,3.72,0,0,1,2-.49,4.12,4.12,0,0,1,1.48.26,3.22,3.22,0,0,1,1.18.72l-.41.91a4.9,4.9,0,0,0-1.08-.66,3,3,0,0,0-1.11-.21,2.25,2.25,0,0,0-1.8.76,3.16,3.16,0,0,0-.67,2.16,3.12,3.12,0,0,0,.66,2.13,2.28,2.28,0,0,0,1.81.75,2.84,2.84,0,0,0,1.1-.22,4.35,4.35,0,0,0,1.09-.65l.41.9a3.34,3.34,0,0,1-1.21.71A4.29,4.29,0,0,1,132.05,17.61Z"/><path class="cls-6" d="M139.43,17.61a3.6,3.6,0,0,1-1.88-.48,3.27,3.27,0,0,1-1.24-1.36,4.52,4.52,0,0,1-.45-2.08,4.51,4.51,0,0,1,.45-2.07,3.3,3.3,0,0,1,1.24-1.37,3.69,3.69,0,0,1,1.88-.47,3.73,3.73,0,0,1,1.89.47,3.3,3.3,0,0,1,1.24,1.37,4.51,4.51,0,0,1,.44,2.07,4.52,4.52,0,0,1-.44,2.08,3.27,3.27,0,0,1-1.24,1.36A3.64,3.64,0,0,1,139.43,17.61Zm0-1a2.11,2.11,0,0,0,1.72-.74,3.34,3.34,0,0,0,.61-2.17,3.29,3.29,0,0,0-.62-2.14,2.32,2.32,0,0,0-3.42,0,3.23,3.23,0,0,0-.63,2.14,3.4,3.4,0,0,0,.61,2.17A2.13,2.13,0,0,0,139.43,16.6Z"/><path class="cls-6" d="M144.89,17.5V12.07c0-.35,0-.7,0-1.06a9.32,9.32,0,0,0-.1-1h1.16l.13,1.55-.15.13A2.58,2.58,0,0,1,147,10.25a3,3,0,0,1,1.7-.47c1.81,0,2.71,1,2.71,3V17.5h-1.21V12.82a2.34,2.34,0,0,0-.42-1.54,1.67,1.67,0,0,0-1.32-.48,2.24,2.24,0,0,0-1.68.64,2.38,2.38,0,0,0-.63,1.74V17.5Z"/><path class="cls-6" d="M152.6,10.92V10h4.85v1Zm4.82,5.5v1l-.5.11a4.58,4.58,0,0,1-.55,0A2.26,2.26,0,0,1,154.7,17a2.35,2.35,0,0,1-.63-1.79V8l1.22-.44V15a2.11,2.11,0,0,0,.17.93,1,1,0,0,0,.47.46,1.83,1.83,0,0,0,.68.13,2.41,2.41,0,0,0,.4,0Z"/><path class="cls-6" d="M158.92,17.5V12.07c0-.35,0-.7,0-1.06s-.05-.7-.1-1H160l.17,1.86-.17-.05a2.36,2.36,0,0,1,.91-1.49,2.6,2.6,0,0,1,1.57-.5,2.23,2.23,0,0,1,.37,0,1.14,1.14,0,0,1,.32.07l0,1.11a2.45,2.45,0,0,0-.8-.12,1.92,1.92,0,0,0-1.94,1.22,3,3,0,0,0-.22,1.12v4.3Z"/><path class="cls-6" d="M167.32,17.61a3.58,3.58,0,0,1-1.88-.48,3.29,3.29,0,0,1-1.25-1.36,4.65,4.65,0,0,1-.44-2.08,4.64,4.64,0,0,1,.44-2.07,3.32,3.32,0,0,1,1.25-1.37,4,4,0,0,1,3.76,0,3.32,3.32,0,0,1,1.25,1.37,4.64,4.64,0,0,1,.44,2.07,4.65,4.65,0,0,1-.44,2.08,3.29,3.29,0,0,1-1.25,1.36A3.58,3.58,0,0,1,167.32,17.61Zm0-1a2.12,2.12,0,0,0,1.72-.74,3.4,3.4,0,0,0,.6-2.17,3.29,3.29,0,0,0-.61-2.14,2.09,2.09,0,0,0-1.71-.75,2.12,2.12,0,0,0-1.72.75,3.29,3.29,0,0,0-.62,2.14,3.34,3.34,0,0,0,.61,2.17A2.11,2.11,0,0,0,167.32,16.6Z"/><path class="cls-6" d="M172.78,17.5v-11H174v11Z"/></g><g class="cls-7"><rect class="cls-6" x="180.5" y="5" width="101.7" height="16" rx="4"/></g><g class="cls-5"><path class="cls-8" d="M186.67,20.74V12.07c0-.35,0-.7,0-1.06s-.05-.7-.1-1h1.16l.13,1.55-.12.23a2.5,2.5,0,0,1,1-1.45,2.94,2.94,0,0,1,1.75-.51,3.08,3.08,0,0,1,1.74.49,3.35,3.35,0,0,1,1.19,1.38,4.78,4.78,0,0,1,.43,2.07,4.7,4.7,0,0,1-.43,2.06,3.13,3.13,0,0,1-2.93,1.83,2.88,2.88,0,0,1-1.75-.52,2.5,2.5,0,0,1-1-1.45l.16-.15v5.25Zm3.54-4.14a2.09,2.09,0,0,0,1.71-.75,3.28,3.28,0,0,0,.62-2.13,3.36,3.36,0,0,0-.62-2.15,2,2,0,0,0-1.71-.77,2.09,2.09,0,0,0-1.73.75,3.41,3.41,0,0,0-.6,2.14,3.44,3.44,0,0,0,.6,2.15A2.07,2.07,0,0,0,190.21,16.6Z"/><path class="cls-8" d="M195.67,17.5v-11h1.21v11Z"/><path class="cls-8" d="M202.13,17.61a3.23,3.23,0,0,1-1.76-.48,3.11,3.11,0,0,1-1.17-1.35,4.85,4.85,0,0,1-.41-2.06,4.78,4.78,0,0,1,.42-2.07,3.26,3.26,0,0,1,1.18-1.38,3.08,3.08,0,0,1,1.74-.49,3,3,0,0,1,1.76.51,2.5,2.5,0,0,1,1,1.45l-.17.12V10h1.19V17.5h-1.19V15.55l.17.09a2.5,2.5,0,0,1-1,1.45A2.91,2.91,0,0,1,202.13,17.61Zm.25-1a2.07,2.07,0,0,0,1.71-.76,3.44,3.44,0,0,0,.6-2.15,3.35,3.35,0,0,0-.61-2.14,2.33,2.33,0,0,0-3.44,0,3.36,3.36,0,0,0-.62,2.15,3.28,3.28,0,0,0,.62,2.13A2.14,2.14,0,0,0,202.38,16.6Z"/><path class="cls-8" d="M210.64,17.89,207.25,10h1.28l2.72,6.66Zm-2.76,3-.25-.95a7.18,7.18,0,0,0,1.16-.38,2.43,2.43,0,0,0,.79-.57,3,3,0,0,0,.57-.91l.48-1.11.27-.37L213.65,10h1.22l-3.53,8.23a5.15,5.15,0,0,1-.91,1.46,3.44,3.44,0,0,1-1.15.84A6.37,6.37,0,0,1,207.88,20.91Z"/><path class="cls-8" d="M215.39,18.33h-1.11l3.86-12.07h1.12Z"/><path class="cls-8" d="M219.16,20.74V12.07c0-.35,0-.7,0-1.06s0-.7-.1-1h1.15l.14,1.55-.12.23a2.5,2.5,0,0,1,1-1.45,2.93,2.93,0,0,1,1.74-.51,3.09,3.09,0,0,1,1.75.49,3.35,3.35,0,0,1,1.19,1.38,4.78,4.78,0,0,1,.42,2.07,4.7,4.7,0,0,1-.42,2.06,3.13,3.13,0,0,1-2.94,1.83,2.87,2.87,0,0,1-1.74-.52,2.5,2.5,0,0,1-1-1.45l.16-.15v5.25Zm3.54-4.14a2.09,2.09,0,0,0,1.71-.75,3.28,3.28,0,0,0,.62-2.13,3.36,3.36,0,0,0-.62-2.15,2,2,0,0,0-1.71-.77,2.09,2.09,0,0,0-1.73.75,3.35,3.35,0,0,0-.6,2.14,3.38,3.38,0,0,0,.6,2.15A2.07,2.07,0,0,0,222.7,16.6Z"/><path class="cls-8" d="M231.05,17.61a3.23,3.23,0,0,1-1.76-.48,3.11,3.11,0,0,1-1.17-1.35,4.85,4.85,0,0,1-.41-2.06,4.78,4.78,0,0,1,.42-2.07,3.26,3.26,0,0,1,1.18-1.38,3.08,3.08,0,0,1,1.74-.49,3,3,0,0,1,1.76.51,2.5,2.5,0,0,1,1,1.45l-.18.12V10h1.2V17.5h-1.2V15.55l.18.09a2.5,2.5,0,0,1-1,1.45A2.91,2.91,0,0,1,231.05,17.61Zm.24-1a2,2,0,0,0,1.71-.76,3.38,3.38,0,0,0,.6-2.15,3.35,3.35,0,0,0-.6-2.14,2.33,2.33,0,0,0-3.44,0,3.36,3.36,0,0,0-.62,2.15,3.28,3.28,0,0,0,.62,2.13A2.13,2.13,0,0,0,231.29,16.6Z"/><path class="cls-8" d="M239.83,17.61a2.6,2.6,0,0,1-2-.75,3.17,3.17,0,0,1-.69-2.22V10h1.22v4.65a2.24,2.24,0,0,0,.42,1.5,1.62,1.62,0,0,0,1.27.47,2.13,2.13,0,0,0,1.62-.64,2.4,2.4,0,0,0,.62-1.72V10h1.21V17.5h-1.18V15.87l.18-.09a2.53,2.53,0,0,1-1,1.36A2.93,2.93,0,0,1,239.83,17.61Z"/><path class="cls-8" d="M248.36,17.61a4.4,4.4,0,0,1-3-1l.4-.9a4.23,4.23,0,0,0,1.24.68,4.27,4.27,0,0,0,1.42.22,2.43,2.43,0,0,0,1.3-.29,1,1,0,0,0,.44-.85.89.89,0,0,0-.3-.71,2.3,2.3,0,0,0-1-.43l-1.28-.3a2.82,2.82,0,0,1-1.46-.75A1.82,1.82,0,0,1,245.6,12a1.93,1.93,0,0,1,.36-1.16,2.37,2.37,0,0,1,1-.79,3.77,3.77,0,0,1,1.53-.28A4.37,4.37,0,0,1,250,10a3.28,3.28,0,0,1,1.18.73l-.4.89a4.17,4.17,0,0,0-1.1-.67,3.38,3.38,0,0,0-1.18-.22,2.12,2.12,0,0,0-1.25.32,1.07,1.07,0,0,0-.17,1.59,1.94,1.94,0,0,0,.89.42l1.28.32a3,3,0,0,1,1.57.74,1.81,1.81,0,0,1,.5,1.31,1.85,1.85,0,0,1-.8,1.56A3.57,3.57,0,0,1,248.36,17.61Z"/><path class="cls-8" d="M259.43,16.6a3.38,3.38,0,0,1-1.26.73,4.84,4.84,0,0,1-1.59.28,4.09,4.09,0,0,1-2-.47,3.19,3.19,0,0,1-1.31-1.34,4.57,4.57,0,0,1-.46-2.09,4.47,4.47,0,0,1,.45-2.06,3.37,3.37,0,0,1,1.26-1.38,3.43,3.43,0,0,1,1.85-.49,3.17,3.17,0,0,1,1.72.44,2.88,2.88,0,0,1,1.11,1.27,4.76,4.76,0,0,1,.38,2v.22h-5.7V12.9h5l-.39.55a3.13,3.13,0,0,0-.52-2,1.92,1.92,0,0,0-1.6-.7,2.08,2.08,0,0,0-1.71.77,3.31,3.31,0,0,0-.63,2.14,3.27,3.27,0,0,0,.66,2.22,2.39,2.39,0,0,0,1.91.75,3.65,3.65,0,0,0,1.27-.22,4.11,4.11,0,0,0,1.16-.66Z"/></g><polygon class="cls-8" points="273.22 17.31 278.2 8.69 268.24 8.69 273.22 17.31"/><rect class="cls-9" x="180.5" y="31.88" width="103.35" height="89.25" rx="5.67"/><g class="cls-5"><path class="cls-8" d="M186.07,48V39.32c0-.35,0-.7,0-1.06a9.32,9.32,0,0,0-.1-1h1.16l.13,1.56-.12.22a2.51,2.51,0,0,1,1-1.45,2.93,2.93,0,0,1,1.74-.51,3.14,3.14,0,0,1,1.75.49,3.33,3.33,0,0,1,1.18,1.38A4.64,4.64,0,0,1,193.2,41a4.57,4.57,0,0,1-.43,2.06,3.21,3.21,0,0,1-1.18,1.36,3.25,3.25,0,0,1-1.75.47,2.93,2.93,0,0,1-1.74-.51,2.54,2.54,0,0,1-1-1.46l.17-.15V48Zm3.54-4.14a2.09,2.09,0,0,0,1.71-.75,3.28,3.28,0,0,0,.62-2.13,3.36,3.36,0,0,0-.62-2.15,2.32,2.32,0,0,0-3.43,0,3.35,3.35,0,0,0-.6,2.14,3.38,3.38,0,0,0,.6,2.15A2,2,0,0,0,189.61,43.85Z"/><path class="cls-8" d="M195.07,44.75v-11h1.22v11Z"/><path class="cls-8" d="M201.54,44.86a3.28,3.28,0,0,1-1.76-.47A3.06,3.06,0,0,1,198.61,43a4.7,4.7,0,0,1-.42-2.06,4.78,4.78,0,0,1,.42-2.07,3.33,3.33,0,0,1,1.18-1.38,3.14,3.14,0,0,1,1.75-.49,2.94,2.94,0,0,1,1.75.51,2.51,2.51,0,0,1,1,1.45l-.18.12v-1.9h1.2v7.54h-1.2v-2l.18.09a2.54,2.54,0,0,1-1,1.46A2.94,2.94,0,0,1,201.54,44.86Zm.24-1a2,2,0,0,0,1.71-.76,3.38,3.38,0,0,0,.6-2.15,3.29,3.29,0,0,0-.61-2.14,2.06,2.06,0,0,0-1.7-.75,2.1,2.1,0,0,0-1.73.77,3.3,3.3,0,0,0-.63,2.15,3.22,3.22,0,0,0,.63,2.13A2.12,2.12,0,0,0,201.78,43.85Z"/><path class="cls-8" d="M210,45.14l-3.39-7.93h1.28l2.73,6.66Zm-2.76,3-.25-.95a5.84,5.84,0,0,0,1.16-.38,2.61,2.61,0,0,0,.8-.56,3.21,3.21,0,0,0,.56-.92l.48-1.11.27-.37,2.76-6.66h1.21l-3.52,8.23a5.38,5.38,0,0,1-.92,1.47,3.63,3.63,0,0,1-1.14.83A6.1,6.1,0,0,1,207.28,48.16Z"/><path class="cls-8" d="M214.8,45.58h-1.11l3.85-12.06h1.13Z"/><path class="cls-8" d="M218.56,48V39.32c0-.35,0-.7,0-1.06a9.32,9.32,0,0,0-.1-1h1.16l.13,1.56-.12.22a2.51,2.51,0,0,1,1-1.45,2.93,2.93,0,0,1,1.74-.51,3.14,3.14,0,0,1,1.75.49,3.33,3.33,0,0,1,1.18,1.38,4.64,4.64,0,0,1,.43,2.07,4.57,4.57,0,0,1-.43,2.06,3.21,3.21,0,0,1-1.18,1.36,3.25,3.25,0,0,1-1.75.47,2.93,2.93,0,0,1-1.74-.51,2.54,2.54,0,0,1-1-1.46l.17-.15V48Zm3.54-4.14a2.09,2.09,0,0,0,1.71-.75,3.28,3.28,0,0,0,.62-2.13,3.36,3.36,0,0,0-.62-2.15,2.32,2.32,0,0,0-3.43,0,3.35,3.35,0,0,0-.6,2.14,3.38,3.38,0,0,0,.6,2.15A2,2,0,0,0,222.1,43.85Z"/><path class="cls-8" d="M230.46,44.86a3.28,3.28,0,0,1-1.76-.47A3.06,3.06,0,0,1,227.53,43a4.7,4.7,0,0,1-.42-2.06,4.78,4.78,0,0,1,.42-2.07,3.33,3.33,0,0,1,1.18-1.38,3.14,3.14,0,0,1,1.75-.49,2.94,2.94,0,0,1,1.75.51,2.51,2.51,0,0,1,1,1.45l-.18.12v-1.9h1.2v7.54H233v-2l.18.09a2.54,2.54,0,0,1-1,1.46A2.94,2.94,0,0,1,230.46,44.86Zm.24-1a2,2,0,0,0,1.71-.76,3.38,3.38,0,0,0,.6-2.15,3.29,3.29,0,0,0-.61-2.14,2.06,2.06,0,0,0-1.7-.75,2.1,2.1,0,0,0-1.73.77,3.3,3.3,0,0,0-.63,2.15A3.22,3.22,0,0,0,229,43.1,2.12,2.12,0,0,0,230.7,43.85Z"/><path class="cls-8" d="M239.23,44.86a2.61,2.61,0,0,1-2-.75,3.22,3.22,0,0,1-.68-2.22V37.21h1.21v4.65a2.24,2.24,0,0,0,.42,1.5,1.62,1.62,0,0,0,1.28.48,2.14,2.14,0,0,0,1.62-.65,2.38,2.38,0,0,0,.61-1.72V37.21h1.22v7.54h-1.19V43.12l.18-.09a2.48,2.48,0,0,1-1,1.36A2.91,2.91,0,0,1,239.23,44.86Z"/><path class="cls-8" d="M247.77,44.86a4.42,4.42,0,0,1-3-1l.41-.9a4.37,4.37,0,0,0,1.24.69,4.44,4.44,0,0,0,1.41.21,2.41,2.41,0,0,0,1.3-.29.94.94,0,0,0,.44-.85.89.89,0,0,0-.3-.71,2.3,2.3,0,0,0-1-.43L247,41.3a2.78,2.78,0,0,1-1.46-.75,1.78,1.78,0,0,1-.52-1.29,1.93,1.93,0,0,1,.36-1.16,2.34,2.34,0,0,1,1-.79A3.77,3.77,0,0,1,247.9,37a4.37,4.37,0,0,1,1.5.25,3.21,3.21,0,0,1,1.19.74l-.41.88a3.74,3.74,0,0,0-1.1-.66A3.13,3.13,0,0,0,247.9,38a2.14,2.14,0,0,0-1.25.31,1,1,0,0,0-.44.86,1,1,0,0,0,.28.73,1.89,1.89,0,0,0,.89.42l1.27.32a3,3,0,0,1,1.57.74,1.79,1.79,0,0,1,.5,1.31,1.84,1.84,0,0,1-.79,1.56A3.57,3.57,0,0,1,247.77,44.86Z"/><path class="cls-8" d="M258.84,43.85a3.49,3.49,0,0,1-1.27.74,4.73,4.73,0,0,1-1.58.27,4.16,4.16,0,0,1-2-.47,3.12,3.12,0,0,1-1.3-1.34,4.39,4.39,0,0,1-.46-2.09,4.5,4.5,0,0,1,.45-2.06,3.41,3.41,0,0,1,1.25-1.38,3.46,3.46,0,0,1,1.85-.49,3.2,3.2,0,0,1,1.73.44,2.8,2.8,0,0,1,1.1,1.27,4.6,4.6,0,0,1,.38,2v.22h-5.7v-.79h5l-.39.55a3.14,3.14,0,0,0-.51-2,1.91,1.91,0,0,0-1.6-.71,2.09,2.09,0,0,0-1.72.78,3.31,3.31,0,0,0-.62,2.13,3.32,3.32,0,0,0,.65,2.22,2.4,2.4,0,0,0,1.91.75,3.85,3.85,0,0,0,1.27-.21,4,4,0,0,0,1.16-.67Z"/><path class="cls-8" d="M186.07,62.75V57.32c0-.35,0-.7,0-1.06a9.32,9.32,0,0,0-.1-1h1.16l.13,1.56-.15.12a2.61,2.61,0,0,1,1-1.39,3,3,0,0,1,1.7-.47c1.81,0,2.71,1,2.71,3v4.74h-1.21V58.07a2.34,2.34,0,0,0-.42-1.54,1.67,1.67,0,0,0-1.32-.48,2.24,2.24,0,0,0-1.68.64,2.38,2.38,0,0,0-.63,1.74v4.32Z"/><path class="cls-8" d="M201,61.85a3.49,3.49,0,0,1-1.27.74,4.73,4.73,0,0,1-1.58.27,4.16,4.16,0,0,1-2-.47,3.12,3.12,0,0,1-1.3-1.34A4.39,4.39,0,0,1,194.4,59a4.5,4.5,0,0,1,.45-2.06,3.41,3.41,0,0,1,1.25-1.38A3.46,3.46,0,0,1,198,55a3.2,3.2,0,0,1,1.73.44,2.8,2.8,0,0,1,1.1,1.27,4.6,4.6,0,0,1,.38,2v.22h-5.7v-.79h5l-.39.55a3.14,3.14,0,0,0-.51-2A1.91,1.91,0,0,0,198,56a2.09,2.09,0,0,0-1.72.78,4,4,0,0,0,0,4.35,2.4,2.4,0,0,0,1.91.75,3.85,3.85,0,0,0,1.27-.21,4,4,0,0,0,1.16-.67Z"/><path class="cls-8" d="M203.38,62.75H201.9L205,58.87l.71-.89,2.19-2.77h1.48l-2.94,3.66-.73.91Zm4.74,0-2.38-3-.71-.91-2.95-3.66h1.47L205.74,58l.73.89,3.11,3.88Z"/><path class="cls-8" d="M209.86,56.17v-1h4.85v1Zm4.82,5.5v1a5,5,0,0,1-.5.11,4.58,4.58,0,0,1-.55,0,2.29,2.29,0,0,1-1.67-.6,2.37,2.37,0,0,1-.63-1.8V53.27l1.22-.43v7.45a2.11,2.11,0,0,0,.17.93,1,1,0,0,0,.47.46,1.83,1.83,0,0,0,.68.13,2.41,2.41,0,0,0,.4,0A2.83,2.83,0,0,0,214.68,61.67Z"/><path class="cls-8" d="M186.07,84V75.32c0-.35,0-.7,0-1.06a9.32,9.32,0,0,0-.1-1.05h1.16l.13,1.56-.12.22a2.51,2.51,0,0,1,1-1.45,2.93,2.93,0,0,1,1.74-.51,3.14,3.14,0,0,1,1.75.49,3.33,3.33,0,0,1,1.18,1.38A4.64,4.64,0,0,1,193.2,77a4.57,4.57,0,0,1-.43,2.06,3.21,3.21,0,0,1-1.18,1.36,3.25,3.25,0,0,1-1.75.47,2.93,2.93,0,0,1-1.74-.51,2.54,2.54,0,0,1-1-1.46l.17-.15V84Zm3.54-4.14a2.09,2.09,0,0,0,1.71-.75,3.28,3.28,0,0,0,.62-2.13,3.36,3.36,0,0,0-.62-2.15,2.32,2.32,0,0,0-3.43,0,4.13,4.13,0,0,0,0,4.29A2,2,0,0,0,189.61,79.85Z"/><path class="cls-8" d="M195.07,80.75V75.32c0-.35,0-.7,0-1.06a9.32,9.32,0,0,0-.1-1.05h1.16l.16,1.86-.16,0a2.32,2.32,0,0,1,.91-1.49,2.55,2.55,0,0,1,1.56-.5,2.17,2.17,0,0,1,.37,0l.32.07,0,1.11a2.39,2.39,0,0,0-.79-.12,2.06,2.06,0,0,0-1.25.34,2,2,0,0,0-.69.88,2.83,2.83,0,0,0-.22,1.12v4.3Z"/><path class="cls-8" d="M206.53,79.85a3.53,3.53,0,0,1-1.26.74,4.83,4.83,0,0,1-1.59.27,4.09,4.09,0,0,1-2-.47,3.14,3.14,0,0,1-1.31-1.34,5,5,0,0,1,0-4.15,3.37,3.37,0,0,1,1.26-1.38,3.43,3.43,0,0,1,1.85-.49,3.17,3.17,0,0,1,1.72.44,2.88,2.88,0,0,1,1.11,1.27,4.76,4.76,0,0,1,.38,2v.22H201v-.79h5l-.39.55a3.08,3.08,0,0,0-.52-2,1.9,1.9,0,0,0-1.6-.71,2.06,2.06,0,0,0-1.71.78,4,4,0,0,0,0,4.35,2.39,2.39,0,0,0,1.91.75,3.89,3.89,0,0,0,1.27-.21,4.15,4.15,0,0,0,1.16-.67Z"/><path class="cls-8" d="M210.64,80.75l-3.21-7.53h1.28l2.73,6.65h-.36l2.76-6.65h1.21l-3.25,7.53Z"/><path class="cls-8" d="M216.27,70h1.48v1.38h-1.48Zm.12,10.74V73.21h1.21v7.54Z"/><path class="cls-8" d="M223.08,80.86a3.58,3.58,0,0,1-1.88-.48A3.29,3.29,0,0,1,220,79a5.11,5.11,0,0,1,0-4.15,3.23,3.23,0,0,1,1.25-1.36,3.92,3.92,0,0,1,3.76,0,3.23,3.23,0,0,1,1.25,1.36,5.11,5.11,0,0,1,0,4.15A3.29,3.29,0,0,1,225,80.38,3.58,3.58,0,0,1,223.08,80.86Zm0-1a2.12,2.12,0,0,0,1.72-.74,3.4,3.4,0,0,0,.6-2.17,3.29,3.29,0,0,0-.61-2.14,2.09,2.09,0,0,0-1.71-.75,2.12,2.12,0,0,0-1.72.75,3.29,3.29,0,0,0-.62,2.14,3.34,3.34,0,0,0,.61,2.17A2.11,2.11,0,0,0,223.08,79.85Z"/><path class="cls-8" d="M231.21,80.86a2.6,2.6,0,0,1-2-.75,3.17,3.17,0,0,1-.69-2.22V73.21h1.22v4.65a2.24,2.24,0,0,0,.42,1.5,1.59,1.59,0,0,0,1.27.48,2.14,2.14,0,0,0,1.62-.65,2.39,2.39,0,0,0,.62-1.72V73.21h1.21v7.54h-1.18V79.12l.18-.09a2.53,2.53,0,0,1-1,1.36A2.93,2.93,0,0,1,231.21,80.86Z"/><path class="cls-8" d="M239.74,80.86a4.4,4.4,0,0,1-3-1l.4-.9a4,4,0,0,0,2.66.9,2.43,2.43,0,0,0,1.3-.29,1,1,0,0,0,.44-.85.89.89,0,0,0-.3-.71,2.3,2.3,0,0,0-1-.43L239,77.3a2.82,2.82,0,0,1-1.46-.75,1.82,1.82,0,0,1-.52-1.29,1.93,1.93,0,0,1,.36-1.16,2.37,2.37,0,0,1,1-.79,3.77,3.77,0,0,1,1.53-.28,4.37,4.37,0,0,1,1.5.25,3.16,3.16,0,0,1,1.18.74l-.4.88a3.87,3.87,0,0,0-1.1-.66,3.17,3.17,0,0,0-1.18-.22,2.12,2.12,0,0,0-1.25.31,1,1,0,0,0-.45.86,1,1,0,0,0,.28.73,1.94,1.94,0,0,0,.89.42l1.28.32a3.07,3.07,0,0,1,1.57.74,1.94,1.94,0,0,1-.3,2.87A3.57,3.57,0,0,1,239.74,80.86Z"/><path class="cls-8" d="M188.29,98.75l-3.21-7.53h1.28l2.73,6.65h-.36l2.76-6.65h1.21l-3.25,7.53Z"/><path class="cls-8" d="M197.07,98.86a3.58,3.58,0,0,1-1.88-.48A3.29,3.29,0,0,1,193.94,97a5.11,5.11,0,0,1,0-4.15,3.23,3.23,0,0,1,1.25-1.36,3.92,3.92,0,0,1,3.76,0,3.23,3.23,0,0,1,1.25,1.36,5.11,5.11,0,0,1,0,4.15A3.29,3.29,0,0,1,199,98.38,3.58,3.58,0,0,1,197.07,98.86Zm0-1a2.12,2.12,0,0,0,1.72-.74,3.4,3.4,0,0,0,.6-2.17,3.29,3.29,0,0,0-.61-2.14,2.09,2.09,0,0,0-1.71-.75,2.12,2.12,0,0,0-1.72.75,3.29,3.29,0,0,0-.62,2.14,3.34,3.34,0,0,0,.61,2.17A2.11,2.11,0,0,0,197.07,97.85Z"/><path class="cls-8" d="M202.53,98.75v-11h1.21v11Z"/><path class="cls-8" d="M208.77,98.86a2.6,2.6,0,0,1-2-.75,3.17,3.17,0,0,1-.69-2.22V91.21h1.22v4.65a2.24,2.24,0,0,0,.42,1.5,1.59,1.59,0,0,0,1.27.48,2.14,2.14,0,0,0,1.62-.65,2.39,2.39,0,0,0,.62-1.72V91.21h1.21v7.54h-1.18V97.12l.18-.09a2.53,2.53,0,0,1-1,1.36A2.93,2.93,0,0,1,208.77,98.86Z"/><path class="cls-8" d="M214.75,98.75V93.32c0-.35,0-.7,0-1.06a9.32,9.32,0,0,0-.1-1.05h1.16l.13,1.56-.15.1a2.55,2.55,0,0,1,.94-1.36,2.64,2.64,0,0,1,1.58-.48,2.51,2.51,0,0,1,1.71.54,2.67,2.67,0,0,1,.77,1.65l-.36-.2a2.53,2.53,0,0,1,1-1.45,2.82,2.82,0,0,1,1.74-.54,2.32,2.32,0,0,1,1.88.74,3.38,3.38,0,0,1,.63,2.24v4.74h-1.22V94.07a2.55,2.55,0,0,0-.37-1.54,1.42,1.42,0,0,0-1.19-.48,1.85,1.85,0,0,0-1.49.64,2.67,2.67,0,0,0-.55,1.76v4.3H219.6V94.07a2.54,2.54,0,0,0-.38-1.54,1.46,1.46,0,0,0-1.2-.48,1.85,1.85,0,0,0-1.5.64,2.61,2.61,0,0,0-.55,1.76v4.3Z"/><path class="cls-8" d="M234.12,97.85a3.49,3.49,0,0,1-1.27.74,4.73,4.73,0,0,1-1.58.27,4.16,4.16,0,0,1-2-.47,3.12,3.12,0,0,1-1.3-1.34,4.39,4.39,0,0,1-.46-2.09,4.5,4.5,0,0,1,.45-2.06,3.41,3.41,0,0,1,1.25-1.38A3.46,3.46,0,0,1,231,91a3.2,3.2,0,0,1,1.73.44,2.8,2.8,0,0,1,1.1,1.27,4.6,4.6,0,0,1,.38,2v.22h-5.7v-.79h5l-.39.55a3.14,3.14,0,0,0-.51-2,1.91,1.91,0,0,0-1.6-.71,2.09,2.09,0,0,0-1.72.78,4,4,0,0,0,0,4.35,2.4,2.4,0,0,0,1.91.75,3.85,3.85,0,0,0,1.27-.21,4,4,0,0,0,1.16-.67Z"/><path class="cls-8" d="M247,94v.94h-7.38V94Zm-4.15-3.23h.93v7.4h-.93Z"/><path class="cls-8" d="M188.29,116.75l-3.21-7.53h1.28l2.73,6.65h-.36l2.76-6.65h1.21l-3.25,7.53Z"/><path class="cls-8" d="M197.07,116.86a3.58,3.58,0,0,1-1.88-.48,3.29,3.29,0,0,1-1.25-1.36,5.11,5.11,0,0,1,0-4.15,3.23,3.23,0,0,1,1.25-1.36,3.92,3.92,0,0,1,3.76,0,3.23,3.23,0,0,1,1.25,1.36,5.11,5.11,0,0,1,0,4.15,3.29,3.29,0,0,1-1.25,1.36A3.58,3.58,0,0,1,197.07,116.86Zm0-1a2.12,2.12,0,0,0,1.72-.74,3.4,3.4,0,0,0,.6-2.17,3.29,3.29,0,0,0-.61-2.14,2.09,2.09,0,0,0-1.71-.75,2.12,2.12,0,0,0-1.72.75,3.29,3.29,0,0,0-.62,2.14,3.34,3.34,0,0,0,.61,2.17A2.11,2.11,0,0,0,197.07,115.85Z"/><path class="cls-8" d="M202.53,116.75v-11h1.21v11Z"/><path class="cls-8" d="M208.77,116.86a2.6,2.6,0,0,1-2-.75,3.17,3.17,0,0,1-.69-2.22v-4.68h1.22v4.65a2.24,2.24,0,0,0,.42,1.5,1.59,1.59,0,0,0,1.27.48,2.14,2.14,0,0,0,1.62-.65,2.39,2.39,0,0,0,.62-1.72v-4.26h1.21v7.54h-1.18v-1.63l.18-.09a2.53,2.53,0,0,1-1,1.36A2.93,2.93,0,0,1,208.77,116.86Z"/><path class="cls-8" d="M214.75,116.75v-5.43c0-.35,0-.7,0-1.06a9.32,9.32,0,0,0-.1-1.05h1.16l.13,1.56-.15.1a2.55,2.55,0,0,1,.94-1.36,2.64,2.64,0,0,1,1.58-.48,2.51,2.51,0,0,1,1.71.54,2.67,2.67,0,0,1,.77,1.65l-.36-.2a2.53,2.53,0,0,1,1-1.45,2.82,2.82,0,0,1,1.74-.54,2.32,2.32,0,0,1,1.88.74,3.38,3.38,0,0,1,.63,2.24v4.74h-1.22v-4.68a2.55,2.55,0,0,0-.37-1.54,1.42,1.42,0,0,0-1.19-.48,1.85,1.85,0,0,0-1.49.64,2.67,2.67,0,0,0-.55,1.76v4.3H219.6v-4.68a2.54,2.54,0,0,0-.38-1.54,1.46,1.46,0,0,0-1.2-.48,1.85,1.85,0,0,0-1.5.64,2.61,2.61,0,0,0-.55,1.76v4.3Z"/><path class="cls-8" d="M234.12,115.85a3.49,3.49,0,0,1-1.27.74,4.73,4.73,0,0,1-1.58.27,4.16,4.16,0,0,1-2-.47,3.12,3.12,0,0,1-1.3-1.34,4.39,4.39,0,0,1-.46-2.09,4.5,4.5,0,0,1,.45-2.06,3.41,3.41,0,0,1,1.25-1.38A3.46,3.46,0,0,1,231,109a3.2,3.2,0,0,1,1.73.44,2.8,2.8,0,0,1,1.1,1.27,4.6,4.6,0,0,1,.38,2v.22h-5.7v-.79h5l-.39.55a3.14,3.14,0,0,0-.51-2,1.91,1.91,0,0,0-1.6-.71,2.09,2.09,0,0,0-1.72.78,4,4,0,0,0,0,4.35,2.4,2.4,0,0,0,1.91.75,3.85,3.85,0,0,0,1.27-.21,4,4,0,0,0,1.16-.67Z"/><path class="cls-8" d="M239.94,113.23v-1h4.24v1Z"/></g><polygon class="cls-8" points="273.22 44.56 278.2 35.94 268.24 35.94 273.22 44.56"/></g></g></svg>