<svg xmlns="http://www.w3.org/2000/svg" viewBox="0 0 595.4 26"><defs><style>.cls-1,.cls-4{fill:none;}.cls-2{fill:#8e4582;}.cls-3{fill:#b056a1;}.cls-4{stroke:#c788bb;}.cls-5{isolation:isolate;font-size:15px;fill:#fff;font-family:Mulish-Regular, Mulish;}.cls-6{letter-spacing:0em;}.cls-7{letter-spacing:0em;}.cls-8{letter-spacing:0em;}.cls-9{letter-spacing:-0.01em;}.cls-10{letter-spacing:0em;}.cls-11{letter-spacing:-0.01em;}.cls-12{letter-spacing:-0.01em;}</style></defs><g id="Layer_2" data-name="Layer 2"><g id="Layer_1-2" data-name="Layer 1"><rect class="cls-1" x="0.12" width="595.28" height="18"/><path class="cls-2" d="M9.12,1H174.64V26H9.12V21c0-10-8,8-8-7.5s8,2.5,8-7.5Z"/><path class="cls-3" d="M8.12,0H173.64V25H8.12V20c0-10-8,8-8-7.5s8,2.5,8-7.5Z"/><path class="cls-4" d="M8.62.5h19m0,0H173.14M8.62,24.5v-6M1.26,18a20.35,20.35,0,0,1,0-11M8.62,8V.5h.5"/><text class="cls-5" transform="translate(18.12 17.5)">Blu<tspan class="cls-6" x="22.44" y="0">e</tspan><tspan x="30.55" y="0">to</tspan><tspan class="cls-7" x="44.38" y="0">o</tspan><tspan class="cls-8" x="52.95" y="0">th </tspan><tspan class="cls-9" x="70.89" y="0">r</tspan><tspan class="cls-10" x="76.17" y="0">ecei</tspan><tspan class="cls-11" x="103.48" y="0">v</tspan><tspan class="cls-10" x="111.36" y="0">e t</tspan><tspan class="cls-12" x="128.68" y="0">e</tspan><tspan x="136.74" y="0">xt</tspan></text></g></g></svg>