<svg xmlns="http://www.w3.org/2000/svg" viewBox="0 0 595.39 149.84"><defs><style>.cls-1{fill:none;}.cls-2{fill:#3d867a;}.cls-3{fill:#4ba697;}.cls-4{fill:#82c1b6;}.cls-5{opacity:0.6;}.cls-6{fill:#fff;}.cls-7{isolation:isolate;}.cls-8{fill:#010101;}.cls-9{fill:#b2d5c7;}</style></defs><g id="Layer_2" data-name="Layer 2"><g id="Layer_1-2" data-name="Layer 1"><rect class="cls-1" x="0.12" width="595.28" height="18"/><path class="cls-2" d="M9.12,1H325V36H9.12V21c0-10-8,8-8-7.5s8,2.5,8-7.5ZM151.67,6h-14.5v5c0,10-8-8-8,7.5s8-2.5,8,7.5v6h14.5Z"/><path class="cls-3" d="M8.12,0H324V35H8.12V20c0-10-8,8-8-7.5s8,2.5,8-7.5ZM150.67,5h-14.5v5c0,10-8-8-8,7.5s8-2.5,8,7.5v6h14.5Z"/><path class="cls-4" d="M9.12,34.5h-1v-16h1ZM151.67,32h-15V31h14V5.5h1Zm-20.36-7.26-.49-.87,3.68-2.1.49.86ZM.77,18.13a20.9,20.9,0,0,1,0-11.26l1,.26a19.79,19.79,0,0,0,0,10.74ZM9.12,8h-1V0H323.45V1H9.12Z"/><g class="cls-5"><rect class="cls-6" x="13.12" y="10" width="48.93" height="16" rx="4"/></g><g class="cls-7"><path class="cls-8" d="M22.83,22.62a8.43,8.43,0,0,1-1.55-.14A5.63,5.63,0,0,1,20,22a5.07,5.07,0,0,1-1.11-.76l.46-.94a5.44,5.44,0,0,0,1.63,1,6.06,6.06,0,0,0,1.91.28,3.41,3.41,0,0,0,2-.5,1.65,1.65,0,0,0,.71-1.42,1.15,1.15,0,0,0-.36-.89,2.33,2.33,0,0,0-1-.54c-.4-.14-.86-.26-1.37-.39a14.58,14.58,0,0,1-1.45-.38,5.78,5.78,0,0,1-1.23-.54,2.47,2.47,0,0,1-.83-.84,2.5,2.5,0,0,1-.3-1.28,2.76,2.76,0,0,1,.48-1.61,3.13,3.13,0,0,1,1.35-1.09,5,5,0,0,1,2.06-.39,5.92,5.92,0,0,1,1.41.16,5.18,5.18,0,0,1,1.25.46,4.46,4.46,0,0,1,1,.73l-.48.95a5.11,5.11,0,0,0-1.52-.95,4.66,4.66,0,0,0-1.69-.3,3.14,3.14,0,0,0-2,.53,1.72,1.72,0,0,0-.71,1.47,1.39,1.39,0,0,0,.32.94,2.22,2.22,0,0,0,.88.58c.38.14.82.27,1.31.4s1,.25,1.5.38a7.58,7.58,0,0,1,1.28.52,2.55,2.55,0,0,1,.89.8,2.16,2.16,0,0,1,.33,1.24,2.69,2.69,0,0,1-.48,1.59,3.17,3.17,0,0,1-1.36,1.05A5.36,5.36,0,0,1,22.83,22.62Z"/><path class="cls-8" d="M28.78,22.5V11.82H33a3.75,3.75,0,0,1,2.57.8,2.72,2.72,0,0,1,.93,2.18,2.76,2.76,0,0,1-.93,2.2,3.79,3.79,0,0,1-2.57.8H30v4.7ZM30,16.79h2.93a2.68,2.68,0,0,0,1.78-.52,1.85,1.85,0,0,0,.6-1.47,1.79,1.79,0,0,0-.6-1.45,2.68,2.68,0,0,0-1.78-.51H30Z"/><path class="cls-8" d="M38.55,22.5V11.82h1.23V22.5Z"/></g><g class="cls-7"><path class="cls-6" d="M67.16,15.92V15H72v1ZM72,21.42v1l-.5.11a4.58,4.58,0,0,1-.55,0A2.26,2.26,0,0,1,69.25,22a2.35,2.35,0,0,1-.62-1.79V13l1.21-.44V20A2.11,2.11,0,0,0,70,21a1,1,0,0,0,.48.46,1.78,1.78,0,0,0,.67.12l.41,0Z"/><path class="cls-6" d="M73.47,22.5V17.07c0-.35,0-.7,0-1.06s0-.71-.1-1.05h1.16l.16,1.86-.16-.05a2.35,2.35,0,0,1,.9-1.49,2.6,2.6,0,0,1,1.57-.5,2.23,2.23,0,0,1,.37,0,1.14,1.14,0,0,1,.32.07l0,1.1a2.69,2.69,0,0,0-.79-.11,2.11,2.11,0,0,0-1.26.34,2.06,2.06,0,0,0-.69.88,3,3,0,0,0-.21,1.12v4.3Z"/><path class="cls-6" d="M81.65,22.61a3.26,3.26,0,0,1-1.77-.48,3.11,3.11,0,0,1-1.17-1.35,4.85,4.85,0,0,1-.41-2.06,4.78,4.78,0,0,1,.42-2.07,3.26,3.26,0,0,1,1.18-1.38,3.12,3.12,0,0,1,1.75-.49,2.94,2.94,0,0,1,1.75.51,2.48,2.48,0,0,1,1,1.45l-.18.12V15h1.2V22.5H84.2V20.55l.18.09a2.51,2.51,0,0,1-1,1.45A2.88,2.88,0,0,1,81.65,22.61Zm.24-1a2,2,0,0,0,1.71-.76,3.38,3.38,0,0,0,.6-2.15,3.38,3.38,0,0,0-.61-2.15,2.08,2.08,0,0,0-1.7-.75,2.11,2.11,0,0,0-1.74.78,3.36,3.36,0,0,0-.62,2.15,3.28,3.28,0,0,0,.62,2.13A2.15,2.15,0,0,0,81.89,21.6Z"/><path class="cls-6" d="M87.75,22.5V17.07c0-.35,0-.7,0-1.06s0-.71-.1-1.05h1.16l.13,1.55-.15.12a2.59,2.59,0,0,1,1-1.38,3,3,0,0,1,1.7-.47c1.8,0,2.71,1,2.71,3V22.5H93V17.82a2.34,2.34,0,0,0-.42-1.54,1.67,1.67,0,0,0-1.32-.49,2.24,2.24,0,0,0-1.68.65A2.38,2.38,0,0,0,89,18.18V22.5Z"/><path class="cls-6" d="M99.08,22.61a4.41,4.41,0,0,1-3-1l.41-.9a4.06,4.06,0,0,0,1.23.68,4.27,4.27,0,0,0,1.42.22,2.43,2.43,0,0,0,1.3-.29,1,1,0,0,0,.44-.85.89.89,0,0,0-.3-.71,2.3,2.3,0,0,0-1-.43l-1.27-.3a2.86,2.86,0,0,1-1.47-.75A1.81,1.81,0,0,1,96.32,17a1.93,1.93,0,0,1,.36-1.16,2.34,2.34,0,0,1,1-.79,3.77,3.77,0,0,1,1.53-.28,4.37,4.37,0,0,1,1.5.25,3.41,3.41,0,0,1,1.19.73l-.41.89a4.17,4.17,0,0,0-1.1-.67,3.38,3.38,0,0,0-1.18-.22,2.12,2.12,0,0,0-1.25.32,1.09,1.09,0,0,0-.17,1.59,2,2,0,0,0,.9.42l1.27.32a2.92,2.92,0,0,1,1.57.74,1.81,1.81,0,0,1,.5,1.31,1.84,1.84,0,0,1-.79,1.56A3.59,3.59,0,0,1,99.08,22.61Z"/><path class="cls-6" d="M102.9,15.92V15h4.53v1Zm4.74-3.35a2.85,2.85,0,0,0-.78-.12,1.51,1.51,0,0,0-.65.13.9.9,0,0,0-.46.46,2,2,0,0,0-.16.91V22.5h-1.22V13.8A2.45,2.45,0,0,1,105,12a2.27,2.27,0,0,1,1.65-.59l.51,0a3.1,3.1,0,0,1,.51.11Z"/><path class="cls-6" d="M115.13,21.6a3.42,3.42,0,0,1-1.27.73,4.78,4.78,0,0,1-1.58.28,4.13,4.13,0,0,1-2-.47A3.19,3.19,0,0,1,109,20.8a4.57,4.57,0,0,1-.45-2.09,4.47,4.47,0,0,1,.45-2.06,3.34,3.34,0,0,1,1.25-1.38,3.43,3.43,0,0,1,1.85-.49,3.2,3.2,0,0,1,1.73.44,2.86,2.86,0,0,1,1.1,1.27,4.74,4.74,0,0,1,.38,2v.23h-5.7v-.8h5l-.39.56a3.13,3.13,0,0,0-.52-2,1.92,1.92,0,0,0-1.59-.7,2.1,2.1,0,0,0-1.72.77,3.31,3.31,0,0,0-.62,2.14,3.27,3.27,0,0,0,.65,2.22,2.39,2.39,0,0,0,1.91.75,3.65,3.65,0,0,0,1.27-.22,3.92,3.92,0,0,0,1.16-.67Z"/><path class="cls-6" d="M117.1,22.5V17.07c0-.35,0-.7,0-1.06A9.1,9.1,0,0,0,117,15h1.16l.16,1.86-.16-.05a2.32,2.32,0,0,1,.91-1.49,2.55,2.55,0,0,1,1.56-.5,2.17,2.17,0,0,1,.37,0,1.07,1.07,0,0,1,.32.07l0,1.1a2.69,2.69,0,0,0-.79-.11,2.06,2.06,0,0,0-1.25.34,1.92,1.92,0,0,0-.69.88,2.8,2.8,0,0,0-.22,1.12v4.3Z"/></g><g class="cls-7"><path class="cls-6" d="M160.77,15.92V15h4.85v1Zm4.82,5.5v1l-.51.11a4.26,4.26,0,0,1-.54,0,2.3,2.3,0,0,1-1.68-.61,2.39,2.39,0,0,1-.62-1.79V13l1.22-.44V20a2,2,0,0,0,.17.93,1,1,0,0,0,.47.46,1.83,1.83,0,0,0,.68.12l.4,0Z"/><path class="cls-6" d="M170.21,22.61a3.55,3.55,0,0,1-1.89-.49,3.24,3.24,0,0,1-1.24-1.35,4.52,4.52,0,0,1-.44-2.08,4.51,4.51,0,0,1,.44-2.07,3.3,3.3,0,0,1,1.24-1.37,3.73,3.73,0,0,1,1.89-.47,3.69,3.69,0,0,1,1.88.47,3.3,3.3,0,0,1,1.24,1.37,4.51,4.51,0,0,1,.45,2.07,4.52,4.52,0,0,1-.45,2.08,3.24,3.24,0,0,1-1.24,1.35A3.51,3.51,0,0,1,170.21,22.61Zm0-1a2.08,2.08,0,0,0,1.71-.74,3.34,3.34,0,0,0,.61-2.17,3.32,3.32,0,0,0-.61-2.15,2.34,2.34,0,0,0-3.43,0,3.26,3.26,0,0,0-.62,2.15,3.4,3.4,0,0,0,.6,2.17A2.15,2.15,0,0,0,170.21,21.6Z"/><path class="cls-6" d="M182.13,22.61a4.4,4.4,0,0,1-3-1l.4-.9a4.11,4.11,0,0,0,1.24.68,4.23,4.23,0,0,0,1.42.22,2.37,2.37,0,0,0,1.29-.29,1,1,0,0,0,.45-.85.89.89,0,0,0-.3-.71,2.3,2.3,0,0,0-1-.43l-1.28-.3a2.78,2.78,0,0,1-1.46-.75,1.78,1.78,0,0,1-.52-1.29,1.93,1.93,0,0,1,.36-1.16,2.37,2.37,0,0,1,1-.79,3.77,3.77,0,0,1,1.53-.28,4.37,4.37,0,0,1,1.5.25,3.28,3.28,0,0,1,1.18.73l-.4.89a4.06,4.06,0,0,0-1.11-.67,3.29,3.29,0,0,0-1.17-.22,2.17,2.17,0,0,0-1.26.32,1,1,0,0,0-.44.85,1,1,0,0,0,.28.74,1.89,1.89,0,0,0,.89.42l1.28.32a2.85,2.85,0,0,1,1.56.74,1.78,1.78,0,0,1,.51,1.31,1.85,1.85,0,0,1-.8,1.56A3.57,3.57,0,0,1,182.13,22.61Z"/><path class="cls-6" d="M187,22.5v-11h1.22v11Z"/><path class="cls-6" d="M193.49,22.61a3.26,3.26,0,0,1-1.77-.48,3.11,3.11,0,0,1-1.17-1.35,4.85,4.85,0,0,1-.41-2.06,4.78,4.78,0,0,1,.42-2.07,3.26,3.26,0,0,1,1.18-1.38,3.12,3.12,0,0,1,1.75-.49,2.94,2.94,0,0,1,1.75.51,2.48,2.48,0,0,1,1,1.45l-.18.12V15h1.2V22.5H196V20.55l.18.09a2.51,2.51,0,0,1-1,1.45A2.88,2.88,0,0,1,193.49,22.61Zm.24-1a2,2,0,0,0,1.71-.76,3.38,3.38,0,0,0,.6-2.15,3.38,3.38,0,0,0-.61-2.15,2.07,2.07,0,0,0-1.7-.75,2.11,2.11,0,0,0-1.74.78,3.36,3.36,0,0,0-.62,2.15,3.28,3.28,0,0,0,.62,2.13A2.15,2.15,0,0,0,193.73,21.6Z"/><path class="cls-6" d="M201.81,22.5,198.6,15h1.28l2.73,6.65h-.36L205,15h1.21L203,22.5Z"/><path class="cls-6" d="M213.65,21.6a3.42,3.42,0,0,1-1.27.73,4.78,4.78,0,0,1-1.58.28,4.13,4.13,0,0,1-2-.47,3.19,3.19,0,0,1-1.31-1.34,4.57,4.57,0,0,1-.45-2.09,4.47,4.47,0,0,1,.45-2.06,3.34,3.34,0,0,1,1.25-1.38,3.43,3.43,0,0,1,1.85-.49,3.2,3.2,0,0,1,1.73.44,2.86,2.86,0,0,1,1.1,1.27,4.74,4.74,0,0,1,.38,2v.23h-5.7v-.8h5l-.39.56a3.13,3.13,0,0,0-.52-2,1.9,1.9,0,0,0-1.59-.7,2.1,2.1,0,0,0-1.72.77,3.31,3.31,0,0,0-.62,2.14,3.27,3.27,0,0,0,.65,2.22,2.39,2.39,0,0,0,1.91.75,3.65,3.65,0,0,0,1.27-.22,3.92,3.92,0,0,0,1.16-.67Z"/><path class="cls-6" d="M219.54,25.74V17.07c0-.35,0-.7,0-1.06s-.05-.71-.1-1.05h1.16l.13,1.55-.12.23a2.48,2.48,0,0,1,1-1.45,2.93,2.93,0,0,1,1.74-.51,3.08,3.08,0,0,1,1.74.49,3.35,3.35,0,0,1,1.19,1.38,4.78,4.78,0,0,1,.43,2.07,4.7,4.7,0,0,1-.43,2.06,3.13,3.13,0,0,1-2.93,1.83,2.87,2.87,0,0,1-1.74-.52,2.51,2.51,0,0,1-1-1.45l.17-.15v5.25Zm3.54-4.14a2.09,2.09,0,0,0,1.71-.75,3.28,3.28,0,0,0,.62-2.13,3.36,3.36,0,0,0-.62-2.15,2.3,2.3,0,0,0-3.43,0,3.38,3.38,0,0,0-.6,2.15,3.38,3.38,0,0,0,.6,2.15A2,2,0,0,0,223.08,21.6Z"/><path class="cls-6" d="M228.42,11.76h1.49v1.38h-1.49Zm.12,10.74V15h1.22V22.5Z"/><path class="cls-6" d="M232.11,22.5V17.07c0-.35,0-.7,0-1.06S232,15.3,232,15h1.16l.13,1.55-.15.12a2.59,2.59,0,0,1,1.05-1.38,3,3,0,0,1,1.7-.47c1.8,0,2.71,1,2.71,3V22.5h-1.21V17.82a2.34,2.34,0,0,0-.42-1.54,1.67,1.67,0,0,0-1.32-.49,2.24,2.24,0,0,0-1.68.65,2.39,2.39,0,0,0-.64,1.74V22.5Z"/><path class="cls-6" d="M244.15,19.74v-.88h7.74v.88Zm.3-4.4v-.88h7.74v.88ZM245,22.5l2.09-10.68h1L245.92,22.5Zm3.38,0,2.08-10.68h1L249.3,22.5Z"/></g><g class="cls-5"><rect class="cls-6" x="258.95" y="10" width="60" height="16" rx="4"/></g><g class="cls-7"><path class="cls-8" d="M265.12,22.5V17.07c0-.35,0-.7,0-1.06s-.05-.71-.1-1.05h1.16l.13,1.55-.15.12a2.59,2.59,0,0,1,1.05-1.38,3,3,0,0,1,1.7-.47c1.8,0,2.71,1,2.71,3V22.5h-1.21V17.82a2.4,2.4,0,0,0-.42-1.54,1.71,1.71,0,0,0-1.33-.49,2.24,2.24,0,0,0-1.67.65,2.39,2.39,0,0,0-.64,1.74V22.5Z"/><path class="cls-8" d="M277,22.61a3.51,3.51,0,0,1-1.88-.49,3.24,3.24,0,0,1-1.24-1.35,4.52,4.52,0,0,1-.44-2.08,4.51,4.51,0,0,1,.44-2.07,3.3,3.3,0,0,1,1.24-1.37,3.69,3.69,0,0,1,1.88-.47,3.73,3.73,0,0,1,1.89.47,3.3,3.3,0,0,1,1.24,1.37,4.51,4.51,0,0,1,.44,2.07,4.52,4.52,0,0,1-.44,2.08,3.24,3.24,0,0,1-1.24,1.35A3.55,3.55,0,0,1,277,22.61Zm0-1a2.11,2.11,0,0,0,1.72-.74,3.34,3.34,0,0,0,.61-2.17,3.26,3.26,0,0,0-.62-2.15,2.32,2.32,0,0,0-3.42,0,3.26,3.26,0,0,0-.62,2.15,3.4,3.4,0,0,0,.6,2.17A2.13,2.13,0,0,0,277,21.6Z"/><path class="cls-8" d="M282.47,22.5V17.07c0-.35,0-.7,0-1.06a9.1,9.1,0,0,0-.1-1.05h1.16l.13,1.55-.15.12a2.59,2.59,0,0,1,1.05-1.38,3,3,0,0,1,1.7-.47c1.81,0,2.71,1,2.71,3V22.5h-1.21V17.82a2.34,2.34,0,0,0-.42-1.54,1.67,1.67,0,0,0-1.32-.49,2.24,2.24,0,0,0-1.68.65,2.38,2.38,0,0,0-.63,1.74V22.5Z"/><path class="cls-8" d="M297.43,21.6a3.34,3.34,0,0,1-1.27.73,4.74,4.74,0,0,1-1.58.28,4.16,4.16,0,0,1-2-.47,3.17,3.17,0,0,1-1.3-1.34,4.44,4.44,0,0,1-.46-2.09,4.47,4.47,0,0,1,.45-2.06,3.41,3.41,0,0,1,1.25-1.38,3.46,3.46,0,0,1,1.85-.49,3.2,3.2,0,0,1,1.73.44,2.8,2.8,0,0,1,1.1,1.27,4.59,4.59,0,0,1,.38,2v.23h-5.7v-.8h5l-.39.56a3.19,3.19,0,0,0-.51-2,1.94,1.94,0,0,0-1.6-.7,2.11,2.11,0,0,0-1.72.77,3.36,3.36,0,0,0-.62,2.14,3.32,3.32,0,0,0,.65,2.22,2.4,2.4,0,0,0,1.91.75,3.61,3.61,0,0,0,1.27-.22,3.8,3.8,0,0,0,1.16-.67Z"/></g><polygon class="cls-8" points="53.07 22.31 58.05 13.69 48.09 13.69 53.07 22.31"/><polygon class="cls-8" points="309.97 22.31 314.95 13.69 304.99 13.69 309.97 22.31"/><rect class="cls-9" x="12.95" y="41.69" width="49.27" height="15.46" rx="5.67"/><g class="cls-7"><path class="cls-8" d="M22.06,54.68a7.54,7.54,0,0,1-1.54-.14,4.92,4.92,0,0,1-1.34-.45,4.75,4.75,0,0,1-1.11-.76l.47-.94a5.31,5.31,0,0,0,1.62,1,5.89,5.89,0,0,0,1.92.28,3.33,3.33,0,0,0,2-.5,1.63,1.63,0,0,0,.7-1.42,1.2,1.2,0,0,0-.35-.89,2.74,2.74,0,0,0-1-.54c-.41-.13-.86-.26-1.37-.38s-1-.24-1.46-.38A5.49,5.49,0,0,1,19.4,49a2.38,2.38,0,0,1-.83-.84,2.5,2.5,0,0,1-.3-1.28,2.78,2.78,0,0,1,.48-1.61,3.28,3.28,0,0,1,1.35-1.09,5,5,0,0,1,2-.39,6.48,6.48,0,0,1,1.41.16,5.46,5.46,0,0,1,1.25.46,4.26,4.26,0,0,1,1,.73l-.48,1a5.07,5.07,0,0,0-1.51-1,4.71,4.71,0,0,0-1.7-.3,3.2,3.2,0,0,0-1.95.53,1.72,1.72,0,0,0-.7,1.47,1.37,1.37,0,0,0,.31.94,2.16,2.16,0,0,0,.89.58,10.09,10.09,0,0,0,1.3.4q.78.18,1.5.39a6,6,0,0,1,1.28.52,2.48,2.48,0,0,1,.9.79A2.18,2.18,0,0,1,26,51.67a2.67,2.67,0,0,1-.48,1.59,3.13,3.13,0,0,1-1.37,1.05A5.36,5.36,0,0,1,22.06,54.68Z"/><path class="cls-8" d="M28,54.56V43.88h4.26a3.82,3.82,0,0,1,2.57.8,3.06,3.06,0,0,1,0,4.38,3.76,3.76,0,0,1-2.56.81h-3v4.69Zm1.23-5.71h2.92A2.66,2.66,0,0,0,34,48.33a2.08,2.08,0,0,0,0-2.92,2.71,2.71,0,0,0-1.79-.51H29.25Z"/><path class="cls-8" d="M37.78,54.56V43.88H39V54.56Z"/></g><polygon class="cls-8" points="52.9 54.38 57.88 45.75 47.92 45.75 52.9 54.38"/><rect class="cls-9" x="256.85" y="41.69" width="59.44" height="108.15" rx="5.67"/><g class="cls-7"><path class="cls-8" d="M262.42,54.57V49.14c0-.35,0-.71,0-1.06s0-.71-.1-1.06h1.16l.13,1.56-.15.12a2.61,2.61,0,0,1,1.05-1.39,3.12,3.12,0,0,1,1.7-.47c1.81,0,2.71,1,2.71,3v4.74h-1.21V49.89a2.32,2.32,0,0,0-.42-1.54,1.64,1.64,0,0,0-1.32-.49,2.24,2.24,0,0,0-1.68.65,2.38,2.38,0,0,0-.63,1.74v4.32Z"/><path class="cls-8" d="M274.32,54.67a3.64,3.64,0,0,1-1.89-.48,3.21,3.21,0,0,1-1.24-1.36,4.45,4.45,0,0,1-.44-2.07,4.51,4.51,0,0,1,.44-2.07,3.24,3.24,0,0,1,1.24-1.37,3.64,3.64,0,0,1,1.89-.48,3.6,3.6,0,0,1,1.88.48,3.24,3.24,0,0,1,1.24,1.37,4.51,4.51,0,0,1,.45,2.07,4.45,4.45,0,0,1-.45,2.07,3.21,3.21,0,0,1-1.24,1.36A3.6,3.6,0,0,1,274.32,54.67Zm0-1a2.06,2.06,0,0,0,1.71-.75,4.11,4.11,0,0,0,0-4.31,2.34,2.34,0,0,0-3.43,0,3.26,3.26,0,0,0-.62,2.15,3.35,3.35,0,0,0,.6,2.16A2.12,2.12,0,0,0,274.32,53.67Z"/><path class="cls-8" d="M279.78,54.57V49.14c0-.35,0-.71,0-1.06a9.28,9.28,0,0,0-.09-1.06h1.15l.14,1.56-.15.12a2.61,2.61,0,0,1,1.05-1.39,3.09,3.09,0,0,1,1.69-.47c1.81,0,2.72,1,2.72,3v4.74H285V49.89a2.32,2.32,0,0,0-.42-1.54,1.64,1.64,0,0,0-1.32-.49,2.24,2.24,0,0,0-1.68.65,2.38,2.38,0,0,0-.63,1.74v4.32Z"/><path class="cls-8" d="M294.73,53.67a3.48,3.48,0,0,1-1.27.73,4.73,4.73,0,0,1-1.58.27,4.16,4.16,0,0,1-2-.46,3.14,3.14,0,0,1-1.3-1.35,4.39,4.39,0,0,1-.46-2.09,4.45,4.45,0,0,1,.45-2.05,3.51,3.51,0,0,1,1.25-1.39,3.58,3.58,0,0,1,1.86-.49,3.26,3.26,0,0,1,1.72.44,2.85,2.85,0,0,1,1.1,1.27,4.6,4.6,0,0,1,.39,2v.23h-5.7V50h5l-.39.56a3.17,3.17,0,0,0-.52-2,1.91,1.91,0,0,0-1.6-.7,2.08,2.08,0,0,0-1.72.77,4.06,4.06,0,0,0,0,4.36,2.42,2.42,0,0,0,1.92.75,3.79,3.79,0,0,0,1.26-.22,4.06,4.06,0,0,0,1.17-.67Z"/><path class="cls-8" d="M263.17,72.57v-1h6v1Zm2.36-.56v-9.4l.7.36-2.89,1.84V63.62l2.73-1.73h.7V72Z"/><path class="cls-8" d="M262.21,89h1.55v1.55h-1.55Z"/><path class="cls-8" d="M262.21,107h1.55v1.55h-1.55Z"/><path class="cls-8" d="M262.8,126.57h-1.28l4.7-10.68h1.08L272,126.57h-1.26l-4.18-9.78H267Zm.72-2.75.43-1h5.61l.44,1Z"/><path class="cls-8" d="M277.92,126.57v-9.14h.37l-4.44,6.4,0-.61h6.9v1H273v-.93l5.14-7.42h1v10.68Z"/><path class="cls-8" d="M262.8,144.57h-1.28l4.7-10.68h1.08L272,144.57h-1.26l-4.18-9.78H267Zm.72-2.75.43-1h5.61l.44,1Z"/><path class="cls-8" d="M276.93,144.67a5.57,5.57,0,0,1-1.92-.35,4.68,4.68,0,0,1-1.59-1l.46-.94a6.09,6.09,0,0,0,1.49.91,4.07,4.07,0,0,0,1.56.32,2.41,2.41,0,0,0,1.76-.64,2.36,2.36,0,0,0,.64-1.73A2.58,2.58,0,0,0,279,140a2.06,2.06,0,0,0-.8-.83,2.4,2.4,0,0,0-1.22-.3,3.11,3.11,0,0,0-1.38.3,3.15,3.15,0,0,0-1.07.94h-.85v-6.25h6.4v1H275v4.32l-.39,0a3,3,0,0,1,1.11-1,3.39,3.39,0,0,1,1.54-.35,3.46,3.46,0,0,1,1.77.43,2.89,2.89,0,0,1,1.16,1.19,3.73,3.73,0,0,1,.4,1.77,3.59,3.59,0,0,1-.44,1.78,3.16,3.16,0,0,1-1.25,1.21A4,4,0,0,1,276.93,144.67Z"/></g><polygon class="cls-8" points="307.87 54.38 312.85 45.75 302.89 45.75 307.87 54.38"/></g></g></svg>