<svg xmlns="http://www.w3.org/2000/svg" viewBox="0 0 595.28 42.52"><defs><style>.cls-1{fill:#231f20;}.cls-2{fill:#ff5100;}.cls-3{fill:#dc4726;}.cls-4{fill:#4ba697;}.cls-5{fill:#3c9181;}.cls-6{fill:#93c7ec;}.cls-7{fill:#71b5e3;}.cls-8{fill:#dcecf9;}.cls-9{fill:#b9dbf3;}.cls-10{fill:none;}</style></defs><g id="Layer_2" data-name="Layer 2"><g id="Layer_1-2" data-name="Layer 1"><path class="cls-1" d="M97.65,34.36A13.11,13.11,0,0,1,91,32.76a10.7,10.7,0,0,1-4.31-4.55,15.39,15.39,0,0,1-1.49-7,15.19,15.19,0,0,1,1.49-6.93A10.77,10.77,0,0,1,91,9.76a13.11,13.11,0,0,1,6.62-1.6,15,15,0,0,1,4.88.77,10,10,0,0,1,3.8,2.25l-1.51,3.38a13,13,0,0,0-3.46-2,10.35,10.35,0,0,0-3.64-.63A7.14,7.14,0,0,0,92,14.29c-1.36,1.6-2,3.91-2,6.93s.67,5.35,2,7a7.08,7.08,0,0,0,5.74,2.43,10.35,10.35,0,0,0,3.64-.63,13,13,0,0,0,3.46-2l1.51,3.38a10,10,0,0,1-3.8,2.25A15,15,0,0,1,97.65,34.36Z"/><path class="cls-1" d="M118.21,34.33a10.05,10.05,0,0,1-4.92-1.15,7.87,7.87,0,0,1-3.18-3.26,10.54,10.54,0,0,1-1.12-5,10.69,10.69,0,0,1,1.12-5,7.82,7.82,0,0,1,3.18-3.29,9.94,9.94,0,0,1,4.92-1.15,9.79,9.79,0,0,1,4.84,1.15,7.93,7.93,0,0,1,3.2,3.29,10.58,10.58,0,0,1,1.14,5,10.42,10.42,0,0,1-1.14,5,8,8,0,0,1-3.2,3.26A9.9,9.9,0,0,1,118.21,34.33Zm0-3.46a4.17,4.17,0,0,0,3.43-1.49,7,7,0,0,0,1.21-4.48,7,7,0,0,0-1.21-4.45A4.14,4.14,0,0,0,118.21,19a4.27,4.27,0,0,0-3.51,1.49,6.83,6.83,0,0,0-1.25,4.45,6.94,6.94,0,0,0,1.23,4.48A4.3,4.3,0,0,0,118.21,30.87Z"/><path class="cls-1" d="M131.24,34.08V21c0-.84,0-1.69-.06-2.57A23.83,23.83,0,0,0,131,15.9h4.25l.39,3.6-.39,0a6.16,6.16,0,0,1,2.3-3,6.51,6.51,0,0,1,3.75-1.08,5.84,5.84,0,0,1,4,1.28,6.38,6.38,0,0,1,1.89,3.9l-.86-.79a6.54,6.54,0,0,1,2.44-3.19,6.93,6.93,0,0,1,4-1.2,5.57,5.57,0,0,1,4.57,1.85q1.51,1.86,1.51,5.64V34.08h-4.5v-11a5.37,5.37,0,0,0-.7-3.08,2.65,2.65,0,0,0-2.32-1,3.57,3.57,0,0,0-2.94,1.32,5.57,5.57,0,0,0-1.06,3.61V34.08h-4.5v-11a5.19,5.19,0,0,0-.74-3.08,2.69,2.69,0,0,0-2.32-1,3.6,3.6,0,0,0-3,1.32,5.57,5.57,0,0,0-1.06,3.61V34.08Z"/><path class="cls-1" d="M163.6,34.08V21c0-.84,0-1.69,0-2.57s-.12-1.73-.24-2.57h4.25l.4,3.6-.4,0a6.12,6.12,0,0,1,2.31-3,6.46,6.46,0,0,1,3.74-1.08,5.84,5.84,0,0,1,4,1.28,6.27,6.27,0,0,1,1.89,3.9l-.86-.79a6.56,6.56,0,0,1,2.45-3.19,6.87,6.87,0,0,1,4-1.2,5.57,5.57,0,0,1,4.57,1.85q1.52,1.86,1.51,5.64V34.08h-4.5v-11A5.37,5.37,0,0,0,186,20a2.65,2.65,0,0,0-2.32-1,3.54,3.54,0,0,0-2.93,1.32,5.57,5.57,0,0,0-1.07,3.61V34.08h-4.5v-11a5.2,5.2,0,0,0-.73-3.08,2.73,2.73,0,0,0-2.33-1,3.6,3.6,0,0,0-3,1.32,5.62,5.62,0,0,0-1.06,3.61V34.08Z"/><path class="cls-1" d="M202.66,34.33a12.38,12.38,0,0,1-7.85-2.27l1.26-3.17a10.53,10.53,0,0,0,3.14,1.62,11.46,11.46,0,0,0,3.52.54,4.77,4.77,0,0,0,2.52-.54,1.68,1.68,0,0,0,.87-1.51,1.6,1.6,0,0,0-.61-1.31,5.6,5.6,0,0,0-2.09-.85l-3-.68a7.23,7.23,0,0,1-3.72-1.82,4.47,4.47,0,0,1-1.24-3.26,4.85,4.85,0,0,1,.93-2.93,6.12,6.12,0,0,1,2.63-2,10,10,0,0,1,3.92-.72,12.06,12.06,0,0,1,3.75.59,9.57,9.57,0,0,1,3.13,1.71l-1.3,3.1a10.21,10.21,0,0,0-2.79-1.55,8.31,8.31,0,0,0-2.82-.5,4.34,4.34,0,0,0-2.41.57,1.81,1.81,0,0,0-.87,1.59,1.66,1.66,0,0,0,.52,1.26,4.18,4.18,0,0,0,1.82.75l3.06.76a7.56,7.56,0,0,1,3.94,1.85,4.63,4.63,0,0,1,1.25,3.37,4.63,4.63,0,0,1-2,3.94A9.24,9.24,0,0,1,202.66,34.33Z"/><path class="cls-2" d="M58.16,23.68H49.09l-.56.22-2,1.83H36.78l-1,.56v9.14a2.7,2.7,0,0,0,2.69,2.69H52a.83.83,0,0,1,.82.83v3a.59.59,0,0,0,1,.37l3.24-3.89a.81.81,0,0,1,.63-.3h.4a2.7,2.7,0,0,0,2.69-2.69v-9a2.7,2.7,0,0,0-2.69-2.7Z"/><path class="cls-3" d="M56.17,39a.83.83,0,0,0-.83-.83H52a.83.83,0,0,1,.82.83v3a.59.59,0,0,0,1,.37l2.28-2.74Z"/><path class="cls-3" d="M39.07,35.43V26.29l1-.56H36.78l-1,.56v9.14a2.7,2.7,0,0,0,2.69,2.69h3.32a2.71,2.71,0,0,1-2.7-2.69Z"/><path class="cls-4" d="M49.09,14.45,48.4,14H38l-2-1.89-.31-.24H26.7a2.7,2.7,0,0,0-2.7,2.7v9.05a2.71,2.71,0,0,0,2.7,2.7h.39a.82.82,0,0,1,.64.29L31,30.47a.58.58,0,0,0,1-.37v-3a.83.83,0,0,1,.83-.82H46.4a2.71,2.71,0,0,0,2.7-2.7v-9s0-.06,0-.09Z"/><path class="cls-5" d="M31,26.58a.82.82,0,0,0-.63-.29H30a2.71,2.71,0,0,1-2.7-2.7v-9a2.71,2.71,0,0,1,2.7-2.7H26.7a2.7,2.7,0,0,0-2.7,2.7v9.05a2.71,2.71,0,0,0,2.7,2.7h.39a.82.82,0,0,1,.64.29L31,30.47a.58.58,0,0,0,1-.37V27.73Z"/><path class="cls-6" d="M58.16,0H38.45a2.7,2.7,0,0,0-2.69,2.7v9.05a2.71,2.71,0,0,0,2.69,2.7H52a.82.82,0,0,1,.82.82v3a.59.59,0,0,0,1,.37l3.24-3.89a.83.83,0,0,1,.63-.29h.4a2.71,2.71,0,0,0,2.69-2.7v-9A2.7,2.7,0,0,0,58.16,0Z"/><path class="cls-7" d="M56.17,15.27a.83.83,0,0,0-.83-.82H52a.82.82,0,0,1,.82.82v3a.59.59,0,0,0,1,.37l2.28-2.74Z"/><path class="cls-7" d="M39.07,11.75v-9A2.71,2.71,0,0,1,41.77,0H38.45a2.7,2.7,0,0,0-2.69,2.7v9.05a2.71,2.71,0,0,0,2.69,2.7h3.32A2.71,2.71,0,0,1,39.07,11.75Z"/><path class="cls-8" d="M54.81,5.94h-.18L54,6.75v.91l.45.72.38.13a1.48,1.48,0,0,0,.74-1.29A1.46,1.46,0,0,0,54.81,5.94Z"/><path class="cls-9" d="M54.07,7.22a1.48,1.48,0,0,1,.74-1.28,1.44,1.44,0,0,0-.74-.2,1.49,1.49,0,0,0,0,3,1.54,1.54,0,0,0,.74-.2,1.5,1.5,0,0,1-.74-1.29Z"/><path class="cls-8" d="M48.79,5.94H48.6L48,6.75v.91l.45.72.38.13a1.5,1.5,0,0,0,.74-1.29A1.48,1.48,0,0,0,48.79,5.94Z"/><path class="cls-9" d="M48.05,7.22a1.48,1.48,0,0,1,.74-1.28,1.44,1.44,0,0,0-.74-.2,1.49,1.49,0,1,0,0,3,1.54,1.54,0,0,0,.74-.2,1.5,1.5,0,0,1-.74-1.29Z"/><path class="cls-8" d="M42.77,5.94h-.19l-.64.81v.91l.44.72.39.13a1.5,1.5,0,0,0,.74-1.29,1.48,1.48,0,0,0-.74-1.28Z"/><path class="cls-9" d="M42,7.22a1.47,1.47,0,0,1,.75-1.28A1.49,1.49,0,1,0,42,8.71a1.58,1.58,0,0,0,.75-.2A1.49,1.49,0,0,1,42,7.22Z"/><path class="cls-8" d="M43.31,17.78h-.19l-.64.81v.91l.45.72.38.13a1.5,1.5,0,0,0,.74-1.29A1.48,1.48,0,0,0,43.31,17.78Z"/><path class="cls-9" d="M42.57,19.06a1.48,1.48,0,0,1,.74-1.28,1.44,1.44,0,0,0-.74-.2,1.49,1.49,0,0,0,0,3,1.54,1.54,0,0,0,.74-.2,1.5,1.5,0,0,1-.74-1.29Z"/><path class="cls-8" d="M37.29,17.78H37.1l-.64.81v.91l.45.72.38.13A1.5,1.5,0,0,0,38,19.06,1.48,1.48,0,0,0,37.29,17.78Z"/><path class="cls-9" d="M36.55,19.06a1.48,1.48,0,0,1,.74-1.28,1.44,1.44,0,0,0-.74-.2,1.49,1.49,0,1,0,0,3,1.54,1.54,0,0,0,.74-.2,1.5,1.5,0,0,1-.74-1.29Z"/><path class="cls-8" d="M31.26,17.78h-.18l-.65.81v.91l.45.72.38.13A1.49,1.49,0,0,0,32,19.06,1.47,1.47,0,0,0,31.26,17.78Z"/><path class="cls-9" d="M30.52,19.06a1.48,1.48,0,0,1,.74-1.28,1.41,1.41,0,0,0-.74-.2,1.49,1.49,0,0,0,0,3,1.51,1.51,0,0,0,.74-.2,1.5,1.5,0,0,1-.74-1.29Z"/><path class="cls-8" d="M54.81,29.62h-.18l-.65.81v.91l.45.72.38.12a1.48,1.48,0,0,0,0-2.56Z"/><path class="cls-9" d="M54.07,30.9a1.48,1.48,0,0,1,.74-1.28,1.44,1.44,0,0,0-.74-.2,1.48,1.48,0,1,0,0,3,1.44,1.44,0,0,0,.74-.2A1.47,1.47,0,0,1,54.07,30.9Z"/><path class="cls-8" d="M48.79,29.62H48.6l-.64.81v.91l.45.72.38.12a1.48,1.48,0,0,0,0-2.56Z"/><path class="cls-9" d="M48.05,30.9a1.48,1.48,0,0,1,.74-1.28,1.44,1.44,0,0,0-.74-.2,1.48,1.48,0,1,0,0,3,1.44,1.44,0,0,0,.74-.2A1.47,1.47,0,0,1,48.05,30.9Z"/><path class="cls-8" d="M42.77,29.62h-.19l-.64.81v.91l.44.72.39.12a1.48,1.48,0,0,0,0-2.56Z"/><path class="cls-9" d="M42,30.9a1.47,1.47,0,0,1,.75-1.28,1.48,1.48,0,1,0,0,2.56A1.46,1.46,0,0,1,42,30.9Z"/><rect class="cls-10" width="595.28" height="18"/></g></g></svg>