<svg xmlns="http://www.w3.org/2000/svg" viewBox="0 0 595.28 149.84"><defs><style>.cls-1{fill:none;}.cls-2{fill:#b2d5c7;}.cls-3{isolation:isolate;}.cls-4{fill:#010101;}.cls-5{fill:#3d867a;}.cls-6{fill:#4ba697;}.cls-7{fill:#82c1b6;}.cls-8{opacity:0.6;}.cls-9{fill:#fff;}</style></defs><g id="Layer_2" data-name="Layer 2"><g id="Layer_1-2" data-name="Layer 1"><rect class="cls-1" width="595.28" height="18"/><rect class="cls-2" x="5" y="45.69" width="49.27" height="15.46" rx="5.67"/><g class="cls-3"><path class="cls-4" d="M14.12,58.68a7.64,7.64,0,0,1-1.55-.14,4.85,4.85,0,0,1-1.33-.45,4.75,4.75,0,0,1-1.11-.76l.46-.94a5.24,5.24,0,0,0,1.63,1,5.78,5.78,0,0,0,1.91.28,3.33,3.33,0,0,0,2-.5,1.64,1.64,0,0,0,.71-1.42,1.17,1.17,0,0,0-.36-.89,2.57,2.57,0,0,0-1-.54c-.4-.13-.86-.26-1.37-.38s-1-.24-1.45-.38A5.79,5.79,0,0,1,11.45,53a2.47,2.47,0,0,1-.83-.84,2.5,2.5,0,0,1-.3-1.28,2.78,2.78,0,0,1,.48-1.61,3.28,3.28,0,0,1,1.35-1.09,5,5,0,0,1,2.06-.39,6.48,6.48,0,0,1,1.41.16,5.64,5.64,0,0,1,1.25.46,4.46,4.46,0,0,1,1,.73l-.48,1a5.11,5.11,0,0,0-1.52-1,4.66,4.66,0,0,0-1.69-.3,3.2,3.2,0,0,0-2,.53,1.73,1.73,0,0,0-.71,1.47,1.37,1.37,0,0,0,.32.94,2.12,2.12,0,0,0,.88.58,10.27,10.27,0,0,0,1.31.4q.78.18,1.5.39a6.22,6.22,0,0,1,1.28.52,2.53,2.53,0,0,1,.89.79,2.18,2.18,0,0,1,.33,1.24,2.67,2.67,0,0,1-.48,1.59,3.1,3.1,0,0,1-1.36,1.05A5.36,5.36,0,0,1,14.12,58.68Z"/><path class="cls-4" d="M20.07,58.56V47.88h4.26a3.8,3.8,0,0,1,2.57.8,2.73,2.73,0,0,1,.93,2.19,2.76,2.76,0,0,1-.93,2.19,3.79,3.79,0,0,1-2.57.81h-3v4.69Zm1.23-5.71h2.93A2.65,2.65,0,0,0,26,52.33a2.08,2.08,0,0,0,0-2.92,2.7,2.7,0,0,0-1.78-.51H21.3Z"/><path class="cls-4" d="M29.83,58.56V47.88h1.23V58.56Z"/></g><polygon class="cls-4" points="44.95 58.38 49.93 49.75 39.98 49.75 44.95 58.38"/><path class="cls-5" d="M1,9A8,8,0,0,1,9,1h7l6,4h3l6-4H315.83V36H30.5l-6,4h-3l-6-4H9a8,8,0,0,1-8-8ZM143.55,6h-14.5v5c0,10-8-8-8,7.5s8-2.5,8,7.5v6h14.5Z"/><path class="cls-6" d="M0,8A8,8,0,0,1,8,0h7l6,4h3l6-4H314.83V35H29.5l-6,4h-3l-6-4H8a8,8,0,0,1-8-8ZM142.55,5h-14.5v5c0,10-8-8-8,7.5s8-2.5,8,7.5v6h14.5Z"/><path class="cls-7" d="M2.34,32.66A8,8,0,0,1,0,27V8H1V27A7,7,0,0,0,3.05,32ZM143.55,32h-15V31h14V5.5h1ZM123.2,24.74l-.5-.87,3.68-2.1.5.86ZM1,7.53,0,7.47A8,8,0,0,1,8,0h7.17l6,4h2.7l6-4H314.33V1H30.15l-6,4h-3.3l-6-4H8A7,7,0,0,0,1,7.53Z"/><g class="cls-8"><rect class="cls-9" x="5" y="10" width="48.93" height="16" rx="4"/></g><g class="cls-3"><path class="cls-4" d="M14.71,22.62a8.32,8.32,0,0,1-1.54-.14A5.71,5.71,0,0,1,11.83,22a5.07,5.07,0,0,1-1.11-.76l.47-.94a5.52,5.52,0,0,0,1.62,1,6.17,6.17,0,0,0,1.92.28,3.45,3.45,0,0,0,2-.5,1.67,1.67,0,0,0,.7-1.42,1.18,1.18,0,0,0-.35-.89,2.46,2.46,0,0,0-1-.54c-.41-.14-.87-.26-1.37-.39a14.1,14.1,0,0,1-1.46-.38,5.48,5.48,0,0,1-1.22-.54,2.25,2.25,0,0,1-1.13-2.12,2.69,2.69,0,0,1,.48-1.61,3.07,3.07,0,0,1,1.35-1.09,4.93,4.93,0,0,1,2.05-.39,5.92,5.92,0,0,1,1.41.16,5,5,0,0,1,1.25.46,4.26,4.26,0,0,1,1,.73L18,14a5.2,5.2,0,0,0-1.51-.95,4.71,4.71,0,0,0-1.7-.3,3.14,3.14,0,0,0-2,.53,1.71,1.71,0,0,0-.7,1.47,1.38,1.38,0,0,0,.31.94,2.19,2.19,0,0,0,.89.58c.38.14.81.27,1.3.4s1,.25,1.5.38a7.25,7.25,0,0,1,1.28.52,2.5,2.5,0,0,1,.9.8,2.16,2.16,0,0,1,.32,1.24,2.63,2.63,0,0,1-.48,1.59,3.11,3.11,0,0,1-1.36,1.05A5.36,5.36,0,0,1,14.71,22.62Z"/><path class="cls-4" d="M20.66,22.5V11.82h4.26a3.8,3.8,0,0,1,2.58.8,2.75,2.75,0,0,1,.92,2.18,2.76,2.76,0,0,1-.93,2.2,3.79,3.79,0,0,1-2.57.8h-3v4.7Zm1.23-5.71h2.93a2.68,2.68,0,0,0,1.78-.52,1.85,1.85,0,0,0,.6-1.47,1.79,1.79,0,0,0-.6-1.45,2.68,2.68,0,0,0-1.78-.51H21.89Z"/><path class="cls-4" d="M30.43,22.5V11.82h1.23V22.5Z"/></g><g class="cls-3"><path class="cls-9" d="M59,15.92V15h4.84v1Zm4.81,5.5v1l-.5.11a4.43,4.43,0,0,1-.55,0A2.27,2.27,0,0,1,61.13,22a2.39,2.39,0,0,1-.62-1.79V13l1.21-.44V20a2,2,0,0,0,.18.93,1,1,0,0,0,.47.46,1.78,1.78,0,0,0,.67.12l.41,0Z"/><path class="cls-9" d="M65.35,22.5V17.07c0-.35,0-.7,0-1.06a9.1,9.1,0,0,0-.1-1.05h1.16l.16,1.86-.16-.05a2.32,2.32,0,0,1,.91-1.49,2.55,2.55,0,0,1,1.56-.5,2.17,2.17,0,0,1,.37,0,1.07,1.07,0,0,1,.32.07l0,1.1a2.69,2.69,0,0,0-.79-.11,2.06,2.06,0,0,0-1.25.34,1.92,1.92,0,0,0-.69.88,2.8,2.8,0,0,0-.22,1.12v4.3Z"/><path class="cls-9" d="M73.53,22.61a3.2,3.2,0,0,1-1.76-.48,3,3,0,0,1-1.17-1.35,4.7,4.7,0,0,1-.42-2.06,4.78,4.78,0,0,1,.42-2.07,3.33,3.33,0,0,1,1.18-1.38,3.14,3.14,0,0,1,1.75-.49,2.94,2.94,0,0,1,1.75.51,2.48,2.48,0,0,1,1,1.45l-.18.12V15h1.2V22.5h-1.2V20.55l.18.09a2.51,2.51,0,0,1-1,1.45A2.88,2.88,0,0,1,73.53,22.61Zm.24-1a2,2,0,0,0,1.71-.76,3.38,3.38,0,0,0,.6-2.15,3.32,3.32,0,0,0-.61-2.15,2.06,2.06,0,0,0-1.7-.75,2.08,2.08,0,0,0-1.73.78,3.3,3.3,0,0,0-.63,2.15A3.22,3.22,0,0,0,72,20.85,2.12,2.12,0,0,0,73.77,21.6Z"/><path class="cls-9" d="M79.63,22.5V17.07c0-.35,0-.7,0-1.06a9.1,9.1,0,0,0-.1-1.05h1.16l.13,1.55-.15.12a2.59,2.59,0,0,1,1-1.38,3,3,0,0,1,1.7-.47c1.81,0,2.71,1,2.71,3V22.5H84.9V17.82a2.34,2.34,0,0,0-.42-1.54,1.67,1.67,0,0,0-1.32-.49,2.24,2.24,0,0,0-1.68.65,2.38,2.38,0,0,0-.63,1.74V22.5Z"/><path class="cls-9" d="M91,22.61a4.42,4.42,0,0,1-3-1l.41-.9a4.11,4.11,0,0,0,1.24.68,4.17,4.17,0,0,0,1.41.22,2.41,2.41,0,0,0,1.3-.29,1,1,0,0,0,.44-.85.89.89,0,0,0-.3-.71,2.3,2.3,0,0,0-1-.43l-1.27-.3a2.78,2.78,0,0,1-1.46-.75A1.78,1.78,0,0,1,88.2,17a1.93,1.93,0,0,1,.36-1.16,2.34,2.34,0,0,1,1-.79,3.77,3.77,0,0,1,1.53-.28,4.37,4.37,0,0,1,1.5.25,3.32,3.32,0,0,1,1.19.73l-.41.89a4,4,0,0,0-1.1-.67,3.34,3.34,0,0,0-1.18-.22,2.14,2.14,0,0,0-1.25.32,1,1,0,0,0-.44.85,1,1,0,0,0,.28.74,1.89,1.89,0,0,0,.89.42l1.27.32a2.89,2.89,0,0,1,1.57.74,1.77,1.77,0,0,1,.5,1.31A1.84,1.84,0,0,1,93.12,22,3.57,3.57,0,0,1,91,22.61Z"/><path class="cls-9" d="M94.78,15.92V15h4.53v1Zm4.74-3.35a2.85,2.85,0,0,0-.78-.12,1.54,1.54,0,0,0-.65.13.93.93,0,0,0-.46.46,2,2,0,0,0-.16.91V22.5H96.25V13.8a2.45,2.45,0,0,1,.6-1.81,2.27,2.27,0,0,1,1.65-.59l.51,0a3.1,3.1,0,0,1,.51.11Z"/><path class="cls-9" d="M107,21.6a3.34,3.34,0,0,1-1.27.73,4.74,4.74,0,0,1-1.58.28,4.16,4.16,0,0,1-2-.47,3.17,3.17,0,0,1-1.3-1.34,4.44,4.44,0,0,1-.46-2.09,4.47,4.47,0,0,1,.45-2.06,3.41,3.41,0,0,1,1.25-1.38,3.46,3.46,0,0,1,1.85-.49,3.2,3.2,0,0,1,1.73.44,2.8,2.8,0,0,1,1.1,1.27,4.59,4.59,0,0,1,.38,2v.23h-5.7v-.8h5l-.39.56a3.19,3.19,0,0,0-.51-2,1.94,1.94,0,0,0-1.6-.7,2.11,2.11,0,0,0-1.72.77,3.36,3.36,0,0,0-.62,2.14,3.32,3.32,0,0,0,.65,2.22,2.4,2.4,0,0,0,1.91.75,3.61,3.61,0,0,0,1.27-.22,3.8,3.8,0,0,0,1.16-.67Z"/><path class="cls-9" d="M109,22.5V17.07c0-.35,0-.7,0-1.06s0-.71-.1-1.05H110l.17,1.86-.17-.05a2.36,2.36,0,0,1,.91-1.49,2.6,2.6,0,0,1,1.57-.5,2.23,2.23,0,0,1,.37,0,1.14,1.14,0,0,1,.32.07l0,1.1a2.76,2.76,0,0,0-.8-.11,1.92,1.92,0,0,0-1.94,1.22,3,3,0,0,0-.22,1.12v4.3Z"/></g><g class="cls-3"><path class="cls-9" d="M152.65,15.92V15h4.85v1Zm4.82,5.5v1l-.5.11a4.58,4.58,0,0,1-.55,0,2.26,2.26,0,0,1-1.67-.61,2.35,2.35,0,0,1-.62-1.79V13l1.21-.44V20a2.11,2.11,0,0,0,.17.93,1,1,0,0,0,.47.46,1.83,1.83,0,0,0,.68.12l.41,0Z"/><path class="cls-9" d="M162.09,22.61a3.49,3.49,0,0,1-1.88-.49A3.26,3.26,0,0,1,159,20.77a4.65,4.65,0,0,1-.44-2.08,4.64,4.64,0,0,1,.44-2.07,3.32,3.32,0,0,1,1.25-1.37,4,4,0,0,1,3.76,0,3.32,3.32,0,0,1,1.25,1.37,4.64,4.64,0,0,1,.44,2.07,4.65,4.65,0,0,1-.44,2.08A3.26,3.26,0,0,1,164,22.12,3.49,3.49,0,0,1,162.09,22.61Zm0-1a2.12,2.12,0,0,0,1.72-.74,3.4,3.4,0,0,0,.61-2.17,3.32,3.32,0,0,0-.62-2.15,2.09,2.09,0,0,0-1.71-.75,2.12,2.12,0,0,0-1.72.75,3.32,3.32,0,0,0-.62,2.15,3.34,3.34,0,0,0,.61,2.17A2.11,2.11,0,0,0,162.09,21.6Z"/><path class="cls-9" d="M174,22.61a4.4,4.4,0,0,1-3-1l.4-.9a4.23,4.23,0,0,0,1.24.68,4.27,4.27,0,0,0,1.42.22,2.43,2.43,0,0,0,1.3-.29,1,1,0,0,0,.44-.85.89.89,0,0,0-.3-.71,2.3,2.3,0,0,0-1-.43l-1.28-.3a2.82,2.82,0,0,1-1.46-.75,1.82,1.82,0,0,1-.52-1.29,1.93,1.93,0,0,1,.36-1.16,2.37,2.37,0,0,1,1-.79,3.77,3.77,0,0,1,1.53-.28,4.37,4.37,0,0,1,1.5.25,3.28,3.28,0,0,1,1.18.73l-.4.89a4.17,4.17,0,0,0-1.1-.67,3.38,3.38,0,0,0-1.18-.22,2.12,2.12,0,0,0-1.25.32,1.07,1.07,0,0,0-.17,1.59,1.94,1.94,0,0,0,.89.42l1.28.32a2.92,2.92,0,0,1,1.57.74,1.81,1.81,0,0,1,.5,1.31,1.85,1.85,0,0,1-.8,1.56A3.57,3.57,0,0,1,174,22.61Z"/><path class="cls-9" d="M178.9,22.5v-11h1.22v11Z"/><path class="cls-9" d="M185.37,22.61a3.2,3.2,0,0,1-1.76-.48,3,3,0,0,1-1.17-1.35,4.7,4.7,0,0,1-.42-2.06,4.78,4.78,0,0,1,.42-2.07,3.33,3.33,0,0,1,1.18-1.38,3.14,3.14,0,0,1,1.75-.49,2.94,2.94,0,0,1,1.75.51,2.48,2.48,0,0,1,1,1.45l-.18.12V15h1.2V22.5h-1.2V20.55l.18.09a2.51,2.51,0,0,1-1,1.45A2.88,2.88,0,0,1,185.37,22.61Zm.24-1a2,2,0,0,0,1.71-.76,3.38,3.38,0,0,0,.6-2.15,3.32,3.32,0,0,0-.61-2.15,2.06,2.06,0,0,0-1.7-.75,2.08,2.08,0,0,0-1.73.78,3.3,3.3,0,0,0-.63,2.15,3.22,3.22,0,0,0,.63,2.13A2.12,2.12,0,0,0,185.61,21.6Z"/><path class="cls-9" d="M193.69,22.5,190.48,15h1.28l2.73,6.65h-.36L196.89,15h1.21l-3.25,7.53Z"/><path class="cls-9" d="M205.53,21.6a3.34,3.34,0,0,1-1.27.73,4.74,4.74,0,0,1-1.58.28,4.16,4.16,0,0,1-2-.47,3.17,3.17,0,0,1-1.3-1.34,4.44,4.44,0,0,1-.46-2.09,4.47,4.47,0,0,1,.45-2.06,3.41,3.41,0,0,1,1.25-1.38,3.46,3.46,0,0,1,1.85-.49,3.2,3.2,0,0,1,1.73.44,2.8,2.8,0,0,1,1.1,1.27,4.59,4.59,0,0,1,.38,2v.23H200v-.8h5l-.39.56a3.19,3.19,0,0,0-.51-2,1.94,1.94,0,0,0-1.6-.7,2.11,2.11,0,0,0-1.72.77,3.36,3.36,0,0,0-.62,2.14,3.32,3.32,0,0,0,.65,2.22,2.4,2.4,0,0,0,1.91.75,3.61,3.61,0,0,0,1.27-.22,3.8,3.8,0,0,0,1.16-.67Z"/><path class="cls-9" d="M211.42,25.74V17.07c0-.35,0-.7,0-1.06a9.1,9.1,0,0,0-.1-1.05h1.16l.13,1.55-.12.23a2.48,2.48,0,0,1,1-1.45,2.93,2.93,0,0,1,1.74-.51,3.14,3.14,0,0,1,1.75.49,3.33,3.33,0,0,1,1.18,1.38,4.64,4.64,0,0,1,.43,2.07,4.57,4.57,0,0,1-.43,2.06,3.13,3.13,0,0,1-1.18,1.35,3.17,3.17,0,0,1-1.75.48,2.87,2.87,0,0,1-1.74-.52,2.51,2.51,0,0,1-1-1.45l.17-.15v5.25ZM215,21.6a2.09,2.09,0,0,0,1.71-.75,3.28,3.28,0,0,0,.62-2.13,3.36,3.36,0,0,0-.62-2.15,2.3,2.3,0,0,0-3.43,0,3.38,3.38,0,0,0-.6,2.15,3.38,3.38,0,0,0,.6,2.15A2,2,0,0,0,215,21.6Z"/><path class="cls-9" d="M220.3,11.76h1.49v1.38H220.3Zm.12,10.74V15h1.22V22.5Z"/><path class="cls-9" d="M224,22.5V17.07c0-.35,0-.7,0-1.06a9.1,9.1,0,0,0-.1-1.05H225l.13,1.55-.15.12a2.59,2.59,0,0,1,1.05-1.38,3,3,0,0,1,1.7-.47c1.81,0,2.71,1,2.71,3V22.5h-1.21V17.82a2.34,2.34,0,0,0-.42-1.54,1.67,1.67,0,0,0-1.32-.49,2.24,2.24,0,0,0-1.68.65,2.38,2.38,0,0,0-.63,1.74V22.5Z"/><path class="cls-9" d="M236,19.74v-.88h7.74v.88Zm.3-4.4v-.88h7.74v.88Zm.51,7.16,2.08-10.68h1L237.81,22.5Zm3.37,0,2.09-10.68h1L241.18,22.5Z"/></g><g class="cls-8"><rect class="cls-9" x="249.83" y="10" width="60" height="16" rx="4"/></g><g class="cls-3"><path class="cls-4" d="M256,22.5V17.07c0-.35,0-.7,0-1.06a9.1,9.1,0,0,0-.1-1.05H257l.13,1.55-.15.12a2.59,2.59,0,0,1,1.05-1.38,3,3,0,0,1,1.7-.47c1.81,0,2.71,1,2.71,3V22.5h-1.21V17.82a2.34,2.34,0,0,0-.42-1.54,1.67,1.67,0,0,0-1.32-.49,2.24,2.24,0,0,0-1.68.65,2.38,2.38,0,0,0-.63,1.74V22.5Z"/><path class="cls-4" d="M267.9,22.61a3.49,3.49,0,0,1-1.88-.49,3.26,3.26,0,0,1-1.25-1.35,4.65,4.65,0,0,1-.44-2.08,4.64,4.64,0,0,1,.44-2.07A3.32,3.32,0,0,1,266,15.25a4,4,0,0,1,3.76,0A3.32,3.32,0,0,1,271,16.62a4.64,4.64,0,0,1,.44,2.07,4.65,4.65,0,0,1-.44,2.08,3.26,3.26,0,0,1-1.25,1.35A3.49,3.49,0,0,1,267.9,22.61Zm0-1a2.12,2.12,0,0,0,1.72-.74,3.4,3.4,0,0,0,.6-2.17,3.32,3.32,0,0,0-.61-2.15,2.09,2.09,0,0,0-1.71-.75,2.12,2.12,0,0,0-1.72.75,3.32,3.32,0,0,0-.62,2.15,3.34,3.34,0,0,0,.61,2.17A2.11,2.11,0,0,0,267.9,21.6Z"/><path class="cls-4" d="M273.36,22.5V17.07c0-.35,0-.7,0-1.06s0-.71-.1-1.05h1.15l.14,1.55-.15.12a2.59,2.59,0,0,1,1.05-1.38,3,3,0,0,1,1.69-.47c1.81,0,2.72,1,2.72,3V22.5h-1.22V17.82a2.34,2.34,0,0,0-.42-1.54,1.67,1.67,0,0,0-1.32-.49,2.24,2.24,0,0,0-1.68.65,2.38,2.38,0,0,0-.63,1.74V22.5Z"/><path class="cls-4" d="M288.31,21.6a3.38,3.38,0,0,1-1.26.73,4.84,4.84,0,0,1-1.59.28,4.16,4.16,0,0,1-2-.47,3.17,3.17,0,0,1-1.3-1.34,4.57,4.57,0,0,1-.46-2.09,4.47,4.47,0,0,1,.45-2.06,3.41,3.41,0,0,1,1.25-1.38,3.49,3.49,0,0,1,1.86-.49,3.17,3.17,0,0,1,1.72.44,2.88,2.88,0,0,1,1.11,1.27,4.74,4.74,0,0,1,.38,2v.23h-5.7v-.8h5l-.39.56a3.19,3.19,0,0,0-.52-2,1.94,1.94,0,0,0-1.6-.7,2.11,2.11,0,0,0-1.72.77,3.36,3.36,0,0,0-.62,2.14,3.27,3.27,0,0,0,.66,2.22,2.39,2.39,0,0,0,1.91.75,3.65,3.65,0,0,0,1.27-.22,3.92,3.92,0,0,0,1.16-.67Z"/></g><polygon class="cls-4" points="300.86 22.31 305.83 13.69 295.88 13.69 300.86 22.31"/><polygon class="cls-4" points="44.95 22.31 49.93 13.69 39.98 13.69 44.95 22.31"/><rect class="cls-2" x="249.83" y="41.69" width="59.44" height="108.15" rx="5.67"/><g class="cls-3"><path class="cls-4" d="M255.41,54.56V49.13c0-.35,0-.7,0-1.05s0-.71-.1-1.06h1.15l.14,1.56-.15.12a2.61,2.61,0,0,1,1.05-1.39,3.09,3.09,0,0,1,1.69-.47c1.81,0,2.72,1,2.72,3v4.74h-1.22V49.88a2.29,2.29,0,0,0-.42-1.53,1.64,1.64,0,0,0-1.32-.49,2.24,2.24,0,0,0-1.68.64,2.38,2.38,0,0,0-.63,1.74v4.32Z"/><path class="cls-4" d="M267.3,54.67a3.6,3.6,0,0,1-1.88-.48,3.21,3.21,0,0,1-1.24-1.36,5,5,0,0,1,0-4.15,3.21,3.21,0,0,1,1.24-1.36,3.6,3.6,0,0,1,1.88-.48,3.64,3.64,0,0,1,1.89.48,3.21,3.21,0,0,1,1.24,1.36,5.11,5.11,0,0,1,0,4.15,3.21,3.21,0,0,1-1.24,1.36A3.64,3.64,0,0,1,267.3,54.67Zm0-1a2.08,2.08,0,0,0,1.72-.74,4.08,4.08,0,0,0,0-4.31,2.32,2.32,0,0,0-3.42,0,3.23,3.23,0,0,0-.63,2.14,3.36,3.36,0,0,0,.61,2.17A2.1,2.1,0,0,0,267.3,53.66Z"/><path class="cls-4" d="M272.76,54.56V49.13c0-.35,0-.7,0-1.05a9.28,9.28,0,0,0-.1-1.06h1.16l.13,1.56-.15.12a2.61,2.61,0,0,1,1.05-1.39,3.12,3.12,0,0,1,1.7-.47c1.81,0,2.71,1,2.71,3v4.74H278V49.88a2.29,2.29,0,0,0-.42-1.53,1.64,1.64,0,0,0-1.32-.49,2.24,2.24,0,0,0-1.68.64,2.38,2.38,0,0,0-.63,1.74v4.32Z"/><path class="cls-4" d="M287.72,53.66a3.49,3.49,0,0,1-1.27.74,4.73,4.73,0,0,1-1.58.27,4.16,4.16,0,0,1-2-.47,3.12,3.12,0,0,1-1.3-1.34,4.39,4.39,0,0,1-.46-2.09,4.5,4.5,0,0,1,.45-2.06,3.34,3.34,0,0,1,1.25-1.38,3.46,3.46,0,0,1,1.85-.49,3.29,3.29,0,0,1,1.73.44,2.85,2.85,0,0,1,1.1,1.27,4.6,4.6,0,0,1,.38,2v.22h-5.7V50h5l-.39.55a3.14,3.14,0,0,0-.51-2,1.91,1.91,0,0,0-1.6-.71,2.09,2.09,0,0,0-1.72.78,4,4,0,0,0,0,4.35,2.37,2.37,0,0,0,1.91.75,3.85,3.85,0,0,0,1.27-.21,4,4,0,0,0,1.16-.67Z"/><path class="cls-4" d="M256.16,72.56v-1h5.95v1Zm2.35-.55V62.6l.71.36-2.9,1.85V63.62l2.73-1.74h.71V72Z"/><path class="cls-4" d="M255.2,89h1.54v1.54H255.2Z"/><path class="cls-4" d="M255.2,107h1.54v1.54H255.2Z"/><path class="cls-4" d="M255.78,126.56h-1.27l4.69-10.68h1.08l4.7,10.68h-1.26l-4.19-9.78H260Zm.72-2.74.44-1h5.61l.43,1Z"/><path class="cls-4" d="M270.9,126.56v-9.13h.38l-4.44,6.4v-.61h6.9v1H266v-.93l5.15-7.43h1v10.68Z"/><path class="cls-4" d="M255.78,144.56h-1.27l4.69-10.68h1.08l4.7,10.68h-1.26l-4.19-9.78H260Zm.72-2.74.44-1h5.61l.43,1Z"/><path class="cls-4" d="M269.91,144.67a5.57,5.57,0,0,1-1.92-.35,4.68,4.68,0,0,1-1.59-1l.47-.95a6.15,6.15,0,0,0,1.49.92,4,4,0,0,0,1.55.31,2.42,2.42,0,0,0,1.77-.63,2.38,2.38,0,0,0,.63-1.74A2.54,2.54,0,0,0,272,140a2.09,2.09,0,0,0-.8-.84,2.44,2.44,0,0,0-1.23-.3,3.07,3.07,0,0,0-1.37.31,3.15,3.15,0,0,0-1.07.94h-.86v-6.26h6.41v1h-5.18v4.32l-.39,0a3,3,0,0,1,1.12-1,3.38,3.38,0,0,1,1.54-.34,3.46,3.46,0,0,1,1.77.43,2.87,2.87,0,0,1,1.15,1.19,3.73,3.73,0,0,1,.41,1.77,3.59,3.59,0,0,1-.44,1.78,3.17,3.17,0,0,1-1.26,1.2A4,4,0,0,1,269.91,144.67Z"/></g><polygon class="cls-4" points="300.86 54.38 305.83 45.75 295.88 45.75 300.86 54.38"/></g></g></svg>