<svg xmlns="http://www.w3.org/2000/svg" viewBox="0 0 595.28 138.96"><defs><style>.cls-1{fill:none;}.cls-2{fill:#3c866d;}.cls-3{fill:#4ba587;}.cls-4{fill:#81c1ab;}.cls-5{isolation:isolate;}.cls-6{fill:#fff;}.cls-7{opacity:0.6;}.cls-8{fill:#010101;}.cls-9{fill:#b2d5c7;}</style></defs><g id="Layer_2" data-name="Layer 2"><g id="Layer_1-2" data-name="Layer 1"><rect class="cls-1" width="595.28" height="18"/><path class="cls-2" d="M1,9A8,8,0,0,1,9,1H290.23V26H9a8,8,0,0,1-8-8Z"/><path class="cls-3" d="M0,8A8,8,0,0,1,8,0H289.23V25H8a8,8,0,0,1-8-8Z"/><path class="cls-4" d="M2.34,22.66A8,8,0,0,1,0,17V8H1v9A7,7,0,0,0,3.05,22ZM1,7.53,0,7.47A8,8,0,0,1,8,0H288.73V1H8A7,7,0,0,0,1,7.53Z"/><g class="cls-5"><path class="cls-6" d="M13.72,17.61a4.38,4.38,0,0,1-3-1l.4-.9a4.11,4.11,0,0,0,1.24.68,4.23,4.23,0,0,0,1.42.22,2.37,2.37,0,0,0,1.29-.29,1,1,0,0,0,.44-.85.91.91,0,0,0-.29-.71,2.41,2.41,0,0,0-1-.43l-1.27-.3a2.78,2.78,0,0,1-1.46-.75A1.78,1.78,0,0,1,11,12a1.93,1.93,0,0,1,.36-1.16,2.37,2.37,0,0,1,1-.79,3.7,3.7,0,0,1,1.53-.28,4.46,4.46,0,0,1,1.5.25,3.36,3.36,0,0,1,1.18.73l-.41.89A3.87,3.87,0,0,0,15,11a3.29,3.29,0,0,0-1.17-.22,2.17,2.17,0,0,0-1.26.32,1,1,0,0,0-.44.85,1,1,0,0,0,.28.74,1.89,1.89,0,0,0,.89.42l1.28.32a2.85,2.85,0,0,1,1.56.74,1.77,1.77,0,0,1,.5,1.31A1.84,1.84,0,0,1,15.88,17,3.57,3.57,0,0,1,13.72,17.61Z"/><path class="cls-6" d="M24.79,16.6a3.34,3.34,0,0,1-1.27.73,4.74,4.74,0,0,1-1.58.28,4.16,4.16,0,0,1-2-.47,3.17,3.17,0,0,1-1.3-1.34,4.44,4.44,0,0,1-.46-2.09,4.47,4.47,0,0,1,.45-2.06,3.41,3.41,0,0,1,1.25-1.38,3.46,3.46,0,0,1,1.85-.49,3.2,3.2,0,0,1,1.73.44,2.8,2.8,0,0,1,1.1,1.27,4.59,4.59,0,0,1,.38,2v.23H19.23v-.8h5l-.39.56a3.19,3.19,0,0,0-.51-2,1.94,1.94,0,0,0-1.6-.7,2.11,2.11,0,0,0-1.72.77,3.36,3.36,0,0,0-.62,2.14A3.32,3.32,0,0,0,20,15.85,2.41,2.41,0,0,0,22,16.6a3.56,3.56,0,0,0,1.26-.22,3.8,3.8,0,0,0,1.16-.67Z"/><path class="cls-6" d="M25.66,10.92V10H30.5v1Zm4.81,5.5v1l-.5.11a4.43,4.43,0,0,1-.55,0A2.27,2.27,0,0,1,27.75,17a2.39,2.39,0,0,1-.62-1.79V8l1.21-.44V15a2,2,0,0,0,.18.93,1,1,0,0,0,.47.46,1.78,1.78,0,0,0,.67.12l.41,0Z"/><path class="cls-6" d="M34.64,17.61a2.61,2.61,0,0,1-2-.75,3.23,3.23,0,0,1-.68-2.23V10h1.21v4.65a2.24,2.24,0,0,0,.42,1.5,1.65,1.65,0,0,0,1.28.47,2.13,2.13,0,0,0,1.62-.64,2.41,2.41,0,0,0,.61-1.73V10h1.22V17.5H37.1V15.87l.18-.09a2.48,2.48,0,0,1-1,1.36A2.91,2.91,0,0,1,34.64,17.61Z"/><path class="cls-6" d="M40.63,20.74V12.07c0-.35,0-.7,0-1.06s0-.71-.1-1h1.15l.14,1.55-.12.23a2.5,2.5,0,0,1,1-1.45,2.93,2.93,0,0,1,1.74-.51,3.12,3.12,0,0,1,1.75.49,3.35,3.35,0,0,1,1.19,1.38,4.78,4.78,0,0,1,.42,2.07,4.7,4.7,0,0,1-.42,2.06,3.13,3.13,0,0,1-2.94,1.83,2.87,2.87,0,0,1-1.74-.52,2.5,2.5,0,0,1-1-1.45l.16-.15v5.25Zm3.54-4.14a2.09,2.09,0,0,0,1.71-.75,3.28,3.28,0,0,0,.61-2.13,3.36,3.36,0,0,0-.61-2.15,2.06,2.06,0,0,0-1.71-.78,2.09,2.09,0,0,0-1.73.75,3.38,3.38,0,0,0-.6,2.15,3.38,3.38,0,0,0,.6,2.15A2.07,2.07,0,0,0,44.17,16.6Z"/></g><g class="cls-7"><rect class="cls-6" x="54.47" y="5" width="62.8" height="16" rx="4"/></g><g class="cls-5"><path class="cls-8" d="M63.19,17.61a4.42,4.42,0,0,1-3-1l.41-.9a4.18,4.18,0,0,0,1.23.68,4.27,4.27,0,0,0,1.42.22,2.43,2.43,0,0,0,1.3-.29,1,1,0,0,0,.44-.85.89.89,0,0,0-.3-.71,2.3,2.3,0,0,0-1-.43l-1.27-.3a2.86,2.86,0,0,1-1.47-.75A1.81,1.81,0,0,1,60.43,12a1.93,1.93,0,0,1,.36-1.16,2.34,2.34,0,0,1,1-.79,3.77,3.77,0,0,1,1.53-.28,4.37,4.37,0,0,1,1.5.25,3.32,3.32,0,0,1,1.19.73l-.41.89A4.17,4.17,0,0,0,64.5,11a3.38,3.38,0,0,0-1.18-.22,2.12,2.12,0,0,0-1.25.32,1.09,1.09,0,0,0-.17,1.59,2,2,0,0,0,.9.42l1.27.32a2.92,2.92,0,0,1,1.57.74,1.81,1.81,0,0,1,.5,1.31A1.84,1.84,0,0,1,65.35,17,3.57,3.57,0,0,1,63.19,17.61Z"/><path class="cls-8" d="M74.26,16.6a3.42,3.42,0,0,1-1.27.73,4.78,4.78,0,0,1-1.58.28,4.13,4.13,0,0,1-2-.47,3.19,3.19,0,0,1-1.31-1.34,4.57,4.57,0,0,1-.45-2.09,4.47,4.47,0,0,1,.45-2.06,3.34,3.34,0,0,1,1.25-1.38,3.43,3.43,0,0,1,1.85-.49,3.2,3.2,0,0,1,1.73.44A2.86,2.86,0,0,1,74,11.49a4.74,4.74,0,0,1,.38,2v.23h-5.7v-.8h5l-.39.56a3.13,3.13,0,0,0-.52-2,1.9,1.9,0,0,0-1.59-.7,2.1,2.1,0,0,0-1.72.77,3.31,3.31,0,0,0-.62,2.14,3.27,3.27,0,0,0,.65,2.22,2.39,2.39,0,0,0,1.91.75,3.65,3.65,0,0,0,1.27-.22,3.92,3.92,0,0,0,1.16-.67Z"/><path class="cls-8" d="M76.24,17.5V12.07c0-.35,0-.7,0-1.06a9.1,9.1,0,0,0-.09-1h1.15l.17,1.86-.17-.05a2.32,2.32,0,0,1,.91-1.49,2.58,2.58,0,0,1,1.57-.5,2.06,2.06,0,0,1,.36,0,1.14,1.14,0,0,1,.33.07l0,1.1a2.76,2.76,0,0,0-.8-.11,2.06,2.06,0,0,0-1.25.34,1.92,1.92,0,0,0-.69.88,2.8,2.8,0,0,0-.22,1.12v4.3Z"/><path class="cls-8" d="M81.55,6.76H83V8.14H81.55Zm.12,10.74V10h1.21V17.5Z"/><path class="cls-8" d="M88.13,17.61a3.2,3.2,0,0,1-1.76-.48,3,3,0,0,1-1.17-1.35,4.71,4.71,0,0,1-.41-2.06,4.78,4.78,0,0,1,.42-2.07,3.31,3.31,0,0,1,1.17-1.38,3.14,3.14,0,0,1,1.75-.49,3,3,0,0,1,1.76.51,2.5,2.5,0,0,1,1,1.45l-.18.12V10h1.2V17.5h-1.2V15.55l.18.09a2.5,2.5,0,0,1-1,1.45A2.91,2.91,0,0,1,88.13,17.61Zm.24-1a2,2,0,0,0,1.71-.76,3.38,3.38,0,0,0,.6-2.15,3.32,3.32,0,0,0-.61-2.15,2.06,2.06,0,0,0-1.7-.75,2.08,2.08,0,0,0-1.73.78A3.3,3.3,0,0,0,86,13.72a3.22,3.22,0,0,0,.62,2.13A2.12,2.12,0,0,0,88.37,16.6Z"/><path class="cls-8" d="M94.24,17.5v-11h1.21v11Z"/></g><g class="cls-5"><path class="cls-6" d="M123.23,10.12h1.54v1.56h-1.54Zm0,5.84h1.54V17.5h-1.54Z"/><path class="cls-6" d="M137.28,17.61a4.4,4.4,0,0,1-3-1l.4-.9a4.11,4.11,0,0,0,1.24.68,4.23,4.23,0,0,0,1.42.22,2.37,2.37,0,0,0,1.29-.29,1,1,0,0,0,.45-.85.89.89,0,0,0-.3-.71,2.3,2.3,0,0,0-1-.43l-1.28-.3A2.78,2.78,0,0,1,135,13.3a1.78,1.78,0,0,1-.52-1.29,1.93,1.93,0,0,1,.36-1.16,2.37,2.37,0,0,1,1-.79,3.77,3.77,0,0,1,1.53-.28,4.37,4.37,0,0,1,1.5.25,3.28,3.28,0,0,1,1.18.73l-.4.89a4.06,4.06,0,0,0-1.11-.67,3.29,3.29,0,0,0-1.17-.22,2.17,2.17,0,0,0-1.26.32,1,1,0,0,0-.44.85,1,1,0,0,0,.28.74,1.89,1.89,0,0,0,.89.42l1.28.32a2.85,2.85,0,0,1,1.56.74,1.78,1.78,0,0,1,.51,1.31,1.85,1.85,0,0,1-.8,1.56A3.57,3.57,0,0,1,137.28,17.61Z"/><path class="cls-6" d="M142.17,20.74V12.07c0-.35,0-.7,0-1.06s-.05-.71-.1-1h1.16l.13,1.55-.12.23a2.51,2.51,0,0,1,1-1.45,2.93,2.93,0,0,1,1.74-.51,3.08,3.08,0,0,1,1.74.49,3.35,3.35,0,0,1,1.19,1.38,4.78,4.78,0,0,1,.43,2.07,4.7,4.7,0,0,1-.43,2.06,3.13,3.13,0,0,1-2.93,1.83,2.87,2.87,0,0,1-1.74-.52,2.51,2.51,0,0,1-1-1.45l.17-.15v5.25Zm3.54-4.14a2.09,2.09,0,0,0,1.71-.75,3.28,3.28,0,0,0,.62-2.13,3.36,3.36,0,0,0-.62-2.15,2.3,2.3,0,0,0-3.43,0,3.38,3.38,0,0,0-.6,2.15,3.38,3.38,0,0,0,.6,2.15A2,2,0,0,0,145.71,16.6Z"/><path class="cls-6" d="M157.35,16.6a3.34,3.34,0,0,1-1.27.73,4.74,4.74,0,0,1-1.58.28,4.16,4.16,0,0,1-2-.47,3.17,3.17,0,0,1-1.3-1.34,4.44,4.44,0,0,1-.46-2.09,4.47,4.47,0,0,1,.45-2.06,3.41,3.41,0,0,1,1.25-1.38,3.49,3.49,0,0,1,1.86-.49,3.17,3.17,0,0,1,1.72.44,2.8,2.8,0,0,1,1.1,1.27,4.58,4.58,0,0,1,.39,2v.23h-5.7v-.8h5l-.39.56a3.19,3.19,0,0,0-.52-2,1.94,1.94,0,0,0-1.6-.7,2.11,2.11,0,0,0-1.72.77,3.36,3.36,0,0,0-.62,2.14,3.32,3.32,0,0,0,.65,2.22,2.42,2.42,0,0,0,1.92.75,3.56,3.56,0,0,0,1.26-.22,3.84,3.84,0,0,0,1.17-.67Z"/><path class="cls-6" d="M165.51,16.6a3.34,3.34,0,0,1-1.27.73,4.74,4.74,0,0,1-1.58.28,4.16,4.16,0,0,1-2-.47,3.17,3.17,0,0,1-1.3-1.34,4.44,4.44,0,0,1-.46-2.09,4.47,4.47,0,0,1,.45-2.06,3.41,3.41,0,0,1,1.25-1.38,3.49,3.49,0,0,1,1.86-.49,3.17,3.17,0,0,1,1.72.44,2.8,2.8,0,0,1,1.1,1.27,4.58,4.58,0,0,1,.39,2v.23H160v-.8h5l-.39.56a3.19,3.19,0,0,0-.52-2,1.94,1.94,0,0,0-1.6-.7,2.11,2.11,0,0,0-1.72.77,3.36,3.36,0,0,0-.62,2.14,3.32,3.32,0,0,0,.65,2.22,2.42,2.42,0,0,0,1.92.75,3.56,3.56,0,0,0,1.26-.22,3.84,3.84,0,0,0,1.17-.67Z"/><path class="cls-6" d="M174.14,17.5h-1.2v-2l.18.17a2.51,2.51,0,0,1-1,1.45,2.88,2.88,0,0,1-1.75.52,3.2,3.2,0,0,1-1.75-.49,3.26,3.26,0,0,1-1.18-1.38,4.86,4.86,0,0,1-.42-2.08,4.81,4.81,0,0,1,.41-2.05,3.06,3.06,0,0,1,2.94-1.83,2.94,2.94,0,0,1,1.75.51,2.58,2.58,0,0,1,1,1.45l-.2.15V6.46h1.22Zm-3.51-.9a2,2,0,0,0,1.7-.76,3.38,3.38,0,0,0,.61-2.15,3.38,3.38,0,0,0-.6-2.14,2.07,2.07,0,0,0-1.71-.76,2.15,2.15,0,0,0-1.74.75,3.27,3.27,0,0,0-.62,2.12,3.42,3.42,0,0,0,.62,2.17A2.13,2.13,0,0,0,170.63,16.6Z"/><path class="cls-6" d="M179.34,10.92V10h4.85v1Zm4.81,5.5v1l-.5.11a4.41,4.41,0,0,1-.54,0,2.28,2.28,0,0,1-1.68-.61,2.39,2.39,0,0,1-.62-1.79V8L182,7.58V15a2,2,0,0,0,.17.93,1,1,0,0,0,.47.46,1.78,1.78,0,0,0,.67.12l.41,0Z"/><path class="cls-6" d="M188.78,17.61a3.61,3.61,0,0,1-1.89-.48,3.33,3.33,0,0,1-1.24-1.36,4.52,4.52,0,0,1-.44-2.08,4.51,4.51,0,0,1,.44-2.07,3.3,3.3,0,0,1,1.24-1.37,4,4,0,0,1,3.77,0,3.3,3.3,0,0,1,1.24,1.37,4.51,4.51,0,0,1,.44,2.07,4.52,4.52,0,0,1-.44,2.08,3.33,3.33,0,0,1-1.24,1.36A3.63,3.63,0,0,1,188.78,17.61Zm0-1a2.1,2.1,0,0,0,1.71-.74,3.34,3.34,0,0,0,.61-2.17,3.26,3.26,0,0,0-.62-2.15,2.08,2.08,0,0,0-1.7-.75,2.11,2.11,0,0,0-1.72.75,3.26,3.26,0,0,0-.62,2.15,3.4,3.4,0,0,0,.6,2.17A2.15,2.15,0,0,0,188.78,16.6Z"/></g><g class="cls-7"><rect class="cls-6" x="196.5" y="5" width="52.87" height="16" rx="4"/></g><g class="cls-5"><path class="cls-8" d="M205.9,17.61a5.79,5.79,0,0,1-2-.35,4.39,4.39,0,0,1-1.61-1l.48-.95a5.11,5.11,0,0,0,1.48.92,4.16,4.16,0,0,0,1.61.31,2.59,2.59,0,0,0,1.73-.51,1.89,1.89,0,0,0,.59-1.5,1.81,1.81,0,0,0-.61-1.48,3,3,0,0,0-1.85-.49H204.5v-1h1a2.86,2.86,0,0,0,1.82-.52,1.84,1.84,0,0,0,.63-1.5,1.73,1.73,0,0,0-.52-1.34A2.11,2.11,0,0,0,206,7.74a4.11,4.11,0,0,0-1.55.3,6,6,0,0,0-1.49.92L202.46,8a4.68,4.68,0,0,1,1.59-1A5.65,5.65,0,0,1,206,6.7a3.85,3.85,0,0,1,1.68.34,2.45,2.45,0,0,1,1.1,1,2.65,2.65,0,0,1,.39,1.46,2.75,2.75,0,0,1-.52,1.68,2.53,2.53,0,0,1-1.42.95l0-.15a2.83,2.83,0,0,1,1.65.92,2.73,2.73,0,0,1,.56,1.76,2.7,2.7,0,0,1-.94,2.19A3.8,3.8,0,0,1,205.9,17.61Z"/><path class="cls-8" d="M215,17.62a3.14,3.14,0,0,1-2.78-1.39,7.14,7.14,0,0,1-.95-4.07,7.23,7.23,0,0,1,.94-4.07,3.5,3.5,0,0,1,5.58,0,7.2,7.2,0,0,1,.94,4.05,7.17,7.17,0,0,1-.95,4.08A3.13,3.13,0,0,1,215,17.62Zm0-1a2,2,0,0,0,1.88-1.08,7,7,0,0,0,.61-3.36,6.89,6.89,0,0,0-.61-3.33,2.19,2.19,0,0,0-3.76,0,6.87,6.87,0,0,0-.61,3.32,7,7,0,0,0,.61,3.36A2,2,0,0,0,215,16.58Z"/><path class="cls-8" d="M224,17.62a3.14,3.14,0,0,1-2.78-1.39,7.13,7.13,0,0,1-1-4.07,7.22,7.22,0,0,1,1-4.07,3.5,3.5,0,0,1,5.58,0,7.2,7.2,0,0,1,.94,4.05,7.17,7.17,0,0,1-.95,4.08A3.13,3.13,0,0,1,224,17.62Zm0-1a2,2,0,0,0,1.88-1.08,7,7,0,0,0,.61-3.36,6.89,6.89,0,0,0-.61-3.33,2.19,2.19,0,0,0-3.76,0,6.87,6.87,0,0,0-.61,3.32,7,7,0,0,0,.61,3.36A2,2,0,0,0,224,16.58Z"/></g><g class="cls-5"><path class="cls-6" d="M255.69,17.5V6.82H260a3.93,3.93,0,0,1,2.53.73,2.48,2.48,0,0,1,.92,2.06,2.45,2.45,0,0,1-.51,1.57,2.64,2.64,0,0,1-1.38.9V12a2.6,2.6,0,0,1,1.57.89,2.64,2.64,0,0,1,.57,1.74,2.61,2.61,0,0,1-.93,2.16,4.07,4.07,0,0,1-2.62.75Zm1.21-5.94h2.88a2.89,2.89,0,0,0,1.82-.48,1.68,1.68,0,0,0,.61-1.41,1.61,1.61,0,0,0-.6-1.37,3,3,0,0,0-1.83-.46H256.9Zm0,4.92H260a2.91,2.91,0,0,0,1.85-.47,1.7,1.7,0,0,0,.6-1.45,1.8,1.8,0,0,0-.6-1.47,2.88,2.88,0,0,0-1.85-.5H256.9Z"/><path class="cls-6" d="M265.9,17.5V6.82h4.26a3.75,3.75,0,0,1,2.57.8,2.72,2.72,0,0,1,.93,2.18,2.76,2.76,0,0,1-.93,2.2,3.79,3.79,0,0,1-2.57.8h-3v4.7Zm1.23-5.71h2.93a2.68,2.68,0,0,0,1.78-.52,1.85,1.85,0,0,0,.6-1.47,1.79,1.79,0,0,0-.6-1.45,2.68,2.68,0,0,0-1.78-.51h-2.93Z"/><path class="cls-6" d="M279.06,17.62a8.43,8.43,0,0,1-1.55-.14,5.63,5.63,0,0,1-1.33-.45,5.07,5.07,0,0,1-1.11-.76l.46-.94a5.44,5.44,0,0,0,1.63,1,6.06,6.06,0,0,0,1.91.28,3.41,3.41,0,0,0,2-.5,1.65,1.65,0,0,0,.71-1.42,1.15,1.15,0,0,0-.36-.89,2.33,2.33,0,0,0-1-.54c-.4-.14-.86-.26-1.37-.39a14.58,14.58,0,0,1-1.45-.38,5.32,5.32,0,0,1-1.23-.54,2.47,2.47,0,0,1-.83-.84,2.5,2.5,0,0,1-.3-1.28,2.76,2.76,0,0,1,.48-1.61,3.13,3.13,0,0,1,1.35-1.09,5,5,0,0,1,2.06-.39,5.92,5.92,0,0,1,1.41.16,5.18,5.18,0,0,1,1.25.46,4.46,4.46,0,0,1,1,.73l-.48.95a5.11,5.11,0,0,0-1.52-.95,4.66,4.66,0,0,0-1.69-.3,3.14,3.14,0,0,0-1.95.53,1.73,1.73,0,0,0-.71,1.47,1.39,1.39,0,0,0,.32.94,2.22,2.22,0,0,0,.88.58c.38.14.82.27,1.31.4s1,.25,1.5.38a7.58,7.58,0,0,1,1.28.52,2.55,2.55,0,0,1,.89.8,2.16,2.16,0,0,1,.33,1.24,2.69,2.69,0,0,1-.48,1.59,3.17,3.17,0,0,1-1.36,1.05A5.36,5.36,0,0,1,279.06,17.62Z"/></g><polygon class="cls-8" points="108.29 17.31 113.27 8.69 103.31 8.69 108.29 17.31"/><polygon class="cls-8" points="240.39 17.31 245.37 8.69 235.41 8.69 240.39 17.31"/><rect class="cls-9" x="54.47" y="31.69" width="62.81" height="16.06" rx="5.67"/><g class="cls-5"><path class="cls-8" d="M62.59,44.67a4.4,4.4,0,0,1-3-1l.4-.9a4.37,4.37,0,0,0,1.24.69,4.51,4.51,0,0,0,1.42.21,2.28,2.28,0,0,0,1.29-.29,1,1,0,0,0,.45-.85.9.9,0,0,0-.3-.71,2.42,2.42,0,0,0-1-.43l-1.28-.3a2.78,2.78,0,0,1-1.46-.75,1.78,1.78,0,0,1-.52-1.29,2,2,0,0,1,.36-1.16,2.45,2.45,0,0,1,1-.79,3.77,3.77,0,0,1,1.53-.28,4.37,4.37,0,0,1,1.5.25,3.16,3.16,0,0,1,1.18.74l-.4.88a3.78,3.78,0,0,0-1.11-.66,3.08,3.08,0,0,0-1.17-.22,2.17,2.17,0,0,0-1.26.31A1,1,0,0,0,61,39a1,1,0,0,0,.28.73,1.89,1.89,0,0,0,.89.42l1.28.32a3,3,0,0,1,1.56.74,1.79,1.79,0,0,1,.51,1.31,1.85,1.85,0,0,1-.8,1.56A3.57,3.57,0,0,1,62.59,44.67Z"/><path class="cls-8" d="M73.66,43.66a3.49,3.49,0,0,1-1.27.74,4.73,4.73,0,0,1-1.58.27,4.16,4.16,0,0,1-2-.47,3.12,3.12,0,0,1-1.3-1.34A4.39,4.39,0,0,1,67,40.77a4.5,4.5,0,0,1,.45-2.06,3.33,3.33,0,0,1,3.11-1.87,3.26,3.26,0,0,1,1.72.44,2.85,2.85,0,0,1,1.1,1.27,4.6,4.6,0,0,1,.39,2v.22H68.1V40h5l-.39.55a3.14,3.14,0,0,0-.52-2,1.91,1.91,0,0,0-1.6-.71,2.09,2.09,0,0,0-1.72.78,3.31,3.31,0,0,0-.62,2.13,3.32,3.32,0,0,0,.65,2.22,2.39,2.39,0,0,0,1.92.75,3.79,3.79,0,0,0,1.26-.21,4.06,4.06,0,0,0,1.17-.67Z"/><path class="cls-8" d="M75.64,44.56V39.13c0-.35,0-.7,0-1.05s-.05-.71-.1-1.06h1.16l.16,1.86-.16-.05a2.38,2.38,0,0,1,.9-1.49,2.67,2.67,0,0,1,1.57-.5l.37,0,.32.07,0,1.11a2.39,2.39,0,0,0-.79-.12,1.92,1.92,0,0,0-2,1.22,3.05,3.05,0,0,0-.21,1.12v4.3Z"/><path class="cls-8" d="M81,33.82h1.49V35.2H81Zm.12,10.74V37h1.22v7.54Z"/><path class="cls-8" d="M87.54,44.67a3.34,3.34,0,0,1-1.77-.47,3.22,3.22,0,0,1-1.17-1.35,4.93,4.93,0,0,1-.41-2.07,4.78,4.78,0,0,1,.42-2.07,3.32,3.32,0,0,1,1.18-1.38,3.12,3.12,0,0,1,1.75-.49,2.94,2.94,0,0,1,1.75.51,2.51,2.51,0,0,1,1,1.45l-.18.12V37h1.2v7.54h-1.2v-2l.18.09a2.54,2.54,0,0,1-1,1.46A2.94,2.94,0,0,1,87.54,44.67Zm.24-1a2.06,2.06,0,0,0,1.71-.75,3.43,3.43,0,0,0,.6-2.16,3.35,3.35,0,0,0-.61-2.14,2.07,2.07,0,0,0-1.7-.75,2.13,2.13,0,0,0-1.74.77,3.38,3.38,0,0,0-.62,2.15A3.26,3.26,0,0,0,86,42.91,2.12,2.12,0,0,0,87.78,43.66Z"/><path class="cls-8" d="M93.64,44.56v-11h1.22v11Z"/></g><polygon class="cls-8" points="108.29 44.38 113.27 35.75 103.31 35.75 108.29 44.38"/><rect class="cls-9" x="196.5" y="31.69" width="64.77" height="107.27" rx="5.67"/><g class="cls-5"><path class="cls-8" d="M205.9,44.67a5.79,5.79,0,0,1-2-.35,4.39,4.39,0,0,1-1.61-1l.48-1a5.37,5.37,0,0,0,1.48.93,4.34,4.34,0,0,0,1.61.3,2.59,2.59,0,0,0,1.73-.51,1.89,1.89,0,0,0,.59-1.5,1.77,1.77,0,0,0-.61-1.47,2.92,2.92,0,0,0-1.85-.49H204.5v-1h1a2.8,2.8,0,0,0,1.82-.52,1.84,1.84,0,0,0,.63-1.5,1.73,1.73,0,0,0-.52-1.34A2.16,2.16,0,0,0,206,34.8a3.94,3.94,0,0,0-1.55.31,5.74,5.74,0,0,0-1.49.92l-.46-1a4.51,4.51,0,0,1,1.59-1,5.43,5.43,0,0,1,1.95-.36,4,4,0,0,1,1.68.34,2.51,2.51,0,0,1,1.1.95,2.68,2.68,0,0,1,.39,1.46,2.8,2.8,0,0,1-.52,1.69,2.63,2.63,0,0,1-1.42.95l0-.15a2.87,2.87,0,0,1,1.65.91,3,3,0,0,1-.38,4A3.85,3.85,0,0,1,205.9,44.67Z"/><path class="cls-8" d="M215,44.68a3.16,3.16,0,0,1-2.78-1.38,7.2,7.2,0,0,1-.95-4.08,7.25,7.25,0,0,1,.94-4.07,3.5,3.5,0,0,1,5.58,0,7.23,7.23,0,0,1,.94,4.06,7.2,7.2,0,0,1-.95,4.08A3.14,3.14,0,0,1,215,44.68Zm0-1a2,2,0,0,0,1.88-1.08,7,7,0,0,0,.61-3.36,6.93,6.93,0,0,0-.61-3.34,2.19,2.19,0,0,0-3.76,0,6.91,6.91,0,0,0-.61,3.33,7,7,0,0,0,.61,3.36A2,2,0,0,0,215,43.65Z"/><path class="cls-8" d="M224,44.68a3.16,3.16,0,0,1-2.78-1.38,7.19,7.19,0,0,1-1-4.08,7.24,7.24,0,0,1,1-4.07,3.5,3.5,0,0,1,5.58,0,7.23,7.23,0,0,1,.94,4.06,7.2,7.2,0,0,1-.95,4.08A3.14,3.14,0,0,1,224,44.68Zm0-1a2,2,0,0,0,1.88-1.08,7,7,0,0,0,.61-3.36,6.93,6.93,0,0,0-.61-3.34,2.19,2.19,0,0,0-3.76,0,6.91,6.91,0,0,0-.61,3.33,7,7,0,0,0,.61,3.36A2,2,0,0,0,224,43.65Z"/><path class="cls-8" d="M206.35,62.68a3.56,3.56,0,0,1-3-1.34,6.11,6.11,0,0,1-1.05-3.85,8.56,8.56,0,0,1,.49-3.09,4.1,4.1,0,0,1,1.41-2,3.63,3.63,0,0,1,2.21-.68,5,5,0,0,1,1.8.34,4.74,4.74,0,0,1,1.55,1l-.47,1a5.64,5.64,0,0,0-1.45-.94,3.66,3.66,0,0,0-1.4-.29A2.4,2.4,0,0,0,204.31,54a6.55,6.55,0,0,0-.77,3.46v1.29l-.18-.41a2.81,2.81,0,0,1,.56-1.32,2.85,2.85,0,0,1,1.08-.87,3.31,3.31,0,0,1,1.45-.31,3.4,3.4,0,0,1,1.74.43,3,3,0,0,1,1.17,1.19,3.62,3.62,0,0,1,.42,1.77,3.57,3.57,0,0,1-.44,1.77,3.18,3.18,0,0,1-1.22,1.22A3.45,3.45,0,0,1,206.35,62.68Zm-.06-1a2.22,2.22,0,0,0,1.65-.65,2.42,2.42,0,0,0,.63-1.74,2.34,2.34,0,0,0-.63-1.71,2.21,2.21,0,0,0-1.67-.66,2.5,2.5,0,0,0-1.23.31,2.26,2.26,0,0,0-.84.84,2.45,2.45,0,0,0-.3,1.22,2.55,2.55,0,0,0,.3,1.26,2.16,2.16,0,0,0,.84.83A2.54,2.54,0,0,0,206.29,61.65Z"/><path class="cls-8" d="M215,62.68a3.16,3.16,0,0,1-2.78-1.38,7.2,7.2,0,0,1-.95-4.08,7.25,7.25,0,0,1,.94-4.07,3.5,3.5,0,0,1,5.58,0,7.23,7.23,0,0,1,.94,4.06,7.2,7.2,0,0,1-.95,4.08A3.14,3.14,0,0,1,215,62.68Zm0-1a2,2,0,0,0,1.88-1.08,7,7,0,0,0,.61-3.36,6.93,6.93,0,0,0-.61-3.34,2.19,2.19,0,0,0-3.76,0,6.91,6.91,0,0,0-.61,3.33,7,7,0,0,0,.61,3.36A2,2,0,0,0,215,61.65Z"/><path class="cls-8" d="M224,62.68a3.16,3.16,0,0,1-2.78-1.38,7.19,7.19,0,0,1-1-4.08,7.24,7.24,0,0,1,1-4.07,3.5,3.5,0,0,1,5.58,0,7.23,7.23,0,0,1,.94,4.06,7.2,7.2,0,0,1-.95,4.08A3.14,3.14,0,0,1,224,62.68Zm0-1a2,2,0,0,0,1.88-1.08,7,7,0,0,0,.61-3.36,6.93,6.93,0,0,0-.61-3.34,2.19,2.19,0,0,0-3.76,0,6.91,6.91,0,0,0-.61,3.33,7,7,0,0,0,.61,3.36A2,2,0,0,0,224,61.65Z"/><path class="cls-8" d="M202.46,79H204v1.54h-1.54Z"/><path class="cls-8" d="M202.46,97H204v1.54h-1.54Z"/><path class="cls-8" d="M206.17,116.67a5.52,5.52,0,0,1-1.92-.35,4.83,4.83,0,0,1-1.6-1l.47-.95a6.15,6.15,0,0,0,1.49.92,4,4,0,0,0,1.56.31,2.2,2.2,0,0,0,2.4-2.37,2.54,2.54,0,0,0-.29-1.23,2.09,2.09,0,0,0-.8-.84,2.41,2.41,0,0,0-1.23-.3,3.1,3.1,0,0,0-1.37.31,3.15,3.15,0,0,0-1.07.94H203v-6.26h6.4v1h-5.17v4.32l-.39,0a3,3,0,0,1,1.11-1,3.38,3.38,0,0,1,1.54-.34,3.46,3.46,0,0,1,1.77.43,2.89,2.89,0,0,1,1.16,1.19,3.73,3.73,0,0,1,.4,1.77,3.59,3.59,0,0,1-.44,1.78,3.14,3.14,0,0,1-1.25,1.2A4,4,0,0,1,206.17,116.67Z"/><path class="cls-8" d="M213.52,116.56h-1.33l5.24-10.14.11.5h-6.06v-1h7.05v.92Z"/><path class="cls-8" d="M224.34,116.68a3.54,3.54,0,0,1-3-1.34,6.11,6.11,0,0,1-1.05-3.85,8.56,8.56,0,0,1,.49-3.09,4.1,4.1,0,0,1,1.41-2,3.63,3.63,0,0,1,2.21-.68,5,5,0,0,1,1.8.34,4.7,4.7,0,0,1,1.54,1l-.46,1a5.64,5.64,0,0,0-1.45-.94,3.66,3.66,0,0,0-1.4-.29A2.42,2.42,0,0,0,222.3,108a6.55,6.55,0,0,0-.76,3.46v1.29l-.18-.41a2.8,2.8,0,0,1,.55-1.32,2.89,2.89,0,0,1,1.09-.87,3.31,3.31,0,0,1,1.45-.31,3.4,3.4,0,0,1,1.74.43,3,3,0,0,1,1.17,1.19,3.62,3.62,0,0,1,.42,1.77,3.57,3.57,0,0,1-.44,1.77,3.18,3.18,0,0,1-1.22,1.22A3.46,3.46,0,0,1,224.34,116.68Zm-.06-1a2.21,2.21,0,0,0,1.65-.65,2.42,2.42,0,0,0,.63-1.74,2.34,2.34,0,0,0-.63-1.71,2.18,2.18,0,0,0-1.66-.66,2.5,2.5,0,0,0-1.23.31,2.26,2.26,0,0,0-.84.84,2.45,2.45,0,0,0-.3,1.22,2.55,2.55,0,0,0,.3,1.26,2.16,2.16,0,0,0,.84.83A2.5,2.5,0,0,0,224.28,115.65Z"/><path class="cls-8" d="M233,116.68a3.16,3.16,0,0,1-2.78-1.38,9.17,9.17,0,0,1,0-8.15,3.5,3.5,0,0,1,5.58,0,9.24,9.24,0,0,1,0,8.14A3.14,3.14,0,0,1,233,116.68Zm0-1a2,2,0,0,0,1.88-1.08,7,7,0,0,0,.61-3.36,6.93,6.93,0,0,0-.61-3.34,2.19,2.19,0,0,0-3.76,0,6.91,6.91,0,0,0-.61,3.33,7,7,0,0,0,.61,3.36A2,2,0,0,0,233,115.65Z"/><path class="cls-8" d="M242,116.68a3.16,3.16,0,0,1-2.78-1.38,9.17,9.17,0,0,1,0-8.15,3.5,3.5,0,0,1,5.58,0,9.24,9.24,0,0,1,0,8.14A3.14,3.14,0,0,1,242,116.68Zm0-1a2,2,0,0,0,1.88-1.08,7,7,0,0,0,.61-3.36,6.93,6.93,0,0,0-.61-3.34,2.19,2.19,0,0,0-3.76,0,6.91,6.91,0,0,0-.61,3.33,7,7,0,0,0,.61,3.36A2,2,0,0,0,242,115.65Z"/><path class="cls-8" d="M203.42,134.56v-1h6v1Zm2.36-.55V124.6l.7.36-2.89,1.85v-1.19l2.73-1.74h.7V134Z"/><path class="cls-8" d="M212.42,134.56v-1h6v1Zm2.36-.55V124.6l.7.36-2.89,1.85v-1.19l2.73-1.74h.7V134Z"/><path class="cls-8" d="M224.16,134.67a5.57,5.57,0,0,1-1.92-.35,4.68,4.68,0,0,1-1.59-1l.47-.95a6.15,6.15,0,0,0,1.49.92,4,4,0,0,0,1.55.31,2.42,2.42,0,0,0,1.77-.63,2.38,2.38,0,0,0,.63-1.74,2.54,2.54,0,0,0-.28-1.23,2.09,2.09,0,0,0-.8-.84,2.44,2.44,0,0,0-1.23-.3,3.07,3.07,0,0,0-1.37.31,3.15,3.15,0,0,0-1.07.94H221v-6.26h6.41v1h-5.18v4.32l-.39,0a3,3,0,0,1,1.12-1,3.38,3.38,0,0,1,1.54-.34,3.46,3.46,0,0,1,1.77.43,2.87,2.87,0,0,1,1.15,1.19,3.73,3.73,0,0,1,.41,1.77,3.59,3.59,0,0,1-.44,1.78,3.17,3.17,0,0,1-1.26,1.2A4,4,0,0,1,224.16,134.67Z"/><path class="cls-8" d="M229.74,134.56v-.93l3.74-4.14a7.44,7.44,0,0,0,1.09-1.51,3,3,0,0,0,.35-1.35,1.77,1.77,0,0,0-.51-1.36,2.1,2.1,0,0,0-1.46-.47,3.91,3.91,0,0,0-1.53.31,5.79,5.79,0,0,0-1.5.92l-.46-1a4.63,4.63,0,0,1,1.59-1,5.45,5.45,0,0,1,1.93-.36,4,4,0,0,1,1.69.34,2.54,2.54,0,0,1,1.1,1,2.79,2.79,0,0,1,.39,1.5,3.89,3.89,0,0,1-.41,1.76,8.12,8.12,0,0,1-1.37,1.9l-3.6,3.9-.09-.6h5.92v1Z"/><path class="cls-8" d="M242,134.68a3.16,3.16,0,0,1-2.78-1.38,9.17,9.17,0,0,1,0-8.15,3.5,3.5,0,0,1,5.58,0,9.24,9.24,0,0,1,0,8.14A3.14,3.14,0,0,1,242,134.68Zm0-1a2,2,0,0,0,1.88-1.08,7,7,0,0,0,.61-3.36,6.93,6.93,0,0,0-.61-3.34,2.19,2.19,0,0,0-3.76,0,6.91,6.91,0,0,0-.61,3.33,7,7,0,0,0,.61,3.36A2,2,0,0,0,242,133.65Z"/><path class="cls-8" d="M251,134.68a3.16,3.16,0,0,1-2.78-1.38,9.17,9.17,0,0,1,0-8.15,3.5,3.5,0,0,1,5.58,0,9.24,9.24,0,0,1,0,8.14A3.14,3.14,0,0,1,251,134.68Zm0-1a2,2,0,0,0,1.88-1.08,7,7,0,0,0,.61-3.36,6.93,6.93,0,0,0-.61-3.34,2.19,2.19,0,0,0-3.76,0,6.91,6.91,0,0,0-.61,3.33,7,7,0,0,0,.61,3.36A2,2,0,0,0,251,133.65Z"/></g><polygon class="cls-8" points="251.33 44.38 256.31 35.75 246.35 35.75 251.33 44.38"/></g></g></svg>