<svg xmlns="http://www.w3.org/2000/svg" viewBox="0 0 595.28 60.69"><defs><style>.cls-1{fill:#4ba697;}.cls-2{fill:#ededee;}.cls-3{fill:#231f20;}.cls-4{fill:#ff5100;}.cls-5{fill:#dc4726;}.cls-6{fill:#3c9181;}.cls-7{fill:#93c7ec;}.cls-8{fill:#71b5e3;}.cls-9{fill:#dcecf9;}.cls-10{fill:#b9dbf3;}</style></defs><g id="Layer_2" data-name="Layer 2"><g id="Layer_1-2" data-name="Layer 1"><rect class="cls-1" y="4" width="595.28" height="56.69" rx="11.34"/><rect class="cls-2" width="595.28" height="56.69" rx="11.34"/><path class="cls-3" d="M96.86,39.13a13.25,13.25,0,0,1-6.63-1.6A10.71,10.71,0,0,1,85.93,33a15.35,15.35,0,0,1-1.49-7,15.13,15.13,0,0,1,1.49-6.93,10.71,10.71,0,0,1,4.3-4.54,13.15,13.15,0,0,1,6.63-1.6,15.3,15.3,0,0,1,4.88.77,9.91,9.91,0,0,1,3.79,2.25L104,19.33a12.72,12.72,0,0,0-3.45-2,10.35,10.35,0,0,0-3.64-.63,7.1,7.1,0,0,0-5.74,2.4q-2,2.39-2,6.93t2,7a7.06,7.06,0,0,0,5.74,2.43,10.35,10.35,0,0,0,3.64-.63,12.67,12.67,0,0,0,3.45-2l1.51,3.38a9.66,9.66,0,0,1-3.79,2.25A15,15,0,0,1,96.86,39.13Z"/><path class="cls-3" d="M117.41,39.09a9.93,9.93,0,0,1-4.91-1.15,7.89,7.89,0,0,1-3.19-3.26,10.63,10.63,0,0,1-1.11-5,10.77,10.77,0,0,1,1.11-5,7.87,7.87,0,0,1,3.19-3.3,10,10,0,0,1,4.91-1.15,9.94,9.94,0,0,1,4.85,1.15,8,8,0,0,1,3.2,3.3,10.53,10.53,0,0,1,1.13,5,10.4,10.4,0,0,1-1.13,5,8,8,0,0,1-3.2,3.26A9.83,9.83,0,0,1,117.41,39.09Zm0-3.45a4.15,4.15,0,0,0,3.44-1.5,7,7,0,0,0,1.21-4.48,7,7,0,0,0-1.21-4.45,4.17,4.17,0,0,0-3.44-1.49,4.33,4.33,0,0,0-3.51,1.49,6.88,6.88,0,0,0-1.24,4.45,6.92,6.92,0,0,0,1.23,4.48A4.27,4.27,0,0,0,117.41,35.64Z"/><path class="cls-3" d="M130.45,38.84v-13q0-1.26-.06-2.58a24.06,24.06,0,0,0-.23-2.57h4.25l.39,3.6-.39,0a6,6,0,0,1,2.3-3,6.46,6.46,0,0,1,3.74-1.08,5.91,5.91,0,0,1,4,1.28,6.38,6.38,0,0,1,1.89,3.91l-.87-.8a6.49,6.49,0,0,1,2.45-3.18,6.83,6.83,0,0,1,4-1.21,5.53,5.53,0,0,1,4.57,1.86q1.52,1.85,1.52,5.63V38.84h-4.5v-11a5.42,5.42,0,0,0-.7-3.07,2.67,2.67,0,0,0-2.33-1,3.54,3.54,0,0,0-2.93,1.31,5.6,5.6,0,0,0-1.06,3.62V38.84H142v-11a5.16,5.16,0,0,0-.74-3.07,2.71,2.71,0,0,0-2.32-1,3.57,3.57,0,0,0-3,1.31A5.6,5.6,0,0,0,135,28.69V38.84Z"/><path class="cls-3" d="M162.81,38.84v-13c0-.84,0-1.7-.05-2.58s-.12-1.73-.24-2.57h4.25l.39,3.6-.39,0a6.14,6.14,0,0,1,2.3-3,6.51,6.51,0,0,1,3.75-1.08,5.89,5.89,0,0,1,4,1.28,6.38,6.38,0,0,1,1.89,3.91l-.86-.8a6.44,6.44,0,0,1,2.45-3.18,6.81,6.81,0,0,1,4-1.21,5.54,5.54,0,0,1,4.57,1.86q1.51,1.85,1.51,5.63V38.84h-4.5v-11a5.34,5.34,0,0,0-.7-3.07,2.65,2.65,0,0,0-2.32-1A3.56,3.56,0,0,0,180,25.07a5.6,5.6,0,0,0-1.06,3.62V38.84h-4.5v-11a5.09,5.09,0,0,0-.74-3.07,2.69,2.69,0,0,0-2.32-1,3.6,3.6,0,0,0-3,1.31,5.6,5.6,0,0,0-1.06,3.62V38.84Z"/><path class="cls-3" d="M201.87,39.09c-3.31,0-5.93-.75-7.85-2.27l1.26-3.16a10.48,10.48,0,0,0,3.13,1.62,11.57,11.57,0,0,0,3.53.54,4.82,4.82,0,0,0,2.52-.54,1.7,1.7,0,0,0,.87-1.52,1.58,1.58,0,0,0-.62-1.31,5.69,5.69,0,0,0-2.09-.85l-3-.68a7.23,7.23,0,0,1-3.73-1.82,4.51,4.51,0,0,1-1.24-3.26,4.79,4.79,0,0,1,.94-2.93,6.14,6.14,0,0,1,2.63-2,9.9,9.9,0,0,1,3.92-.72,11.72,11.72,0,0,1,3.74.6A9.26,9.26,0,0,1,209,22.5l-1.3,3.09A10.49,10.49,0,0,0,204.91,24a8.58,8.58,0,0,0-2.83-.5,4.27,4.27,0,0,0-2.41.58,1.81,1.81,0,0,0-.86,1.58,1.59,1.59,0,0,0,.52,1.26,4.24,4.24,0,0,0,1.82.76l3.06.75a7.6,7.6,0,0,1,3.94,1.86,4.6,4.6,0,0,1,1.24,3.36,4.61,4.61,0,0,1-2,3.94A9.19,9.19,0,0,1,201.87,39.09Z"/><path class="cls-4" d="M58.16,30.77H49.09l-.56.22-2,1.83H36.78l-1,.55v9.14a2.7,2.7,0,0,0,2.69,2.7H52a.83.83,0,0,1,.82.83v3a.59.59,0,0,0,1,.38l3.24-3.89a.81.81,0,0,1,.63-.3h.4a2.7,2.7,0,0,0,2.69-2.7v-9a2.7,2.7,0,0,0-2.69-2.69Z"/><path class="cls-5" d="M56.17,46a.83.83,0,0,0-.83-.83H52a.83.83,0,0,1,.82.83v3a.59.59,0,0,0,1,.38l2.28-2.75Z"/><path class="cls-5" d="M39.07,42.51V33.37l1-.55H36.78l-1,.55v9.14a2.7,2.7,0,0,0,2.69,2.7h3.32a2.71,2.71,0,0,1-2.7-2.7Z"/><path class="cls-1" d="M49.09,21.53l-.69-.48H38l-2-1.88-.31-.24H26.7a2.7,2.7,0,0,0-2.7,2.7v9a2.7,2.7,0,0,0,2.7,2.7h.39a.83.83,0,0,1,.64.3L31,37.56a.58.58,0,0,0,1-.38v-3a.83.83,0,0,1,.83-.83H46.4a2.71,2.71,0,0,0,2.7-2.7v-9s0-.07,0-.1Z"/><path class="cls-6" d="M31,33.67a.83.83,0,0,0-.63-.3H30a2.71,2.71,0,0,1-2.7-2.7v-9a2.71,2.71,0,0,1,2.7-2.7H26.7a2.7,2.7,0,0,0-2.7,2.7v9a2.7,2.7,0,0,0,2.7,2.7h.39a.83.83,0,0,1,.64.3L31,37.56a.58.58,0,0,0,1-.38V34.82Z"/><path class="cls-7" d="M58.16,7.09H38.45a2.7,2.7,0,0,0-2.69,2.7v9a2.7,2.7,0,0,0,2.69,2.7H52a.83.83,0,0,1,.82.83v3a.59.59,0,0,0,1,.38l3.24-3.89a.81.81,0,0,1,.63-.3h.4a2.7,2.7,0,0,0,2.69-2.7v-9a2.7,2.7,0,0,0-2.69-2.7Z"/><path class="cls-8" d="M56.17,22.36a.83.83,0,0,0-.83-.83H52a.83.83,0,0,1,.82.83v3a.59.59,0,0,0,1,.38L56.17,23Z"/><path class="cls-8" d="M39.07,18.83v-9a2.71,2.71,0,0,1,2.7-2.7H38.45a2.7,2.7,0,0,0-2.69,2.7v9a2.7,2.7,0,0,0,2.69,2.7h3.32A2.71,2.71,0,0,1,39.07,18.83Z"/><path class="cls-9" d="M54.81,13h-.18l-.65.81v.91l.45.72.38.12a1.48,1.48,0,0,0,0-2.56Z"/><path class="cls-10" d="M54.07,14.31A1.47,1.47,0,0,1,54.81,13a1.44,1.44,0,0,0-.74-.2,1.48,1.48,0,1,0,0,3,1.44,1.44,0,0,0,.74-.2,1.47,1.47,0,0,1-.74-1.28Z"/><path class="cls-9" d="M48.79,13H48.6l-.64.81v.91l.45.72.38.12a1.48,1.48,0,0,0,0-2.56Z"/><path class="cls-10" d="M48.05,14.31A1.47,1.47,0,0,1,48.79,13a1.44,1.44,0,0,0-.74-.2,1.48,1.48,0,1,0,0,3,1.44,1.44,0,0,0,.74-.2,1.47,1.47,0,0,1-.74-1.28Z"/><path class="cls-9" d="M42.77,13h-.19l-.64.81v.91l.44.72.39.12a1.48,1.48,0,0,0,0-2.56Z"/><path class="cls-10" d="M42,14.31A1.46,1.46,0,0,1,42.77,13a1.48,1.48,0,1,0,0,2.56A1.46,1.46,0,0,1,42,14.31Z"/><path class="cls-9" d="M43.31,24.87h-.19l-.64.81v.91l.45.72.38.12a1.48,1.48,0,0,0,0-2.56Z"/><path class="cls-10" d="M42.57,26.15a1.47,1.47,0,0,1,.74-1.28,1.44,1.44,0,0,0-.74-.2,1.48,1.48,0,1,0,0,3,1.44,1.44,0,0,0,.74-.2,1.47,1.47,0,0,1-.74-1.28Z"/><path class="cls-9" d="M37.29,24.87H37.1l-.64.81v.91l.45.72.38.12a1.48,1.48,0,0,0,0-2.56Z"/><path class="cls-10" d="M36.55,26.15a1.47,1.47,0,0,1,.74-1.28,1.44,1.44,0,0,0-.74-.2,1.48,1.48,0,1,0,0,3,1.44,1.44,0,0,0,.74-.2,1.47,1.47,0,0,1-.74-1.28Z"/><path class="cls-9" d="M31.26,24.87h-.18l-.65.81v.91l.45.72.38.12a1.47,1.47,0,0,0,0-2.56Z"/><path class="cls-10" d="M30.52,26.15a1.47,1.47,0,0,1,.74-1.28,1.41,1.41,0,0,0-.74-.2,1.48,1.48,0,0,0,0,3,1.41,1.41,0,0,0,.74-.2,1.47,1.47,0,0,1-.74-1.28Z"/><path class="cls-9" d="M54.81,36.71h-.18l-.65.81v.91l.45.72.38.12a1.48,1.48,0,0,0,0-2.56Z"/><path class="cls-10" d="M54.07,38a1.47,1.47,0,0,1,.74-1.28,1.44,1.44,0,0,0-.74-.2,1.48,1.48,0,0,0,0,3,1.44,1.44,0,0,0,.74-.2A1.48,1.48,0,0,1,54.07,38Z"/><path class="cls-9" d="M48.79,36.71H48.6l-.64.81v.91l.45.72.38.12a1.48,1.48,0,0,0,0-2.56Z"/><path class="cls-10" d="M48.05,38a1.47,1.47,0,0,1,.74-1.28,1.44,1.44,0,0,0-.74-.2,1.48,1.48,0,1,0,0,3,1.44,1.44,0,0,0,.74-.2A1.48,1.48,0,0,1,48.05,38Z"/><path class="cls-9" d="M42.77,36.71h-.19l-.64.81v.91l.44.72.39.12a1.48,1.48,0,0,0,0-2.56Z"/><path class="cls-10" d="M42,38a1.46,1.46,0,0,1,.75-1.28,1.48,1.48,0,1,0,0,2.56A1.47,1.47,0,0,1,42,38Z"/></g></g></svg>