<svg xmlns="http://www.w3.org/2000/svg" viewBox="0 0 595.28 38.67"><defs><style>.cls-1{fill:#231f20;}.cls-2{fill:#4e4e4e;}.cls-3{fill:#3c3c3b;}.cls-4{fill:#818181;}.cls-5{fill:#616262;}.cls-6{fill:#ccc;}.cls-7{fill:#aeaeae;}.cls-8{fill:none;}</style></defs><g id="Layer_2" data-name="Layer 2"><g id="Layer_1-2" data-name="Layer 1"><path class="cls-1" d="M85.23,30.49V4.86h9.43a15.7,15.7,0,0,1,7.17,1.51,10.48,10.48,0,0,1,4.51,4.38,14.09,14.09,0,0,1,1.57,6.89,14.3,14.3,0,0,1-1.57,7A10.39,10.39,0,0,1,101.81,29a15.57,15.57,0,0,1-7.15,1.51Zm4.64-3.78h4.5c3,0,5.17-.75,6.65-2.26s2.21-3.78,2.21-6.81q0-9-8.86-9h-4.5Z"/><path class="cls-1" d="M112.05,4.07h5V8.5h-5Zm.22,26.42V12.31h4.5V30.49Z"/><path class="cls-1" d="M128.32,30.75a12.38,12.38,0,0,1-7.85-2.27l1.26-3.17a10.53,10.53,0,0,0,3.14,1.62,11.46,11.46,0,0,0,3.52.54,4.77,4.77,0,0,0,2.52-.54,1.68,1.68,0,0,0,.87-1.51,1.63,1.63,0,0,0-.61-1.32,5.79,5.79,0,0,0-2.09-.84l-3-.69a7.22,7.22,0,0,1-3.72-1.81,4.49,4.49,0,0,1-1.24-3.26,4.88,4.88,0,0,1,.93-2.94,6.18,6.18,0,0,1,2.63-2,10,10,0,0,1,3.92-.72,11.77,11.77,0,0,1,3.75.59,9.57,9.57,0,0,1,3.13,1.71l-1.3,3.1a10,10,0,0,0-2.79-1.55,8.33,8.33,0,0,0-2.82-.51,4.33,4.33,0,0,0-2.41.58,1.79,1.79,0,0,0-.87,1.58,1.63,1.63,0,0,0,.52,1.26,4.05,4.05,0,0,0,1.82.76l3.06.76A7.56,7.56,0,0,1,134.6,22a4.61,4.61,0,0,1,1.25,3.37,4.63,4.63,0,0,1-2,3.94A9.24,9.24,0,0,1,128.32,30.75Z"/><path class="cls-1" d="M139.66,38.27V17.46c0-.84,0-1.7,0-2.57s-.12-1.74-.24-2.58h4.25l.4,3.6-.25.22A5.51,5.51,0,0,1,146,13a7,7,0,0,1,4-1.13,7.43,7.43,0,0,1,4.19,1.2,8.27,8.27,0,0,1,2.87,3.35,11.42,11.42,0,0,1,1,5,11.08,11.08,0,0,1-1,4.95,7.8,7.8,0,0,1-2.85,3.24A7.69,7.69,0,0,1,150,30.75a7.2,7.2,0,0,1-4-1.1,5.32,5.32,0,0,1-2.26-3.12l.39-.57V38.27Zm9.22-11a4.15,4.15,0,0,0,3.45-1.53,6.78,6.78,0,0,0,1.23-4.34A7.11,7.11,0,0,0,152.33,17a4.09,4.09,0,0,0-3.45-1.59,4.19,4.19,0,0,0-3.51,1.53,7,7,0,0,0-1.21,4.45,7,7,0,0,0,1.21,4.39A4.18,4.18,0,0,0,148.88,27.29Z"/><path class="cls-1" d="M162,30.49V4h4.5V30.49Z"/><path class="cls-1" d="M178.43,30.75a7.84,7.84,0,0,1-4.21-1.14,7.34,7.34,0,0,1-2.82-3.24,11.51,11.51,0,0,1-1-4.95,11.71,11.71,0,0,1,1-5,8,8,0,0,1,2.83-3.35,7.43,7.43,0,0,1,4.19-1.2,7.07,7.07,0,0,1,4,1.13,5.65,5.65,0,0,1,2.32,3.15l-.43.25V12.31h4.43V30.49h-4.43v-4.1l.43.14a5.45,5.45,0,0,1-2.32,3.12A7.29,7.29,0,0,1,178.43,30.75Zm1.23-3.46a4.14,4.14,0,0,0,3.45-1.55,6.89,6.89,0,0,0,1.23-4.39,7,7,0,0,0-1.23-4.45,4.15,4.15,0,0,0-3.45-1.53A4.25,4.25,0,0,0,176.13,17a7,7,0,0,0-1.26,4.46,6.66,6.66,0,0,0,1.26,4.34A4.32,4.32,0,0,0,179.66,27.29Z"/><path class="cls-1" d="M199.53,31.68l-8.39-19.37h4.72l5.72,14.26Zm-6.3,7-1-3.46a14.57,14.57,0,0,0,2.81-.85,5.62,5.62,0,0,0,1.85-1.24,6.11,6.11,0,0,0,1.24-1.94l1.3-2.95,1.15-1.66,5.84-14.26h4.46l-8.42,19.41a13.16,13.16,0,0,1-2.42,3.8A9.3,9.3,0,0,1,197,37.66,15.4,15.4,0,0,1,193.23,38.67Z"/><path class="cls-2" d="M62.5,0H22.35a1.18,1.18,0,0,0-1.18,1.19V23l20.88,3,21.64-3V1.19A1.19,1.19,0,0,0,62.5,0Z"/><path class="cls-3" d="M62.5,0H47.24L30.93,27H62.5a1.19,1.19,0,0,0,1.19-1.19V1.19A1.19,1.19,0,0,0,62.5,0Z"/><polygon class="cls-4" points="46.21 26.38 47.1 33.74 37.75 33.74 38.64 26.38 46.21 26.38"/><polygon class="cls-5" points="46.8 31.27 46.21 26.38 38.64 26.38 38.05 31.27 46.8 31.27"/><path class="cls-6" d="M33.36,23H21.17v2.83A1.18,1.18,0,0,0,22.35,27H62.5a1.19,1.19,0,0,0,1.19-1.19V23Z"/><path class="cls-7" d="M33.36,23l-2.43,4H62.5a1.19,1.19,0,0,0,1.19-1.19V23Z"/><path class="cls-6" d="M50.42,34.2h-16a.62.62,0,0,1,0-1.24h16a.62.62,0,1,1,0,1.24Z"/><rect class="cls-8" width="595.28" height="18"/></g></g></svg>