<svg xmlns="http://www.w3.org/2000/svg" viewBox="0 0 595.28 41"><defs><style>.cls-1,.cls-14,.cls-4,.cls-7{fill:none;}.cls-2{fill:#8e4582;}.cls-3{fill:#b056a1;}.cls-4{stroke:#c788bb;}.cls-5{fill:#3c866d;}.cls-6{fill:#4ba587;}.cls-7{stroke:#81c1ab;}.cls-8{opacity:0.6;}.cls-15,.cls-9{fill:#fff;}.cls-10,.cls-15{isolation:isolate;}.cls-11{fill:#010101;}.cls-12{fill:#3d4986;}.cls-13{fill:#4c5ba6;}.cls-14{stroke:#818dc1;}.cls-15{font-size:15px;font-family:Mulish-Regular, Mulish;}</style></defs><g id="Layer_2" data-name="Layer 2"><g id="Layer_1-2" data-name="Layer 1"><rect class="cls-1" width="595.28" height="18"/><path class="cls-2" d="M1,9A8,8,0,0,1,9,1h7l6,4h3l6-4H358.68V37H30.5l-6,4h-3l-6-4H9a8,8,0,0,1-8-8ZM216.62,6H116.05v5c0,10-8-8-8,7.5s8-2.5,8,7.5v7H216.62ZM283,6h-30.8v5c0,10-8-8-8,7.5s8-2.5,8,7.5v7H283Zm65.7,0h-30.8v5c0,10-8-8-8,7.5s8-2.5,8,7.5v7h30.8Z"/><path class="cls-3" d="M0,8A8,8,0,0,1,8,0h7l6,4h3l6-4H357.68V36H29.5l-6,4h-3l-6-4H8a8,8,0,0,1-8-8ZM215.62,5H115.05v5c0,10-8-8-8,7.5s8-2.5,8,7.5v7H215.62ZM282,5h-30.8v5c0,10-8-8-8,7.5s8-2.5,8,7.5v7H282Zm65.7,0h-30.8v5c0,10-8-8-8,7.5s8-2.5,8,7.5v7h30.8Z"/><path class="cls-4" d="M.5,7.5A7.5,7.5,0,0,1,8,.5h7l6,4h3l6-4h9.5m0,0H357.18M2.7,33.3A7.47,7.47,0,0,1,.5,28V8M216.12,5.5v27H115.55M110,24.3l3.68-2.1M282.48,5.5v27h-30.8m-5.6-8.2,3.68-2.1M348.18,5.5v27h-30.8m-5.6-8.2,3.68-2.1"/><path class="cls-5" d="M117.05,7h98.57V32H117.05V27c0-10-8,8-8-7.5s8,2.5,8-7.5Z"/><path class="cls-6" d="M116.05,6h98.57V31H116.05V26c0-10-8,8-8-7.5s8,2.5,8-7.5Z"/><path class="cls-7" d="M116.55,6.5h97.57m-97.57,24v-6m-7.36-.5a20.35,20.35,0,0,1,0-11m7.36,1V6.5h.5"/><g class="cls-8"><rect class="cls-9" x="143.05" y="11" width="44.57" height="16" rx="4"/></g><g class="cls-10"><path class="cls-11" d="M149.37,23.5V12.82h1.22V23.5Zm.57-4.9v-1h7.74v1ZM157,23.5V12.82h1.23V23.5Z"/><path class="cls-11" d="M166.89,22.6a3.49,3.49,0,0,1-1.27.74,5,5,0,0,1-1.58.27,4.16,4.16,0,0,1-2-.47,3.17,3.17,0,0,1-1.3-1.34,4.44,4.44,0,0,1-.46-2.09,4.5,4.5,0,0,1,.45-2.06A3.41,3.41,0,0,1,162,16.27a3.47,3.47,0,0,1,1.86-.49,3.19,3.19,0,0,1,1.72.44,2.8,2.8,0,0,1,1.1,1.27,4.6,4.6,0,0,1,.39,2v.22h-5.7v-.8h5l-.4.56a3.14,3.14,0,0,0-.51-2,1.91,1.91,0,0,0-1.6-.71,2.11,2.11,0,0,0-1.72.77,3.36,3.36,0,0,0-.62,2.14,3.32,3.32,0,0,0,.65,2.22,2.41,2.41,0,0,0,1.92.75,3.56,3.56,0,0,0,1.26-.22,4,4,0,0,0,1.16-.66Z"/><path class="cls-11" d="M168.87,23.5v-11h1.22v11Z"/><path class="cls-11" d="M172.44,23.5v-11h1.21v11Z"/><path class="cls-11" d="M179.13,23.61a3.58,3.58,0,0,1-1.88-.48A3.29,3.29,0,0,1,176,21.77a4.65,4.65,0,0,1-.44-2.08,4.64,4.64,0,0,1,.44-2.07,3.23,3.23,0,0,1,1.25-1.36,3.92,3.92,0,0,1,3.76,0,3.23,3.23,0,0,1,1.25,1.36,4.64,4.64,0,0,1,.44,2.07,4.65,4.65,0,0,1-.44,2.08A3.29,3.29,0,0,1,181,23.13,3.58,3.58,0,0,1,179.13,23.61Zm0-1a2.12,2.12,0,0,0,1.72-.74,3.4,3.4,0,0,0,.61-2.17,3.29,3.29,0,0,0-.62-2.14,2.09,2.09,0,0,0-1.71-.75,2.12,2.12,0,0,0-1.72.75,3.29,3.29,0,0,0-.62,2.14,3.34,3.34,0,0,0,.61,2.17A2.11,2.11,0,0,0,179.13,22.6Z"/></g><path class="cls-12" d="M253.18,7H282V32h-28.8V27c0-10-8,8-8-7.5s8,2.5,8-7.5Z"/><path class="cls-13" d="M252.18,6H281V31h-28.8V26c0-10-8,8-8-7.5s8,2.5,8-7.5Z"/><path class="cls-14" d="M252.68,6.5h27.8m-27.8,24v-6m-7.36-.5a20.35,20.35,0,0,1,0-11m7.36,1V6.5h.5"/><g class="cls-8"><rect class="cls-9" x="257.18" y="11" width="18.8" height="16" rx="4"/></g><g class="cls-10"><path class="cls-11" d="M266.68,23.62a3.15,3.15,0,0,1-2.78-1.39,7.22,7.22,0,0,1-.95-4.07,7.23,7.23,0,0,1,.94-4.07,3.5,3.5,0,0,1,5.58,0,7.19,7.19,0,0,1,.95,4.05,7.23,7.23,0,0,1-.95,4.08A3.16,3.16,0,0,1,266.68,23.62Zm0-1a2,2,0,0,0,1.89-1.08,7.21,7.21,0,0,0,.6-3.37,7,7,0,0,0-.6-3.33,2.2,2.2,0,0,0-3.77,0,7,7,0,0,0-.61,3.32,7.19,7.19,0,0,0,.61,3.37A2,2,0,0,0,266.68,22.59Z"/></g><path class="cls-12" d="M318.88,7h28.8V32h-28.8V27c0-10-8,8-8-7.5s8,2.5,8-7.5Z"/><path class="cls-13" d="M317.88,6h28.8V31h-28.8V26c0-10-8,8-8-7.5s8,2.5,8-7.5Z"/><path class="cls-14" d="M318.38,6.5h27.8m-27.8,24v-6M311,24a20.35,20.35,0,0,1,0-11m7.36,1V6.5h.5"/><g class="cls-8"><rect class="cls-9" x="322.88" y="11" width="18.8" height="16" rx="4"/></g><g class="cls-10"><path class="cls-11" d="M332.38,23.62a3.15,3.15,0,0,1-2.78-1.39,7.22,7.22,0,0,1-1-4.07,7.23,7.23,0,0,1,.94-4.07,3.5,3.5,0,0,1,5.58,0,7.19,7.19,0,0,1,.95,4.05,7.23,7.23,0,0,1-.95,4.08A3.16,3.16,0,0,1,332.38,23.62Zm0-1a2,2,0,0,0,1.89-1.08,7.21,7.21,0,0,0,.6-3.37,7,7,0,0,0-.6-3.33,2.2,2.2,0,0,0-3.77,0,7,7,0,0,0-.61,3.32,7.19,7.19,0,0,0,.61,3.37A2,2,0,0,0,332.38,22.59Z"/></g><text class="cls-15" transform="translate(10 22.5)">display write</text><text class="cls-15" transform="translate(225.62 22.5)">X</text><text class="cls-15" transform="translate(291.98 22.5)">Y</text><path class="cls-9" d="M128.19,11.32l2,1.56a8,8,0,0,0-1.87,2.72,7.42,7.42,0,0,0-.46,2.57l-1.25-.88h3.79v5.39H125V18.89a11,11,0,0,1,.7-4A10.29,10.29,0,0,1,128.19,11.32Zm8.71,0,2,1.56A8,8,0,0,0,137,15.6a7.43,7.43,0,0,0-.47,2.57l-1.24-.88h3.78v5.39h-5.34V18.89a11.18,11.18,0,0,1,.7-4A10.46,10.46,0,0,1,136.9,11.32Z"/><path class="cls-9" d="M193.77,22.68l-2-1.56a9,9,0,0,0,1.87-2.75,7.17,7.17,0,0,0,.46-2.54l1.25.83h-3.79V11.32h5.34v3.79a10.77,10.77,0,0,1-.7,3.94A11,11,0,0,1,193.77,22.68Zm8.71,0-2-1.56a9,9,0,0,0,1.87-2.75,7.17,7.17,0,0,0,.46-2.54l1.25.83H200.3V11.32h5.34v3.79a10.77,10.77,0,0,1-.7,3.94A11.12,11.12,0,0,1,202.48,22.68Z"/></g></g></svg>