<svg xmlns="http://www.w3.org/2000/svg" viewBox="0 0 595.28 144.8"><defs><style>.cls-1{fill:#ff5100;}.cls-2{fill:#231f20;}.cls-3{fill:none;}</style></defs><g id="Layer_2" data-name="Layer 2"><g id="Layer_1-2" data-name="Layer 1"><rect x="91.42" y="68.74" width="7.09" height="7.09"/><rect x="83.15" y="68.74" width="7.09" height="7.09"/><rect x="99.69" y="43.94" width="7.09" height="7.09"/><rect x="99.69" y="52.21" width="7.09" height="7.09"/><rect x="99.69" y="85.28" width="7.09" height="7.09"/><rect x="99.69" y="77.01" width="7.09" height="7.09"/><rect x="99.69" y="68.74" width="7.09" height="7.09"/><rect x="99.69" y="60.47" width="7.09" height="7.09"/><rect x="99.69" y="93.55" width="7.09" height="7.09"/><rect x="74.88" y="68.74" width="7.09" height="7.09"/><rect x="66.62" y="43.94" width="7.09" height="7.09"/><rect x="66.62" y="68.74" width="7.09" height="7.09"/><rect x="66.62" y="60.47" width="7.09" height="7.09"/><rect x="66.62" y="77.01" width="7.09" height="7.09"/><rect x="66.62" y="93.55" width="7.09" height="7.09"/><rect x="66.62" y="85.28" width="7.09" height="7.09"/><rect x="66.62" y="52.21" width="7.09" height="7.09"/><rect x="124.49" y="93.54" width="7.09" height="7.09"/><rect x="141.03" y="93.54" width="7.09" height="7.09"/><rect x="149.29" y="77.01" width="7.09" height="7.09"/><rect x="149.29" y="68.74" width="7.09" height="7.09"/><rect x="124.49" y="60.47" width="7.09" height="7.09"/><rect x="124.49" y="77.01" width="7.09" height="7.09"/><rect x="116.22" y="68.74" width="7.09" height="7.09"/><rect x="116.22" y="85.28" width="7.09" height="7.09"/><rect x="116.22" y="77.01" width="7.09" height="7.09"/><rect x="141.03" y="77.01" width="7.09" height="7.09"/><rect x="141.03" y="60.47" width="7.09" height="7.09"/><rect x="132.76" y="77.01" width="7.09" height="7.09"/><rect x="132.76" y="60.47" width="7.09" height="7.09"/><rect x="132.76" y="93.54" width="7.09" height="7.09"/><rect x="182.37" y="93.54" width="7.09" height="7.09"/><rect x="174.1" y="43.94" width="7.09" height="7.09"/><rect x="174.1" y="52.21" width="7.09" height="7.09"/><rect x="174.1" y="68.74" width="7.09" height="7.09"/><rect x="174.1" y="60.47" width="7.09" height="7.09"/><rect x="174.1" y="77.01" width="7.09" height="7.09"/><rect x="174.1" y="85.28" width="7.09" height="7.09"/><rect x="174.1" y="93.54" width="7.09" height="7.09"/><rect x="165.83" y="43.94" width="7.09" height="7.09"/><rect x="165.83" y="93.54" width="7.09" height="7.09"/><rect x="231.97" y="93.54" width="7.09" height="7.09"/><rect x="223.7" y="43.94" width="7.09" height="7.09"/><rect x="223.7" y="52.21" width="7.09" height="7.09"/><rect x="223.7" y="68.74" width="7.09" height="7.09"/><rect x="223.7" y="60.47" width="7.09" height="7.09"/><rect x="223.7" y="77.01" width="7.09" height="7.09"/><rect x="223.7" y="85.28" width="7.09" height="7.09"/><rect x="223.7" y="93.54" width="7.09" height="7.09"/><rect x="215.44" y="43.94" width="7.09" height="7.09"/><rect x="215.44" y="93.54" width="7.09" height="7.09"/><rect x="273.31" y="60.47" width="7.09" height="7.09"/><rect x="273.31" y="93.54" width="7.09" height="7.09"/><rect x="265.04" y="77.01" width="7.09" height="7.09"/><rect x="265.04" y="68.74" width="7.09" height="7.09"/><rect x="265.04" y="85.28" width="7.09" height="7.09"/><rect x="289.84" y="77.01" width="7.09" height="7.09"/><rect x="289.84" y="68.74" width="7.09" height="7.09"/><rect x="289.84" y="85.28" width="7.09" height="7.09"/><rect x="281.58" y="60.47" width="7.09" height="7.09"/><rect x="281.58" y="93.54" width="7.09" height="7.09"/><path class="cls-1" d="M304.45,100.63a.5.5,0,0,1-.5-.5V44.44a.5.5,0,0,1,1,0v55.69A.5.5,0,0,1,304.45,100.63Z"/><rect class="cls-1" x="301.2" y="43.94" width="6.5" height="1"/><rect class="cls-1" x="301.2" y="99.63" width="6.5" height="1"/><path class="cls-1" d="M106.27,108.21H67.12a.5.5,0,0,1-.5-.5.5.5,0,0,1,.5-.5h39.15a.5.5,0,0,1,.5.5A.5.5,0,0,1,106.27,108.21Z"/><rect class="cls-1" x="105.77" y="104.46" width="1" height="6.5"/><rect class="cls-1" x="66.62" y="104.46" width="1" height="6.5"/><path class="cls-1" d="M115.6,37.21h-8.38a.5.5,0,0,1-.5-.5.51.51,0,0,1,.5-.5h8.38a.51.51,0,0,1,.5.5A.5.5,0,0,1,115.6,37.21Z"/><rect class="cls-1" x="115.1" y="33.46" width="1" height="6.5"/><rect class="cls-1" x="106.72" y="33.46" width="1" height="6.5"/><circle class="cls-1" cx="64.62" cy="41.94" r="2"/><path class="cls-2" d="M67.61,125v-10.3h1.13V125Z"/><path class="cls-2" d="M76.71,124.13a3.36,3.36,0,0,1-1.19.69,4.37,4.37,0,0,1-1.47.25,3.88,3.88,0,0,1-1.89-.43A3,3,0,0,1,71,123.38a4.07,4.07,0,0,1-.43-1.95,4.18,4.18,0,0,1,.42-1.92,3.18,3.18,0,0,1,1.17-1.29,3.29,3.29,0,0,1,1.73-.46,3,3,0,0,1,1.61.42,2.71,2.71,0,0,1,1,1.18,4.49,4.49,0,0,1,.35,1.85v.21H71.51v-.75h4.68l-.37.52a2.92,2.92,0,0,0-.48-1.89,1.77,1.77,0,0,0-1.49-.66,1.91,1.91,0,0,0-1.6.73,3.06,3.06,0,0,0-.58,2,3,3,0,0,0,.61,2.07,2.21,2.21,0,0,0,1.78.7,3.57,3.57,0,0,0,1.18-.2,3.86,3.86,0,0,0,1.09-.62Z"/><path class="cls-2" d="M77.52,118.83v-.9H82v.9ZM82,124v1a4,4,0,0,1-.47.11,3.89,3.89,0,0,1-.51,0,2.18,2.18,0,0,1-1.56-.56,2.21,2.21,0,0,1-.58-1.68v-6.71l1.13-.4v7a1.82,1.82,0,0,0,.17.86.84.84,0,0,0,.44.43,1.54,1.54,0,0,0,.63.12,2.05,2.05,0,0,0,.37,0A2.15,2.15,0,0,0,82,124Z"/><path class="cls-2" d="M82.46,118.83v-.9H87v.9ZM87,124v1a3.84,3.84,0,0,1-.46.11,4.17,4.17,0,0,1-.52,0,2.18,2.18,0,0,1-1.56-.56,2.25,2.25,0,0,1-.58-1.68v-6.71l1.14-.4v7a1.83,1.83,0,0,0,.16.86.84.84,0,0,0,.44.43,1.54,1.54,0,0,0,.63.12,2.25,2.25,0,0,0,.38,0A2.31,2.31,0,0,0,87,124Z"/><path class="cls-2" d="M94.12,124.13a3.32,3.32,0,0,1-1.18.69,4.38,4.38,0,0,1-1.48.25,3.84,3.84,0,0,1-1.88-.43,3,3,0,0,1-1.22-1.26,4.62,4.62,0,0,1,0-3.87,3.18,3.18,0,0,1,1.17-1.29,3.31,3.31,0,0,1,1.73-.46,3,3,0,0,1,1.61.42,2.65,2.65,0,0,1,1,1.18,4.33,4.33,0,0,1,.36,1.85v.21H88.93v-.75H93.6l-.36.52a2.92,2.92,0,0,0-.48-1.89,1.77,1.77,0,0,0-1.49-.66,1.93,1.93,0,0,0-1.61.73,3.12,3.12,0,0,0-.58,2,3,3,0,0,0,.61,2.07,2.24,2.24,0,0,0,1.79.7,3.61,3.61,0,0,0,1.18-.2,3.68,3.68,0,0,0,1.08-.62Z"/><path class="cls-2" d="M96,125V119.9c0-.32,0-.65,0-1s0-.66-.09-1h1.08l.15,1.74-.15,0a2.21,2.21,0,0,1,.84-1.39,2.48,2.48,0,0,1,1.47-.47l.34,0,.3.07,0,1a2.35,2.35,0,0,0-.74-.11,2,2,0,0,0-1.17.32,1.9,1.9,0,0,0-.64.82,2.65,2.65,0,0,0-.21,1v4Z"/><path class="cls-2" d="M106.58,125l-2.6-7h1.19l2.17,6.2H107l2.24-6.2h1l2.21,6.2h-.36l2.21-6.2h1.12l-2.61,7h-1.09l-2.32-6.34H110L107.67,125Z"/><path class="cls-2" d="M116.75,115h1.38v1.29h-1.38Zm.11,10v-7H118v7Z"/><path class="cls-2" d="M126.39,125h-1.12v-1.89l.17.16a2.33,2.33,0,0,1-.91,1.35,2.74,2.74,0,0,1-1.64.48,3,3,0,0,1-1.63-.45,3.09,3.09,0,0,1-1.1-1.29,5,5,0,0,1,0-3.86,2.92,2.92,0,0,1,2.74-1.71,2.68,2.68,0,0,1,1.64.49,2.36,2.36,0,0,1,.91,1.35l-.18.14v-5.07h1.13Zm-3.27-.84a1.89,1.89,0,0,0,1.58-.7,3.84,3.84,0,0,0,0-4,1.91,1.91,0,0,0-1.59-.71,2,2,0,0,0-1.62.7,3,3,0,0,0-.58,2,3.12,3.12,0,0,0,.58,2A2,2,0,0,0,123.12,124.13Z"/><path class="cls-2" d="M127.59,118.83v-.9h4.53v.9Zm4.5,5.13v1a4.52,4.52,0,0,1-.47.11,3.89,3.89,0,0,1-.51,0,2.18,2.18,0,0,1-1.56-.56,2.21,2.21,0,0,1-.58-1.68v-6.71l1.13-.4v7a1.83,1.83,0,0,0,.16.86.91.91,0,0,0,.44.43,1.61,1.61,0,0,0,.63.12,2.17,2.17,0,0,0,.38,0A2.4,2.4,0,0,0,132.09,124Z"/><path class="cls-2" d="M133.49,125v-10.3h1.13v4.69l-.18.14a2.45,2.45,0,0,1,1-1.3,2.91,2.91,0,0,1,1.58-.44c1.69,0,2.54.93,2.54,2.79V125H138.4V120.6a2.16,2.16,0,0,0-.39-1.43,1.55,1.55,0,0,0-1.23-.46,2.11,2.11,0,0,0-1.57.61,2.22,2.22,0,0,0-.59,1.62v4Z"/><path class="cls-2" d="M70.87,141.87a5,5,0,0,1-1.79-.33,4.33,4.33,0,0,1-1.49-.9l.44-.88a5.71,5.71,0,0,0,1.39.85,3.65,3.65,0,0,0,1.45.29,2.06,2.06,0,0,0,2.24-2.21,2.35,2.35,0,0,0-.27-1.15,1.94,1.94,0,0,0-.75-.78,2.19,2.19,0,0,0-1.14-.28,2.7,2.7,0,0,0-2.28,1.16h-.8V131.8h6v1H69v4l-.36,0a2.61,2.61,0,0,1,1-.91,3,3,0,0,1,1.43-.33,3.37,3.37,0,0,1,1.66.4A2.75,2.75,0,0,1,73.86,137a3.67,3.67,0,0,1,0,3.31,2.93,2.93,0,0,1-1.17,1.12A3.61,3.61,0,0,1,70.87,141.87Z"/><path class="cls-2" d="M79.66,144.8v-8.1c0-.32,0-.65,0-1s0-.66-.09-1h1.08l.12,1.46-.11.21a2.35,2.35,0,0,1,.91-1.36,2.72,2.72,0,0,1,1.62-.48,3,3,0,0,1,1.64.46,3.09,3.09,0,0,1,1.1,1.29,4.86,4.86,0,0,1,0,3.86,2.89,2.89,0,0,1-1.1,1.26,3,3,0,0,1-1.64.44,2.72,2.72,0,0,1-1.62-.48,2.33,2.33,0,0,1-.91-1.35l.15-.14v4.9Zm3.3-3.87a1.93,1.93,0,0,0,1.6-.7,3.06,3.06,0,0,0,.57-2,3.15,3.15,0,0,0-.57-2,1.9,1.9,0,0,0-1.6-.73,2,2,0,0,0-1.61.7,3.18,3.18,0,0,0-.56,2,3.22,3.22,0,0,0,.56,2A1.94,1.94,0,0,0,83,140.93Z"/><path class="cls-2" d="M88,131.75h1.38V133H88Zm.11,10v-7h1.13v7Z"/><path class="cls-2" d="M91.84,141.77H90.45l2.93-3.62.66-.83,2-2.59h1.39l-2.75,3.42L94,139Zm4.42,0L94,139l-.66-.85-2.76-3.42H92L94,137.32l.68.83,2.9,3.62Z"/><path class="cls-2" d="M104.51,140.93a3.32,3.32,0,0,1-1.18.69,4.42,4.42,0,0,1-1.48.25,3.81,3.81,0,0,1-1.88-.43,2.91,2.91,0,0,1-1.22-1.26,4.07,4.07,0,0,1-.43-2,4.18,4.18,0,0,1,.42-1.92A3.18,3.18,0,0,1,99.91,135a3.31,3.31,0,0,1,1.73-.46,3,3,0,0,1,1.61.42,2.65,2.65,0,0,1,1,1.18,4.33,4.33,0,0,1,.36,1.85v.21H99.32v-.75H104l-.36.52a2.92,2.92,0,0,0-.48-1.89,1.79,1.79,0,0,0-1.5-.66,1.93,1.93,0,0,0-1.6.73,3.06,3.06,0,0,0-.58,2,3,3,0,0,0,.61,2.07,2.23,2.23,0,0,0,1.78.7,3.62,3.62,0,0,0,1.19-.2,3.68,3.68,0,0,0,1.08-.62Z"/><path class="cls-2" d="M106.36,141.77v-10.3h1.13v10.3Z"/><path class="cls-2" d="M112.07,141.87a4.08,4.08,0,0,1-2.81-.91l.37-.84a4.17,4.17,0,0,0,1.16.64,4.25,4.25,0,0,0,1.32.2,2.21,2.21,0,0,0,1.21-.27.89.89,0,0,0,.42-.79.87.87,0,0,0-.28-.67,2.4,2.4,0,0,0-.93-.4l-1.19-.28a2.56,2.56,0,0,1-1.36-.7,1.63,1.63,0,0,1-.49-1.2,1.88,1.88,0,0,1,.34-1.09,2.25,2.25,0,0,1,.94-.73,3.44,3.44,0,0,1,1.43-.27,4.08,4.08,0,0,1,1.4.24,3,3,0,0,1,1.1.69l-.38.82a3.49,3.49,0,0,0-1-.62,2.89,2.89,0,0,0-1.09-.2,2,2,0,0,0-1.17.29.93.93,0,0,0-.42.8.9.9,0,0,0,.26.68,1.83,1.83,0,0,0,.84.4l1.19.29a2.81,2.81,0,0,1,1.46.69,1.81,1.81,0,0,1-.27,2.68A3.32,3.32,0,0,1,112.07,141.87Z"/><path class="cls-2" d="M311.29,68V57.66h1.14V68Z"/><path class="cls-2" d="M320.39,67.13a3.3,3.3,0,0,1-1.18.68,4.38,4.38,0,0,1-1.48.25,3.84,3.84,0,0,1-1.88-.43,3,3,0,0,1-1.22-1.25,4.26,4.26,0,0,1-.43-2,4.16,4.16,0,0,1,.42-1.91,3.18,3.18,0,0,1,1.17-1.29,3.22,3.22,0,0,1,1.73-.46,3,3,0,0,1,1.61.41,2.65,2.65,0,0,1,1,1.18,4.36,4.36,0,0,1,.36,1.85v.21H315.2v-.74h4.67l-.36.52A2.88,2.88,0,0,0,319,62.3a1.77,1.77,0,0,0-1.49-.66,2,2,0,0,0-1.61.72,3.78,3.78,0,0,0,0,4.07,2.27,2.27,0,0,0,1.79.7,3.37,3.37,0,0,0,1.18-.21A3.47,3.47,0,0,0,320,66.3Z"/><path class="cls-2" d="M321.2,61.82v-.9h4.53v.9ZM325.7,67v1a2.89,2.89,0,0,1-.47.11,3.89,3.89,0,0,1-.51,0,2.12,2.12,0,0,1-1.56-.56,2.21,2.21,0,0,1-.58-1.68v-6.7l1.13-.41v7a1.9,1.9,0,0,0,.16.87.89.89,0,0,0,.44.42,1.61,1.61,0,0,0,.63.12l.38,0Z"/><path class="cls-2" d="M326.15,61.82v-.9h4.52v.9ZM330.64,67v1a2.66,2.66,0,0,1-.47.11,3.89,3.89,0,0,1-.51,0,2.13,2.13,0,0,1-1.56-.56,2.21,2.21,0,0,1-.58-1.68v-6.7l1.13-.41v7a1.9,1.9,0,0,0,.16.87.89.89,0,0,0,.44.42,1.61,1.61,0,0,0,.63.12l.38,0Z"/><path class="cls-2" d="M337.81,67.13a3.35,3.35,0,0,1-1.19.68,4.37,4.37,0,0,1-1.47.25,3.88,3.88,0,0,1-1.89-.43,3,3,0,0,1-1.21-1.25,4.62,4.62,0,0,1,0-3.87,3.12,3.12,0,0,1,2.9-1.75,3,3,0,0,1,1.61.41,2.71,2.71,0,0,1,1,1.18,4.52,4.52,0,0,1,.35,1.85v.21h-5.32v-.74h4.68l-.37.52a2.88,2.88,0,0,0-.48-1.89,1.77,1.77,0,0,0-1.49-.66,2,2,0,0,0-1.6.72,3.78,3.78,0,0,0,0,4.07,2.25,2.25,0,0,0,1.78.7,3.33,3.33,0,0,0,1.18-.21,3.63,3.63,0,0,0,1.09-.62Z"/><path class="cls-2" d="M339.66,68V62.9q0-.49,0-1a8.28,8.28,0,0,0-.09-1h1.08l.16,1.74-.16,0a2.15,2.15,0,0,1,.85-1.39,2.38,2.38,0,0,1,1.46-.47,1.83,1.83,0,0,1,.34,0,1.55,1.55,0,0,1,.31.06l0,1a2.13,2.13,0,0,0-.74-.12,1.89,1.89,0,0,0-1.17.33,1.84,1.84,0,0,0-.65.81,2.88,2.88,0,0,0-.2,1.05v4Z"/><path class="cls-2" d="M348.38,68V57.66h1.13v4.69l-.18.14a2.39,2.39,0,0,1,1-1.29,2.81,2.81,0,0,1,1.58-.44c1.69,0,2.53.92,2.53,2.78V68h-1.13V63.6a2.19,2.19,0,0,0-.39-1.44,1.54,1.54,0,0,0-1.23-.45,2.09,2.09,0,0,0-1.57.6,2.22,2.22,0,0,0-.59,1.62v4Z"/><path class="cls-2" d="M362.34,67.13a3.35,3.35,0,0,1-1.19.68,4.37,4.37,0,0,1-1.47.25,3.88,3.88,0,0,1-1.89-.43,3.06,3.06,0,0,1-1.22-1.25,4.26,4.26,0,0,1-.42-2,4.16,4.16,0,0,1,.42-1.91,3.12,3.12,0,0,1,2.9-1.75,3,3,0,0,1,1.61.41,2.63,2.63,0,0,1,1,1.18,4.36,4.36,0,0,1,.36,1.85v.21h-5.32v-.74h4.68l-.37.52A2.88,2.88,0,0,0,361,62.3a1.77,1.77,0,0,0-1.49-.66,1.93,1.93,0,0,0-1.6.72,3.06,3.06,0,0,0-.58,2,3.13,3.13,0,0,0,.6,2.08,2.28,2.28,0,0,0,1.79.7,3.37,3.37,0,0,0,1.18-.21A3.63,3.63,0,0,0,362,66.3Z"/><path class="cls-2" d="M364.07,57.94h1.39v1.29h-1.39Zm.11,10v-7h1.14v7Z"/><path class="cls-2" d="M370.61,71.09a5.09,5.09,0,0,1-2.77-.73l.19-.92a5.69,5.69,0,0,0,1.25.54,4.88,4.88,0,0,0,1.33.17,2,2,0,0,0,1.53-.54,2.2,2.2,0,0,0,.53-1.6V66.1l.15-.18a2.71,2.71,0,0,1-.52,1,2.45,2.45,0,0,1-.88.63,2.92,2.92,0,0,1-1.18.23,3,3,0,0,1-1.64-.45,3.05,3.05,0,0,1-1.11-1.22,4,4,0,0,1-.4-1.83,4.09,4.09,0,0,1,.4-1.84,3.05,3.05,0,0,1,1.11-1.22,3,3,0,0,1,1.64-.44,2.78,2.78,0,0,1,1.66.48,2.33,2.33,0,0,1,.92,1.35l-.17-.15V60.92h1.14v7a2.83,2.83,0,0,1-3.18,3.18Zm-.14-4.29a2,2,0,0,0,1.6-.67,2.79,2.79,0,0,0,.58-1.87,2.76,2.76,0,0,0-.58-1.87,2,2,0,0,0-1.6-.68,2,2,0,0,0-1.63.68,3.21,3.21,0,0,0,0,3.74A2,2,0,0,0,370.47,66.8Z"/><path class="cls-2" d="M376,68V57.66h1.13v4.69l-.18.14a2.44,2.44,0,0,1,1-1.29,2.84,2.84,0,0,1,1.59-.44c1.68,0,2.53.92,2.53,2.78V68h-1.14V63.6a2.19,2.19,0,0,0-.39-1.44,1.54,1.54,0,0,0-1.23-.45,2.1,2.1,0,0,0-1.57.6,2.22,2.22,0,0,0-.59,1.62v4Z"/><path class="cls-2" d="M383.17,61.82v-.9h4.52v.9ZM387.66,67v1a2.66,2.66,0,0,1-.47.11,3.89,3.89,0,0,1-.51,0,2.13,2.13,0,0,1-1.56-.56,2.21,2.21,0,0,1-.58-1.68v-6.7l1.13-.41v7a2,2,0,0,0,.16.87.89.89,0,0,0,.44.42,1.61,1.61,0,0,0,.63.12l.38,0Z"/><path class="cls-2" d="M313,84.77h-1.23l4.89-9.47.1.46h-5.66v-1h6.58v.85Z"/><path class="cls-2" d="M323.35,87.79V79.7c0-.33,0-.66,0-1s-.05-.66-.1-1h1.08l.13,1.46-.11.21a2.31,2.31,0,0,1,.91-1.36,2.68,2.68,0,0,1,1.62-.47,2.88,2.88,0,0,1,1.63.46,3.19,3.19,0,0,1,1.11,1.29,4.46,4.46,0,0,1,.4,1.93,4.38,4.38,0,0,1-.4,1.92,3,3,0,0,1-1.1,1.26,3,3,0,0,1-1.64.44,2.68,2.68,0,0,1-1.62-.47,2.31,2.31,0,0,1-.91-1.36l.15-.14v4.9Zm3.3-3.86a2,2,0,0,0,1.6-.7,3.08,3.08,0,0,0,.57-2,3.16,3.16,0,0,0-.57-2,2.17,2.17,0,0,0-3.21,0,3.13,3.13,0,0,0-.56,2,3.18,3.18,0,0,0,.56,2A1.93,1.93,0,0,0,326.65,83.93Z"/><path class="cls-2" d="M331.63,74.74H333V76h-1.39Zm.11,10v-7h1.14v7Z"/><path class="cls-2" d="M335.53,84.77h-1.39l2.93-3.63.65-.83,2-2.59h1.38l-2.74,3.42-.69.85Zm4.42,0L337.72,82l-.65-.85-2.76-3.42h1.37l2,2.59.69.83,2.9,3.63Z"/><path class="cls-2" d="M348.2,83.93a3.35,3.35,0,0,1-1.19.68,4.37,4.37,0,0,1-1.47.25,3.88,3.88,0,0,1-1.89-.43,3.06,3.06,0,0,1-1.22-1.25,4.26,4.26,0,0,1-.42-2,4.16,4.16,0,0,1,.42-1.91,3.12,3.12,0,0,1,2.9-1.75,3,3,0,0,1,1.61.41,2.63,2.63,0,0,1,1,1.18,4.36,4.36,0,0,1,.36,1.85v.21H343v-.74h4.68l-.37.52a2.9,2.9,0,0,0-.48-1.89,1.77,1.77,0,0,0-1.49-.66,1.93,1.93,0,0,0-1.6.72,3.06,3.06,0,0,0-.58,2,3.13,3.13,0,0,0,.6,2.08,2.28,2.28,0,0,0,1.79.7,3.37,3.37,0,0,0,1.18-.21,3.63,3.63,0,0,0,1.09-.62Z"/><path class="cls-2" d="M350,84.77V74.46h1.14V84.77Z"/><path class="cls-2" d="M355.75,84.86a4.1,4.1,0,0,1-2.81-.91l.38-.84a3.88,3.88,0,0,0,1.15.64,4,4,0,0,0,1.33.2,2.24,2.24,0,0,0,1.21-.27.89.89,0,0,0,.41-.79.81.81,0,0,0-.28-.66,2.09,2.09,0,0,0-.92-.4L355,81.55a2.66,2.66,0,0,1-1.37-.7,1.7,1.7,0,0,1-.48-1.21,1.76,1.76,0,0,1,.34-1.08,2.16,2.16,0,0,1,.93-.74,3.65,3.65,0,0,1,1.43-.26,4.28,4.28,0,0,1,1.4.23,3,3,0,0,1,1.11.69l-.38.83a3.92,3.92,0,0,0-1-.63,3.15,3.15,0,0,0-1.1-.2,2.06,2.06,0,0,0-1.17.29,1,1,0,0,0-.41.8.94.94,0,0,0,.26.69,1.74,1.74,0,0,0,.83.39l1.19.29a2.74,2.74,0,0,1,1.46.7,1.65,1.65,0,0,1,.47,1.22,1.71,1.71,0,0,1-.74,1.46A3.36,3.36,0,0,1,355.75,84.86Z"/><path class="cls-2" d="M107.44,12V1.68h1.14V12Z"/><path class="cls-2" d="M116.54,11.14a3.23,3.23,0,0,1-1.18.69,4.38,4.38,0,0,1-1.48.25,3.87,3.87,0,0,1-1.88-.43,3,3,0,0,1-1.22-1.25,4.26,4.26,0,0,1-.42-2,4.05,4.05,0,0,1,.42-1.92,3.13,3.13,0,0,1,1.16-1.28,3.23,3.23,0,0,1,1.73-.47,3,3,0,0,1,1.61.42,2.65,2.65,0,0,1,1,1.18,4.33,4.33,0,0,1,.36,1.85v.21h-5.32V7.69H116l-.37.51a2.92,2.92,0,0,0-.48-1.89,1.79,1.79,0,0,0-1.49-.65,2,2,0,0,0-1.61.72,3.12,3.12,0,0,0-.58,2,3.08,3.08,0,0,0,.61,2.07,2.24,2.24,0,0,0,1.79.7,3.36,3.36,0,0,0,1.18-.2,3.63,3.63,0,0,0,1.09-.62Z"/><path class="cls-2" d="M117.36,5.84v-.9h4.52v.9ZM121.85,11v1a4.52,4.52,0,0,1-.47.11,3.89,3.89,0,0,1-.51,0,2.13,2.13,0,0,1-1.56-.56,2.21,2.21,0,0,1-.58-1.68V3.14l1.13-.41v7a1.9,1.9,0,0,0,.16.87.94.94,0,0,0,.44.42,1.61,1.61,0,0,0,.63.12,2.17,2.17,0,0,0,.38,0A2.27,2.27,0,0,0,121.85,11Z"/><path class="cls-2" d="M122.3,5.84v-.9h4.52v.9ZM126.79,11v1a4,4,0,0,1-.47.11,3.89,3.89,0,0,1-.51,0,2.13,2.13,0,0,1-1.56-.56,2.21,2.21,0,0,1-.58-1.68V3.14l1.13-.41v7a2,2,0,0,0,.16.87.91.91,0,0,0,.45.42,1.52,1.52,0,0,0,.62.12,2.17,2.17,0,0,0,.38,0A2.07,2.07,0,0,0,126.79,11Z"/><path class="cls-2" d="M134,11.14a3.32,3.32,0,0,1-1.18.69,4.47,4.47,0,0,1-1.48.25,3.81,3.81,0,0,1-1.88-.43,2.94,2.94,0,0,1-1.22-1.25,4.14,4.14,0,0,1-.43-2,4.18,4.18,0,0,1,.42-1.92,3.09,3.09,0,0,1,1.17-1.28,3.23,3.23,0,0,1,1.73-.47,3,3,0,0,1,1.61.42,2.65,2.65,0,0,1,1,1.18,4.33,4.33,0,0,1,.35,1.85v.21h-5.32V7.69h4.68l-.36.51a2.92,2.92,0,0,0-.49-1.89,1.78,1.78,0,0,0-1.49-.65,2,2,0,0,0-1.6.72,3.06,3.06,0,0,0-.58,2,3,3,0,0,0,.61,2.07,2.21,2.21,0,0,0,1.78.7,3.42,3.42,0,0,0,1.19-.2,3.59,3.59,0,0,0,1.08-.62Z"/><path class="cls-2" d="M135.81,12V6.92c0-.33,0-.66,0-1s0-.66-.09-1h1.07l.16,1.74-.16,0a2.24,2.24,0,0,1,.85-1.4,2.45,2.45,0,0,1,1.46-.47,2,2,0,0,1,.35,0,1.59,1.59,0,0,1,.3.06l0,1a2.4,2.4,0,0,0-.74-.11,2,2,0,0,0-1.17.32,1.92,1.92,0,0,0-.65.82,2.84,2.84,0,0,0-.2,1v4Z"/><path class="cls-2" d="M146.91,12.08a4.1,4.1,0,0,1-2.82-.91l.38-.84a3.78,3.78,0,0,0,2.48.84,2.21,2.21,0,0,0,1.21-.27.88.88,0,0,0,.41-.79.85.85,0,0,0-.28-.67,2.28,2.28,0,0,0-.92-.4l-1.19-.28a2.56,2.56,0,0,1-1.36-.7,1.63,1.63,0,0,1-.49-1.2,1.76,1.76,0,0,1,.34-1.08,2.14,2.14,0,0,1,.94-.74A3.43,3.43,0,0,1,147,4.77a4,4,0,0,1,1.4.24,3,3,0,0,1,1.11.69l-.38.82a3.72,3.72,0,0,0-1-.62,3.11,3.11,0,0,0-1.1-.2,2,2,0,0,0-1.16.29,1,1,0,0,0-.16,1.49,1.94,1.94,0,0,0,.83.39l1.19.29a2.77,2.77,0,0,1,1.47.7,1.69,1.69,0,0,1,.47,1.22,1.72,1.72,0,0,1-.75,1.46A3.33,3.33,0,0,1,146.91,12.08Z"/><path class="cls-2" d="M151.47,15V6.92c0-.33,0-.66,0-1a8.28,8.28,0,0,0-.09-1h1.08l.12,1.46-.11.21a2.35,2.35,0,0,1,.91-1.36A2.73,2.73,0,0,1,155,4.77a2.91,2.91,0,0,1,1.63.47,3,3,0,0,1,1.1,1.28,4.37,4.37,0,0,1,.4,1.94,4.28,4.28,0,0,1-.4,1.92,2.89,2.89,0,0,1-1.1,1.26,2.93,2.93,0,0,1-1.63.44,2.8,2.8,0,0,1-1.63-.47,2.35,2.35,0,0,1-.91-1.36l.16-.14V15Zm3.31-3.87a1.93,1.93,0,0,0,1.59-.7,3,3,0,0,0,.58-2,3.1,3.1,0,0,0-.58-2,2.16,2.16,0,0,0-3.2,0,3.08,3.08,0,0,0-.56,2,3.12,3.12,0,0,0,.56,2A1.93,1.93,0,0,0,154.78,11.14Z"/><path class="cls-2" d="M162.57,12.08a3,3,0,0,1-1.64-.44,2.81,2.81,0,0,1-1.09-1.26,4.42,4.42,0,0,1-.39-1.92,4.51,4.51,0,0,1,.39-1.94,3.07,3.07,0,0,1,1.1-1.28,2.91,2.91,0,0,1,1.63-.47,2.74,2.74,0,0,1,1.64.48,2.35,2.35,0,0,1,.91,1.36l-.17.11V4.94h1.12v7H165V10.16l.17.09a2.35,2.35,0,0,1-.91,1.36A2.81,2.81,0,0,1,162.57,12.08Zm.23-.94a1.9,1.9,0,0,0,1.59-.7,3.12,3.12,0,0,0,.56-2,3.08,3.08,0,0,0-.56-2,1.93,1.93,0,0,0-1.59-.7,2,2,0,0,0-1.62.72,3.1,3.1,0,0,0-.58,2,3,3,0,0,0,.58,2A2,2,0,0,0,162.8,11.14Z"/><path class="cls-2" d="M171.23,12.08a3.49,3.49,0,0,1-1.8-.45,2.9,2.9,0,0,1-1.16-1.26,4.11,4.11,0,0,1-.42-1.91,4.25,4.25,0,0,1,.42-1.93,3.1,3.1,0,0,1,1.19-1.29,3.47,3.47,0,0,1,1.82-.47,4,4,0,0,1,1.38.25,3,3,0,0,1,1.1.68l-.38.84a4.06,4.06,0,0,0-1-.61,2.62,2.62,0,0,0-1-.2,2.12,2.12,0,0,0-1.69.71,3,3,0,0,0-.62,2,2.9,2.9,0,0,0,.61,2,2.15,2.15,0,0,0,1.7.7,2.65,2.65,0,0,0,1-.2,3.93,3.93,0,0,0,1-.61l.38.84a3.29,3.29,0,0,1-1.13.67A4.16,4.16,0,0,1,171.23,12.08Z"/><path class="cls-2" d="M175.09,2h1.39V3.25h-1.39Zm.11,10v-7h1.14v7Z"/><path class="cls-2" d="M178.53,12V6.92c0-.33,0-.66,0-1a8.28,8.28,0,0,0-.09-1h1.08l.13,1.46-.14.11a2.35,2.35,0,0,1,1-1.29,2.79,2.79,0,0,1,1.58-.45c1.69,0,2.53.93,2.53,2.79V12h-1.13V7.62a2.17,2.17,0,0,0-.39-1.44,1.58,1.58,0,0,0-1.24-.45,2.08,2.08,0,0,0-1.56.6A2.18,2.18,0,0,0,179.67,8v4Z"/><path class="cls-2" d="M189.82,15.11a5.18,5.18,0,0,1-2.77-.73l.19-.93a5.31,5.31,0,0,0,1.25.55,4.88,4.88,0,0,0,1.33.17,2,2,0,0,0,1.53-.54,2.2,2.2,0,0,0,.53-1.6V10.12l.15-.18a2.54,2.54,0,0,1-.53,1,2.32,2.32,0,0,1-.87.64,3.28,3.28,0,0,1-2.82-.22,3.05,3.05,0,0,1-1.11-1.22,4.09,4.09,0,0,1-.4-1.84,4,4,0,0,1,.4-1.83,3.05,3.05,0,0,1,1.11-1.22,3,3,0,0,1,1.64-.45,2.79,2.79,0,0,1,1.66.49A2.33,2.33,0,0,1,192,6.61l-.17-.16V4.94H193v7a3.21,3.21,0,0,1-.81,2.38A3.25,3.25,0,0,1,189.82,15.11Zm-.14-4.29a2,2,0,0,0,1.6-.68,2.76,2.76,0,0,0,.58-1.87,2.74,2.74,0,0,0-.58-1.86,2,2,0,0,0-1.6-.68,2,2,0,0,0-1.63.68,2.7,2.7,0,0,0-.6,1.86,2.72,2.72,0,0,0,.6,1.88A2,2,0,0,0,189.68,10.82Z"/><path class="cls-2" d="M108.14,28.78v-1h5.56v1Zm2.2-.51V19.49l.66.33-2.7,1.73V20.44l2.55-1.62h.65v9.45Z"/><path class="cls-2" d="M119.5,31.81V23.72c0-.33,0-.66,0-1s0-.66-.09-1h1.07l.13,1.46-.11.21a2.35,2.35,0,0,1,.91-1.36,2.7,2.7,0,0,1,1.62-.48,2.89,2.89,0,0,1,1.63.47,3.1,3.1,0,0,1,1.11,1.28,4.54,4.54,0,0,1,.4,1.94,4.42,4.42,0,0,1-.4,1.92,2.89,2.89,0,0,1-2.74,1.7,2.77,2.77,0,0,1-1.62-.47,2.35,2.35,0,0,1-.91-1.36l.15-.14v4.9Zm3.3-3.87a2,2,0,0,0,1.6-.7,3,3,0,0,0,.57-2,3.16,3.16,0,0,0-.57-2,2.17,2.17,0,0,0-3.21,0,3.13,3.13,0,0,0-.56,2,3.18,3.18,0,0,0,.56,2A1.93,1.93,0,0,0,122.8,27.94Z"/><path class="cls-2" d="M127.78,18.76h1.39v1.29h-1.39Zm.12,10v-7H129v7Z"/><path class="cls-2" d="M131.68,28.78h-1.39l2.93-3.62.65-.83,2-2.59h1.38l-2.74,3.42-.69.85Zm4.42,0L133.87,26l-.65-.85-2.76-3.42h1.37l2,2.59.69.83,2.9,3.62Z"/><path class="cls-2" d="M144.35,27.94a3.36,3.36,0,0,1-1.19.69,4.37,4.37,0,0,1-1.47.25,3.88,3.88,0,0,1-1.89-.43,3,3,0,0,1-1.21-1.25,4.14,4.14,0,0,1-.43-2,4.21,4.21,0,0,1,.42-1.92A3.09,3.09,0,0,1,139.75,22a3.2,3.2,0,0,1,1.73-.47,3,3,0,0,1,1.61.42,2.71,2.71,0,0,1,1,1.18,4.49,4.49,0,0,1,.35,1.85v.21h-5.32v-.74h4.68l-.37.51a2.92,2.92,0,0,0-.48-1.89,1.79,1.79,0,0,0-1.49-.65,2,2,0,0,0-1.6.72,3.06,3.06,0,0,0-.58,2,3,3,0,0,0,.61,2.07,2.21,2.21,0,0,0,1.78.7,3.33,3.33,0,0,0,1.18-.2,3.63,3.63,0,0,0,1.09-.62Z"/><path class="cls-2" d="M146.19,28.78V18.48h1.14v10.3Z"/><path class="cls-2" d="M1.09,23.32V18.25c0-.33,0-.66,0-1a8.28,8.28,0,0,0-.09-1H2.06L2.21,18l-.15,0a2.2,2.2,0,0,1,.85-1.4,2.44,2.44,0,0,1,1.46-.46,1.88,1.88,0,0,1,.34,0,1.33,1.33,0,0,1,.3.06l0,1a2.09,2.09,0,0,0-.74-.12,1.93,1.93,0,0,0-1.17.33,1.81,1.81,0,0,0-.64.81,2.69,2.69,0,0,0-.2,1.05v4Z"/><path class="cls-2" d="M11.79,22.48a3.26,3.26,0,0,1-1.19.68,4.37,4.37,0,0,1-1.47.25A3.81,3.81,0,0,1,7.25,23,2.94,2.94,0,0,1,6,21.73a4.14,4.14,0,0,1-.43-2A4.16,4.16,0,0,1,6,17.86a3.12,3.12,0,0,1,2.9-1.75,3,3,0,0,1,1.61.41,2.65,2.65,0,0,1,1,1.18,4.36,4.36,0,0,1,.35,1.85v.21H6.59V19h4.68l-.36.52a2.88,2.88,0,0,0-.49-1.89A1.76,1.76,0,0,0,8.93,17a2,2,0,0,0-1.6.72,3.06,3.06,0,0,0-.58,2,3.08,3.08,0,0,0,.61,2.08,2.25,2.25,0,0,0,1.78.7,3.43,3.43,0,0,0,1.19-.21,3.71,3.71,0,0,0,1.08-.62Z"/><path class="cls-2" d="M12.63,17.17v-.9h4.23v.9Zm4.42-3.12a2.44,2.44,0,0,0-.73-.11,1.64,1.64,0,0,0-.6.11.86.86,0,0,0-.43.43,2,2,0,0,0-.16.86v8H14V15.2a2.29,2.29,0,0,1,.56-1.69A2.09,2.09,0,0,1,16.1,13l.48,0a3.94,3.94,0,0,1,.47.1Z"/><path class="cls-2" d="M24,22.48a3.26,3.26,0,0,1-1.19.68,4.37,4.37,0,0,1-1.47.25A3.81,3.81,0,0,1,19.5,23a2.94,2.94,0,0,1-1.22-1.25,4.14,4.14,0,0,1-.43-2,4.16,4.16,0,0,1,.42-1.91,3.12,3.12,0,0,1,2.9-1.75,3,3,0,0,1,1.61.41,2.65,2.65,0,0,1,1,1.18,4.36,4.36,0,0,1,.35,1.85v.21H18.84V19h4.68l-.36.52a2.88,2.88,0,0,0-.49-1.89A1.76,1.76,0,0,0,21.18,17a2,2,0,0,0-1.6.72,3.06,3.06,0,0,0-.58,2,3.08,3.08,0,0,0,.61,2.08,2.25,2.25,0,0,0,1.78.7,3.43,3.43,0,0,0,1.19-.21,3.71,3.71,0,0,0,1.08-.62Z"/><path class="cls-2" d="M25.89,23.32V18.25c0-.33,0-.66,0-1s-.05-.66-.1-1h1.08L27,18l-.16,0a2.2,2.2,0,0,1,.85-1.4,2.44,2.44,0,0,1,1.46-.46,2,2,0,0,1,.35,0,1.59,1.59,0,0,1,.3.06l0,1a2.13,2.13,0,0,0-.74-.12,1.89,1.89,0,0,0-1.17.33,1.84,1.84,0,0,0-.65.81A2.88,2.88,0,0,0,27,19.3v4Z"/><path class="cls-2" d="M36.58,22.48a3.3,3.3,0,0,1-1.18.68,4.38,4.38,0,0,1-1.48.25A3.84,3.84,0,0,1,32,23a3,3,0,0,1-1.22-1.25,4.26,4.26,0,0,1-.43-2,4.16,4.16,0,0,1,.42-1.91A3.18,3.18,0,0,1,32,16.57a3.22,3.22,0,0,1,1.73-.46,3,3,0,0,1,1.61.41,2.65,2.65,0,0,1,1,1.18,4.36,4.36,0,0,1,.36,1.85v.21H31.39V19h4.67l-.36.52a2.88,2.88,0,0,0-.48-1.89A1.77,1.77,0,0,0,33.73,17a2,2,0,0,0-1.61.72,3.12,3.12,0,0,0-.58,2,3.13,3.13,0,0,0,.61,2.08,2.27,2.27,0,0,0,1.79.7,3.37,3.37,0,0,0,1.18-.21,3.47,3.47,0,0,0,1.08-.62Z"/><path class="cls-2" d="M38.43,23.32V18.25c0-.33,0-.66,0-1s0-.66-.09-1H39.4l.12,1.46-.14.11a2.39,2.39,0,0,1,1-1.29,2.83,2.83,0,0,1,1.58-.44c1.69,0,2.54.92,2.54,2.78v4.43H43.34V19A2.19,2.19,0,0,0,43,17.51a1.54,1.54,0,0,0-1.23-.45,2.1,2.1,0,0,0-1.57.6,2.22,2.22,0,0,0-.59,1.62v4Z"/><path class="cls-2" d="M49.57,23.41A3.54,3.54,0,0,1,47.78,23a3.1,3.1,0,0,1-1.17-1.26,4.67,4.67,0,0,1,0-3.85,3.16,3.16,0,0,1,1.19-1.29,3.44,3.44,0,0,1,1.82-.46,4,4,0,0,1,1.38.24,3,3,0,0,1,1.1.68l-.38.84a4.43,4.43,0,0,0-1-.61,2.76,2.76,0,0,0-1-.2,2.14,2.14,0,0,0-1.69.71,3,3,0,0,0-.62,2,2.93,2.93,0,0,0,.61,2,2.17,2.17,0,0,0,1.7.7,2.66,2.66,0,0,0,1-.21,4.29,4.29,0,0,0,1-.61l.38.84a3.23,3.23,0,0,1-1.13.67A4.18,4.18,0,0,1,49.57,23.41Z"/><path class="cls-2" d="M59.32,22.48a3.3,3.3,0,0,1-1.18.68,4.47,4.47,0,0,1-1.48.25A3.81,3.81,0,0,1,54.78,23a2.94,2.94,0,0,1-1.22-1.25,4.14,4.14,0,0,1-.43-2,4.16,4.16,0,0,1,.42-1.91,3.18,3.18,0,0,1,1.17-1.29,3.22,3.22,0,0,1,1.73-.46,3,3,0,0,1,1.61.41,2.65,2.65,0,0,1,1,1.18,4.36,4.36,0,0,1,.35,1.85v.21H54.12V19H58.8l-.36.52A2.88,2.88,0,0,0,58,17.65,1.76,1.76,0,0,0,56.46,17a2,2,0,0,0-1.6.72,3.06,3.06,0,0,0-.58,2,3.08,3.08,0,0,0,.61,2.08,2.25,2.25,0,0,0,1.78.7,3.43,3.43,0,0,0,1.19-.21,3.59,3.59,0,0,0,1.08-.62Z"/><path class="cls-2" d="M10.05,43.14V35.05c0-.33,0-.66,0-1a8.28,8.28,0,0,0-.09-1H11l.12,1.46-.11.21a2.35,2.35,0,0,1,.91-1.36,2.73,2.73,0,0,1,1.63-.47,2.9,2.9,0,0,1,1.63.46,3.09,3.09,0,0,1,1.1,1.29,4.32,4.32,0,0,1,.4,1.93,4.25,4.25,0,0,1-.4,1.92,2.89,2.89,0,0,1-1.1,1.26,2.93,2.93,0,0,1-1.63.44,2.73,2.73,0,0,1-1.63-.47A2.35,2.35,0,0,1,11,38.38l.16-.14v4.9Zm3.31-3.86a2,2,0,0,0,1.59-.7,3,3,0,0,0,.58-2,3.1,3.1,0,0,0-.58-2,1.91,1.91,0,0,0-1.59-.72,1.93,1.93,0,0,0-1.61.7,3.08,3.08,0,0,0-.56,2,3.12,3.12,0,0,0,.56,2A1.93,1.93,0,0,0,13.36,39.28Z"/><path class="cls-2" d="M21.36,40.21a3.42,3.42,0,0,1-1.75-.44,3.12,3.12,0,0,1-1.17-1.27,4.77,4.77,0,0,1,0-3.87,3.09,3.09,0,0,1,1.17-1.28,3.72,3.72,0,0,1,3.51,0,3,3,0,0,1,1.16,1.28,4.67,4.67,0,0,1,0,3.87,3,3,0,0,1-1.16,1.27A3.43,3.43,0,0,1,21.36,40.21Zm0-.93a2,2,0,0,0,1.61-.7,3.1,3.1,0,0,0,.56-2,3.08,3.08,0,0,0-.57-2,1.93,1.93,0,0,0-1.6-.7,2,2,0,0,0-1.6.7,3,3,0,0,0-.58,2,3.1,3.1,0,0,0,.57,2A2,2,0,0,0,21.36,39.28Z"/><path class="cls-2" d="M28.84,40.21A4.08,4.08,0,0,1,26,39.3l.37-.84a3.93,3.93,0,0,0,1.16.64,4,4,0,0,0,1.32.2A2.21,2.21,0,0,0,30.09,39a.95.95,0,0,0,.14-1.46,2.27,2.27,0,0,0-.93-.39l-1.19-.28a2.63,2.63,0,0,1-1.36-.7A1.71,1.71,0,0,1,26.26,35a1.83,1.83,0,0,1,.34-1.08,2.19,2.19,0,0,1,.94-.74A3.48,3.48,0,0,1,29,32.91a4.33,4.33,0,0,1,1.4.23,3,3,0,0,1,1.1.69l-.38.83a3.72,3.72,0,0,0-1-.63,3.15,3.15,0,0,0-1.1-.2,2,2,0,0,0-1.17.29,1,1,0,0,0-.16,1.49,1.78,1.78,0,0,0,.84.39l1.19.29a2.74,2.74,0,0,1,1.46.7,1.69,1.69,0,0,1,.47,1.22,1.74,1.74,0,0,1-.74,1.46A3.38,3.38,0,0,1,28.84,40.21Z"/><path class="cls-2" d="M33.29,30.09h1.39v1.29H33.29Zm.11,10v-7h1.14v7Z"/><path class="cls-2" d="M35.74,34v-.9h4.52V34Zm4.5,5.14v1a2.89,2.89,0,0,1-.47.11,4.12,4.12,0,0,1-.51,0,2.14,2.14,0,0,1-1.57-.56A2.25,2.25,0,0,1,37.11,38v-6.7l1.14-.41v7a1.9,1.9,0,0,0,.16.87.85.85,0,0,0,.44.42,1.61,1.61,0,0,0,.63.12l.38,0Z"/><path class="cls-2" d="M41.52,30.09h1.39v1.29H41.52Zm.12,10v-7h1.13v7Z"/><path class="cls-2" d="M47.88,40.21a3.46,3.46,0,0,1-1.76-.44A3.1,3.1,0,0,1,45,38.5a4.77,4.77,0,0,1,0-3.87,3.07,3.07,0,0,1,1.16-1.28,3.74,3.74,0,0,1,3.52,0,3.07,3.07,0,0,1,1.16,1.28,4.77,4.77,0,0,1,0,3.87,3.1,3.1,0,0,1-1.16,1.27A3.46,3.46,0,0,1,47.88,40.21Zm0-.93a2,2,0,0,0,1.6-.7,3.1,3.1,0,0,0,.57-2,3,3,0,0,0-.58-2,1.93,1.93,0,0,0-1.59-.7,2,2,0,0,0-1.6.7,3,3,0,0,0-.58,2,3.1,3.1,0,0,0,.56,2A2,2,0,0,0,47.88,39.28Z"/><path class="cls-2" d="M53,40.12V35.05c0-.33,0-.66,0-1a8.28,8.28,0,0,0-.09-1h1.08l.13,1.46-.14.11a2.35,2.35,0,0,1,1-1.29,2.78,2.78,0,0,1,1.58-.44c1.69,0,2.53.92,2.53,2.78v4.43H57.89V35.75a2.19,2.19,0,0,0-.39-1.44,1.55,1.55,0,0,0-1.24-.45,2.08,2.08,0,0,0-1.56.6,2.22,2.22,0,0,0-.59,1.62v4Z"/><rect class="cls-3" width="595.28" height="18"/></g></g></svg>