<svg xmlns="http://www.w3.org/2000/svg" viewBox="0 0 595.28 60.69"><defs><style>.cls-1{fill:#b056a1;}.cls-2{fill:#ededee;}.cls-3{fill:#231f20;}.cls-4{fill:#4e4e4e;}.cls-5{fill:#3c3c3b;}.cls-6{fill:#818181;}.cls-7{fill:#616262;}.cls-8{fill:#ccc;}.cls-9{fill:#aeaeae;}</style></defs><g id="Layer_2" data-name="Layer 2"><g id="Layer_1-2" data-name="Layer 1"><rect class="cls-1" y="4" width="595.28" height="56.69" rx="11.34"/><rect class="cls-2" width="595.28" height="56.69" rx="11.34"/><path class="cls-3" d="M85.23,38.84V13.21h9.43a15.57,15.57,0,0,1,7.17,1.51,10.51,10.51,0,0,1,4.51,4.37,14.13,14.13,0,0,1,1.57,6.9,14.3,14.3,0,0,1-1.57,7,10.39,10.39,0,0,1-4.53,4.39,15.57,15.57,0,0,1-7.15,1.51Zm4.64-3.78h4.5c3,0,5.17-.76,6.65-2.27s2.21-3.78,2.21-6.8q0-9-8.86-9h-4.5Z"/><path class="cls-3" d="M112.05,12.42h5v4.42h-5Zm.22,26.42V20.66h4.5V38.84Z"/><path class="cls-3" d="M128.32,39.09c-3.31,0-5.93-.75-7.85-2.27l1.26-3.16a10.53,10.53,0,0,0,3.14,1.62,11.46,11.46,0,0,0,3.52.54,4.77,4.77,0,0,0,2.52-.54,1.7,1.7,0,0,0,.87-1.52,1.58,1.58,0,0,0-.62-1.31,5.63,5.63,0,0,0-2.08-.85l-3-.68a7.23,7.23,0,0,1-3.72-1.82,4.48,4.48,0,0,1-1.25-3.26,4.86,4.86,0,0,1,.94-2.93,6.14,6.14,0,0,1,2.63-2,9.93,9.93,0,0,1,3.92-.72,11.78,11.78,0,0,1,3.75.6,9.21,9.21,0,0,1,3.13,1.71l-1.3,3.09A10.49,10.49,0,0,0,131.36,24a8.56,8.56,0,0,0-2.82-.5,4.29,4.29,0,0,0-2.42.58,1.81,1.81,0,0,0-.86,1.58,1.59,1.59,0,0,0,.52,1.26,4.29,4.29,0,0,0,1.82.76l3.06.75a7.6,7.6,0,0,1,3.94,1.86,4.6,4.6,0,0,1,1.24,3.36,4.61,4.61,0,0,1-2,3.94A9.19,9.19,0,0,1,128.32,39.09Z"/><path class="cls-3" d="M139.66,46.62V25.81c0-.84,0-1.7,0-2.58s-.12-1.73-.24-2.57h4.25l.4,3.6-.26.22A5.46,5.46,0,0,1,146,21.33a7,7,0,0,1,4-1.14,7.36,7.36,0,0,1,4.19,1.21,8.18,8.18,0,0,1,2.86,3.35,11.25,11.25,0,0,1,1,5,11,11,0,0,1-1,4.95A7.47,7.47,0,0,1,150,39.09a7.12,7.12,0,0,1-4-1.1,5.34,5.34,0,0,1-2.27-3.11l.4-.58V46.62Zm9.22-11a4.15,4.15,0,0,0,3.45-1.53,6.78,6.78,0,0,0,1.23-4.34,7.16,7.16,0,0,0-1.23-4.47,4.11,4.11,0,0,0-3.45-1.58,4.19,4.19,0,0,0-3.51,1.53,7,7,0,0,0-1.21,4.45,7,7,0,0,0,1.21,4.39A4.18,4.18,0,0,0,148.88,35.64Z"/><path class="cls-3" d="M162,38.84V12.34h4.5v26.5Z"/><path class="cls-3" d="M178.43,39.09A7.89,7.89,0,0,1,174.22,38a7.47,7.47,0,0,1-2.83-3.24,11.57,11.57,0,0,1-1-4.95,11.68,11.68,0,0,1,1-5,8,8,0,0,1,2.83-3.35,7.36,7.36,0,0,1,4.19-1.21,7.08,7.08,0,0,1,4,1.14,5.58,5.58,0,0,1,2.32,3.15l-.43.25V20.66h4.42V38.84h-4.42v-4.1l.43.14A5.46,5.46,0,0,1,182.45,38,7.21,7.21,0,0,1,178.43,39.09Zm1.23-3.45a4.15,4.15,0,0,0,3.45-1.55,6.91,6.91,0,0,0,1.23-4.39,7,7,0,0,0-1.23-4.45,4.16,4.16,0,0,0-3.45-1.53,4.26,4.26,0,0,0-3.53,1.58,7,7,0,0,0-1.26,4.47,6.66,6.66,0,0,0,1.26,4.34A4.31,4.31,0,0,0,179.66,35.64Z"/><path class="cls-3" d="M199.53,40l-8.39-19.37h4.72l5.72,14.26Zm-6.3,7-1-3.45a15.32,15.32,0,0,0,2.81-.85,5.77,5.77,0,0,0,1.85-1.24,6.16,6.16,0,0,0,1.24-1.95l1.3-3,1.15-1.65,5.83-14.26h4.47l-8.43,19.4a12.81,12.81,0,0,1-2.41,3.8A9.16,9.16,0,0,1,197,46,15,15,0,0,1,193.23,47Z"/><path class="cls-4" d="M62.5,11.25H22.35a1.18,1.18,0,0,0-1.18,1.18V34.19l20.88,3,21.64-3V12.43A1.19,1.19,0,0,0,62.5,11.25Z"/><path class="cls-5" d="M62.5,11.25H47.24l-16.31,27H62.5A1.2,1.2,0,0,0,63.69,37V12.43A1.19,1.19,0,0,0,62.5,11.25Z"/><polygon class="cls-6" points="46.21 37.63 47.1 44.99 37.75 44.99 38.64 37.63 46.21 37.63"/><polygon class="cls-7" points="46.8 42.51 46.21 37.63 38.64 37.63 38.05 42.51 46.8 42.51"/><path class="cls-8" d="M33.36,34.19H21.17V37a1.19,1.19,0,0,0,1.18,1.19H62.5A1.2,1.2,0,0,0,63.69,37V34.19Z"/><path class="cls-9" d="M33.36,34.19l-2.43,4H62.5A1.2,1.2,0,0,0,63.69,37V34.19Z"/><path class="cls-8" d="M50.42,45.45h-16a.63.63,0,0,1,0-1.25h16a.63.63,0,1,1,0,1.25Z"/></g></g></svg>