<svg xmlns="http://www.w3.org/2000/svg" viewBox="0 0 595.28 41"><defs><style>.cls-1{fill:none;}.cls-2{fill:#8e4582;}.cls-3{fill:#b056a1;}.cls-4{fill:#c788bb;}.cls-5{fill:#3c866d;}.cls-6{fill:#4ba587;}.cls-7{fill:#81c1ab;}.cls-8{opacity:0.6;}.cls-9{fill:#fff;}.cls-10{isolation:isolate;}.cls-11{fill:#010101;}.cls-12{fill:#3d4986;}.cls-13{fill:#4c5ba6;}.cls-14{fill:#818dc1;}</style></defs><g id="Layer_2" data-name="Layer 2"><g id="Layer_1-2" data-name="Layer 1"><rect class="cls-1" width="595.28" height="18"/><path class="cls-2" d="M1,9A8,8,0,0,1,9,1h7l6,4h3l6-4H358.68V37H30.5l-6,4h-3l-6-4H9a8,8,0,0,1-8-8ZM216.62,6H116.05v5c0,10-8-8-8,7.5s8-2.5,8,7.5v7H216.62ZM283,6h-30.8v5c0,10-8-8-8,7.5s8-2.5,8,7.5v7H283Zm65.7,0h-30.8v5c0,10-8-8-8,7.5s8-2.5,8,7.5v7h30.8Z"/><path class="cls-3" d="M0,8A8,8,0,0,1,8,0h7l6,4h3l6-4H357.68V36H29.5l-6,4h-3l-6-4H8a8,8,0,0,1-8-8ZM215.62,5H115.05v5c0,10-8-8-8,7.5s8-2.5,8,7.5v7H215.62ZM282,5h-30.8v5c0,10-8-8-8,7.5s8-2.5,8,7.5v7H282Zm65.7,0h-30.8v5c0,10-8-8-8,7.5s8-2.5,8,7.5v7h30.8Z"/><path class="cls-4" d="M2.34,33.66A8,8,0,0,1,0,28V8H1V28a7,7,0,0,0,2.05,5ZM348.68,33h-31.3V32h30.3V5.5h1ZM283,33h-31.3V32H282V5.5h1Zm-66.36,0H115.55V32H215.62V5.5h1ZM312,24.73l-.49-.86,3.68-2.11.49.87Zm-65.7,0-.49-.86,3.68-2.11.49.87Zm-136.13,0-.5-.86,3.68-2.11.5.87ZM1,7.53,0,7.47A8,8,0,0,1,8,0h7.17l6,4h2.7l6-4H357.18V1h-327l-6,4h-3.3l-6-4H8A7.06,7.06,0,0,0,1,7.53Z"/><path class="cls-5" d="M117.05,7h98.57V32H117.05V27c0-10-8,8-8-7.5s8,2.5,8-7.5Z"/><path class="cls-6" d="M116.05,6h98.57V31H116.05V26c0-10-8,8-8-7.5s8,2.5,8-7.5Z"/><path class="cls-7" d="M117.05,30.5h-1v-6h1Zm-8.34-6.37a20.71,20.71,0,0,1,0-11.26l1,.26a20,20,0,0,0,0,10.74ZM117.05,14h-1V6h98.07V7H117.05Z"/><g class="cls-8"><rect class="cls-9" x="143.05" y="11" width="44.57" height="16" rx="4"/></g><g class="cls-10"><path class="cls-11" d="M149.37,23.5V12.82h1.22V23.5Zm.57-4.9v-1h7.74v1ZM157,23.5V12.82h1.23V23.5Z"/><path class="cls-11" d="M166.89,22.6a3.49,3.49,0,0,1-1.27.74,5,5,0,0,1-1.58.27,4.16,4.16,0,0,1-2-.47,3.17,3.17,0,0,1-1.3-1.34,4.44,4.44,0,0,1-.46-2.09,4.5,4.5,0,0,1,.45-2.06A3.41,3.41,0,0,1,162,16.27a3.47,3.47,0,0,1,1.86-.49,3.19,3.19,0,0,1,1.72.44,2.8,2.8,0,0,1,1.1,1.27,4.6,4.6,0,0,1,.39,2v.22h-5.7v-.8h5l-.4.56a3.14,3.14,0,0,0-.51-2,1.91,1.91,0,0,0-1.6-.71,2.11,2.11,0,0,0-1.72.77,3.36,3.36,0,0,0-.62,2.14,3.32,3.32,0,0,0,.65,2.22,2.41,2.41,0,0,0,1.92.75,3.56,3.56,0,0,0,1.26-.22,4,4,0,0,0,1.16-.66Z"/><path class="cls-11" d="M168.87,23.5v-11h1.22v11Z"/><path class="cls-11" d="M172.44,23.5v-11h1.21v11Z"/><path class="cls-11" d="M179.13,23.61a3.58,3.58,0,0,1-1.88-.48A3.29,3.29,0,0,1,176,21.77a4.65,4.65,0,0,1-.44-2.08,4.64,4.64,0,0,1,.44-2.07,3.23,3.23,0,0,1,1.25-1.36,3.92,3.92,0,0,1,3.76,0,3.23,3.23,0,0,1,1.25,1.36,4.64,4.64,0,0,1,.44,2.07,4.65,4.65,0,0,1-.44,2.08A3.29,3.29,0,0,1,181,23.13,3.58,3.58,0,0,1,179.13,23.61Zm0-1a2.12,2.12,0,0,0,1.72-.74,3.4,3.4,0,0,0,.61-2.17,3.29,3.29,0,0,0-.62-2.14,2.09,2.09,0,0,0-1.71-.75,2.12,2.12,0,0,0-1.72.75,3.29,3.29,0,0,0-.62,2.14,3.34,3.34,0,0,0,.61,2.17A2.11,2.11,0,0,0,179.13,22.6Z"/></g><path class="cls-12" d="M253.18,7H282V32h-28.8V27c0-10-8,8-8-7.5s8,2.5,8-7.5Z"/><path class="cls-13" d="M252.18,6H281V31h-28.8V26c0-10-8,8-8-7.5s8,2.5,8-7.5Z"/><path class="cls-14" d="M253.18,30.5h-1v-6h1Zm-8.34-6.37a20.9,20.9,0,0,1,0-11.26l1,.26a19.79,19.79,0,0,0,0,10.74ZM253.18,14h-1V6h28.3V7h-27.3Z"/><g class="cls-8"><rect class="cls-9" x="257.18" y="11" width="18.8" height="16" rx="4"/></g><g class="cls-10"><path class="cls-11" d="M266.68,23.62a3.15,3.15,0,0,1-2.78-1.39,7.22,7.22,0,0,1-.95-4.07,7.23,7.23,0,0,1,.94-4.07,3.5,3.5,0,0,1,5.58,0,7.19,7.19,0,0,1,.95,4.05,7.23,7.23,0,0,1-.95,4.08A3.16,3.16,0,0,1,266.68,23.62Zm0-1a2,2,0,0,0,1.89-1.08,7.21,7.21,0,0,0,.6-3.37,7,7,0,0,0-.6-3.33,2.2,2.2,0,0,0-3.77,0,7,7,0,0,0-.61,3.32,7.19,7.19,0,0,0,.61,3.37A2,2,0,0,0,266.68,22.59Z"/></g><path class="cls-12" d="M318.88,7h28.8V32h-28.8V27c0-10-8,8-8-7.5s8,2.5,8-7.5Z"/><path class="cls-13" d="M317.88,6h28.8V31h-28.8V26c0-10-8,8-8-7.5s8,2.5,8-7.5Z"/><path class="cls-14" d="M318.88,30.5h-1v-6h1Zm-8.34-6.37a20.9,20.9,0,0,1,0-11.26l1,.26a19.79,19.79,0,0,0,0,10.74ZM318.88,14h-1V6h28.3V7h-27.3Z"/><g class="cls-8"><rect class="cls-9" x="322.88" y="11" width="18.8" height="16" rx="4"/></g><g class="cls-10"><path class="cls-11" d="M332.38,23.62a3.15,3.15,0,0,1-2.78-1.39,7.22,7.22,0,0,1-1-4.07,7.23,7.23,0,0,1,.94-4.07,3.5,3.5,0,0,1,5.58,0,7.19,7.19,0,0,1,.95,4.05,7.23,7.23,0,0,1-.95,4.08A3.16,3.16,0,0,1,332.38,23.62Zm0-1a2,2,0,0,0,1.89-1.08,7.21,7.21,0,0,0,.6-3.37,7,7,0,0,0-.6-3.33,2.2,2.2,0,0,0-3.77,0,7,7,0,0,0-.61,3.32,7.19,7.19,0,0,0,.61,3.37A2,2,0,0,0,332.38,22.59Z"/></g><g class="cls-10"><path class="cls-9" d="M17.82,22.5h-1.2v-2l.18.17a2.54,2.54,0,0,1-1,1.46,3,3,0,0,1-1.75.51,3.17,3.17,0,0,1-1.75-.49,3.26,3.26,0,0,1-1.18-1.38,4.86,4.86,0,0,1-.42-2.08,4.81,4.81,0,0,1,.41-2.05,3.22,3.22,0,0,1,1.17-1.35,3.26,3.26,0,0,1,1.77-.48,3,3,0,0,1,1.75.51,2.58,2.58,0,0,1,1,1.45l-.2.15V11.46h1.22Zm-3.51-.9a2.06,2.06,0,0,0,1.7-.76,3.38,3.38,0,0,0,.61-2.15,3.38,3.38,0,0,0-.6-2.14,2.08,2.08,0,0,0-1.71-.75,2.15,2.15,0,0,0-1.74.75A3.24,3.24,0,0,0,12,18.66a3.42,3.42,0,0,0,.62,2.17A2.13,2.13,0,0,0,14.31,21.6Z"/><path class="cls-9" d="M20.05,11.76h1.49v1.38H20.05Zm.12,10.74V15h1.21V22.5Z"/><path class="cls-9" d="M26.29,22.61a4.38,4.38,0,0,1-3-1l.4-.9a4.11,4.11,0,0,0,1.24.68,4.23,4.23,0,0,0,1.42.22,2.39,2.39,0,0,0,1.29-.29,1,1,0,0,0,.44-.85.91.91,0,0,0-.29-.71,2.41,2.41,0,0,0-1-.43l-1.27-.3a2.78,2.78,0,0,1-1.46-.75A1.78,1.78,0,0,1,23.53,17a1.93,1.93,0,0,1,.36-1.16,2.31,2.31,0,0,1,1-.79,3.68,3.68,0,0,1,1.52-.28,4.37,4.37,0,0,1,1.5.25,3.32,3.32,0,0,1,1.19.73l-.41.89A4,4,0,0,0,27.6,16a3.3,3.3,0,0,0-1.18-.22,2.14,2.14,0,0,0-1.25.32,1,1,0,0,0-.44.85,1,1,0,0,0,.28.74,1.89,1.89,0,0,0,.89.42l1.27.32a3,3,0,0,1,1.57.74,1.77,1.77,0,0,1,.5,1.31A1.84,1.84,0,0,1,28.45,22,3.57,3.57,0,0,1,26.29,22.61Z"/><path class="cls-9" d="M31.18,25.74V17.07c0-.35,0-.7,0-1.06s-.05-.7-.1-1.05h1.15l.14,1.55-.12.23a2.5,2.5,0,0,1,1-1.45,2.93,2.93,0,0,1,1.74-.51,3.09,3.09,0,0,1,1.75.49,3.35,3.35,0,0,1,1.19,1.38,4.78,4.78,0,0,1,.42,2.07,4.7,4.7,0,0,1-.42,2.06,3.13,3.13,0,0,1-2.94,1.83,2.93,2.93,0,0,1-1.74-.51,2.52,2.52,0,0,1-1-1.46l.16-.15v5.25Zm3.54-4.14a2.09,2.09,0,0,0,1.71-.75,3.28,3.28,0,0,0,.62-2.13,3.36,3.36,0,0,0-.62-2.15,2,2,0,0,0-1.71-.77,2.09,2.09,0,0,0-1.73.75,3.35,3.35,0,0,0-.6,2.14,3.38,3.38,0,0,0,.6,2.15A2.07,2.07,0,0,0,34.72,21.6Z"/><path class="cls-9" d="M40.18,22.5v-11h1.21v11Z"/><path class="cls-9" d="M46.64,22.61a3.23,3.23,0,0,1-1.76-.48,3.11,3.11,0,0,1-1.17-1.35,4.85,4.85,0,0,1-.41-2.06,4.78,4.78,0,0,1,.42-2.07,3.26,3.26,0,0,1,1.18-1.38,3.08,3.08,0,0,1,1.74-.49,3,3,0,0,1,1.76.51,2.5,2.5,0,0,1,1,1.45l-.18.12V15h1.2V22.5h-1.2V20.55l.18.09a2.52,2.52,0,0,1-1,1.46A3,3,0,0,1,46.64,22.61Zm.24-1a2,2,0,0,0,1.71-.76,3.38,3.38,0,0,0,.6-2.15,3.35,3.35,0,0,0-.6-2.14,2.33,2.33,0,0,0-3.44,0,3.36,3.36,0,0,0-.62,2.15,3.28,3.28,0,0,0,.62,2.13A2.13,2.13,0,0,0,46.88,21.6Z"/><path class="cls-9" d="M55.15,22.89,51.76,15H53l2.73,6.66Zm-2.76,3L52.13,25a7,7,0,0,0,1.17-.38,2.43,2.43,0,0,0,.79-.57,2.83,2.83,0,0,0,.56-.91L55.13,22l.27-.37L58.16,15h1.22l-3.53,8.23a5.15,5.15,0,0,1-.91,1.46,3.44,3.44,0,0,1-1.15.84A5.87,5.87,0,0,1,52.39,25.91Z"/><path class="cls-9" d="M66.65,22.5,63.86,15h1.28l2.32,6.64h-.39L69.47,15h1.07l2.37,6.64h-.39L74.89,15h1.2L73.3,22.5H72.13l-2.49-6.79h.66L67.82,22.5Z"/><path class="cls-9" d="M77.66,22.5V17.07c0-.35,0-.7,0-1.06a9.32,9.32,0,0,0-.1-1.05H78.7l.16,1.86-.16-.05a2.32,2.32,0,0,1,.91-1.49,2.55,2.55,0,0,1,1.56-.5,2.17,2.17,0,0,1,.37,0,1.5,1.5,0,0,1,.32.07l0,1.1a2.69,2.69,0,0,0-.79-.11,2.06,2.06,0,0,0-1.25.34,1.92,1.92,0,0,0-.69.88,2.83,2.83,0,0,0-.22,1.12v4.3Z"/><path class="cls-9" d="M83,11.76h1.49v1.38H83Zm.12,10.74V15h1.22V22.5Z"/><path class="cls-9" d="M85.6,15.92V15h4.84v1Zm4.81,5.5v1a4.48,4.48,0,0,1-.5.11,4.43,4.43,0,0,1-.55,0,2.31,2.31,0,0,1-1.67-.6,2.41,2.41,0,0,1-.62-1.8V13l1.21-.43V20a2,2,0,0,0,.18.93,1,1,0,0,0,.47.46,1.78,1.78,0,0,0,.67.13,2.54,2.54,0,0,0,.41,0A2.73,2.73,0,0,0,90.41,21.42Z"/><path class="cls-9" d="M98.09,21.6a3.53,3.53,0,0,1-1.26.74,5.1,5.1,0,0,1-1.59.27,4.09,4.09,0,0,1-2-.47,3.19,3.19,0,0,1-1.31-1.34,4.57,4.57,0,0,1-.46-2.09,4.5,4.5,0,0,1,.45-2.06,3.37,3.37,0,0,1,1.26-1.38A3.43,3.43,0,0,1,95,14.78a3.17,3.17,0,0,1,1.72.44,2.88,2.88,0,0,1,1.11,1.27,4.76,4.76,0,0,1,.38,2v.22h-5.7v-.8h5l-.39.56a3.08,3.08,0,0,0-.52-2,1.9,1.9,0,0,0-1.6-.71,2.08,2.08,0,0,0-1.71.77,3.31,3.31,0,0,0-.63,2.14,3.27,3.27,0,0,0,.66,2.22,2.39,2.39,0,0,0,1.91.75,3.65,3.65,0,0,0,1.27-.22,4.11,4.11,0,0,0,1.16-.66Z"/></g><g class="cls-10"><path class="cls-9" d="M227.21,22.5h-1.47L229.8,17l.72-.92,3.12-4.29h1.46L231.21,17l-.7.93Zm6.61,0L230.51,18,229.8,17l-3.87-5.21h1.47l3.12,4.29.69.93,4.07,5.46Z"/></g><g class="cls-10"><path class="cls-9" d="M295.91,22.5V17.7l.27.87-4.47-6.75h1.44l3.6,5.58h-.42l3.6-5.58h1.41l-4.45,6.75.25-.87v4.8Z"/></g><path class="cls-9" d="M128.19,11.32l2,1.56a8,8,0,0,0-1.87,2.72,7.42,7.42,0,0,0-.46,2.57l-1.25-.88h3.79v5.39H125V18.89a11,11,0,0,1,.7-4A10.29,10.29,0,0,1,128.19,11.32Zm8.71,0,2,1.56A8,8,0,0,0,137,15.6a7.43,7.43,0,0,0-.47,2.57l-1.24-.88h3.78v5.39h-5.34V18.89a11.18,11.18,0,0,1,.7-4A10.46,10.46,0,0,1,136.9,11.32Z"/><path class="cls-9" d="M193.77,22.68l-2-1.56a9,9,0,0,0,1.87-2.75,7.17,7.17,0,0,0,.46-2.54l1.25.83h-3.79V11.32h5.34v3.79a10.77,10.77,0,0,1-.7,3.94A11,11,0,0,1,193.77,22.68Zm8.71,0-2-1.56a9,9,0,0,0,1.87-2.75,7.17,7.17,0,0,0,.46-2.54l1.25.83H200.3V11.32h5.34v3.79a10.77,10.77,0,0,1-.7,3.94A11.12,11.12,0,0,1,202.48,22.68Z"/></g></g></svg>