<svg xmlns="http://www.w3.org/2000/svg" viewBox="0 0 595.28 149.01"><defs><style>.cls-1,.cls-2{fill:none;}.cls-2{stroke:#81c1ab;}.cls-11,.cls-3{isolation:isolate;}.cls-3{font-size:15px;font-family:Mulish-Regular, Mulish;}.cls-10,.cls-3{fill:#fff;}.cls-4{fill:#8e4582;}.cls-5{fill:#b056a1;}.cls-6{fill:#c788bb;}.cls-7{fill:#3c866d;}.cls-8{fill:#4ba587;}.cls-9{opacity:0.6;}.cls-12{fill:#010101;}.cls-13{fill:#dab4d4;}</style></defs><g id="Layer_2" data-name="Layer 2"><g id="Layer_1-2" data-name="Layer 1"><rect class="cls-1" y="0.5" width="595.28" height="18"/><path class="cls-2" d="M116.55,6.5h97.57m-97.57,24v-6m-7.36-.5a20.35,20.35,0,0,1,0-11m7.36,1V6.5h.5"/><text class="cls-3" transform="translate(10 22.5)">Display write</text><path class="cls-4" d="M1,9A8,8,0,0,1,9,1h7l6,4h3l6-4H390.78V37H30.5l-6,4h-3l-6-4H9a8,8,0,0,1-8-8ZM216.62,6H116.05v5c0,10-8-8-8,7.5s8-2.5,8,7.5v7H216.62Z"/><path class="cls-5" d="M0,9.23a8,8,0,0,1,8-8h7l6,4h3l6-4H389.78v36H29.5l-6,4h-3l-6-4H8a8,8,0,0,1-8-8Zm215.62-3H115.05v5c0,10-8-8-8,7.5s8-2.5,8,7.5v7H215.62Z"/><path class="cls-6" d="M2.34,33.66A8,8,0,0,1,0,28V8H1V28a7,7,0,0,0,2.05,5ZM216.62,33H115.55V32H215.62V5.5h1ZM110.2,24.73l-.5-.86,3.68-2.1.5.86ZM1,7.53,0,7.47A8,8,0,0,1,8,0h7.17l6,4h2.7l6-4H389.28V1H30.15l-6,4h-3.3l-6-4H8A7,7,0,0,0,1,7.53Z"/><path class="cls-7" d="M117.05,7h98.57V32H117.05V27c0-10-8,8-8-7.5s8,2.5,8-7.5Z"/><path class="cls-8" d="M116.05,6h98.57V31H116.05V26c0-10-8,8-8-7.5s8,2.5,8-7.5Z"/><g class="cls-9"><rect class="cls-10" x="143.05" y="11" width="44.57" height="16" rx="4"/></g><g class="cls-11"><path class="cls-12" d="M149.37,23.5V12.82h1.22V23.5Zm.57-4.91v-1h7.74v1ZM157,23.5V12.82h1.23V23.5Z"/><path class="cls-12" d="M166.89,22.6a3.48,3.48,0,0,1-1.27.73,4.73,4.73,0,0,1-1.58.27,4.16,4.16,0,0,1-2-.46,3.17,3.17,0,0,1-1.3-1.34,4.46,4.46,0,0,1-.46-2.1,4.45,4.45,0,0,1,.45-2.05A3.41,3.41,0,0,1,162,16.27a3.47,3.47,0,0,1,1.86-.5,3.2,3.2,0,0,1,1.72.45,2.77,2.77,0,0,1,1.1,1.26,4.6,4.6,0,0,1,.39,2v.23h-5.7v-.8h5l-.4.56a3.17,3.17,0,0,0-.51-2,1.91,1.91,0,0,0-1.6-.7,2.11,2.11,0,0,0-1.72.77,3.36,3.36,0,0,0-.62,2.14,3.32,3.32,0,0,0,.65,2.22,2.41,2.41,0,0,0,1.92.75,3.56,3.56,0,0,0,1.26-.22,3.8,3.8,0,0,0,1.16-.67Z"/><path class="cls-12" d="M168.87,23.5v-11h1.22v11Z"/><path class="cls-12" d="M172.44,23.5v-11h1.21v11Z"/><path class="cls-12" d="M179.13,23.6a3.58,3.58,0,0,1-1.88-.48A3.26,3.26,0,0,1,176,21.77a4.65,4.65,0,0,1-.44-2.08,4.64,4.64,0,0,1,.44-2.07,3.26,3.26,0,0,1,1.25-1.37,3.92,3.92,0,0,1,3.76,0,3.26,3.26,0,0,1,1.25,1.37,4.64,4.64,0,0,1,.44,2.07,4.65,4.65,0,0,1-.44,2.08A3.26,3.26,0,0,1,181,23.12,3.58,3.58,0,0,1,179.13,23.6Zm0-1a2.12,2.12,0,0,0,1.72-.74,3.4,3.4,0,0,0,.61-2.17,3.32,3.32,0,0,0-.62-2.15,2.09,2.09,0,0,0-1.71-.75,2.12,2.12,0,0,0-1.72.75,3.32,3.32,0,0,0-.62,2.15,3.34,3.34,0,0,0,.61,2.17A2.11,2.11,0,0,0,179.13,22.6Z"/></g><g class="cls-11"><path class="cls-10" d="M226.79,22.5v-11H228v11Z"/><path class="cls-10" d="M230.24,11.76h1.48v1.38h-1.48Zm.12,10.74V15h1.21V22.5Z"/><path class="cls-10" d="M233.93,22.5V17.07c0-.35,0-.7,0-1.06a9.47,9.47,0,0,0-.09-1.06H235l.14,1.56-.15.12A2.55,2.55,0,0,1,236,15.25a3,3,0,0,1,1.69-.48c1.81,0,2.72,1,2.72,3V22.5h-1.22V17.82a2.34,2.34,0,0,0-.42-1.54,1.67,1.67,0,0,0-1.32-.49,2.24,2.24,0,0,0-1.68.65,2.38,2.38,0,0,0-.63,1.74V22.5Z"/><path class="cls-10" d="M248.88,21.6a3.48,3.48,0,0,1-1.27.73,4.73,4.73,0,0,1-1.58.27,4.16,4.16,0,0,1-2-.46,3.17,3.17,0,0,1-1.3-1.34,4.46,4.46,0,0,1-.46-2.1,4.45,4.45,0,0,1,.45-2.05A3.41,3.41,0,0,1,244,15.27a3.5,3.5,0,0,1,1.86-.5,3.17,3.17,0,0,1,1.72.45,2.77,2.77,0,0,1,1.1,1.26,4.6,4.6,0,0,1,.39,2v.23h-5.7v-.8h5l-.39.56a3.17,3.17,0,0,0-.52-2,1.91,1.91,0,0,0-1.6-.7,2.11,2.11,0,0,0-1.72.77,3.36,3.36,0,0,0-.62,2.14,3.32,3.32,0,0,0,.65,2.22,2.42,2.42,0,0,0,1.92.75,3.56,3.56,0,0,0,1.26-.22,3.84,3.84,0,0,0,1.17-.67Z"/></g><g class="cls-9"><rect class="cls-10" x="254.15" y="10" width="35.27" height="16" rx="4"/></g><g class="cls-11"><path class="cls-12" d="M261.07,22.5v-1h6v1Zm2.35-.56v-9.4l.71.36-2.9,1.84V13.56L264,11.82h.71V21.94Z"/></g><g class="cls-11"><path class="cls-10" d="M298.48,22.6a3.2,3.2,0,0,1-1.76-.47,3,3,0,0,1-1.17-1.35,4.71,4.71,0,0,1-.41-2.06,4.78,4.78,0,0,1,.42-2.07,3.31,3.31,0,0,1,1.17-1.38,3.15,3.15,0,0,1,1.75-.5,3,3,0,0,1,1.76.51,2.52,2.52,0,0,1,1,1.46l-.18.12V15h1.2V22.5H301V20.55l.18.09a2.5,2.5,0,0,1-1,1.45A3,3,0,0,1,298.48,22.6Zm.24-1a2,2,0,0,0,1.71-.76,3.38,3.38,0,0,0,.6-2.15,3.32,3.32,0,0,0-.61-2.15,2.06,2.06,0,0,0-1.7-.75,2.08,2.08,0,0,0-1.73.78,3.3,3.3,0,0,0-.62,2.15,3.22,3.22,0,0,0,.62,2.13A2.12,2.12,0,0,0,298.72,21.6Z"/><path class="cls-10" d="M304.59,22.5v-11h1.21v11Z"/><path class="cls-10" d="M308,11.76h1.48v1.38H308Zm.12,10.74V15h1.21V22.5Z"/><path class="cls-10" d="M315,25.84a5.53,5.53,0,0,1-3-.78l.21-1a6.1,6.1,0,0,0,1.34.59,5.15,5.15,0,0,0,1.42.18,2.16,2.16,0,0,0,1.64-.58,2.35,2.35,0,0,0,.57-1.72v-2l.16-.19a2.82,2.82,0,0,1-.56,1,2.56,2.56,0,0,1-.94.68,3.15,3.15,0,0,1-1.26.24,3.18,3.18,0,0,1-2.95-1.78,4.36,4.36,0,0,1-.42-2,4.32,4.32,0,0,1,.42-2,3.21,3.21,0,0,1,2.95-1.79,3,3,0,0,1,1.78.52,2.58,2.58,0,0,1,1,1.45l-.18-.17V15h1.22v7.49a3.42,3.42,0,0,1-.87,2.55A3.45,3.45,0,0,1,315,25.84Zm-.15-4.59a2.16,2.16,0,0,0,1.72-.72,3,3,0,0,0,.62-2,3,3,0,0,0-.62-2,2.17,2.17,0,0,0-1.72-.73,2.23,2.23,0,0,0-1.75.73,3,3,0,0,0-.63,2,3,3,0,0,0,.63,2A2.23,2.23,0,0,0,314.89,21.25Z"/><path class="cls-10" d="M320.79,22.5V17.07c0-.35,0-.7,0-1.06a9.47,9.47,0,0,0-.09-1.06h1.15l.14,1.56-.15.12a2.55,2.55,0,0,1,1.05-1.38,3,3,0,0,1,1.69-.48c1.81,0,2.72,1,2.72,3V22.5h-1.22V17.82a2.34,2.34,0,0,0-.42-1.54,1.67,1.67,0,0,0-1.32-.49,2.24,2.24,0,0,0-1.68.65,2.38,2.38,0,0,0-.63,1.74V22.5Z"/></g><g class="cls-9"><rect class="cls-10" x="332.63" y="10" width="52.15" height="16" rx="4"/></g><g class="cls-11"><path class="cls-12" d="M338.8,22.5v-11H340v11Z"/><path class="cls-12" d="M348.55,21.6a3.52,3.52,0,0,1-1.26.73,4.83,4.83,0,0,1-1.59.27,4.09,4.09,0,0,1-2-.46,3.19,3.19,0,0,1-1.31-1.34,4.58,4.58,0,0,1-.46-2.1,4.45,4.45,0,0,1,.45-2.05,3.37,3.37,0,0,1,1.26-1.38,3.44,3.44,0,0,1,1.85-.5,3.17,3.17,0,0,1,1.72.45,2.85,2.85,0,0,1,1.11,1.26,4.76,4.76,0,0,1,.38,2v.23H343v-.8h5l-.39.56a3.11,3.11,0,0,0-.52-2,1.9,1.9,0,0,0-1.6-.7,2.08,2.08,0,0,0-1.71.77,3.31,3.31,0,0,0-.63,2.14,3.27,3.27,0,0,0,.66,2.22,2.39,2.39,0,0,0,1.91.75,3.65,3.65,0,0,0,1.27-.22,3.92,3.92,0,0,0,1.16-.67Z"/><path class="cls-12" d="M349.45,15.91V15H354v1Zm4.74-3.34a2.85,2.85,0,0,0-.78-.12,1.54,1.54,0,0,0-.65.13.91.91,0,0,0-.46.45,2.11,2.11,0,0,0-.16.92V22.5h-1.22V13.8a2.45,2.45,0,0,1,.6-1.81,2.27,2.27,0,0,1,1.65-.59l.51,0a3.06,3.06,0,0,1,.51.1Z"/><path class="cls-12" d="M354.16,15.91V15H359v1ZM359,21.42v1l-.5.12a4.68,4.68,0,0,1-.55,0,2.29,2.29,0,0,1-1.67-.6,2.37,2.37,0,0,1-.63-1.8V13l1.22-.44V20A2.11,2.11,0,0,0,357,21a1,1,0,0,0,.47.46,1.83,1.83,0,0,0,.68.12,2.41,2.41,0,0,0,.4,0A2.69,2.69,0,0,0,359,21.42Z"/></g><path class="cls-10" d="M193.77,22.68l-2-1.56a9,9,0,0,0,1.87-2.75,7.17,7.17,0,0,0,.46-2.54l1.25.83h-3.79V11.32h5.34v3.79a10.77,10.77,0,0,1-.7,3.94A11,11,0,0,1,193.77,22.68Zm8.71,0-2-1.56a9,9,0,0,0,1.87-2.75,7.17,7.17,0,0,0,.46-2.54l1.25.83H200.3V11.32h5.34v3.79a10.77,10.77,0,0,1-.7,3.94A11.12,11.12,0,0,1,202.48,22.68Z"/><polygon class="cls-12" points="375.81 22.31 380.78 13.69 370.83 13.69 375.81 22.31"/><polygon class="cls-12" points="280.44 22.31 285.42 13.69 275.46 13.69 280.44 22.31"/><rect class="cls-13" x="253.76" y="42.92" width="35.27" height="106.09" rx="5.67"/><g class="cls-11"><path class="cls-12" d="M260.09,55.79v-1h6v1Zm2.35-.55V45.83l.71.36L260.25,48V46.85L263,45.11h.71V55.24Z"/><path class="cls-12" d="M259.41,73.79v-.93l3.74-4.14a7.44,7.44,0,0,0,1.09-1.51,3,3,0,0,0,.35-1.35,1.76,1.76,0,0,0-.51-1.36,2.05,2.05,0,0,0-1.46-.47,4.09,4.09,0,0,0-1.53.3,6.13,6.13,0,0,0-1.5.93l-.46-1a4.63,4.63,0,0,1,1.59-1,5.45,5.45,0,0,1,1.93-.36,3.83,3.83,0,0,1,1.69.34,2.48,2.48,0,0,1,1.1,1,2.79,2.79,0,0,1,.39,1.5,3.89,3.89,0,0,1-.41,1.76,8.33,8.33,0,0,1-1.37,1.9l-3.6,3.9-.09-.6h5.92v1Z"/><path class="cls-12" d="M259.13,90.25h1.54v1.54h-1.54Z"/><path class="cls-12" d="M259.13,108.25h1.54v1.54h-1.54Z"/><path class="cls-12" d="M261.18,127.79h-1.32l5.24-10.14.1.5h-6.06v-1h7.05V118Z"/><path class="cls-12" d="M262.67,145.9a5.22,5.22,0,0,1-2-.36,2.89,2.89,0,0,1-1.32-1,2.59,2.59,0,0,1-.48-1.57,2.49,2.49,0,0,1,.75-1.85,3.48,3.48,0,0,1,2-.91l-.07.22a3.22,3.22,0,0,1-1.81-.91,2.41,2.41,0,0,1-.64-1.68,2.57,2.57,0,0,1,.46-1.51,3,3,0,0,1,1.26-1,5.17,5.17,0,0,1,3.74,0,3,3,0,0,1,1.26,1,2.57,2.57,0,0,1,.45,1.51,2.4,2.4,0,0,1-.63,1.68,3.1,3.1,0,0,1-1.8.91l-.09-.22a3.4,3.4,0,0,1,2,.92,2.53,2.53,0,0,1,.72,1.84,2.58,2.58,0,0,1-.47,1.57,2.92,2.92,0,0,1-1.33,1A5.17,5.17,0,0,1,262.67,145.9Zm0-1a3.15,3.15,0,0,0,1.93-.51,1.76,1.76,0,0,0,.68-1.49,1.65,1.65,0,0,0-.74-1.43,3.85,3.85,0,0,0-1.87-.64,3.89,3.89,0,0,0-1.88.64,1.64,1.64,0,0,0-.73,1.43,1.75,1.75,0,0,0,.67,1.49A3.18,3.18,0,0,0,262.67,144.88Zm0-4.92a3.22,3.22,0,0,0,1.7-.65,1.68,1.68,0,0,0,.65-1.39,1.71,1.71,0,0,0-.62-1.41,3.24,3.24,0,0,0-3.46,0,1.71,1.71,0,0,0-.63,1.41,1.68,1.68,0,0,0,.66,1.39A3.22,3.22,0,0,0,262.67,140Z"/></g><polygon class="cls-12" points="280.44 55.6 285.42 46.98 275.46 46.98 280.44 55.6"/><rect class="cls-13" x="332.63" y="42.92" width="63.41" height="53.79" rx="5.67"/><g class="cls-11"><path class="cls-12" d="M338.21,55.79v-11h1.21v11Z"/><path class="cls-12" d="M348,54.89a3.58,3.58,0,0,1-1.27.74,4.77,4.77,0,0,1-1.58.27,4.13,4.13,0,0,1-2-.47,3.19,3.19,0,0,1-1.31-1.34,5,5,0,0,1,0-4.15A3.34,3.34,0,0,1,343,48.56a3.43,3.43,0,0,1,1.85-.49,3.2,3.2,0,0,1,1.73.44,2.86,2.86,0,0,1,1.1,1.27,4.76,4.76,0,0,1,.38,2V52h-5.7v-.79h5l-.39.55a3.08,3.08,0,0,0-.52-2A1.88,1.88,0,0,0,344.9,49a2.1,2.1,0,0,0-1.72.77,3.31,3.31,0,0,0-.62,2.14,3.27,3.27,0,0,0,.65,2.22,2.39,2.39,0,0,0,1.91.75,3.65,3.65,0,0,0,1.27-.22,3.88,3.88,0,0,0,1.16-.66Z"/><path class="cls-12" d="M348.86,49.21v-1h4.53v1Zm4.74-3.35a2.85,2.85,0,0,0-.78-.12,1.59,1.59,0,0,0-.66.13.92.92,0,0,0-.45.46,2,2,0,0,0-.17.91v8.55h-1.21v-8.7a2.45,2.45,0,0,1,.6-1.81,2.27,2.27,0,0,1,1.65-.59l.51,0a3.1,3.1,0,0,1,.51.11Z"/><path class="cls-12" d="M353.57,49.21v-1h4.84v1Zm4.81,5.5v1a5,5,0,0,1-.5.11,4.58,4.58,0,0,1-.55,0,2.29,2.29,0,0,1-1.67-.6,2.37,2.37,0,0,1-.62-1.8V46.31l1.21-.43v7.45a2.11,2.11,0,0,0,.17.93,1,1,0,0,0,.48.46,1.78,1.78,0,0,0,.67.13,2.54,2.54,0,0,0,.41,0A2.73,2.73,0,0,0,358.38,54.71Z"/><path class="cls-12" d="M338.21,73.79V68.36c0-.35,0-.7,0-1.06a9.3,9.3,0,0,0-.09-1h1.15l.14,1.56-.15.1a2.53,2.53,0,0,1,.93-1.36,2.67,2.67,0,0,1,1.59-.48,2.48,2.48,0,0,1,1.7.54,2.67,2.67,0,0,1,.77,1.65l-.36-.2a2.53,2.53,0,0,1,1-1.45,2.85,2.85,0,0,1,1.75-.54,2.29,2.29,0,0,1,1.87.74,3.38,3.38,0,0,1,.63,2.24v4.74h-1.21V69.11a2.54,2.54,0,0,0-.38-1.54,1.4,1.4,0,0,0-1.18-.48,1.87,1.87,0,0,0-1.5.64,2.66,2.66,0,0,0-.54,1.76v4.3h-1.22V69.11a2.54,2.54,0,0,0-.38-1.54,1.43,1.43,0,0,0-1.19-.48,1.87,1.87,0,0,0-1.51.64,2.61,2.61,0,0,0-.55,1.76v4.3Z"/><path class="cls-12" d="M351.27,63.05h1.49v1.38h-1.49Zm.12,10.74V66.25h1.22v7.54Z"/><path class="cls-12" d="M361.61,73.79h-1.2v-2l.18.16a2.54,2.54,0,0,1-1,1.46,2.94,2.94,0,0,1-1.75.51,3.2,3.2,0,0,1-1.75-.49A3.26,3.26,0,0,1,354.93,72a4.86,4.86,0,0,1-.42-2.08,4.81,4.81,0,0,1,.41-2,3.22,3.22,0,0,1,1.17-1.35,3.26,3.26,0,0,1,1.77-.48,2.94,2.94,0,0,1,1.75.51,2.58,2.58,0,0,1,1,1.45l-.2.15V62.75h1.22Zm-3.51-.9a2,2,0,0,0,1.7-.76,4.11,4.11,0,0,0,0-4.29,2.06,2.06,0,0,0-1.71-.75,2.15,2.15,0,0,0-1.74.75,3.24,3.24,0,0,0-.62,2.11,3.42,3.42,0,0,0,.62,2.17A2.13,2.13,0,0,0,358.1,72.89Z"/><path class="cls-12" d="M370.61,73.79h-1.2v-2l.18.16a2.54,2.54,0,0,1-1,1.46,2.94,2.94,0,0,1-1.75.51,3.2,3.2,0,0,1-1.75-.49A3.26,3.26,0,0,1,363.93,72a4.86,4.86,0,0,1-.42-2.08,4.81,4.81,0,0,1,.41-2,3.22,3.22,0,0,1,1.17-1.35,3.26,3.26,0,0,1,1.77-.48,2.94,2.94,0,0,1,1.75.51,2.58,2.58,0,0,1,1,1.45l-.2.15V62.75h1.22Zm-3.51-.9a2,2,0,0,0,1.7-.76,4.11,4.11,0,0,0,0-4.29,2.06,2.06,0,0,0-1.71-.75,2.15,2.15,0,0,0-1.74.75,3.24,3.24,0,0,0-.62,2.11,3.42,3.42,0,0,0,.62,2.17A2.13,2.13,0,0,0,367.1,72.89Z"/><path class="cls-12" d="M373,73.79v-11h1.22v11Z"/><path class="cls-12" d="M382.71,72.89a3.49,3.49,0,0,1-1.27.74,4.73,4.73,0,0,1-1.58.27,4.16,4.16,0,0,1-2-.47,3.17,3.17,0,0,1-1.3-1.34,4.42,4.42,0,0,1-.46-2.09,4.5,4.5,0,0,1,.45-2.06,3.41,3.41,0,0,1,1.25-1.38,3.49,3.49,0,0,1,1.86-.49,3.17,3.17,0,0,1,1.72.44,2.8,2.8,0,0,1,1.1,1.27,4.6,4.6,0,0,1,.39,2V70h-5.7v-.79h5l-.39.55a3.14,3.14,0,0,0-.52-2,1.91,1.91,0,0,0-1.6-.71,2.11,2.11,0,0,0-1.72.77,3.36,3.36,0,0,0-.62,2.14,3.32,3.32,0,0,0,.65,2.22,2.42,2.42,0,0,0,1.92.75,3.56,3.56,0,0,0,1.26-.22,3.81,3.81,0,0,0,1.17-.66Z"/><path class="cls-12" d="M338.21,91.79V86.36c0-.35,0-.7,0-1.06a9.3,9.3,0,0,0-.09-1h1.15l.17,1.86-.17,0a2.32,2.32,0,0,1,.91-1.49,2.58,2.58,0,0,1,1.57-.5,2.06,2.06,0,0,1,.36,0,1.6,1.6,0,0,1,.33.07l0,1.11a2.45,2.45,0,0,0-.8-.12,2.06,2.06,0,0,0-1.25.34,1.92,1.92,0,0,0-.69.88,2.83,2.83,0,0,0-.22,1.12v4.3Z"/><path class="cls-12" d="M343.52,81.05H345v1.38h-1.48Zm.12,10.74V84.25h1.21v7.54Z"/><path class="cls-12" d="M350.52,95.14a5.53,5.53,0,0,1-3-.78l.21-1a6,6,0,0,0,1.34.58,5.15,5.15,0,0,0,1.42.18,2.16,2.16,0,0,0,1.64-.58,2.32,2.32,0,0,0,.57-1.71v-2l.16-.2a2.82,2.82,0,0,1-.56,1,2.58,2.58,0,0,1-.94.69,3.15,3.15,0,0,1-1.26.24,3.21,3.21,0,0,1-2.95-1.79,4.32,4.32,0,0,1-.42-2,4.36,4.36,0,0,1,.42-2,3.18,3.18,0,0,1,2.95-1.78,3,3,0,0,1,1.78.51,2.58,2.58,0,0,1,1,1.45l-.18-.16V84.25h1.22v7.48a3,3,0,0,1-3.41,3.41Zm-.15-4.59a2.17,2.17,0,0,0,1.72-.73,3.55,3.55,0,0,0,0-4,2.16,2.16,0,0,0-1.72-.72,2.23,2.23,0,0,0-1.75.72,3,3,0,0,0-.63,2,3,3,0,0,0,.63,2A2.23,2.23,0,0,0,350.37,90.55Z"/><path class="cls-12" d="M356.27,91.79v-11h1.21v5l-.19.15a2.58,2.58,0,0,1,1-1.39,3,3,0,0,1,1.69-.47c1.81,0,2.72,1,2.72,3v4.74h-1.22V87.11a2.34,2.34,0,0,0-.42-1.54,1.67,1.67,0,0,0-1.32-.48,2.24,2.24,0,0,0-1.68.64,2.38,2.38,0,0,0-.63,1.74v4.32Z"/><path class="cls-12" d="M364,85.21v-1h4.84v1Zm4.81,5.5v1a5,5,0,0,1-.5.11,4.58,4.58,0,0,1-.55,0,2.29,2.29,0,0,1-1.67-.6,2.37,2.37,0,0,1-.62-1.8V82.31l1.21-.43v7.45a2.11,2.11,0,0,0,.17.93,1,1,0,0,0,.48.46,1.78,1.78,0,0,0,.67.13,2.54,2.54,0,0,0,.41,0A2.73,2.73,0,0,0,368.79,90.71Z"/></g><polygon class="cls-12" points="385.81 55.6 390.78 46.98 380.83 46.98 385.81 55.6"/><text class="cls-3" transform="translate(10 22.5)">display write</text><path class="cls-10" d="M128.19,11.32l2,1.56a8,8,0,0,0-1.87,2.72,7.42,7.42,0,0,0-.46,2.57l-1.25-.88h3.79v5.39H125V18.89a11,11,0,0,1,.7-4A10.29,10.29,0,0,1,128.19,11.32Zm8.71,0,2,1.56A8,8,0,0,0,137,15.6a7.43,7.43,0,0,0-.47,2.57l-1.24-.88h3.78v5.39h-5.34V18.89a11.18,11.18,0,0,1,.7-4A10.46,10.46,0,0,1,136.9,11.32Z"/></g></g></svg>