<svg xmlns="http://www.w3.org/2000/svg" viewBox="0 0 595.28 41"><defs><style>.cls-1,.cls-4,.cls-7{fill:none;}.cls-2{fill:#474484;}.cls-3{fill:#5a55a5;}.cls-4{stroke:#8b87be;}.cls-5{fill:#3d4986;}.cls-6{fill:#4c5ba6;}.cls-7{stroke:#818dc1;}.cls-8{opacity:0.6;}.cls-12,.cls-9{fill:#fff;}.cls-10,.cls-12{isolation:isolate;}.cls-11{fill:#010101;}.cls-12{font-size:15px;font-family:Mulish-Regular, Mulish;}.cls-13{letter-spacing:-0.01em;}</style></defs><g id="Layer_2" data-name="Layer 2"><g id="Layer_1-2" data-name="Layer 1"><rect class="cls-1" width="595.28" height="18"/><path class="cls-2" d="M1,9A8,8,0,0,1,9,1h7l6,4h3l6-4H403V37H30.5l-6,4h-3l-6-4H9a8,8,0,0,1-8-8ZM151.18,6h-30.8v5c0,10-8-8-8,7.5s8-2.5,8,7.5v7h30.8Zm74.5,0h-30.8v5c0,10-8-8-8,7.5s8-2.5,8,7.5v7h30.8Zm92.77,0h-48.4v5c0,10-8-8-8,7.5s8-2.5,8,7.5v7h48.4ZM393,6h-30.8v5c0,10-8-8-8,7.5s8-2.5,8,7.5v7H393Z"/><path class="cls-3" d="M0,8A8,8,0,0,1,8,0h7l6,4h3l6-4H402V36H29.5l-6,4h-3l-6-4H8a8,8,0,0,1-8-8ZM150.18,5h-30.8v5c0,10-8-8-8,7.5s8-2.5,8,7.5v7h30.8Zm74.5,0h-30.8v5c0,10-8-8-8,7.5s8-2.5,8,7.5v7h30.8Zm92.77,0h-48.4v5c0,10-8-8-8,7.5s8-2.5,8,7.5v7h48.4ZM392,5h-30.8v5c0,10-8-8-8,7.5s8-2.5,8,7.5v7H392Z"/><path class="cls-4" d="M.5,7.5A7.5,7.5,0,0,1,8,.5h7l6,4h3l6-4h9.5m0,0h362M2.7,33.3A7.47,7.47,0,0,1,.5,28V8M150.68,5.5v27h-30.8m-5.6-8.2L118,22.2M225.18,5.5v27h-30.8m-5.6-8.2,3.68-2.1M318,5.5v27h-48.4M264,24.3l3.68-2.1M392.45,5.5v27h-30.8m-5.6-8.2,3.68-2.1"/><path class="cls-5" d="M121.38,7h28.8V32h-28.8V27c0-10-8,8-8-7.5s8,2.5,8-7.5Z"/><path class="cls-6" d="M120.38,6h28.8V31h-28.8V26c0-10-8,8-8-7.5s8,2.5,8-7.5Z"/><path class="cls-7" d="M120.88,6.5h27.8m-27.8,24v-6m-7.36-.5a20.35,20.35,0,0,1,0-11m7.36,1V6.5h.5"/><g class="cls-8"><rect class="cls-9" x="125.38" y="11" width="18.8" height="16" rx="4"/></g><g class="cls-10"><path class="cls-11" d="M134.88,23.62a3.15,3.15,0,0,1-2.78-1.39,7.22,7.22,0,0,1-.95-4.07,7.23,7.23,0,0,1,.94-4.07,3.5,3.5,0,0,1,5.58,0,7.19,7.19,0,0,1,1,4.05,7.23,7.23,0,0,1-1,4.08A3.16,3.16,0,0,1,134.88,23.62Zm0-1a2,2,0,0,0,1.89-1.08,7.21,7.21,0,0,0,.6-3.37,7,7,0,0,0-.6-3.33,2.2,2.2,0,0,0-3.77,0,7,7,0,0,0-.61,3.32,7.19,7.19,0,0,0,.61,3.37A2,2,0,0,0,134.88,22.59Z"/></g><path class="cls-5" d="M195.88,7h28.8V32h-28.8V27c0-10-8,8-8-7.5s8,2.5,8-7.5Z"/><path class="cls-6" d="M194.88,6h28.8V31h-28.8V26c0-10-8,8-8-7.5s8,2.5,8-7.5Z"/><path class="cls-7" d="M195.38,6.5h27.8m-27.8,24v-6M188,24a20.35,20.35,0,0,1,0-11m7.36,1V6.5h.5"/><g class="cls-8"><rect class="cls-9" x="199.88" y="11" width="18.8" height="16" rx="4"/></g><g class="cls-10"><path class="cls-11" d="M209.38,23.62a3.15,3.15,0,0,1-2.78-1.39,7.22,7.22,0,0,1-.95-4.07,7.23,7.23,0,0,1,.94-4.07,3.5,3.5,0,0,1,5.58,0,7.19,7.19,0,0,1,1,4.05,7.23,7.23,0,0,1-1,4.08A3.16,3.16,0,0,1,209.38,23.62Zm0-1a2,2,0,0,0,1.89-1.08,7.21,7.21,0,0,0,.6-3.37,7,7,0,0,0-.6-3.33,2.2,2.2,0,0,0-3.77,0,7,7,0,0,0-.61,3.32,7.19,7.19,0,0,0,.61,3.37A2,2,0,0,0,209.38,22.59Z"/></g><path class="cls-5" d="M271.05,7h46.4V32h-46.4V27c0-10-8,8-8-7.5s8,2.5,8-7.5Z"/><path class="cls-6" d="M270.05,6h46.4V31h-46.4V26c0-10-8,8-8-7.5s8,2.5,8-7.5Z"/><path class="cls-7" d="M270.55,6.5H316m-45.4,24v-6m-7.36-.5a20.35,20.35,0,0,1,0-11m7.36,1V6.5h.5"/><g class="cls-8"><rect class="cls-9" x="275.05" y="11" width="36.4" height="16" rx="4"/></g><g class="cls-10"><path class="cls-11" d="M282,23.5v-1h5.95v1Zm2.35-.55V13.54l.71.36-2.9,1.85V14.56l2.73-1.74h.71V23Z"/><path class="cls-11" d="M290.3,23.5v-.93L294,18.43a8,8,0,0,0,1.1-1.51,3.1,3.1,0,0,0,.34-1.35,1.74,1.74,0,0,0-.51-1.36,2.05,2.05,0,0,0-1.46-.47A4.09,4.09,0,0,0,292,14a5.84,5.84,0,0,0-1.5.93L290,14a4.63,4.63,0,0,1,1.59-1,5.45,5.45,0,0,1,1.93-.36,3.83,3.83,0,0,1,1.69.34,2.48,2.48,0,0,1,1.1,1,2.71,2.71,0,0,1,.39,1.5,3.92,3.92,0,0,1-.41,1.76,8.33,8.33,0,0,1-1.37,1.9l-3.6,3.9-.09-.6h5.93v1Z"/><path class="cls-11" d="M301.06,23.5h-1.32L305,13.36l.1.5H299v-1h7.05v.92Z"/></g><path class="cls-5" d="M363.15,7H392V32h-28.8V27c0-10-8,8-8-7.5s8,2.5,8-7.5Z"/><path class="cls-6" d="M362.15,6H391V31h-28.8V26c0-10-8,8-8-7.5s8,2.5,8-7.5Z"/><path class="cls-7" d="M362.65,6.5h27.8m-27.8,24v-6m-7.36-.5a20.35,20.35,0,0,1,0-11m7.36,1V6.5h.5"/><g class="cls-8"><rect class="cls-9" x="367.15" y="11" width="18.8" height="16" rx="4"/></g><g class="cls-10"><path class="cls-11" d="M376.65,23.62a3.14,3.14,0,0,1-2.78-1.39,7.14,7.14,0,0,1-.95-4.07,7.23,7.23,0,0,1,.94-4.07,3.5,3.5,0,0,1,5.58,0,7.19,7.19,0,0,1,.95,4.05,7.15,7.15,0,0,1-1,4.08A3.13,3.13,0,0,1,376.65,23.62Zm0-1a2,2,0,0,0,1.88-1.08,7.07,7.07,0,0,0,.61-3.37,6.89,6.89,0,0,0-.61-3.33,2.19,2.19,0,0,0-3.76,0,6.89,6.89,0,0,0-.61,3.32,7.07,7.07,0,0,0,.61,3.37A2,2,0,0,0,376.65,22.59Z"/></g><text class="cls-12" transform="translate(10 22.5)">d<tspan class="cls-13" x="9" y="0">r</tspan><tspan x="14.28" y="0">aw line</tspan></text><text class="cls-12" transform="translate(85.02 22.5)">X1</text><text class="cls-12" transform="translate(160.18 22.5)">Y1</text><text class="cls-12" transform="translate(234.68 22.5)">X2</text><text class="cls-12" transform="translate(327.45 22.5)">Y2</text></g></g></svg>