<svg xmlns="http://www.w3.org/2000/svg" viewBox="0 0 595.28 37.73"><defs><style>.cls-1{fill:#231f20;}.cls-2{fill:#303030;}.cls-3{fill:#f2c07d;}.cls-4{fill:#5a55a5;}.cls-5{fill:#d7a970;}.cls-6{fill:#343586;}.cls-7{fill:#333;}.cls-8{fill:none;}</style></defs><g id="Layer_2" data-name="Layer 2"><g id="Layer_1-2" data-name="Layer 1"><path class="cls-1" d="M85.23,31.55V5.92h9.43a15.7,15.7,0,0,1,7.17,1.51,10.48,10.48,0,0,1,4.51,4.38,14.09,14.09,0,0,1,1.57,6.89,14.3,14.3,0,0,1-1.57,7A10.39,10.39,0,0,1,101.81,30a15.57,15.57,0,0,1-7.15,1.51Zm4.64-3.78h4.5c3,0,5.17-.75,6.65-2.26s2.21-3.78,2.21-6.81q0-9-8.86-9h-4.5Z"/><path class="cls-1" d="M112.27,31.55v-13c0-.84,0-1.7-.06-2.57a24,24,0,0,0-.23-2.58h4.25l.5,4.68-.5-.25a5.62,5.62,0,0,1,2.12-3.63,6.1,6.1,0,0,1,3.74-1.23,7.88,7.88,0,0,1,1,.07,3.71,3.71,0,0,1,.83.22l-.07,4.1a6.15,6.15,0,0,0-2.38-.46,4.87,4.87,0,0,0-2.64.64,4.16,4.16,0,0,0-1.55,1.75,5.63,5.63,0,0,0-.52,2.47v9.82Z"/><path class="cls-1" d="M133.11,31.81a7.81,7.81,0,0,1-4.21-1.14,7.3,7.3,0,0,1-2.83-3.24,11.51,11.51,0,0,1-1-4.95,11.71,11.71,0,0,1,1-5,8,8,0,0,1,2.83-3.35,7.43,7.43,0,0,1,4.19-1.2,7,7,0,0,1,4,1.13,5.67,5.67,0,0,1,2.33,3.15l-.44.25V13.37h4.43V31.55H139v-4.1l.44.14a5.47,5.47,0,0,1-2.33,3.12A7.26,7.26,0,0,1,133.11,31.81Zm1.22-3.46a4.17,4.17,0,0,0,3.46-1.55A6.89,6.89,0,0,0,139,22.41,7,7,0,0,0,137.79,18a4.18,4.18,0,0,0-3.46-1.53A4.23,4.23,0,0,0,130.81,18a7,7,0,0,0-1.26,4.46,6.66,6.66,0,0,0,1.26,4.34A4.3,4.3,0,0,0,134.33,28.35Z"/><path class="cls-1" d="M153.38,31.55l-7.13-18.18h4.64L156,27.45h-.9l5.14-14.08h3.28l5.11,14.08h-.83l5.12-14.08h4.35l-7.13,18.18h-3.92L160.69,16.9h2.05L157.3,31.55Z"/><path class="cls-2" d="M44.08,37.13a43.94,43.94,0,0,0,6.69,0,21.61,21.61,0,0,0,6.35-1.38q.72-.32,1.41-.69a11,11,0,0,0,1.3-.83A6.53,6.53,0,0,0,61.71,32a7.47,7.47,0,0,0,.75-3,4.87,4.87,0,0,0-.6-2.85c-1-1.64-3-2.43-4.72-2.93a34,34,0,0,0-6.42-1.06c-1.74-.16-3.48-.26-5.23-.35l-2.31-.11c-.61,0-1.23,0-1.84,0-1.11,0-2.21-.07-3.32-.14a60.75,60.75,0,0,1-6.6-.69,18.43,18.43,0,0,1-2.67-.6,16.31,16.31,0,0,1-2.94-1.27,9.08,9.08,0,0,1-4.19-4.27,6.15,6.15,0,0,1-.4-3.09A5,5,0,0,1,22.44,8.9a8.27,8.27,0,0,1,3.23-2.09,20,20,0,0,1,6.26-1.26,28.54,28.54,0,0,1,4,0c1.82.15,3.63.37,5.45.58,2.21.26,4.43.55,6.66.74,1.1.1,2.2.25,3.3.36s2.21.21,3.32.26a30.28,30.28,0,0,0,3.3,0,11,11,0,0,0,3.15-.61,4.23,4.23,0,0,0,2.15-1.64,4.42,4.42,0,0,1-2.32,2,12.2,12.2,0,0,1-3.19.83,39.63,39.63,0,0,1-6.8.24l-1.71-.07c-.57,0-1.14-.1-1.7-.16L46.28,8c-1.79-.19-3.58-.4-5.37-.61s-3.49-.43-5.25-.56a28.54,28.54,0,0,0-4.89.07,20.37,20.37,0,0,0-3.28.61,12.64,12.64,0,0,0-2.37.92,5,5,0,0,0-2.5,2.48,4.65,4.65,0,0,0,0,3.06,6.06,6.06,0,0,0,1.61,2.39A10.77,10.77,0,0,0,26.73,18a14.87,14.87,0,0,0,3,1.18c.39.11.8.18,1.2.26.56.11,1.12.2,1.69.28,1.13.15,2.26.27,3.4.37,2.15.18,4.32.27,6.48.3.74,0,1.48.05,2.21.09,1.53.08,3.06.15,4.59.26a49.56,49.56,0,0,1,6.77.88,19.15,19.15,0,0,1,3.1.94,8.87,8.87,0,0,1,2.69,1.65,5.53,5.53,0,0,1,1.58,2.59,7.88,7.88,0,0,1,.07,3.35,8.18,8.18,0,0,1-1.11,2.95,8.48,8.48,0,0,1-2.14,2.25,13,13,0,0,1-6.06,2.12,30.76,30.76,0,0,1-6.85.06C46.28,37.46,45.18,37.32,44.08,37.13Z"/><path class="cls-3" d="M41.51,36.75a14.09,14.09,0,0,1-8-6.19h0L37,29l5.33-2.36S44,31,41.51,36.75Z"/><path class="cls-4" d="M39,31.12a7.16,7.16,0,0,1-.94.35l-.2.06c-1.86.52-3.57.25-4.24-.71h0a1.17,1.17,0,0,1-.15-.27h0L22.27,5.14l3.5-1.55L31.1,1.24,42.33,26.65C42.94,28.05,41.46,30.05,39,31.12Z"/><path class="cls-5" d="M41.51,36.75a14.09,14.09,0,0,1-8-6.19h0L37,29l.64,1.47C37.79,30.82,39.89,35.66,41.51,36.75Z"/><path class="cls-6" d="M38.09,31.47l-.2.06c-1.86.52-3.57.25-4.24-.71h0a2.73,2.73,0,0,1-.14-.26h0L22.27,5.14l3.5-1.55L37,29l.64,1.47Z"/><ellipse class="cls-5" cx="26.69" cy="3.19" rx="4.82" ry="2.76" transform="translate(0.99 11.06) rotate(-23.84)"/><path class="cls-7" d="M25.14,4.62a.75.75,0,0,1-.69-.44.76.76,0,0,1,.17-.86,6.24,6.24,0,0,1,1.65-1.06,6.12,6.12,0,0,1,1.9-.51.77.77,0,0,1,.75.45.75.75,0,0,1-.17.85A6,6,0,0,1,27.1,4.12a6.09,6.09,0,0,1-1.9.5Z"/><path class="cls-7" d="M42.51,33.74a15.82,15.82,0,0,1-1,3h0a17.08,17.08,0,0,1-2.78-1.22,4.36,4.36,0,0,1,.89-1.15A2.86,2.86,0,0,1,42.51,33.74Z"/><rect class="cls-8" width="595.28" height="18"/></g></g></svg>