<svg xmlns="http://www.w3.org/2000/svg" viewBox="0 0 595.28 41"><defs><style>.cls-1{fill:none;}.cls-2{fill:#474484;}.cls-3{fill:#5a55a5;}.cls-4{fill:#8b87be;}.cls-5{fill:#3d4986;}.cls-6{fill:#4c5ba6;}.cls-7{fill:#818dc1;}.cls-8{opacity:0.6;}.cls-9{fill:#fff;}.cls-10{isolation:isolate;}.cls-11{fill:#010101;}</style></defs><g id="Layer_2" data-name="Layer 2"><g id="Layer_1-2" data-name="Layer 1"><rect class="cls-1" width="595.28" height="18"/><path class="cls-2" d="M1,9A8,8,0,0,1,9,1h7l6,4h3l6-4H274.43V37H30.5l-6,4h-3l-6-4H9a8,8,0,0,1-8-8ZM189.93,6h-39.6v5c0,10-8-8-8,7.5s8-2.5,8,7.5v7h39.6Zm74.5,0h-39.6v5c0,10-8-8-8,7.5s8-2.5,8,7.5v7h39.6Z"/><path class="cls-3" d="M0,8A8,8,0,0,1,8,0h7l6,4h3l6-4H273.43V36H29.5l-6,4h-3l-6-4H8a8,8,0,0,1-8-8ZM188.93,5h-39.6v5c0,10-8-8-8,7.5s8-2.5,8,7.5v7h39.6Zm74.5,0h-39.6v5c0,10-8-8-8,7.5s8-2.5,8,7.5v7h39.6Z"/><path class="cls-4" d="M2.34,33.66A8,8,0,0,1,0,28V8H1V28a7,7,0,0,0,2.05,5ZM264.43,33h-40.1V32h39.1V5.5h1Zm-74.5,0h-40.1V32h39.1V5.5h1Zm29-8.26-.49-.87,3.68-2.1.49.86Zm-74.5,0-.49-.87,3.68-2.1.49.86ZM1,7.53,0,7.47A8,8,0,0,1,8,0h7.17l6,4h2.7l6-4H272.93V1H30.15l-6,4h-3.3l-6-4H8A7,7,0,0,0,1,7.53Z"/><path class="cls-5" d="M151.33,7h37.6V32h-37.6V27c0-10-8,8-8-7.5s8,2.5,8-7.5Z"/><path class="cls-6" d="M150.33,6h37.6V31h-37.6V26c0-10-8,8-8-7.5s8,2.5,8-7.5Z"/><path class="cls-7" d="M151.33,30.5h-1v-6h1ZM143,24.13a20.9,20.9,0,0,1,0-11.26l1,.26a19.79,19.79,0,0,0,0,10.74ZM151.33,14h-1V6h37.1V7h-36.1Z"/><g class="cls-8"><rect class="cls-9" x="155.33" y="11" width="27.6" height="16" rx="4"/></g><g class="cls-10"><path class="cls-11" d="M162.25,23.5v-1h6v1Zm2.36-.55V13.54l.7.36-2.89,1.85V14.56l2.73-1.74h.7V23Z"/><path class="cls-11" d="M173.83,23.61a5.17,5.17,0,0,1-2-.36,3,3,0,0,1-1.33-1,2.65,2.65,0,0,1-.47-1.57,2.47,2.47,0,0,1,.75-1.85,3.48,3.48,0,0,1,2-.91l-.08.22a3.22,3.22,0,0,1-1.8-.91,2.38,2.38,0,0,1-.64-1.68,2.48,2.48,0,0,1,.46-1.51,2.84,2.84,0,0,1,1.26-1,4.64,4.64,0,0,1,1.86-.35,4.69,4.69,0,0,1,1.87.35A2.84,2.84,0,0,1,177,14a2.48,2.48,0,0,1,.46,1.51,2.37,2.37,0,0,1-.64,1.68,3,3,0,0,1-1.79.91l-.09-.22a3.35,3.35,0,0,1,2,.92,2.5,2.5,0,0,1,.73,1.84,2.65,2.65,0,0,1-.47,1.57,3,3,0,0,1-1.33,1A5.22,5.22,0,0,1,173.83,23.61Zm0-1a3.18,3.18,0,0,0,1.94-.5,1.75,1.75,0,0,0,.67-1.49,1.64,1.64,0,0,0-.73-1.43,3.89,3.89,0,0,0-1.88-.64,3.85,3.85,0,0,0-1.87.64,1.65,1.65,0,0,0-.74,1.43,1.76,1.76,0,0,0,.68,1.49A3.15,3.15,0,0,0,173.83,22.58Zm0-4.91a3.38,3.38,0,0,0,1.71-.65,1.7,1.7,0,0,0,.65-1.39,1.74,1.74,0,0,0-.62-1.41,2.75,2.75,0,0,0-1.74-.5,2.72,2.72,0,0,0-1.73.5,1.74,1.74,0,0,0-.62,1.41,1.7,1.7,0,0,0,.65,1.39A3.34,3.34,0,0,0,173.83,17.67Z"/></g><path class="cls-5" d="M225.83,7h37.6V32h-37.6V27c0-10-8,8-8-7.5s8,2.5,8-7.5Z"/><path class="cls-6" d="M224.83,6h37.6V31h-37.6V26c0-10-8,8-8-7.5s8,2.5,8-7.5Z"/><path class="cls-7" d="M225.83,30.5h-1v-6h1Zm-8.34-6.37a20.9,20.9,0,0,1,0-11.26l1,.26a19.79,19.79,0,0,0,0,10.74ZM225.83,14h-1V6h37.1V7h-36.1Z"/><g class="cls-8"><rect class="cls-9" x="229.83" y="11" width="27.6" height="16" rx="4"/></g><g class="cls-10"><path class="cls-11" d="M239.5,23.61a5.35,5.35,0,0,1-1.92-.36,4.51,4.51,0,0,1-1.59-1l.46-.95a5.68,5.68,0,0,0,1.5.91,3.81,3.81,0,0,0,1.55.32,2.35,2.35,0,0,0,1.76-.64,2.31,2.31,0,0,0,.64-1.73,2.61,2.61,0,0,0-.29-1.24,2.06,2.06,0,0,0-.8-.83,2.37,2.37,0,0,0-1.22-.3,2.91,2.91,0,0,0-1.37.31,3,3,0,0,0-1.08.94h-.85V12.82h6.4v1h-5.17v4.32l-.39,0a2.94,2.94,0,0,1,1.12-1,3.31,3.31,0,0,1,1.53-.34,3.56,3.56,0,0,1,1.77.42,3,3,0,0,1,1.16,1.2,3.69,3.69,0,0,1,.4,1.76,3.43,3.43,0,0,1-.44,1.78,3,3,0,0,1-1.25,1.21A4,4,0,0,1,239.5,23.61Z"/><path class="cls-11" d="M248.68,23.62a3.59,3.59,0,0,1-3-1.34,6.15,6.15,0,0,1-1.05-3.85,8.88,8.88,0,0,1,.49-3.1,4.26,4.26,0,0,1,1.41-1.95,3.59,3.59,0,0,1,2.21-.68,4.84,4.84,0,0,1,1.8.34,4.59,4.59,0,0,1,1.55,1l-.47,1a5.51,5.51,0,0,0-1.44-.94,3.56,3.56,0,0,0-1.41-.29A2.38,2.38,0,0,0,246.64,15a6.5,6.5,0,0,0-.77,3.46v1.29l-.18-.41a2.89,2.89,0,0,1,.56-1.33,3,3,0,0,1,1.09-.87,3.37,3.37,0,0,1,1.44-.3,3.5,3.5,0,0,1,1.74.42,3.07,3.07,0,0,1,1.17,1.2,3.58,3.58,0,0,1,.42,1.76,3.51,3.51,0,0,1-.44,1.78,3.22,3.22,0,0,1-1.21,1.22A3.59,3.59,0,0,1,248.68,23.62Zm-.06-1a2.17,2.17,0,0,0,1.65-.65,2.37,2.37,0,0,0,.63-1.73,2.38,2.38,0,0,0-.63-1.72,2.24,2.24,0,0,0-1.67-.65,2.39,2.39,0,0,0-1.23.31,2.12,2.12,0,0,0-.84.84,2.42,2.42,0,0,0-.3,1.22,2.49,2.49,0,0,0,.3,1.25,2.19,2.19,0,0,0,.84.84A2.54,2.54,0,0,0,248.62,22.58Z"/></g><g class="cls-10"><path class="cls-9" d="M17.82,22.5h-1.2v-2l.18.16a2.51,2.51,0,0,1-1,1.45,2.9,2.9,0,0,1-1.75.52,3.17,3.17,0,0,1-1.75-.49,3.26,3.26,0,0,1-1.18-1.38,4.86,4.86,0,0,1-.42-2.08,4.81,4.81,0,0,1,.41-2.05,3.06,3.06,0,0,1,2.94-1.83,3,3,0,0,1,1.75.51,2.58,2.58,0,0,1,1,1.45l-.2.15V11.46h1.22Zm-3.51-.9a2.06,2.06,0,0,0,1.7-.76,3.38,3.38,0,0,0,.61-2.15,3.38,3.38,0,0,0-.6-2.14,2.08,2.08,0,0,0-1.71-.75,2.15,2.15,0,0,0-1.74.75A3.24,3.24,0,0,0,12,18.66a3.42,3.42,0,0,0,.62,2.17A2.13,2.13,0,0,0,14.31,21.6Z"/><path class="cls-9" d="M20.17,22.5V17.07c0-.35,0-.7,0-1.06s0-.7-.1-1.05h1.16l.16,1.86-.16-.05a2.31,2.31,0,0,1,.9-1.49,2.6,2.6,0,0,1,1.57-.5,2.23,2.23,0,0,1,.37,0,1.14,1.14,0,0,1,.32.07l0,1.11a2.39,2.39,0,0,0-.79-.12,2.11,2.11,0,0,0-1.26.34,2.06,2.06,0,0,0-.69.88,3,3,0,0,0-.22,1.12v4.3Z"/><path class="cls-9" d="M28.35,22.61a3.26,3.26,0,0,1-1.77-.48,3.11,3.11,0,0,1-1.17-1.35A4.85,4.85,0,0,1,25,18.72a4.78,4.78,0,0,1,.42-2.07,3.26,3.26,0,0,1,1.18-1.38,3.12,3.12,0,0,1,1.75-.49,2.94,2.94,0,0,1,1.75.51,2.51,2.51,0,0,1,1,1.45l-.18.12V15h1.2V22.5H30.9V20.55l.18.09a2.51,2.51,0,0,1-1,1.45A2.88,2.88,0,0,1,28.35,22.61Zm.24-1a2,2,0,0,0,1.71-.76,3.38,3.38,0,0,0,.6-2.15,3.35,3.35,0,0,0-.61-2.14,2.07,2.07,0,0,0-1.7-.75,2.11,2.11,0,0,0-1.74.77,3.36,3.36,0,0,0-.62,2.15,3.28,3.28,0,0,0,.62,2.13A2.15,2.15,0,0,0,28.59,21.6Z"/><path class="cls-9" d="M36.48,22.5,33.69,15H35l2.33,6.64H36.9L39.3,15h1.06l2.37,6.64h-.39L44.71,15h1.2L43.12,22.5H42l-2.49-6.79h.66L37.65,22.5Z"/><path class="cls-9" d="M55.72,22.62a4.24,4.24,0,0,1-3.16-1.09,4.36,4.36,0,0,1-1.08-3.21v-6.5h1.21v6.6a3.21,3.21,0,0,0,.77,2.36,3.6,3.6,0,0,0,4.5,0,3.33,3.33,0,0,0,.76-2.36v-6.6H60v6.5a4.39,4.39,0,0,1-1.08,3.21A4.27,4.27,0,0,1,55.72,22.62Z"/><path class="cls-9" d="M65.9,22.62a8.4,8.4,0,0,1-1.54-.14A5.48,5.48,0,0,1,63,22a4.64,4.64,0,0,1-1.11-.76l.46-.94a5.44,5.44,0,0,0,1.63,1,5.78,5.78,0,0,0,1.91.28,3.41,3.41,0,0,0,2-.5,1.65,1.65,0,0,0,.71-1.42,1.15,1.15,0,0,0-.36-.89,2.33,2.33,0,0,0-1-.54c-.4-.14-.86-.26-1.37-.39a12.45,12.45,0,0,1-1.46-.38,5.24,5.24,0,0,1-1.22-.54,2.47,2.47,0,0,1-.83-.84,2.5,2.5,0,0,1-.3-1.28,2.76,2.76,0,0,1,.48-1.61,3.13,3.13,0,0,1,1.35-1.09,5,5,0,0,1,2-.39,5.92,5.92,0,0,1,1.41.16,5.11,5.11,0,0,1,1.26.46,4.69,4.69,0,0,1,1,.73L69.2,14a5.07,5.07,0,0,0-1.51-.95,4.71,4.71,0,0,0-1.7-.3,3.09,3.09,0,0,0-1.94.53,1.71,1.71,0,0,0-.71,1.47,1.37,1.37,0,0,0,.31.94,2.26,2.26,0,0,0,.89.58,12.69,12.69,0,0,0,1.3.4q.78.18,1.5.39a6.94,6.94,0,0,1,1.29.51,2.55,2.55,0,0,1,.89.8,2.16,2.16,0,0,1,.33,1.24,2.67,2.67,0,0,1-.48,1.59A3.13,3.13,0,0,1,68,22.25,5.36,5.36,0,0,1,65.9,22.62Z"/><path class="cls-9" d="M71.86,22.5V11.82h4.29a3.93,3.93,0,0,1,2.53.73,2.48,2.48,0,0,1,.92,2.06,2.5,2.5,0,0,1-.5,1.57,2.71,2.71,0,0,1-1.39.9V17a2.54,2.54,0,0,1,1.57.88,2.64,2.64,0,0,1,.57,1.74,2.61,2.61,0,0,1-.93,2.16,4.07,4.07,0,0,1-2.62.75Zm1.21-5.94H76a2.94,2.94,0,0,0,1.83-.48,1.7,1.7,0,0,0,.6-1.41,1.61,1.61,0,0,0-.6-1.37A3,3,0,0,0,76,12.84H73.07Zm0,4.92h3.12A3,3,0,0,0,78.05,21a1.73,1.73,0,0,0,.59-1.45,1.8,1.8,0,0,0-.6-1.47,2.88,2.88,0,0,0-1.85-.5H73.07Z"/><path class="cls-9" d="M85.72,11.76H87.2v1.38H85.72Zm.12,10.74V15h1.21V22.5Z"/><path class="cls-9" d="M92.57,22.61a3.7,3.7,0,0,1-1.92-.48,3.26,3.26,0,0,1-1.25-1.35A4.57,4.57,0,0,1,89,18.72a4.5,4.5,0,0,1,.45-2.06,3.29,3.29,0,0,1,1.27-1.39,3.72,3.72,0,0,1,1.95-.49,4.12,4.12,0,0,1,1.48.26,3.22,3.22,0,0,1,1.18.72l-.41.91A4.9,4.9,0,0,0,93.8,16a3,3,0,0,0-1.11-.21,2.25,2.25,0,0,0-1.8.76,3.16,3.16,0,0,0-.67,2.16,3.12,3.12,0,0,0,.66,2.13,2.28,2.28,0,0,0,1.81.75,2.84,2.84,0,0,0,1.1-.22,4.35,4.35,0,0,0,1.09-.65l.41.9a3.34,3.34,0,0,1-1.21.71A4.29,4.29,0,0,1,92.57,22.61Z"/><path class="cls-9" d="M100,22.61a3.6,3.6,0,0,1-1.88-.48,3.27,3.27,0,0,1-1.24-1.36,4.52,4.52,0,0,1-.45-2.08,4.51,4.51,0,0,1,.45-2.07,3.3,3.3,0,0,1,1.24-1.37,3.69,3.69,0,0,1,1.88-.47,3.73,3.73,0,0,1,1.89.47,3.3,3.3,0,0,1,1.24,1.37,4.51,4.51,0,0,1,.44,2.07,4.52,4.52,0,0,1-.44,2.08,3.27,3.27,0,0,1-1.24,1.36A3.64,3.64,0,0,1,100,22.61Zm0-1a2.11,2.11,0,0,0,1.72-.74,3.34,3.34,0,0,0,.61-2.17,3.29,3.29,0,0,0-.62-2.14,2.32,2.32,0,0,0-3.42,0,3.23,3.23,0,0,0-.63,2.14,3.4,3.4,0,0,0,.61,2.17A2.13,2.13,0,0,0,100,21.6Z"/><path class="cls-9" d="M105.41,22.5V17.07c0-.35,0-.7,0-1.06a9.32,9.32,0,0,0-.1-1.05h1.16l.13,1.55-.15.13a2.58,2.58,0,0,1,1-1.39,3,3,0,0,1,1.7-.47c1.81,0,2.71,1,2.71,3V22.5h-1.21V17.82a2.34,2.34,0,0,0-.42-1.54,1.67,1.67,0,0,0-1.32-.48,2.24,2.24,0,0,0-1.68.64,2.38,2.38,0,0,0-.63,1.74V22.5Z"/></g><g class="cls-10"><path class="cls-9" d="M125.36,22.5h-1.47L128,17l.72-.92,3.12-4.29h1.46L129.36,17l-.7.93Zm6.61,0L128.66,18,128,17l-3.87-5.21h1.47l3.12,4.29.69.93,4.07,5.46Z"/></g><g class="cls-10"><path class="cls-9" d="M202.86,22.5V17.7l.27.87-4.47-6.75h1.44l3.6,5.58h-.42l3.6-5.58h1.41l-4.45,6.75.25-.87v4.8Z"/></g></g></g></svg>