<svg xmlns="http://www.w3.org/2000/svg" viewBox="0 0 595.28 41"><defs><style>.cls-1,.cls-4,.cls-7{fill:none;}.cls-2{fill:#474484;}.cls-3{fill:#5a55a5;}.cls-4{stroke:#8b87be;}.cls-5{fill:#3d4986;}.cls-6{fill:#4c5ba6;}.cls-7{stroke:#818dc1;}.cls-8{opacity:0.6;}.cls-12,.cls-9{fill:#fff;}.cls-10,.cls-12{isolation:isolate;}.cls-11{fill:#010101;}.cls-12{font-size:15px;font-family:Mulish-Regular, Mulish;}.cls-13{letter-spacing:-0.01em;}.cls-14{letter-spacing:0em;}</style></defs><g id="Layer_2" data-name="Layer 2"><g id="Layer_1-2" data-name="Layer 1"><rect class="cls-1" width="595.28" height="18"/><path class="cls-2" d="M1,9A8,8,0,0,1,9,1h7l6,4h3l6-4H226V37H30.5l-6,4h-3l-6-4H9a8,8,0,0,1-8-8ZM150.3,6H119.5v5c0,10-8-8-8,7.5s8-2.5,8,7.5v7h30.8ZM216,6H185.2v5c0,10-8-8-8,7.5s8-2.5,8,7.5v7H216Z"/><path class="cls-3" d="M0,8A8,8,0,0,1,8,0h7l6,4h3l6-4H225V36H29.5l-6,4h-3l-6-4H8a8,8,0,0,1-8-8ZM149.3,5H118.5v5c0,10-8-8-8,7.5s8-2.5,8,7.5v7h30.8ZM215,5H184.2v5c0,10-8-8-8,7.5s8-2.5,8,7.5v7H215Z"/><path class="cls-4" d="M.5,7.5A7.5,7.5,0,0,1,8,.5h7l6,4h3l6-4h9.5m0,0h185M2.7,33.3A7.47,7.47,0,0,1,.5,28V8M149.8,5.5v27H119m-5.6-8.2,3.68-2.1M215.5,5.5v27H184.7m-5.6-8.2,3.68-2.1"/><path class="cls-5" d="M120.5,7h28.8V32H120.5V27c0-10-8,8-8-7.5s8,2.5,8-7.5Z"/><path class="cls-6" d="M119.5,6h28.8V31H119.5V26c0-10-8,8-8-7.5s8,2.5,8-7.5Z"/><path class="cls-7" d="M120,6.5h27.8M120,30.5v-6m-7.36-.5a20.35,20.35,0,0,1,0-11M120,14V6.5h.5"/><g class="cls-8"><rect class="cls-9" x="124.5" y="11" width="18.8" height="16" rx="4"/></g><g class="cls-10"><path class="cls-11" d="M134,23.62a3.14,3.14,0,0,1-2.78-1.39,7.14,7.14,0,0,1-.95-4.07,7.23,7.23,0,0,1,.94-4.07,3.5,3.5,0,0,1,5.58,0,7.2,7.2,0,0,1,.94,4.05,7.17,7.17,0,0,1-.95,4.08A3.13,3.13,0,0,1,134,23.62Zm0-1a2,2,0,0,0,1.88-1.08,7,7,0,0,0,.61-3.36,6.86,6.86,0,0,0-.61-3.33,2.19,2.19,0,0,0-3.76,0,6.87,6.87,0,0,0-.61,3.32,7,7,0,0,0,.61,3.36A2,2,0,0,0,134,22.58Z"/></g><path class="cls-5" d="M186.2,7H215V32H186.2V27c0-10-8,8-8-7.5s8,2.5,8-7.5Z"/><path class="cls-6" d="M185.2,6H214V31H185.2V26c0-10-8,8-8-7.5s8,2.5,8-7.5Z"/><path class="cls-7" d="M185.7,6.5h27.8m-27.8,24v-6m-7.36-.5a20.35,20.35,0,0,1,0-11m7.36,1V6.5h.5"/><g class="cls-8"><rect class="cls-9" x="190.2" y="11" width="18.8" height="16" rx="4"/></g><g class="cls-10"><path class="cls-11" d="M199.7,23.62a3.14,3.14,0,0,1-2.78-1.39,7.14,7.14,0,0,1-.95-4.07,7.23,7.23,0,0,1,.94-4.07,3.5,3.5,0,0,1,5.58,0,7.19,7.19,0,0,1,.95,4.05,7.17,7.17,0,0,1-1,4.08A3.13,3.13,0,0,1,199.7,23.62Zm0-1a2,2,0,0,0,1.88-1.08,7,7,0,0,0,.61-3.36,6.86,6.86,0,0,0-.61-3.33,2.19,2.19,0,0,0-3.76,0,6.87,6.87,0,0,0-.61,3.32,7,7,0,0,0,.61,3.36A2,2,0,0,0,199.7,22.58Z"/></g><text class="cls-12" transform="translate(10 22.5)">d<tspan class="cls-13" x="9" y="0">r</tspan><tspan x="14.28" y="0">aw pi</tspan><tspan class="cls-13" x="52.8" y="0">x</tspan><tspan class="cls-14" x="60.67" y="0">el</tspan></text><text class="cls-12" transform="translate(92.93 22.5)">X</text><text class="cls-12" transform="translate(159.3 22.5)">Y</text></g></g></svg>