<svg xmlns="http://www.w3.org/2000/svg" viewBox="0 0 595.28 41"><defs><style>.cls-1,.cls-4,.cls-7{fill:none;}.cls-2{fill:#474484;}.cls-3{fill:#5a55a5;}.cls-4{stroke:#8b87be;}.cls-5{fill:#3d4986;}.cls-6{fill:#4c5ba6;}.cls-7{stroke:#818dc1;}.cls-8{opacity:0.6;}.cls-12,.cls-9{fill:#fff;}.cls-10,.cls-12{isolation:isolate;}.cls-11{fill:#010101;}.cls-12{font-size:15px;font-family:Mulish-Regular, Mulish;}.cls-13{letter-spacing:-0.01em;}</style></defs><g id="Layer_2" data-name="Layer 2"><g id="Layer_1-2" data-name="Layer 1"><rect class="cls-1" width="595.28" height="18"/><path class="cls-2" d="M1,9A8,8,0,0,1,9,1h7l6,4h3l6-4H292.27V37H30.5l-6,4h-3l-6-4H9a8,8,0,0,1-8-8ZM207.77,6h-39.6v5c0,10-8-8-8,7.5s8-2.5,8,7.5v7h39.6Zm74.5,0h-39.6v5c0,10-8-8-8,7.5s8-2.5,8,7.5v7h39.6Z"/><path class="cls-3" d="M0,8A8,8,0,0,1,8,0h7l6,4h3l6-4H291.27V36H29.5l-6,4h-3l-6-4H8a8,8,0,0,1-8-8ZM206.77,5h-39.6v5c0,10-8-8-8,7.5s8-2.5,8,7.5v7h39.6Zm74.5,0h-39.6v5c0,10-8-8-8,7.5s8-2.5,8,7.5v7h39.6Z"/><path class="cls-4" d="M.5,7.5A7.5,7.5,0,0,1,8,.5h7l6,4h3l6-4h9.5m0,0H290.77M2.7,33.3A7.47,7.47,0,0,1,.5,28V8M207.27,5.5v27h-39.6m-5.6-8.2,3.68-2.1m116-16.7v27h-39.6m-5.6-8.2,3.68-2.1"/><path class="cls-5" d="M169.17,7h37.6V32h-37.6V27c0-10-8,8-8-7.5s8,2.5,8-7.5Z"/><path class="cls-6" d="M168.17,6h37.6V31h-37.6V26c0-10-8,8-8-7.5s8,2.5,8-7.5Z"/><path class="cls-7" d="M168.67,6.5h36.6m-36.6,24v-6m-7.36-.5a20.15,20.15,0,0,1,0-11m7.36,1V6.5h.5"/><g class="cls-8"><rect class="cls-9" x="173.17" y="11" width="27.6" height="16" rx="4"/></g><g class="cls-10"><path class="cls-11" d="M182.56,23.61a5.83,5.83,0,0,1-2-.35,4.56,4.56,0,0,1-1.61-1l.48-.95a5.29,5.29,0,0,0,1.49.92,4.15,4.15,0,0,0,1.6.31,2.57,2.57,0,0,0,1.73-.51,1.86,1.86,0,0,0,.6-1.5,1.79,1.79,0,0,0-.62-1.48,3,3,0,0,0-1.84-.49h-1.23v-1h1A2.81,2.81,0,0,0,184,17a1.84,1.84,0,0,0,.63-1.5,1.7,1.7,0,0,0-.52-1.34,2.1,2.1,0,0,0-1.46-.46,4.1,4.1,0,0,0-1.54.3,5.85,5.85,0,0,0-1.49.92l-.46-.94a4.68,4.68,0,0,1,1.59-1,5.65,5.65,0,0,1,1.95-.35,3.85,3.85,0,0,1,1.68.34,2.5,2.5,0,0,1,1.1,1,2.74,2.74,0,0,1,.38,1.46,2.69,2.69,0,0,1-.52,1.68,2.52,2.52,0,0,1-1.41.95l-.05-.15a2.8,2.8,0,0,1,1.65.92,2.68,2.68,0,0,1,.57,1.76,2.7,2.7,0,0,1-.94,2.19A3.82,3.82,0,0,1,182.56,23.61Z"/><path class="cls-11" d="M192,23.62a3.57,3.57,0,0,1-3-1.34A6.15,6.15,0,0,1,188,18.43a8.9,8.9,0,0,1,.48-3.1,4.35,4.35,0,0,1,1.41-2,3.67,3.67,0,0,1,2.22-.67,4.84,4.84,0,0,1,1.8.34,4.54,4.54,0,0,1,1.54,1L195,15a5.76,5.76,0,0,0-1.45-.93,3.51,3.51,0,0,0-1.4-.29A2.4,2.4,0,0,0,190,15a6.49,6.49,0,0,0-.76,3.45v1.3L189,19.3a2.88,2.88,0,0,1,.55-1.33,3,3,0,0,1,1.09-.87,3.42,3.42,0,0,1,1.45-.31,3.51,3.51,0,0,1,1.74.43A3.11,3.11,0,0,1,195,18.41a3.65,3.65,0,0,1,.42,1.77A3.51,3.51,0,0,1,195,22a3.29,3.29,0,0,1-1.21,1.22A3.59,3.59,0,0,1,192,23.62Zm-.06-1a2.17,2.17,0,0,0,1.65-.65,2.37,2.37,0,0,0,.63-1.73,2.38,2.38,0,0,0-.63-1.72,2.21,2.21,0,0,0-1.66-.65,2.39,2.39,0,0,0-1.23.31,2.12,2.12,0,0,0-.84.84,2.42,2.42,0,0,0-.3,1.22,2.49,2.49,0,0,0,.3,1.25,2.19,2.19,0,0,0,.84.84A2.5,2.5,0,0,0,192,22.58Z"/></g><path class="cls-5" d="M243.67,7h37.6V32h-37.6V27c0-10-8,8-8-7.5s8,2.5,8-7.5Z"/><path class="cls-6" d="M242.67,6h37.6V31h-37.6V26c0-10-8,8-8-7.5s8,2.5,8-7.5Z"/><path class="cls-7" d="M243.17,6.5h36.6m-36.6,24v-6m-7.36-.5a20.15,20.15,0,0,1,0-11m7.36,1V6.5h.5"/><g class="cls-8"><rect class="cls-9" x="247.67" y="11" width="27.6" height="16" rx="4"/></g><g class="cls-10"><path class="cls-11" d="M257.33,23.61a5.35,5.35,0,0,1-1.92-.36,4.51,4.51,0,0,1-1.59-1l.47-.95a5.91,5.91,0,0,0,1.49.91,4,4,0,0,0,1.55.32,2.35,2.35,0,0,0,1.76-.64,2.31,2.31,0,0,0,.64-1.73,2.61,2.61,0,0,0-.28-1.24,2.09,2.09,0,0,0-.81-.83,2.37,2.37,0,0,0-1.22-.3,2.91,2.91,0,0,0-1.37.31,3,3,0,0,0-1.07.94h-.86V12.82h6.41v1h-5.18v4.32l-.39,0a2.94,2.94,0,0,1,1.12-1,3.36,3.36,0,0,1,1.54-.35,3.57,3.57,0,0,1,1.77.43,3,3,0,0,1,1.15,1.19,3.76,3.76,0,0,1,.41,1.77A3.44,3.44,0,0,1,260.5,22a3,3,0,0,1-1.25,1.21A4,4,0,0,1,257.33,23.61Z"/><path class="cls-11" d="M266.51,23.62a3.57,3.57,0,0,1-3-1.34,6.15,6.15,0,0,1-1-3.85,8.9,8.9,0,0,1,.48-3.1,4.35,4.35,0,0,1,1.41-2,3.67,3.67,0,0,1,2.22-.67,4.84,4.84,0,0,1,1.8.34,4.54,4.54,0,0,1,1.54,1l-.46.94A5.76,5.76,0,0,0,268,14a3.51,3.51,0,0,0-1.4-.29A2.4,2.4,0,0,0,264.47,15a6.49,6.49,0,0,0-.76,3.45v1.3l-.18-.41a2.88,2.88,0,0,1,.55-1.33,3,3,0,0,1,1.09-.87,3.42,3.42,0,0,1,1.45-.31,3.51,3.51,0,0,1,1.74.43,3.11,3.11,0,0,1,1.17,1.19,3.65,3.65,0,0,1,.42,1.77A3.51,3.51,0,0,1,269.5,22a3.29,3.29,0,0,1-1.21,1.22A3.59,3.59,0,0,1,266.51,23.62Zm-.06-1a2.17,2.17,0,0,0,1.65-.65,2.37,2.37,0,0,0,.63-1.73,2.38,2.38,0,0,0-.63-1.72,2.21,2.21,0,0,0-1.66-.65,2.39,2.39,0,0,0-1.23.31,2.12,2.12,0,0,0-.84.84,2.42,2.42,0,0,0-.3,1.22,2.49,2.49,0,0,0,.3,1.25,2.19,2.19,0,0,0,.84.84A2.5,2.5,0,0,0,266.45,22.58Z"/></g><text class="cls-12" transform="translate(10 22.5)">d<tspan class="cls-13" x="9" y="0">r</tspan><tspan x="14.28" y="0">aw cha</tspan><tspan class="cls-13" x="65.43" y="0">r</tspan><tspan x="70.71" y="0">ge icon</tspan></text><text class="cls-12" transform="translate(141.6 22.5)">X</text><text class="cls-12" transform="translate(216.77 22.5)">Y</text></g></g></svg>