<svg xmlns="http://www.w3.org/2000/svg" viewBox="0 0 595.28 41"><defs><style>.cls-1{fill:none;}.cls-2{fill:#474484;}.cls-3{fill:#5a55a5;}.cls-4{fill:#8b87be;}.cls-5{fill:#3d4986;}.cls-6{fill:#4c5ba6;}.cls-7{fill:#818dc1;}.cls-8{opacity:0.6;}.cls-9{fill:#fff;}.cls-10{isolation:isolate;}.cls-11{fill:#010101;}</style></defs><g id="Layer_2" data-name="Layer 2"><g id="Layer_1-2" data-name="Layer 1"><rect class="cls-1" width="595.28" height="18"/><path class="cls-2" d="M1,9A8,8,0,0,1,9,1h7l6,4h3l6-4H403V37H30.5l-6,4h-3l-6-4H9a8,8,0,0,1-8-8ZM151.18,6h-30.8v5c0,10-8-8-8,7.5s8-2.5,8,7.5v7h30.8Zm74.5,0h-30.8v5c0,10-8-8-8,7.5s8-2.5,8,7.5v7h30.8Zm92.77,0h-48.4v5c0,10-8-8-8,7.5s8-2.5,8,7.5v7h48.4ZM393,6h-30.8v5c0,10-8-8-8,7.5s8-2.5,8,7.5v7H393Z"/><path class="cls-3" d="M0,8A8,8,0,0,1,8,0h7l6,4h3l6-4H402V36H29.5l-6,4h-3l-6-4H8a8,8,0,0,1-8-8ZM150.18,5h-30.8v5c0,10-8-8-8,7.5s8-2.5,8,7.5v7h30.8Zm74.5,0h-30.8v5c0,10-8-8-8,7.5s8-2.5,8,7.5v7h30.8Zm92.77,0h-48.4v5c0,10-8-8-8,7.5s8-2.5,8,7.5v7h48.4ZM392,5h-30.8v5c0,10-8-8-8,7.5s8-2.5,8,7.5v7H392Z"/><path class="cls-4" d="M2.34,33.66A8,8,0,0,1,0,28V8H1V28a7,7,0,0,0,2.05,5ZM393,33h-31.3V32H392V5.5h1Zm-74.5,0h-48.9V32h47.9V5.5h1Zm-92.77,0h-31.3V32h30.3V5.5h1Zm-74.5,0h-31.3V32h30.3V5.5h1ZM356.3,24.73l-.5-.86,3.68-2.1.5.87Zm-92.1,0-.5-.86,3.68-2.1.5.87Zm-75.17,0-.49-.86,3.68-2.1.49.87Zm-74.5,0-.49-.86,3.68-2.1.49.87ZM1,7.53,0,7.47A8,8,0,0,1,8,0h7.17l6,4h2.7l6-4h371.6V1H30.15l-6,4h-3.3l-6-4H8A7,7,0,0,0,1,7.53Z"/><path class="cls-5" d="M121.38,7h28.8V32h-28.8V27c0-10-8,8-8-7.5s8,2.5,8-7.5Z"/><path class="cls-6" d="M120.38,6h28.8V31h-28.8V26c0-10-8,8-8-7.5s8,2.5,8-7.5Z"/><path class="cls-7" d="M121.38,30.5h-1v-6h1ZM113,24.13a20.9,20.9,0,0,1,0-11.26l1,.26a19.79,19.79,0,0,0,0,10.74ZM121.38,14h-1V6h28.3V7h-27.3Z"/><g class="cls-8"><rect class="cls-9" x="125.38" y="11" width="18.8" height="16" rx="4"/></g><g class="cls-10"><path class="cls-11" d="M134.88,23.62a3.15,3.15,0,0,1-2.78-1.39,7.22,7.22,0,0,1-.95-4.07,7.23,7.23,0,0,1,.94-4.07,3.5,3.5,0,0,1,5.58,0,7.19,7.19,0,0,1,1,4.05,7.23,7.23,0,0,1-1,4.08A3.16,3.16,0,0,1,134.88,23.62Zm0-1a2,2,0,0,0,1.89-1.08,7.21,7.21,0,0,0,.6-3.37,7,7,0,0,0-.6-3.33,2.2,2.2,0,0,0-3.77,0,7,7,0,0,0-.61,3.32,7.19,7.19,0,0,0,.61,3.37A2,2,0,0,0,134.88,22.59Z"/></g><path class="cls-5" d="M195.88,7h28.8V32h-28.8V27c0-10-8,8-8-7.5s8,2.5,8-7.5Z"/><path class="cls-6" d="M194.88,6h28.8V31h-28.8V26c0-10-8,8-8-7.5s8,2.5,8-7.5Z"/><path class="cls-7" d="M195.88,30.5h-1v-6h1Zm-8.34-6.37a20.9,20.9,0,0,1,0-11.26l1,.26a19.79,19.79,0,0,0,0,10.74ZM195.88,14h-1V6h28.3V7h-27.3Z"/><g class="cls-8"><rect class="cls-9" x="199.88" y="11" width="18.8" height="16" rx="4"/></g><g class="cls-10"><path class="cls-11" d="M209.38,23.62a3.15,3.15,0,0,1-2.78-1.39,7.22,7.22,0,0,1-.95-4.07,7.23,7.23,0,0,1,.94-4.07,3.5,3.5,0,0,1,5.58,0,7.19,7.19,0,0,1,1,4.05,7.23,7.23,0,0,1-1,4.08A3.16,3.16,0,0,1,209.38,23.62Zm0-1a2,2,0,0,0,1.89-1.08,7.21,7.21,0,0,0,.6-3.37,7,7,0,0,0-.6-3.33,2.2,2.2,0,0,0-3.77,0,7,7,0,0,0-.61,3.32,7.19,7.19,0,0,0,.61,3.37A2,2,0,0,0,209.38,22.59Z"/></g><path class="cls-5" d="M271.05,7h46.4V32h-46.4V27c0-10-8,8-8-7.5s8,2.5,8-7.5Z"/><path class="cls-6" d="M270.05,6h46.4V31h-46.4V26c0-10-8,8-8-7.5s8,2.5,8-7.5Z"/><path class="cls-7" d="M271.05,30.5h-1v-6h1Zm-8.34-6.37a20.71,20.71,0,0,1,0-11.26l1,.26a20,20,0,0,0,0,10.74ZM271.05,14h-1V6H316V7h-44.9Z"/><g class="cls-8"><rect class="cls-9" x="275.05" y="11" width="36.4" height="16" rx="4"/></g><g class="cls-10"><path class="cls-11" d="M282,23.5v-1h5.95v1Zm2.35-.55V13.54l.71.36-2.9,1.85V14.56l2.73-1.74h.71V23Z"/><path class="cls-11" d="M290.3,23.5v-.93L294,18.43a8,8,0,0,0,1.1-1.51,3.1,3.1,0,0,0,.34-1.35,1.74,1.74,0,0,0-.51-1.36,2.05,2.05,0,0,0-1.46-.47A4.09,4.09,0,0,0,292,14a5.84,5.84,0,0,0-1.5.93L290,14a4.63,4.63,0,0,1,1.59-1,5.45,5.45,0,0,1,1.93-.36,3.83,3.83,0,0,1,1.69.34,2.48,2.48,0,0,1,1.1,1,2.71,2.71,0,0,1,.39,1.5,3.92,3.92,0,0,1-.41,1.76,8.33,8.33,0,0,1-1.37,1.9l-3.6,3.9-.09-.6h5.93v1Z"/><path class="cls-11" d="M301.06,23.5h-1.32L305,13.36l.1.5H299v-1h7.05v.92Z"/></g><path class="cls-5" d="M363.15,7H392V32h-28.8V27c0-10-8,8-8-7.5s8,2.5,8-7.5Z"/><path class="cls-6" d="M362.15,6H391V31h-28.8V26c0-10-8,8-8-7.5s8,2.5,8-7.5Z"/><path class="cls-7" d="M363.15,30.5h-1v-6h1Zm-8.34-6.37a20.9,20.9,0,0,1,0-11.26l1,.26a20,20,0,0,0,0,10.74ZM363.15,14h-1V6h28.3V7h-27.3Z"/><g class="cls-8"><rect class="cls-9" x="367.15" y="11" width="18.8" height="16" rx="4"/></g><g class="cls-10"><path class="cls-11" d="M376.65,23.62a3.14,3.14,0,0,1-2.78-1.39,7.14,7.14,0,0,1-.95-4.07,7.23,7.23,0,0,1,.94-4.07,3.5,3.5,0,0,1,5.58,0,7.19,7.19,0,0,1,.95,4.05,7.15,7.15,0,0,1-1,4.08A3.13,3.13,0,0,1,376.65,23.62Zm0-1a2,2,0,0,0,1.88-1.08,7.07,7.07,0,0,0,.61-3.37,6.89,6.89,0,0,0-.61-3.33,2.19,2.19,0,0,0-3.76,0,6.89,6.89,0,0,0-.61,3.32,7.07,7.07,0,0,0,.61,3.37A2,2,0,0,0,376.65,22.59Z"/></g><g class="cls-10"><path class="cls-9" d="M17.82,22.5h-1.2v-2l.18.17a2.54,2.54,0,0,1-1,1.46,3,3,0,0,1-1.75.51,3.17,3.17,0,0,1-1.75-.49,3.26,3.26,0,0,1-1.18-1.38,4.86,4.86,0,0,1-.42-2.08,4.81,4.81,0,0,1,.41-2.05,3.22,3.22,0,0,1,1.17-1.35,3.26,3.26,0,0,1,1.77-.48,3,3,0,0,1,1.75.51,2.58,2.58,0,0,1,1,1.45l-.2.15V11.46h1.22Zm-3.51-.9a2.06,2.06,0,0,0,1.7-.76,3.38,3.38,0,0,0,.61-2.15,3.38,3.38,0,0,0-.6-2.14,2.08,2.08,0,0,0-1.71-.75,2.15,2.15,0,0,0-1.74.75A3.24,3.24,0,0,0,12,18.66a3.42,3.42,0,0,0,.62,2.17A2.13,2.13,0,0,0,14.31,21.6Z"/><path class="cls-9" d="M20.17,22.5V17.07c0-.35,0-.7,0-1.06s0-.71-.1-1.05h1.16l.16,1.86-.16-.05a2.31,2.31,0,0,1,.9-1.49,2.6,2.6,0,0,1,1.57-.5,2.23,2.23,0,0,1,.37,0,1.65,1.65,0,0,1,.32.07l0,1.1a2.69,2.69,0,0,0-.79-.11,2.11,2.11,0,0,0-1.26.34,2.06,2.06,0,0,0-.69.88,3,3,0,0,0-.22,1.12v4.3Z"/><path class="cls-9" d="M28.35,22.61a3.26,3.26,0,0,1-1.77-.48,3.11,3.11,0,0,1-1.17-1.35A4.85,4.85,0,0,1,25,18.72a4.78,4.78,0,0,1,.42-2.07,3.26,3.26,0,0,1,1.18-1.38,3.12,3.12,0,0,1,1.75-.49,2.94,2.94,0,0,1,1.75.51,2.51,2.51,0,0,1,1,1.45l-.18.12V15h1.2V22.5H30.9V20.55l.18.09a2.54,2.54,0,0,1-1,1.46A2.94,2.94,0,0,1,28.35,22.61Zm.24-1a2,2,0,0,0,1.71-.76,3.38,3.38,0,0,0,.6-2.15,3.35,3.35,0,0,0-.61-2.14,2.07,2.07,0,0,0-1.7-.75,2.11,2.11,0,0,0-1.74.77,3.36,3.36,0,0,0-.62,2.15,3.28,3.28,0,0,0,.62,2.13A2.15,2.15,0,0,0,28.59,21.6Z"/><path class="cls-9" d="M36.48,22.5,33.69,15H35l2.33,6.64H36.9L39.3,15h1.06l2.37,6.64h-.39L44.71,15h1.2L43.12,22.5H42l-2.49-6.79h.66L37.65,22.5Z"/><path class="cls-9" d="M51.4,22.5v-11h1.21v11Z"/><path class="cls-9" d="M54.85,11.76h1.49v1.38H54.85ZM55,22.5V15h1.21V22.5Z"/><path class="cls-9" d="M58.54,22.5V17.07c0-.35,0-.7,0-1.06s-.05-.71-.1-1.05h1.15l.14,1.55-.15.13a2.58,2.58,0,0,1,1-1.39,3,3,0,0,1,1.69-.47c1.81,0,2.72,1,2.72,3V22.5H63.8V17.82a2.34,2.34,0,0,0-.42-1.54,1.67,1.67,0,0,0-1.32-.48,2.24,2.24,0,0,0-1.68.64,2.38,2.38,0,0,0-.63,1.74V22.5Z"/><path class="cls-9" d="M73.49,21.6a3.53,3.53,0,0,1-1.26.74,5.1,5.1,0,0,1-1.59.27,4.09,4.09,0,0,1-2-.47,3.19,3.19,0,0,1-1.31-1.34,4.57,4.57,0,0,1-.46-2.09,4.5,4.5,0,0,1,.45-2.06,3.37,3.37,0,0,1,1.26-1.38,3.43,3.43,0,0,1,1.85-.49,3.17,3.17,0,0,1,1.72.44,2.88,2.88,0,0,1,1.11,1.27,4.76,4.76,0,0,1,.38,2v.22h-5.7v-.8h5l-.39.56a3.08,3.08,0,0,0-.52-2,1.9,1.9,0,0,0-1.6-.71,2.08,2.08,0,0,0-1.71.77,3.31,3.31,0,0,0-.63,2.14,3.27,3.27,0,0,0,.66,2.22,2.39,2.39,0,0,0,1.91.75,3.65,3.65,0,0,0,1.27-.22,4.11,4.11,0,0,0,1.16-.66Z"/></g><g class="cls-10"><path class="cls-9" d="M86.61,22.5H85.14L89.2,17l.72-.92L93,11.82H94.5L90.61,17l-.7.93Zm6.61,0L89.91,18,89.2,17l-3.87-5.21H86.8l3.12,4.29.69.93,4.07,5.46Z"/><path class="cls-9" d="M96.72,22.5v-1h6v1ZM99.07,22V12.54l.71.36-2.9,1.85V13.56l2.73-1.74h.71V22Z"/></g><g class="cls-10"><path class="cls-9" d="M164.11,22.5V17.7l.27.87-4.47-6.75h1.44L165,17.4h-.42l3.6-5.58h1.41l-4.45,6.75.25-.87v4.8Z"/><path class="cls-9" d="M171.21,22.5v-1h5.95v1Zm2.35-.55V12.54l.71.36-2.9,1.85V13.56l2.73-1.74h.71V22Z"/></g><g class="cls-10"><path class="cls-9" d="M236.27,22.5H234.8L238.87,17l.72-.92,3.12-4.29h1.45L240.28,17l-.71.93Zm6.62,0L239.57,18l-.7-.94L235,11.82h1.47l3.12,4.29.69.93,4.06,5.46Z"/><path class="cls-9" d="M245.71,22.5v-.93l3.73-4.14a7.53,7.53,0,0,0,1.1-1.51,3,3,0,0,0,.34-1.35,1.74,1.74,0,0,0-.51-1.36,2,2,0,0,0-1.45-.47,4.09,4.09,0,0,0-1.53.3,5.84,5.84,0,0,0-1.5.93l-.47-1a4.63,4.63,0,0,1,1.59-1A5.5,5.5,0,0,1,249,11.7a3.86,3.86,0,0,1,1.69.34,2.54,2.54,0,0,1,1.1,1,2.79,2.79,0,0,1,.39,1.5,4.05,4.05,0,0,1-.41,1.76,8.74,8.74,0,0,1-1.38,1.9l-3.6,3.9-.09-.6h5.93v1Z"/></g><g class="cls-10"><path class="cls-9" d="M331.38,22.5V17.7l.27.87-4.47-6.75h1.44l3.6,5.58h-.42l3.6-5.58h1.41l-4.45,6.75.25-.87v4.8Z"/><path class="cls-9" d="M337.8,22.5v-.93l3.74-4.14a7.44,7.44,0,0,0,1.09-1.51,3,3,0,0,0,.35-1.35,1.74,1.74,0,0,0-.51-1.36,2.05,2.05,0,0,0-1.46-.47,4.09,4.09,0,0,0-1.53.3A5.84,5.84,0,0,0,338,14l-.46-1a4.63,4.63,0,0,1,1.59-1A5.45,5.45,0,0,1,341,11.7a3.86,3.86,0,0,1,1.69.34,2.54,2.54,0,0,1,1.1,1,2.79,2.79,0,0,1,.39,1.5,4.05,4.05,0,0,1-.41,1.76,8.65,8.65,0,0,1-1.37,1.9l-3.6,3.9-.09-.6h5.92v1Z"/></g></g></g></svg>