<svg xmlns="http://www.w3.org/2000/svg" viewBox="0 0 595.28 41"><defs><style>.cls-1,.cls-4,.cls-7{fill:none;}.cls-2{fill:#474484;}.cls-3{fill:#5a55a5;}.cls-4{stroke:#8b87be;}.cls-5{fill:#3d4986;}.cls-6{fill:#4c5ba6;}.cls-7{stroke:#818dc1;}.cls-8{opacity:0.6;}.cls-12,.cls-9{fill:#fff;}.cls-10,.cls-12{isolation:isolate;}.cls-11{fill:#010101;}.cls-12{font-size:15px;font-family:Mulish-Regular, Mulish;}.cls-13{letter-spacing:-0.01em;}</style></defs><g id="Layer_2" data-name="Layer 2"><g id="Layer_1-2" data-name="Layer 1"><rect class="cls-1" width="595.28" height="18"/><path class="cls-2" d="M1,9A8,8,0,0,1,9,1h7l6,4h3l6-4H274.43V37H30.5l-6,4h-3l-6-4H9a8,8,0,0,1-8-8ZM189.93,6h-39.6v5c0,10-8-8-8,7.5s8-2.5,8,7.5v7h39.6Zm74.5,0h-39.6v5c0,10-8-8-8,7.5s8-2.5,8,7.5v7h39.6Z"/><path class="cls-3" d="M0,8A8,8,0,0,1,8,0h7l6,4h3l6-4H273.43V36H29.5l-6,4h-3l-6-4H8a8,8,0,0,1-8-8ZM188.93,5h-39.6v5c0,10-8-8-8,7.5s8-2.5,8,7.5v7h39.6Zm74.5,0h-39.6v5c0,10-8-8-8,7.5s8-2.5,8,7.5v7h39.6Z"/><path class="cls-4" d="M.5,7.5A7.5,7.5,0,0,1,8,.5h7l6,4h3l6-4h9.5m0,0H272.93M2.7,33.3A7.47,7.47,0,0,1,.5,28V8M189.43,5.5v27h-39.6m-5.6-8.2,3.68-2.1m116-16.7v27h-39.6m-5.6-8.2,3.68-2.1"/><path class="cls-5" d="M151.33,7h37.6V32h-37.6V27c0-10-8,8-8-7.5s8,2.5,8-7.5Z"/><path class="cls-6" d="M150.33,6h37.6V31h-37.6V26c0-10-8,8-8-7.5s8,2.5,8-7.5Z"/><path class="cls-7" d="M150.83,6.5h36.6m-36.6,24v-6m-7.36-.5a20.35,20.35,0,0,1,0-11m7.36,1V6.5h.5"/><g class="cls-8"><rect class="cls-9" x="155.33" y="11" width="27.6" height="16" rx="4"/></g><g class="cls-10"><path class="cls-11" d="M162.25,23.5v-1h6v1Zm2.36-.55V13.54l.7.36-2.89,1.84V14.56l2.73-1.74h.7V23Z"/><path class="cls-11" d="M173.83,23.61a5.17,5.17,0,0,1-2-.36,3,3,0,0,1-1.33-1,2.66,2.66,0,0,1-.47-1.58,2.47,2.47,0,0,1,.75-1.84,3.55,3.55,0,0,1,2-.92l-.08.23a3.22,3.22,0,0,1-1.8-.91,2.38,2.38,0,0,1-.64-1.68,2.48,2.48,0,0,1,.46-1.51,2.84,2.84,0,0,1,1.26-1,4.64,4.64,0,0,1,1.86-.35,4.69,4.69,0,0,1,1.87.35A2.84,2.84,0,0,1,177,14a2.48,2.48,0,0,1,.46,1.51,2.37,2.37,0,0,1-.64,1.68,3,3,0,0,1-1.79.91l-.09-.23a3.41,3.41,0,0,1,2,.93,2.5,2.5,0,0,1,.73,1.83,2.66,2.66,0,0,1-.47,1.58,3,3,0,0,1-1.33,1A5.22,5.22,0,0,1,173.83,23.61Zm0-1a3.18,3.18,0,0,0,1.94-.51,1.73,1.73,0,0,0,.67-1.48,1.64,1.64,0,0,0-.73-1.43,3.89,3.89,0,0,0-1.88-.64,3.85,3.85,0,0,0-1.87.64,1.65,1.65,0,0,0-.74,1.43,1.74,1.74,0,0,0,.68,1.48A3.15,3.15,0,0,0,173.83,22.58Zm0-4.92a3.28,3.28,0,0,0,1.71-.64,1.7,1.7,0,0,0,.65-1.39,1.74,1.74,0,0,0-.62-1.41,2.75,2.75,0,0,0-1.74-.5,2.72,2.72,0,0,0-1.73.5,1.74,1.74,0,0,0-.62,1.41,1.7,1.7,0,0,0,.65,1.39A3.25,3.25,0,0,0,173.83,17.66Z"/></g><path class="cls-5" d="M225.83,7h37.6V32h-37.6V27c0-10-8,8-8-7.5s8,2.5,8-7.5Z"/><path class="cls-6" d="M224.83,6h37.6V31h-37.6V26c0-10-8,8-8-7.5s8,2.5,8-7.5Z"/><path class="cls-7" d="M225.33,6.5h36.6m-36.6,24v-6M218,24a20.35,20.35,0,0,1,0-11m7.36,1V6.5h.5"/><g class="cls-8"><rect class="cls-9" x="229.83" y="11" width="27.6" height="16" rx="4"/></g><g class="cls-10"><path class="cls-11" d="M239.5,23.61a5.35,5.35,0,0,1-1.92-.36,4.51,4.51,0,0,1-1.59-1l.46-.95a5.68,5.68,0,0,0,1.5.91,3.81,3.81,0,0,0,1.55.32,2.35,2.35,0,0,0,1.76-.64,2.31,2.31,0,0,0,.64-1.73,2.61,2.61,0,0,0-.29-1.24,2.06,2.06,0,0,0-.8-.83,2.37,2.37,0,0,0-1.22-.3,2.91,2.91,0,0,0-1.37.31,3,3,0,0,0-1.08.93h-.85V12.82h6.4v1h-5.17v4.32l-.39,0a2.94,2.94,0,0,1,1.12-1,3.31,3.31,0,0,1,1.53-.34,3.56,3.56,0,0,1,1.77.42,3,3,0,0,1,1.16,1.19,3.75,3.75,0,0,1,.4,1.77,3.43,3.43,0,0,1-.44,1.78,3,3,0,0,1-1.25,1.21A4,4,0,0,1,239.5,23.61Z"/><path class="cls-11" d="M248.68,23.62a3.59,3.59,0,0,1-3-1.34,6.15,6.15,0,0,1-1.05-3.85,8.88,8.88,0,0,1,.49-3.1,4.21,4.21,0,0,1,1.41-1.95,3.59,3.59,0,0,1,2.21-.68,4.84,4.84,0,0,1,1.8.34,4.59,4.59,0,0,1,1.55,1l-.47,1a5.51,5.51,0,0,0-1.44-.94,3.58,3.58,0,0,0-1.41-.3A2.39,2.39,0,0,0,246.64,15a6.48,6.48,0,0,0-.77,3.45v1.3l-.18-.41a2.89,2.89,0,0,1,.56-1.33,3,3,0,0,1,1.09-.87,3.37,3.37,0,0,1,1.44-.3,3.5,3.5,0,0,1,1.74.42,3,3,0,0,1,1.17,1.19,3.65,3.65,0,0,1,.42,1.77,3.51,3.51,0,0,1-.44,1.78,3.22,3.22,0,0,1-1.21,1.22A3.59,3.59,0,0,1,248.68,23.62Zm-.06-1a2.17,2.17,0,0,0,1.65-.65,2.37,2.37,0,0,0,.63-1.73,2.38,2.38,0,0,0-.63-1.72,2.24,2.24,0,0,0-1.67-.65,2.39,2.39,0,0,0-1.23.31,2.12,2.12,0,0,0-.84.84,2.42,2.42,0,0,0-.3,1.22,2.49,2.49,0,0,0,.3,1.25,2.19,2.19,0,0,0,.84.84A2.65,2.65,0,0,0,248.62,22.58Z"/></g><text class="cls-12" transform="translate(10 22.5)">d<tspan class="cls-13" x="9" y="0">r</tspan><tspan x="14.28" y="0">aw USB icon</tspan></text><text class="cls-12" transform="translate(123.77 22.5)">X</text><text class="cls-12" transform="translate(198.93 22.5)">Y</text></g></g></svg>