<svg xmlns="http://www.w3.org/2000/svg" viewBox="0 0 595.28 40"><defs><style>.cls-1{fill:none;}.cls-2{fill:#7a3d86;}.cls-3{fill:#954e9e;}.cls-4{fill:#b682b9;}.cls-5{isolation:isolate;}.cls-6{fill:#fff;}</style></defs><g id="Layer_2" data-name="Layer 2"><g id="Layer_1-2" data-name="Layer 1"><rect class="cls-1" width="595.28" height="18"/><path class="cls-2" d="M1,9A8,8,0,0,1,9,1h7l6,4h3l6-4H141V36H30.5l-6,4h-3l-6-4H9a8,8,0,0,1-8-8ZM49.93,6H35.43v5c0,10-8-8-8,7.5s8-2.5,8,7.5v6h14.5ZM131,6h-14.5v5c0,10-8-8-8,7.5s8-2.5,8,7.5v6H131Z"/><path class="cls-3" d="M0,8A8,8,0,0,1,8,0h7l6,4h3l6-4H140V35H29.5l-6,4h-3l-6-4H8a8,8,0,0,1-8-8ZM48.93,5H34.43v5c0,10-8-8-8,7.5s8-2.5,8,7.5v6h14.5ZM130,5h-14.5v5c0,10-8-8-8,7.5s8-2.5,8,7.5v6H130Z"/><path class="cls-4" d="M2.34,32.66A8,8,0,0,1,0,27V8H1V27A7,7,0,0,0,3.05,32ZM131,32H116V31h14V5.5h1Zm-81.1,0h-15V31h14V5.5h1Zm60.75-7.27-.49-.86,3.68-2.1.49.86Zm-81.1,0-.49-.86,3.68-2.1.49.86ZM1,7.53,0,7.47A8,8,0,0,1,8,0h7.17l6,4h2.7l6-4H139.53V1H30.15l-6,4h-3.3l-6-4H8A7,7,0,0,0,1,7.53Z"/><g class="cls-5"><path class="cls-6" d="M11.05,11.76h1.49v1.38H11.05Zm.12,10.74V15h1.21V22.5Z"/><path class="cls-6" d="M13.67,15.92V15H18.2v1Zm4.75-3.35a2.92,2.92,0,0,0-.79-.12,1.57,1.57,0,0,0-.65.13.88.88,0,0,0-.45.46,1.92,1.92,0,0,0-.17.91V22.5H15.15V13.8A2.45,2.45,0,0,1,15.74,12a2.27,2.27,0,0,1,1.66-.59,4.19,4.19,0,0,1,.5,0,3.46,3.46,0,0,1,.52.11Z"/></g><g class="cls-5"><path class="cls-6" d="M60.1,22.5V17.07c0-.35,0-.7,0-1.06A9.1,9.1,0,0,0,60,15h1.16l.16,1.86-.16-.05a2.32,2.32,0,0,1,.91-1.49,2.55,2.55,0,0,1,1.56-.5,2.17,2.17,0,0,1,.37,0,1.5,1.5,0,0,1,.32.07l0,1.1a2.69,2.69,0,0,0-.79-.11,2.06,2.06,0,0,0-1.25.34,1.92,1.92,0,0,0-.69.88,2.8,2.8,0,0,0-.22,1.12v4.3Z"/><path class="cls-6" d="M71.56,21.6a3.53,3.53,0,0,1-1.26.74,5.1,5.1,0,0,1-1.59.27,4.09,4.09,0,0,1-2-.47,3.19,3.19,0,0,1-1.31-1.34,4.57,4.57,0,0,1-.46-2.09,4.5,4.5,0,0,1,.45-2.06,3.37,3.37,0,0,1,1.26-1.38,3.43,3.43,0,0,1,1.85-.49,3.17,3.17,0,0,1,1.72.44,2.88,2.88,0,0,1,1.11,1.27,4.76,4.76,0,0,1,.38,2v.22H66v-.8h5l-.39.56a3.08,3.08,0,0,0-.52-2,1.9,1.9,0,0,0-1.6-.71,2.08,2.08,0,0,0-1.71.77,3.31,3.31,0,0,0-.63,2.14,3.27,3.27,0,0,0,.66,2.22,2.39,2.39,0,0,0,1.91.75A3.65,3.65,0,0,0,70,21.38a4.11,4.11,0,0,0,1.16-.66Z"/><path class="cls-6" d="M72.43,15.92V15h4.85v1Zm4.82,5.5v1a5,5,0,0,1-.5.11,4.58,4.58,0,0,1-.55,0,2.29,2.29,0,0,1-1.67-.6,2.37,2.37,0,0,1-.63-1.8V13l1.22-.43V20a2.11,2.11,0,0,0,.17.93,1,1,0,0,0,.47.46,1.83,1.83,0,0,0,.68.12,2.49,2.49,0,0,0,.4,0A2.83,2.83,0,0,0,77.25,21.42Z"/><path class="cls-6" d="M81.42,22.61a2.6,2.6,0,0,1-2-.75,3.17,3.17,0,0,1-.69-2.22V15h1.22v4.65a2.24,2.24,0,0,0,.42,1.5,1.59,1.59,0,0,0,1.27.48,2.14,2.14,0,0,0,1.62-.65,2.4,2.4,0,0,0,.62-1.72V15h1.21V22.5H83.88V20.87l.18-.09a2.53,2.53,0,0,1-1,1.36A2.93,2.93,0,0,1,81.42,22.61Z"/><path class="cls-6" d="M87.4,22.5V17.07c0-.35,0-.7,0-1.06a9.1,9.1,0,0,0-.1-1.05h1.16l.16,1.86-.16-.05a2.32,2.32,0,0,1,.91-1.49,2.55,2.55,0,0,1,1.56-.5,2.17,2.17,0,0,1,.37,0,1.5,1.5,0,0,1,.32.07l0,1.1a2.69,2.69,0,0,0-.79-.11,2.06,2.06,0,0,0-1.25.34,1.92,1.92,0,0,0-.69.88,2.8,2.8,0,0,0-.22,1.12v4.3Z"/><path class="cls-6" d="M92.83,22.5V17.07c0-.35,0-.7,0-1.06a9.1,9.1,0,0,0-.1-1.05h1.16L94,16.51l-.15.13a2.58,2.58,0,0,1,1.05-1.39,3,3,0,0,1,1.7-.47c1.81,0,2.71,1,2.71,3V22.5H98.1V17.82a2.34,2.34,0,0,0-.42-1.54,1.67,1.67,0,0,0-1.32-.48,2.24,2.24,0,0,0-1.68.64,2.38,2.38,0,0,0-.63,1.74V22.5Z"/></g></g></g></svg>