<svg xmlns="http://www.w3.org/2000/svg" viewBox="0 0 595.28 29"><defs><style>.cls-1,.cls-4{fill:none;}.cls-2{fill:#7a3d86;}.cls-3{fill:#954e9e;}.cls-4{stroke:#b682b9;}.cls-5{isolation:isolate;font-size:15px;fill:#fff;font-family:Mulish-Regular, Mulish;}.cls-6{letter-spacing:0em;}</style></defs><g id="Layer_2" data-name="Layer 2"><g id="Layer_1-2" data-name="Layer 1"><rect class="cls-1" width="595.28" height="18"/><path class="cls-2" d="M1,9A8,8,0,0,1,9,1h7l6,4h3l6-4h82.15V25H30.5l-6,4h-3l-6-4H9a8,8,0,0,1-8-8Z"/><path class="cls-3" d="M0,8A8,8,0,0,1,8,0h7l6,4h3l6-4h82.15V24H29.5l-6,4h-3l-6-4H8a8,8,0,0,1-8-8Z"/><path class="cls-4" d="M.5,7.5A7.5,7.5,0,0,1,8,.5h7l6,4h3l6-4h81.65M2.7,21.3A7.47,7.47,0,0,1,.5,16V8"/><text class="cls-5" transform="translate(10 17.5)">do som<tspan class="cls-6" x="50.7" y="0">e</tspan><tspan x="58.81" y="0">thing</tspan></text></g></g></svg>