<svg xmlns="http://www.w3.org/2000/svg" viewBox="0 0 595.28 60.69"><defs><style>.cls-1{fill:#954e9e;}.cls-2{fill:#ededee;}.cls-3{fill:#231f20;}.cls-4{fill:#aa6dad;}.cls-5{fill:#ff5100;}.cls-6{fill:#d54427;}</style></defs><g id="Layer_2" data-name="Layer 2"><g id="Layer_1-2" data-name="Layer 1"><rect class="cls-1" y="4" width="595.28" height="56.69" rx="11.34"/><rect class="cls-2" width="595.28" height="56.69" rx="11.34"/><path class="cls-3" d="M85.23,38.84V13.21H102v3.71H89.8v7h11.49v3.71H89.8V38.84Z"/><path class="cls-3" d="M111.69,39.09a6.44,6.44,0,0,1-5-1.85c-1.12-1.24-1.68-3.1-1.68-5.6v-11h4.5v11a4.3,4.3,0,0,0,.83,2.91,3.13,3.13,0,0,0,2.49.94,4.07,4.07,0,0,0,3.16-1.3,4.86,4.86,0,0,0,1.19-3.45V20.66h4.54V38.84h-4.39V35.1l.46,0a6.27,6.27,0,0,1-2.37,3A6.7,6.7,0,0,1,111.69,39.09Z"/><path class="cls-3" d="M126.52,38.84v-13c0-.87,0-1.73,0-2.59s-.12-1.72-.24-2.56h4.25l.4,3.6-.4.11a6.51,6.51,0,0,1,2.58-3.12A7.37,7.37,0,0,1,137,20.19q6.48,0,6.48,7.49V38.84H139v-11a4.8,4.8,0,0,0-.83-3.11,3.15,3.15,0,0,0-2.56-1,4.35,4.35,0,0,0-3.33,1.31A4.88,4.88,0,0,0,131,28.54v10.3Z"/><path class="cls-3" d="M156.44,39.09A10.16,10.16,0,0,1,151.52,38a7.66,7.66,0,0,1-3.16-3.24,10.5,10.5,0,0,1-1.1-4.95,10.53,10.53,0,0,1,1.15-5,8.14,8.14,0,0,1,3.28-3.35,10,10,0,0,1,5-1.19,11.85,11.85,0,0,1,3.73.61,8.08,8.08,0,0,1,3,1.7l-1.3,3.16a9,9,0,0,0-2.44-1.42,7.46,7.46,0,0,0-2.6-.48,4.84,4.84,0,0,0-3.76,1.51,6.36,6.36,0,0,0-1.38,4.43,6.34,6.34,0,0,0,1.36,4.39,4.9,4.9,0,0,0,3.82,1.51,7.17,7.17,0,0,0,2.56-.49,8.42,8.42,0,0,0,2.44-1.45l1.3,3.16a8.23,8.23,0,0,1-3,1.68A12.83,12.83,0,0,1,156.44,39.09Z"/><path class="cls-3" d="M164.21,24V20.66H177V24ZM177,35.1v3.56a7,7,0,0,1-1.42.34,11.86,11.86,0,0,1-1.5.09,6.24,6.24,0,0,1-4.73-1.73,6.82,6.82,0,0,1-1.68-5V16.23l4.5-1.51V32.18a4,4,0,0,0,.4,1.93,2.3,2.3,0,0,0,1.06,1,3.78,3.78,0,0,0,1.5.28,5.29,5.29,0,0,0,.9-.07C176.34,35.26,176.67,35.19,177,35.1Z"/><path class="cls-3" d="M179.87,12.42h5v4.42h-5Zm.22,26.42V20.66h4.5V38.84Z"/><path class="cls-3" d="M197.73,39.09a9.94,9.94,0,0,1-4.92-1.15,7.81,7.81,0,0,1-3.18-3.26,10.51,10.51,0,0,1-1.12-5,10.65,10.65,0,0,1,1.12-5,7.79,7.79,0,0,1,3.18-3.3,10.05,10.05,0,0,1,4.92-1.15,9.87,9.87,0,0,1,4.84,1.15,7.9,7.9,0,0,1,3.2,3.3,10.54,10.54,0,0,1,1.14,5,10.4,10.4,0,0,1-1.14,5,7.91,7.91,0,0,1-3.2,3.26A9.76,9.76,0,0,1,197.73,39.09Zm0-3.45a4.17,4.17,0,0,0,3.44-1.5,7,7,0,0,0,1.2-4.48,7,7,0,0,0-1.2-4.45,4.19,4.19,0,0,0-3.44-1.49,4.33,4.33,0,0,0-3.51,1.49A6.83,6.83,0,0,0,193,29.66a6.92,6.92,0,0,0,1.22,4.48A4.29,4.29,0,0,0,197.73,35.64Z"/><path class="cls-3" d="M210.76,38.84v-13c0-.87,0-1.73,0-2.59s-.12-1.72-.24-2.56h4.25l.4,3.6-.4.11a6.55,6.55,0,0,1,2.57-3.12,7.41,7.41,0,0,1,4-1.06q6.48,0,6.48,7.49V38.84h-4.5v-11a4.8,4.8,0,0,0-.83-3.11,3.17,3.17,0,0,0-2.56-1,4.35,4.35,0,0,0-3.33,1.31,4.84,4.84,0,0,0-1.24,3.47v10.3Z"/><path class="cls-3" d="M239.13,39.09c-3.31,0-5.93-.75-7.85-2.27l1.26-3.16a10.48,10.48,0,0,0,3.13,1.62,11.57,11.57,0,0,0,3.53.54,4.82,4.82,0,0,0,2.52-.54,1.69,1.69,0,0,0,.86-1.52,1.57,1.57,0,0,0-.61-1.31,5.69,5.69,0,0,0-2.09-.85l-3-.68a7.23,7.23,0,0,1-3.73-1.82,4.51,4.51,0,0,1-1.24-3.26,4.79,4.79,0,0,1,.94-2.93,6.16,6.16,0,0,1,2.62-2,10,10,0,0,1,3.93-.72,11.72,11.72,0,0,1,3.74.6,9.26,9.26,0,0,1,3.14,1.71L245,25.59A10.49,10.49,0,0,0,242.17,24a8.58,8.58,0,0,0-2.83-.5,4.27,4.27,0,0,0-2.41.58,1.81,1.81,0,0,0-.86,1.58,1.59,1.59,0,0,0,.52,1.26,4.24,4.24,0,0,0,1.82.76l3.06.75a7.6,7.6,0,0,1,3.94,1.86,4.6,4.6,0,0,1,1.24,3.36,4.61,4.61,0,0,1-2,3.94A9.21,9.21,0,0,1,239.13,39.09Z"/><path class="cls-1" d="M50.1,7.09a9.34,9.34,0,0,0-9.25,8L39.48,24.7H34.63a2.6,2.6,0,1,0,0,5.19h4.11l-1.57,11a4.15,4.15,0,0,1-8.26-.59,2.6,2.6,0,1,0-5.19,0,9.35,9.35,0,0,0,18.6,1.32L44,29.89h5.93a2.6,2.6,0,1,0,0-5.19H44.73L46,15.85a4.15,4.15,0,0,1,8.26.58,2.6,2.6,0,0,0,5.2,0A9.35,9.35,0,0,0,50.1,7.09Z"/><path class="cls-4" d="M34.46,44.41a4.17,4.17,0,0,0,4.11-3.56l1.56-11H38.74l-1.57,11a4.18,4.18,0,0,1-3.41,3.5,4,4,0,0,0,.7.06Z"/><path class="cls-4" d="M42.25,15.11a9.35,9.35,0,0,1,8.57-8l-.72,0a9.34,9.34,0,0,0-9.25,8L39.48,24.7h1.4Z"/><path class="cls-4" d="M55.65,16.43a4.16,4.16,0,0,0-4.15-4.15,4,4,0,0,0-.7.06,4.16,4.16,0,0,1,3.45,4.09,2.6,2.6,0,0,0,2.6,2.6,2.69,2.69,0,0,0,.7-.09,2.61,2.61,0,0,1-1.9-2.51Z"/><path class="cls-4" d="M25.11,40.26a2.6,2.6,0,0,1,1.9-2.5,2.28,2.28,0,0,0-.7-.1,2.59,2.59,0,0,0-2.59,2.6,9.36,9.36,0,0,0,9.34,9.35c.23,0,.46,0,.68,0A9.36,9.36,0,0,1,25.11,40.26Z"/><path class="cls-4" d="M34.63,29.89H36a2.6,2.6,0,1,1,0-5.19h-1.4a2.6,2.6,0,1,0,0,5.19Z"/><path class="cls-5" d="M58,42.75l2.4-2.4a2.61,2.61,0,1,0-3.69-3.69l-2.4,2.4-2.4-2.4a2.61,2.61,0,1,0-3.69,3.69l2.4,2.4-2.4,2.4a2.61,2.61,0,1,0,3.69,3.69l2.4-2.4,2.4,2.4a2.61,2.61,0,1,0,3.69-3.69Z"/><path class="cls-6" d="M50.36,48.84a2.61,2.61,0,0,1,0-3.69l2.4-2.4-2.4-2.4a2.61,2.61,0,0,1,0-3.69,2.75,2.75,0,0,1,.76-.53,2.61,2.61,0,0,0-2.93,4.22l2.4,2.4-2.4,2.4A2.62,2.62,0,0,0,50,49.61a2.54,2.54,0,0,0,1.08-.24,2.55,2.55,0,0,1-.76-.53Z"/></g></g></svg>