<svg xmlns="http://www.w3.org/2000/svg" viewBox="0 0 595.28 110"><defs><style>.cls-1,.cls-4{fill:none;}.cls-2{fill:#7a3d86;}.cls-3{fill:#954e9e;}.cls-4{stroke:#b682b9;}.cls-5{isolation:isolate;font-size:15px;fill:#fff;font-family:Mulish-Regular, Mulish;}.cls-6{letter-spacing:-0.01em;}.cls-7{letter-spacing:0em;}.cls-8{letter-spacing:0em;}.cls-9{letter-spacing:0em;}.cls-10{letter-spacing:-0.01em;}.cls-11{letter-spacing:0.01em;}</style></defs><g id="Layer_2" data-name="Layer 2"><g id="Layer_1-2" data-name="Layer 1"><rect class="cls-1" width="595.28" height="18"/><path class="cls-2" d="M1,9A8,8,0,0,1,9,1H160.58V26H51l-6,4H42l-6-4H29a8,8,0,0,0-8,8v9a8,8,0,0,0,8,8H160.58V76H51l-6,4H42l-6-4H29a8,8,0,0,0-8,8v8a8,8,0,0,0,8,8H160.58v10H9a8,8,0,0,1-8-8Z"/><path class="cls-3" d="M0,8A8,8,0,0,1,8,0H159.58V25H50l-6,4H41l-6-4H28a8,8,0,0,0-8,8v9a8,8,0,0,0,8,8H159.58V75H50l-6,4H41l-6-4H28a8,8,0,0,0-8,8v8a8,8,0,0,0,8,8H159.58v10H8a8,8,0,0,1-8-8Z"/><path class="cls-4" d="M.5,7.5A7.5,7.5,0,0,1,8,.5H159.08M22,48a8.52,8.52,0,0,0,6,2.49H159.08M22,97a8.52,8.52,0,0,0,6,2.49H159.08M2.7,106.3A7.47,7.47,0,0,1,.5,101V8"/><text class="cls-5" transform="translate(10 17.5)"><tspan class="cls-6">w</tspan><tspan x="12.94" y="0">atchX run fi</tspan><tspan class="cls-7" x="92.46" y="0">rs</tspan><tspan class="cls-8" x="105.18" y="0">t</tspan><tspan x="110.44" y="0">:</tspan></text><text class="cls-5" transform="translate(10 67.5)"><tspan class="cls-6">w</tspan><tspan x="12.94" y="0">atchX loop </tspan><tspan class="cls-7" x="90.73" y="0">f</tspan><tspan class="cls-9" x="95.71" y="0">o</tspan><tspan class="cls-10" x="104.29" y="0">r</tspan><tspan class="cls-6" x="109.57" y="0">ev</tspan><tspan x="125.52" y="0">e</tspan><tspan class="cls-11" x="133.68" y="0">r</tspan><tspan x="139.3" y="0">:</tspan></text></g></g></svg>