<svg xmlns="http://www.w3.org/2000/svg" viewBox="0 0 595.28 90"><defs><style>.cls-1{fill:none;}.cls-2{fill:#7a3d86;}.cls-3{fill:#954e9e;}.cls-4{fill:#b682b9;}.cls-5{fill:#3a53a4;}.cls-6{fill:#fff;}.cls-7{isolation:isolate;}.cls-8{opacity:0.6;}.cls-9{fill:#010101;}</style></defs><g id="Layer_2" data-name="Layer 2"><g id="Layer_1-2" data-name="Layer 1"><rect class="cls-1" width="595.28" height="18"/><path class="cls-2" d="M1,9A8,8,0,0,1,9,1H185.5V26H51l-6,4H42l-6-4H29a8,8,0,0,0-8,8V58a8,8,0,0,0,8,8H185.5v5c0,10-8-8-8,7.5s8-2.5,8,7.5v4H9a8,8,0,0,1-8-8Z"/><path class="cls-3" d="M0,8A8,8,0,0,1,8,0H184.5V25H50l-6,4H41l-6-4H28a8,8,0,0,0-8,8V57a8,8,0,0,0,8,8H184.5v5c0,10-8-8-8,7.5s8-2.5,8,7.5v4H8a8,8,0,0,1-8-8Z"/><path class="cls-4" d="M2.34,86.66A8,8,0,0,1,0,81V8H1V81a7,7,0,0,0,2.05,5Zm177.41-1.93-.5-.86,3.68-2.1.5.86ZM184,66H28a8.94,8.94,0,0,1-6.36-2.64l.7-.7A8,8,0,0,0,28,65H184ZM1,7.53,0,7.47A8,8,0,0,1,8,0H184V1H8A7,7,0,0,0,1,7.53Z"/><circle class="cls-5" cx="18" cy="13" r="8"/><path class="cls-6" d="M18,21.5A8.5,8.5,0,1,1,26.5,13,8.51,8.51,0,0,1,18,21.5Zm0-16A7.5,7.5,0,1,0,25.5,13,7.5,7.5,0,0,0,18,5.5Z"/><path class="cls-6" d="M16.8,15h2a1.54,1.54,0,0,1,.63-1.27c2.88-2.4.61-5.53-3.76-3.87v1.7c3.12-1.66,3.7.12,2.33,1.25C16.8,13.81,16.8,14.34,16.8,15Z"/><rect class="cls-6" x="16.8" y="15.78" width="2" height="2"/><g class="cls-7"><path class="cls-6" d="M37.11,10.92V10H42v1Zm4.81,5.5v1a5,5,0,0,1-.5.11,4.58,4.58,0,0,1-.55,0A2.29,2.29,0,0,1,39.2,17a2.37,2.37,0,0,1-.62-1.8V8l1.21-.43V15A2.11,2.11,0,0,0,40,16a1,1,0,0,0,.48.46,1.74,1.74,0,0,0,.67.12,2.62,2.62,0,0,0,.41,0A3.11,3.11,0,0,0,41.92,16.42Z"/><path class="cls-6" d="M46.54,17.61a3.58,3.58,0,0,1-1.88-.48,3.35,3.35,0,0,1-1.25-1.36A4.65,4.65,0,0,1,43,13.69a4.64,4.64,0,0,1,.44-2.07,3.23,3.23,0,0,1,1.25-1.36,3.92,3.92,0,0,1,3.76,0,3.23,3.23,0,0,1,1.25,1.36,4.64,4.64,0,0,1,.44,2.07,4.65,4.65,0,0,1-.44,2.08,3.35,3.35,0,0,1-1.25,1.36A3.58,3.58,0,0,1,46.54,17.61Zm0-1a2.12,2.12,0,0,0,1.72-.74,3.4,3.4,0,0,0,.61-2.17,3.29,3.29,0,0,0-.62-2.14,2.09,2.09,0,0,0-1.71-.75,2.12,2.12,0,0,0-1.72.75,3.29,3.29,0,0,0-.62,2.14,3.34,3.34,0,0,0,.61,2.17A2.11,2.11,0,0,0,46.54,16.6Z"/></g><g class="cls-8"><rect class="cls-6" x="55.52" y="5" width="102.15" height="16" rx="4"/></g><g class="cls-7"><path class="cls-9" d="M68.33,17.5h-1.2v-2l.18.17a2.47,2.47,0,0,1-1,1.45,2.91,2.91,0,0,1-1.76.52,3.22,3.22,0,0,1-1.75-.49,3.31,3.31,0,0,1-1.17-1.38,4.86,4.86,0,0,1-.42-2.08,4.66,4.66,0,0,1,.41-2.05,3.09,3.09,0,0,1,1.17-1.35,3.2,3.2,0,0,1,1.76-.48,3,3,0,0,1,1.76.51,2.56,2.56,0,0,1,1,1.45l-.19.15V6.46h1.21Zm-3.51-.9a2,2,0,0,0,1.7-.76,3.32,3.32,0,0,0,.61-2.15,3.38,3.38,0,0,0-.6-2.14,2.06,2.06,0,0,0-1.71-.75,2.12,2.12,0,0,0-1.73.75,3.18,3.18,0,0,0-.62,2.11,3.36,3.36,0,0,0,.62,2.17A2.1,2.1,0,0,0,64.82,16.6Z"/><path class="cls-9" d="M73.81,17.61a3.64,3.64,0,0,1-1.89-.48,3.33,3.33,0,0,1-1.24-1.36,4.52,4.52,0,0,1-.44-2.08,4.51,4.51,0,0,1,.44-2.07,3.21,3.21,0,0,1,1.24-1.36,3.64,3.64,0,0,1,1.89-.48,3.6,3.6,0,0,1,1.88.48,3.21,3.21,0,0,1,1.24,1.36,4.51,4.51,0,0,1,.45,2.07,4.52,4.52,0,0,1-.45,2.08,3.33,3.33,0,0,1-1.24,1.36A3.6,3.6,0,0,1,73.81,17.61Zm0-1a2.08,2.08,0,0,0,1.71-.74,3.34,3.34,0,0,0,.61-2.17,3.29,3.29,0,0,0-.61-2.14,2.34,2.34,0,0,0-3.43,0,3.23,3.23,0,0,0-.62,2.14,3.4,3.4,0,0,0,.6,2.17A2.15,2.15,0,0,0,73.81,16.6Z"/><path class="cls-9" d="M85.73,17.61a4.4,4.4,0,0,1-3-1l.4-.9a4.11,4.11,0,0,0,1.24.68,4.23,4.23,0,0,0,1.42.22,2.37,2.37,0,0,0,1.29-.29,1,1,0,0,0,.45-.85.89.89,0,0,0-.3-.71,2.3,2.3,0,0,0-1-.43L85,14.05a2.78,2.78,0,0,1-1.46-.75A1.78,1.78,0,0,1,83,12a1.93,1.93,0,0,1,.36-1.16,2.37,2.37,0,0,1,1-.79,3.77,3.77,0,0,1,1.53-.28,4.37,4.37,0,0,1,1.5.25,3.28,3.28,0,0,1,1.18.73l-.4.89A4.06,4.06,0,0,0,87,11a3.29,3.29,0,0,0-1.17-.22,2.17,2.17,0,0,0-1.26.32,1,1,0,0,0-.44.85,1,1,0,0,0,.28.74,1.89,1.89,0,0,0,.89.42l1.28.32a2.85,2.85,0,0,1,1.56.74,1.78,1.78,0,0,1,.51,1.31,1.85,1.85,0,0,1-.8,1.56A3.57,3.57,0,0,1,85.73,17.61Z"/><path class="cls-9" d="M93.74,17.61a3.58,3.58,0,0,1-1.88-.48,3.35,3.35,0,0,1-1.25-1.36,4.65,4.65,0,0,1-.44-2.08,4.64,4.64,0,0,1,.44-2.07,3.23,3.23,0,0,1,1.25-1.36,3.92,3.92,0,0,1,3.76,0,3.23,3.23,0,0,1,1.25,1.36,4.64,4.64,0,0,1,.44,2.07,4.65,4.65,0,0,1-.44,2.08,3.35,3.35,0,0,1-1.25,1.36A3.58,3.58,0,0,1,93.74,17.61Zm0-1a2.12,2.12,0,0,0,1.72-.74,3.4,3.4,0,0,0,.61-2.17,3.29,3.29,0,0,0-.62-2.14,2.09,2.09,0,0,0-1.71-.75,2.12,2.12,0,0,0-1.72.75,3.29,3.29,0,0,0-.62,2.14A3.34,3.34,0,0,0,92,15.86,2.11,2.11,0,0,0,93.74,16.6Z"/><path class="cls-9" d="M99.2,17.5V12.07c0-.35,0-.7,0-1.06s-.05-.71-.1-1h1.16l.13,1.55-.15.11a2.49,2.49,0,0,1,.94-1.36,2.62,2.62,0,0,1,1.58-.48,2.46,2.46,0,0,1,1.7.54,2.6,2.6,0,0,1,.78,1.65l-.36-.2a2.57,2.57,0,0,1,1-1.45,2.87,2.87,0,0,1,1.75-.54,2.32,2.32,0,0,1,1.88.74,3.38,3.38,0,0,1,.63,2.24V17.5h-1.22V12.82a2.55,2.55,0,0,0-.37-1.54,1.42,1.42,0,0,0-1.19-.48,1.84,1.84,0,0,0-1.49.64,2.61,2.61,0,0,0-.55,1.76v4.3h-1.21V12.82a2.47,2.47,0,0,0-.39-1.54,1.42,1.42,0,0,0-1.19-.48,1.88,1.88,0,0,0-1.51.64,2.66,2.66,0,0,0-.54,1.76v4.3Z"/><path class="cls-9" d="M118.57,16.6a3.58,3.58,0,0,1-1.27.74,5,5,0,0,1-1.58.27,4.13,4.13,0,0,1-2-.47,3.19,3.19,0,0,1-1.31-1.34,4.57,4.57,0,0,1-.45-2.09,4.5,4.5,0,0,1,.45-2.06,3.34,3.34,0,0,1,1.25-1.38,3.43,3.43,0,0,1,1.85-.49,3.2,3.2,0,0,1,1.73.44,2.86,2.86,0,0,1,1.1,1.27,4.76,4.76,0,0,1,.38,2v.22H113v-.8h5l-.39.56a3.08,3.08,0,0,0-.52-2,1.88,1.88,0,0,0-1.59-.71,2.1,2.1,0,0,0-1.72.77,3.31,3.31,0,0,0-.62,2.14,3.27,3.27,0,0,0,.65,2.22,2.39,2.39,0,0,0,1.91.75,3.65,3.65,0,0,0,1.27-.22,4.11,4.11,0,0,0,1.16-.66Z"/><path class="cls-9" d="M119.44,10.92V10h4.84v1Zm4.81,5.5v1a5,5,0,0,1-.5.11,4.58,4.58,0,0,1-.55,0,2.29,2.29,0,0,1-1.67-.6,2.37,2.37,0,0,1-.62-1.8V8l1.21-.43V15a2.11,2.11,0,0,0,.17.93,1,1,0,0,0,.48.46,1.78,1.78,0,0,0,.67.12,2.62,2.62,0,0,0,.41,0A2.73,2.73,0,0,0,124.25,16.42Z"/><path class="cls-9" d="M125.75,17.5v-11H127v5l-.2.15a2.58,2.58,0,0,1,1-1.39,3,3,0,0,1,1.7-.47c1.81,0,2.71,1,2.71,3V17.5H131V12.82a2.34,2.34,0,0,0-.42-1.54,1.67,1.67,0,0,0-1.32-.48,2.24,2.24,0,0,0-1.68.64,2.38,2.38,0,0,0-.63,1.74V17.5Z"/><path class="cls-9" d="M134.41,6.76h1.48V8.14h-1.48Zm.12,10.74V10h1.21V17.5Z"/><path class="cls-9" d="M138.1,17.5V12.07c0-.35,0-.7,0-1.06a9.1,9.1,0,0,0-.09-1h1.15l.14,1.55-.15.13a2.58,2.58,0,0,1,1-1.39,3,3,0,0,1,1.69-.47c1.81,0,2.72,1,2.72,3V17.5h-1.22V12.82a2.34,2.34,0,0,0-.42-1.54,1.67,1.67,0,0,0-1.32-.48,2.24,2.24,0,0,0-1.68.64,2.38,2.38,0,0,0-.63,1.74V17.5Z"/><path class="cls-9" d="M150.19,20.84a5.52,5.52,0,0,1-3-.77l.21-1a6.48,6.48,0,0,0,1.33.58,5.23,5.23,0,0,0,1.43.18,2.17,2.17,0,0,0,1.64-.58,2.38,2.38,0,0,0,.56-1.71v-2l.17-.2a2.7,2.7,0,0,1-.57,1,2.54,2.54,0,0,1-.93.69,3.15,3.15,0,0,1-1.26.24A3.26,3.26,0,0,1,148,16.8a3.19,3.19,0,0,1-1.18-1.31,4.19,4.19,0,0,1-.43-2,4.24,4.24,0,0,1,.43-2A3.19,3.19,0,0,1,148,10.25a3.25,3.25,0,0,1,1.77-.47,3,3,0,0,1,1.77.51,2.54,2.54,0,0,1,1,1.45l-.18-.16V10h1.21v7.48a3.46,3.46,0,0,1-.86,2.55A3.47,3.47,0,0,1,150.19,20.84ZM150,16.26a2.13,2.13,0,0,0,1.71-.73,3,3,0,0,0,.63-2,3,3,0,0,0-.63-2A2.13,2.13,0,0,0,150,10.8a2.21,2.21,0,0,0-1.75.72,2.94,2.94,0,0,0-.64,2,2.92,2.92,0,0,0,.64,2A2.25,2.25,0,0,0,150,16.26Z"/></g><g class="cls-7"><path class="cls-6" d="M127.07,82.5V77.07c0-.35,0-.7,0-1.06s0-.71-.1-1.05h1.16l.16,1.86-.16,0a2.31,2.31,0,0,1,.9-1.49,2.6,2.6,0,0,1,1.57-.5,2.23,2.23,0,0,1,.37,0,1.65,1.65,0,0,1,.32.07l0,1.1a2.71,2.71,0,0,0-.8-.11,1.92,1.92,0,0,0-1.94,1.22,3,3,0,0,0-.22,1.12v4.3Z"/><path class="cls-6" d="M138.53,81.6a3.49,3.49,0,0,1-1.27.74,5,5,0,0,1-1.58.27,4.16,4.16,0,0,1-2-.47,3.17,3.17,0,0,1-1.3-1.34,4.44,4.44,0,0,1-.46-2.09,4.5,4.5,0,0,1,.45-2.06,3.41,3.41,0,0,1,1.25-1.38,3.47,3.47,0,0,1,1.86-.49,3.17,3.17,0,0,1,1.72.44,2.8,2.8,0,0,1,1.1,1.27,4.6,4.6,0,0,1,.39,2v.22H133v-.8h5l-.39.56a3.14,3.14,0,0,0-.52-2,1.91,1.91,0,0,0-1.6-.71,2.11,2.11,0,0,0-1.72.77,3.36,3.36,0,0,0-.62,2.14,3.32,3.32,0,0,0,.65,2.22,2.42,2.42,0,0,0,1.92.75,3.56,3.56,0,0,0,1.26-.22,4.16,4.16,0,0,0,1.17-.66Z"/><path class="cls-6" d="M139.4,75.92V75h4.85v1Zm4.81,5.5v1a4,4,0,0,1-.5.11,4.41,4.41,0,0,1-.54,0,2.32,2.32,0,0,1-1.68-.6,2.41,2.41,0,0,1-.62-1.8V73l1.22-.43V80a2,2,0,0,0,.17.93,1,1,0,0,0,.47.46,1.78,1.78,0,0,0,.67.12,2.62,2.62,0,0,0,.41,0A2.43,2.43,0,0,0,144.21,81.42Z"/><path class="cls-6" d="M148.38,82.61a2.61,2.61,0,0,1-2-.75,3.22,3.22,0,0,1-.68-2.22V75h1.21v4.65a2.29,2.29,0,0,0,.42,1.5,1.63,1.63,0,0,0,1.28.48,2.14,2.14,0,0,0,1.62-.65,2.4,2.4,0,0,0,.62-1.72V75H152V82.5h-1.19V80.87l.19-.09a2.54,2.54,0,0,1-1,1.36A2.91,2.91,0,0,1,148.38,82.61Z"/><path class="cls-6" d="M154.37,82.5V77.07c0-.35,0-.7,0-1.06s0-.71-.1-1.05h1.15l.17,1.86-.17,0a2.36,2.36,0,0,1,.91-1.49,2.6,2.6,0,0,1,1.57-.5,2.23,2.23,0,0,1,.37,0,1.65,1.65,0,0,1,.32.07l0,1.1a2.71,2.71,0,0,0-.8-.11,1.92,1.92,0,0,0-1.94,1.22,3,3,0,0,0-.22,1.12v4.3Z"/><path class="cls-6" d="M159.8,82.5V77.07c0-.35,0-.7,0-1.06s-.05-.71-.1-1.05h1.16l.13,1.55-.15.13a2.58,2.58,0,0,1,1.05-1.39,3,3,0,0,1,1.7-.47c1.8,0,2.71,1,2.71,3V82.5h-1.21V77.82a2.4,2.4,0,0,0-.42-1.54,1.7,1.7,0,0,0-1.33-.48,2.23,2.23,0,0,0-1.67.64,2.39,2.39,0,0,0-.64,1.74V82.5Z"/></g></g></g></svg>