<svg xmlns="http://www.w3.org/2000/svg" viewBox="0 0 595.28 60"><defs><style>.cls-1{fill:none;}.cls-2{fill:#7a3d86;}.cls-3{fill:#954e9e;}.cls-4{fill:#b682b9;}.cls-5{fill:#3a53a4;}.cls-6{fill:#fff;}.cls-7{isolation:isolate;}.cls-8{opacity:0.6;}.cls-9{fill:#010101;}</style></defs><g id="Layer_2" data-name="Layer 2"><g id="Layer_1-2" data-name="Layer 1"><rect class="cls-1" width="595.28" height="18"/><path class="cls-2" d="M1,9A8,8,0,0,1,9,1H177.5V26H51l-6,4H42l-6-4H29a8,8,0,0,0-8,8v8a8,8,0,0,0,8,8H177.5V60H9a8,8,0,0,1-8-8Z"/><path class="cls-3" d="M0,8A8,8,0,0,1,8,0H176.5V25H50l-6,4H41l-6-4H28a8,8,0,0,0-8,8v8a8,8,0,0,0,8,8H176.5V59H8a8,8,0,0,1-8-8Z"/><path class="cls-4" d="M2.34,56.66A8,8,0,0,1,0,51V8H1V51a7,7,0,0,0,2.05,5ZM176,50H28a8.94,8.94,0,0,1-6.36-2.64l.7-.7A8,8,0,0,0,28,49H176ZM1,7.53,0,7.47A8,8,0,0,1,8,0H176V1H8A7,7,0,0,0,1,7.53Z"/><circle class="cls-5" cx="18" cy="13" r="8"/><path class="cls-6" d="M18,21.5A8.5,8.5,0,1,1,26.5,13,8.51,8.51,0,0,1,18,21.5Zm0-16A7.5,7.5,0,1,0,25.5,13,7.5,7.5,0,0,0,18,5.5Z"/><path class="cls-6" d="M16.8,15h2a1.54,1.54,0,0,1,.63-1.27c2.88-2.4.61-5.53-3.76-3.87v1.7c3.12-1.66,3.7.12,2.33,1.25C16.8,13.81,16.8,14.34,16.8,15Z"/><rect class="cls-6" x="16.8" y="15.78" width="2" height="2"/><g class="cls-7"><path class="cls-6" d="M37.1,10.92V10H42v1Zm4.82,5.5v1l-.5.11a4.58,4.58,0,0,1-.55,0A2.26,2.26,0,0,1,39.2,17a2.35,2.35,0,0,1-.63-1.79V8l1.22-.44V15A2.11,2.11,0,0,0,40,16a1,1,0,0,0,.47.46,1.83,1.83,0,0,0,.68.12l.4,0Z"/><path class="cls-6" d="M46.54,17.61a3.49,3.49,0,0,1-1.88-.49,3.26,3.26,0,0,1-1.25-1.35A4.65,4.65,0,0,1,43,13.69a4.64,4.64,0,0,1,.44-2.07,3.32,3.32,0,0,1,1.25-1.37,4,4,0,0,1,3.76,0,3.32,3.32,0,0,1,1.25,1.37,4.64,4.64,0,0,1,.44,2.07,4.65,4.65,0,0,1-.44,2.08,3.26,3.26,0,0,1-1.25,1.35A3.49,3.49,0,0,1,46.54,17.61Zm0-1a2.12,2.12,0,0,0,1.72-.74,3.4,3.4,0,0,0,.6-2.17,3.32,3.32,0,0,0-.61-2.15,2.09,2.09,0,0,0-1.71-.75,2.12,2.12,0,0,0-1.72.75,3.32,3.32,0,0,0-.62,2.15,3.34,3.34,0,0,0,.61,2.17A2.11,2.11,0,0,0,46.54,16.6Z"/></g><g class="cls-8"><rect class="cls-6" x="55.52" y="5" width="102.15" height="16" rx="4"/></g><g class="cls-7"><path class="cls-9" d="M68.33,17.5h-1.2v-2l.18.17a2.5,2.5,0,0,1-1,1.45,2.91,2.91,0,0,1-1.76.52,3.22,3.22,0,0,1-1.75-.49,3.31,3.31,0,0,1-1.17-1.38,4.86,4.86,0,0,1-.42-2.08,4.66,4.66,0,0,1,.41-2.05,3.17,3.17,0,0,1,1.17-1.36,3.28,3.28,0,0,1,1.76-.47,3,3,0,0,1,1.76.51,2.56,2.56,0,0,1,1,1.45l-.19.15V6.46h1.21Zm-3.51-.9a2,2,0,0,0,1.7-.76,3.32,3.32,0,0,0,.61-2.15,3.38,3.38,0,0,0-.6-2.14,2.07,2.07,0,0,0-1.71-.76,2.12,2.12,0,0,0-1.73.75,3.21,3.21,0,0,0-.62,2.12,3.36,3.36,0,0,0,.62,2.17A2.1,2.1,0,0,0,64.82,16.6Z"/><path class="cls-9" d="M73.81,17.61a3.55,3.55,0,0,1-1.89-.49,3.24,3.24,0,0,1-1.24-1.35,4.52,4.52,0,0,1-.44-2.08,4.51,4.51,0,0,1,.44-2.07,3.3,3.3,0,0,1,1.24-1.37,3.73,3.73,0,0,1,1.89-.47,3.69,3.69,0,0,1,1.88.47,3.3,3.3,0,0,1,1.24,1.37,4.51,4.51,0,0,1,.45,2.07,4.52,4.52,0,0,1-.45,2.08,3.24,3.24,0,0,1-1.24,1.35A3.51,3.51,0,0,1,73.81,17.61Zm0-1a2.08,2.08,0,0,0,1.71-.74,3.34,3.34,0,0,0,.61-2.17,3.32,3.32,0,0,0-.61-2.15,2.34,2.34,0,0,0-3.43,0,3.26,3.26,0,0,0-.62,2.15,3.4,3.4,0,0,0,.6,2.17A2.15,2.15,0,0,0,73.81,16.6Z"/><path class="cls-9" d="M85.73,17.61a4.4,4.4,0,0,1-3-1l.4-.9a4.11,4.11,0,0,0,1.24.68,4.23,4.23,0,0,0,1.42.22,2.37,2.37,0,0,0,1.29-.29,1,1,0,0,0,.45-.85.89.89,0,0,0-.3-.71,2.3,2.3,0,0,0-1-.43L85,14.05a2.78,2.78,0,0,1-1.46-.75A1.78,1.78,0,0,1,83,12a1.93,1.93,0,0,1,.36-1.16,2.37,2.37,0,0,1,1-.79,3.77,3.77,0,0,1,1.53-.28,4.37,4.37,0,0,1,1.5.25,3.28,3.28,0,0,1,1.18.73l-.4.89A4.06,4.06,0,0,0,87,11a3.29,3.29,0,0,0-1.17-.22,2.17,2.17,0,0,0-1.26.32,1,1,0,0,0-.44.85,1,1,0,0,0,.28.74,1.89,1.89,0,0,0,.89.42l1.28.32a2.85,2.85,0,0,1,1.56.74,1.78,1.78,0,0,1,.51,1.31,1.85,1.85,0,0,1-.8,1.56A3.57,3.57,0,0,1,85.73,17.61Z"/><path class="cls-9" d="M93.74,17.61a3.49,3.49,0,0,1-1.88-.49,3.26,3.26,0,0,1-1.25-1.35,4.65,4.65,0,0,1-.44-2.08,4.64,4.64,0,0,1,.44-2.07,3.32,3.32,0,0,1,1.25-1.37,4,4,0,0,1,3.76,0,3.32,3.32,0,0,1,1.25,1.37,4.64,4.64,0,0,1,.44,2.07,4.65,4.65,0,0,1-.44,2.08,3.26,3.26,0,0,1-1.25,1.35A3.49,3.49,0,0,1,93.74,17.61Zm0-1a2.12,2.12,0,0,0,1.72-.74,3.4,3.4,0,0,0,.61-2.17,3.32,3.32,0,0,0-.62-2.15,2.09,2.09,0,0,0-1.71-.75,2.12,2.12,0,0,0-1.72.75,3.32,3.32,0,0,0-.62,2.15A3.34,3.34,0,0,0,92,15.86,2.11,2.11,0,0,0,93.74,16.6Z"/><path class="cls-9" d="M99.2,17.5V12.07c0-.35,0-.7,0-1.06s-.05-.71-.1-1h1.16l.13,1.55-.15.11a2.56,2.56,0,0,1,.94-1.37,2.68,2.68,0,0,1,1.58-.47,2.46,2.46,0,0,1,1.7.54,2.57,2.57,0,0,1,.78,1.64l-.36-.19a2.53,2.53,0,0,1,1-1.45,2.87,2.87,0,0,1,1.75-.54,2.32,2.32,0,0,1,1.88.74,3.38,3.38,0,0,1,.63,2.24V17.5h-1.22V12.82a2.55,2.55,0,0,0-.37-1.54,1.43,1.43,0,0,0-1.19-.49,1.85,1.85,0,0,0-1.49.65,2.61,2.61,0,0,0-.55,1.76v4.3h-1.21V12.82a2.47,2.47,0,0,0-.39-1.54,1.43,1.43,0,0,0-1.19-.49,1.89,1.89,0,0,0-1.51.65,2.66,2.66,0,0,0-.54,1.76v4.3Z"/><path class="cls-9" d="M118.57,16.6a3.42,3.42,0,0,1-1.27.73,4.78,4.78,0,0,1-1.58.28,4.13,4.13,0,0,1-2-.47,3.19,3.19,0,0,1-1.31-1.34,4.57,4.57,0,0,1-.45-2.09,4.47,4.47,0,0,1,.45-2.06,3.34,3.34,0,0,1,1.25-1.38,3.43,3.43,0,0,1,1.85-.49,3.2,3.2,0,0,1,1.73.44,2.86,2.86,0,0,1,1.1,1.27,4.74,4.74,0,0,1,.38,2v.23H113v-.8h5l-.39.56a3.13,3.13,0,0,0-.52-2,1.9,1.9,0,0,0-1.59-.7,2.1,2.1,0,0,0-1.72.77,3.31,3.31,0,0,0-.62,2.14,3.27,3.27,0,0,0,.65,2.22,2.39,2.39,0,0,0,1.91.75,3.65,3.65,0,0,0,1.27-.22,3.92,3.92,0,0,0,1.16-.67Z"/><path class="cls-9" d="M119.44,10.92V10h4.84v1Zm4.81,5.5v1l-.5.11a4.58,4.58,0,0,1-.55,0,2.26,2.26,0,0,1-1.67-.61,2.35,2.35,0,0,1-.62-1.79V8l1.21-.44V15a2.11,2.11,0,0,0,.17.93,1,1,0,0,0,.48.46,1.74,1.74,0,0,0,.67.12l.41,0Z"/><path class="cls-9" d="M125.75,17.5v-11H127v5l-.19.14a2.59,2.59,0,0,1,1-1.38,3,3,0,0,1,1.7-.47c1.8,0,2.71,1,2.71,3V17.5H131V12.82a2.34,2.34,0,0,0-.42-1.54,1.67,1.67,0,0,0-1.32-.49,2.24,2.24,0,0,0-1.68.65,2.39,2.39,0,0,0-.64,1.74V17.5Z"/><path class="cls-9" d="M134.4,6.76h1.49V8.14H134.4Zm.13,10.74V10h1.21V17.5Z"/><path class="cls-9" d="M138.09,17.5V12.07c0-.35,0-.7,0-1.06a7.32,7.32,0,0,0-.1-1h1.16l.13,1.55-.15.12a2.56,2.56,0,0,1,1.06-1.38,3,3,0,0,1,1.69-.47c1.81,0,2.71,1,2.71,3V17.5h-1.21V12.82a2.34,2.34,0,0,0-.42-1.54,1.67,1.67,0,0,0-1.32-.49,2.24,2.24,0,0,0-1.68.65,2.38,2.38,0,0,0-.63,1.74V17.5Z"/><path class="cls-9" d="M150.18,20.84a5.64,5.64,0,0,1-3-.77l.21-1a6.55,6.55,0,0,0,1.34.58,5.15,5.15,0,0,0,1.42.18,2.2,2.2,0,0,0,1.65-.58,2.39,2.39,0,0,0,.56-1.72v-2l.16-.19a2.68,2.68,0,0,1-.56,1,2.5,2.5,0,0,1-.94.69,3.13,3.13,0,0,1-1.25.24A3.24,3.24,0,0,1,148,16.8a3.19,3.19,0,0,1-1.18-1.31,4.19,4.19,0,0,1-.43-2,4.24,4.24,0,0,1,.43-2A3.19,3.19,0,0,1,148,10.25a3.23,3.23,0,0,1,1.77-.47,3,3,0,0,1,1.77.51,2.53,2.53,0,0,1,1,1.45l-.18-.16V10h1.22v7.48a3.46,3.46,0,0,1-.86,2.55A3.49,3.49,0,0,1,150.18,20.84ZM150,16.25a2.15,2.15,0,0,0,1.72-.72,3,3,0,0,0,.62-2,3,3,0,0,0-.62-2,2.16,2.16,0,0,0-1.72-.73,2.2,2.2,0,0,0-1.74.73,2.92,2.92,0,0,0-.64,2,2.94,2.94,0,0,0,.64,2A2.22,2.22,0,0,0,150,16.25Z"/></g></g></g></svg>