<svg xmlns="http://www.w3.org/2000/svg" viewBox="0 0 595.39 65.43"><defs><style>.cls-1{fill:none;}.cls-2{fill:#483d86;}.cls-3{fill:#5c4da0;}.cls-4{fill:#8d82bd;}.cls-5{opacity:0.6;}.cls-6{fill:#fff;}.cls-7{isolation:isolate;}.cls-8{fill:#010101;}.cls-9{fill:#afa7d1;}</style></defs><g id="Layer_2" data-name="Layer 2"><g id="Layer_1-2" data-name="Layer 1"><rect class="cls-1" x="0.12" width="595.28" height="18"/><path class="cls-2" d="M9.12,1H82.55V26H9.12V21c0-10-8,8-8-7.5s8,2.5,8-7.5Z"/><path class="cls-3" d="M8.12,0H81.55V25H8.12V20c0-10-8,8-8-7.5s8,2.5,8-7.5Z"/><path class="cls-4" d="M9.12,24.5h-1v-6h1ZM.77,18.13a20.9,20.9,0,0,1,0-11.26l1,.26a19.79,19.79,0,0,0,0,10.74ZM9.12,8h-1V0H81.05V1H9.12Z"/><g class="cls-5"><rect class="cls-6" x="13.12" y="5" width="63.43" height="16" rx="4"/></g><g class="cls-7"><path class="cls-8" d="M19.44,17.5V6.82h1.21V17.5ZM20,12.59v-1h7.74v1Zm7,4.91V6.82h1.23V17.5Z"/><path class="cls-8" d="M30.93,17.5V6.82h1.23V17.5Z"/><path class="cls-8" d="M39.52,17.62A5.51,5.51,0,0,1,36.77,17,4.33,4.33,0,0,1,35,15.09a6.63,6.63,0,0,1-.6-2.95A6.6,6.6,0,0,1,35,9.21a4.38,4.38,0,0,1,1.74-1.87,5.34,5.34,0,0,1,2.68-.64,5.92,5.92,0,0,1,2,.34,4.43,4.43,0,0,1,1.63,1L42.63,9A5.61,5.61,0,0,0,41.1,8a4.68,4.68,0,0,0-1.67-.29,3.46,3.46,0,0,0-2.78,1.13,4.86,4.86,0,0,0-1,3.26,4.88,4.88,0,0,0,1,3.31,3.6,3.6,0,0,0,2.88,1.13,7.61,7.61,0,0,0,1.52-.14,7,7,0,0,0,1.35-.38l-.3.63V12.91H39.46v-1h3.78v4.95a4.84,4.84,0,0,1-1,.39,9.64,9.64,0,0,1-1.3.26A10.93,10.93,0,0,1,39.52,17.62Z"/><path class="cls-8" d="M45.76,17.5V6.82H47V17.5Zm.57-4.91v-1h7.74v1Zm7.05,4.91V6.82h1.23V17.5Z"/></g><polygon class="cls-8" points="67.57 17.31 72.55 8.69 62.59 8.69 67.57 17.31"/><rect class="cls-9" x="13.12" y="31.69" width="63.37" height="33.74" rx="5.67"/><g class="cls-7"><path class="cls-8" d="M18.84,44.57V33.89h1.22V44.57Zm.57-4.91v-1h7.74v1Zm7.05,4.91V33.89h1.23V44.57Z"/><path class="cls-8" d="M30.33,44.57V33.89h1.23V44.57Z"/><path class="cls-8" d="M38.93,44.69A5.47,5.47,0,0,1,36.17,44a4.28,4.28,0,0,1-1.75-1.87,6.52,6.52,0,0,1-.61-2.95,6.44,6.44,0,0,1,.61-2.93,4.21,4.21,0,0,1,1.74-1.87,5.32,5.32,0,0,1,2.68-.64,6.06,6.06,0,0,1,2,.33,4.51,4.51,0,0,1,1.63,1l-.48.94a5.37,5.37,0,0,0-1.53-1,4.42,4.42,0,0,0-1.66-.29A3.46,3.46,0,0,0,36.05,36a4.9,4.9,0,0,0-1,3.26,4.9,4.9,0,0,0,1,3.31A3.63,3.63,0,0,0,39,43.65a8.51,8.51,0,0,0,1.52-.14,7.86,7.86,0,0,0,1.34-.38l-.3.63V40H38.87V39h3.78v5a5.05,5.05,0,0,1-1,.39,9.8,9.8,0,0,1-1.31.26A10.66,10.66,0,0,1,38.93,44.69Z"/><path class="cls-8" d="M45.17,44.57V33.89h1.21V44.57Zm.57-4.91v-1h7.74v1Zm7,4.91V33.89H54V44.57Z"/><path class="cls-8" d="M18.84,62.57V51.89h1.23v9.63h5.36v1Z"/><path class="cls-8" d="M30.93,62.69A4.91,4.91,0,0,1,28.34,62a4.43,4.43,0,0,1-1.68-1.89,7.5,7.5,0,0,1,0-5.83,4.25,4.25,0,0,1,1.67-1.88,4.9,4.9,0,0,1,2.6-.66,5,5,0,0,1,2.6.66,4.28,4.28,0,0,1,1.68,1.88,6.64,6.64,0,0,1,.58,2.9,6.78,6.78,0,0,1-.59,2.93A4.43,4.43,0,0,1,33.52,62,4.91,4.91,0,0,1,30.93,62.69Zm0-1a3.25,3.25,0,0,0,2.64-1.15,5,5,0,0,0,1-3.28,5,5,0,0,0-1-3.26,3.23,3.23,0,0,0-2.64-1.13A3.27,3.27,0,0,0,28.28,54a5,5,0,0,0-1,3.25,5,5,0,0,0,1,3.27A3.26,3.26,0,0,0,30.93,61.64Z"/><path class="cls-8" d="M40.71,62.57,37,51.89h1.26l3.27,9.63H41l3.35-9.63h.94l3.29,9.62h-.47l3.3-9.63h1.22L48.9,62.57h-1l-3.21-9.21H45l-3.22,9.21Z"/></g><polygon class="cls-8" points="67.57 44.38 72.55 35.75 62.59 35.75 67.57 44.38"/></g></g></svg>