<svg xmlns="http://www.w3.org/2000/svg" viewBox="0 0 595.28 119.38"><defs><style>.cls-1{fill:none;}.cls-2{fill:#483d86;}.cls-3{fill:#5c4da0;}.cls-4{fill:#8d82bd;}.cls-5{isolation:isolate;}.cls-6{fill:#fff;}.cls-7{opacity:0.6;}.cls-8{fill:#010101;}.cls-9{fill:#afa7d1;}</style></defs><g id="Layer_2" data-name="Layer 2"><g id="Layer_1-2" data-name="Layer 1"><rect class="cls-1" width="595.28" height="18"/><path class="cls-2" d="M1,9A8,8,0,0,1,9,1h7l6,4h3l6-4H279.72V26H30.5l-6,4h-3l-6-4H9a8,8,0,0,1-8-8Z"/><path class="cls-3" d="M0,8A8,8,0,0,1,8,0h7l6,4h3l6-4H278.72V25H29.5l-6,4h-3l-6-4H8a8,8,0,0,1-8-8Z"/><path class="cls-4" d="M2.34,22.66A8,8,0,0,1,0,17V8H1v9A7,7,0,0,0,3.05,22ZM1,7.53,0,7.47A8,8,0,0,1,8,0h7.17l6,4h2.7l6-4H278.22V1H30.15l-6,4h-3.3l-6-4H8A7,7,0,0,0,1,7.53Z"/><g class="cls-5"><path class="cls-6" d="M11.32,17.5V6.82h1.23v9.63H17.9V17.5Z"/><path class="cls-6" d="M19.49,17.5V6.82h6.75v1H20.71v3.72h5.23v1H20.71v3.89h5.53v1Z"/><path class="cls-6" d="M28.32,17.5V6.82H31.9a6.32,6.32,0,0,1,2.91.62,4.23,4.23,0,0,1,1.83,1.82,6.07,6.07,0,0,1,.63,2.88,6.07,6.07,0,0,1-.64,2.91,4.29,4.29,0,0,1-1.83,1.82,6.18,6.18,0,0,1-2.9.63Zm1.23-1.05h2.28a4.14,4.14,0,0,0,3.11-1.08,4.51,4.51,0,0,0,1-3.23c0-2.85-1.39-4.27-4.15-4.27H29.55Z"/><path class="cls-6" d="M43.27,17.5v-11h1.21v5.43l-.16-.15a2.56,2.56,0,0,1,1-1.45A2.94,2.94,0,0,1,47,9.77,3.13,3.13,0,0,1,50,11.6a4.74,4.74,0,0,1,.42,2.06A4.86,4.86,0,0,1,50,15.74a3.35,3.35,0,0,1-1.19,1.38A3.19,3.19,0,0,1,47,17.6a2.86,2.86,0,0,1-1.74-.51,2.5,2.5,0,0,1-1-1.45l.16-.17v2Zm3.54-.9a2.08,2.08,0,0,0,1.71-.77,3.42,3.42,0,0,0,.61-2.17,3.26,3.26,0,0,0-.61-2.12,2.34,2.34,0,0,0-3.44,0,3.38,3.38,0,0,0-.6,2.14,3.38,3.38,0,0,0,.6,2.15A2.07,2.07,0,0,0,46.81,16.6Z"/><path class="cls-6" d="M52.27,17.5V12.07c0-.35,0-.7,0-1.06s0-.71-.1-1.06H53.3l.17,1.86-.17,0a2.36,2.36,0,0,1,.91-1.49,2.61,2.61,0,0,1,1.57-.51,2.22,2.22,0,0,1,.37,0,1.65,1.65,0,0,1,.32.06l0,1.11a2.75,2.75,0,0,0-.8-.12,1.94,1.94,0,0,0-1.94,1.23,3,3,0,0,0-.22,1.11V17.5Z"/><path class="cls-6" d="M57.58,6.76h1.48V8.14H57.58ZM57.7,17.5V10h1.21V17.5Z"/><path class="cls-6" d="M64.58,20.84a5.53,5.53,0,0,1-3-.78l.21-1a6.1,6.1,0,0,0,1.34.59,5.15,5.15,0,0,0,1.42.18,2.2,2.2,0,0,0,1.65-.58,2.39,2.39,0,0,0,.56-1.72v-2l.16-.19a2.68,2.68,0,0,1-.56,1,2.48,2.48,0,0,1-.94.68,3.15,3.15,0,0,1-1.26.24,3.15,3.15,0,0,1-2.94-1.78,4.24,4.24,0,0,1-.43-2,4.19,4.19,0,0,1,.43-2,3.18,3.18,0,0,1,2.94-1.79,3,3,0,0,1,1.78.52,2.53,2.53,0,0,1,1,1.45l-.18-.17V10H68v7.49A3.46,3.46,0,0,1,67.13,20,3.49,3.49,0,0,1,64.58,20.84Zm-.15-4.59a2.15,2.15,0,0,0,1.72-.72,3,3,0,0,0,.62-2,3,3,0,0,0-.62-2,2.16,2.16,0,0,0-1.72-.73,2.2,2.2,0,0,0-1.74.73,2.91,2.91,0,0,0-.64,2,2.91,2.91,0,0,0,.64,2A2.19,2.19,0,0,0,64.43,16.25Z"/><path class="cls-6" d="M70.33,17.5v-11h1.21v5l-.19.15a2.55,2.55,0,0,1,1.05-1.38,3,3,0,0,1,1.69-.48c1.81,0,2.72,1,2.72,3V17.5H75.59V12.82a2.34,2.34,0,0,0-.42-1.54,1.67,1.67,0,0,0-1.32-.49,2.24,2.24,0,0,0-1.68.65,2.38,2.38,0,0,0-.63,1.74V17.5Z"/><path class="cls-6" d="M78,10.91V10h4.84v1Zm4.81,5.51v1a2.95,2.95,0,0,1-1,.15,2.31,2.31,0,0,1-1.67-.6,2.41,2.41,0,0,1-.62-1.8V8l1.21-.44V15a2,2,0,0,0,.18.93,1,1,0,0,0,.47.46,1.78,1.78,0,0,0,.67.12,2.54,2.54,0,0,0,.41,0A2.59,2.59,0,0,0,82.85,16.42Z"/><path class="cls-6" d="M84.35,17.5V12.07c0-.35,0-.7,0-1.06a9.5,9.5,0,0,0-.1-1.06h1.16l.13,1.56-.15.12a2.55,2.55,0,0,1,1-1.38,3,3,0,0,1,1.7-.48c1.81,0,2.71,1,2.71,3V17.5H89.62V12.82a2.34,2.34,0,0,0-.42-1.54,1.67,1.67,0,0,0-1.32-.49,2.24,2.24,0,0,0-1.68.65,2.38,2.38,0,0,0-.63,1.74V17.5Z"/><path class="cls-6" d="M99.31,16.6a3.48,3.48,0,0,1-1.27.73,4.73,4.73,0,0,1-1.58.27,4.16,4.16,0,0,1-2-.46,3.17,3.17,0,0,1-1.3-1.34,4.46,4.46,0,0,1-.46-2.1,4.45,4.45,0,0,1,.45-2,3.41,3.41,0,0,1,1.25-1.38,3.46,3.46,0,0,1,1.85-.5,3.21,3.21,0,0,1,1.73.45,2.82,2.82,0,0,1,1.1,1.26,4.6,4.6,0,0,1,.38,2v.23h-5.7v-.8h5l-.39.56a3.19,3.19,0,0,0-.51-2,1.91,1.91,0,0,0-1.6-.7,2.11,2.11,0,0,0-1.72.77,3.36,3.36,0,0,0-.62,2.14,3.32,3.32,0,0,0,.65,2.22,2.4,2.4,0,0,0,1.91.75,3.61,3.61,0,0,0,1.27-.22,3.8,3.8,0,0,0,1.16-.67Z"/><path class="cls-6" d="M103.84,17.6a4.42,4.42,0,0,1-3-1l.41-.9a4.11,4.11,0,0,0,1.24.68,4.17,4.17,0,0,0,1.41.22,2.41,2.41,0,0,0,1.3-.29,1,1,0,0,0,.44-.85.89.89,0,0,0-.3-.71,2.3,2.3,0,0,0-1-.43l-1.27-.3a2.78,2.78,0,0,1-1.46-.75,1.78,1.78,0,0,1-.52-1.29,1.93,1.93,0,0,1,.36-1.16,2.34,2.34,0,0,1,1-.79A3.76,3.76,0,0,1,104,9.77a4.38,4.38,0,0,1,1.5.26,3.19,3.19,0,0,1,1.19.73l-.41.89a4,4,0,0,0-1.1-.67,3.34,3.34,0,0,0-1.18-.22,2.14,2.14,0,0,0-1.25.32,1,1,0,0,0-.44.85,1,1,0,0,0,.28.74,1.89,1.89,0,0,0,.89.42l1.27.31a3,3,0,0,1,1.57.75,1.77,1.77,0,0,1,.5,1.31A1.84,1.84,0,0,1,106,17,3.57,3.57,0,0,1,103.84,17.6Z"/><path class="cls-6" d="M111.28,17.6a4.42,4.42,0,0,1-3-1l.41-.9a4.11,4.11,0,0,0,1.24.68,4.17,4.17,0,0,0,1.41.22,2.41,2.41,0,0,0,1.3-.29,1,1,0,0,0,.44-.85.89.89,0,0,0-.3-.71,2.3,2.3,0,0,0-1-.43l-1.27-.3A2.78,2.78,0,0,1,109,13.3a1.78,1.78,0,0,1-.52-1.29,1.93,1.93,0,0,1,.36-1.16,2.34,2.34,0,0,1,1-.79,3.76,3.76,0,0,1,1.53-.29,4.38,4.38,0,0,1,1.5.26,3.19,3.19,0,0,1,1.19.73l-.41.89a4,4,0,0,0-1.1-.67,3.34,3.34,0,0,0-1.18-.22,2.14,2.14,0,0,0-1.25.32,1,1,0,0,0-.44.85,1,1,0,0,0,.28.74,1.89,1.89,0,0,0,.89.42l1.27.31a3,3,0,0,1,1.57.75,1.77,1.77,0,0,1,.5,1.31,1.84,1.84,0,0,1-.79,1.56A3.57,3.57,0,0,1,111.28,17.6Z"/></g><g class="cls-7"><rect class="cls-6" x="117.67" y="5" width="60.22" height="16" rx="4"/></g><g class="cls-5"><path class="cls-8" d="M123.84,17.5v-11h1.21v11Z"/><path class="cls-8" d="M133.59,16.6a3.56,3.56,0,0,1-1.27.73,4.77,4.77,0,0,1-1.58.27,4.13,4.13,0,0,1-2-.46,3.19,3.19,0,0,1-1.31-1.34,4.58,4.58,0,0,1-.45-2.1,4.45,4.45,0,0,1,.45-2,3.34,3.34,0,0,1,1.25-1.38,3.44,3.44,0,0,1,1.85-.5,3.21,3.21,0,0,1,1.73.45,2.89,2.89,0,0,1,1.1,1.26,4.76,4.76,0,0,1,.38,2v.23H128v-.8h5l-.39.56a3.13,3.13,0,0,0-.52-2,1.88,1.88,0,0,0-1.59-.7,2.1,2.1,0,0,0-1.72.77,3.31,3.31,0,0,0-.62,2.14,3.27,3.27,0,0,0,.65,2.22,2.39,2.39,0,0,0,1.91.75,3.65,3.65,0,0,0,1.27-.22,3.92,3.92,0,0,0,1.16-.67Z"/><path class="cls-8" d="M134.49,10.91V10H139v1Zm4.74-3.34a2.85,2.85,0,0,0-.78-.12,1.59,1.59,0,0,0-.66.13.89.89,0,0,0-.45.45,2.1,2.1,0,0,0-.17.92V17.5H136V8.8a2.45,2.45,0,0,1,.6-1.81,2.27,2.27,0,0,1,1.65-.59,4.36,4.36,0,0,1,.51,0,3.06,3.06,0,0,1,.51.1Z"/><path class="cls-8" d="M139.2,10.91V10H144v1ZM144,16.42v1l-.5.12a4.68,4.68,0,0,1-.55,0,2.29,2.29,0,0,1-1.67-.6,2.37,2.37,0,0,1-.62-1.8V8l1.21-.44V15a2.11,2.11,0,0,0,.17.93,1,1,0,0,0,.48.46,1.78,1.78,0,0,0,.67.12,2.54,2.54,0,0,0,.41,0A2.59,2.59,0,0,0,144,16.42Z"/></g><g class="cls-5"><path class="cls-6" d="M188,17.5v-11h1.21v11Z"/><path class="cls-6" d="M197.72,16.6a3.48,3.48,0,0,1-1.27.73,4.73,4.73,0,0,1-1.58.27,4.16,4.16,0,0,1-2-.46,3.17,3.17,0,0,1-1.3-1.34,4.46,4.46,0,0,1-.46-2.1,4.45,4.45,0,0,1,.45-2,3.34,3.34,0,0,1,1.25-1.38,3.46,3.46,0,0,1,1.85-.5,3.21,3.21,0,0,1,1.73.45,2.82,2.82,0,0,1,1.1,1.26,4.6,4.6,0,0,1,.38,2v.23h-5.7v-.8h5l-.39.56a3.19,3.19,0,0,0-.51-2,1.91,1.91,0,0,0-1.6-.7,2.11,2.11,0,0,0-1.72.77,3.36,3.36,0,0,0-.62,2.14,3.32,3.32,0,0,0,.65,2.22,2.4,2.4,0,0,0,1.91.75,3.61,3.61,0,0,0,1.27-.22,3.8,3.8,0,0,0,1.16-.67Z"/><path class="cls-6" d="M201.83,17.5,198.62,10h1.27l2.73,6.64h-.36L205,10h1.22L203,17.5Z"/><path class="cls-6" d="M213.66,16.6a3.52,3.52,0,0,1-1.26.73,4.83,4.83,0,0,1-1.59.27,4.09,4.09,0,0,1-2-.46,3.19,3.19,0,0,1-1.31-1.34,4.58,4.58,0,0,1-.46-2.1,4.45,4.45,0,0,1,.45-2,3.41,3.41,0,0,1,1.25-1.38,3.5,3.5,0,0,1,1.86-.5,3.17,3.17,0,0,1,1.72.45,2.91,2.91,0,0,1,1.11,1.26,4.76,4.76,0,0,1,.38,2v.23h-5.7v-.8h5l-.39.56a3.13,3.13,0,0,0-.52-2,1.9,1.9,0,0,0-1.6-.7,2.11,2.11,0,0,0-1.72.77,3.36,3.36,0,0,0-.62,2.14,3.27,3.27,0,0,0,.66,2.22,2.39,2.39,0,0,0,1.91.75,3.65,3.65,0,0,0,1.27-.22,3.92,3.92,0,0,0,1.16-.67Z"/><path class="cls-6" d="M215.64,17.5v-11h1.22v11Z"/></g><g class="cls-7"><rect class="cls-6" x="226.08" y="5" width="47.63" height="16" rx="4"/></g><g class="cls-5"><path class="cls-8" d="M233.93,13.28a2.09,2.09,0,0,1-1.73-.81,4,4,0,0,1-.64-2.46,3.94,3.94,0,0,1,.64-2.46,2.29,2.29,0,0,1,3.46,0,3.94,3.94,0,0,1,.63,2.46,4,4,0,0,1-.63,2.46A2.08,2.08,0,0,1,233.93,13.28Zm0-.87a1,1,0,0,0,.94-.57,4,4,0,0,0,.31-1.83,4,4,0,0,0-.31-1.81,1,1,0,0,0-.94-.57,1,1,0,0,0-.93.57,4,4,0,0,0-.31,1.81,4,4,0,0,0,.31,1.83A1,1,0,0,0,233.93,12.41Zm-.19,5.09,6.18-10.68h1.15L234.91,17.5Zm7.14.06a2.08,2.08,0,0,1-1.73-.81,3.91,3.91,0,0,1-.64-2.46,3.87,3.87,0,0,1,.64-2.46,2.26,2.26,0,0,1,3.45,0,3.94,3.94,0,0,1,.63,2.46,4,4,0,0,1-.63,2.46A2.06,2.06,0,0,1,240.88,17.56Zm0-.87a1,1,0,0,0,.94-.57,4.15,4.15,0,0,0,.3-1.83,4.13,4.13,0,0,0-.3-1.82,1.06,1.06,0,0,0-1.88,0,4.1,4.1,0,0,0-.31,1.82,4.12,4.12,0,0,0,.31,1.83A1,1,0,0,0,240.88,16.69Z"/><path class="cls-8" d="M248.23,17.62a3.14,3.14,0,0,1-2.78-1.39,7.13,7.13,0,0,1-1-4.07,7.22,7.22,0,0,1,.95-4.07,3.5,3.5,0,0,1,5.58,0,7.17,7.17,0,0,1,.94,4.05,7.17,7.17,0,0,1-1,4.08A3.15,3.15,0,0,1,248.23,17.62Zm0-1a2,2,0,0,0,1.88-1.08,7,7,0,0,0,.61-3.36,6.86,6.86,0,0,0-.61-3.33,2.2,2.2,0,0,0-3.76,0,6.91,6.91,0,0,0-.61,3.33,7,7,0,0,0,.61,3.36A2,2,0,0,0,248.23,16.58Z"/></g><polygon class="cls-8" points="168.91 17.31 173.88 8.69 163.93 8.69 168.91 17.31"/><polygon class="cls-8" points="264.74 17.31 269.72 8.69 259.76 8.69 264.74 17.31"/><rect class="cls-9" x="117.67" y="31.69" width="60.1" height="35.69" rx="5.83"/><g class="cls-5"><path class="cls-8" d="M123.24,44.56v-11h1.22v11Z"/><path class="cls-8" d="M133,43.66a3.36,3.36,0,0,1-1.27.74,4.73,4.73,0,0,1-1.58.27,4,4,0,0,1-2-.47,3.06,3.06,0,0,1-1.3-1.34,4.39,4.39,0,0,1-.46-2.09,4.45,4.45,0,0,1,.45-2.05,3.44,3.44,0,0,1,1.25-1.39,3.56,3.56,0,0,1,1.86-.49,3.26,3.26,0,0,1,1.72.44,2.85,2.85,0,0,1,1.1,1.27,4.6,4.6,0,0,1,.39,2v.23h-5.7V40h5l-.39.56a3.17,3.17,0,0,0-.52-2,1.91,1.91,0,0,0-1.6-.71,2.09,2.09,0,0,0-1.72.78,3.31,3.31,0,0,0-.62,2.13,3.31,3.31,0,0,0,.65,2.22,2.39,2.39,0,0,0,1.92.75,3.79,3.79,0,0,0,1.26-.21,4.2,4.2,0,0,0,1.17-.67Z"/><path class="cls-8" d="M133.89,38V37h4.53v1Zm4.74-3.34a2.85,2.85,0,0,0-.78-.12,1.67,1.67,0,0,0-.65.12.94.94,0,0,0-.46.46,2.08,2.08,0,0,0-.16.92v8.54h-1.22v-8.7a2.43,2.43,0,0,1,.6-1.8,2.22,2.22,0,0,1,1.65-.59l.51,0a4.64,4.64,0,0,1,.51.11Z"/><path class="cls-8" d="M138.6,38V37h4.85v1Zm4.82,5.5v1a3.1,3.1,0,0,1-.51.11,3,3,0,0,1-.54,0,2.33,2.33,0,0,1-1.68-.6,2.41,2.41,0,0,1-.62-1.8V35.08l1.22-.43V42.1a2,2,0,0,0,.17.93.88.88,0,0,0,.47.46,1.65,1.65,0,0,0,.68.13,2.5,2.5,0,0,0,.4,0A2.83,2.83,0,0,0,143.42,43.48Z"/><path class="cls-8" d="M123.24,62.56V57.14c0-.36,0-.71,0-1.06s0-.71-.1-1.06h1.16l.16,1.86-.16-.05a2.4,2.4,0,0,1,.9-1.49,2.67,2.67,0,0,1,1.57-.5l.37,0,.32.07,0,1.11a2.39,2.39,0,0,0-.79-.12,2,2,0,0,0-2,1.22,3.05,3.05,0,0,0-.21,1.12v4.3Z"/><path class="cls-8" d="M128.55,51.82H130V53.2h-1.49Zm.12,10.74V55h1.22v7.54Z"/><path class="cls-8" d="M135.56,65.91a5.53,5.53,0,0,1-3-.78l.21-1a6.55,6.55,0,0,0,1.33.59,5.24,5.24,0,0,0,1.43.17,2.21,2.21,0,0,0,1.64-.57,2.41,2.41,0,0,0,.56-1.72v-2l.17-.2a2.82,2.82,0,0,1-.57,1.05,2.55,2.55,0,0,1-.93.68,3.15,3.15,0,0,1-1.26.24,3.15,3.15,0,0,1-2.95-1.78,4.73,4.73,0,0,1,0-3.94,3.26,3.26,0,0,1,1.18-1.31,3.34,3.34,0,0,1,1.77-.47,2.92,2.92,0,0,1,1.77.52,2.51,2.51,0,0,1,1,1.45l-.18-.17V55H139v7.49a3,3,0,0,1-3.4,3.4Zm-.15-4.59a2.1,2.1,0,0,0,1.71-.73,3.49,3.49,0,0,0,0-4,2.1,2.1,0,0,0-1.71-.73,2.19,2.19,0,0,0-1.75.73,3.46,3.46,0,0,0,0,4A2.21,2.21,0,0,0,135.41,61.32Z"/><path class="cls-8" d="M141.3,62.56v-11h1.21v5l-.19.15a2.61,2.61,0,0,1,1.05-1.39,3.1,3.1,0,0,1,1.7-.47c1.8,0,2.71,1,2.71,3v4.74h-1.21V57.89a2.38,2.38,0,0,0-.42-1.54,1.67,1.67,0,0,0-1.33-.49,2.2,2.2,0,0,0-1.67.65,2.38,2.38,0,0,0-.64,1.73v4.32Z"/><path class="cls-8" d="M149,56V55h4.85v1Zm4.81,5.5v1a3,3,0,0,1-.5.11,3,3,0,0,1-.54,0,2.32,2.32,0,0,1-1.68-.6,2.41,2.41,0,0,1-.62-1.8V53.08l1.21-.43V60.1a1.94,1.94,0,0,0,.18.93.88.88,0,0,0,.47.46,1.6,1.6,0,0,0,.67.13,2.54,2.54,0,0,0,.41,0A2.73,2.73,0,0,0,153.82,61.48Z"/></g><polygon class="cls-8" points="168.91 44.38 173.88 35.75 163.93 35.75 168.91 44.38"/><rect class="cls-9" x="226.08" y="31.69" width="49.54" height="87.69" rx="6.3"/><g class="cls-5"><path class="cls-8" d="M233.34,40.35a2.08,2.08,0,0,1-1.73-.81,3.91,3.91,0,0,1-.64-2.46,3.87,3.87,0,0,1,.64-2.46,2.26,2.26,0,0,1,3.45,0,3.94,3.94,0,0,1,.63,2.46,4,4,0,0,1-.63,2.46A2.06,2.06,0,0,1,233.34,40.35Zm0-.87a1,1,0,0,0,.94-.57,4.15,4.15,0,0,0,.3-1.83,4.08,4.08,0,0,0-.3-1.81,1.05,1.05,0,0,0-1.88,0,3.92,3.92,0,0,0-.31,1.81,4,4,0,0,0,.31,1.83A1,1,0,0,0,233.34,39.48Zm-.2,5.08,6.18-10.67h1.16l-6.17,10.67Zm7.14.06a2.08,2.08,0,0,1-1.73-.81,3.89,3.89,0,0,1-.64-2.46,3.84,3.84,0,0,1,.64-2.45,2.27,2.27,0,0,1,3.46,0,3.91,3.91,0,0,1,.63,2.45,4,4,0,0,1-.63,2.46A2.08,2.08,0,0,1,240.28,44.62Zm0-.86a1,1,0,0,0,.94-.57,4.17,4.17,0,0,0,.31-1.84,4.05,4.05,0,0,0-.31-1.81,1.06,1.06,0,0,0-1.88,0,4.08,4.08,0,0,0-.3,1.81,4.2,4.2,0,0,0,.3,1.84A1,1,0,0,0,240.28,43.76Z"/><path class="cls-8" d="M247.63,44.69a3.16,3.16,0,0,1-2.78-1.39,7.16,7.16,0,0,1-.95-4.07,7.28,7.28,0,0,1,.94-4.08,3.51,3.51,0,0,1,5.58,0,7.23,7.23,0,0,1,1,4.06,7.28,7.28,0,0,1-1,4.08A3.18,3.18,0,0,1,247.63,44.69Zm0-1a2,2,0,0,0,1.88-1.08,7,7,0,0,0,.61-3.36,6.93,6.93,0,0,0-.61-3.34,2.19,2.19,0,0,0-3.76,0,6.91,6.91,0,0,0-.61,3.33,7,7,0,0,0,.61,3.36A2,2,0,0,0,247.63,43.65Z"/><path class="cls-8" d="M233.34,58.35a2.08,2.08,0,0,1-1.73-.81,3.91,3.91,0,0,1-.64-2.46,3.87,3.87,0,0,1,.64-2.46,2.26,2.26,0,0,1,3.45,0,3.94,3.94,0,0,1,.63,2.46,4,4,0,0,1-.63,2.46A2.06,2.06,0,0,1,233.34,58.35Zm0-.87a1,1,0,0,0,.94-.57,4.15,4.15,0,0,0,.3-1.83,4.08,4.08,0,0,0-.3-1.81,1.05,1.05,0,0,0-1.88,0,3.92,3.92,0,0,0-.31,1.81,4,4,0,0,0,.31,1.83A1,1,0,0,0,233.34,57.48Zm-.2,5.08,6.18-10.67h1.16l-6.17,10.67Zm7.14.06a2.08,2.08,0,0,1-1.73-.81,3.89,3.89,0,0,1-.64-2.46,3.84,3.84,0,0,1,.64-2.45,2.27,2.27,0,0,1,3.46,0,3.91,3.91,0,0,1,.63,2.45,4,4,0,0,1-.63,2.46A2.08,2.08,0,0,1,240.28,62.62Zm0-.86a1,1,0,0,0,.94-.57,4.17,4.17,0,0,0,.31-1.84,4.05,4.05,0,0,0-.31-1.81,1.06,1.06,0,0,0-1.88,0,4.08,4.08,0,0,0-.3,1.81,4.2,4.2,0,0,0,.3,1.84A1,1,0,0,0,240.28,61.76Z"/><path class="cls-8" d="M244.38,62.56v-.92l3.73-4.15a7.26,7.26,0,0,0,1.1-1.51,2.94,2.94,0,0,0,.34-1.35,1.77,1.77,0,0,0-.51-1.36,2.07,2.07,0,0,0-1.45-.47,3.91,3.91,0,0,0-1.53.31,5.79,5.79,0,0,0-1.5.92l-.47-1a4.79,4.79,0,0,1,1.59-1,5.72,5.72,0,0,1,1.94-.35,3.93,3.93,0,0,1,1.68.33,2.57,2.57,0,0,1,1.11,1,2.79,2.79,0,0,1,.39,1.5,3.9,3.9,0,0,1-.42,1.76,8.12,8.12,0,0,1-1.37,1.9l-3.6,3.9-.09-.6h5.93v1Z"/><path class="cls-8" d="M256.8,62.67a5.57,5.57,0,0,1-1.92-.35,4.68,4.68,0,0,1-1.59-1l.46-1a5.85,5.85,0,0,0,1.49.92,4.07,4.07,0,0,0,1.56.32,2.41,2.41,0,0,0,1.76-.64,2.38,2.38,0,0,0,.64-1.73,2.58,2.58,0,0,0-.29-1.24,2.15,2.15,0,0,0-.8-.84,2.4,2.4,0,0,0-1.22-.29,3.11,3.11,0,0,0-1.38.3,3.15,3.15,0,0,0-1.07.94h-.85V51.89H260v1h-5.17v4.33l-.39,0a3.08,3.08,0,0,1,1.11-1,3.52,3.52,0,0,1,1.54-.34,3.46,3.46,0,0,1,1.77.43A2.89,2.89,0,0,1,260,57.48a3.73,3.73,0,0,1,.4,1.77A3.59,3.59,0,0,1,260,61a3.14,3.14,0,0,1-1.25,1.2A4,4,0,0,1,256.8,62.67Z"/><path class="cls-8" d="M233.34,76.35a2.08,2.08,0,0,1-1.73-.81,5,5,0,0,1,0-4.92,2.26,2.26,0,0,1,3.45,0,5.12,5.12,0,0,1,0,4.92A2.06,2.06,0,0,1,233.34,76.35Zm0-.87a1,1,0,0,0,.94-.57,4.15,4.15,0,0,0,.3-1.83,4.08,4.08,0,0,0-.3-1.81,1.05,1.05,0,0,0-1.88,0,3.92,3.92,0,0,0-.31,1.81,4,4,0,0,0,.31,1.83A1,1,0,0,0,233.34,75.48Zm-.2,5.08,6.18-10.67h1.16l-6.17,10.67Zm7.14.06a2.08,2.08,0,0,1-1.73-.81,3.89,3.89,0,0,1-.64-2.46,3.84,3.84,0,0,1,.64-2.45,2.27,2.27,0,0,1,3.46,0,3.91,3.91,0,0,1,.63,2.45,4,4,0,0,1-.63,2.46A2.08,2.08,0,0,1,240.28,80.62Zm0-.86a1,1,0,0,0,.94-.57,4.17,4.17,0,0,0,.31-1.84,4.05,4.05,0,0,0-.31-1.81,1.06,1.06,0,0,0-1.88,0,4.08,4.08,0,0,0-.3,1.81,4.2,4.2,0,0,0,.3,1.84A1,1,0,0,0,240.28,79.76Z"/><path class="cls-8" d="M247.8,80.67a5.57,5.57,0,0,1-1.92-.35,4.68,4.68,0,0,1-1.59-1l.46-.95a5.85,5.85,0,0,0,1.49.92,4.07,4.07,0,0,0,1.56.32,2.41,2.41,0,0,0,1.76-.64,2.38,2.38,0,0,0,.64-1.73,2.58,2.58,0,0,0-.29-1.24,2.15,2.15,0,0,0-.8-.84,2.4,2.4,0,0,0-1.22-.29,3.11,3.11,0,0,0-1.38.3,3.15,3.15,0,0,0-1.07.94h-.85V69.89H251v1h-5.17v4.33l-.39,0a3,3,0,0,1,1.12-1,3.74,3.74,0,0,1,3.3.09A2.89,2.89,0,0,1,251,75.48a3.73,3.73,0,0,1,.4,1.77A3.59,3.59,0,0,1,251,79a3.14,3.14,0,0,1-1.25,1.2A4,4,0,0,1,247.8,80.67Z"/><path class="cls-8" d="M256.63,80.69a3.16,3.16,0,0,1-2.78-1.39,7.16,7.16,0,0,1-.95-4.07,7.28,7.28,0,0,1,.94-4.08,3.51,3.51,0,0,1,5.58,0,7.23,7.23,0,0,1,.95,4.06,7.19,7.19,0,0,1-1,4.08A3.15,3.15,0,0,1,256.63,80.69Zm0-1a2,2,0,0,0,1.88-1.08,7,7,0,0,0,.61-3.36,6.93,6.93,0,0,0-.61-3.34,2.19,2.19,0,0,0-3.76,0,6.91,6.91,0,0,0-.61,3.33,7,7,0,0,0,.61,3.36A2,2,0,0,0,256.63,79.65Z"/><path class="cls-8" d="M233.34,94.35a2.08,2.08,0,0,1-1.73-.81,5,5,0,0,1,0-4.92,2.26,2.26,0,0,1,3.45,0,5.12,5.12,0,0,1,0,4.92A2.06,2.06,0,0,1,233.34,94.35Zm0-.87a1,1,0,0,0,.94-.57,4.15,4.15,0,0,0,.3-1.83,4.08,4.08,0,0,0-.3-1.81,1.05,1.05,0,0,0-1.88,0,3.92,3.92,0,0,0-.31,1.81,4,4,0,0,0,.31,1.83A1,1,0,0,0,233.34,93.48Zm-.2,5.08,6.18-10.67h1.16l-6.17,10.67Zm7.14.06a2.08,2.08,0,0,1-1.73-.81,3.89,3.89,0,0,1-.64-2.46,3.84,3.84,0,0,1,.64-2.45,2.27,2.27,0,0,1,3.46,0,3.91,3.91,0,0,1,.63,2.45,4,4,0,0,1-.63,2.46A2.08,2.08,0,0,1,240.28,98.62Zm0-.86a1,1,0,0,0,.94-.57,4.17,4.17,0,0,0,.31-1.84,4.05,4.05,0,0,0-.31-1.81,1.06,1.06,0,0,0-1.88,0,4.08,4.08,0,0,0-.3,1.81,4.2,4.2,0,0,0,.3,1.84A1,1,0,0,0,240.28,97.76Z"/><path class="cls-8" d="M246.15,98.56h-1.32l5.23-10.13.11.49h-6.06v-1h7v.91Z"/><path class="cls-8" d="M256.8,98.67a5.57,5.57,0,0,1-1.92-.35,4.68,4.68,0,0,1-1.59-1l.46-.95a5.85,5.85,0,0,0,1.49.92,4.07,4.07,0,0,0,1.56.32,2.41,2.41,0,0,0,1.76-.64,2.38,2.38,0,0,0,.64-1.73,2.58,2.58,0,0,0-.29-1.24,2.15,2.15,0,0,0-.8-.84,2.4,2.4,0,0,0-1.22-.29,3.11,3.11,0,0,0-1.38.3,3.15,3.15,0,0,0-1.07.94h-.85V87.89H260v1h-5.17v4.33l-.39,0a3.08,3.08,0,0,1,1.11-1,3.52,3.52,0,0,1,1.54-.34,3.46,3.46,0,0,1,1.77.43A2.89,2.89,0,0,1,260,93.48a3.73,3.73,0,0,1,.4,1.77A3.59,3.59,0,0,1,260,97a3.14,3.14,0,0,1-1.25,1.2A4,4,0,0,1,256.8,98.67Z"/><path class="cls-8" d="M233.34,112.35a2.08,2.08,0,0,1-1.73-.81,5,5,0,0,1,0-4.92,2.26,2.26,0,0,1,3.45,0,5.12,5.12,0,0,1,0,4.92A2.06,2.06,0,0,1,233.34,112.35Zm0-.87a1,1,0,0,0,.94-.57,4.15,4.15,0,0,0,.3-1.83,4.08,4.08,0,0,0-.3-1.81,1.05,1.05,0,0,0-1.88,0,3.92,3.92,0,0,0-.31,1.81,4,4,0,0,0,.31,1.83A1,1,0,0,0,233.34,111.48Zm-.2,5.08,6.18-10.67h1.16l-6.17,10.67Zm7.14.06a2.08,2.08,0,0,1-1.73-.81,3.89,3.89,0,0,1-.64-2.46,3.84,3.84,0,0,1,.64-2.45,2.27,2.27,0,0,1,3.46,0,3.91,3.91,0,0,1,.63,2.45,4,4,0,0,1-.63,2.46A2.08,2.08,0,0,1,240.28,116.62Zm0-.86a1,1,0,0,0,.94-.57,4.17,4.17,0,0,0,.31-1.84,4.05,4.05,0,0,0-.31-1.81,1.06,1.06,0,0,0-1.88,0,4.08,4.08,0,0,0-.3,1.81,4.2,4.2,0,0,0,.3,1.84A1,1,0,0,0,240.28,115.76Z"/><path class="cls-8" d="M245.05,116.56v-1h6v1Zm2.36-.55V106.6l.7.37-2.89,1.84v-1.19l2.73-1.73h.7V116Z"/><path class="cls-8" d="M256.63,116.69a3.16,3.16,0,0,1-2.78-1.39,7.16,7.16,0,0,1-.95-4.07,7.28,7.28,0,0,1,.94-4.08,3.51,3.51,0,0,1,5.58,0,9.15,9.15,0,0,1,0,8.14A3.15,3.15,0,0,1,256.63,116.69Zm0-1a2,2,0,0,0,1.88-1.08,7,7,0,0,0,.61-3.36,6.93,6.93,0,0,0-.61-3.34,2.19,2.19,0,0,0-3.76,0,6.91,6.91,0,0,0-.61,3.33,7,7,0,0,0,.61,3.36A2,2,0,0,0,256.63,115.65Z"/><path class="cls-8" d="M265.63,116.69a3.16,3.16,0,0,1-2.78-1.39,7.16,7.16,0,0,1-1-4.07,7.28,7.28,0,0,1,.94-4.08,3.51,3.51,0,0,1,5.58,0,9.15,9.15,0,0,1,0,8.14A3.15,3.15,0,0,1,265.63,116.69Zm0-1a2,2,0,0,0,1.88-1.08,7,7,0,0,0,.61-3.36,6.93,6.93,0,0,0-.61-3.34,2.19,2.19,0,0,0-3.76,0,6.91,6.91,0,0,0-.61,3.33,7,7,0,0,0,.61,3.36A2,2,0,0,0,265.63,115.65Z"/></g><polygon class="cls-8" points="266.74 44.38 271.72 35.75 261.76 35.75 266.74 44.38"/></g></g></svg>