<svg xmlns="http://www.w3.org/2000/svg" viewBox="0 0 595.28 138.84"><defs><style>.cls-1{fill:none;}.cls-2{fill:#afa7d1;}.cls-3{isolation:isolate;}.cls-4{fill:#010101;}.cls-5{fill:#483d86;}.cls-6{fill:#5c4da0;}.cls-7{fill:#8d82bd;}.cls-8{opacity:0.6;}.cls-9{fill:#fff;}</style></defs><g id="Layer_2" data-name="Layer 2"><g id="Layer_1-2" data-name="Layer 1"><rect class="cls-1" width="595.28" height="18"/><rect class="cls-2" x="124.28" y="30.69" width="35.34" height="108.15" rx="5.67"/><g class="cls-3"><path class="cls-4" d="M130.61,43.56v-1h5.95v1ZM133,43v-9.4l.71.36-2.9,1.84V34.62l2.73-1.73h.71V43Z"/><path class="cls-4" d="M129.93,61.56v-.92l3.74-4.15A7.17,7.17,0,0,0,134.76,55a3,3,0,0,0,.35-1.35,1.77,1.77,0,0,0-.51-1.36,2.1,2.1,0,0,0-1.46-.47,3.91,3.91,0,0,0-1.53.31,5.79,5.79,0,0,0-1.5.92l-.46-1a4.79,4.79,0,0,1,1.59-1,5.66,5.66,0,0,1,1.93-.35,4,4,0,0,1,1.69.33,2.54,2.54,0,0,1,1.1,1,2.79,2.79,0,0,1,.39,1.5,4,4,0,0,1-.41,1.76,8.12,8.12,0,0,1-1.37,1.9l-3.6,3.9-.09-.6h5.92v1Z"/><path class="cls-4" d="M129.65,78h1.54v1.54h-1.54Z"/><path class="cls-4" d="M129.65,96h1.54v1.54h-1.54Z"/><path class="cls-4" d="M130.23,115.56H129l4.69-10.67h1.08l4.7,10.67h-1.26L134,105.78h.45Zm.72-2.74.44-1H137l.43,1Z"/><path class="cls-4" d="M145.35,115.56v-9.13h.38l-4.44,6.4v-.61h6.9v1h-7.77v-.93l5.15-7.42h1v10.67Z"/><path class="cls-4" d="M130.23,133.56H129l4.69-10.67h1.08l4.7,10.67h-1.26L134,123.78h.45Zm.72-2.74.44-1H137l.43,1Z"/><path class="cls-4" d="M144.36,133.67a5.57,5.57,0,0,1-1.92-.35,4.68,4.68,0,0,1-1.59-1l.47-.95a5.68,5.68,0,0,0,1.49.92,4,4,0,0,0,1.55.32,2.43,2.43,0,0,0,1.77-.64,2.37,2.37,0,0,0,.63-1.73,2.58,2.58,0,0,0-.28-1.24,2.11,2.11,0,0,0-.81-.84,2.37,2.37,0,0,0-1.22-.29,2.83,2.83,0,0,0-2.44,1.24h-.86v-6.25h6.41v1h-5.18v4.33l-.39,0a3,3,0,0,1,1.12-1,3.76,3.76,0,0,1,3.31.09,2.87,2.87,0,0,1,1.15,1.19,3.73,3.73,0,0,1,.41,1.77,3.49,3.49,0,0,1-.45,1.78,3.08,3.08,0,0,1-1.25,1.2A4,4,0,0,1,144.36,133.67Z"/></g><polygon class="cls-4" points="151.57 43.38 156.55 34.75 146.59 34.75 151.57 43.38"/><rect class="cls-2" x="202.07" y="30.69" width="63.37" height="33.74" rx="5.67"/><g class="cls-3"><path class="cls-4" d="M207.79,43.57V32.89H209V43.57Zm.57-4.91v-1h7.74v1Zm7,4.91V32.89h1.23V43.57Z"/><path class="cls-4" d="M219.28,43.57V32.89h1.23V43.57Z"/><path class="cls-4" d="M227.87,43.69a5.44,5.44,0,0,1-2.75-.66,4.28,4.28,0,0,1-1.75-1.87,6.52,6.52,0,0,1-.61-2.95,6.44,6.44,0,0,1,.61-2.93,4.21,4.21,0,0,1,1.74-1.87,5.28,5.28,0,0,1,2.67-.64,6.12,6.12,0,0,1,2.05.33,4.51,4.51,0,0,1,1.63,1l-.48.94a5.37,5.37,0,0,0-1.53-1,4.47,4.47,0,0,0-1.67-.29A3.44,3.44,0,0,0,225,35a4.9,4.9,0,0,0-1,3.26,4.9,4.9,0,0,0,1,3.31,3.63,3.63,0,0,0,2.88,1.13,8.62,8.62,0,0,0,1.53-.14,7.86,7.86,0,0,0,1.34-.38l-.3.63V39h-2.66V38h3.78v5a5,5,0,0,1-1,.39,9.8,9.8,0,0,1-1.31.26A10.81,10.81,0,0,1,227.87,43.69Z"/><path class="cls-4" d="M234.11,43.57V32.89h1.22V43.57Zm.57-4.91v-1h7.74v1Zm7,4.91V32.89H243V43.57Z"/><path class="cls-4" d="M207.79,61.57V50.89H209v9.63h5.35v1Z"/><path class="cls-4" d="M219.88,61.69a4.91,4.91,0,0,1-2.59-.66,4.43,4.43,0,0,1-1.68-1.89,6.71,6.71,0,0,1-.59-2.91,6.56,6.56,0,0,1,.59-2.92,4.2,4.2,0,0,1,1.67-1.88,5.43,5.43,0,0,1,5.19,0,4.28,4.28,0,0,1,1.68,1.88,6.5,6.5,0,0,1,.59,2.9,6.78,6.78,0,0,1-.59,2.93A4.43,4.43,0,0,1,222.47,61,4.91,4.91,0,0,1,219.88,61.69Zm0-1a3.25,3.25,0,0,0,2.64-1.15,5,5,0,0,0,.94-3.28,5,5,0,0,0-.94-3.26,3.23,3.23,0,0,0-2.64-1.13A3.27,3.27,0,0,0,217.23,53a5,5,0,0,0-.95,3.25,5,5,0,0,0,.95,3.27A3.26,3.26,0,0,0,219.88,60.64Z"/><path class="cls-4" d="M229.66,61.57l-3.75-10.68h1.26l3.27,9.63H230l3.34-9.63h.95l3.28,9.62h-.46l3.3-9.63h1.21l-3.73,10.68h-1l-3.21-9.21h.33l-3.23,9.21Z"/></g><polygon class="cls-4" points="256.52 43.38 261.5 34.75 251.54 34.75 256.52 43.38"/><path class="cls-5" d="M1,9A8,8,0,0,1,9,1h7l6,4h3l6-4H197.07V6c0,10-8-8-8,7.5s8-2.5,8,7.5v5H30.5l-6,4h-3l-6-4H9a8,8,0,0,1-8-8Z"/><path class="cls-6" d="M0,8A8,8,0,0,1,8,0h7l6,4h3l6-4H196.07V5c0,10-8-8-8,7.5s8-2.5,8,7.5v5H29.5l-6,4h-3l-6-4H8a8,8,0,0,1-8-8Z"/><path class="cls-7" d="M2.34,22.66A8,8,0,0,1,0,17V8H1v9A7,7,0,0,0,3.05,22Zm189-2.93-.49-.86,3.68-2.1.49.86ZM1,7.53,0,7.47A8,8,0,0,1,8,0h7.17l6,4h2.7l6-4H195.57V1H30.15l-6,4h-3.3l-6-4H8A7,7,0,0,0,1,7.53Z"/><path class="cls-5" d="M198.07,1H271.5V26H198.07V21c0-10-8,8-8-7.5s8,2.5,8-7.5Z"/><path class="cls-6" d="M197.07,0H270.5V25H197.07V20c0-10-8,8-8-7.5s8,2.5,8-7.5Z"/><path class="cls-7" d="M198.07,24.5h-1v-6h1Zm-8.35-6.37a20.9,20.9,0,0,1,0-11.26l1,.26a19.79,19.79,0,0,0,0,10.74ZM198.07,8h-1V0H270V1H198.07Z"/><g class="cls-8"><rect class="cls-9" x="202.07" y="5" width="63.43" height="16" rx="4"/></g><g class="cls-3"><path class="cls-4" d="M208.39,17.5V6.82h1.21V17.5Zm.57-4.91v-1h7.74v1Zm7,4.91V6.82h1.23V17.5Z"/><path class="cls-4" d="M219.88,17.5V6.82h1.23V17.5Z"/><path class="cls-4" d="M228.47,17.62a5.51,5.51,0,0,1-2.75-.65A4.33,4.33,0,0,1,224,15.09a6.63,6.63,0,0,1-.6-2.95,6.6,6.6,0,0,1,.6-2.93,4.38,4.38,0,0,1,1.74-1.87,5.34,5.34,0,0,1,2.68-.64,5.92,5.92,0,0,1,2.05.34,4.43,4.43,0,0,1,1.63,1l-.48.94a5.61,5.61,0,0,0-1.53-1,4.68,4.68,0,0,0-1.67-.29,3.46,3.46,0,0,0-2.78,1.13,4.88,4.88,0,0,0-1,3.26,4.88,4.88,0,0,0,1,3.31,3.6,3.6,0,0,0,2.88,1.13,7.61,7.61,0,0,0,1.52-.14,7,7,0,0,0,1.35-.38l-.3.63V12.91h-2.66v-1h3.78v4.95a4.84,4.84,0,0,1-1,.39,9.64,9.64,0,0,1-1.3.26A10.93,10.93,0,0,1,228.47,17.62Z"/><path class="cls-4" d="M234.71,17.5V6.82h1.22V17.5Zm.57-4.91v-1H243v1Zm7.05,4.91V6.82h1.23V17.5Z"/></g><g class="cls-3"><path class="cls-9" d="M13.72,17.61a4.38,4.38,0,0,1-3-1l.4-.9a4.11,4.11,0,0,0,1.24.68,4.23,4.23,0,0,0,1.42.22,2.37,2.37,0,0,0,1.29-.29,1,1,0,0,0,.44-.85.91.91,0,0,0-.29-.71,2.41,2.41,0,0,0-1-.43l-1.27-.3a2.78,2.78,0,0,1-1.46-.75A1.78,1.78,0,0,1,11,12a1.93,1.93,0,0,1,.36-1.16,2.37,2.37,0,0,1,1-.79,3.7,3.7,0,0,1,1.53-.29,4.46,4.46,0,0,1,1.5.26,3.23,3.23,0,0,1,1.18.73l-.41.89A3.87,3.87,0,0,0,15,11a3.29,3.29,0,0,0-1.17-.22,2.17,2.17,0,0,0-1.26.32,1,1,0,0,0-.44.85,1,1,0,0,0,.28.74,1.89,1.89,0,0,0,.89.42l1.28.31a2.93,2.93,0,0,1,1.56.75,1.77,1.77,0,0,1,.5,1.31A1.84,1.84,0,0,1,15.88,17,3.57,3.57,0,0,1,13.72,17.61Z"/><path class="cls-9" d="M24.79,16.6a3.48,3.48,0,0,1-1.27.73,4.74,4.74,0,0,1-1.58.28,4.16,4.16,0,0,1-2-.47,3.17,3.17,0,0,1-1.3-1.34,4.46,4.46,0,0,1-.46-2.1,4.45,4.45,0,0,1,.45-2,3.41,3.41,0,0,1,1.25-1.38,3.46,3.46,0,0,1,1.85-.5,3.21,3.21,0,0,1,1.73.45,2.82,2.82,0,0,1,1.1,1.26,4.6,4.6,0,0,1,.38,2v.23H19.23v-.8h5l-.39.56a3.19,3.19,0,0,0-.51-2,1.91,1.91,0,0,0-1.6-.7,2.11,2.11,0,0,0-1.72.77,3.36,3.36,0,0,0-.62,2.14A3.32,3.32,0,0,0,20,15.85,2.41,2.41,0,0,0,22,16.6a3.56,3.56,0,0,0,1.26-.22,3.8,3.8,0,0,0,1.16-.67Z"/><path class="cls-9" d="M25.66,10.91V10H30.5v1Zm4.81,5.51v1a4.54,4.54,0,0,1-.5.12,4.43,4.43,0,0,1-.55,0A2.32,2.32,0,0,1,27.75,17a2.39,2.39,0,0,1-.62-1.8V8l1.21-.44V15a2,2,0,0,0,.18.93,1,1,0,0,0,.47.46,1.78,1.78,0,0,0,.67.12,2.54,2.54,0,0,0,.41,0A2.59,2.59,0,0,0,30.47,16.42Z"/><path class="cls-9" d="M42.53,17.5h-1.2v-2l.18.17a2.5,2.5,0,0,1-1,1.45,2.91,2.91,0,0,1-1.76.52A3.16,3.16,0,0,1,37,17.12a3.26,3.26,0,0,1-1.18-1.38,4.86,4.86,0,0,1-.42-2.08,4.81,4.81,0,0,1,.41-2.05A3.19,3.19,0,0,1,37,10.25a3.31,3.31,0,0,1,1.76-.48,3,3,0,0,1,1.76.52,2.56,2.56,0,0,1,1,1.45l-.19.15V6.46h1.21ZM39,16.6a2.07,2.07,0,0,0,1.71-.76,3.38,3.38,0,0,0,.6-2.15,3.38,3.38,0,0,0-.6-2.14A2.07,2.07,0,0,0,39,10.79a2.13,2.13,0,0,0-1.73.75,3.27,3.27,0,0,0-.62,2.12,3.42,3.42,0,0,0,.62,2.17A2.12,2.12,0,0,0,39,16.6Z"/><path class="cls-9" d="M44.77,6.76h1.48V8.14H44.77Zm.12,10.74V10H46.1V17.5Z"/><path class="cls-9" d="M51.77,20.84a5.53,5.53,0,0,1-3-.78l.21-1a6.1,6.1,0,0,0,1.34.59,5.15,5.15,0,0,0,1.42.18,2.2,2.2,0,0,0,1.65-.58A2.39,2.39,0,0,0,54,17.54v-2l.16-.19a2.68,2.68,0,0,1-.56,1,2.48,2.48,0,0,1-.94.68,3.15,3.15,0,0,1-1.26.24,3.15,3.15,0,0,1-2.94-1.78,4.24,4.24,0,0,1-.43-2,4.19,4.19,0,0,1,.43-2,3.18,3.18,0,0,1,2.94-1.79,3,3,0,0,1,1.78.52,2.53,2.53,0,0,1,1,1.45L54,11.57V10h1.22v7.49A3.46,3.46,0,0,1,54.32,20,3.49,3.49,0,0,1,51.77,20.84Zm-.15-4.59a2.15,2.15,0,0,0,1.72-.72,3,3,0,0,0,.62-2,3,3,0,0,0-.62-2,2.16,2.16,0,0,0-1.72-.73,2.2,2.2,0,0,0-1.74.73,2.91,2.91,0,0,0-.64,2,2.91,2.91,0,0,0,.64,2A2.19,2.19,0,0,0,51.62,16.25Z"/><path class="cls-9" d="M57.4,6.76h1.48V8.14H57.4Zm.12,10.74V10h1.21V17.5Z"/><path class="cls-9" d="M60,10.91V10h4.85v1Zm4.82,5.51v1l-.5.12a4.58,4.58,0,0,1-.55,0A2.3,2.3,0,0,1,62.12,17a2.36,2.36,0,0,1-.63-1.8V8l1.22-.44V15a2.11,2.11,0,0,0,.17.93,1,1,0,0,0,.47.46,1.83,1.83,0,0,0,.68.12,2.41,2.41,0,0,0,.4,0A2.69,2.69,0,0,0,64.84,16.42Z"/><path class="cls-9" d="M66.22,6.76H67.7V8.14H66.22Zm.12,10.74V10h1.21V17.5Z"/><path class="cls-9" d="M72.8,17.61A3.23,3.23,0,0,1,71,17.13a3.11,3.11,0,0,1-1.17-1.35,4.85,4.85,0,0,1-.41-2.06,4.78,4.78,0,0,1,.42-2.07,3.26,3.26,0,0,1,1.18-1.38,3.09,3.09,0,0,1,1.74-.5,3,3,0,0,1,1.76.51,2.52,2.52,0,0,1,1,1.46l-.18.12V10h1.2V17.5h-1.2V15.55l.18.09a2.5,2.5,0,0,1-1,1.45A2.91,2.91,0,0,1,72.8,17.61Zm.24-1a2,2,0,0,0,1.71-.76,3.38,3.38,0,0,0,.6-2.15,3.38,3.38,0,0,0-.6-2.15,2.32,2.32,0,0,0-3.44,0,3.36,3.36,0,0,0-.62,2.15,3.28,3.28,0,0,0,.62,2.13A2.13,2.13,0,0,0,73,16.6Z"/><path class="cls-9" d="M78.91,17.5v-11h1.21v11Z"/><path class="cls-9" d="M86.39,20.74V12.07c0-.35,0-.7,0-1.06a9.5,9.5,0,0,0-.1-1.06h1.16l.13,1.56-.12.23a2.54,2.54,0,0,1,1-1.46,2.93,2.93,0,0,1,1.74-.51,3.15,3.15,0,0,1,1.75.5,3.33,3.33,0,0,1,1.18,1.38,4.64,4.64,0,0,1,.43,2.07,4.57,4.57,0,0,1-.43,2.06,3.13,3.13,0,0,1-1.18,1.35,3.17,3.17,0,0,1-1.75.48,2.87,2.87,0,0,1-1.74-.52,2.51,2.51,0,0,1-1-1.45l.17-.15v5.25Zm3.54-4.14a2.09,2.09,0,0,0,1.71-.75,3.28,3.28,0,0,0,.62-2.13,3.36,3.36,0,0,0-.62-2.15,2.3,2.3,0,0,0-3.43,0,3.38,3.38,0,0,0-.6,2.15,3.38,3.38,0,0,0,.6,2.15A2,2,0,0,0,89.93,16.6Z"/><path class="cls-9" d="M95.27,6.76h1.49V8.14H95.27Zm.12,10.74V10h1.22V17.5Z"/><path class="cls-9" d="M99,17.5V12.07c0-.35,0-.7,0-1.06a9.5,9.5,0,0,0-.1-1.06H100l.13,1.56-.15.12a2.55,2.55,0,0,1,1-1.38,3,3,0,0,1,1.7-.48c1.81,0,2.71,1,2.71,3V17.5h-1.21V12.82a2.34,2.34,0,0,0-.42-1.54,1.67,1.67,0,0,0-1.32-.49,2.24,2.24,0,0,0-1.68.65,2.38,2.38,0,0,0-.63,1.74V17.5Z"/><path class="cls-9" d="M111,14.74v-.88h7.74v.88Zm.3-4.4V9.46h7.74v.88Zm.51,7.16L113.9,6.82h1L112.78,17.5Zm3.37,0,2.09-10.68h1L116.15,17.5Z"/></g><g class="cls-8"><rect class="cls-9" x="124.28" y="5" width="35.27" height="16" rx="4"/></g><g class="cls-3"><path class="cls-4" d="M133.78,17.62A3.15,3.15,0,0,1,131,16.23a7.22,7.22,0,0,1-.95-4.07A7.23,7.23,0,0,1,131,8.09a3.5,3.5,0,0,1,5.58,0,7.17,7.17,0,0,1,1,4.05,7.26,7.26,0,0,1-1,4.08A3.18,3.18,0,0,1,133.78,17.62Zm0-1a2,2,0,0,0,1.89-1.08,7.19,7.19,0,0,0,.6-3.36,7,7,0,0,0-.6-3.33,2.21,2.21,0,0,0-3.77,0,7,7,0,0,0-.61,3.33,7.17,7.17,0,0,0,.61,3.36A2,2,0,0,0,133.78,16.58Z"/></g><g class="cls-3"><path class="cls-9" d="M164.65,10.91V10h4.85v1Zm4.82,5.51v1l-.5.12a4.58,4.58,0,0,1-.55,0,2.3,2.3,0,0,1-1.67-.61,2.36,2.36,0,0,1-.62-1.8V8l1.21-.44V15a2.11,2.11,0,0,0,.17.93,1,1,0,0,0,.47.46,1.83,1.83,0,0,0,.68.12,2.63,2.63,0,0,0,.41,0A2.9,2.9,0,0,0,169.47,16.42Z"/><path class="cls-9" d="M174.09,17.61a3.58,3.58,0,0,1-1.88-.49A3.26,3.26,0,0,1,171,15.77a4.65,4.65,0,0,1-.44-2.08,4.64,4.64,0,0,1,.44-2.07,3.26,3.26,0,0,1,1.25-1.37,3.92,3.92,0,0,1,3.76,0,3.26,3.26,0,0,1,1.25,1.37,4.64,4.64,0,0,1,.44,2.07,4.65,4.65,0,0,1-.44,2.08A3.26,3.26,0,0,1,176,17.12,3.58,3.58,0,0,1,174.09,17.61Zm0-1a2.12,2.12,0,0,0,1.72-.74,3.4,3.4,0,0,0,.61-2.17,3.32,3.32,0,0,0-.62-2.15,2.09,2.09,0,0,0-1.71-.75,2.12,2.12,0,0,0-1.72.75,3.32,3.32,0,0,0-.62,2.15,3.34,3.34,0,0,0,.61,2.17A2.11,2.11,0,0,0,174.09,16.6Z"/></g><polygon class="cls-4" points="257.52 17.31 262.5 8.69 252.54 8.69 257.52 17.31"/><polygon class="cls-4" points="151.57 17.31 156.55 8.69 146.59 8.69 151.57 17.31"/></g></g></svg>