<svg xmlns="http://www.w3.org/2000/svg" viewBox="0 0 595.28 60.69"><defs><style>.cls-1{fill:#5c4da0;}.cls-2{fill:#ededee;}.cls-3{fill:#231f20;}.cls-4{fill:#dbd9dc;}.cls-5{fill:#c9c6ca;}.cls-6{fill:#a2d9d6;}.cls-7{fill:#fff;}</style></defs><g id="Layer_2" data-name="Layer 2"><g id="Layer_1-2" data-name="Layer 1"><rect class="cls-1" y="4" width="595.28" height="56.69" rx="11.34"/><rect class="cls-2" width="595.28" height="56.69" rx="11.34"/><path class="cls-3" d="M85.23,38.84V13.21h4.64V38.84Z"/><path class="cls-3" d="M95.09,38.84v-13c0-.87,0-1.73,0-2.59s-.11-1.72-.23-2.56h4.24l.4,3.6-.4.11a6.57,6.57,0,0,1,2.58-3.12,7.37,7.37,0,0,1,3.94-1.06q6.48,0,6.48,7.49V38.84h-4.5v-11a4.8,4.8,0,0,0-.83-3.11,3.13,3.13,0,0,0-2.55-1,4.32,4.32,0,0,0-3.33,1.31,4.84,4.84,0,0,0-1.25,3.47v10.3Z"/><path class="cls-3" d="M116.77,46.62V25.81q0-1.26-.06-2.58a24.06,24.06,0,0,0-.23-2.57h4.25l.39,3.6-.25.22a5.42,5.42,0,0,1,2.27-3.15,7,7,0,0,1,4-1.14,7.37,7.37,0,0,1,4.2,1.21,8.26,8.26,0,0,1,2.86,3.35,11.25,11.25,0,0,1,1,5,11,11,0,0,1-1,4.95A8,8,0,0,1,131.35,38a7.81,7.81,0,0,1-4.22,1.13,7.11,7.11,0,0,1-4-1.1,5.3,5.3,0,0,1-2.27-3.11l.4-.58V46.62Zm9.21-11a4.18,4.18,0,0,0,3.46-1.53,6.84,6.84,0,0,0,1.22-4.34,7.22,7.22,0,0,0-1.22-4.47A4.14,4.14,0,0,0,126,23.72a4.22,4.22,0,0,0-3.51,1.53,7.09,7.09,0,0,0-1.2,4.45,7,7,0,0,0,1.2,4.39A4.2,4.2,0,0,0,126,35.64Z"/><path class="cls-3" d="M145.67,39.09a6.45,6.45,0,0,1-5-1.85c-1.11-1.24-1.67-3.1-1.67-5.6v-11h4.5v11a4.25,4.25,0,0,0,.83,2.91,3.12,3.12,0,0,0,2.48.94,4.07,4.07,0,0,0,3.17-1.3,4.9,4.9,0,0,0,1.19-3.45V20.66h4.53V38.84h-4.39V35.1l.47,0a6.23,6.23,0,0,1-2.38,3A6.68,6.68,0,0,1,145.67,39.09Z"/><path class="cls-3" d="M158.27,24V20.66h12.82V24ZM171.09,35.1v3.56a7,7,0,0,1-1.42.34,11.86,11.86,0,0,1-1.5.09,6.24,6.24,0,0,1-4.73-1.73,6.82,6.82,0,0,1-1.68-5V16.23l4.5-1.51V32.18a4,4,0,0,0,.4,1.93,2.3,2.3,0,0,0,1.06,1,3.78,3.78,0,0,0,1.5.28,5.29,5.29,0,0,0,.9-.07C170.4,35.26,170.73,35.19,171.09,35.1Z"/><path class="cls-3" d="M176.45,41h-3.78L182,11.73h3.85Z"/><path class="cls-3" d="M198.7,39.13a12.65,12.65,0,0,1-6.48-1.59A10.5,10.5,0,0,1,188,33a15.39,15.39,0,0,1-1.48-7A15.35,15.35,0,0,1,188,19a10.64,10.64,0,0,1,4.21-4.52,14.16,14.16,0,0,1,13,0A10.7,10.7,0,0,1,209.43,19a15.41,15.41,0,0,1,1.47,7,15.34,15.34,0,0,1-1.49,7,10.68,10.68,0,0,1-4.21,4.53A12.65,12.65,0,0,1,198.7,39.13Zm0-3.67A6.8,6.8,0,0,0,204.24,33q2-2.43,2-7c0-3.07-.67-5.41-2-7a7.56,7.56,0,0,0-11.05,0c-1.34,1.59-2,3.93-2,7s.67,5.42,2,7A6.78,6.78,0,0,0,198.7,35.46Z"/><path class="cls-3" d="M221.88,39.09a6.45,6.45,0,0,1-5-1.85c-1.11-1.24-1.67-3.1-1.67-5.6v-11h4.5v11a4.25,4.25,0,0,0,.83,2.91,3.12,3.12,0,0,0,2.48.94,4.07,4.07,0,0,0,3.17-1.3,4.9,4.9,0,0,0,1.19-3.45V20.66h4.53V38.84H227.5V35.1l.47,0a6.23,6.23,0,0,1-2.38,3A6.7,6.7,0,0,1,221.88,39.09Z"/><path class="cls-3" d="M234.48,24V20.66H247.3V24ZM247.3,35.1v3.56a6.81,6.81,0,0,1-1.42.34,11.86,11.86,0,0,1-1.5.09,6.25,6.25,0,0,1-4.73-1.73,6.81,6.81,0,0,1-1.67-5V16.23l4.5-1.51V32.18a4,4,0,0,0,.39,1.93,2.35,2.35,0,0,0,1.06,1,3.78,3.78,0,0,0,1.5.28,5.29,5.29,0,0,0,.9-.07C246.62,35.26,246.94,35.19,247.3,35.1Z"/><path class="cls-3" d="M250.36,46.62V25.81c0-.84,0-1.7-.05-2.58s-.12-1.73-.24-2.57h4.25l.39,3.6-.25.22a5.46,5.46,0,0,1,2.27-3.15,7,7,0,0,1,4-1.14,7.36,7.36,0,0,1,4.19,1.21,8.18,8.18,0,0,1,2.86,3.35,11.25,11.25,0,0,1,1.05,5,11,11,0,0,1-1.05,4.95,7.47,7.47,0,0,1-7,4.37,7.12,7.12,0,0,1-4-1.1,5.34,5.34,0,0,1-2.27-3.11l.4-.58V46.62Zm9.22-11A4.18,4.18,0,0,0,263,34.11a6.77,6.77,0,0,0,1.22-4.34A7.16,7.16,0,0,0,263,25.3a4.13,4.13,0,0,0-3.45-1.58,4.19,4.19,0,0,0-3.51,1.53,7,7,0,0,0-1.21,4.45,7,7,0,0,0,1.21,4.39A4.18,4.18,0,0,0,259.58,35.64Z"/><path class="cls-3" d="M279.27,39.09a6.46,6.46,0,0,1-5-1.85c-1.11-1.24-1.67-3.1-1.67-5.6v-11h4.5v11a4.3,4.3,0,0,0,.83,2.91,3.12,3.12,0,0,0,2.48.94,4.07,4.07,0,0,0,3.17-1.3,4.9,4.9,0,0,0,1.19-3.45V20.66h4.54V38.84h-4.4V35.1l.47,0a6.27,6.27,0,0,1-2.37,3A6.73,6.73,0,0,1,279.27,39.09Z"/><path class="cls-3" d="M291.87,24V20.66h12.81V24ZM304.68,35.1v3.56a6.81,6.81,0,0,1-1.42.34,11.81,11.81,0,0,1-1.49.09A6.28,6.28,0,0,1,297,37.36a6.86,6.86,0,0,1-1.67-5V16.23l4.5-1.51V32.18a4,4,0,0,0,.39,1.93,2.32,2.32,0,0,0,1.07,1,3.73,3.73,0,0,0,1.49.28,5.29,5.29,0,0,0,.9-.07C304,35.26,304.32,35.19,304.68,35.1Z"/><path class="cls-4" d="M23.63,40.11l-.94-.94,5.39-5.39A2.67,2.67,0,0,1,30,33h3.83v1.33H30a1.33,1.33,0,0,0-.94.39Z"/><path class="cls-4" d="M54.89,23.7H51.06V22.37h3.83a1.33,1.33,0,0,0,.94-.39l5.39-5.4.94.94-5.39,5.4A2.71,2.71,0,0,1,54.89,23.7Z"/><path class="cls-4" d="M37.78,19.71H36.45V15.88a1.35,1.35,0,0,0-.39-.94l-5.4-5.39.94-.94L37,14a2.64,2.64,0,0,1,.78,1.87Z"/><path class="cls-4" d="M53.25,48.08l-5.4-5.39a2.66,2.66,0,0,1-.77-1.88V37H48.4v3.83a1.33,1.33,0,0,0,.39.94l5.4,5.39Z"/><rect class="cls-5" x="47.08" y="10.41" width="1.33" height="9.3"/><rect class="cls-5" x="36.45" y="36.98" width="1.33" height="9.3"/><rect class="cls-5" x="24.49" y="22.37" width="9.3" height="1.33"/><rect class="cls-5" x="51.06" y="33" width="9.3" height="1.33"/><path class="cls-4" d="M44.42,41.63V15.06a.67.67,0,0,1,.66-.67h0a.67.67,0,0,1,.67.67V41.63a.67.67,0,0,1-.67.67h0A.67.67,0,0,1,44.42,41.63Z"/><path class="cls-4" d="M39.1,41.63V15.06a.67.67,0,0,1,.67-.67h0a.66.66,0,0,1,.66.67V41.63a.66.66,0,0,1-.66.67h0A.67.67,0,0,1,39.1,41.63Z"/><path class="cls-5" d="M41.76,48.94V7.75a.67.67,0,0,1,1.33,0V48.94a.67.67,0,1,1-1.33,0Z"/><path class="cls-4" d="M55.71,26.35H29.14a.66.66,0,0,1-.67-.66h0a.67.67,0,0,1,.67-.67H55.71a.67.67,0,0,1,.67.67h0A.66.66,0,0,1,55.71,26.35Z"/><path class="cls-4" d="M55.71,31.67H29.14a.67.67,0,0,1-.67-.67h0a.67.67,0,0,1,.67-.66H55.71a.67.67,0,0,1,.67.66h0A.67.67,0,0,1,55.71,31.67Z"/><path class="cls-5" d="M63,29H21.83a.67.67,0,0,1,0-1.33H63A.67.67,0,1,1,63,29Z"/><path class="cls-1" d="M49.73,38.31H35.12a2.66,2.66,0,0,1-2.66-2.66V21a2.66,2.66,0,0,1,2.66-2.66H49.73A2.66,2.66,0,0,1,52.39,21V35.65A2.66,2.66,0,0,1,49.73,38.31Z"/><path class="cls-6" d="M49.73,37H35.12a1.32,1.32,0,0,1-1.33-1.33V21a1.32,1.32,0,0,1,1.33-1.33H49.73A1.32,1.32,0,0,1,51.06,21V35.65A1.32,1.32,0,0,1,49.73,37Z"/><path class="cls-7" d="M49.07,26.69a3,3,0,0,0-2.3-2.84,2.63,2.63,0,0,0,.06-.49A2.44,2.44,0,0,0,44.29,21a2.6,2.6,0,0,0-1.86.76A2.63,2.63,0,0,0,40.56,21,2.44,2.44,0,0,0,38,23.36a1.84,1.84,0,0,0,.06.47,3.06,3.06,0,0,0-2.3,2.86,2.77,2.77,0,0,0,.66,1.77,3.11,3.11,0,0,0-.66,1.88A3.25,3.25,0,0,0,37.28,33a2.79,2.79,0,0,0,2.9,2.63,3,3,0,0,0,2.25-1,3,3,0,0,0,2.24,1,2.8,2.8,0,0,0,2.88-2.46,2.93,2.93,0,0,0,1.52-2.52,2.82,2.82,0,0,0-.85-2A2.82,2.82,0,0,0,49.07,26.69Zm-2.26,2.58a1.6,1.6,0,0,1,.93,1.4,1.51,1.51,0,0,1-.5,1.1,2.84,2.84,0,0,0-1.63-1.29.66.66,0,1,0-.39,1.27,1.38,1.38,0,0,1,1,1.25,1.6,1.6,0,0,1-3.16,0V29a1.48,1.48,0,0,1,1.58-1.33.67.67,0,0,0,0-1.33,3.11,3.11,0,0,0-1.58.43v-.72a.67.67,0,0,0-1.33,0v3.38a3.65,3.65,0,0,0-.63-.29.67.67,0,0,0-.4,1.27,1.38,1.38,0,0,1,1,1.25V33a1.6,1.6,0,0,1-3.15,0,1.21,1.21,0,0,1,.37-.86A.66.66,0,0,0,38,31.2a2.94,2.94,0,0,0-.35.44,1.82,1.82,0,0,1-.58-1.3,2.09,2.09,0,0,1,1.73-1.93.65.65,0,0,0,.49-.79.66.66,0,0,0-.79-.5,3.71,3.71,0,0,0-1.12.45,1.47,1.47,0,0,1-.31-.88A1.83,1.83,0,0,1,39,25a.63.63,0,0,0,.4-.1.68.68,0,0,0,.23-.86.71.71,0,0,0-.1-.14.87.87,0,0,1-.21-.56,1.23,1.23,0,0,1,2.41,0,.67.67,0,1,0,1.33,0,1.23,1.23,0,0,1,2.41,0,.81.81,0,0,1-.09.37,3.84,3.84,0,0,0-1,.24.65.65,0,0,0-.35.87.67.67,0,0,0,.87.36,2.11,2.11,0,0,1,.86-.18,1.83,1.83,0,0,1,2,1.67,1.62,1.62,0,0,1-.93,1.4.67.67,0,0,0-.36.59A.68.68,0,0,0,46.81,29.27Z"/><circle class="cls-1" cx="24.49" cy="23.03" r="1.33"/><circle class="cls-1" cx="60.36" cy="33.66" r="1.33"/><circle class="cls-1" cx="23.16" cy="39.64" r="1.33"/><circle class="cls-1" cx="61.69" cy="17.05" r="1.33"/><circle class="cls-1" cx="47.74" cy="10.41" r="1.33"/><circle class="cls-1" cx="37.11" cy="46.28" r="1.33"/><circle class="cls-1" cx="31.13" cy="9.08" r="1.33"/><circle class="cls-1" cx="53.72" cy="47.61" r="1.33"/></g></g></svg>