<svg xmlns="http://www.w3.org/2000/svg" viewBox="0 0 595.39 84.78"><defs><style>.cls-1{fill:none;}.cls-2{fill:#afa7d1;}.cls-3{isolation:isolate;}.cls-4{fill:#010101;}.cls-5{fill:#483d86;}.cls-6{fill:#5c4da0;}.cls-7{fill:#8d82bd;}.cls-8{fill:#fff;}.cls-9{opacity:0.6;}</style></defs><g id="Layer_2" data-name="Layer 2"><g id="Layer_1-2" data-name="Layer 1"><rect class="cls-1" x="0.12" width="595.28" height="18"/><rect class="cls-2" x="102.25" y="31.69" width="45.49" height="53.09" rx="5.67"/><g class="cls-3"><path class="cls-4" d="M108,44.56V33.89h4.29a4,4,0,0,1,2.54.72,2.49,2.49,0,0,1,.91,2.07,2.39,2.39,0,0,1-.5,1.56,2.68,2.68,0,0,1-1.39.91V39A2.5,2.5,0,0,1,116,41.65a2.6,2.6,0,0,1-.93,2.16,4.1,4.1,0,0,1-2.63.75Zm1.22-5.94h2.88a2.89,2.89,0,0,0,1.82-.47,1.71,1.71,0,0,0,.61-1.42,1.63,1.63,0,0,0-.6-1.37,3,3,0,0,0-1.83-.46h-2.88Zm0,4.93h3.12a3,3,0,0,0,1.85-.47,1.73,1.73,0,0,0,.59-1.46,1.81,1.81,0,0,0-.6-1.47,2.85,2.85,0,0,0-1.84-.49h-3.12Z"/><path class="cls-4" d="M118.79,44.56v-1h5.95v1Zm2.35-.55V34.6l.71.37L119,36.81V35.62l2.73-1.73h.71V44Z"/><path class="cls-4" d="M108,62.56V51.89h4.29a4,4,0,0,1,2.54.72,2.49,2.49,0,0,1,.91,2.07,2.39,2.39,0,0,1-.5,1.56,2.68,2.68,0,0,1-1.39.91V57A2.5,2.5,0,0,1,116,59.65a2.6,2.6,0,0,1-.93,2.16,4.1,4.1,0,0,1-2.63.75Zm1.22-5.94h2.88a2.89,2.89,0,0,0,1.82-.47,1.71,1.71,0,0,0,.61-1.42,1.63,1.63,0,0,0-.6-1.37,3,3,0,0,0-1.83-.46h-2.88Zm0,4.93h3.12a3,3,0,0,0,1.85-.47,1.73,1.73,0,0,0,.59-1.46,1.81,1.81,0,0,0-.6-1.47,2.85,2.85,0,0,0-1.84-.49h-3.12Z"/><path class="cls-4" d="M118.11,62.56v-.92l3.74-4.15A7.17,7.17,0,0,0,122.94,56a3,3,0,0,0,.35-1.35,1.77,1.77,0,0,0-.51-1.36,2.1,2.1,0,0,0-1.46-.47,3.91,3.91,0,0,0-1.53.31,5.79,5.79,0,0,0-1.5.92l-.46-1a4.79,4.79,0,0,1,1.59-1,5.66,5.66,0,0,1,1.93-.35,4,4,0,0,1,1.69.33,2.54,2.54,0,0,1,1.1,1,2.79,2.79,0,0,1,.39,1.5,3.89,3.89,0,0,1-.41,1.76,8.12,8.12,0,0,1-1.37,1.9l-3.6,3.9-.09-.6H125v1Z"/><path class="cls-4" d="M108,80.56V69.89h4.29a4,4,0,0,1,2.54.72,2.49,2.49,0,0,1,.91,2.07,2.39,2.39,0,0,1-.5,1.56,2.68,2.68,0,0,1-1.39.91V75A2.5,2.5,0,0,1,116,77.65a2.6,2.6,0,0,1-.93,2.16,4.1,4.1,0,0,1-2.63.75Zm1.22-5.94h2.88a2.89,2.89,0,0,0,1.82-.47,1.71,1.71,0,0,0,.61-1.42,1.63,1.63,0,0,0-.6-1.37,3,3,0,0,0-1.83-.46h-2.88Zm0,4.93h3.12a3,3,0,0,0,1.85-.47,1.73,1.73,0,0,0,.59-1.46,1.81,1.81,0,0,0-.6-1.47,2.85,2.85,0,0,0-1.84-.49h-3.12Z"/><path class="cls-4" d="M121.26,80.67a5.51,5.51,0,0,1-2-.35,4.38,4.38,0,0,1-1.62-1l.48-.95a5.57,5.57,0,0,0,1.49.93,4.34,4.34,0,0,0,1.6.31,2.57,2.57,0,0,0,1.74-.52,1.89,1.89,0,0,0,.59-1.5,1.76,1.76,0,0,0-.62-1.47,2.89,2.89,0,0,0-1.84-.49h-1.23v-1h1a2.75,2.75,0,0,0,1.81-.52,1.84,1.84,0,0,0,.63-1.5,1.69,1.69,0,0,0-.51-1.33,2.14,2.14,0,0,0-1.47-.47,3.92,3.92,0,0,0-1.54.31,5.58,5.58,0,0,0-1.49.92l-.46-1a4.66,4.66,0,0,1,1.59-1,5.42,5.42,0,0,1,2-.35,4,4,0,0,1,1.68.33,2.53,2.53,0,0,1,1.1,1,2.64,2.64,0,0,1,.38,1.45A2.8,2.8,0,0,1,124,74.2a2.63,2.63,0,0,1-1.42,1l0-.15a2.84,2.84,0,0,1,1.65.91,2.7,2.7,0,0,1,.57,1.76,2.74,2.74,0,0,1-.94,2.2A3.87,3.87,0,0,1,121.26,80.67Z"/></g><polygon class="cls-4" points="138.52 44.38 143.5 35.75 133.54 35.75 138.52 44.38"/><path class="cls-5" d="M9.12,1H153.5V26H9.12V21c0-10-8,8-8-7.5s8,2.5,8-7.5Z"/><path class="cls-6" d="M8.12,0H152.5V25H8.12V20c0-10-8,8-8-7.5s8,2.5,8-7.5Z"/><path class="cls-7" d="M9.12,24.5h-1v-6h1ZM.77,18.13a20.9,20.9,0,0,1,0-11.26l1,.26a19.79,19.79,0,0,0,0,10.74ZM9.12,8h-1V0H152V1H9.12Z"/><g class="cls-3"><path class="cls-8" d="M19.29,17.5V12.07c0-.35,0-.7,0-1.06A9.47,9.47,0,0,0,19.17,10h1.15l.17,1.86-.17,0a2.32,2.32,0,0,1,.91-1.49,2.59,2.59,0,0,1,1.57-.51,2,2,0,0,1,.36,0,1.61,1.61,0,0,1,.33.06l0,1.11a2.75,2.75,0,0,0-.8-.12,2.06,2.06,0,0,0-1.25.35,1.92,1.92,0,0,0-.69.88,2.78,2.78,0,0,0-.22,1.11V17.5Z"/><path class="cls-8" d="M30.75,16.6a3.56,3.56,0,0,1-1.27.73,4.77,4.77,0,0,1-1.58.27,4.13,4.13,0,0,1-2-.46,3.19,3.19,0,0,1-1.31-1.34,4.58,4.58,0,0,1-.45-2.1,4.45,4.45,0,0,1,.45-2,3.34,3.34,0,0,1,1.25-1.38,3.44,3.44,0,0,1,1.85-.5,3.21,3.21,0,0,1,1.73.45,2.89,2.89,0,0,1,1.1,1.26,4.76,4.76,0,0,1,.38,2v.23h-5.7v-.8h5l-.39.56a3.13,3.13,0,0,0-.52-2,1.88,1.88,0,0,0-1.59-.7,2.1,2.1,0,0,0-1.72.77,3.31,3.31,0,0,0-.62,2.14A3.27,3.27,0,0,0,26,15.85a2.39,2.39,0,0,0,1.91.75,3.65,3.65,0,0,0,1.27-.22,3.92,3.92,0,0,0,1.16-.67Z"/><path class="cls-8" d="M35.62,17.6a3.2,3.2,0,0,1-1.76-.47,3,3,0,0,1-1.17-1.35,4.71,4.71,0,0,1-.41-2.06,4.78,4.78,0,0,1,.42-2.07,3.31,3.31,0,0,1,1.17-1.38,3.15,3.15,0,0,1,1.75-.5,3,3,0,0,1,1.76.51,2.52,2.52,0,0,1,1,1.46l-.18.12V10h1.2V17.5h-1.2V15.55l.18.09a2.5,2.5,0,0,1-1,1.45A2.91,2.91,0,0,1,35.62,17.6Zm.24-1a2,2,0,0,0,1.71-.76,3.38,3.38,0,0,0,.6-2.15,3.32,3.32,0,0,0-.61-2.15,2.06,2.06,0,0,0-1.7-.75,2.08,2.08,0,0,0-1.73.78,3.3,3.3,0,0,0-.62,2.15,3.22,3.22,0,0,0,.62,2.13A2.12,2.12,0,0,0,35.86,16.6Z"/><path class="cls-8" d="M48.37,17.5h-1.2v-2l.18.17a2.5,2.5,0,0,1-1,1.45,2.91,2.91,0,0,1-1.76.51,3.22,3.22,0,0,1-1.75-.48,3.31,3.31,0,0,1-1.17-1.38,4.86,4.86,0,0,1-.42-2.08,4.74,4.74,0,0,1,.41-2.06,3.09,3.09,0,0,1,1.17-1.35,3.29,3.29,0,0,1,1.76-.48,3,3,0,0,1,1.76.52,2.56,2.56,0,0,1,1,1.45l-.19.15V6.46h1.21Zm-3.51-.9a2,2,0,0,0,1.7-.76,3.32,3.32,0,0,0,.61-2.15,3.38,3.38,0,0,0-.6-2.14,2.07,2.07,0,0,0-1.71-.76,2.12,2.12,0,0,0-1.73.75,3.21,3.21,0,0,0-.62,2.12,3.36,3.36,0,0,0,.62,2.17A2.1,2.1,0,0,0,44.86,16.6Z"/><path class="cls-8" d="M54.64,17.5v-11h1.22v5.43l-.17-.15a2.58,2.58,0,0,1,1-1.45,2.94,2.94,0,0,1,1.74-.52,3.25,3.25,0,0,1,1.75.48,3.31,3.31,0,0,1,1.18,1.35,4.73,4.73,0,0,1,.43,2.06,4.86,4.86,0,0,1-.43,2.08,3.35,3.35,0,0,1-1.19,1.38,3.16,3.16,0,0,1-1.74.48,2.86,2.86,0,0,1-1.74-.51,2.51,2.51,0,0,1-1-1.45l.17-.17v2Zm3.54-.9a2.08,2.08,0,0,0,1.71-.77,3.42,3.42,0,0,0,.62-2.17,3.27,3.27,0,0,0-.62-2.12,2.33,2.33,0,0,0-3.43,0,3.38,3.38,0,0,0-.6,2.14,3.38,3.38,0,0,0,.6,2.15A2,2,0,0,0,58.18,16.6Z"/><path class="cls-8" d="M66.31,17.6a2.6,2.6,0,0,1-2-.75,3.17,3.17,0,0,1-.68-2.22V10h1.21V14.6a2.24,2.24,0,0,0,.42,1.5,1.62,1.62,0,0,0,1.28.48,2.13,2.13,0,0,0,1.62-.64,2.41,2.41,0,0,0,.61-1.73V10H70V17.5H68.77V15.86l.18-.09a2.55,2.55,0,0,1-1,1.37A2.93,2.93,0,0,1,66.31,17.6Z"/><path class="cls-8" d="M71.23,10.91V10h4.85v1Zm4.82,5.51v1l-.51.12a4.39,4.39,0,0,1-.54,0,2.33,2.33,0,0,1-1.68-.6,2.41,2.41,0,0,1-.62-1.8V8l1.22-.44V15a2,2,0,0,0,.17.93,1,1,0,0,0,.47.46,1.83,1.83,0,0,0,.68.12,2.41,2.41,0,0,0,.4,0A2.69,2.69,0,0,0,76.05,16.42Z"/><path class="cls-8" d="M76.53,10.91V10h4.84v1Zm4.81,5.51v1l-.5.12a4.68,4.68,0,0,1-.55,0,2.29,2.29,0,0,1-1.67-.6A2.37,2.37,0,0,1,78,15.2V8l1.21-.44V15a2.11,2.11,0,0,0,.17.93,1,1,0,0,0,.48.46,1.78,1.78,0,0,0,.67.12,2.54,2.54,0,0,0,.41,0A2.59,2.59,0,0,0,81.34,16.42Z"/><path class="cls-8" d="M86,17.6a3.58,3.58,0,0,1-1.88-.48,3.26,3.26,0,0,1-1.25-1.35,4.65,4.65,0,0,1-.44-2.08,4.64,4.64,0,0,1,.44-2.07,3.26,3.26,0,0,1,1.25-1.37,3.92,3.92,0,0,1,3.76,0,3.26,3.26,0,0,1,1.25,1.37,4.64,4.64,0,0,1,.44,2.07,4.65,4.65,0,0,1-.44,2.08,3.26,3.26,0,0,1-1.25,1.35A3.58,3.58,0,0,1,86,17.6Zm0-1a2.12,2.12,0,0,0,1.72-.74,3.4,3.4,0,0,0,.61-2.17,3.32,3.32,0,0,0-.62-2.15A2.09,2.09,0,0,0,86,10.79a2.12,2.12,0,0,0-1.72.75,3.32,3.32,0,0,0-.62,2.15,3.34,3.34,0,0,0,.61,2.17A2.11,2.11,0,0,0,86,16.6Z"/><path class="cls-8" d="M91.42,17.5V12.07c0-.35,0-.7,0-1.06s-.05-.71-.1-1.06h1.16l.13,1.56-.15.12a2.55,2.55,0,0,1,1-1.38,3,3,0,0,1,1.7-.48c1.81,0,2.71,1,2.71,3V17.5H96.69V12.82a2.34,2.34,0,0,0-.42-1.54A1.67,1.67,0,0,0,95,10.79a2.24,2.24,0,0,0-1.68.65,2.38,2.38,0,0,0-.63,1.74V17.5Z"/></g><g class="cls-9"><rect class="cls-8" x="102.25" y="5" width="45.25" height="16" rx="4"/></g><g class="cls-3"><path class="cls-4" d="M108.57,17.5V6.82h4.29a3.93,3.93,0,0,1,2.53.73,2.48,2.48,0,0,1,.92,2.06,2.5,2.5,0,0,1-.5,1.57,2.77,2.77,0,0,1-1.39.9V12a2.6,2.6,0,0,1,1.57.89,2.64,2.64,0,0,1,.57,1.74,2.61,2.61,0,0,1-.93,2.16,4.07,4.07,0,0,1-2.62.75Zm1.21-5.94h2.88a2.94,2.94,0,0,0,1.83-.48,1.7,1.7,0,0,0,.6-1.41,1.61,1.61,0,0,0-.6-1.37,3,3,0,0,0-1.83-.46h-2.88Zm0,4.92h3.12a3,3,0,0,0,1.86-.47,1.74,1.74,0,0,0,.59-1.45,1.8,1.8,0,0,0-.6-1.47,2.88,2.88,0,0,0-1.85-.5h-3.12Z"/><path class="cls-4" d="M119.38,17.5v-1h6v1Zm2.36-.56V7.54l.7.36-2.89,1.84V8.56l2.73-1.74h.7V16.94Z"/></g><polygon class="cls-4" points="138.52 17.31 143.5 8.69 133.54 8.69 138.52 17.31"/></g></g></svg>