<svg xmlns="http://www.w3.org/2000/svg" viewBox="0 0 595.28 67.14"><defs><style>.cls-1{fill:none;}.cls-2{fill:#483d86;}.cls-3{fill:#5c4da0;}.cls-4{fill:#8d82bd;}.cls-5{opacity:0.6;}.cls-6{fill:#fff;}.cls-7{isolation:isolate;}.cls-8{fill:#010101;}.cls-9{fill:#afa7d1;}</style></defs><g id="Layer_2" data-name="Layer 2"><g id="Layer_1-2" data-name="Layer 1"><rect class="cls-1" width="595.28" height="18"/><path class="cls-2" d="M1,9A8,8,0,0,1,9,1h7l6,4h3l6-4H174.25V6c0,10-8-8-8,7.5s8-2.5,8,7.5v5H30.5l-6,4h-3l-6-4H9a8,8,0,0,1-8-8Z"/><path class="cls-3" d="M0,8A8,8,0,0,1,8,0h7l6,4h3l6-4H173.25V5c0,10-8-8-8,7.5s8-2.5,8,7.5v5H29.5l-6,4h-3l-6-4H8a8,8,0,0,1-8-8Z"/><path class="cls-4" d="M2.34,22.66A8,8,0,0,1,0,17V8H1v9A7,7,0,0,0,3.05,22ZM168.5,19.73l-.5-.86,3.68-2.1.5.86ZM1,7.53,0,7.47A8,8,0,0,1,8,0h7.17l6,4h2.7l6-4h142.9V1H30.15l-6,4h-3.3l-6-4H8A7,7,0,0,0,1,7.53Z"/><path class="cls-2" d="M175.25,1h73.43V26H175.25V21c0-10-8,8-8-7.5s8,2.5,8-7.5Z"/><path class="cls-3" d="M174.25,0h73.43V25H174.25V20c0-10-8,8-8-7.5s8,2.5,8-7.5Z"/><path class="cls-4" d="M175.25,24.5h-1v-6h1Zm-8.34-6.37a20.71,20.71,0,0,1,0-11.26l1,.26a20,20,0,0,0,0,10.74ZM175.25,8h-1V0h72.93V1H175.25Z"/><g class="cls-5"><rect class="cls-6" x="179.25" y="5" width="63.43" height="16" rx="4"/></g><g class="cls-7"><path class="cls-8" d="M185.57,17.5V6.82h1.22V17.5Zm.57-4.91v-1h7.74v1Zm7.05,4.91V6.82h1.23V17.5Z"/><path class="cls-8" d="M197.06,17.5V6.82h1.23V17.5Z"/><path class="cls-8" d="M205.65,17.62A5.54,5.54,0,0,1,202.9,17a4.31,4.31,0,0,1-1.75-1.88,6.5,6.5,0,0,1-.61-2.95,6.47,6.47,0,0,1,.61-2.93,4.31,4.31,0,0,1,1.74-1.87,5.29,5.29,0,0,1,2.68-.64,5.86,5.86,0,0,1,2,.34,4.35,4.35,0,0,1,1.63,1l-.48.94a5.61,5.61,0,0,0-1.53-1,4.67,4.67,0,0,0-1.66-.29,3.5,3.5,0,0,0-2.79,1.13,4.93,4.93,0,0,0-1,3.26,4.94,4.94,0,0,0,1,3.31,3.61,3.61,0,0,0,2.89,1.13,7.75,7.75,0,0,0,1.52-.14,7,7,0,0,0,1.34-.38l-.3.63V12.91h-2.66v-1h3.79v4.95a6,6,0,0,1-1,.4,11.73,11.73,0,0,1-1.31.25A10.81,10.81,0,0,1,205.65,17.62Z"/><path class="cls-8" d="M211.89,17.5V6.82h1.22V17.5Zm.57-4.91v-1h7.74v1Zm7,4.91V6.82h1.23V17.5Z"/></g><g class="cls-7"><path class="cls-6" d="M10.11,10.91V10H15v1Zm4.81,5.51v1l-.5.12a4.58,4.58,0,0,1-.55,0A2.3,2.3,0,0,1,12.2,17a2.36,2.36,0,0,1-.62-1.8V8l1.21-.44V15A2.11,2.11,0,0,0,13,16a1,1,0,0,0,.48.46,1.74,1.74,0,0,0,.67.12l.41,0Z"/><path class="cls-6" d="M19.09,17.61a2.6,2.6,0,0,1-2-.75,3.2,3.2,0,0,1-.68-2.23V10h1.21v4.66a2.28,2.28,0,0,0,.42,1.5,1.63,1.63,0,0,0,1.28.47,2.11,2.11,0,0,0,1.61-.64,2.37,2.37,0,0,0,.62-1.73V10h1.21V17.5H21.55V15.86l.18-.08a2.56,2.56,0,0,1-1,1.36A2.93,2.93,0,0,1,19.09,17.61Z"/><path class="cls-6" d="M25.07,17.5V12.07c0-.35,0-.7,0-1.06A9.5,9.5,0,0,0,25,10h1.16l.17,1.87-.17-.05A2.32,2.32,0,0,1,27,10.28a2.56,2.56,0,0,1,1.57-.5,2.11,2.11,0,0,1,.36,0,1.75,1.75,0,0,1,.33.06l0,1.11a2.69,2.69,0,0,0-.79-.11,2.06,2.06,0,0,0-1.25.34,1.92,1.92,0,0,0-.69.88,2.78,2.78,0,0,0-.22,1.11V17.5Z"/><path class="cls-6" d="M30.5,17.5V12.07c0-.35,0-.7,0-1.06a7.6,7.6,0,0,0-.1-1.06h1.16l.13,1.56-.14.12a2.54,2.54,0,0,1,1-1.38,3,3,0,0,1,1.69-.47c1.81,0,2.71,1,2.71,3V17.5H35.77V12.82a2.34,2.34,0,0,0-.42-1.54A1.67,1.67,0,0,0,34,10.79a2.24,2.24,0,0,0-1.68.65,2.38,2.38,0,0,0-.63,1.74V17.5Z"/><path class="cls-6" d="M43.34,17.5V6.82h1.23v9.63h5.36V17.5Z"/><path class="cls-6" d="M51.52,17.5V6.82h6.75v1H52.73v3.72H58v1H52.73v3.89h5.54v1Z"/><path class="cls-6" d="M60.34,17.5V6.82h3.58a6.32,6.32,0,0,1,2.91.62,4.23,4.23,0,0,1,1.83,1.82,6.07,6.07,0,0,1,.63,2.88,6.19,6.19,0,0,1-.63,2.91,4.37,4.37,0,0,1-1.84,1.82,6.18,6.18,0,0,1-2.9.63Zm1.23-1.05h2.28A4.12,4.12,0,0,0,67,15.37a4.47,4.47,0,0,0,1-3.23q0-4.28-4.15-4.27H61.57Z"/></g><g class="cls-5"><rect class="cls-6" x="76.52" y="5" width="60.22" height="16" rx="4"/></g><g class="cls-7"><path class="cls-8" d="M82.69,17.5v-11H83.9v11Z"/><path class="cls-8" d="M92.44,16.6a3.56,3.56,0,0,1-1.27.73,4.78,4.78,0,0,1-1.58.28,4.13,4.13,0,0,1-2-.47,3.19,3.19,0,0,1-1.31-1.34,4.58,4.58,0,0,1-.45-2.1,4.45,4.45,0,0,1,.45-2,3.34,3.34,0,0,1,1.25-1.38,3.43,3.43,0,0,1,1.85-.49,3.2,3.2,0,0,1,1.73.44,2.86,2.86,0,0,1,1.1,1.27,4.68,4.68,0,0,1,.38,2v.23h-5.7v-.8h5l-.39.56a3.13,3.13,0,0,0-.52-2,1.88,1.88,0,0,0-1.59-.7,2.1,2.1,0,0,0-1.72.77A3.31,3.31,0,0,0,87,13.63a3.27,3.27,0,0,0,.65,2.22,2.39,2.39,0,0,0,1.91.75,3.65,3.65,0,0,0,1.27-.22A3.92,3.92,0,0,0,92,15.71Z"/><path class="cls-8" d="M93.34,10.91V10h4.53v1Zm4.74-3.34a2.85,2.85,0,0,0-.78-.12,1.59,1.59,0,0,0-.66.13.94.94,0,0,0-.45.45A2.1,2.1,0,0,0,96,9V17.5H94.81V8.8A2.45,2.45,0,0,1,95.41,7a2.27,2.27,0,0,1,1.65-.59,4.36,4.36,0,0,1,.51,0,4.59,4.59,0,0,1,.51.1Z"/><path class="cls-8" d="M98.05,10.91V10h4.84v1Zm4.81,5.51v1l-.5.12a4.58,4.58,0,0,1-.55,0,2.3,2.3,0,0,1-1.67-.61,2.36,2.36,0,0,1-.62-1.8V8l1.21-.44V15a2.11,2.11,0,0,0,.17.93,1,1,0,0,0,.48.46,1.78,1.78,0,0,0,.67.12l.41,0Z"/></g><g class="cls-7"><path class="cls-6" d="M141.84,10.91V10h4.84v1Zm4.81,5.51v1a4.54,4.54,0,0,1-.5.12,4.43,4.43,0,0,1-.55,0,2.32,2.32,0,0,1-1.67-.61,2.39,2.39,0,0,1-.62-1.8V8l1.21-.44V15a2,2,0,0,0,.18.93,1,1,0,0,0,.47.46,1.78,1.78,0,0,0,.67.12l.41,0Z"/><path class="cls-6" d="M151.27,17.61a3.61,3.61,0,0,1-1.88-.49,3.24,3.24,0,0,1-1.24-1.35,4.52,4.52,0,0,1-.45-2.08,4.51,4.51,0,0,1,.45-2.07,3.24,3.24,0,0,1,1.24-1.37,3.69,3.69,0,0,1,1.88-.47,3.73,3.73,0,0,1,1.89.47,3.24,3.24,0,0,1,1.24,1.37,4.51,4.51,0,0,1,.44,2.07,4.52,4.52,0,0,1-.44,2.08,3.24,3.24,0,0,1-1.24,1.35A3.64,3.64,0,0,1,151.27,17.61Zm0-1a2.11,2.11,0,0,0,1.72-.74,3.34,3.34,0,0,0,.61-2.17,3.32,3.32,0,0,0-.62-2.15,2.32,2.32,0,0,0-3.42,0,3.26,3.26,0,0,0-.63,2.15,3.4,3.4,0,0,0,.61,2.17A2.13,2.13,0,0,0,151.27,16.6Z"/></g><polygon class="cls-8" points="127.75 17.31 132.73 8.69 122.78 8.69 127.75 17.31"/><polygon class="cls-8" points="233.71 17.31 238.68 8.69 228.73 8.69 233.71 17.31"/><rect class="cls-9" x="76.52" y="31.69" width="60.1" height="35.45" rx="5.81"/><g class="cls-7"><path class="cls-8" d="M82.09,44.57v-11h1.22v11Z"/><path class="cls-8" d="M91.84,43.66a3.36,3.36,0,0,1-1.27.74,4.73,4.73,0,0,1-1.58.27,4,4,0,0,1-2-.47,3.06,3.06,0,0,1-1.3-1.34,4.39,4.39,0,0,1-.46-2.09,4.45,4.45,0,0,1,.45-2.05,3.44,3.44,0,0,1,1.25-1.39,3.58,3.58,0,0,1,1.86-.49,3.26,3.26,0,0,1,1.72.44,2.85,2.85,0,0,1,1.1,1.27,4.6,4.6,0,0,1,.39,2v.23h-5.7V40h5l-.39.56a3.17,3.17,0,0,0-.52-2,1.91,1.91,0,0,0-1.6-.71,2.09,2.09,0,0,0-1.72.78,3.31,3.31,0,0,0-.62,2.13,3.31,3.31,0,0,0,.65,2.22,2.39,2.39,0,0,0,1.92.75,3.79,3.79,0,0,0,1.26-.21,4.06,4.06,0,0,0,1.17-.67Z"/><path class="cls-8" d="M92.74,38V37h4.53v1Zm4.74-3.34a2.85,2.85,0,0,0-.78-.12,1.67,1.67,0,0,0-.65.12.94.94,0,0,0-.46.46,2.08,2.08,0,0,0-.16.92v8.55H94.21V35.86a2.43,2.43,0,0,1,.6-1.8,2.22,2.22,0,0,1,1.65-.59l.51,0a4.64,4.64,0,0,1,.51.11Z"/><path class="cls-8" d="M97.45,38V37h4.85v1Zm4.82,5.51v1a3.1,3.1,0,0,1-.51.11,3,3,0,0,1-.54,0,2.33,2.33,0,0,1-1.68-.6,2.41,2.41,0,0,1-.62-1.8V35.08l1.22-.43v7.46a1.91,1.91,0,0,0,.17.92.88.88,0,0,0,.47.46,1.65,1.65,0,0,0,.68.13,2.41,2.41,0,0,0,.4,0Z"/><path class="cls-8" d="M82.09,62.57V57.14c0-.36,0-.71,0-1.06s0-.71-.1-1.06h1.16l.16,1.86-.16-.05a2.4,2.4,0,0,1,.9-1.49,2.67,2.67,0,0,1,1.57-.5l.37,0,.32.07,0,1.11a2.39,2.39,0,0,0-.79-.12,2,2,0,0,0-2,1.22,3.05,3.05,0,0,0-.21,1.12v4.31Z"/><path class="cls-8" d="M87.4,51.82h1.49V53.2H87.4Zm.12,10.75V55h1.22v7.55Z"/><path class="cls-8" d="M94.41,65.91a5.53,5.53,0,0,1-3-.78l.21-1a6,6,0,0,0,1.33.59,5.24,5.24,0,0,0,1.43.17,2.21,2.21,0,0,0,1.64-.57,2.41,2.41,0,0,0,.56-1.72v-2l.17-.2a2.74,2.74,0,0,1-.57,1.05,2.55,2.55,0,0,1-.93.68,3.15,3.15,0,0,1-1.26.24,3.15,3.15,0,0,1-3-1.78,4.73,4.73,0,0,1,0-3.94,3.15,3.15,0,0,1,3-1.78,2.92,2.92,0,0,1,1.77.52,2.51,2.51,0,0,1,1,1.45l-.18-.17V55h1.21v7.49A3.46,3.46,0,0,1,97,65.06,3.51,3.51,0,0,1,94.41,65.91Zm-.15-4.59A2.1,2.1,0,0,0,96,60.59a3.49,3.49,0,0,0,0-4,2.1,2.1,0,0,0-1.71-.73,2.19,2.19,0,0,0-1.75.73,3.46,3.46,0,0,0,0,4A2.21,2.21,0,0,0,94.26,61.32Z"/><path class="cls-8" d="M100.15,62.57v-11h1.22v5l-.2.15a2.61,2.61,0,0,1,1-1.39,3.12,3.12,0,0,1,1.7-.47c1.81,0,2.71,1,2.71,3v4.75h-1.21V57.89a2.32,2.32,0,0,0-.42-1.54,1.64,1.64,0,0,0-1.32-.49,2.21,2.21,0,0,0-1.68.65,2.37,2.37,0,0,0-.63,1.73v4.33Z"/><path class="cls-8" d="M107.86,56V55h4.85v1Zm4.82,5.51v1a3.1,3.1,0,0,1-.51.11,3,3,0,0,1-.54,0,2.33,2.33,0,0,1-1.68-.6,2.41,2.41,0,0,1-.62-1.8V53.08l1.22-.43v7.46a1.91,1.91,0,0,0,.17.92.88.88,0,0,0,.47.46,1.65,1.65,0,0,0,.68.13,2.41,2.41,0,0,0,.4,0Z"/></g><polygon class="cls-8" points="127.75 44.38 132.73 35.75 122.78 35.75 127.75 44.38"/><rect class="cls-9" x="179.25" y="31.69" width="63.37" height="33.74" rx="5.67"/><g class="cls-7"><path class="cls-8" d="M185,44.57V33.89h1.22V44.57Zm.57-4.91v-1h7.74v1Zm7.05,4.91V33.89h1.23V44.57Z"/><path class="cls-8" d="M196.46,44.57V33.89h1.23V44.57Z"/><path class="cls-8" d="M205.06,44.69a5.41,5.41,0,0,1-2.75-.66,4.3,4.3,0,0,1-1.76-1.87,6.66,6.66,0,0,1-.61-2.95,6.57,6.57,0,0,1,.61-2.93,4.32,4.32,0,0,1,1.74-1.87,5.34,5.34,0,0,1,2.68-.64,6.16,6.16,0,0,1,2.05.33,4.53,4.53,0,0,1,1.62,1l-.48,1a5.37,5.37,0,0,0-1.53-1,4.42,4.42,0,0,0-1.66-.29A3.43,3.43,0,0,0,202.19,36a4.84,4.84,0,0,0-1,3.26,4.9,4.9,0,0,0,1,3.31,3.63,3.63,0,0,0,2.88,1.13,8.42,8.42,0,0,0,1.52-.14,7.59,7.59,0,0,0,1.34-.39l-.3.64V40H205V39h3.78v5a4.84,4.84,0,0,1-1,.39,11.49,11.49,0,0,1-1.3.26A13.14,13.14,0,0,1,205.06,44.69Z"/><path class="cls-8" d="M211.3,44.57V33.89h1.21V44.57Zm.57-4.91v-1h7.74v1Zm7,4.91V33.89h1.23V44.57Z"/><path class="cls-8" d="M185,62.57V51.89h1.23v9.63h5.36v1Z"/><path class="cls-8" d="M197.06,62.69a4.85,4.85,0,0,1-2.58-.66,4.36,4.36,0,0,1-1.68-1.89,6.57,6.57,0,0,1-.6-2.91,6.7,6.7,0,0,1,.59-2.92,4.26,4.26,0,0,1,1.67-1.88,5.45,5.45,0,0,1,5.2,0,4.22,4.22,0,0,1,1.68,1.88,7.56,7.56,0,0,1,0,5.83A4.36,4.36,0,0,1,199.65,62,4.89,4.89,0,0,1,197.06,62.69Zm0-1a3.25,3.25,0,0,0,2.64-1.15,5,5,0,0,0,1-3.28,5,5,0,0,0-1-3.26,3.65,3.65,0,0,0-5.28,0,5,5,0,0,0-1,3.26,5,5,0,0,0,1,3.27A3.22,3.22,0,0,0,197.06,61.64Z"/><path class="cls-8" d="M206.84,62.57l-3.75-10.68h1.26l3.27,9.63h-.48l3.35-9.63h.94l3.29,9.62h-.47l3.3-9.63h1.22L215,62.57H214l-3.21-9.21h.33l-3.22,9.21Z"/></g><polygon class="cls-8" points="233.71 44.38 238.68 35.75 228.73 35.75 233.71 44.38"/></g></g></svg>