<svg xmlns="http://www.w3.org/2000/svg" viewBox="0 0 595.28 60.69"><defs><style>.cls-1{fill:#4c79a6;}.cls-2{fill:#ededee;}.cls-3{fill:#231f20;}.cls-4{fill:#eab2b7;}.cls-5{fill:#e28086;}.cls-6{fill:#e5999e;}.cls-7{fill:#f6d4d6;}</style></defs><g id="Layer_2" data-name="Layer 2"><g id="Layer_1-2" data-name="Layer 1"><rect class="cls-1" y="4" width="595.28" height="56.69" rx="11.34"/><rect class="cls-2" width="595.28" height="56.69" rx="11.34"/><path class="cls-3" d="M85.23,38.84V13.21h4.64V35h12v3.82Z"/><path class="cls-3" d="M113.2,39.09a9.93,9.93,0,0,1-4.91-1.15,7.89,7.89,0,0,1-3.19-3.26,10.63,10.63,0,0,1-1.11-5,10.77,10.77,0,0,1,1.11-5,7.87,7.87,0,0,1,3.19-3.3,10,10,0,0,1,4.91-1.15A9.87,9.87,0,0,1,118,21.34a8,8,0,0,1,3.21,3.3,10.65,10.65,0,0,1,1.13,5,10.51,10.51,0,0,1-1.13,5A8,8,0,0,1,118,37.94,9.76,9.76,0,0,1,113.2,39.09Zm0-3.45a4.15,4.15,0,0,0,3.44-1.5,7,7,0,0,0,1.21-4.48,7,7,0,0,0-1.21-4.45,4.17,4.17,0,0,0-3.44-1.49,4.33,4.33,0,0,0-3.51,1.49,6.83,6.83,0,0,0-1.24,4.45,7,7,0,0,0,1.22,4.48A4.31,4.31,0,0,0,113.2,35.64Z"/><path class="cls-3" d="M134.59,46.87a15.18,15.18,0,0,1-7.38-1.73l.72-3.42A15.28,15.28,0,0,0,131.19,43a13.44,13.44,0,0,0,3.33.41,5,5,0,0,0,3.63-1.19,4.78,4.78,0,0,0,1.22-3.6v-4.5h.44a6.13,6.13,0,0,1-1.35,2.11,6.57,6.57,0,0,1-2.22,1.51,7.13,7.13,0,0,1-2.84.56,7.89,7.89,0,0,1-4.21-1.12A7.48,7.48,0,0,1,126.33,34a10.35,10.35,0,0,1-1-4.77,10.41,10.41,0,0,1,1-4.77,7.62,7.62,0,0,1,2.86-3.16,7.81,7.81,0,0,1,4.21-1.14,7.22,7.22,0,0,1,4.07,1.15,5.7,5.7,0,0,1,2.34,3.1l-.44.07V20.66h4.47v17.6q0,4.26-2.34,6.43C139.94,46.14,137.63,46.87,134.59,46.87Zm0-12.06a4.36,4.36,0,0,0,3.5-1.48,6.11,6.11,0,0,0,1.25-4.07,6.1,6.1,0,0,0-1.25-4.06,4.36,4.36,0,0,0-3.5-1.48,4.47,4.47,0,0,0-3.56,1.48,6,6,0,0,0-1.3,4.06,6,6,0,0,0,1.3,4.07A4.47,4.47,0,0,0,134.62,34.81Z"/><path class="cls-3" d="M148.45,12.42h5v4.42h-5Zm.21,26.42V20.66h4.5V38.84Z"/><path class="cls-3" d="M166.27,39.09A10.16,10.16,0,0,1,161.35,38a7.74,7.74,0,0,1-3.17-3.24,10.62,10.62,0,0,1-1.09-4.95,10.53,10.53,0,0,1,1.15-5,8.18,8.18,0,0,1,3.27-3.35,10.07,10.07,0,0,1,5-1.19,11.85,11.85,0,0,1,3.73.61,8.08,8.08,0,0,1,3,1.7l-1.3,3.16a8.93,8.93,0,0,0-2.45-1.42,7.37,7.37,0,0,0-2.59-.48,4.84,4.84,0,0,0-3.76,1.51,6.36,6.36,0,0,0-1.39,4.43,6.34,6.34,0,0,0,1.37,4.39,4.88,4.88,0,0,0,3.82,1.51,7.07,7.07,0,0,0,2.55-.49,8.34,8.34,0,0,0,2.45-1.45l1.3,3.16a8.23,8.23,0,0,1-3,1.68A12.83,12.83,0,0,1,166.27,39.09Z"/><path class="cls-4" d="M48,41.34c-1.22-.91-.16-4.22-.16-5.85l-6.39,1.87,4,7.36a1.69,1.69,0,0,0,3.11-1.26Z"/><path class="cls-5" d="M46,37.36A4.94,4.94,0,0,0,51,42.3h.87A6.42,6.42,0,0,0,58.29,37c-.78.26-2.16-2.56-3-2.56Z"/><path class="cls-4" d="M35.6,37.36H55.8A7.87,7.87,0,0,0,61.38,35a2.69,2.69,0,0,0,0-3.8l-.7-.7.14.13a1.68,1.68,0,0,0,2.87-1.16v0a18.29,18.29,0,0,0-5.32-12.92,1.69,1.69,0,0,0-2.39,0l-.23.23a1.69,1.69,0,0,0-.25-2.59h0A18.27,18.27,0,0,0,45.31,11.1h-1.2a1.68,1.68,0,0,0-1.68,1.68,1.69,1.69,0,0,0-1.69-1.68H37a16.49,16.49,0,0,0-7.83,2,1.68,1.68,0,0,0-.37,2.66l-.42-.42a1.69,1.69,0,0,0-2.31-.06,16.5,16.5,0,0,0-4.45,6.48A6.78,6.78,0,0,0,28,30.91h1.59a.21.21,0,0,1,.21.22c0,.12,0,.25,0,.38a5.85,5.85,0,0,0,5.86,5.85Z"/><path class="cls-6" d="M58.37,16.55a1.69,1.69,0,0,0-2.11-.24,18.27,18.27,0,0,1,4,11.45v0a7.88,7.88,0,0,1-7.88,7.87H32.18a6.66,6.66,0,0,1-.78,0,5.85,5.85,0,0,0,4.2,1.76H55.8A7.87,7.87,0,0,0,61.38,35a2.69,2.69,0,0,0,0-3.8l-.56-.57a1.68,1.68,0,0,0,2.87-1.16v0a18.29,18.29,0,0,0-5.32-12.92Z"/><path class="cls-7" d="M26.36,18c-.24.28-.48.56-.7.86a1,1,0,0,0,.09,1.39v0a1.07,1.07,0,0,0,1.6-.11c.19-.25.39-.49.6-.73a1.07,1.07,0,0,0,0-1.44h0A1.07,1.07,0,0,0,26.36,18Z"/><path class="cls-7" d="M25.89,25.55a2.43,2.43,0,0,1-.4-1.87,1.07,1.07,0,0,0-.28-1,1.06,1.06,0,0,0-1.79.53,4.29,4.29,0,0,0,.71,3.53,4.62,4.62,0,0,0,2.45,1.8,1.07,1.07,0,0,0,1.37-1v0a1.06,1.06,0,0,0-.74-1,2.43,2.43,0,0,1-1.32-1Z"/><path class="cls-6" d="M48.05,25H46.44V18.93a.64.64,0,1,0-1.28,0V25H38.73V18.93a.64.64,0,0,0-1.28,0V25H34.94a6.49,6.49,0,0,0-2.88.67l-3.12-3.12a.64.64,0,1,0-.91.91L31,26.4a6.48,6.48,0,0,0-2.47,4.51h1.07a.2.2,0,0,1,.2.18,5.21,5.21,0,0,1,5.19-4.79H48.05a.64.64,0,0,0,.64-.64.64.64,0,0,0-.64-.64Z"/><path class="cls-6" d="M48.36,30.4a7.8,7.8,0,0,0,5.56-2.3l2-2a.64.64,0,1,0-.91-.91l-2,2a6.49,6.49,0,0,1-4.65,1.93h-11a5.06,5.06,0,0,0-3.58,1.48l-.22.22a.65.65,0,0,0,0,.91.64.64,0,0,0,.91,0l.22-.22a3.76,3.76,0,0,1,2.67-1.11Z"/><path class="cls-6" d="M53.84,35.57a9,9,0,0,0-6.35-2.63h-8a.64.64,0,1,0,0,1.28h8a7.67,7.67,0,0,1,5.44,2.26l.88.88h1.81Z"/><path class="cls-6" d="M56.64,28.9a.64.64,0,1,0,.91.9l1.16-1.15a4.43,4.43,0,0,0,.59-5.49l-.5-.78a.64.64,0,0,0-.88-.2.65.65,0,0,0-.2.89l.5.78a3.14,3.14,0,0,1-.42,3.89Z"/><path class="cls-6" d="M28.37,15.32a1.68,1.68,0,0,0-2.06-.24l3.17,3.17a.64.64,0,0,0,.91,0,.65.65,0,0,0,0-.91Z"/><path class="cls-6" d="M41.78,19.08a.65.65,0,0,0,.65-.65V12.78a1.68,1.68,0,0,0-1.29-1.63v7.28A.65.65,0,0,0,41.78,19.08Z"/><path class="cls-6" d="M56,14.71a1.58,1.58,0,0,0-.5-.53h0a18.06,18.06,0,0,0-3.74-1.91,17.18,17.18,0,0,1,2.41,1.83,1.62,1.62,0,0,1,.07,2.37L51.9,18.8a.65.65,0,0,0,0,.91.63.63,0,0,0,.46.19.61.61,0,0,0,.45-.19l2.94-2.94A1.67,1.67,0,0,0,56,14.71Z"/></g></g></svg>