<svg xmlns="http://www.w3.org/2000/svg" viewBox="0 0 595.39 148.69"><defs><style>.cls-1{fill:none;}.cls-2{fill:#3c6186;}.cls-3{fill:#4c79a6;}.cls-4{fill:#81a1c1;}.cls-5{opacity:0.6;}.cls-6{fill:#fff;}.cls-7{isolation:isolate;}.cls-8{fill:#010101;}.cls-9{fill:#bfcde1;}</style></defs><g id="Layer_2" data-name="Layer 2"><g id="Layer_1-2" data-name="Layer 1"><rect class="cls-1" x="0.12" width="595.28" height="18"/><path class="cls-2" d="M9.12,1H115.38V36H9.12V21c0-10-8,8-8-7.5s8,2.5,8-7.5Zm30.5,5H25.12v5c0,10-8-8-8,7.5s8-2.5,8,7.5v6h14.5Zm65.76,0H90.88v5c0,10-8-8-8,7.5s8-2.5,8,7.5v6h14.5Z"/><path class="cls-3" d="M8.12,0H114.38V35H8.12V20c0-10-8,8-8-7.5s8,2.5,8-7.5Zm30.5,5H24.12v5c0,10-8-8-8,7.5s8-2.5,8,7.5v6h14.5Zm65.76,0H89.88v5c0,10-8-8-8,7.5s8-2.5,8,7.5v6h14.5Z"/><path class="cls-4" d="M9.12,34.5h-1v-16h1ZM105.38,32h-15V31h14V5.5h1ZM39.62,32h-15V31h14V5.5h1ZM85,24.73l-.49-.86,3.68-2.1.49.86Zm-65.77,0-.49-.86,3.68-2.1.49.86ZM.77,18.13a20.9,20.9,0,0,1,0-11.26l1,.26a19.79,19.79,0,0,0,0,10.74ZM9.12,8h-1V0H113.88V1H9.12Z"/><g class="cls-5"><rect class="cls-6" x="43.62" y="10" width="35.27" height="16" rx="4"/></g><g class="cls-7"><path class="cls-8" d="M56.34,16.2v.94H49V16.2Zm0,3v.94H49v-.94Z"/></g><polygon class="cls-8" points="69.37 22.31 74.35 13.69 64.39 13.69 69.37 22.31"/><rect class="cls-9" x="43.75" y="41.69" width="35" height="107" rx="5.67"/><g class="cls-7"><path class="cls-8" d="M56.34,48.26v1H49v-1Zm0,3v1H49v-1Z"/><path class="cls-8" d="M56.34,66.26v.95H49v-.95Zm0,3v.95H49v-.95Zm-2.62-5.07.85.36-3.19,7.71-.86-.37Z"/><path class="cls-8" d="M49,86.74v-1l7.38-3.33v1l-6.9,3.09V86L56.34,89v1Z"/><path class="cls-8" d="M49,104.11v-1l7.38-2.7v1l-6.88,2.48v-.62l6.88,2.48v1Zm7.38,3.51v.94H49v-.94Z"/><path class="cls-8" d="M56.34,122.74,49,126.08v-1l6.9-3.07v.6L49,119.47v-1l7.38,3.33Z"/><path class="cls-8" d="M56.34,140.11,49,142.81v-1l6.89-2.48v.62L49,137.45v-1l7.38,2.7Zm0,3.51v.94H49v-.94Z"/></g><polygon class="cls-8" points="69.37 54.38 74.35 45.75 64.39 45.75 69.37 54.38"/></g></g></svg>