<svg xmlns="http://www.w3.org/2000/svg" viewBox="0 0 595.28 39.38"><defs><style>.cls-1{fill:#231f20;}.cls-2{fill:#e95d30;}.cls-3{fill:#4da649;}.cls-4{fill:#c64f28;}.cls-5{fill:#82b941;}.cls-6{fill:none;}</style></defs><g id="Layer_2" data-name="Layer 2"><g id="Layer_1-2" data-name="Layer 1"><path class="cls-1" d="M85.23,31.61V6h4.64V27.79h12v3.82Z"/><path class="cls-1" d="M113.2,31.86a9.93,9.93,0,0,1-4.91-1.15,8,8,0,0,1-3.19-3.26,10.63,10.63,0,0,1-1.11-5,10.77,10.77,0,0,1,1.11-5,7.87,7.87,0,0,1,3.19-3.3A10,10,0,0,1,113.2,13,9.87,9.87,0,0,1,118,14.11a8,8,0,0,1,3.21,3.3,10.65,10.65,0,0,1,1.13,5,10.51,10.51,0,0,1-1.13,5A8.06,8.06,0,0,1,118,30.71,9.76,9.76,0,0,1,113.2,31.86Zm0-3.46a4.15,4.15,0,0,0,3.44-1.49,7,7,0,0,0,1.21-4.48A7,7,0,0,0,116.64,18a4.17,4.17,0,0,0-3.44-1.49A4.33,4.33,0,0,0,109.69,18a6.83,6.83,0,0,0-1.24,4.45,7,7,0,0,0,1.22,4.48A4.3,4.3,0,0,0,113.2,28.4Z"/><path class="cls-1" d="M134.52,31.86a9.94,9.94,0,0,1-4.92-1.15,8,8,0,0,1-3.19-3.26,10.63,10.63,0,0,1-1.11-5,10.77,10.77,0,0,1,1.11-5,7.87,7.87,0,0,1,3.19-3.3A10.05,10.05,0,0,1,134.52,13a9.9,9.9,0,0,1,4.84,1.15,7.9,7.9,0,0,1,3.2,3.3,10.54,10.54,0,0,1,1.14,5,10.4,10.4,0,0,1-1.14,5,8,8,0,0,1-3.2,3.26A9.79,9.79,0,0,1,134.52,31.86Zm0-3.46A4.14,4.14,0,0,0,138,26.91a7,7,0,0,0,1.21-4.48A7,7,0,0,0,138,18a4.17,4.17,0,0,0-3.43-1.49A4.34,4.34,0,0,0,131,18a6.88,6.88,0,0,0-1.24,4.45A6.92,6.92,0,0,0,131,26.91,4.28,4.28,0,0,0,134.52,28.4Z"/><path class="cls-1" d="M147.55,39.38V18.58q0-1.26-.06-2.58a24.06,24.06,0,0,0-.23-2.57h4.25l.39,3.6-.25.21a5.48,5.48,0,0,1,2.27-3.15,7.05,7.05,0,0,1,4-1.13,7.37,7.37,0,0,1,4.2,1.21A8.3,8.3,0,0,1,165,17.51a11.33,11.33,0,0,1,1,5,11,11,0,0,1-1,4.95,7.9,7.9,0,0,1-2.84,3.24,7.81,7.81,0,0,1-4.22,1.13,7.11,7.11,0,0,1-4-1.1,5.3,5.3,0,0,1-2.27-3.11l.4-.58V39.38Zm9.21-11a4.16,4.16,0,0,0,3.46-1.53,6.79,6.79,0,0,0,1.22-4.33,7.22,7.22,0,0,0-1.22-4.47,4.14,4.14,0,0,0-3.46-1.58A4.22,4.22,0,0,0,153.25,18a7.07,7.07,0,0,0-1.2,4.44,7,7,0,0,0,1.2,4.4A4.2,4.2,0,0,0,156.76,28.4Z"/><path class="cls-1" d="M176.56,31.86a12.38,12.38,0,0,1-7.85-2.27L170,26.42A10.53,10.53,0,0,0,173.11,28a11.51,11.51,0,0,0,3.52.54,4.83,4.83,0,0,0,2.53-.54,1.7,1.7,0,0,0,.86-1.51,1.6,1.6,0,0,0-.61-1.31,5.6,5.6,0,0,0-2.09-.85l-3-.68a7.23,7.23,0,0,1-3.72-1.82,4.47,4.47,0,0,1-1.24-3.26,4.85,4.85,0,0,1,.93-2.93,6.2,6.2,0,0,1,2.63-2,10,10,0,0,1,3.93-.72,12,12,0,0,1,3.74.59,9.57,9.57,0,0,1,3.13,1.71l-1.29,3.1a10.8,10.8,0,0,0-2.79-1.55,8.62,8.62,0,0,0-2.83-.5,4.34,4.34,0,0,0-2.41.57,1.82,1.82,0,0,0-.87,1.59,1.6,1.6,0,0,0,.53,1.26,4.08,4.08,0,0,0,1.81.75l3.06.76a7.64,7.64,0,0,1,3.94,1.85,4.65,4.65,0,0,1,1.25,3.37,4.62,4.62,0,0,1-2,3.94A9.24,9.24,0,0,1,176.56,31.86Z"/><path class="cls-2" d="M59.91,19.59l-6,3.12a.71.71,0,0,0-.34.4l-1,3.19a.43.43,0,0,0,.61.51l3-1.58a.17.17,0,0,1,.24.22,13.37,13.37,0,0,1-11.95,8.48,9,9,0,1,1-.9-18,.42.42,0,0,0,.41-.42V12.12a.43.43,0,0,0-.44-.43A13.24,13.24,0,0,0,44,38.16a17.6,17.6,0,0,0,16.29-11,.17.17,0,0,1,.31,0l1.23,2.35a.43.43,0,0,0,.79-.07l1-3.19a.67.67,0,0,0,0-.52l-3.12-6a.43.43,0,0,0-.58-.18Z"/><path class="cls-3" d="M24.94,18.57l6-3.12a.71.71,0,0,0,.34-.4l1-3.19a.43.43,0,0,0-.61-.51l-3,1.58a.17.17,0,0,1-.24-.22,13.38,13.38,0,0,1,12-8.48,9,9,0,1,1,.9,18,.42.42,0,0,0-.41.43V26a.43.43,0,0,0,.44.43A13.24,13.24,0,0,0,40.82,0,17.6,17.6,0,0,0,24.53,11a.17.17,0,0,1-.31,0L23,8.63a.43.43,0,0,0-.79.07l-1,3.19a.7.7,0,0,0,0,.53l3.12,6a.43.43,0,0,0,.58.18Z"/><path class="cls-4" d="M41.72,12.12v3.37a.42.42,0,0,1-.41.42,9,9,0,1,0,.9,18c.29,0,.58,0,.86-.06a9,9,0,0,1,.55-18,.42.42,0,0,0,.41-.42V12.12a.43.43,0,0,0-.44-.43,12.26,12.26,0,0,0-1.93.21.4.4,0,0,1,.06.22Z"/><path class="cls-4" d="M53.21,26.81l3-1.58a.18.18,0,0,1,.25.18c.19-.38.4-.86.57-1.29a.17.17,0,0,0-.23-.22l-4.08,2-.14.45a.43.43,0,0,0,.61.51Z"/><path class="cls-4" d="M63.61,25.75l-3.12-6a.43.43,0,0,0-.58-.18l-1.43.75,2.82,5.41a.67.67,0,0,1,0,.52l-.44,1.42,1,1.84a.43.43,0,0,0,.79-.07l1-3.19a.67.67,0,0,0,0-.52Z"/><path class="cls-4" d="M59.82,25.63a.37.37,0,0,0-.66,0c-2.64,6-9.52,12-16.2,12.47.35,0,.71,0,1.07,0a17.6,17.6,0,0,0,16.29-11,.18.18,0,0,1,.28-.06Z"/><path class="cls-5" d="M38,4.23c-5.6.2-10.33,5.06-12.12,10.11l2.67-1.4a.17.17,0,0,1-.2-.23,13.38,13.38,0,0,1,11-8.41h0A8.68,8.68,0,0,0,38,4.23Z"/><path class="cls-5" d="M40.82,0C40.4,0,40,0,39.58,0a13.24,13.24,0,0,1,1.3,26.23.43.43,0,0,0,.38.2A13.24,13.24,0,0,0,40.82,0Z"/><path class="cls-5" d="M31.64,11.35l-1.84,1-.86,2.74a.71.71,0,0,1-.34.4l-4.53,2.37.29.57a.43.43,0,0,0,.58.18l6-3.12a.71.71,0,0,0,.34-.4l1-3.19A.43.43,0,0,0,31.64,11.35Z"/><path class="cls-5" d="M23.53,12.71c.25-.55.62-1.13.93-1.66a.17.17,0,0,1-.24-.07L23,8.63a.43.43,0,0,0-.79.07l-.55,1.76,1.5,2.28a.22.22,0,0,0,.38,0Z"/><rect class="cls-6" width="595.28" height="18"/></g></g></svg>