<svg xmlns="http://www.w3.org/2000/svg" viewBox="0 0 595.28 60.69"><defs><style>.cls-1{fill:#4da649;}.cls-2{fill:#ededee;}.cls-3{fill:#231f20;}.cls-4{fill:#e95d30;}.cls-5{fill:#c64f28;}.cls-6{fill:#82b941;}</style></defs><g id="Layer_2" data-name="Layer 2"><g id="Layer_1-2" data-name="Layer 1"><rect class="cls-1" y="4" width="595.28" height="56.69" rx="11.34"/><rect class="cls-2" width="595.28" height="56.69" rx="11.34"/><path class="cls-3" d="M85.23,38.84V13.21h4.64V35h12v3.82Z"/><path class="cls-3" d="M113.2,39.09a9.93,9.93,0,0,1-4.91-1.15,7.89,7.89,0,0,1-3.19-3.26,10.63,10.63,0,0,1-1.11-5,10.77,10.77,0,0,1,1.11-5,7.87,7.87,0,0,1,3.19-3.3,10,10,0,0,1,4.91-1.15A9.87,9.87,0,0,1,118,21.34a8,8,0,0,1,3.21,3.3,10.65,10.65,0,0,1,1.13,5,10.51,10.51,0,0,1-1.13,5A8,8,0,0,1,118,37.94,9.76,9.76,0,0,1,113.2,39.09Zm0-3.45a4.17,4.17,0,0,0,3.44-1.5,7,7,0,0,0,1.21-4.48,7,7,0,0,0-1.21-4.45,4.19,4.19,0,0,0-3.44-1.49,4.33,4.33,0,0,0-3.51,1.49,6.83,6.83,0,0,0-1.24,4.45,7,7,0,0,0,1.22,4.48A4.31,4.31,0,0,0,113.2,35.64Z"/><path class="cls-3" d="M134.51,39.09a9.93,9.93,0,0,1-4.91-1.15,7.89,7.89,0,0,1-3.19-3.26,10.63,10.63,0,0,1-1.11-5,10.77,10.77,0,0,1,1.11-5,7.87,7.87,0,0,1,3.19-3.3,10,10,0,0,1,4.91-1.15,9.91,9.91,0,0,1,4.85,1.15,8,8,0,0,1,3.2,3.3,10.53,10.53,0,0,1,1.13,5,10.4,10.4,0,0,1-1.13,5,8,8,0,0,1-3.2,3.26A9.8,9.8,0,0,1,134.51,39.09Zm0-3.45a4.15,4.15,0,0,0,3.44-1.5,7,7,0,0,0,1.21-4.48A7,7,0,0,0,138,25.21a4.17,4.17,0,0,0-3.44-1.49A4.33,4.33,0,0,0,131,25.21a6.88,6.88,0,0,0-1.24,4.45A6.92,6.92,0,0,0,131,34.14,4.27,4.27,0,0,0,134.51,35.64Z"/><path class="cls-3" d="M147.55,46.62V25.81q0-1.26-.06-2.58a24.06,24.06,0,0,0-.23-2.57h4.25l.39,3.6-.25.22a5.42,5.42,0,0,1,2.27-3.15,7,7,0,0,1,4-1.14,7.37,7.37,0,0,1,4.2,1.21A8.26,8.26,0,0,1,165,24.75a11.25,11.25,0,0,1,1,5,11,11,0,0,1-1,4.95A7.9,7.9,0,0,1,162.13,38a7.81,7.81,0,0,1-4.22,1.13,7.11,7.11,0,0,1-4-1.1,5.3,5.3,0,0,1-2.27-3.11l.4-.58V46.62Zm9.21-11a4.18,4.18,0,0,0,3.46-1.53,6.84,6.84,0,0,0,1.22-4.34,7.22,7.22,0,0,0-1.22-4.47,4.14,4.14,0,0,0-3.46-1.58,4.22,4.22,0,0,0-3.51,1.53,7.09,7.09,0,0,0-1.2,4.45,7,7,0,0,0,1.2,4.39A4.2,4.2,0,0,0,156.76,35.64Z"/><path class="cls-3" d="M176.56,39.09c-3.31,0-5.93-.75-7.85-2.27L170,33.66a10.53,10.53,0,0,0,3.14,1.62,11.46,11.46,0,0,0,3.52.54,4.77,4.77,0,0,0,2.52-.54,1.7,1.7,0,0,0,.87-1.52,1.6,1.6,0,0,0-.61-1.31,5.77,5.77,0,0,0-2.09-.85l-3-.68a7.23,7.23,0,0,1-3.72-1.82,4.47,4.47,0,0,1-1.24-3.26,4.85,4.85,0,0,1,.93-2.93,6.2,6.2,0,0,1,2.63-2,10,10,0,0,1,3.92-.72,11.78,11.78,0,0,1,3.75.6,9.21,9.21,0,0,1,3.13,1.71l-1.3,3.09A10.49,10.49,0,0,0,179.6,24a8.52,8.52,0,0,0-2.82-.5,4.25,4.25,0,0,0-2.41.58,1.79,1.79,0,0,0-.87,1.58A1.63,1.63,0,0,0,174,27a4.29,4.29,0,0,0,1.82.76l3.06.75a7.56,7.56,0,0,1,3.94,1.86,5,5,0,0,1-.77,7.3A9.17,9.17,0,0,1,176.56,39.09Z"/><path class="cls-4" d="M59.91,28.86l-6,3.11a.73.73,0,0,0-.34.41l-1,3.19a.43.43,0,0,0,.61.51l3-1.58a.17.17,0,0,1,.24.21A13.38,13.38,0,0,1,44.52,43.2a9,9,0,1,1-.9-18,.43.43,0,0,0,.41-.43V21.39a.42.42,0,0,0-.44-.43A13.24,13.24,0,0,0,44,47.43a17.61,17.61,0,0,0,16.29-11,.17.17,0,0,1,.31,0l1.23,2.36a.43.43,0,0,0,.79-.07l1-3.2a.67.67,0,0,0,0-.52l-3.12-6a.43.43,0,0,0-.58-.18Z"/><path class="cls-1" d="M24.94,27.83l6-3.11a.74.74,0,0,0,.34-.4l1-3.2a.43.43,0,0,0-.61-.51l-3,1.58a.17.17,0,0,1-.24-.21,13.37,13.37,0,0,1,12-8.48,9,9,0,1,1,.9,18,.43.43,0,0,0-.41.43v3.37a.44.44,0,0,0,.44.43,13.24,13.24,0,0,0-.44-26.47,17.6,17.6,0,0,0-16.29,11,.17.17,0,0,1-.31,0L23,17.89a.43.43,0,0,0-.79.07l-1,3.2a.67.67,0,0,0,0,.52l3.12,6a.43.43,0,0,0,.58.18Z"/><path class="cls-5" d="M41.72,21.39v3.36a.43.43,0,0,1-.41.43,9,9,0,1,0,.9,18c.29,0,.58,0,.86-.06a9,9,0,0,1,.55-18,.43.43,0,0,0,.41-.43V21.39a.42.42,0,0,0-.44-.43,13.57,13.57,0,0,0-1.93.2.44.44,0,0,1,.06.23Z"/><path class="cls-5" d="M53.21,36.08l3-1.58a.17.17,0,0,1,.25.17c.19-.37.4-.85.57-1.29a.17.17,0,0,0-.23-.22l-4.08,2-.14.45a.43.43,0,0,0,.61.51Z"/><path class="cls-5" d="M63.61,35l-3.12-6a.43.43,0,0,0-.58-.18l-1.43.75L61.3,35a.67.67,0,0,1,0,.52L60.9,37l1,1.85a.43.43,0,0,0,.79-.07l1-3.2a.67.67,0,0,0,0-.52Z"/><path class="cls-5" d="M59.82,34.89a.37.37,0,0,0-.66,0c-2.64,6-9.52,12-16.2,12.46.35,0,.71,0,1.07,0a17.61,17.61,0,0,0,16.29-11,.17.17,0,0,1,.28-.06Z"/><path class="cls-6" d="M38,13.5c-5.6.2-10.33,5.06-12.12,10.1l2.67-1.39a.17.17,0,0,1-.2-.23,13.4,13.4,0,0,1,11-8.42h0A8.68,8.68,0,0,0,38,13.5Z"/><path class="cls-6" d="M40.82,9.27c-.42,0-.83,0-1.24,0a13.24,13.24,0,0,1,1.3,26.22.44.44,0,0,0,.38.21,13.24,13.24,0,0,0-.44-26.47Z"/><path class="cls-6" d="M31.64,20.61l-1.84,1-.86,2.74a.74.74,0,0,1-.34.4l-4.53,2.37.29.56a.43.43,0,0,0,.58.18l6-3.11a.74.74,0,0,0,.34-.4l1-3.2A.43.43,0,0,0,31.64,20.61Z"/><path class="cls-6" d="M23.53,22c.25-.54.62-1.13.93-1.66a.16.16,0,0,1-.24-.06L23,17.89a.43.43,0,0,0-.79.07l-.55,1.77L23.15,22a.22.22,0,0,0,.38,0Z"/></g></g></svg>