<svg xmlns="http://www.w3.org/2000/svg" viewBox="0 0 595.28 68.69"><defs><style>.cls-1{fill:none;}.cls-2{fill:#3e863f;}.cls-3{fill:#4da649;}.cls-4{fill:#81c181;}.cls-5{opacity:0.6;}.cls-6{fill:#fff;}.cls-7{fill:#010101;}.cls-8{isolation:isolate;}.cls-9{fill:#b3d5ae;}</style></defs><g id="Layer_2" data-name="Layer 2"><g id="Layer_1-2" data-name="Layer 1"><rect class="cls-1" width="595.28" height="18"/><path class="cls-2" d="M1,9A8,8,0,0,1,9,1h7l6,4h3l6-4H156.78V26H9a8,8,0,0,1-8-8Z"/><path class="cls-3" d="M0,8A8,8,0,0,1,8,0h7l6,4h3l6-4H155.78V25H8a8,8,0,0,1-8-8Z"/><path class="cls-4" d="M2.34,22.66A8,8,0,0,1,0,17V8H1v9A7,7,0,0,0,3.05,22ZM1,7.53,0,7.47A8,8,0,0,1,8,0h7.17l6,4h2.7l6-4H155.28V1H30.15l-6,4h-3.3l-6-4H8A7,7,0,0,0,1,7.53Z"/><g class="cls-5"><rect class="cls-6" x="10" y="5" width="90.58" height="16" rx="4"/></g><polygon class="cls-7" points="89.83 17.31 94.81 8.69 84.85 8.69 89.83 17.31"/><g class="cls-8"><path class="cls-7" d="M16.17,17.5v-11h1.21v5.43l-.16-.15a2.56,2.56,0,0,1,1-1.45,3,3,0,0,1,1.75-.52,3.17,3.17,0,0,1,1.75.48,3.31,3.31,0,0,1,1.18,1.35,4.7,4.7,0,0,1,.43,2.06,4.86,4.86,0,0,1-.43,2.08,3.35,3.35,0,0,1-1.19,1.38,3.16,3.16,0,0,1-1.74.48,2.94,2.94,0,0,1-1.75-.51,2.5,2.5,0,0,1-1-1.45l.16-.17v2Zm3.54-.9a2.08,2.08,0,0,0,1.71-.77A3.42,3.42,0,0,0,22,13.66a3.27,3.27,0,0,0-.62-2.12,2.09,2.09,0,0,0-1.71-.75,2.1,2.1,0,0,0-1.73.76,3.45,3.45,0,0,0-.6,2.14,3.44,3.44,0,0,0,.6,2.15A2.07,2.07,0,0,0,19.71,16.6Z"/><path class="cls-7" d="M25.17,17.5V12.07c0-.35,0-.7,0-1.06s0-.71-.1-1.06h1.16l.16,1.86-.16,0a2.31,2.31,0,0,1,.9-1.49,2.61,2.61,0,0,1,1.57-.51,2.22,2.22,0,0,1,.37,0,1.65,1.65,0,0,1,.32.06l0,1.11a2.39,2.39,0,0,0-.79-.12,2.11,2.11,0,0,0-1.26.35,2.06,2.06,0,0,0-.69.88,3,3,0,0,0-.22,1.11V17.5Z"/><path class="cls-7" d="M36.63,16.6a3.48,3.48,0,0,1-1.27.73,4.73,4.73,0,0,1-1.58.27,4.16,4.16,0,0,1-2-.46,3.17,3.17,0,0,1-1.3-1.34A4.46,4.46,0,0,1,30,13.7a4.45,4.45,0,0,1,.45-2,3.41,3.41,0,0,1,1.25-1.38,3.46,3.46,0,0,1,1.85-.5,3.21,3.21,0,0,1,1.73.45,2.77,2.77,0,0,1,1.1,1.26,4.6,4.6,0,0,1,.38,2v.23H31.07v-.8h5l-.39.56a3.17,3.17,0,0,0-.51-2,1.91,1.91,0,0,0-1.6-.7,2.11,2.11,0,0,0-1.72.77,3.36,3.36,0,0,0-.62,2.14,3.32,3.32,0,0,0,.65,2.22,2.41,2.41,0,0,0,1.92.75,3.59,3.59,0,0,0,1.26-.22,3.8,3.8,0,0,0,1.16-.67Z"/><path class="cls-7" d="M41.5,17.6a3.24,3.24,0,0,1-1.76-.47,3.11,3.11,0,0,1-1.17-1.35,4.85,4.85,0,0,1-.41-2.06,4.78,4.78,0,0,1,.42-2.07,3.26,3.26,0,0,1,1.18-1.38,3.09,3.09,0,0,1,1.74-.5,3,3,0,0,1,1.76.51,2.48,2.48,0,0,1,1,1.46l-.17.12V10h1.19V17.5H44.06V15.55l.17.09a2.45,2.45,0,0,1-1,1.45A3,3,0,0,1,41.5,17.6Zm.25-1a2.07,2.07,0,0,0,1.71-.76,3.38,3.38,0,0,0,.6-2.15,3.38,3.38,0,0,0-.61-2.15,2.32,2.32,0,0,0-3.44,0,3.36,3.36,0,0,0-.62,2.15A3.28,3.28,0,0,0,40,15.85,2.14,2.14,0,0,0,41.75,16.6Z"/><path class="cls-7" d="M47.61,17.5v-11h1.21v11Zm5.08,0-4.11-3.86L52.38,10h1.54l-4.2,4,.05-.77,4.51,4.28Z"/><path class="cls-7" d="M62.37,17.6a3.58,3.58,0,0,1-1.88-.48,3.26,3.26,0,0,1-1.25-1.35,4.65,4.65,0,0,1-.44-2.08,4.64,4.64,0,0,1,.44-2.07,3.26,3.26,0,0,1,1.25-1.37,3.92,3.92,0,0,1,3.76,0,3.26,3.26,0,0,1,1.25,1.37,4.64,4.64,0,0,1,.44,2.07,4.65,4.65,0,0,1-.44,2.08,3.26,3.26,0,0,1-1.25,1.35A3.58,3.58,0,0,1,62.37,17.6Zm0-1a2.12,2.12,0,0,0,1.72-.74,3.4,3.4,0,0,0,.6-2.17,3.32,3.32,0,0,0-.61-2.15,2.09,2.09,0,0,0-1.71-.75,2.12,2.12,0,0,0-1.72.75A3.32,3.32,0,0,0,60,13.69a3.34,3.34,0,0,0,.61,2.17A2.11,2.11,0,0,0,62.37,16.6Z"/><path class="cls-7" d="M70.5,17.6a2.6,2.6,0,0,1-2-.75,3.17,3.17,0,0,1-.69-2.22V10H69V14.6a2.24,2.24,0,0,0,.42,1.5,1.59,1.59,0,0,0,1.27.48,2.13,2.13,0,0,0,1.62-.64,2.41,2.41,0,0,0,.62-1.73V10h1.21V17.5H73V15.86l.18-.09a2.55,2.55,0,0,1-1,1.37A2.93,2.93,0,0,1,70.5,17.6Z"/><path class="cls-7" d="M75.42,10.91V10h4.84v1Zm4.81,5.51v1a2.95,2.95,0,0,1-1,.15,2.31,2.31,0,0,1-1.67-.6,2.41,2.41,0,0,1-.62-1.8V8l1.21-.44V15a2,2,0,0,0,.18.93,1,1,0,0,0,.47.46,1.78,1.78,0,0,0,.67.12,2.54,2.54,0,0,0,.41,0A2.59,2.59,0,0,0,80.23,16.42Z"/></g><g class="cls-8"><path class="cls-6" d="M109.87,17.6a3.6,3.6,0,0,1-1.88-.48,3.24,3.24,0,0,1-1.24-1.35,4.52,4.52,0,0,1-.45-2.08,4.51,4.51,0,0,1,.45-2.07A3.24,3.24,0,0,1,108,10.25a3.6,3.6,0,0,1,1.88-.48,3.64,3.64,0,0,1,1.89.48A3.24,3.24,0,0,1,113,11.62a4.51,4.51,0,0,1,.44,2.07,4.52,4.52,0,0,1-.44,2.08,3.24,3.24,0,0,1-1.24,1.35A3.64,3.64,0,0,1,109.87,17.6Zm0-1a2.11,2.11,0,0,0,1.72-.74,3.34,3.34,0,0,0,.61-2.17,3.32,3.32,0,0,0-.62-2.15,2.32,2.32,0,0,0-3.42,0,3.26,3.26,0,0,0-.63,2.15,3.4,3.4,0,0,0,.61,2.17A2.13,2.13,0,0,0,109.87,16.6Z"/><path class="cls-6" d="M114.25,10.91V10h4.53v1ZM119,7.57a2.85,2.85,0,0,0-.78-.12,1.54,1.54,0,0,0-.65.13.91.91,0,0,0-.46.45,2.11,2.11,0,0,0-.16.92V17.5h-1.22V8.8a2.45,2.45,0,0,1,.6-1.81A2.27,2.27,0,0,1,118,6.4l.51,0a3.06,3.06,0,0,1,.51.1Z"/><path class="cls-6" d="M124.29,17.5v-11h1.21v11Z"/><path class="cls-6" d="M131,17.6a3.58,3.58,0,0,1-1.88-.48,3.26,3.26,0,0,1-1.25-1.35,4.65,4.65,0,0,1-.44-2.08,4.64,4.64,0,0,1,.44-2.07,3.26,3.26,0,0,1,1.25-1.37,3.92,3.92,0,0,1,3.76,0,3.26,3.26,0,0,1,1.25,1.37,4.64,4.64,0,0,1,.44,2.07,4.65,4.65,0,0,1-.44,2.08,3.26,3.26,0,0,1-1.25,1.35A3.58,3.58,0,0,1,131,17.6Zm0-1a2.12,2.12,0,0,0,1.72-.74,3.4,3.4,0,0,0,.6-2.17,3.32,3.32,0,0,0-.61-2.15,2.09,2.09,0,0,0-1.71-.75,2.12,2.12,0,0,0-1.72.75,3.32,3.32,0,0,0-.62,2.15,3.34,3.34,0,0,0,.61,2.17A2.11,2.11,0,0,0,131,16.6Z"/><path class="cls-6" d="M139.56,17.6a3.58,3.58,0,0,1-1.88-.48,3.26,3.26,0,0,1-1.25-1.35,4.65,4.65,0,0,1-.44-2.08,4.64,4.64,0,0,1,.44-2.07,3.26,3.26,0,0,1,1.25-1.37,3.92,3.92,0,0,1,3.76,0,3.26,3.26,0,0,1,1.25,1.37,4.64,4.64,0,0,1,.44,2.07,4.65,4.65,0,0,1-.44,2.08,3.26,3.26,0,0,1-1.25,1.35A3.58,3.58,0,0,1,139.56,17.6Zm0-1a2.12,2.12,0,0,0,1.72-.74,3.4,3.4,0,0,0,.6-2.17,3.32,3.32,0,0,0-.61-2.15,2.09,2.09,0,0,0-1.71-.75,2.12,2.12,0,0,0-1.72.75,3.32,3.32,0,0,0-.62,2.15,3.34,3.34,0,0,0,.61,2.17A2.11,2.11,0,0,0,139.56,16.6Z"/><path class="cls-6" d="M145,20.74V12.07c0-.35,0-.7,0-1.06s-.05-.71-.1-1.06h1.15l.14,1.56-.12.23a2.52,2.52,0,0,1,1-1.46,2.93,2.93,0,0,1,1.74-.51,3.12,3.12,0,0,1,1.75.5,3.35,3.35,0,0,1,1.19,1.38,4.78,4.78,0,0,1,.42,2.07,4.7,4.7,0,0,1-.42,2.06,3.1,3.1,0,0,1-2.94,1.82,2.93,2.93,0,0,1-1.74-.51,2.5,2.5,0,0,1-1-1.45l.16-.15v5.25Zm3.54-4.14a2.09,2.09,0,0,0,1.71-.75,3.28,3.28,0,0,0,.61-2.13,3.36,3.36,0,0,0-.61-2.15,2.06,2.06,0,0,0-1.71-.78,2.09,2.09,0,0,0-1.73.75,3.38,3.38,0,0,0-.6,2.15,3.38,3.38,0,0,0,.6,2.15A2.07,2.07,0,0,0,148.56,16.6Z"/></g><rect class="cls-9" x="10" y="31.69" width="199.77" height="37" rx="5.67"/><g class="cls-8"><path class="cls-7" d="M16.17,45.54v-11h1.21v5.43l-.16-.15a2.53,2.53,0,0,1,1-1.45,2.88,2.88,0,0,1,1.75-.52,3.17,3.17,0,0,1,1.75.48,3.31,3.31,0,0,1,1.18,1.35,4.7,4.7,0,0,1,.43,2.06,4.78,4.78,0,0,1-.43,2.07,3.23,3.23,0,0,1-1.19,1.38,3.08,3.08,0,0,1-1.74.49,2.94,2.94,0,0,1-1.75-.51,2.53,2.53,0,0,1-1-1.45l.16-.17v2Zm3.54-.9a2.06,2.06,0,0,0,1.71-.78A3.37,3.37,0,0,0,22,41.7a3.27,3.27,0,0,0-.62-2.12,2.09,2.09,0,0,0-1.71-.75,2.07,2.07,0,0,0-1.73.76,4.13,4.13,0,0,0,0,4.29A2.1,2.1,0,0,0,19.71,44.64Z"/><path class="cls-7" d="M25.17,45.54V40.11c0-.35,0-.71,0-1.06s0-.71-.1-1.06h1.16l.16,1.86-.16-.05a2.36,2.36,0,0,1,.9-1.49,2.67,2.67,0,0,1,1.57-.5l.37,0,.32.07,0,1.11a2.39,2.39,0,0,0-.79-.12,2,2,0,0,0-1.95,1.22,3.06,3.06,0,0,0-.22,1.12v4.31Z"/><path class="cls-7" d="M36.63,44.64a3.48,3.48,0,0,1-1.27.73,4.73,4.73,0,0,1-1.58.27,4.16,4.16,0,0,1-2-.46,3.14,3.14,0,0,1-1.3-1.35A4.39,4.39,0,0,1,30,41.74a4.45,4.45,0,0,1,.45-2.05A3.51,3.51,0,0,1,31.7,38.3a3.55,3.55,0,0,1,1.85-.49,3.29,3.29,0,0,1,1.73.44,2.85,2.85,0,0,1,1.1,1.27,4.6,4.6,0,0,1,.38,2v.23H31.07v-.8h5l-.39.56a3.17,3.17,0,0,0-.51-2,1.91,1.91,0,0,0-1.6-.7,2.08,2.08,0,0,0-1.72.77,3.34,3.34,0,0,0-.62,2.14,3.32,3.32,0,0,0,.65,2.22,2.41,2.41,0,0,0,1.92.75,3.84,3.84,0,0,0,1.26-.22,4,4,0,0,0,1.16-.67Z"/><path class="cls-7" d="M41.5,45.64a3.33,3.33,0,0,1-1.76-.47,3.22,3.22,0,0,1-1.17-1.35,4.88,4.88,0,0,1-.41-2.06,4.78,4.78,0,0,1,.42-2.07,3.35,3.35,0,0,1,1.18-1.39,3.16,3.16,0,0,1,1.74-.49,3,3,0,0,1,1.76.51,2.48,2.48,0,0,1,1,1.46l-.17.12V38h1.19v7.55H44.06V43.59l.17.09a2.48,2.48,0,0,1-1,1.45A3,3,0,0,1,41.5,45.64Zm.25-1a2.1,2.1,0,0,0,1.71-.76,3.4,3.4,0,0,0,.6-2.15,3.38,3.38,0,0,0-.61-2.15,2.08,2.08,0,0,0-1.7-.75A2.12,2.12,0,0,0,40,39.6a3.41,3.41,0,0,0-.62,2.16A3.28,3.28,0,0,0,40,43.89,2.14,2.14,0,0,0,41.75,44.64Z"/><path class="cls-7" d="M47.61,45.54v-11h1.21v11Zm5.08,0-4.11-3.86L52.38,38h1.54l-4.2,4,.05-.77,4.51,4.28Z"/><path class="cls-7" d="M62.37,45.64a3.58,3.58,0,0,1-1.88-.48,3.23,3.23,0,0,1-1.25-1.36,4.58,4.58,0,0,1-.44-2.07,4.64,4.64,0,0,1,.44-2.07,3.26,3.26,0,0,1,1.25-1.37,3.92,3.92,0,0,1,3.76,0,3.26,3.26,0,0,1,1.25,1.37,4.64,4.64,0,0,1,.44,2.07,4.58,4.58,0,0,1-.44,2.07,3.23,3.23,0,0,1-1.25,1.36A3.58,3.58,0,0,1,62.37,45.64Zm0-1a2.1,2.1,0,0,0,1.72-.75,3.35,3.35,0,0,0,.6-2.16,3.32,3.32,0,0,0-.61-2.15,2.09,2.09,0,0,0-1.71-.75,2.12,2.12,0,0,0-1.72.75A3.32,3.32,0,0,0,60,41.73a3.29,3.29,0,0,0,.61,2.16A2.09,2.09,0,0,0,62.37,44.64Z"/><path class="cls-7" d="M70.5,45.64a2.6,2.6,0,0,1-2-.75,3.17,3.17,0,0,1-.69-2.22V38H69v4.65a2.24,2.24,0,0,0,.42,1.5,1.59,1.59,0,0,0,1.27.48A2.13,2.13,0,0,0,72.31,44a2.41,2.41,0,0,0,.62-1.73V38h1.21v7.55H73V43.9l.18-.09a2.55,2.55,0,0,1-1,1.37A2.93,2.93,0,0,1,70.5,45.64Z"/><path class="cls-7" d="M75.42,39V38h4.84v1Zm4.81,5.51v1a3,3,0,0,1-.5.11,3.09,3.09,0,0,1-.55,0,2.31,2.31,0,0,1-1.67-.6,2.41,2.41,0,0,1-.62-1.8V36.05l1.21-.43v7.46a2,2,0,0,0,.18.93.89.89,0,0,0,.47.45,1.6,1.6,0,0,0,.67.13,2.54,2.54,0,0,0,.41,0A2.59,2.59,0,0,0,80.23,44.46Z"/><path class="cls-7" d="M19.34,63.64a3.67,3.67,0,0,1-1.92-.48,3.29,3.29,0,0,1-1.26-1.35,4.52,4.52,0,0,1-.44-2.05,4.57,4.57,0,0,1,.45-2.07,3.48,3.48,0,0,1,1.27-1.39,3.85,3.85,0,0,1,2-.49,4.34,4.34,0,0,1,1.47.26,3.24,3.24,0,0,1,1.18.73l-.4.9a4.54,4.54,0,0,0-1.09-.65,2.81,2.81,0,0,0-1.1-.22,2.29,2.29,0,0,0-1.81.76A3.2,3.2,0,0,0,17,59.76a3.12,3.12,0,0,0,.66,2.13,2.3,2.3,0,0,0,1.82.75,3,3,0,0,0,1.09-.22,4.73,4.73,0,0,0,1.1-.65l.4.9a3.49,3.49,0,0,1-1.21.71A4.46,4.46,0,0,1,19.34,63.64Z"/><path class="cls-7" d="M26.71,63.64a3.6,3.6,0,0,1-1.88-.48,3.21,3.21,0,0,1-1.24-1.36,4.45,4.45,0,0,1-.44-2.07,4.51,4.51,0,0,1,.44-2.07,3.24,3.24,0,0,1,1.24-1.37,3.6,3.6,0,0,1,1.88-.48,3.64,3.64,0,0,1,1.89.48,3.24,3.24,0,0,1,1.24,1.37,4.51,4.51,0,0,1,.44,2.07,4.45,4.45,0,0,1-.44,2.07,3.21,3.21,0,0,1-1.24,1.36A3.64,3.64,0,0,1,26.71,63.64Zm0-1a2.08,2.08,0,0,0,1.72-.75,4.08,4.08,0,0,0,0-4.31,2.32,2.32,0,0,0-3.42,0,3.26,3.26,0,0,0-.62,2.15,3.35,3.35,0,0,0,.6,2.16A2.1,2.1,0,0,0,26.71,62.64Z"/><path class="cls-7" d="M32.17,63.54V58.11c0-.35,0-.71,0-1.06a7.46,7.46,0,0,0-.1-1.06h1.16l.13,1.56-.15.12a2.58,2.58,0,0,1,1.06-1.39,3.06,3.06,0,0,1,1.69-.47c1.81,0,2.71,1,2.71,3v4.74H37.44V58.86A2.32,2.32,0,0,0,37,57.32a1.64,1.64,0,0,0-1.32-.49,2.24,2.24,0,0,0-1.68.65,2.38,2.38,0,0,0-.63,1.74v4.32Z"/><path class="cls-7" d="M39.88,57V56h4.85v1Zm4.82,5.51v1a3.22,3.22,0,0,1-.5.11,3.16,3.16,0,0,1-.55,0A2.29,2.29,0,0,1,42,63a2.37,2.37,0,0,1-.62-1.8V54.05l1.21-.43v7.46a2.11,2.11,0,0,0,.17.93.93.93,0,0,0,.47.45,1.65,1.65,0,0,0,.68.13,2.63,2.63,0,0,0,.41,0A2.9,2.9,0,0,0,44.7,62.46Z"/><path class="cls-7" d="M46.08,52.8h1.48v1.38H46.08Zm.12,10.74V56h1.21v7.55Z"/><path class="cls-7" d="M49.77,63.54V58.11c0-.35,0-.71,0-1.06s0-.71-.1-1.06H50.8l.14,1.56-.15.12a2.61,2.61,0,0,1,1.05-1.39,3.09,3.09,0,0,1,1.69-.47c1.81,0,2.72,1,2.72,3v4.74H55V58.86a2.32,2.32,0,0,0-.42-1.54,1.64,1.64,0,0,0-1.32-.49,2.24,2.24,0,0,0-1.68.65A2.38,2.38,0,0,0,51,59.22v4.32Z"/><path class="cls-7" d="M61.21,63.64a2.61,2.61,0,0,1-2-.75,3.22,3.22,0,0,1-.68-2.22V56h1.21v4.65a2.24,2.24,0,0,0,.42,1.5,1.62,1.62,0,0,0,1.28.48A2.13,2.13,0,0,0,63,62a2.41,2.41,0,0,0,.61-1.73V56h1.22v7.55H63.67V61.9l.18-.09a2.5,2.5,0,0,1-1,1.37A2.9,2.9,0,0,1,61.21,63.64Z"/><path class="cls-7" d="M73.38,62.64a3.48,3.48,0,0,1-1.27.73,4.73,4.73,0,0,1-1.58.27,4.16,4.16,0,0,1-2-.46,3.14,3.14,0,0,1-1.3-1.35,4.39,4.39,0,0,1-.46-2.09,4.45,4.45,0,0,1,.45-2.05,3.51,3.51,0,0,1,1.25-1.39,3.55,3.55,0,0,1,1.85-.49,3.29,3.29,0,0,1,1.73.44,2.85,2.85,0,0,1,1.1,1.27,4.6,4.6,0,0,1,.38,2v.23h-5.7v-.8h5l-.39.56a3.17,3.17,0,0,0-.51-2,1.91,1.91,0,0,0-1.6-.7,2.08,2.08,0,0,0-1.72.77,4.06,4.06,0,0,0,0,4.36,2.4,2.4,0,0,0,1.91.75,3.85,3.85,0,0,0,1.27-.22A4,4,0,0,0,73,61.75Z"/><path class="cls-7" d="M81.3,63.54,78.51,56h1.27l2.33,6.65h-.39L84.12,56h1.06l2.37,6.65h-.39L89.53,56h1.2l-2.79,7.55H86.77l-2.49-6.8h.66l-2.47,6.8Z"/><path class="cls-7" d="M92.19,52.8h1.48v1.38H92.19Zm.12,10.74V56h1.21v7.55Z"/><path class="cls-7" d="M94.81,57V56h4.85v1Zm4.82,5.51v1a3.22,3.22,0,0,1-.5.11,3.16,3.16,0,0,1-.55,0,2.29,2.29,0,0,1-1.67-.6,2.37,2.37,0,0,1-.63-1.8V54.05l1.22-.43v7.46a2.11,2.11,0,0,0,.17.93.93.93,0,0,0,.47.45,1.65,1.65,0,0,0,.68.13,2.41,2.41,0,0,0,.4,0A2.69,2.69,0,0,0,99.63,62.46Z"/><path class="cls-7" d="M101.13,63.54v-11h1.21v5l-.19.15a2.61,2.61,0,0,1,1-1.39,3.09,3.09,0,0,1,1.69-.47c1.81,0,2.72,1,2.72,3v4.74h-1.22V58.86a2.32,2.32,0,0,0-.42-1.54,1.64,1.64,0,0,0-1.32-.49,2.24,2.24,0,0,0-1.68.65,2.38,2.38,0,0,0-.63,1.74v4.32Z"/><path class="cls-7" d="M113.82,63.54V58.11c0-.35,0-.71,0-1.06s0-.71-.1-1.06h1.15l.14,1.56-.15.12a2.61,2.61,0,0,1,1-1.39,3.09,3.09,0,0,1,1.69-.47c1.81,0,2.72,1,2.72,3v4.74h-1.22V58.86a2.32,2.32,0,0,0-.42-1.54,1.64,1.64,0,0,0-1.32-.49,2.24,2.24,0,0,0-1.68.65,2.38,2.38,0,0,0-.63,1.74v4.32Z"/><path class="cls-7" d="M128.77,62.64a3.52,3.52,0,0,1-1.26.73,4.83,4.83,0,0,1-1.59.27,4.09,4.09,0,0,1-2-.46,3.16,3.16,0,0,1-1.31-1.35,4.51,4.51,0,0,1-.46-2.09,4.45,4.45,0,0,1,.45-2.05,3.46,3.46,0,0,1,1.26-1.39,3.52,3.52,0,0,1,1.85-.49,3.26,3.26,0,0,1,1.72.44,2.93,2.93,0,0,1,1.11,1.27,4.76,4.76,0,0,1,.38,2v.23h-5.7v-.8h5l-.39.56a3.11,3.11,0,0,0-.52-2,1.9,1.9,0,0,0-1.6-.7,2,2,0,0,0-1.71.77,4,4,0,0,0,0,4.36,2.39,2.39,0,0,0,1.91.75,3.9,3.9,0,0,0,1.27-.22,4.15,4.15,0,0,0,1.16-.67Z"/><path class="cls-7" d="M131.13,63.54h-1.49l3.14-3.89.7-.88L135.67,56h1.49l-2.94,3.66-.74.92Zm4.74,0-2.39-3-.7-.92-3-3.66h1.47l2.19,2.78.74.88,3.1,3.89Z"/><path class="cls-7" d="M137.61,57V56h4.84v1Zm4.81,5.51v1a3,3,0,0,1-.5.11,3.09,3.09,0,0,1-.55,0,2.31,2.31,0,0,1-1.67-.6,2.41,2.41,0,0,1-.62-1.8V54.05l1.21-.43v7.46a2,2,0,0,0,.18.93.89.89,0,0,0,.47.45,1.6,1.6,0,0,0,.67.13,2.54,2.54,0,0,0,.41,0A2.59,2.59,0,0,0,142.42,62.46Z"/><path class="cls-7" d="M147.72,52.8h1.48v1.38h-1.48Zm.12,10.74V56h1.21v7.55Z"/><path class="cls-7" d="M150.34,57V56h4.85v1Zm4.82,5.51v1a3.1,3.1,0,0,1-.51.11,3,3,0,0,1-.54,0,2.33,2.33,0,0,1-1.68-.6,2.41,2.41,0,0,1-.62-1.8V54.05l1.22-.43v7.46a2.11,2.11,0,0,0,.17.93.89.89,0,0,0,.47.45,1.65,1.65,0,0,0,.68.13,2.41,2.41,0,0,0,.4,0A2.69,2.69,0,0,0,155.16,62.46Z"/><path class="cls-7" d="M162.84,62.64a3.48,3.48,0,0,1-1.27.73,4.77,4.77,0,0,1-1.58.27,4.13,4.13,0,0,1-2-.46,3.08,3.08,0,0,1-1.3-1.35,4.39,4.39,0,0,1-.46-2.09,4.45,4.45,0,0,1,.45-2.05,3.43,3.43,0,0,1,1.25-1.39,3.52,3.52,0,0,1,1.85-.49,3.29,3.29,0,0,1,1.73.44,2.85,2.85,0,0,1,1.1,1.27,4.76,4.76,0,0,1,.38,2v.23h-5.7v-.8h5l-.39.56a3.17,3.17,0,0,0-.51-2,1.91,1.91,0,0,0-1.6-.7,2.07,2.07,0,0,0-1.72.77,4.06,4.06,0,0,0,0,4.36,2.4,2.4,0,0,0,1.91.75,3.9,3.9,0,0,0,1.27-.22,4.15,4.15,0,0,0,1.16-.67Z"/><path class="cls-7" d="M164.82,63.54V58.11c0-.35,0-.71,0-1.06A9.28,9.28,0,0,0,164.7,56h1.15l.17,1.86-.17-.05a2.37,2.37,0,0,1,.91-1.49,2.65,2.65,0,0,1,1.57-.5l.36,0,.33.07L169,57a2.45,2.45,0,0,0-.8-.12,2.06,2.06,0,0,0-1.25.35,2,2,0,0,0-.69.87,2.87,2.87,0,0,0-.22,1.12v4.31Z"/><path class="cls-7" d="M173,63.64a3.28,3.28,0,0,1-1.76-.47,3.09,3.09,0,0,1-1.17-1.35,5.35,5.35,0,0,1,0-4.13,3.4,3.4,0,0,1,1.17-1.39,3.22,3.22,0,0,1,1.75-.49,3,3,0,0,1,1.76.51,2.52,2.52,0,0,1,1,1.46l-.18.12V56h1.2v7.55h-1.2V61.59l.18.09a2.53,2.53,0,0,1-1,1.45A3,3,0,0,1,173,63.64Zm.24-1a2.07,2.07,0,0,0,1.71-.76,3.4,3.4,0,0,0,.6-2.15,3.32,3.32,0,0,0-.61-2.15,2.06,2.06,0,0,0-1.7-.75,2.1,2.1,0,0,0-1.73.77,3.35,3.35,0,0,0-.62,2.16,3.22,3.22,0,0,0,.62,2.13A2.12,2.12,0,0,0,173.23,62.64Z"/><path class="cls-7" d="M178,57V56h4.85v1Zm4.82,5.51v1a3.1,3.1,0,0,1-.51.11,3,3,0,0,1-.54,0,2.33,2.33,0,0,1-1.68-.6,2.41,2.41,0,0,1-.62-1.8V54.05l1.22-.43v7.46a2.11,2.11,0,0,0,.17.93.89.89,0,0,0,.47.45,1.65,1.65,0,0,0,.68.13,2.41,2.41,0,0,0,.4,0A2.69,2.69,0,0,0,182.85,62.46Z"/><path class="cls-7" d="M184.23,52.8h1.48v1.38h-1.48Zm.12,10.74V56h1.21v7.55Z"/><path class="cls-7" d="M191,63.64a3.64,3.64,0,0,1-1.89-.48,3.21,3.21,0,0,1-1.24-1.36,4.45,4.45,0,0,1-.44-2.07,4.51,4.51,0,0,1,.44-2.07,3.24,3.24,0,0,1,1.24-1.37,3.64,3.64,0,0,1,1.89-.48,3.6,3.6,0,0,1,1.88.48,3.24,3.24,0,0,1,1.24,1.37,4.51,4.51,0,0,1,.45,2.07,4.45,4.45,0,0,1-.45,2.07,3.21,3.21,0,0,1-1.24,1.36A3.6,3.6,0,0,1,191,63.64Zm0-1a2.06,2.06,0,0,0,1.71-.75,4.11,4.11,0,0,0,0-4.31,2.34,2.34,0,0,0-3.43,0,3.26,3.26,0,0,0-.62,2.15,3.35,3.35,0,0,0,.6,2.16A2.12,2.12,0,0,0,191,62.64Z"/><path class="cls-7" d="M196.5,63.54V58.11c0-.35,0-.71,0-1.06a9.28,9.28,0,0,0-.09-1.06h1.15l.14,1.56-.15.12a2.61,2.61,0,0,1,1-1.39,3.09,3.09,0,0,1,1.69-.47c1.81,0,2.72,1,2.72,3v4.74h-1.22V58.86a2.32,2.32,0,0,0-.42-1.54,1.64,1.64,0,0,0-1.32-.49,2.24,2.24,0,0,0-1.68.65,2.38,2.38,0,0,0-.63,1.74v4.32Z"/></g><polygon class="cls-7" points="199.12 45.35 204.1 36.72 194.15 36.72 199.12 45.35"/></g></g></svg>