<svg xmlns="http://www.w3.org/2000/svg" viewBox="0 0 595.28 134.19"><defs><style>.cls-1{fill:none;}.cls-2{fill:#3e863f;}.cls-3{fill:#4da649;}.cls-4{fill:#81c181;}.cls-5{fill:#3d4986;}.cls-6{fill:#4c5ba6;}.cls-7{fill:#818dc1;}.cls-8{opacity:0.6;}.cls-9{fill:#fff;}.cls-10{isolation:isolate;}.cls-11{fill:#010101;}.cls-12{fill:#e2e2e2;}.cls-13{fill:#b7b7b7;}</style></defs><g id="Layer_2" data-name="Layer 2"><g id="Layer_1-2" data-name="Layer 1"><rect class="cls-1" width="595.28" height="18"/><path class="cls-2" d="M1,9A8,8,0,0,1,9,1h7l6,4h3l6-4H363.18V37h-295l-6,4h-3l-6-4h-7a8,8,0,0,0-8,8v9a8,8,0,0,0,8,8h22V72H30.5l-6,4h-3l-6-4H9a8,8,0,0,1-8-8ZM200.77,6H170v5c0,10-8-8-8,7.5s8-2.5,8,7.5v7h30.8Zm79.11,0h-39.6v5c0,10-8-8-8,7.5s8-2.5,8,7.5v7h39.6Zm73.3,0h-30.8v5c0,10-8-8-8,7.5s8-2.5,8,7.5v7h30.8Z"/><path class="cls-3" d="M0,8A8,8,0,0,1,8,0h7l6,4h3l6-4H362.18V36h-295l-6,4h-3l-6-4h-7a8,8,0,0,0-8,8v9a8,8,0,0,0,8,8h22V71H29.5l-6,4h-3l-6-4H8a8,8,0,0,1-8-8ZM199.77,5H169v5c0,10-8-8-8,7.5s8-2.5,8,7.5v7h30.8Zm79.11,0h-39.6v5c0,10-8-8-8,7.5s8-2.5,8,7.5v7h39.6Zm73.3,0h-30.8v5c0,10-8-8-8,7.5s8-2.5,8,7.5v7h30.8Z"/><path class="cls-4" d="M2.34,68.66A8,8,0,0,1,0,63V8H1V63a7,7,0,0,0,2.05,5ZM66.68,62H45.18a8.94,8.94,0,0,1-6.36-2.64l.71-.7A7.94,7.94,0,0,0,45.18,61h21.5Zm286.5-29h-31.3V32h30.3V5.5h1Zm-73.3,0h-40.1V32h39.1V5.5h1Zm-79.11,0h-31.3V32h30.3V5.5h1Zm115.76-8.27-.49-.86,3.68-2.1.49.86Zm-82.1,0-.49-.86,3.68-2.1.49.86Zm-70.32,0-.49-.86,3.68-2.1.49.86ZM1,7.53,0,7.47A8,8,0,0,1,8,0h7.17l6,4h2.7l6-4H361.68V1H30.15l-6,4h-3.3l-6-4H8A7,7,0,0,0,1,7.53Z"/><path class="cls-5" d="M171,7h28.8V32H171V27c0-10-8,8-8-7.5s8,2.5,8-7.5Z"/><path class="cls-6" d="M170,6h28.8V31H170V26c0-10-8,8-8-7.5s8,2.5,8-7.5Z"/><path class="cls-7" d="M171,30.5h-1v-6h1Zm-8.35-6.37a20.9,20.9,0,0,1,0-11.26l1,.26a19.79,19.79,0,0,0,0,10.74ZM171,14h-1V6h28.3V7H171Z"/><g class="cls-8"><rect class="cls-9" x="174.97" y="11" width="18.8" height="16" rx="4"/></g><g class="cls-10"><path class="cls-11" d="M181.89,23.5v-1h6v1Zm2.35-.56v-9.4l.71.36-2.9,1.84V14.56l2.73-1.74h.71V22.94Z"/></g><path class="cls-5" d="M241.28,7h37.6V32h-37.6V27c0-10-8,8-8-7.5s8,2.5,8-7.5Z"/><path class="cls-6" d="M240.28,6h37.6V31h-37.6V26c0-10-8,8-8-7.5s8,2.5,8-7.5Z"/><path class="cls-7" d="M241.28,30.5h-1v-6h1Zm-8.34-6.37a20.9,20.9,0,0,1,0-11.26l1,.26a19.79,19.79,0,0,0,0,10.74ZM241.28,14h-1V6h37.1V7h-36.1Z"/><g class="cls-8"><rect class="cls-9" x="245.28" y="11" width="27.6" height="16" rx="4"/></g><g class="cls-10"><path class="cls-11" d="M252.2,23.5v-1h6v1Zm2.36-.56v-9.4l.7.36-2.89,1.84V14.56l2.73-1.74h.7V22.94Z"/><path class="cls-11" d="M263.78,23.62A3.15,3.15,0,0,1,261,22.23a7.22,7.22,0,0,1-.95-4.07,7.23,7.23,0,0,1,.94-4.07,3.5,3.5,0,0,1,5.58,0,7.17,7.17,0,0,1,.95,4.05,7.28,7.28,0,0,1-.95,4.08A3.18,3.18,0,0,1,263.78,23.62Zm0-1a2,2,0,0,0,1.89-1.08,7.19,7.19,0,0,0,.6-3.36,7,7,0,0,0-.6-3.33,2.21,2.21,0,0,0-3.77,0,7,7,0,0,0-.61,3.33,7.17,7.17,0,0,0,.61,3.36A2,2,0,0,0,263.78,22.58Z"/></g><path class="cls-5" d="M323.38,7h28.8V32h-28.8V27c0-10-8,8-8-7.5s8,2.5,8-7.5Z"/><path class="cls-6" d="M322.38,6h28.8V31h-28.8V26c0-10-8,8-8-7.5s8,2.5,8-7.5Z"/><path class="cls-7" d="M323.38,30.5h-1v-6h1ZM315,24.13a20.9,20.9,0,0,1,0-11.26l1,.26a19.79,19.79,0,0,0,0,10.74ZM323.38,14h-1V6h28.3V7h-27.3Z"/><g class="cls-8"><rect class="cls-9" x="327.38" y="11" width="18.8" height="16" rx="4"/></g><g class="cls-10"><path class="cls-11" d="M334.3,23.5v-1h6v1Zm2.36-.56v-9.4l.7.36-2.89,1.84V14.56l2.73-1.74h.7V22.94Z"/></g><g class="cls-10"><path class="cls-9" d="M14.34,22.6a3.67,3.67,0,0,1-1.92-.48,3.29,3.29,0,0,1-1.26-1.35,4.52,4.52,0,0,1-.44-2.05,4.5,4.5,0,0,1,.45-2.06,3.36,3.36,0,0,1,1.27-1.39,3.76,3.76,0,0,1,2-.5,4.12,4.12,0,0,1,1.47.27,3.1,3.1,0,0,1,1.18.72l-.4.9A4.89,4.89,0,0,0,15.56,16a3,3,0,0,0-1.1-.22,2.26,2.26,0,0,0-1.81.77A3.16,3.16,0,0,0,12,18.72a3.12,3.12,0,0,0,.66,2.13,2.3,2.3,0,0,0,1.82.75,2.83,2.83,0,0,0,1.09-.22,4.4,4.4,0,0,0,1.1-.65l.4.9a3.34,3.34,0,0,1-1.21.71A4.23,4.23,0,0,1,14.34,22.6Z"/><path class="cls-9" d="M21.71,22.6a3.6,3.6,0,0,1-1.88-.48,3.24,3.24,0,0,1-1.24-1.35,4.52,4.52,0,0,1-.44-2.08,4.51,4.51,0,0,1,.44-2.07,3.24,3.24,0,0,1,1.24-1.37,3.6,3.6,0,0,1,1.88-.48,3.64,3.64,0,0,1,1.89.48,3.24,3.24,0,0,1,1.24,1.37,4.51,4.51,0,0,1,.44,2.07,4.52,4.52,0,0,1-.44,2.08,3.24,3.24,0,0,1-1.24,1.35A3.64,3.64,0,0,1,21.71,22.6Zm0-1a2.11,2.11,0,0,0,1.72-.74A3.34,3.34,0,0,0,24,18.69a3.26,3.26,0,0,0-.62-2.15,2.32,2.32,0,0,0-3.42,0,3.26,3.26,0,0,0-.62,2.15,3.4,3.4,0,0,0,.6,2.17A2.13,2.13,0,0,0,21.71,21.6Z"/><path class="cls-9" d="M29.84,22.6a2.61,2.61,0,0,1-2-.75,3.22,3.22,0,0,1-.68-2.22V15h1.21V19.6a2.24,2.24,0,0,0,.42,1.5,1.63,1.63,0,0,0,1.28.48,2.13,2.13,0,0,0,1.62-.64,2.41,2.41,0,0,0,.62-1.73V15h1.21V22.5H32.3V20.86l.18-.09a2.5,2.5,0,0,1-1,1.37A2.9,2.9,0,0,1,29.84,22.6Z"/><path class="cls-9" d="M35.83,22.5V17.07c0-.35,0-.7,0-1.06s-.05-.71-.1-1.06h1.15L37,16.51l-.15.12a2.55,2.55,0,0,1,1-1.38,3,3,0,0,1,1.69-.48c1.81,0,2.72,1,2.72,3V22.5H41.09V17.82a2.34,2.34,0,0,0-.42-1.54,1.67,1.67,0,0,0-1.32-.49,2.24,2.24,0,0,0-1.68.65A2.38,2.38,0,0,0,37,18.18V22.5Z"/><path class="cls-9" d="M43.54,15.91V15h4.84v1Zm4.81,5.51v1a2.95,2.95,0,0,1-1.05.15,2.31,2.31,0,0,1-1.67-.6A2.41,2.41,0,0,1,45,20.2V13l1.21-.44V20a2,2,0,0,0,.18.93,1,1,0,0,0,.47.46,1.78,1.78,0,0,0,.67.12,2.54,2.54,0,0,0,.41,0A2.59,2.59,0,0,0,48.35,21.42Z"/><path class="cls-9" d="M55.79,22.5,53,15h1.28L56.6,21.6h-.39L58.61,15h1.07l2.37,6.65h-.39L64,15h1.2L62.44,22.5H61.27l-2.49-6.8h.66L57,22.5Z"/><path class="cls-9" d="M66.68,11.76h1.49v1.38H66.68ZM66.8,22.5V15H68V22.5Z"/><path class="cls-9" d="M69.31,15.91V15h4.84v1Zm4.81,5.51v1a2.95,2.95,0,0,1-1.05.15A2.31,2.31,0,0,1,71.4,22a2.41,2.41,0,0,1-.62-1.8V13L72,12.58V20a2,2,0,0,0,.18.93,1,1,0,0,0,.47.46,1.78,1.78,0,0,0,.67.12,2.54,2.54,0,0,0,.41,0A2.59,2.59,0,0,0,74.12,21.42Z"/><path class="cls-9" d="M75.62,22.5v-11h1.22v5l-.2.15a2.55,2.55,0,0,1,1-1.38,3,3,0,0,1,1.7-.48c1.81,0,2.71,1,2.71,3V22.5H80.89V17.82a2.34,2.34,0,0,0-.42-1.54,1.67,1.67,0,0,0-1.32-.49,2.24,2.24,0,0,0-1.68.65,2.38,2.38,0,0,0-.63,1.74V22.5Z"/></g><g class="cls-8"><rect class="cls-9" x="86.62" y="10" width="29.95" height="16" rx="4"/></g><g class="cls-10"><path class="cls-11" d="M92.67,11.76h1.48v1.38H92.67Zm.12,10.74V15H94V22.5Z"/></g><g class="cls-10"><path class="cls-9" d="M121.67,15.91V15h4.53v1Zm4.74-3.34a2.85,2.85,0,0,0-.78-.12,1.51,1.51,0,0,0-.65.13.88.88,0,0,0-.46.45,2.11,2.11,0,0,0-.16.92V22.5h-1.22V13.8a2.45,2.45,0,0,1,.6-1.81,2.27,2.27,0,0,1,1.65-.59l.51,0a3.06,3.06,0,0,1,.51.1Z"/><path class="cls-9" d="M127.79,22.5V17.07c0-.35,0-.7,0-1.06s0-.71-.1-1.06h1.16l.16,1.86-.16,0a2.35,2.35,0,0,1,.9-1.49,2.61,2.61,0,0,1,1.57-.51,2.22,2.22,0,0,1,.37,0,1.65,1.65,0,0,1,.32.06L132,16a2.39,2.39,0,0,0-.79-.12,2.11,2.11,0,0,0-1.26.35,2.06,2.06,0,0,0-.69.88,3,3,0,0,0-.21,1.11V22.5Z"/><path class="cls-9" d="M136.19,22.6a3.58,3.58,0,0,1-1.88-.48,3.26,3.26,0,0,1-1.25-1.35,4.65,4.65,0,0,1-.44-2.08,4.64,4.64,0,0,1,.44-2.07,3.26,3.26,0,0,1,1.25-1.37,3.92,3.92,0,0,1,3.76,0,3.26,3.26,0,0,1,1.25,1.37,4.64,4.64,0,0,1,.44,2.07,4.65,4.65,0,0,1-.44,2.08,3.26,3.26,0,0,1-1.25,1.35A3.58,3.58,0,0,1,136.19,22.6Zm0-1a2.12,2.12,0,0,0,1.72-.74,3.4,3.4,0,0,0,.61-2.17,3.32,3.32,0,0,0-.62-2.15,2.09,2.09,0,0,0-1.71-.75,2.12,2.12,0,0,0-1.72.75,3.32,3.32,0,0,0-.62,2.15,3.34,3.34,0,0,0,.61,2.17A2.11,2.11,0,0,0,136.19,21.6Z"/><path class="cls-9" d="M141.65,22.5V17.07c0-.35,0-.7,0-1.06s0-.71-.1-1.06h1.16l.13,1.56-.15.11a2.52,2.52,0,0,1,.94-1.37,2.62,2.62,0,0,1,1.58-.48,2.46,2.46,0,0,1,1.7.54,2.62,2.62,0,0,1,.78,1.65l-.36-.19a2.59,2.59,0,0,1,1-1.46,2.87,2.87,0,0,1,1.75-.54,2.32,2.32,0,0,1,1.88.75,3.38,3.38,0,0,1,.63,2.24V22.5h-1.22V17.82a2.55,2.55,0,0,0-.37-1.54,1.43,1.43,0,0,0-1.19-.49,1.85,1.85,0,0,0-1.49.65,2.59,2.59,0,0,0-.55,1.75V22.5H146.5V17.82a2.47,2.47,0,0,0-.39-1.54,1.43,1.43,0,0,0-1.19-.49,1.89,1.89,0,0,0-1.51.65,2.63,2.63,0,0,0-.54,1.75V22.5Z"/></g><g class="cls-10"><path class="cls-9" d="M209.87,15.91V15h4.85v1Zm4.82,5.51v1a4.7,4.7,0,0,1-.51.12,4.39,4.39,0,0,1-.54,0A2.33,2.33,0,0,1,212,22a2.41,2.41,0,0,1-.62-1.8V13l1.22-.44V20a2,2,0,0,0,.17.93,1,1,0,0,0,.47.46,1.83,1.83,0,0,0,.68.12,2.41,2.41,0,0,0,.4,0A2.69,2.69,0,0,0,214.69,21.42Z"/><path class="cls-9" d="M219.31,22.6a3.64,3.64,0,0,1-1.89-.48,3.24,3.24,0,0,1-1.24-1.35,4.52,4.52,0,0,1-.44-2.08,4.51,4.51,0,0,1,.44-2.07,3.24,3.24,0,0,1,1.24-1.37,3.64,3.64,0,0,1,1.89-.48,3.6,3.6,0,0,1,1.88.48,3.24,3.24,0,0,1,1.24,1.37,4.51,4.51,0,0,1,.45,2.07,4.52,4.52,0,0,1-.45,2.08,3.24,3.24,0,0,1-1.24,1.35A3.6,3.6,0,0,1,219.31,22.6Zm0-1a2.08,2.08,0,0,0,1.71-.74,3.34,3.34,0,0,0,.61-2.17,3.32,3.32,0,0,0-.61-2.15,2.34,2.34,0,0,0-3.43,0,3.26,3.26,0,0,0-.62,2.15,3.4,3.4,0,0,0,.6,2.17A2.15,2.15,0,0,0,219.31,21.6Z"/></g><g class="cls-10"><path class="cls-9" d="M290.05,22.5v-11h1.22v5.43l-.17-.15a2.58,2.58,0,0,1,1-1.45,2.94,2.94,0,0,1,1.74-.52,3.17,3.17,0,0,1,1.75.48,3.24,3.24,0,0,1,1.18,1.35,4.57,4.57,0,0,1,.43,2.06,4.71,4.71,0,0,1-.43,2.08,3.33,3.33,0,0,1-1.18,1.38,3.22,3.22,0,0,1-1.75.48,2.93,2.93,0,0,1-1.74-.51,2.51,2.51,0,0,1-1-1.45l.17-.17v2Zm3.54-.9a2.08,2.08,0,0,0,1.71-.77,3.42,3.42,0,0,0,.62-2.17,3.27,3.27,0,0,0-.62-2.12,2.33,2.33,0,0,0-3.43,0,3.38,3.38,0,0,0-.6,2.14,3.38,3.38,0,0,0,.6,2.15A2,2,0,0,0,293.59,21.6Z"/><path class="cls-9" d="M301.36,22.89,298,15h1.28L302,21.61Zm-2.76,3-.25-.94a6.57,6.57,0,0,0,1.16-.38,2.63,2.63,0,0,0,.8-.57,3.15,3.15,0,0,0,.56-.91l.48-1.11.27-.38L304.38,15h1.21l-3.52,8.24a5.16,5.16,0,0,1-.92,1.46,3.48,3.48,0,0,1-1.14.83A6.1,6.1,0,0,1,298.6,25.9Z"/></g><g class="cls-10"><path class="cls-9" d="M17.82,53.5h-1.2v-2l.18.17a2.51,2.51,0,0,1-1,1.45,3,3,0,0,1-1.75.51,3.17,3.17,0,0,1-1.75-.48,3.26,3.26,0,0,1-1.18-1.38,5.37,5.37,0,0,1,0-4.14,3.22,3.22,0,0,1,1.17-1.35,3.26,3.26,0,0,1,1.77-.48,3,3,0,0,1,1.75.52,2.58,2.58,0,0,1,1,1.45l-.2.15V42.46h1.22Zm-3.51-.9a2.06,2.06,0,0,0,1.7-.76,4.11,4.11,0,0,0,0-4.29,2.08,2.08,0,0,0-1.71-.76,2.15,2.15,0,0,0-1.74.75A3.27,3.27,0,0,0,12,49.66a3.42,3.42,0,0,0,.62,2.17A2.13,2.13,0,0,0,14.31,52.6Z"/><path class="cls-9" d="M23.29,53.6a3.58,3.58,0,0,1-1.88-.48,3.26,3.26,0,0,1-1.25-1.35,5.11,5.11,0,0,1,0-4.15,3.26,3.26,0,0,1,1.25-1.37,3.92,3.92,0,0,1,3.76,0,3.26,3.26,0,0,1,1.25,1.37,5.11,5.11,0,0,1,0,4.15,3.26,3.26,0,0,1-1.25,1.35A3.58,3.58,0,0,1,23.29,53.6Zm0-1A2.12,2.12,0,0,0,25,51.86a3.4,3.4,0,0,0,.61-2.17A3.32,3.32,0,0,0,25,47.54a2.09,2.09,0,0,0-1.71-.75,2.12,2.12,0,0,0-1.72.75,4.1,4.1,0,0,0,0,4.32A2.11,2.11,0,0,0,23.29,52.6Z"/></g><polygon class="cls-11" points="105.77 22.31 110.75 13.69 100.79 13.69 105.77 22.31"/><rect class="cls-12" x="86.62" y="77.69" width="139.65" height="56" rx="5.67"/><path class="cls-13" d="M220.6,134.19H92.29A6.17,6.17,0,0,1,86.12,128V83.36a6.17,6.17,0,0,1,6.17-6.17H220.6a6.18,6.18,0,0,1,6.17,6.17V128A6.18,6.18,0,0,1,220.6,134.19Zm-128.31-56a5.18,5.18,0,0,0-5.17,5.17V128a5.18,5.18,0,0,0,5.17,5.17H220.6a5.18,5.18,0,0,0,5.17-5.17V83.36a5.18,5.18,0,0,0-5.17-5.17Z"/><g class="cls-10"><path class="cls-11" d="M92.67,81.32h1.48V82.7H92.67Zm.12,10.74V84.52H94v7.54Z"/><path class="cls-11" d="M92.94,110.06V99.38h4.24a4.06,4.06,0,0,1,2.65.77,2.7,2.7,0,0,1,.92,2.2,2.66,2.66,0,0,1-.94,2.17,3.93,3.93,0,0,1-2.63.79l1.11-.21a1.65,1.65,0,0,1,1,.32,2.23,2.23,0,0,1,.67,1l1.35,3.61H100l-1.32-3.55a1.53,1.53,0,0,0-.7-.89,2.64,2.64,0,0,0-1.18-.22H94.15v4.66Zm1.21-5.68h2.93a2.84,2.84,0,0,0,1.85-.51,1.86,1.86,0,0,0,.61-1.5,1.8,1.8,0,0,0-.6-1.48,3,3,0,0,0-1.86-.49H94.15Z"/><path class="cls-11" d="M109.36,109.16a3.49,3.49,0,0,1-1.27.74,4.73,4.73,0,0,1-1.58.27,4.16,4.16,0,0,1-2-.47,3.12,3.12,0,0,1-1.3-1.34,4.39,4.39,0,0,1-.46-2.09,4.5,4.5,0,0,1,.45-2.06,3.41,3.41,0,0,1,1.25-1.38,3.49,3.49,0,0,1,1.86-.49,3.26,3.26,0,0,1,1.72.44,2.85,2.85,0,0,1,1.1,1.27,4.6,4.6,0,0,1,.39,2v.22h-5.7v-.79h5l-.39.55a3.14,3.14,0,0,0-.52-2,1.91,1.91,0,0,0-1.6-.71,2.09,2.09,0,0,0-1.72.78,4,4,0,0,0,0,4.35,2.42,2.42,0,0,0,1.92.75,3.79,3.79,0,0,0,1.26-.21,4.06,4.06,0,0,0,1.17-.67Z"/><path class="cls-11" d="M111.34,110.06v-5.43c0-.35,0-.7,0-1s0-.71-.1-1.06h1.16l.13,1.56-.15.12a2.61,2.61,0,0,1,1-1.39,3.12,3.12,0,0,1,1.7-.47c1.81,0,2.71,1,2.71,3v4.74h-1.21v-4.68a2.29,2.29,0,0,0-.42-1.53,1.64,1.64,0,0,0-1.32-.49,2.24,2.24,0,0,0-1.68.64,2.38,2.38,0,0,0-.63,1.74v4.32Z"/><path class="cls-11" d="M123,110.17a3.28,3.28,0,0,1-1.76-.47,3.09,3.09,0,0,1-1.17-1.35,5.37,5.37,0,0,1,0-4.14,3.31,3.31,0,0,1,1.17-1.38,3.14,3.14,0,0,1,1.75-.49,3,3,0,0,1,1.76.51,2.5,2.5,0,0,1,1,1.45l-.18.12v-1.9h1.2v7.54h-1.2v-2l.18.09a2.52,2.52,0,0,1-1,1.46A3,3,0,0,1,123,110.17Zm.24-1a2.06,2.06,0,0,0,1.71-.75,3.43,3.43,0,0,0,.6-2.16,3.29,3.29,0,0,0-.61-2.14,2.06,2.06,0,0,0-1.7-.75,2.1,2.1,0,0,0-1.73.77,3.32,3.32,0,0,0-.62,2.15,3.22,3.22,0,0,0,.62,2.13A2.12,2.12,0,0,0,123.25,109.16Z"/><path class="cls-11" d="M129.12,110.06v-5.43q0-.52,0-1a9.28,9.28,0,0,0-.09-1.06h1.15l.14,1.56-.15.1a2.53,2.53,0,0,1,.93-1.36,2.67,2.67,0,0,1,1.59-.48,2.48,2.48,0,0,1,1.7.54,2.67,2.67,0,0,1,.77,1.65l-.36-.2a2.53,2.53,0,0,1,1-1.45,2.85,2.85,0,0,1,1.75-.54,2.33,2.33,0,0,1,1.87.74,3.4,3.4,0,0,1,.63,2.24v4.74h-1.21v-4.68a2.49,2.49,0,0,0-.38-1.53,1.38,1.38,0,0,0-1.18-.49,1.87,1.87,0,0,0-1.5.64,2.66,2.66,0,0,0-.54,1.76v4.3H134v-4.68a2.49,2.49,0,0,0-.38-1.53,1.41,1.41,0,0,0-1.19-.49,1.87,1.87,0,0,0-1.51.64,2.61,2.61,0,0,0-.55,1.76v4.3Z"/><path class="cls-11" d="M148.48,109.16a3.49,3.49,0,0,1-1.27.74,4.73,4.73,0,0,1-1.58.27,4.16,4.16,0,0,1-2-.47,3.12,3.12,0,0,1-1.3-1.34,4.39,4.39,0,0,1-.46-2.09,4.5,4.5,0,0,1,.45-2.06,3.41,3.41,0,0,1,1.25-1.38,3.49,3.49,0,0,1,1.86-.49,3.26,3.26,0,0,1,1.72.44,2.85,2.85,0,0,1,1.1,1.27,4.6,4.6,0,0,1,.39,2v.22h-5.7v-.79h5l-.39.55a3.14,3.14,0,0,0-.52-2,1.91,1.91,0,0,0-1.6-.71,2.09,2.09,0,0,0-1.72.78,4,4,0,0,0,0,4.35,2.42,2.42,0,0,0,1.92.75,3.79,3.79,0,0,0,1.26-.21,4.06,4.06,0,0,0,1.17-.67Z"/><path class="cls-11" d="M156.6,110.06l-3.21-7.53h1.27l2.73,6.65H157l2.76-6.65H161l-3.26,7.53Z"/><path class="cls-11" d="M165.15,110.17a3.34,3.34,0,0,1-1.77-.47,3.22,3.22,0,0,1-1.17-1.35,4.93,4.93,0,0,1-.41-2.07,4.78,4.78,0,0,1,.42-2.07,3.26,3.26,0,0,1,1.18-1.38,3.12,3.12,0,0,1,1.75-.49,2.94,2.94,0,0,1,1.75.51,2.51,2.51,0,0,1,1,1.45l-.18.12v-1.9h1.2v7.54h-1.2v-2l.18.09a2.54,2.54,0,0,1-1,1.46A2.94,2.94,0,0,1,165.15,110.17Zm.24-1a2.06,2.06,0,0,0,1.71-.75,3.43,3.43,0,0,0,.6-2.16,3.35,3.35,0,0,0-.61-2.14,2.07,2.07,0,0,0-1.7-.75,2.13,2.13,0,0,0-1.74.77,3.38,3.38,0,0,0-.62,2.15,3.28,3.28,0,0,0,.62,2.13A2.15,2.15,0,0,0,165.39,109.16Z"/><path class="cls-11" d="M171.25,110.06v-5.43c0-.35,0-.7,0-1s0-.71-.1-1.06h1.16l.16,1.86-.16,0a2.38,2.38,0,0,1,.9-1.49,2.67,2.67,0,0,1,1.57-.5l.37,0,.32.07,0,1.11a2.39,2.39,0,0,0-.79-.12,1.92,1.92,0,0,0-1.95,1.22,3.05,3.05,0,0,0-.21,1.12v4.3Z"/><path class="cls-11" d="M176.56,99.32h1.49v1.38h-1.49Zm.12,10.74v-7.54h1.22v7.54Z"/><path class="cls-11" d="M183.15,110.17a3.34,3.34,0,0,1-1.77-.47,3.22,3.22,0,0,1-1.17-1.35,4.93,4.93,0,0,1-.41-2.07,4.78,4.78,0,0,1,.42-2.07,3.26,3.26,0,0,1,1.18-1.38,3.12,3.12,0,0,1,1.75-.49,2.94,2.94,0,0,1,1.75.51,2.51,2.51,0,0,1,1,1.45l-.18.12v-1.9h1.2v7.54h-1.2v-2l.18.09a2.54,2.54,0,0,1-1,1.46A2.94,2.94,0,0,1,183.15,110.17Zm.24-1a2.06,2.06,0,0,0,1.71-.75,3.43,3.43,0,0,0,.6-2.16,3.35,3.35,0,0,0-.61-2.14,2.07,2.07,0,0,0-1.7-.75,2.13,2.13,0,0,0-1.74.77,3.38,3.38,0,0,0-.62,2.15,3.28,3.28,0,0,0,.62,2.13A2.15,2.15,0,0,0,183.39,109.16Z"/><path class="cls-11" d="M189.25,110.06V99h1.22v5.43l-.17-.15a2.52,2.52,0,0,1,1-1.44,2.87,2.87,0,0,1,1.74-.52,3.17,3.17,0,0,1,1.75.48,3.31,3.31,0,0,1,1.18,1.35,4.66,4.66,0,0,1,.43,2,4.83,4.83,0,0,1-.43,2.08,3.23,3.23,0,0,1-1.19,1.38,3.08,3.08,0,0,1-1.74.49,2.93,2.93,0,0,1-1.74-.51,2.54,2.54,0,0,1-1-1.46l.17-.16v2Zm3.54-.9a2,2,0,0,0,1.71-.77,3.4,3.4,0,0,0,.62-2.17,3.24,3.24,0,0,0-.62-2.11,2.09,2.09,0,0,0-1.71-.75,2,2,0,0,0-1.72.76,3.33,3.33,0,0,0-.6,2.13,3.43,3.43,0,0,0,.6,2.16A2.07,2.07,0,0,0,192.79,109.16Z"/><path class="cls-11" d="M198.25,110.06V99h1.22v11Z"/><path class="cls-11" d="M208,109.16a3.49,3.49,0,0,1-1.27.74,4.73,4.73,0,0,1-1.58.27,4.16,4.16,0,0,1-2-.47,3.12,3.12,0,0,1-1.3-1.34,4.39,4.39,0,0,1-.46-2.09,4.5,4.5,0,0,1,.45-2.06,3.41,3.41,0,0,1,1.25-1.38,3.49,3.49,0,0,1,1.86-.49,3.26,3.26,0,0,1,1.72.44,2.85,2.85,0,0,1,1.1,1.27,4.6,4.6,0,0,1,.39,2v.22h-5.7v-.79h5l-.39.55a3.14,3.14,0,0,0-.52-2,1.91,1.91,0,0,0-1.6-.71,2.09,2.09,0,0,0-1.72.78,4,4,0,0,0,0,4.35,2.42,2.42,0,0,0,1.92.75,3.79,3.79,0,0,0,1.26-.21,4.06,4.06,0,0,0,1.17-.67Z"/><path class="cls-11" d="M209.77,108.52h1.55v1.54h-1.55Z"/><path class="cls-11" d="M213.23,108.52h1.55v1.54h-1.55Z"/><path class="cls-11" d="M216.7,108.52h1.54v1.54H216.7Z"/><path class="cls-11" d="M92.94,128.06V117.38h.94l6.81,9.08-.36.09v-9.17h1.17v10.68h-1L93.75,119l.34-.1v9.16Z"/><path class="cls-11" d="M110.16,127.16a3.58,3.58,0,0,1-1.27.74,4.77,4.77,0,0,1-1.58.27,4.13,4.13,0,0,1-2-.47,3.14,3.14,0,0,1-1.31-1.34,5,5,0,0,1,0-4.15,3.34,3.34,0,0,1,1.25-1.38,3.43,3.43,0,0,1,1.85-.49,3.29,3.29,0,0,1,1.73.44,2.91,2.91,0,0,1,1.1,1.27,4.76,4.76,0,0,1,.38,2v.22h-5.7v-.79h5l-.39.55a3.08,3.08,0,0,0-.52-2,1.88,1.88,0,0,0-1.59-.71,2.07,2.07,0,0,0-1.72.78,4,4,0,0,0,0,4.35,2.39,2.39,0,0,0,1.91.75,3.89,3.89,0,0,0,1.27-.21,4.15,4.15,0,0,0,1.16-.67Z"/><path class="cls-11" d="M114.07,128.06l-2.79-7.54h1.28l2.32,6.64h-.39l2.4-6.64H118l2.37,6.64h-.39l2.37-6.64h1.2l-2.79,7.54h-1.17l-2.49-6.79h.66l-2.48,6.79Z"/><path class="cls-11" d="M131.22,128.06,128,120.53h1.27l2.73,6.65h-.36l2.76-6.65h1.22l-3.26,7.53Z"/><path class="cls-11" d="M139.77,128.17a3.34,3.34,0,0,1-1.77-.47,3.22,3.22,0,0,1-1.17-1.35,4.93,4.93,0,0,1-.41-2.07,4.78,4.78,0,0,1,.42-2.07,3.26,3.26,0,0,1,1.18-1.38,3.12,3.12,0,0,1,1.75-.49,2.94,2.94,0,0,1,1.75.51,2.51,2.51,0,0,1,1,1.45l-.18.12v-1.9h1.2v7.54h-1.2v-2l.18.09a2.54,2.54,0,0,1-1,1.46A2.94,2.94,0,0,1,139.77,128.17Zm.24-1a2.06,2.06,0,0,0,1.71-.75,3.43,3.43,0,0,0,.6-2.16,3.35,3.35,0,0,0-.61-2.14,2.07,2.07,0,0,0-1.7-.75,2.13,2.13,0,0,0-1.74.77,3.38,3.38,0,0,0-.62,2.15,3.28,3.28,0,0,0,.62,2.13A2.15,2.15,0,0,0,140,127.16Z"/><path class="cls-11" d="M145.87,128.06v-5.43c0-.35,0-.7,0-1s0-.71-.1-1.06h1.16l.16,1.86-.16,0a2.38,2.38,0,0,1,.9-1.49,2.67,2.67,0,0,1,1.57-.5l.37,0,.32.07,0,1.11a2.39,2.39,0,0,0-.79-.12,1.92,1.92,0,0,0-1.95,1.22,3.05,3.05,0,0,0-.21,1.12v4.3Z"/><path class="cls-11" d="M151.18,117.32h1.49v1.38h-1.49Zm.12,10.74v-7.54h1.22v7.54Z"/><path class="cls-11" d="M157.77,128.17a3.34,3.34,0,0,1-1.77-.47,3.22,3.22,0,0,1-1.17-1.35,4.93,4.93,0,0,1-.41-2.07,4.78,4.78,0,0,1,.42-2.07,3.26,3.26,0,0,1,1.18-1.38,3.12,3.12,0,0,1,1.75-.49,2.94,2.94,0,0,1,1.75.51,2.51,2.51,0,0,1,1,1.45l-.18.12v-1.9h1.2v7.54h-1.2v-2l.18.09a2.54,2.54,0,0,1-1,1.46A2.94,2.94,0,0,1,157.77,128.17Zm.24-1a2.06,2.06,0,0,0,1.71-.75,3.43,3.43,0,0,0,.6-2.16,3.35,3.35,0,0,0-.61-2.14,2.07,2.07,0,0,0-1.7-.75,2.13,2.13,0,0,0-1.74.77,3.38,3.38,0,0,0-.62,2.15,3.28,3.28,0,0,0,.62,2.13A2.15,2.15,0,0,0,158,127.16Z"/><path class="cls-11" d="M163.87,128.06V117h1.22v5.43l-.17-.15a2.52,2.52,0,0,1,1-1.44,2.87,2.87,0,0,1,1.74-.52,3.17,3.17,0,0,1,1.75.48,3.31,3.31,0,0,1,1.18,1.35,4.66,4.66,0,0,1,.43,2,4.83,4.83,0,0,1-.43,2.08,3.23,3.23,0,0,1-1.19,1.38,3.08,3.08,0,0,1-1.74.49,2.93,2.93,0,0,1-1.74-.51,2.54,2.54,0,0,1-1-1.46l.17-.16v2Zm3.54-.9a2,2,0,0,0,1.71-.77,3.4,3.4,0,0,0,.62-2.17,3.24,3.24,0,0,0-.62-2.11,2.09,2.09,0,0,0-1.71-.75,2,2,0,0,0-1.72.76,3.33,3.33,0,0,0-.6,2.13,3.43,3.43,0,0,0,.6,2.16A2.07,2.07,0,0,0,167.41,127.16Z"/><path class="cls-11" d="M172.87,128.06V117h1.22v11Z"/><path class="cls-11" d="M182.62,127.16a3.49,3.49,0,0,1-1.27.74,4.73,4.73,0,0,1-1.58.27,4.16,4.16,0,0,1-2-.47,3.12,3.12,0,0,1-1.3-1.34,4.39,4.39,0,0,1-.46-2.09,4.5,4.5,0,0,1,.45-2.06,3.41,3.41,0,0,1,1.25-1.38,3.49,3.49,0,0,1,1.86-.49,3.26,3.26,0,0,1,1.72.44,2.85,2.85,0,0,1,1.1,1.27,4.6,4.6,0,0,1,.39,2v.22h-5.7v-.79h5l-.39.55a3.14,3.14,0,0,0-.52-2,1.91,1.91,0,0,0-1.6-.71,2.09,2.09,0,0,0-1.72.78,4,4,0,0,0,0,4.35,2.42,2.42,0,0,0,1.92.75,3.79,3.79,0,0,0,1.26-.21,4.06,4.06,0,0,0,1.17-.67Z"/><path class="cls-11" d="M184.39,126.52h1.55v1.54h-1.55Z"/><path class="cls-11" d="M187.86,126.52h1.54v1.54h-1.54Z"/><path class="cls-11" d="M191.32,126.52h1.54v1.54h-1.54Z"/></g></g></g></svg>