<svg xmlns="http://www.w3.org/2000/svg" viewBox="0 0 595.4 26"><defs><style>.cls-1,.cls-4{fill:none;}.cls-2{fill:#3d4986;}.cls-3{fill:#4c5ba6;}.cls-4{stroke:#818dc1;}.cls-5{opacity:0.6;}.cls-6{fill:#fff;}.cls-7{isolation:isolate;}.cls-8{fill:#010101;}</style></defs><g id="Layer_2" data-name="Layer 2"><g id="Layer_1-2" data-name="Layer 1"><rect class="cls-1" x="0.12" width="595.28" height="18"/><path class="cls-2" d="M9.12,1h28.8V26H9.12V21c0-10-8,8-8-7.5s8,2.5,8-7.5Z"/><path class="cls-3" d="M8.12,0h28.8V25H8.12V20c0-10-8,8-8-7.5s8,2.5,8-7.5Z"/><path class="cls-4" d="M8.62.5h27.8m-27.8,24v-6M1.26,18a20.35,20.35,0,0,1,0-11M8.62,8V.5h.5"/><g class="cls-5"><rect class="cls-6" x="13.12" y="5" width="18.8" height="16" rx="4"/></g><g class="cls-7"><path class="cls-8" d="M22.62,17.62a3.14,3.14,0,0,1-2.78-1.39,7.14,7.14,0,0,1-.95-4.07,7.23,7.23,0,0,1,.94-4.07A3.15,3.15,0,0,1,22.62,6.7a3.15,3.15,0,0,1,2.79,1.39,7.17,7.17,0,0,1,.94,4.05,7.17,7.17,0,0,1-1,4.08A3.15,3.15,0,0,1,22.62,17.62Zm0-1A2,2,0,0,0,24.5,15.5a7,7,0,0,0,.61-3.36,6.86,6.86,0,0,0-.61-3.33,2.19,2.19,0,0,0-3.76,0,6.87,6.87,0,0,0-.61,3.32,7,7,0,0,0,.61,3.36A2,2,0,0,0,22.62,16.58Z"/></g></g></g></svg>