<svg xmlns="http://www.w3.org/2000/svg" viewBox="0 0 595.4 37"><defs><style>.cls-1,.cls-4{fill:none;}.cls-2{fill:#3d4986;}.cls-3{fill:#4c5ba6;}.cls-4{stroke:#818dc1;}.cls-5{opacity:0.6;}.cls-6,.cls-9{fill:#fff;}.cls-7,.cls-9{isolation:isolate;}.cls-8{fill:#010101;}.cls-9{font-size:15px;font-family:Mulish-Regular, Mulish;}.cls-10{letter-spacing:-0.01em;}.cls-11{letter-spacing:-0.01em;}.cls-12{letter-spacing:0em;}.cls-13{letter-spacing:-0.01em;}.cls-14{letter-spacing:0em;}</style></defs><g id="Layer_2" data-name="Layer 2"><g id="Layer_1-2" data-name="Layer 1"><rect class="cls-1" x="0.12" width="595.28" height="18"/><path class="cls-2" d="M9.12,1H307.47V37H9.12V21c0-10-8,8-8-7.5s8,2.5,8-7.5Zm103.1,5H97.72v5c0,10-8-8-8,7.5s8-2.5,8,7.5v6h14.5Zm81.33,0h-30.8v5c0,10-8-8-8,7.5s8-2.5,8,7.5v7h30.8ZM297.47,6h-48.4v5c0,10-8-8-8,7.5s8-2.5,8,7.5v7h48.4Z"/><path class="cls-3" d="M8.12,0H306.47V36H8.12V20c0-10-8,8-8-7.5s8,2.5,8-7.5Zm103.1,5H96.72v5c0,10-8-8-8,7.5s8-2.5,8,7.5v6h14.5Zm81.33,0h-30.8v5c0,10-8-8-8,7.5s8-2.5,8,7.5v7h30.8ZM296.47,5h-48.4v5c0,10-8-8-8,7.5s8-2.5,8,7.5v7h48.4Z"/><path class="cls-4" d="M8.62.5h19m0,0H306M8.62,35.5v-17M1.26,18a20.35,20.35,0,0,1,0-11M8.62,8V.5h.5m102.6,5v26H97.22m-5.6-7.2,3.68-2.1M193.05,5.5v27h-30.8m-5.6-8.2,3.68-2.1M297,5.5v27h-48.4M243,24.3l3.68-2.1"/><path class="cls-2" d="M163.75,7h28.8V32h-28.8V27c0-10-8,8-8-7.5s8,2.5,8-7.5Z"/><path class="cls-3" d="M162.75,6h28.8V31h-28.8V26c0-10-8,8-8-7.5s8,2.5,8-7.5Z"/><path class="cls-4" d="M163.25,6.5h27.8m-27.8,24v-6m-7.36-.5a20.35,20.35,0,0,1,0-11m7.36,1V6.5h.5"/><g class="cls-5"><rect class="cls-6" x="167.75" y="11" width="18.8" height="16" rx="4"/></g><g class="cls-7"><path class="cls-8" d="M174.67,23.5v-1h6v1ZM177,23V13.54l.7.36-2.89,1.85V14.56l2.73-1.74h.7V23Z"/></g><path class="cls-2" d="M250.07,7h46.4V32h-46.4V27c0-10-8,8-8-7.5s8,2.5,8-7.5Z"/><path class="cls-3" d="M249.07,6h46.4V31h-46.4V26c0-10-8,8-8-7.5s8,2.5,8-7.5Z"/><path class="cls-4" d="M249.57,6.5H295m-45.4,24v-6m-7.36-.5a20.35,20.35,0,0,1,0-11m7.36,1V6.5h.5"/><g class="cls-5"><rect class="cls-6" x="254.07" y="11" width="36.4" height="16" rx="4"/></g><g class="cls-7"><path class="cls-8" d="M261,23.5v-1h6v1Zm2.36-.55V13.54l.7.36-2.89,1.85V14.56l2.73-1.74h.7V23Z"/><path class="cls-8" d="M272.57,23.62a3.14,3.14,0,0,1-2.78-1.39,7.14,7.14,0,0,1-1-4.07,7.23,7.23,0,0,1,.94-4.07,3.5,3.5,0,0,1,5.58,0,7.19,7.19,0,0,1,.95,4.05,7.15,7.15,0,0,1-1,4.08A3.13,3.13,0,0,1,272.57,23.62Zm0-1a2,2,0,0,0,1.88-1.09,7,7,0,0,0,.61-3.36,6.89,6.89,0,0,0-.61-3.33,2.19,2.19,0,0,0-3.76,0,6.87,6.87,0,0,0-.61,3.32,7,7,0,0,0,.61,3.36A2,2,0,0,0,272.57,22.59Z"/><path class="cls-8" d="M281.57,23.62a3.14,3.14,0,0,1-2.78-1.39,7.13,7.13,0,0,1-1-4.07,7.22,7.22,0,0,1,.95-4.07,3.5,3.5,0,0,1,5.58,0,7.2,7.2,0,0,1,.94,4.05,7.15,7.15,0,0,1-.95,4.08A3.13,3.13,0,0,1,281.57,23.62Zm0-1a2,2,0,0,0,1.88-1.09,7,7,0,0,0,.61-3.36,6.89,6.89,0,0,0-.61-3.33,2.19,2.19,0,0,0-3.76,0,6.87,6.87,0,0,0-.61,3.32,7,7,0,0,0,.61,3.36A2,2,0,0,0,281.57,22.59Z"/></g><text class="cls-9" transform="translate(18.12 22.5)">con<tspan class="cls-10" x="24.78" y="0">s</tspan><tspan x="32.14" y="0">t</tspan><tspan class="cls-11" x="37.39" y="0">r</tspan><tspan class="cls-12" x="42.67" y="0">ain</tspan></text><text class="cls-9" transform="translate(121.22 22.5)">l<tspan class="cls-13" x="3.57" y="0">o</tspan><tspan class="cls-14" x="12.06" y="0">w</tspan></text><text class="cls-9" transform="translate(202.55 22.5)">high</text></g></g></svg>