<svg xmlns="http://www.w3.org/2000/svg" viewBox="0 0 595.39 157.25"><defs><style>.cls-1{fill:none;}.cls-2{fill:#aaacd4;}.cls-3{isolation:isolate;}.cls-4{fill:#010101;}.cls-5{fill:#3d4986;}.cls-6{fill:#4c5ba6;}.cls-7{fill:#818dc1;}.cls-8{opacity:0.6;}.cls-9{fill:#fff;}</style></defs><g id="Layer_2" data-name="Layer 2"><g id="Layer_1-2" data-name="Layer 1"><rect class="cls-1" x="0.12" width="595.28" height="18"/><rect class="cls-2" x="13.12" y="31.69" width="104.27" height="125.56" rx="5.67"/><g class="cls-3"><path class="cls-4" d="M21.84,44.67a4.42,4.42,0,0,1-3-1l.41-.89a4.69,4.69,0,0,0,1.23.68,4.55,4.55,0,0,0,1.42.21,2.34,2.34,0,0,0,1.3-.29,1,1,0,0,0,.44-.85.91.91,0,0,0-.3-.71,2.42,2.42,0,0,0-1-.43l-1.27-.3a2.86,2.86,0,0,1-1.47-.75,1.8,1.8,0,0,1-.51-1.29,2,2,0,0,1,.36-1.16,2.42,2.42,0,0,1,1-.79A3.77,3.77,0,0,1,22,36.84a4.37,4.37,0,0,1,1.5.25,3.21,3.21,0,0,1,1.19.74l-.41.89a3.7,3.7,0,0,0-1.1-.67A3.17,3.17,0,0,0,22,37.83a2.12,2.12,0,0,0-1.25.31,1.09,1.09,0,0,0-.17,1.59,2,2,0,0,0,.9.42l1.27.32a3.07,3.07,0,0,1,1.57.74A1.95,1.95,0,0,1,24,44.08,3.57,3.57,0,0,1,21.84,44.67Z"/><path class="cls-4" d="M33.37,47.8H32.16V42.55l.19.15a2.52,2.52,0,0,1-1,1.46,3,3,0,0,1-1.76.51,3.28,3.28,0,0,1-1.76-.47,3.09,3.09,0,0,1-1.17-1.35,4.78,4.78,0,0,1-.41-2.07,4.7,4.7,0,0,1,.42-2.06,3.34,3.34,0,0,1,1.17-1.39,3.22,3.22,0,0,1,1.75-.49,3,3,0,0,1,1.76.51,2.5,2.5,0,0,1,1,1.45l-.15-.22L32.37,37h1.12c0,.35-.07.7-.09,1.06s0,.7,0,1.05Zm-3.51-4.14a2.06,2.06,0,0,0,1.71-.75,3.42,3.42,0,0,0,.6-2.15,3.3,3.3,0,0,0-.61-2.15,2.06,2.06,0,0,0-1.7-.75,2.1,2.1,0,0,0-1.73.77,3.32,3.32,0,0,0-.62,2.15,3.2,3.2,0,0,0,.62,2.13A2.09,2.09,0,0,0,29.86,43.66Z"/><path class="cls-4" d="M38.4,44.67a2.64,2.64,0,0,1-2-.75,3.22,3.22,0,0,1-.68-2.22V37H36.9v4.65a2.24,2.24,0,0,0,.42,1.5,1.59,1.59,0,0,0,1.27.48A2.17,2.17,0,0,0,40.21,43a2.43,2.43,0,0,0,.62-1.73V37H42v7.54H40.86V42.93l.18-.09a2.49,2.49,0,0,1-1,1.36A2.88,2.88,0,0,1,38.4,44.67Z"/><path class="cls-4" d="M47.28,44.67a3.34,3.34,0,0,1-1.77-.47,3.22,3.22,0,0,1-1.17-1.35,4.93,4.93,0,0,1-.41-2.07,4.7,4.7,0,0,1,.42-2.06,3.29,3.29,0,0,1,1.18-1.39,3.2,3.2,0,0,1,1.75-.49,2.94,2.94,0,0,1,1.75.51,2.51,2.51,0,0,1,1,1.45l-.18.12V37H51v7.54h-1.2v-2l.18.09a2.54,2.54,0,0,1-1,1.46A2.94,2.94,0,0,1,47.28,44.67Zm.24-1a2.06,2.06,0,0,0,1.71-.75,3.42,3.42,0,0,0,.6-2.15,3.36,3.36,0,0,0-.61-2.15,2.07,2.07,0,0,0-1.7-.75,2.13,2.13,0,0,0-1.74.77,3.38,3.38,0,0,0-.62,2.15,3.26,3.26,0,0,0,.62,2.13A2.12,2.12,0,0,0,47.52,43.66Z"/><path class="cls-4" d="M53.38,44.56V39.13c0-.35,0-.7,0-1.05s0-.71-.1-1.06h1.16l.16,1.86-.16-.05a2.38,2.38,0,0,1,.9-1.49,2.67,2.67,0,0,1,1.57-.5l.37,0,.32.07,0,1.11a2.39,2.39,0,0,0-.79-.12,1.92,1.92,0,0,0-1.95,1.22,3.05,3.05,0,0,0-.21,1.12v4.3Z"/><path class="cls-4" d="M64.84,43.66a3.49,3.49,0,0,1-1.27.74,4.73,4.73,0,0,1-1.58.27,4.16,4.16,0,0,1-2-.47,3.12,3.12,0,0,1-1.3-1.34,4.94,4.94,0,0,1,0-4.14,3.44,3.44,0,0,1,1.25-1.39,3.58,3.58,0,0,1,1.86-.49,3.26,3.26,0,0,1,1.72.44,2.85,2.85,0,0,1,1.1,1.27,4.6,4.6,0,0,1,.39,2v.23h-5.7V40h5l-.39.55a3.14,3.14,0,0,0-.52-2,1.91,1.91,0,0,0-1.6-.71,2.09,2.09,0,0,0-1.72.78,3.31,3.31,0,0,0-.62,2.13,3.32,3.32,0,0,0,.65,2.22,2.39,2.39,0,0,0,1.92.75,3.79,3.79,0,0,0,1.26-.21,4.06,4.06,0,0,0,1.17-.67Z"/><path class="cls-4" d="M70.74,44.56V39.13q0-.52,0-1.05A9.28,9.28,0,0,0,70.62,37h1.15l.17,1.86-.17-.05a2.35,2.35,0,0,1,.91-1.49,2.65,2.65,0,0,1,1.57-.5l.36,0,.33.07,0,1.11a2.45,2.45,0,0,0-.8-.12,2.06,2.06,0,0,0-1.25.34,2,2,0,0,0-.69.88A2.87,2.87,0,0,0,72,40.26v4.3Z"/><path class="cls-4" d="M79.14,44.67a3.64,3.64,0,0,1-1.89-.48A3.21,3.21,0,0,1,76,42.83a4.48,4.48,0,0,1-.44-2.07A4.55,4.55,0,0,1,76,38.68a3.21,3.21,0,0,1,1.24-1.36,3.64,3.64,0,0,1,1.89-.48,3.6,3.6,0,0,1,1.88.48,3.21,3.21,0,0,1,1.24,1.36,4.55,4.55,0,0,1,.45,2.08,4.48,4.48,0,0,1-.45,2.07A3.21,3.21,0,0,1,81,44.19,3.6,3.6,0,0,1,79.14,44.67Zm0-1a2.06,2.06,0,0,0,1.71-.74,3.29,3.29,0,0,0,.61-2.16,3.3,3.3,0,0,0-.61-2.15,2.34,2.34,0,0,0-3.43,0,3.24,3.24,0,0,0-.62,2.15,3.35,3.35,0,0,0,.6,2.16A2.12,2.12,0,0,0,79.14,43.66Z"/><path class="cls-4" d="M87.72,44.67a3.64,3.64,0,0,1-1.89-.48,3.21,3.21,0,0,1-1.24-1.36,4.48,4.48,0,0,1-.44-2.07,4.55,4.55,0,0,1,.44-2.08,3.21,3.21,0,0,1,1.24-1.36,3.64,3.64,0,0,1,1.89-.48,3.6,3.6,0,0,1,1.88.48,3.21,3.21,0,0,1,1.24,1.36,4.55,4.55,0,0,1,.45,2.08,4.48,4.48,0,0,1-.45,2.07,3.21,3.21,0,0,1-1.24,1.36A3.6,3.6,0,0,1,87.72,44.67Zm0-1a2.06,2.06,0,0,0,1.71-.74A3.29,3.29,0,0,0,90,40.76a3.3,3.3,0,0,0-.61-2.15,2.34,2.34,0,0,0-3.43,0,3.24,3.24,0,0,0-.62,2.15,3.35,3.35,0,0,0,.6,2.16A2.12,2.12,0,0,0,87.72,43.66Z"/><path class="cls-4" d="M92.1,38V37h4.84v1Zm4.81,5.5v1a3.22,3.22,0,0,1-.5.11,3.16,3.16,0,0,1-.55,0,2.29,2.29,0,0,1-1.67-.6,2.37,2.37,0,0,1-.62-1.8V35.08l1.21-.43V42.1A2.08,2.08,0,0,0,95,43a.93.93,0,0,0,.48.46,1.6,1.6,0,0,0,.67.13,2.54,2.54,0,0,0,.41,0A2.73,2.73,0,0,0,96.91,43.48Z"/><path class="cls-4" d="M22.18,62.67a3.28,3.28,0,0,1-1.76-.47,3.09,3.09,0,0,1-1.17-1.35,4.78,4.78,0,0,1-.41-2.07,4.7,4.7,0,0,1,.42-2.06,3.34,3.34,0,0,1,1.17-1.39,3.22,3.22,0,0,1,1.75-.49,3,3,0,0,1,1.76.51,2.5,2.5,0,0,1,1,1.45l-.18.12V55h1.2v7.54h-1.2v-2l.18.09a2.52,2.52,0,0,1-1,1.46A3,3,0,0,1,22.18,62.67Zm.24-1a2.06,2.06,0,0,0,1.71-.75,3.42,3.42,0,0,0,.6-2.15,3.3,3.3,0,0,0-.61-2.15,2.06,2.06,0,0,0-1.7-.75,2.1,2.1,0,0,0-1.73.77,3.32,3.32,0,0,0-.62,2.15,3.2,3.2,0,0,0,.62,2.13A2.09,2.09,0,0,0,22.42,61.66Z"/><path class="cls-4" d="M28.29,62.56v-11H29.5V57l-.16-.15a2.51,2.51,0,0,1,1-1.44,2.87,2.87,0,0,1,1.74-.52A3.1,3.1,0,0,1,35,56.67a4.52,4.52,0,0,1,.43,2A4.68,4.68,0,0,1,35,60.8a3.21,3.21,0,0,1-1.18,1.38,3.14,3.14,0,0,1-1.75.49,2.93,2.93,0,0,1-1.74-.51,2.52,2.52,0,0,1-1-1.46l.16-.16v2Zm3.54-.9a2,2,0,0,0,1.71-.77,3.4,3.4,0,0,0,.61-2.17,3.24,3.24,0,0,0-.61-2.11,2.34,2.34,0,0,0-3.44,0,3.37,3.37,0,0,0-.6,2.14,3.42,3.42,0,0,0,.6,2.15A2.09,2.09,0,0,0,31.83,61.66Z"/><path class="cls-4" d="M39.84,62.67a4.42,4.42,0,0,1-3-1l.41-.89a4.69,4.69,0,0,0,1.23.68,4.55,4.55,0,0,0,1.42.21,2.34,2.34,0,0,0,1.3-.29,1,1,0,0,0,.44-.85.91.91,0,0,0-.3-.71,2.42,2.42,0,0,0-1-.43l-1.27-.3a2.86,2.86,0,0,1-1.47-.75,1.8,1.8,0,0,1-.51-1.29,2,2,0,0,1,.36-1.16,2.42,2.42,0,0,1,1-.79A3.77,3.77,0,0,1,40,54.84a4.37,4.37,0,0,1,1.5.25,3.21,3.21,0,0,1,1.19.74l-.41.89a3.7,3.7,0,0,0-1.1-.67A3.17,3.17,0,0,0,40,55.83a2.12,2.12,0,0,0-1.25.31,1.09,1.09,0,0,0-.17,1.59,2,2,0,0,0,.9.42l1.27.32a3.07,3.07,0,0,1,1.57.74A1.95,1.95,0,0,1,42,62.08,3.57,3.57,0,0,1,39.84,62.67Z"/><path class="cls-4" d="M47.85,62.67A3.64,3.64,0,0,1,46,62.19a3.21,3.21,0,0,1-1.24-1.36,4.48,4.48,0,0,1-.44-2.07,4.55,4.55,0,0,1,.44-2.08A3.21,3.21,0,0,1,46,55.32a3.64,3.64,0,0,1,1.89-.48,3.6,3.6,0,0,1,1.88.48A3.21,3.21,0,0,1,51,56.68a4.55,4.55,0,0,1,.45,2.08A4.48,4.48,0,0,1,51,60.83a3.21,3.21,0,0,1-1.24,1.36A3.6,3.6,0,0,1,47.85,62.67Zm0-1a2.06,2.06,0,0,0,1.71-.74,4.11,4.11,0,0,0,0-4.31,2.34,2.34,0,0,0-3.43,0,3.24,3.24,0,0,0-.62,2.15,3.35,3.35,0,0,0,.6,2.16A2.12,2.12,0,0,0,47.85,61.66Z"/><path class="cls-4" d="M53.31,62.56v-11h1.21v11Z"/><path class="cls-4" d="M59.55,62.67a2.64,2.64,0,0,1-2-.75,3.22,3.22,0,0,1-.68-2.22V55h1.22v4.65a2.24,2.24,0,0,0,.42,1.5,1.59,1.59,0,0,0,1.27.48A2.17,2.17,0,0,0,61.36,61,2.43,2.43,0,0,0,62,59.28V55h1.21v7.54H62V60.93l.18-.09a2.49,2.49,0,0,1-1,1.36A2.88,2.88,0,0,1,59.55,62.67Z"/><path class="cls-4" d="M64.47,56V55h4.84v1Zm4.81,5.5v1a3.22,3.22,0,0,1-.5.11,3.16,3.16,0,0,1-.55,0,2.29,2.29,0,0,1-1.67-.6,2.37,2.37,0,0,1-.62-1.8V53.08l1.21-.43V60.1a2.08,2.08,0,0,0,.17.93.93.93,0,0,0,.48.46,1.6,1.6,0,0,0,.67.13,2.54,2.54,0,0,0,.41,0A2.73,2.73,0,0,0,69.28,61.48Z"/><path class="cls-4" d="M77,61.66a3.49,3.49,0,0,1-1.27.74,4.73,4.73,0,0,1-1.58.27,4.16,4.16,0,0,1-2-.47,3.12,3.12,0,0,1-1.3-1.34,4.94,4.94,0,0,1,0-4.14A3.44,3.44,0,0,1,72,55.33a3.58,3.58,0,0,1,1.86-.49,3.26,3.26,0,0,1,1.72.44,2.85,2.85,0,0,1,1.1,1.27,4.6,4.6,0,0,1,.39,2v.23H71.4V58h5l-.39.55a3.14,3.14,0,0,0-.52-2,1.91,1.91,0,0,0-1.6-.71,2.09,2.09,0,0,0-1.72.78,4,4,0,0,0,0,4.35,2.39,2.39,0,0,0,1.92.75,3.79,3.79,0,0,0,1.26-.21,4.06,4.06,0,0,0,1.17-.67Z"/><path class="cls-4" d="M19.21,77V76h4.25v1Z"/><path class="cls-4" d="M19.29,98.56v-11H20.5v11Z"/><path class="cls-4" d="M22.86,98.56V93.13q0-.52,0-1A9.28,9.28,0,0,0,22.74,91h1.15L24,92.58l-.15.12a2.61,2.61,0,0,1,1.05-1.39,3.09,3.09,0,0,1,1.69-.47c1.81,0,2.72,1,2.72,3v4.74H28.12V93.88a2.29,2.29,0,0,0-.42-1.53,1.64,1.64,0,0,0-1.32-.49,2.21,2.21,0,0,0-1.68.65,2.34,2.34,0,0,0-.63,1.73v4.32Z"/><path class="cls-4" d="M19.29,116.56v-11H20.5v11Z"/><path class="cls-4" d="M26,116.67a3.64,3.64,0,0,1-1.89-.48,3.21,3.21,0,0,1-1.24-1.36,4.48,4.48,0,0,1-.44-2.07,4.55,4.55,0,0,1,.44-2.08,3.21,3.21,0,0,1,1.24-1.36,3.64,3.64,0,0,1,1.89-.48,3.6,3.6,0,0,1,1.88.48,3.21,3.21,0,0,1,1.24,1.36,4.55,4.55,0,0,1,.45,2.08,4.48,4.48,0,0,1-.45,2.07,3.21,3.21,0,0,1-1.24,1.36A3.6,3.6,0,0,1,26,116.67Zm0-1a2.06,2.06,0,0,0,1.71-.74,4.11,4.11,0,0,0,0-4.31,2.34,2.34,0,0,0-3.43,0,3.24,3.24,0,0,0-.62,2.15,3.35,3.35,0,0,0,.6,2.16A2.12,2.12,0,0,0,26,115.66Z"/><path class="cls-4" d="M34.75,119.91a5.53,5.53,0,0,1-3-.78l.21-1a6,6,0,0,0,1.34.58,5.15,5.15,0,0,0,1.42.18,2.19,2.19,0,0,0,1.64-.57,2.36,2.36,0,0,0,.57-1.72v-2l.16-.2a3,3,0,0,1-.56,1,2.67,2.67,0,0,1-.94.68,3.15,3.15,0,0,1-1.26.24,3.17,3.17,0,0,1-2.95-1.79,4.32,4.32,0,0,1-.42-2,4.36,4.36,0,0,1,.42-2,3.18,3.18,0,0,1,2.95-1.78,3,3,0,0,1,1.78.52,2.52,2.52,0,0,1,1,1.44l-.18-.16V109h1.22v7.49a3.42,3.42,0,0,1-.87,2.54A3.45,3.45,0,0,1,34.75,119.91Zm-.15-4.59a2.14,2.14,0,0,0,1.72-.73,3.54,3.54,0,0,0,0-4,2.14,2.14,0,0,0-1.72-.73,2.2,2.2,0,0,0-1.75.73,3.51,3.51,0,0,0,0,4A2.23,2.23,0,0,0,34.6,115.32Z"/><path class="cls-4" d="M41.25,116.56v-1h6v1ZM43.6,116V106.6l.71.37-2.9,1.84v-1.19l2.73-1.74h.71V116Z"/><path class="cls-4" d="M52.83,116.68A3.19,3.19,0,0,1,50,115.3a9.21,9.21,0,0,1,0-8.15,3.5,3.5,0,0,1,5.58,0,9.24,9.24,0,0,1,0,8.14A3.15,3.15,0,0,1,52.83,116.68Zm0-1a2,2,0,0,0,1.88-1.08,7.17,7.17,0,0,0,.61-3.36,7.05,7.05,0,0,0-.61-3.34,2.2,2.2,0,0,0-3.77,0,7.05,7.05,0,0,0-.6,3.33,7.19,7.19,0,0,0,.6,3.36A2,2,0,0,0,52.83,115.65Z"/><path class="cls-4" d="M25.47,133.66a3.58,3.58,0,0,1-1.27.74,4.77,4.77,0,0,1-1.58.27,4.13,4.13,0,0,1-2-.47,3.14,3.14,0,0,1-1.31-1.34,4.51,4.51,0,0,1-.45-2.09,4.42,4.42,0,0,1,.45-2.05,3.37,3.37,0,0,1,1.25-1.39,3.52,3.52,0,0,1,1.85-.49,3.29,3.29,0,0,1,1.73.44,2.91,2.91,0,0,1,1.1,1.27,4.76,4.76,0,0,1,.38,2v.23H19.9V130h5l-.39.55a3.08,3.08,0,0,0-.52-2,1.88,1.88,0,0,0-1.59-.71,2.07,2.07,0,0,0-1.72.78,4,4,0,0,0,0,4.35,2.35,2.35,0,0,0,1.91.75,3.89,3.89,0,0,0,1.27-.21,4.15,4.15,0,0,0,1.16-.67Z"/><path class="cls-4" d="M31.26,125l3.34,7.39h-1l-3.09-6.9h.6L28,132.43H27L30.3,125Z"/><path class="cls-4" d="M20,152.56v-1H26v1Zm2.35-.55V142.6l.71.37-2.9,1.84v-1.19l2.73-1.74h.71V152Z"/><path class="cls-4" d="M31.62,152.68a3.19,3.19,0,0,1-2.79-1.38,9.21,9.21,0,0,1,0-8.15,3.17,3.17,0,0,1,2.79-1.39,3.17,3.17,0,0,1,2.79,1.39,9.24,9.24,0,0,1,0,8.14A3.15,3.15,0,0,1,31.62,152.68Zm0-1a2,2,0,0,0,1.88-1.08,7.17,7.17,0,0,0,.61-3.36,7.05,7.05,0,0,0-.61-3.34,2.2,2.2,0,0,0-3.77,0,7.05,7.05,0,0,0-.6,3.33,7.19,7.19,0,0,0,.6,3.36A2,2,0,0,0,31.62,151.65Z"/><path class="cls-4" d="M41.1,143l3.34,7.39h-1l-3.09-6.9h.6l-3.09,6.9h-1L40.14,143Z"/></g><polygon class="cls-4" points="106.8 44.38 111.77 35.75 101.82 35.75 106.8 44.38"/><path class="cls-5" d="M9.12,1H131V6c0,10-8-8-8,7.5s8-2.5,8,7.5v5H9.12V21c0-10-8,8-8-7.5s8,2.5,8-7.5Z"/><path class="cls-6" d="M8.12,0H130V5c0,10-8-8-8,7.5s8-2.5,8,7.5v5H8.12V20c0-10-8,8-8-7.5s8,2.5,8-7.5Z"/><path class="cls-7" d="M9.12,24.5h-1v-6h1ZM125.2,19.73l-.5-.86,3.68-2.1.5.86ZM.77,18.13a20.9,20.9,0,0,1,0-11.26l1,.26a19.79,19.79,0,0,0,0,10.74ZM9.12,8h-1V0H129.45V1H9.12Z"/><g class="cls-8"><rect class="cls-9" x="13.12" y="5" width="103.83" height="16" rx="4"/></g><g class="cls-3"><path class="cls-4" d="M21.84,17.61a4.42,4.42,0,0,1-3-1l.41-.9a4.18,4.18,0,0,0,1.23.68,4.27,4.27,0,0,0,1.42.22,2.43,2.43,0,0,0,1.3-.29,1,1,0,0,0,.44-.85.89.89,0,0,0-.3-.71,2.3,2.3,0,0,0-1-.43l-1.27-.3a2.86,2.86,0,0,1-1.47-.75A1.81,1.81,0,0,1,19.08,12a1.93,1.93,0,0,1,.36-1.16,2.34,2.34,0,0,1,1-.79A3.77,3.77,0,0,1,22,9.78a4.37,4.37,0,0,1,1.5.25,3.32,3.32,0,0,1,1.19.73l-.41.89a4.17,4.17,0,0,0-1.1-.67A3.38,3.38,0,0,0,22,10.76a2.12,2.12,0,0,0-1.25.32,1.09,1.09,0,0,0-.17,1.59,2,2,0,0,0,.9.42l1.27.32a2.92,2.92,0,0,1,1.57.74,1.81,1.81,0,0,1,.5,1.31A1.84,1.84,0,0,1,24,17,3.57,3.57,0,0,1,21.84,17.61Z"/><path class="cls-4" d="M33.37,20.74H32.16V15.49l.19.15a2.47,2.47,0,0,1-1,1.45,2.91,2.91,0,0,1-1.76.52,3.2,3.2,0,0,1-1.76-.48,3,3,0,0,1-1.17-1.35,4.71,4.71,0,0,1-.41-2.06,4.78,4.78,0,0,1,.42-2.07,3.31,3.31,0,0,1,1.17-1.38,3.14,3.14,0,0,1,1.75-.49,3,3,0,0,1,1.76.51,2.5,2.5,0,0,1,1,1.45l-.15-.23L32.37,10h1.12c0,.34-.07.7-.09,1s0,.71,0,1.06ZM29.86,16.6a2,2,0,0,0,1.71-.76,3.38,3.38,0,0,0,.6-2.15,3.29,3.29,0,0,0-.61-2.14,2.32,2.32,0,0,0-3.43,0,3.3,3.3,0,0,0-.62,2.15,3.22,3.22,0,0,0,.62,2.13A2.12,2.12,0,0,0,29.86,16.6Z"/><path class="cls-4" d="M38.4,17.61a2.64,2.64,0,0,1-2-.75,3.23,3.23,0,0,1-.68-2.23V10H36.9v4.65a2.24,2.24,0,0,0,.42,1.5,1.63,1.63,0,0,0,1.27.48,2.14,2.14,0,0,0,1.62-.65,2.4,2.4,0,0,0,.62-1.72V10H42V17.5H40.86V15.87l.18-.09a2.49,2.49,0,0,1-1,1.36A2.88,2.88,0,0,1,38.4,17.61Z"/><path class="cls-4" d="M47.28,17.61a3.26,3.26,0,0,1-1.77-.48,3.11,3.11,0,0,1-1.17-1.35,4.85,4.85,0,0,1-.41-2.06,4.78,4.78,0,0,1,.42-2.07,3.26,3.26,0,0,1,1.18-1.38,3.12,3.12,0,0,1,1.75-.49,2.94,2.94,0,0,1,1.75.51,2.51,2.51,0,0,1,1,1.45l-.18.12V10H51V17.5h-1.2V15.55l.18.09a2.48,2.48,0,0,1-1,1.45A2.88,2.88,0,0,1,47.28,17.61Zm.24-1a2,2,0,0,0,1.71-.76,3.38,3.38,0,0,0,.6-2.15,3.35,3.35,0,0,0-.61-2.14,2.07,2.07,0,0,0-1.7-.75,2.11,2.11,0,0,0-1.74.77,3.36,3.36,0,0,0-.62,2.15,3.28,3.28,0,0,0,.62,2.13A2.15,2.15,0,0,0,47.52,16.6Z"/><path class="cls-4" d="M53.38,17.5V12.07c0-.35,0-.7,0-1.06s0-.71-.1-1h1.16l.16,1.86-.16-.05a2.35,2.35,0,0,1,.9-1.49,2.6,2.6,0,0,1,1.57-.5,2.23,2.23,0,0,1,.37,0,1.65,1.65,0,0,1,.32.07l0,1.1a2.69,2.69,0,0,0-.79-.11,2.11,2.11,0,0,0-1.26.34,2.06,2.06,0,0,0-.69.88,3,3,0,0,0-.21,1.12v4.3Z"/><path class="cls-4" d="M64.84,16.6a3.49,3.49,0,0,1-1.27.74,5,5,0,0,1-1.58.27,4.16,4.16,0,0,1-2-.47,3.17,3.17,0,0,1-1.3-1.34,4.44,4.44,0,0,1-.46-2.09,4.47,4.47,0,0,1,.45-2.06,3.41,3.41,0,0,1,1.25-1.38,3.49,3.49,0,0,1,1.86-.49,3.17,3.17,0,0,1,1.72.44,2.8,2.8,0,0,1,1.1,1.27,4.6,4.6,0,0,1,.39,2v.22h-5.7v-.8h5l-.39.56a3.19,3.19,0,0,0-.52-2,1.94,1.94,0,0,0-1.6-.7,2.11,2.11,0,0,0-1.72.77,3.36,3.36,0,0,0-.62,2.14,3.32,3.32,0,0,0,.65,2.22A2.42,2.42,0,0,0,62,16.6a3.56,3.56,0,0,0,1.26-.22,4,4,0,0,0,1.17-.66Z"/><path class="cls-4" d="M70.74,17.5V12.07c0-.35,0-.7,0-1.06a9.1,9.1,0,0,0-.09-1h1.15l.17,1.86-.17-.05a2.32,2.32,0,0,1,.91-1.49,2.58,2.58,0,0,1,1.57-.5,2.06,2.06,0,0,1,.36,0,1.6,1.6,0,0,1,.33.07l0,1.1a2.76,2.76,0,0,0-.8-.11,2.06,2.06,0,0,0-1.25.34,1.92,1.92,0,0,0-.69.88A2.8,2.8,0,0,0,72,13.2v4.3Z"/><path class="cls-4" d="M79.14,17.61a3.64,3.64,0,0,1-1.89-.48A3.33,3.33,0,0,1,76,15.77a4.52,4.52,0,0,1-.44-2.08A4.51,4.51,0,0,1,76,11.62a3.21,3.21,0,0,1,1.24-1.36,3.64,3.64,0,0,1,1.89-.48,3.6,3.6,0,0,1,1.88.48,3.21,3.21,0,0,1,1.24,1.36,4.51,4.51,0,0,1,.45,2.07,4.52,4.52,0,0,1-.45,2.08A3.33,3.33,0,0,1,81,17.13,3.6,3.6,0,0,1,79.14,17.61Zm0-1a2.08,2.08,0,0,0,1.71-.74,3.34,3.34,0,0,0,.61-2.17,3.29,3.29,0,0,0-.61-2.14,2.34,2.34,0,0,0-3.43,0,3.23,3.23,0,0,0-.62,2.14,3.4,3.4,0,0,0,.6,2.17A2.15,2.15,0,0,0,79.14,16.6Z"/><path class="cls-4" d="M87.72,17.61a3.64,3.64,0,0,1-1.89-.48,3.33,3.33,0,0,1-1.24-1.36,4.52,4.52,0,0,1-.44-2.08,4.51,4.51,0,0,1,.44-2.07,3.21,3.21,0,0,1,1.24-1.36,3.64,3.64,0,0,1,1.89-.48,3.6,3.6,0,0,1,1.88.48,3.21,3.21,0,0,1,1.24,1.36,4.51,4.51,0,0,1,.45,2.07,4.52,4.52,0,0,1-.45,2.08,3.33,3.33,0,0,1-1.24,1.36A3.6,3.6,0,0,1,87.72,17.61Zm0-1a2.08,2.08,0,0,0,1.71-.74A3.34,3.34,0,0,0,90,13.69a3.29,3.29,0,0,0-.61-2.14,2.34,2.34,0,0,0-3.43,0,3.23,3.23,0,0,0-.62,2.14,3.4,3.4,0,0,0,.6,2.17A2.15,2.15,0,0,0,87.72,16.6Z"/><path class="cls-4" d="M92.1,10.92V10h4.84v1Zm4.81,5.5v1a5,5,0,0,1-.5.11,4.58,4.58,0,0,1-.55,0,2.29,2.29,0,0,1-1.67-.6,2.37,2.37,0,0,1-.62-1.8V8l1.21-.43V15A2.11,2.11,0,0,0,95,16a1,1,0,0,0,.48.46,1.78,1.78,0,0,0,.67.12,2.62,2.62,0,0,0,.41,0A2.73,2.73,0,0,0,96.91,16.42Z"/></g><polygon class="cls-4" points="106.8 17.31 111.77 8.69 101.82 8.69 106.8 17.31"/></g></g></svg>