<svg xmlns="http://www.w3.org/2000/svg" viewBox="0 0 595.4 37"><defs><style>.cls-1,.cls-4{fill:none;}.cls-2{fill:#3d4986;}.cls-3{fill:#4c5ba6;}.cls-4{stroke:#818dc1;}.cls-5{opacity:0.6;}.cls-6,.cls-9{fill:#fff;}.cls-7,.cls-9{isolation:isolate;}.cls-8{fill:#010101;}.cls-9{font-size:15px;font-family:Mulish-Regular, Mulish;}.cls-10{letter-spacing:-0.01em;}.cls-11{letter-spacing:0em;}</style></defs><g id="Layer_2" data-name="Layer 2"><g id="Layer_1-2" data-name="Layer 1"><rect class="cls-1" x="0.12" width="595.28" height="18"/><path class="cls-2" d="M9.12,1H302.89V37H9.12V21c0-10-8,8-8-7.5s8,2.5,8-7.5ZM205,6h-30.8v5c0,10-8-8-8,7.5s8-2.5,8,7.5v7H205Zm87.92,0h-48.4v5c0,10-8-8-8,7.5s8-2.5,8,7.5v7h48.4Z"/><path class="cls-3" d="M8.12,0H301.89V36H8.12V20c0-10-8,8-8-7.5s8,2.5,8-7.5ZM204,5h-30.8v5c0,10-8-8-8,7.5s8-2.5,8,7.5v7H204Zm87.92,0h-48.4v5c0,10-8-8-8,7.5s8-2.5,8,7.5v7h48.4Z"/><path class="cls-4" d="M8.62.5h19m0,0H301.39M8.62,35.5v-17M1.26,18a20.35,20.35,0,0,1,0-11M8.62,8V.5h.5m195.35,5v27h-30.8m-5.6-8.2,3.68-2.1M292.39,5.5v27H244m-5.6-8.2,3.68-2.1"/><path class="cls-2" d="M175.17,7H204V32h-28.8V27c0-10-8,8-8-7.5s8,2.5,8-7.5Z"/><path class="cls-3" d="M174.17,6H203V31h-28.8V26c0-10-8,8-8-7.5s8,2.5,8-7.5Z"/><path class="cls-4" d="M174.67,6.5h27.8m-27.8,24v-6m-7.36-.5a20.35,20.35,0,0,1,0-11m7.36,1V6.5h.5"/><g class="cls-5"><rect class="cls-6" x="179.17" y="11" width="18.8" height="16" rx="4"/></g><g class="cls-7"><path class="cls-8" d="M186.09,23.5v-1H192v1Zm2.35-.55V13.54l.71.36-2.9,1.85V14.56L189,12.82h.71V23Z"/></g><path class="cls-2" d="M245.49,7h46.4V32h-46.4V27c0-10-8,8-8-7.5s8,2.5,8-7.5Z"/><path class="cls-3" d="M244.49,6h46.4V31h-46.4V26c0-10-8,8-8-7.5s8,2.5,8-7.5Z"/><path class="cls-4" d="M245,6.5h45.4M245,30.5v-6m-7.36-.5a20.15,20.15,0,0,1,0-11M245,14V6.5h.5"/><g class="cls-5"><rect class="cls-6" x="249.49" y="11" width="36.4" height="16" rx="4"/></g><g class="cls-7"><path class="cls-8" d="M256.41,23.5v-1h5.95v1Zm2.35-.55V13.54l.71.36-2.9,1.85V14.56l2.73-1.74H260V23Z"/><path class="cls-8" d="M268,23.62a3.17,3.17,0,0,1-2.79-1.39,7.22,7.22,0,0,1-.95-4.07,7.22,7.22,0,0,1,.95-4.07,3.5,3.5,0,0,1,5.58,0,7.2,7.2,0,0,1,.94,4.05,7.29,7.29,0,0,1-1,4.09A3.15,3.15,0,0,1,268,23.62Zm0-1a2,2,0,0,0,1.88-1.08,7.19,7.19,0,0,0,.61-3.37,7,7,0,0,0-.61-3.33A2,2,0,0,0,268,13.75a2,2,0,0,0-1.89,1.07,7,7,0,0,0-.6,3.32,7.21,7.21,0,0,0,.6,3.37A2,2,0,0,0,268,22.59Z"/><path class="cls-8" d="M277,23.62a3.17,3.17,0,0,1-2.79-1.39,7.22,7.22,0,0,1-.95-4.07,7.22,7.22,0,0,1,.95-4.07,3.5,3.5,0,0,1,5.58,0,7.2,7.2,0,0,1,.94,4.05,7.29,7.29,0,0,1-1,4.09A3.15,3.15,0,0,1,277,23.62Zm0-1a2,2,0,0,0,1.88-1.08,7.19,7.19,0,0,0,.61-3.37,7,7,0,0,0-.61-3.33A2,2,0,0,0,277,13.75a2,2,0,0,0-1.89,1.07,7,7,0,0,0-.6,3.32,7.21,7.21,0,0,0,.6,3.37A2,2,0,0,0,277,22.59Z"/></g><text class="cls-9" transform="translate(18.12 22.5)"><tspan class="cls-10">r</tspan><tspan class="cls-11" x="5.28" y="0">andom integer f</tspan><tspan class="cls-10" x="115.11" y="0">r</tspan><tspan x="120.39" y="0">om</tspan></text><text class="cls-9" transform="translate(213.97 22.5)">to</text></g></g></svg>