<svg xmlns="http://www.w3.org/2000/svg" viewBox="0 0 595.4 25"><defs><style>.cls-1,.cls-4{fill:none;}.cls-2{fill:#3d4986;}.cls-3{fill:#4c5ba6;}.cls-4{stroke:#818dc1;}.cls-5{isolation:isolate;font-size:15px;fill:#fff;font-family:Mulish-Regular, Mulish;}.cls-6{letter-spacing:-0.01em;}.cls-7{letter-spacing:0em;}.cls-8{letter-spacing:0em;}</style></defs><g id="Layer_2" data-name="Layer 2"><g id="Layer_1-2" data-name="Layer 1"><rect class="cls-1" x="0.12" width="595.28" height="18"/><path class="cls-2" d="M9.12,1H137.35V25H9.12V21c0-10-8,8-8-7.5s8,2.5,8-7.5Z"/><path class="cls-3" d="M8.12,0H136.35V24H8.12V20c0-10-8,8-8-7.5s8,2.5,8-7.5Z"/><path class="cls-4" d="M8.62.5H135.85M8.62,23.5v-5M1.26,18a20.35,20.35,0,0,1,0-11M8.62,8V.5h.5"/><text class="cls-5" transform="translate(18.12 17.5)"><tspan class="cls-6">r</tspan><tspan class="cls-7" x="5.28" y="0">andom f</tspan><tspan class="cls-6" x="62.79" y="0">r</tspan><tspan x="68.07" y="0">a</tspan><tspan class="cls-8" x="77.07" y="0">c</tspan><tspan x="84.51" y="0">tion</tspan></text></g></g></svg>