<svg xmlns="http://www.w3.org/2000/svg" viewBox="0 0 595.4 36"><defs><style>.cls-1,.cls-4{fill:none;}.cls-2{fill:#3d4986;}.cls-3{fill:#4c5ba6;}.cls-4{stroke:#818dc1;}.cls-5{isolation:isolate;font-size:15px;fill:#fff;font-family:Mulish-Regular, Mulish;}.cls-6{letter-spacing:-0.01em;}.cls-7{letter-spacing:0em;}</style></defs><g id="Layer_2" data-name="Layer 2"><g id="Layer_1-2" data-name="Layer 1"><rect class="cls-1" x="0.12" width="595.28" height="18"/><path class="cls-2" d="M9.12,1h186V36H9.12V21c0-10-8,8-8-7.5s8,2.5,8-7.5ZM135.79,6h-14.5v5c0,10-8-8-8,7.5s8-2.5,8,7.5v6h14.5Zm49.3,0h-14.5v5c0,10-8-8-8,7.5s8-2.5,8,7.5v6h14.5Z"/><path class="cls-3" d="M8.12,0h186V35H8.12V20c0-10-8,8-8-7.5s8,2.5,8-7.5ZM134.79,5h-14.5v5c0,10-8-8-8,7.5s8-2.5,8,7.5v6h14.5Zm49.3,0h-14.5v5c0,10-8-8-8,7.5s8-2.5,8,7.5v6h14.5Z"/><path class="cls-4" d="M8.62.5h19m0,0h166m-185,34v-16M1.26,18a20.35,20.35,0,0,1,0-11M8.62,8V.5h.5m126.17,5v26h-14.5m-5.6-7.2,3.68-2.1M184.59,5.5v26h-14.5m-5.6-7.2,3.68-2.1"/><text class="cls-5" transform="translate(18.12 22.5)"><tspan class="cls-6">r</tspan><tspan x="5.28" y="0">emainder </tspan><tspan class="cls-7" x="74.47" y="0">o</tspan><tspan x="83.04" y="0">f</tspan></text><text class="cls-5" transform="translate(144.79 22.5)">÷</text></g></g></svg>