<svg xmlns="http://www.w3.org/2000/svg" viewBox="0 0 595.39 36"><defs><style>.cls-1{fill:none;}.cls-2{fill:#3d4986;}.cls-3{fill:#4c5ba6;}.cls-4{fill:#818dc1;}.cls-5{isolation:isolate;}.cls-6{fill:#fff;}</style></defs><g id="Layer_2" data-name="Layer 2"><g id="Layer_1-2" data-name="Layer 1"><rect class="cls-1" x="0.12" width="595.28" height="18"/><path class="cls-2" d="M9.12,1H222.18V36H9.12V21c0-10-8,8-8-7.5s8,2.5,8-7.5ZM79.67,6H65.17v5c0,10-8-8-8,7.5s8-2.5,8,7.5v6h14.5ZM197.53,6H183v5c0,10-8-8-8,7.5s8-2.5,8,7.5v6h14.5Z"/><path class="cls-3" d="M8.12,0H221.18V35H8.12V20c0-10-8,8-8-7.5s8,2.5,8-7.5ZM78.67,5H64.17v5c0,10-8-8-8,7.5s8-2.5,8,7.5v6h14.5ZM196.53,5H182v5c0,10-8-8-8,7.5s8-2.5,8,7.5v6h14.5Z"/><path class="cls-4" d="M9.12,34.5h-1v-16h1ZM197.53,32h-15V31h14V5.5h1ZM79.67,32h-15V31h14V5.5h1Zm97.51-7.27-.49-.86,3.68-2.1.49.86Zm-117.87,0-.49-.86,3.68-2.1.49.86ZM.77,18.13a20.9,20.9,0,0,1,0-11.26l1,.26a19.79,19.79,0,0,0,0,10.74ZM9.12,8h-1V0H220.68V1H9.12Z"/><g class="cls-5"><path class="cls-6" d="M19.29,22.5V17.07c0-.35,0-.7,0-1.06A9.47,9.47,0,0,0,19.17,15h1.15l.14,1.56-.15.11a2.56,2.56,0,0,1,.93-1.37,2.67,2.67,0,0,1,1.59-.48,2.48,2.48,0,0,1,1.7.54A2.67,2.67,0,0,1,25.3,17l-.36-.19a2.56,2.56,0,0,1,1-1.46,2.85,2.85,0,0,1,1.75-.54,2.3,2.3,0,0,1,1.87.75,3.38,3.38,0,0,1,.63,2.24V22.5H29V17.82a2.54,2.54,0,0,0-.38-1.54,1.41,1.41,0,0,0-1.18-.49,1.88,1.88,0,0,0-1.5.65,2.63,2.63,0,0,0-.54,1.75V22.5H24.13V17.82a2.54,2.54,0,0,0-.38-1.54,1.44,1.44,0,0,0-1.19-.49,1.87,1.87,0,0,0-1.51.65,2.59,2.59,0,0,0-.55,1.75V22.5Z"/><path class="cls-6" d="M35.37,22.6a3.25,3.25,0,0,1-1.77-.47,3.11,3.11,0,0,1-1.17-1.35A4.85,4.85,0,0,1,32,18.72a4.78,4.78,0,0,1,.42-2.07,3.26,3.26,0,0,1,1.18-1.38,3.12,3.12,0,0,1,1.75-.5,2.94,2.94,0,0,1,1.75.51,2.54,2.54,0,0,1,1,1.46l-.18.12V15h1.2V22.5h-1.2V20.55l.18.09a2.51,2.51,0,0,1-1,1.45A2.94,2.94,0,0,1,35.37,22.6Zm.24-1a2,2,0,0,0,1.71-.76,3.38,3.38,0,0,0,.6-2.15,3.38,3.38,0,0,0-.61-2.15,2.07,2.07,0,0,0-1.7-.75,2.11,2.11,0,0,0-1.74.78,3.36,3.36,0,0,0-.62,2.15,3.28,3.28,0,0,0,.62,2.13A2.15,2.15,0,0,0,35.61,21.6Z"/><path class="cls-6" d="M41.47,25.74V17.07c0-.35,0-.7,0-1.06s-.05-.71-.1-1.06h1.16l.13,1.56-.12.23a2.54,2.54,0,0,1,1-1.46,2.93,2.93,0,0,1,1.74-.51,3.09,3.09,0,0,1,1.74.5,3.35,3.35,0,0,1,1.19,1.38,4.78,4.78,0,0,1,.43,2.07,4.7,4.7,0,0,1-.43,2.06,3.1,3.1,0,0,1-2.93,1.82,2.93,2.93,0,0,1-1.74-.51,2.51,2.51,0,0,1-1-1.45l.17-.15v5.25ZM45,21.6a2.09,2.09,0,0,0,1.71-.75,3.28,3.28,0,0,0,.62-2.13,3.36,3.36,0,0,0-.62-2.15,2.3,2.3,0,0,0-3.43,0,3.38,3.38,0,0,0-.6,2.15,3.38,3.38,0,0,0,.6,2.15A2,2,0,0,0,45,21.6Z"/></g><g class="cls-5"><path class="cls-6" d="M92.06,22.5,88.85,15h1.27l2.73,6.64h-.36L95.25,15h1.22L93.21,22.5Z"/><path class="cls-6" d="M100.61,22.6a3.25,3.25,0,0,1-1.77-.47,3.11,3.11,0,0,1-1.17-1.35,4.85,4.85,0,0,1-.41-2.06,4.78,4.78,0,0,1,.42-2.07,3.26,3.26,0,0,1,1.18-1.38,3.12,3.12,0,0,1,1.75-.5,2.94,2.94,0,0,1,1.75.51,2.54,2.54,0,0,1,1,1.46l-.18.12V15h1.2V22.5h-1.2V20.55l.18.09a2.51,2.51,0,0,1-1,1.45A2.94,2.94,0,0,1,100.61,22.6Zm.24-1a2,2,0,0,0,1.71-.76,3.38,3.38,0,0,0,.6-2.15,3.38,3.38,0,0,0-.61-2.15,2.07,2.07,0,0,0-1.7-.75,2.11,2.11,0,0,0-1.74.78,3.36,3.36,0,0,0-.62,2.15,3.28,3.28,0,0,0,.62,2.13A2.15,2.15,0,0,0,100.85,21.6Z"/><path class="cls-6" d="M106.71,22.5v-11h1.22v11Z"/><path class="cls-6" d="M113,22.6a2.6,2.6,0,0,1-2-.75,3.17,3.17,0,0,1-.68-2.22V15h1.21V19.6a2.24,2.24,0,0,0,.42,1.5,1.62,1.62,0,0,0,1.28.48,2.13,2.13,0,0,0,1.62-.64,2.41,2.41,0,0,0,.61-1.73V15h1.22V22.5h-1.19V20.86l.18-.09a2.55,2.55,0,0,1-1,1.37A2.93,2.93,0,0,1,113,22.6Z"/><path class="cls-6" d="M125.12,21.6a3.56,3.56,0,0,1-1.27.73,4.77,4.77,0,0,1-1.58.27,4.13,4.13,0,0,1-2-.46,3.19,3.19,0,0,1-1.31-1.34,4.58,4.58,0,0,1-.45-2.1,4.45,4.45,0,0,1,.45-2.05,3.34,3.34,0,0,1,1.25-1.38,3.44,3.44,0,0,1,1.85-.5,3.21,3.21,0,0,1,1.73.45,2.83,2.83,0,0,1,1.1,1.26,4.76,4.76,0,0,1,.38,2v.23h-5.7v-.8h5l-.39.56a3.11,3.11,0,0,0-.52-2,1.88,1.88,0,0,0-1.59-.7,2.1,2.1,0,0,0-1.72.77,3.31,3.31,0,0,0-.62,2.14,3.27,3.27,0,0,0,.65,2.22,2.39,2.39,0,0,0,1.91.75,3.65,3.65,0,0,0,1.27-.22,3.92,3.92,0,0,0,1.16-.67Z"/><path class="cls-6" d="M130,15.91V15h4.84v1Zm4.81,5.51v1l-.5.12a4.68,4.68,0,0,1-.55,0A2.29,2.29,0,0,1,132,22a2.37,2.37,0,0,1-.62-1.8V13l1.21-.44V20a2.11,2.11,0,0,0,.17.93,1,1,0,0,0,.48.46,1.78,1.78,0,0,0,.67.12,2.54,2.54,0,0,0,.41,0A2.59,2.59,0,0,0,134.76,21.42Z"/><path class="cls-6" d="M139.38,22.6a3.58,3.58,0,0,1-1.88-.48,3.26,3.26,0,0,1-1.25-1.35,4.65,4.65,0,0,1-.44-2.08,4.64,4.64,0,0,1,.44-2.07,3.26,3.26,0,0,1,1.25-1.37,3.92,3.92,0,0,1,3.76,0,3.26,3.26,0,0,1,1.25,1.37,4.64,4.64,0,0,1,.44,2.07,4.65,4.65,0,0,1-.44,2.08,3.26,3.26,0,0,1-1.25,1.35A3.58,3.58,0,0,1,139.38,22.6Zm0-1a2.12,2.12,0,0,0,1.72-.74,3.4,3.4,0,0,0,.61-2.17,3.32,3.32,0,0,0-.62-2.15,2.09,2.09,0,0,0-1.71-.75,2.12,2.12,0,0,0-1.72.75,3.32,3.32,0,0,0-.62,2.15,3.34,3.34,0,0,0,.61,2.17A2.11,2.11,0,0,0,139.38,21.6Z"/><path class="cls-6" d="M149.24,25.23V11.82h3v1h-1.77V24.25h1.77v1Z"/><path class="cls-6" d="M156.84,22.62a3.14,3.14,0,0,1-2.78-1.39,7.14,7.14,0,0,1-.95-4.07,7.23,7.23,0,0,1,.94-4.07,3.5,3.5,0,0,1,5.58,0,7.17,7.17,0,0,1,1,4.05,7.19,7.19,0,0,1-1,4.08A3.15,3.15,0,0,1,156.84,22.62Zm0-1a2,2,0,0,0,1.88-1.08,7,7,0,0,0,.61-3.36,6.86,6.86,0,0,0-.61-3.33,2.2,2.2,0,0,0-3.76,0,6.91,6.91,0,0,0-.61,3.33A7,7,0,0,0,155,20.5,2,2,0,0,0,156.84,21.58Z"/><path class="cls-6" d="M162.44,19V18h4.24v1Z"/></g><g class="cls-5"><path class="cls-6" d="M209.64,25.23h-3v-1h1.77V12.78h-1.77v-1h3Z"/></g></g></g></svg>