<svg xmlns="http://www.w3.org/2000/svg" viewBox="0 0 595.28 88.19"><defs><style>.cls-1{fill:none;}.cls-2{fill:#3d4986;}.cls-3{fill:#4c5ba6;}.cls-4{fill:#818dc1;}.cls-5{opacity:0.6;}.cls-6{fill:#fff;}.cls-7{isolation:isolate;}.cls-8{fill:#010101;}.cls-9{fill:#e2e2e2;}.cls-10{fill:#b7b7b7;}</style></defs><g id="Layer_2" data-name="Layer 2"><g id="Layer_1-2" data-name="Layer 1"><rect class="cls-1" width="595.28" height="18"/><path class="cls-2" d="M1,9A8,8,0,0,1,9,1h7l6,4h3l6-4H161.55V6c0,10-8-8-8,7.5s8-2.5,8,7.5v5H30.5l-6,4h-3l-6-4H9a8,8,0,0,1-8-8Z"/><path class="cls-3" d="M0,8A8,8,0,0,1,8,0h7l6,4h3l6-4H160.55V5c0,10-8-8-8,7.5s8-2.5,8,7.5v5H29.5l-6,4h-3l-6-4H8a8,8,0,0,1-8-8Z"/><path class="cls-4" d="M2.34,22.66A8,8,0,0,1,0,17V8H1v9A7,7,0,0,0,3.05,22ZM155.8,19.73l-.5-.86,3.68-2.1.5.86ZM1,7.53,0,7.47A8,8,0,0,1,8,0h7.17l6,4h2.7l6-4h130.2V1H30.15l-6,4h-3.3l-6-4H8A7,7,0,0,0,1,7.53Z"/><path class="cls-2" d="M162.55,1h28.8V26h-28.8V21c0-10-8,8-8-7.5s8,2.5,8-7.5Z"/><path class="cls-3" d="M161.55,0h28.8V25h-28.8V20c0-10-8,8-8-7.5s8,2.5,8-7.5Z"/><path class="cls-4" d="M162.55,24.5h-1v-6h1Zm-8.34-6.37a20.71,20.71,0,0,1,0-11.26l1,.26a20,20,0,0,0,0,10.74ZM162.55,8h-1V0h28.3V1h-27.3Z"/><g class="cls-5"><rect class="cls-6" x="166.55" y="5" width="18.8" height="16" rx="4"/></g><g class="cls-7"><path class="cls-8" d="M173.47,17.5v-1h5.95v1Zm2.35-.55V7.54l.71.36-2.9,1.85V8.56l2.73-1.74h.71V17Z"/></g><g class="cls-7"><path class="cls-6" d="M14.34,17.61a3.58,3.58,0,0,1-1.92-.49,3.26,3.26,0,0,1-1.26-1.34,4.57,4.57,0,0,1-.44-2.06,4.5,4.5,0,0,1,.45-2.06,3.36,3.36,0,0,1,1.27-1.39,3.75,3.75,0,0,1,2-.49,4.11,4.11,0,0,1,1.47.26,3.22,3.22,0,0,1,1.18.72l-.4.91A5,5,0,0,0,15.56,11a3,3,0,0,0-1.1-.22,2.26,2.26,0,0,0-1.81.77A3.16,3.16,0,0,0,12,13.72a3.12,3.12,0,0,0,.66,2.13,2.3,2.3,0,0,0,1.82.75,2.83,2.83,0,0,0,1.09-.22,4.4,4.4,0,0,0,1.1-.65l.4.9a3.34,3.34,0,0,1-1.21.71A4.24,4.24,0,0,1,14.34,17.61Z"/><path class="cls-6" d="M18.59,17.5v-11h1.22v5l-.2.14a2.56,2.56,0,0,1,1.06-1.38,3,3,0,0,1,1.69-.47c1.81,0,2.71,1,2.71,3V17.5H23.86V12.82a2.34,2.34,0,0,0-.42-1.54,1.67,1.67,0,0,0-1.32-.49,2.24,2.24,0,0,0-1.68.65,2.38,2.38,0,0,0-.63,1.74V17.5Z"/><path class="cls-6" d="M30.26,17.61a3.23,3.23,0,0,1-1.76-.48,3.11,3.11,0,0,1-1.17-1.35,4.85,4.85,0,0,1-.41-2.06,4.78,4.78,0,0,1,.42-2.07,3.26,3.26,0,0,1,1.18-1.38,3.08,3.08,0,0,1,1.74-.49,3,3,0,0,1,1.76.51,2.47,2.47,0,0,1,1,1.45l-.17.12V10H34V17.5H32.82V15.55l.17.09a2.5,2.5,0,0,1-1,1.45A2.91,2.91,0,0,1,30.26,17.61Zm.24-1a2,2,0,0,0,1.71-.76,3.38,3.38,0,0,0,.61-2.15,3.38,3.38,0,0,0-.61-2.15,2.32,2.32,0,0,0-3.44,0,3.36,3.36,0,0,0-.62,2.15,3.28,3.28,0,0,0,.62,2.13A2.13,2.13,0,0,0,30.5,16.6Z"/><path class="cls-6" d="M36.37,17.5V12.07c0-.35,0-.7,0-1.06s-.05-.71-.1-1H37.4l.14,1.55-.15.12a2.59,2.59,0,0,1,1-1.38,3,3,0,0,1,1.69-.47c1.81,0,2.72,1,2.72,3V17.5H41.63V12.82a2.34,2.34,0,0,0-.42-1.54,1.67,1.67,0,0,0-1.32-.49,2.24,2.24,0,0,0-1.68.65,2.43,2.43,0,0,0-.63,1.74V17.5Z"/><path class="cls-6" d="M48.46,20.84a5.61,5.61,0,0,1-3-.77l.21-1a6.48,6.48,0,0,0,1.33.58,5.23,5.23,0,0,0,1.43.18,2.16,2.16,0,0,0,1.64-.58,2.35,2.35,0,0,0,.56-1.72v-2l.17-.19a2.82,2.82,0,0,1-.56,1,2.58,2.58,0,0,1-.94.69,3.15,3.15,0,0,1-1.26.24,3.21,3.21,0,0,1-3-1.79,4.32,4.32,0,0,1-.43-2,4.36,4.36,0,0,1,.43-2,3.18,3.18,0,0,1,3-1.78,3,3,0,0,1,1.78.51,2.58,2.58,0,0,1,1,1.45l-.18-.16V10h1.21v7.48A3.42,3.42,0,0,1,51,20,3.45,3.45,0,0,1,48.46,20.84Zm-.15-4.59A2.16,2.16,0,0,0,50,15.53a3,3,0,0,0,.62-2,3,3,0,0,0-.62-2,2.17,2.17,0,0,0-1.72-.73,2.23,2.23,0,0,0-1.75.73,3,3,0,0,0-.64,2,3,3,0,0,0,.64,2A2.25,2.25,0,0,0,48.31,16.25Z"/><path class="cls-6" d="M60.38,16.6a3.38,3.38,0,0,1-1.26.73,4.84,4.84,0,0,1-1.59.28,4.09,4.09,0,0,1-2-.47,3.19,3.19,0,0,1-1.31-1.34,4.57,4.57,0,0,1-.46-2.09,4.47,4.47,0,0,1,.45-2.06,3.37,3.37,0,0,1,1.26-1.38,3.43,3.43,0,0,1,1.85-.49,3.17,3.17,0,0,1,1.72.44,2.88,2.88,0,0,1,1.11,1.27,4.74,4.74,0,0,1,.38,2v.23h-5.7v-.8h5l-.39.56a3.13,3.13,0,0,0-.52-2,1.92,1.92,0,0,0-1.6-.7,2.08,2.08,0,0,0-1.71.77A3.31,3.31,0,0,0,55,13.63a3.27,3.27,0,0,0,.66,2.22,2.39,2.39,0,0,0,1.91.75,3.65,3.65,0,0,0,1.27-.22A3.92,3.92,0,0,0,60,15.71Z"/></g><g class="cls-5"><rect class="cls-6" x="65.08" y="5" width="55.97" height="16" rx="4"/></g><g class="cls-7"><path class="cls-8" d="M71.13,6.76h1.49V8.14H71.13Zm.12,10.74V10h1.22V17.5Z"/><path class="cls-8" d="M73.76,10.92V10H78.6v1Zm4.81,5.5v1l-.5.11a4.43,4.43,0,0,1-.55,0A2.27,2.27,0,0,1,75.85,17a2.39,2.39,0,0,1-.62-1.79V8l1.21-.44V15a2,2,0,0,0,.18.93,1,1,0,0,0,.47.46,1.78,1.78,0,0,0,.67.12l.41,0Z"/><path class="cls-8" d="M86.25,16.6a3.38,3.38,0,0,1-1.26.73,4.84,4.84,0,0,1-1.59.28,4.09,4.09,0,0,1-2-.47,3.19,3.19,0,0,1-1.31-1.34,4.57,4.57,0,0,1-.46-2.09,4.47,4.47,0,0,1,.45-2.06,3.37,3.37,0,0,1,1.26-1.38,3.43,3.43,0,0,1,1.85-.49,3.17,3.17,0,0,1,1.72.44A2.88,2.88,0,0,1,86,11.49a4.74,4.74,0,0,1,.38,2v.23h-5.7v-.8h5l-.39.56a3.13,3.13,0,0,0-.52-2,1.92,1.92,0,0,0-1.6-.7,2.08,2.08,0,0,0-1.71.77,3.31,3.31,0,0,0-.63,2.14,3.27,3.27,0,0,0,.66,2.22,2.39,2.39,0,0,0,1.91.75,3.65,3.65,0,0,0,1.27-.22,3.92,3.92,0,0,0,1.16-.67Z"/><path class="cls-8" d="M88.23,17.5V12.07c0-.35,0-.7,0-1.06s0-.71-.1-1h1.16l.13,1.55-.15.11a2.61,2.61,0,0,1,.94-1.37,2.68,2.68,0,0,1,1.58-.47,2.51,2.51,0,0,1,1.71.54A2.61,2.61,0,0,1,94.25,12l-.36-.19a2.5,2.5,0,0,1,1-1.45,2.82,2.82,0,0,1,1.74-.54,2.32,2.32,0,0,1,1.88.74,3.38,3.38,0,0,1,.63,2.24V17.5H97.89V12.82a2.55,2.55,0,0,0-.37-1.54,1.43,1.43,0,0,0-1.19-.49,1.86,1.86,0,0,0-1.49.65,2.61,2.61,0,0,0-.55,1.76v4.3H93.08V12.82a2.47,2.47,0,0,0-.39-1.54,1.43,1.43,0,0,0-1.19-.49,1.85,1.85,0,0,0-1.5.65,2.61,2.61,0,0,0-.55,1.76v4.3Z"/></g><g class="cls-7"><path class="cls-6" d="M127.22,17.5v-11h1.21v5.43l-.16-.15a2.56,2.56,0,0,1,1-1.45A2.93,2.93,0,0,1,131,9.78a3.28,3.28,0,0,1,1.76.47,3.41,3.41,0,0,1,1.18,1.36,4.66,4.66,0,0,1,.42,2.05,4.86,4.86,0,0,1-.42,2.08,3.35,3.35,0,0,1-1.19,1.38,3.17,3.17,0,0,1-1.75.49,2.87,2.87,0,0,1-1.74-.52,2.5,2.5,0,0,1-1-1.45l.16-.17v2Zm3.54-.9a2.08,2.08,0,0,0,1.71-.77,3.42,3.42,0,0,0,.62-2.17,3.27,3.27,0,0,0-.62-2.12,2.34,2.34,0,0,0-3.44,0,3.38,3.38,0,0,0-.6,2.14,3.38,3.38,0,0,0,.6,2.15A2.07,2.07,0,0,0,130.76,16.6Z"/><path class="cls-6" d="M138.53,17.89,135.14,10h1.28l2.73,6.66Zm-2.76,3-.25-.95a7.18,7.18,0,0,0,1.16-.38,2.43,2.43,0,0,0,.79-.57,2.84,2.84,0,0,0,.57-.91l.48-1.11.27-.37L141.55,10h1.21l-3.53,8.23a5.15,5.15,0,0,1-.91,1.46,3.59,3.59,0,0,1-1.15.84A6.37,6.37,0,0,1,135.77,20.91Z"/></g><polygon class="cls-8" points="109.07 17.31 114.05 8.69 104.09 8.69 109.07 17.31"/><rect class="cls-9" x="65.08" y="31.69" width="139.65" height="56" rx="5.67"/><path class="cls-10" d="M199.07,88.19H70.75A6.18,6.18,0,0,1,64.58,82V37.36a6.18,6.18,0,0,1,6.17-6.17H199.07a6.17,6.17,0,0,1,6.16,6.17V82A6.17,6.17,0,0,1,199.07,88.19Zm-128.32-56a5.18,5.18,0,0,0-5.17,5.17V82a5.18,5.18,0,0,0,5.17,5.17H199.07A5.17,5.17,0,0,0,204.23,82V37.36a5.17,5.17,0,0,0-5.16-5.17Z"/><g class="cls-7"><path class="cls-8" d="M71.13,35.32h1.49V36.7H71.13Zm.12,10.74V38.52h1.22v7.54Z"/><path class="cls-8" d="M73.76,39.48v-1H78.6v1ZM78.57,45v1a3,3,0,0,1-.5.11,3.09,3.09,0,0,1-.55,0,2.31,2.31,0,0,1-1.67-.6,2.41,2.41,0,0,1-.62-1.8V36.58l1.21-.43V43.6a2,2,0,0,0,.18.93.91.91,0,0,0,.47.46,1.6,1.6,0,0,0,.67.13,2.54,2.54,0,0,0,.41,0A2.73,2.73,0,0,0,78.57,45Z"/><path class="cls-8" d="M86.25,45.16A3.53,3.53,0,0,1,85,45.9a4.83,4.83,0,0,1-1.59.27,4.09,4.09,0,0,1-2-.47,3.14,3.14,0,0,1-1.31-1.34,5,5,0,0,1,0-4.15,3.37,3.37,0,0,1,1.26-1.38,3.43,3.43,0,0,1,1.85-.49,3.26,3.26,0,0,1,1.72.44A2.93,2.93,0,0,1,86,40.05a4.76,4.76,0,0,1,.38,2v.22h-5.7v-.79h5l-.39.55a3.08,3.08,0,0,0-.52-2,1.9,1.9,0,0,0-1.6-.71,2.06,2.06,0,0,0-1.71.78,3.26,3.26,0,0,0-.63,2.13,3.27,3.27,0,0,0,.66,2.22,2.35,2.35,0,0,0,1.91.75A3.89,3.89,0,0,0,84.69,45a4.15,4.15,0,0,0,1.16-.67Z"/><path class="cls-8" d="M88.23,46.06V40.63c0-.35,0-.7,0-1.05a9.28,9.28,0,0,0-.1-1.06h1.16l.13,1.56-.15.1a2.55,2.55,0,0,1,.94-1.36,2.64,2.64,0,0,1,1.58-.48,2.51,2.51,0,0,1,1.71.54,2.67,2.67,0,0,1,.77,1.65l-.36-.2a2.53,2.53,0,0,1,1-1.45,2.82,2.82,0,0,1,1.74-.54,2.35,2.35,0,0,1,1.88.74,3.4,3.4,0,0,1,.63,2.24v4.74H97.89V41.38a2.5,2.5,0,0,0-.37-1.53,1.4,1.4,0,0,0-1.19-.49,1.85,1.85,0,0,0-1.49.64,2.67,2.67,0,0,0-.55,1.76v4.3H93.08V41.38a2.49,2.49,0,0,0-.38-1.53,1.43,1.43,0,0,0-1.2-.49A1.85,1.85,0,0,0,90,40a2.61,2.61,0,0,0-.55,1.76v4.3Z"/><path class="cls-8" d="M71.4,64.06V53.38h4.25a4.06,4.06,0,0,1,2.65.77,2.7,2.7,0,0,1,.92,2.2,2.66,2.66,0,0,1-.94,2.17,3.93,3.93,0,0,1-2.63.79l1.11-.21a1.62,1.62,0,0,1,1,.32,2.24,2.24,0,0,1,.68,1l1.35,3.61H78.48l-1.32-3.55a1.52,1.52,0,0,0-.69-.89,2.64,2.64,0,0,0-1.18-.22H72.62v4.66Zm1.22-5.68h2.92a2.87,2.87,0,0,0,1.86-.51,1.86,1.86,0,0,0,.6-1.5,1.8,1.8,0,0,0-.6-1.48,3,3,0,0,0-1.86-.49H72.62Z"/><path class="cls-8" d="M87.83,63.16a3.49,3.49,0,0,1-1.27.74,4.73,4.73,0,0,1-1.58.27,4.16,4.16,0,0,1-2-.47,3.12,3.12,0,0,1-1.3-1.34,4.39,4.39,0,0,1-.46-2.09,4.5,4.5,0,0,1,.45-2.06,3.41,3.41,0,0,1,1.25-1.38,3.46,3.46,0,0,1,1.85-.49,3.29,3.29,0,0,1,1.73.44,2.85,2.85,0,0,1,1.1,1.27A4.6,4.6,0,0,1,88,60v.22h-5.7v-.79h5l-.39.55a3.14,3.14,0,0,0-.51-2,1.91,1.91,0,0,0-1.6-.71,2.09,2.09,0,0,0-1.72.78,4,4,0,0,0,0,4.35,2.37,2.37,0,0,0,1.91.75A3.85,3.85,0,0,0,86.26,63a4,4,0,0,0,1.16-.67Z"/><path class="cls-8" d="M89.81,64.06V58.63c0-.35,0-.7,0-1.05s-.05-.71-.1-1.06h1.15L91,58.08l-.15.12a2.61,2.61,0,0,1,1-1.39,3.09,3.09,0,0,1,1.69-.47c1.81,0,2.72,1,2.72,3v4.74H95.07V59.38a2.29,2.29,0,0,0-.42-1.53,1.64,1.64,0,0,0-1.32-.49,2.24,2.24,0,0,0-1.68.64A2.38,2.38,0,0,0,91,59.74v4.32Z"/><path class="cls-8" d="M101.48,64.17a3.28,3.28,0,0,1-1.76-.47,3.09,3.09,0,0,1-1.17-1.35,5.31,5.31,0,0,1,0-4.14,3.33,3.33,0,0,1,1.18-1.38,3.14,3.14,0,0,1,1.75-.49,2.94,2.94,0,0,1,1.75.51,2.51,2.51,0,0,1,1,1.45l-.18.12v-1.9h1.2v7.54H104v-2l.18.09a2.54,2.54,0,0,1-1,1.46A2.94,2.94,0,0,1,101.48,64.17Zm.24-1a2.06,2.06,0,0,0,1.71-.75,3.43,3.43,0,0,0,.6-2.16,3.29,3.29,0,0,0-.61-2.14,2.06,2.06,0,0,0-1.7-.75,2.1,2.1,0,0,0-1.73.77,3.32,3.32,0,0,0-.63,2.15,3.2,3.2,0,0,0,.63,2.13A2.09,2.09,0,0,0,101.72,63.16Z"/><path class="cls-8" d="M107.58,64.06V58.63c0-.35,0-.7,0-1.05a9.28,9.28,0,0,0-.1-1.06h1.16l.13,1.56-.15.1a2.55,2.55,0,0,1,.94-1.36,2.64,2.64,0,0,1,1.58-.48,2.51,2.51,0,0,1,1.71.54,2.67,2.67,0,0,1,.77,1.65l-.36-.2a2.53,2.53,0,0,1,1-1.45,2.82,2.82,0,0,1,1.74-.54,2.35,2.35,0,0,1,1.88.74,3.4,3.4,0,0,1,.63,2.24v4.74h-1.22V59.38a2.5,2.5,0,0,0-.37-1.53,1.4,1.4,0,0,0-1.19-.49,1.85,1.85,0,0,0-1.49.64,2.67,2.67,0,0,0-.55,1.76v4.3h-1.21V59.38a2.49,2.49,0,0,0-.38-1.53,1.43,1.43,0,0,0-1.2-.49,1.85,1.85,0,0,0-1.5.64,2.61,2.61,0,0,0-.55,1.76v4.3Z"/><path class="cls-8" d="M127,63.16a3.49,3.49,0,0,1-1.27.74,4.73,4.73,0,0,1-1.58.27,4.16,4.16,0,0,1-2-.47,3.12,3.12,0,0,1-1.3-1.34,4.39,4.39,0,0,1-.46-2.09,4.5,4.5,0,0,1,.45-2.06A3.41,3.41,0,0,1,122,56.83a3.46,3.46,0,0,1,1.85-.49,3.29,3.29,0,0,1,1.73.44,2.85,2.85,0,0,1,1.1,1.27,4.6,4.6,0,0,1,.38,2v.22h-5.7v-.79h5L126,60a3.14,3.14,0,0,0-.51-2,1.91,1.91,0,0,0-1.6-.71,2.09,2.09,0,0,0-1.72.78,4,4,0,0,0,0,4.35,2.37,2.37,0,0,0,1.91.75,3.85,3.85,0,0,0,1.27-.21,4,4,0,0,0,1.16-.67Z"/><path class="cls-8" d="M135.06,64.06l-3.21-7.53h1.28l2.73,6.65h-.36l2.76-6.65h1.21l-3.25,7.53Z"/><path class="cls-8" d="M143.61,64.17a3.31,3.31,0,0,1-1.76-.47,3.22,3.22,0,0,1-1.17-1.35,4.93,4.93,0,0,1-.41-2.07,4.78,4.78,0,0,1,.42-2.07,3.26,3.26,0,0,1,1.18-1.38,3.08,3.08,0,0,1,1.74-.49,3,3,0,0,1,1.76.51,2.5,2.5,0,0,1,1,1.45l-.18.12v-1.9h1.2v7.54h-1.2v-2l.18.09a2.52,2.52,0,0,1-1,1.46A3,3,0,0,1,143.61,64.17Zm.24-1a2.06,2.06,0,0,0,1.71-.75,3.43,3.43,0,0,0,.6-2.16,3.35,3.35,0,0,0-.6-2.14,2.09,2.09,0,0,0-1.71-.75,2.12,2.12,0,0,0-1.73.77,3.38,3.38,0,0,0-.62,2.15,3.26,3.26,0,0,0,.62,2.13A2.1,2.1,0,0,0,143.85,63.16Z"/><path class="cls-8" d="M149.72,64.06V58.63c0-.35,0-.7,0-1.05s0-.71-.1-1.06h1.15l.17,1.86-.17-.05a2.39,2.39,0,0,1,.91-1.49,2.67,2.67,0,0,1,1.57-.5l.37,0,.32.07,0,1.11a2.45,2.45,0,0,0-.8-.12,2.08,2.08,0,0,0-1.25.34,2.12,2.12,0,0,0-.69.88,3.06,3.06,0,0,0-.22,1.12v4.3Z"/><path class="cls-8" d="M155,53.32h1.48V54.7H155Zm.12,10.74V56.52h1.21v7.54Z"/><path class="cls-8" d="M161.61,64.17a3.31,3.31,0,0,1-1.76-.47,3.22,3.22,0,0,1-1.17-1.35,4.93,4.93,0,0,1-.41-2.07,4.78,4.78,0,0,1,.42-2.07,3.26,3.26,0,0,1,1.18-1.38,3.08,3.08,0,0,1,1.74-.49,3,3,0,0,1,1.76.51,2.5,2.5,0,0,1,1,1.45l-.18.12v-1.9h1.2v7.54h-1.2v-2l.18.09a2.52,2.52,0,0,1-1,1.46A3,3,0,0,1,161.61,64.17Zm.24-1a2.06,2.06,0,0,0,1.71-.75,3.43,3.43,0,0,0,.6-2.16,3.35,3.35,0,0,0-.6-2.14,2.09,2.09,0,0,0-1.71-.75,2.12,2.12,0,0,0-1.73.77,3.38,3.38,0,0,0-.62,2.15,3.26,3.26,0,0,0,.62,2.13A2.1,2.1,0,0,0,161.85,63.16Z"/><path class="cls-8" d="M167.72,64.06V53h1.21v5.43l-.16-.15a2.51,2.51,0,0,1,1-1.44,2.87,2.87,0,0,1,1.74-.52,3.2,3.2,0,0,1,1.76.48,3.31,3.31,0,0,1,1.18,1.35,4.66,4.66,0,0,1,.42,2,4.83,4.83,0,0,1-.42,2.08,3.23,3.23,0,0,1-1.19,1.38,3.12,3.12,0,0,1-1.75.49,2.93,2.93,0,0,1-1.74-.51,2.52,2.52,0,0,1-1-1.46l.16-.16v2Zm3.54-.9a2,2,0,0,0,1.71-.77,3.4,3.4,0,0,0,.61-2.17,3.24,3.24,0,0,0-.61-2.11,2.34,2.34,0,0,0-3.44,0,3.33,3.33,0,0,0-.6,2.13,3.43,3.43,0,0,0,.6,2.16A2.09,2.09,0,0,0,171.26,63.16Z"/><path class="cls-8" d="M176.72,64.06V53h1.21v11Z"/><path class="cls-8" d="M186.47,63.16a3.58,3.58,0,0,1-1.27.74,4.77,4.77,0,0,1-1.58.27,4.13,4.13,0,0,1-2-.47,3.06,3.06,0,0,1-1.3-1.34,4.39,4.39,0,0,1-.46-2.09,4.5,4.5,0,0,1,.45-2.06,3.34,3.34,0,0,1,1.25-1.38,3.43,3.43,0,0,1,1.85-.49,3.29,3.29,0,0,1,1.73.44,2.91,2.91,0,0,1,1.1,1.27,4.76,4.76,0,0,1,.38,2v.22h-5.7v-.79h5l-.39.55a3.08,3.08,0,0,0-.52-2,1.88,1.88,0,0,0-1.59-.71,2.07,2.07,0,0,0-1.72.78,4,4,0,0,0,0,4.35,2.35,2.35,0,0,0,1.91.75A3.89,3.89,0,0,0,184.9,63a4.15,4.15,0,0,0,1.16-.67Z"/><path class="cls-8" d="M188.24,62.52h1.54v1.54h-1.54Z"/><path class="cls-8" d="M191.7,62.52h1.55v1.54H191.7Z"/><path class="cls-8" d="M195.17,62.52h1.54v1.54h-1.54Z"/><path class="cls-8" d="M71.4,82.06V71.38h.95l6.81,9.08-.36.09V71.38H80V82.06H79L72.21,73l.35-.1v9.16Z"/><path class="cls-8" d="M88.62,81.16a3.53,3.53,0,0,1-1.26.74,4.83,4.83,0,0,1-1.59.27,4.09,4.09,0,0,1-2-.47,3.14,3.14,0,0,1-1.31-1.34,5,5,0,0,1,0-4.15,3.37,3.37,0,0,1,1.26-1.38,3.43,3.43,0,0,1,1.85-.49,3.26,3.26,0,0,1,1.72.44,2.93,2.93,0,0,1,1.11,1.27,4.76,4.76,0,0,1,.38,2v.22h-5.7v-.79h5l-.39.55a3.08,3.08,0,0,0-.52-2,1.9,1.9,0,0,0-1.6-.71,2.06,2.06,0,0,0-1.71.78,4,4,0,0,0,0,4.35,2.35,2.35,0,0,0,1.91.75A3.89,3.89,0,0,0,87.06,81a4.15,4.15,0,0,0,1.16-.67Z"/><path class="cls-8" d="M92.54,82.06l-2.79-7.54H91l2.33,6.64H93l2.4-6.64h1.06l2.37,6.64H98.4l2.37-6.64H102l-2.79,7.54H98l-2.49-6.79h.66l-2.47,6.79Z"/><path class="cls-8" d="M109.68,82.06l-3.21-7.53h1.28l2.73,6.65h-.36l2.76-6.65h1.21l-3.25,7.53Z"/><path class="cls-8" d="M118.23,82.17a3.31,3.31,0,0,1-1.76-.47,3.22,3.22,0,0,1-1.17-1.35,4.93,4.93,0,0,1-.41-2.07,4.78,4.78,0,0,1,.42-2.07,3.26,3.26,0,0,1,1.18-1.38,3.08,3.08,0,0,1,1.74-.49,3,3,0,0,1,1.76.51,2.5,2.5,0,0,1,1,1.45l-.18.12v-1.9H122v7.54h-1.2v-2l.18.09a2.52,2.52,0,0,1-1,1.46A3,3,0,0,1,118.23,82.17Zm.24-1a2.06,2.06,0,0,0,1.71-.75,3.43,3.43,0,0,0,.6-2.16,3.35,3.35,0,0,0-.6-2.14,2.09,2.09,0,0,0-1.71-.75,2.12,2.12,0,0,0-1.73.77,3.38,3.38,0,0,0-.62,2.15,3.26,3.26,0,0,0,.62,2.13A2.1,2.1,0,0,0,118.47,81.16Z"/><path class="cls-8" d="M124.34,82.06V76.63c0-.35,0-.7,0-1s0-.71-.1-1.06h1.15l.17,1.86-.17,0a2.39,2.39,0,0,1,.91-1.49,2.67,2.67,0,0,1,1.57-.5l.37,0,.32.07,0,1.11a2.45,2.45,0,0,0-.8-.12,2.08,2.08,0,0,0-1.25.34,2.12,2.12,0,0,0-.69.88,3.06,3.06,0,0,0-.22,1.12v4.3Z"/><path class="cls-8" d="M129.65,71.32h1.48V72.7h-1.48Zm.12,10.74V74.52H131v7.54Z"/><path class="cls-8" d="M136.23,82.17a3.31,3.31,0,0,1-1.76-.47,3.22,3.22,0,0,1-1.17-1.35,4.93,4.93,0,0,1-.41-2.07,4.78,4.78,0,0,1,.42-2.07,3.26,3.26,0,0,1,1.18-1.38,3.08,3.08,0,0,1,1.74-.49,3,3,0,0,1,1.76.51,2.5,2.5,0,0,1,1,1.45l-.18.12v-1.9H140v7.54h-1.2v-2l.18.09a2.52,2.52,0,0,1-1,1.46A3,3,0,0,1,136.23,82.17Zm.24-1a2.06,2.06,0,0,0,1.71-.75,3.43,3.43,0,0,0,.6-2.16,3.35,3.35,0,0,0-.6-2.14,2.09,2.09,0,0,0-1.71-.75,2.12,2.12,0,0,0-1.73.77,3.38,3.38,0,0,0-.62,2.15,3.26,3.26,0,0,0,.62,2.13A2.1,2.1,0,0,0,136.47,81.16Z"/><path class="cls-8" d="M142.34,82.06V71h1.21v5.43l-.16-.15a2.51,2.51,0,0,1,1-1.44,2.87,2.87,0,0,1,1.74-.52,3.2,3.2,0,0,1,1.76.48A3.31,3.31,0,0,1,149,76.17a4.66,4.66,0,0,1,.42,2A4.83,4.83,0,0,1,149,80.3a3.23,3.23,0,0,1-1.19,1.38,3.12,3.12,0,0,1-1.75.49,2.93,2.93,0,0,1-1.74-.51,2.52,2.52,0,0,1-1-1.46l.16-.16v2Zm3.54-.9a2,2,0,0,0,1.71-.77,3.4,3.4,0,0,0,.61-2.17,3.24,3.24,0,0,0-.61-2.11,2.34,2.34,0,0,0-3.44,0,3.33,3.33,0,0,0-.6,2.13,3.43,3.43,0,0,0,.6,2.16A2.09,2.09,0,0,0,145.88,81.16Z"/><path class="cls-8" d="M151.34,82.06V71h1.21v11Z"/><path class="cls-8" d="M161.09,81.16a3.49,3.49,0,0,1-1.27.74,4.77,4.77,0,0,1-1.58.27,4.13,4.13,0,0,1-2-.47,3.06,3.06,0,0,1-1.3-1.34,4.39,4.39,0,0,1-.46-2.09,4.5,4.5,0,0,1,.45-2.06,3.34,3.34,0,0,1,1.25-1.38,3.43,3.43,0,0,1,1.85-.49,3.29,3.29,0,0,1,1.73.44,2.85,2.85,0,0,1,1.1,1.27,4.76,4.76,0,0,1,.38,2v.22h-5.7v-.79h5l-.39.55a3.14,3.14,0,0,0-.51-2,1.91,1.91,0,0,0-1.6-.71,2.07,2.07,0,0,0-1.72.78,4,4,0,0,0,0,4.35,2.37,2.37,0,0,0,1.91.75,3.89,3.89,0,0,0,1.27-.21,4.15,4.15,0,0,0,1.16-.67Z"/><path class="cls-8" d="M162.86,80.52h1.54v1.54h-1.54Z"/><path class="cls-8" d="M166.32,80.52h1.55v1.54h-1.55Z"/><path class="cls-8" d="M169.79,80.52h1.54v1.54h-1.54Z"/></g></g></g></svg>