<svg xmlns="http://www.w3.org/2000/svg" viewBox="0 0 595.39 138.25"><defs><style>.cls-1{fill:none;}.cls-2{fill:#3d4986;}.cls-3{fill:#4c5ba6;}.cls-4{fill:#818dc1;}.cls-5{opacity:0.6;}.cls-6{fill:#fff;}.cls-7{isolation:isolate;}.cls-8{fill:#010101;}.cls-9{fill:#aaacd4;}</style></defs><g id="Layer_2" data-name="Layer 2"><g id="Layer_1-2" data-name="Layer 1"><rect class="cls-1" x="0.12" width="595.28" height="18"/><path class="cls-2" d="M9.12,1H54.28V26H9.12V21c0-10-8,8-8-7.5s8,2.5,8-7.5Z"/><path class="cls-3" d="M8.12,0H53.28V25H8.12V20c0-10-8,8-8-7.5s8,2.5,8-7.5Z"/><path class="cls-4" d="M9.12,24.5h-1v-6h1ZM.77,18.13a20.9,20.9,0,0,1,0-11.26l1,.26a19.79,19.79,0,0,0,0,10.74ZM9.12,8h-1V0H52.78V1H9.12Z"/><g class="cls-5"><rect class="cls-6" x="13.12" y="5" width="35.17" height="16" rx="4"/></g><g class="cls-7"><path class="cls-8" d="M18.19,10.92V10h8.25v1ZM19.9,17.5H18.61a16.51,16.51,0,0,0,.62-2.2,21.7,21.7,0,0,0,.38-2.39c.08-.83.13-1.69.13-2.59H21c0,.93,0,1.8-.1,2.63a21.82,21.82,0,0,1-.33,2.37A14.35,14.35,0,0,1,19.9,17.5Zm3.48-7H24.6v4.4A1.71,1.71,0,0,0,25,16.1a1.86,1.86,0,0,0,1.24.49l.7,0-.1,1-.69-.05a3.8,3.8,0,0,1-1.56-.39,2.09,2.09,0,0,1-.92-.94,3.4,3.4,0,0,1-.3-1.52Z"/></g><polygon class="cls-8" points="37.3 17.31 42.28 8.69 32.33 8.69 37.3 17.31"/><rect class="cls-9" x="13.12" y="31.69" width="55.49" height="106.56" rx="5.67"/><g class="cls-7"><path class="cls-8" d="M18.19,38V37h8.25v1Zm1.71,6.59H18.61a16.94,16.94,0,0,0,.62-2.2A22.09,22.09,0,0,0,19.61,40c.08-.83.13-1.7.13-2.6H21c0,.93,0,1.81-.1,2.63a21.15,21.15,0,0,1-.33,2.37A14.15,14.15,0,0,1,19.9,44.57Zm3.48-7H24.6v4.39A1.7,1.7,0,0,0,25,43.16a1.81,1.81,0,0,0,1.24.49l.7.05-.1,1-.69,0a3.8,3.8,0,0,1-1.56-.39,2.14,2.14,0,0,1-.92-.94,3.43,3.43,0,0,1-.3-1.52Z"/><path class="cls-8" d="M25.47,61.67a3.56,3.56,0,0,1-1.27.73,4.77,4.77,0,0,1-1.58.27,4.13,4.13,0,0,1-2-.46,3.16,3.16,0,0,1-1.31-1.35,4.51,4.51,0,0,1-.45-2.09,4.45,4.45,0,0,1,.45-2.05,3.34,3.34,0,0,1,1.25-1.38,3.44,3.44,0,0,1,1.85-.5,3.29,3.29,0,0,1,1.73.44,2.91,2.91,0,0,1,1.1,1.27,4.76,4.76,0,0,1,.38,2v.23H19.9V58h5l-.39.56a3.11,3.11,0,0,0-.52-2,1.88,1.88,0,0,0-1.59-.7,2.07,2.07,0,0,0-1.72.77,4.06,4.06,0,0,0,0,4.36,2.39,2.39,0,0,0,1.91.75,3.9,3.9,0,0,0,1.27-.22,4.15,4.15,0,0,0,1.16-.67Z"/><path class="cls-8" d="M21.69,73.88a3.48,3.48,0,0,0-1.7,3,2.7,2.7,0,0,0,2.36,2.88V75.35c0-1.56.85-2.19,1.84-2.19a3.3,3.3,0,0,1,3,3.58,3.84,3.84,0,0,1-3.6,4v2.82H22.35V80.72a3.68,3.68,0,0,1-3.66-3.81,4.16,4.16,0,0,1,2.49-3.77Zm1.87,5.88a2.73,2.73,0,0,0,2.34-3c0-1.48-.87-2.65-1.71-2.65-.37,0-.63.33-.63,1Z"/><path class="cls-8" d="M19,97.22a3.51,3.51,0,0,0,1.74.52c1,0,1.41-.48,1.41-1.08s-.37-1-1.35-1.33c-1.3-.47-1.92-1.19-1.92-2.06a2.24,2.24,0,0,1,2.51-2.13,3.6,3.6,0,0,1,1.78.45l-.33,1a2.81,2.81,0,0,0-1.48-.42c-.78,0-1.22.45-1.22,1s.44.87,1.38,1.23c1.26.48,1.91,1.11,1.91,2.19,0,1.28-1,2.18-2.72,2.18a4.15,4.15,0,0,1-2-.5Z"/><path class="cls-8" d="M30.1,97.44h0a2.58,2.58,0,0,1-2.37,1.29c-1.69,0-3.07-1.47-3.07-3.67,0-2.72,1.75-3.92,3.28-3.92a2.4,2.4,0,0,1,2.24,1.26h0l0-1.09h1.25c0,.61,0,1.24,0,2v8.24H30.1Zm0-3.19a2.09,2.09,0,0,0-.06-.56,1.92,1.92,0,0,0-1.89-1.5C26.79,92.19,26,93.35,26,95c0,1.44.69,2.7,2.15,2.7A2,2,0,0,0,30,96.24a2.19,2.19,0,0,0,.1-.63Z"/><path class="cls-8" d="M33.6,93.57c0-.85,0-1.59-.06-2.26h1.15l.05,1.42h.06a2.18,2.18,0,0,1,2-1.59,1.38,1.38,0,0,1,.37,0v1.24a2,2,0,0,0-.45,0A1.85,1.85,0,0,0,35,94.08a3.72,3.72,0,0,0-.06.62v3.87H33.6Z"/><path class="cls-8" d="M40.45,89.22v2.09h1.89v1H40.45v3.92c0,.9.26,1.41,1,1.41a3.22,3.22,0,0,0,.77-.09l.06,1a3.37,3.37,0,0,1-1.17.18,1.84,1.84,0,0,1-1.43-.56,2.71,2.71,0,0,1-.51-1.89v-4H38v-1h1.12V89.57Z"/><path class="cls-8" d="M46.69,88.16a9.92,9.92,0,0,0-1.89,6.13,10.14,10.14,0,0,0,1.89,6.09h-1a9.64,9.64,0,0,1-2-6.09,9.89,9.89,0,0,1,2-6.13Z"/><path class="cls-8" d="M47.67,98.57v-.81l1-1c2.49-2.37,3.62-3.63,3.63-5.1a1.73,1.73,0,0,0-1.93-1.9,3.33,3.33,0,0,0-2.07.82l-.42-.93a4.26,4.26,0,0,1,2.76-1,2.74,2.74,0,0,1,3,2.84c0,1.8-1.3,3.25-3.36,5.23l-.78.72v0h4.38v1.1Z"/><path class="cls-8" d="M55,100.38a10.16,10.16,0,0,0,1.89-6.13A9.92,9.92,0,0,0,55,88.16h1a9.55,9.55,0,0,1,2,6.1,9.73,9.73,0,0,1-2,6.12Z"/><path class="cls-8" d="M19,115.22a3.51,3.51,0,0,0,1.74.52c1,0,1.41-.48,1.41-1.08s-.37-1-1.35-1.33c-1.3-.47-1.92-1.19-1.92-2.06a2.24,2.24,0,0,1,2.51-2.13,3.6,3.6,0,0,1,1.78.45l-.33,1a2.81,2.81,0,0,0-1.48-.42c-.78,0-1.22.45-1.22,1s.44.87,1.38,1.23c1.26.48,1.91,1.11,1.91,2.19,0,1.28-1,2.18-2.72,2.18a4.15,4.15,0,0,1-2-.5Z"/><path class="cls-8" d="M30.1,115.44h0a2.58,2.58,0,0,1-2.37,1.29c-1.69,0-3.07-1.47-3.07-3.67,0-2.72,1.75-3.92,3.28-3.92a2.4,2.4,0,0,1,2.24,1.26h0l0-1.09h1.25c0,.61,0,1.24,0,2v8.24H30.1Zm0-3.19a2.09,2.09,0,0,0-.06-.56,1.92,1.92,0,0,0-1.89-1.5c-1.36,0-2.19,1.16-2.19,2.79,0,1.44.69,2.7,2.15,2.7A2,2,0,0,0,30,114.24a2.19,2.19,0,0,0,.1-.63Z"/><path class="cls-8" d="M33.6,111.57c0-.85,0-1.59-.06-2.26h1.15l.05,1.42h.06a2.18,2.18,0,0,1,2-1.59,1.38,1.38,0,0,1,.37,0v1.24a2,2,0,0,0-.45,0A1.85,1.85,0,0,0,35,112.08a3.72,3.72,0,0,0-.06.62v3.87H33.6Z"/><path class="cls-8" d="M40.45,107.22v2.09h1.89v1H40.45v3.92c0,.9.26,1.41,1,1.41a3.22,3.22,0,0,0,.77-.09l.06,1a3.37,3.37,0,0,1-1.17.18,1.84,1.84,0,0,1-1.43-.56,2.71,2.71,0,0,1-.51-1.89v-4H38v-1h1.12v-1.74Z"/><path class="cls-8" d="M46.69,106.16a9.92,9.92,0,0,0-1.89,6.13,10.14,10.14,0,0,0,1.89,6.09h-1a9.64,9.64,0,0,1-2-6.09,9.89,9.89,0,0,1,2-6.13Z"/><path class="cls-8" d="M48.7,112.58v-4.94h0l-1.08.53-.16-.78,1.39-.66h.93v5.85Zm.08,4.15,5.68-10.08h.86l-5.7,10.08Zm4.81-.72.95-.88c1.24-1.13,1.89-1.83,1.89-2.6a1,1,0,0,0-1.14-1A2.23,2.23,0,0,0,54,112l-.32-.68a3,3,0,0,1,1.83-.63,1.75,1.75,0,0,1,2,1.7c0,1.12-.86,2-2,3l-.46.42v0h2.56v.83h-4Z"/><path class="cls-8" d="M58.68,118.38a10.16,10.16,0,0,0,1.89-6.13,9.92,9.92,0,0,0-1.89-6.09h1a9.55,9.55,0,0,1,2,6.1,9.73,9.73,0,0,1-2,6.12Z"/><path class="cls-8" d="M23.58,131.22a4,4,0,0,1-2.78,1.61,2.11,2.11,0,0,1-2.16-2.22,2.23,2.23,0,0,1,2.28-2.22,4.08,4.08,0,0,1,2.66,1.6,4,4,0,0,1,2.77-1.6,2.1,2.1,0,0,1,2.16,2.22,2.24,2.24,0,0,1-2.28,2.22C25.12,132.83,24.3,131.94,23.58,131.22Zm-.6-.61c-.59-.54-1.2-1.32-2.07-1.32a1.32,1.32,0,0,0-1.32,1.32,1.26,1.26,0,0,0,1.27,1.32C21.72,131.93,22.41,131.19,23,130.61Zm4.59,0a1.26,1.26,0,0,0-1.28-1.32c-.85,0-1.54.73-2.11,1.32.58.54,1.2,1.32,2.07,1.32A1.33,1.33,0,0,0,27.57,130.61Z"/></g><polygon class="cls-8" points="57.63 44.38 62.6 35.75 52.65 35.75 57.63 44.38"/></g></g></svg>