<svg xmlns="http://www.w3.org/2000/svg" viewBox="0 0 595.39 37"><defs><style>.cls-1{fill:none;}.cls-2{fill:#3d4986;}.cls-3{fill:#4c5ba6;}.cls-4{fill:#818dc1;}.cls-5{opacity:0.6;}.cls-6{fill:#fff;}.cls-7{isolation:isolate;}.cls-8{fill:#010101;}</style></defs><g id="Layer_2" data-name="Layer 2"><g id="Layer_1-2" data-name="Layer 1"><rect class="cls-1" x="0.12" width="595.28" height="18"/><path class="cls-2" d="M9.12,1H302.88V37H9.12V21c0-10-8,8-8-7.5s8,2.5,8-7.5ZM205,6h-30.8v5c0,10-8-8-8,7.5s8-2.5,8,7.5v7H205Zm87.91,0h-48.4v5c0,10-8-8-8,7.5s8-2.5,8,7.5v7h48.4Z"/><path class="cls-3" d="M8.12,0H301.88V36H8.12V20c0-10-8,8-8-7.5s8,2.5,8-7.5ZM204,5h-30.8v5c0,10-8-8-8,7.5s8-2.5,8,7.5v7H204Zm87.91,0h-48.4v5c0,10-8-8-8,7.5s8-2.5,8,7.5v7h48.4Z"/><path class="cls-4" d="M9.12,35.5h-1v-17h1ZM292.88,33H244V32h47.9V5.5h1ZM205,33h-31.3V32H204V5.5h1Zm33.66-8.27-.49-.86,3.68-2.1.49.86Zm-70.32,0-.49-.86,3.68-2.1.49.86ZM.77,18.13a20.9,20.9,0,0,1,0-11.26l1,.26a19.79,19.79,0,0,0,0,10.74ZM9.12,8h-1V0H301.38V1H9.12Z"/><path class="cls-2" d="M175.17,7H204V32h-28.8V27c0-10-8,8-8-7.5s8,2.5,8-7.5Z"/><path class="cls-3" d="M174.17,6H203V31h-28.8V26c0-10-8,8-8-7.5s8,2.5,8-7.5Z"/><path class="cls-4" d="M175.17,30.5h-1v-6h1Zm-8.35-6.37a20.9,20.9,0,0,1,0-11.26l1,.26a19.79,19.79,0,0,0,0,10.74ZM175.17,14h-1V6h28.3V7h-27.3Z"/><g class="cls-5"><rect class="cls-6" x="179.17" y="11" width="18.8" height="16" rx="4"/></g><g class="cls-7"><path class="cls-8" d="M186.09,23.5v-1H192v1Zm2.35-.55V13.54l.71.36-2.9,1.85V14.56L189,12.82h.71V23Z"/></g><path class="cls-2" d="M245.48,7h46.4V32h-46.4V27c0-10-8,8-8-7.5s8,2.5,8-7.5Z"/><path class="cls-3" d="M244.48,6h46.4V31h-46.4V26c0-10-8,8-8-7.5s8,2.5,8-7.5Z"/><path class="cls-4" d="M245.48,30.5h-1v-6h1Zm-8.34-6.37a20.9,20.9,0,0,1,0-11.26l1,.26a19.79,19.79,0,0,0,0,10.74ZM245.48,14h-1V6h45.9V7h-44.9Z"/><g class="cls-5"><rect class="cls-6" x="249.48" y="11" width="36.4" height="16" rx="4"/></g><g class="cls-7"><path class="cls-8" d="M256.4,23.5v-1h6v1Zm2.36-.55V13.54l.7.36-2.89,1.85V14.56l2.73-1.74h.7V23Z"/><path class="cls-8" d="M268,23.62a3.15,3.15,0,0,1-2.78-1.39,7.22,7.22,0,0,1-.95-4.07,7.23,7.23,0,0,1,.94-4.07,3.5,3.5,0,0,1,5.58,0,7.21,7.21,0,0,1,1,4.06,7.28,7.28,0,0,1-1,4.08A3.17,3.17,0,0,1,268,23.62Zm0-1a2,2,0,0,0,1.89-1.08,7.19,7.19,0,0,0,.6-3.36,7,7,0,0,0-.6-3.34,2.2,2.2,0,0,0-3.77,0,7,7,0,0,0-.61,3.33,7.17,7.17,0,0,0,.61,3.36A2,2,0,0,0,268,22.59Z"/><path class="cls-8" d="M277,23.62a3.15,3.15,0,0,1-2.78-1.39,7.22,7.22,0,0,1-.95-4.07,7.23,7.23,0,0,1,.94-4.07,3.5,3.5,0,0,1,5.58,0,7.21,7.21,0,0,1,1,4.06,7.28,7.28,0,0,1-1,4.08A3.17,3.17,0,0,1,277,23.62Zm0-1a2,2,0,0,0,1.88-1.08,7,7,0,0,0,.61-3.36,6.9,6.9,0,0,0-.61-3.34,2.19,2.19,0,0,0-3.76,0,7,7,0,0,0-.61,3.33,7.17,7.17,0,0,0,.61,3.36A2,2,0,0,0,277,22.59Z"/></g><g class="cls-7"><path class="cls-6" d="M19.29,22.5V17.07c0-.35,0-.7,0-1.06A9.3,9.3,0,0,0,19.17,15h1.15l.17,1.86-.17-.05a2.32,2.32,0,0,1,.91-1.49,2.58,2.58,0,0,1,1.57-.5,2.06,2.06,0,0,1,.36,0,1.6,1.6,0,0,1,.33.07l0,1.11a2.45,2.45,0,0,0-.8-.12,2.06,2.06,0,0,0-1.25.34,1.92,1.92,0,0,0-.69.88,2.83,2.83,0,0,0-.22,1.12v4.3Z"/><path class="cls-6" d="M27.46,22.61a3.2,3.2,0,0,1-1.76-.48,3,3,0,0,1-1.17-1.35,4.71,4.71,0,0,1-.41-2.06,4.78,4.78,0,0,1,.42-2.07,3.31,3.31,0,0,1,1.17-1.38,3.14,3.14,0,0,1,1.75-.49,3,3,0,0,1,1.76.51,2.5,2.5,0,0,1,1,1.45l-.18.12V15h1.2V22.5H30V20.55l.18.09a2.52,2.52,0,0,1-1,1.46A3,3,0,0,1,27.46,22.61Zm.24-1a2,2,0,0,0,1.71-.76,3.38,3.38,0,0,0,.6-2.15,3.29,3.29,0,0,0-.61-2.14,2.32,2.32,0,0,0-3.43,0,3.3,3.3,0,0,0-.62,2.15A3.22,3.22,0,0,0,26,20.85,2.12,2.12,0,0,0,27.7,21.6Z"/><path class="cls-6" d="M33.57,22.5V17.07c0-.35,0-.7,0-1.06A9.3,9.3,0,0,0,33.45,15H34.6l.14,1.56-.15.12a2.58,2.58,0,0,1,1-1.39,3,3,0,0,1,1.69-.47c1.81,0,2.72,1,2.72,3V22.5H38.83V17.82a2.34,2.34,0,0,0-.42-1.54,1.67,1.67,0,0,0-1.32-.48,2.24,2.24,0,0,0-1.68.64,2.38,2.38,0,0,0-.63,1.74V22.5Z"/><path class="cls-6" d="M49,22.5h-1.2v-2l.18.16a2.54,2.54,0,0,1-1,1.46,2.94,2.94,0,0,1-1.75.51,3.2,3.2,0,0,1-1.75-.49,3.26,3.26,0,0,1-1.18-1.38,4.86,4.86,0,0,1-.42-2.08,4.81,4.81,0,0,1,.41-2.05,3.22,3.22,0,0,1,1.17-1.35,3.26,3.26,0,0,1,1.77-.48,2.94,2.94,0,0,1,1.75.51,2.58,2.58,0,0,1,1,1.45l-.2.15V11.46H49Zm-3.51-.9a2,2,0,0,0,1.7-.76,3.38,3.38,0,0,0,.61-2.15,3.38,3.38,0,0,0-.6-2.14,2.06,2.06,0,0,0-1.71-.75,2.15,2.15,0,0,0-1.74.75,3.24,3.24,0,0,0-.62,2.11,3.42,3.42,0,0,0,.62,2.17A2.13,2.13,0,0,0,45.48,21.6Z"/><path class="cls-6" d="M54.46,22.61a3.58,3.58,0,0,1-1.88-.48,3.29,3.29,0,0,1-1.25-1.36,4.65,4.65,0,0,1-.44-2.08,4.64,4.64,0,0,1,.44-2.07,3.23,3.23,0,0,1,1.25-1.36,3.92,3.92,0,0,1,3.76,0,3.23,3.23,0,0,1,1.25,1.36A4.64,4.64,0,0,1,58,18.69a4.65,4.65,0,0,1-.44,2.08,3.29,3.29,0,0,1-1.25,1.36A3.58,3.58,0,0,1,54.46,22.61Zm0-1a2.12,2.12,0,0,0,1.72-.74,3.4,3.4,0,0,0,.61-2.17,3.29,3.29,0,0,0-.62-2.14,2.09,2.09,0,0,0-1.71-.75,2.12,2.12,0,0,0-1.72.75,3.29,3.29,0,0,0-.62,2.14,3.34,3.34,0,0,0,.61,2.17A2.11,2.11,0,0,0,54.46,21.6Z"/><path class="cls-6" d="M59.92,22.5V17.07c0-.35,0-.7,0-1.06s0-.7-.1-1.05H61l.13,1.56-.15.1a2.49,2.49,0,0,1,.94-1.36,2.62,2.62,0,0,1,1.58-.48,2.46,2.46,0,0,1,1.7.54A2.62,2.62,0,0,1,65.94,17l-.36-.2a2.57,2.57,0,0,1,1-1.45,2.87,2.87,0,0,1,1.75-.54,2.32,2.32,0,0,1,1.88.74,3.38,3.38,0,0,1,.63,2.24V22.5H69.58V17.82a2.55,2.55,0,0,0-.37-1.54A1.42,1.42,0,0,0,68,15.8a1.84,1.84,0,0,0-1.49.64A2.61,2.61,0,0,0,66,18.2v4.3H64.77V17.82a2.47,2.47,0,0,0-.39-1.54,1.42,1.42,0,0,0-1.19-.48,1.88,1.88,0,0,0-1.51.64,2.66,2.66,0,0,0-.54,1.76v4.3Z"/><path class="cls-6" d="M76.9,11.76h1.49v1.38H76.9ZM77,22.5V15h1.22V22.5Z"/><path class="cls-6" d="M80.59,22.5V17.07c0-.35,0-.7,0-1.06s0-.7-.1-1.05h1.16l.13,1.56-.15.12a2.58,2.58,0,0,1,1-1.39,3,3,0,0,1,1.7-.47c1.81,0,2.71,1,2.71,3V22.5H85.86V17.82a2.34,2.34,0,0,0-.42-1.54,1.67,1.67,0,0,0-1.32-.48,2.24,2.24,0,0,0-1.68.64,2.38,2.38,0,0,0-.63,1.74V22.5Z"/><path class="cls-6" d="M88.3,15.92V15h4.85v1Zm4.82,5.5v1a4.64,4.64,0,0,1-.51.11,4.26,4.26,0,0,1-.54,0,2.33,2.33,0,0,1-1.68-.6,2.41,2.41,0,0,1-.62-1.8V13L91,12.59V20a2,2,0,0,0,.17.93,1,1,0,0,0,.47.46,1.83,1.83,0,0,0,.68.13,2.41,2.41,0,0,0,.4,0A2.83,2.83,0,0,0,93.12,21.42Z"/><path class="cls-6" d="M100.8,21.6a3.58,3.58,0,0,1-1.27.74,4.77,4.77,0,0,1-1.58.27,4.13,4.13,0,0,1-2-.47,3.19,3.19,0,0,1-1.31-1.34,4.54,4.54,0,0,1-.45-2.09,4.5,4.5,0,0,1,.45-2.06,3.34,3.34,0,0,1,1.25-1.38,3.43,3.43,0,0,1,1.85-.49,3.2,3.2,0,0,1,1.73.44,2.86,2.86,0,0,1,1.1,1.27,4.76,4.76,0,0,1,.38,2v.22h-5.7V17.9h5l-.39.55a3.08,3.08,0,0,0-.52-2,1.88,1.88,0,0,0-1.59-.71,2.1,2.1,0,0,0-1.72.77,3.31,3.31,0,0,0-.62,2.14,3.27,3.27,0,0,0,.65,2.22A2.39,2.39,0,0,0,98,21.6a3.65,3.65,0,0,0,1.27-.22,3.88,3.88,0,0,0,1.16-.66Z"/><path class="cls-6" d="M106.09,25.85a5.53,5.53,0,0,1-3-.78l.21-1a6,6,0,0,0,1.34.58,5.15,5.15,0,0,0,1.42.18,2.16,2.16,0,0,0,1.64-.58,2.32,2.32,0,0,0,.57-1.71v-2l.16-.2a2.82,2.82,0,0,1-.56,1A2.58,2.58,0,0,1,107,22a3.15,3.15,0,0,1-1.26.24,3.21,3.21,0,0,1-3-1.79,4.32,4.32,0,0,1-.42-2,4.36,4.36,0,0,1,.42-2,3.18,3.18,0,0,1,3-1.78,3,3,0,0,1,1.78.51,2.58,2.58,0,0,1,1,1.45l-.18-.16V15h1.22v7.48a3.42,3.42,0,0,1-.87,2.55A3.45,3.45,0,0,1,106.09,25.85Zm-.15-4.59a2.17,2.17,0,0,0,1.72-.73,3,3,0,0,0,.62-2,3,3,0,0,0-.62-2,2.16,2.16,0,0,0-1.72-.72,2.23,2.23,0,0,0-1.75.72,3,3,0,0,0-.63,2,3,3,0,0,0,.63,2A2.23,2.23,0,0,0,105.94,21.26Z"/><path class="cls-6" d="M118,21.6a3.58,3.58,0,0,1-1.27.74,4.77,4.77,0,0,1-1.58.27,4.13,4.13,0,0,1-2-.47,3.19,3.19,0,0,1-1.31-1.34,4.54,4.54,0,0,1-.45-2.09,4.5,4.5,0,0,1,.45-2.06,3.34,3.34,0,0,1,1.25-1.38,3.43,3.43,0,0,1,1.85-.49,3.2,3.2,0,0,1,1.73.44,2.86,2.86,0,0,1,1.1,1.27,4.76,4.76,0,0,1,.38,2v.22h-5.7V17.9h5l-.39.55a3.08,3.08,0,0,0-.52-2,1.88,1.88,0,0,0-1.59-.71,2.1,2.1,0,0,0-1.72.77,3.31,3.31,0,0,0-.62,2.14,3.27,3.27,0,0,0,.65,2.22,2.39,2.39,0,0,0,1.91.75,3.65,3.65,0,0,0,1.27-.22,3.88,3.88,0,0,0,1.16-.66Z"/><path class="cls-6" d="M120,22.5V17.07c0-.35,0-.7,0-1.06a9.3,9.3,0,0,0-.09-1.05H121l.17,1.86-.17-.05a2.32,2.32,0,0,1,.91-1.49,2.58,2.58,0,0,1,1.57-.5,2.06,2.06,0,0,1,.36,0,1.6,1.6,0,0,1,.33.07l0,1.11a2.45,2.45,0,0,0-.8-.12,2.06,2.06,0,0,0-1.25.34,1.92,1.92,0,0,0-.69.88,2.83,2.83,0,0,0-.22,1.12v4.3Z"/><path class="cls-6" d="M128.28,15.92V15h4.53v1ZM133,12.57a2.85,2.85,0,0,0-.78-.12,1.59,1.59,0,0,0-.66.13.92.92,0,0,0-.45.46A2,2,0,0,0,131,14V22.5h-1.21V13.8a2.45,2.45,0,0,1,.6-1.81A2.27,2.27,0,0,1,132,11.4l.51,0a3.1,3.1,0,0,1,.51.11Z"/><path class="cls-6" d="M134.4,22.5V17.07c0-.35,0-.7,0-1.06a9.3,9.3,0,0,0-.09-1.05h1.15l.17,1.86-.17-.05a2.32,2.32,0,0,1,.91-1.49,2.58,2.58,0,0,1,1.57-.5,2.06,2.06,0,0,1,.36,0,1.6,1.6,0,0,1,.33.07l0,1.11a2.45,2.45,0,0,0-.8-.12,2.06,2.06,0,0,0-1.25.34,1.92,1.92,0,0,0-.69.88,2.83,2.83,0,0,0-.22,1.12v4.3Z"/><path class="cls-6" d="M142.8,22.61a3.64,3.64,0,0,1-1.89-.48,3.27,3.27,0,0,1-1.24-1.36,4.52,4.52,0,0,1-.44-2.08,4.51,4.51,0,0,1,.44-2.07,3.21,3.21,0,0,1,1.24-1.36,3.64,3.64,0,0,1,1.89-.48,3.6,3.6,0,0,1,1.88.48,3.21,3.21,0,0,1,1.24,1.36,4.51,4.51,0,0,1,.45,2.07,4.52,4.52,0,0,1-.45,2.08,3.27,3.27,0,0,1-1.24,1.36A3.6,3.6,0,0,1,142.8,22.61Zm0-1a2.08,2.08,0,0,0,1.71-.74,3.34,3.34,0,0,0,.61-2.17,3.29,3.29,0,0,0-.61-2.14,2.34,2.34,0,0,0-3.43,0,3.23,3.23,0,0,0-.62,2.14,3.4,3.4,0,0,0,.6,2.17A2.15,2.15,0,0,0,142.8,21.6Z"/><path class="cls-6" d="M148.26,22.5V17.07c0-.35,0-.7,0-1.06a9.3,9.3,0,0,0-.09-1.05h1.15l.14,1.56-.15.1a2.53,2.53,0,0,1,.93-1.36,2.67,2.67,0,0,1,1.59-.48,2.48,2.48,0,0,1,1.7.54,2.67,2.67,0,0,1,.77,1.65l-.36-.2a2.53,2.53,0,0,1,1-1.45,2.85,2.85,0,0,1,1.75-.54,2.29,2.29,0,0,1,1.87.74,3.38,3.38,0,0,1,.63,2.24V22.5h-1.21V17.82a2.54,2.54,0,0,0-.38-1.54,1.4,1.4,0,0,0-1.18-.48,1.87,1.87,0,0,0-1.5.64,2.66,2.66,0,0,0-.54,1.76v4.3H153.1V17.82a2.54,2.54,0,0,0-.38-1.54,1.43,1.43,0,0,0-1.19-.48,1.87,1.87,0,0,0-1.51.64,2.61,2.61,0,0,0-.55,1.76v4.3Z"/></g><g class="cls-7"><path class="cls-6" d="M214.07,15.92V15h4.85v1Zm4.82,5.5v1a4.64,4.64,0,0,1-.51.11,4.26,4.26,0,0,1-.54,0,2.33,2.33,0,0,1-1.68-.6,2.41,2.41,0,0,1-.62-1.8V13l1.22-.43V20a2,2,0,0,0,.17.93,1,1,0,0,0,.47.46,1.83,1.83,0,0,0,.68.13,2.41,2.41,0,0,0,.4,0A2.83,2.83,0,0,0,218.89,21.42Z"/><path class="cls-6" d="M223.51,22.61a3.64,3.64,0,0,1-1.89-.48,3.27,3.27,0,0,1-1.24-1.36,4.52,4.52,0,0,1-.44-2.08,4.51,4.51,0,0,1,.44-2.07,3.21,3.21,0,0,1,1.24-1.36,3.64,3.64,0,0,1,1.89-.48,3.6,3.6,0,0,1,1.88.48,3.21,3.21,0,0,1,1.24,1.36,4.51,4.51,0,0,1,.45,2.07,4.52,4.52,0,0,1-.45,2.08,3.27,3.27,0,0,1-1.24,1.36A3.6,3.6,0,0,1,223.51,22.61Zm0-1a2.08,2.08,0,0,0,1.71-.74,3.34,3.34,0,0,0,.61-2.17,3.29,3.29,0,0,0-.61-2.14,2.34,2.34,0,0,0-3.43,0,3.23,3.23,0,0,0-.62,2.14,3.4,3.4,0,0,0,.6,2.17A2.15,2.15,0,0,0,223.51,21.6Z"/></g></g></g></svg>