<svg xmlns="http://www.w3.org/2000/svg" viewBox="0 0 595.39 129.02"><defs><style>.cls-1{fill:none;}.cls-2{fill:#3d4986;}.cls-3{fill:#4c5ba6;}.cls-4{fill:#818dc1;}.cls-5{opacity:0.6;}.cls-6{fill:#fff;}.cls-7{isolation:isolate;}.cls-8{fill:#010101;}.cls-9{fill:#aaacd4;}</style></defs><g id="Layer_2" data-name="Layer 2"><g id="Layer_1-2" data-name="Layer 1"><rect class="cls-1" x="0.12" width="595.28" height="18"/><path class="cls-2" d="M9.12,1H115.38V36H9.12V21c0-10-8,8-8-7.5s8,2.5,8-7.5Zm30.5,5H25.12v5c0,10-8-8-8,7.5s8-2.5,8,7.5v6h14.5Zm65.76,0H90.88v5c0,10-8-8-8,7.5s8-2.5,8,7.5v6h14.5Z"/><path class="cls-3" d="M8.12,0H114.38V35H8.12V20c0-10-8,8-8-7.5s8,2.5,8-7.5Zm30.5,5H24.12v5c0,10-8-8-8,7.5s8-2.5,8,7.5v6h14.5Zm65.76,0H89.88v5c0,10-8-8-8,7.5s8-2.5,8,7.5v6h14.5Z"/><path class="cls-4" d="M9.12,34.5h-1v-16h1ZM105.38,32h-15V31h14V5.5h1ZM39.62,32h-15V31h14V5.5h1ZM85,24.73l-.49-.86,3.68-2.1.49.86Zm-65.77,0-.49-.86,3.68-2.1.49.86ZM.77,18.13a20.9,20.9,0,0,1,0-11.26l1,.26a19.79,19.79,0,0,0,0,10.74ZM9.12,8h-1V0H113.88V1H9.12Z"/><g class="cls-5"><rect class="cls-6" x="43.62" y="10" width="35.27" height="16" rx="4"/></g><g class="cls-7"><path class="cls-8" d="M56.81,17.71v.95H49.43v-.95Zm-4.16-3.22h.93v7.39h-.93Z"/></g><polygon class="cls-8" points="69.33 22.31 74.3 13.69 64.35 13.69 69.33 22.31"/><rect class="cls-9" x="43.62" y="41.69" width="34.77" height="87.33" rx="5.67"/><g class="cls-7"><path class="cls-8" d="M56.81,49.78v.94H49.43v-.94Zm-4.16-3.23h.93V54h-.93Z"/><path class="cls-8" d="M51,69V68h4.25v1Z"/><path class="cls-8" d="M56,82.7l.66.66-6.42,6.42-.66-.64Zm-5.76,0,6.42,6.44-.66.64-6.42-6.42Z"/><path class="cls-8" d="M56.81,103.78v.94H49.43v-.94ZM52.32,102v-1.44h1.41V102Zm0,6v-1.44h1.41V108Z"/><path class="cls-8" d="M53.6,117l3.34,7.39h-1l-3.09-6.9h.6l-3.09,6.9h-1L52.64,117Z"/></g><polygon class="cls-8" points="69.33 54.38 74.3 45.75 64.35 45.75 69.33 54.38"/></g></g></svg>