<svg xmlns="http://www.w3.org/2000/svg" viewBox="0 0 595.39 85.96"><defs><style>.cls-1{fill:none;}.cls-2{fill:#aaacd4;}.cls-3{isolation:isolate;}.cls-4{fill:#010101;}.cls-5{fill:#3d4986;}.cls-6{fill:#4c5ba6;}.cls-7{fill:#818dc1;}.cls-8{opacity:0.6;}.cls-9{fill:#fff;}</style></defs><g id="Layer_2" data-name="Layer 2"><g id="Layer_1-2" data-name="Layer 1"><rect class="cls-1" x="0.12" width="595.28" height="18"/><rect class="cls-2" x="13.12" y="31.69" width="91.27" height="54.27" rx="5.67"/><g class="cls-3"><path class="cls-4" d="M19.29,44.56V39.14c0-.36,0-.71,0-1.06A9.28,9.28,0,0,0,19.17,37h1.15l.17,1.86-.17-.05a2.37,2.37,0,0,1,.91-1.49,2.65,2.65,0,0,1,1.57-.5l.36,0,.33.07,0,1.11a2.45,2.45,0,0,0-.8-.12,2.06,2.06,0,0,0-1.25.34,2,2,0,0,0-.69.88,2.87,2.87,0,0,0-.22,1.12v4.3Z"/><path class="cls-4" d="M27.69,44.67a3.64,3.64,0,0,1-1.89-.48,3.21,3.21,0,0,1-1.24-1.36,4.48,4.48,0,0,1-.44-2.07,4.55,4.55,0,0,1,.44-2.08,3.21,3.21,0,0,1,1.24-1.36,3.64,3.64,0,0,1,1.89-.48,3.6,3.6,0,0,1,1.88.48,3.21,3.21,0,0,1,1.24,1.36,4.55,4.55,0,0,1,.45,2.08,4.48,4.48,0,0,1-.45,2.07,3.21,3.21,0,0,1-1.24,1.36A3.6,3.6,0,0,1,27.69,44.67Zm0-1a2.06,2.06,0,0,0,1.71-.74A3.29,3.29,0,0,0,30,40.76a3.3,3.3,0,0,0-.61-2.15,2.34,2.34,0,0,0-3.43,0,3.24,3.24,0,0,0-.62,2.15,3.35,3.35,0,0,0,.6,2.16A2.12,2.12,0,0,0,27.69,43.66Z"/><path class="cls-4" d="M35.82,44.67a2.64,2.64,0,0,1-2-.75,3.22,3.22,0,0,1-.68-2.22V37h1.22v4.65a2.24,2.24,0,0,0,.42,1.5,1.59,1.59,0,0,0,1.27.48A2.17,2.17,0,0,0,37.63,43a2.43,2.43,0,0,0,.62-1.73V37h1.21v7.54H38.28V42.93l.18-.09a2.49,2.49,0,0,1-1,1.36A2.88,2.88,0,0,1,35.82,44.67Z"/><path class="cls-4" d="M41.8,44.56V39.14c0-.36,0-.71,0-1.06s-.05-.71-.1-1.06h1.16L43,38.58l-.15.12a2.61,2.61,0,0,1,1-1.39,3.12,3.12,0,0,1,1.7-.47c1.81,0,2.71,1,2.71,3v4.74H47.07V39.89a2.31,2.31,0,0,0-.42-1.54,1.64,1.64,0,0,0-1.32-.49,2.21,2.21,0,0,0-1.68.65A2.34,2.34,0,0,0,43,40.24v4.32Z"/><path class="cls-4" d="M57.22,44.56H56v-2l.18.16a2.52,2.52,0,0,1-1,1.46,3,3,0,0,1-1.76.51,3.14,3.14,0,0,1-1.75-.49,3.19,3.19,0,0,1-1.17-1.38,4.83,4.83,0,0,1-.42-2.08,4.66,4.66,0,0,1,.41-2,3.09,3.09,0,0,1,1.17-1.35,3.2,3.2,0,0,1,1.76-.48,2.91,2.91,0,0,1,1.76.52,2.51,2.51,0,0,1,1,1.44L56,39V33.52h1.21Zm-3.51-.9a2.06,2.06,0,0,0,1.7-.75A3.36,3.36,0,0,0,56,40.76a3.37,3.37,0,0,0-.6-2.14,2,2,0,0,0-1.71-.76,2.12,2.12,0,0,0-1.73.75,3.18,3.18,0,0,0-.62,2.11A3.34,3.34,0,0,0,52,42.89,2.07,2.07,0,0,0,53.71,43.66Z"/><path class="cls-4" d="M19.29,62.56V57.14c0-.36,0-.71,0-1.06A9.28,9.28,0,0,0,19.17,55h1.15l.17,1.86-.17-.05a2.37,2.37,0,0,1,.91-1.49,2.65,2.65,0,0,1,1.57-.5l.36,0,.33.07,0,1.11a2.45,2.45,0,0,0-.8-.12,2.06,2.06,0,0,0-1.25.34,2,2,0,0,0-.69.88,2.87,2.87,0,0,0-.22,1.12v4.3Z"/><path class="cls-4" d="M27.69,62.67a3.64,3.64,0,0,1-1.89-.48,3.21,3.21,0,0,1-1.24-1.36,4.48,4.48,0,0,1-.44-2.07,4.55,4.55,0,0,1,.44-2.08,3.21,3.21,0,0,1,1.24-1.36,3.64,3.64,0,0,1,1.89-.48,3.6,3.6,0,0,1,1.88.48,3.21,3.21,0,0,1,1.24,1.36,4.55,4.55,0,0,1,.45,2.08,4.48,4.48,0,0,1-.45,2.07,3.21,3.21,0,0,1-1.24,1.36A3.6,3.6,0,0,1,27.69,62.67Zm0-1a2.06,2.06,0,0,0,1.71-.74,4.11,4.11,0,0,0,0-4.31,2.34,2.34,0,0,0-3.43,0,3.24,3.24,0,0,0-.62,2.15,3.35,3.35,0,0,0,.6,2.16A2.12,2.12,0,0,0,27.69,61.66Z"/><path class="cls-4" d="M35.82,62.67a2.64,2.64,0,0,1-2-.75,3.22,3.22,0,0,1-.68-2.22V55h1.22v4.65a2.24,2.24,0,0,0,.42,1.5,1.59,1.59,0,0,0,1.27.48A2.17,2.17,0,0,0,37.63,61a2.43,2.43,0,0,0,.62-1.73V55h1.21v7.54H38.28V60.93l.18-.09a2.49,2.49,0,0,1-1,1.36A2.88,2.88,0,0,1,35.82,62.67Z"/><path class="cls-4" d="M41.8,62.56V57.14c0-.36,0-.71,0-1.06s-.05-.71-.1-1.06h1.16L43,56.58l-.15.12a2.61,2.61,0,0,1,1-1.39,3.12,3.12,0,0,1,1.7-.47c1.81,0,2.71,1,2.71,3v4.74H47.07V57.89a2.31,2.31,0,0,0-.42-1.54,1.64,1.64,0,0,0-1.32-.49,2.21,2.21,0,0,0-1.68.65A2.34,2.34,0,0,0,43,58.24v4.32Z"/><path class="cls-4" d="M57.22,62.56H56v-2l.18.16a2.52,2.52,0,0,1-1,1.46,3,3,0,0,1-1.76.51,3.14,3.14,0,0,1-1.75-.49,3.19,3.19,0,0,1-1.17-1.38,4.83,4.83,0,0,1-.42-2.08,4.66,4.66,0,0,1,.41-2,3.09,3.09,0,0,1,1.17-1.35,3.2,3.2,0,0,1,1.76-.48,2.91,2.91,0,0,1,1.76.52,2.51,2.51,0,0,1,1,1.44L56,57V51.52h1.21Zm-3.51-.9a2.06,2.06,0,0,0,1.7-.75,4.11,4.11,0,0,0,0-4.29,2,2,0,0,0-1.71-.76,2.12,2.12,0,0,0-1.73.75,3.18,3.18,0,0,0-.62,2.11A3.34,3.34,0,0,0,52,60.89,2.07,2.07,0,0,0,53.71,61.66Z"/><path class="cls-4" d="M66.16,62.67a2.6,2.6,0,0,1-2-.75,3.17,3.17,0,0,1-.68-2.22V55h1.21v4.65a2.24,2.24,0,0,0,.42,1.5,1.62,1.62,0,0,0,1.28.48A2.17,2.17,0,0,0,68,61a2.42,2.42,0,0,0,.61-1.73V55h1.22v7.54H68.62V60.93l.18-.09a2.53,2.53,0,0,1-1,1.36A2.93,2.93,0,0,1,66.16,62.67Z"/><path class="cls-4" d="M72.15,65.8V57.14c0-.36,0-.71,0-1.06A9.28,9.28,0,0,0,72,55h1.15l.14,1.56-.12.22a2.53,2.53,0,0,1,1-1.45,2.93,2.93,0,0,1,1.74-.51,3.22,3.22,0,0,1,1.75.49,3.36,3.36,0,0,1,1.18,1.39,4.57,4.57,0,0,1,.43,2.06,4.64,4.64,0,0,1-.43,2.07,3.22,3.22,0,0,1-1.17,1.35,3.28,3.28,0,0,1-1.76.47,2.93,2.93,0,0,1-1.74-.51,2.52,2.52,0,0,1-1-1.46l.16-.15V65.8Zm3.54-4.14a2.06,2.06,0,0,0,1.71-.75A3.26,3.26,0,0,0,78,58.78a3.37,3.37,0,0,0-.61-2.15,2.33,2.33,0,0,0-3.44,0,3.36,3.36,0,0,0-.6,2.15,3.42,3.42,0,0,0,.6,2.15A2.09,2.09,0,0,0,75.69,61.66Z"/><path class="cls-4" d="M19.29,80.56V75.14c0-.36,0-.71,0-1.06A9.28,9.28,0,0,0,19.17,73h1.15l.17,1.86-.17,0a2.37,2.37,0,0,1,.91-1.49,2.65,2.65,0,0,1,1.57-.5l.36,0,.33.07,0,1.11a2.45,2.45,0,0,0-.8-.12,2.06,2.06,0,0,0-1.25.34,2,2,0,0,0-.69.88,2.87,2.87,0,0,0-.22,1.12v4.3Z"/><path class="cls-4" d="M27.69,80.67a3.64,3.64,0,0,1-1.89-.48,3.21,3.21,0,0,1-1.24-1.36,4.48,4.48,0,0,1-.44-2.07,4.55,4.55,0,0,1,.44-2.08,3.21,3.21,0,0,1,1.24-1.36,3.64,3.64,0,0,1,1.89-.48,3.6,3.6,0,0,1,1.88.48,3.21,3.21,0,0,1,1.24,1.36,4.55,4.55,0,0,1,.45,2.08,4.48,4.48,0,0,1-.45,2.07,3.21,3.21,0,0,1-1.24,1.36A3.6,3.6,0,0,1,27.69,80.67Zm0-1a2.06,2.06,0,0,0,1.71-.74,4.11,4.11,0,0,0,0-4.31,2.34,2.34,0,0,0-3.43,0,3.24,3.24,0,0,0-.62,2.15,3.35,3.35,0,0,0,.6,2.16A2.12,2.12,0,0,0,27.69,79.66Z"/><path class="cls-4" d="M35.82,80.67a2.64,2.64,0,0,1-2-.75,3.22,3.22,0,0,1-.68-2.22V73h1.22v4.65a2.24,2.24,0,0,0,.42,1.5,1.59,1.59,0,0,0,1.27.48A2.17,2.17,0,0,0,37.63,79a2.43,2.43,0,0,0,.62-1.73V73h1.21v7.54H38.28V78.93l.18-.09a2.49,2.49,0,0,1-1,1.36A2.88,2.88,0,0,1,35.82,80.67Z"/><path class="cls-4" d="M41.8,80.56V75.14c0-.36,0-.71,0-1.06s-.05-.71-.1-1.06h1.16L43,74.58l-.15.12a2.61,2.61,0,0,1,1-1.39,3.12,3.12,0,0,1,1.7-.47c1.81,0,2.71,1,2.71,3v4.74H47.07V75.89a2.31,2.31,0,0,0-.42-1.54,1.64,1.64,0,0,0-1.32-.49,2.21,2.21,0,0,0-1.68.65A2.34,2.34,0,0,0,43,76.24v4.32Z"/><path class="cls-4" d="M57.22,80.56H56v-2l.18.16a2.52,2.52,0,0,1-1,1.46,3,3,0,0,1-1.76.51,3.14,3.14,0,0,1-1.75-.49,3.19,3.19,0,0,1-1.17-1.38,4.83,4.83,0,0,1-.42-2.08,4.66,4.66,0,0,1,.41-2,3.09,3.09,0,0,1,1.17-1.35,3.2,3.2,0,0,1,1.76-.48,2.91,2.91,0,0,1,1.76.52,2.51,2.51,0,0,1,1,1.44L56,75V69.52h1.21Zm-3.51-.9a2.06,2.06,0,0,0,1.7-.75,4.11,4.11,0,0,0,0-4.29,2,2,0,0,0-1.71-.76,2.12,2.12,0,0,0-1.73.75,3.18,3.18,0,0,0-.62,2.11A3.34,3.34,0,0,0,52,78.89,2.07,2.07,0,0,0,53.71,79.66Z"/><path class="cls-4" d="M70.14,80.56h-1.2v-2l.18.16a2.54,2.54,0,0,1-1,1.46,2.94,2.94,0,0,1-1.75.51,3.12,3.12,0,0,1-2.93-1.87,5.35,5.35,0,0,1,0-4.13,3.22,3.22,0,0,1,1.17-1.35,3.26,3.26,0,0,1,1.77-.48,2.88,2.88,0,0,1,1.75.52,2.52,2.52,0,0,1,1,1.44l-.2.15V69.52h1.22Zm-3.51-.9a2.07,2.07,0,0,0,1.7-.75,3.42,3.42,0,0,0,.61-2.15,3.37,3.37,0,0,0-.6-2.14,2,2,0,0,0-1.71-.76,2.15,2.15,0,0,0-1.74.75,3.24,3.24,0,0,0-.62,2.11,3.4,3.4,0,0,0,.62,2.17A2.11,2.11,0,0,0,66.63,79.66Z"/><path class="cls-4" d="M75.61,80.67a3.58,3.58,0,0,1-1.88-.48,3.23,3.23,0,0,1-1.25-1.36A4.61,4.61,0,0,1,72,76.76a4.68,4.68,0,0,1,.44-2.08,3.23,3.23,0,0,1,1.25-1.36,3.92,3.92,0,0,1,3.76,0,3.23,3.23,0,0,1,1.25,1.36,4.68,4.68,0,0,1,.44,2.08,4.61,4.61,0,0,1-.44,2.07,3.23,3.23,0,0,1-1.25,1.36A3.58,3.58,0,0,1,75.61,80.67Zm0-1a2.09,2.09,0,0,0,1.72-.74,3.35,3.35,0,0,0,.61-2.16,3.3,3.3,0,0,0-.62-2.15,2.09,2.09,0,0,0-1.71-.75,2.12,2.12,0,0,0-1.72.75,4.08,4.08,0,0,0,0,4.31A2.08,2.08,0,0,0,75.61,79.66Z"/><path class="cls-4" d="M83,80.56,80.22,73h1.27l2.33,6.64h-.39L85.83,73h1.06l2.37,6.64h-.39L91.24,73h1.2l-2.79,7.54H88.48L86,73.77h.66l-2.47,6.79Z"/><path class="cls-4" d="M94,80.56V75.14c0-.36,0-.71,0-1.06A9.28,9.28,0,0,0,93.9,73h1.15l.14,1.56L95,74.7a2.61,2.61,0,0,1,1-1.39,3.09,3.09,0,0,1,1.69-.47c1.81,0,2.72,1,2.72,3v4.74H99.28V75.89a2.31,2.31,0,0,0-.42-1.54,1.64,1.64,0,0,0-1.32-.49,2.21,2.21,0,0,0-1.68.65,2.34,2.34,0,0,0-.63,1.73v4.32Z"/></g><polygon class="cls-4" points="92.8 44.38 97.77 35.75 87.82 35.75 92.8 44.38"/><path class="cls-5" d="M9.12,1H93V6c0,10-8-8-8,7.5S93,11,93,21v5H9.12V21c0-10-8,8-8-7.5s8,2.5,8-7.5Z"/><path class="cls-6" d="M8.12,0H92V5c0,10-8-8-8,7.5S92,10,92,20v5H8.12V20c0-10-8,8-8-7.5s8,2.5,8-7.5Z"/><path class="cls-7" d="M9.12,24.5h-1v-6h1Zm78.11-4.77-.49-.86,3.68-2.1.49.86ZM.77,18.13a20.9,20.9,0,0,1,0-11.26l1,.26a19.79,19.79,0,0,0,0,10.74ZM9.12,8h-1V0H91.48V1H9.12Z"/><g class="cls-8"><rect class="cls-9" x="13.12" y="5" width="65.87" height="16" rx="4"/></g><g class="cls-3"><path class="cls-4" d="M19.29,17.5V12.07c0-.35,0-.7,0-1.06a9.3,9.3,0,0,0-.09-1h1.15l.17,1.86-.17-.05a2.32,2.32,0,0,1,.91-1.49,2.58,2.58,0,0,1,1.57-.5,2.06,2.06,0,0,1,.36,0,1.6,1.6,0,0,1,.33.07l0,1.11a2.45,2.45,0,0,0-.8-.12,2.06,2.06,0,0,0-1.25.34,1.92,1.92,0,0,0-.69.88,2.83,2.83,0,0,0-.22,1.12v4.3Z"/><path class="cls-4" d="M27.69,17.61a3.64,3.64,0,0,1-1.89-.48,3.27,3.27,0,0,1-1.24-1.36,4.52,4.52,0,0,1-.44-2.08,4.51,4.51,0,0,1,.44-2.07,3.21,3.21,0,0,1,1.24-1.36,3.64,3.64,0,0,1,1.89-.48,3.6,3.6,0,0,1,1.88.48,3.21,3.21,0,0,1,1.24,1.36,4.51,4.51,0,0,1,.45,2.07,4.52,4.52,0,0,1-.45,2.08,3.27,3.27,0,0,1-1.24,1.36A3.6,3.6,0,0,1,27.69,17.61Zm0-1a2.08,2.08,0,0,0,1.71-.74A3.34,3.34,0,0,0,30,13.69a3.29,3.29,0,0,0-.61-2.14,2.34,2.34,0,0,0-3.43,0,3.23,3.23,0,0,0-.62,2.14,3.4,3.4,0,0,0,.6,2.17A2.15,2.15,0,0,0,27.69,16.6Z"/><path class="cls-4" d="M35.82,17.61a2.64,2.64,0,0,1-2-.75,3.22,3.22,0,0,1-.68-2.22V10h1.22v4.65a2.24,2.24,0,0,0,.42,1.5,1.59,1.59,0,0,0,1.27.48,2.14,2.14,0,0,0,1.62-.65,2.39,2.39,0,0,0,.62-1.72V10h1.21V17.5H38.28V15.87l.18-.09a2.49,2.49,0,0,1-1,1.36A2.88,2.88,0,0,1,35.82,17.61Z"/><path class="cls-4" d="M41.8,17.5V12.07c0-.35,0-.7,0-1.06s-.05-.7-.1-1h1.16L43,11.52l-.15.12a2.58,2.58,0,0,1,1-1.39,3,3,0,0,1,1.7-.47c1.81,0,2.71,1,2.71,3V17.5H47.07V12.82a2.34,2.34,0,0,0-.42-1.54,1.67,1.67,0,0,0-1.32-.48,2.24,2.24,0,0,0-1.68.64A2.38,2.38,0,0,0,43,13.18V17.5Z"/><path class="cls-4" d="M57.22,17.5H56v-2l.18.16a2.52,2.52,0,0,1-1,1.46,3,3,0,0,1-1.76.51,3.22,3.22,0,0,1-1.75-.49,3.31,3.31,0,0,1-1.17-1.38,4.86,4.86,0,0,1-.42-2.08,4.66,4.66,0,0,1,.41-2.05,3.09,3.09,0,0,1,1.17-1.35,3.2,3.2,0,0,1,1.76-.48,3,3,0,0,1,1.76.51,2.56,2.56,0,0,1,1,1.45l-.19.15V6.46h1.21Zm-3.51-.9a2,2,0,0,0,1.7-.76A3.32,3.32,0,0,0,56,13.69a3.38,3.38,0,0,0-.6-2.14,2.06,2.06,0,0,0-1.71-.75,2.12,2.12,0,0,0-1.73.75,3.18,3.18,0,0,0-.62,2.11A3.36,3.36,0,0,0,52,15.83,2.1,2.1,0,0,0,53.71,16.6Z"/></g><polygon class="cls-4" points="71 17.31 75.98 8.69 66.03 8.69 71 17.31"/></g></g></svg>