<svg xmlns="http://www.w3.org/2000/svg" viewBox="0 0 595.39 25"><defs><style>.cls-1{fill:none;}.cls-2{fill:#3d4986;}.cls-3{fill:#4c5ba6;}.cls-4{fill:#818dc1;}.cls-5{isolation:isolate;}.cls-6{fill:#fff;}</style></defs><g id="Layer_2" data-name="Layer 2"><g id="Layer_1-2" data-name="Layer 1"><rect class="cls-1" x="0.12" width="595.28" height="18"/><path class="cls-2" d="M9.12,1H137.35V25H9.12V21c0-10-8,8-8-7.5s8,2.5,8-7.5Z"/><path class="cls-3" d="M8.12,0H136.35V24H8.12V20c0-10-8,8-8-7.5s8,2.5,8-7.5Z"/><path class="cls-4" d="M9.12,23.5h-1v-5h1ZM.77,18.13a20.9,20.9,0,0,1,0-11.26l1,.26a19.79,19.79,0,0,0,0,10.74ZM9.12,8h-1V0H135.85V1H9.12Z"/><g class="cls-5"><path class="cls-6" d="M19.29,17.5V12.07c0-.35,0-.7,0-1.06a9.3,9.3,0,0,0-.09-1h1.15l.17,1.86-.17-.05a2.32,2.32,0,0,1,.91-1.49,2.58,2.58,0,0,1,1.57-.5,2.06,2.06,0,0,1,.36,0,1.6,1.6,0,0,1,.33.07l0,1.1a2.76,2.76,0,0,0-.8-.11,2.06,2.06,0,0,0-1.25.34,1.92,1.92,0,0,0-.69.88,2.83,2.83,0,0,0-.22,1.12v4.3Z"/><path class="cls-6" d="M27.46,17.61a3.2,3.2,0,0,1-1.76-.48,3,3,0,0,1-1.17-1.35,4.71,4.71,0,0,1-.41-2.06,4.78,4.78,0,0,1,.42-2.07,3.31,3.31,0,0,1,1.17-1.38,3.14,3.14,0,0,1,1.75-.49,3,3,0,0,1,1.76.51,2.5,2.5,0,0,1,1,1.45l-.18.12V10h1.2V17.5H30V15.55l.18.09a2.52,2.52,0,0,1-1,1.46A3,3,0,0,1,27.46,17.61Zm.24-1a2,2,0,0,0,1.71-.76,3.38,3.38,0,0,0,.6-2.15,3.29,3.29,0,0,0-.61-2.14,2.32,2.32,0,0,0-3.43,0,3.3,3.3,0,0,0-.62,2.15A3.22,3.22,0,0,0,26,15.85,2.12,2.12,0,0,0,27.7,16.6Z"/><path class="cls-6" d="M33.57,17.5V12.07c0-.35,0-.7,0-1.06a9.3,9.3,0,0,0-.09-1H34.6l.14,1.55-.15.13a2.58,2.58,0,0,1,1-1.39,3,3,0,0,1,1.69-.47c1.81,0,2.72,1,2.72,3V17.5H38.83V12.82a2.34,2.34,0,0,0-.42-1.54,1.67,1.67,0,0,0-1.32-.48,2.24,2.24,0,0,0-1.68.64,2.38,2.38,0,0,0-.63,1.74V17.5Z"/><path class="cls-6" d="M49,17.5h-1.2v-2l.18.17a2.54,2.54,0,0,1-1,1.46,2.94,2.94,0,0,1-1.75.51,3.2,3.2,0,0,1-1.75-.49,3.26,3.26,0,0,1-1.18-1.38,4.86,4.86,0,0,1-.42-2.08,4.81,4.81,0,0,1,.41-2.05,3.22,3.22,0,0,1,1.17-1.35,3.26,3.26,0,0,1,1.77-.48,2.94,2.94,0,0,1,1.75.51,2.58,2.58,0,0,1,1,1.45l-.2.15V6.46H49Zm-3.51-.9a2,2,0,0,0,1.7-.76,3.38,3.38,0,0,0,.61-2.15,3.38,3.38,0,0,0-.6-2.14,2.06,2.06,0,0,0-1.71-.75,2.15,2.15,0,0,0-1.74.75,3.24,3.24,0,0,0-.62,2.11,3.42,3.42,0,0,0,.62,2.17A2.13,2.13,0,0,0,45.48,16.6Z"/><path class="cls-6" d="M54.46,17.61a3.58,3.58,0,0,1-1.88-.48,3.29,3.29,0,0,1-1.25-1.36,4.65,4.65,0,0,1-.44-2.08,4.64,4.64,0,0,1,.44-2.07,3.23,3.23,0,0,1,1.25-1.36,3.92,3.92,0,0,1,3.76,0,3.23,3.23,0,0,1,1.25,1.36A4.64,4.64,0,0,1,58,13.69a4.65,4.65,0,0,1-.44,2.08,3.29,3.29,0,0,1-1.25,1.36A3.58,3.58,0,0,1,54.46,17.61Zm0-1a2.12,2.12,0,0,0,1.72-.74,3.4,3.4,0,0,0,.61-2.17,3.29,3.29,0,0,0-.62-2.14,2.09,2.09,0,0,0-1.71-.75,2.12,2.12,0,0,0-1.72.75,3.29,3.29,0,0,0-.62,2.14,3.34,3.34,0,0,0,.61,2.17A2.11,2.11,0,0,0,54.46,16.6Z"/><path class="cls-6" d="M59.92,17.5V12.07c0-.35,0-.7,0-1.06s0-.7-.1-1H61l.13,1.55-.15.11a2.49,2.49,0,0,1,.94-1.36,2.62,2.62,0,0,1,1.58-.48,2.46,2.46,0,0,1,1.7.54A2.6,2.6,0,0,1,65.94,12l-.36-.2a2.57,2.57,0,0,1,1-1.45,2.87,2.87,0,0,1,1.75-.54,2.32,2.32,0,0,1,1.88.74,3.38,3.38,0,0,1,.63,2.24V17.5H69.58V12.82a2.55,2.55,0,0,0-.37-1.54A1.42,1.42,0,0,0,68,10.8a1.84,1.84,0,0,0-1.49.64A2.61,2.61,0,0,0,66,13.2v4.3H64.77V12.82a2.47,2.47,0,0,0-.39-1.54,1.42,1.42,0,0,0-1.19-.48,1.88,1.88,0,0,0-1.51.64,2.66,2.66,0,0,0-.54,1.76v4.3Z"/><path class="cls-6" d="M76,10.92V10h4.53v1ZM80.7,7.57a2.85,2.85,0,0,0-.78-.12,1.59,1.59,0,0,0-.66.13.92.92,0,0,0-.45.46,2,2,0,0,0-.17.91V17.5H77.43V8.8A2.45,2.45,0,0,1,78,7a2.27,2.27,0,0,1,1.65-.59l.51,0a3.1,3.1,0,0,1,.51.11Z"/><path class="cls-6" d="M82.08,17.5V12.07c0-.35,0-.7,0-1.06A9.3,9.3,0,0,0,82,10h1.15l.17,1.86-.17-.05A2.32,2.32,0,0,1,84,10.28a2.58,2.58,0,0,1,1.57-.5,2.06,2.06,0,0,1,.36,0,1.6,1.6,0,0,1,.33.07l0,1.1a2.76,2.76,0,0,0-.8-.11,2.06,2.06,0,0,0-1.25.34,1.92,1.92,0,0,0-.69.88,2.83,2.83,0,0,0-.22,1.12v4.3Z"/><path class="cls-6" d="M90.25,17.61a3.2,3.2,0,0,1-1.76-.48,3,3,0,0,1-1.17-1.35,4.71,4.71,0,0,1-.41-2.06,4.78,4.78,0,0,1,.42-2.07,3.31,3.31,0,0,1,1.17-1.38,3.14,3.14,0,0,1,1.75-.49,3,3,0,0,1,1.76.51,2.5,2.5,0,0,1,1,1.45l-.18.12V10H94V17.5H92.8V15.55l.18.09a2.52,2.52,0,0,1-1,1.46A3,3,0,0,1,90.25,17.61Zm.24-1a2,2,0,0,0,1.71-.76,3.38,3.38,0,0,0,.6-2.15,3.29,3.29,0,0,0-.61-2.14,2.32,2.32,0,0,0-3.43,0,3.3,3.3,0,0,0-.62,2.15,3.22,3.22,0,0,0,.62,2.13A2.12,2.12,0,0,0,90.49,16.6Z"/><path class="cls-6" d="M99.52,17.61a3.7,3.7,0,0,1-1.92-.48,3.2,3.2,0,0,1-1.25-1.35,4.44,4.44,0,0,1-.44-2.06,4.5,4.5,0,0,1,.45-2.06,3.29,3.29,0,0,1,1.27-1.39,3.72,3.72,0,0,1,2-.49,4.16,4.16,0,0,1,1.48.26,3.31,3.31,0,0,1,1.18.72l-.41.91a4.73,4.73,0,0,0-1.09-.66,3,3,0,0,0-1.1-.21,2.28,2.28,0,0,0-1.81.76,3.21,3.21,0,0,0-.66,2.16,3.12,3.12,0,0,0,.66,2.13,2.28,2.28,0,0,0,1.81.75,2.84,2.84,0,0,0,1.1-.22,4.35,4.35,0,0,0,1.09-.65l.41.9a3.43,3.43,0,0,1-1.21.71A4.33,4.33,0,0,1,99.52,17.61Z"/><path class="cls-6" d="M102.73,10.92V10h4.85v1Zm4.82,5.5v1a4.64,4.64,0,0,1-.51.11,4.26,4.26,0,0,1-.54,0,2.33,2.33,0,0,1-1.68-.6,2.41,2.41,0,0,1-.62-1.8V8l1.22-.43V15a2,2,0,0,0,.17.93,1,1,0,0,0,.47.46,1.83,1.83,0,0,0,.68.13,2.41,2.41,0,0,0,.4,0A2.83,2.83,0,0,0,107.55,16.42Z"/><path class="cls-6" d="M108.93,6.76h1.48V8.14h-1.48Zm.12,10.74V10h1.21V17.5Z"/><path class="cls-6" d="M115.74,17.61a3.64,3.64,0,0,1-1.89-.48,3.27,3.27,0,0,1-1.24-1.36,4.52,4.52,0,0,1-.44-2.08,4.51,4.51,0,0,1,.44-2.07,3.21,3.21,0,0,1,1.24-1.36,3.64,3.64,0,0,1,1.89-.48,3.6,3.6,0,0,1,1.88.48,3.21,3.21,0,0,1,1.24,1.36,4.51,4.51,0,0,1,.45,2.07,4.52,4.52,0,0,1-.45,2.08,3.27,3.27,0,0,1-1.24,1.36A3.6,3.6,0,0,1,115.74,17.61Zm0-1a2.08,2.08,0,0,0,1.71-.74,3.34,3.34,0,0,0,.61-2.17,3.29,3.29,0,0,0-.61-2.14,2.34,2.34,0,0,0-3.43,0,3.23,3.23,0,0,0-.62,2.14,3.4,3.4,0,0,0,.6,2.17A2.15,2.15,0,0,0,115.74,16.6Z"/><path class="cls-6" d="M121.2,17.5V12.07c0-.35,0-.7,0-1.06a9.3,9.3,0,0,0-.09-1h1.15l.14,1.55-.15.13a2.58,2.58,0,0,1,1-1.39A3,3,0,0,1,125,9.78c1.81,0,2.72,1,2.72,3V17.5h-1.22V12.82a2.34,2.34,0,0,0-.42-1.54,1.67,1.67,0,0,0-1.32-.48,2.24,2.24,0,0,0-1.68.64,2.38,2.38,0,0,0-.63,1.74V17.5Z"/></g></g></g></svg>