<svg xmlns="http://www.w3.org/2000/svg" viewBox="0 0 595.28 60.69"><defs><style>.cls-1{fill:#87a549;}.cls-2{fill:#ededee;}.cls-3{fill:#231f20;}.cls-4{fill:#cbc4cc;}.cls-5{fill:#b6aeb6;}.cls-6{fill:#7b6e7a;}.cls-7{fill:#695f69;}.cls-8{fill:#a6a0a8;}.cls-9{fill:#958f96;}.cls-10{fill:#c4c3c7;}.cls-11{fill:#625862;}.cls-12{fill:#607d37;}.cls-13{fill:#f2f0f3;}.cls-14{fill:#b3b3b3;}.cls-15{fill:#b8b5b9;}</style></defs><g id="Layer_2" data-name="Layer 2"><g id="Layer_1-2" data-name="Layer 1"><rect class="cls-1" y="4" width="595.28" height="56.69" rx="11.34"/><rect class="cls-2" width="595.28" height="56.69" rx="11.34"/><path class="cls-3" d="M85.3,38.84V13.21H89l9.68,22.07H96.93l9.61-22.07h3.71V38.84h-4.14l0-19,1.23.29-8,18.68H96.25L88.07,20.16l1.3-.29,0,19Z"/><path class="cls-3" d="M123.75,39.09a9.9,9.9,0,0,1-4.91-1.15,7.77,7.77,0,0,1-3.19-3.26,10.63,10.63,0,0,1-1.12-5,10.77,10.77,0,0,1,1.12-5,7.76,7.76,0,0,1,3.19-3.3,10,10,0,0,1,4.91-1.15,9.87,9.87,0,0,1,4.84,1.15,8,8,0,0,1,3.21,3.3,10.65,10.65,0,0,1,1.13,5,10.51,10.51,0,0,1-1.13,5,8,8,0,0,1-3.21,3.26A9.76,9.76,0,0,1,123.75,39.09Zm0-3.45a4.17,4.17,0,0,0,3.44-1.5,7,7,0,0,0,1.2-4.48,7,7,0,0,0-1.2-4.45,4.19,4.19,0,0,0-3.44-1.49,4.33,4.33,0,0,0-3.51,1.49A6.83,6.83,0,0,0,119,29.66a7,7,0,0,0,1.22,4.48A4.29,4.29,0,0,0,123.75,35.64Z"/><path class="cls-3" d="M134.44,24V20.66h12.82V24ZM147.26,35.1v3.56a7,7,0,0,1-1.42.34,11.86,11.86,0,0,1-1.5.09,6.24,6.24,0,0,1-4.73-1.73,6.82,6.82,0,0,1-1.68-5V16.23l4.5-1.51V32.18a4,4,0,0,0,.4,1.93,2.3,2.3,0,0,0,1.06,1,3.78,3.78,0,0,0,1.5.28,5.29,5.29,0,0,0,.9-.07C146.57,35.26,146.9,35.19,147.26,35.1Z"/><path class="cls-3" d="M158.6,39.09a9.94,9.94,0,0,1-4.92-1.15,7.81,7.81,0,0,1-3.18-3.26,10.51,10.51,0,0,1-1.12-5,10.65,10.65,0,0,1,1.12-5,7.79,7.79,0,0,1,3.18-3.3,10.05,10.05,0,0,1,4.92-1.15,9.87,9.87,0,0,1,4.84,1.15,7.9,7.9,0,0,1,3.2,3.3,10.54,10.54,0,0,1,1.14,5,10.4,10.4,0,0,1-1.14,5,7.91,7.91,0,0,1-3.2,3.26A9.76,9.76,0,0,1,158.6,39.09Zm0-3.45a4.17,4.17,0,0,0,3.44-1.5,7,7,0,0,0,1.2-4.48,7,7,0,0,0-1.2-4.45,4.19,4.19,0,0,0-3.44-1.49,4.33,4.33,0,0,0-3.51,1.49,6.83,6.83,0,0,0-1.24,4.45,6.92,6.92,0,0,0,1.22,4.48A4.29,4.29,0,0,0,158.6,35.64Z"/><path class="cls-3" d="M171.63,38.84v-13c0-.84,0-1.7,0-2.58s-.12-1.73-.24-2.57h4.25l.5,4.68-.5-.25a5.66,5.66,0,0,1,2.12-3.64,6.21,6.21,0,0,1,3.75-1.22,6.5,6.5,0,0,1,1,.07,3.62,3.62,0,0,1,.82.22l-.07,4.1a6.07,6.07,0,0,0-2.37-.47,4.91,4.91,0,0,0-2.65.65,4.11,4.11,0,0,0-1.55,1.75,5.62,5.62,0,0,0-.52,2.46v9.83Z"/><path class="cls-3" d="M192.26,39.09c-3.31,0-5.93-.75-7.85-2.27l1.26-3.16a10.48,10.48,0,0,0,3.13,1.62,11.57,11.57,0,0,0,3.53.54,4.82,4.82,0,0,0,2.52-.54,1.69,1.69,0,0,0,.86-1.52,1.57,1.57,0,0,0-.61-1.31A5.69,5.69,0,0,0,193,31.6l-3-.68a7.23,7.23,0,0,1-3.73-1.82A4.51,4.51,0,0,1,185,25.84a4.79,4.79,0,0,1,.94-2.93,6.14,6.14,0,0,1,2.63-2,9.9,9.9,0,0,1,3.92-.72,11.72,11.72,0,0,1,3.74.6,9.26,9.26,0,0,1,3.14,1.71l-1.3,3.09A10.49,10.49,0,0,0,195.3,24a8.58,8.58,0,0,0-2.83-.5,4.27,4.27,0,0,0-2.41.58,1.81,1.81,0,0,0-.86,1.58,1.59,1.59,0,0,0,.52,1.26,4.24,4.24,0,0,0,1.82.76l3.06.75a7.6,7.6,0,0,1,3.94,1.86,4.6,4.6,0,0,1,1.24,3.36,4.61,4.61,0,0,1-2,3.94A9.19,9.19,0,0,1,192.26,39.09Z"/><path class="cls-4" d="M34.67,28.69l-10.25.86H22.59a1.42,1.42,0,1,1,0-2.84h1.84l10.24.85Z"/><path class="cls-5" d="M27.58,26.71l-.85,2.84H24.42V26.71Z"/><path class="cls-6" d="M33.32,30.57l-4.9.85h-.84a.85.85,0,0,1-.85-.85V25.69a.86.86,0,0,1,.85-.86h.84l4.9.86Z"/><path class="cls-7" d="M31.5,24.83l-1.71,6.59H28.42V24.83Z"/><path class="cls-8" d="M50.63,46.55H37.8l1.66-5.94H49Z"/><path class="cls-9" d="M52.34,46.55H49.78l-1.66-5.94h2.56Z"/><path class="cls-10" d="M54,48.28H34.58a1.34,1.34,0,1,1,0-2.68H54a1.34,1.34,0,1,1,0,2.68Z"/><path class="cls-8" d="M39.91,10.61h8.67v8.07H39.91Z"/><path class="cls-9" d="M47.73,10.61h2.56v8.07H47.73Z"/><path class="cls-10" d="M50.19,12.38H38.39a1.25,1.25,0,0,1-1.24-1.25,2.72,2.72,0,0,1,2.72-2.72h8.84a2.72,2.72,0,0,1,2.72,2.72,1.24,1.24,0,0,1-1.24,1.25Z"/><path class="cls-10" d="M53.23,40.78h-18a3.85,3.85,0,0,1-3.85-3.85V19.32a3.84,3.84,0,0,1,3.85-3.84h18a3,3,0,0,1,3,3V37.79A3,3,0,0,1,53.23,40.78Z"/><path class="cls-4" d="M60.69,33.84H59.47a2.13,2.13,0,0,1-2.14-2.14V24.55a2.14,2.14,0,0,1,2.14-2.14h1.22a2.14,2.14,0,0,1,2.14,2.14V31.7A2.14,2.14,0,0,1,60.69,33.84Z"/><path class="cls-5" d="M63.69,24.55V31.7a2.14,2.14,0,0,1-2.14,2.14H59.84A2.13,2.13,0,0,0,62,31.7V24.55a2.13,2.13,0,0,0-2.13-2.14h1.71a2.14,2.14,0,0,1,2.14,2.14Z"/><path class="cls-11" d="M55.18,22.44H32.86a.64.64,0,0,1-.64-.64.64.64,0,0,1,.64-.64H55.18a.64.64,0,0,1,.64.64A.64.64,0,0,1,55.18,22.44Z"/><path class="cls-11" d="M54.28,28.77H33.86a.64.64,0,0,1-.64-.64.64.64,0,0,1,.64-.64H54.28a.64.64,0,1,1,0,1.28Z"/><path class="cls-11" d="M54.07,35.1H33.86a.65.65,0,0,1,0-1.29H54.07a.65.65,0,0,1,0,1.29Z"/><path class="cls-1" d="M58.11,18.47V37.79a3,3,0,0,1-3,3H52.64V15.48h2.48a3,3,0,0,1,3,3Z"/><path class="cls-12" d="M60.51,18.47V37.79a3,3,0,0,1-3,3H54.33a3,3,0,0,0,3-3V18.47a3,3,0,0,0-3-3h3.18a3,3,0,0,1,3,3Z"/><path class="cls-13" d="M56.68,20.82a.65.65,0,1,1,.65-.65A.65.65,0,0,1,56.68,20.82Z"/><path class="cls-13" d="M56.68,37.15a.65.65,0,1,1,.65-.64A.64.64,0,0,1,56.68,37.15Z"/><path class="cls-14" d="M55.72,45.6H53.15a1.34,1.34,0,1,1,0,2.68h2.57a1.34,1.34,0,1,0,0-2.68Z"/><path class="cls-15" d="M50.43,8.41H47.86a2.72,2.72,0,0,1,2.72,2.72,1.25,1.25,0,0,1-1.25,1.25H51.9a1.24,1.24,0,0,0,1.24-1.25A2.71,2.71,0,0,0,50.43,8.41Z"/><path class="cls-1" d="M35.07,15.48v25.3H33.64a3.85,3.85,0,0,1-3.85-3.85V19.32a3.84,3.84,0,0,1,3.85-3.84Z"/></g></g></svg>