<svg xmlns="http://www.w3.org/2000/svg" viewBox="0 0 595.28 150.84"><defs><style>.cls-1{fill:none;}.cls-2{fill:#85863c;}.cls-3{fill:#a6a64b;}.cls-4{fill:#c1c181;}.cls-5{fill:#3d4986;}.cls-6{fill:#4c5ba6;}.cls-7{fill:#818dc1;}.cls-8{opacity:0.6;}.cls-9{fill:#fff;}.cls-10{isolation:isolate;}.cls-11{fill:#010101;}.cls-12{fill:#d8d6b1;}</style></defs><g id="Layer_2" data-name="Layer 2"><g id="Layer_1-2" data-name="Layer 1"><rect class="cls-1" width="595.28" height="18"/><path class="cls-2" d="M1,9A8,8,0,0,1,9,1h7l6,4h3l6-4H407.6V37H30.5l-6,4h-3l-6-4H9a8,8,0,0,1-8-8ZM274.28,6h-39.6v5c0,10-8-8-8,7.5s8-2.5,8,7.5v7h39.6Z"/><path class="cls-3" d="M0,8A8,8,0,0,1,8,0h7l6,4h3l6-4H406.6V36H29.5l-6,4h-3l-6-4H8a8,8,0,0,1-8-8ZM273.28,5h-39.6v5c0,10-8-8-8,7.5s8-2.5,8,7.5v7h39.6Z"/><path class="cls-4" d="M2.34,33.66A8,8,0,0,1,0,28V8H1V28a7,7,0,0,0,2.05,5ZM274.28,33h-40.1V32h39.1V5.5h1Zm-45.45-8.27-.49-.86,3.68-2.1.49.86ZM1,7.53,0,7.47A8,8,0,0,1,8,0h7.17l6,4h2.7l6-4H406.1V1h-376l-6,4h-3.3l-6-4H8A7,7,0,0,0,1,7.53Z"/><path class="cls-5" d="M235.68,7h37.6V32h-37.6V27c0-10-8,8-8-7.5s8,2.5,8-7.5Z"/><path class="cls-6" d="M234.68,6h37.6V31h-37.6V26c0-10-8,8-8-7.5s8,2.5,8-7.5Z"/><path class="cls-7" d="M235.68,30.5h-1v-6h1Zm-8.34-6.37a20.9,20.9,0,0,1,0-11.26l1,.26a19.79,19.79,0,0,0,0,10.74ZM235.68,14h-1V6h37.1V7h-36.1Z"/><g class="cls-8"><rect class="cls-9" x="239.68" y="11" width="27.6" height="16" rx="4"/></g><g class="cls-10"><path class="cls-11" d="M248.85,12.7a3.59,3.59,0,0,1,3,1.34,6.15,6.15,0,0,1,1,3.85,8.66,8.66,0,0,1-.49,3.1A4.15,4.15,0,0,1,251,23a3.73,3.73,0,0,1-2.23.67,4.86,4.86,0,0,1-1.79-.34,4.59,4.59,0,0,1-1.55-1l.48-.94a5.65,5.65,0,0,0,1.45.93,3.49,3.49,0,0,0,1.4.3,2.39,2.39,0,0,0,2.14-1.23,6.59,6.59,0,0,0,.75-3.45V16.62l.2.38a2.88,2.88,0,0,1-.56,1.35,3,3,0,0,1-1.09.87,3.5,3.5,0,0,1-1.46.31A3.46,3.46,0,0,1,247,19.1a3,3,0,0,1-1.17-1.19,3.69,3.69,0,0,1-.42-1.78,3.51,3.51,0,0,1,.44-1.76,3.2,3.2,0,0,1,1.22-1.23A3.57,3.57,0,0,1,248.85,12.7Zm.06,1a2.14,2.14,0,0,0-1.65.65,2.37,2.37,0,0,0-.63,1.73,2.38,2.38,0,0,0,.63,1.72,2.24,2.24,0,0,0,1.67.65,2.39,2.39,0,0,0,1.23-.31,2.12,2.12,0,0,0,.84-.84,2.42,2.42,0,0,0,.3-1.22,2.49,2.49,0,0,0-.3-1.25,2.1,2.1,0,0,0-.84-.83A2.54,2.54,0,0,0,248.91,13.74Z"/><path class="cls-11" d="M258.18,23.62a3.15,3.15,0,0,1-2.78-1.39,7.22,7.22,0,0,1-1-4.07,7.23,7.23,0,0,1,.94-4.07,3.5,3.5,0,0,1,5.58,0,7.19,7.19,0,0,1,.95,4.05,7.26,7.26,0,0,1-.95,4.08A3.16,3.16,0,0,1,258.18,23.62Zm0-1a2,2,0,0,0,1.89-1.09,7.14,7.14,0,0,0,.6-3.36,7,7,0,0,0-.6-3.33,2.2,2.2,0,0,0-3.77,0,7,7,0,0,0-.61,3.32,7.12,7.12,0,0,0,.61,3.36A2,2,0,0,0,258.18,22.59Z"/></g><g class="cls-10"><path class="cls-9" d="M13.72,22.61a4.38,4.38,0,0,1-3-1l.4-.9a4.11,4.11,0,0,0,1.24.68,4.23,4.23,0,0,0,1.42.22,2.37,2.37,0,0,0,1.29-.29,1,1,0,0,0,.44-.85.91.91,0,0,0-.29-.71,2.41,2.41,0,0,0-1-.43l-1.27-.3a2.78,2.78,0,0,1-1.46-.75A1.78,1.78,0,0,1,11,17a1.93,1.93,0,0,1,.36-1.16,2.37,2.37,0,0,1,1-.79,3.7,3.7,0,0,1,1.53-.28,4.46,4.46,0,0,1,1.5.25,3.36,3.36,0,0,1,1.18.73l-.41.89A3.87,3.87,0,0,0,15,16a3.29,3.29,0,0,0-1.17-.22,2.17,2.17,0,0,0-1.26.32,1,1,0,0,0-.44.85,1,1,0,0,0,.28.74,1.89,1.89,0,0,0,.89.42l1.28.32a2.85,2.85,0,0,1,1.56.74,1.77,1.77,0,0,1,.5,1.31A1.84,1.84,0,0,1,15.88,22,3.57,3.57,0,0,1,13.72,22.61Z"/><path class="cls-9" d="M24.79,21.6a3.49,3.49,0,0,1-1.27.74,5,5,0,0,1-1.58.27,4.16,4.16,0,0,1-2-.47,3.17,3.17,0,0,1-1.3-1.34,4.44,4.44,0,0,1-.46-2.09,4.47,4.47,0,0,1,.45-2.06,3.41,3.41,0,0,1,1.25-1.38,3.46,3.46,0,0,1,1.85-.49,3.2,3.2,0,0,1,1.73.44,2.8,2.8,0,0,1,1.1,1.27,4.59,4.59,0,0,1,.38,2v.23H19.23v-.8h5l-.39.56a3.19,3.19,0,0,0-.51-2,1.94,1.94,0,0,0-1.6-.7,2.11,2.11,0,0,0-1.72.77,3.36,3.36,0,0,0-.62,2.14A3.32,3.32,0,0,0,20,20.85,2.41,2.41,0,0,0,22,21.6a3.56,3.56,0,0,0,1.26-.22,3.8,3.8,0,0,0,1.16-.67Z"/><path class="cls-9" d="M25.66,15.92V15H30.5v1Zm4.81,5.5v1l-.5.11a4.43,4.43,0,0,1-.55,0A2.27,2.27,0,0,1,27.75,22a2.39,2.39,0,0,1-.62-1.79V13l1.21-.43V20a2,2,0,0,0,.18.93,1,1,0,0,0,.47.46,1.78,1.78,0,0,0,.67.12l.41,0Z"/><path class="cls-9" d="M39.43,22.62a8.43,8.43,0,0,1-1.55-.14A5.63,5.63,0,0,1,36.55,22a5.07,5.07,0,0,1-1.11-.76l.46-.94a5.56,5.56,0,0,0,1.63,1,6.1,6.1,0,0,0,1.91.28,3.41,3.41,0,0,0,2-.5,1.65,1.65,0,0,0,.71-1.42,1.18,1.18,0,0,0-.35-.89,2.46,2.46,0,0,0-1-.54c-.41-.14-.87-.26-1.38-.38s-1-.24-1.45-.39a5.06,5.06,0,0,1-1.22-.54,2.41,2.41,0,0,1-.84-.84,2.5,2.5,0,0,1-.3-1.28,2.76,2.76,0,0,1,.48-1.61,3.13,3.13,0,0,1,1.35-1.09,5,5,0,0,1,2.06-.39,5.92,5.92,0,0,1,1.41.16,5,5,0,0,1,1.25.46,4.26,4.26,0,0,1,1,.73l-.48.95a5.11,5.11,0,0,0-1.52-.95,4.66,4.66,0,0,0-1.69-.3,3.14,3.14,0,0,0-2,.53,1.73,1.73,0,0,0-.71,1.47,1.39,1.39,0,0,0,.32.94,2.22,2.22,0,0,0,.88.58c.38.14.82.27,1.31.4s1,.25,1.5.38a7.25,7.25,0,0,1,1.28.52,2.47,2.47,0,0,1,.89.8,2.16,2.16,0,0,1,.33,1.24,2.69,2.69,0,0,1-.48,1.59,3.17,3.17,0,0,1-1.36,1.05A5.36,5.36,0,0,1,39.43,22.62Z"/><path class="cls-9" d="M45.38,22.5V11.82h6.75v1H46.6v3.72h5.23v1H46.6v3.89h5.53v1Z"/><path class="cls-9" d="M54.2,22.5V11.82h4.25a4.06,4.06,0,0,1,2.65.77,2.69,2.69,0,0,1,.92,2.2A2.68,2.68,0,0,1,61.08,17a4,4,0,0,1-2.63.79l1.11-.21a1.56,1.56,0,0,1,1,.32,2.2,2.2,0,0,1,.68,1l1.35,3.62H61.28L60,19a1.58,1.58,0,0,0-.69-.9,2.8,2.8,0,0,0-1.18-.21H55.42V22.5Zm1.22-5.68h2.92a2.81,2.81,0,0,0,1.86-.52,1.86,1.86,0,0,0,.6-1.5,1.77,1.77,0,0,0-.6-1.47,2.89,2.89,0,0,0-1.86-.49H55.42Z"/><path class="cls-9" d="M67.82,22.5,63.16,11.82h1.3l4.16,9.69h-.5l4.17-9.69h1.28L68.9,22.5Z"/><path class="cls-9" d="M79.12,22.62A4.91,4.91,0,0,1,76.53,22a4.43,4.43,0,0,1-1.68-1.89,6.71,6.71,0,0,1-.59-2.91,6.73,6.73,0,0,1,.58-2.92,4.33,4.33,0,0,1,1.68-1.88,5.43,5.43,0,0,1,5.19,0,4.33,4.33,0,0,1,1.68,1.88,6.7,6.7,0,0,1,.59,2.9,6.74,6.74,0,0,1-.59,2.93A4.43,4.43,0,0,1,81.71,22,4.91,4.91,0,0,1,79.12,22.62Zm0-1.05a3.22,3.22,0,0,0,2.64-1.15,5,5,0,0,0,.94-3.28,5,5,0,0,0-.94-3.26,3.65,3.65,0,0,0-5.29,0,5,5,0,0,0-1,3.25,5.07,5.07,0,0,0,1,3.28A3.25,3.25,0,0,0,79.12,21.57Z"/><path class="cls-9" d="M88.93,15.92V15h4.53v1Zm4.74-3.35a2.85,2.85,0,0,0-.78-.12,1.51,1.51,0,0,0-.65.13.9.9,0,0,0-.46.46,2,2,0,0,0-.17.91V22.5H90.4V13.8A2.45,2.45,0,0,1,91,12a2.27,2.27,0,0,1,1.65-.59l.51,0a3.1,3.1,0,0,1,.51.11Z"/><path class="cls-9" d="M95.05,22.5V17.07c0-.35,0-.7,0-1.06s0-.71-.1-1.05h1.15l.17,1.86-.17-.05A2.36,2.36,0,0,1,97,15.28a2.6,2.6,0,0,1,1.57-.5,2.23,2.23,0,0,1,.37,0,1.65,1.65,0,0,1,.32.07l0,1.1a2.76,2.76,0,0,0-.8-.11,1.92,1.92,0,0,0-1.94,1.22,3,3,0,0,0-.22,1.12v4.3Z"/><path class="cls-9" d="M103.45,22.61a3.58,3.58,0,0,1-1.88-.48,3.35,3.35,0,0,1-1.25-1.36,4.65,4.65,0,0,1-.44-2.08,4.64,4.64,0,0,1,.44-2.07,3.32,3.32,0,0,1,1.25-1.37,4,4,0,0,1,3.76,0,3.32,3.32,0,0,1,1.25,1.37,4.64,4.64,0,0,1,.44,2.07,4.65,4.65,0,0,1-.44,2.08,3.35,3.35,0,0,1-1.25,1.36A3.58,3.58,0,0,1,103.45,22.61Zm0-1a2.12,2.12,0,0,0,1.72-.74,3.4,3.4,0,0,0,.6-2.17,3.32,3.32,0,0,0-.61-2.15,2.09,2.09,0,0,0-1.71-.75,2.12,2.12,0,0,0-1.72.75,3.32,3.32,0,0,0-.62,2.15,3.34,3.34,0,0,0,.61,2.17A2.11,2.11,0,0,0,103.45,21.6Z"/><path class="cls-9" d="M108.91,22.5V17.07c0-.35,0-.7,0-1.06s0-.71-.1-1.05h1.15l.14,1.55-.15.11a2.56,2.56,0,0,1,.94-1.37,2.68,2.68,0,0,1,1.58-.47,2.46,2.46,0,0,1,1.7.54,2.56,2.56,0,0,1,.77,1.64l-.36-.19a2.55,2.55,0,0,1,1-1.45,2.87,2.87,0,0,1,1.75-.54,2.29,2.29,0,0,1,1.87.74,3.38,3.38,0,0,1,.63,2.24V22.5h-1.21V17.82a2.54,2.54,0,0,0-.38-1.54,1.41,1.41,0,0,0-1.18-.49,1.85,1.85,0,0,0-1.49.65A2.61,2.61,0,0,0,115,18.2v4.3h-1.22V17.82a2.48,2.48,0,0,0-.38-1.54,1.43,1.43,0,0,0-1.19-.49,1.89,1.89,0,0,0-1.51.65,2.67,2.67,0,0,0-.55,1.76v4.3Z"/><path class="cls-9" d="M126,25.74V17.07c0-.35,0-.7,0-1.06s0-.71-.1-1.05H127l.14,1.55-.12.23a2.5,2.5,0,0,1,1-1.45,2.93,2.93,0,0,1,1.74-.51,3.12,3.12,0,0,1,1.75.49,3.35,3.35,0,0,1,1.19,1.38,4.78,4.78,0,0,1,.42,2.07,4.7,4.7,0,0,1-.42,2.06,3.13,3.13,0,0,1-2.94,1.83,2.87,2.87,0,0,1-1.74-.52,2.5,2.5,0,0,1-1-1.45l.16-.15v5.25Zm3.54-4.14a2.09,2.09,0,0,0,1.71-.75,3.28,3.28,0,0,0,.61-2.13,3.36,3.36,0,0,0-.61-2.15,2.06,2.06,0,0,0-1.71-.78,2.09,2.09,0,0,0-1.73.75,3.38,3.38,0,0,0-.6,2.15,3.38,3.38,0,0,0,.6,2.15A2.07,2.07,0,0,0,129.55,21.6Z"/><path class="cls-9" d="M134.89,11.76h1.48v1.38h-1.48ZM135,22.5V15h1.21V22.5Z"/><path class="cls-9" d="M138.58,22.5V17.07c0-.35,0-.7,0-1.06s-.05-.71-.1-1.05h1.15l.14,1.55-.15.12a2.59,2.59,0,0,1,1.05-1.38,3,3,0,0,1,1.69-.47c1.81,0,2.72,1,2.72,3V22.5h-1.22V17.82a2.34,2.34,0,0,0-.42-1.54,1.67,1.67,0,0,0-1.32-.49,2.24,2.24,0,0,0-1.68.65,2.38,2.38,0,0,0-.63,1.74V22.5Z"/><path class="cls-9" d="M150.62,19.74v-.88h7.74v.88Zm.3-4.4v-.88h7.74v.88Zm.51,7.16,2.09-10.68h1L152.39,22.5Zm3.38,0,2.08-10.68h1L155.77,22.5Z"/></g><g class="cls-8"><rect class="cls-9" x="163.9" y="10" width="35.27" height="16" rx="4"/></g><g class="cls-10"><path class="cls-11" d="M173.4,22.62a3.14,3.14,0,0,1-2.78-1.39,7.14,7.14,0,0,1-1-4.07,7.23,7.23,0,0,1,.94-4.07,3.5,3.5,0,0,1,5.58,0,7.2,7.2,0,0,1,.94,4.05,7.17,7.17,0,0,1-.95,4.08A3.13,3.13,0,0,1,173.4,22.62Zm0-1a2,2,0,0,0,1.88-1.09,7,7,0,0,0,.61-3.36,6.89,6.89,0,0,0-.61-3.33,2.19,2.19,0,0,0-3.76,0,6.87,6.87,0,0,0-.61,3.32,7,7,0,0,0,.61,3.36A2,2,0,0,0,173.4,21.59Z"/></g><g class="cls-10"><path class="cls-9" d="M204.27,15.92V15h4.85v1Zm4.82,5.5v1l-.51.11a4.26,4.26,0,0,1-.54,0,2.3,2.3,0,0,1-1.68-.61,2.39,2.39,0,0,1-.62-1.79V13l1.22-.43V20a2,2,0,0,0,.17.93,1,1,0,0,0,.47.46,1.83,1.83,0,0,0,.68.12l.4,0Z"/><path class="cls-9" d="M213.71,22.61a3.64,3.64,0,0,1-1.89-.48,3.33,3.33,0,0,1-1.24-1.36,4.52,4.52,0,0,1-.44-2.08,4.51,4.51,0,0,1,.44-2.07,3.3,3.3,0,0,1,1.24-1.37,3.73,3.73,0,0,1,1.89-.47,3.69,3.69,0,0,1,1.88.47,3.3,3.3,0,0,1,1.24,1.37,4.51,4.51,0,0,1,.45,2.07,4.52,4.52,0,0,1-.45,2.08,3.33,3.33,0,0,1-1.24,1.36A3.6,3.6,0,0,1,213.71,22.61Zm0-1a2.08,2.08,0,0,0,1.71-.74,3.34,3.34,0,0,0,.61-2.17,3.32,3.32,0,0,0-.61-2.15,2.34,2.34,0,0,0-3.43,0,3.26,3.26,0,0,0-.62,2.15,3.4,3.4,0,0,0,.6,2.17A2.15,2.15,0,0,0,213.71,21.6Z"/></g><g class="cls-10"><path class="cls-9" d="M291.1,22.5h-1.2v-2l.18.17a2.51,2.51,0,0,1-1,1.45,2.88,2.88,0,0,1-1.75.52,3.22,3.22,0,0,1-1.75-.49,3.33,3.33,0,0,1-1.18-1.38,4.86,4.86,0,0,1-.42-2.08,4.66,4.66,0,0,1,.42-2.05,3.17,3.17,0,0,1,1.17-1.36,3.28,3.28,0,0,1,1.76-.47,2.94,2.94,0,0,1,1.75.51,2.58,2.58,0,0,1,1,1.45l-.2.15V11.46h1.22Zm-3.51-.9a2,2,0,0,0,1.7-.76,3.32,3.32,0,0,0,.61-2.15,3.38,3.38,0,0,0-.6-2.14,2.07,2.07,0,0,0-1.71-.76,2.12,2.12,0,0,0-1.73.75,3.21,3.21,0,0,0-.63,2.12,3.36,3.36,0,0,0,.63,2.17A2.1,2.1,0,0,0,287.59,21.6Z"/><path class="cls-9" d="M299.63,21.6a3.53,3.53,0,0,1-1.26.74,5.1,5.1,0,0,1-1.59.27,4.09,4.09,0,0,1-2-.47,3.19,3.19,0,0,1-1.31-1.34,4.57,4.57,0,0,1-.46-2.09,4.47,4.47,0,0,1,.45-2.06,3.37,3.37,0,0,1,1.26-1.38,3.43,3.43,0,0,1,1.85-.49,3.17,3.17,0,0,1,1.72.44,2.88,2.88,0,0,1,1.11,1.27,4.74,4.74,0,0,1,.38,2v.23h-5.7v-.8h5l-.39.56a3.13,3.13,0,0,0-.52-2,1.92,1.92,0,0,0-1.6-.7,2.08,2.08,0,0,0-1.71.77,3.31,3.31,0,0,0-.63,2.14,3.27,3.27,0,0,0,.66,2.22,2.39,2.39,0,0,0,1.91.75,3.65,3.65,0,0,0,1.27-.22,3.92,3.92,0,0,0,1.16-.67Z"/><path class="cls-9" d="M304.93,25.84a5.52,5.52,0,0,1-3-.77l.21-1a6.48,6.48,0,0,0,1.33.58,5.23,5.23,0,0,0,1.43.18,2.16,2.16,0,0,0,1.64-.58,2.35,2.35,0,0,0,.56-1.72v-2l.17-.19a2.82,2.82,0,0,1-.56,1,2.58,2.58,0,0,1-.94.69,3.15,3.15,0,0,1-1.26.24,3.21,3.21,0,0,1-3-1.79,4.32,4.32,0,0,1-.43-2,4.36,4.36,0,0,1,.43-2,3.18,3.18,0,0,1,3-1.78,3,3,0,0,1,1.78.51,2.58,2.58,0,0,1,1,1.45l-.18-.16V15h1.21v7.48a3.42,3.42,0,0,1-.86,2.55A3.45,3.45,0,0,1,304.93,25.84Zm-.15-4.59a2.16,2.16,0,0,0,1.72-.72,3,3,0,0,0,.62-2,3,3,0,0,0-.62-2,2.17,2.17,0,0,0-1.72-.73,2.23,2.23,0,0,0-1.75.73,3,3,0,0,0-.64,2,3,3,0,0,0,.64,2A2.25,2.25,0,0,0,304.78,21.25Z"/><path class="cls-9" d="M310.67,22.5V17.07c0-.35,0-.7,0-1.06a9.1,9.1,0,0,0-.1-1.05h1.16l.16,1.86-.16-.05a2.32,2.32,0,0,1,.91-1.49,2.55,2.55,0,0,1,1.56-.5,2.17,2.17,0,0,1,.37,0,1.5,1.5,0,0,1,.32.07l0,1.1a2.69,2.69,0,0,0-.79-.11,2.06,2.06,0,0,0-1.25.34,1.92,1.92,0,0,0-.69.88,2.8,2.8,0,0,0-.22,1.12v4.3Z"/><path class="cls-9" d="M322.13,21.6a3.53,3.53,0,0,1-1.26.74,5.1,5.1,0,0,1-1.59.27,4.09,4.09,0,0,1-2-.47A3.19,3.19,0,0,1,316,20.8a4.57,4.57,0,0,1-.46-2.09,4.47,4.47,0,0,1,.45-2.06,3.37,3.37,0,0,1,1.26-1.38,3.43,3.43,0,0,1,1.85-.49,3.17,3.17,0,0,1,1.72.44,2.88,2.88,0,0,1,1.11,1.27,4.74,4.74,0,0,1,.38,2v.23h-5.7v-.8h5l-.39.56a3.13,3.13,0,0,0-.52-2,1.92,1.92,0,0,0-1.6-.7,2.08,2.08,0,0,0-1.71.77,3.31,3.31,0,0,0-.63,2.14,3.27,3.27,0,0,0,.66,2.22,2.39,2.39,0,0,0,1.91.75,3.65,3.65,0,0,0,1.27-.22,3.92,3.92,0,0,0,1.16-.67Z"/><path class="cls-9" d="M330.29,21.6a3.53,3.53,0,0,1-1.26.74,5.1,5.1,0,0,1-1.59.27,4.09,4.09,0,0,1-2-.47,3.19,3.19,0,0,1-1.31-1.34,4.57,4.57,0,0,1-.46-2.09,4.47,4.47,0,0,1,.45-2.06,3.37,3.37,0,0,1,1.26-1.38,3.43,3.43,0,0,1,1.85-.49,3.17,3.17,0,0,1,1.72.44,2.88,2.88,0,0,1,1.11,1.27,4.74,4.74,0,0,1,.38,2v.23h-5.7v-.8h5l-.39.56a3.13,3.13,0,0,0-.52-2,1.92,1.92,0,0,0-1.6-.7,2.08,2.08,0,0,0-1.71.77,3.31,3.31,0,0,0-.63,2.14,3.27,3.27,0,0,0,.66,2.22,2.39,2.39,0,0,0,1.91.75,3.65,3.65,0,0,0,1.27-.22,3.92,3.92,0,0,0,1.16-.67Z"/><path class="cls-9" d="M334.82,22.61a4.4,4.4,0,0,1-3-1l.4-.9a4.23,4.23,0,0,0,1.24.68,4.27,4.27,0,0,0,1.42.22,2.43,2.43,0,0,0,1.3-.29,1,1,0,0,0,.44-.85.89.89,0,0,0-.3-.71,2.3,2.3,0,0,0-1-.43l-1.28-.3a2.78,2.78,0,0,1-1.46-.75,1.78,1.78,0,0,1-.52-1.29,1.93,1.93,0,0,1,.36-1.16,2.37,2.37,0,0,1,1-.79,3.77,3.77,0,0,1,1.53-.28,4.37,4.37,0,0,1,1.5.25,3.28,3.28,0,0,1,1.18.73l-.4.89a4.17,4.17,0,0,0-1.1-.67,3.38,3.38,0,0,0-1.18-.22,2.12,2.12,0,0,0-1.25.32,1.07,1.07,0,0,0-.17,1.59,1.94,1.94,0,0,0,.89.42l1.28.32a2.92,2.92,0,0,1,1.57.74,1.81,1.81,0,0,1,.5,1.31A1.85,1.85,0,0,1,337,22,3.57,3.57,0,0,1,334.82,22.61Z"/><path class="cls-9" d="M345.73,25.23a14.76,14.76,0,0,1-1-2.27,12.75,12.75,0,0,1-.55-2.21,14.42,14.42,0,0,1,0-4.48,14.82,14.82,0,0,1,.54-2.21,14.91,14.91,0,0,1,1-2.24h1a20.61,20.61,0,0,0-.88,2.46,14.68,14.68,0,0,0-.46,2.18,16.31,16.31,0,0,0,0,4.11,14.54,14.54,0,0,0,.46,2.19,21.59,21.59,0,0,0,.86,2.47Z"/><path class="cls-9" d="M351.71,22.62a3.14,3.14,0,0,1-2.78-1.39,7.14,7.14,0,0,1-.95-4.07,7.23,7.23,0,0,1,.94-4.07,3.5,3.5,0,0,1,5.58,0,7.19,7.19,0,0,1,.95,4.05,7.17,7.17,0,0,1-1,4.08A3.13,3.13,0,0,1,351.71,22.62Zm0-1a2,2,0,0,0,1.88-1.09,7,7,0,0,0,.61-3.36,6.89,6.89,0,0,0-.61-3.33,2.19,2.19,0,0,0-3.76,0,6.87,6.87,0,0,0-.61,3.32,7,7,0,0,0,.61,3.36A2,2,0,0,0,351.71,21.59Z"/><path class="cls-9" d="M363.65,17.36l.75.4a2.79,2.79,0,0,1-.77,1.09,1.85,1.85,0,0,1-1.18.4,3,3,0,0,1-1-.18,7.43,7.43,0,0,1-.9-.43c-.28-.15-.55-.3-.81-.42a1.55,1.55,0,0,0-.72-.19,1.13,1.13,0,0,0-.81.29,2.09,2.09,0,0,0-.47.72l-.75-.42a2.44,2.44,0,0,1,.77-1.08,1.85,1.85,0,0,1,1.18-.4,2.74,2.74,0,0,1,1,.19,7.3,7.3,0,0,1,.9.41l.81.42a1.7,1.7,0,0,0,.73.18,1.1,1.1,0,0,0,.8-.28A2.33,2.33,0,0,0,363.65,17.36Z"/><path class="cls-9" d="M367.13,22.5v-1h6v1Zm2.36-.55V12.54l.7.36-2.89,1.85V13.56L370,11.82h.7V22Z"/><path class="cls-9" d="M378.71,22.61a5.17,5.17,0,0,1-2-.36,2.92,2.92,0,0,1-1.33-1,2.58,2.58,0,0,1-.47-1.57,2.47,2.47,0,0,1,.75-1.85,3.48,3.48,0,0,1,2-.91l-.08.22a3.23,3.23,0,0,1-1.81-.92,2.38,2.38,0,0,1-.63-1.67,2.54,2.54,0,0,1,.45-1.51,3.05,3.05,0,0,1,1.26-1,5.31,5.31,0,0,1,3.74,0,3.05,3.05,0,0,1,1.26,1,2.55,2.55,0,0,1,.46,1.51,2.41,2.41,0,0,1-.64,1.68,3.07,3.07,0,0,1-1.79.91l-.09-.22a3.37,3.37,0,0,1,2,.92,2.54,2.54,0,0,1,.73,1.84,2.59,2.59,0,0,1-.48,1.57,2.89,2.89,0,0,1-1.32,1A5.22,5.22,0,0,1,378.71,22.61Zm0-1a3.18,3.18,0,0,0,1.94-.51,1.75,1.75,0,0,0,.67-1.49,1.64,1.64,0,0,0-.73-1.43,3.89,3.89,0,0,0-1.88-.64,3.85,3.85,0,0,0-1.87.64,1.65,1.65,0,0,0-.74,1.43,1.76,1.76,0,0,0,.68,1.49A3.15,3.15,0,0,0,378.71,21.59Zm0-4.92a3.22,3.22,0,0,0,1.7-.65,1.68,1.68,0,0,0,.66-1.39,1.71,1.71,0,0,0-.63-1.41,3.24,3.24,0,0,0-3.46,0,1.71,1.71,0,0,0-.62,1.41A1.68,1.68,0,0,0,377,16,3.22,3.22,0,0,0,378.71,16.67Z"/><path class="cls-9" d="M387.71,22.62a3.14,3.14,0,0,1-2.78-1.39,7.14,7.14,0,0,1-.95-4.07,7.23,7.23,0,0,1,.94-4.07,3.5,3.5,0,0,1,5.58,0,7.19,7.19,0,0,1,.95,4.05,7.17,7.17,0,0,1-1,4.08A3.13,3.13,0,0,1,387.71,22.62Zm0-1a2,2,0,0,0,1.88-1.09,7,7,0,0,0,.61-3.36,6.89,6.89,0,0,0-.61-3.33,2.19,2.19,0,0,0-3.76,0,6.87,6.87,0,0,0-.61,3.32,7,7,0,0,0,.61,3.36A2,2,0,0,0,387.71,21.59Z"/><path class="cls-9" d="M393.7,25.23h-1a20,20,0,0,0,.87-2.47,16,16,0,0,0,.59-4.25,15.82,15.82,0,0,0-.59-4.23,20.45,20.45,0,0,0-.87-2.46h1a14.9,14.9,0,0,1,1.3,3.35,14.46,14.46,0,0,1,.4,3.34,13.82,13.82,0,0,1-.18,2.24,12.71,12.71,0,0,1-.54,2.21A14.76,14.76,0,0,1,393.7,25.23Z"/></g><polygon class="cls-11" points="190.19 22.31 195.17 13.69 185.21 13.69 190.19 22.31"/><rect class="cls-12" x="163.9" y="42.69" width="35.34" height="108.15" rx="5.67"/><g class="cls-10"><path class="cls-11" d="M170.23,55.56v-1h6v1Zm2.35-.55V45.6l.71.36-2.9,1.85V46.62l2.73-1.74h.71V55Z"/><path class="cls-11" d="M169.55,73.56v-.93l3.74-4.14A7.44,7.44,0,0,0,174.38,67a3,3,0,0,0,.35-1.35,1.77,1.77,0,0,0-.51-1.36,2.1,2.1,0,0,0-1.46-.47,3.91,3.91,0,0,0-1.53.31,5.79,5.79,0,0,0-1.5.92l-.46-1a4.63,4.63,0,0,1,1.59-1,5.45,5.45,0,0,1,1.93-.36,4,4,0,0,1,1.69.34,2.6,2.6,0,0,1,1.1,1,2.79,2.79,0,0,1,.39,1.5,4,4,0,0,1-.41,1.76,8.42,8.42,0,0,1-1.37,1.9l-3.6,3.9-.09-.6h5.92v1Z"/><path class="cls-11" d="M169.27,90h1.54v1.54h-1.54Z"/><path class="cls-11" d="M169.27,108h1.54v1.54h-1.54Z"/><path class="cls-11" d="M169.85,127.56h-1.27l4.69-10.68h1.08l4.7,10.68h-1.26l-4.19-9.78h.45Zm.72-2.74.44-1h5.61l.43,1Z"/><path class="cls-11" d="M185,127.56v-9.13h.37l-4.44,6.4,0-.61h6.9v1h-7.77v-.93l5.14-7.43h1v10.68Z"/><path class="cls-11" d="M169.85,145.56h-1.27l4.69-10.68h1.08l4.7,10.68h-1.26l-4.19-9.78h.45Zm.72-2.74.44-1h5.61l.43,1Z"/><path class="cls-11" d="M184,145.67a5.57,5.57,0,0,1-1.92-.35,4.68,4.68,0,0,1-1.59-1l.47-.95a5.79,5.79,0,0,0,1.49.92,4,4,0,0,0,1.55.31,2.38,2.38,0,0,0,1.76-.63,2.35,2.35,0,0,0,.64-1.74,2.54,2.54,0,0,0-.29-1.23,2,2,0,0,0-.8-.84,2.37,2.37,0,0,0-1.22-.3,3,3,0,0,0-1.37.31,3,3,0,0,0-1.07.94h-.86v-6.26h6.4v1H182v4.32l-.39,0a2.94,2.94,0,0,1,1.12-1,3.32,3.32,0,0,1,1.54-.34,3.52,3.52,0,0,1,1.77.43,2.93,2.93,0,0,1,1.15,1.19,3.73,3.73,0,0,1,.4,1.77,3.48,3.48,0,0,1-.44,1.78,3.08,3.08,0,0,1-1.25,1.2A4,4,0,0,1,184,145.67Z"/></g><polygon class="cls-11" points="191.19 55.38 196.17 46.75 186.21 46.75 191.19 55.38"/></g></g></svg>