<svg xmlns="http://www.w3.org/2000/svg" viewBox="0 0 595.39 139.84"><defs><style>.cls-1{fill:none;}.cls-2{fill:#85863c;}.cls-3{fill:#a6a64b;}.cls-4{fill:#c1c181;}.cls-5{isolation:isolate;}.cls-6{fill:#fff;}.cls-7{opacity:0.6;}.cls-8{fill:#010101;}.cls-9{fill:#d8d6b1;}</style></defs><g id="Layer_2" data-name="Layer 2"><g id="Layer_1-2" data-name="Layer 1"><rect class="cls-1" x="0.12" width="595.28" height="18"/><path class="cls-2" d="M9.12,1H224.23V26H9.12V21c0-10-8,8-8-7.5s8,2.5,8-7.5Z"/><path class="cls-3" d="M8.12,0H223.23V25H8.12V20c0-10-8,8-8-7.5s8,2.5,8-7.5Z"/><path class="cls-4" d="M9.12,24.5h-1v-6h1ZM.77,18.13a20.9,20.9,0,0,1,0-11.26l1,.26a19.79,19.79,0,0,0,0,10.74ZM9.12,8h-1V0H222.73V1H9.12Z"/><g class="cls-5"><path class="cls-6" d="M19.29,17.5V12.07c0-.35,0-.7,0-1.06a9.1,9.1,0,0,0-.09-1h1.15l.17,1.86-.17-.05a2.32,2.32,0,0,1,.91-1.49,2.58,2.58,0,0,1,1.57-.5,2.06,2.06,0,0,1,.36,0,1.6,1.6,0,0,1,.33.07l0,1.1a2.76,2.76,0,0,0-.8-.11,2.06,2.06,0,0,0-1.25.34,1.92,1.92,0,0,0-.69.88,2.8,2.8,0,0,0-.22,1.12v4.3Z"/><path class="cls-6" d="M30.75,16.6a3.58,3.58,0,0,1-1.27.74,5,5,0,0,1-1.58.27,4.13,4.13,0,0,1-2-.47,3.19,3.19,0,0,1-1.31-1.34,4.57,4.57,0,0,1-.45-2.09,4.47,4.47,0,0,1,.45-2.06,3.34,3.34,0,0,1,1.25-1.38,3.43,3.43,0,0,1,1.85-.49,3.2,3.2,0,0,1,1.73.44,2.86,2.86,0,0,1,1.1,1.27,4.74,4.74,0,0,1,.38,2v.23h-5.7v-.8h5l-.39.56a3.13,3.13,0,0,0-.52-2,1.9,1.9,0,0,0-1.59-.7,2.1,2.1,0,0,0-1.72.77,3.31,3.31,0,0,0-.62,2.14A3.27,3.27,0,0,0,26,15.85a2.39,2.39,0,0,0,1.91.75,3.65,3.65,0,0,0,1.27-.22,3.92,3.92,0,0,0,1.16-.67Z"/><path class="cls-6" d="M35.62,17.61a3.2,3.2,0,0,1-1.76-.48,3,3,0,0,1-1.17-1.35,4.71,4.71,0,0,1-.41-2.06,4.78,4.78,0,0,1,.42-2.07,3.31,3.31,0,0,1,1.17-1.38,3.14,3.14,0,0,1,1.75-.49,3,3,0,0,1,1.76.51,2.5,2.5,0,0,1,1,1.45l-.18.12V10h1.2V17.5h-1.2V15.55l.18.09a2.5,2.5,0,0,1-1,1.45A2.91,2.91,0,0,1,35.62,17.61Zm.24-1a2,2,0,0,0,1.71-.76,3.38,3.38,0,0,0,.6-2.15,3.32,3.32,0,0,0-.61-2.15,2.06,2.06,0,0,0-1.7-.75,2.08,2.08,0,0,0-1.73.78,3.3,3.3,0,0,0-.62,2.15,3.22,3.22,0,0,0,.62,2.13A2.12,2.12,0,0,0,35.86,16.6Z"/><path class="cls-6" d="M48.37,17.5h-1.2v-2l.18.17a2.5,2.5,0,0,1-1,1.45,2.91,2.91,0,0,1-1.76.52,3.22,3.22,0,0,1-1.75-.49,3.31,3.31,0,0,1-1.17-1.38,4.86,4.86,0,0,1-.42-2.08,4.66,4.66,0,0,1,.41-2.05,3.17,3.17,0,0,1,1.17-1.36,3.28,3.28,0,0,1,1.76-.47,3,3,0,0,1,1.76.51,2.56,2.56,0,0,1,1,1.45l-.19.15V6.46h1.21Zm-3.51-.9a2,2,0,0,0,1.7-.76,3.32,3.32,0,0,0,.61-2.15,3.38,3.38,0,0,0-.6-2.14,2.07,2.07,0,0,0-1.71-.76,2.12,2.12,0,0,0-1.73.75,3.21,3.21,0,0,0-.62,2.12,3.36,3.36,0,0,0,.62,2.17A2.1,2.1,0,0,0,44.86,16.6Z"/><path class="cls-6" d="M58.18,17.62a8.32,8.32,0,0,1-1.54-.14A5.71,5.71,0,0,1,55.3,17a5.07,5.07,0,0,1-1.11-.76l.47-.94a5.52,5.52,0,0,0,1.62,1,6.17,6.17,0,0,0,1.92.28,3.41,3.41,0,0,0,2-.5,1.65,1.65,0,0,0,.7-1.42,1.18,1.18,0,0,0-.35-.89,2.46,2.46,0,0,0-1-.54c-.41-.14-.86-.26-1.37-.38s-1-.24-1.46-.39a5.06,5.06,0,0,1-1.22-.54,2.38,2.38,0,0,1-.83-.84,2.5,2.5,0,0,1-.3-1.28,2.76,2.76,0,0,1,.48-1.61,3.13,3.13,0,0,1,1.35-1.09,5,5,0,0,1,2.05-.39,5.92,5.92,0,0,1,1.41.16,5,5,0,0,1,1.25.46,4.26,4.26,0,0,1,1,.73L61.48,9A5.07,5.07,0,0,0,60,8.05a4.71,4.71,0,0,0-1.7-.3,3.14,3.14,0,0,0-2,.53,1.72,1.72,0,0,0-.7,1.47,1.38,1.38,0,0,0,.31.94,2.26,2.26,0,0,0,.89.58c.38.14.81.27,1.3.4s1,.25,1.5.38a7.25,7.25,0,0,1,1.28.52,2.5,2.5,0,0,1,.9.8,2.16,2.16,0,0,1,.33,1.24,2.69,2.69,0,0,1-.48,1.59,3.21,3.21,0,0,1-1.37,1.05A5.36,5.36,0,0,1,58.18,17.62Z"/><path class="cls-6" d="M64.14,17.5V6.82h6.75v1H65.35v3.72h5.24v1H65.35v3.89h5.54v1Z"/><path class="cls-6" d="M73,17.5V6.82H77.2a4.06,4.06,0,0,1,2.65.77,2.69,2.69,0,0,1,.92,2.2A2.68,2.68,0,0,1,79.83,12a4,4,0,0,1-2.63.79l1.11-.21a1.58,1.58,0,0,1,1,.32,2.19,2.19,0,0,1,.67,1l1.35,3.62H80L78.72,14a1.59,1.59,0,0,0-.7-.9,2.8,2.8,0,0,0-1.18-.21H74.17V17.5Zm1.21-5.68H77.1A2.78,2.78,0,0,0,79,11.3a1.86,1.86,0,0,0,.61-1.5A1.77,1.77,0,0,0,79,8.33a2.89,2.89,0,0,0-1.86-.49H74.17Z"/><path class="cls-6" d="M86.58,17.5,81.91,6.82h1.31l4.15,9.69h-.49l4.17-9.69h1.27L87.66,17.5Z"/><path class="cls-6" d="M97.87,17.62A4.91,4.91,0,0,1,95.28,17a4.43,4.43,0,0,1-1.68-1.89A6.71,6.71,0,0,1,93,12.16a6.73,6.73,0,0,1,.59-2.92,4.31,4.31,0,0,1,1.67-1.88,4.9,4.9,0,0,1,2.6-.66,5,5,0,0,1,2.6.66,4.33,4.33,0,0,1,1.68,1.88,6.7,6.7,0,0,1,.58,2.9,6.74,6.74,0,0,1-.59,2.93A4.43,4.43,0,0,1,100.46,17,4.91,4.91,0,0,1,97.87,17.62Zm0-1.05a3.22,3.22,0,0,0,2.64-1.15,5,5,0,0,0,.95-3.28,5,5,0,0,0-.95-3.26,3.65,3.65,0,0,0-5.29,0,5,5,0,0,0-1,3.25,5.07,5.07,0,0,0,1,3.28A3.25,3.25,0,0,0,97.87,16.57Z"/><path class="cls-6" d="M107.68,10.92V10h4.53v1Zm4.74-3.35a2.85,2.85,0,0,0-.78-.12,1.51,1.51,0,0,0-.65.13.9.9,0,0,0-.46.46,2,2,0,0,0-.16.91V17.5h-1.22V8.8a2.45,2.45,0,0,1,.6-1.81,2.27,2.27,0,0,1,1.65-.59l.51,0a3.1,3.1,0,0,1,.51.11Z"/><path class="cls-6" d="M113.8,17.5V12.07c0-.35,0-.7,0-1.06s0-.71-.1-1h1.16l.16,1.86-.16-.05a2.35,2.35,0,0,1,.9-1.49,2.6,2.6,0,0,1,1.57-.5,2.23,2.23,0,0,1,.37,0,1.65,1.65,0,0,1,.32.07l0,1.1a2.69,2.69,0,0,0-.79-.11,2.11,2.11,0,0,0-1.26.34,2.06,2.06,0,0,0-.69.88A3,3,0,0,0,115,13.2v4.3Z"/><path class="cls-6" d="M122.2,17.61a3.58,3.58,0,0,1-1.88-.48,3.35,3.35,0,0,1-1.25-1.36,4.65,4.65,0,0,1-.44-2.08,4.64,4.64,0,0,1,.44-2.07,3.32,3.32,0,0,1,1.25-1.37,4,4,0,0,1,3.76,0,3.32,3.32,0,0,1,1.25,1.37,4.64,4.64,0,0,1,.44,2.07,4.65,4.65,0,0,1-.44,2.08,3.35,3.35,0,0,1-1.25,1.36A3.58,3.58,0,0,1,122.2,17.61Zm0-1a2.12,2.12,0,0,0,1.72-.74,3.4,3.4,0,0,0,.61-2.17,3.32,3.32,0,0,0-.62-2.15,2.09,2.09,0,0,0-1.71-.75,2.12,2.12,0,0,0-1.72.75,3.32,3.32,0,0,0-.62,2.15,3.34,3.34,0,0,0,.61,2.17A2.11,2.11,0,0,0,122.2,16.6Z"/><path class="cls-6" d="M127.66,17.5V12.07c0-.35,0-.7,0-1.06s0-.71-.1-1h1.16l.13,1.55-.15.11a2.56,2.56,0,0,1,.94-1.37,2.68,2.68,0,0,1,1.58-.47,2.46,2.46,0,0,1,1.7.54,2.57,2.57,0,0,1,.78,1.64l-.36-.19a2.53,2.53,0,0,1,1-1.45A2.87,2.87,0,0,1,136,9.78a2.32,2.32,0,0,1,1.88.74,3.38,3.38,0,0,1,.63,2.24V17.5h-1.22V12.82a2.55,2.55,0,0,0-.37-1.54,1.43,1.43,0,0,0-1.19-.49,1.85,1.85,0,0,0-1.49.65,2.61,2.61,0,0,0-.55,1.76v4.3h-1.21V12.82a2.47,2.47,0,0,0-.39-1.54,1.43,1.43,0,0,0-1.19-.49,1.89,1.89,0,0,0-1.51.65,2.66,2.66,0,0,0-.54,1.76v4.3Z"/><path class="cls-6" d="M144.76,20.74V12.07c0-.35,0-.7,0-1.06s-.05-.71-.1-1h1.16l.13,1.55-.12.23a2.5,2.5,0,0,1,1-1.45,2.94,2.94,0,0,1,1.75-.51,3.08,3.08,0,0,1,1.74.49,3.35,3.35,0,0,1,1.19,1.38,4.78,4.78,0,0,1,.43,2.07,4.7,4.7,0,0,1-.43,2.06,3.13,3.13,0,0,1-2.93,1.83,2.88,2.88,0,0,1-1.75-.52,2.5,2.5,0,0,1-1-1.45l.16-.15v5.25Zm3.54-4.14a2.09,2.09,0,0,0,1.71-.75,3.28,3.28,0,0,0,.62-2.13,3.36,3.36,0,0,0-.62-2.15,2.06,2.06,0,0,0-1.71-.78,2.09,2.09,0,0,0-1.73.75,3.44,3.44,0,0,0-.6,2.15,3.44,3.44,0,0,0,.6,2.15A2.07,2.07,0,0,0,148.3,16.6Z"/><path class="cls-6" d="M153.64,6.76h1.49V8.14h-1.49Zm.12,10.74V10H155V17.5Z"/><path class="cls-6" d="M157.33,17.5V12.07c0-.35,0-.7,0-1.06s-.05-.71-.1-1h1.15l.14,1.55-.15.12a2.59,2.59,0,0,1,1.05-1.38,3,3,0,0,1,1.69-.47c1.81,0,2.72,1,2.72,3V17.5h-1.22V12.82a2.4,2.4,0,0,0-.41-1.54,1.71,1.71,0,0,0-1.33-.49,2.22,2.22,0,0,0-1.67.65,2.39,2.39,0,0,0-.64,1.74V17.5Z"/><path class="cls-6" d="M169.37,14.74v-.88h7.74v.88Zm.3-4.4V9.46h7.74v.88Zm.51,7.16,2.09-10.68h1L171.14,17.5Zm3.38,0,2.08-10.68h1L174.52,17.5Z"/></g><g class="cls-7"><rect class="cls-6" x="182.97" y="5" width="35.27" height="16" rx="4"/></g><g class="cls-5"><path class="cls-8" d="M192.47,17.62a3.17,3.17,0,0,1-2.79-1.39,7.22,7.22,0,0,1-1-4.07,7.22,7.22,0,0,1,1-4.07,3.5,3.5,0,0,1,5.58,0,7.2,7.2,0,0,1,.94,4.05,7.26,7.26,0,0,1-.95,4.08A3.14,3.14,0,0,1,192.47,17.62Zm0-1a2,2,0,0,0,1.88-1.09,7.12,7.12,0,0,0,.61-3.36,7,7,0,0,0-.61-3.33,2,2,0,0,0-1.88-1.06,2,2,0,0,0-1.89,1.07,7,7,0,0,0-.6,3.32,7.14,7.14,0,0,0,.6,3.36A2,2,0,0,0,192.47,16.59Z"/></g><polygon class="cls-8" points="209.25 17.31 214.23 8.69 204.28 8.69 209.25 17.31"/><rect class="cls-9" x="182.97" y="31.69" width="35.34" height="108.15" rx="5.67"/><g class="cls-5"><path class="cls-8" d="M189.29,44.56v-1h6v1Zm2.36-.55V34.6l.7.36-2.89,1.85V35.62l2.73-1.74h.7V44Z"/><path class="cls-8" d="M188.62,62.56v-.93l3.73-4.14a7.53,7.53,0,0,0,1.1-1.51,2.94,2.94,0,0,0,.34-1.35,1.77,1.77,0,0,0-.51-1.36,2.07,2.07,0,0,0-1.45-.47,3.91,3.91,0,0,0-1.53.31,5.79,5.79,0,0,0-1.5.92l-.47-1a4.63,4.63,0,0,1,1.59-1,5.5,5.5,0,0,1,1.94-.36,3.93,3.93,0,0,1,1.68.34,2.57,2.57,0,0,1,1.11,1,2.79,2.79,0,0,1,.39,1.5,3.9,3.9,0,0,1-.42,1.76,8.12,8.12,0,0,1-1.37,1.9l-3.6,3.9-.09-.6h5.93v1Z"/><path class="cls-8" d="M188.33,79h1.55v1.54h-1.55Z"/><path class="cls-8" d="M188.33,97h1.55v1.54h-1.55Z"/><path class="cls-8" d="M188.92,116.56h-1.28l4.7-10.68h1.08l4.69,10.68h-1.26l-4.18-9.78h.45Zm.72-2.74.43-1h5.61l.44,1Z"/><path class="cls-8" d="M204,116.56v-9.13h.37l-4.44,6.4,0-.61h6.9v1h-7.77v-.93l5.14-7.43h1v10.68Z"/><path class="cls-8" d="M188.92,134.56h-1.28l4.7-10.68h1.08l4.69,10.68h-1.26l-4.18-9.78h.45Zm.72-2.74.43-1h5.61l.44,1Z"/><path class="cls-8" d="M203.05,134.67a5.57,5.57,0,0,1-1.92-.35,4.68,4.68,0,0,1-1.59-1l.46-.95a6.15,6.15,0,0,0,1.49.92,4.06,4.06,0,0,0,1.56.31,2.2,2.2,0,0,0,2.4-2.37,2.54,2.54,0,0,0-.29-1.23,2.09,2.09,0,0,0-.8-.84,2.4,2.4,0,0,0-1.22-.3,3.11,3.11,0,0,0-1.38.31,3.15,3.15,0,0,0-1.07.94h-.85v-6.26h6.4v1h-5.17v4.32l-.39,0a3,3,0,0,1,1.11-1,3.38,3.38,0,0,1,1.54-.34,3.46,3.46,0,0,1,1.77.43,2.89,2.89,0,0,1,1.16,1.19,3.73,3.73,0,0,1,.4,1.77,3.59,3.59,0,0,1-.44,1.78,3.14,3.14,0,0,1-1.25,1.2A4,4,0,0,1,203.05,134.67Z"/></g><polygon class="cls-8" points="210.25 44.38 215.23 35.75 205.28 35.75 210.25 44.38"/></g></g></svg>