<svg xmlns="http://www.w3.org/2000/svg" viewBox="0 0 595.28 214.48"><defs><style>.cls-1{fill:#2395bc;}.cls-2{fill:#27aae1;}.cls-3{fill:#727373;}.cls-4{fill:#2d2d2d;}.cls-5{fill:#231f20;}.cls-6{fill:#666566;}.cls-7{fill:#ff5100;}.cls-8{fill:none;}</style></defs><g id="Layer_2" data-name="Layer 2"><g id="Layer_1-2" data-name="Layer 1"><rect class="cls-1" x="12.5" y="38.98" width="59" height="31" rx="7.5"/><rect class="cls-1" x="13" y="183.48" width="59" height="31" rx="7.5"/><path class="cls-2" d="M75.38,199H9.62A9.12,9.12,0,0,1,.5,189.86L0,63.6a9.12,9.12,0,0,1,9.12-9.12H74.88A9.12,9.12,0,0,1,84,63.6l.5,126.26A9.12,9.12,0,0,1,75.38,199Z"/><path class="cls-3" d="M76.28,102A34.28,34.28,0,0,0,41,67.74c-16.66.47-31.95,15-33.19,31.64A34.19,34.19,0,0,0,16.57,125a28.76,28.76,0,0,1,7.66,19.27l.5,32.95a8.5,8.5,0,0,0,8.5,8.51H51.77a8.5,8.5,0,0,0,8.5-8.51l-.5-32.85A29,29,0,0,1,67.43,125,34.14,34.14,0,0,0,76.28,102Z"/><circle class="cls-4" cx="42" cy="102.01" r="21"/><path class="cls-5" d="M95.28,178.47a8.11,8.11,0,0,1-1.44-.13,5,5,0,0,1-1.25-.42,5,5,0,0,1-1-.71l.44-.88a4.9,4.9,0,0,0,1.52.89,5.33,5.33,0,0,0,1.78.27,3.16,3.16,0,0,0,1.85-.47,1.52,1.52,0,0,0,.66-1.32,1.11,1.11,0,0,0-.33-.84,2.41,2.41,0,0,0-.9-.5,12,12,0,0,0-1.28-.36c-.47-.1-.93-.22-1.36-.35a5.19,5.19,0,0,1-1.14-.52,2.13,2.13,0,0,1-.77-.78,2.28,2.28,0,0,1-.28-1.19,2.62,2.62,0,0,1,.44-1.5,2.91,2.91,0,0,1,1.26-1,4.73,4.73,0,0,1,1.92-.36,6.28,6.28,0,0,1,1.32.14,4.94,4.94,0,0,1,1.17.43,4.19,4.19,0,0,1,1,.69l-.45.88a4.62,4.62,0,0,0-1.42-.88,4.27,4.27,0,0,0-1.58-.28,3,3,0,0,0-1.82.49,1.6,1.6,0,0,0-.66,1.37,1.27,1.27,0,0,0,.3.88,2.1,2.1,0,0,0,.82.54,12,12,0,0,0,1.22.37c.49.11,1,.23,1.4.36a6.66,6.66,0,0,1,1.2.49,2.3,2.3,0,0,1,.83.74,2,2,0,0,1,.31,1.15,2.5,2.5,0,0,1-.45,1.49,2.88,2.88,0,0,1-1.27,1A5.08,5.08,0,0,1,95.28,178.47Z"/><path class="cls-5" d="M100.84,178.36v-10h6.3v1H102v3.47h4.89v1H102v3.62h5.17v1Z"/><path class="cls-5" d="M109.07,178.36v-10h4a3.81,3.81,0,0,1,2.47.71,2.84,2.84,0,0,1,0,4.08,3.72,3.72,0,0,1-2.46.74l1-.2a1.48,1.48,0,0,1,.93.3,1.92,1.92,0,0,1,.63,1l1.26,3.38h-1.21L114.45,175a1.4,1.4,0,0,0-.66-.83,2.4,2.4,0,0,0-1.09-.21h-2.5v4.36Zm1.13-5.31h2.73a2.63,2.63,0,0,0,1.73-.48,1.7,1.7,0,0,0,.57-1.4,1.67,1.67,0,0,0-.56-1.37,2.68,2.68,0,0,0-1.74-.46H110.2Z"/><path class="cls-5" d="M121.78,178.36l-4.35-10h1.21l3.88,9h-.46l3.89-9h1.19l-4.35,10Z"/><path class="cls-5" d="M132.32,178.47a4.55,4.55,0,0,1-2.41-.62,4.08,4.08,0,0,1-1.57-1.76,6.2,6.2,0,0,1-.55-2.72,6.31,6.31,0,0,1,.54-2.72,4.12,4.12,0,0,1,1.56-1.76,5.13,5.13,0,0,1,4.85,0,4,4,0,0,1,1.57,1.76,6.12,6.12,0,0,1,.55,2.71,6.24,6.24,0,0,1-.56,2.73,4.06,4.06,0,0,1-1.56,1.76A4.61,4.61,0,0,1,132.32,178.47Zm0-1a3,3,0,0,0,2.47-1.07,4.77,4.77,0,0,0,.88-3.06,4.7,4.7,0,0,0-.88-3.05,3.42,3.42,0,0,0-4.94,0,4.63,4.63,0,0,0-.89,3,4.7,4.7,0,0,0,.89,3A3,3,0,0,0,132.32,177.49Z"/><path class="cls-5" d="M142.47,178.36v-5.07c0-.33,0-.66,0-1a8.28,8.28,0,0,0-.09-1h1.08l.12,1.46-.14.1a2.38,2.38,0,0,1,.88-1.28,2.51,2.51,0,0,1,1.48-.44,2.3,2.3,0,0,1,1.59.5,2.56,2.56,0,0,1,.72,1.54l-.34-.18a2.42,2.42,0,0,1,.9-1.36,2.65,2.65,0,0,1,1.63-.5,2.16,2.16,0,0,1,1.75.69,3.12,3.12,0,0,1,.59,2.09v4.43h-1.13V174a2.4,2.4,0,0,0-.35-1.44,1.32,1.32,0,0,0-1.11-.45,1.72,1.72,0,0,0-1.39.6,2.46,2.46,0,0,0-.51,1.64v4H147V174a2.4,2.4,0,0,0-.35-1.44,1.34,1.34,0,0,0-1.12-.45,1.74,1.74,0,0,0-1.4.6,2.46,2.46,0,0,0-.51,1.64v4Z"/><path class="cls-5" d="M157.69,178.45a3.46,3.46,0,0,1-1.76-.44,3,3,0,0,1-1.16-1.27,4.77,4.77,0,0,1,0-3.87,3.07,3.07,0,0,1,1.16-1.28,3.74,3.74,0,0,1,3.52,0,3.07,3.07,0,0,1,1.16,1.28,4.77,4.77,0,0,1,0,3.87,3,3,0,0,1-1.16,1.27A3.46,3.46,0,0,1,157.69,178.45Zm0-.93a1.93,1.93,0,0,0,1.6-.7,3.83,3.83,0,0,0,0-4,2.18,2.18,0,0,0-3.2,0,3,3,0,0,0-.58,2,3.16,3.16,0,0,0,.56,2A2,2,0,0,0,157.69,177.52Z"/><path class="cls-5" d="M161.78,172.21v-.9h4.52v.9Zm4.49,5.14v1a2.66,2.66,0,0,1-.47.11,3.89,3.89,0,0,1-.51,0,2.13,2.13,0,0,1-1.56-.56,2.21,2.21,0,0,1-.58-1.68v-6.7l1.13-.41v7a2,2,0,0,0,.16.87.94.94,0,0,0,.45.43,1.73,1.73,0,0,0,.63.11,2.12,2.12,0,0,0,.37,0A2.15,2.15,0,0,0,166.27,177.35Z"/><path class="cls-5" d="M170.58,178.45a3.42,3.42,0,0,1-1.75-.44,3.06,3.06,0,0,1-1.17-1.27,4.77,4.77,0,0,1,0-3.87,3.09,3.09,0,0,1,1.17-1.28,3.72,3.72,0,0,1,3.51,0,3,3,0,0,1,1.16,1.28,4.67,4.67,0,0,1,0,3.87,3,3,0,0,1-1.16,1.27A3.43,3.43,0,0,1,170.58,178.45Zm0-.93a2,2,0,0,0,1.61-.7,3.86,3.86,0,0,0,0-4,1.93,1.93,0,0,0-1.6-.7,2,2,0,0,0-1.6.7,3,3,0,0,0-.58,2,3.1,3.1,0,0,0,.57,2A1.93,1.93,0,0,0,170.58,177.52Z"/><path class="cls-5" d="M175.68,178.36v-5.07c0-.33,0-.66,0-1s0-.66-.09-1h1.08l.15,1.74-.15,0a2.18,2.18,0,0,1,.84-1.39,2.41,2.41,0,0,1,1.47-.47,1.88,1.88,0,0,1,.34,0,1.33,1.33,0,0,1,.3.06l0,1a2.09,2.09,0,0,0-.74-.12,1.89,1.89,0,0,0-1.17.33,1.79,1.79,0,0,0-.64.82,2.61,2.61,0,0,0-.21,1v4Z"/><path class="cls-5" d="M91,189v-.9H95.5v.9Zm4.49,5.14v1a2.56,2.56,0,0,1-.46.11,4.17,4.17,0,0,1-.52,0,2.13,2.13,0,0,1-1.56-.56,2.25,2.25,0,0,1-.58-1.68v-6.7l1.14-.41v7a1.9,1.9,0,0,0,.16.87.88.88,0,0,0,.44.43,1.81,1.81,0,0,0,.63.11,1.81,1.81,0,0,0,.75-.12Z"/><path class="cls-5" d="M99.79,195.25a3.43,3.43,0,0,1-1.76-.44,3,3,0,0,1-1.16-1.27,4.67,4.67,0,0,1,0-3.87A3,3,0,0,1,98,188.39a3.72,3.72,0,0,1,3.51,0,3,3,0,0,1,1.16,1.28,4.67,4.67,0,0,1,0,3.87,3,3,0,0,1-1.16,1.27A3.42,3.42,0,0,1,99.79,195.25Zm0-.93a1.93,1.93,0,0,0,1.6-.7,3.8,3.8,0,0,0,0-4,1.93,1.93,0,0,0-1.59-.7,2,2,0,0,0-1.61.7,3.8,3.8,0,0,0,0,4A2,2,0,0,0,99.79,194.32Z"/><path class="cls-5" d="M104.88,198.18v-8.09c0-.33,0-.66,0-1a8.28,8.28,0,0,0-.09-1h1.08l.12,1.46-.11.21a2.4,2.4,0,0,1,.91-1.36,2.73,2.73,0,0,1,1.63-.47,2.9,2.9,0,0,1,1.63.46,3.09,3.09,0,0,1,1.1,1.29,4.32,4.32,0,0,1,.4,1.93,4.25,4.25,0,0,1-.4,1.92,2.89,2.89,0,0,1-1.1,1.26,2.93,2.93,0,0,1-1.63.44,2.73,2.73,0,0,1-1.63-.47,2.4,2.4,0,0,1-.91-1.36l.16-.14v4.9Zm3.31-3.86a2,2,0,0,0,1.59-.7,3,3,0,0,0,.58-2,3.1,3.1,0,0,0-.58-2,2.16,2.16,0,0,0-3.2,0,3.08,3.08,0,0,0-.56,2,3.12,3.12,0,0,0,.56,2A1.93,1.93,0,0,0,108.19,194.32Z"/><path class="cls-5" d="M119,195.16l-3-7h1.19l2.55,6.2h-.34l2.58-6.2h1.13l-3,7Z"/><path class="cls-5" d="M124.26,185.13h1.38v1.29h-1.38Zm.11,10v-7h1.13v7Z"/><path class="cls-5" d="M133.47,194.32a3.3,3.3,0,0,1-1.18.68,4.42,4.42,0,0,1-1.48.25,3.81,3.81,0,0,1-1.88-.43,2.94,2.94,0,0,1-1.22-1.25,4.62,4.62,0,0,1,0-3.87,3.18,3.18,0,0,1,1.17-1.29,3.22,3.22,0,0,1,1.73-.46,3,3,0,0,1,1.61.41,2.65,2.65,0,0,1,1,1.18,4.36,4.36,0,0,1,.36,1.85v.21h-5.32v-.74H133l-.36.52a2.92,2.92,0,0,0-.48-1.89,1.79,1.79,0,0,0-1.5-.66,2,2,0,0,0-1.6.72,3.78,3.78,0,0,0,0,4.07,2.26,2.26,0,0,0,1.78.7,3.39,3.39,0,0,0,1.19-.21,3.47,3.47,0,0,0,1.08-.62Z"/><path class="cls-5" d="M137.12,195.16l-2.6-7h1.19l2.17,6.21h-.36l2.24-6.21h1l2.21,6.21h-.36l2.21-6.21h1.12l-2.6,7h-1.1l-2.32-6.35h.62l-2.31,6.35Z"/><path class="cls-4" d="M116.09,11.84A5.77,5.77,0,0,0,114.64,4l-4.08-2.89a5.76,5.76,0,0,0-7.92,1.23L39.16,86.61a5.75,5.75,0,0,0,1.26,8.15l2.43,1.72,4.08,2.9,2.43,1.72a5.75,5.75,0,0,0,8.11-1.5ZM70.35,62a3.5,3.5,0,1,1,4.88-.83A3.5,3.5,0,0,1,70.35,62ZM80.77,47.36a3.5,3.5,0,1,1,4.88-.83A3.49,3.49,0,0,1,80.77,47.36ZM91.19,32.68a3.5,3.5,0,1,1,4.88-.83A3.49,3.49,0,0,1,91.19,32.68ZM101.6,18a3.5,3.5,0,1,1,4.88-.83A3.5,3.5,0,0,1,101.6,18Z"/><circle class="cls-6" cx="42" cy="102.01" r="7.5"/><path class="cls-7" d="M89.71,102.66a.5.5,0,0,1,0-1l35.12-.15h0a.49.49,0,0,1,.5.49.5.5,0,0,1-.5.51l-35.12.15Z"/><path class="cls-7" d="M115.57,94.65a.51.51,0,0,1-.5-.45,72.93,72.93,0,0,0-16.8-39.45.49.49,0,0,1,.06-.7.51.51,0,0,1,.71.06,74.06,74.06,0,0,1,17,40,.49.49,0,0,1-.45.55Z"/><polygon class="cls-7" points="119.16 90.33 118.34 89.75 115.49 93.77 111.69 90.63 111.05 91.4 115.68 95.23 119.16 90.33"/><polygon class="cls-7" points="103.89 54.48 103.75 55.47 98.87 54.75 98.51 59.67 97.51 59.6 97.95 53.61 103.89 54.48"/><path class="cls-5" d="M118.51,74V69c0-.33,0-.66,0-1a8.28,8.28,0,0,0-.09-1h1.08l.12,1.46-.14.1a2.38,2.38,0,0,1,.88-1.28,2.51,2.51,0,0,1,1.48-.44,2.3,2.3,0,0,1,1.59.5,2.56,2.56,0,0,1,.72,1.54l-.34-.18a2.42,2.42,0,0,1,.9-1.36,2.65,2.65,0,0,1,1.63-.5,2.16,2.16,0,0,1,1.75.69,3.12,3.12,0,0,1,.59,2.09V74h-1.13V69.66a2.42,2.42,0,0,0-.35-1.44,1.32,1.32,0,0,0-1.11-.45,1.72,1.72,0,0,0-1.39.6,2.46,2.46,0,0,0-.51,1.64v4H123V69.66a2.42,2.42,0,0,0-.35-1.44,1.34,1.34,0,0,0-1.12-.45,1.74,1.74,0,0,0-1.4.6,2.46,2.46,0,0,0-.51,1.64v4Z"/><path class="cls-5" d="M136.59,73.19a3.35,3.35,0,0,1-1.19.68,4.37,4.37,0,0,1-1.47.25,3.88,3.88,0,0,1-1.89-.43,3.06,3.06,0,0,1-1.22-1.25,4.26,4.26,0,0,1-.42-2,4.16,4.16,0,0,1,.42-1.91,3.12,3.12,0,0,1,2.9-1.75,3,3,0,0,1,1.61.41,2.68,2.68,0,0,1,1,1.18,4.36,4.36,0,0,1,.36,1.85v.21h-5.32v-.74h4.68l-.37.52a2.92,2.92,0,0,0-.48-1.89,1.77,1.77,0,0,0-1.49-.66,1.93,1.93,0,0,0-1.6.72,3.08,3.08,0,0,0-.58,2,3.13,3.13,0,0,0,.6,2.08,2.28,2.28,0,0,0,1.79.7,3.37,3.37,0,0,0,1.18-.21,3.63,3.63,0,0,0,1.09-.62Z"/><path class="cls-5" d="M141.14,74.12a3,3,0,0,1-1.65-.44,2.87,2.87,0,0,1-1.09-1.26A4.39,4.39,0,0,1,138,70.5a4.32,4.32,0,0,1,.4-1.93,3.07,3.07,0,0,1,1.09-1.29,2.94,2.94,0,0,1,1.64-.46,2.78,2.78,0,0,1,1.63.47,2.31,2.31,0,0,1,.91,1.36l-.16.11V67h1.12v7h-1.12V72.21l.16.08a2.31,2.31,0,0,1-.91,1.36A2.71,2.71,0,0,1,141.14,74.12Zm.22-.93a1.94,1.94,0,0,0,1.6-.71,3.18,3.18,0,0,0,.56-2,3.09,3.09,0,0,0-.57-2,1.93,1.93,0,0,0-1.59-.7,2,2,0,0,0-1.62.72,3.16,3.16,0,0,0-.58,2,3.08,3.08,0,0,0,.58,2A2,2,0,0,0,141.36,73.19Z"/><path class="cls-5" d="M149.21,74.12a4.1,4.1,0,0,1-2.81-.91l.38-.84a3.77,3.77,0,0,0,1.15.64,4,4,0,0,0,1.32.2,2.25,2.25,0,0,0,1.22-.27.89.89,0,0,0,.41-.79.81.81,0,0,0-.28-.66,2.13,2.13,0,0,0-.93-.4l-1.18-.28a2.66,2.66,0,0,1-1.37-.7,1.7,1.7,0,0,1-.48-1.21,1.82,1.82,0,0,1,.33-1.08,2.34,2.34,0,0,1,.94-.74,3.65,3.65,0,0,1,1.43-.26,4.33,4.33,0,0,1,1.4.23,2.87,2.87,0,0,1,1.1.69l-.37.83a3.92,3.92,0,0,0-1-.63,3.15,3.15,0,0,0-1.1-.2,2,2,0,0,0-1.17.29.93.93,0,0,0-.41.8.9.9,0,0,0,.26.69,1.74,1.74,0,0,0,.83.39l1.19.29a2.81,2.81,0,0,1,1.46.7,1.69,1.69,0,0,1,.47,1.22,1.74,1.74,0,0,1-.74,1.46A3.38,3.38,0,0,1,149.21,74.12Z"/><path class="cls-5" d="M156.27,74.12a2.44,2.44,0,0,1-1.9-.7,3,3,0,0,1-.63-2.07V67h1.13v4.34a2.07,2.07,0,0,0,.39,1.4,1.5,1.5,0,0,0,1.19.45,2,2,0,0,0,1.51-.6,2.21,2.21,0,0,0,.58-1.61V67h1.13v7h-1.1V72.5l.16-.08a2.32,2.32,0,0,1-.94,1.27A2.73,2.73,0,0,1,156.27,74.12Z"/><path class="cls-5" d="M161.86,74V69q0-.49,0-1a8.28,8.28,0,0,0-.09-1h1.08l.16,1.74-.16,0a2.15,2.15,0,0,1,.85-1.39,2.38,2.38,0,0,1,1.46-.47,1.83,1.83,0,0,1,.34,0,1.55,1.55,0,0,1,.31.06l0,1a2.13,2.13,0,0,0-.74-.12,1.89,1.89,0,0,0-1.17.33,1.81,1.81,0,0,0-.65.82,2.79,2.79,0,0,0-.2,1v4Z"/><path class="cls-5" d="M172.55,73.19a3.3,3.3,0,0,1-1.18.68,4.38,4.38,0,0,1-1.48.25,3.81,3.81,0,0,1-1.88-.43,3,3,0,0,1-1.22-1.25,4.26,4.26,0,0,1-.43-2,4.16,4.16,0,0,1,.42-1.91A3.18,3.18,0,0,1,168,67.28a3.22,3.22,0,0,1,1.73-.46,3,3,0,0,1,1.61.41,2.7,2.7,0,0,1,1,1.18,4.36,4.36,0,0,1,.36,1.85v.21h-5.32v-.74H172l-.36.52a2.92,2.92,0,0,0-.48-1.89,1.77,1.77,0,0,0-1.49-.66,2,2,0,0,0-1.61.72,3.78,3.78,0,0,0,0,4.07,2.27,2.27,0,0,0,1.79.7,3.37,3.37,0,0,0,1.18-.21,3.47,3.47,0,0,0,1.08-.62Z"/><path class="cls-5" d="M180.6,74h-1.12V72.14l.17.15a2.35,2.35,0,0,1-.91,1.36,2.74,2.74,0,0,1-1.64.47,2.89,2.89,0,0,1-2.73-1.74,4.51,4.51,0,0,1-.39-1.94,4.6,4.6,0,0,1,.38-1.92,3,3,0,0,1,1.1-1.26,3.07,3.07,0,0,1,1.64-.44,2.74,2.74,0,0,1,1.64.48,2.36,2.36,0,0,1,.91,1.35l-.18.14V63.72h1.13Zm-3.27-.84a1.9,1.9,0,0,0,1.58-.71,3.82,3.82,0,0,0,0-4,1.88,1.88,0,0,0-1.59-.71,2,2,0,0,0-1.62.7,3,3,0,0,0-.58,2,3.15,3.15,0,0,0,.58,2A2,2,0,0,0,177.33,73.19Z"/><path class="cls-5" d="M189.16,74.12a3,3,0,0,1-1.65-.44,2.81,2.81,0,0,1-1.09-1.26A4.39,4.39,0,0,1,186,70.5a4.32,4.32,0,0,1,.4-1.93,3.07,3.07,0,0,1,1.09-1.29,2.91,2.91,0,0,1,1.64-.46,2.78,2.78,0,0,1,1.63.47,2.35,2.35,0,0,1,.91,1.36l-.17.11V67h1.13v7h-1.13V72.21l.17.08a2.35,2.35,0,0,1-.91,1.36A2.71,2.71,0,0,1,189.16,74.12Zm.22-.93a1.94,1.94,0,0,0,1.6-.71,3.19,3.19,0,0,0,.55-2,3.09,3.09,0,0,0-.56-2,1.93,1.93,0,0,0-1.59-.7,2,2,0,0,0-1.62.72,3.1,3.1,0,0,0-.58,2,3,3,0,0,0,.58,2A2,2,0,0,0,189.38,73.19Z"/><path class="cls-5" d="M194.85,74V69c0-.33,0-.66,0-1a8.28,8.28,0,0,0-.09-1h1.08l.12,1.46-.14.11a2.44,2.44,0,0,1,1-1.29,2.84,2.84,0,0,1,1.59-.44c1.69,0,2.53.93,2.53,2.78V74h-1.13V69.66a2.15,2.15,0,0,0-.4-1.44,1.54,1.54,0,0,0-1.23-.45,2.08,2.08,0,0,0-1.56.6A2.18,2.18,0,0,0,196,70v4Z"/><path class="cls-5" d="M206.14,77.15a5.09,5.09,0,0,1-2.77-.73l.19-.92a5.49,5.49,0,0,0,1.25.54,4.88,4.88,0,0,0,1.33.17,2,2,0,0,0,1.53-.54,2.2,2.2,0,0,0,.53-1.6V72.16l.15-.18a2.58,2.58,0,0,1-.53,1,2.41,2.41,0,0,1-.87.63,3,3,0,0,1-1.18.23,3.07,3.07,0,0,1-1.64-.44A3.15,3.15,0,0,1,203,72.15a4,4,0,0,1-.4-1.83,4.12,4.12,0,0,1,.4-1.84,3.05,3.05,0,0,1,1.11-1.22,3,3,0,0,1,1.64-.44,2.78,2.78,0,0,1,1.66.48,2.38,2.38,0,0,1,.92,1.35l-.17-.15V67h1.14v7a3.19,3.19,0,0,1-.81,2.38A3.25,3.25,0,0,1,206.14,77.15ZM206,72.86a2,2,0,0,0,1.6-.67,2.79,2.79,0,0,0,.58-1.87,2.76,2.76,0,0,0-.58-1.87,2,2,0,0,0-1.6-.68,2.05,2.05,0,0,0-1.63.68,3.21,3.21,0,0,0,0,3.74A2,2,0,0,0,206,72.86Z"/><path class="cls-5" d="M211.5,74V63.72h1.13V74Z"/><path class="cls-5" d="M220.6,73.19a3.26,3.26,0,0,1-1.19.68,4.37,4.37,0,0,1-1.47.25,3.81,3.81,0,0,1-1.88-.43,2.94,2.94,0,0,1-1.22-1.25,4.62,4.62,0,0,1,0-3.87A3.18,3.18,0,0,1,216,67.28a3.22,3.22,0,0,1,1.73-.46,3,3,0,0,1,1.61.41,2.7,2.7,0,0,1,1,1.18,4.36,4.36,0,0,1,.35,1.85v.21H215.4v-.74h4.68l-.36.52a2.92,2.92,0,0,0-.49-1.89,1.76,1.76,0,0,0-1.49-.66,2,2,0,0,0-1.6.72,3.78,3.78,0,0,0,0,4.07,2.25,2.25,0,0,0,1.78.7,3.43,3.43,0,0,0,1.19-.21,3.71,3.71,0,0,0,1.08-.62Z"/><rect class="cls-8" width="595.28" height="18"/></g></g></svg>