<svg xmlns="http://www.w3.org/2000/svg" viewBox="0 0 595.28 80.87"><defs><style>.cls-1{fill:none;}.cls-2{fill:#e2e2e2;stroke:#b7b7b7;}.cls-15,.cls-3{isolation:isolate;}.cls-3{font-size:15px;font-family:Mulish-Regular, Mulish;}.cls-16,.cls-3{fill:#010101;}.cls-4{letter-spacing:0em;}.cls-5{letter-spacing:0em;}.cls-6{letter-spacing:-0.01em;}.cls-7{fill:#6d863b;}.cls-8{fill:#87a549;}.cls-9{fill:#abc282;}.cls-10{fill:#3d4986;}.cls-11{fill:#4c5ba6;}.cls-12{fill:#818dc1;}.cls-13{opacity:0.6;}.cls-14{fill:#fff;}</style></defs><g id="Layer_2" data-name="Layer 2"><g id="Layer_1-2" data-name="Layer 1"><rect class="cls-1" width="595.28" height="18"/><rect class="cls-2" x="106.93" y="42.69" width="139.65" height="37.68" rx="5.67"/><text class="cls-3" transform="translate(111.93 57.06)">My<tspan class="cls-4" x="20.7" y="0">S</tspan><tspan class="cls-5" x="30" y="0">tepper</tspan><tspan x="0" y="18">Rename in</tspan><tspan class="cls-6" x="73.93" y="18">s</tspan><tspan x="81.3" y="18">tance...</tspan></text><path class="cls-7" d="M1,9A8,8,0,0,1,9,1h7l6,4h3l6-4H314.73V37H30.5l-6,4h-3l-6-4H9a8,8,0,0,1-8-8ZM258.35,6h-39.6v5c0,10-8-8-8,7.5s8-2.5,8,7.5v7h39.6Z"/><path class="cls-8" d="M0,8A8,8,0,0,1,8,0h7l6,4h3l6-4H313.73V36H29.5l-6,4h-3l-6-4H8a8,8,0,0,1-8-8ZM257.35,5h-39.6v5c0,10-8-8-8,7.5s8-2.5,8,7.5v7h39.6Z"/><path class="cls-9" d="M2.34,33.66A8,8,0,0,1,0,28V8H1V28a7,7,0,0,0,2.05,5Zm256-.66h-40.1V32h39.1V5.5h1ZM212.9,24.73l-.5-.86,3.68-2.1.5.86ZM1,7.53,0,7.47A8,8,0,0,1,8,0h7.17l6,4h2.7l6-4H313.23V1H30.15l-6,4h-3.3l-6-4H8A7,7,0,0,0,1,7.53Z"/><path class="cls-10" d="M219.75,7h37.6V32h-37.6V27c0-10-8,8-8-7.5s8,2.5,8-7.5Z"/><path class="cls-11" d="M218.75,6h37.6V31h-37.6V26c0-10-8,8-8-7.5s8,2.5,8-7.5Z"/><path class="cls-12" d="M219.75,30.5h-1v-6h1Zm-8.34-6.37a20.71,20.71,0,0,1,0-11.26l1,.26a20,20,0,0,0,0,10.74ZM219.75,14h-1V6h37.1V7h-36.1Z"/><g class="cls-13"><rect class="cls-14" x="223.75" y="11" width="27.6" height="16" rx="4"/></g><g class="cls-15"><path class="cls-16" d="M230.67,23.5v-1h6v1ZM233,23V13.54l.7.36-2.89,1.85V14.56l2.73-1.74h.7V23Z"/><path class="cls-16" d="M242.25,23.62a3.14,3.14,0,0,1-2.78-1.39,7.14,7.14,0,0,1-.95-4.07,7.23,7.23,0,0,1,.94-4.07,3.5,3.5,0,0,1,5.58,0,7.21,7.21,0,0,1,.94,4.06,7.2,7.2,0,0,1-.95,4.08A3.14,3.14,0,0,1,242.25,23.62Zm0-1a2,2,0,0,0,1.88-1.08,7,7,0,0,0,.61-3.36,6.9,6.9,0,0,0-.61-3.34,2.19,2.19,0,0,0-3.76,0,6.91,6.91,0,0,0-.61,3.33,7,7,0,0,0,.61,3.36A2,2,0,0,0,242.25,22.59Z"/></g><g class="cls-15"><path class="cls-14" d="M11.17,22.5V17.07c0-.35,0-.7,0-1.06s-.05-.7-.1-1.05h1.16l.13,1.56-.15.1a2.49,2.49,0,0,1,.94-1.36,2.62,2.62,0,0,1,1.58-.48,2.46,2.46,0,0,1,1.7.54A2.67,2.67,0,0,1,17.19,17l-.36-.2a2.52,2.52,0,0,1,1-1.45,2.87,2.87,0,0,1,1.75-.54,2.32,2.32,0,0,1,1.88.74,3.38,3.38,0,0,1,.63,2.24V22.5H20.83V17.82a2.55,2.55,0,0,0-.37-1.54,1.42,1.42,0,0,0-1.19-.48,1.84,1.84,0,0,0-1.49.64,2.61,2.61,0,0,0-.55,1.76v4.3H16V17.82a2.47,2.47,0,0,0-.39-1.54,1.42,1.42,0,0,0-1.19-.48,1.88,1.88,0,0,0-1.51.64,2.67,2.67,0,0,0-.55,1.76v4.3Z"/><path class="cls-14" d="M27.48,22.61a3.61,3.61,0,0,1-1.89-.48,3.27,3.27,0,0,1-1.24-1.36,4.52,4.52,0,0,1-.44-2.08,4.51,4.51,0,0,1,.44-2.07,3.21,3.21,0,0,1,1.24-1.36,3.94,3.94,0,0,1,3.77,0,3.21,3.21,0,0,1,1.24,1.36,4.51,4.51,0,0,1,.45,2.07,4.52,4.52,0,0,1-.45,2.08,3.27,3.27,0,0,1-1.24,1.36A3.63,3.63,0,0,1,27.48,22.61Zm0-1a2.1,2.1,0,0,0,1.71-.74,3.34,3.34,0,0,0,.61-2.17,3.29,3.29,0,0,0-.61-2.14,2.34,2.34,0,0,0-3.43,0,3.23,3.23,0,0,0-.62,2.14,3.4,3.4,0,0,0,.6,2.17A2.15,2.15,0,0,0,27.48,21.6Z"/><path class="cls-14" d="M35.07,22.5,31.86,15h1.27l2.73,6.65H35.5L38.26,15h1.21L36.22,22.5Z"/><path class="cls-14" d="M46.9,21.6a3.49,3.49,0,0,1-1.27.74,4.73,4.73,0,0,1-1.58.27,4.16,4.16,0,0,1-2-.47,3.17,3.17,0,0,1-1.3-1.34,4.42,4.42,0,0,1-.46-2.09,4.5,4.5,0,0,1,.45-2.06A3.41,3.41,0,0,1,42,15.27a3.46,3.46,0,0,1,1.85-.49,3.2,3.2,0,0,1,1.73.44,2.8,2.8,0,0,1,1.1,1.27,4.6,4.6,0,0,1,.38,2v.22H41.34V17.9h5l-.39.55a3.14,3.14,0,0,0-.51-2,1.91,1.91,0,0,0-1.6-.71,2.11,2.11,0,0,0-1.72.77,3.36,3.36,0,0,0-.62,2.14,3.32,3.32,0,0,0,.65,2.22,2.41,2.41,0,0,0,1.92.75,3.59,3.59,0,0,0,1.26-.22,3.77,3.77,0,0,0,1.16-.66Z"/><path class="cls-14" d="M55.34,22.61a4.4,4.4,0,0,1-3-1l.4-.9a4.23,4.23,0,0,0,1.24.68,4.27,4.27,0,0,0,1.42.22,2.43,2.43,0,0,0,1.3-.29,1,1,0,0,0,.44-.85.89.89,0,0,0-.3-.71,2.3,2.3,0,0,0-1-.43l-1.28-.3a2.82,2.82,0,0,1-1.46-.75A1.82,1.82,0,0,1,52.58,17a1.93,1.93,0,0,1,.36-1.16,2.37,2.37,0,0,1,1-.79,3.77,3.77,0,0,1,1.53-.28A4.37,4.37,0,0,1,57,15a3.16,3.16,0,0,1,1.18.74l-.4.88a4.17,4.17,0,0,0-1.1-.67,3.37,3.37,0,0,0-1.18-.21,2.12,2.12,0,0,0-1.25.31,1,1,0,0,0-.45.86,1,1,0,0,0,.28.73,1.94,1.94,0,0,0,.89.42l1.28.32a3,3,0,0,1,1.57.74,1.81,1.81,0,0,1,.5,1.31A1.85,1.85,0,0,1,57.5,22,3.57,3.57,0,0,1,55.34,22.61Z"/><path class="cls-14" d="M59.09,15.92V15h4.85v1Zm4.82,5.5v1a5,5,0,0,1-.5.11,4.58,4.58,0,0,1-.55,0,2.29,2.29,0,0,1-1.67-.6,2.37,2.37,0,0,1-.63-1.8V13l1.22-.43V20A2.11,2.11,0,0,0,62,21a1,1,0,0,0,.47.46,1.83,1.83,0,0,0,.68.13,2.41,2.41,0,0,0,.4,0A2.83,2.83,0,0,0,63.91,21.42Z"/><path class="cls-14" d="M71.59,21.6a3.49,3.49,0,0,1-1.27.74,4.73,4.73,0,0,1-1.58.27,4.16,4.16,0,0,1-2-.47,3.17,3.17,0,0,1-1.3-1.34A4.42,4.42,0,0,1,65,18.71a4.5,4.5,0,0,1,.45-2.06,3.41,3.41,0,0,1,1.25-1.38,3.46,3.46,0,0,1,1.85-.49,3.2,3.2,0,0,1,1.73.44,2.8,2.8,0,0,1,1.1,1.27,4.6,4.6,0,0,1,.38,2v.22H66V17.9h5l-.39.55a3.14,3.14,0,0,0-.51-2,1.91,1.91,0,0,0-1.6-.71,2.11,2.11,0,0,0-1.72.77,3.36,3.36,0,0,0-.62,2.14,3.32,3.32,0,0,0,.65,2.22,2.4,2.4,0,0,0,1.91.75A3.61,3.61,0,0,0,70,21.38a3.77,3.77,0,0,0,1.16-.66Z"/><path class="cls-14" d="M73.57,25.74V17.07c0-.35,0-.7,0-1.06s0-.7-.1-1.05H74.6l.14,1.56-.12.22a2.5,2.5,0,0,1,1-1.45,2.93,2.93,0,0,1,1.74-.51,3.12,3.12,0,0,1,1.75.49,3.35,3.35,0,0,1,1.19,1.38,4.78,4.78,0,0,1,.42,2.07,4.7,4.7,0,0,1-.42,2.06,3.13,3.13,0,0,1-2.94,1.83,2.93,2.93,0,0,1-1.74-.51,2.52,2.52,0,0,1-1-1.46l.16-.15v5.25Zm3.54-4.14a2.09,2.09,0,0,0,1.71-.75,3.28,3.28,0,0,0,.61-2.13,3.36,3.36,0,0,0-.61-2.15,2,2,0,0,0-1.71-.77,2.09,2.09,0,0,0-1.73.75,3.35,3.35,0,0,0-.6,2.14,3.38,3.38,0,0,0,.6,2.15A2.07,2.07,0,0,0,77.11,21.6Z"/><path class="cls-14" d="M82.57,25.74V17.07c0-.35,0-.7,0-1.06s0-.7-.1-1.05H83.6l.14,1.56-.12.22a2.5,2.5,0,0,1,1-1.45,2.93,2.93,0,0,1,1.74-.51,3.12,3.12,0,0,1,1.75.49,3.35,3.35,0,0,1,1.19,1.38,4.78,4.78,0,0,1,.42,2.07,4.7,4.7,0,0,1-.42,2.06,3.13,3.13,0,0,1-2.94,1.83,2.93,2.93,0,0,1-1.74-.51,2.52,2.52,0,0,1-1-1.46l.16-.15v5.25Zm3.54-4.14a2.09,2.09,0,0,0,1.71-.75,3.28,3.28,0,0,0,.61-2.13,3.36,3.36,0,0,0-.61-2.15,2,2,0,0,0-1.71-.77,2.09,2.09,0,0,0-1.73.75,3.35,3.35,0,0,0-.6,2.14,3.38,3.38,0,0,0,.6,2.15A2.07,2.07,0,0,0,86.11,21.6Z"/><path class="cls-14" d="M97.75,21.6a3.49,3.49,0,0,1-1.27.74,4.73,4.73,0,0,1-1.58.27,4.16,4.16,0,0,1-2-.47,3.17,3.17,0,0,1-1.3-1.34,4.42,4.42,0,0,1-.46-2.09,4.5,4.5,0,0,1,.45-2.06,3.41,3.41,0,0,1,1.25-1.38,3.46,3.46,0,0,1,1.85-.49,3.2,3.2,0,0,1,1.73.44,2.8,2.8,0,0,1,1.1,1.27,4.6,4.6,0,0,1,.38,2v.22h-5.7V17.9h5l-.39.55a3.14,3.14,0,0,0-.51-2,1.91,1.91,0,0,0-1.6-.71,2.11,2.11,0,0,0-1.72.77,3.36,3.36,0,0,0-.62,2.14A3.32,3.32,0,0,0,93,20.85a2.4,2.4,0,0,0,1.91.75,3.61,3.61,0,0,0,1.27-.22,3.77,3.77,0,0,0,1.16-.66Z"/><path class="cls-14" d="M99.73,22.5V17.07c0-.35,0-.7,0-1.06s0-.7-.1-1.05h1.15l.17,1.86-.17-.05a2.36,2.36,0,0,1,.91-1.49,2.6,2.6,0,0,1,1.57-.5,2.23,2.23,0,0,1,.37,0,1.65,1.65,0,0,1,.32.07l0,1.11a2.45,2.45,0,0,0-.8-.12,1.92,1.92,0,0,0-1.94,1.22,3,3,0,0,0-.22,1.12v4.3Z"/></g><g class="cls-13"><rect class="cls-14" x="106.93" y="10" width="99.82" height="16" rx="4"/></g><g class="cls-15"><path class="cls-16" d="M113.25,22.5V11.82h1l4.34,9.86H118l4.29-9.86h1V22.5h-1.14V13.44l.46.06-3.93,9h-.87l-4-9,.5-.06V22.5Z"/><path class="cls-16" d="M128.24,22.89,124.85,15h1.27l2.73,6.66Zm-2.76,3-.26-.95a7,7,0,0,0,1.17-.38,2.56,2.56,0,0,0,.79-.56,3,3,0,0,0,.56-.92l.48-1.11.27-.37L131.25,15h1.22l-3.53,8.23a5.15,5.15,0,0,1-.91,1.46,3.44,3.44,0,0,1-1.15.84A5.87,5.87,0,0,1,125.48,25.91Z"/><path class="cls-16" d="M137.34,22.62a8.32,8.32,0,0,1-1.54-.14,5.71,5.71,0,0,1-1.34-.45,5.07,5.07,0,0,1-1.11-.76l.47-.94a5.24,5.24,0,0,0,1.63,1,5.78,5.78,0,0,0,1.91.28,3.41,3.41,0,0,0,2-.5,1.65,1.65,0,0,0,.7-1.42,1.15,1.15,0,0,0-.35-.89,2.33,2.33,0,0,0-1-.54,13.81,13.81,0,0,0-1.37-.38,14.77,14.77,0,0,1-1.46-.39,5.24,5.24,0,0,1-1.22-.54,2.47,2.47,0,0,1-.83-.84,2.5,2.5,0,0,1-.3-1.28,2.76,2.76,0,0,1,.48-1.61,3.13,3.13,0,0,1,1.35-1.09,5,5,0,0,1,2.05-.39,5.92,5.92,0,0,1,1.41.16,5.26,5.26,0,0,1,1.26.46,4.4,4.4,0,0,1,1,.73l-.48.95a5.07,5.07,0,0,0-1.51-.95,4.71,4.71,0,0,0-1.7-.3,3.2,3.2,0,0,0-2,.53,1.72,1.72,0,0,0-.7,1.47,1.37,1.37,0,0,0,.31.94,2.26,2.26,0,0,0,.89.58,12,12,0,0,0,1.3.4q.78.18,1.5.39a6.94,6.94,0,0,1,1.29.51,2.55,2.55,0,0,1,.89.8,2.16,2.16,0,0,1,.33,1.24,2.67,2.67,0,0,1-.48,1.59,3.13,3.13,0,0,1-1.37,1.05A5.36,5.36,0,0,1,137.34,22.62Z"/><path class="cls-16" d="M142,15.92V15h4.84v1Zm4.81,5.5v1a4.48,4.48,0,0,1-.5.11,4.43,4.43,0,0,1-.55,0,2.31,2.31,0,0,1-1.67-.6,2.41,2.41,0,0,1-.62-1.8V13l1.21-.43V20a2,2,0,0,0,.18.93,1,1,0,0,0,.47.46,1.78,1.78,0,0,0,.67.13,2.54,2.54,0,0,0,.41,0A2.73,2.73,0,0,0,146.85,21.42Z"/><path class="cls-16" d="M154.53,21.6a3.53,3.53,0,0,1-1.26.74,4.83,4.83,0,0,1-1.59.27,4.09,4.09,0,0,1-2-.47,3.19,3.19,0,0,1-1.31-1.34,4.54,4.54,0,0,1-.46-2.09,4.5,4.5,0,0,1,.45-2.06,3.37,3.37,0,0,1,1.26-1.38,3.43,3.43,0,0,1,1.85-.49,3.17,3.17,0,0,1,1.72.44,2.88,2.88,0,0,1,1.11,1.27,4.76,4.76,0,0,1,.38,2v.22H149V17.9h5l-.39.55a3.08,3.08,0,0,0-.52-2,1.9,1.9,0,0,0-1.6-.71,2.11,2.11,0,0,0-1.72.77,3.36,3.36,0,0,0-.62,2.14,3.27,3.27,0,0,0,.66,2.22,2.39,2.39,0,0,0,1.91.75,3.65,3.65,0,0,0,1.27-.22,3.88,3.88,0,0,0,1.16-.66Z"/><path class="cls-16" d="M156.51,25.74V17.07c0-.35,0-.7,0-1.06a9.32,9.32,0,0,0-.1-1.05h1.16l.13,1.56-.12.22a2.51,2.51,0,0,1,1-1.45,2.93,2.93,0,0,1,1.74-.51,3.14,3.14,0,0,1,1.75.49,3.33,3.33,0,0,1,1.18,1.38,4.64,4.64,0,0,1,.43,2.07,4.57,4.57,0,0,1-.43,2.06A3.13,3.13,0,0,1,162,22.13a3.17,3.17,0,0,1-1.75.48,2.93,2.93,0,0,1-1.74-.51,2.54,2.54,0,0,1-1-1.46l.17-.15v5.25Zm3.54-4.14a2.09,2.09,0,0,0,1.71-.75,3.28,3.28,0,0,0,.62-2.13,3.36,3.36,0,0,0-.62-2.15,2,2,0,0,0-1.71-.77,2.07,2.07,0,0,0-1.72.75,3.35,3.35,0,0,0-.6,2.14,3.38,3.38,0,0,0,.6,2.15A2,2,0,0,0,160.05,21.6Z"/><path class="cls-16" d="M165.51,25.74V17.07c0-.35,0-.7,0-1.06s-.05-.7-.1-1.05h1.16l.13,1.56-.12.22a2.51,2.51,0,0,1,1-1.45,2.93,2.93,0,0,1,1.74-.51,3.14,3.14,0,0,1,1.75.49,3.4,3.4,0,0,1,1.18,1.38,4.78,4.78,0,0,1,.43,2.07,4.7,4.7,0,0,1-.43,2.06,3.13,3.13,0,0,1-2.93,1.83,2.93,2.93,0,0,1-1.74-.51,2.54,2.54,0,0,1-1-1.46l.17-.15v5.25Zm3.54-4.14a2.09,2.09,0,0,0,1.71-.75,3.28,3.28,0,0,0,.62-2.13,3.36,3.36,0,0,0-.62-2.15,2,2,0,0,0-1.71-.77,2.07,2.07,0,0,0-1.72.75,3.35,3.35,0,0,0-.6,2.14,3.38,3.38,0,0,0,.6,2.15A2,2,0,0,0,169.05,21.6Z"/><path class="cls-16" d="M180.69,21.6a3.49,3.49,0,0,1-1.27.74,4.73,4.73,0,0,1-1.58.27,4.16,4.16,0,0,1-2-.47,3.17,3.17,0,0,1-1.3-1.34,4.42,4.42,0,0,1-.46-2.09,4.5,4.5,0,0,1,.45-2.06,3.41,3.41,0,0,1,1.25-1.38,3.49,3.49,0,0,1,1.86-.49,3.17,3.17,0,0,1,1.72.44,2.8,2.8,0,0,1,1.1,1.27,4.6,4.6,0,0,1,.39,2v.22h-5.7V17.9h5l-.39.55a3.14,3.14,0,0,0-.52-2,1.91,1.91,0,0,0-1.6-.71,2.11,2.11,0,0,0-1.72.77,3.36,3.36,0,0,0-.62,2.14,3.32,3.32,0,0,0,.65,2.22,2.42,2.42,0,0,0,1.92.75,3.65,3.65,0,0,0,1.27-.22,3.88,3.88,0,0,0,1.16-.66Z"/><path class="cls-16" d="M182.67,22.5V17.07c0-.35,0-.7,0-1.06s-.05-.7-.1-1.05h1.16l.16,1.86-.16-.05a2.35,2.35,0,0,1,.9-1.49,2.6,2.6,0,0,1,1.57-.5,2.17,2.17,0,0,1,.37,0,1.65,1.65,0,0,1,.32.07l0,1.11a2.39,2.39,0,0,0-.79-.12,2.06,2.06,0,0,0-1.25.34,1.92,1.92,0,0,0-.69.88,2.83,2.83,0,0,0-.22,1.12v4.3Z"/></g><g class="cls-15"><path class="cls-14" d="M271.07,22.61a4.4,4.4,0,0,1-3-1l.4-.9a4.11,4.11,0,0,0,1.24.68,4.23,4.23,0,0,0,1.42.22,2.37,2.37,0,0,0,1.29-.29,1,1,0,0,0,.45-.85.92.92,0,0,0-.3-.71,2.3,2.3,0,0,0-1-.43l-1.28-.3a2.78,2.78,0,0,1-1.46-.75,1.78,1.78,0,0,1-.52-1.29,1.93,1.93,0,0,1,.36-1.16,2.37,2.37,0,0,1,1-.79,3.73,3.73,0,0,1,1.53-.28,4.46,4.46,0,0,1,1.5.25,3.25,3.25,0,0,1,1.18.74l-.41.88a3.87,3.87,0,0,0-1.1-.67,3.28,3.28,0,0,0-1.17-.21,2.17,2.17,0,0,0-1.26.31,1,1,0,0,0-.44.86,1,1,0,0,0,.28.73,1.89,1.89,0,0,0,.89.42l1.28.32a2.92,2.92,0,0,1,1.56.74,1.78,1.78,0,0,1,.51,1.31,1.85,1.85,0,0,1-.8,1.56A3.57,3.57,0,0,1,271.07,22.61Z"/><path class="cls-14" d="M274.82,15.92V15h4.85v1Zm4.81,5.5v1a4.48,4.48,0,0,1-.5.11,4.41,4.41,0,0,1-.54,0,2.32,2.32,0,0,1-1.68-.6,2.41,2.41,0,0,1-.62-1.8V13l1.21-.43V20a2,2,0,0,0,.18.93,1,1,0,0,0,.47.46,1.78,1.78,0,0,0,.67.13,2.54,2.54,0,0,0,.41,0A2.73,2.73,0,0,0,279.63,21.42Z"/><path class="cls-14" d="M287.32,21.6a3.67,3.67,0,0,1-1.27.74,4.83,4.83,0,0,1-1.59.27,4.12,4.12,0,0,1-2-.47,3.19,3.19,0,0,1-1.31-1.34,4.54,4.54,0,0,1-.45-2.09,4.63,4.63,0,0,1,.44-2.06,3.35,3.35,0,0,1,3.11-1.87,3.17,3.17,0,0,1,1.72.44,2.88,2.88,0,0,1,1.11,1.27,4.76,4.76,0,0,1,.38,2v.22h-5.7V17.9h5l-.39.55a3.08,3.08,0,0,0-.52-2,1.9,1.9,0,0,0-1.6-.71,2.09,2.09,0,0,0-1.71.77,3.31,3.31,0,0,0-.62,2.14,3.27,3.27,0,0,0,.65,2.22,2.39,2.39,0,0,0,1.91.75,3.65,3.65,0,0,0,1.27-.22,3.88,3.88,0,0,0,1.16-.66Z"/><path class="cls-14" d="M289.3,25.74V17.07c0-.35,0-.7,0-1.06a7.46,7.46,0,0,0-.1-1.05h1.16l.13,1.56-.11.22a2.5,2.5,0,0,1,1-1.45,2.93,2.93,0,0,1,1.74-.51,3.14,3.14,0,0,1,1.75.49A3.33,3.33,0,0,1,296,16.65a4.64,4.64,0,0,1,.43,2.07,4.57,4.57,0,0,1-.43,2.06,3.11,3.11,0,0,1-1.17,1.35,3.2,3.2,0,0,1-1.76.48,2.93,2.93,0,0,1-1.74-.51,2.52,2.52,0,0,1-1-1.46l.16-.15v5.25Zm3.54-4.14a2.1,2.1,0,0,0,1.71-.75,3.28,3.28,0,0,0,.61-2.13,3.36,3.36,0,0,0-.61-2.15,2.06,2.06,0,0,0-1.71-.77,2.09,2.09,0,0,0-1.73.75,3.35,3.35,0,0,0-.6,2.14,3.38,3.38,0,0,0,.6,2.15A2.07,2.07,0,0,0,292.84,21.6Z"/><path class="cls-14" d="M300.84,22.61a4.4,4.4,0,0,1-3-1l.4-.9a4.23,4.23,0,0,0,1.24.68,4.27,4.27,0,0,0,1.42.22,2.43,2.43,0,0,0,1.3-.29,1,1,0,0,0,.44-.85.89.89,0,0,0-.3-.71,2.3,2.3,0,0,0-1-.43l-1.28-.3a2.82,2.82,0,0,1-1.46-.75,1.82,1.82,0,0,1-.52-1.29,1.93,1.93,0,0,1,.36-1.16,2.37,2.37,0,0,1,1-.79,3.77,3.77,0,0,1,1.53-.28,4.37,4.37,0,0,1,1.5.25,3.16,3.16,0,0,1,1.18.74l-.4.88a4.17,4.17,0,0,0-1.1-.67,3.37,3.37,0,0,0-1.18-.21,2.12,2.12,0,0,0-1.25.31,1,1,0,0,0-.45.86,1,1,0,0,0,.28.73,1.94,1.94,0,0,0,.89.42l1.28.32a3,3,0,0,1,1.57.74,1.81,1.81,0,0,1,.5,1.31A1.85,1.85,0,0,1,303,22,3.57,3.57,0,0,1,300.84,22.61Z"/></g><polygon class="cls-16" points="197.77 22.31 202.75 13.69 192.79 13.69 197.77 22.31"/></g></g></svg>