<svg xmlns="http://www.w3.org/2000/svg" viewBox="0 0 595.4 26"><defs><style>.cls-1,.cls-4{fill:none;}.cls-2{fill:#167b9e;}.cls-3{fill:#1398c4;}.cls-4{stroke:#5eb7d6;}.cls-14,.cls-5{isolation:isolate;}.cls-5{font-size:15px;font-family:Mulish-Regular, Mulish;}.cls-13,.cls-5{fill:#fff;}.cls-6{letter-spacing:0em;}.cls-7{letter-spacing:0em;}.cls-8{letter-spacing:-0.01em;}.cls-9{letter-spacing:0em;}.cls-10{letter-spacing:0em;}.cls-11{letter-spacing:0em;}.cls-12{opacity:0.6;}.cls-15{fill:#010101;}.cls-16{letter-spacing:-0.01em;}</style></defs><g id="Layer_2" data-name="Layer 2"><g id="Layer_1-2" data-name="Layer 1"><rect class="cls-1" x="0.12" width="595.28" height="18"/><path class="cls-2" d="M9.12,1H312.35V26H9.12V21c0-10-8,8-8-7.5s8,2.5,8-7.5Z"/><path class="cls-3" d="M8.12,0H311.35V25H8.12V20c0-10-8,8-8-7.5s8,2.5,8-7.5Z"/><path class="cls-4" d="M8.62.5h19m0,0H310.85M8.62,24.5v-6M1.26,18a20.35,20.35,0,0,1,0-11M8.62,8V.5h.5"/><text class="cls-5" transform="translate(18.12 17.5)">d<tspan class="cls-6" x="9" y="0">e</tspan><tspan x="17.11" y="0">te</tspan><tspan class="cls-7" x="30.52" y="0">c</tspan><tspan x="37.96" y="0">t f</tspan><tspan class="cls-8" x="52.18" y="0">r</tspan><tspan class="cls-9" x="57.46" y="0">ee </tspan><tspan class="cls-10" x="77.7" y="0">f</tspan><tspan class="cls-11" x="82.68" y="0">all</tspan></text><text class="cls-5" transform="translate(124.75 17.5)">th<tspan class="cls-8" x="14.02" y="0">r</tspan><tspan class="cls-9" x="19.3" y="0">eshold</tspan></text><g class="cls-12"><rect class="cls-13" x="193.14" y="5" width="27.6" height="16" rx="4"/></g><g class="cls-14"><path class="cls-15" d="M200.06,17.5v-1H206v1Zm2.35-.55V7.54l.71.36-2.9,1.85V8.56L203,6.82h.71V17Z"/><path class="cls-15" d="M210.15,17.5h-1.32l5.24-10.14.1.5h-6.06v-1h7v.92Z"/></g><text class="cls-5" transform="translate(225.74 17.5)">du<tspan class="cls-16" x="17.65" y="0">r</tspan><tspan class="cls-11" x="22.94" y="0">ation</tspan></text><g class="cls-12"><rect class="cls-13" x="287.55" y="5" width="18.8" height="16" rx="4"/></g><g class="cls-14"><path class="cls-15" d="M293.8,17.5v-.93l3.73-4.14a7.53,7.53,0,0,0,1.1-1.51A3,3,0,0,0,299,9.57a1.74,1.74,0,0,0-.51-1.36A2,2,0,0,0,297,7.74a4.09,4.09,0,0,0-1.53.3A6.07,6.07,0,0,0,294,9L293.51,8a4.63,4.63,0,0,1,1.59-1A5.5,5.5,0,0,1,297,6.7a3.86,3.86,0,0,1,1.69.34,2.58,2.58,0,0,1,1.1,1,2.79,2.79,0,0,1,.39,1.5,4.06,4.06,0,0,1-.41,1.77,9,9,0,0,1-1.38,1.9l-3.6,3.9-.09-.61h5.93v1Z"/></g></g></g></svg>