<svg xmlns="http://www.w3.org/2000/svg" viewBox="0 0 595.39 83.72"><defs><style>.cls-1{fill:none;}.cls-2{fill:#167b9e;}.cls-3{fill:#1398c4;}.cls-4{fill:#5eb7d6;}.cls-5{isolation:isolate;}.cls-6{fill:#fff;}.cls-7{opacity:0.6;}.cls-8{fill:#010101;}.cls-9{fill:#a6cde2;}</style></defs><g id="Layer_2" data-name="Layer 2"><g id="Layer_1-2" data-name="Layer 1"><rect class="cls-1" x="0.12" width="595.28" height="18"/><path class="cls-2" d="M9.12,1H204V26H9.12V21c0-10-8,8-8-7.5s8,2.5,8-7.5Z"/><path class="cls-3" d="M8.12,0H203V25H8.12V20c0-10-8,8-8-7.5s8,2.5,8-7.5Z"/><path class="cls-4" d="M9.12,24.5h-1v-6h1ZM.77,18.13a20.9,20.9,0,0,1,0-11.26l1,.26a19.79,19.79,0,0,0,0,10.74ZM9.12,8h-1V0H202.53V1H9.12Z"/><g class="cls-5"><path class="cls-6" d="M22.6,20.84a5.61,5.61,0,0,1-3-.77l.21-1a6.55,6.55,0,0,0,1.34.58,5.15,5.15,0,0,0,1.42.18,2.16,2.16,0,0,0,1.64-.58,2.35,2.35,0,0,0,.57-1.72v-2l.16-.19a2.82,2.82,0,0,1-.56,1,2.58,2.58,0,0,1-.94.69,3.15,3.15,0,0,1-1.26.24,3.21,3.21,0,0,1-2.95-1.79,4.32,4.32,0,0,1-.42-2,4.36,4.36,0,0,1,.42-2,3.18,3.18,0,0,1,2.95-1.78,3,3,0,0,1,1.78.51,2.58,2.58,0,0,1,1,1.45l-.18-.16V10H26v7.48A3.42,3.42,0,0,1,25.14,20,3.45,3.45,0,0,1,22.6,20.84Zm-.15-4.59a2.16,2.16,0,0,0,1.72-.72,3,3,0,0,0,.62-2,3,3,0,0,0-.62-2,2.17,2.17,0,0,0-1.72-.73,2.23,2.23,0,0,0-1.75.73,3,3,0,0,0-.63,2,3,3,0,0,0,.63,2A2.25,2.25,0,0,0,22.45,16.25Z"/><path class="cls-6" d="M34.53,16.6a3.42,3.42,0,0,1-1.27.73,4.78,4.78,0,0,1-1.58.28,4.13,4.13,0,0,1-2-.47,3.19,3.19,0,0,1-1.31-1.34,4.57,4.57,0,0,1-.45-2.09,4.47,4.47,0,0,1,.45-2.06,3.34,3.34,0,0,1,1.25-1.38,3.43,3.43,0,0,1,1.85-.49,3.2,3.2,0,0,1,1.73.44,2.86,2.86,0,0,1,1.1,1.27,4.74,4.74,0,0,1,.38,2v.23H29v-.8h5l-.39.56a3.13,3.13,0,0,0-.52-2,1.9,1.9,0,0,0-1.59-.7,2.1,2.1,0,0,0-1.72.77,3.31,3.31,0,0,0-.62,2.14,3.27,3.27,0,0,0,.65,2.22,2.39,2.39,0,0,0,1.91.75A3.65,3.65,0,0,0,33,16.38a3.92,3.92,0,0,0,1.16-.67Z"/><path class="cls-6" d="M35.4,10.92V10h4.84v1Zm4.81,5.5v1l-.5.11a4.58,4.58,0,0,1-.55,0A2.26,2.26,0,0,1,37.49,17a2.35,2.35,0,0,1-.62-1.79V8l1.21-.44V15a2.11,2.11,0,0,0,.17.93,1,1,0,0,0,.48.46,1.78,1.78,0,0,0,.67.12l.41,0Z"/><path class="cls-6" d="M45.78,17.5V6.82H47V17.5Z"/><path class="cls-6" d="M49.65,17.5V6.82h1L55,16.67h-.57l4.29-9.85h1V17.5H58.6V8.44l.47.06-3.93,9h-.87l-4-9,.49-.06,0,9.06Z"/><path class="cls-6" d="M66.55,17.62a4.24,4.24,0,0,1-3.16-1.09,4.36,4.36,0,0,1-1.08-3.21V6.82h1.21v6.6a3.25,3.25,0,0,0,.77,2.36,3.6,3.6,0,0,0,4.5,0,3.28,3.28,0,0,0,.76-2.36V6.82h1.23v6.5a4.42,4.42,0,0,1-1.08,3.21A4.27,4.27,0,0,1,66.55,17.62Z"/><path class="cls-6" d="M80,17.61a3.26,3.26,0,0,1-1.77-.48,3.11,3.11,0,0,1-1.17-1.35,4.85,4.85,0,0,1-.41-2.06,4.78,4.78,0,0,1,.42-2.07,3.26,3.26,0,0,1,1.18-1.38A3.12,3.12,0,0,1,80,9.78a2.94,2.94,0,0,1,1.75.51,2.48,2.48,0,0,1,1,1.45l-.18.12V10h1.2V17.5h-1.2V15.55l.18.09a2.51,2.51,0,0,1-1,1.45A2.88,2.88,0,0,1,80,17.61Zm.24-1A2,2,0,0,0,82,15.84a3.38,3.38,0,0,0,.6-2.15A3.38,3.38,0,0,0,82,11.54a2.07,2.07,0,0,0-1.7-.75,2.11,2.11,0,0,0-1.74.78,3.36,3.36,0,0,0-.62,2.15,3.28,3.28,0,0,0,.62,2.13A2.15,2.15,0,0,0,80.25,16.6Z"/><path class="cls-6" d="M89.28,17.61a3.61,3.61,0,0,1-1.92-.49,3.26,3.26,0,0,1-1.26-1.34,4.57,4.57,0,0,1-.44-2.06,4.5,4.5,0,0,1,.45-2.06,3.31,3.31,0,0,1,1.28-1.39,3.72,3.72,0,0,1,2-.49,4.07,4.07,0,0,1,1.47.26,3.22,3.22,0,0,1,1.18.72l-.4.91A5,5,0,0,0,90.5,11a3,3,0,0,0-1.1-.22,2.28,2.28,0,0,0-1.81.77,3.16,3.16,0,0,0-.67,2.16,3.12,3.12,0,0,0,.66,2.13,2.3,2.3,0,0,0,1.82.75,2.79,2.79,0,0,0,1.09-.22,4.4,4.4,0,0,0,1.1-.65l.4.9a3.34,3.34,0,0,1-1.21.71A4.24,4.24,0,0,1,89.28,17.61Z"/><path class="cls-6" d="M96.7,17.61a3.61,3.61,0,0,1-1.92-.49,3.18,3.18,0,0,1-1.25-1.34,4.44,4.44,0,0,1-.44-2.06,4.5,4.5,0,0,1,.45-2.06,3.29,3.29,0,0,1,1.27-1.39,3.72,3.72,0,0,1,2-.49,4.16,4.16,0,0,1,1.48.26,3.31,3.31,0,0,1,1.18.72l-.41.91A4.73,4.73,0,0,0,97.92,11a3,3,0,0,0-1.1-.22,2.29,2.29,0,0,0-1.81.77,3.21,3.21,0,0,0-.66,2.16A3.12,3.12,0,0,0,95,15.85a2.28,2.28,0,0,0,1.81.75,2.84,2.84,0,0,0,1.1-.22A4.35,4.35,0,0,0,99,15.73l.41.9a3.43,3.43,0,0,1-1.21.71A4.33,4.33,0,0,1,96.7,17.61Z"/><path class="cls-6" d="M107.14,16.6a3.34,3.34,0,0,1-1.27.73,4.74,4.74,0,0,1-1.58.28,4.16,4.16,0,0,1-2-.47A3.17,3.17,0,0,1,101,15.8a4.44,4.44,0,0,1-.46-2.09,4.47,4.47,0,0,1,.45-2.06,3.41,3.41,0,0,1,1.25-1.38,3.49,3.49,0,0,1,1.86-.49,3.17,3.17,0,0,1,1.72.44,2.8,2.8,0,0,1,1.1,1.27,4.58,4.58,0,0,1,.39,2v.23h-5.7v-.8h5l-.39.56a3.19,3.19,0,0,0-.52-2,1.94,1.94,0,0,0-1.6-.7,2.11,2.11,0,0,0-1.72.77,3.36,3.36,0,0,0-.62,2.14,3.32,3.32,0,0,0,.65,2.22,2.42,2.42,0,0,0,1.92.75,3.56,3.56,0,0,0,1.26-.22,3.84,3.84,0,0,0,1.17-.67Z"/><path class="cls-6" d="M109.12,17.5v-11h1.22v11Z"/><path class="cls-6" d="M118.87,16.6a3.34,3.34,0,0,1-1.27.73,4.74,4.74,0,0,1-1.58.28,4.16,4.16,0,0,1-2-.47,3.17,3.17,0,0,1-1.3-1.34,4.44,4.44,0,0,1-.46-2.09,4.47,4.47,0,0,1,.45-2.06,3.41,3.41,0,0,1,1.25-1.38,3.47,3.47,0,0,1,1.86-.49,3.17,3.17,0,0,1,1.72.44,2.8,2.8,0,0,1,1.1,1.27,4.58,4.58,0,0,1,.39,2v.23h-5.7v-.8h5l-.39.56a3.19,3.19,0,0,0-.52-2,1.94,1.94,0,0,0-1.6-.7,2.11,2.11,0,0,0-1.72.77,3.36,3.36,0,0,0-.62,2.14,3.32,3.32,0,0,0,.65,2.22,2.42,2.42,0,0,0,1.92.75,3.56,3.56,0,0,0,1.26-.22,4,4,0,0,0,1.17-.67Z"/><path class="cls-6" d="M120.85,17.5V12.07c0-.35,0-.7,0-1.06s0-.71-.1-1h1.16l.16,1.86-.16-.05a2.35,2.35,0,0,1,.9-1.49,2.6,2.6,0,0,1,1.57-.5,2.23,2.23,0,0,1,.37,0,1.14,1.14,0,0,1,.32.07l0,1.1a2.69,2.69,0,0,0-.79-.11,2.11,2.11,0,0,0-1.26.34,2.06,2.06,0,0,0-.69.88,3,3,0,0,0-.21,1.12v4.3Z"/><path class="cls-6" d="M129,17.61a3.26,3.26,0,0,1-1.77-.48,3.11,3.11,0,0,1-1.17-1.35,4.85,4.85,0,0,1-.41-2.06,4.78,4.78,0,0,1,.42-2.07,3.26,3.26,0,0,1,1.18-1.38A3.09,3.09,0,0,1,129,9.78a2.94,2.94,0,0,1,1.75.51,2.48,2.48,0,0,1,1,1.45l-.18.12V10h1.2V17.5h-1.2V15.55l.18.09a2.51,2.51,0,0,1-1,1.45A2.88,2.88,0,0,1,129,17.61Zm.24-1a2.06,2.06,0,0,0,1.71-.76,3.38,3.38,0,0,0,.6-2.15,3.38,3.38,0,0,0-.61-2.15,2.08,2.08,0,0,0-1.7-.75,2.11,2.11,0,0,0-1.74.78,3.36,3.36,0,0,0-.62,2.15,3.28,3.28,0,0,0,.62,2.13A2.15,2.15,0,0,0,129.27,16.6Z"/><path class="cls-6" d="M134.07,10.92V10h4.84v1Zm4.81,5.5v1l-.5.11a4.58,4.58,0,0,1-.55,0,2.26,2.26,0,0,1-1.67-.61,2.35,2.35,0,0,1-.62-1.79V8l1.21-.44V15a2.11,2.11,0,0,0,.17.93,1,1,0,0,0,.48.46,1.74,1.74,0,0,0,.67.12l.41,0Z"/><path class="cls-6" d="M140.26,6.76h1.49V8.14h-1.49Zm.12,10.74V10h1.21V17.5Z"/><path class="cls-6" d="M147.07,17.61a3.49,3.49,0,0,1-1.88-.49,3.26,3.26,0,0,1-1.25-1.35,4.65,4.65,0,0,1-.44-2.08,4.64,4.64,0,0,1,.44-2.07,3.32,3.32,0,0,1,1.25-1.37,4,4,0,0,1,3.76,0,3.32,3.32,0,0,1,1.25,1.37,4.64,4.64,0,0,1,.44,2.07,4.65,4.65,0,0,1-.44,2.08A3.26,3.26,0,0,1,149,17.12,3.49,3.49,0,0,1,147.07,17.61Zm0-1a2.12,2.12,0,0,0,1.72-.74,3.4,3.4,0,0,0,.61-2.17,3.32,3.32,0,0,0-.62-2.15,2.09,2.09,0,0,0-1.71-.75,2.12,2.12,0,0,0-1.72.75,3.32,3.32,0,0,0-.62,2.15,3.34,3.34,0,0,0,.61,2.17A2.11,2.11,0,0,0,147.07,16.6Z"/><path class="cls-6" d="M152.53,17.5V12.07c0-.35,0-.7,0-1.06s0-.71-.1-1h1.15l.14,1.55-.15.12a2.59,2.59,0,0,1,1-1.38,3,3,0,0,1,1.69-.47c1.81,0,2.72,1,2.72,3V17.5h-1.22V12.82a2.34,2.34,0,0,0-.42-1.54,1.67,1.67,0,0,0-1.32-.49,2.24,2.24,0,0,0-1.68.65,2.38,2.38,0,0,0-.63,1.74V17.5Z"/></g><g class="cls-7"><rect class="cls-6" x="162" y="5" width="36.03" height="16" rx="4"/></g><g class="cls-5"><path class="cls-8" d="M168.59,17.5h-1.47L171.19,12l.72-.92L175,6.82h1.45L172.6,12l-.71.93Zm6.62,0L171.89,13l-.7-.94-3.87-5.21h1.47l3.12,4.29.69.93,4.06,5.46Z"/></g><polygon class="cls-8" points="189.06 17.31 194.03 8.69 184.08 8.69 189.06 17.31"/><rect class="cls-9" x="162" y="31.69" width="35.55" height="52.03" rx="5.67"/><g class="cls-5"><path class="cls-8" d="M168,44.56h-1.47l4.07-5.47.72-.92,3.12-4.29h1.45L172,39.1l-.71.93Zm6.62,0L171.29,40l-.7-.94-3.87-5.21h1.47l3.12,4.29.69.93,4.06,5.46Z"/><path class="cls-8" d="M170.33,62.56v-4.8l.27.87-4.47-6.75h1.44l3.6,5.58h-.42l3.6-5.58h1.41l-4.45,6.75.25-.87v4.8Z"/><path class="cls-8" d="M167.08,80.56v-.91l6.55-9.36,0,.63h-6.52v-1h7.54v.9l-6.55,9.38,0-.63h6.67v1Z"/></g><polygon class="cls-8" points="189.06 44.38 194.03 35.75 184.08 35.75 189.06 44.38"/></g></g></svg>