<svg xmlns="http://www.w3.org/2000/svg" viewBox="0 0 595.4 26"><defs><style>.cls-1,.cls-4{fill:none;}.cls-2{fill:#167b9e;}.cls-3{fill:#1398c4;}.cls-4{stroke:#5eb7d6;}.cls-13,.cls-5{isolation:isolate;}.cls-5{font-size:15px;font-family:Mulish-Regular, Mulish;}.cls-12,.cls-5{fill:#fff;}.cls-6{letter-spacing:0em;}.cls-7{letter-spacing:0em;}.cls-8{letter-spacing:0em;}.cls-9{letter-spacing:-0.01em;}.cls-10{letter-spacing:0em;}.cls-11{opacity:0.6;}.cls-14{fill:#010101;}.cls-15{letter-spacing:-0.01em;}.cls-16{letter-spacing:0em;}</style></defs><g id="Layer_2" data-name="Layer 2"><g id="Layer_1-2" data-name="Layer 1"><rect class="cls-1" x="0.12" width="595.28" height="18"/><path class="cls-2" d="M9.12,1H299.85V26H9.12V21c0-10-8,8-8-7.5s8,2.5,8-7.5Z"/><path class="cls-3" d="M8.12,0H298.85V25H8.12V20c0-10-8,8-8-7.5s8,2.5,8-7.5Z"/><path class="cls-4" d="M8.62.5h19m0,0H298.35M8.62,24.5v-6M1.26,18a20.35,20.35,0,0,1,0-11M8.62,8V.5h.5"/><text class="cls-5" transform="translate(18.12 17.5)">d<tspan class="cls-6" x="9" y="0">e</tspan><tspan x="17.11" y="0">te</tspan><tspan class="cls-7" x="30.52" y="0">c</tspan><tspan x="37.96" y="0">t m</tspan><tspan class="cls-8" x="60.31" y="0">o</tspan><tspan x="68.88" y="0">tion</tspan></text><text class="cls-5" transform="translate(121.05 17.5)">th<tspan class="cls-9" x="14.02" y="0">r</tspan><tspan class="cls-10" x="19.3" y="0">eshold</tspan></text><g class="cls-11"><rect class="cls-12" x="189.44" y="5" width="18.8" height="16" rx="4"/></g><g class="cls-13"><path class="cls-14" d="M199.1,17.61a5.35,5.35,0,0,1-1.92-.36,4.51,4.51,0,0,1-1.59-1l.47-.95a5.64,5.64,0,0,0,1.49.91,3.81,3.81,0,0,0,1.55.32,2.35,2.35,0,0,0,1.76-.64,2.31,2.31,0,0,0,.64-1.73,2.61,2.61,0,0,0-.28-1.24,2.09,2.09,0,0,0-.81-.83,2.37,2.37,0,0,0-1.22-.3,2.89,2.89,0,0,0-2.44,1.24h-.86V6.82h6.41v1h-5.18v4.32l-.39,0a2.94,2.94,0,0,1,1.12-1,3.35,3.35,0,0,1,1.54-.34,3.56,3.56,0,0,1,1.77.42,2.93,2.93,0,0,1,1.15,1.19,3.76,3.76,0,0,1,.41,1.77,3.44,3.44,0,0,1-.45,1.78A3,3,0,0,1,201,17.17,4,4,0,0,1,199.1,17.61Z"/></g><text class="cls-5" transform="translate(213.24 17.5)">du<tspan class="cls-15" x="17.65" y="0">r</tspan><tspan class="cls-16" x="22.94" y="0">ation</tspan></text><g class="cls-11"><rect class="cls-12" x="275.05" y="5" width="18.8" height="16" rx="4"/></g><g class="cls-13"><path class="cls-14" d="M281.3,17.5v-.93L285,12.43a7.29,7.29,0,0,0,1.1-1.52,2.91,2.91,0,0,0,.34-1.35A1.75,1.75,0,0,0,286,8.21a2,2,0,0,0-1.45-.48A4.1,4.1,0,0,0,283,8a6.13,6.13,0,0,0-1.5.93L281,8a4.63,4.63,0,0,1,1.59-1,5.5,5.5,0,0,1,1.94-.36,3.86,3.86,0,0,1,1.69.34,2.51,2.51,0,0,1,1.1,1,2.79,2.79,0,0,1,.39,1.5,4.06,4.06,0,0,1-.41,1.77,8.48,8.48,0,0,1-1.38,1.89l-3.6,3.9-.09-.59h5.93v1Z"/></g></g></g></svg>