<svg xmlns="http://www.w3.org/2000/svg" viewBox="0 0 595.39 87.69"><defs><style>.cls-1{fill:none;}.cls-2{fill:#167b9e;}.cls-3{fill:#1398c4;}.cls-4{fill:#5eb7d6;}.cls-5{isolation:isolate;}.cls-6{fill:#fff;}.cls-7{opacity:0.6;}.cls-8{fill:#010101;}.cls-9{fill:#a6cde2;}</style></defs><g id="Layer_2" data-name="Layer 2"><g id="Layer_1-2" data-name="Layer 1"><rect class="cls-1" x="0.12" width="595.28" height="18"/><path class="cls-2" d="M9.12,1H128.8V26H9.12V21c0-10-8,8-8-7.5s8,2.5,8-7.5Z"/><path class="cls-3" d="M8.12,0H127.8V25H8.12V20c0-10-8,8-8-7.5s8,2.5,8-7.5Z"/><path class="cls-4" d="M9.12,24.5h-1v-6h1ZM.77,18.13a20.9,20.9,0,0,1,0-11.26l1,.26a19.79,19.79,0,0,0,0,10.74ZM9.12,8h-1V0H127.3V1H9.12Z"/><g class="cls-5"><path class="cls-6" d="M22.6,20.84a5.61,5.61,0,0,1-3-.77l.21-1a6.55,6.55,0,0,0,1.34.58,5.15,5.15,0,0,0,1.42.18,2.16,2.16,0,0,0,1.64-.58,2.35,2.35,0,0,0,.57-1.72v-2l.16-.19a2.82,2.82,0,0,1-.56,1,2.58,2.58,0,0,1-.94.69,3.15,3.15,0,0,1-1.26.24,3.21,3.21,0,0,1-2.95-1.79,4.32,4.32,0,0,1-.42-2,4.36,4.36,0,0,1,.42-2,3.18,3.18,0,0,1,2.95-1.78,3,3,0,0,1,1.78.51,2.58,2.58,0,0,1,1,1.45l-.18-.16V10H26v7.48A3.42,3.42,0,0,1,25.14,20,3.45,3.45,0,0,1,22.6,20.84Zm-.15-4.59a2.16,2.16,0,0,0,1.72-.72,3,3,0,0,0,.62-2,3,3,0,0,0-.62-2,2.17,2.17,0,0,0-1.72-.73,2.23,2.23,0,0,0-1.75.73,3,3,0,0,0-.63,2,3,3,0,0,0,.63,2A2.25,2.25,0,0,0,22.45,16.25Z"/><path class="cls-6" d="M34.53,16.6a3.42,3.42,0,0,1-1.27.73,4.78,4.78,0,0,1-1.58.28,4.13,4.13,0,0,1-2-.47,3.19,3.19,0,0,1-1.31-1.34,4.57,4.57,0,0,1-.45-2.09,4.47,4.47,0,0,1,.45-2.06,3.34,3.34,0,0,1,1.25-1.38,3.43,3.43,0,0,1,1.85-.49,3.2,3.2,0,0,1,1.73.44,2.86,2.86,0,0,1,1.1,1.27,4.74,4.74,0,0,1,.38,2v.23H29v-.8h5l-.39.56a3.13,3.13,0,0,0-.52-2,1.9,1.9,0,0,0-1.59-.7,2.1,2.1,0,0,0-1.72.77,3.31,3.31,0,0,0-.62,2.14,3.27,3.27,0,0,0,.65,2.22,2.39,2.39,0,0,0,1.91.75A3.65,3.65,0,0,0,33,16.38a3.92,3.92,0,0,0,1.16-.67Z"/><path class="cls-6" d="M35.4,10.92V10h4.84v1Zm4.81,5.5v1l-.5.11a4.58,4.58,0,0,1-.55,0A2.26,2.26,0,0,1,37.49,17a2.35,2.35,0,0,1-.62-1.79V8l1.21-.44V15a2.11,2.11,0,0,0,.17.93,1,1,0,0,0,.48.46,1.78,1.78,0,0,0,.67.12l.41,0Z"/></g><g class="cls-7"><rect class="cls-6" x="45.05" y="5" width="77.75" height="16" rx="4"/></g><g class="cls-5"><path class="cls-8" d="M54.12,17.61a3.26,3.26,0,0,1-1.77-.48,3.11,3.11,0,0,1-1.17-1.35,4.85,4.85,0,0,1-.41-2.06,4.78,4.78,0,0,1,.42-2.07,3.26,3.26,0,0,1,1.18-1.38,3.12,3.12,0,0,1,1.75-.49,2.94,2.94,0,0,1,1.75.51,2.48,2.48,0,0,1,1,1.45l-.18.12V10h1.2V17.5h-1.2V15.55l.18.09a2.51,2.51,0,0,1-1,1.45A2.88,2.88,0,0,1,54.12,17.61Zm.24-1a2,2,0,0,0,1.71-.76,3.38,3.38,0,0,0,.6-2.15,3.38,3.38,0,0,0-.61-2.15,2.07,2.07,0,0,0-1.7-.75,2.11,2.11,0,0,0-1.74.78A3.36,3.36,0,0,0,52,13.72a3.28,3.28,0,0,0,.62,2.13A2.15,2.15,0,0,0,54.36,16.6Z"/><path class="cls-8" d="M60.22,17.5v-11h1.22v11Z"/><path class="cls-8" d="M62.73,10.92V10h4.84v1Zm4.81,5.5v1l-.5.11a4.58,4.58,0,0,1-.55,0A2.26,2.26,0,0,1,64.82,17a2.35,2.35,0,0,1-.62-1.79V8l1.21-.44V15a2.11,2.11,0,0,0,.17.93,1,1,0,0,0,.48.46,1.78,1.78,0,0,0,.67.12l.41,0Z"/><path class="cls-8" d="M68.92,6.76h1.49V8.14H68.92ZM69,17.5V10h1.22V17.5Z"/><path class="cls-8" d="M71.55,10.92V10h4.84v1Zm4.81,5.5v1l-.5.11a4.58,4.58,0,0,1-.55,0A2.26,2.26,0,0,1,73.64,17,2.35,2.35,0,0,1,73,15.21V8l1.21-.44V15a2.11,2.11,0,0,0,.17.93,1,1,0,0,0,.48.46,1.74,1.74,0,0,0,.67.12l.41,0Z"/><path class="cls-8" d="M80.53,17.61a2.6,2.6,0,0,1-2-.75,3.19,3.19,0,0,1-.69-2.23V10H79v4.65a2.24,2.24,0,0,0,.42,1.5,1.62,1.62,0,0,0,1.27.47,2.13,2.13,0,0,0,1.62-.64A2.41,2.41,0,0,0,83,14.21V10h1.21V17.5H83V15.87l.18-.09a2.53,2.53,0,0,1-1,1.36A2.93,2.93,0,0,1,80.53,17.61Z"/><path class="cls-8" d="M93.16,17.5H92v-2l.18.17a2.51,2.51,0,0,1-1,1.45,2.88,2.88,0,0,1-1.75.52,3.1,3.1,0,0,1-2.92-1.87,4.71,4.71,0,0,1-.42-2.08,4.66,4.66,0,0,1,.41-2.05,3.17,3.17,0,0,1,1.17-1.36,3.28,3.28,0,0,1,1.76-.47,2.94,2.94,0,0,1,1.75.51,2.58,2.58,0,0,1,1,1.45l-.19.15V6.46h1.21Zm-3.51-.9a2,2,0,0,0,1.7-.76A3.32,3.32,0,0,0,92,13.69a3.38,3.38,0,0,0-.6-2.14,2.07,2.07,0,0,0-1.71-.76,2.12,2.12,0,0,0-1.73.75,3.21,3.21,0,0,0-.62,2.12,3.36,3.36,0,0,0,.62,2.17A2.1,2.1,0,0,0,89.65,16.6Z"/><path class="cls-8" d="M101.69,16.6a3.38,3.38,0,0,1-1.26.73,4.84,4.84,0,0,1-1.59.28,4.09,4.09,0,0,1-2-.47,3.19,3.19,0,0,1-1.31-1.34,4.57,4.57,0,0,1-.46-2.09,4.47,4.47,0,0,1,.45-2.06,3.37,3.37,0,0,1,1.26-1.38,3.43,3.43,0,0,1,1.85-.49,3.17,3.17,0,0,1,1.72.44,2.88,2.88,0,0,1,1.11,1.27,4.74,4.74,0,0,1,.38,2v.23h-5.7v-.8h5l-.39.56a3.13,3.13,0,0,0-.52-2,1.92,1.92,0,0,0-1.6-.7,2.08,2.08,0,0,0-1.71.77,3.31,3.31,0,0,0-.63,2.14A3.27,3.27,0,0,0,97,15.85a2.39,2.39,0,0,0,1.91.75,3.65,3.65,0,0,0,1.27-.22,3.92,3.92,0,0,0,1.16-.67Z"/></g><polygon class="cls-8" points="113.82 17.31 118.8 8.69 108.84 8.69 113.82 17.31"/><rect class="cls-9" x="45.05" y="31.69" width="97.11" height="56" rx="5.67"/><g class="cls-5"><path class="cls-8" d="M53.52,45.76a3.28,3.28,0,0,1-1.76-.47,3.06,3.06,0,0,1-1.17-1.36,4.7,4.7,0,0,1-.42-2.06,4.78,4.78,0,0,1,.42-2.07,3.33,3.33,0,0,1,1.18-1.38,3.14,3.14,0,0,1,1.75-.49,2.94,2.94,0,0,1,1.75.51,2.51,2.51,0,0,1,1,1.45l-.18.12v-1.9h1.2v7.54h-1.2V43.7l.18.09a2.54,2.54,0,0,1-1,1.46A2.94,2.94,0,0,1,53.52,45.76Zm.24-1A2.06,2.06,0,0,0,55.47,44a3.43,3.43,0,0,0,.6-2.16,3.29,3.29,0,0,0-.61-2.14,2.06,2.06,0,0,0-1.7-.75,2.1,2.1,0,0,0-1.73.77,3.32,3.32,0,0,0-.63,2.15A3.22,3.22,0,0,0,52,44,2.12,2.12,0,0,0,53.76,44.75Z"/><path class="cls-8" d="M59.62,45.65v-11h1.22v11Z"/><path class="cls-8" d="M62.13,39.07v-1H67v1Zm4.81,5.5v1a4.48,4.48,0,0,1-.5.11,3.09,3.09,0,0,1-.55,0,2.31,2.31,0,0,1-1.67-.6,2.41,2.41,0,0,1-.62-1.8V36.17l1.21-.43v7.45a2,2,0,0,0,.18.93.91.91,0,0,0,.47.46,1.6,1.6,0,0,0,.67.13,2.54,2.54,0,0,0,.41,0A2.73,2.73,0,0,0,66.94,44.57Z"/><path class="cls-8" d="M68.32,34.91h1.49v1.38H68.32Zm.12,10.74V38.11h1.22v7.54Z"/><path class="cls-8" d="M71,39.07v-1h4.84v1Zm4.81,5.5v1a4.48,4.48,0,0,1-.5.11,3.09,3.09,0,0,1-.55,0,2.31,2.31,0,0,1-1.67-.6,2.41,2.41,0,0,1-.62-1.8V36.17l1.21-.43v7.45a2,2,0,0,0,.18.93.91.91,0,0,0,.47.46,1.6,1.6,0,0,0,.67.13,2.54,2.54,0,0,0,.41,0A2.73,2.73,0,0,0,75.76,44.57Z"/><path class="cls-8" d="M79.93,45.76a2.61,2.61,0,0,1-2-.75,3.22,3.22,0,0,1-.68-2.22V38.11h1.21v4.65a2.24,2.24,0,0,0,.42,1.5,1.62,1.62,0,0,0,1.28.48,2.14,2.14,0,0,0,1.62-.65,2.38,2.38,0,0,0,.61-1.72V38.11h1.22v7.54H82.39V44l.18-.09a2.48,2.48,0,0,1-1,1.36A2.91,2.91,0,0,1,79.93,45.76Z"/><path class="cls-8" d="M92.56,45.65h-1.2v-2l.18.16a2.52,2.52,0,0,1-1,1.46,3,3,0,0,1-1.76.51,3.12,3.12,0,0,1-2.92-1.87,4.86,4.86,0,0,1-.42-2.08,4.81,4.81,0,0,1,.41-2.05,3.1,3.1,0,0,1,2.93-1.83,2.91,2.91,0,0,1,1.76.52,2.51,2.51,0,0,1,1,1.44l-.19.15V34.61h1.21Zm-3.51-.9A2.09,2.09,0,0,0,90.76,44a3.43,3.43,0,0,0,.6-2.16,3.33,3.33,0,0,0-.6-2.13A2,2,0,0,0,89.05,39a2.13,2.13,0,0,0-1.73.75,3.24,3.24,0,0,0-.62,2.11A3.42,3.42,0,0,0,87.32,44,2.09,2.09,0,0,0,89.05,44.75Z"/><path class="cls-8" d="M101.1,44.75a3.49,3.49,0,0,1-1.27.74,4.73,4.73,0,0,1-1.58.27,4.16,4.16,0,0,1-2-.47A3.12,3.12,0,0,1,94.93,44a4.39,4.39,0,0,1-.46-2.09,4.5,4.5,0,0,1,.45-2.06,3.41,3.41,0,0,1,1.25-1.38A3.46,3.46,0,0,1,98,37.93a3.29,3.29,0,0,1,1.73.44,2.85,2.85,0,0,1,1.1,1.27,4.6,4.6,0,0,1,.38,2v.22h-5.7v-.79h5l-.39.55a3.14,3.14,0,0,0-.51-2,1.91,1.91,0,0,0-1.6-.71,2.11,2.11,0,0,0-1.72.77,3.36,3.36,0,0,0-.62,2.14A3.32,3.32,0,0,0,96.35,44a2.4,2.4,0,0,0,1.91.75,3.85,3.85,0,0,0,1.27-.21,4,4,0,0,0,1.16-.67Z"/><path class="cls-8" d="M50.62,66.89V58.22c0-.35,0-.7,0-1a9.28,9.28,0,0,0-.1-1.06h1.16l.13,1.56-.12.22a2.51,2.51,0,0,1,1-1.45,2.93,2.93,0,0,1,1.74-.51,3.14,3.14,0,0,1,1.75.49,3.33,3.33,0,0,1,1.18,1.38,4.64,4.64,0,0,1,.43,2.07,4.57,4.57,0,0,1-.43,2.06,3.21,3.21,0,0,1-1.18,1.36,3.25,3.25,0,0,1-1.75.47,2.93,2.93,0,0,1-1.74-.51,2.54,2.54,0,0,1-1-1.46l.17-.15v5.25Zm3.54-4.14A2.09,2.09,0,0,0,55.87,62a3.28,3.28,0,0,0,.62-2.13,3.38,3.38,0,0,0-.62-2.15,2.32,2.32,0,0,0-3.43,0,3.35,3.35,0,0,0-.6,2.14,3.43,3.43,0,0,0,.6,2.16A2.07,2.07,0,0,0,54.16,62.75Z"/><path class="cls-8" d="M59.62,63.65V58.22c0-.35,0-.7,0-1a9.28,9.28,0,0,0-.1-1.06h1.16L60.82,58l-.16,0a2.32,2.32,0,0,1,.91-1.49,2.55,2.55,0,0,1,1.56-.5,2.17,2.17,0,0,1,.37,0,1.5,1.5,0,0,1,.32.07l0,1.11A2.39,2.39,0,0,0,63,57a2.06,2.06,0,0,0-1.25.34,2,2,0,0,0-.69.88,2.83,2.83,0,0,0-.22,1.12v4.3Z"/><path class="cls-8" d="M71.08,62.75a3.53,3.53,0,0,1-1.26.74,4.83,4.83,0,0,1-1.59.27,4.09,4.09,0,0,1-2-.47A3.14,3.14,0,0,1,64.91,62a5,5,0,0,1,0-4.15,3.37,3.37,0,0,1,1.26-1.38A3.43,3.43,0,0,1,68,55.93a3.26,3.26,0,0,1,1.72.44,2.93,2.93,0,0,1,1.11,1.27,4.76,4.76,0,0,1,.38,2v.22h-5.7v-.79h5l-.39.55a3.08,3.08,0,0,0-.52-2,1.9,1.9,0,0,0-1.6-.71,2.08,2.08,0,0,0-1.71.77,3.31,3.31,0,0,0-.63,2.14A3.27,3.27,0,0,0,66.34,62a2.39,2.39,0,0,0,1.91.75,3.89,3.89,0,0,0,1.27-.21,4.15,4.15,0,0,0,1.16-.67Z"/><path class="cls-8" d="M75.61,63.76a4.4,4.4,0,0,1-3-1l.4-.9a4.23,4.23,0,0,0,1.24.68,4.27,4.27,0,0,0,1.42.22,2.43,2.43,0,0,0,1.3-.29,1,1,0,0,0,.44-.85.89.89,0,0,0-.3-.71,2.3,2.3,0,0,0-1-.43l-1.28-.3a2.82,2.82,0,0,1-1.46-.75,1.82,1.82,0,0,1-.52-1.29A1.93,1.93,0,0,1,73.21,57a2.45,2.45,0,0,1,1-.79,3.77,3.77,0,0,1,1.53-.28,4.37,4.37,0,0,1,1.5.25,3.16,3.16,0,0,1,1.18.74l-.4.88a4.17,4.17,0,0,0-1.1-.67,3.37,3.37,0,0,0-1.18-.21,2.12,2.12,0,0,0-1.25.31,1,1,0,0,0-.45.86,1,1,0,0,0,.28.73,1.94,1.94,0,0,0,.89.42l1.28.32a3.07,3.07,0,0,1,1.57.74,1.81,1.81,0,0,1,.5,1.31,1.85,1.85,0,0,1-.8,1.56A3.57,3.57,0,0,1,75.61,63.76Z"/><path class="cls-8" d="M83.05,63.76a4.4,4.4,0,0,1-3-1l.4-.9a4.23,4.23,0,0,0,1.24.68,4.27,4.27,0,0,0,1.42.22,2.43,2.43,0,0,0,1.3-.29,1,1,0,0,0,.44-.85.89.89,0,0,0-.3-.71,2.3,2.3,0,0,0-1-.43l-1.28-.3a2.82,2.82,0,0,1-1.46-.75,1.82,1.82,0,0,1-.52-1.29A1.93,1.93,0,0,1,80.65,57a2.45,2.45,0,0,1,1-.79,3.77,3.77,0,0,1,1.53-.28,4.37,4.37,0,0,1,1.5.25,3.16,3.16,0,0,1,1.18.74l-.4.88a4.17,4.17,0,0,0-1.1-.67,3.37,3.37,0,0,0-1.18-.21,2.12,2.12,0,0,0-1.25.31,1,1,0,0,0-.45.86,1,1,0,0,0,.28.73,1.94,1.94,0,0,0,.89.42l1.28.32a3.07,3.07,0,0,1,1.57.74,1.81,1.81,0,0,1,.5,1.31,1.85,1.85,0,0,1-.8,1.56A3.57,3.57,0,0,1,83.05,63.76Z"/><path class="cls-8" d="M90.61,63.76a2.61,2.61,0,0,1-2-.75,3.22,3.22,0,0,1-.68-2.22V56.11h1.21v4.65a2.24,2.24,0,0,0,.42,1.5,1.62,1.62,0,0,0,1.28.48,2.14,2.14,0,0,0,1.62-.65A2.38,2.38,0,0,0,93,60.37V56.11h1.22v7.54H93.07V62l.18-.09a2.48,2.48,0,0,1-1,1.36A2.91,2.91,0,0,1,90.61,63.76Z"/><path class="cls-8" d="M96.6,63.65V58.22c0-.35,0-.7,0-1s0-.71-.1-1.06h1.15L97.8,58l-.17,0a2.36,2.36,0,0,1,.91-1.49,2.6,2.6,0,0,1,1.57-.5,2.23,2.23,0,0,1,.37,0,1.65,1.65,0,0,1,.32.07l0,1.11A2.45,2.45,0,0,0,100,57a2.08,2.08,0,0,0-1.25.34,2.12,2.12,0,0,0-.69.88,3,3,0,0,0-.22,1.12v4.3Z"/><path class="cls-8" d="M108.06,62.75a3.49,3.49,0,0,1-1.27.74,4.73,4.73,0,0,1-1.58.27,4.16,4.16,0,0,1-2-.47,3.12,3.12,0,0,1-1.3-1.34,4.39,4.39,0,0,1-.46-2.09,4.5,4.5,0,0,1,.45-2.06,3.41,3.41,0,0,1,1.25-1.38,3.46,3.46,0,0,1,1.85-.49,3.29,3.29,0,0,1,1.73.44,2.85,2.85,0,0,1,1.1,1.27,4.6,4.6,0,0,1,.38,2v.22h-5.7v-.79h5l-.39.55a3.14,3.14,0,0,0-.51-2,1.91,1.91,0,0,0-1.6-.71,2.11,2.11,0,0,0-1.72.77,3.36,3.36,0,0,0-.62,2.14,3.32,3.32,0,0,0,.65,2.22,2.4,2.4,0,0,0,1.91.75,3.85,3.85,0,0,0,1.27-.21,4,4,0,0,0,1.16-.67Z"/><path class="cls-8" d="M49.56,75.07v-1H54.4v1Zm4.81,5.5v1a4.48,4.48,0,0,1-.5.11,3.09,3.09,0,0,1-.55,0,2.31,2.31,0,0,1-1.67-.6,2.41,2.41,0,0,1-.62-1.8V72.17l1.21-.43v7.45a2,2,0,0,0,.18.93.91.91,0,0,0,.47.46,1.6,1.6,0,0,0,.67.13,2.54,2.54,0,0,0,.41,0A2.73,2.73,0,0,0,54.37,80.57Z"/><path class="cls-8" d="M62.05,80.75a3.53,3.53,0,0,1-1.26.74,4.83,4.83,0,0,1-1.59.27,4.09,4.09,0,0,1-2-.47A3.14,3.14,0,0,1,55.88,80a5,5,0,0,1,0-4.15,3.37,3.37,0,0,1,1.26-1.38A3.43,3.43,0,0,1,59,73.93a3.26,3.26,0,0,1,1.72.44,2.93,2.93,0,0,1,1.11,1.27,4.76,4.76,0,0,1,.38,2v.22h-5.7v-.79h5l-.39.55a3.08,3.08,0,0,0-.52-2,1.9,1.9,0,0,0-1.6-.71,2.08,2.08,0,0,0-1.71.77,3.31,3.31,0,0,0-.63,2.14A3.27,3.27,0,0,0,57.31,80a2.39,2.39,0,0,0,1.91.75,3.89,3.89,0,0,0,1.27-.21,4.15,4.15,0,0,0,1.16-.67Z"/><path class="cls-8" d="M64,81.65V76.22c0-.35,0-.7,0-1a9.28,9.28,0,0,0-.1-1.06h1.16l.13,1.56-.15.1A2.55,2.55,0,0,1,66,74.41a2.64,2.64,0,0,1,1.58-.48,2.51,2.51,0,0,1,1.71.54,2.67,2.67,0,0,1,.77,1.65l-.36-.2a2.53,2.53,0,0,1,1-1.45,2.82,2.82,0,0,1,1.74-.54,2.32,2.32,0,0,1,1.88.74,3.4,3.4,0,0,1,.63,2.24v4.74H73.69V77a2.55,2.55,0,0,0-.37-1.54A1.42,1.42,0,0,0,72.13,75a1.85,1.85,0,0,0-1.49.64,2.67,2.67,0,0,0-.55,1.76v4.3H68.88V77a2.54,2.54,0,0,0-.38-1.54A1.46,1.46,0,0,0,67.3,75a1.85,1.85,0,0,0-1.5.64,2.61,2.61,0,0,0-.55,1.76v4.3Z"/><path class="cls-8" d="M77.22,84.89V76.22c0-.35,0-.7,0-1s0-.71-.1-1.06h1.15l.14,1.56-.12.22a2.5,2.5,0,0,1,1-1.45A2.93,2.93,0,0,1,81,73.93a3.12,3.12,0,0,1,1.75.49,3.35,3.35,0,0,1,1.19,1.38,4.78,4.78,0,0,1,.42,2.07,4.7,4.7,0,0,1-.42,2.06A3.09,3.09,0,0,1,81,81.76a2.93,2.93,0,0,1-1.74-.51,2.52,2.52,0,0,1-1-1.46l.16-.15v5.25Zm3.54-4.14A2.09,2.09,0,0,0,82.47,80a3.28,3.28,0,0,0,.61-2.13,3.37,3.37,0,0,0-.61-2.15,2.33,2.33,0,0,0-3.44,0,3.35,3.35,0,0,0-.6,2.14A3.43,3.43,0,0,0,79,80,2.09,2.09,0,0,0,80.76,80.75Z"/><path class="cls-8" d="M92.4,80.75a3.49,3.49,0,0,1-1.27.74,4.73,4.73,0,0,1-1.58.27,4.16,4.16,0,0,1-2-.47A3.12,3.12,0,0,1,86.23,80a4.39,4.39,0,0,1-.46-2.09,4.5,4.5,0,0,1,.45-2.06,3.41,3.41,0,0,1,1.25-1.38,3.46,3.46,0,0,1,1.85-.49,3.29,3.29,0,0,1,1.73.44,2.85,2.85,0,0,1,1.1,1.27,4.6,4.6,0,0,1,.38,2v.22h-5.7v-.79h5l-.39.55a3.14,3.14,0,0,0-.51-2,1.91,1.91,0,0,0-1.6-.71,2.11,2.11,0,0,0-1.72.77A3.36,3.36,0,0,0,87,77.78,3.32,3.32,0,0,0,87.65,80a2.4,2.4,0,0,0,1.91.75,3.85,3.85,0,0,0,1.27-.21A4,4,0,0,0,92,79.87Z"/><path class="cls-8" d="M94.38,81.65V76.22c0-.35,0-.7,0-1s0-.71-.1-1.06h1.15L95.58,76l-.17,0a2.36,2.36,0,0,1,.91-1.49,2.6,2.6,0,0,1,1.57-.5,2.23,2.23,0,0,1,.37,0,1.65,1.65,0,0,1,.32.07l0,1.11a2.45,2.45,0,0,0-.8-.12,2.08,2.08,0,0,0-1.25.34,2.12,2.12,0,0,0-.69.88,3,3,0,0,0-.22,1.12v4.3Z"/><path class="cls-8" d="M102.55,81.76a3.31,3.31,0,0,1-1.76-.47,3.19,3.19,0,0,1-1.17-1.36,4.85,4.85,0,0,1-.41-2.06,4.78,4.78,0,0,1,.42-2.07,3.26,3.26,0,0,1,1.18-1.38,3.08,3.08,0,0,1,1.74-.49,3,3,0,0,1,1.76.51,2.5,2.5,0,0,1,1,1.45l-.18.12v-1.9h1.2v7.54h-1.2v-2l.18.09a2.52,2.52,0,0,1-1,1.46A3,3,0,0,1,102.55,81.76Zm.24-1A2.06,2.06,0,0,0,104.5,80a3.43,3.43,0,0,0,.6-2.16,3.35,3.35,0,0,0-.6-2.14,2.09,2.09,0,0,0-1.71-.75,2.12,2.12,0,0,0-1.73.77,3.38,3.38,0,0,0-.62,2.15,3.28,3.28,0,0,0,.62,2.13A2.13,2.13,0,0,0,102.79,80.75Z"/><path class="cls-8" d="M107.59,75.07v-1h4.85v1Zm4.82,5.5v1a5,5,0,0,1-.5.11,3.16,3.16,0,0,1-.55,0,2.29,2.29,0,0,1-1.67-.6,2.37,2.37,0,0,1-.63-1.8V72.17l1.22-.43v7.45a2.11,2.11,0,0,0,.17.93,1,1,0,0,0,.47.46,1.65,1.65,0,0,0,.68.13,2.41,2.41,0,0,0,.4,0A2.83,2.83,0,0,0,112.41,80.57Z"/><path class="cls-8" d="M116.58,81.76a2.6,2.6,0,0,1-2-.75,3.17,3.17,0,0,1-.69-2.22V74.11h1.22v4.65a2.24,2.24,0,0,0,.42,1.5,1.59,1.59,0,0,0,1.27.48,2.14,2.14,0,0,0,1.62-.65,2.39,2.39,0,0,0,.62-1.72V74.11h1.21v7.54H119V80l.18-.09a2.53,2.53,0,0,1-1,1.36A2.93,2.93,0,0,1,116.58,81.76Z"/><path class="cls-8" d="M122.56,81.65V76.22c0-.35,0-.7,0-1a9.28,9.28,0,0,0-.1-1.06h1.16l.16,1.86-.16,0a2.32,2.32,0,0,1,.91-1.49,2.55,2.55,0,0,1,1.56-.5,2.17,2.17,0,0,1,.37,0,1.65,1.65,0,0,1,.32.07l0,1.11a2.39,2.39,0,0,0-.79-.12,2.06,2.06,0,0,0-1.25.34,2,2,0,0,0-.69.88,2.83,2.83,0,0,0-.22,1.12v4.3Z"/><path class="cls-8" d="M134,80.75a3.53,3.53,0,0,1-1.26.74,4.83,4.83,0,0,1-1.59.27,4.09,4.09,0,0,1-2-.47A3.14,3.14,0,0,1,127.85,80a5,5,0,0,1,0-4.15,3.37,3.37,0,0,1,1.26-1.38,3.43,3.43,0,0,1,1.85-.49,3.26,3.26,0,0,1,1.72.44,2.93,2.93,0,0,1,1.11,1.27,4.76,4.76,0,0,1,.38,2v.22h-5.7v-.79h5l-.39.55a3.08,3.08,0,0,0-.52-2,1.9,1.9,0,0,0-1.6-.71,2.08,2.08,0,0,0-1.71.77,3.31,3.31,0,0,0-.63,2.14,3.27,3.27,0,0,0,.66,2.22,2.39,2.39,0,0,0,1.91.75,3.89,3.89,0,0,0,1.27-.21,4.15,4.15,0,0,0,1.16-.67Z"/></g><polygon class="cls-8" points="131.1 45.46 136.08 36.84 126.13 36.84 131.1 45.46"/></g></g></svg>