<svg xmlns="http://www.w3.org/2000/svg" viewBox="0 0 595.28 60.69"><defs><style>.cls-1{fill:#1398c4;}.cls-2{fill:#ededee;}.cls-3{fill:#231f20;}.cls-4{fill:#ff5100;}.cls-5{fill:#555058;}.cls-6{fill:#464146;}.cls-7{fill:#1d809b;}.cls-8{fill:#c4c3c7;}</style></defs><g id="Layer_2" data-name="Layer 2"><g id="Layer_1-2" data-name="Layer 1"><rect class="cls-1" y="4" width="595.28" height="56.69" rx="11.34"/><rect class="cls-2" width="595.28" height="56.69" rx="11.34"/><path class="cls-3" d="M93.91,39.13a20.92,20.92,0,0,1-3.78-.34,15.56,15.56,0,0,1-3.37-1A11.83,11.83,0,0,1,84,36.1l1.54-3.38a13.79,13.79,0,0,0,4,2.09,14.5,14.5,0,0,0,4.43.65,7.64,7.64,0,0,0,4.12-.94,2.94,2.94,0,0,0,1.46-2.63,2.26,2.26,0,0,0-.65-1.67,5.13,5.13,0,0,0-1.94-1.14,28.08,28.08,0,0,0-3.2-.9,24.76,24.76,0,0,1-4-1.06,11.4,11.4,0,0,1-2.88-1.49,5.85,5.85,0,0,1-1.75-2.07,6.52,6.52,0,0,1-.59-2.86,7,7,0,0,1,1.22-4,8.18,8.18,0,0,1,3.44-2.75,12.66,12.66,0,0,1,5.2-1,17,17,0,0,1,3.51.36,14.37,14.37,0,0,1,3.15,1,9.58,9.58,0,0,1,2.49,1.63l-1.59,3.39a12,12,0,0,0-3.6-2.07,11.41,11.41,0,0,0-3.92-.67,6.73,6.73,0,0,0-3.92,1,3.24,3.24,0,0,0-1.44,2.81,2.54,2.54,0,0,0,.59,1.73,4.55,4.55,0,0,0,1.84,1.15,27.47,27.47,0,0,0,3.18.93,34.57,34.57,0,0,1,4,1.08,12.84,12.84,0,0,1,3,1.46,5.45,5.45,0,0,1,2.48,4.81,6.69,6.69,0,0,1-1.22,4,7.74,7.74,0,0,1-3.51,2.63A14.62,14.62,0,0,1,93.91,39.13Z"/><path class="cls-3" d="M123.71,36.82a9.25,9.25,0,0,1-3.18,1.68,12.92,12.92,0,0,1-3.84.59A11,11,0,0,1,111.6,38a7.73,7.73,0,0,1-3.29-3.24,10.42,10.42,0,0,1-1.16-5,10.57,10.57,0,0,1,1.12-4.95,8.29,8.29,0,0,1,3.1-3.35,8.55,8.55,0,0,1,4.57-1.21,8.16,8.16,0,0,1,4.32,1.1,7.28,7.28,0,0,1,2.79,3.15,11.09,11.09,0,0,1,1,4.86V30H111.11l0-2.41h10.22l-1.22,1.23a6.28,6.28,0,0,0-1-4,3.65,3.65,0,0,0-3.07-1.37A4,4,0,0,0,112.7,25a7,7,0,0,0-1.19,4.38,7.13,7.13,0,0,0,1.33,4.77,5.06,5.06,0,0,0,4,1.53,9,9,0,0,0,2.9-.49,9.31,9.31,0,0,0,2.65-1.42Z"/><path class="cls-3" d="M127.82,38.84v-13c0-.87,0-1.73-.06-2.59a23.87,23.87,0,0,0-.23-2.56h4.25l.39,3.6-.39.11a6.49,6.49,0,0,1,2.57-3.12,7.37,7.37,0,0,1,3.94-1.06q6.48,0,6.48,7.49V38.84h-4.5v-11a4.8,4.8,0,0,0-.82-3.11,3.17,3.17,0,0,0-2.56-1,4.35,4.35,0,0,0-3.33,1.31,4.84,4.84,0,0,0-1.24,3.47v10.3Z"/><path class="cls-3" d="M156.19,39.09c-3.32,0-5.93-.75-7.85-2.27l1.26-3.16a10.48,10.48,0,0,0,3.13,1.62,11.53,11.53,0,0,0,3.53.54,4.82,4.82,0,0,0,2.52-.54,1.71,1.71,0,0,0,.86-1.52,1.57,1.57,0,0,0-.61-1.31,5.77,5.77,0,0,0-2.09-.85l-3-.68a7.23,7.23,0,0,1-3.73-1.82A4.47,4.47,0,0,1,149,25.84a4.85,4.85,0,0,1,.93-2.93,6.2,6.2,0,0,1,2.63-2,10,10,0,0,1,3.93-.72,11.76,11.76,0,0,1,3.74.6,9.21,9.21,0,0,1,3.13,1.71L162,25.59A10.8,10.8,0,0,0,159.23,24a8.58,8.58,0,0,0-2.83-.5,4.27,4.27,0,0,0-2.41.58,1.79,1.79,0,0,0-.87,1.58,1.6,1.6,0,0,0,.53,1.26,4.18,4.18,0,0,0,1.81.76l3.07.75a7.68,7.68,0,0,1,3.94,1.86,4.64,4.64,0,0,1,1.24,3.36,4.59,4.59,0,0,1-2,3.94A9.16,9.16,0,0,1,156.19,39.09Z"/><path class="cls-3" d="M175.8,39.09a9.93,9.93,0,0,1-4.91-1.15,7.89,7.89,0,0,1-3.19-3.26,10.63,10.63,0,0,1-1.11-5,10.77,10.77,0,0,1,1.11-5,7.87,7.87,0,0,1,3.19-3.3,10,10,0,0,1,4.91-1.15,9.91,9.91,0,0,1,4.85,1.15,8,8,0,0,1,3.2,3.3,10.53,10.53,0,0,1,1.13,5,10.4,10.4,0,0,1-1.13,5,8,8,0,0,1-3.2,3.26A9.8,9.8,0,0,1,175.8,39.09Zm0-3.45a4.15,4.15,0,0,0,3.44-1.5,7,7,0,0,0,1.21-4.48,7,7,0,0,0-1.21-4.45,4.17,4.17,0,0,0-3.44-1.49,4.33,4.33,0,0,0-3.51,1.49,6.88,6.88,0,0,0-1.24,4.45,6.92,6.92,0,0,0,1.23,4.48A4.27,4.27,0,0,0,175.8,35.64Z"/><path class="cls-3" d="M188.84,38.84v-13q0-1.26-.06-2.58a24.06,24.06,0,0,0-.23-2.57h4.25l.5,4.68-.5-.25a5.66,5.66,0,0,1,2.12-3.64,6.16,6.16,0,0,1,3.74-1.22,6.41,6.41,0,0,1,1,.07,3.71,3.71,0,0,1,.83.22l-.07,4.1a6.16,6.16,0,0,0-2.38-.47,4.87,4.87,0,0,0-2.64.65,4,4,0,0,0-1.55,1.75,5.62,5.62,0,0,0-.52,2.46v9.83Z"/><path class="cls-3" d="M209.46,39.09c-3.31,0-5.92-.75-7.84-2.27l1.26-3.16A10.48,10.48,0,0,0,206,35.28a11.53,11.53,0,0,0,3.53.54,4.82,4.82,0,0,0,2.52-.54,1.71,1.71,0,0,0,.86-1.52,1.57,1.57,0,0,0-.61-1.31,5.77,5.77,0,0,0-2.09-.85l-3-.68a7.23,7.23,0,0,1-3.73-1.82,4.47,4.47,0,0,1-1.24-3.26,4.85,4.85,0,0,1,.93-2.93,6.2,6.2,0,0,1,2.63-2,10,10,0,0,1,3.93-.72,11.76,11.76,0,0,1,3.74.6,9.21,9.21,0,0,1,3.13,1.71l-1.29,3.09A10.8,10.8,0,0,0,212.51,24a8.58,8.58,0,0,0-2.83-.5,4.25,4.25,0,0,0-2.41.58,1.79,1.79,0,0,0-.87,1.58,1.6,1.6,0,0,0,.53,1.26,4.18,4.18,0,0,0,1.81.76l3.06.75a7.72,7.72,0,0,1,3.95,1.86A4.64,4.64,0,0,1,217,33.69a4.59,4.59,0,0,1-2,3.94A9.17,9.17,0,0,1,209.46,39.09Z"/><path class="cls-4" d="M46.05,32.85H38.8V29.23a3.63,3.63,0,0,1,7.25,0Z"/><path class="cls-4" d="M42.43,25.61a3.53,3.53,0,0,0-1.56.35,3.62,3.62,0,0,1,2.06,3.27v3.62h3.12V29.23a3.62,3.62,0,0,0-3.62-3.62Z"/><path class="cls-5" d="M53.41,41h-22V34.09a2.7,2.7,0,0,1,2.7-2.7H50.71a2.7,2.7,0,0,1,2.7,2.7Z"/><path class="cls-6" d="M50.71,31.39H47.09a2.7,2.7,0,0,1,2.7,2.7V38h3.62V34.09A2.7,2.7,0,0,0,50.71,31.39Z"/><path class="cls-1" d="M63.2,49.61H21.66v-6.3A5.28,5.28,0,0,1,26.94,38h31a5.29,5.29,0,0,1,5.29,5.29v6.3Z"/><path class="cls-7" d="M57.91,38H54.29a5.28,5.28,0,0,1,5.28,5.29v6.3H63.2v-6.3A5.29,5.29,0,0,0,57.91,38Z"/><path class="cls-4" d="M47,43h-.41a1.1,1.1,0,0,1,0-2.2H47A1.1,1.1,0,0,1,47,43Z"/><path class="cls-4" d="M46.83,43h-.41a1.1,1.1,0,0,1,0-2.2h.41a1.1,1.1,0,0,1,0,2.2Z"/><path class="cls-4" d="M51.91,43h-.42a1.1,1.1,0,0,1,0-2.2h.42a1.1,1.1,0,0,1,0,2.2Z"/><path class="cls-4" d="M57,43h-.41a1.1,1.1,0,0,1,0-2.2H57A1.1,1.1,0,0,1,57,43Z"/><path class="cls-8" d="M45.55,22.47a1.07,1.07,0,0,1-.78-.33,3.32,3.32,0,0,0-4.69,0,1.1,1.1,0,1,1-1.55-1.55,5.51,5.51,0,0,1,7.79,0,1.09,1.09,0,0,1,0,1.55,1.06,1.06,0,0,1-.77.33Z"/><path class="cls-8" d="M49.37,18.64a1.09,1.09,0,0,1-.77-.32,8.72,8.72,0,0,0-12.34,0,1.1,1.1,0,0,1-1.56-1.56,10.92,10.92,0,0,1,15.45,0,1.1,1.1,0,0,1,0,1.56,1.13,1.13,0,0,1-.78.32Z"/><path class="cls-8" d="M54,14.05a1.09,1.09,0,0,1-.78-.32,15.23,15.23,0,0,0-21.51,0,1.1,1.1,0,0,1-1.55-1.55,17.42,17.42,0,0,1,24.62,0,1.11,1.11,0,0,1,0,1.55,1.09,1.09,0,0,1-.78.32Z"/></g></g></svg>