<svg xmlns="http://www.w3.org/2000/svg" viewBox="0 0 595.39 26"><defs><style>.cls-1{fill:none;}.cls-2{fill:#167b9e;}.cls-3{fill:#1398c4;}.cls-4{fill:#5eb7d6;}.cls-5{isolation:isolate;}.cls-6{fill:#fff;}.cls-7{opacity:0.6;}.cls-8{fill:#010101;}</style></defs><g id="Layer_2" data-name="Layer 2"><g id="Layer_1-2" data-name="Layer 1"><rect class="cls-1" x="0.12" width="595.28" height="18"/><path class="cls-2" d="M9.12,1H312.35V26H9.12V21c0-10-8,8-8-7.5s8,2.5,8-7.5Z"/><path class="cls-3" d="M8.12,0H311.35V25H8.12V20c0-10-8,8-8-7.5s8,2.5,8-7.5Z"/><path class="cls-4" d="M9.12,24.5h-1v-6h1ZM.77,18.13a20.9,20.9,0,0,1,0-11.26l1,.26a19.79,19.79,0,0,0,0,10.74ZM9.12,8h-1V0H310.85V1H9.12Z"/><g class="cls-5"><path class="cls-6" d="M25.93,17.5h-1.2v-2l.18.17a2.5,2.5,0,0,1-1,1.45,2.91,2.91,0,0,1-1.76.52,3.22,3.22,0,0,1-1.75-.49,3.31,3.31,0,0,1-1.17-1.38,4.86,4.86,0,0,1-.42-2.08,4.66,4.66,0,0,1,.41-2.05,3.17,3.17,0,0,1,1.17-1.36,3.28,3.28,0,0,1,1.76-.47,3,3,0,0,1,1.76.51,2.56,2.56,0,0,1,1,1.45l-.19.15V6.46h1.21Zm-3.51-.9a2,2,0,0,0,1.7-.76,3.32,3.32,0,0,0,.61-2.15,3.38,3.38,0,0,0-.6-2.14,2.07,2.07,0,0,0-1.71-.76,2.12,2.12,0,0,0-1.73.75,3.21,3.21,0,0,0-.62,2.12,3.36,3.36,0,0,0,.62,2.17A2.1,2.1,0,0,0,22.42,16.6Z"/><path class="cls-6" d="M34.47,16.6a3.58,3.58,0,0,1-1.27.74,5,5,0,0,1-1.58.27,4.13,4.13,0,0,1-2-.47,3.19,3.19,0,0,1-1.31-1.34,4.57,4.57,0,0,1-.45-2.09,4.47,4.47,0,0,1,.45-2.06,3.34,3.34,0,0,1,1.25-1.38,3.43,3.43,0,0,1,1.85-.49,3.2,3.2,0,0,1,1.73.44,2.86,2.86,0,0,1,1.1,1.27,4.74,4.74,0,0,1,.38,2v.23H28.9v-.8h5l-.39.56a3.13,3.13,0,0,0-.52-2,1.9,1.9,0,0,0-1.59-.7,2.1,2.1,0,0,0-1.72.77,3.31,3.31,0,0,0-.62,2.14,3.27,3.27,0,0,0,.65,2.22,2.39,2.39,0,0,0,1.91.75,3.65,3.65,0,0,0,1.27-.22,3.92,3.92,0,0,0,1.16-.67Z"/><path class="cls-6" d="M35.34,10.92V10h4.84v1Zm4.81,5.5v1l-.5.11a4.58,4.58,0,0,1-.55,0A2.26,2.26,0,0,1,37.43,17a2.35,2.35,0,0,1-.62-1.79V8L38,7.59V15a2.11,2.11,0,0,0,.17.93,1,1,0,0,0,.48.46,1.78,1.78,0,0,0,.67.12l.41,0Z"/><path class="cls-6" d="M47.83,16.6a3.49,3.49,0,0,1-1.27.74,5,5,0,0,1-1.58.27,4.16,4.16,0,0,1-2-.47,3.17,3.17,0,0,1-1.3-1.34,4.44,4.44,0,0,1-.46-2.09,4.47,4.47,0,0,1,.45-2.06,3.41,3.41,0,0,1,1.25-1.38,3.49,3.49,0,0,1,1.86-.49,3.17,3.17,0,0,1,1.72.44,2.8,2.8,0,0,1,1.1,1.27,4.58,4.58,0,0,1,.39,2v.23h-5.7v-.8h5l-.39.56a3.19,3.19,0,0,0-.52-2,1.94,1.94,0,0,0-1.6-.7,2.11,2.11,0,0,0-1.72.77,3.36,3.36,0,0,0-.62,2.14,3.32,3.32,0,0,0,.65,2.22A2.42,2.42,0,0,0,45,16.6a3.56,3.56,0,0,0,1.26-.22,3.84,3.84,0,0,0,1.17-.67Z"/><path class="cls-6" d="M53,17.61a3.7,3.7,0,0,1-1.92-.48,3.35,3.35,0,0,1-1.26-1.35,4.57,4.57,0,0,1-.44-2.06,4.5,4.5,0,0,1,.45-2.06,3.31,3.31,0,0,1,1.28-1.39A3.72,3.72,0,0,1,53,9.78a4.07,4.07,0,0,1,1.47.26,3.22,3.22,0,0,1,1.18.72l-.4.91A5,5,0,0,0,54.2,11a3,3,0,0,0-1.1-.22,2.28,2.28,0,0,0-1.81.77,3.16,3.16,0,0,0-.67,2.16,3.12,3.12,0,0,0,.66,2.13,2.3,2.3,0,0,0,1.82.75,2.79,2.79,0,0,0,1.09-.22,4.4,4.4,0,0,0,1.1-.65l.4.9a3.34,3.34,0,0,1-1.21.71A4.24,4.24,0,0,1,53,17.61Z"/><path class="cls-6" d="M56.19,10.92V10H61v1ZM61,16.42v1l-.5.11a4.58,4.58,0,0,1-.55,0A2.26,2.26,0,0,1,58.28,17a2.35,2.35,0,0,1-.62-1.79V8l1.21-.43V15A2.11,2.11,0,0,0,59,16a1,1,0,0,0,.48.46,1.78,1.78,0,0,0,.67.12l.41,0Z"/><path class="cls-6" d="M65.35,10.92V10h4.53v1Zm4.74-3.35a2.85,2.85,0,0,0-.78-.12,1.51,1.51,0,0,0-.65.13A.9.9,0,0,0,68.2,8,2,2,0,0,0,68,9V17.5H66.82V8.8A2.45,2.45,0,0,1,67.42,7a2.27,2.27,0,0,1,1.65-.59l.51,0a3.1,3.1,0,0,1,.51.11Z"/><path class="cls-6" d="M71.47,17.5V12.07c0-.35,0-.7,0-1.06s0-.71-.1-1h1.16l.16,1.86-.16-.05a2.35,2.35,0,0,1,.9-1.49A2.6,2.6,0,0,1,75,9.78a2.23,2.23,0,0,1,.37,0,1.65,1.65,0,0,1,.32.07l0,1.1a2.69,2.69,0,0,0-.79-.11,2.11,2.11,0,0,0-1.26.34,2.06,2.06,0,0,0-.69.88,3,3,0,0,0-.21,1.12v4.3Z"/><path class="cls-6" d="M82.93,16.6a3.49,3.49,0,0,1-1.27.74,5,5,0,0,1-1.58.27,4.16,4.16,0,0,1-2-.47,3.17,3.17,0,0,1-1.3-1.34,4.44,4.44,0,0,1-.46-2.09,4.47,4.47,0,0,1,.45-2.06A3.41,3.41,0,0,1,78,10.27a3.49,3.49,0,0,1,1.86-.49,3.17,3.17,0,0,1,1.72.44,2.8,2.8,0,0,1,1.1,1.27,4.58,4.58,0,0,1,.39,2v.23h-5.7v-.8h5l-.39.56a3.19,3.19,0,0,0-.52-2,1.94,1.94,0,0,0-1.6-.7,2.11,2.11,0,0,0-1.72.77,3.36,3.36,0,0,0-.62,2.14,3.32,3.32,0,0,0,.65,2.22,2.42,2.42,0,0,0,1.92.75,3.56,3.56,0,0,0,1.26-.22,3.84,3.84,0,0,0,1.17-.67Z"/><path class="cls-6" d="M91.09,16.6a3.49,3.49,0,0,1-1.27.74,5,5,0,0,1-1.58.27,4.16,4.16,0,0,1-2-.47,3.17,3.17,0,0,1-1.3-1.34,4.44,4.44,0,0,1-.46-2.09,4.47,4.47,0,0,1,.45-2.06,3.41,3.41,0,0,1,1.25-1.38A3.49,3.49,0,0,1,88,9.78a3.17,3.17,0,0,1,1.72.44,2.8,2.8,0,0,1,1.1,1.27,4.58,4.58,0,0,1,.39,2v.23h-5.7v-.8h5l-.39.56a3.19,3.19,0,0,0-.52-2,1.94,1.94,0,0,0-1.6-.7,2.11,2.11,0,0,0-1.72.77,3.36,3.36,0,0,0-.62,2.14,3.32,3.32,0,0,0,.65,2.22,2.42,2.42,0,0,0,1.92.75,3.56,3.56,0,0,0,1.26-.22,3.84,3.84,0,0,0,1.17-.67Z"/><path class="cls-6" d="M95.92,10.92V10h4.53v1Zm4.74-3.35a2.85,2.85,0,0,0-.78-.12,1.51,1.51,0,0,0-.65.13.9.9,0,0,0-.46.46,2,2,0,0,0-.16.91V17.5H97.39V8.8A2.45,2.45,0,0,1,98,7a2.27,2.27,0,0,1,1.65-.59l.51,0a3.1,3.1,0,0,1,.51.11Z"/><path class="cls-6" d="M104.86,17.61a3.2,3.2,0,0,1-1.76-.48,3,3,0,0,1-1.17-1.35,4.7,4.7,0,0,1-.42-2.06,4.78,4.78,0,0,1,.42-2.07,3.33,3.33,0,0,1,1.18-1.38,3.14,3.14,0,0,1,1.75-.49,2.94,2.94,0,0,1,1.75.51,2.51,2.51,0,0,1,1,1.45l-.18.12V10h1.2V17.5h-1.2V15.55l.18.09a2.51,2.51,0,0,1-1,1.45A2.88,2.88,0,0,1,104.86,17.61Zm.24-1a2,2,0,0,0,1.71-.76,3.38,3.38,0,0,0,.6-2.15,3.32,3.32,0,0,0-.61-2.15,2.06,2.06,0,0,0-1.7-.75,2.08,2.08,0,0,0-1.73.78,3.3,3.3,0,0,0-.63,2.15,3.22,3.22,0,0,0,.63,2.13A2.12,2.12,0,0,0,105.1,16.6Z"/><path class="cls-6" d="M111,17.5v-11h1.22v11Z"/><path class="cls-6" d="M114.53,17.5v-11h1.22v11Z"/></g><g class="cls-5"><path class="cls-6" d="M124.86,10.92V10h4.84v1Zm4.81,5.5v1l-.5.11a4.58,4.58,0,0,1-.55,0A2.26,2.26,0,0,1,127,17a2.35,2.35,0,0,1-.62-1.79V8l1.21-.43V15a2.11,2.11,0,0,0,.17.93,1,1,0,0,0,.48.46,1.74,1.74,0,0,0,.67.12l.41,0Z"/><path class="cls-6" d="M131.17,17.5v-11h1.21v5l-.19.14a2.59,2.59,0,0,1,1.05-1.38,3,3,0,0,1,1.7-.47c1.8,0,2.71,1,2.71,3V17.5h-1.21V12.82a2.4,2.4,0,0,0-.42-1.54,1.71,1.71,0,0,0-1.33-.49,2.24,2.24,0,0,0-1.67.65,2.39,2.39,0,0,0-.64,1.74V17.5Z"/><path class="cls-6" d="M139.94,17.5V12.07c0-.35,0-.7,0-1.06a7.32,7.32,0,0,0-.1-1H141l.17,1.86-.17-.05a2.32,2.32,0,0,1,.91-1.49,2.58,2.58,0,0,1,1.57-.5,2.06,2.06,0,0,1,.36,0,1.76,1.76,0,0,1,.33.07l0,1.1a2.69,2.69,0,0,0-.79-.11,2.06,2.06,0,0,0-1.25.34,1.92,1.92,0,0,0-.69.88,2.8,2.8,0,0,0-.22,1.12v4.3Z"/><path class="cls-6" d="M151.41,16.6a3.58,3.58,0,0,1-1.27.74,5,5,0,0,1-1.58.27,4.13,4.13,0,0,1-2-.47,3.19,3.19,0,0,1-1.31-1.34,4.57,4.57,0,0,1-.45-2.09,4.47,4.47,0,0,1,.45-2.06,3.34,3.34,0,0,1,1.25-1.38,3.43,3.43,0,0,1,1.85-.49,3.2,3.2,0,0,1,1.73.44,2.86,2.86,0,0,1,1.1,1.27,4.74,4.74,0,0,1,.38,2v.23h-5.7v-.8h5l-.39.56a3.13,3.13,0,0,0-.52-2,1.92,1.92,0,0,0-1.59-.7,2.1,2.1,0,0,0-1.72.77,3.31,3.31,0,0,0-.62,2.14,3.27,3.27,0,0,0,.65,2.22,2.39,2.39,0,0,0,1.91.75,3.65,3.65,0,0,0,1.27-.22,3.92,3.92,0,0,0,1.16-.67Z"/><path class="cls-6" d="M155.94,17.61a4.41,4.41,0,0,1-3-1l.4-.9a4.23,4.23,0,0,0,1.24.68,4.27,4.27,0,0,0,1.42.22,2.43,2.43,0,0,0,1.3-.29,1,1,0,0,0,.44-.85.89.89,0,0,0-.3-.71,2.3,2.3,0,0,0-1-.43l-1.28-.3a2.82,2.82,0,0,1-1.46-.75,1.82,1.82,0,0,1-.52-1.29,1.93,1.93,0,0,1,.36-1.16,2.37,2.37,0,0,1,1-.79,3.77,3.77,0,0,1,1.53-.28,4.37,4.37,0,0,1,1.5.25,3.28,3.28,0,0,1,1.18.73l-.4.89a4.17,4.17,0,0,0-1.1-.67,3.38,3.38,0,0,0-1.18-.22,2.12,2.12,0,0,0-1.25.32,1.09,1.09,0,0,0-.17,1.59,1.94,1.94,0,0,0,.89.42l1.28.32a2.92,2.92,0,0,1,1.57.74,1.94,1.94,0,0,1-.3,2.87A3.56,3.56,0,0,1,155.94,17.61Z"/><path class="cls-6" d="M160.82,17.5v-11H162v5l-.2.14a2.56,2.56,0,0,1,1.06-1.38,3,3,0,0,1,1.69-.47c1.81,0,2.71,1,2.71,3V17.5h-1.21V12.82a2.34,2.34,0,0,0-.42-1.54,1.67,1.67,0,0,0-1.32-.49,2.24,2.24,0,0,0-1.68.65,2.38,2.38,0,0,0-.63,1.74V17.5Z"/><path class="cls-6" d="M172.72,17.61a3.58,3.58,0,0,1-1.88-.48,3.35,3.35,0,0,1-1.25-1.36,4.65,4.65,0,0,1-.44-2.08,4.64,4.64,0,0,1,.44-2.07,3.32,3.32,0,0,1,1.25-1.37,4,4,0,0,1,3.76,0,3.32,3.32,0,0,1,1.25,1.37,4.64,4.64,0,0,1,.44,2.07,4.65,4.65,0,0,1-.44,2.08,3.35,3.35,0,0,1-1.25,1.36A3.58,3.58,0,0,1,172.72,17.61Zm0-1a2.12,2.12,0,0,0,1.72-.74,3.4,3.4,0,0,0,.6-2.17,3.32,3.32,0,0,0-.61-2.15,2.09,2.09,0,0,0-1.71-.75,2.12,2.12,0,0,0-1.72.75,3.32,3.32,0,0,0-.62,2.15,3.34,3.34,0,0,0,.61,2.17A2.11,2.11,0,0,0,172.72,16.6Z"/><path class="cls-6" d="M178.18,17.5v-11h1.21v11Z"/><path class="cls-6" d="M188.39,17.5h-1.2v-2l.18.17a2.5,2.5,0,0,1-1,1.45,2.91,2.91,0,0,1-1.76.52,3.16,3.16,0,0,1-1.74-.49,3.26,3.26,0,0,1-1.18-1.38,4.86,4.86,0,0,1-.42-2.08,4.81,4.81,0,0,1,.41-2.05,3.06,3.06,0,0,1,2.93-1.83,3,3,0,0,1,1.76.51,2.56,2.56,0,0,1,1,1.45l-.19.15V6.46h1.21Zm-3.51-.9a2.07,2.07,0,0,0,1.71-.76,3.38,3.38,0,0,0,.6-2.15,3.38,3.38,0,0,0-.6-2.14,2.07,2.07,0,0,0-1.71-.76,2.13,2.13,0,0,0-1.73.75,3.27,3.27,0,0,0-.62,2.12,3.42,3.42,0,0,0,.62,2.17A2.12,2.12,0,0,0,184.88,16.6Z"/></g><g class="cls-7"><rect class="cls-6" x="193.13" y="5" width="27.6" height="16" rx="4"/></g><g class="cls-5"><path class="cls-8" d="M200.05,17.5v-1h6v1Zm2.36-.55V7.54l.7.36-2.89,1.85V8.56L203,6.82h.7V17Z"/><path class="cls-8" d="M210.15,17.5h-1.32l5.23-10.14.11.5h-6.06v-1h7v.92Z"/></g><g class="cls-5"><path class="cls-6" d="M233.55,17.5h-1.2v-2l.18.17a2.51,2.51,0,0,1-1,1.45,2.88,2.88,0,0,1-1.75.52,3.22,3.22,0,0,1-1.75-.49,3.33,3.33,0,0,1-1.18-1.38,4.86,4.86,0,0,1-.42-2.08,4.66,4.66,0,0,1,.42-2.05A3.17,3.17,0,0,1,228,10.25a3.28,3.28,0,0,1,1.76-.47,2.94,2.94,0,0,1,1.75.51,2.58,2.58,0,0,1,1,1.45l-.2.15V6.46h1.22ZM230,16.6a2,2,0,0,0,1.7-.76,3.32,3.32,0,0,0,.61-2.15,3.38,3.38,0,0,0-.6-2.14,2.07,2.07,0,0,0-1.71-.76,2.12,2.12,0,0,0-1.73.75,3.21,3.21,0,0,0-.63,2.12,3.36,3.36,0,0,0,.63,2.17A2.1,2.1,0,0,0,230,16.6Z"/><path class="cls-6" d="M238.57,17.61a2.61,2.61,0,0,1-2-.75,3.23,3.23,0,0,1-.68-2.23V10h1.21v4.65a2.24,2.24,0,0,0,.42,1.5,1.65,1.65,0,0,0,1.28.48,2.14,2.14,0,0,0,1.62-.65,2.41,2.41,0,0,0,.61-1.73V10h1.22V17.5H241V15.87l.18-.09a2.48,2.48,0,0,1-1,1.36A2.91,2.91,0,0,1,238.57,17.61Z"/><path class="cls-6" d="M244.56,17.5V12.07c0-.35,0-.7,0-1.06s0-.71-.1-1h1.15l.17,1.86-.17-.05a2.36,2.36,0,0,1,.91-1.49,2.6,2.6,0,0,1,1.57-.5,2.23,2.23,0,0,1,.37,0,1.65,1.65,0,0,1,.32.07l0,1.1a2.76,2.76,0,0,0-.8-.11A1.92,1.92,0,0,0,246,12.08a3,3,0,0,0-.22,1.12v4.3Z"/><path class="cls-6" d="M252.73,17.61a3.23,3.23,0,0,1-1.76-.48,3.11,3.11,0,0,1-1.17-1.35,4.85,4.85,0,0,1-.41-2.06,4.78,4.78,0,0,1,.42-2.07A3.26,3.26,0,0,1,251,10.27a3.08,3.08,0,0,1,1.74-.49,3,3,0,0,1,1.76.51,2.5,2.5,0,0,1,1,1.45l-.18.12V10h1.2V17.5h-1.2V15.55l.18.09a2.5,2.5,0,0,1-1,1.45A2.91,2.91,0,0,1,252.73,17.61Zm.24-1a2,2,0,0,0,1.71-.76,3.38,3.38,0,0,0,.6-2.15,3.38,3.38,0,0,0-.6-2.15,2.32,2.32,0,0,0-3.44,0,3.36,3.36,0,0,0-.62,2.15,3.28,3.28,0,0,0,.62,2.13A2.13,2.13,0,0,0,253,16.6Z"/><path class="cls-6" d="M257.77,10.92V10h4.85v1Zm4.82,5.5v1l-.5.11a4.58,4.58,0,0,1-.55,0,2.26,2.26,0,0,1-1.67-.61,2.35,2.35,0,0,1-.63-1.79V8l1.22-.43V15a2.11,2.11,0,0,0,.17.93,1,1,0,0,0,.47.46,1.83,1.83,0,0,0,.68.12l.4,0Z"/><path class="cls-6" d="M264,6.76h1.48V8.14H264Zm.12,10.74V10h1.21V17.5Z"/><path class="cls-6" d="M270.78,17.61a3.58,3.58,0,0,1-1.88-.48,3.35,3.35,0,0,1-1.25-1.36,4.65,4.65,0,0,1-.44-2.08,4.64,4.64,0,0,1,.44-2.07,3.32,3.32,0,0,1,1.25-1.37,4,4,0,0,1,3.76,0,3.32,3.32,0,0,1,1.25,1.37,4.64,4.64,0,0,1,.44,2.07,4.65,4.65,0,0,1-.44,2.08,3.35,3.35,0,0,1-1.25,1.36A3.58,3.58,0,0,1,270.78,17.61Zm0-1a2.12,2.12,0,0,0,1.72-.74,3.4,3.4,0,0,0,.6-2.17,3.32,3.32,0,0,0-.61-2.15,2.09,2.09,0,0,0-1.71-.75,2.12,2.12,0,0,0-1.72.75,3.32,3.32,0,0,0-.62,2.15,3.34,3.34,0,0,0,.61,2.17A2.11,2.11,0,0,0,270.78,16.6Z"/><path class="cls-6" d="M276.24,17.5V12.07c0-.35,0-.7,0-1.06s-.05-.71-.1-1h1.15l.14,1.55-.15.12a2.59,2.59,0,0,1,1.05-1.38A3,3,0,0,1,280,9.78c1.81,0,2.72,1,2.72,3V17.5H281.5V12.82a2.34,2.34,0,0,0-.42-1.54,1.67,1.67,0,0,0-1.32-.49,2.24,2.24,0,0,0-1.68.65,2.38,2.38,0,0,0-.63,1.74V17.5Z"/></g><g class="cls-7"><rect class="cls-6" x="287.55" y="5" width="18.8" height="16" rx="4"/></g><g class="cls-5"><path class="cls-8" d="M293.8,17.5v-.93l3.73-4.14a7.53,7.53,0,0,0,1.1-1.51A3,3,0,0,0,299,9.57a1.74,1.74,0,0,0-.51-1.36A2,2,0,0,0,297,7.74a4.09,4.09,0,0,0-1.53.3A6.07,6.07,0,0,0,294,9L293.51,8a4.63,4.63,0,0,1,1.59-1A5.5,5.5,0,0,1,297,6.7a3.79,3.79,0,0,1,1.68.34,2.55,2.55,0,0,1,1.11,1,2.79,2.79,0,0,1,.39,1.5,3.94,3.94,0,0,1-.42,1.77,8.55,8.55,0,0,1-1.37,1.9l-3.6,3.9-.09-.61h5.93v1Z"/></g></g></g></svg>