<svg xmlns="http://www.w3.org/2000/svg" viewBox="0 0 595.28 139.96"><defs><style>.cls-1{fill:none;}.cls-2{fill:#4a3d80;}.cls-3{fill:#5c4da0;}.cls-4{fill:#8c81bc;}.cls-5{isolation:isolate;}.cls-6{fill:#fff;}.cls-7{opacity:0.6;}.cls-8{fill:#010101;}.cls-9{fill:#afa7d1;}</style></defs><g id="Layer_2" data-name="Layer 2"><g id="Layer_1-2" data-name="Layer 1"><rect class="cls-1" width="595.28" height="18"/><path class="cls-2" d="M1,9A8,8,0,0,1,9,1h7l6,4h3l6-4H316.77V26H30.5l-6,4h-3l-6-4H9a8,8,0,0,1-8-8Z"/><path class="cls-3" d="M0,8A8,8,0,0,1,8,0h7l6,4h3l6-4H315.77V25H29.5l-6,4h-3l-6-4H8a8,8,0,0,1-8-8Z"/><path class="cls-4" d="M2.34,22.66A8,8,0,0,1,0,17V8H1v9A7,7,0,0,0,3.05,22ZM1,7.53,0,7.47A8,8,0,0,1,8,0h7.17l6,4h2.7l6-4H315.27V1H30.15l-6,4h-3.3l-6-4H8A7,7,0,0,0,1,7.53Z"/><g class="cls-5"><path class="cls-6" d="M13.72,17.6a4.38,4.38,0,0,1-3-1l.4-.9a4.11,4.11,0,0,0,1.24.68,4.23,4.23,0,0,0,1.42.22,2.37,2.37,0,0,0,1.29-.29,1,1,0,0,0,.44-.85.91.91,0,0,0-.29-.71,2.41,2.41,0,0,0-1-.43l-1.27-.3a2.78,2.78,0,0,1-1.46-.75A1.78,1.78,0,0,1,11,12a1.93,1.93,0,0,1,.36-1.16,2.37,2.37,0,0,1,1-.79,3.7,3.7,0,0,1,1.53-.29,4.46,4.46,0,0,1,1.5.26,3.23,3.23,0,0,1,1.18.73l-.41.89A3.87,3.87,0,0,0,15,11a3.29,3.29,0,0,0-1.17-.22,2.17,2.17,0,0,0-1.26.32,1,1,0,0,0-.44.85,1,1,0,0,0,.28.74,1.89,1.89,0,0,0,.89.42l1.28.31a2.93,2.93,0,0,1,1.56.75,1.77,1.77,0,0,1,.5,1.31A1.84,1.84,0,0,1,15.88,17,3.57,3.57,0,0,1,13.72,17.6Z"/><path class="cls-6" d="M18.61,17.5v-11h1.21v11Z"/><path class="cls-6" d="M28.36,16.6a3.48,3.48,0,0,1-1.27.73,4.73,4.73,0,0,1-1.58.27,4.16,4.16,0,0,1-2-.46,3.17,3.17,0,0,1-1.3-1.34,4.46,4.46,0,0,1-.46-2.1,4.45,4.45,0,0,1,.45-2,3.41,3.41,0,0,1,1.25-1.38,3.46,3.46,0,0,1,1.85-.5,3.21,3.21,0,0,1,1.73.45,2.77,2.77,0,0,1,1.1,1.26,4.6,4.6,0,0,1,.38,2v.23H22.8v-.8h5l-.39.56a3.17,3.17,0,0,0-.51-2,1.91,1.91,0,0,0-1.6-.7,2.11,2.11,0,0,0-1.72.77A3.36,3.36,0,0,0,23,13.63a3.32,3.32,0,0,0,.65,2.22,2.41,2.41,0,0,0,1.92.75,3.59,3.59,0,0,0,1.26-.22A3.8,3.8,0,0,0,28,15.71Z"/><path class="cls-6" d="M36.52,16.6a3.48,3.48,0,0,1-1.27.73,4.73,4.73,0,0,1-1.58.27,4.16,4.16,0,0,1-2-.46,3.17,3.17,0,0,1-1.3-1.34,4.46,4.46,0,0,1-.46-2.1,4.45,4.45,0,0,1,.45-2,3.41,3.41,0,0,1,1.25-1.38,3.46,3.46,0,0,1,1.85-.5,3.21,3.21,0,0,1,1.73.45,2.77,2.77,0,0,1,1.1,1.26,4.6,4.6,0,0,1,.38,2v.23H31v-.8h5l-.39.56a3.17,3.17,0,0,0-.51-2,1.91,1.91,0,0,0-1.6-.7,2.11,2.11,0,0,0-1.72.77,3.36,3.36,0,0,0-.62,2.14,3.32,3.32,0,0,0,.65,2.22,2.4,2.4,0,0,0,1.91.75A3.61,3.61,0,0,0,35,16.38a3.8,3.8,0,0,0,1.16-.67Z"/><path class="cls-6" d="M38.5,20.74V12.07c0-.35,0-.7,0-1.06s0-.71-.1-1.06h1.15l.14,1.56-.12.23a2.52,2.52,0,0,1,1-1.46,2.93,2.93,0,0,1,1.74-.51,3.12,3.12,0,0,1,1.75.5,3.35,3.35,0,0,1,1.19,1.38,4.78,4.78,0,0,1,.42,2.07,4.7,4.7,0,0,1-.42,2.06,3.1,3.1,0,0,1-2.94,1.82,2.93,2.93,0,0,1-1.74-.51,2.5,2.5,0,0,1-1-1.45l.16-.15v5.25ZM42,16.6a2.09,2.09,0,0,0,1.71-.75,3.28,3.28,0,0,0,.61-2.13,3.36,3.36,0,0,0-.61-2.15A2.06,2.06,0,0,0,42,10.79a2.09,2.09,0,0,0-1.73.75,3.38,3.38,0,0,0-.6,2.15,3.38,3.38,0,0,0,.6,2.15A2.07,2.07,0,0,0,42,16.6Z"/><path class="cls-6" d="M54.31,17.6a3.2,3.2,0,0,1-1.76-.47,3,3,0,0,1-1.17-1.35A4.7,4.7,0,0,1,51,13.72a4.78,4.78,0,0,1,.42-2.07,3.33,3.33,0,0,1,1.18-1.38,3.15,3.15,0,0,1,1.75-.5,2.94,2.94,0,0,1,1.75.51,2.54,2.54,0,0,1,1,1.46l-.18.12V10h1.2V17.5h-1.2V15.55l.18.09a2.51,2.51,0,0,1-1,1.45A2.94,2.94,0,0,1,54.31,17.6Zm.24-1a2,2,0,0,0,1.71-.76,3.38,3.38,0,0,0,.6-2.15,3.32,3.32,0,0,0-.61-2.15,2.06,2.06,0,0,0-1.7-.75,2.08,2.08,0,0,0-1.73.78,3.3,3.3,0,0,0-.63,2.15,3.22,3.22,0,0,0,.63,2.13A2.12,2.12,0,0,0,54.55,16.6Z"/><path class="cls-6" d="M60.41,17.5V12.07c0-.35,0-.7,0-1.06a9.5,9.5,0,0,0-.1-1.06h1.16l.13,1.56-.15.12a2.55,2.55,0,0,1,1-1.38,3,3,0,0,1,1.7-.48c1.81,0,2.71,1,2.71,3V17.5H65.68V12.82a2.34,2.34,0,0,0-.42-1.54,1.67,1.67,0,0,0-1.32-.49,2.24,2.24,0,0,0-1.68.65,2.38,2.38,0,0,0-.63,1.74V17.5Z"/><path class="cls-6" d="M75.83,17.5h-1.2v-2l.18.17a2.5,2.5,0,0,1-1,1.45,3,3,0,0,1-1.76.51,3.16,3.16,0,0,1-1.74-.48,3.26,3.26,0,0,1-1.18-1.38,4.86,4.86,0,0,1-.42-2.08,4.85,4.85,0,0,1,.41-2.06,3.1,3.1,0,0,1,2.93-1.83,3,3,0,0,1,1.76.52,2.56,2.56,0,0,1,1,1.45l-.19.15V6.46h1.21Zm-3.51-.9A2.07,2.07,0,0,0,74,15.84a3.38,3.38,0,0,0,.6-2.15,3.38,3.38,0,0,0-.6-2.14,2.07,2.07,0,0,0-1.71-.76,2.13,2.13,0,0,0-1.73.75A3.27,3.27,0,0,0,70,13.66a3.42,3.42,0,0,0,.62,2.17A2.12,2.12,0,0,0,72.32,16.6Z"/><path class="cls-6" d="M84.13,17.5,81.34,10h1.27l2.33,6.65h-.39L87,10H88l2.37,6.65H90L92.36,10h1.2L90.77,17.5H89.6l-2.49-6.8h.66L85.3,17.5Z"/><path class="cls-6" d="M97.94,17.6a3.22,3.22,0,0,1-1.76-.47A3.11,3.11,0,0,1,95,15.78a4.85,4.85,0,0,1-.41-2.06A4.78,4.78,0,0,1,95,11.65a3.26,3.26,0,0,1,1.18-1.38,3.09,3.09,0,0,1,1.74-.5,3,3,0,0,1,1.76.51,2.52,2.52,0,0,1,1,1.46l-.18.12V10h1.2V17.5h-1.2V15.55l.18.09a2.5,2.5,0,0,1-1,1.45A3,3,0,0,1,97.94,17.6Zm.24-1a2,2,0,0,0,1.71-.76,3.38,3.38,0,0,0,.6-2.15,3.38,3.38,0,0,0-.6-2.15,2.32,2.32,0,0,0-3.44,0,3.36,3.36,0,0,0-.62,2.15,3.28,3.28,0,0,0,.62,2.13A2.13,2.13,0,0,0,98.18,16.6Z"/><path class="cls-6" d="M104.05,17.5v-11h1.21v11Zm5.08,0L105,13.64l3.8-3.67h1.54l-4.2,4,0-.77,4.51,4.28Z"/><path class="cls-6" d="M117.82,16.6a3.48,3.48,0,0,1-1.27.73,4.73,4.73,0,0,1-1.58.27,4.16,4.16,0,0,1-2-.46,3.17,3.17,0,0,1-1.3-1.34,4.46,4.46,0,0,1-.46-2.1,4.45,4.45,0,0,1,.45-2,3.41,3.41,0,0,1,1.25-1.38,3.46,3.46,0,0,1,1.85-.5,3.21,3.21,0,0,1,1.73.45,2.77,2.77,0,0,1,1.1,1.26,4.6,4.6,0,0,1,.38,2v.23h-5.7v-.8h5l-.39.56a3.17,3.17,0,0,0-.51-2,1.91,1.91,0,0,0-1.6-.7,2.11,2.11,0,0,0-1.72.77,3.36,3.36,0,0,0-.62,2.14,3.32,3.32,0,0,0,.65,2.22,2.4,2.4,0,0,0,1.91.75,3.61,3.61,0,0,0,1.27-.22,3.8,3.8,0,0,0,1.16-.67Z"/><path class="cls-6" d="M126.83,17.6a3.6,3.6,0,0,1-1.88-.48,3.24,3.24,0,0,1-1.24-1.35,4.52,4.52,0,0,1-.45-2.08,4.51,4.51,0,0,1,.45-2.07A3.24,3.24,0,0,1,125,10.25a3.6,3.6,0,0,1,1.88-.48,3.64,3.64,0,0,1,1.89.48A3.24,3.24,0,0,1,130,11.62a4.51,4.51,0,0,1,.44,2.07,4.52,4.52,0,0,1-.44,2.08,3.24,3.24,0,0,1-1.24,1.35A3.64,3.64,0,0,1,126.83,17.6Zm0-1a2.11,2.11,0,0,0,1.72-.74,3.34,3.34,0,0,0,.61-2.17,3.32,3.32,0,0,0-.62-2.15,2.32,2.32,0,0,0-3.42,0,3.26,3.26,0,0,0-.63,2.15,3.4,3.4,0,0,0,.61,2.17A2.13,2.13,0,0,0,126.83,16.6Z"/><path class="cls-6" d="M132.29,17.5V12.07c0-.35,0-.7,0-1.06a9.5,9.5,0,0,0-.1-1.06h1.16l.13,1.56-.15.12a2.55,2.55,0,0,1,1.05-1.38,3,3,0,0,1,1.7-.48c1.81,0,2.71,1,2.71,3V17.5h-1.21V12.82a2.34,2.34,0,0,0-.42-1.54,1.67,1.67,0,0,0-1.32-.49,2.24,2.24,0,0,0-1.68.65,2.38,2.38,0,0,0-.63,1.74V17.5Z"/><path class="cls-6" d="M143.92,10.91V10h4.84v1Zm4.81,5.51v1a2.95,2.95,0,0,1-1,.15A2.29,2.29,0,0,1,146,17a2.37,2.37,0,0,1-.62-1.8V8l1.21-.44V15a2,2,0,0,0,.18.93,1,1,0,0,0,.47.46,1.78,1.78,0,0,0,.67.12,2.54,2.54,0,0,0,.41,0A2.59,2.59,0,0,0,148.73,16.42Z"/><path class="cls-6" d="M150.11,6.76h1.49V8.14h-1.49Zm.12,10.74V10h1.22V17.5Z"/><path class="cls-6" d="M153.8,17.5V12.07c0-.35,0-.7,0-1.06s-.05-.71-.1-1.06h1.16l.13,1.56-.15.11a2.57,2.57,0,0,1,.94-1.37,2.62,2.62,0,0,1,1.58-.48,2.51,2.51,0,0,1,1.71.54,2.67,2.67,0,0,1,.77,1.65l-.36-.19a2.59,2.59,0,0,1,1-1.46,2.87,2.87,0,0,1,1.75-.54,2.32,2.32,0,0,1,1.88.75,3.38,3.38,0,0,1,.63,2.24V17.5h-1.22V12.82a2.55,2.55,0,0,0-.37-1.54,1.43,1.43,0,0,0-1.19-.49,1.86,1.86,0,0,0-1.49.65,2.59,2.59,0,0,0-.55,1.75V17.5h-1.21V12.82a2.47,2.47,0,0,0-.39-1.54,1.43,1.43,0,0,0-1.19-.49,1.85,1.85,0,0,0-1.5.65,2.59,2.59,0,0,0-.55,1.75V17.5Z"/><path class="cls-6" d="M173.17,16.6a3.48,3.48,0,0,1-1.27.73,4.77,4.77,0,0,1-1.58.27,4.13,4.13,0,0,1-2-.46A3.11,3.11,0,0,1,167,15.8a4.46,4.46,0,0,1-.46-2.1,4.45,4.45,0,0,1,.45-2,3.34,3.34,0,0,1,1.25-1.38,3.46,3.46,0,0,1,1.85-.5,3.21,3.21,0,0,1,1.73.45,2.77,2.77,0,0,1,1.1,1.26,4.76,4.76,0,0,1,.38,2v.23h-5.7v-.8h5l-.39.56a3.17,3.17,0,0,0-.51-2,1.91,1.91,0,0,0-1.6-.7,2.1,2.1,0,0,0-1.72.77,3.31,3.31,0,0,0-.62,2.14,3.27,3.27,0,0,0,.65,2.22,2.4,2.4,0,0,0,1.91.75,3.65,3.65,0,0,0,1.27-.22,3.92,3.92,0,0,0,1.16-.67Z"/></g><g class="cls-7"><rect class="cls-6" x="178.35" y="5" width="64.23" height="16" rx="4"/></g><g class="cls-5"><path class="cls-8" d="M185.27,17.5v-1h5.95v1Zm2.35-.56V7.54l.71.36-2.9,1.84V8.56l2.73-1.74h.71V16.94Z"/><path class="cls-8" d="M197,17.6a5.34,5.34,0,0,1-1.92-.35,4.53,4.53,0,0,1-1.59-1l.47-.94a6.09,6.09,0,0,0,1.49.91,4,4,0,0,0,1.55.32,2.39,2.39,0,0,0,1.77-.64,2.34,2.34,0,0,0,.63-1.73,2.61,2.61,0,0,0-.28-1.24,2.13,2.13,0,0,0-.8-.83,2.44,2.44,0,0,0-1.23-.3,2.94,2.94,0,0,0-1.37.31,3,3,0,0,0-1.07.93h-.86V6.82h6.41v1H195v4.32l-.39-.05a3,3,0,0,1,1.12-1,3.39,3.39,0,0,1,1.54-.35,3.57,3.57,0,0,1,1.77.43,2.93,2.93,0,0,1,1.15,1.19,3.73,3.73,0,0,1,.41,1.77,3.56,3.56,0,0,1-.44,1.78,3.12,3.12,0,0,1-1.26,1.21A4,4,0,0,1,197,17.6Z"/><path class="cls-8" d="M202.52,17.5V12.07c0-.35,0-.7,0-1.06s-.05-.71-.1-1.06h1.15l.14,1.56-.15.11a2.52,2.52,0,0,1,.94-1.37,2.62,2.62,0,0,1,1.58-.48,2.46,2.46,0,0,1,1.7.54,2.62,2.62,0,0,1,.77,1.65l-.36-.19a2.61,2.61,0,0,1,1-1.46,2.87,2.87,0,0,1,1.75-.54,2.3,2.3,0,0,1,1.87.75,3.38,3.38,0,0,1,.63,2.24V17.5h-1.21V12.82a2.54,2.54,0,0,0-.38-1.54,1.41,1.41,0,0,0-1.18-.49,1.85,1.85,0,0,0-1.49.65,2.59,2.59,0,0,0-.55,1.75V17.5h-1.22V12.82a2.48,2.48,0,0,0-.38-1.54,1.43,1.43,0,0,0-1.19-.49,1.89,1.89,0,0,0-1.51.65,2.64,2.64,0,0,0-.55,1.75V17.5Z"/><path class="cls-8" d="M218.25,17.6a4.39,4.39,0,0,1-3-1l.4-.9a4.23,4.23,0,0,0,1.24.68,4.27,4.27,0,0,0,1.42.22,2.43,2.43,0,0,0,1.3-.29,1,1,0,0,0,.44-.85.89.89,0,0,0-.3-.71,2.3,2.3,0,0,0-1-.43l-1.28-.3A2.82,2.82,0,0,1,216,13.3a1.82,1.82,0,0,1-.52-1.29,1.93,1.93,0,0,1,.36-1.16,2.37,2.37,0,0,1,1-.79,3.76,3.76,0,0,1,1.53-.29,4.38,4.38,0,0,1,1.5.26,3.14,3.14,0,0,1,1.18.73l-.4.89a4.17,4.17,0,0,0-1.1-.67,3.38,3.38,0,0,0-1.18-.22,2.12,2.12,0,0,0-1.25.32,1,1,0,0,0-.45.85,1,1,0,0,0,.28.74,1.94,1.94,0,0,0,.89.42l1.28.31a3,3,0,0,1,1.57.75,1.81,1.81,0,0,1,.5,1.31,1.85,1.85,0,0,1-.8,1.56A3.57,3.57,0,0,1,218.25,17.6Z"/></g><g class="cls-5"><path class="cls-6" d="M248.63,6.76h1.49V8.14h-1.49Zm.12,10.74V10H250V17.5Z"/><path class="cls-6" d="M252.32,17.5V12.07c0-.35,0-.7,0-1.06a9.5,9.5,0,0,0-.1-1.06h1.16l.13,1.56-.15.12a2.55,2.55,0,0,1,1-1.38,3,3,0,0,1,1.7-.48c1.81,0,2.71,1,2.71,3V17.5h-1.21V12.82a2.34,2.34,0,0,0-.42-1.54,1.67,1.67,0,0,0-1.32-.49,2.24,2.24,0,0,0-1.68.65,2.38,2.38,0,0,0-.63,1.74V17.5Z"/><path class="cls-6" d="M260,10.91V10h4.85v1Zm4.82,5.51v1l-.5.12a4.68,4.68,0,0,1-.55,0,2.29,2.29,0,0,1-1.67-.6,2.37,2.37,0,0,1-.63-1.8V8l1.22-.44V15a2.11,2.11,0,0,0,.17.93,1,1,0,0,0,.47.46,1.83,1.83,0,0,0,.68.12,2.41,2.41,0,0,0,.4,0A2.69,2.69,0,0,0,264.85,16.42Z"/><path class="cls-6" d="M272.53,16.6a3.48,3.48,0,0,1-1.27.73,4.73,4.73,0,0,1-1.58.27,4.16,4.16,0,0,1-2-.46,3.17,3.17,0,0,1-1.3-1.34,4.46,4.46,0,0,1-.46-2.1,4.45,4.45,0,0,1,.45-2,3.41,3.41,0,0,1,1.25-1.38,3.46,3.46,0,0,1,1.85-.5,3.21,3.21,0,0,1,1.73.45,2.77,2.77,0,0,1,1.1,1.26,4.6,4.6,0,0,1,.38,2v.23H267v-.8h5l-.39.56a3.17,3.17,0,0,0-.51-2,1.91,1.91,0,0,0-1.6-.7,2.11,2.11,0,0,0-1.72.77,3.36,3.36,0,0,0-.62,2.14,3.32,3.32,0,0,0,.65,2.22,2.4,2.4,0,0,0,1.91.75,3.61,3.61,0,0,0,1.27-.22,3.8,3.8,0,0,0,1.16-.67Z"/><path class="cls-6" d="M274.51,17.5V12.07c0-.35,0-.7,0-1.06a9.47,9.47,0,0,0-.09-1.06h1.15l.17,1.86-.17,0a2.32,2.32,0,0,1,.91-1.49A2.61,2.61,0,0,1,278,9.77a2,2,0,0,1,.36,0,1.61,1.61,0,0,1,.33.06l0,1.11a2.45,2.45,0,0,0-.8-.12,1.94,1.94,0,0,0-1.94,1.23,3,3,0,0,0-.22,1.11V17.5Z"/><path class="cls-6" d="M282.61,17.5,279.4,10h1.27l2.73,6.64H283L285.8,10H287l-3.26,7.53Z"/><path class="cls-6" d="M291.16,17.6a3.2,3.2,0,0,1-1.76-.47,3.06,3.06,0,0,1-1.18-1.35,4.85,4.85,0,0,1-.41-2.06,4.78,4.78,0,0,1,.42-2.07,3.26,3.26,0,0,1,1.18-1.38,3.12,3.12,0,0,1,1.75-.5,2.94,2.94,0,0,1,1.75.51,2.54,2.54,0,0,1,1,1.46l-.18.12V10h1.2V17.5h-1.2V15.55l.18.09a2.51,2.51,0,0,1-1,1.45A2.94,2.94,0,0,1,291.16,17.6Zm.24-1a2,2,0,0,0,1.71-.76,3.38,3.38,0,0,0,.6-2.15,3.38,3.38,0,0,0-.61-2.15,2.07,2.07,0,0,0-1.7-.75,2.11,2.11,0,0,0-1.74.78,3.36,3.36,0,0,0-.62,2.15,3.28,3.28,0,0,0,.62,2.13A2.15,2.15,0,0,0,291.4,16.6Z"/><path class="cls-6" d="M297.26,17.5v-11h1.22v11Z"/><path class="cls-6" d="M303.38,17.6a4.39,4.39,0,0,1-3-1l.4-.9a4.11,4.11,0,0,0,1.24.68,4.23,4.23,0,0,0,1.42.22,2.37,2.37,0,0,0,1.29-.29,1,1,0,0,0,.45-.85.89.89,0,0,0-.3-.71,2.3,2.3,0,0,0-1-.43l-1.28-.3a2.78,2.78,0,0,1-1.46-.75,1.78,1.78,0,0,1-.52-1.29,1.93,1.93,0,0,1,.36-1.16,2.37,2.37,0,0,1,1-.79,3.76,3.76,0,0,1,1.53-.29A4.38,4.38,0,0,1,305,10a3.14,3.14,0,0,1,1.18.73l-.4.89a4.06,4.06,0,0,0-1.11-.67,3.29,3.29,0,0,0-1.17-.22,2.17,2.17,0,0,0-1.26.32,1,1,0,0,0-.44.85,1,1,0,0,0,.28.74,1.89,1.89,0,0,0,.89.42l1.28.31a2.93,2.93,0,0,1,1.56.75,1.78,1.78,0,0,1,.51,1.31,1.85,1.85,0,0,1-.8,1.56A3.57,3.57,0,0,1,303.38,17.6Z"/></g><polygon class="cls-8" points="233.6 17.31 238.58 8.69 228.63 8.69 233.6 17.31"/><rect class="cls-9" x="178.35" y="31.69" width="69.57" height="108.26" rx="5.67"/><g class="cls-5"><path class="cls-8" d="M184.67,44.56v-1h6v1ZM187,44V34.6l.7.36-2.89,1.85V35.62l2.73-1.74h.7V44Z"/><path class="cls-8" d="M196.42,44.67a5.57,5.57,0,0,1-1.92-.35,4.68,4.68,0,0,1-1.59-1l.46-1a6,6,0,0,0,1.5.92,4,4,0,0,0,1.55.31,2.38,2.38,0,0,0,1.76-.63,2.35,2.35,0,0,0,.64-1.74,2.54,2.54,0,0,0-.29-1.23,2,2,0,0,0-.8-.84,2.37,2.37,0,0,0-1.22-.3,3,3,0,0,0-1.37.31,3.09,3.09,0,0,0-1.08.94h-.85V33.88h6.4v1h-5.17v4.32l-.39,0a2.94,2.94,0,0,1,1.12-1,3.31,3.31,0,0,1,1.53-.34,3.46,3.46,0,0,1,1.77.43,2.89,2.89,0,0,1,1.16,1.19,3.73,3.73,0,0,1,.4,1.77,3.48,3.48,0,0,1-.44,1.78,3.08,3.08,0,0,1-1.25,1.2A4,4,0,0,1,196.42,44.67Z"/><path class="cls-8" d="M205.84,44.56V39.13c0-.35,0-.7,0-1.05s0-.71-.1-1.06h1.15l.14,1.56-.15.1a2.49,2.49,0,0,1,.94-1.36,2.62,2.62,0,0,1,1.58-.48,2.46,2.46,0,0,1,1.7.54,2.62,2.62,0,0,1,.77,1.65l-.36-.2a2.58,2.58,0,0,1,1-1.45,2.87,2.87,0,0,1,1.75-.54,2.33,2.33,0,0,1,1.87.74,3.4,3.4,0,0,1,.63,2.24v4.74H215.5V39.88a2.49,2.49,0,0,0-.38-1.53,1.38,1.38,0,0,0-1.18-.49,1.84,1.84,0,0,0-1.49.64,2.61,2.61,0,0,0-.55,1.76v4.3h-1.22V39.88a2.42,2.42,0,0,0-.38-1.53,1.4,1.4,0,0,0-1.19-.49,1.88,1.88,0,0,0-1.51.64,2.67,2.67,0,0,0-.55,1.76v4.3Z"/><path class="cls-8" d="M221.57,44.67a4.4,4.4,0,0,1-3-1l.4-.9a4,4,0,0,0,2.66.9,2.34,2.34,0,0,0,1.3-.29,1,1,0,0,0,.44-.85.9.9,0,0,0-.3-.71,2.42,2.42,0,0,0-1-.43l-1.28-.3a2.82,2.82,0,0,1-1.46-.75,1.82,1.82,0,0,1-.52-1.29,2,2,0,0,1,.36-1.16,2.45,2.45,0,0,1,1-.79,3.77,3.77,0,0,1,1.53-.28,4.37,4.37,0,0,1,1.5.25,3.16,3.16,0,0,1,1.18.74l-.4.88a3.87,3.87,0,0,0-1.1-.66,3.17,3.17,0,0,0-1.18-.22,2.12,2.12,0,0,0-1.25.31A1,1,0,0,0,220,39a1,1,0,0,0,.28.73,1.94,1.94,0,0,0,.89.42l1.28.32a3.07,3.07,0,0,1,1.57.74,1.94,1.94,0,0,1-.3,2.87A3.57,3.57,0,0,1,221.57,44.67Z"/><path class="cls-8" d="M187.15,62.67a5.83,5.83,0,0,1-2-.35,4.56,4.56,0,0,1-1.61-1l.48-1a5.52,5.52,0,0,0,1.48.93,4.38,4.38,0,0,0,1.61.3,2.57,2.57,0,0,0,1.73-.51,1.85,1.85,0,0,0,.59-1.5,1.75,1.75,0,0,0-.61-1.47,2.92,2.92,0,0,0-1.85-.49h-1.23v-1h1a2.78,2.78,0,0,0,1.82-.52,1.84,1.84,0,0,0,.63-1.5,1.7,1.7,0,0,0-.52-1.34,2.1,2.1,0,0,0-1.46-.46,4,4,0,0,0-1.55.31,5.54,5.54,0,0,0-1.48.92l-.47-1a4.51,4.51,0,0,1,1.59-1,5.43,5.43,0,0,1,1.95-.36,4,4,0,0,1,1.68.34,2.59,2.59,0,0,1,1.11.95,3,3,0,0,1-.14,3.15,2.59,2.59,0,0,1-1.42.95l0-.15a2.79,2.79,0,0,1,1.65.91,2.68,2.68,0,0,1,.57,1.76,2.75,2.75,0,0,1-.95,2.2A3.85,3.85,0,0,1,187.15,62.67Z"/><path class="cls-8" d="M196.25,62.68a3.17,3.17,0,0,1-2.78-1.38,7.28,7.28,0,0,1-.95-4.08,7.25,7.25,0,0,1,.94-4.07,3.5,3.5,0,0,1,5.58,0,7.23,7.23,0,0,1,1,4.06,7.28,7.28,0,0,1-1,4.08A3.17,3.17,0,0,1,196.25,62.68Zm0-1a2,2,0,0,0,1.89-1.08,7.19,7.19,0,0,0,.6-3.36,7.07,7.07,0,0,0-.6-3.34,2,2,0,0,0-1.89-1.06,2,2,0,0,0-1.88,1.07,7,7,0,0,0-.61,3.33,7.17,7.17,0,0,0,.61,3.36A2,2,0,0,0,196.25,61.65Z"/><path class="cls-8" d="M205.84,62.56V57.13c0-.35,0-.7,0-1.05s0-.71-.1-1.06h1.15l.14,1.56-.15.1a2.49,2.49,0,0,1,.94-1.36,2.62,2.62,0,0,1,1.58-.48,2.46,2.46,0,0,1,1.7.54,2.62,2.62,0,0,1,.77,1.65l-.36-.2a2.58,2.58,0,0,1,1-1.45,2.87,2.87,0,0,1,1.75-.54,2.33,2.33,0,0,1,1.87.74,3.4,3.4,0,0,1,.63,2.24v4.74H215.5V57.88a2.49,2.49,0,0,0-.38-1.53,1.38,1.38,0,0,0-1.18-.49,1.84,1.84,0,0,0-1.49.64,2.61,2.61,0,0,0-.55,1.76v4.3h-1.22V57.88a2.42,2.42,0,0,0-.38-1.53,1.4,1.4,0,0,0-1.19-.49,1.88,1.88,0,0,0-1.51.64,2.67,2.67,0,0,0-.55,1.76v4.3Z"/><path class="cls-8" d="M221.57,62.67a4.4,4.4,0,0,1-3-1l.4-.9a4,4,0,0,0,2.66.9,2.34,2.34,0,0,0,1.3-.29,1,1,0,0,0,.44-.85.9.9,0,0,0-.3-.71,2.42,2.42,0,0,0-1-.43l-1.28-.3a2.82,2.82,0,0,1-1.46-.75,1.82,1.82,0,0,1-.52-1.29,2,2,0,0,1,.36-1.16,2.45,2.45,0,0,1,1-.79,3.77,3.77,0,0,1,1.53-.28,4.37,4.37,0,0,1,1.5.25,3.16,3.16,0,0,1,1.18.74l-.4.88a3.87,3.87,0,0,0-1.1-.66,3.17,3.17,0,0,0-1.18-.22,2.12,2.12,0,0,0-1.25.31A1,1,0,0,0,220,57a1,1,0,0,0,.28.73,1.94,1.94,0,0,0,.89.42l1.28.32a3.07,3.07,0,0,1,1.57.74,1.94,1.94,0,0,1-.3,2.87A3.57,3.57,0,0,1,221.57,62.67Z"/><path class="cls-8" d="M183.71,79h1.55v1.54h-1.55Z"/><path class="cls-8" d="M183.71,97h1.55v1.54h-1.55Z"/><path class="cls-8" d="M188.41,116.56v-9.13h.37l-4.44,6.4,0-.61h6.9v1h-7.77v-.93l5.14-7.43h1v10.68Z"/><path class="cls-8" d="M196.25,116.68a3.17,3.17,0,0,1-2.78-1.38,9.26,9.26,0,0,1,0-8.15,3.5,3.5,0,0,1,5.58,0,9.19,9.19,0,0,1,0,8.14A3.17,3.17,0,0,1,196.25,116.68Zm0-1a2,2,0,0,0,1.89-1.08,7.19,7.19,0,0,0,.6-3.36,7.07,7.07,0,0,0-.6-3.34,2,2,0,0,0-1.89-1.06,2,2,0,0,0-1.88,1.07,7,7,0,0,0-.61,3.33,7.17,7.17,0,0,0,.61,3.36A2,2,0,0,0,196.25,115.65Z"/><path class="cls-8" d="M205.25,116.68a3.17,3.17,0,0,1-2.78-1.38,9.26,9.26,0,0,1,0-8.15,3.5,3.5,0,0,1,5.58,0,9.19,9.19,0,0,1,0,8.14A3.17,3.17,0,0,1,205.25,116.68Zm0-1a2,2,0,0,0,1.89-1.08,7.19,7.19,0,0,0,.6-3.36,7.07,7.07,0,0,0-.6-3.34,2,2,0,0,0-1.89-1.06,2,2,0,0,0-1.88,1.07,7,7,0,0,0-.61,3.33,7.17,7.17,0,0,0,.61,3.36A2,2,0,0,0,205.25,115.65Z"/><path class="cls-8" d="M214.25,116.68a3.17,3.17,0,0,1-2.78-1.38,9.26,9.26,0,0,1,0-8.15,3.5,3.5,0,0,1,5.58,0,9.19,9.19,0,0,1,0,8.14A3.17,3.17,0,0,1,214.25,116.68Zm0-1a2,2,0,0,0,1.89-1.08,7.19,7.19,0,0,0,.6-3.36,7.07,7.07,0,0,0-.6-3.34,2,2,0,0,0-1.89-1.06,2,2,0,0,0-1.88,1.07,7,7,0,0,0-.61,3.33,7.17,7.17,0,0,0,.61,3.36A2,2,0,0,0,214.25,115.65Z"/><path class="cls-8" d="M223.84,116.56v-5.43c0-.35,0-.7,0-1s0-.71-.1-1.06h1.15l.14,1.56-.15.1a2.49,2.49,0,0,1,.94-1.36,2.62,2.62,0,0,1,1.58-.48,2.46,2.46,0,0,1,1.7.54,2.62,2.62,0,0,1,.77,1.65l-.36-.2a2.58,2.58,0,0,1,1-1.45,2.87,2.87,0,0,1,1.75-.54,2.33,2.33,0,0,1,1.87.74,3.4,3.4,0,0,1,.63,2.24v4.74H233.5v-4.68a2.49,2.49,0,0,0-.38-1.53,1.38,1.38,0,0,0-1.18-.49,1.84,1.84,0,0,0-1.49.64,2.61,2.61,0,0,0-.55,1.76v4.3h-1.22v-4.68a2.42,2.42,0,0,0-.38-1.53,1.4,1.4,0,0,0-1.19-.49,1.88,1.88,0,0,0-1.51.64,2.67,2.67,0,0,0-.55,1.76v4.3Z"/><path class="cls-8" d="M239.57,116.67a4.4,4.4,0,0,1-3-1l.4-.9a4,4,0,0,0,2.66.9,2.34,2.34,0,0,0,1.3-.29,1,1,0,0,0,.44-.85.9.9,0,0,0-.3-.71,2.42,2.42,0,0,0-1-.43l-1.28-.3a2.82,2.82,0,0,1-1.46-.75,1.82,1.82,0,0,1-.52-1.29,2,2,0,0,1,.36-1.16,2.45,2.45,0,0,1,1-.79,3.77,3.77,0,0,1,1.53-.28,4.37,4.37,0,0,1,1.5.25,3.16,3.16,0,0,1,1.18.74l-.4.88a3.87,3.87,0,0,0-1.1-.66,3.17,3.17,0,0,0-1.18-.22,2.12,2.12,0,0,0-1.25.31,1,1,0,0,0-.45.86,1,1,0,0,0,.28.73,1.94,1.94,0,0,0,.89.42l1.28.32a3.07,3.07,0,0,1,1.57.74,1.94,1.94,0,0,1-.3,2.87A3.57,3.57,0,0,1,239.57,116.67Z"/><path class="cls-8" d="M187.25,134.67a5.37,5.37,0,0,1-2-.35,3.07,3.07,0,0,1-1.33-1,2.65,2.65,0,0,1-.47-1.57,2.49,2.49,0,0,1,.75-1.85,3.48,3.48,0,0,1,2-.91l-.08.22a3.16,3.16,0,0,1-1.8-.91,2.37,2.37,0,0,1-.64-1.68,2.5,2.5,0,0,1,.46-1.51,2.91,2.91,0,0,1,1.26-1,4.64,4.64,0,0,1,1.86-.35,4.69,4.69,0,0,1,1.87.35,2.91,2.91,0,0,1,1.26,1,2.5,2.5,0,0,1,.46,1.51,2.41,2.41,0,0,1-.64,1.69,3.09,3.09,0,0,1-1.79.9l-.09-.22a3.4,3.4,0,0,1,2,.92,2.52,2.52,0,0,1,.73,1.84,2.65,2.65,0,0,1-.47,1.57,3.07,3.07,0,0,1-1.33,1A5.42,5.42,0,0,1,187.25,134.67Zm0-1a3.18,3.18,0,0,0,1.94-.51,1.75,1.75,0,0,0,.67-1.49,1.65,1.65,0,0,0-.73-1.43,4,4,0,0,0-1.88-.64,4,4,0,0,0-1.87.64,1.66,1.66,0,0,0-.74,1.43,1.76,1.76,0,0,0,.68,1.49A3.15,3.15,0,0,0,187.25,133.65Zm0-4.92a3.29,3.29,0,0,0,1.71-.65,1.85,1.85,0,0,0,0-2.79,2.69,2.69,0,0,0-1.74-.51,2.66,2.66,0,0,0-1.73.51,1.85,1.85,0,0,0,0,2.79A3.25,3.25,0,0,0,187.25,128.73Z"/><path class="cls-8" d="M196.25,134.68a3.17,3.17,0,0,1-2.78-1.38,9.26,9.26,0,0,1,0-8.15,3.5,3.5,0,0,1,5.58,0,9.19,9.19,0,0,1,0,8.14A3.17,3.17,0,0,1,196.25,134.68Zm0-1a2,2,0,0,0,1.89-1.08,7.19,7.19,0,0,0,.6-3.36,7.07,7.07,0,0,0-.6-3.34,2,2,0,0,0-1.89-1.06,2,2,0,0,0-1.88,1.07,7,7,0,0,0-.61,3.33,7.17,7.17,0,0,0,.61,3.36A2,2,0,0,0,196.25,133.65Z"/><path class="cls-8" d="M205.25,134.68a3.17,3.17,0,0,1-2.78-1.38,9.26,9.26,0,0,1,0-8.15,3.5,3.5,0,0,1,5.58,0,9.19,9.19,0,0,1,0,8.14A3.17,3.17,0,0,1,205.25,134.68Zm0-1a2,2,0,0,0,1.89-1.08,7.19,7.19,0,0,0,.6-3.36,7.07,7.07,0,0,0-.6-3.34,2,2,0,0,0-1.89-1.06,2,2,0,0,0-1.88,1.07,7,7,0,0,0-.61,3.33,7.17,7.17,0,0,0,.61,3.36A2,2,0,0,0,205.25,133.65Z"/><path class="cls-8" d="M214.25,134.68a3.17,3.17,0,0,1-2.78-1.38,9.26,9.26,0,0,1,0-8.15,3.5,3.5,0,0,1,5.58,0,9.19,9.19,0,0,1,0,8.14A3.17,3.17,0,0,1,214.25,134.68Zm0-1a2,2,0,0,0,1.89-1.08,7.19,7.19,0,0,0,.6-3.36,7.07,7.07,0,0,0-.6-3.34,2,2,0,0,0-1.89-1.06,2,2,0,0,0-1.88,1.07,7,7,0,0,0-.61,3.33,7.17,7.17,0,0,0,.61,3.36A2,2,0,0,0,214.25,133.65Z"/><path class="cls-8" d="M223.84,134.56v-5.43c0-.35,0-.7,0-1s0-.71-.1-1.06h1.15l.14,1.56-.15.1a2.49,2.49,0,0,1,.94-1.36,2.62,2.62,0,0,1,1.58-.48,2.46,2.46,0,0,1,1.7.54,2.62,2.62,0,0,1,.77,1.65l-.36-.2a2.58,2.58,0,0,1,1-1.45,2.87,2.87,0,0,1,1.75-.54,2.33,2.33,0,0,1,1.87.74,3.4,3.4,0,0,1,.63,2.24v4.74H233.5v-4.68a2.49,2.49,0,0,0-.38-1.53,1.38,1.38,0,0,0-1.18-.49,1.84,1.84,0,0,0-1.49.64,2.61,2.61,0,0,0-.55,1.76v4.3h-1.22v-4.68a2.42,2.42,0,0,0-.38-1.53,1.4,1.4,0,0,0-1.19-.49,1.88,1.88,0,0,0-1.51.64,2.67,2.67,0,0,0-.55,1.76v4.3Z"/><path class="cls-8" d="M239.57,134.67a4.4,4.4,0,0,1-3-1l.4-.9a4,4,0,0,0,2.66.9,2.34,2.34,0,0,0,1.3-.29,1,1,0,0,0,.44-.85.9.9,0,0,0-.3-.71,2.42,2.42,0,0,0-1-.43l-1.28-.3a2.82,2.82,0,0,1-1.46-.75,1.82,1.82,0,0,1-.52-1.29,2,2,0,0,1,.36-1.16,2.45,2.45,0,0,1,1-.79,3.77,3.77,0,0,1,1.53-.28,4.37,4.37,0,0,1,1.5.25,3.16,3.16,0,0,1,1.18.74l-.4.88a3.87,3.87,0,0,0-1.1-.66,3.17,3.17,0,0,0-1.18-.22,2.12,2.12,0,0,0-1.25.31,1,1,0,0,0-.45.86,1,1,0,0,0,.28.73,1.94,1.94,0,0,0,.89.42l1.28.32a3.07,3.07,0,0,1,1.57.74,1.94,1.94,0,0,1-.3,2.87A3.57,3.57,0,0,1,239.57,134.67Z"/></g><polygon class="cls-8" points="238.62 44.38 243.6 35.75 233.64 35.75 238.62 44.38"/></g></g></svg>