<svg xmlns="http://www.w3.org/2000/svg" viewBox="0 0 595.28 60.69"><defs><style>.cls-1{fill:#5c4da0;}.cls-2{fill:#ededee;}.cls-3{fill:#231f20;}.cls-4{fill:#fee178;}.cls-5{fill:#fec446;}.cls-6{fill:#3a318b;}</style></defs><g id="Layer_2" data-name="Layer 2"><g id="Layer_1-2" data-name="Layer 1"><rect class="cls-1" y="4" width="595.28" height="56.69" rx="11.34"/><rect class="cls-2" width="595.28" height="56.69" rx="11.34"/><path class="cls-3" d="M93.91,39.13a20.92,20.92,0,0,1-3.78-.34,15.56,15.56,0,0,1-3.37-1A11.83,11.83,0,0,1,84,36.1l1.54-3.38a13.79,13.79,0,0,0,4,2.09,14.5,14.5,0,0,0,4.43.65,7.64,7.64,0,0,0,4.12-.94,2.94,2.94,0,0,0,1.46-2.63,2.26,2.26,0,0,0-.65-1.67,5.13,5.13,0,0,0-1.94-1.14,28.08,28.08,0,0,0-3.2-.9,24.76,24.76,0,0,1-4-1.06,11.4,11.4,0,0,1-2.88-1.49,5.85,5.85,0,0,1-1.75-2.07,6.52,6.52,0,0,1-.59-2.86,7,7,0,0,1,1.22-4,8.18,8.18,0,0,1,3.44-2.75,12.66,12.66,0,0,1,5.2-1,17,17,0,0,1,3.51.36,14.37,14.37,0,0,1,3.15,1,9.58,9.58,0,0,1,2.49,1.63l-1.59,3.39a12,12,0,0,0-3.6-2.07,11.41,11.41,0,0,0-3.92-.67,6.73,6.73,0,0,0-3.92,1,3.24,3.24,0,0,0-1.44,2.81,2.54,2.54,0,0,0,.59,1.73,4.55,4.55,0,0,0,1.84,1.15,27.47,27.47,0,0,0,3.18.93,34.57,34.57,0,0,1,4,1.08,12.84,12.84,0,0,1,3,1.46,5.45,5.45,0,0,1,2.48,4.81,6.69,6.69,0,0,1-1.22,4,7.74,7.74,0,0,1-3.51,2.63A14.62,14.62,0,0,1,93.91,39.13Z"/><path class="cls-3" d="M108.09,38.84V12.34h4.5v26.5Z"/><path class="cls-3" d="M133.07,36.82a9.25,9.25,0,0,1-3.18,1.68,12.92,12.92,0,0,1-3.84.59A10.92,10.92,0,0,1,121,38a7.81,7.81,0,0,1-3.3-3.24,10.54,10.54,0,0,1-1.15-5,10.45,10.45,0,0,1,1.12-4.95,8.29,8.29,0,0,1,3.1-3.35,8.52,8.52,0,0,1,4.57-1.21,8.16,8.16,0,0,1,4.32,1.1,7.28,7.28,0,0,1,2.79,3.15,11.09,11.09,0,0,1,1,4.86V30H120.47l0-2.41h10.22l-1.22,1.23a6.28,6.28,0,0,0-1-4,3.65,3.65,0,0,0-3.07-1.37A4,4,0,0,0,122.06,25a7,7,0,0,0-1.19,4.38,7.13,7.13,0,0,0,1.33,4.77,5.06,5.06,0,0,0,4,1.53,9,9,0,0,0,2.9-.49,9.31,9.31,0,0,0,2.65-1.42Z"/><path class="cls-3" d="M152.8,36.82a9.3,9.3,0,0,1-3.19,1.68,12.86,12.86,0,0,1-3.83.59A10.89,10.89,0,0,1,140.69,38a7.81,7.81,0,0,1-3.3-3.24,10.42,10.42,0,0,1-1.15-5,10.45,10.45,0,0,1,1.12-4.95,8.27,8.27,0,0,1,3.09-3.35A8.57,8.57,0,0,1,145,20.19a8.16,8.16,0,0,1,4.32,1.1,7.28,7.28,0,0,1,2.79,3.15,11.09,11.09,0,0,1,1,4.86V30H140.2l0-2.41h10.22l-1.22,1.23a6.28,6.28,0,0,0-1-4,3.67,3.67,0,0,0-3.08-1.37A4,4,0,0,0,141.78,25a7,7,0,0,0-1.18,4.38,7.13,7.13,0,0,0,1.33,4.77,5.06,5.06,0,0,0,4,1.53,9.15,9.15,0,0,0,5.54-1.91Z"/><path class="cls-3" d="M156.9,46.62V25.81c0-.84,0-1.7-.05-2.58s-.11-1.73-.23-2.57h4.24l.4,3.6-.25.22a5.42,5.42,0,0,1,2.27-3.15,7,7,0,0,1,4-1.14,7.39,7.39,0,0,1,4.2,1.21,8.26,8.26,0,0,1,2.86,3.35,11.39,11.39,0,0,1,1,5,11.14,11.14,0,0,1-1,4.95A7.92,7.92,0,0,1,171.48,38a7.77,7.77,0,0,1-4.21,1.13,7.09,7.09,0,0,1-4-1.1A5.3,5.3,0,0,1,161,34.88l.39-.58V46.62Zm9.22-11a4.18,4.18,0,0,0,3.46-1.53,6.84,6.84,0,0,0,1.22-4.34,7.22,7.22,0,0,0-1.22-4.47,4.14,4.14,0,0,0-3.46-1.58,4.19,4.19,0,0,0-3.51,1.53,7.09,7.09,0,0,0-1.21,4.45,7,7,0,0,0,1.21,4.39A4.18,4.18,0,0,0,166.12,35.64Z"/><path class="cls-4" d="M58.78,36.91c-.23.23-.47.23-.72.44a17.05,17.05,0,0,1-12.55,4.3,17.65,17.65,0,0,1-11.15-5,17.14,17.14,0,0,1-.25-23.94c.21-.22.43-.28.66-.49a.81.81,0,0,0-.87-1.33c-.42.17-.6.21-1,.41a20.19,20.19,0,0,0,7.79,38.24,19.49,19.49,0,0,0,15.14-5.88,20.23,20.23,0,0,0,4.46-6.56c.34-.83-.48-1.28-1.1-.63C59.05,36.64,58.91,36.78,58.78,36.91Z"/><path class="cls-5" d="M32.65,12.09l-.65.65A17.1,17.1,0,0,0,45.51,41.65,17.11,17.11,0,0,1,34.34,12.74l.66-.65a.81.81,0,0,0-.86-1.33c-.43.18-.84.37-1.25.57a.77.77,0,0,1-.24.76Z"/><path class="cls-5" d="M59.17,36.27c-.12.14-.26.27-.39.41s-.47.45-.72.67A20.2,20.2,0,0,1,40.67,49.57,20.23,20.23,0,0,0,60.51,37.13a.81.81,0,0,0-1.34-.86Z"/><path class="cls-6" d="M46.79,27.48l.62,1.08a.24.24,0,0,1-.08.33l-.65.37H45l.85-1.49.65-.37A.24.24,0,0,1,46.79,27.48Z"/><path class="cls-6" d="M42.73,22.42l.9,6.61.81-5.52a.3.3,0,0,0,0-.16l-.7-1.21a.24.24,0,0,0-.33-.09Z"/><path class="cls-1" d="M45.81,27.76l.87,1.5-3.85,2.22a.24.24,0,0,1-.33-.08l-.7-1.22a.21.21,0,0,1,0-.15l.81-5.52-2.84,1.63a.23.23,0,0,1-.32-.08L38.79,25a.24.24,0,0,1,.09-.32l3.85-2.23.86,1.5,0,5.11Z"/><path class="cls-6" d="M54.15,21.72l.52,2a.14.14,0,0,1-.09.17l-1.3.35-1.73-.74L52.68,22l1.3-.35A.14.14,0,0,1,54.15,21.72Z"/><path class="cls-6" d="M50.6,14.2l-.91,8.57,2.92-6.67a.28.28,0,0,0,0-.09L52.06,14a.13.13,0,0,0-.16-.1Z"/><path class="cls-1" d="M52.68,22l.6,2.24-5.73,1.53a.14.14,0,0,1-.17-.1l-.55-2.06a.14.14,0,0,1,0-.09l2.92-6.66L45.47,18a.14.14,0,0,1-.17-.09l-.53-2a.15.15,0,0,1,.1-.17L50.6,14.2l.6,2.24-1.51,6.33Z"/><path class="cls-6" d="M63.19,17.3v2.36a.25.25,0,0,1-.25.25H61.71l-1.48-1.43,1.48-1.43h1.23A.25.25,0,0,1,63.19,17.3Z"/><path class="cls-6" d="M61.71,7.09l-4.23,10,5.65-7a.25.25,0,0,0,.06-.16V7.34a.25.25,0,0,0-.25-.25Z"/><path class="cls-1" d="M61.71,17.05v2.86H54.07a.25.25,0,0,1-.25-.25V17.14a.3.3,0,0,1,0-.16l5.65-7H54.07a.25.25,0,0,1-.25-.25V7.34a.25.25,0,0,1,.25-.25h7.64V10l-4.23,7.1Z"/></g></g></svg>