<svg xmlns="http://www.w3.org/2000/svg" viewBox="0 0 595.28 42.52"><defs><style>.cls-1{fill:#231f20;}.cls-2{fill:#fee178;}.cls-3{fill:#fec446;}.cls-4{fill:#3a318b;}.cls-5{fill:#5c4da0;}.cls-6{fill:none;}</style></defs><g id="Layer_2" data-name="Layer 2"><g id="Layer_1-2" data-name="Layer 1"><path class="cls-1" d="M95.13,34.94a20.06,20.06,0,0,1-3.78-.34,15.48,15.48,0,0,1-3.36-1,11.67,11.67,0,0,1-2.76-1.65l1.55-3.39a13.79,13.79,0,0,0,4,2.09,14.45,14.45,0,0,0,4.43.65,7.57,7.57,0,0,0,4.12-.94,3,3,0,0,0,1.46-2.63A2.3,2.3,0,0,0,100.1,26a5.12,5.12,0,0,0-1.94-1.13A25.14,25.14,0,0,0,95,24a26,26,0,0,1-4-1.07,10.77,10.77,0,0,1-2.88-1.49,5.85,5.85,0,0,1-1.75-2.07,6.35,6.35,0,0,1-.59-2.86,6.85,6.85,0,0,1,1.22-4A8.07,8.07,0,0,1,90.4,9.72a12.63,12.63,0,0,1,5.2-1,17,17,0,0,1,3.51.36,14.37,14.37,0,0,1,3.15,1,9.15,9.15,0,0,1,2.48,1.64l-1.58,3.38a12,12,0,0,0-3.6-2.07,11.74,11.74,0,0,0-3.92-.67,6.77,6.77,0,0,0-3.93,1,3.24,3.24,0,0,0-1.44,2.81,2.53,2.53,0,0,0,.6,1.73A4.44,4.44,0,0,0,92.7,19.1a29.62,29.62,0,0,0,3.19.94,31.86,31.86,0,0,1,4,1.08,12.45,12.45,0,0,1,3,1.45,5.9,5.9,0,0,1,1.85,2,5.81,5.81,0,0,1,.63,2.79,6.73,6.73,0,0,1-1.22,4A7.74,7.74,0,0,1,100.59,34,14.72,14.72,0,0,1,95.13,34.94Z"/><path class="cls-1" d="M109.32,34.65V8.16h4.5V34.65Z"/><path class="cls-1" d="M134.3,32.64a9.38,9.38,0,0,1-3.19,1.67,12.59,12.59,0,0,1-3.83.59,11,11,0,0,1-5.1-1.11,7.85,7.85,0,0,1-3.29-3.24,10.42,10.42,0,0,1-1.15-5,10.62,10.62,0,0,1,1.11-5,8.36,8.36,0,0,1,3.1-3.35A8.64,8.64,0,0,1,126.52,16a8.16,8.16,0,0,1,4.32,1.1,7.28,7.28,0,0,1,2.79,3.15,11.09,11.09,0,0,1,1,4.86v.69H121.7l0-2.42H132l-1.23,1.23a6.24,6.24,0,0,0-1-4,3.68,3.68,0,0,0-3.08-1.37,4,4,0,0,0-3.35,1.53,7,7,0,0,0-1.19,4.38,7.13,7.13,0,0,0,1.34,4.77,5,5,0,0,0,4,1.53,8.79,8.79,0,0,0,2.9-.49A9.25,9.25,0,0,0,133,29.54Z"/><path class="cls-1" d="M154,32.64a9.38,9.38,0,0,1-3.19,1.67,12.59,12.59,0,0,1-3.83.59,11,11,0,0,1-5.1-1.11,7.79,7.79,0,0,1-3.29-3.24,10.42,10.42,0,0,1-1.15-5,10.62,10.62,0,0,1,1.11-5,8.36,8.36,0,0,1,3.1-3.35A8.64,8.64,0,0,1,146.25,16a8.16,8.16,0,0,1,4.32,1.1,7.28,7.28,0,0,1,2.79,3.15,11.09,11.09,0,0,1,1,4.86v.69H141.43l0-2.42h10.23l-1.23,1.23a6.3,6.3,0,0,0-1-4,3.68,3.68,0,0,0-3.08-1.37A4,4,0,0,0,143,20.77a7,7,0,0,0-1.19,4.38,7.19,7.19,0,0,0,1.33,4.77,5.08,5.08,0,0,0,4,1.53,8.69,8.69,0,0,0,2.89-.49,9.31,9.31,0,0,0,2.65-1.42Z"/><path class="cls-1" d="M158.13,42.43V21.62c0-.84,0-1.7,0-2.57s-.12-1.74-.24-2.58h4.25l.4,3.6-.26.22a5.46,5.46,0,0,1,2.27-3.15,7,7,0,0,1,4-1.14,7.44,7.44,0,0,1,4.19,1.21,8.18,8.18,0,0,1,2.86,3.35,11.28,11.28,0,0,1,1,5,10.94,10.94,0,0,1-1,5,7.83,7.83,0,0,1-2.84,3.24,7.69,7.69,0,0,1-4.21,1.13,7.2,7.2,0,0,1-4-1.09,5.36,5.36,0,0,1-2.27-3.12l.4-.57V42.43Zm9.22-11a4.16,4.16,0,0,0,3.45-1.53A6.78,6.78,0,0,0,172,25.58a7.11,7.11,0,0,0-1.23-4.46,4.1,4.1,0,0,0-3.45-1.59,4.19,4.19,0,0,0-3.51,1.53,7,7,0,0,0-1.21,4.45,7,7,0,0,0,1.21,4.39A4.18,4.18,0,0,0,167.35,31.45Z"/><path class="cls-2" d="M58.78,29.82c-.23.24-.47.23-.72.45a17.08,17.08,0,0,1-12.55,4.29,17.6,17.6,0,0,1-11.15-5,17.14,17.14,0,0,1-.25-23.94c.21-.22.43-.28.66-.49a.81.81,0,0,0-.87-1.33c-.42.18-.6.21-1,.41a20.49,20.49,0,0,0-5.31,3.82,20.19,20.19,0,0,0,13.1,34.43,19.49,19.49,0,0,0,15.14-5.88A20.27,20.27,0,0,0,60.27,30c.34-.82-.48-1.28-1.1-.62Z"/><path class="cls-3" d="M32.65,5c-.22.21-.44.42-.65.64A17.1,17.1,0,0,0,45.51,34.56,17.11,17.11,0,0,1,34.34,5.65L35,5a.81.81,0,0,0-.86-1.33c-.43.17-.84.36-1.25.56a.79.79,0,0,1-.24.77Z"/><path class="cls-3" d="M59.17,29.18c-.12.14-.26.28-.39.41s-.47.46-.72.67A20.16,20.16,0,0,1,40.67,42.48,20.19,20.19,0,0,0,60.51,30a.81.81,0,0,0-1.34-.86Z"/><path class="cls-4" d="M46.79,20.39l.62,1.08a.24.24,0,0,1-.08.33l-.65.37H45l.85-1.49.65-.38A.25.25,0,0,1,46.79,20.39Z"/><path class="cls-4" d="M42.73,15.34l.9,6.6.81-5.52a.25.25,0,0,0,0-.15l-.7-1.22a.26.26,0,0,0-.33-.09Z"/><path class="cls-5" d="M45.81,20.68l.87,1.49L42.83,24.4a.25.25,0,0,1-.33-.09l-.7-1.22a.2.2,0,0,1,0-.15l.81-5.52-2.84,1.64a.24.24,0,0,1-.32-.09l-.63-1.08a.25.25,0,0,1,.09-.33l3.85-2.22.86,1.49,0,5.11Z"/><path class="cls-4" d="M54.15,14.63l.52,2a.13.13,0,0,1-.09.17l-1.3.35-1.73-.74,1.13-1.5,1.3-.35A.15.15,0,0,1,54.15,14.63Z"/><path class="cls-4" d="M50.6,7.11l-.91,8.57L52.61,9a.25.25,0,0,0,0-.09l-.56-2.06a.13.13,0,0,0-.16-.09Z"/><path class="cls-5" d="M52.68,14.88l.6,2.24-5.73,1.53a.14.14,0,0,1-.17-.09l-.55-2.06a.13.13,0,0,1,0-.09l2.92-6.67-4.29,1.15a.15.15,0,0,1-.17-.1l-.53-2a.14.14,0,0,1,.1-.17L50.6,7.11l.6,2.24-1.51,6.33Z"/><path class="cls-4" d="M63.19,10.21v2.36a.26.26,0,0,1-.25.26H61.71l-1.48-1.44L61.71,10h1.23A.25.25,0,0,1,63.19,10.21Z"/><path class="cls-4" d="M61.71,0,57.48,10l5.65-7a.23.23,0,0,0,.06-.16V.25A.25.25,0,0,0,62.94,0Z"/><path class="cls-5" d="M61.71,10v2.87H54.07a.26.26,0,0,1-.25-.26V10.05a.27.27,0,0,1,0-.15l5.65-7H54.07a.25.25,0,0,1-.25-.25V.25A.25.25,0,0,1,54.07,0h7.64V2.86L57.48,10Z"/><rect class="cls-6" width="595.28" height="18"/></g></g></svg>