<svg xmlns="http://www.w3.org/2000/svg" viewBox="0 0 595.28 84.78"><defs><style>.cls-1{fill:none;}.cls-2{fill:#4a3d80;}.cls-3{fill:#5c4da0;}.cls-4{fill:#8c81bc;}.cls-5{isolation:isolate;}.cls-6{fill:#fff;}.cls-7{opacity:0.6;}.cls-8{fill:#010101;}.cls-9{fill:#afa7d1;}</style></defs><g id="Layer_2" data-name="Layer 2"><g id="Layer_1-2" data-name="Layer 1"><rect class="cls-1" width="595.28" height="18"/><path class="cls-2" d="M1,9A8,8,0,0,1,9,1h7l6,4h3l6-4H243.65V26H30.5l-6,4h-3l-6-4H9a8,8,0,0,1-8-8Z"/><path class="cls-3" d="M0,8A8,8,0,0,1,8,0h7l6,4h3l6-4H242.65V25H29.5l-6,4h-3l-6-4H8a8,8,0,0,1-8-8Z"/><path class="cls-4" d="M2.34,22.66A8,8,0,0,1,0,17V8H1v9A7,7,0,0,0,3.05,22ZM1,7.53,0,7.47A8,8,0,0,1,8,0h7.17l6,4h2.7l6-4h212.3V1h-212l-6,4h-3.3l-6-4H8A7,7,0,0,0,1,7.53Z"/><g class="cls-5"><path class="cls-6" d="M13.72,17.6a4.38,4.38,0,0,1-3-1l.4-.9a4.11,4.11,0,0,0,1.24.68,4.23,4.23,0,0,0,1.42.22,2.37,2.37,0,0,0,1.29-.29,1,1,0,0,0,.44-.85.91.91,0,0,0-.29-.71,2.41,2.41,0,0,0-1-.43l-1.27-.3a2.78,2.78,0,0,1-1.46-.75A1.78,1.78,0,0,1,11,12a1.93,1.93,0,0,1,.36-1.16,2.37,2.37,0,0,1,1-.79,3.7,3.7,0,0,1,1.53-.29,4.46,4.46,0,0,1,1.5.26,3.23,3.23,0,0,1,1.18.73l-.41.89A3.87,3.87,0,0,0,15,11a3.29,3.29,0,0,0-1.17-.22,2.17,2.17,0,0,0-1.26.32,1,1,0,0,0-.44.85,1,1,0,0,0,.28.74,1.89,1.89,0,0,0,.89.42l1.28.31a2.93,2.93,0,0,1,1.56.75,1.77,1.77,0,0,1,.5,1.31A1.84,1.84,0,0,1,15.88,17,3.57,3.57,0,0,1,13.72,17.6Z"/><path class="cls-6" d="M18.61,17.5v-11h1.21v11Z"/><path class="cls-6" d="M28.36,16.6a3.48,3.48,0,0,1-1.27.73,4.73,4.73,0,0,1-1.58.27,4.16,4.16,0,0,1-2-.46,3.17,3.17,0,0,1-1.3-1.34,4.46,4.46,0,0,1-.46-2.1,4.45,4.45,0,0,1,.45-2,3.41,3.41,0,0,1,1.25-1.38,3.46,3.46,0,0,1,1.85-.5,3.21,3.21,0,0,1,1.73.45,2.77,2.77,0,0,1,1.1,1.26,4.6,4.6,0,0,1,.38,2v.23H22.8v-.8h5l-.39.56a3.17,3.17,0,0,0-.51-2,1.91,1.91,0,0,0-1.6-.7,2.11,2.11,0,0,0-1.72.77A3.36,3.36,0,0,0,23,13.63a3.32,3.32,0,0,0,.65,2.22,2.41,2.41,0,0,0,1.92.75,3.59,3.59,0,0,0,1.26-.22A3.8,3.8,0,0,0,28,15.71Z"/><path class="cls-6" d="M36.52,16.6a3.48,3.48,0,0,1-1.27.73,4.73,4.73,0,0,1-1.58.27,4.16,4.16,0,0,1-2-.46,3.17,3.17,0,0,1-1.3-1.34,4.46,4.46,0,0,1-.46-2.1,4.45,4.45,0,0,1,.45-2,3.41,3.41,0,0,1,1.25-1.38,3.46,3.46,0,0,1,1.85-.5,3.21,3.21,0,0,1,1.73.45,2.77,2.77,0,0,1,1.1,1.26,4.6,4.6,0,0,1,.38,2v.23H31v-.8h5l-.39.56a3.17,3.17,0,0,0-.51-2,1.91,1.91,0,0,0-1.6-.7,2.11,2.11,0,0,0-1.72.77,3.36,3.36,0,0,0-.62,2.14,3.32,3.32,0,0,0,.65,2.22,2.4,2.4,0,0,0,1.91.75A3.61,3.61,0,0,0,35,16.38a3.8,3.8,0,0,0,1.16-.67Z"/><path class="cls-6" d="M38.5,20.74V12.07c0-.35,0-.7,0-1.06s0-.71-.1-1.06h1.15l.14,1.56-.12.23a2.52,2.52,0,0,1,1-1.46,2.93,2.93,0,0,1,1.74-.51,3.12,3.12,0,0,1,1.75.5,3.35,3.35,0,0,1,1.19,1.38,4.78,4.78,0,0,1,.42,2.07,4.7,4.7,0,0,1-.42,2.06,3.1,3.1,0,0,1-2.94,1.82,2.93,2.93,0,0,1-1.74-.51,2.5,2.5,0,0,1-1-1.45l.16-.15v5.25ZM42,16.6a2.09,2.09,0,0,0,1.71-.75,3.28,3.28,0,0,0,.61-2.13,3.36,3.36,0,0,0-.61-2.15A2.06,2.06,0,0,0,42,10.79a2.09,2.09,0,0,0-1.73.75,3.38,3.38,0,0,0-.6,2.15,3.38,3.38,0,0,0,.6,2.15A2.07,2.07,0,0,0,42,16.6Z"/><path class="cls-6" d="M54.31,17.6a3.2,3.2,0,0,1-1.76-.47,3,3,0,0,1-1.17-1.35A4.7,4.7,0,0,1,51,13.72a4.78,4.78,0,0,1,.42-2.07,3.33,3.33,0,0,1,1.18-1.38,3.15,3.15,0,0,1,1.75-.5,2.94,2.94,0,0,1,1.75.51,2.54,2.54,0,0,1,1,1.46l-.18.12V10h1.2V17.5h-1.2V15.55l.18.09a2.51,2.51,0,0,1-1,1.45A2.94,2.94,0,0,1,54.31,17.6Zm.24-1a2,2,0,0,0,1.71-.76,3.38,3.38,0,0,0,.6-2.15,3.32,3.32,0,0,0-.61-2.15,2.06,2.06,0,0,0-1.7-.75,2.08,2.08,0,0,0-1.73.78,3.3,3.3,0,0,0-.63,2.15,3.22,3.22,0,0,0,.63,2.13A2.12,2.12,0,0,0,54.55,16.6Z"/><path class="cls-6" d="M60.41,17.5V12.07c0-.35,0-.7,0-1.06a9.5,9.5,0,0,0-.1-1.06h1.16l.13,1.56-.15.12a2.55,2.55,0,0,1,1-1.38,3,3,0,0,1,1.7-.48c1.81,0,2.71,1,2.71,3V17.5H65.68V12.82a2.34,2.34,0,0,0-.42-1.54,1.67,1.67,0,0,0-1.32-.49,2.24,2.24,0,0,0-1.68.65,2.38,2.38,0,0,0-.63,1.74V17.5Z"/><path class="cls-6" d="M75.83,17.5h-1.2v-2l.18.17a2.5,2.5,0,0,1-1,1.45,3,3,0,0,1-1.76.51,3.16,3.16,0,0,1-1.74-.48,3.26,3.26,0,0,1-1.18-1.38,4.86,4.86,0,0,1-.42-2.08,4.85,4.85,0,0,1,.41-2.06,3.1,3.1,0,0,1,2.93-1.83,3,3,0,0,1,1.76.52,2.56,2.56,0,0,1,1,1.45l-.19.15V6.46h1.21Zm-3.51-.9A2.07,2.07,0,0,0,74,15.84a3.38,3.38,0,0,0,.6-2.15,3.38,3.38,0,0,0-.6-2.14,2.07,2.07,0,0,0-1.71-.76,2.13,2.13,0,0,0-1.73.75A3.27,3.27,0,0,0,70,13.66a3.42,3.42,0,0,0,.62,2.17A2.12,2.12,0,0,0,72.32,16.6Z"/><path class="cls-6" d="M84.13,17.5,81.34,10h1.27l2.33,6.65h-.39L87,10H88l2.37,6.65H90L92.36,10h1.2L90.77,17.5H89.6l-2.49-6.8h.66L85.3,17.5Z"/><path class="cls-6" d="M97.94,17.6a3.22,3.22,0,0,1-1.76-.47A3.11,3.11,0,0,1,95,15.78a4.85,4.85,0,0,1-.41-2.06A4.78,4.78,0,0,1,95,11.65a3.26,3.26,0,0,1,1.18-1.38,3.09,3.09,0,0,1,1.74-.5,3,3,0,0,1,1.76.51,2.52,2.52,0,0,1,1,1.46l-.18.12V10h1.2V17.5h-1.2V15.55l.18.09a2.5,2.5,0,0,1-1,1.45A3,3,0,0,1,97.94,17.6Zm.24-1a2,2,0,0,0,1.71-.76,3.38,3.38,0,0,0,.6-2.15,3.38,3.38,0,0,0-.6-2.15,2.32,2.32,0,0,0-3.44,0,3.36,3.36,0,0,0-.62,2.15,3.28,3.28,0,0,0,.62,2.13A2.13,2.13,0,0,0,98.18,16.6Z"/><path class="cls-6" d="M104.05,17.5v-11h1.21v11Zm5.08,0L105,13.64l3.8-3.67h1.54l-4.2,4,0-.77,4.51,4.28Z"/><path class="cls-6" d="M117.82,16.6a3.48,3.48,0,0,1-1.27.73,4.73,4.73,0,0,1-1.58.27,4.16,4.16,0,0,1-2-.46,3.17,3.17,0,0,1-1.3-1.34,4.46,4.46,0,0,1-.46-2.1,4.45,4.45,0,0,1,.45-2,3.41,3.41,0,0,1,1.25-1.38,3.46,3.46,0,0,1,1.85-.5,3.21,3.21,0,0,1,1.73.45,2.77,2.77,0,0,1,1.1,1.26,4.6,4.6,0,0,1,.38,2v.23h-5.7v-.8h5l-.39.56a3.17,3.17,0,0,0-.51-2,1.91,1.91,0,0,0-1.6-.7,2.11,2.11,0,0,0-1.72.77,3.36,3.36,0,0,0-.62,2.14,3.32,3.32,0,0,0,.65,2.22,2.4,2.4,0,0,0,1.91.75,3.61,3.61,0,0,0,1.27-.22,3.8,3.8,0,0,0,1.16-.67Z"/><path class="cls-6" d="M126.83,17.6a3.6,3.6,0,0,1-1.88-.48,3.24,3.24,0,0,1-1.24-1.35,4.52,4.52,0,0,1-.45-2.08,4.51,4.51,0,0,1,.45-2.07A3.24,3.24,0,0,1,125,10.25a3.6,3.6,0,0,1,1.88-.48,3.64,3.64,0,0,1,1.89.48A3.24,3.24,0,0,1,130,11.62a4.51,4.51,0,0,1,.44,2.07,4.52,4.52,0,0,1-.44,2.08,3.24,3.24,0,0,1-1.24,1.35A3.64,3.64,0,0,1,126.83,17.6Zm0-1a2.11,2.11,0,0,0,1.72-.74,3.34,3.34,0,0,0,.61-2.17,3.32,3.32,0,0,0-.62-2.15,2.32,2.32,0,0,0-3.42,0,3.26,3.26,0,0,0-.63,2.15,3.4,3.4,0,0,0,.61,2.17A2.13,2.13,0,0,0,126.83,16.6Z"/><path class="cls-6" d="M132.29,17.5V12.07c0-.35,0-.7,0-1.06a9.5,9.5,0,0,0-.1-1.06h1.16l.13,1.56-.15.12a2.55,2.55,0,0,1,1.05-1.38,3,3,0,0,1,1.7-.48c1.81,0,2.71,1,2.71,3V17.5h-1.21V12.82a2.34,2.34,0,0,0-.42-1.54,1.67,1.67,0,0,0-1.32-.49,2.24,2.24,0,0,0-1.68.65,2.38,2.38,0,0,0-.63,1.74V17.5Z"/><path class="cls-6" d="M145,17.5v-11h1.22v5.43l-.17-.15a2.58,2.58,0,0,1,1-1.45,2.94,2.94,0,0,1,1.74-.52,3.17,3.17,0,0,1,1.75.48,3.24,3.24,0,0,1,1.18,1.35,4.7,4.7,0,0,1,.43,2.06,4.86,4.86,0,0,1-.43,2.08,3.33,3.33,0,0,1-1.18,1.38,3.22,3.22,0,0,1-1.75.48,2.93,2.93,0,0,1-1.74-.51,2.51,2.51,0,0,1-1-1.45l.17-.17v2Zm3.54-.9a2.08,2.08,0,0,0,1.71-.77,3.42,3.42,0,0,0,.62-2.17,3.27,3.27,0,0,0-.62-2.12,2.33,2.33,0,0,0-3.43,0,3.38,3.38,0,0,0-.6,2.14,3.38,3.38,0,0,0,.6,2.15A2,2,0,0,0,148.52,16.6Z"/><path class="cls-6" d="M156.65,17.6a2.6,2.6,0,0,1-2-.75,3.22,3.22,0,0,1-.68-2.22V10h1.21V14.6a2.24,2.24,0,0,0,.42,1.5,1.62,1.62,0,0,0,1.28.48,2.13,2.13,0,0,0,1.62-.64,2.41,2.41,0,0,0,.61-1.73V10h1.22V17.5h-1.19V15.86l.18-.09a2.55,2.55,0,0,1-1,1.37A2.93,2.93,0,0,1,156.65,17.6Z"/><path class="cls-6" d="M161.57,10.91V10h4.85v1Zm4.82,5.51v1a4.7,4.7,0,0,1-.51.12,4.39,4.39,0,0,1-.54,0,2.33,2.33,0,0,1-1.68-.6,2.41,2.41,0,0,1-.62-1.8V8l1.22-.44V15a2.11,2.11,0,0,0,.17.93,1,1,0,0,0,.47.46,1.83,1.83,0,0,0,.68.12,2.41,2.41,0,0,0,.4,0A2.69,2.69,0,0,0,166.39,16.42Z"/><path class="cls-6" d="M166.87,10.91V10h4.84v1Zm4.81,5.51v1l-.5.12a4.68,4.68,0,0,1-.55,0A2.29,2.29,0,0,1,169,17a2.37,2.37,0,0,1-.62-1.8V8l1.21-.44V15a2.11,2.11,0,0,0,.17.93,1,1,0,0,0,.48.46,1.78,1.78,0,0,0,.67.12,2.54,2.54,0,0,0,.41,0A2.59,2.59,0,0,0,171.68,16.42Z"/><path class="cls-6" d="M176.3,17.6a3.58,3.58,0,0,1-1.88-.48,3.26,3.26,0,0,1-1.25-1.35,4.65,4.65,0,0,1-.44-2.08,4.64,4.64,0,0,1,.44-2.07,3.26,3.26,0,0,1,1.25-1.37,3.92,3.92,0,0,1,3.76,0,3.26,3.26,0,0,1,1.25,1.37,4.64,4.64,0,0,1,.44,2.07,4.65,4.65,0,0,1-.44,2.08,3.26,3.26,0,0,1-1.25,1.35A3.58,3.58,0,0,1,176.3,17.6Zm0-1a2.12,2.12,0,0,0,1.72-.74,3.4,3.4,0,0,0,.61-2.17,3.32,3.32,0,0,0-.62-2.15,2.09,2.09,0,0,0-1.71-.75,2.12,2.12,0,0,0-1.72.75,3.32,3.32,0,0,0-.62,2.15,3.34,3.34,0,0,0,.61,2.17A2.11,2.11,0,0,0,176.3,16.6Z"/><path class="cls-6" d="M181.76,17.5V12.07c0-.35,0-.7,0-1.06s-.05-.71-.1-1.06h1.16l.13,1.56-.15.12a2.55,2.55,0,0,1,1.05-1.38,3,3,0,0,1,1.7-.48c1.81,0,2.71,1,2.71,3V17.5H187V12.82a2.34,2.34,0,0,0-.42-1.54,1.67,1.67,0,0,0-1.32-.49,2.24,2.24,0,0,0-1.68.65,2.38,2.38,0,0,0-.63,1.74V17.5Z"/></g><g class="cls-7"><rect class="cls-6" x="192.4" y="5" width="45.25" height="16" rx="4"/></g><g class="cls-5"><path class="cls-8" d="M198.72,17.5V6.82H203a4,4,0,0,1,2.54.73,2.5,2.5,0,0,1,.91,2.06,2.5,2.5,0,0,1-.5,1.57,2.77,2.77,0,0,1-1.39.9V12a2.5,2.5,0,0,1,2.14,2.63,2.61,2.61,0,0,1-.93,2.16,4.07,4.07,0,0,1-2.62.75Zm1.22-5.94h2.88a2.91,2.91,0,0,0,1.82-.48,1.7,1.7,0,0,0,.61-1.41,1.61,1.61,0,0,0-.6-1.37,3,3,0,0,0-1.83-.46h-2.88Zm0,4.92h3.11a3,3,0,0,0,1.86-.47,1.74,1.74,0,0,0,.59-1.45,1.8,1.8,0,0,0-.6-1.47,2.88,2.88,0,0,0-1.85-.5h-3.11Z"/><path class="cls-8" d="M209.53,17.5v-1h6v1Zm2.36-.56V7.54l.7.36L209.7,9.74V8.56l2.73-1.74h.7V16.94Z"/></g><polygon class="cls-8" points="228.67 17.31 233.65 8.69 223.69 8.69 228.67 17.31"/><rect class="cls-9" x="192.4" y="31.69" width="45.49" height="53.09" rx="5.67"/><g class="cls-5"><path class="cls-8" d="M198.12,44.56V33.88h4.29a4,4,0,0,1,2.54.73,2.48,2.48,0,0,1,.91,2.06,2.42,2.42,0,0,1-.5,1.57,2.68,2.68,0,0,1-1.39.91V39a2.5,2.5,0,0,1,2.15,2.62,2.61,2.61,0,0,1-.93,2.16,4.1,4.1,0,0,1-2.63.75Zm1.22-5.94h2.88a2.89,2.89,0,0,0,1.82-.48,1.68,1.68,0,0,0,.61-1.41,1.62,1.62,0,0,0-.6-1.37,3,3,0,0,0-1.83-.46h-2.88Zm0,4.92h3.12a3,3,0,0,0,1.85-.46,1.73,1.73,0,0,0,.59-1.46,1.8,1.8,0,0,0-.6-1.47,2.85,2.85,0,0,0-1.84-.49h-3.12Z"/><path class="cls-8" d="M208.94,44.56v-1h5.95v1Zm2.35-.55V34.6L212,35l-2.9,1.85V35.62l2.73-1.74h.71V44Z"/><path class="cls-8" d="M198.12,62.56V51.88h4.29a4,4,0,0,1,2.54.73,2.48,2.48,0,0,1,.91,2.06,2.42,2.42,0,0,1-.5,1.57,2.68,2.68,0,0,1-1.39.91V57a2.5,2.5,0,0,1,2.15,2.62,2.61,2.61,0,0,1-.93,2.16,4.1,4.1,0,0,1-2.63.75Zm1.22-5.94h2.88a2.89,2.89,0,0,0,1.82-.48,1.68,1.68,0,0,0,.61-1.41,1.62,1.62,0,0,0-.6-1.37,3,3,0,0,0-1.83-.46h-2.88Zm0,4.92h3.12a3,3,0,0,0,1.85-.46,1.73,1.73,0,0,0,.59-1.46,1.8,1.8,0,0,0-.6-1.47,2.85,2.85,0,0,0-1.84-.49h-3.12Z"/><path class="cls-8" d="M208.26,62.56v-.93L212,57.49A7.44,7.44,0,0,0,213.09,56a3,3,0,0,0,.35-1.35,1.77,1.77,0,0,0-.51-1.36,2.1,2.1,0,0,0-1.46-.47,3.91,3.91,0,0,0-1.53.31,5.79,5.79,0,0,0-1.5.92l-.46-1a4.63,4.63,0,0,1,1.59-1,5.45,5.45,0,0,1,1.93-.36,4,4,0,0,1,1.69.34,2.54,2.54,0,0,1,1.1,1,2.79,2.79,0,0,1,.39,1.5,3.89,3.89,0,0,1-.41,1.76,8.12,8.12,0,0,1-1.37,1.9l-3.6,3.9-.09-.6h5.92v1Z"/><path class="cls-8" d="M198.12,80.56V69.88h4.29a4,4,0,0,1,2.54.73,2.48,2.48,0,0,1,.91,2.06,2.42,2.42,0,0,1-.5,1.57,2.68,2.68,0,0,1-1.39.91V75a2.5,2.5,0,0,1,2.15,2.62,2.61,2.61,0,0,1-.93,2.16,4.1,4.1,0,0,1-2.63.75Zm1.22-5.94h2.88a2.89,2.89,0,0,0,1.82-.48,1.68,1.68,0,0,0,.61-1.41,1.62,1.62,0,0,0-.6-1.37,3,3,0,0,0-1.83-.46h-2.88Zm0,4.92h3.12a3,3,0,0,0,1.85-.46,1.73,1.73,0,0,0,.59-1.46,1.8,1.8,0,0,0-.6-1.47,2.85,2.85,0,0,0-1.84-.49h-3.12Z"/><path class="cls-8" d="M211.41,80.67a5.73,5.73,0,0,1-2-.35,4.52,4.52,0,0,1-1.62-1l.48-.95a5.57,5.57,0,0,0,1.49.93,4.33,4.33,0,0,0,1.6.3,2.62,2.62,0,0,0,1.74-.51,1.89,1.89,0,0,0,.59-1.5,1.75,1.75,0,0,0-.62-1.47,2.89,2.89,0,0,0-1.84-.49H210v-1h1a2.75,2.75,0,0,0,1.81-.52,1.84,1.84,0,0,0,.63-1.5,1.73,1.73,0,0,0-.51-1.34,2.19,2.19,0,0,0-1.47-.46,3.92,3.92,0,0,0-1.54.31,5.58,5.58,0,0,0-1.49.92l-.46-1a4.51,4.51,0,0,1,1.59-1,5.43,5.43,0,0,1,2-.36,4,4,0,0,1,1.68.34,2.51,2.51,0,0,1,1.1,1,2.67,2.67,0,0,1,.38,1.46,2.8,2.8,0,0,1-.51,1.69,2.63,2.63,0,0,1-1.42,1L212.7,75a2.84,2.84,0,0,1,1.65.91,2.7,2.7,0,0,1,.57,1.76,2.74,2.74,0,0,1-.94,2.2A3.87,3.87,0,0,1,211.41,80.67Z"/></g><polygon class="cls-8" points="228.67 44.38 233.65 35.75 223.69 35.75 228.67 44.38"/></g></g></svg>