<svg xmlns="http://www.w3.org/2000/svg" viewBox="0 0 595.28 60.69"><defs><style>.cls-1{fill:#4ba587;}.cls-2{fill:#ededee;}.cls-3{fill:#231f20;}.cls-4{fill:#7da1b1;}.cls-5{fill:#4789c9;}.cls-6{fill:#358267;}</style></defs><g id="Layer_2" data-name="Layer 2"><g id="Layer_1-2" data-name="Layer 1"><rect class="cls-1" y="4" width="595.28" height="56.69" rx="11.34"/><rect class="cls-2" width="595.28" height="56.69" rx="11.34"/><path class="cls-3" d="M91.24,38.84V17H82.89V13.21h21.38V17H95.92V38.84Z"/><path class="cls-3" d="M119.9,36.82a9.39,9.39,0,0,1-3.19,1.68,12.91,12.91,0,0,1-3.83.59,11,11,0,0,1-5.1-1.11,7.85,7.85,0,0,1-3.29-3.24,10.42,10.42,0,0,1-1.15-5,10.56,10.56,0,0,1,1.11-4.95,8.36,8.36,0,0,1,3.1-3.35,8.55,8.55,0,0,1,4.57-1.21,8.16,8.16,0,0,1,4.32,1.1,7.28,7.28,0,0,1,2.79,3.15,11.09,11.09,0,0,1,1,4.86V30H107.3l0-2.41h10.23l-1.23,1.23a6.22,6.22,0,0,0-1-4,3.68,3.68,0,0,0-3.08-1.37A4,4,0,0,0,108.88,25a7,7,0,0,0-1.19,4.38A7.13,7.13,0,0,0,109,34.11a5,5,0,0,0,4,1.53,9.06,9.06,0,0,0,2.9-.49,9.25,9.25,0,0,0,2.64-1.42Z"/><path class="cls-3" d="M126.49,38.84h-5.37l7.67-9.36,2.56-3.17,4.42-5.65h5.37L134,29.48l-2.62,3.2Zm9.79,0-4.93-6.16-2.56-3.2-7.2-8.82h5.33l4.43,5.65L134,29.48l7.6,9.36Z"/><path class="cls-3" d="M141.43,24V20.66h12.81V24ZM154.24,35.1v3.56a6.81,6.81,0,0,1-1.42.34,11.81,11.81,0,0,1-1.49.09,6.28,6.28,0,0,1-4.74-1.73,6.86,6.86,0,0,1-1.67-5V16.23l4.5-1.51V32.18a4,4,0,0,0,.39,1.93,2.32,2.32,0,0,0,1.07,1,3.73,3.73,0,0,0,1.49.28,5.29,5.29,0,0,0,.9-.07C153.56,35.26,153.88,35.19,154.24,35.1Z"/><path class="cls-4" d="M62,48.52H22.88a.63.63,0,0,1-.63-.62V8.8a.63.63,0,0,1,.63-.63H62a.63.63,0,0,1,.63.63V47.9A.63.63,0,0,1,62,48.52ZM23.5,47.27H61.35V9.42H23.5Z"/><path class="cls-5" d="M24.26,10.51H21.5a.33.33,0,0,1-.33-.33V7.42a.33.33,0,0,1,.33-.33h2.76a.33.33,0,0,1,.33.33v2.76A.33.33,0,0,1,24.26,10.51Z"/><path class="cls-5" d="M43.8,10.51H41.05a.34.34,0,0,1-.34-.33V7.42a.34.34,0,0,1,.34-.33H43.8a.34.34,0,0,1,.34.33v2.76A.34.34,0,0,1,43.8,10.51Z"/><path class="cls-5" d="M63.35,10.51H60.6a.34.34,0,0,1-.34-.33V7.42a.34.34,0,0,1,.34-.33h2.75a.34.34,0,0,1,.34.33v2.76A.34.34,0,0,1,63.35,10.51Z"/><path class="cls-5" d="M24.26,49.61H21.5a.33.33,0,0,1-.33-.34V46.52a.33.33,0,0,1,.33-.34h2.76a.34.34,0,0,1,.33.34v2.75A.34.34,0,0,1,24.26,49.61Z"/><path class="cls-5" d="M24.26,49.61H21.5a.33.33,0,0,1-.33-.34V46.52a.33.33,0,0,1,.33-.34h2.76a.34.34,0,0,1,.33.34v2.75A.34.34,0,0,1,24.26,49.61Z"/><path class="cls-5" d="M24.26,30.06H21.5a.33.33,0,0,1-.33-.33V27a.32.32,0,0,1,.33-.33h2.76a.33.33,0,0,1,.33.33v2.76A.33.33,0,0,1,24.26,30.06Z"/><path class="cls-5" d="M24.26,30.06H21.5a.33.33,0,0,1-.33-.33V27a.32.32,0,0,1,.33-.33h2.76a.33.33,0,0,1,.33.33v2.76A.33.33,0,0,1,24.26,30.06Z"/><path class="cls-5" d="M43.8,49.61H41.05a.34.34,0,0,1-.34-.34V46.52a.34.34,0,0,1,.34-.34H43.8a.34.34,0,0,1,.34.34v2.75A.34.34,0,0,1,43.8,49.61Z"/><path class="cls-5" d="M63.35,49.61H60.6a.34.34,0,0,1-.34-.34V46.52a.34.34,0,0,1,.34-.34h2.75a.34.34,0,0,1,.34.34v2.75A.34.34,0,0,1,63.35,49.61Z"/><path class="cls-5" d="M63.35,30.06H60.6a.34.34,0,0,1-.34-.33V27a.33.33,0,0,1,.34-.33h2.75a.33.33,0,0,1,.34.33v2.76A.34.34,0,0,1,63.35,30.06Z"/><path class="cls-1" d="M53.65,17.05v5.31a.34.34,0,0,1-.34.34h-2.4a.35.35,0,0,1-.33-.25L49.85,20a.35.35,0,0,0-.33-.24H44.27a.35.35,0,0,0-.35.34V38.47a.35.35,0,0,0,.35.35H48a.34.34,0,0,1,.34.34v2.31a.34.34,0,0,1-.34.34H36.87a.34.34,0,0,1-.34-.34V39.16a.34.34,0,0,1,.34-.34h3.72a.35.35,0,0,0,.34-.35V20.05a.34.34,0,0,0-.34-.34H35.33A.35.35,0,0,0,35,20l-.73,2.5a.35.35,0,0,1-.33.25h-2.4a.34.34,0,0,1-.34-.34V17.05a.34.34,0,0,1,.34-.34H53.31a.34.34,0,0,1,.34.34Z"/><path class="cls-6" d="M33.6,22.7H31.54a.34.34,0,0,1-.34-.34V17.05a.34.34,0,0,1,.34-.34H33.6a.34.34,0,0,0-.34.34v5.31A.34.34,0,0,0,33.6,22.7Z"/><path class="cls-6" d="M38.93,41.81H36.87a.34.34,0,0,1-.34-.34V39.16a.34.34,0,0,1,.34-.34h2.06a.34.34,0,0,0-.34.34v2.31A.34.34,0,0,0,38.93,41.81Z"/><path class="cls-6" d="M43,20.05V38.47a.35.35,0,0,1-.34.35h-2a.35.35,0,0,0,.34-.35V20.05a.34.34,0,0,0-.34-.34h2A.34.34,0,0,1,43,20.05Z"/></g></g></svg>