<svg xmlns="http://www.w3.org/2000/svg" viewBox="0 0 595.4 25"><defs><style>.cls-1,.cls-4{fill:none;}.cls-2{fill:#3c866d;}.cls-3{fill:#4ba587;}.cls-4{stroke:#81c1ab;}.cls-5{isolation:isolate;font-size:15px;fill:#fff;font-family:Mulish-Regular, Mulish;}.cls-6{letter-spacing:0em;}.cls-7{letter-spacing:0em;}</style></defs><g id="Layer_2" data-name="Layer 2"><g id="Layer_1-2" data-name="Layer 1"><rect class="cls-1" x="0.12" width="595.28" height="18"/><path class="cls-2" d="M9.12,1H96.9V6c0,10-8-8-8,7.5s8-2.5,8,7.5v4H9.12V21c0-10-8,8-8-7.5s8,2.5,8-7.5Z"/><path class="cls-3" d="M8.12,0H95.9V5c0,10-8-8-8,7.5s8-2.5,8,7.5v4H8.12V20c0-10-8,8-8-7.5s8,2.5,8-7.5Z"/><path class="cls-4" d="M8.62.5H95.4M90.9,19.3l3.68-2.1m-86,6.3v-5M1.26,18a20.35,20.35,0,0,1,0-11M8.62,8V.5h.5"/><text class="cls-5" transform="translate(18.12 17.5)">length <tspan class="cls-6" x="47.5" y="0">o</tspan><tspan class="cls-7" x="56.07" y="0">f</tspan></text></g></g></svg>