<svg xmlns="http://www.w3.org/2000/svg" viewBox="0 0 595.28 88.19"><defs><style>.cls-1{fill:none;}.cls-2{fill:#3c866d;}.cls-3{fill:#4ba587;}.cls-4{fill:#81c1ab;}.cls-5{opacity:0.6;}.cls-6{fill:#fff;}.cls-10,.cls-7{isolation:isolate;}.cls-10,.cls-8{fill:#010101;}.cls-9{fill:#e2e2e2;stroke:#b7b7b7;}.cls-10{font-size:15px;font-family:Mulish-Regular, Mulish;}.cls-11{letter-spacing:-0.01em;}.cls-12{letter-spacing:-0.01em;}.cls-13{letter-spacing:0em;}</style></defs><g id="Layer_2" data-name="Layer 2"><g id="Layer_1-2" data-name="Layer 1"><rect class="cls-1" width="595.28" height="18"/><path class="cls-2" d="M1,9A8,8,0,0,1,9,1h7l6,4h3l6-4H190.08V6c0,10-8-8-8,7.5s8-2.5,8,7.5v5H30.5l-6,4h-3l-6-4H9a8,8,0,0,1-8-8Z"/><path class="cls-3" d="M0,8A8,8,0,0,1,8,0h7l6,4h3l6-4H189.08V5c0,10-8-8-8,7.5s8-2.5,8,7.5v5H29.5l-6,4h-3l-6-4H8a8,8,0,0,1-8-8Z"/><path class="cls-4" d="M2.34,22.66A8,8,0,0,1,0,17V8H1v9A7,7,0,0,0,3.05,22Zm182-2.93-.49-.86,3.68-2.1.49.86ZM1,7.53,0,7.47A8,8,0,0,1,8,0h7.17l6,4h2.7l6-4H188.58V1H30.15l-6,4h-3.3l-6-4H8A7,7,0,0,0,1,7.53Z"/><path class="cls-2" d="M191.08,1h67.84V26H191.08V21c0-10-8,8-8-7.5s8,2.5,8-7.5Z"/><path class="cls-3" d="M190.08,0h67.84V25H190.08V20c0-10-8,8-8-7.5s8,2.5,8-7.5Z"/><path class="cls-4" d="M191.08,24.5h-1v-6h1Zm-8.34-6.37a20.9,20.9,0,0,1,0-11.26l1,.26a19.79,19.79,0,0,0,0,10.74ZM191.08,8h-1V0h67.34V1H191.08Z"/><g class="cls-5"><rect class="cls-6" x="217.08" y="5" width="13.83" height="16" rx="4"/></g><g class="cls-7"><path class="cls-6" d="M10.11,10.92V10H15v1Zm4.81,5.5v1a5,5,0,0,1-.5.11,4.58,4.58,0,0,1-.55,0A2.29,2.29,0,0,1,12.2,17a2.37,2.37,0,0,1-.62-1.8V8l1.21-.43V15A2.11,2.11,0,0,0,13,16a1,1,0,0,0,.48.46,1.74,1.74,0,0,0,.67.12,2.62,2.62,0,0,0,.41,0A3.11,3.11,0,0,0,14.92,16.42Z"/><path class="cls-6" d="M19.54,17.61a3.58,3.58,0,0,1-1.88-.48,3.35,3.35,0,0,1-1.25-1.36A4.65,4.65,0,0,1,16,13.69a4.64,4.64,0,0,1,.44-2.07,3.23,3.23,0,0,1,1.25-1.36,3.92,3.92,0,0,1,3.76,0,3.23,3.23,0,0,1,1.25,1.36,4.64,4.64,0,0,1,.44,2.07,4.65,4.65,0,0,1-.44,2.08,3.35,3.35,0,0,1-1.25,1.36A3.58,3.58,0,0,1,19.54,17.61Zm0-1a2.12,2.12,0,0,0,1.72-.74,3.4,3.4,0,0,0,.61-2.17,3.29,3.29,0,0,0-.62-2.14,2.09,2.09,0,0,0-1.71-.75,2.12,2.12,0,0,0-1.72.75,3.29,3.29,0,0,0-.62,2.14,3.34,3.34,0,0,0,.61,2.17A2.11,2.11,0,0,0,19.54,16.6Z"/></g><g class="cls-5"><rect class="cls-6" x="28.52" y="5" width="55.97" height="16" rx="4"/></g><g class="cls-7"><path class="cls-8" d="M34.57,6.76h1.48V8.14H34.57Zm.12,10.74V10H35.9V17.5Z"/><path class="cls-8" d="M37.19,10.92V10H42v1ZM42,16.42v1a4.64,4.64,0,0,1-.51.11,4.26,4.26,0,0,1-.54,0,2.33,2.33,0,0,1-1.68-.6,2.41,2.41,0,0,1-.62-1.8V8l1.22-.43V15a2,2,0,0,0,.17.93,1,1,0,0,0,.47.46,1.83,1.83,0,0,0,.68.12,2.49,2.49,0,0,0,.4,0A2.83,2.83,0,0,0,42,16.42Z"/><path class="cls-8" d="M49.69,16.6a3.58,3.58,0,0,1-1.27.74,5,5,0,0,1-1.58.27,4.13,4.13,0,0,1-2-.47,3.19,3.19,0,0,1-1.31-1.34,4.57,4.57,0,0,1-.45-2.09,4.5,4.5,0,0,1,.45-2.06,3.34,3.34,0,0,1,1.25-1.38,3.43,3.43,0,0,1,1.85-.49,3.2,3.2,0,0,1,1.73.44,2.86,2.86,0,0,1,1.1,1.27,4.76,4.76,0,0,1,.38,2v.22h-5.7v-.8h5l-.39.56a3.08,3.08,0,0,0-.52-2,1.88,1.88,0,0,0-1.59-.71,2.1,2.1,0,0,0-1.72.77,3.31,3.31,0,0,0-.62,2.14,3.27,3.27,0,0,0,.65,2.22,2.39,2.39,0,0,0,1.91.75,3.65,3.65,0,0,0,1.27-.22,4.11,4.11,0,0,0,1.16-.66Z"/><path class="cls-8" d="M51.67,17.5V12.07c0-.35,0-.7,0-1.06a9.1,9.1,0,0,0-.09-1H52.7l.14,1.55-.15.11a2.53,2.53,0,0,1,.93-1.36,2.67,2.67,0,0,1,1.59-.48,2.48,2.48,0,0,1,1.7.54A2.64,2.64,0,0,1,57.68,12l-.36-.2a2.53,2.53,0,0,1,1-1.45A2.85,2.85,0,0,1,60,9.78a2.29,2.29,0,0,1,1.87.74,3.38,3.38,0,0,1,.63,2.24V17.5H61.33V12.82A2.54,2.54,0,0,0,61,11.28a1.4,1.4,0,0,0-1.18-.48,1.87,1.87,0,0,0-1.5.64,2.66,2.66,0,0,0-.54,1.76v4.3H56.51V12.82a2.54,2.54,0,0,0-.38-1.54,1.43,1.43,0,0,0-1.19-.48,1.87,1.87,0,0,0-1.51.64,2.61,2.61,0,0,0-.55,1.76v4.3Z"/></g><g class="cls-7"><path class="cls-6" d="M93.55,17.61a3.2,3.2,0,0,1-1.76-.48,3,3,0,0,1-1.17-1.35,4.7,4.7,0,0,1-.42-2.06,4.78,4.78,0,0,1,.42-2.07,3.33,3.33,0,0,1,1.18-1.38,3.14,3.14,0,0,1,1.75-.49,2.94,2.94,0,0,1,1.75.51,2.51,2.51,0,0,1,1,1.45l-.18.12V10h1.2V17.5H96.1V15.55l.18.09a2.54,2.54,0,0,1-1,1.46A2.94,2.94,0,0,1,93.55,17.61Zm.24-1a2,2,0,0,0,1.71-.76,3.38,3.38,0,0,0,.6-2.15,3.29,3.29,0,0,0-.61-2.14,2.32,2.32,0,0,0-3.43,0,3.3,3.3,0,0,0-.63,2.15,3.22,3.22,0,0,0,.63,2.13A2.12,2.12,0,0,0,93.79,16.6Z"/><path class="cls-6" d="M99.65,20.74V12.07c0-.35,0-.7,0-1.06a9.1,9.1,0,0,0-.1-1h1.16l.13,1.55-.12.23a2.51,2.51,0,0,1,1-1.45,2.93,2.93,0,0,1,1.74-.51,3.14,3.14,0,0,1,1.75.49,3.33,3.33,0,0,1,1.18,1.38,4.64,4.64,0,0,1,.43,2.07,4.57,4.57,0,0,1-.43,2.06,3.13,3.13,0,0,1-1.18,1.35,3.17,3.17,0,0,1-1.75.48,2.93,2.93,0,0,1-1.74-.51,2.54,2.54,0,0,1-1-1.46l.17-.15v5.25Zm3.54-4.14a2.09,2.09,0,0,0,1.71-.75,3.28,3.28,0,0,0,.62-2.13,3.36,3.36,0,0,0-.62-2.15,2,2,0,0,0-1.71-.77,2.07,2.07,0,0,0-1.72.75,3.35,3.35,0,0,0-.6,2.14,3.38,3.38,0,0,0,.6,2.15A2,2,0,0,0,103.19,16.6Z"/><path class="cls-6" d="M108.65,20.74V12.07c0-.35,0-.7,0-1.06a9.1,9.1,0,0,0-.1-1h1.16l.13,1.55-.12.23a2.51,2.51,0,0,1,1-1.45,2.93,2.93,0,0,1,1.74-.51,3.14,3.14,0,0,1,1.75.49,3.33,3.33,0,0,1,1.18,1.38,4.64,4.64,0,0,1,.43,2.07,4.57,4.57,0,0,1-.43,2.06,3.13,3.13,0,0,1-1.18,1.35,3.17,3.17,0,0,1-1.75.48,2.93,2.93,0,0,1-1.74-.51,2.54,2.54,0,0,1-1-1.46l.17-.15v5.25Zm3.54-4.14a2.09,2.09,0,0,0,1.71-.75,3.28,3.28,0,0,0,.62-2.13,3.36,3.36,0,0,0-.62-2.15,2,2,0,0,0-1.71-.77,2.07,2.07,0,0,0-1.72.75,3.35,3.35,0,0,0-.6,2.14,3.38,3.38,0,0,0,.6,2.15A2,2,0,0,0,112.19,16.6Z"/><path class="cls-6" d="M123.83,16.6a3.53,3.53,0,0,1-1.26.74,5.1,5.1,0,0,1-1.59.27,4.09,4.09,0,0,1-2-.47,3.19,3.19,0,0,1-1.31-1.34,4.57,4.57,0,0,1-.46-2.09,4.5,4.5,0,0,1,.45-2.06,3.37,3.37,0,0,1,1.26-1.38,3.43,3.43,0,0,1,1.85-.49,3.17,3.17,0,0,1,1.72.44,2.88,2.88,0,0,1,1.11,1.27,4.76,4.76,0,0,1,.38,2v.22h-5.7v-.8h5l-.39.56a3.08,3.08,0,0,0-.52-2,1.9,1.9,0,0,0-1.6-.71,2.08,2.08,0,0,0-1.71.77,3.31,3.31,0,0,0-.63,2.14,3.27,3.27,0,0,0,.66,2.22,2.39,2.39,0,0,0,1.91.75,3.65,3.65,0,0,0,1.27-.22,4.11,4.11,0,0,0,1.16-.66Z"/><path class="cls-6" d="M125.81,17.5V12.07c0-.35,0-.7,0-1.06a9.1,9.1,0,0,0-.1-1h1.16l.13,1.55-.15.13a2.58,2.58,0,0,1,1-1.39,3,3,0,0,1,1.7-.47c1.81,0,2.71,1,2.71,3V17.5h-1.21V12.82a2.34,2.34,0,0,0-.42-1.54,1.67,1.67,0,0,0-1.32-.48,2.24,2.24,0,0,0-1.68.64,2.38,2.38,0,0,0-.63,1.74V17.5Z"/><path class="cls-6" d="M141.23,17.5H140v-2l.18.17a2.52,2.52,0,0,1-1,1.46,3,3,0,0,1-1.76.51,3.16,3.16,0,0,1-1.74-.49,3.26,3.26,0,0,1-1.18-1.38,4.86,4.86,0,0,1-.42-2.08,4.81,4.81,0,0,1,.41-2.05,3.1,3.1,0,0,1,2.93-1.83,3,3,0,0,1,1.76.51,2.56,2.56,0,0,1,1,1.45l-.19.15V6.46h1.21Zm-3.51-.9a2.07,2.07,0,0,0,1.71-.76,3.38,3.38,0,0,0,.6-2.15,3.38,3.38,0,0,0-.6-2.14,2.06,2.06,0,0,0-1.71-.75,2.13,2.13,0,0,0-1.73.75,3.24,3.24,0,0,0-.62,2.11,3.42,3.42,0,0,0,.62,2.17A2.12,2.12,0,0,0,137.72,16.6Z"/><path class="cls-6" d="M146.44,10.92V10h4.84v1Zm4.81,5.5v1a4.48,4.48,0,0,1-.5.11,4.43,4.43,0,0,1-.55,0,2.29,2.29,0,0,1-1.67-.6,2.37,2.37,0,0,1-.62-1.8V8l1.21-.43V15a2,2,0,0,0,.18.93,1,1,0,0,0,.47.46,1.78,1.78,0,0,0,.67.12,2.62,2.62,0,0,0,.41,0A2.73,2.73,0,0,0,151.25,16.42Z"/><path class="cls-6" d="M158.93,16.6a3.49,3.49,0,0,1-1.27.74,5,5,0,0,1-1.58.27,4.16,4.16,0,0,1-2-.47,3.17,3.17,0,0,1-1.3-1.34,4.44,4.44,0,0,1-.46-2.09,4.5,4.5,0,0,1,.45-2.06A3.41,3.41,0,0,1,154,10.27a3.49,3.49,0,0,1,1.86-.49,3.17,3.17,0,0,1,1.72.44,2.8,2.8,0,0,1,1.1,1.27,4.6,4.6,0,0,1,.39,2v.22h-5.7v-.8h5l-.39.56a3.14,3.14,0,0,0-.52-2,1.91,1.91,0,0,0-1.6-.71,2.11,2.11,0,0,0-1.72.77,3.36,3.36,0,0,0-.62,2.14,3.32,3.32,0,0,0,.65,2.22,2.42,2.42,0,0,0,1.92.75,3.56,3.56,0,0,0,1.26-.22,4,4,0,0,0,1.17-.66Z"/><path class="cls-6" d="M161.29,17.5H159.8l3.14-3.88.7-.89L165.83,10h1.49l-2.94,3.66-.74.91Zm4.74,0-2.39-3-.7-.91L160,10h1.47l2.19,2.77.74.89,3.1,3.88Z"/><path class="cls-6" d="M167.77,10.92V10h4.84v1Zm4.81,5.5v1a5,5,0,0,1-.5.11,4.58,4.58,0,0,1-.55,0,2.29,2.29,0,0,1-1.67-.6,2.37,2.37,0,0,1-.62-1.8V8l1.21-.43V15a2.11,2.11,0,0,0,.17.93,1,1,0,0,0,.48.46,1.78,1.78,0,0,0,.67.12,2.62,2.62,0,0,0,.41,0A2.73,2.73,0,0,0,172.58,16.42Z"/></g><path class="cls-6" d="M202.22,5.32l2,1.56a8.35,8.35,0,0,0-1.87,2.72,7.42,7.42,0,0,0-.46,2.57l-1.25-.88h3.79v5.39h-5.34V12.89a11,11,0,0,1,.7-4A10.56,10.56,0,0,1,202.22,5.32Zm8.71,0,2,1.56A8.2,8.2,0,0,0,211,9.6a7.42,7.42,0,0,0-.46,2.57l-1.25-.88h3.79v5.39h-5.34V12.89a11,11,0,0,1,.7-4A10.42,10.42,0,0,1,210.93,5.32Z"/><path class="cls-6" d="M237.07,16.68l-2-1.56A9,9,0,0,0,237,12.37a7.17,7.17,0,0,0,.46-2.54l1.25.83h-3.79V5.32h5.34V9.11a10.77,10.77,0,0,1-.7,3.94A11,11,0,0,1,237.07,16.68Zm8.71,0-2-1.56a9,9,0,0,0,1.87-2.75,7.17,7.17,0,0,0,.46-2.54l1.25.83H243.6V5.32h5.34V9.11a10.77,10.77,0,0,1-.7,3.94A11.12,11.12,0,0,1,245.78,16.68Z"/><polygon class="cls-8" points="73.5 17.31 78.48 8.69 68.53 8.69 73.5 17.31"/><rect class="cls-9" x="28.52" y="31.69" width="139.65" height="56" rx="5.67"/><text class="cls-10" transform="translate(33.52 46.06)">item<tspan x="0" y="18">Rename </tspan><tspan class="cls-11" x="61.59" y="18">v</tspan><tspan x="69.46" y="18">ariable...</tspan><tspan x="0" y="36">N</tspan><tspan class="cls-12" x="11.19" y="36">e</tspan><tspan x="19.26" y="36">w </tspan><tspan class="cls-12" x="36.21" y="36">v</tspan><tspan class="cls-13" x="44.08" y="36">ariable...</tspan></text></g></g></svg>