<svg xmlns="http://www.w3.org/2000/svg" viewBox="0 0 595.28 42.52"><defs><style>.cls-1{fill:none;}.cls-2{fill:#7da1b1;}.cls-3{fill:#4789c9;}.cls-4{fill:#4ba587;}.cls-5{fill:#358267;}</style></defs><g id="Layer_2" data-name="Layer 2"><g id="Layer_1-2" data-name="Layer 1"><path class="cls-1" d="M118.63,22.68a5.37,5.37,0,0,0-1-2.77,3.67,3.67,0,0,0-3.08-1.37,4,4,0,0,0-3.35,1.53,5.82,5.82,0,0,0-1,2.61Z"/><polygon points="106.62 8.32 85.23 8.32 85.23 12.13 93.58 12.13 93.58 33.95 98.26 33.95 98.26 12.13 106.62 12.13 106.62 8.32"/><path d="M118.78,16.4a8.16,8.16,0,0,0-4.32-1.1,8.57,8.57,0,0,0-4.57,1.21,8.27,8.27,0,0,0-3.09,3.35,10.45,10.45,0,0,0-1.12,4.95,10.42,10.42,0,0,0,1.15,5,7.81,7.81,0,0,0,3.3,3.24,10.89,10.89,0,0,0,5.09,1.11,12.86,12.86,0,0,0,3.83-.59,9.3,9.3,0,0,0,3.19-1.68l-1.3-3.09a9.15,9.15,0,0,1-5.54,1.91,5.06,5.06,0,0,1-4-1.53,6.67,6.67,0,0,1-1.3-4.13h12.49v-.68a11.09,11.09,0,0,0-1-4.86A7.28,7.28,0,0,0,118.78,16.4Zm-4.21,2.14a3.67,3.67,0,0,1,3.08,1.37,5.37,5.37,0,0,1,1,2.77h-8.44a5.82,5.82,0,0,1,1-2.61A4,4,0,0,1,114.57,18.54Z"/><polygon points="143.48 15.77 138.12 15.77 133.69 21.42 129.26 15.77 123.93 15.77 131.13 24.59 123.46 33.95 128.83 33.95 133.69 27.79 138.62 33.95 143.91 33.95 136.32 24.59 143.48 15.77"/><path d="M156.58,19.15V15.77h-4.82V9.83l-4.5,1.51v4.43h-3.49v3.38h3.49v8.36a6.86,6.86,0,0,0,1.67,5,6.28,6.28,0,0,0,4.74,1.73,11.7,11.7,0,0,0,1.49-.09,6.81,6.81,0,0,0,1.42-.34V30.21c-.36.09-.68.16-1,.21a5.29,5.29,0,0,1-.9.07,3.73,3.73,0,0,1-1.49-.28,2.25,2.25,0,0,1-1.06-1,3.88,3.88,0,0,1-.4-1.93V19.15Z"/><path class="cls-2" d="M62,41.43H22.88a.63.63,0,0,1-.63-.62V1.71a.63.63,0,0,1,.63-.62H62a.63.63,0,0,1,.63.62v39.1A.63.63,0,0,1,62,41.43ZM23.5,40.19H61.35V2.33H23.5Z"/><path class="cls-3" d="M24.26,3.42H21.5a.33.33,0,0,1-.33-.33V.33A.33.33,0,0,1,21.5,0h2.76a.33.33,0,0,1,.33.33V3.09A.33.33,0,0,1,24.26,3.42Z"/><path class="cls-3" d="M43.8,3.42H41.05a.34.34,0,0,1-.34-.33V.33A.34.34,0,0,1,41.05,0H43.8a.34.34,0,0,1,.34.33V3.09A.34.34,0,0,1,43.8,3.42Z"/><path class="cls-3" d="M63.35,3.42H60.6a.34.34,0,0,1-.34-.33V.33A.34.34,0,0,1,60.6,0h2.75a.34.34,0,0,1,.34.33V3.09A.34.34,0,0,1,63.35,3.42Z"/><path class="cls-3" d="M24.26,42.52H21.5a.33.33,0,0,1-.33-.33V39.43a.33.33,0,0,1,.33-.33h2.76a.33.33,0,0,1,.33.33v2.76A.33.33,0,0,1,24.26,42.52Z"/><path class="cls-3" d="M24.26,42.52H21.5a.33.33,0,0,1-.33-.33V39.43a.33.33,0,0,1,.33-.33h2.76a.33.33,0,0,1,.33.33v2.76A.33.33,0,0,1,24.26,42.52Z"/><path class="cls-3" d="M24.26,23H21.5a.33.33,0,0,1-.33-.33V19.88a.33.33,0,0,1,.33-.33h2.76a.33.33,0,0,1,.33.33v2.76A.33.33,0,0,1,24.26,23Z"/><path class="cls-3" d="M24.26,23H21.5a.33.33,0,0,1-.33-.33V19.88a.33.33,0,0,1,.33-.33h2.76a.33.33,0,0,1,.33.33v2.76A.33.33,0,0,1,24.26,23Z"/><path class="cls-3" d="M43.8,42.52H41.05a.34.34,0,0,1-.34-.33V39.43a.34.34,0,0,1,.34-.33H43.8a.34.34,0,0,1,.34.33v2.76A.34.34,0,0,1,43.8,42.52Z"/><path class="cls-3" d="M63.35,42.52H60.6a.34.34,0,0,1-.34-.33V39.43a.34.34,0,0,1,.34-.33h2.75a.34.34,0,0,1,.34.33v2.76A.34.34,0,0,1,63.35,42.52Z"/><path class="cls-3" d="M63.35,23H60.6a.34.34,0,0,1-.34-.33V19.88a.34.34,0,0,1,.34-.33h2.75a.34.34,0,0,1,.34.33v2.76A.34.34,0,0,1,63.35,23Z"/><path class="cls-4" d="M53.65,10v5.3a.34.34,0,0,1-.34.34h-2.4a.35.35,0,0,1-.33-.24l-.73-2.51a.35.35,0,0,0-.33-.24H44.27a.35.35,0,0,0-.35.34V31.39a.35.35,0,0,0,.35.34H48a.34.34,0,0,1,.34.34v2.31a.34.34,0,0,1-.34.34H36.87a.34.34,0,0,1-.34-.34V32.07a.34.34,0,0,1,.34-.34h3.72a.34.34,0,0,0,.34-.34V13a.34.34,0,0,0-.34-.34H35.33a.35.35,0,0,0-.33.24l-.73,2.51a.35.35,0,0,1-.33.24h-2.4a.34.34,0,0,1-.34-.34V10a.34.34,0,0,1,.34-.34H53.31a.34.34,0,0,1,.34.34Z"/><path class="cls-5" d="M33.6,15.61H31.54a.34.34,0,0,1-.34-.34V10a.34.34,0,0,1,.34-.34H33.6a.34.34,0,0,0-.34.34v5.3A.34.34,0,0,0,33.6,15.61Z"/><path class="cls-5" d="M38.93,34.72H36.87a.34.34,0,0,1-.34-.34V32.07a.34.34,0,0,1,.34-.34h2.06a.34.34,0,0,0-.34.34v2.31A.34.34,0,0,0,38.93,34.72Z"/><path class="cls-5" d="M43,13V31.39a.34.34,0,0,1-.34.34h-2a.34.34,0,0,0,.34-.34V13a.34.34,0,0,0-.34-.34h2A.34.34,0,0,1,43,13Z"/><rect class="cls-1" width="595.28" height="18"/></g></g></svg>