<svg xmlns="http://www.w3.org/2000/svg" viewBox="0 0 595.4 36"><defs><style>.cls-1,.cls-4{fill:none;}.cls-2{fill:#3c866d;}.cls-3{fill:#4ba587;}.cls-4{stroke:#81c1ab;}.cls-5{isolation:isolate;font-size:15px;fill:#fff;font-family:Mulish-Regular, Mulish;}.cls-6{letter-spacing:0em;}.cls-7{letter-spacing:0.01em;}</style></defs><g id="Layer_2" data-name="Layer 2"><g id="Layer_1-2" data-name="Layer 1"><rect class="cls-1" x="0.12" width="595.28" height="18"/><path class="cls-2" d="M9.12,1H116.87V36H9.12V21c0-10-8,8-8-7.5s8,2.5,8-7.5Zm30.5,5H25.12v5c0,10-8-8-8,7.5s8-2.5,8,7.5v6h14.5Z"/><path class="cls-3" d="M8.12,0H115.87V35H8.12V20c0-10-8,8-8-7.5s8,2.5,8-7.5Zm30.5,5H24.12v5c0,10-8-8-8,7.5s8-2.5,8,7.5v6h14.5Z"/><path class="cls-4" d="M8.62.5h19m0,0h87.75M8.62,34.5v-16M1.26,18a20.35,20.35,0,0,1,0-11M8.62,8V.5h.5m30,5v26H24.62M19,24.3l3.68-2.1"/><text class="cls-5" transform="translate(48.62 22.5)">is em<tspan class="cls-6" x="36.27" y="0">p</tspan><tspan class="cls-7" x="45.25" y="0">t</tspan><tspan x="50.59" y="0">y</tspan></text></g></g></svg>