<svg xmlns="http://www.w3.org/2000/svg" viewBox="0 0 595.39 25"><defs><style>.cls-1{fill:none;}.cls-2{fill:#3c866d;}.cls-3{fill:#4ba587;}.cls-4{fill:#81c1ab;}.cls-5{isolation:isolate;}.cls-6{fill:#fff;}</style></defs><g id="Layer_2" data-name="Layer 2"><g id="Layer_1-2" data-name="Layer 1"><rect class="cls-1" x="0.12" width="595.28" height="18"/><path class="cls-2" d="M9.12,1H96.9V6c0,10-8-8-8,7.5s8-2.5,8,7.5v4H9.12V21c0-10-8,8-8-7.5s8,2.5,8-7.5Z"/><path class="cls-3" d="M8.12,0H95.9V5c0,10-8-8-8,7.5s8-2.5,8,7.5v4H8.12V20c0-10-8,8-8-7.5s8,2.5,8-7.5Z"/><path class="cls-4" d="M9.12,23.5h-1v-5h1Zm82-3.77-.5-.86,3.68-2.1.5.86ZM.77,18.13a20.9,20.9,0,0,1,0-11.26l1,.26a19.79,19.79,0,0,0,0,10.74ZM9.12,8h-1V0H95.4V1H9.12Z"/><g class="cls-5"><path class="cls-6" d="M19.29,17.5v-11H20.5v11Z"/><path class="cls-6" d="M29,16.6a3.58,3.58,0,0,1-1.27.74,5,5,0,0,1-1.58.27,4.13,4.13,0,0,1-2-.47,3.19,3.19,0,0,1-1.31-1.34,4.57,4.57,0,0,1-.45-2.09,4.5,4.5,0,0,1,.45-2.06,3.34,3.34,0,0,1,1.25-1.38A3.43,3.43,0,0,1,26,9.78a3.2,3.2,0,0,1,1.73.44,2.86,2.86,0,0,1,1.1,1.27,4.76,4.76,0,0,1,.38,2v.22h-5.7v-.8h5l-.39.56a3.08,3.08,0,0,0-.52-2A1.88,1.88,0,0,0,26,10.72a2.1,2.1,0,0,0-1.72.77,3.31,3.31,0,0,0-.62,2.14,3.27,3.27,0,0,0,.65,2.22,2.39,2.39,0,0,0,1.91.75,3.65,3.65,0,0,0,1.27-.22,4.11,4.11,0,0,0,1.16-.66Z"/><path class="cls-6" d="M31,17.5V12.07c0-.35,0-.7,0-1.06a9.1,9.1,0,0,0-.09-1h1.15l.14,1.55-.15.13a2.58,2.58,0,0,1,1.05-1.39,3,3,0,0,1,1.69-.47c1.81,0,2.72,1,2.72,3V17.5H36.28V12.82a2.34,2.34,0,0,0-.42-1.54,1.67,1.67,0,0,0-1.32-.48,2.24,2.24,0,0,0-1.68.64,2.38,2.38,0,0,0-.63,1.74V17.5Z"/><path class="cls-6" d="M43.11,20.84a5.52,5.52,0,0,1-3-.77l.21-1a6.48,6.48,0,0,0,1.33.58,5.23,5.23,0,0,0,1.43.18,2.17,2.17,0,0,0,1.64-.58,2.38,2.38,0,0,0,.56-1.71v-2l.17-.2a2.7,2.7,0,0,1-.57,1A2.46,2.46,0,0,1,44,17a3.15,3.15,0,0,1-1.26.24A3.26,3.26,0,0,1,41,16.8a3.19,3.19,0,0,1-1.18-1.31,4.19,4.19,0,0,1-.43-2,4.24,4.24,0,0,1,.43-2A3.19,3.19,0,0,1,41,10.25a3.25,3.25,0,0,1,1.77-.47,3,3,0,0,1,1.77.51,2.54,2.54,0,0,1,1,1.45l-.18-.16V10h1.21v7.48A3.46,3.46,0,0,1,45.65,20,3.47,3.47,0,0,1,43.11,20.84ZM43,16.26a2.13,2.13,0,0,0,1.71-.73,3,3,0,0,0,.63-2,3,3,0,0,0-.63-2A2.13,2.13,0,0,0,43,10.8a2.21,2.21,0,0,0-1.75.72,2.94,2.94,0,0,0-.64,2,2.92,2.92,0,0,0,.64,2A2.25,2.25,0,0,0,43,16.26Z"/><path class="cls-6" d="M47.79,10.92V10h4.84v1Zm4.81,5.5v1a5,5,0,0,1-.5.11,4.58,4.58,0,0,1-.55,0,2.29,2.29,0,0,1-1.67-.6,2.37,2.37,0,0,1-.62-1.8V8l1.21-.43V15a2.11,2.11,0,0,0,.17.93,1,1,0,0,0,.48.46,1.78,1.78,0,0,0,.67.12,2.62,2.62,0,0,0,.41,0A2.73,2.73,0,0,0,52.6,16.42Z"/><path class="cls-6" d="M54.1,17.5v-11h1.22v5l-.2.15a2.58,2.58,0,0,1,1.05-1.39,3,3,0,0,1,1.7-.47c1.81,0,2.71,1,2.71,3V17.5H59.37V12.82A2.34,2.34,0,0,0,59,11.28a1.67,1.67,0,0,0-1.32-.48,2.24,2.24,0,0,0-1.68.64,2.38,2.38,0,0,0-.63,1.74V17.5Z"/><path class="cls-6" d="M69.91,17.61A3.58,3.58,0,0,1,68,17.13a3.35,3.35,0,0,1-1.25-1.36,4.65,4.65,0,0,1-.44-2.08,4.64,4.64,0,0,1,.44-2.07A3.23,3.23,0,0,1,68,10.26a3.92,3.92,0,0,1,3.76,0A3.23,3.23,0,0,1,73,11.62a4.64,4.64,0,0,1,.44,2.07A4.65,4.65,0,0,1,73,15.77a3.35,3.35,0,0,1-1.25,1.36A3.58,3.58,0,0,1,69.91,17.61Zm0-1a2.12,2.12,0,0,0,1.72-.74,3.4,3.4,0,0,0,.61-2.17,3.29,3.29,0,0,0-.62-2.14,2.09,2.09,0,0,0-1.71-.75,2.12,2.12,0,0,0-1.72.75,3.29,3.29,0,0,0-.62,2.14,3.34,3.34,0,0,0,.61,2.17A2.11,2.11,0,0,0,69.91,16.6Z"/><path class="cls-6" d="M74.29,10.92V10h4.53v1ZM79,7.57a2.85,2.85,0,0,0-.78-.12,1.51,1.51,0,0,0-.65.13.9.9,0,0,0-.46.46A2.06,2.06,0,0,0,77,9V17.5H75.76V8.8A2.45,2.45,0,0,1,76.36,7,2.27,2.27,0,0,1,78,6.4l.51,0a3.1,3.1,0,0,1,.51.11Z"/></g></g></g></svg>