<svg xmlns="http://www.w3.org/2000/svg" viewBox="0 0 595.4 26"><defs><style>.cls-1,.cls-4{fill:none;}.cls-2{fill:#3c866d;}.cls-3{fill:#4ba587;}.cls-4{stroke:#81c1ab;}.cls-5{opacity:0.6;}.cls-6{fill:#fff;}.cls-7{isolation:isolate;}</style></defs><g id="Layer_2" data-name="Layer 2"><g id="Layer_1-2" data-name="Layer 1"><rect class="cls-1" x="0.12" width="595.28" height="18"/><path class="cls-2" d="M9.12,1H77V26H9.12V21c0-10-8,8-8-7.5s8,2.5,8-7.5Z"/><path class="cls-3" d="M8.12,0H76V25H8.12V20c0-10-8,8-8-7.5s8,2.5,8-7.5Z"/><path class="cls-4" d="M8.62.5H75.45M8.62,24.5v-6M1.26,18a20.35,20.35,0,0,1,0-11M8.62,8V.5h.5"/><g class="cls-5"><rect class="cls-6" x="35.12" y="5" width="13.83" height="16" rx="4"/></g><path class="cls-6" d="M20.26,5.32l2,1.56A8,8,0,0,0,20.36,9.6a7.42,7.42,0,0,0-.46,2.57l-1.25-.88h3.79v5.39H17.1V12.89a11,11,0,0,1,.7-4A10.29,10.29,0,0,1,20.26,5.32Zm8.71,0,2,1.56A8,8,0,0,0,29.07,9.6a7.43,7.43,0,0,0-.47,2.57l-1.24-.88h3.78v5.39H25.8V12.89a11.18,11.18,0,0,1,.7-4A10.46,10.46,0,0,1,29,5.32Z"/><path class="cls-6" d="M55.11,16.68l-2-1.56A8.76,8.76,0,0,0,55,12.37a7.18,7.18,0,0,0,.47-2.54l1.24.83H52.93V5.32h5.34V9.11a10.77,10.77,0,0,1-.7,3.94A11.12,11.12,0,0,1,55.11,16.68Zm8.71,0-2-1.56a8.76,8.76,0,0,0,1.86-2.75,7.18,7.18,0,0,0,.47-2.54l1.24.83H61.64V5.32H67V9.11a11,11,0,0,1-.7,3.94A11.12,11.12,0,0,1,63.82,16.68Z"/></g></g></svg>