<svg xmlns="http://www.w3.org/2000/svg" viewBox="0 0 595.39 26"><defs><style>.cls-1{fill:none;}.cls-2{fill:#3c866d;}.cls-3{fill:#4ba587;}.cls-4{fill:#81c1ab;}.cls-5{opacity:0.6;}.cls-6{fill:#fff;}.cls-7{isolation:isolate;}</style></defs><g id="Layer_2" data-name="Layer 2"><g id="Layer_1-2" data-name="Layer 1"><rect class="cls-1" x="0.12" width="595.28" height="18"/><path class="cls-2" d="M9.12,1H77V26H9.12V21c0-10-8,8-8-7.5s8,2.5,8-7.5Z"/><path class="cls-3" d="M8.12,0H76V25H8.12V20c0-10-8,8-8-7.5s8,2.5,8-7.5Z"/><path class="cls-4" d="M9.12,24.5h-1v-6h1ZM.77,18.13a20.9,20.9,0,0,1,0-11.26l1,.26a19.79,19.79,0,0,0,0,10.74ZM9.12,8h-1V0H75.45V1H9.12Z"/><g class="cls-5"><rect class="cls-6" x="35.12" y="5" width="13.83" height="16" rx="4"/></g><path class="cls-6" d="M20.25,5.32l2,1.56A8.15,8.15,0,0,0,20.36,9.6a7.43,7.43,0,0,0-.47,2.57l-1.24-.88h3.78v5.39H17.09V12.89a11.18,11.18,0,0,1,.7-4A10.56,10.56,0,0,1,20.25,5.32Zm8.71,0,2,1.56A8.15,8.15,0,0,0,29.07,9.6a7.43,7.43,0,0,0-.47,2.57l-1.24-.88h3.78v5.39H25.8V12.89a11,11,0,0,1,.7-4A10.56,10.56,0,0,1,29,5.32Z"/><path class="cls-6" d="M55.1,16.68l-2-1.56A8.64,8.64,0,0,0,55,12.37a7.18,7.18,0,0,0,.47-2.54l1.24.83H52.93V5.32h5.34V9.11a11,11,0,0,1-.7,3.94A11,11,0,0,1,55.1,16.68Zm8.71,0-2-1.56a8.64,8.64,0,0,0,1.87-2.75,7.18,7.18,0,0,0,.47-2.54l1.24.83H61.63V5.32H67V9.11a10.77,10.77,0,0,1-.7,3.94A10.82,10.82,0,0,1,63.81,16.68Z"/></g></g></svg>