<svg xmlns="http://www.w3.org/2000/svg" viewBox="0 0 595.28 29"><defs><style>.cls-1{fill:none;}.cls-2{fill:#3d865a;}.cls-3{fill:#49a670;}.cls-4{fill:#81c29b;}.cls-5{isolation:isolate;}.cls-6{fill:#fff;}</style></defs><g id="Layer_2" data-name="Layer 2"><g id="Layer_1-2" data-name="Layer 1"><rect class="cls-1" width="595.28" height="18"/><path class="cls-2" d="M1,9A8,8,0,0,1,9,1h7l6,4h3l6-4H153.08V25H30.5l-6,4h-3l-6-4H9a8,8,0,0,1-8-8Z"/><path class="cls-3" d="M0,8A8,8,0,0,1,8,0h7l6,4h3l6-4H152.08V24H29.5l-6,4h-3l-6-4H8a8,8,0,0,1-8-8Z"/><path class="cls-4" d="M2.34,21.66A8,8,0,0,1,0,16V8H1v8A7,7,0,0,0,3.05,21ZM1,7.53,0,7.47A8,8,0,0,1,8,0h7.17l6,4h2.7l6-4H151.58V1H30.15l-6,4h-3.3l-6-4H8A7,7,0,0,0,1,7.53Z"/><g class="cls-5"><path class="cls-6" d="M14.34,17.61a3.67,3.67,0,0,1-1.92-.48,3.35,3.35,0,0,1-1.26-1.35,4.57,4.57,0,0,1-.44-2.06,4.5,4.5,0,0,1,.45-2.06,3.36,3.36,0,0,1,1.27-1.39,3.75,3.75,0,0,1,2-.49,4.11,4.11,0,0,1,1.47.26,3.22,3.22,0,0,1,1.18.72l-.4.91A5,5,0,0,0,15.56,11a3,3,0,0,0-1.1-.22,2.26,2.26,0,0,0-1.81.77A3.16,3.16,0,0,0,12,13.72a3.12,3.12,0,0,0,.66,2.13,2.3,2.3,0,0,0,1.82.75,2.83,2.83,0,0,0,1.09-.22,4.4,4.4,0,0,0,1.1-.65l.4.9a3.34,3.34,0,0,1-1.21.71A4.24,4.24,0,0,1,14.34,17.61Z"/><path class="cls-6" d="M21.26,17.61a2.61,2.61,0,0,1-2-.75,3.23,3.23,0,0,1-.68-2.23V10h1.21v4.65a2.24,2.24,0,0,0,.42,1.5,1.65,1.65,0,0,0,1.28.48,2.14,2.14,0,0,0,1.62-.65,2.41,2.41,0,0,0,.61-1.73V10h1.22V17.5H23.72V15.87l.18-.09a2.48,2.48,0,0,1-1,1.36A2.91,2.91,0,0,1,21.26,17.61Z"/><path class="cls-6" d="M27.25,17.5V12.07c0-.35,0-.7,0-1.06s-.05-.71-.1-1h1.15l.17,1.86-.17-.05a2.36,2.36,0,0,1,.91-1.49,2.6,2.6,0,0,1,1.57-.5,2.23,2.23,0,0,1,.37,0,1.65,1.65,0,0,1,.32.07l0,1.1a2.76,2.76,0,0,0-.8-.11,1.92,1.92,0,0,0-1.94,1.22,3,3,0,0,0-.22,1.12v4.3Z"/><path class="cls-6" d="M32.68,17.5V12.07c0-.35,0-.7,0-1.06s0-.71-.1-1h1.15l.17,1.86-.17-.05a2.36,2.36,0,0,1,.91-1.49,2.6,2.6,0,0,1,1.57-.5,2.23,2.23,0,0,1,.37,0,1.65,1.65,0,0,1,.32.07l0,1.1a2.71,2.71,0,0,0-.8-.11,1.92,1.92,0,0,0-1.94,1.22,3,3,0,0,0-.22,1.12v4.3Z"/><path class="cls-6" d="M44.14,16.6a3.49,3.49,0,0,1-1.27.74,5,5,0,0,1-1.58.27,4.16,4.16,0,0,1-2-.47A3.17,3.17,0,0,1,38,15.8a4.44,4.44,0,0,1-.46-2.09A4.47,4.47,0,0,1,38,11.65a3.41,3.41,0,0,1,1.25-1.38,3.47,3.47,0,0,1,1.86-.49,3.19,3.19,0,0,1,1.72.44,2.8,2.8,0,0,1,1.1,1.27,4.58,4.58,0,0,1,.39,2v.23h-5.7v-.8h5l-.4.56a3.19,3.19,0,0,0-.51-2,1.94,1.94,0,0,0-1.6-.7,2.11,2.11,0,0,0-1.72.77,3.36,3.36,0,0,0-.62,2.14,3.32,3.32,0,0,0,.65,2.22,2.41,2.41,0,0,0,1.92.75,3.56,3.56,0,0,0,1.26-.22,3.8,3.8,0,0,0,1.16-.67Z"/><path class="cls-6" d="M46.12,17.5V12.07c0-.35,0-.7,0-1.06s-.05-.71-.1-1h1.15l.14,1.55-.15.12a2.59,2.59,0,0,1,1-1.38,3,3,0,0,1,1.69-.47c1.81,0,2.72,1,2.72,3V17.5H51.38V12.82A2.34,2.34,0,0,0,51,11.28a1.67,1.67,0,0,0-1.32-.49,2.24,2.24,0,0,0-1.68.65,2.43,2.43,0,0,0-.63,1.74V17.5Z"/><path class="cls-6" d="M53.83,10.92V10h4.84v1Zm4.81,5.5v1l-.5.11a4.43,4.43,0,0,1-.55,0A2.27,2.27,0,0,1,55.92,17a2.39,2.39,0,0,1-.62-1.79V8l1.21-.43V15a2,2,0,0,0,.18.93,1,1,0,0,0,.47.46,1.78,1.78,0,0,0,.67.12l.41,0Z"/><path class="cls-6" d="M63,10.92V10h4.85v1Zm4.82,5.5v1l-.5.11a4.58,4.58,0,0,1-.55,0A2.26,2.26,0,0,1,65.09,17a2.35,2.35,0,0,1-.63-1.79V8l1.22-.43V15a2.11,2.11,0,0,0,.17.93,1,1,0,0,0,.47.46,1.83,1.83,0,0,0,.68.12l.4,0Z"/><path class="cls-6" d="M69.19,6.76h1.48V8.14H69.19Zm.12,10.74V10h1.21V17.5Z"/><path class="cls-6" d="M72.88,17.5V12.07c0-.35,0-.7,0-1.06s0-.71-.1-1h1.15l.14,1.55-.15.11a2.56,2.56,0,0,1,.94-1.37,2.68,2.68,0,0,1,1.58-.47,2.46,2.46,0,0,1,1.7.54A2.56,2.56,0,0,1,78.89,12l-.36-.19a2.55,2.55,0,0,1,1-1.45,2.87,2.87,0,0,1,1.75-.54,2.29,2.29,0,0,1,1.87.74,3.38,3.38,0,0,1,.63,2.24V17.5H82.54V12.82a2.54,2.54,0,0,0-.38-1.54A1.41,1.41,0,0,0,81,10.79a1.85,1.85,0,0,0-1.49.65,2.61,2.61,0,0,0-.55,1.76v4.3H77.72V12.82a2.48,2.48,0,0,0-.38-1.54,1.43,1.43,0,0,0-1.19-.49,1.89,1.89,0,0,0-1.51.65,2.67,2.67,0,0,0-.55,1.76v4.3Z"/><path class="cls-6" d="M92.24,16.6a3.53,3.53,0,0,1-1.26.74,5.1,5.1,0,0,1-1.59.27,4.09,4.09,0,0,1-2-.47,3.19,3.19,0,0,1-1.31-1.34,4.57,4.57,0,0,1-.46-2.09,4.47,4.47,0,0,1,.45-2.06,3.37,3.37,0,0,1,1.26-1.38,3.43,3.43,0,0,1,1.85-.49,3.17,3.17,0,0,1,1.72.44A2.88,2.88,0,0,1,92,11.49a4.74,4.74,0,0,1,.38,2v.23h-5.7v-.8h5l-.39.56a3.13,3.13,0,0,0-.52-2,1.92,1.92,0,0,0-1.6-.7,2.08,2.08,0,0,0-1.71.77,3.31,3.31,0,0,0-.63,2.14,3.27,3.27,0,0,0,.66,2.22,2.39,2.39,0,0,0,1.91.75,3.65,3.65,0,0,0,1.27-.22,3.92,3.92,0,0,0,1.16-.67Z"/><path class="cls-6" d="M101.2,17.61a4.27,4.27,0,0,1-1.81-.36,2.9,2.9,0,0,1-1.2-1,2.56,2.56,0,0,1-.43-1.46A2.81,2.81,0,0,1,98.39,13a6.92,6.92,0,0,1,2-1.61,14.7,14.7,0,0,0,1.52-1,3.07,3.07,0,0,0,.77-.76,1.48,1.48,0,0,0,.21-.76,1.22,1.22,0,0,0-.36-.92,1.27,1.27,0,0,0-.94-.36,1.48,1.48,0,0,0-1.07.39,1.31,1.31,0,0,0-.4,1,1.65,1.65,0,0,0,.1.58,2.36,2.36,0,0,0,.35.62q.25.35.72.87L105,15.25a5.91,5.91,0,0,0,.94.84,6.46,6.46,0,0,0,1.25.7l-.66.84a6.92,6.92,0,0,1-1.32-.76,6.51,6.51,0,0,1-1-.87l-3.88-4.37a8.9,8.9,0,0,1-.8-1,3.15,3.15,0,0,1-.42-.81A2.28,2.28,0,0,1,99,9a2.16,2.16,0,0,1,1.25-2,3,3,0,0,1,1.37-.3,2.56,2.56,0,0,1,1.75.58A2,2,0,0,1,104,8.86a2.27,2.27,0,0,1-.27,1.1,3.35,3.35,0,0,1-.91,1,15.13,15.13,0,0,1-1.76,1.18,8.29,8.29,0,0,0-1.23.86,2.7,2.7,0,0,0-.66.84,2,2,0,0,0-.21.93,1.63,1.63,0,0,0,.62,1.33,2.56,2.56,0,0,0,1.65.5,3.16,3.16,0,0,0,2-.67,4.48,4.48,0,0,0,1.35-1.88,8,8,0,0,0,.54-2.84h1.08a9.14,9.14,0,0,1-.43,2.61,6.37,6.37,0,0,1-1,2,4.79,4.79,0,0,1-1.55,1.3A4.32,4.32,0,0,1,101.2,17.61Z"/><path class="cls-6" d="M118.75,17.5h-1.2v-2l.18.17a2.51,2.51,0,0,1-1,1.45,2.88,2.88,0,0,1-1.75.52,3.22,3.22,0,0,1-1.75-.49,3.33,3.33,0,0,1-1.18-1.38,4.86,4.86,0,0,1-.42-2.08,4.66,4.66,0,0,1,.42-2.05,3.17,3.17,0,0,1,1.17-1.36A3.28,3.28,0,0,1,115,9.78a2.94,2.94,0,0,1,1.75.51,2.58,2.58,0,0,1,1,1.45l-.2.15V6.46h1.22Zm-3.51-.9a2,2,0,0,0,1.7-.76,3.32,3.32,0,0,0,.61-2.15,3.38,3.38,0,0,0-.6-2.14,2.07,2.07,0,0,0-1.71-.76,2.12,2.12,0,0,0-1.73.75,3.21,3.21,0,0,0-.63,2.12,3.36,3.36,0,0,0,.63,2.17A2.1,2.1,0,0,0,115.24,16.6Z"/><path class="cls-6" d="M124,17.61a3.2,3.2,0,0,1-1.76-.48,3,3,0,0,1-1.17-1.35,4.7,4.7,0,0,1-.42-2.06,4.78,4.78,0,0,1,.42-2.07,3.33,3.33,0,0,1,1.18-1.38A3.14,3.14,0,0,1,124,9.78a2.94,2.94,0,0,1,1.75.51,2.51,2.51,0,0,1,1,1.45l-.18.12V10h1.2V17.5h-1.2V15.55l.18.09a2.51,2.51,0,0,1-1,1.45A2.88,2.88,0,0,1,124,17.61Zm.24-1a2,2,0,0,0,1.71-.76,3.38,3.38,0,0,0,.6-2.15,3.32,3.32,0,0,0-.61-2.15,2.06,2.06,0,0,0-1.7-.75,2.08,2.08,0,0,0-1.73.78,3.3,3.3,0,0,0-.63,2.15,3.22,3.22,0,0,0,.63,2.13A2.12,2.12,0,0,0,124.24,16.6Z"/><path class="cls-6" d="M129,10.92V10h4.84v1Zm4.81,5.5v1l-.5.11a4.43,4.43,0,0,1-.55,0,2.27,2.27,0,0,1-1.67-.61,2.39,2.39,0,0,1-.62-1.79V8l1.21-.43V15a2,2,0,0,0,.18.93,1,1,0,0,0,.47.46,1.78,1.78,0,0,0,.67.12l.41,0Z"/><path class="cls-6" d="M141.53,16.6a3.53,3.53,0,0,1-1.26.74,5.1,5.1,0,0,1-1.59.27,4.09,4.09,0,0,1-2-.47,3.19,3.19,0,0,1-1.31-1.34,4.57,4.57,0,0,1-.46-2.09,4.47,4.47,0,0,1,.45-2.06,3.37,3.37,0,0,1,1.26-1.38,3.43,3.43,0,0,1,1.85-.49,3.17,3.17,0,0,1,1.72.44,2.88,2.88,0,0,1,1.11,1.27,4.74,4.74,0,0,1,.38,2v.23H136v-.8h5l-.39.56a3.13,3.13,0,0,0-.52-2,1.92,1.92,0,0,0-1.6-.7,2.08,2.08,0,0,0-1.71.77,3.31,3.31,0,0,0-.63,2.14,3.27,3.27,0,0,0,.66,2.22,2.39,2.39,0,0,0,1.91.75,3.65,3.65,0,0,0,1.27-.22,3.92,3.92,0,0,0,1.16-.67Z"/></g></g></g></svg>