<svg xmlns="http://www.w3.org/2000/svg" viewBox="0 0 595.4 25"><defs><style>.cls-1,.cls-4{fill:none;}.cls-2{fill:#3c8655;}.cls-3{fill:#4aa669;}.cls-4{stroke:#81c197;}.cls-5{isolation:isolate;font-size:15px;fill:#fff;font-family:Mulish-Regular, Mulish;}.cls-6{letter-spacing:-0.01em;}</style></defs><g id="Layer_2" data-name="Layer 2"><g id="Layer_1-2" data-name="Layer 1"><rect class="cls-1" x="0.12" width="595.28" height="18"/><path class="cls-2" d="M9.12,1H266.55V25H9.12V21c0-10-8,8-8-7.5s8,2.5,8-7.5Z"/><path class="cls-3" d="M8.12,0H265.55V24H8.12V20c0-10-8,8-8-7.5s8,2.5,8-7.5Z"/><path class="cls-4" d="M8.62.5H265.05M8.62,23.5v-5M1.26,18a20.35,20.35,0,0,1,0-11M8.62,8V.5h.5"/><text class="cls-5" transform="translate(18.12 17.5)">cur<tspan class="cls-6" x="21.51" y="0">r</tspan><tspan x="26.79" y="0">ent elapsed time (milliseconds)</tspan></text></g></g></svg>