<svg xmlns="http://www.w3.org/2000/svg" viewBox="0 0 595.28 42.52"><defs><style>.cls-1{fill:#231f20;}.cls-2{fill:#d5dcf0;}.cls-3{fill:#ebf5fc;}.cls-4{fill:#3d59a0;}.cls-5{fill:#2a438b;}.cls-6{fill:#49a670;}.cls-7{fill:#2c824f;}.cls-8{fill:#fedd42;}.cls-9{fill:none;}</style></defs><g id="Layer_2" data-name="Layer 2"><g id="Layer_1-2" data-name="Layer 1"><path class="cls-1" d="M93.58,34.35V12.53H85.23V8.71h21.39v3.82H98.26V34.35Z"/><path class="cls-1" d="M109.24,7.92h5v4.43h-5Zm.22,26.43V16.17H114V34.35Z"/><path class="cls-1" d="M118.82,34.35v-13c0-.84,0-1.69,0-2.57s-.12-1.73-.24-2.57h4.25l.39,3.6-.39,0a6.16,6.16,0,0,1,2.3-3,6.51,6.51,0,0,1,3.75-1.08,5.84,5.84,0,0,1,4,1.28,6.38,6.38,0,0,1,1.89,3.9l-.86-.79a6.5,6.5,0,0,1,2.45-3.19,6.87,6.87,0,0,1,4-1.2,5.57,5.57,0,0,1,4.57,1.85q1.52,1.86,1.51,5.64V34.35h-4.5v-11a5.37,5.37,0,0,0-.7-3.08,2.65,2.65,0,0,0-2.32-1A3.57,3.57,0,0,0,136,20.58a5.57,5.57,0,0,0-1.06,3.61V34.35h-4.5v-11a5.19,5.19,0,0,0-.74-3.08,2.69,2.69,0,0,0-2.32-1,3.6,3.6,0,0,0-3,1.32,5.57,5.57,0,0,0-1.06,3.61V34.35Z"/><path class="cls-1" d="M166.81,32.33A9.21,9.21,0,0,1,163.62,34a12.6,12.6,0,0,1-3.83.6,10.84,10.84,0,0,1-5.1-1.12,7.73,7.73,0,0,1-3.29-3.24,10.37,10.37,0,0,1-1.15-5,10.62,10.62,0,0,1,1.11-4.95,8.43,8.43,0,0,1,3.1-3.35A8.63,8.63,0,0,1,159,15.7a8.07,8.07,0,0,1,4.32,1.1A7.28,7.28,0,0,1,166.14,20a11,11,0,0,1,1,4.86v.68H154.21l0-2.41h10.23l-1.23,1.22a6.27,6.27,0,0,0-1-4,3.65,3.65,0,0,0-3.08-1.37,4,4,0,0,0-3.35,1.53,7,7,0,0,0-1.19,4.37,7.13,7.13,0,0,0,1.34,4.77,5,5,0,0,0,4,1.53,9,9,0,0,0,2.9-.48,9.29,9.29,0,0,0,2.64-1.43Z"/><path class="cls-2" d="M41.61,35.43H25.42a2.84,2.84,0,0,1-2.84-2.83V29.76H44.34Z"/><path class="cls-3" d="M59.44,12.76V32.6h-34a2.84,2.84,0,0,1-2.84-2.84v-17L42.43,5.67Z"/><path class="cls-4" d="M27.59,18.43H26.08a.67.67,0,0,1-.66-.67V16.25a.67.67,0,0,1,.66-.66h1.51a.66.66,0,0,1,.66.66v1.51A.66.66,0,0,1,27.59,18.43Z"/><path class="cls-4" d="M33.26,18.43H31.75a.66.66,0,0,1-.66-.67V16.25a.66.66,0,0,1,.66-.66h1.51a.67.67,0,0,1,.66.66v1.51A.67.67,0,0,1,33.26,18.43Z"/><path class="cls-4" d="M38.93,18.43H37.42a.66.66,0,0,1-.66-.67V16.25a.66.66,0,0,1,.66-.66h1.51a.67.67,0,0,1,.66.66v1.51A.67.67,0,0,1,38.93,18.43Z"/><path class="cls-4" d="M44.6,18.43H43.09a.66.66,0,0,1-.66-.67V16.25a.66.66,0,0,1,.66-.66H44.6a.67.67,0,0,1,.66.66v1.51A.67.67,0,0,1,44.6,18.43Z"/><path class="cls-4" d="M50.26,18.43h-1.5a.67.67,0,0,1-.67-.67V16.25a.67.67,0,0,1,.67-.66h1.5a.67.67,0,0,1,.67.66v1.51A.67.67,0,0,1,50.26,18.43Z"/><path class="cls-4" d="M55.93,18.43h-1.5a.67.67,0,0,1-.67-.67V16.25a.67.67,0,0,1,.67-.66h1.5a.67.67,0,0,1,.67.66v1.51A.67.67,0,0,1,55.93,18.43Z"/><path class="cls-4" d="M27.59,24.09H26.08a.66.66,0,0,1-.66-.66V21.92a.67.67,0,0,1,.66-.66h1.51a.66.66,0,0,1,.66.66v1.51A.65.65,0,0,1,27.59,24.09Z"/><path class="cls-4" d="M33.26,24.09H31.75a.65.65,0,0,1-.66-.66V21.92a.66.66,0,0,1,.66-.66h1.51a.67.67,0,0,1,.66.66v1.51A.66.66,0,0,1,33.26,24.09Z"/><path class="cls-4" d="M38.93,24.09H37.42a.65.65,0,0,1-.66-.66V21.92a.66.66,0,0,1,.66-.66h1.51a.67.67,0,0,1,.66.66v1.51A.66.66,0,0,1,38.93,24.09Z"/><path class="cls-4" d="M45.26,24.09V22a.71.71,0,0,0-.71-.71H43.13a.7.7,0,0,0-.7.71v1.42a.7.7,0,0,0,.7.7Z"/><path class="cls-4" d="M27.59,29.76H26.08a.66.66,0,0,1-.66-.66V27.59a.67.67,0,0,1,.66-.66h1.51a.66.66,0,0,1,.66.66V29.1A.65.65,0,0,1,27.59,29.76Z"/><path class="cls-4" d="M33.26,29.76H31.75a.65.65,0,0,1-.66-.66V27.59a.66.66,0,0,1,.66-.66h1.51a.67.67,0,0,1,.66.66V29.1A.66.66,0,0,1,33.26,29.76Z"/><path class="cls-4" d="M38.93,29.76H37.42a.65.65,0,0,1-.66-.66V27.59a.66.66,0,0,1,.66-.66h1.51a.67.67,0,0,1,.66.66V29.1A.66.66,0,0,1,38.93,29.76Z"/><path class="cls-5" d="M55.91,15.59H54.45a.66.66,0,0,0-.25.05.69.69,0,0,1,.43.63v1.47a.69.69,0,0,1-.43.64.66.66,0,0,0,.25.05h1.46a.69.69,0,0,0,.69-.69V16.27A.69.69,0,0,0,55.91,15.59Z"/><path class="cls-5" d="M50.24,15.59H48.78a.7.7,0,0,0-.25.05.69.69,0,0,1,.43.63v1.47a.69.69,0,0,1-.43.64.7.7,0,0,0,.25.05h1.46a.69.69,0,0,0,.69-.69V16.27A.69.69,0,0,0,50.24,15.59Z"/><path class="cls-5" d="M44.58,15.59H43.11a.7.7,0,0,0-.25.05.69.69,0,0,1,.43.63v1.47a.69.69,0,0,1-.43.64.7.7,0,0,0,.25.05h1.47a.69.69,0,0,0,.68-.69V16.27A.69.69,0,0,0,44.58,15.59Z"/><path class="cls-5" d="M38.91,15.59H37.44a.7.7,0,0,0-.25.05.69.69,0,0,1,.43.63v1.47a.69.69,0,0,1-.43.64.7.7,0,0,0,.25.05h1.47a.69.69,0,0,0,.68-.69V16.27A.69.69,0,0,0,38.91,15.59Z"/><path class="cls-5" d="M33.24,15.59H31.77a.7.7,0,0,0-.25.05.69.69,0,0,1,.43.63v1.47a.69.69,0,0,1-.43.64.7.7,0,0,0,.25.05h1.47a.68.68,0,0,0,.68-.69V16.27A.68.68,0,0,0,33.24,15.59Z"/><path class="cls-5" d="M27.57,15.59H26.1a.7.7,0,0,0-.25.05.68.68,0,0,1,.44.63v1.47a.68.68,0,0,1-.44.64.7.7,0,0,0,.25.05h1.47a.68.68,0,0,0,.68-.69V16.27A.68.68,0,0,0,27.57,15.59Z"/><path class="cls-5" d="M27.57,21.26H26.1a.7.7,0,0,0-.25,0,.67.67,0,0,1,.44.63v1.47a.68.68,0,0,1-.44.64.69.69,0,0,0,.25,0h1.47a.67.67,0,0,0,.68-.68V21.94a.68.68,0,0,0-.68-.68Z"/><path class="cls-5" d="M27.57,26.93H26.1a.7.7,0,0,0-.25.05.67.67,0,0,1,.44.63v1.47a.68.68,0,0,1-.44.64.69.69,0,0,0,.25,0h1.47a.67.67,0,0,0,.68-.68V27.61a.68.68,0,0,0-.68-.68Z"/><path class="cls-5" d="M33.24,21.26H31.77a.7.7,0,0,0-.25,0,.68.68,0,0,1,.43.63v1.47a.69.69,0,0,1-.43.64.69.69,0,0,0,.25,0h1.47a.67.67,0,0,0,.68-.68V21.94a.68.68,0,0,0-.68-.68Z"/><path class="cls-5" d="M33.24,26.93H31.77a.7.7,0,0,0-.25.05.68.68,0,0,1,.43.63v1.47a.69.69,0,0,1-.43.64.69.69,0,0,0,.25,0h1.47a.67.67,0,0,0,.68-.68V27.61a.68.68,0,0,0-.68-.68Z"/><path class="cls-5" d="M38.91,21.26H37.44a.7.7,0,0,0-.25,0,.68.68,0,0,1,.43.63v1.47a.69.69,0,0,1-.43.64.69.69,0,0,0,.25,0h1.47a.68.68,0,0,0,.68-.68V21.94a.69.69,0,0,0-.68-.68Z"/><path class="cls-5" d="M45.26,24.09V21.94a.69.69,0,0,0-.68-.68H43.11a.7.7,0,0,0-.25,0,.68.68,0,0,1,.43.63v1.47a.69.69,0,0,1-.43.64.69.69,0,0,0,.25,0Z"/><path class="cls-5" d="M38.91,26.93H37.44a.7.7,0,0,0-.25.05.68.68,0,0,1,.43.63v1.47a.69.69,0,0,1-.43.64.69.69,0,0,0,.25,0h1.47a.68.68,0,0,0,.68-.68V27.61a.69.69,0,0,0-.68-.68Z"/><path class="cls-2" d="M57.47,11.94V32.6h2V12.76Z"/><path class="cls-6" d="M59.44,12.76V5.67A2.84,2.84,0,0,0,56.6,2.83H25.42a2.84,2.84,0,0,0-2.84,2.84v7.09Z"/><path class="cls-7" d="M31.51,6.31H29.67a.64.64,0,0,1,0-1.28h1.84a.64.64,0,1,1,0,1.28Z"/><path class="cls-7" d="M36.05,6.31H34.2a.64.64,0,0,1-.64-.64A.64.64,0,0,1,34.2,5h1.85a.64.64,0,0,1,.64.64A.64.64,0,0,1,36.05,6.31Z"/><path class="cls-7" d="M47.81,6.31H46A.64.64,0,0,1,46,5h1.84a.64.64,0,1,1,0,1.28Z"/><path class="cls-7" d="M52.35,6.31H50.5a.64.64,0,0,1-.64-.64A.64.64,0,0,1,50.5,5h1.85a.64.64,0,0,1,.64.64A.64.64,0,0,1,52.35,6.31Z"/><path class="cls-3" d="M34.63,5.31a1.77,1.77,0,1,1-3.54,0V1.77a1.77,1.77,0,0,1,3.54,0V5.31Z"/><path class="cls-3" d="M50.93,5.31a1.77,1.77,0,1,1-3.54,0V1.77a1.77,1.77,0,0,1,3.54,0V5.31Z"/><path class="cls-2" d="M49.16,0a1.72,1.72,0,0,0-1,.3A1.78,1.78,0,0,1,49,1.77V5.31a1.78,1.78,0,0,1-.78,1.48,1.72,1.72,0,0,0,1,.3,1.77,1.77,0,0,0,1.77-1.77V1.77A1.77,1.77,0,0,0,49.16,0Z"/><path class="cls-2" d="M32.86,0a1.72,1.72,0,0,0-1,.3,1.78,1.78,0,0,1,.78,1.47V5.31a1.78,1.78,0,0,1-.78,1.48,1.72,1.72,0,0,0,1,.3,1.77,1.77,0,0,0,1.77-1.77V1.77A1.77,1.77,0,0,0,32.86,0Z"/><path class="cls-7" d="M56.6,2.83h-2a2.84,2.84,0,0,1,2.84,2.84v7.09h2V5.67A2.84,2.84,0,0,0,56.6,2.83Z"/><path class="cls-7" d="M22.58,9.28H59.44v1.28H22.58Z"/><circle class="cls-6" cx="51.64" cy="31.89" r="10.63"/><circle class="cls-3" cx="51.64" cy="31.89" r="7.8"/><path class="cls-4" d="M51.64,31.11a.63.63,0,0,1-.64-.64V26.93a.64.64,0,1,1,1.28,0v3.54A.64.64,0,0,1,51.64,31.11Z"/><path class="cls-4" d="M55.18,32.53H53.06a.64.64,0,1,1,0-1.28h2.12a.64.64,0,0,1,0,1.28Z"/><path class="cls-7" d="M51.64,21.26c-.33,0-.66,0-1,0a10.63,10.63,0,0,1,0,21.16c.32,0,.65.05,1,.05a10.63,10.63,0,1,0,0-21.26Z"/><path class="cls-2" d="M51.64,24.09a7.93,7.93,0,0,0-1,.07,7.79,7.79,0,0,1,0,15.46,7.93,7.93,0,0,0,1,.07,7.8,7.8,0,0,0,0-15.6Z"/><circle class="cls-8" cx="51.64" cy="31.89" r="1.42"/><rect class="cls-9" width="595.28" height="18"/></g></g></svg>