<svg xmlns="http://www.w3.org/2000/svg" viewBox="0 0 595.28 113.99"><defs><style>.cls-1{fill:none;}.cls-2{fill:#ff5100;}.cls-3{fill:#231f20;}</style></defs><g id="Layer_2" data-name="Layer 2"><g id="Layer_1-2" data-name="Layer 1"><rect class="cls-1" width="595.28" height="18"/><rect x="2" y="66.04" width="2.5" height="2.5"/><rect x="2" y="63.13" width="2.5" height="2.5"/><rect x="2" y="60.22" width="2.5" height="2.5"/><rect x="2" y="57.31" width="2.5" height="2.5"/><rect x="2" y="54.4" width="2.5" height="2.5"/><rect x="2" y="51.49" width="2.5" height="2.5"/><rect x="2" y="48.57" width="2.5" height="2.5"/><rect x="2" y="45.66" width="2.5" height="2.5"/><rect x="2" y="42.75" width="2.5" height="2.5"/><rect x="2" y="39.84" width="2.5" height="2.5"/><rect x="2" y="36.93" width="2.5" height="2.5"/><rect x="2" y="34.02" width="2.5" height="2.5"/><rect x="2" y="31.11" width="2.5" height="2.5"/><rect x="2" y="28.2" width="2.5" height="2.5"/><rect x="2" y="25.29" width="2.5" height="2.5"/><rect x="2" y="22.38" width="2.5" height="2.5"/><rect x="2" y="19.47" width="2.5" height="2.5"/><rect x="2" y="16.55" width="2.5" height="2.5"/><rect x="2" y="13.64" width="2.5" height="2.5"/><rect x="2" y="10.73" width="2.5" height="2.5"/><rect x="2" y="7.82" width="2.5" height="2.5"/><rect x="2" y="4.91" width="2.5" height="2.5"/><rect x="4.91" y="2" width="2.5" height="2.5"/><rect x="4.91" y="68.95" width="2.5" height="2.5"/><rect x="4.91" y="66.04" width="2.5" height="2.5"/><rect x="4.91" y="63.13" width="2.5" height="2.5"/><rect x="4.91" y="60.22" width="2.5" height="2.5"/><rect x="4.91" y="57.31" width="2.5" height="2.5"/><rect x="4.91" y="54.4" width="2.5" height="2.5"/><rect x="4.91" y="51.49" width="2.5" height="2.5"/><rect x="4.91" y="48.57" width="2.5" height="2.5"/><rect x="4.91" y="45.66" width="2.5" height="2.5"/><rect x="4.91" y="42.75" width="2.5" height="2.5"/><rect x="4.91" y="39.84" width="2.5" height="2.5"/><rect x="4.91" y="36.93" width="2.5" height="2.5"/><rect x="4.91" y="34.02" width="2.5" height="2.5"/><rect x="4.91" y="31.11" width="2.5" height="2.5"/><rect x="4.91" y="28.2" width="2.5" height="2.5"/><rect x="4.91" y="25.29" width="2.5" height="2.5"/><rect x="4.91" y="22.38" width="2.5" height="2.5"/><rect x="4.91" y="19.47" width="2.5" height="2.5"/><rect x="4.91" y="16.55" width="2.5" height="2.5"/><rect x="4.91" y="13.64" width="2.5" height="2.5"/><rect x="4.91" y="10.73" width="2.5" height="2.5"/><rect x="4.91" y="7.82" width="2.5" height="2.5"/><rect x="4.91" y="4.91" width="2.5" height="2.5"/><rect x="7.82" y="2" width="2.5" height="2.5"/><rect x="7.82" y="68.95" width="2.5" height="2.5"/><rect x="7.82" y="66.04" width="2.5" height="2.5"/><rect x="7.82" y="63.13" width="2.5" height="2.5"/><rect x="7.82" y="60.22" width="2.5" height="2.5"/><rect x="7.82" y="57.31" width="2.5" height="2.5"/><rect x="7.82" y="54.4" width="2.5" height="2.5"/><rect x="7.82" y="51.49" width="2.5" height="2.5"/><rect x="7.82" y="48.57" width="2.5" height="2.5"/><rect x="7.82" y="45.66" width="2.5" height="2.5"/><rect x="7.82" y="42.75" width="2.5" height="2.5"/><rect x="7.82" y="39.84" width="2.5" height="2.5"/><rect x="7.82" y="36.93" width="2.5" height="2.5"/><rect x="7.82" y="34.02" width="2.5" height="2.5"/><rect x="7.82" y="31.11" width="2.5" height="2.5"/><rect x="7.82" y="28.2" width="2.5" height="2.5"/><rect x="7.82" y="25.29" width="2.5" height="2.5"/><rect x="7.82" y="22.38" width="2.5" height="2.5"/><rect x="7.82" y="19.47" width="2.5" height="2.5"/><rect x="7.82" y="16.55" width="2.5" height="2.5"/><rect x="7.82" y="13.64" width="2.5" height="2.5"/><rect x="7.82" y="10.73" width="2.5" height="2.5"/><rect x="7.82" y="7.82" width="2.5" height="2.5"/><rect x="7.82" y="4.91" width="2.5" height="2.5"/><rect x="10.73" y="2" width="2.5" height="2.5"/><rect x="10.73" y="68.95" width="2.5" height="2.5"/><rect x="10.73" y="66.04" width="2.5" height="2.5"/><rect x="10.73" y="63.13" width="2.5" height="2.5"/><rect x="10.73" y="60.22" width="2.5" height="2.5"/><rect x="10.73" y="57.31" width="2.5" height="2.5"/><rect x="10.73" y="54.4" width="2.5" height="2.5"/><rect x="10.73" y="51.49" width="2.5" height="2.5"/><rect x="10.73" y="48.57" width="2.5" height="2.5"/><rect x="10.73" y="45.66" width="2.5" height="2.5"/><rect x="10.73" y="42.75" width="2.5" height="2.5"/><rect x="10.73" y="39.84" width="2.5" height="2.5"/><rect x="10.73" y="36.93" width="2.5" height="2.5"/><rect x="10.73" y="34.02" width="2.5" height="2.5"/><rect x="10.73" y="31.11" width="2.5" height="2.5"/><rect x="10.73" y="28.2" width="2.5" height="2.5"/><rect x="10.73" y="25.29" width="2.5" height="2.5"/><rect x="10.73" y="22.38" width="2.5" height="2.5"/><rect x="10.73" y="19.47" width="2.5" height="2.5"/><rect x="10.73" y="16.55" width="2.5" height="2.5"/><rect x="10.73" y="13.64" width="2.5" height="2.5"/><rect x="10.73" y="10.73" width="2.5" height="2.5"/><rect x="10.73" y="7.82" width="2.5" height="2.5"/><rect x="10.73" y="4.91" width="2.5" height="2.5"/><rect x="13.64" y="2" width="2.5" height="2.5"/><rect x="13.64" y="68.95" width="2.5" height="2.5"/><rect x="13.64" y="66.04" width="2.5" height="2.5"/><rect x="13.64" y="63.13" width="2.5" height="2.5"/><rect x="13.64" y="60.22" width="2.5" height="2.5"/><rect x="13.64" y="57.31" width="2.5" height="2.5"/><rect x="13.64" y="54.4" width="2.5" height="2.5"/><rect x="13.64" y="51.49" width="2.5" height="2.5"/><rect x="13.64" y="48.57" width="2.5" height="2.5"/><rect x="13.64" y="45.66" width="2.5" height="2.5"/><rect x="13.64" y="42.75" width="2.5" height="2.5"/><rect x="13.64" y="39.84" width="2.5" height="2.5"/><rect x="13.64" y="36.93" width="2.5" height="2.5"/><rect x="13.64" y="34.02" width="2.5" height="2.5"/><rect x="13.64" y="31.11" width="2.5" height="2.5"/><rect x="13.64" y="28.2" width="2.5" height="2.5"/><rect x="13.64" y="25.29" width="2.5" height="2.5"/><rect x="13.64" y="22.38" width="2.5" height="2.5"/><rect x="13.64" y="19.47" width="2.5" height="2.5"/><rect x="13.64" y="16.55" width="2.5" height="2.5"/><rect x="13.64" y="13.64" width="2.5" height="2.5"/><rect x="13.64" y="10.73" width="2.5" height="2.5"/><rect x="13.64" y="7.82" width="2.5" height="2.5"/><rect x="13.64" y="4.91" width="2.5" height="2.5"/><rect x="16.55" y="2" width="2.5" height="2.5"/><rect x="16.55" y="68.95" width="2.5" height="2.5"/><rect x="16.55" y="66.04" width="2.5" height="2.5"/><rect x="16.55" y="63.13" width="2.5" height="2.5"/><rect x="16.55" y="60.22" width="2.5" height="2.5"/><rect x="16.55" y="10.73" width="2.5" height="2.5"/><rect x="16.55" y="7.82" width="2.5" height="2.5"/><rect x="16.55" y="4.91" width="2.5" height="2.5"/><rect x="19.47" y="2" width="2.5" height="2.5"/><rect x="19.47" y="68.95" width="2.5" height="2.5"/><rect x="19.47" y="66.04" width="2.5" height="2.5"/><rect x="19.47" y="63.13" width="2.5" height="2.5"/><rect x="19.47" y="60.22" width="2.5" height="2.5"/><rect x="19.47" y="10.73" width="2.5" height="2.5"/><rect x="19.47" y="7.82" width="2.5" height="2.5"/><rect x="19.47" y="4.91" width="2.5" height="2.5"/><rect x="22.38" y="2" width="2.5" height="2.5"/><rect x="22.38" y="68.95" width="2.5" height="2.5"/><rect x="22.38" y="66.04" width="2.5" height="2.5"/><rect x="22.38" y="63.13" width="2.5" height="2.5"/><rect x="22.38" y="60.22" width="2.5" height="2.5"/><rect x="22.38" y="10.73" width="2.5" height="2.5"/><rect x="22.38" y="7.82" width="2.5" height="2.5"/><rect x="22.38" y="4.91" width="2.5" height="2.5"/><rect x="25.29" y="2" width="2.5" height="2.5"/><rect x="25.29" y="68.95" width="2.5" height="2.5"/><rect x="25.29" y="66.04" width="2.5" height="2.5"/><rect x="25.29" y="63.13" width="2.5" height="2.5"/><rect x="25.29" y="60.22" width="2.5" height="2.5"/><rect x="25.29" y="10.73" width="2.5" height="2.5"/><rect x="25.29" y="7.82" width="2.5" height="2.5"/><rect x="25.29" y="4.91" width="2.5" height="2.5"/><rect x="28.2" y="2" width="2.5" height="2.5"/><rect x="28.2" y="68.95" width="2.5" height="2.5"/><rect x="28.2" y="66.04" width="2.5" height="2.5"/><rect x="28.2" y="63.13" width="2.5" height="2.5"/><rect x="28.2" y="60.22" width="2.5" height="2.5"/><rect x="28.2" y="10.73" width="2.5" height="2.5"/><rect x="28.2" y="7.82" width="2.5" height="2.5"/><rect x="28.2" y="4.91" width="2.5" height="2.5"/><rect x="31.11" y="2" width="2.5" height="2.5"/><rect x="31.11" y="68.95" width="2.5" height="2.5"/><rect x="31.11" y="66.04" width="2.5" height="2.5"/><rect x="31.11" y="63.13" width="2.5" height="2.5"/><rect x="31.11" y="60.22" width="2.5" height="2.5"/><rect x="31.11" y="10.73" width="2.5" height="2.5"/><rect x="31.11" y="7.82" width="2.5" height="2.5"/><rect x="31.11" y="4.91" width="2.5" height="2.5"/><rect x="34.02" y="2" width="2.5" height="2.5"/><rect x="34.02" y="68.95" width="2.5" height="2.5"/><rect x="34.02" y="66.04" width="2.5" height="2.5"/><rect x="34.02" y="63.13" width="2.5" height="2.5"/><rect x="34.02" y="60.22" width="2.5" height="2.5"/><rect x="34.02" y="10.73" width="2.5" height="2.5"/><rect x="34.02" y="7.82" width="2.5" height="2.5"/><rect x="34.02" y="4.91" width="2.5" height="2.5"/><rect x="36.93" y="2" width="2.5" height="2.5"/><rect x="36.93" y="68.95" width="2.5" height="2.5"/><rect x="36.93" y="66.04" width="2.5" height="2.5"/><rect x="36.93" y="63.13" width="2.5" height="2.5"/><rect x="36.93" y="60.22" width="2.5" height="2.5"/><rect x="36.93" y="10.73" width="2.5" height="2.5"/><rect x="36.93" y="7.82" width="2.5" height="2.5"/><rect x="36.93" y="4.91" width="2.5" height="2.5"/><rect x="39.84" y="2" width="2.5" height="2.5"/><rect x="39.84" y="68.95" width="2.5" height="2.5"/><rect x="39.84" y="66.04" width="2.5" height="2.5"/><rect x="39.84" y="63.13" width="2.5" height="2.5"/><rect x="39.84" y="60.22" width="2.5" height="2.5"/><rect x="39.84" y="10.73" width="2.5" height="2.5"/><rect x="39.84" y="7.82" width="2.5" height="2.5"/><rect x="39.84" y="4.91" width="2.5" height="2.5"/><rect x="42.75" y="2" width="2.5" height="2.5"/><rect x="42.75" y="68.95" width="2.5" height="2.5"/><rect x="42.75" y="66.04" width="2.5" height="2.5"/><rect x="42.75" y="63.13" width="2.5" height="2.5"/><rect x="42.75" y="60.22" width="2.5" height="2.5"/><rect x="42.75" y="57.31" width="2.5" height="2.5"/><rect x="42.75" y="54.4" width="2.5" height="2.5"/><rect x="42.75" y="51.49" width="2.5" height="2.5"/><rect x="42.75" y="48.57" width="2.5" height="2.5"/><rect x="42.75" y="45.66" width="2.5" height="2.5"/><rect x="42.75" y="42.75" width="2.5" height="2.5"/><rect x="42.75" y="39.84" width="2.5" height="2.5"/><rect x="42.75" y="36.93" width="2.5" height="2.5"/><rect x="42.75" y="34.02" width="2.5" height="2.5"/><rect x="42.75" y="31.11" width="2.5" height="2.5"/><rect x="42.75" y="28.2" width="2.5" height="2.5"/><rect x="42.75" y="25.29" width="2.5" height="2.5"/><rect x="42.75" y="22.38" width="2.5" height="2.5"/><rect x="42.75" y="19.47" width="2.5" height="2.5"/><rect x="42.75" y="16.55" width="2.5" height="2.5"/><rect x="42.75" y="13.64" width="2.5" height="2.5"/><rect x="42.75" y="10.73" width="2.5" height="2.5"/><rect x="42.75" y="7.82" width="2.5" height="2.5"/><rect x="42.75" y="4.91" width="2.5" height="2.5"/><rect x="45.66" y="2" width="2.5" height="2.5"/><rect x="45.66" y="68.95" width="2.5" height="2.5"/><rect x="45.66" y="66.04" width="2.5" height="2.5"/><rect x="45.66" y="63.13" width="2.5" height="2.5"/><rect x="45.66" y="60.22" width="2.5" height="2.5"/><rect x="45.66" y="57.31" width="2.5" height="2.5"/><rect x="45.66" y="54.4" width="2.5" height="2.5"/><rect x="45.66" y="51.49" width="2.5" height="2.5"/><rect x="45.66" y="48.57" width="2.5" height="2.5"/><rect x="45.66" y="45.66" width="2.5" height="2.5"/><rect x="45.66" y="42.75" width="2.5" height="2.5"/><rect x="45.66" y="39.84" width="2.5" height="2.5"/><rect x="45.66" y="36.93" width="2.5" height="2.5"/><rect x="45.66" y="34.02" width="2.5" height="2.5"/><rect x="45.66" y="31.11" width="2.5" height="2.5"/><rect x="45.66" y="28.2" width="2.5" height="2.5"/><rect x="45.66" y="25.29" width="2.5" height="2.5"/><rect x="45.66" y="22.38" width="2.5" height="2.5"/><rect x="45.66" y="19.47" width="2.5" height="2.5"/><rect x="45.66" y="16.55" width="2.5" height="2.5"/><rect x="45.66" y="13.64" width="2.5" height="2.5"/><rect x="45.66" y="10.73" width="2.5" height="2.5"/><rect x="45.66" y="7.82" width="2.5" height="2.5"/><rect x="45.66" y="4.91" width="2.5" height="2.5"/><rect x="48.57" y="2" width="2.5" height="2.5"/><rect x="48.57" y="68.95" width="2.5" height="2.5"/><rect x="48.57" y="66.04" width="2.5" height="2.5"/><rect x="48.57" y="63.13" width="2.5" height="2.5"/><rect x="48.57" y="60.22" width="2.5" height="2.5"/><rect x="48.57" y="57.31" width="2.5" height="2.5"/><rect x="48.57" y="54.4" width="2.5" height="2.5"/><rect x="48.57" y="51.49" width="2.5" height="2.5"/><rect x="48.57" y="48.57" width="2.5" height="2.5"/><rect x="48.57" y="45.66" width="2.5" height="2.5"/><rect x="48.57" y="42.75" width="2.5" height="2.5"/><rect x="48.57" y="39.84" width="2.5" height="2.5"/><rect x="48.57" y="36.93" width="2.5" height="2.5"/><rect x="48.57" y="34.02" width="2.5" height="2.5"/><rect x="48.57" y="31.11" width="2.5" height="2.5"/><rect x="48.57" y="28.2" width="2.5" height="2.5"/><rect x="48.57" y="25.29" width="2.5" height="2.5"/><rect x="48.57" y="22.38" width="2.5" height="2.5"/><rect x="48.57" y="19.47" width="2.5" height="2.5"/><rect x="48.57" y="16.55" width="2.5" height="2.5"/><rect x="48.57" y="13.64" width="2.5" height="2.5"/><rect x="48.57" y="10.73" width="2.5" height="2.5"/><rect x="48.57" y="7.82" width="2.5" height="2.5"/><rect x="48.57" y="4.91" width="2.5" height="2.5"/><rect x="51.49" y="2" width="2.5" height="2.5"/><rect x="51.49" y="68.95" width="2.5" height="2.5"/><rect x="51.49" y="66.04" width="2.5" height="2.5"/><rect x="51.49" y="63.13" width="2.5" height="2.5"/><rect x="51.49" y="60.22" width="2.5" height="2.5"/><rect x="51.49" y="57.31" width="2.5" height="2.5"/><rect x="51.49" y="54.4" width="2.5" height="2.5"/><rect x="51.49" y="51.49" width="2.5" height="2.5"/><rect x="51.49" y="48.57" width="2.5" height="2.5"/><rect x="51.49" y="45.66" width="2.5" height="2.5"/><rect x="51.49" y="42.75" width="2.5" height="2.5"/><rect x="51.49" y="39.84" width="2.5" height="2.5"/><rect x="51.49" y="36.93" width="2.5" height="2.5"/><rect x="51.49" y="34.02" width="2.5" height="2.5"/><rect x="51.49" y="31.11" width="2.5" height="2.5"/><rect x="51.49" y="28.2" width="2.5" height="2.5"/><rect x="51.49" y="25.29" width="2.5" height="2.5"/><rect x="51.49" y="22.38" width="2.5" height="2.5"/><rect x="51.49" y="19.47" width="2.5" height="2.5"/><rect x="51.49" y="16.55" width="2.5" height="2.5"/><rect x="51.49" y="13.64" width="2.5" height="2.5"/><rect x="51.49" y="10.73" width="2.5" height="2.5"/><rect x="51.49" y="7.82" width="2.5" height="2.5"/><rect x="51.49" y="4.91" width="2.5" height="2.5"/><rect x="54.4" y="66.04" width="2.5" height="2.5"/><rect x="54.4" y="63.13" width="2.5" height="2.5"/><rect x="54.4" y="60.22" width="2.5" height="2.5"/><rect x="54.4" y="57.31" width="2.5" height="2.5"/><rect x="54.4" y="54.4" width="2.5" height="2.5"/><rect x="54.4" y="51.49" width="2.5" height="2.5"/><rect x="54.4" y="48.57" width="2.5" height="2.5"/><rect x="54.4" y="45.66" width="2.5" height="2.5"/><rect x="54.4" y="42.75" width="2.5" height="2.5"/><rect x="54.4" y="39.84" width="2.5" height="2.5"/><rect x="54.4" y="36.93" width="2.5" height="2.5"/><rect x="54.4" y="34.02" width="2.5" height="2.5"/><rect x="54.4" y="31.11" width="2.5" height="2.5"/><rect x="54.4" y="28.2" width="2.5" height="2.5"/><rect x="54.4" y="25.29" width="2.5" height="2.5"/><rect x="54.4" y="22.38" width="2.5" height="2.5"/><rect x="54.4" y="19.47" width="2.5" height="2.5"/><rect x="54.4" y="16.55" width="2.5" height="2.5"/><rect x="54.4" y="13.64" width="2.5" height="2.5"/><rect x="54.4" y="10.73" width="2.5" height="2.5"/><rect x="54.4" y="7.82" width="2.5" height="2.5"/><rect x="54.4" y="4.91" width="2.5" height="2.5"/><rect x="63.13" y="66.04" width="2.5" height="2.5"/><rect x="63.13" y="63.13" width="2.5" height="2.5"/><rect x="63.13" y="60.22" width="2.5" height="2.5"/><rect x="63.13" y="57.31" width="2.5" height="2.5"/><rect x="63.13" y="54.4" width="2.5" height="2.5"/><rect x="63.13" y="51.49" width="2.5" height="2.5"/><rect x="63.13" y="36.93" width="2.5" height="2.5"/><rect x="63.13" y="34.02" width="2.5" height="2.5"/><rect x="63.13" y="31.11" width="2.5" height="2.5"/><rect x="63.13" y="28.2" width="2.5" height="2.5"/><rect x="63.13" y="25.29" width="2.5" height="2.5"/><rect x="63.13" y="22.38" width="2.5" height="2.5"/><rect x="63.13" y="19.47" width="2.5" height="2.5"/><rect x="63.13" y="16.55" width="2.5" height="2.5"/><rect x="63.13" y="13.64" width="2.5" height="2.5"/><rect x="63.13" y="10.73" width="2.5" height="2.5"/><rect x="63.13" y="7.82" width="2.5" height="2.5"/><rect x="63.13" y="4.91" width="2.5" height="2.5"/><rect x="66.04" y="2" width="2.5" height="2.5"/><rect x="66.04" y="68.95" width="2.5" height="2.5"/><rect x="66.04" y="66.04" width="2.5" height="2.5"/><rect x="66.04" y="63.13" width="2.5" height="2.5"/><rect x="66.04" y="60.22" width="2.5" height="2.5"/><rect x="66.04" y="57.31" width="2.5" height="2.5"/><rect x="66.04" y="54.4" width="2.5" height="2.5"/><rect x="66.04" y="51.49" width="2.5" height="2.5"/><rect x="66.04" y="39.84" width="2.5" height="2.5"/><rect x="66.04" y="36.93" width="2.5" height="2.5"/><rect x="66.04" y="34.02" width="2.5" height="2.5"/><rect x="66.04" y="31.11" width="2.5" height="2.5"/><rect x="66.04" y="28.2" width="2.5" height="2.5"/><rect x="66.04" y="25.29" width="2.5" height="2.5"/><rect x="66.04" y="22.38" width="2.5" height="2.5"/><rect x="66.04" y="19.47" width="2.5" height="2.5"/><rect x="66.04" y="16.55" width="2.5" height="2.5"/><rect x="66.04" y="13.64" width="2.5" height="2.5"/><rect x="66.04" y="10.73" width="2.5" height="2.5"/><rect x="66.04" y="7.82" width="2.5" height="2.5"/><rect x="66.04" y="4.91" width="2.5" height="2.5"/><rect x="68.95" y="2" width="2.5" height="2.5"/><rect x="68.95" y="68.95" width="2.5" height="2.5"/><rect x="68.95" y="66.04" width="2.5" height="2.5"/><rect x="68.95" y="63.13" width="2.5" height="2.5"/><rect x="68.95" y="60.22" width="2.5" height="2.5"/><rect x="68.95" y="57.31" width="2.5" height="2.5"/><rect x="68.95" y="54.4" width="2.5" height="2.5"/><rect x="68.95" y="51.49" width="2.5" height="2.5"/><rect x="68.95" y="39.84" width="2.5" height="2.5"/><rect x="68.95" y="36.93" width="2.5" height="2.5"/><rect x="68.95" y="34.02" width="2.5" height="2.5"/><rect x="68.95" y="31.11" width="2.5" height="2.5"/><rect x="68.95" y="28.2" width="2.5" height="2.5"/><rect x="68.95" y="25.29" width="2.5" height="2.5"/><rect x="68.95" y="22.38" width="2.5" height="2.5"/><rect x="68.95" y="19.47" width="2.5" height="2.5"/><rect x="68.95" y="16.55" width="2.5" height="2.5"/><rect x="68.95" y="13.64" width="2.5" height="2.5"/><rect x="68.95" y="10.73" width="2.5" height="2.5"/><rect x="68.95" y="7.82" width="2.5" height="2.5"/><rect x="68.95" y="4.91" width="2.5" height="2.5"/><rect x="71.86" y="2" width="2.5" height="2.5"/><rect x="71.86" y="68.95" width="2.5" height="2.5"/><rect x="71.86" y="66.04" width="2.5" height="2.5"/><rect x="71.86" y="63.13" width="2.5" height="2.5"/><rect x="71.86" y="60.22" width="2.5" height="2.5"/><rect x="71.86" y="57.31" width="2.5" height="2.5"/><rect x="71.86" y="54.4" width="2.5" height="2.5"/><rect x="71.86" y="51.49" width="2.5" height="2.5"/><rect x="71.86" y="39.84" width="2.5" height="2.5"/><rect x="71.86" y="36.93" width="2.5" height="2.5"/><rect x="71.86" y="34.02" width="2.5" height="2.5"/><rect x="71.86" y="31.11" width="2.5" height="2.5"/><rect x="71.86" y="28.2" width="2.5" height="2.5"/><rect x="71.86" y="25.29" width="2.5" height="2.5"/><rect x="71.86" y="22.38" width="2.5" height="2.5"/><rect x="71.86" y="19.47" width="2.5" height="2.5"/><rect x="71.86" y="16.55" width="2.5" height="2.5"/><rect x="71.86" y="13.64" width="2.5" height="2.5"/><rect x="71.86" y="10.73" width="2.5" height="2.5"/><rect x="71.86" y="7.82" width="2.5" height="2.5"/><rect x="71.86" y="4.91" width="2.5" height="2.5"/><rect x="74.77" y="2" width="2.5" height="2.5"/><rect x="74.77" y="68.95" width="2.5" height="2.5"/><rect x="74.77" y="66.04" width="2.5" height="2.5"/><rect x="74.77" y="63.13" width="2.5" height="2.5"/><rect x="74.77" y="60.22" width="2.5" height="2.5"/><rect x="74.77" y="57.31" width="2.5" height="2.5"/><rect x="74.77" y="54.4" width="2.5" height="2.5"/><rect x="74.77" y="51.49" width="2.5" height="2.5"/><rect x="74.77" y="39.84" width="2.5" height="2.5"/><rect x="74.77" y="36.93" width="2.5" height="2.5"/><rect x="74.77" y="34.02" width="2.5" height="2.5"/><rect x="74.77" y="31.11" width="2.5" height="2.5"/><rect x="74.77" y="28.2" width="2.5" height="2.5"/><rect x="74.77" y="25.29" width="2.5" height="2.5"/><rect x="74.77" y="22.38" width="2.5" height="2.5"/><rect x="74.77" y="19.47" width="2.5" height="2.5"/><rect x="74.77" y="16.55" width="2.5" height="2.5"/><rect x="74.77" y="13.64" width="2.5" height="2.5"/><rect x="74.77" y="10.73" width="2.5" height="2.5"/><rect x="74.77" y="7.82" width="2.5" height="2.5"/><rect x="74.77" y="4.91" width="2.5" height="2.5"/><rect x="77.68" y="2" width="2.5" height="2.5"/><rect x="77.68" y="68.95" width="2.5" height="2.5"/><rect x="77.68" y="66.04" width="2.5" height="2.5"/><rect x="77.68" y="63.13" width="2.5" height="2.5"/><rect x="77.68" y="60.22" width="2.5" height="2.5"/><rect x="77.68" y="39.84" width="2.5" height="2.5"/><rect x="77.68" y="36.93" width="2.5" height="2.5"/><rect x="77.68" y="34.02" width="2.5" height="2.5"/><rect x="77.68" y="31.11" width="2.5" height="2.5"/><rect x="77.68" y="10.73" width="2.5" height="2.5"/><rect x="77.68" y="7.82" width="2.5" height="2.5"/><rect x="77.68" y="4.91" width="2.5" height="2.5"/><rect x="80.59" y="2" width="2.5" height="2.5"/><rect x="80.59" y="68.95" width="2.5" height="2.5"/><rect x="80.59" y="66.04" width="2.5" height="2.5"/><rect x="80.59" y="63.13" width="2.5" height="2.5"/><rect x="80.59" y="60.22" width="2.5" height="2.5"/><rect x="80.59" y="39.84" width="2.5" height="2.5"/><rect x="80.59" y="36.93" width="2.5" height="2.5"/><rect x="80.59" y="34.02" width="2.5" height="2.5"/><rect x="80.59" y="31.11" width="2.5" height="2.5"/><rect x="80.59" y="10.73" width="2.5" height="2.5"/><rect x="80.59" y="7.82" width="2.5" height="2.5"/><rect x="80.59" y="4.91" width="2.5" height="2.5"/><rect x="83.5" y="2" width="2.5" height="2.5"/><rect x="83.5" y="68.95" width="2.5" height="2.5"/><rect x="83.5" y="66.04" width="2.5" height="2.5"/><rect x="83.5" y="63.13" width="2.5" height="2.5"/><rect x="83.5" y="60.22" width="2.5" height="2.5"/><rect x="83.5" y="39.84" width="2.5" height="2.5"/><rect x="83.5" y="36.93" width="2.5" height="2.5"/><rect x="83.5" y="34.02" width="2.5" height="2.5"/><rect x="83.5" y="31.11" width="2.5" height="2.5"/><rect x="83.5" y="10.73" width="2.5" height="2.5"/><rect x="83.5" y="7.82" width="2.5" height="2.5"/><rect x="83.5" y="4.91" width="2.5" height="2.5"/><rect x="86.42" y="2" width="2.5" height="2.5"/><rect x="86.42" y="68.95" width="2.5" height="2.5"/><rect x="86.42" y="66.04" width="2.5" height="2.5"/><rect x="86.42" y="63.13" width="2.5" height="2.5"/><rect x="86.42" y="60.22" width="2.5" height="2.5"/><rect x="86.42" y="39.84" width="2.5" height="2.5"/><rect x="86.42" y="36.93" width="2.5" height="2.5"/><rect x="86.42" y="34.02" width="2.5" height="2.5"/><rect x="86.42" y="31.11" width="2.5" height="2.5"/><rect x="86.42" y="10.73" width="2.5" height="2.5"/><rect x="86.42" y="7.82" width="2.5" height="2.5"/><rect x="86.42" y="4.91" width="2.5" height="2.5"/><rect x="89.33" y="2" width="2.5" height="2.5"/><rect x="89.33" y="68.95" width="2.5" height="2.5"/><rect x="89.33" y="66.04" width="2.5" height="2.5"/><rect x="89.33" y="63.13" width="2.5" height="2.5"/><rect x="89.33" y="60.22" width="2.5" height="2.5"/><rect x="89.33" y="39.84" width="2.5" height="2.5"/><rect x="89.33" y="36.93" width="2.5" height="2.5"/><rect x="89.33" y="34.02" width="2.5" height="2.5"/><rect x="89.33" y="31.11" width="2.5" height="2.5"/><rect x="89.33" y="10.73" width="2.5" height="2.5"/><rect x="89.33" y="7.82" width="2.5" height="2.5"/><rect x="89.33" y="4.91" width="2.5" height="2.5"/><rect x="92.24" y="2" width="2.5" height="2.5"/><rect x="92.24" y="68.95" width="2.5" height="2.5"/><rect x="92.24" y="66.04" width="2.5" height="2.5"/><rect x="92.24" y="63.13" width="2.5" height="2.5"/><rect x="92.24" y="60.22" width="2.5" height="2.5"/><rect x="92.24" y="39.84" width="2.5" height="2.5"/><rect x="92.24" y="36.93" width="2.5" height="2.5"/><rect x="92.24" y="34.02" width="2.5" height="2.5"/><rect x="92.24" y="31.11" width="2.5" height="2.5"/><rect x="92.24" y="10.73" width="2.5" height="2.5"/><rect x="92.24" y="7.82" width="2.5" height="2.5"/><rect x="92.24" y="4.91" width="2.5" height="2.5"/><rect x="95.15" y="2" width="2.5" height="2.5"/><rect x="95.15" y="68.95" width="2.5" height="2.5"/><rect x="95.15" y="66.04" width="2.5" height="2.5"/><rect x="95.15" y="63.13" width="2.5" height="2.5"/><rect x="95.15" y="60.22" width="2.5" height="2.5"/><rect x="95.15" y="39.84" width="2.5" height="2.5"/><rect x="95.15" y="36.93" width="2.5" height="2.5"/><rect x="95.15" y="34.02" width="2.5" height="2.5"/><rect x="95.15" y="31.11" width="2.5" height="2.5"/><rect x="95.15" y="10.73" width="2.5" height="2.5"/><rect x="95.15" y="7.82" width="2.5" height="2.5"/><rect x="95.15" y="4.91" width="2.5" height="2.5"/><rect x="98.06" y="2" width="2.5" height="2.5"/><rect x="98.06" y="68.95" width="2.5" height="2.5"/><rect x="98.06" y="66.04" width="2.5" height="2.5"/><rect x="98.06" y="63.13" width="2.5" height="2.5"/><rect x="98.06" y="60.22" width="2.5" height="2.5"/><rect x="98.06" y="39.84" width="2.5" height="2.5"/><rect x="98.06" y="36.93" width="2.5" height="2.5"/><rect x="98.06" y="34.02" width="2.5" height="2.5"/><rect x="98.06" y="31.11" width="2.5" height="2.5"/><rect x="98.06" y="10.73" width="2.5" height="2.5"/><rect x="98.06" y="7.82" width="2.5" height="2.5"/><rect x="98.06" y="4.91" width="2.5" height="2.5"/><rect x="100.97" y="2" width="2.5" height="2.5"/><rect x="100.97" y="68.95" width="2.5" height="2.5"/><rect x="100.97" y="66.04" width="2.5" height="2.5"/><rect x="100.97" y="63.13" width="2.5" height="2.5"/><rect x="100.97" y="60.22" width="2.5" height="2.5"/><rect x="100.97" y="39.84" width="2.5" height="2.5"/><rect x="100.97" y="36.93" width="2.5" height="2.5"/><rect x="100.97" y="34.02" width="2.5" height="2.5"/><rect x="100.97" y="31.11" width="2.5" height="2.5"/><rect x="100.97" y="10.73" width="2.5" height="2.5"/><rect x="100.97" y="7.82" width="2.5" height="2.5"/><rect x="100.97" y="4.91" width="2.5" height="2.5"/><rect x="103.88" y="2" width="2.5" height="2.5"/><rect x="103.88" y="68.95" width="2.5" height="2.5"/><rect x="103.88" y="66.04" width="2.5" height="2.5"/><rect x="103.88" y="63.13" width="2.5" height="2.5"/><rect x="103.88" y="60.22" width="2.5" height="2.5"/><rect x="103.88" y="57.31" width="2.5" height="2.5"/><rect x="103.88" y="54.4" width="2.5" height="2.5"/><rect x="103.88" y="51.49" width="2.5" height="2.5"/><rect x="103.88" y="48.57" width="2.5" height="2.5"/><rect x="103.88" y="45.66" width="2.5" height="2.5"/><rect x="103.88" y="42.75" width="2.5" height="2.5"/><rect x="103.88" y="39.84" width="2.5" height="2.5"/><rect x="103.88" y="36.93" width="2.5" height="2.5"/><rect x="103.88" y="34.02" width="2.5" height="2.5"/><rect x="103.88" y="31.11" width="2.5" height="2.5"/><rect x="103.88" y="28.2" width="2.5" height="2.5"/><rect x="103.88" y="25.29" width="2.5" height="2.5"/><rect x="103.88" y="22.38" width="2.5" height="2.5"/><rect x="103.88" y="19.47" width="2.5" height="2.5"/><rect x="103.88" y="16.55" width="2.5" height="2.5"/><rect x="103.88" y="13.64" width="2.5" height="2.5"/><rect x="103.88" y="10.73" width="2.5" height="2.5"/><rect x="103.88" y="7.82" width="2.5" height="2.5"/><rect x="103.88" y="4.91" width="2.5" height="2.5"/><rect x="106.79" y="2" width="2.5" height="2.5"/><rect x="106.79" y="68.95" width="2.5" height="2.5"/><rect x="106.79" y="66.04" width="2.5" height="2.5"/><rect x="106.79" y="63.13" width="2.5" height="2.5"/><rect x="106.79" y="60.22" width="2.5" height="2.5"/><rect x="106.79" y="57.31" width="2.5" height="2.5"/><rect x="106.79" y="54.4" width="2.5" height="2.5"/><rect x="106.79" y="51.49" width="2.5" height="2.5"/><rect x="106.79" y="48.57" width="2.5" height="2.5"/><rect x="106.79" y="45.66" width="2.5" height="2.5"/><rect x="106.79" y="42.75" width="2.5" height="2.5"/><rect x="106.79" y="39.84" width="2.5" height="2.5"/><rect x="106.79" y="36.93" width="2.5" height="2.5"/><rect x="106.79" y="34.02" width="2.5" height="2.5"/><rect x="106.79" y="31.11" width="2.5" height="2.5"/><rect x="106.79" y="28.2" width="2.5" height="2.5"/><rect x="106.79" y="25.29" width="2.5" height="2.5"/><rect x="106.79" y="22.38" width="2.5" height="2.5"/><rect x="106.79" y="19.47" width="2.5" height="2.5"/><rect x="106.79" y="16.55" width="2.5" height="2.5"/><rect x="106.79" y="13.64" width="2.5" height="2.5"/><rect x="106.79" y="10.73" width="2.5" height="2.5"/><rect x="106.79" y="7.82" width="2.5" height="2.5"/><rect x="106.79" y="4.91" width="2.5" height="2.5"/><rect x="109.7" y="2" width="2.5" height="2.5"/><rect x="109.7" y="68.95" width="2.5" height="2.5"/><rect x="109.7" y="66.04" width="2.5" height="2.5"/><rect x="109.7" y="63.13" width="2.5" height="2.5"/><rect x="109.7" y="60.22" width="2.5" height="2.5"/><rect x="109.7" y="57.31" width="2.5" height="2.5"/><rect x="109.7" y="54.4" width="2.5" height="2.5"/><rect x="109.7" y="51.49" width="2.5" height="2.5"/><rect x="109.7" y="48.57" width="2.5" height="2.5"/><rect x="109.7" y="45.66" width="2.5" height="2.5"/><rect x="109.7" y="42.75" width="2.5" height="2.5"/><rect x="109.7" y="39.84" width="2.5" height="2.5"/><rect x="109.7" y="36.93" width="2.5" height="2.5"/><rect x="109.7" y="34.02" width="2.5" height="2.5"/><rect x="109.7" y="31.11" width="2.5" height="2.5"/><rect x="109.7" y="28.2" width="2.5" height="2.5"/><rect x="109.7" y="25.29" width="2.5" height="2.5"/><rect x="109.7" y="22.38" width="2.5" height="2.5"/><rect x="109.7" y="19.47" width="2.5" height="2.5"/><rect x="109.7" y="16.55" width="2.5" height="2.5"/><rect x="109.7" y="13.64" width="2.5" height="2.5"/><rect x="109.7" y="10.73" width="2.5" height="2.5"/><rect x="109.7" y="7.82" width="2.5" height="2.5"/><rect x="109.7" y="4.91" width="2.5" height="2.5"/><rect x="112.61" y="2" width="2.5" height="2.5"/><rect x="112.61" y="68.95" width="2.5" height="2.5"/><rect x="112.61" y="66.04" width="2.5" height="2.5"/><rect x="112.61" y="63.13" width="2.5" height="2.5"/><rect x="112.61" y="60.22" width="2.5" height="2.5"/><rect x="112.61" y="57.31" width="2.5" height="2.5"/><rect x="112.61" y="54.4" width="2.5" height="2.5"/><rect x="112.61" y="51.49" width="2.5" height="2.5"/><rect x="112.61" y="48.57" width="2.5" height="2.5"/><rect x="112.61" y="45.66" width="2.5" height="2.5"/><rect x="112.61" y="42.75" width="2.5" height="2.5"/><rect x="112.61" y="39.84" width="2.5" height="2.5"/><rect x="112.61" y="36.93" width="2.5" height="2.5"/><rect x="112.61" y="34.02" width="2.5" height="2.5"/><rect x="112.61" y="31.11" width="2.5" height="2.5"/><rect x="112.61" y="28.2" width="2.5" height="2.5"/><rect x="112.61" y="25.29" width="2.5" height="2.5"/><rect x="112.61" y="22.38" width="2.5" height="2.5"/><rect x="112.61" y="19.47" width="2.5" height="2.5"/><rect x="112.61" y="16.55" width="2.5" height="2.5"/><rect x="112.61" y="13.64" width="2.5" height="2.5"/><rect x="112.61" y="10.73" width="2.5" height="2.5"/><rect x="112.61" y="7.82" width="2.5" height="2.5"/><rect x="112.61" y="4.91" width="2.5" height="2.5"/><rect x="115.52" y="66.04" width="2.5" height="2.5"/><rect x="115.52" y="63.13" width="2.5" height="2.5"/><rect x="115.52" y="60.22" width="2.5" height="2.5"/><rect x="115.52" y="57.31" width="2.5" height="2.5"/><rect x="115.52" y="54.4" width="2.5" height="2.5"/><rect x="115.52" y="51.49" width="2.5" height="2.5"/><rect x="115.52" y="48.57" width="2.5" height="2.5"/><rect x="115.52" y="45.66" width="2.5" height="2.5"/><rect x="115.52" y="42.75" width="2.5" height="2.5"/><rect x="115.52" y="39.84" width="2.5" height="2.5"/><rect x="115.52" y="36.93" width="2.5" height="2.5"/><rect x="115.52" y="34.02" width="2.5" height="2.5"/><rect x="115.52" y="31.11" width="2.5" height="2.5"/><rect x="115.52" y="28.2" width="2.5" height="2.5"/><rect x="115.52" y="25.29" width="2.5" height="2.5"/><rect x="115.52" y="22.38" width="2.5" height="2.5"/><rect x="115.52" y="19.47" width="2.5" height="2.5"/><rect x="115.52" y="16.55" width="2.5" height="2.5"/><rect x="115.52" y="13.64" width="2.5" height="2.5"/><rect x="115.52" y="10.73" width="2.5" height="2.5"/><rect x="115.52" y="7.82" width="2.5" height="2.5"/><rect x="115.52" y="4.91" width="2.5" height="2.5"/><path class="cls-2" d="M118,79.49H2a.5.5,0,0,1,0-1H118a.5.5,0,0,1,0,1Z"/><path class="cls-3" d="M46.43,94.17V83.87h1.13v4.68l-.18.14a2.43,2.43,0,0,1,1-1.29A2.91,2.91,0,0,1,49.94,87c1.69,0,2.54.93,2.54,2.78v4.43H51.34V89.8A2.16,2.16,0,0,0,51,88.37a1.52,1.52,0,0,0-1.23-.46,2.1,2.1,0,0,0-1.57.6,2.25,2.25,0,0,0-.59,1.63v4Z"/><path class="cls-3" d="M57.53,94.27a3.36,3.36,0,0,1-1.76-.45,3.11,3.11,0,0,1-1.16-1.27,4.31,4.31,0,0,1-.41-1.94,4.35,4.35,0,0,1,.41-1.93,3.11,3.11,0,0,1,1.16-1.27,3.67,3.67,0,0,1,3.52,0,3,3,0,0,1,1.16,1.27,4.22,4.22,0,0,1,.41,1.93,4.18,4.18,0,0,1-.41,1.94,3,3,0,0,1-1.16,1.27A3.36,3.36,0,0,1,57.53,94.27Zm0-.94a2,2,0,0,0,1.61-.69,3.21,3.21,0,0,0,.56-2,3.09,3.09,0,0,0-.57-2,2.18,2.18,0,0,0-3.2,0,3,3,0,0,0-.58,2,3.21,3.21,0,0,0,.56,2A2,2,0,0,0,57.53,93.33Z"/><path class="cls-3" d="M65.12,94.27a2.48,2.48,0,0,1-1.9-.7,3,3,0,0,1-.63-2.08V87.13h1.13v4.34a2.11,2.11,0,0,0,.39,1.4,1.49,1.49,0,0,0,1.19.44,2,2,0,0,0,1.51-.6,2.21,2.21,0,0,0,.58-1.61v-4h1.13v7h-1.1V92.64l.16-.08a2.32,2.32,0,0,1-.94,1.27A2.73,2.73,0,0,1,65.12,94.27Z"/><path class="cls-3" d="M70.71,94.17V89.1c0-.33,0-.65,0-1a7.93,7.93,0,0,0-.09-1h1.08l.16,1.73-.16,0a2.15,2.15,0,0,1,.85-1.39A2.45,2.45,0,0,1,74,87l.34,0a1.55,1.55,0,0,1,.31.06l0,1a2.13,2.13,0,0,0-.74-.11,1.89,1.89,0,0,0-1.17.32,1.86,1.86,0,0,0-.65.82,2.83,2.83,0,0,0-.2,1v4Z"/><path class="cls-3" d="M24.89,111v-8.53h.34l-4.14,6v-.57h6.45v1H20.29v-.87L25.1,101H26v10Z"/><path class="cls-3" d="M32.21,111.08a3,3,0,0,1-2.6-1.29,8.62,8.62,0,0,1,0-7.61,3.28,3.28,0,0,1,5.21,0,8.6,8.6,0,0,1,0,7.6A2.92,2.92,0,0,1,32.21,111.08Zm0-1a1.87,1.87,0,0,0,1.75-1,6.62,6.62,0,0,0,.57-3.14,6.43,6.43,0,0,0-.57-3.11,2.05,2.05,0,0,0-3.51,0,6.51,6.51,0,0,0-.57,3.11,6.62,6.62,0,0,0,.57,3.14A1.89,1.89,0,0,0,32.21,110.12Z"/><path class="cls-3" d="M37.5,114V105.9c0-.33,0-.65,0-1s0-.66-.09-1h1.07l.13,1.45-.11.21a2.3,2.3,0,0,1,.91-1.35,2.72,2.72,0,0,1,1.62-.48,2.88,2.88,0,0,1,1.63.46,3.19,3.19,0,0,1,1.11,1.29,4.86,4.86,0,0,1,0,3.86,3.08,3.08,0,0,1-1.1,1.26,3,3,0,0,1-1.64.44,2.72,2.72,0,0,1-1.62-.48,2.35,2.35,0,0,1-.91-1.36l.15-.14V114Zm3.3-3.86a2,2,0,0,0,1.6-.7,3.08,3.08,0,0,0,.57-2,3.16,3.16,0,0,0-.57-2,2.17,2.17,0,0,0-3.21,0,3.87,3.87,0,0,0,0,4A1.93,1.93,0,0,0,40.8,110.13Z"/><path class="cls-3" d="M46.21,111H44.82l2.93-3.63.65-.82,2.05-2.59h1.38l-2.74,3.41-.69.86Zm4.42,0L48.4,108.2l-.65-.86L45,103.93h1.37l2,2.59.69.82L52,111Z"/><path class="cls-3" d="M62.7,103.63l.61.62-6,6-.61-.6Zm-5.38,0,6,6-.61.6-6-6Z"/><path class="cls-3" d="M69,111v-.87l3.49-3.86a6.89,6.89,0,0,0,1-1.42,2.68,2.68,0,0,0,.32-1.26,1.61,1.61,0,0,0-.47-1.26,1.9,1.9,0,0,0-1.36-.44,3.79,3.79,0,0,0-1.43.28,5.76,5.76,0,0,0-1.4.86l-.43-.88a4.24,4.24,0,0,1,1.48-.89,5,5,0,0,1,1.81-.34,3.61,3.61,0,0,1,1.57.31,2.35,2.35,0,0,1,1,.91,2.63,2.63,0,0,1,.37,1.4,3.66,3.66,0,0,1-.39,1.64,7.71,7.71,0,0,1-1.28,1.77L70,110.56l-.08-.56h5.53v1Z"/><path class="cls-3" d="M81.54,111v-8.53h.35l-4.14,6v-.57H84.2v1H77v-.87l4.8-6.93h.94v10Z"/><path class="cls-3" d="M85.75,114V105.9c0-.33,0-.65,0-1a7.93,7.93,0,0,0-.09-1h1.08l.13,1.45-.12.21a2.34,2.34,0,0,1,.91-1.35,2.73,2.73,0,0,1,1.63-.48,2.9,2.9,0,0,1,1.63.46,3.09,3.09,0,0,1,1.1,1.29,4.86,4.86,0,0,1,0,3.86,2.87,2.87,0,0,1-2.73,1.7,2.73,2.73,0,0,1-1.63-.48,2.4,2.4,0,0,1-.91-1.36l.16-.14V114Zm3.31-3.86a1.93,1.93,0,0,0,1.59-.7,3,3,0,0,0,.58-2,3.1,3.1,0,0,0-.58-2,2.16,2.16,0,0,0-3.2,0,3.87,3.87,0,0,0,0,4A1.93,1.93,0,0,0,89.06,110.13Z"/><path class="cls-3" d="M94.46,111H93.07L96,107.34l.66-.82,2-2.59h1.39l-2.75,3.41-.68.86Zm4.42,0-2.22-2.77-.66-.86-2.76-3.41h1.37l2,2.59.68.82,2.9,3.63Z"/><circle class="cls-2" cx="2" cy="2" r="2"/><rect x="143.31" y="66.04" width="2.5" height="2.5"/><rect x="143.31" y="63.13" width="2.5" height="2.5"/><rect x="143.31" y="60.22" width="2.5" height="2.5"/><rect x="143.31" y="57.31" width="2.5" height="2.5"/><rect x="143.31" y="54.4" width="2.5" height="2.5"/><rect x="143.31" y="51.49" width="2.5" height="2.5"/><rect x="143.31" y="48.57" width="2.5" height="2.5"/><rect x="143.31" y="45.66" width="2.5" height="2.5"/><rect x="143.31" y="42.75" width="2.5" height="2.5"/><rect x="143.31" y="39.84" width="2.5" height="2.5"/><rect x="143.31" y="36.93" width="2.5" height="2.5"/><rect x="143.31" y="34.02" width="2.5" height="2.5"/><rect x="143.31" y="31.11" width="2.5" height="2.5"/><rect x="143.31" y="28.2" width="2.5" height="2.5"/><rect x="143.31" y="25.29" width="2.5" height="2.5"/><rect x="143.31" y="22.38" width="2.5" height="2.5"/><rect x="143.31" y="19.47" width="2.5" height="2.5"/><rect x="143.31" y="16.55" width="2.5" height="2.5"/><rect x="143.31" y="13.64" width="2.5" height="2.5"/><rect x="143.31" y="10.73" width="2.5" height="2.5"/><rect x="143.31" y="7.82" width="2.5" height="2.5"/><rect x="143.31" y="4.91" width="2.5" height="2.5"/><rect x="146.22" y="2" width="2.5" height="2.5"/><rect x="146.22" y="68.95" width="2.5" height="2.5"/><rect x="146.22" y="66.04" width="2.5" height="2.5"/><rect x="146.22" y="63.13" width="2.5" height="2.5"/><rect x="146.22" y="60.22" width="2.5" height="2.5"/><rect x="146.22" y="57.31" width="2.5" height="2.5"/><rect x="146.22" y="54.4" width="2.5" height="2.5"/><rect x="146.22" y="51.49" width="2.5" height="2.5"/><rect x="146.22" y="48.57" width="2.5" height="2.5"/><rect x="146.22" y="45.66" width="2.5" height="2.5"/><rect x="146.22" y="42.75" width="2.5" height="2.5"/><rect x="146.22" y="39.84" width="2.5" height="2.5"/><rect x="146.22" y="36.93" width="2.5" height="2.5"/><rect x="146.22" y="34.02" width="2.5" height="2.5"/><rect x="146.22" y="31.11" width="2.5" height="2.5"/><rect x="146.22" y="28.2" width="2.5" height="2.5"/><rect x="146.22" y="25.29" width="2.5" height="2.5"/><rect x="146.22" y="22.38" width="2.5" height="2.5"/><rect x="146.22" y="19.47" width="2.5" height="2.5"/><rect x="146.22" y="16.55" width="2.5" height="2.5"/><rect x="146.22" y="13.64" width="2.5" height="2.5"/><rect x="146.22" y="10.73" width="2.5" height="2.5"/><rect x="146.22" y="7.82" width="2.5" height="2.5"/><rect x="146.22" y="4.91" width="2.5" height="2.5"/><rect x="149.13" y="2" width="2.5" height="2.5"/><rect x="149.13" y="68.95" width="2.5" height="2.5"/><rect x="149.13" y="66.04" width="2.5" height="2.5"/><rect x="149.13" y="63.13" width="2.5" height="2.5"/><rect x="149.13" y="60.22" width="2.5" height="2.5"/><rect x="149.13" y="57.31" width="2.5" height="2.5"/><rect x="149.13" y="54.4" width="2.5" height="2.5"/><rect x="149.13" y="51.49" width="2.5" height="2.5"/><rect x="149.13" y="48.57" width="2.5" height="2.5"/><rect x="149.13" y="45.66" width="2.5" height="2.5"/><rect x="149.13" y="42.75" width="2.5" height="2.5"/><rect x="149.13" y="39.84" width="2.5" height="2.5"/><rect x="149.13" y="36.93" width="2.5" height="2.5"/><rect x="149.13" y="34.02" width="2.5" height="2.5"/><rect x="149.13" y="31.11" width="2.5" height="2.5"/><rect x="149.13" y="28.2" width="2.5" height="2.5"/><rect x="149.13" y="25.29" width="2.5" height="2.5"/><rect x="149.13" y="22.38" width="2.5" height="2.5"/><rect x="149.13" y="19.47" width="2.5" height="2.5"/><rect x="149.13" y="16.55" width="2.5" height="2.5"/><rect x="149.13" y="13.64" width="2.5" height="2.5"/><rect x="149.13" y="10.73" width="2.5" height="2.5"/><rect x="149.13" y="7.82" width="2.5" height="2.5"/><rect x="149.13" y="4.91" width="2.5" height="2.5"/><rect x="152.04" y="2" width="2.5" height="2.5"/><rect x="152.04" y="68.95" width="2.5" height="2.5"/><rect x="152.04" y="66.04" width="2.5" height="2.5"/><rect x="152.04" y="63.13" width="2.5" height="2.5"/><rect x="152.04" y="60.22" width="2.5" height="2.5"/><rect x="152.04" y="57.31" width="2.5" height="2.5"/><rect x="152.04" y="54.4" width="2.5" height="2.5"/><rect x="152.04" y="51.49" width="2.5" height="2.5"/><rect x="152.04" y="48.57" width="2.5" height="2.5"/><rect x="152.04" y="45.66" width="2.5" height="2.5"/><rect x="152.04" y="42.75" width="2.5" height="2.5"/><rect x="152.04" y="39.84" width="2.5" height="2.5"/><rect x="152.04" y="36.93" width="2.5" height="2.5"/><rect x="152.04" y="34.02" width="2.5" height="2.5"/><rect x="152.04" y="31.11" width="2.5" height="2.5"/><rect x="152.04" y="28.2" width="2.5" height="2.5"/><rect x="152.04" y="25.29" width="2.5" height="2.5"/><rect x="152.04" y="22.38" width="2.5" height="2.5"/><rect x="152.04" y="19.47" width="2.5" height="2.5"/><rect x="152.04" y="16.55" width="2.5" height="2.5"/><rect x="152.04" y="13.64" width="2.5" height="2.5"/><rect x="152.04" y="10.73" width="2.5" height="2.5"/><rect x="152.04" y="7.82" width="2.5" height="2.5"/><rect x="152.04" y="4.91" width="2.5" height="2.5"/><rect x="154.96" y="2" width="2.5" height="2.5"/><rect x="154.96" y="68.95" width="2.5" height="2.5"/><rect x="154.96" y="66.04" width="2.5" height="2.5"/><rect x="154.96" y="63.13" width="2.5" height="2.5"/><rect x="154.96" y="60.22" width="2.5" height="2.5"/><rect x="154.96" y="57.31" width="2.5" height="2.5"/><rect x="154.96" y="54.4" width="2.5" height="2.5"/><rect x="154.96" y="51.49" width="2.5" height="2.5"/><rect x="154.96" y="48.57" width="2.5" height="2.5"/><rect x="154.96" y="45.66" width="2.5" height="2.5"/><rect x="154.96" y="42.75" width="2.5" height="2.5"/><rect x="154.96" y="39.84" width="2.5" height="2.5"/><rect x="154.96" y="36.93" width="2.5" height="2.5"/><rect x="154.96" y="34.02" width="2.5" height="2.5"/><rect x="154.96" y="31.11" width="2.5" height="2.5"/><rect x="154.96" y="28.2" width="2.5" height="2.5"/><rect x="154.96" y="25.29" width="2.5" height="2.5"/><rect x="154.96" y="22.38" width="2.5" height="2.5"/><rect x="154.96" y="19.47" width="2.5" height="2.5"/><rect x="154.96" y="16.55" width="2.5" height="2.5"/><rect x="154.96" y="13.64" width="2.5" height="2.5"/><rect x="154.96" y="10.73" width="2.5" height="2.5"/><rect x="154.96" y="7.82" width="2.5" height="2.5"/><rect x="154.96" y="4.91" width="2.5" height="2.5"/><rect x="157.87" y="2" width="2.5" height="2.5"/><rect x="157.87" y="68.95" width="2.5" height="2.5"/><rect x="157.87" y="66.04" width="2.5" height="2.5"/><rect x="157.87" y="63.13" width="2.5" height="2.5"/><rect x="157.87" y="60.22" width="2.5" height="2.5"/><rect x="157.87" y="10.73" width="2.5" height="2.5"/><rect x="157.87" y="7.82" width="2.5" height="2.5"/><rect x="157.87" y="4.91" width="2.5" height="2.5"/><rect x="160.78" y="2" width="2.5" height="2.5"/><rect x="160.78" y="68.95" width="2.5" height="2.5"/><rect x="160.78" y="66.04" width="2.5" height="2.5"/><rect x="160.78" y="63.13" width="2.5" height="2.5"/><rect x="160.78" y="60.22" width="2.5" height="2.5"/><rect x="160.78" y="10.73" width="2.5" height="2.5"/><rect x="160.78" y="7.82" width="2.5" height="2.5"/><rect x="160.78" y="4.91" width="2.5" height="2.5"/><rect x="163.69" y="2" width="2.5" height="2.5"/><rect x="163.69" y="68.95" width="2.5" height="2.5"/><rect x="163.69" y="66.04" width="2.5" height="2.5"/><rect x="163.69" y="63.13" width="2.5" height="2.5"/><rect x="163.69" y="60.22" width="2.5" height="2.5"/><rect x="163.69" y="10.73" width="2.5" height="2.5"/><rect x="163.69" y="7.82" width="2.5" height="2.5"/><rect x="163.69" y="4.91" width="2.5" height="2.5"/><rect x="166.6" y="2" width="2.5" height="2.5"/><rect x="166.6" y="68.95" width="2.5" height="2.5"/><rect x="166.6" y="66.04" width="2.5" height="2.5"/><rect x="166.6" y="63.13" width="2.5" height="2.5"/><rect x="166.6" y="60.22" width="2.5" height="2.5"/><rect x="166.6" y="10.73" width="2.5" height="2.5"/><rect x="166.6" y="7.82" width="2.5" height="2.5"/><rect x="166.6" y="4.91" width="2.5" height="2.5"/><rect x="169.51" y="2" width="2.5" height="2.5"/><rect x="169.51" y="68.95" width="2.5" height="2.5"/><rect x="169.51" y="66.04" width="2.5" height="2.5"/><rect x="169.51" y="63.13" width="2.5" height="2.5"/><rect x="169.51" y="60.22" width="2.5" height="2.5"/><rect x="169.51" y="10.73" width="2.5" height="2.5"/><rect x="169.51" y="7.82" width="2.5" height="2.5"/><rect x="169.51" y="4.91" width="2.5" height="2.5"/><rect x="172.42" y="2" width="2.5" height="2.5"/><rect x="172.42" y="68.95" width="2.5" height="2.5"/><rect x="172.42" y="66.04" width="2.5" height="2.5"/><rect x="172.42" y="63.13" width="2.5" height="2.5"/><rect x="172.42" y="60.22" width="2.5" height="2.5"/><rect x="172.42" y="10.73" width="2.5" height="2.5"/><rect x="172.42" y="7.82" width="2.5" height="2.5"/><rect x="172.42" y="4.91" width="2.5" height="2.5"/><rect x="175.33" y="2" width="2.5" height="2.5"/><rect x="175.33" y="68.95" width="2.5" height="2.5"/><rect x="175.33" y="66.04" width="2.5" height="2.5"/><rect x="175.33" y="63.13" width="2.5" height="2.5"/><rect x="175.33" y="60.22" width="2.5" height="2.5"/><rect x="175.33" y="10.73" width="2.5" height="2.5"/><rect x="175.33" y="7.82" width="2.5" height="2.5"/><rect x="175.33" y="4.91" width="2.5" height="2.5"/><rect x="178.24" y="2" width="2.5" height="2.5"/><rect x="178.24" y="68.95" width="2.5" height="2.5"/><rect x="178.24" y="66.04" width="2.5" height="2.5"/><rect x="178.24" y="63.13" width="2.5" height="2.5"/><rect x="178.24" y="60.22" width="2.5" height="2.5"/><rect x="178.24" y="10.73" width="2.5" height="2.5"/><rect x="178.24" y="7.82" width="2.5" height="2.5"/><rect x="178.24" y="4.91" width="2.5" height="2.5"/><rect x="181.15" y="2" width="2.5" height="2.5"/><rect x="181.15" y="68.95" width="2.5" height="2.5"/><rect x="181.15" y="66.04" width="2.5" height="2.5"/><rect x="181.15" y="63.13" width="2.5" height="2.5"/><rect x="181.15" y="60.22" width="2.5" height="2.5"/><rect x="181.15" y="10.73" width="2.5" height="2.5"/><rect x="181.15" y="7.82" width="2.5" height="2.5"/><rect x="181.15" y="4.91" width="2.5" height="2.5"/><rect x="184.06" y="2" width="2.5" height="2.5"/><rect x="184.06" y="68.95" width="2.5" height="2.5"/><rect x="184.06" y="66.04" width="2.5" height="2.5"/><rect x="184.06" y="63.13" width="2.5" height="2.5"/><rect x="184.06" y="60.22" width="2.5" height="2.5"/><rect x="184.06" y="57.31" width="2.5" height="2.5"/><rect x="184.06" y="54.4" width="2.5" height="2.5"/><rect x="184.06" y="51.49" width="2.5" height="2.5"/><rect x="184.06" y="48.57" width="2.5" height="2.5"/><rect x="184.06" y="45.66" width="2.5" height="2.5"/><rect x="184.06" y="42.75" width="2.5" height="2.5"/><rect x="184.06" y="39.84" width="2.5" height="2.5"/><rect x="184.06" y="36.93" width="2.5" height="2.5"/><rect x="184.06" y="34.02" width="2.5" height="2.5"/><rect x="184.06" y="31.11" width="2.5" height="2.5"/><rect x="184.06" y="28.2" width="2.5" height="2.5"/><rect x="184.06" y="25.29" width="2.5" height="2.5"/><rect x="184.06" y="22.38" width="2.5" height="2.5"/><rect x="184.06" y="19.47" width="2.5" height="2.5"/><rect x="184.06" y="16.55" width="2.5" height="2.5"/><rect x="184.06" y="13.64" width="2.5" height="2.5"/><rect x="184.06" y="10.73" width="2.5" height="2.5"/><rect x="184.06" y="7.82" width="2.5" height="2.5"/><rect x="184.06" y="4.91" width="2.5" height="2.5"/><rect x="186.97" y="2" width="2.5" height="2.5"/><rect x="186.97" y="68.95" width="2.5" height="2.5"/><rect x="186.97" y="66.04" width="2.5" height="2.5"/><rect x="186.97" y="63.13" width="2.5" height="2.5"/><rect x="186.97" y="60.22" width="2.5" height="2.5"/><rect x="186.97" y="57.31" width="2.5" height="2.5"/><rect x="186.97" y="54.4" width="2.5" height="2.5"/><rect x="186.97" y="51.49" width="2.5" height="2.5"/><rect x="186.97" y="48.57" width="2.5" height="2.5"/><rect x="186.97" y="45.66" width="2.5" height="2.5"/><rect x="186.97" y="42.75" width="2.5" height="2.5"/><rect x="186.97" y="39.84" width="2.5" height="2.5"/><rect x="186.97" y="36.93" width="2.5" height="2.5"/><rect x="186.97" y="34.02" width="2.5" height="2.5"/><rect x="186.97" y="31.11" width="2.5" height="2.5"/><rect x="186.97" y="28.2" width="2.5" height="2.5"/><rect x="186.97" y="25.29" width="2.5" height="2.5"/><rect x="186.97" y="22.38" width="2.5" height="2.5"/><rect x="186.97" y="19.47" width="2.5" height="2.5"/><rect x="186.97" y="16.55" width="2.5" height="2.5"/><rect x="186.97" y="13.64" width="2.5" height="2.5"/><rect x="186.97" y="10.73" width="2.5" height="2.5"/><rect x="186.97" y="7.82" width="2.5" height="2.5"/><rect x="186.97" y="4.91" width="2.5" height="2.5"/><rect x="189.89" y="2" width="2.5" height="2.5"/><rect x="189.89" y="68.95" width="2.5" height="2.5"/><rect x="189.89" y="66.04" width="2.5" height="2.5"/><rect x="189.89" y="63.13" width="2.5" height="2.5"/><rect x="189.89" y="60.22" width="2.5" height="2.5"/><rect x="189.89" y="57.31" width="2.5" height="2.5"/><rect x="189.89" y="54.4" width="2.5" height="2.5"/><rect x="189.89" y="51.49" width="2.5" height="2.5"/><rect x="189.89" y="48.57" width="2.5" height="2.5"/><rect x="189.89" y="45.66" width="2.5" height="2.5"/><rect x="189.89" y="42.75" width="2.5" height="2.5"/><rect x="189.89" y="39.84" width="2.5" height="2.5"/><rect x="189.89" y="36.93" width="2.5" height="2.5"/><rect x="189.89" y="34.02" width="2.5" height="2.5"/><rect x="189.89" y="31.11" width="2.5" height="2.5"/><rect x="189.89" y="28.2" width="2.5" height="2.5"/><rect x="189.89" y="25.29" width="2.5" height="2.5"/><rect x="189.89" y="22.38" width="2.5" height="2.5"/><rect x="189.89" y="19.47" width="2.5" height="2.5"/><rect x="189.89" y="16.55" width="2.5" height="2.5"/><rect x="189.89" y="13.64" width="2.5" height="2.5"/><rect x="189.89" y="10.73" width="2.5" height="2.5"/><rect x="189.89" y="7.82" width="2.5" height="2.5"/><rect x="189.89" y="4.91" width="2.5" height="2.5"/><rect x="192.8" y="2" width="2.5" height="2.5"/><rect x="192.8" y="68.95" width="2.5" height="2.5"/><rect x="192.8" y="66.04" width="2.5" height="2.5"/><rect x="192.8" y="63.13" width="2.5" height="2.5"/><rect x="192.8" y="60.22" width="2.5" height="2.5"/><rect x="192.8" y="57.31" width="2.5" height="2.5"/><rect x="192.8" y="54.4" width="2.5" height="2.5"/><rect x="192.8" y="51.49" width="2.5" height="2.5"/><rect x="192.8" y="48.57" width="2.5" height="2.5"/><rect x="192.8" y="45.66" width="2.5" height="2.5"/><rect x="192.8" y="42.75" width="2.5" height="2.5"/><rect x="192.8" y="39.84" width="2.5" height="2.5"/><rect x="192.8" y="36.93" width="2.5" height="2.5"/><rect x="192.8" y="34.02" width="2.5" height="2.5"/><rect x="192.8" y="31.11" width="2.5" height="2.5"/><rect x="192.8" y="28.2" width="2.5" height="2.5"/><rect x="192.8" y="25.29" width="2.5" height="2.5"/><rect x="192.8" y="22.38" width="2.5" height="2.5"/><rect x="192.8" y="19.47" width="2.5" height="2.5"/><rect x="192.8" y="16.55" width="2.5" height="2.5"/><rect x="192.8" y="13.64" width="2.5" height="2.5"/><rect x="192.8" y="10.73" width="2.5" height="2.5"/><rect x="192.8" y="7.82" width="2.5" height="2.5"/><rect x="192.8" y="4.91" width="2.5" height="2.5"/><rect x="195.71" y="66.04" width="2.5" height="2.5"/><rect x="195.71" y="63.13" width="2.5" height="2.5"/><rect x="195.71" y="60.22" width="2.5" height="2.5"/><rect x="195.71" y="57.31" width="2.5" height="2.5"/><rect x="195.71" y="54.4" width="2.5" height="2.5"/><rect x="195.71" y="51.49" width="2.5" height="2.5"/><rect x="195.71" y="48.57" width="2.5" height="2.5"/><rect x="195.71" y="45.66" width="2.5" height="2.5"/><rect x="195.71" y="42.75" width="2.5" height="2.5"/><rect x="195.71" y="39.84" width="2.5" height="2.5"/><rect x="195.71" y="36.93" width="2.5" height="2.5"/><rect x="195.71" y="34.02" width="2.5" height="2.5"/><rect x="195.71" y="31.11" width="2.5" height="2.5"/><rect x="195.71" y="28.2" width="2.5" height="2.5"/><rect x="195.71" y="25.29" width="2.5" height="2.5"/><rect x="195.71" y="22.38" width="2.5" height="2.5"/><rect x="195.71" y="19.47" width="2.5" height="2.5"/><rect x="195.71" y="16.55" width="2.5" height="2.5"/><rect x="195.71" y="13.64" width="2.5" height="2.5"/><rect x="195.71" y="10.73" width="2.5" height="2.5"/><rect x="195.71" y="7.82" width="2.5" height="2.5"/><rect x="195.71" y="4.91" width="2.5" height="2.5"/><rect x="204.44" y="2" width="2.5" height="2.5"/><rect x="204.44" y="66.04" width="2.5" height="2.5"/><rect x="204.44" y="63.13" width="2.5" height="2.5"/><rect x="204.44" y="60.22" width="2.5" height="2.5"/><rect x="204.44" y="57.31" width="2.5" height="2.5"/><rect x="204.44" y="54.4" width="2.5" height="2.5"/><rect x="204.44" y="51.49" width="2.5" height="2.5"/><rect x="204.44" y="48.57" width="2.5" height="2.5"/><rect x="204.44" y="36.93" width="2.5" height="2.5"/><rect x="204.44" y="34.02" width="2.5" height="2.5"/><rect x="204.44" y="31.11" width="2.5" height="2.5"/><rect x="204.44" y="28.2" width="2.5" height="2.5"/><rect x="204.44" y="25.29" width="2.5" height="2.5"/><rect x="204.44" y="22.38" width="2.5" height="2.5"/><rect x="204.44" y="19.47" width="2.5" height="2.5"/><rect x="204.44" y="16.55" width="2.5" height="2.5"/><rect x="204.44" y="13.64" width="2.5" height="2.5"/><rect x="204.44" y="10.73" width="2.5" height="2.5"/><rect x="204.44" y="7.82" width="2.5" height="2.5"/><rect x="204.44" y="4.91" width="2.5" height="2.5"/><rect x="207.35" y="2" width="2.5" height="2.5"/><rect x="207.35" y="68.95" width="2.5" height="2.5"/><rect x="207.35" y="66.04" width="2.5" height="2.5"/><rect x="207.35" y="63.13" width="2.5" height="2.5"/><rect x="207.35" y="60.22" width="2.5" height="2.5"/><rect x="207.35" y="57.31" width="2.5" height="2.5"/><rect x="207.35" y="54.4" width="2.5" height="2.5"/><rect x="207.35" y="51.49" width="2.5" height="2.5"/><rect x="207.35" y="48.57" width="2.5" height="2.5"/><rect x="207.35" y="36.93" width="2.5" height="2.5"/><rect x="207.35" y="34.02" width="2.5" height="2.5"/><rect x="207.35" y="31.11" width="2.5" height="2.5"/><rect x="207.35" y="28.2" width="2.5" height="2.5"/><rect x="207.35" y="25.29" width="2.5" height="2.5"/><rect x="207.35" y="22.38" width="2.5" height="2.5"/><rect x="207.35" y="19.47" width="2.5" height="2.5"/><rect x="207.35" y="16.55" width="2.5" height="2.5"/><rect x="207.35" y="13.64" width="2.5" height="2.5"/><rect x="207.35" y="10.73" width="2.5" height="2.5"/><rect x="207.35" y="7.82" width="2.5" height="2.5"/><rect x="207.35" y="4.91" width="2.5" height="2.5"/><rect x="210.26" y="2" width="2.5" height="2.5"/><rect x="210.26" y="68.95" width="2.5" height="2.5"/><rect x="210.26" y="66.04" width="2.5" height="2.5"/><rect x="210.26" y="63.13" width="2.5" height="2.5"/><rect x="210.26" y="60.22" width="2.5" height="2.5"/><rect x="210.26" y="57.31" width="2.5" height="2.5"/><rect x="210.26" y="54.4" width="2.5" height="2.5"/><rect x="210.26" y="51.49" width="2.5" height="2.5"/><rect x="210.26" y="48.57" width="2.5" height="2.5"/><rect x="210.26" y="36.93" width="2.5" height="2.5"/><rect x="210.26" y="34.02" width="2.5" height="2.5"/><rect x="210.26" y="31.11" width="2.5" height="2.5"/><rect x="210.26" y="28.2" width="2.5" height="2.5"/><rect x="210.26" y="25.29" width="2.5" height="2.5"/><rect x="210.26" y="22.38" width="2.5" height="2.5"/><rect x="210.26" y="19.47" width="2.5" height="2.5"/><rect x="210.26" y="16.55" width="2.5" height="2.5"/><rect x="210.26" y="13.64" width="2.5" height="2.5"/><rect x="210.26" y="10.73" width="2.5" height="2.5"/><rect x="210.26" y="7.82" width="2.5" height="2.5"/><rect x="210.26" y="4.91" width="2.5" height="2.5"/><rect x="213.17" y="2" width="2.5" height="2.5"/><rect x="213.17" y="68.95" width="2.5" height="2.5"/><rect x="213.17" y="66.04" width="2.5" height="2.5"/><rect x="213.17" y="63.13" width="2.5" height="2.5"/><rect x="213.17" y="60.22" width="2.5" height="2.5"/><rect x="213.17" y="57.31" width="2.5" height="2.5"/><rect x="213.17" y="54.4" width="2.5" height="2.5"/><rect x="213.17" y="51.49" width="2.5" height="2.5"/><rect x="213.17" y="48.57" width="2.5" height="2.5"/><rect x="213.17" y="36.93" width="2.5" height="2.5"/><rect x="213.17" y="34.02" width="2.5" height="2.5"/><rect x="213.17" y="31.11" width="2.5" height="2.5"/><rect x="213.17" y="28.2" width="2.5" height="2.5"/><rect x="213.17" y="25.29" width="2.5" height="2.5"/><rect x="213.17" y="22.38" width="2.5" height="2.5"/><rect x="213.17" y="19.47" width="2.5" height="2.5"/><rect x="213.17" y="16.55" width="2.5" height="2.5"/><rect x="213.17" y="13.64" width="2.5" height="2.5"/><rect x="213.17" y="10.73" width="2.5" height="2.5"/><rect x="213.17" y="7.82" width="2.5" height="2.5"/><rect x="213.17" y="4.91" width="2.5" height="2.5"/><rect x="216.08" y="2" width="2.5" height="2.5"/><rect x="216.08" y="68.95" width="2.5" height="2.5"/><rect x="216.08" y="66.04" width="2.5" height="2.5"/><rect x="216.08" y="63.13" width="2.5" height="2.5"/><rect x="216.08" y="60.22" width="2.5" height="2.5"/><rect x="216.08" y="57.31" width="2.5" height="2.5"/><rect x="216.08" y="54.4" width="2.5" height="2.5"/><rect x="216.08" y="51.49" width="2.5" height="2.5"/><rect x="216.08" y="48.57" width="2.5" height="2.5"/><rect x="216.08" y="36.93" width="2.5" height="2.5"/><rect x="216.08" y="34.02" width="2.5" height="2.5"/><rect x="216.08" y="31.11" width="2.5" height="2.5"/><rect x="216.08" y="28.2" width="2.5" height="2.5"/><rect x="216.08" y="25.29" width="2.5" height="2.5"/><rect x="216.08" y="22.38" width="2.5" height="2.5"/><rect x="216.08" y="19.47" width="2.5" height="2.5"/><rect x="216.08" y="16.55" width="2.5" height="2.5"/><rect x="216.08" y="13.64" width="2.5" height="2.5"/><rect x="216.08" y="10.73" width="2.5" height="2.5"/><rect x="216.08" y="7.82" width="2.5" height="2.5"/><rect x="216.08" y="4.91" width="2.5" height="2.5"/><rect x="218.99" y="2" width="2.5" height="2.5"/><rect x="218.99" y="68.95" width="2.5" height="2.5"/><rect x="218.99" y="66.04" width="2.5" height="2.5"/><rect x="218.99" y="63.13" width="2.5" height="2.5"/><rect x="218.99" y="60.22" width="2.5" height="2.5"/><rect x="218.99" y="36.93" width="2.5" height="2.5"/><rect x="218.99" y="34.02" width="2.5" height="2.5"/><rect x="218.99" y="31.11" width="2.5" height="2.5"/><rect x="218.99" y="28.2" width="2.5" height="2.5"/><rect x="218.99" y="10.73" width="2.5" height="2.5"/><rect x="218.99" y="7.82" width="2.5" height="2.5"/><rect x="218.99" y="4.91" width="2.5" height="2.5"/><rect x="221.91" y="2" width="2.5" height="2.5"/><rect x="221.91" y="68.95" width="2.5" height="2.5"/><rect x="221.91" y="66.04" width="2.5" height="2.5"/><rect x="221.91" y="63.13" width="2.5" height="2.5"/><rect x="221.91" y="60.22" width="2.5" height="2.5"/><rect x="221.91" y="36.93" width="2.5" height="2.5"/><rect x="221.91" y="34.02" width="2.5" height="2.5"/><rect x="221.91" y="31.11" width="2.5" height="2.5"/><rect x="221.91" y="28.2" width="2.5" height="2.5"/><rect x="221.91" y="10.73" width="2.5" height="2.5"/><rect x="221.91" y="7.82" width="2.5" height="2.5"/><rect x="221.91" y="4.91" width="2.5" height="2.5"/><rect x="224.82" y="2" width="2.5" height="2.5"/><rect x="224.82" y="68.95" width="2.5" height="2.5"/><rect x="224.82" y="66.04" width="2.5" height="2.5"/><rect x="224.82" y="63.13" width="2.5" height="2.5"/><rect x="224.82" y="60.22" width="2.5" height="2.5"/><rect x="224.82" y="36.93" width="2.5" height="2.5"/><rect x="224.82" y="34.02" width="2.5" height="2.5"/><rect x="224.82" y="31.11" width="2.5" height="2.5"/><rect x="224.82" y="28.2" width="2.5" height="2.5"/><rect x="224.82" y="10.73" width="2.5" height="2.5"/><rect x="224.82" y="7.82" width="2.5" height="2.5"/><rect x="224.82" y="4.91" width="2.5" height="2.5"/><rect x="227.73" y="2" width="2.5" height="2.5"/><rect x="227.73" y="68.95" width="2.5" height="2.5"/><rect x="227.73" y="66.04" width="2.5" height="2.5"/><rect x="227.73" y="63.13" width="2.5" height="2.5"/><rect x="227.73" y="60.22" width="2.5" height="2.5"/><rect x="227.73" y="36.93" width="2.5" height="2.5"/><rect x="227.73" y="34.02" width="2.5" height="2.5"/><rect x="227.73" y="31.11" width="2.5" height="2.5"/><rect x="227.73" y="28.2" width="2.5" height="2.5"/><rect x="227.73" y="10.73" width="2.5" height="2.5"/><rect x="227.73" y="7.82" width="2.5" height="2.5"/><rect x="227.73" y="4.91" width="2.5" height="2.5"/><rect x="230.64" y="2" width="2.5" height="2.5"/><rect x="230.64" y="68.95" width="2.5" height="2.5"/><rect x="230.64" y="66.04" width="2.5" height="2.5"/><rect x="230.64" y="63.13" width="2.5" height="2.5"/><rect x="230.64" y="60.22" width="2.5" height="2.5"/><rect x="230.64" y="36.93" width="2.5" height="2.5"/><rect x="230.64" y="34.02" width="2.5" height="2.5"/><rect x="230.64" y="31.11" width="2.5" height="2.5"/><rect x="230.64" y="28.2" width="2.5" height="2.5"/><rect x="230.64" y="10.73" width="2.5" height="2.5"/><rect x="230.64" y="7.82" width="2.5" height="2.5"/><rect x="230.64" y="4.91" width="2.5" height="2.5"/><rect x="233.55" y="2" width="2.5" height="2.5"/><rect x="233.55" y="68.95" width="2.5" height="2.5"/><rect x="233.55" y="66.04" width="2.5" height="2.5"/><rect x="233.55" y="63.13" width="2.5" height="2.5"/><rect x="233.55" y="60.22" width="2.5" height="2.5"/><rect x="233.55" y="36.93" width="2.5" height="2.5"/><rect x="233.55" y="34.02" width="2.5" height="2.5"/><rect x="233.55" y="31.11" width="2.5" height="2.5"/><rect x="233.55" y="28.2" width="2.5" height="2.5"/><rect x="233.55" y="10.73" width="2.5" height="2.5"/><rect x="233.55" y="7.82" width="2.5" height="2.5"/><rect x="233.55" y="4.91" width="2.5" height="2.5"/><rect x="236.46" y="2" width="2.5" height="2.5"/><rect x="236.46" y="68.95" width="2.5" height="2.5"/><rect x="236.46" y="66.04" width="2.5" height="2.5"/><rect x="236.46" y="63.13" width="2.5" height="2.5"/><rect x="236.46" y="60.22" width="2.5" height="2.5"/><rect x="236.46" y="36.93" width="2.5" height="2.5"/><rect x="236.46" y="34.02" width="2.5" height="2.5"/><rect x="236.46" y="31.11" width="2.5" height="2.5"/><rect x="236.46" y="28.2" width="2.5" height="2.5"/><rect x="236.46" y="10.73" width="2.5" height="2.5"/><rect x="236.46" y="7.82" width="2.5" height="2.5"/><rect x="236.46" y="4.91" width="2.5" height="2.5"/><rect x="239.37" y="2" width="2.5" height="2.5"/><rect x="239.37" y="68.95" width="2.5" height="2.5"/><rect x="239.37" y="66.04" width="2.5" height="2.5"/><rect x="239.37" y="63.13" width="2.5" height="2.5"/><rect x="239.37" y="60.22" width="2.5" height="2.5"/><rect x="239.37" y="36.93" width="2.5" height="2.5"/><rect x="239.37" y="34.02" width="2.5" height="2.5"/><rect x="239.37" y="31.11" width="2.5" height="2.5"/><rect x="239.37" y="28.2" width="2.5" height="2.5"/><rect x="239.37" y="10.73" width="2.5" height="2.5"/><rect x="239.37" y="7.82" width="2.5" height="2.5"/><rect x="239.37" y="4.91" width="2.5" height="2.5"/><rect x="242.28" y="2" width="2.5" height="2.5"/><rect x="242.28" y="68.95" width="2.5" height="2.5"/><rect x="242.28" y="66.04" width="2.5" height="2.5"/><rect x="242.28" y="63.13" width="2.5" height="2.5"/><rect x="242.28" y="60.22" width="2.5" height="2.5"/><rect x="242.28" y="36.93" width="2.5" height="2.5"/><rect x="242.28" y="34.02" width="2.5" height="2.5"/><rect x="242.28" y="31.11" width="2.5" height="2.5"/><rect x="242.28" y="28.2" width="2.5" height="2.5"/><rect x="242.28" y="10.73" width="2.5" height="2.5"/><rect x="242.28" y="7.82" width="2.5" height="2.5"/><rect x="242.28" y="4.91" width="2.5" height="2.5"/><rect x="245.19" y="2" width="2.5" height="2.5"/><rect x="245.19" y="68.95" width="2.5" height="2.5"/><rect x="245.19" y="66.04" width="2.5" height="2.5"/><rect x="245.19" y="63.13" width="2.5" height="2.5"/><rect x="245.19" y="60.22" width="2.5" height="2.5"/><rect x="245.19" y="57.31" width="2.5" height="2.5"/><rect x="245.19" y="54.4" width="2.5" height="2.5"/><rect x="245.19" y="51.49" width="2.5" height="2.5"/><rect x="245.19" y="48.57" width="2.5" height="2.5"/><rect x="245.19" y="45.66" width="2.5" height="2.5"/><rect x="245.19" y="42.75" width="2.5" height="2.5"/><rect x="245.19" y="39.84" width="2.5" height="2.5"/><rect x="245.19" y="36.93" width="2.5" height="2.5"/><rect x="245.19" y="34.02" width="2.5" height="2.5"/><rect x="245.19" y="31.11" width="2.5" height="2.5"/><rect x="245.19" y="28.2" width="2.5" height="2.5"/><rect x="245.19" y="10.73" width="2.5" height="2.5"/><rect x="245.19" y="7.82" width="2.5" height="2.5"/><rect x="245.19" y="4.91" width="2.5" height="2.5"/><rect x="248.1" y="2" width="2.5" height="2.5"/><rect x="248.1" y="68.95" width="2.5" height="2.5"/><rect x="248.1" y="66.04" width="2.5" height="2.5"/><rect x="248.1" y="63.13" width="2.5" height="2.5"/><rect x="248.1" y="60.22" width="2.5" height="2.5"/><rect x="248.1" y="57.31" width="2.5" height="2.5"/><rect x="248.1" y="54.4" width="2.5" height="2.5"/><rect x="248.1" y="51.49" width="2.5" height="2.5"/><rect x="248.1" y="48.57" width="2.5" height="2.5"/><rect x="248.1" y="45.66" width="2.5" height="2.5"/><rect x="248.1" y="42.75" width="2.5" height="2.5"/><rect x="248.1" y="39.84" width="2.5" height="2.5"/><rect x="248.1" y="36.93" width="2.5" height="2.5"/><rect x="248.1" y="34.02" width="2.5" height="2.5"/><rect x="248.1" y="31.11" width="2.5" height="2.5"/><rect x="248.1" y="28.2" width="2.5" height="2.5"/><rect x="248.1" y="10.73" width="2.5" height="2.5"/><rect x="248.1" y="7.82" width="2.5" height="2.5"/><rect x="248.1" y="4.91" width="2.5" height="2.5"/><rect x="251.01" y="2" width="2.5" height="2.5"/><rect x="251.01" y="68.95" width="2.5" height="2.5"/><rect x="251.01" y="66.04" width="2.5" height="2.5"/><rect x="251.01" y="63.13" width="2.5" height="2.5"/><rect x="251.01" y="60.22" width="2.5" height="2.5"/><rect x="251.01" y="57.31" width="2.5" height="2.5"/><rect x="251.01" y="54.4" width="2.5" height="2.5"/><rect x="251.01" y="51.49" width="2.5" height="2.5"/><rect x="251.01" y="48.57" width="2.5" height="2.5"/><rect x="251.01" y="45.66" width="2.5" height="2.5"/><rect x="251.01" y="42.75" width="2.5" height="2.5"/><rect x="251.01" y="39.84" width="2.5" height="2.5"/><rect x="251.01" y="36.93" width="2.5" height="2.5"/><rect x="251.01" y="34.02" width="2.5" height="2.5"/><rect x="251.01" y="31.11" width="2.5" height="2.5"/><rect x="251.01" y="28.2" width="2.5" height="2.5"/><rect x="251.01" y="10.73" width="2.5" height="2.5"/><rect x="251.01" y="7.82" width="2.5" height="2.5"/><rect x="251.01" y="4.91" width="2.5" height="2.5"/><rect x="253.93" y="2" width="2.5" height="2.5"/><rect x="253.93" y="68.95" width="2.5" height="2.5"/><rect x="253.93" y="66.04" width="2.5" height="2.5"/><rect x="253.93" y="63.13" width="2.5" height="2.5"/><rect x="253.93" y="60.22" width="2.5" height="2.5"/><rect x="253.93" y="57.31" width="2.5" height="2.5"/><rect x="253.93" y="54.4" width="2.5" height="2.5"/><rect x="253.93" y="51.49" width="2.5" height="2.5"/><rect x="253.93" y="48.57" width="2.5" height="2.5"/><rect x="253.93" y="45.66" width="2.5" height="2.5"/><rect x="253.93" y="42.75" width="2.5" height="2.5"/><rect x="253.93" y="39.84" width="2.5" height="2.5"/><rect x="253.93" y="36.93" width="2.5" height="2.5"/><rect x="253.93" y="34.02" width="2.5" height="2.5"/><rect x="253.93" y="31.11" width="2.5" height="2.5"/><rect x="253.93" y="28.2" width="2.5" height="2.5"/><rect x="253.93" y="10.73" width="2.5" height="2.5"/><rect x="253.93" y="7.82" width="2.5" height="2.5"/><rect x="253.93" y="4.91" width="2.5" height="2.5"/><rect x="256.84" y="2" width="2.5" height="2.5"/><rect x="256.84" y="66.04" width="2.5" height="2.5"/><rect x="256.84" y="63.13" width="2.5" height="2.5"/><rect x="256.84" y="60.22" width="2.5" height="2.5"/><rect x="256.84" y="57.31" width="2.5" height="2.5"/><rect x="256.84" y="54.4" width="2.5" height="2.5"/><rect x="256.84" y="51.49" width="2.5" height="2.5"/><rect x="256.84" y="48.57" width="2.5" height="2.5"/><rect x="256.84" y="45.66" width="2.5" height="2.5"/><rect x="256.84" y="42.75" width="2.5" height="2.5"/><rect x="256.84" y="39.84" width="2.5" height="2.5"/><rect x="256.84" y="36.93" width="2.5" height="2.5"/><rect x="256.84" y="34.02" width="2.5" height="2.5"/><rect x="256.84" y="31.11" width="2.5" height="2.5"/><rect x="256.84" y="10.73" width="2.5" height="2.5"/><rect x="256.84" y="7.82" width="2.5" height="2.5"/><rect x="256.84" y="4.91" width="2.5" height="2.5"/><path class="cls-2" d="M259.33,79.49h-116a.5.5,0,0,1,0-1h116a.5.5,0,0,1,0,1Z"/><path class="cls-3" d="M180.2,94.17V89.1c0-.33,0-.65,0-1a7.93,7.93,0,0,0-.09-1h1.08l.12,1.45-.14.1a2.35,2.35,0,0,1,.88-1.27,2.45,2.45,0,0,1,1.48-.45,2.35,2.35,0,0,1,1.59.5,2.56,2.56,0,0,1,.72,1.54l-.34-.18a2.42,2.42,0,0,1,.9-1.36A2.72,2.72,0,0,1,188,87a2.16,2.16,0,0,1,1.75.69,3.12,3.12,0,0,1,.59,2.09v4.43h-1.13V89.8a2.37,2.37,0,0,0-.35-1.43,1.29,1.29,0,0,0-1.11-.46,1.74,1.74,0,0,0-1.39.6,2.46,2.46,0,0,0-.51,1.64v4h-1.14V89.8a2.3,2.3,0,0,0-.35-1.43,1.32,1.32,0,0,0-1.12-.46,1.74,1.74,0,0,0-1.4.6,2.46,2.46,0,0,0-.51,1.64v4Z"/><path class="cls-3" d="M192.4,84.15h1.38v1.28H192.4Zm.11,10v-7h1.13v7Z"/><path class="cls-3" d="M195.84,94.17V89.1c0-.33,0-.65,0-1s0-.66-.09-1h1.08l.12,1.45-.14.11a2.43,2.43,0,0,1,1-1.29,2.91,2.91,0,0,1,1.58-.44c1.69,0,2.54.93,2.54,2.78v4.43h-1.14V89.8a2.16,2.16,0,0,0-.39-1.43,1.52,1.52,0,0,0-1.23-.46,2.1,2.1,0,0,0-1.57.6,2.25,2.25,0,0,0-.59,1.63v4Z"/><path class="cls-3" d="M206.52,94.27a2.48,2.48,0,0,1-1.9-.7,3,3,0,0,1-.63-2.08V87.13h1.13v4.34a2.11,2.11,0,0,0,.39,1.4,1.49,1.49,0,0,0,1.19.44,2,2,0,0,0,1.52-.6,2.25,2.25,0,0,0,.57-1.61v-4h1.13v7h-1.1V92.64l.17-.08a2.38,2.38,0,0,1-1,1.27A2.71,2.71,0,0,1,206.52,94.27Z"/><path class="cls-3" d="M211.11,88v-.89h4.53V88Zm4.5,5.14v1a4.4,4.4,0,0,1-.47.1,2.78,2.78,0,0,1-.51,0,2.14,2.14,0,0,1-1.56-.56,2.24,2.24,0,0,1-.58-1.68V85.32l1.13-.4v7a1.85,1.85,0,0,0,.16.87.91.91,0,0,0,.44.43,1.61,1.61,0,0,0,.63.12,2.17,2.17,0,0,0,.38,0A2.4,2.4,0,0,0,215.61,93.16Z"/><path class="cls-3" d="M222.78,93.33a3.21,3.21,0,0,1-1.19.68,4.38,4.38,0,0,1-1.47.26,3.88,3.88,0,0,1-1.89-.44A3,3,0,0,1,217,92.58a4.25,4.25,0,0,1-.42-2,4.18,4.18,0,0,1,.42-1.92,3.12,3.12,0,0,1,2.9-1.75,3,3,0,0,1,1.6.41,2.64,2.64,0,0,1,1,1.18,4.36,4.36,0,0,1,.36,1.85v.21h-5.32v-.74h4.68l-.37.52a2.92,2.92,0,0,0-.48-1.89,1.77,1.77,0,0,0-1.49-.66,1.93,1.93,0,0,0-1.6.72,3.8,3.8,0,0,0,0,4.07,2.25,2.25,0,0,0,1.79.7,3.61,3.61,0,0,0,1.18-.2,3.9,3.9,0,0,0,1.09-.63Z"/><path class="cls-3" d="M166.2,111v-8.53h.35l-4.15,6,0-.57h6.44v1H161.6v-.87l4.81-6.93h.93v10Z"/><path class="cls-3" d="M173.52,111.08a3,3,0,0,1-2.6-1.29A6.75,6.75,0,0,1,170,106a6.86,6.86,0,0,1,.88-3.81,3.28,3.28,0,0,1,5.21,0,8.6,8.6,0,0,1,0,7.6A2.92,2.92,0,0,1,173.52,111.08Zm0-1a1.87,1.87,0,0,0,1.75-1,6.62,6.62,0,0,0,.57-3.14,6.43,6.43,0,0,0-.57-3.11,2.05,2.05,0,0,0-3.51,0,6.51,6.51,0,0,0-.57,3.11,6.62,6.62,0,0,0,.57,3.14A1.89,1.89,0,0,0,173.52,110.12Z"/><path class="cls-3" d="M178.81,114V105.9c0-.33,0-.65,0-1s0-.66-.09-1h1.07l.13,1.45-.11.21a2.3,2.3,0,0,1,.91-1.35,2.72,2.72,0,0,1,1.62-.48,2.88,2.88,0,0,1,1.63.46,3.12,3.12,0,0,1,1.11,1.29,4.86,4.86,0,0,1,0,3.86,3.08,3.08,0,0,1-1.1,1.26,3,3,0,0,1-1.64.44,2.72,2.72,0,0,1-1.62-.48,2.35,2.35,0,0,1-.91-1.36l.15-.14V114Zm3.3-3.86a2,2,0,0,0,1.6-.7,3.08,3.08,0,0,0,.57-2,3.16,3.16,0,0,0-.57-2,2.17,2.17,0,0,0-3.21,0,3.87,3.87,0,0,0,0,4A2,2,0,0,0,182.11,110.13Z"/><path class="cls-3" d="M187.52,111h-1.39l2.93-3.63.66-.82,2-2.59h1.38l-2.74,3.41-.68.86Zm4.42,0-2.22-2.77-.66-.86-2.76-3.41h1.37l2.05,2.59.68.82,2.9,3.63Z"/><path class="cls-3" d="M204,103.63l.62.62-6,6-.61-.6Zm-5.38,0,6,6-.62.6-6-6Z"/><path class="cls-3" d="M210.34,111v-.87l3.48-3.86a6.89,6.89,0,0,0,1-1.42,2.69,2.69,0,0,0,.33-1.26,1.61,1.61,0,0,0-.48-1.26,1.9,1.9,0,0,0-1.36-.44,3.79,3.79,0,0,0-1.43.28,5.76,5.76,0,0,0-1.4.86l-.43-.88a4.33,4.33,0,0,1,1.48-.89,5,5,0,0,1,1.81-.34,3.61,3.61,0,0,1,1.57.31,2.35,2.35,0,0,1,1,.91,2.54,2.54,0,0,1,.37,1.4,3.66,3.66,0,0,1-.39,1.64,7.42,7.42,0,0,1-1.28,1.77l-3.36,3.64-.08-.56h5.53v1Z"/><path class="cls-3" d="M222.85,111v-8.53h.35l-4.14,6v-.57h6.44v1h-7.25v-.87l4.8-6.93H224v10Z"/><path class="cls-3" d="M227.06,114V105.9c0-.33,0-.65,0-1a7.93,7.93,0,0,0-.09-1H228l.13,1.45-.11.21a2.25,2.25,0,0,1,.91-1.35,2.68,2.68,0,0,1,1.62-.48,2.9,2.9,0,0,1,1.63.46,3.19,3.19,0,0,1,1.11,1.29,4.86,4.86,0,0,1,0,3.86,3.15,3.15,0,0,1-1.1,1.26,3.07,3.07,0,0,1-1.64.44,2.68,2.68,0,0,1-1.62-.48,2.31,2.31,0,0,1-.91-1.36l.15-.14V114Zm3.31-3.86a2,2,0,0,0,1.6-.7,3.08,3.08,0,0,0,.57-2,3.16,3.16,0,0,0-.57-2,2.17,2.17,0,0,0-3.21,0,3.87,3.87,0,0,0,0,4A1.93,1.93,0,0,0,230.37,110.13Z"/><path class="cls-3" d="M235.77,111h-1.38l2.92-3.63.66-.82,2-2.59h1.39l-2.74,3.41-.69.86Zm4.43,0L238,108.2l-.66-.86-2.76-3.41h1.38l2,2.59.69.82,2.89,3.63Z"/><circle class="cls-2" cx="143.31" cy="2" r="2"/><rect x="284.62" y="36.93" width="2.5" height="2.5"/><rect x="284.62" y="34.02" width="2.5" height="2.5"/><rect x="284.62" y="31.11" width="2.5" height="2.5"/><rect x="284.62" y="28.2" width="2.5" height="2.5"/><rect x="284.62" y="25.29" width="2.5" height="2.5"/><rect x="284.62" y="22.38" width="2.5" height="2.5"/><rect x="284.62" y="19.47" width="2.5" height="2.5"/><rect x="287.53" y="36.93" width="2.5" height="2.5"/><rect x="287.53" y="34.02" width="2.5" height="2.5"/><rect x="287.53" y="31.11" width="2.5" height="2.5"/><rect x="287.53" y="28.2" width="2.5" height="2.5"/><rect x="287.53" y="25.29" width="2.5" height="2.5"/><rect x="287.53" y="22.38" width="2.5" height="2.5"/><rect x="287.53" y="19.47" width="2.5" height="2.5"/><rect x="287.53" y="16.55" width="2.5" height="2.5"/><rect x="290.44" y="36.93" width="2.5" height="2.5"/><rect x="290.44" y="34.02" width="2.5" height="2.5"/><rect x="290.44" y="31.11" width="2.5" height="2.5"/><rect x="290.44" y="28.2" width="2.5" height="2.5"/><rect x="290.44" y="25.29" width="2.5" height="2.5"/><rect x="290.44" y="22.38" width="2.5" height="2.5"/><rect x="290.44" y="19.47" width="2.5" height="2.5"/><rect x="290.44" y="16.55" width="2.5" height="2.5"/><rect x="290.44" y="13.64" width="2.5" height="2.5"/><rect x="293.36" y="36.93" width="2.5" height="2.5"/><rect x="293.36" y="34.02" width="2.5" height="2.5"/><rect x="293.36" y="31.11" width="2.5" height="2.5"/><rect x="293.36" y="19.47" width="2.5" height="2.5"/><rect x="293.36" y="16.55" width="2.5" height="2.5"/><rect x="293.36" y="13.64" width="2.5" height="2.5"/><rect x="293.36" y="10.73" width="2.5" height="2.5"/><rect x="296.27" y="36.93" width="2.5" height="2.5"/><rect x="296.27" y="34.02" width="2.5" height="2.5"/><rect x="296.27" y="31.11" width="2.5" height="2.5"/><rect x="296.27" y="16.55" width="2.5" height="2.5"/><rect x="296.27" y="13.64" width="2.5" height="2.5"/><rect x="296.27" y="10.73" width="2.5" height="2.5"/><rect x="296.27" y="7.82" width="2.5" height="2.5"/><rect x="299.18" y="36.93" width="2.5" height="2.5"/><rect x="299.18" y="34.02" width="2.5" height="2.5"/><rect x="299.18" y="31.11" width="2.5" height="2.5"/><rect x="299.18" y="16.55" width="2.5" height="2.5"/><rect x="299.18" y="13.64" width="2.5" height="2.5"/><rect x="299.18" y="10.73" width="2.5" height="2.5"/><rect x="299.18" y="7.82" width="2.5" height="2.5"/><rect x="299.18" y="4.91" width="2.5" height="2.5"/><rect x="302.09" y="2" width="2.5" height="2.5"/><rect x="302.09" y="45.66" width="2.5" height="2.5"/><rect x="302.09" y="42.75" width="2.5" height="2.5"/><rect x="302.09" y="39.84" width="2.5" height="2.5"/><rect x="302.09" y="36.93" width="2.5" height="2.5"/><rect x="302.09" y="34.02" width="2.5" height="2.5"/><rect x="302.09" y="31.11" width="2.5" height="2.5"/><rect x="302.09" y="28.2" width="2.5" height="2.5"/><rect x="302.09" y="25.29" width="2.5" height="2.5"/><rect x="302.09" y="22.38" width="2.5" height="2.5"/><rect x="302.09" y="19.47" width="2.5" height="2.5"/><rect x="302.09" y="16.55" width="2.5" height="2.5"/><rect x="302.09" y="13.64" width="2.5" height="2.5"/><rect x="302.09" y="10.73" width="2.5" height="2.5"/><rect x="302.09" y="7.82" width="2.5" height="2.5"/><rect x="302.09" y="4.91" width="2.5" height="2.5"/><rect x="305" y="2" width="2.5" height="2.5"/><rect x="305" y="45.66" width="2.5" height="2.5"/><rect x="305" y="42.75" width="2.5" height="2.5"/><rect x="305" y="39.84" width="2.5" height="2.5"/><rect x="305" y="36.93" width="2.5" height="2.5"/><rect x="305" y="34.02" width="2.5" height="2.5"/><rect x="305" y="31.11" width="2.5" height="2.5"/><rect x="305" y="28.2" width="2.5" height="2.5"/><rect x="305" y="25.29" width="2.5" height="2.5"/><rect x="305" y="22.38" width="2.5" height="2.5"/><rect x="305" y="19.47" width="2.5" height="2.5"/><rect x="305" y="16.55" width="2.5" height="2.5"/><rect x="305" y="13.64" width="2.5" height="2.5"/><rect x="305" y="10.73" width="2.5" height="2.5"/><rect x="305" y="7.82" width="2.5" height="2.5"/><rect x="305" y="4.91" width="2.5" height="2.5"/><rect x="307.91" y="2" width="2.5" height="2.5"/><rect x="307.91" y="45.66" width="2.5" height="2.5"/><rect x="307.91" y="42.75" width="2.5" height="2.5"/><rect x="307.91" y="39.84" width="2.5" height="2.5"/><rect x="307.91" y="36.93" width="2.5" height="2.5"/><rect x="307.91" y="34.02" width="2.5" height="2.5"/><rect x="307.91" y="31.11" width="2.5" height="2.5"/><rect x="307.91" y="28.2" width="2.5" height="2.5"/><rect x="307.91" y="25.29" width="2.5" height="2.5"/><rect x="307.91" y="22.38" width="2.5" height="2.5"/><rect x="307.91" y="19.47" width="2.5" height="2.5"/><rect x="307.91" y="16.55" width="2.5" height="2.5"/><rect x="307.91" y="13.64" width="2.5" height="2.5"/><rect x="307.91" y="10.73" width="2.5" height="2.5"/><rect x="307.91" y="7.82" width="2.5" height="2.5"/><rect x="307.91" y="4.91" width="2.5" height="2.5"/><rect x="310.82" y="36.93" width="2.5" height="2.5"/><rect x="310.82" y="34.02" width="2.5" height="2.5"/><rect x="310.82" y="31.11" width="2.5" height="2.5"/><rect x="313.73" y="36.93" width="2.5" height="2.5"/><rect x="313.73" y="34.02" width="2.5" height="2.5"/><rect x="313.73" y="31.11" width="2.5" height="2.5"/><rect x="319.55" y="42.75" width="2.5" height="2.5"/><rect x="319.55" y="39.84" width="2.5" height="2.5"/><rect x="319.55" y="36.93" width="2.5" height="2.5"/><rect x="319.55" y="10.73" width="2.5" height="2.5"/><rect x="319.55" y="7.82" width="2.5" height="2.5"/><rect x="319.55" y="4.91" width="2.5" height="2.5"/><rect x="322.46" y="2" width="2.5" height="2.5"/><rect x="322.46" y="45.66" width="2.5" height="2.5"/><rect x="322.46" y="42.75" width="2.5" height="2.5"/><rect x="322.46" y="39.84" width="2.5" height="2.5"/><rect x="322.46" y="36.93" width="2.5" height="2.5"/><rect x="322.46" y="10.73" width="2.5" height="2.5"/><rect x="322.46" y="7.82" width="2.5" height="2.5"/><rect x="322.46" y="4.91" width="2.5" height="2.5"/><rect x="325.38" y="2" width="2.5" height="2.5"/><rect x="325.38" y="45.66" width="2.5" height="2.5"/><rect x="325.38" y="42.75" width="2.5" height="2.5"/><rect x="325.38" y="39.84" width="2.5" height="2.5"/><rect x="325.38" y="36.93" width="2.5" height="2.5"/><rect x="325.38" y="10.73" width="2.5" height="2.5"/><rect x="325.38" y="7.82" width="2.5" height="2.5"/><rect x="325.38" y="4.91" width="2.5" height="2.5"/><rect x="328.29" y="2" width="2.5" height="2.5"/><rect x="328.29" y="45.66" width="2.5" height="2.5"/><rect x="328.29" y="42.75" width="2.5" height="2.5"/><rect x="328.29" y="39.84" width="2.5" height="2.5"/><rect x="328.29" y="7.82" width="2.5" height="2.5"/><rect x="328.29" y="4.91" width="2.5" height="2.5"/><rect x="331.2" y="2" width="2.5" height="2.5"/><rect x="331.2" y="45.66" width="2.5" height="2.5"/><rect x="331.2" y="42.75" width="2.5" height="2.5"/><rect x="331.2" y="39.84" width="2.5" height="2.5"/><rect x="331.2" y="7.82" width="2.5" height="2.5"/><rect x="331.2" y="4.91" width="2.5" height="2.5"/><rect x="334.11" y="2" width="2.5" height="2.5"/><rect x="334.11" y="45.66" width="2.5" height="2.5"/><rect x="334.11" y="42.75" width="2.5" height="2.5"/><rect x="334.11" y="39.84" width="2.5" height="2.5"/><rect x="334.11" y="25.29" width="2.5" height="2.5"/><rect x="334.11" y="22.38" width="2.5" height="2.5"/><rect x="334.11" y="7.82" width="2.5" height="2.5"/><rect x="334.11" y="4.91" width="2.5" height="2.5"/><rect x="337.02" y="2" width="2.5" height="2.5"/><rect x="337.02" y="45.66" width="2.5" height="2.5"/><rect x="337.02" y="42.75" width="2.5" height="2.5"/><rect x="337.02" y="39.84" width="2.5" height="2.5"/><rect x="337.02" y="28.2" width="2.5" height="2.5"/><rect x="337.02" y="25.29" width="2.5" height="2.5"/><rect x="337.02" y="22.38" width="2.5" height="2.5"/><rect x="337.02" y="19.47" width="2.5" height="2.5"/><rect x="337.02" y="7.82" width="2.5" height="2.5"/><rect x="337.02" y="4.91" width="2.5" height="2.5"/><rect x="339.93" y="2" width="2.5" height="2.5"/><rect x="339.93" y="45.66" width="2.5" height="2.5"/><rect x="339.93" y="42.75" width="2.5" height="2.5"/><rect x="339.93" y="39.84" width="2.5" height="2.5"/><rect x="339.93" y="36.93" width="2.5" height="2.5"/><rect x="339.93" y="31.11" width="2.5" height="2.5"/><rect x="339.93" y="28.2" width="2.5" height="2.5"/><rect x="339.93" y="25.29" width="2.5" height="2.5"/><rect x="339.93" y="22.38" width="2.5" height="2.5"/><rect x="339.93" y="19.47" width="2.5" height="2.5"/><rect x="339.93" y="16.55" width="2.5" height="2.5"/><rect x="339.93" y="10.73" width="2.5" height="2.5"/><rect x="339.93" y="7.82" width="2.5" height="2.5"/><rect x="339.93" y="4.91" width="2.5" height="2.5"/><rect x="342.84" y="2" width="2.5" height="2.5"/><rect x="342.84" y="45.66" width="2.5" height="2.5"/><rect x="342.84" y="42.75" width="2.5" height="2.5"/><rect x="342.84" y="39.84" width="2.5" height="2.5"/><rect x="342.84" y="36.93" width="2.5" height="2.5"/><rect x="342.84" y="34.02" width="2.5" height="2.5"/><rect x="342.84" y="31.11" width="2.5" height="2.5"/><rect x="342.84" y="28.2" width="2.5" height="2.5"/><rect x="342.84" y="25.29" width="2.5" height="2.5"/><rect x="342.84" y="22.38" width="2.5" height="2.5"/><rect x="342.84" y="19.47" width="2.5" height="2.5"/><rect x="342.84" y="16.55" width="2.5" height="2.5"/><rect x="342.84" y="13.64" width="2.5" height="2.5"/><rect x="342.84" y="10.73" width="2.5" height="2.5"/><rect x="342.84" y="7.82" width="2.5" height="2.5"/><rect x="342.84" y="4.91" width="2.5" height="2.5"/><rect x="345.75" y="2" width="2.5" height="2.5"/><rect x="345.75" y="45.66" width="2.5" height="2.5"/><rect x="345.75" y="42.75" width="2.5" height="2.5"/><rect x="345.75" y="39.84" width="2.5" height="2.5"/><rect x="345.75" y="36.93" width="2.5" height="2.5"/><rect x="345.75" y="34.02" width="2.5" height="2.5"/><rect x="345.75" y="31.11" width="2.5" height="2.5"/><rect x="345.75" y="28.2" width="2.5" height="2.5"/><rect x="345.75" y="19.47" width="2.5" height="2.5"/><rect x="345.75" y="16.55" width="2.5" height="2.5"/><rect x="345.75" y="13.64" width="2.5" height="2.5"/><rect x="345.75" y="10.73" width="2.5" height="2.5"/><rect x="345.75" y="7.82" width="2.5" height="2.5"/><rect x="345.75" y="4.91" width="2.5" height="2.5"/><rect x="348.66" y="42.75" width="2.5" height="2.5"/><rect x="348.66" y="39.84" width="2.5" height="2.5"/><rect x="348.66" y="36.93" width="2.5" height="2.5"/><rect x="348.66" y="34.02" width="2.5" height="2.5"/><rect x="348.66" y="31.11" width="2.5" height="2.5"/><rect x="348.66" y="16.55" width="2.5" height="2.5"/><rect x="348.66" y="13.64" width="2.5" height="2.5"/><rect x="348.66" y="10.73" width="2.5" height="2.5"/><rect x="348.66" y="7.82" width="2.5" height="2.5"/><rect x="348.66" y="4.91" width="2.5" height="2.5"/><path class="cls-2" d="M351.16,56.2H284.62a.5.5,0,0,1-.5-.5.51.51,0,0,1,.5-.5h66.54a.51.51,0,0,1,.5.5A.5.5,0,0,1,351.16,56.2Z"/><path class="cls-3" d="M298.32,71a4.08,4.08,0,0,1-2.81-.91l.37-.84a3.78,3.78,0,0,0,2.48.84,2.21,2.21,0,0,0,1.21-.27A.89.89,0,0,0,300,69a.86.86,0,0,0-.27-.67,2.26,2.26,0,0,0-.93-.4l-1.19-.28a2.56,2.56,0,0,1-1.36-.7,1.65,1.65,0,0,1-.49-1.2,1.81,1.81,0,0,1,.34-1.09,2.25,2.25,0,0,1,.94-.73,3.43,3.43,0,0,1,1.42-.27,4.09,4.09,0,0,1,1.41.24,3,3,0,0,1,1.1.69l-.38.82a3.49,3.49,0,0,0-1-.62,2.9,2.9,0,0,0-1.1-.2,1.93,1.93,0,0,0-1.16.29.93.93,0,0,0-.42.8.9.9,0,0,0,.26.68,1.83,1.83,0,0,0,.84.4l1.18.29a2.81,2.81,0,0,1,1.47.69,1.81,1.81,0,0,1-.27,2.68A3.32,3.32,0,0,1,298.32,71Z"/><path class="cls-3" d="M308.65,70a3.32,3.32,0,0,1-1.18.69A4.42,4.42,0,0,1,306,71a3.81,3.81,0,0,1-1.88-.43,2.91,2.91,0,0,1-1.22-1.26,4.07,4.07,0,0,1-.43-2,4.18,4.18,0,0,1,.42-1.92,3.18,3.18,0,0,1,1.17-1.29,3.31,3.31,0,0,1,1.73-.46,3.06,3.06,0,0,1,1.61.41,2.67,2.67,0,0,1,1,1.19,4.33,4.33,0,0,1,.36,1.85v.21h-5.32v-.75h4.67l-.36.52a2.92,2.92,0,0,0-.48-1.89,1.79,1.79,0,0,0-1.5-.66,2,2,0,0,0-1.6.72,3.11,3.11,0,0,0-.58,2,3,3,0,0,0,.61,2.07A2.23,2.23,0,0,0,306,70a3.62,3.62,0,0,0,1.19-.2,3.68,3.68,0,0,0,1.08-.62Z"/><path class="cls-3" d="M313.45,71a3.42,3.42,0,0,1-1.79-.45,3.1,3.1,0,0,1-1.17-1.26,4.65,4.65,0,0,1,0-3.84,3.12,3.12,0,0,1,1.19-1.3,3.54,3.54,0,0,1,1.82-.46,3.87,3.87,0,0,1,1.38.25,3,3,0,0,1,1.1.68l-.38.84a4.1,4.1,0,0,0-1-.61,2.6,2.6,0,0,0-1-.21,2.09,2.09,0,0,0-1.68.72,3.51,3.51,0,0,0,0,4,2.13,2.13,0,0,0,1.69.7,2.86,2.86,0,0,0,1-.2,4.65,4.65,0,0,0,1-.61l.38.84a3.21,3.21,0,0,1-1.13.66A4,4,0,0,1,313.45,71Z"/><path class="cls-3" d="M320.34,71a3.36,3.36,0,0,1-1.76-.45,3,3,0,0,1-1.16-1.27,4.29,4.29,0,0,1-.41-1.93,4.37,4.37,0,0,1,.41-1.94,3,3,0,0,1,1.16-1.27,3.67,3.67,0,0,1,3.52,0,3,3,0,0,1,1.16,1.27,4.37,4.37,0,0,1,.41,1.94,4.29,4.29,0,0,1-.41,1.93,3,3,0,0,1-1.16,1.27A3.36,3.36,0,0,1,320.34,71Zm0-.94a2,2,0,0,0,1.6-.69,3.85,3.85,0,0,0,0-4,2.18,2.18,0,0,0-3.2,0,3.07,3.07,0,0,0-.58,2,3.18,3.18,0,0,0,.56,2A2,2,0,0,0,320.34,70Z"/><path class="cls-3" d="M325.44,70.88V65.81c0-.32,0-.65,0-1s-.05-.66-.1-1h1.08l.13,1.46-.14.11a2.41,2.41,0,0,1,1-1.3,2.89,2.89,0,0,1,1.58-.44c1.69,0,2.53.93,2.53,2.79v4.42h-1.13V66.51a2.16,2.16,0,0,0-.39-1.43,1.55,1.55,0,0,0-1.23-.46,2.06,2.06,0,0,0-1.57.61,2.22,2.22,0,0,0-.59,1.62v4Z"/><path class="cls-3" d="M339.83,70.88h-1.12V69l.17.16A2.38,2.38,0,0,1,338,70.5a2.76,2.76,0,0,1-1.64.48,2.88,2.88,0,0,1-1.63-.46,2.94,2.94,0,0,1-1.1-1.28,4.54,4.54,0,0,1-.39-1.94,4.39,4.39,0,0,1,.38-1.92,2.9,2.9,0,0,1,2.74-1.71,2.76,2.76,0,0,1,1.64.48,2.47,2.47,0,0,1,.91,1.36l-.19.14V60.58h1.14ZM336.55,70a1.91,1.91,0,0,0,1.59-.71,3.11,3.11,0,0,0,.57-2,3.17,3.17,0,0,0-.56-2,1.94,1.94,0,0,0-1.6-.71,2,2,0,0,0-1.62.7,3.07,3.07,0,0,0-.58,2,3.17,3.17,0,0,0,.58,2A2,2,0,0,0,336.55,70Z"/><path class="cls-3" d="M278.65,87.68v-.87L282.14,83a7.39,7.39,0,0,0,1-1.41,2.8,2.8,0,0,0,.32-1.26A1.64,1.64,0,0,0,283,79a1.88,1.88,0,0,0-1.35-.44,3.55,3.55,0,0,0-1.43.29,5.15,5.15,0,0,0-1.4.86l-.44-.89a4.38,4.38,0,0,1,1.49-.89,5,5,0,0,1,1.8-.34,3.65,3.65,0,0,1,1.58.32,2.44,2.44,0,0,1,1,.9,2.63,2.63,0,0,1,.36,1.4,3.83,3.83,0,0,1-.38,1.65A8.52,8.52,0,0,1,283,83.64l-3.36,3.64-.09-.56h5.53v1Z"/><path class="cls-3" d="M290,87.78a5.6,5.6,0,0,1-1.86-.32,4.34,4.34,0,0,1-1.5-.91l.45-.88a5,5,0,0,0,1.38.86,4,4,0,0,0,1.5.28,2.41,2.41,0,0,0,1.62-.47,1.75,1.75,0,0,0,.55-1.4,1.65,1.65,0,0,0-.57-1.38,2.78,2.78,0,0,0-1.72-.46h-1.15v-1h.92a2.65,2.65,0,0,0,1.7-.49,1.73,1.73,0,0,0,.58-1.4,1.61,1.61,0,0,0-.48-1.25,2,2,0,0,0-1.36-.43,3.65,3.65,0,0,0-1.45.29,5.06,5.06,0,0,0-1.38.86l-.44-.89a4.33,4.33,0,0,1,1.49-.9,5.1,5.1,0,0,1,1.82-.33,3.62,3.62,0,0,1,1.56.32,2.26,2.26,0,0,1,1,.89,2.47,2.47,0,0,1,.36,1.35,2.6,2.6,0,0,1-.48,1.58,2.42,2.42,0,0,1-1.33.89l0-.14a2.59,2.59,0,0,1,1.54.85,2.47,2.47,0,0,1,.53,1.64,2.54,2.54,0,0,1-.88,2A3.55,3.55,0,0,1,290,87.78Z"/><path class="cls-3" d="M295.38,90.71v-8.1c0-.32,0-.65,0-1s-.05-.66-.09-1h1.07l.13,1.46-.11.21a2.35,2.35,0,0,1,.91-1.36,2.72,2.72,0,0,1,1.62-.48,3,3,0,0,1,1.63.46,3.19,3.19,0,0,1,1.11,1.29,4.86,4.86,0,0,1,0,3.86,2.89,2.89,0,0,1-2.74,1.7,2.72,2.72,0,0,1-1.62-.48,2.33,2.33,0,0,1-.91-1.35l.15-.14v4.9Zm3.3-3.87a2,2,0,0,0,1.6-.7,3.06,3.06,0,0,0,.57-2,3.2,3.2,0,0,0-.57-2,1.93,1.93,0,0,0-1.6-.72,2,2,0,0,0-1.61.7,3.87,3.87,0,0,0,0,4A1.92,1.92,0,0,0,298.68,86.84Z"/><path class="cls-3" d="M304.09,87.68H302.7l2.93-3.62.65-.83,2.05-2.59h1.38L307,84.06l-.69.85Zm4.42,0-2.23-2.77-.65-.85-2.76-3.42h1.37l2,2.59.69.83,2.9,3.62Z"/><path class="cls-3" d="M320.58,80.35l.61.61-6,6-.61-.6Zm-5.38,0,6,6-.61.6-6-6Z"/><path class="cls-3" d="M327.54,87.68v-1h5.55v1Zm2.19-.52V78.39l.66.33-2.7,1.72v-1.1l2.55-1.63h.66v9.45Z"/><path class="cls-3" d="M338.67,87.79a3.31,3.31,0,0,1-2.79-1.25,5.73,5.73,0,0,1-1-3.59,8.24,8.24,0,0,1,.45-2.89,4,4,0,0,1,1.32-1.83,3.38,3.38,0,0,1,2.06-.63,4.69,4.69,0,0,1,1.69.32,4.35,4.35,0,0,1,1.44.91l-.44.89a4.78,4.78,0,0,0-1.35-.88,3.38,3.38,0,0,0-1.31-.27,2.24,2.24,0,0,0-2,1.14,6.07,6.07,0,0,0-.71,3.23v1.2l-.17-.38a2.65,2.65,0,0,1,.52-1.24,2.75,2.75,0,0,1,1-.81,3.17,3.17,0,0,1,1.35-.29,3.31,3.31,0,0,1,1.63.4,2.86,2.86,0,0,1,1.09,1.12,3.6,3.6,0,0,1,0,3.3,3,3,0,0,1-1.14,1.14A3.21,3.21,0,0,1,338.67,87.79Zm-.06-1a2,2,0,0,0,1.54-.61,2.26,2.26,0,0,0,.59-1.62,2.21,2.21,0,0,0-.59-1.6,2,2,0,0,0-1.55-.61,2.28,2.28,0,0,0-1.15.29,2,2,0,0,0-.79.78,2.35,2.35,0,0,0-.28,1.14,2.41,2.41,0,0,0,.28,1.17,2,2,0,0,0,.79.78A2.4,2.4,0,0,0,338.61,86.83Z"/><path class="cls-3" d="M343.63,90.71v-8.1c0-.32,0-.65,0-1a8.28,8.28,0,0,0-.09-1h1.08l.13,1.46-.12.21a2.4,2.4,0,0,1,.91-1.36,2.73,2.73,0,0,1,1.63-.48,3,3,0,0,1,1.63.46,3.19,3.19,0,0,1,1.11,1.29,5,5,0,0,1,0,3.86,2.89,2.89,0,0,1-2.74,1.7,2.73,2.73,0,0,1-1.63-.48,2.38,2.38,0,0,1-.91-1.35l.16-.14v4.9Zm3.31-3.87a1.93,1.93,0,0,0,1.59-.7,3,3,0,0,0,.58-2,3.14,3.14,0,0,0-.58-2,1.91,1.91,0,0,0-1.59-.72,2,2,0,0,0-1.61.7,3.87,3.87,0,0,0,0,4A1.91,1.91,0,0,0,346.94,86.84Z"/><path class="cls-3" d="M352.34,87.68H351l2.92-3.62.66-.83,2-2.59H358l-2.75,3.42-.68.85Zm4.42,0-2.22-2.77-.66-.85-2.76-3.42h1.38l2,2.59.68.83,2.9,3.62Z"/><circle class="cls-2" cx="284.62" cy="2" r="2"/></g></g></svg>