<svg xmlns="http://www.w3.org/2000/svg" viewBox="0 0 595.28 29"><defs><style>.cls-1,.cls-4{fill:none;}.cls-2{fill:#3d865a;}.cls-3{fill:#49a670;}.cls-4{stroke:#81c29b;}.cls-5{isolation:isolate;font-size:15px;fill:#fff;font-family:Mulish-Regular, Mulish;}.cls-6{letter-spacing:-0.01em;}</style></defs><g id="Layer_2" data-name="Layer 2"><g id="Layer_1-2" data-name="Layer 1"><rect class="cls-1" width="595.28" height="18"/><path class="cls-2" d="M1,9A8,8,0,0,1,9,1h7l6,4h3l6-4H153.08V25H30.5l-6,4h-3l-6-4H9a8,8,0,0,1-8-8Z"/><path class="cls-3" d="M0,8A8,8,0,0,1,8,0h7l6,4h3l6-4H152.08V24H29.5l-6,4h-3l-6-4H8a8,8,0,0,1-8-8Z"/><path class="cls-4" d="M.5,7.5A7.5,7.5,0,0,1,8,.5h7l6,4h3l6-4H151.58M2.7,21.3A7.47,7.47,0,0,1,.5,16V8"/><text class="cls-5" transform="translate(10 17.5)">cur<tspan class="cls-6" x="21.51" y="0">r</tspan><tspan x="26.79" y="0">ent time &amp; date</tspan></text></g></g></svg>