<svg xmlns="http://www.w3.org/2000/svg" viewBox="0 0 595.28 41"><defs><style>.cls-1,.cls-4,.cls-7{fill:none;}.cls-2{fill:#3c8655;}.cls-3{fill:#4aa669;}.cls-4{stroke:#81c197;}.cls-5{fill:#3d4986;}.cls-6{fill:#4c5ba6;}.cls-7{stroke:#818dc1;}.cls-8{opacity:0.6;}.cls-12,.cls-9{fill:#fff;}.cls-10,.cls-12{isolation:isolate;}.cls-11{fill:#010101;}.cls-12{font-size:15px;font-family:Mulish-Regular, Mulish;}.cls-13{letter-spacing:-0.01em;}.cls-14{letter-spacing:-0.01em;}.cls-15{letter-spacing:0em;}</style></defs><g id="Layer_2" data-name="Layer 2"><g id="Layer_1-2" data-name="Layer 1"><rect class="cls-1" width="595.28" height="18"/><path class="cls-2" d="M1,9A8,8,0,0,1,9,1h7l6,4h3l6-4H218.22V37H30.5l-6,4h-3l-6-4H9a8,8,0,0,1-8-8ZM105.47,6H57.07v5c0,10-8-8-8,7.5s8-2.5,8,7.5v7h48.4Z"/><path class="cls-3" d="M0,8A8,8,0,0,1,8,0h7l6,4h3l6-4H217.22V36H29.5l-6,4h-3l-6-4H8a8,8,0,0,1-8-8ZM104.47,5H56.07v5c0,10-8-8-8,7.5s8-2.5,8,7.5v7h48.4Z"/><path class="cls-4" d="M.5,7.5A7.5,7.5,0,0,1,8,.5h7l6,4h3l6-4h9.5m0,0H216.72M2.7,33.3A7.47,7.47,0,0,1,.5,28V8M105,5.5v27H56.57M51,24.3l3.68-2.1"/><path class="cls-5" d="M58.07,7h46.4V32H58.07V27c0-10-8,8-8-7.5s8,2.5,8-7.5Z"/><path class="cls-6" d="M57.07,6h46.4V31H57.07V26c0-10-8,8-8-7.5s8,2.5,8-7.5Z"/><path class="cls-7" d="M57.57,6.5H103m-45.4,24v-6M50.21,24a20.15,20.15,0,0,1,0-11m7.36,1V6.5h.5"/><g class="cls-8"><rect class="cls-9" x="62.07" y="11" width="36.4" height="16" rx="4"/></g><g class="cls-10"><path class="cls-11" d="M69,23.5v-1h6v1ZM71.34,23V13.54l.71.36-2.9,1.85V14.56l2.73-1.74h.71V23Z"/><path class="cls-11" d="M80.57,23.62a3.17,3.17,0,0,1-2.79-1.39,7.22,7.22,0,0,1-1-4.07,7.22,7.22,0,0,1,1-4.07,3.5,3.5,0,0,1,5.58,0,7.2,7.2,0,0,1,.94,4.05,7.23,7.23,0,0,1-1,4.08A3.14,3.14,0,0,1,80.57,23.62Zm0-1a2,2,0,0,0,1.88-1.08,7.19,7.19,0,0,0,.61-3.37,7,7,0,0,0-.61-3.33,2,2,0,0,0-1.88-1.06,2,2,0,0,0-1.89,1.07,7,7,0,0,0-.6,3.32,7.21,7.21,0,0,0,.6,3.37A2,2,0,0,0,80.57,22.59Z"/><path class="cls-11" d="M89.57,23.62a3.17,3.17,0,0,1-2.79-1.39,7.22,7.22,0,0,1-1-4.07,7.22,7.22,0,0,1,1-4.07,3.5,3.5,0,0,1,5.58,0,7.2,7.2,0,0,1,.94,4.05,7.23,7.23,0,0,1-1,4.08A3.14,3.14,0,0,1,89.57,23.62Zm0-1a2,2,0,0,0,1.88-1.08,7.19,7.19,0,0,0,.61-3.37,7,7,0,0,0-.61-3.33,2,2,0,0,0-1.88-1.06,2,2,0,0,0-1.89,1.07,7,7,0,0,0-.6,3.32,7.21,7.21,0,0,0,.6,3.37A2,2,0,0,0,89.57,22.59Z"/></g><text class="cls-12" transform="translate(10 22.5)"><tspan class="cls-13">w</tspan><tspan x="12.94" y="0">ait</tspan></text><text class="cls-12" transform="translate(114.47 22.5)">mic<tspan class="cls-14" x="24.18" y="0">r</tspan><tspan class="cls-15" x="29.46" y="0">oseconds</tspan></text></g></g></svg>