<svg xmlns="http://www.w3.org/2000/svg" viewBox="0 0 595.28 55"><defs><style>.cls-1{fill:none;}.cls-2{fill:#3d865a;}.cls-3{fill:#49a670;}.cls-4{fill:#81c29b;}.cls-5{isolation:isolate;}.cls-6{fill:#fff;}.cls-7{opacity:0.6;}.cls-8{fill:#010101;}</style></defs><g id="Layer_2" data-name="Layer 2"><g id="Layer_1-2" data-name="Layer 1"><rect class="cls-1" width="595.28" height="18"/><path class="cls-2" d="M1,9A8,8,0,0,1,9,1h7l6,4h3l6-4H253.93V51H30.5l-6,4h-3l-6-4H9a8,8,0,0,1-8-8Z"/><path class="cls-3" d="M0,8A8,8,0,0,1,8,0h7l6,4h3l6-4H252.93V50H29.5l-6,4h-3l-6-4H8a8,8,0,0,1-8-8Z"/><path class="cls-4" d="M2.34,47.66A8,8,0,0,1,0,42V8H1V42a7,7,0,0,0,2.05,5ZM1,7.53,0,7.47A8,8,0,0,1,8,0h7.17l6,4h2.7l6-4H252.43V1H30.15l-6,4h-3.3l-6-4H8A7,7,0,0,0,1,7.53Z"/><g class="cls-5"><path class="cls-6" d="M13.72,17.61a4.38,4.38,0,0,1-3-1l.4-.9a4.11,4.11,0,0,0,1.24.68,4.23,4.23,0,0,0,1.42.22,2.37,2.37,0,0,0,1.29-.29,1,1,0,0,0,.44-.85.91.91,0,0,0-.29-.71,2.41,2.41,0,0,0-1-.43l-1.27-.3a2.78,2.78,0,0,1-1.46-.75A1.78,1.78,0,0,1,11,12a1.93,1.93,0,0,1,.36-1.16,2.37,2.37,0,0,1,1-.79,3.7,3.7,0,0,1,1.53-.28,4.46,4.46,0,0,1,1.5.25,3.25,3.25,0,0,1,1.18.74l-.41.88A3.87,3.87,0,0,0,15,11a3.28,3.28,0,0,0-1.17-.21,2.17,2.17,0,0,0-1.26.31,1,1,0,0,0-.44.86,1,1,0,0,0,.28.73,1.89,1.89,0,0,0,.89.42l1.28.32a2.92,2.92,0,0,1,1.56.74,1.77,1.77,0,0,1,.5,1.31A1.84,1.84,0,0,1,15.88,17,3.57,3.57,0,0,1,13.72,17.61Z"/><path class="cls-6" d="M24.79,16.6a3.49,3.49,0,0,1-1.27.74,4.73,4.73,0,0,1-1.58.27,4.16,4.16,0,0,1-2-.47,3.17,3.17,0,0,1-1.3-1.34,4.42,4.42,0,0,1-.46-2.09,4.5,4.5,0,0,1,.45-2.06,3.41,3.41,0,0,1,1.25-1.38,3.46,3.46,0,0,1,1.85-.49,3.2,3.2,0,0,1,1.73.44,2.8,2.8,0,0,1,1.1,1.27,4.6,4.6,0,0,1,.38,2v.22H19.23V12.9h5l-.39.55a3.14,3.14,0,0,0-.51-2,1.91,1.91,0,0,0-1.6-.71,2.11,2.11,0,0,0-1.72.77,3.36,3.36,0,0,0-.62,2.14A3.32,3.32,0,0,0,20,15.85,2.41,2.41,0,0,0,22,16.6a3.56,3.56,0,0,0,1.26-.22,3.77,3.77,0,0,0,1.16-.66Z"/><path class="cls-6" d="M25.66,10.92V10H30.5v1Zm4.81,5.5v1a4.48,4.48,0,0,1-.5.11,4.43,4.43,0,0,1-.55,0,2.31,2.31,0,0,1-1.67-.6,2.41,2.41,0,0,1-.62-1.8V8l1.21-.43V15a2,2,0,0,0,.18.93,1,1,0,0,0,.47.46,1.78,1.78,0,0,0,.67.13,2.54,2.54,0,0,0,.41,0A2.73,2.73,0,0,0,30.47,16.42Z"/><path class="cls-6" d="M42.53,17.5H41.34v-2l.17.16a2.52,2.52,0,0,1-1,1.46,3,3,0,0,1-1.76.51A3.16,3.16,0,0,1,37,17.12a3.26,3.26,0,0,1-1.18-1.38,4.86,4.86,0,0,1-.42-2.08,4.81,4.81,0,0,1,.41-2.05,3.1,3.1,0,0,1,2.93-1.83,3,3,0,0,1,1.76.51,2.56,2.56,0,0,1,1,1.45l-.19.15V6.46h1.21ZM39,16.6a2.06,2.06,0,0,0,1.7-.76,3.38,3.38,0,0,0,.61-2.15,3.38,3.38,0,0,0-.61-2.14A2.06,2.06,0,0,0,39,10.8a2.14,2.14,0,0,0-1.74.75,3.24,3.24,0,0,0-.62,2.11,3.42,3.42,0,0,0,.62,2.17A2.12,2.12,0,0,0,39,16.6Z"/><path class="cls-6" d="M47.78,17.61A3.23,3.23,0,0,1,46,17.13a3.11,3.11,0,0,1-1.17-1.35,4.85,4.85,0,0,1-.41-2.06,4.78,4.78,0,0,1,.42-2.07A3.26,3.26,0,0,1,46,10.27a3.08,3.08,0,0,1,1.74-.49,3,3,0,0,1,1.76.51,2.5,2.5,0,0,1,1,1.45l-.17.12V10h1.19V17.5H50.34V15.55l.17.09a2.52,2.52,0,0,1-1,1.46A3,3,0,0,1,47.78,17.61Zm.25-1a2,2,0,0,0,1.7-.76,3.38,3.38,0,0,0,.61-2.15,3.35,3.35,0,0,0-.61-2.14,2.33,2.33,0,0,0-3.44,0,3.36,3.36,0,0,0-.62,2.15,3.28,3.28,0,0,0,.62,2.13A2.14,2.14,0,0,0,48,16.6Z"/><path class="cls-6" d="M52.82,10.92V10h4.85v1Zm4.82,5.5v1a5,5,0,0,1-.5.11,4.58,4.58,0,0,1-.55,0,2.29,2.29,0,0,1-1.67-.6,2.37,2.37,0,0,1-.62-1.8V8l1.21-.43V15a2.11,2.11,0,0,0,.17.93,1,1,0,0,0,.47.46,1.83,1.83,0,0,0,.68.13,2.41,2.41,0,0,0,.4,0A2.83,2.83,0,0,0,57.64,16.42Z"/><path class="cls-6" d="M65.32,16.6a3.49,3.49,0,0,1-1.27.74,4.73,4.73,0,0,1-1.58.27,4.16,4.16,0,0,1-2-.47,3.17,3.17,0,0,1-1.3-1.34,4.42,4.42,0,0,1-.46-2.09,4.5,4.5,0,0,1,.45-2.06,3.41,3.41,0,0,1,1.25-1.38,3.46,3.46,0,0,1,1.85-.49,3.2,3.2,0,0,1,1.73.44,2.8,2.8,0,0,1,1.1,1.27,4.6,4.6,0,0,1,.38,2v.22h-5.7V12.9h5l-.39.55a3.14,3.14,0,0,0-.51-2,1.91,1.91,0,0,0-1.6-.71,2.11,2.11,0,0,0-1.72.77,3.36,3.36,0,0,0-.62,2.14,3.32,3.32,0,0,0,.65,2.22,2.4,2.4,0,0,0,1.91.75,3.61,3.61,0,0,0,1.27-.22,3.77,3.77,0,0,0,1.16-.66Z"/></g><g class="cls-7"><rect class="cls-6" x="71.75" y="5" width="18.8" height="16" rx="4"/></g><g class="cls-5"><path class="cls-8" d="M78.67,17.5v-1h6v1ZM81,17V7.54l.7.36L78.84,9.75V8.56l2.73-1.74h.7V17Z"/></g><g class="cls-5"><path class="cls-6" d="M96.72,17.5V12.07c0-.35,0-.7,0-1.06s0-.7-.1-1h1.15l.14,1.56-.15.1a2.49,2.49,0,0,1,.94-1.36,2.62,2.62,0,0,1,1.58-.48,2.46,2.46,0,0,1,1.7.54,2.62,2.62,0,0,1,.77,1.65l-.35-.2a2.52,2.52,0,0,1,1-1.45,2.87,2.87,0,0,1,1.75-.54,2.28,2.28,0,0,1,1.87.74,3.38,3.38,0,0,1,.63,2.24V17.5h-1.21V12.82a2.54,2.54,0,0,0-.38-1.54,1.4,1.4,0,0,0-1.18-.48,1.84,1.84,0,0,0-1.49.64,2.61,2.61,0,0,0-.55,1.76v4.3h-1.21V12.82a2.47,2.47,0,0,0-.39-1.54A1.42,1.42,0,0,0,100,10.8a1.88,1.88,0,0,0-1.51.64,2.67,2.67,0,0,0-.55,1.76v4.3Z"/><path class="cls-6" d="M113,17.61a3.61,3.61,0,0,1-1.89-.48,3.27,3.27,0,0,1-1.24-1.36,4.52,4.52,0,0,1-.44-2.08,4.51,4.51,0,0,1,.44-2.07,3.21,3.21,0,0,1,1.24-1.36,3.94,3.94,0,0,1,3.77,0,3.21,3.21,0,0,1,1.24,1.36,4.51,4.51,0,0,1,.44,2.07,4.52,4.52,0,0,1-.44,2.08,3.27,3.27,0,0,1-1.24,1.36A3.63,3.63,0,0,1,113,17.61Zm0-1a2.1,2.1,0,0,0,1.71-.74,3.34,3.34,0,0,0,.61-2.17,3.23,3.23,0,0,0-.62-2.14,2.08,2.08,0,0,0-1.7-.75,2.11,2.11,0,0,0-1.72.75,3.23,3.23,0,0,0-.62,2.14,3.4,3.4,0,0,0,.6,2.17A2.15,2.15,0,0,0,113,16.6Z"/><path class="cls-6" d="M118.48,17.5V12.07c0-.35,0-.7,0-1.06a7.46,7.46,0,0,0-.1-1h1.16l.13,1.56-.15.12a2.59,2.59,0,0,1,1.06-1.39,3,3,0,0,1,1.69-.47c1.81,0,2.71,1,2.71,3V17.5h-1.21V12.82a2.34,2.34,0,0,0-.42-1.54A1.67,1.67,0,0,0,122,10.8a2.24,2.24,0,0,0-1.68.64,2.38,2.38,0,0,0-.63,1.74V17.5Z"/><path class="cls-6" d="M126.19,10.92V10H131v1Zm4.82,5.5v1a5,5,0,0,1-.5.11,4.58,4.58,0,0,1-.55,0,2.29,2.29,0,0,1-1.67-.6,2.37,2.37,0,0,1-.62-1.8V8l1.21-.43V15a2.11,2.11,0,0,0,.17.93,1,1,0,0,0,.48.46,1.74,1.74,0,0,0,.67.13,2.63,2.63,0,0,0,.41,0A3.11,3.11,0,0,0,131,16.42Z"/><path class="cls-6" d="M132.51,17.5v-11h1.21v5l-.19.15a2.58,2.58,0,0,1,1.05-1.39,3,3,0,0,1,1.7-.47c1.8,0,2.71,1,2.71,3V17.5h-1.21V12.82a2.4,2.4,0,0,0-.42-1.54A1.7,1.7,0,0,0,136,10.8a2.23,2.23,0,0,0-1.67.64,2.39,2.39,0,0,0-.64,1.74V17.5Z"/></g><g class="cls-7"><rect class="cls-6" x="144.13" y="5" width="18.8" height="16" rx="4"/></g><g class="cls-5"><path class="cls-8" d="M151.05,17.5v-1h6v1Zm2.36-.55V7.54l.7.36-2.89,1.85V8.56L154,6.82h.7V17Z"/></g><g class="cls-5"><path class="cls-6" d="M171.5,17.89,168.11,10h1.28l2.73,6.66Zm-2.76,3-.25-.95a6.57,6.57,0,0,0,1.16-.38,2.61,2.61,0,0,0,.8-.56,3.21,3.21,0,0,0,.56-.92l.48-1.11.27-.37L174.52,10h1.21l-3.52,8.23a5.16,5.16,0,0,1-.92,1.46,3.51,3.51,0,0,1-1.14.84A6.1,6.1,0,0,1,168.74,20.91Z"/><path class="cls-6" d="M183.16,16.6a3.49,3.49,0,0,1-1.27.74,4.73,4.73,0,0,1-1.58.27,4.16,4.16,0,0,1-2-.47A3.17,3.17,0,0,1,177,15.8a4.42,4.42,0,0,1-.46-2.09,4.5,4.5,0,0,1,.45-2.06,3.41,3.41,0,0,1,1.25-1.38,3.46,3.46,0,0,1,1.85-.49,3.2,3.2,0,0,1,1.73.44,2.8,2.8,0,0,1,1.1,1.27,4.6,4.6,0,0,1,.38,2v.22h-5.7V12.9h5l-.39.55a3.14,3.14,0,0,0-.51-2,1.91,1.91,0,0,0-1.6-.71,2.11,2.11,0,0,0-1.72.77,3.36,3.36,0,0,0-.62,2.14,3.32,3.32,0,0,0,.65,2.22,2.4,2.4,0,0,0,1.91.75,3.61,3.61,0,0,0,1.27-.22,3.77,3.77,0,0,0,1.16-.66Z"/><path class="cls-6" d="M188,17.61a3.23,3.23,0,0,1-1.76-.48,3.11,3.11,0,0,1-1.17-1.35,4.85,4.85,0,0,1-.41-2.06,4.78,4.78,0,0,1,.42-2.07,3.26,3.26,0,0,1,1.18-1.38A3.08,3.08,0,0,1,188,9.78a3,3,0,0,1,1.76.51,2.5,2.5,0,0,1,1,1.45l-.18.12V10h1.2V17.5h-1.2V15.55l.18.09a2.52,2.52,0,0,1-1,1.46A3,3,0,0,1,188,17.61Zm.24-1a2,2,0,0,0,1.71-.76,3.38,3.38,0,0,0,.6-2.15,3.35,3.35,0,0,0-.6-2.14,2.33,2.33,0,0,0-3.44,0,3.36,3.36,0,0,0-.62,2.15,3.28,3.28,0,0,0,.62,2.13A2.13,2.13,0,0,0,188.27,16.6Z"/><path class="cls-6" d="M194.14,17.5V12.07c0-.35,0-.7,0-1.06s-.05-.7-.1-1h1.15l.17,1.86-.17-.05a2.36,2.36,0,0,1,.91-1.49,2.6,2.6,0,0,1,1.57-.5,2.23,2.23,0,0,1,.37,0,1.65,1.65,0,0,1,.32.07l0,1.11a2.45,2.45,0,0,0-.8-.12,1.92,1.92,0,0,0-1.94,1.22,3,3,0,0,0-.22,1.12v4.3Z"/></g><g class="cls-7"><rect class="cls-6" x="202.73" y="5" width="45.2" height="16" rx="4"/></g><g class="cls-5"><path class="cls-8" d="M209,17.5v-.93l3.73-4.14a7.53,7.53,0,0,0,1.1-1.51,2.94,2.94,0,0,0,.34-1.35,1.76,1.76,0,0,0-.51-1.36,2,2,0,0,0-1.45-.47,4.09,4.09,0,0,0-1.53.3,6.13,6.13,0,0,0-1.5.93l-.47-1a4.63,4.63,0,0,1,1.59-1,5.5,5.5,0,0,1,1.94-.36,3.86,3.86,0,0,1,1.69.34A2.54,2.54,0,0,1,215,8a2.79,2.79,0,0,1,.39,1.5,4.05,4.05,0,0,1-.41,1.76,8.74,8.74,0,0,1-1.38,1.9l-3.6,3.9-.09-.6h5.93v1Z"/><path class="cls-8" d="M221.23,17.62a3.15,3.15,0,0,1-2.78-1.39,7.22,7.22,0,0,1-.95-4.07,7.23,7.23,0,0,1,.94-4.07,3.5,3.5,0,0,1,5.58,0,7.21,7.21,0,0,1,.95,4.06,7.28,7.28,0,0,1-.95,4.08A3.17,3.17,0,0,1,221.23,17.62Zm0-1a2,2,0,0,0,1.89-1.08,7.19,7.19,0,0,0,.6-3.36,7,7,0,0,0-.6-3.34,2.2,2.2,0,0,0-3.77,0,7,7,0,0,0-.61,3.33,7.17,7.17,0,0,0,.61,3.36A2,2,0,0,0,221.23,16.59Z"/><path class="cls-8" d="M227.65,17.5v-1h6v1ZM230,17V7.54l.7.36-2.89,1.85V8.56l2.73-1.74h.7V17Z"/><path class="cls-8" d="M236.65,17.5v-1h6v1ZM239,17V7.54l.7.36-2.89,1.85V8.56l2.73-1.74h.7V17Z"/></g><g class="cls-5"><path class="cls-6" d="M42.12,42.5v-11h1.22v5l-.2.15a2.58,2.58,0,0,1,1-1.39,3,3,0,0,1,1.7-.47c1.8,0,2.71,1,2.71,3V42.5H47.39V37.82A2.34,2.34,0,0,0,47,36.28a1.67,1.67,0,0,0-1.32-.48,2.24,2.24,0,0,0-1.68.64,2.38,2.38,0,0,0-.63,1.74V42.5Z"/><path class="cls-6" d="M54,42.61a3.64,3.64,0,0,1-1.89-.48,3.27,3.27,0,0,1-1.24-1.36,5.11,5.11,0,0,1,0-4.15,3.21,3.21,0,0,1,1.24-1.36,3.94,3.94,0,0,1,3.77,0,3.21,3.21,0,0,1,1.24,1.36,5,5,0,0,1,0,4.15,3.27,3.27,0,0,1-1.24,1.36A3.63,3.63,0,0,1,54,42.61Zm0-1a2.1,2.1,0,0,0,1.71-.74,3.34,3.34,0,0,0,.61-2.17,3.29,3.29,0,0,0-.61-2.14,2.34,2.34,0,0,0-3.43,0,3.23,3.23,0,0,0-.62,2.14,3.4,3.4,0,0,0,.6,2.17A2.15,2.15,0,0,0,54,41.6Z"/><path class="cls-6" d="M62.15,42.61a2.64,2.64,0,0,1-2-.75,3.22,3.22,0,0,1-.68-2.22V35h1.22v4.65a2.24,2.24,0,0,0,.42,1.5,1.59,1.59,0,0,0,1.27.48A2.14,2.14,0,0,0,64,40.94a2.39,2.39,0,0,0,.62-1.72V35h1.21V42.5H64.61V40.87l.18-.09a2.49,2.49,0,0,1-1,1.36A2.9,2.9,0,0,1,62.15,42.61Z"/><path class="cls-6" d="M68.13,42.5V37.07c0-.35,0-.7,0-1.06s0-.7-.1-1h1.16l.16,1.86-.16,0a2.31,2.31,0,0,1,.9-1.49,2.6,2.6,0,0,1,1.57-.5,2.23,2.23,0,0,1,.37,0,1.65,1.65,0,0,1,.32.07l0,1.11a2.41,2.41,0,0,0-.8-.12,1.92,1.92,0,0,0-1.94,1.22,3,3,0,0,0-.22,1.12v4.3Z"/></g><g class="cls-7"><rect class="cls-6" x="76.7" y="30" width="18.8" height="16" rx="4"/></g><g class="cls-5"><path class="cls-8" d="M86.2,42.62a3.14,3.14,0,0,1-2.78-1.39,7.14,7.14,0,0,1-1-4.07,7.23,7.23,0,0,1,.94-4.07,3.5,3.5,0,0,1,5.58,0,7.21,7.21,0,0,1,1,4.06,7.19,7.19,0,0,1-1,4.08A3.14,3.14,0,0,1,86.2,42.62Zm0-1a2,2,0,0,0,1.88-1.08,7,7,0,0,0,.61-3.36,6.9,6.9,0,0,0-.61-3.34,2.19,2.19,0,0,0-3.76,0,6.91,6.91,0,0,0-.61,3.33,7,7,0,0,0,.61,3.36A2,2,0,0,0,86.2,41.59Z"/></g><g class="cls-5"><path class="cls-6" d="M101.67,42.5V37.07c0-.35,0-.7,0-1.06s-.05-.7-.1-1h1.16l.13,1.56-.15.1a2.49,2.49,0,0,1,.94-1.36,2.62,2.62,0,0,1,1.58-.48,2.46,2.46,0,0,1,1.7.54,2.67,2.67,0,0,1,.78,1.65l-.36-.2a2.52,2.52,0,0,1,1-1.45,2.87,2.87,0,0,1,1.75-.54,2.32,2.32,0,0,1,1.88.74,3.38,3.38,0,0,1,.63,2.24V42.5h-1.22V37.82a2.55,2.55,0,0,0-.37-1.54,1.42,1.42,0,0,0-1.19-.48,1.84,1.84,0,0,0-1.49.64,2.61,2.61,0,0,0-.55,1.76v4.3h-1.21V37.82a2.47,2.47,0,0,0-.39-1.54,1.42,1.42,0,0,0-1.19-.48,1.88,1.88,0,0,0-1.51.64,2.67,2.67,0,0,0-.55,1.76v4.3Z"/><path class="cls-6" d="M114.73,31.76h1.49v1.38h-1.49Zm.13,10.74V35h1.21V42.5Z"/><path class="cls-6" d="M118.42,42.5V37.07c0-.35,0-.7,0-1.06a7.46,7.46,0,0,0-.1-1h1.16l.13,1.56-.15.12a2.54,2.54,0,0,1,1.06-1.39,3,3,0,0,1,1.69-.47c1.81,0,2.71,1,2.71,3V42.5h-1.21V37.82a2.34,2.34,0,0,0-.42-1.54A1.67,1.67,0,0,0,122,35.8a2.24,2.24,0,0,0-1.68.64,2.38,2.38,0,0,0-.63,1.74V42.5Z"/><path class="cls-6" d="M129.87,42.61a2.6,2.6,0,0,1-2-.75,3.17,3.17,0,0,1-.69-2.22V35h1.22v4.65a2.24,2.24,0,0,0,.42,1.5,1.6,1.6,0,0,0,1.28.48,2.13,2.13,0,0,0,1.61-.65,2.39,2.39,0,0,0,.62-1.72V35h1.21V42.5h-1.18V40.87l.18-.09a2.53,2.53,0,0,1-1,1.36A2.93,2.93,0,0,1,129.87,42.61Z"/><path class="cls-6" d="M134.79,35.92V35h4.84v1Zm4.81,5.5v1a4.48,4.48,0,0,1-.5.11,4.43,4.43,0,0,1-.55,0,2.31,2.31,0,0,1-1.67-.6,2.41,2.41,0,0,1-.62-1.8V33l1.21-.43V40a2,2,0,0,0,.18.93,1,1,0,0,0,.47.46,1.78,1.78,0,0,0,.67.13,2.54,2.54,0,0,0,.41,0A2.73,2.73,0,0,0,139.6,41.42Z"/><path class="cls-6" d="M147.28,41.6a3.53,3.53,0,0,1-1.26.74,4.83,4.83,0,0,1-1.59.27,4.09,4.09,0,0,1-2-.47,3.19,3.19,0,0,1-1.31-1.34,5,5,0,0,1,0-4.15,3.37,3.37,0,0,1,1.26-1.38,3.43,3.43,0,0,1,1.85-.49,3.17,3.17,0,0,1,1.72.44A2.88,2.88,0,0,1,147,36.49a4.76,4.76,0,0,1,.38,2v.22h-5.7V37.9h5l-.39.55a3.08,3.08,0,0,0-.52-2,1.9,1.9,0,0,0-1.6-.71,2.08,2.08,0,0,0-1.71.77,3.31,3.31,0,0,0-.63,2.14,3.27,3.27,0,0,0,.66,2.22,2.39,2.39,0,0,0,1.91.75,3.65,3.65,0,0,0,1.27-.22,3.88,3.88,0,0,0,1.16-.66Z"/></g><g class="cls-7"><rect class="cls-6" x="152.05" y="30" width="18.8" height="16" rx="4"/></g><g class="cls-5"><path class="cls-8" d="M161.55,42.62a3.14,3.14,0,0,1-2.78-1.39,7.14,7.14,0,0,1-1-4.07,7.23,7.23,0,0,1,.94-4.07,3.5,3.5,0,0,1,5.58,0,7.21,7.21,0,0,1,.94,4.06,7.2,7.2,0,0,1-.95,4.08A3.14,3.14,0,0,1,161.55,42.62Zm0-1a2,2,0,0,0,1.88-1.08,7,7,0,0,0,.61-3.36,6.9,6.9,0,0,0-.61-3.34,2.19,2.19,0,0,0-3.76,0,6.91,6.91,0,0,0-.61,3.33,7,7,0,0,0,.61,3.36A2,2,0,0,0,161.55,41.59Z"/></g><g class="cls-5"><path class="cls-6" d="M179.57,42.61a4.4,4.4,0,0,1-3-1l.4-.9a4.11,4.11,0,0,0,1.24.68,4.23,4.23,0,0,0,1.42.22,2.37,2.37,0,0,0,1.29-.29,1,1,0,0,0,.45-.85.92.92,0,0,0-.3-.71,2.3,2.3,0,0,0-1-.43l-1.28-.3a2.78,2.78,0,0,1-1.46-.75,1.78,1.78,0,0,1-.52-1.29,1.93,1.93,0,0,1,.36-1.16,2.37,2.37,0,0,1,1-.79,3.73,3.73,0,0,1,1.53-.28,4.46,4.46,0,0,1,1.5.25,3.25,3.25,0,0,1,1.18.74l-.41.88a3.87,3.87,0,0,0-1.1-.67,3.28,3.28,0,0,0-1.17-.21,2.17,2.17,0,0,0-1.26.31,1,1,0,0,0-.44.86,1,1,0,0,0,.28.73,1.89,1.89,0,0,0,.89.42l1.28.32a2.92,2.92,0,0,1,1.56.74,1.78,1.78,0,0,1,.51,1.31,1.85,1.85,0,0,1-.8,1.56A3.57,3.57,0,0,1,179.57,42.61Z"/><path class="cls-6" d="M190.64,41.6a3.49,3.49,0,0,1-1.27.74,4.73,4.73,0,0,1-1.58.27,4.16,4.16,0,0,1-2-.47,3.17,3.17,0,0,1-1.3-1.34,4.42,4.42,0,0,1-.46-2.09,4.5,4.5,0,0,1,.45-2.06,3.41,3.41,0,0,1,1.25-1.38,3.47,3.47,0,0,1,1.86-.49,3.19,3.19,0,0,1,1.72.44,2.8,2.8,0,0,1,1.1,1.27,4.6,4.6,0,0,1,.39,2v.22h-5.7V37.9h5l-.4.55a3.14,3.14,0,0,0-.51-2,1.91,1.91,0,0,0-1.6-.71,2.11,2.11,0,0,0-1.72.77,3.36,3.36,0,0,0-.62,2.14,3.32,3.32,0,0,0,.65,2.22,2.41,2.41,0,0,0,1.92.75,3.56,3.56,0,0,0,1.26-.22,3.77,3.77,0,0,0,1.16-.66Z"/><path class="cls-6" d="M195.78,42.61a3.7,3.7,0,0,1-1.92-.48,3.26,3.26,0,0,1-1.25-1.35,4.57,4.57,0,0,1-.44-2.06,4.5,4.5,0,0,1,.45-2.06,3.29,3.29,0,0,1,1.27-1.39,3.72,3.72,0,0,1,2-.49,4.12,4.12,0,0,1,1.48.26,3.11,3.11,0,0,1,1.18.73l-.41.9A4.9,4.9,0,0,0,197,36a3,3,0,0,0-1.11-.21,2.25,2.25,0,0,0-1.8.76,3.16,3.16,0,0,0-.67,2.16,3.12,3.12,0,0,0,.66,2.13,2.28,2.28,0,0,0,1.81.75,2.84,2.84,0,0,0,1.1-.22,4.35,4.35,0,0,0,1.09-.65l.41.9a3.34,3.34,0,0,1-1.21.71A4.29,4.29,0,0,1,195.78,42.61Z"/><path class="cls-6" d="M203.16,42.61a3.6,3.6,0,0,1-1.88-.48A3.27,3.27,0,0,1,200,40.77a5,5,0,0,1,0-4.15,3.21,3.21,0,0,1,1.24-1.36,3.6,3.6,0,0,1,1.88-.48,3.64,3.64,0,0,1,1.89.48,3.21,3.21,0,0,1,1.24,1.36,5.11,5.11,0,0,1,0,4.15,3.27,3.27,0,0,1-1.24,1.36A3.64,3.64,0,0,1,203.16,42.61Zm0-1a2.11,2.11,0,0,0,1.72-.74,3.34,3.34,0,0,0,.61-2.17,3.29,3.29,0,0,0-.62-2.14,2.32,2.32,0,0,0-3.42,0,3.23,3.23,0,0,0-.63,2.14,3.4,3.4,0,0,0,.61,2.17A2.13,2.13,0,0,0,203.16,41.6Z"/><path class="cls-6" d="M208.62,42.5V37.07c0-.35,0-.7,0-1.06a9.32,9.32,0,0,0-.1-1h1.16l.13,1.56-.15.12a2.58,2.58,0,0,1,1.05-1.39,3,3,0,0,1,1.7-.47c1.81,0,2.71,1,2.71,3V42.5h-1.21V37.82a2.34,2.34,0,0,0-.42-1.54,1.67,1.67,0,0,0-1.32-.48,2.24,2.24,0,0,0-1.68.64,2.38,2.38,0,0,0-.63,1.74V42.5Z"/><path class="cls-6" d="M224,42.5h-1.2v-2l.18.16a2.52,2.52,0,0,1-1,1.46,3,3,0,0,1-1.76.51,3.16,3.16,0,0,1-1.74-.49,3.26,3.26,0,0,1-1.18-1.38,4.86,4.86,0,0,1-.42-2.08,4.81,4.81,0,0,1,.41-2,3.1,3.1,0,0,1,2.93-1.83,3,3,0,0,1,1.76.51,2.56,2.56,0,0,1,1,1.45l-.19.15V31.46H224Zm-3.51-.9a2.07,2.07,0,0,0,1.71-.76,3.38,3.38,0,0,0,.6-2.15,3.38,3.38,0,0,0-.6-2.14,2.06,2.06,0,0,0-1.71-.75,2.13,2.13,0,0,0-1.73.75,3.24,3.24,0,0,0-.62,2.11,3.42,3.42,0,0,0,.62,2.17A2.12,2.12,0,0,0,220.53,41.6Z"/></g><g class="cls-7"><rect class="cls-6" x="229.13" y="30" width="18.8" height="16" rx="4"/></g><g class="cls-5"><path class="cls-8" d="M238.63,42.62a3.15,3.15,0,0,1-2.78-1.39,7.22,7.22,0,0,1-.95-4.07,7.23,7.23,0,0,1,.94-4.07,3.5,3.5,0,0,1,5.58,0,7.21,7.21,0,0,1,1,4.06,7.28,7.28,0,0,1-1,4.08A3.17,3.17,0,0,1,238.63,42.62Zm0-1a2,2,0,0,0,1.89-1.08,7.19,7.19,0,0,0,.6-3.36,7,7,0,0,0-.6-3.34,2.2,2.2,0,0,0-3.77,0,7,7,0,0,0-.61,3.33,7.17,7.17,0,0,0,.61,3.36A2,2,0,0,0,238.63,41.59Z"/></g></g></g></svg>