<svg xmlns="http://www.w3.org/2000/svg" viewBox="0 0 595.28 84.9"><defs><style>.cls-1{fill:none;}.cls-2{fill:#b1d5be;}.cls-3{isolation:isolate;}.cls-4{fill:#010101;}.cls-5{fill:#3d865a;}.cls-6{fill:#49a670;}.cls-7{fill:#81c29b;}.cls-8{fill:#fff;}.cls-9{opacity:0.6;}</style></defs><g id="Layer_2" data-name="Layer 2"><g id="Layer_1-2" data-name="Layer 1"><rect class="cls-1" width="595.28" height="18"/><rect class="cls-2" x="128.42" y="31.69" width="35.43" height="53.21" rx="5.67"/><g class="cls-3"><path class="cls-4" d="M134.74,44.56v-1h6v1ZM137.1,44V34.6l.7.36-2.89,1.85V35.62l2.73-1.74h.7V44Z"/><path class="cls-4" d="M134.07,62.56v-.93l3.73-4.14A7.53,7.53,0,0,0,138.9,56a2.94,2.94,0,0,0,.34-1.35,1.77,1.77,0,0,0-.51-1.36,2.07,2.07,0,0,0-1.45-.47,3.91,3.91,0,0,0-1.53.31,5.79,5.79,0,0,0-1.5.92l-.47-1a4.63,4.63,0,0,1,1.59-1,5.5,5.5,0,0,1,1.94-.36,3.93,3.93,0,0,1,1.68.34,2.57,2.57,0,0,1,1.11,1,2.79,2.79,0,0,1,.39,1.5,3.9,3.9,0,0,1-.42,1.76,8.12,8.12,0,0,1-1.37,1.9l-3.6,3.9-.09-.6h5.93v1Z"/><path class="cls-4" d="M137.22,80.67a5.79,5.79,0,0,1-2-.35,4.47,4.47,0,0,1-1.61-1l.48-.95a5.52,5.52,0,0,0,1.48.93,4.38,4.38,0,0,0,1.61.3,2.59,2.59,0,0,0,1.73-.51,1.89,1.89,0,0,0,.59-1.5,1.75,1.75,0,0,0-.61-1.47,2.92,2.92,0,0,0-1.85-.49h-1.23v-1h1a2.78,2.78,0,0,0,1.82-.52,1.84,1.84,0,0,0,.63-1.5,1.73,1.73,0,0,0-.52-1.34,2.11,2.11,0,0,0-1.46-.46,4,4,0,0,0-1.55.31,5.54,5.54,0,0,0-1.48.92l-.47-1a4.51,4.51,0,0,1,1.59-1,5.43,5.43,0,0,1,1.95-.36,4,4,0,0,1,1.68.34,2.51,2.51,0,0,1,1.1,1,2.68,2.68,0,0,1,.39,1.46A2.8,2.8,0,0,1,140,74.2a2.63,2.63,0,0,1-1.42,1l0-.15a2.79,2.79,0,0,1,1.65.91,2.68,2.68,0,0,1,.57,1.76,2.75,2.75,0,0,1-.95,2.2A3.85,3.85,0,0,1,137.22,80.67Z"/></g><polygon class="cls-4" points="154.71 44.38 159.68 35.75 149.73 35.75 154.71 44.38"/><path class="cls-5" d="M1,9A8,8,0,0,1,9,1h7l6,4h3l6-4H169.68V26H30.5l-6,4h-3l-6-4H9a8,8,0,0,1-8-8Z"/><path class="cls-6" d="M0,8A8,8,0,0,1,8,0h7l6,4h3l6-4H168.68V25H29.5l-6,4h-3l-6-4H8a8,8,0,0,1-8-8Z"/><path class="cls-7" d="M2.34,22.66A8,8,0,0,1,0,17V8H1v9A7,7,0,0,0,3.05,22ZM1,7.53,0,7.47A8,8,0,0,1,8,0h7.17l6,4h2.7l6-4H168.18V1h-138l-6,4h-3.3l-6-4H8A7,7,0,0,0,1,7.53Z"/><g class="cls-3"><path class="cls-8" d="M17.82,17.5h-1.2v-2l.18.16a2.54,2.54,0,0,1-1,1.46,3,3,0,0,1-1.75.51,3.17,3.17,0,0,1-1.75-.49,3.26,3.26,0,0,1-1.18-1.38,4.86,4.86,0,0,1-.42-2.08,4.81,4.81,0,0,1,.41-2.05,3.22,3.22,0,0,1,1.17-1.35,3.26,3.26,0,0,1,1.77-.48,3,3,0,0,1,1.75.51,2.58,2.58,0,0,1,1,1.45l-.2.15V6.46h1.22Zm-3.51-.9a2.06,2.06,0,0,0,1.7-.76,3.38,3.38,0,0,0,.61-2.15,3.38,3.38,0,0,0-.6-2.14,2.08,2.08,0,0,0-1.71-.75,2.15,2.15,0,0,0-1.74.75A3.24,3.24,0,0,0,12,13.66a3.42,3.42,0,0,0,.62,2.17A2.13,2.13,0,0,0,14.31,16.6Z"/><path class="cls-8" d="M20.05,6.76h1.49V8.14H20.05Zm.12,10.74V10h1.21V17.5Z"/><path class="cls-8" d="M26.29,17.61a4.38,4.38,0,0,1-3-1l.4-.9a4.11,4.11,0,0,0,1.24.68,4.23,4.23,0,0,0,1.42.22,2.39,2.39,0,0,0,1.29-.29,1,1,0,0,0,.44-.85.91.91,0,0,0-.29-.71,2.41,2.41,0,0,0-1-.43l-1.27-.3a2.78,2.78,0,0,1-1.46-.75A1.78,1.78,0,0,1,23.53,12a1.93,1.93,0,0,1,.36-1.16,2.31,2.31,0,0,1,1-.79,3.68,3.68,0,0,1,1.52-.28,4.37,4.37,0,0,1,1.5.25,3.21,3.21,0,0,1,1.19.74l-.41.88A4,4,0,0,0,27.6,11a3.29,3.29,0,0,0-1.18-.21,2.14,2.14,0,0,0-1.25.31,1,1,0,0,0-.44.86,1,1,0,0,0,.28.73,1.89,1.89,0,0,0,.89.42l1.27.32a3,3,0,0,1,1.57.74,1.77,1.77,0,0,1,.5,1.31A1.84,1.84,0,0,1,28.45,17,3.57,3.57,0,0,1,26.29,17.61Z"/><path class="cls-8" d="M31.18,20.74V12.07c0-.35,0-.7,0-1.06s-.05-.7-.1-1h1.15l.14,1.56-.12.22a2.5,2.5,0,0,1,1-1.45,2.93,2.93,0,0,1,1.74-.51,3.09,3.09,0,0,1,1.75.49,3.35,3.35,0,0,1,1.19,1.38,4.78,4.78,0,0,1,.42,2.07,4.7,4.7,0,0,1-.42,2.06,3.13,3.13,0,0,1-2.94,1.83,2.93,2.93,0,0,1-1.74-.51,2.52,2.52,0,0,1-1-1.46l.16-.15v5.25Zm3.54-4.14a2.09,2.09,0,0,0,1.71-.75,3.28,3.28,0,0,0,.62-2.13,3.36,3.36,0,0,0-.62-2.15,2,2,0,0,0-1.71-.77,2.09,2.09,0,0,0-1.73.75,3.35,3.35,0,0,0-.6,2.14,3.38,3.38,0,0,0,.6,2.15A2.07,2.07,0,0,0,34.72,16.6Z"/><path class="cls-8" d="M40.18,17.5v-11h1.21v11Z"/><path class="cls-8" d="M46.64,17.61a3.23,3.23,0,0,1-1.76-.48,3.11,3.11,0,0,1-1.17-1.35,4.85,4.85,0,0,1-.41-2.06,4.78,4.78,0,0,1,.42-2.07,3.26,3.26,0,0,1,1.18-1.38,3.08,3.08,0,0,1,1.74-.49,3,3,0,0,1,1.76.51,2.5,2.5,0,0,1,1,1.45l-.18.12V10h1.2V17.5h-1.2V15.55l.18.09a2.52,2.52,0,0,1-1,1.46A3,3,0,0,1,46.64,17.61Zm.24-1a2,2,0,0,0,1.71-.76,3.38,3.38,0,0,0,.6-2.15,3.35,3.35,0,0,0-.6-2.14,2.33,2.33,0,0,0-3.44,0,3.36,3.36,0,0,0-.62,2.15,3.28,3.28,0,0,0,.62,2.13A2.13,2.13,0,0,0,46.88,16.6Z"/><path class="cls-8" d="M55.15,17.89,51.76,10H53l2.73,6.66Zm-2.76,3L52.13,20a7,7,0,0,0,1.17-.38,2.56,2.56,0,0,0,.79-.56,3,3,0,0,0,.56-.92L55.13,17l.27-.37L58.16,10h1.22l-3.53,8.23a5.15,5.15,0,0,1-.91,1.46,3.44,3.44,0,0,1-1.15.84A5.87,5.87,0,0,1,52.39,20.91Z"/><path class="cls-8" d="M63.56,10.92V10h4.85v1Zm4.82,5.5v1a5,5,0,0,1-.5.11,4.58,4.58,0,0,1-.55,0,2.29,2.29,0,0,1-1.67-.6,2.37,2.37,0,0,1-.63-1.8V8l1.22-.43V15a2.11,2.11,0,0,0,.17.93,1,1,0,0,0,.47.46,1.83,1.83,0,0,0,.68.13,2.41,2.41,0,0,0,.4,0A2.83,2.83,0,0,0,68.38,16.42Z"/><path class="cls-8" d="M69.76,6.76h1.48V8.14H69.76Zm.12,10.74V10h1.21V17.5Z"/><path class="cls-8" d="M73.45,17.5V12.07c0-.35,0-.7,0-1.06s-.05-.7-.1-1h1.15l.14,1.56-.15.1a2.49,2.49,0,0,1,.94-1.36A2.62,2.62,0,0,1,77,9.78a2.46,2.46,0,0,1,1.7.54A2.62,2.62,0,0,1,79.46,12l-.36-.2a2.58,2.58,0,0,1,1-1.45,2.87,2.87,0,0,1,1.75-.54,2.29,2.29,0,0,1,1.87.74,3.38,3.38,0,0,1,.63,2.24V17.5H83.11V12.82a2.54,2.54,0,0,0-.38-1.54,1.4,1.4,0,0,0-1.18-.48,1.84,1.84,0,0,0-1.49.64,2.61,2.61,0,0,0-.55,1.76v4.3H78.29V12.82a2.48,2.48,0,0,0-.38-1.54,1.42,1.42,0,0,0-1.19-.48,1.88,1.88,0,0,0-1.51.64,2.67,2.67,0,0,0-.55,1.76v4.3Z"/><path class="cls-8" d="M92.81,16.6a3.53,3.53,0,0,1-1.26.74,4.83,4.83,0,0,1-1.59.27,4.09,4.09,0,0,1-2-.47,3.19,3.19,0,0,1-1.31-1.34,4.54,4.54,0,0,1-.46-2.09,4.5,4.5,0,0,1,.45-2.06,3.37,3.37,0,0,1,1.26-1.38,3.43,3.43,0,0,1,1.85-.49,3.17,3.17,0,0,1,1.72.44,2.88,2.88,0,0,1,1.11,1.27,4.76,4.76,0,0,1,.38,2v.22h-5.7V12.9h5l-.39.55a3.08,3.08,0,0,0-.52-2,1.9,1.9,0,0,0-1.6-.71,2.08,2.08,0,0,0-1.71.77,3.31,3.31,0,0,0-.63,2.14,3.27,3.27,0,0,0,.66,2.22A2.39,2.39,0,0,0,90,16.6a3.65,3.65,0,0,0,1.27-.22,3.88,3.88,0,0,0,1.16-.66Z"/></g><g class="cls-3"><path class="cls-8" d="M101.05,17.5v-11h1.22v11Z"/><path class="cls-8" d="M104.5,6.76H106V8.14H104.5Zm.12,10.74V10h1.22V17.5Z"/><path class="cls-8" d="M108.19,17.5V12.07c0-.35,0-.7,0-1.06a9.32,9.32,0,0,0-.1-1h1.16l.13,1.56-.15.12a2.58,2.58,0,0,1,1.05-1.39,3,3,0,0,1,1.7-.47c1.81,0,2.71,1,2.71,3V17.5h-1.21V12.82a2.34,2.34,0,0,0-.42-1.54,1.67,1.67,0,0,0-1.32-.48,2.24,2.24,0,0,0-1.68.64,2.38,2.38,0,0,0-.63,1.74V17.5Z"/><path class="cls-8" d="M123.15,16.6a3.49,3.49,0,0,1-1.27.74,4.73,4.73,0,0,1-1.58.27,4.16,4.16,0,0,1-2-.47A3.17,3.17,0,0,1,117,15.8a4.42,4.42,0,0,1-.46-2.09,4.5,4.5,0,0,1,.45-2.06,3.41,3.41,0,0,1,1.25-1.38,3.46,3.46,0,0,1,1.85-.49,3.2,3.2,0,0,1,1.73.44,2.8,2.8,0,0,1,1.1,1.27,4.6,4.6,0,0,1,.38,2v.22h-5.7V12.9h5l-.39.55a3.14,3.14,0,0,0-.51-2,1.91,1.91,0,0,0-1.6-.71,2.11,2.11,0,0,0-1.72.77,3.36,3.36,0,0,0-.62,2.14,3.32,3.32,0,0,0,.65,2.22,2.4,2.4,0,0,0,1.91.75,3.61,3.61,0,0,0,1.27-.22,3.77,3.77,0,0,0,1.16-.66Z"/></g><g class="cls-9"><rect class="cls-8" x="128.42" y="5" width="35.27" height="16" rx="4"/></g><g class="cls-3"><path class="cls-4" d="M135.34,17.5v-1h5.95v1Zm2.35-.55V7.54l.71.36-2.9,1.85V8.56l2.73-1.74h.71V17Z"/></g><polygon class="cls-4" points="154.71 17.31 159.68 8.69 149.73 8.69 154.71 17.31"/></g></g></svg>