<svg xmlns="http://www.w3.org/2000/svg" viewBox="0 0 595.28 55"><defs><style>.cls-1,.cls-4{fill:none;}.cls-2{fill:#3d865a;}.cls-3{fill:#49a670;}.cls-4{stroke:#81c29b;}.cls-5,.cls-9{isolation:isolate;}.cls-5{font-size:15px;font-family:Mulish-Regular, Mulish;}.cls-5,.cls-8{fill:#fff;}.cls-6{letter-spacing:0em;}.cls-7{opacity:0.6;}.cls-10{fill:#010101;}.cls-11{letter-spacing:-0.01em;}</style></defs><g id="Layer_2" data-name="Layer 2"><g id="Layer_1-2" data-name="Layer 1"><rect class="cls-1" width="595.28" height="18"/><path class="cls-2" d="M1,9A8,8,0,0,1,9,1h7l6,4h3l6-4H253.93V51H30.5l-6,4h-3l-6-4H9a8,8,0,0,1-8-8Z"/><path class="cls-3" d="M0,8A8,8,0,0,1,8,0h7l6,4h3l6-4H252.93V50H29.5l-6,4h-3l-6-4H8a8,8,0,0,1-8-8Z"/><path class="cls-4" d="M.5,7.5A7.5,7.5,0,0,1,8,.5h7l6,4h3l6-4H252.43M2.7,47.3A7.47,7.47,0,0,1,.5,42V8"/><text class="cls-5" transform="translate(10 17.5)">s<tspan class="cls-6" x="7.44" y="0">e</tspan><tspan x="15.55" y="0">t date</tspan></text><g class="cls-7"><rect class="cls-8" x="71.75" y="5" width="18.8" height="16" rx="4"/></g><g class="cls-9"><path class="cls-10" d="M78.67,17.5v-1h6v1ZM81,17V7.54l.7.36L78.84,9.75V8.56l2.73-1.74h.7V17Z"/></g><text class="cls-5" transform="translate(95.55 17.5)">month</text><g class="cls-7"><rect class="cls-8" x="144.13" y="5" width="18.8" height="16" rx="4"/></g><g class="cls-9"><path class="cls-10" d="M151.05,17.5v-1h6v1Zm2.36-.55V7.54l.7.36-2.89,1.85V8.56L154,6.82h.7V17Z"/></g><text class="cls-5" transform="translate(167.93 17.5)"><tspan class="cls-11">y</tspan><tspan x="7.88" y="0">ear</tspan></text><g class="cls-7"><rect class="cls-8" x="202.73" y="5" width="45.2" height="16" rx="4"/></g><g class="cls-9"><path class="cls-10" d="M209,17.5v-.93l3.73-4.14a7.53,7.53,0,0,0,1.1-1.51,2.94,2.94,0,0,0,.34-1.35,1.76,1.76,0,0,0-.51-1.36,2,2,0,0,0-1.45-.47,4.09,4.09,0,0,0-1.53.3,6.13,6.13,0,0,0-1.5.93l-.47-1a4.63,4.63,0,0,1,1.59-1,5.5,5.5,0,0,1,1.94-.36,3.86,3.86,0,0,1,1.69.34A2.54,2.54,0,0,1,215,8a2.79,2.79,0,0,1,.39,1.5,4.05,4.05,0,0,1-.41,1.76,8.74,8.74,0,0,1-1.38,1.9l-3.6,3.9-.09-.6h5.93v1Z"/><path class="cls-10" d="M221.23,17.62a3.15,3.15,0,0,1-2.78-1.39,7.22,7.22,0,0,1-.95-4.07,7.23,7.23,0,0,1,.94-4.07,3.5,3.5,0,0,1,5.58,0,7.19,7.19,0,0,1,.95,4.05,7.29,7.29,0,0,1-.95,4.09A3.17,3.17,0,0,1,221.23,17.62Zm0-1a2,2,0,0,0,1.89-1.08,7.21,7.21,0,0,0,.6-3.37,7,7,0,0,0-.6-3.33,2.2,2.2,0,0,0-3.77,0,7,7,0,0,0-.61,3.32,7.19,7.19,0,0,0,.61,3.37A2,2,0,0,0,221.23,16.59Z"/><path class="cls-10" d="M227.65,17.5v-1h6v1ZM230,17V7.54l.7.36-2.89,1.85V8.56l2.73-1.74h.7V17Z"/><path class="cls-10" d="M236.65,17.5v-1h6v1ZM239,17V7.54l.7.36-2.89,1.85V8.56l2.73-1.74h.7V17Z"/></g><text class="cls-5" transform="translate(40.95 42.5)">hour</text><g class="cls-7"><rect class="cls-8" x="76.7" y="30" width="18.8" height="16" rx="4"/></g><g class="cls-9"><path class="cls-10" d="M86.2,42.62a3.14,3.14,0,0,1-2.78-1.39,7.14,7.14,0,0,1-1-4.07,7.23,7.23,0,0,1,.94-4.07,3.5,3.5,0,0,1,5.58,0,7.19,7.19,0,0,1,1,4,7.21,7.21,0,0,1-1,4.09A3.14,3.14,0,0,1,86.2,42.62Zm0-1a2,2,0,0,0,1.88-1.08,7.07,7.07,0,0,0,.61-3.37,6.89,6.89,0,0,0-.61-3.33,2.19,2.19,0,0,0-3.76,0,6.89,6.89,0,0,0-.61,3.32,7.07,7.07,0,0,0,.61,3.37A2,2,0,0,0,86.2,41.59Z"/></g><text class="cls-5" transform="translate(100.5 42.5)">minute</text><g class="cls-7"><rect class="cls-8" x="152.05" y="30" width="18.8" height="16" rx="4"/></g><g class="cls-9"><path class="cls-10" d="M161.55,42.62a3.14,3.14,0,0,1-2.78-1.39,7.14,7.14,0,0,1-1-4.07,7.23,7.23,0,0,1,.94-4.07,3.5,3.5,0,0,1,5.58,0,7.2,7.2,0,0,1,.94,4,7.21,7.21,0,0,1-.95,4.09A3.14,3.14,0,0,1,161.55,42.62Zm0-1a2,2,0,0,0,1.88-1.08,7.07,7.07,0,0,0,.61-3.37,6.89,6.89,0,0,0-.61-3.33,2.19,2.19,0,0,0-3.76,0,6.89,6.89,0,0,0-.61,3.32,7.07,7.07,0,0,0,.61,3.37A2,2,0,0,0,161.55,41.59Z"/></g><text class="cls-5" transform="translate(175.85 42.5)">second</text><g class="cls-7"><rect class="cls-8" x="229.13" y="30" width="18.8" height="16" rx="4"/></g><g class="cls-9"><path class="cls-10" d="M238.63,42.62a3.15,3.15,0,0,1-2.78-1.39,7.22,7.22,0,0,1-.95-4.07,7.23,7.23,0,0,1,.94-4.07,3.5,3.5,0,0,1,5.58,0,7.19,7.19,0,0,1,1,4,7.29,7.29,0,0,1-1,4.09A3.17,3.17,0,0,1,238.63,42.62Zm0-1a2,2,0,0,0,1.89-1.08,7.21,7.21,0,0,0,.6-3.37,7,7,0,0,0-.6-3.33,2.2,2.2,0,0,0-3.77,0,7,7,0,0,0-.61,3.32,7.19,7.19,0,0,0,.61,3.37A2,2,0,0,0,238.63,41.59Z"/></g></g></g></svg>