<svg xmlns="http://www.w3.org/2000/svg" viewBox="0 0 595.28 60.69"><defs><style>.cls-1{fill:#84a550;}.cls-2{fill:#ededee;}.cls-3{fill:#231f20;}.cls-4{fill:#5d6771;}.cls-5{fill:#a4a9ad;}.cls-6{fill:#343f49;}.cls-7{fill:#62883b;}</style></defs><g id="Layer_2" data-name="Layer 2"><g id="Layer_1-2" data-name="Layer 1"><rect class="cls-1" y="4" width="595.28" height="56.69" rx="11.34"/><rect class="cls-2" width="595.28" height="56.69" rx="11.34"/><path class="cls-3" d="M95.81,39.13q-5.28,0-8-2.7t-2.71-8V13.21h4.53V28.72a7.19,7.19,0,0,0,1.57,5,5.94,5.94,0,0,0,4.62,1.71,5.79,5.79,0,0,0,4.52-1.73,7.18,7.18,0,0,0,1.57-5V13.21h4.61V28.47q0,5.22-2.76,7.94T95.81,39.13Z"/><path class="cls-3" d="M120.55,39.13a20.92,20.92,0,0,1-3.78-.34,15.56,15.56,0,0,1-3.37-1,11.83,11.83,0,0,1-2.75-1.66l1.54-3.38a13.79,13.79,0,0,0,4,2.09,14.5,14.5,0,0,0,4.43.65,7.64,7.64,0,0,0,4.12-.94,2.94,2.94,0,0,0,1.46-2.63,2.26,2.26,0,0,0-.65-1.67,5.13,5.13,0,0,0-1.94-1.14,28.08,28.08,0,0,0-3.2-.9,24.76,24.76,0,0,1-4-1.06,11.4,11.4,0,0,1-2.88-1.49,5.85,5.85,0,0,1-1.75-2.07,6.52,6.52,0,0,1-.59-2.86,7,7,0,0,1,1.22-4,8.18,8.18,0,0,1,3.44-2.75,12.66,12.66,0,0,1,5.2-1,17,17,0,0,1,3.51.36,14.37,14.37,0,0,1,3.15,1,9.58,9.58,0,0,1,2.49,1.63l-1.59,3.39a12,12,0,0,0-3.6-2.07,11.41,11.41,0,0,0-3.92-.67,6.71,6.71,0,0,0-3.92,1,3.21,3.21,0,0,0-1.44,2.81,2.54,2.54,0,0,0,.59,1.73,4.55,4.55,0,0,0,1.84,1.15,27.47,27.47,0,0,0,3.18.93,34.57,34.57,0,0,1,4,1.08,12.84,12.84,0,0,1,3,1.46,5.45,5.45,0,0,1,2.48,4.81,6.69,6.69,0,0,1-1.22,4A7.74,7.74,0,0,1,126,38.21,14.62,14.62,0,0,1,120.55,39.13Z"/><path class="cls-3" d="M135.09,38.84V13.21h11.27A10,10,0,0,1,152.57,15a5.88,5.88,0,0,1,2.28,4.93,5.87,5.87,0,0,1-1.19,3.71,6.19,6.19,0,0,1-3.34,2.16v-.29a6.58,6.58,0,0,1,3.83,2.2,6.4,6.4,0,0,1,1.35,4.18A6.2,6.2,0,0,1,153.18,37a10.22,10.22,0,0,1-6.5,1.85ZM139.62,24h5.95a6.08,6.08,0,0,0,3.67-.9,3.18,3.18,0,0,0,1.19-2.7,3.11,3.11,0,0,0-1.19-2.7,6.24,6.24,0,0,0-3.67-.87h-5.95Zm0,11.19h6.59a6.23,6.23,0,0,0,3.73-.88,3.35,3.35,0,0,0,1.17-2.86,3.45,3.45,0,0,0-1.19-2.88,6,6,0,0,0-3.71-.94h-6.59Z"/><rect class="cls-4" x="56.38" y="10.32" width="5.53" height="8.82"/><rect class="cls-5" x="56.38" y="8.7" width="5.53" height="8.82"/><rect class="cls-6" x="57.96" y="14.26" width="2.76" height="1.48"/><rect class="cls-6" x="57.96" y="10.49" width="2.76" height="1.48"/><rect class="cls-1" x="46.67" y="7.09" width="9.71" height="12.06"/><rect class="cls-7" x="46.67" y="19.15" width="9.71" height="2.49"/><rect class="cls-4" x="22.94" y="38.29" width="5.53" height="8.82"/><rect class="cls-5" x="22.94" y="36.67" width="5.53" height="8.82"/><rect class="cls-6" x="24.13" y="42.23" width="2.76" height="1.48"/><rect class="cls-6" x="24.13" y="38.46" width="2.76" height="1.48"/><rect class="cls-1" x="28.47" y="35.05" width="9.71" height="12.06"/><rect class="cls-7" x="28.47" y="47.12" width="9.71" height="2.49"/><path class="cls-4" d="M54.87,43.6H38.18V41.26H54.87a5.88,5.88,0,0,0,0-11.75H30A8.21,8.21,0,1,1,30,13.1H46.67v2.33H30a5.88,5.88,0,0,0,0,11.75H54.87a8.21,8.21,0,0,1,0,16.42Z"/></g></g></svg>