<svg xmlns="http://www.w3.org/2000/svg" viewBox="0 0 595.39 88.19"><defs><style>.cls-1{fill:none;}.cls-2{fill:#873d61;}.cls-3{fill:#a74c78;}.cls-4{fill:#c281a1;}.cls-5{opacity:0.6;}.cls-6{fill:#fff;}.cls-7{isolation:isolate;}.cls-8{fill:#010101;}.cls-9{fill:#e2e2e2;}.cls-10{fill:#b7b7b7;}</style></defs><g id="Layer_2" data-name="Layer 2"><g id="Layer_1-2" data-name="Layer 1"><rect class="cls-1" x="0.12" width="595.28" height="18"/><path class="cls-2" d="M9.12,1h66V26h-66V21c0-10-8,8-8-7.5s8,2.5,8-7.5Z"/><path class="cls-3" d="M8.12,0h66V25h-66V20c0-10-8,8-8-7.5s8,2.5,8-7.5Z"/><path class="cls-4" d="M9.12,24.5h-1v-6h1ZM.77,18.13a20.9,20.9,0,0,1,0-11.26l1,.26a19.79,19.79,0,0,0,0,10.74ZM9.12,8h-1V0H73.58V1H9.12Z"/><g class="cls-5"><rect class="cls-6" x="13.12" y="5" width="55.97" height="16" rx="4"/></g><g class="cls-7"><path class="cls-8" d="M19.17,6.76h1.48V8.14H19.17Zm.12,10.74V10H20.5V17.5Z"/><path class="cls-8" d="M21.79,10.92V10h4.85v1Zm4.82,5.5v1a4.64,4.64,0,0,1-.51.11,4.26,4.26,0,0,1-.54,0,2.33,2.33,0,0,1-1.68-.6,2.41,2.41,0,0,1-.62-1.8V8l1.22-.43V15a2,2,0,0,0,.17.93,1,1,0,0,0,.47.46,1.83,1.83,0,0,0,.68.13,2.41,2.41,0,0,0,.4,0A2.83,2.83,0,0,0,26.61,16.42Z"/><path class="cls-8" d="M34.29,16.6a3.58,3.58,0,0,1-1.27.74,4.77,4.77,0,0,1-1.58.27,4.13,4.13,0,0,1-2-.47,3.19,3.19,0,0,1-1.31-1.34,4.54,4.54,0,0,1-.45-2.09,4.5,4.5,0,0,1,.45-2.06,3.34,3.34,0,0,1,1.25-1.38,3.43,3.43,0,0,1,1.85-.49,3.2,3.2,0,0,1,1.73.44A2.86,2.86,0,0,1,34,11.49a4.76,4.76,0,0,1,.38,2v.22h-5.7V12.9h5l-.39.55a3.08,3.08,0,0,0-.52-2,1.88,1.88,0,0,0-1.59-.71,2.1,2.1,0,0,0-1.72.77,3.31,3.31,0,0,0-.62,2.14,3.27,3.27,0,0,0,.65,2.22,2.39,2.39,0,0,0,1.91.75,3.65,3.65,0,0,0,1.27-.22,3.88,3.88,0,0,0,1.16-.66Z"/><path class="cls-8" d="M36.27,17.5V12.07c0-.35,0-.7,0-1.06a9.3,9.3,0,0,0-.09-1H37.3l.14,1.56-.15.1a2.53,2.53,0,0,1,.93-1.36,2.67,2.67,0,0,1,1.59-.48,2.48,2.48,0,0,1,1.7.54A2.67,2.67,0,0,1,42.28,12l-.36-.2a2.53,2.53,0,0,1,1-1.45,2.85,2.85,0,0,1,1.75-.54,2.29,2.29,0,0,1,1.87.74,3.38,3.38,0,0,1,.63,2.24V17.5H45.93V12.82a2.54,2.54,0,0,0-.38-1.54,1.4,1.4,0,0,0-1.18-.48,1.87,1.87,0,0,0-1.5.64,2.66,2.66,0,0,0-.54,1.76v4.3H41.11V12.82a2.54,2.54,0,0,0-.38-1.54,1.43,1.43,0,0,0-1.19-.48,1.87,1.87,0,0,0-1.51.64,2.61,2.61,0,0,0-.55,1.76v4.3Z"/></g><polygon class="cls-8" points="57.1 17.31 62.08 8.69 52.13 8.69 57.1 17.31"/><rect class="cls-9" x="13.12" y="31.69" width="139.65" height="56" rx="5.67"/><path class="cls-10" d="M147.1,88.19H18.79A6.17,6.17,0,0,1,12.62,82V37.36a6.17,6.17,0,0,1,6.17-6.17H147.1a6.18,6.18,0,0,1,6.17,6.17V82A6.18,6.18,0,0,1,147.1,88.19Zm-128.31-56a5.18,5.18,0,0,0-5.17,5.17V82a5.18,5.18,0,0,0,5.17,5.17H147.1A5.18,5.18,0,0,0,152.27,82V37.36a5.18,5.18,0,0,0-5.17-5.17Z"/><g class="cls-7"><path class="cls-8" d="M19.17,35.32h1.48V36.7H19.17Zm.12,10.74V38.52H20.5v7.54Z"/><path class="cls-8" d="M21.79,39.48v-1h4.85v1ZM26.61,45v1a3.1,3.1,0,0,1-.51.11,3,3,0,0,1-.54,0,2.33,2.33,0,0,1-1.68-.6,2.41,2.41,0,0,1-.62-1.8V36.58l1.22-.43V43.6a2,2,0,0,0,.17.93.91.91,0,0,0,.47.46,1.65,1.65,0,0,0,.68.13,2.41,2.41,0,0,0,.4,0A2.83,2.83,0,0,0,26.61,45Z"/><path class="cls-8" d="M34.29,45.16A3.58,3.58,0,0,1,33,45.9a4.77,4.77,0,0,1-1.58.27,4.13,4.13,0,0,1-2-.47,3.14,3.14,0,0,1-1.31-1.34,5,5,0,0,1,0-4.15,3.34,3.34,0,0,1,1.25-1.38,3.43,3.43,0,0,1,1.85-.49,3.29,3.29,0,0,1,1.73.44A2.91,2.91,0,0,1,34,40.05a4.76,4.76,0,0,1,.38,2v.22h-5.7v-.79h5l-.39.55a3.08,3.08,0,0,0-.52-2,1.88,1.88,0,0,0-1.59-.71,2.07,2.07,0,0,0-1.72.78,3.26,3.26,0,0,0-.62,2.13,3.27,3.27,0,0,0,.65,2.22,2.39,2.39,0,0,0,1.91.75A3.89,3.89,0,0,0,32.72,45a4.15,4.15,0,0,0,1.16-.67Z"/><path class="cls-8" d="M36.27,46.06V40.63q0-.52,0-1.05a9.28,9.28,0,0,0-.09-1.06H37.3l.14,1.56-.15.1a2.53,2.53,0,0,1,.93-1.36,2.67,2.67,0,0,1,1.59-.48,2.48,2.48,0,0,1,1.7.54,2.67,2.67,0,0,1,.77,1.65l-.36-.2a2.53,2.53,0,0,1,1-1.45,2.85,2.85,0,0,1,1.75-.54,2.33,2.33,0,0,1,1.87.74,3.4,3.4,0,0,1,.63,2.24v4.74H45.93V41.38a2.49,2.49,0,0,0-.38-1.53,1.38,1.38,0,0,0-1.18-.49,1.87,1.87,0,0,0-1.5.64,2.66,2.66,0,0,0-.54,1.76v4.3H41.11V41.38a2.49,2.49,0,0,0-.38-1.53,1.41,1.41,0,0,0-1.19-.49A1.87,1.87,0,0,0,38,40a2.61,2.61,0,0,0-.55,1.76v4.3Z"/><path class="cls-8" d="M19.44,64.06V53.38h4.24a4.06,4.06,0,0,1,2.65.77,2.7,2.7,0,0,1,.92,2.2,2.66,2.66,0,0,1-.94,2.17,3.93,3.93,0,0,1-2.63.79l1.11-.21a1.65,1.65,0,0,1,1,.32,2.23,2.23,0,0,1,.67,1l1.35,3.61h-1.3L25.2,60.51a1.53,1.53,0,0,0-.7-.89,2.64,2.64,0,0,0-1.18-.22H20.65v4.66Zm1.21-5.68h2.93a2.84,2.84,0,0,0,1.85-.51,1.86,1.86,0,0,0,.61-1.5,1.8,1.8,0,0,0-.6-1.48,3,3,0,0,0-1.86-.49H20.65Z"/><path class="cls-8" d="M35.86,63.16a3.49,3.49,0,0,1-1.27.74,4.73,4.73,0,0,1-1.58.27,4.16,4.16,0,0,1-2-.47,3.12,3.12,0,0,1-1.3-1.34,4.39,4.39,0,0,1-.46-2.09,4.5,4.5,0,0,1,.45-2.06,3.41,3.41,0,0,1,1.25-1.38,3.49,3.49,0,0,1,1.86-.49,3.26,3.26,0,0,1,1.72.44,2.85,2.85,0,0,1,1.1,1.27A4.6,4.6,0,0,1,36,60v.22H30.3v-.79h5l-.39.55a3.14,3.14,0,0,0-.52-2,1.91,1.91,0,0,0-1.6-.71,2.09,2.09,0,0,0-1.72.78,4,4,0,0,0,0,4.35,2.42,2.42,0,0,0,1.92.75A3.79,3.79,0,0,0,34.29,63a4.06,4.06,0,0,0,1.17-.67Z"/><path class="cls-8" d="M37.84,64.06V58.63c0-.35,0-.7,0-1.05s0-.71-.1-1.06h1.16L39,58.08l-.15.12a2.61,2.61,0,0,1,1-1.39,3.12,3.12,0,0,1,1.7-.47c1.81,0,2.71,1,2.71,3v4.74H43.11V59.38a2.29,2.29,0,0,0-.42-1.53,1.64,1.64,0,0,0-1.32-.49,2.24,2.24,0,0,0-1.68.64,2.38,2.38,0,0,0-.63,1.74v4.32Z"/><path class="cls-8" d="M49.51,64.17a3.28,3.28,0,0,1-1.76-.47,3.09,3.09,0,0,1-1.17-1.35,5.37,5.37,0,0,1,0-4.14,3.31,3.31,0,0,1,1.17-1.38,3.14,3.14,0,0,1,1.75-.49,3,3,0,0,1,1.76.51,2.5,2.5,0,0,1,1,1.45l-.18.12v-1.9h1.2v7.54h-1.2v-2l.18.09a2.52,2.52,0,0,1-1,1.46A3,3,0,0,1,49.51,64.17Zm.24-1a2.06,2.06,0,0,0,1.71-.75,3.43,3.43,0,0,0,.6-2.16,3.29,3.29,0,0,0-.61-2.14,2.06,2.06,0,0,0-1.7-.75,2.1,2.1,0,0,0-1.73.77,3.32,3.32,0,0,0-.62,2.15A3.22,3.22,0,0,0,48,62.41,2.12,2.12,0,0,0,49.75,63.16Z"/><path class="cls-8" d="M55.62,64.06V58.63q0-.52,0-1.05a9.28,9.28,0,0,0-.09-1.06h1.15l.14,1.56-.15.1a2.53,2.53,0,0,1,.93-1.36,2.67,2.67,0,0,1,1.59-.48,2.48,2.48,0,0,1,1.7.54,2.67,2.67,0,0,1,.77,1.65l-.36-.2a2.53,2.53,0,0,1,1-1.45A2.85,2.85,0,0,1,64,56.34a2.33,2.33,0,0,1,1.87.74,3.4,3.4,0,0,1,.63,2.24v4.74H65.28V59.38a2.49,2.49,0,0,0-.38-1.53,1.38,1.38,0,0,0-1.18-.49,1.87,1.87,0,0,0-1.5.64,2.66,2.66,0,0,0-.54,1.76v4.3H60.46V59.38a2.49,2.49,0,0,0-.38-1.53,1.41,1.41,0,0,0-1.19-.49,1.87,1.87,0,0,0-1.51.64,2.61,2.61,0,0,0-.55,1.76v4.3Z"/><path class="cls-8" d="M75,63.16a3.49,3.49,0,0,1-1.27.74,4.73,4.73,0,0,1-1.58.27,4.16,4.16,0,0,1-2-.47,3.12,3.12,0,0,1-1.3-1.34,4.39,4.39,0,0,1-.46-2.09,4.5,4.5,0,0,1,.45-2.06,3.41,3.41,0,0,1,1.25-1.38,3.49,3.49,0,0,1,1.86-.49,3.26,3.26,0,0,1,1.72.44,2.85,2.85,0,0,1,1.1,1.27,4.6,4.6,0,0,1,.39,2v.22h-5.7v-.79h5L74,60a3.14,3.14,0,0,0-.52-2,1.91,1.91,0,0,0-1.6-.71,2.09,2.09,0,0,0-1.72.78,4,4,0,0,0,0,4.35,2.42,2.42,0,0,0,1.92.75A3.79,3.79,0,0,0,73.41,63a4.06,4.06,0,0,0,1.17-.67Z"/><path class="cls-8" d="M83.1,64.06l-3.21-7.53h1.27l2.73,6.65h-.36l2.76-6.65h1.22l-3.26,7.53Z"/><path class="cls-8" d="M91.65,64.17a3.34,3.34,0,0,1-1.77-.47,3.22,3.22,0,0,1-1.17-1.35,4.93,4.93,0,0,1-.41-2.07,4.78,4.78,0,0,1,.42-2.07,3.26,3.26,0,0,1,1.18-1.38,3.12,3.12,0,0,1,1.75-.49,2.94,2.94,0,0,1,1.75.51,2.51,2.51,0,0,1,1,1.45l-.18.12v-1.9h1.2v7.54H94.2v-2l.18.09a2.54,2.54,0,0,1-1,1.46A2.94,2.94,0,0,1,91.65,64.17Zm.24-1a2.06,2.06,0,0,0,1.71-.75,3.43,3.43,0,0,0,.6-2.16,3.35,3.35,0,0,0-.61-2.14,2.07,2.07,0,0,0-1.7-.75,2.13,2.13,0,0,0-1.74.77,3.38,3.38,0,0,0-.62,2.15,3.28,3.28,0,0,0,.62,2.13A2.15,2.15,0,0,0,91.89,63.16Z"/><path class="cls-8" d="M97.75,64.06V58.63c0-.35,0-.7,0-1.05s0-.71-.1-1.06h1.16L99,58.38l-.16-.05a2.38,2.38,0,0,1,.9-1.49,2.67,2.67,0,0,1,1.57-.5l.37,0,.32.07,0,1.11a2.39,2.39,0,0,0-.79-.12,1.92,1.92,0,0,0-1.95,1.22A3.05,3.05,0,0,0,99,59.76v4.3Z"/><path class="cls-8" d="M103.06,53.32h1.49V54.7h-1.49Zm.12,10.74V56.52h1.22v7.54Z"/><path class="cls-8" d="M109.65,64.17a3.34,3.34,0,0,1-1.77-.47,3.22,3.22,0,0,1-1.17-1.35,4.93,4.93,0,0,1-.41-2.07,4.78,4.78,0,0,1,.42-2.07,3.26,3.26,0,0,1,1.18-1.38,3.12,3.12,0,0,1,1.75-.49,2.94,2.94,0,0,1,1.75.51,2.51,2.51,0,0,1,1,1.45l-.18.12v-1.9h1.2v7.54h-1.2v-2l.18.09a2.54,2.54,0,0,1-1,1.46A2.94,2.94,0,0,1,109.65,64.17Zm.24-1a2.06,2.06,0,0,0,1.71-.75,3.43,3.43,0,0,0,.6-2.16,3.35,3.35,0,0,0-.61-2.14,2.07,2.07,0,0,0-1.7-.75,2.13,2.13,0,0,0-1.74.77,3.38,3.38,0,0,0-.62,2.15,3.28,3.28,0,0,0,.62,2.13A2.15,2.15,0,0,0,109.89,63.16Z"/><path class="cls-8" d="M115.75,64.06V53H117v5.43l-.17-.15a2.52,2.52,0,0,1,1-1.44,2.87,2.87,0,0,1,1.74-.52,3.17,3.17,0,0,1,1.75.48,3.31,3.31,0,0,1,1.18,1.35,4.66,4.66,0,0,1,.43,2,4.83,4.83,0,0,1-.43,2.08,3.23,3.23,0,0,1-1.19,1.38,3.08,3.08,0,0,1-1.74.49,2.93,2.93,0,0,1-1.74-.51,2.54,2.54,0,0,1-1-1.46L117,62v2Zm3.54-.9a2,2,0,0,0,1.71-.77,3.4,3.4,0,0,0,.62-2.17,3.24,3.24,0,0,0-.62-2.11,2.09,2.09,0,0,0-1.71-.75,2,2,0,0,0-1.72.76,3.33,3.33,0,0,0-.6,2.13,3.43,3.43,0,0,0,.6,2.16A2.07,2.07,0,0,0,119.29,63.16Z"/><path class="cls-8" d="M124.75,64.06V53H126v11Z"/><path class="cls-8" d="M134.5,63.16a3.49,3.49,0,0,1-1.27.74,4.73,4.73,0,0,1-1.58.27,4.16,4.16,0,0,1-2-.47,3.12,3.12,0,0,1-1.3-1.34,4.39,4.39,0,0,1-.46-2.09,4.5,4.5,0,0,1,.45-2.06,3.41,3.41,0,0,1,1.25-1.38,3.49,3.49,0,0,1,1.86-.49,3.26,3.26,0,0,1,1.72.44,2.85,2.85,0,0,1,1.1,1.27,4.6,4.6,0,0,1,.39,2v.22h-5.7v-.79h5l-.39.55a3.14,3.14,0,0,0-.52-2,1.91,1.91,0,0,0-1.6-.71,2.09,2.09,0,0,0-1.72.78,4,4,0,0,0,0,4.35,2.42,2.42,0,0,0,1.92.75,3.79,3.79,0,0,0,1.26-.21,4.06,4.06,0,0,0,1.17-.67Z"/><path class="cls-8" d="M136.27,62.52h1.55v1.54h-1.55Z"/><path class="cls-8" d="M139.74,62.52h1.54v1.54h-1.54Z"/><path class="cls-8" d="M143.2,62.52h1.54v1.54H143.2Z"/><path class="cls-8" d="M19.44,82.06V71.38h.94l6.81,9.08-.36.09V71.38H28V82.06H27L20.25,73l.34-.1v9.16Z"/><path class="cls-8" d="M36.66,81.16a3.58,3.58,0,0,1-1.27.74,4.77,4.77,0,0,1-1.58.27,4.13,4.13,0,0,1-2-.47,3.14,3.14,0,0,1-1.31-1.34,5,5,0,0,1,0-4.15,3.34,3.34,0,0,1,1.25-1.38,3.43,3.43,0,0,1,1.85-.49,3.29,3.29,0,0,1,1.73.44,2.91,2.91,0,0,1,1.1,1.27,4.76,4.76,0,0,1,.38,2v.22h-5.7v-.79h5l-.39.55a3.08,3.08,0,0,0-.52-2,1.88,1.88,0,0,0-1.59-.71,2.07,2.07,0,0,0-1.72.78,4,4,0,0,0,0,4.35,2.39,2.39,0,0,0,1.91.75A3.89,3.89,0,0,0,35.09,81a4.15,4.15,0,0,0,1.16-.67Z"/><path class="cls-8" d="M40.57,82.06l-2.79-7.54h1.28l2.32,6.64H41l2.4-6.64h1.07l2.37,6.64h-.39l2.37-6.64H50l-2.79,7.54H46.05l-2.49-6.79h.66l-2.48,6.79Z"/><path class="cls-8" d="M57.72,82.06l-3.21-7.53h1.27l2.73,6.65h-.36l2.76-6.65h1.22l-3.26,7.53Z"/><path class="cls-8" d="M66.27,82.17a3.34,3.34,0,0,1-1.77-.47,3.22,3.22,0,0,1-1.17-1.35,4.93,4.93,0,0,1-.41-2.07,4.78,4.78,0,0,1,.42-2.07,3.26,3.26,0,0,1,1.18-1.38,3.12,3.12,0,0,1,1.75-.49,2.94,2.94,0,0,1,1.75.51,2.51,2.51,0,0,1,1,1.45l-.18.12v-1.9H70v7.54h-1.2v-2l.18.09a2.54,2.54,0,0,1-1,1.46A2.94,2.94,0,0,1,66.27,82.17Zm.24-1a2.06,2.06,0,0,0,1.71-.75,3.43,3.43,0,0,0,.6-2.16,3.35,3.35,0,0,0-.61-2.14,2.07,2.07,0,0,0-1.7-.75,2.13,2.13,0,0,0-1.74.77,3.38,3.38,0,0,0-.62,2.15,3.28,3.28,0,0,0,.62,2.13A2.15,2.15,0,0,0,66.51,81.16Z"/><path class="cls-8" d="M72.37,82.06V76.63c0-.35,0-.7,0-1s0-.71-.1-1.06h1.16l.16,1.86-.16,0a2.38,2.38,0,0,1,.9-1.49,2.67,2.67,0,0,1,1.57-.5l.37,0,.32.07,0,1.11a2.39,2.39,0,0,0-.79-.12,1.92,1.92,0,0,0-2,1.22,3.05,3.05,0,0,0-.21,1.12v4.3Z"/><path class="cls-8" d="M77.68,71.32h1.49V72.7H77.68Zm.12,10.74V74.52H79v7.54Z"/><path class="cls-8" d="M84.27,82.17a3.34,3.34,0,0,1-1.77-.47,3.22,3.22,0,0,1-1.17-1.35,4.93,4.93,0,0,1-.41-2.07,4.78,4.78,0,0,1,.42-2.07,3.26,3.26,0,0,1,1.18-1.38,3.12,3.12,0,0,1,1.75-.49,2.94,2.94,0,0,1,1.75.51,2.51,2.51,0,0,1,1,1.45l-.18.12v-1.9H88v7.54h-1.2v-2l.18.09a2.54,2.54,0,0,1-1,1.46A2.94,2.94,0,0,1,84.27,82.17Zm.24-1a2.06,2.06,0,0,0,1.71-.75,3.43,3.43,0,0,0,.6-2.16,3.35,3.35,0,0,0-.61-2.14,2.07,2.07,0,0,0-1.7-.75,2.13,2.13,0,0,0-1.74.77,3.38,3.38,0,0,0-.62,2.15,3.28,3.28,0,0,0,.62,2.13A2.15,2.15,0,0,0,84.51,81.16Z"/><path class="cls-8" d="M90.37,82.06V71h1.22v5.43l-.17-.15a2.52,2.52,0,0,1,1-1.44,2.87,2.87,0,0,1,1.74-.52,3.17,3.17,0,0,1,1.75.48,3.31,3.31,0,0,1,1.18,1.35,4.66,4.66,0,0,1,.43,2,4.83,4.83,0,0,1-.43,2.08,3.23,3.23,0,0,1-1.19,1.38,3.08,3.08,0,0,1-1.74.49,2.93,2.93,0,0,1-1.74-.51,2.54,2.54,0,0,1-1-1.46l.17-.16v2Zm3.54-.9a2,2,0,0,0,1.71-.77,3.4,3.4,0,0,0,.62-2.17,3.24,3.24,0,0,0-.62-2.11,2.09,2.09,0,0,0-1.71-.75,2,2,0,0,0-1.72.76,3.33,3.33,0,0,0-.6,2.13,3.43,3.43,0,0,0,.6,2.16A2.07,2.07,0,0,0,93.91,81.16Z"/><path class="cls-8" d="M99.37,82.06V71h1.22v11Z"/><path class="cls-8" d="M109.12,81.16a3.49,3.49,0,0,1-1.27.74,4.73,4.73,0,0,1-1.58.27,4.16,4.16,0,0,1-2-.47,3.12,3.12,0,0,1-1.3-1.34,4.39,4.39,0,0,1-.46-2.09,4.5,4.5,0,0,1,.45-2.06,3.41,3.41,0,0,1,1.25-1.38,3.49,3.49,0,0,1,1.86-.49,3.26,3.26,0,0,1,1.72.44,2.85,2.85,0,0,1,1.1,1.27,4.6,4.6,0,0,1,.39,2v.22h-5.7v-.79h5l-.39.55a3.14,3.14,0,0,0-.52-2,1.91,1.91,0,0,0-1.6-.71,2.09,2.09,0,0,0-1.72.78,4,4,0,0,0,0,4.35,2.42,2.42,0,0,0,1.92.75,3.79,3.79,0,0,0,1.26-.21,4.06,4.06,0,0,0,1.17-.67Z"/><path class="cls-8" d="M110.89,80.52h1.55v1.54h-1.55Z"/><path class="cls-8" d="M114.36,80.52h1.54v1.54h-1.54Z"/><path class="cls-8" d="M117.82,80.52h1.54v1.54h-1.54Z"/></g></g></g></svg>