<svg xmlns="http://www.w3.org/2000/svg" viewBox="0 0 595.39 88.19"><defs><style>.cls-1{fill:none;}.cls-2{fill:#873d61;}.cls-3{fill:#a74c78;}.cls-4{fill:#c281a1;}.cls-5{opacity:0.6;}.cls-6{fill:#fff;}.cls-10,.cls-7{isolation:isolate;}.cls-10,.cls-8{fill:#010101;}.cls-9{fill:#e2e2e2;stroke:#b7b7b7;}.cls-10{font-size:15px;font-family:Mulish-Regular, Mulish;}.cls-11{letter-spacing:-0.01em;}.cls-12{letter-spacing:-0.01em;}.cls-13{letter-spacing:0em;}</style></defs><g id="Layer_2" data-name="Layer 2"><g id="Layer_1-2" data-name="Layer 1"><rect class="cls-1" x="0.12" width="595.28" height="18"/><path class="cls-2" d="M9.12,1h66V26h-66V21c0-10-8,8-8-7.5s8,2.5,8-7.5Z"/><path class="cls-3" d="M8.12,0h66V25h-66V20c0-10-8,8-8-7.5s8,2.5,8-7.5Z"/><path class="cls-4" d="M9.12,24.5h-1v-6h1ZM.77,18.13a20.9,20.9,0,0,1,0-11.26l1,.26a19.79,19.79,0,0,0,0,10.74ZM9.12,8h-1V0H73.58V1H9.12Z"/><g class="cls-5"><rect class="cls-6" x="13.12" y="5" width="55.97" height="16" rx="4"/></g><g class="cls-7"><path class="cls-8" d="M19.17,6.76h1.48V8.14H19.17Zm.12,10.74V10H20.5V17.5Z"/><path class="cls-8" d="M21.79,10.92V10h4.85v1Zm4.82,5.5v1a4.64,4.64,0,0,1-.51.11,4.26,4.26,0,0,1-.54,0,2.33,2.33,0,0,1-1.68-.6,2.41,2.41,0,0,1-.62-1.8V8l1.22-.43V15a2,2,0,0,0,.17.93,1,1,0,0,0,.47.46,1.83,1.83,0,0,0,.68.13,2.41,2.41,0,0,0,.4,0A2.83,2.83,0,0,0,26.61,16.42Z"/><path class="cls-8" d="M34.29,16.6a3.58,3.58,0,0,1-1.27.74,4.77,4.77,0,0,1-1.58.27,4.13,4.13,0,0,1-2-.47,3.19,3.19,0,0,1-1.31-1.34,4.54,4.54,0,0,1-.45-2.09,4.5,4.5,0,0,1,.45-2.06,3.34,3.34,0,0,1,1.25-1.38,3.43,3.43,0,0,1,1.85-.49,3.2,3.2,0,0,1,1.73.44A2.86,2.86,0,0,1,34,11.49a4.76,4.76,0,0,1,.38,2v.22h-5.7V12.9h5l-.39.55a3.08,3.08,0,0,0-.52-2,1.88,1.88,0,0,0-1.59-.71,2.1,2.1,0,0,0-1.72.77,3.31,3.31,0,0,0-.62,2.14,3.27,3.27,0,0,0,.65,2.22,2.39,2.39,0,0,0,1.91.75,3.65,3.65,0,0,0,1.27-.22,3.88,3.88,0,0,0,1.16-.66Z"/><path class="cls-8" d="M36.27,17.5V12.07c0-.35,0-.7,0-1.06a9.3,9.3,0,0,0-.09-1H37.3l.14,1.56-.15.1a2.53,2.53,0,0,1,.93-1.36,2.67,2.67,0,0,1,1.59-.48,2.48,2.48,0,0,1,1.7.54A2.67,2.67,0,0,1,42.28,12l-.36-.2a2.53,2.53,0,0,1,1-1.45,2.85,2.85,0,0,1,1.75-.54,2.29,2.29,0,0,1,1.87.74,3.38,3.38,0,0,1,.63,2.24V17.5H45.93V12.82a2.54,2.54,0,0,0-.38-1.54,1.4,1.4,0,0,0-1.18-.48,1.87,1.87,0,0,0-1.5.64,2.66,2.66,0,0,0-.54,1.76v4.3H41.11V12.82a2.54,2.54,0,0,0-.38-1.54,1.43,1.43,0,0,0-1.19-.48,1.87,1.87,0,0,0-1.51.64,2.61,2.61,0,0,0-.55,1.76v4.3Z"/></g><polygon class="cls-8" points="57.1 17.31 62.08 8.69 52.13 8.69 57.1 17.31"/><rect class="cls-9" x="13.12" y="31.69" width="139.65" height="56" rx="5.67"/><text class="cls-10" transform="translate(18.12 46.06)">item<tspan x="0" y="18">Rename </tspan><tspan class="cls-11" x="61.59" y="18">v</tspan><tspan x="69.46" y="18">ariable...</tspan><tspan x="0" y="36">N</tspan><tspan class="cls-12" x="11.19" y="36">e</tspan><tspan x="19.26" y="36">w </tspan><tspan class="cls-12" x="36.21" y="36">v</tspan><tspan class="cls-13" x="44.08" y="36">ariable...</tspan></text></g></g></svg>