<svg xmlns="http://www.w3.org/2000/svg" viewBox="0 0 595.28 60.69"><defs><style>.cls-1{fill:#a74c78;}.cls-2{fill:#ededee;}.cls-3{fill:#231f20;}.cls-4{fill:#2c93c0;}.cls-5{fill:#a2c5e8;}</style></defs><g id="Layer_2" data-name="Layer 2"><g id="Layer_1-2" data-name="Layer 1"><rect class="cls-1" y="4" width="595.28" height="56.69" rx="11.34"/><rect class="cls-2" width="595.28" height="56.69" rx="11.34"/><path class="cls-3" d="M93.55,38.84,82.13,13.21H87l9.22,21.53H94.73l9.33-21.53h4.68L97.36,38.84Z"/><path class="cls-3" d="M115.79,39.09A7.92,7.92,0,0,1,111.58,38a7.45,7.45,0,0,1-2.82-3.24,11.57,11.57,0,0,1-1-4.95,11.68,11.68,0,0,1,1-5,8,8,0,0,1,2.83-3.35,7.36,7.36,0,0,1,4.19-1.21,7.08,7.08,0,0,1,4,1.14,5.58,5.58,0,0,1,2.32,3.15l-.43.25V20.66h4.43V38.84H121.7v-4.1l.43.14A5.43,5.43,0,0,1,119.81,38,7.21,7.21,0,0,1,115.79,39.09ZM117,35.64a4.14,4.14,0,0,0,3.45-1.55,6.91,6.91,0,0,0,1.23-4.39,7,7,0,0,0-1.23-4.45A4.15,4.15,0,0,0,117,23.72a4.27,4.27,0,0,0-3.53,1.58,7,7,0,0,0-1.26,4.47,6.66,6.66,0,0,0,1.26,4.34A4.32,4.32,0,0,0,117,35.64Z"/><path class="cls-3" d="M131,38.84v-13q0-1.26-.06-2.58a24.06,24.06,0,0,0-.23-2.57H135l.5,4.68-.5-.25a5.62,5.62,0,0,1,2.12-3.64,6.16,6.16,0,0,1,3.74-1.22,6.41,6.41,0,0,1,1,.07,3.71,3.71,0,0,1,.83.22l-.07,4.1a6.16,6.16,0,0,0-2.38-.47,4.87,4.87,0,0,0-2.64.65A4,4,0,0,0,136,26.55a5.62,5.62,0,0,0-.52,2.46v9.83Z"/><path class="cls-3" d="M144.88,12.42h5v4.42h-5Zm.22,26.42V20.66h4.5V38.84Z"/><path class="cls-3" d="M161.55,39.09A7.87,7.87,0,0,1,157.34,38a7.41,7.41,0,0,1-2.83-3.24,11.57,11.57,0,0,1-1-4.95,11.68,11.68,0,0,1,1-5,8,8,0,0,1,2.82-3.35,7.39,7.39,0,0,1,4.2-1.21,7.07,7.07,0,0,1,4,1.14,5.54,5.54,0,0,1,2.32,3.15l-.43.25V20.66h4.43V38.84h-4.43v-4.1l.43.14A5.39,5.39,0,0,1,165.56,38,7.2,7.2,0,0,1,161.55,39.09Zm1.22-3.45a4.17,4.17,0,0,0,3.46-1.55,7,7,0,0,0,1.22-4.39,7,7,0,0,0-1.22-4.45,4.18,4.18,0,0,0-3.46-1.53,4.27,4.27,0,0,0-3.53,1.58A7,7,0,0,0,158,29.77a6.66,6.66,0,0,0,1.25,4.34A4.32,4.32,0,0,0,162.77,35.64Z"/><path class="cls-3" d="M176.74,38.84V12.34h4.5V25l-.4-.54a5.58,5.58,0,0,1,2.27-3.1,7,7,0,0,1,4-1.15,7.7,7.7,0,0,1,4.21,1.15,7.88,7.88,0,0,1,2.84,3.28,11.09,11.09,0,0,1,1.05,5,11.32,11.32,0,0,1-1.05,5,7.94,7.94,0,0,1-2.86,3.33,7.57,7.57,0,0,1-4.19,1.17,7.12,7.12,0,0,1-4-1.1,5.31,5.31,0,0,1-2.27-3.11l.4-.65v4.61Zm9.22-3.2a4.09,4.09,0,0,0,3.45-1.59,7.11,7.11,0,0,0,1.23-4.46,6.78,6.78,0,0,0-1.23-4.34,4.7,4.7,0,0,0-7,0,7,7,0,0,0-1.21,4.39,7,7,0,0,0,1.21,4.43A4.18,4.18,0,0,0,186,35.64Z"/><path class="cls-3" d="M199.06,38.84V12.34h4.5v26.5Z"/><path class="cls-3" d="M224,36.82a9.25,9.25,0,0,1-3.18,1.68,12.92,12.92,0,0,1-3.84.59A11,11,0,0,1,211.93,38a7.73,7.73,0,0,1-3.29-3.24,10.42,10.42,0,0,1-1.16-5,10.57,10.57,0,0,1,1.12-4.95,8.29,8.29,0,0,1,3.1-3.35,8.55,8.55,0,0,1,4.57-1.21,8.16,8.16,0,0,1,4.32,1.1,7.28,7.28,0,0,1,2.79,3.15,11.09,11.09,0,0,1,1,4.86V30H211.44l0-2.41H221.7l-1.22,1.23a6.28,6.28,0,0,0-1-4,3.65,3.65,0,0,0-3.07-1.37A4,4,0,0,0,213,25a7,7,0,0,0-1.19,4.38,7.13,7.13,0,0,0,1.33,4.77,5.07,5.07,0,0,0,4,1.53,9,9,0,0,0,2.9-.49,9.31,9.31,0,0,0,2.65-1.42Z"/><path class="cls-3" d="M234.84,39.09c-3.31,0-5.92-.75-7.84-2.27l1.26-3.16a10.48,10.48,0,0,0,3.13,1.62,11.53,11.53,0,0,0,3.53.54,4.82,4.82,0,0,0,2.52-.54,1.71,1.71,0,0,0,.86-1.52,1.57,1.57,0,0,0-.61-1.31,5.77,5.77,0,0,0-2.09-.85l-3-.68a7.23,7.23,0,0,1-3.73-1.82,4.47,4.47,0,0,1-1.24-3.26,4.85,4.85,0,0,1,.93-2.93,6.2,6.2,0,0,1,2.63-2,10,10,0,0,1,3.93-.72,11.76,11.76,0,0,1,3.74.6A9.21,9.21,0,0,1,242,22.5l-1.29,3.09A10.8,10.8,0,0,0,237.89,24a8.58,8.58,0,0,0-2.83-.5,4.25,4.25,0,0,0-2.41.58,1.79,1.79,0,0,0-.87,1.58,1.6,1.6,0,0,0,.53,1.26,4.18,4.18,0,0,0,1.81.76l3.06.75a7.72,7.72,0,0,1,3.95,1.86,4.64,4.64,0,0,1,1.24,3.36,4.59,4.59,0,0,1-2,3.94A9.17,9.17,0,0,1,234.84,39.09Z"/><path class="cls-4" d="M25.8,21.61l6,3.9-.71,1.1-6-3.91Z"/><path class="cls-4" d="M44.5,17l5.57,1.81-.4,1.24L44.1,18.27Z"/><path class="cls-4" d="M59.19,11.9l.91.93-6.49,6.33-.91-.93Z"/><path class="cls-4" d="M40.61,18.05l1,.88-6.64,7.2-1-.89Z"/><path class="cls-5" d="M21.17,29.48h5.24V48.33H21.17Z"/><path class="cls-5" d="M30.48,35.54h5.25V48.33H30.48Z"/><path class="cls-5" d="M39.8,25.45h5.25V48.33H39.8Z"/><path class="cls-5" d="M49.12,28.47h5.25V48.33H49.12Z"/><path class="cls-5" d="M58.44,19.39h5.25V48.33H58.44Z"/><path class="cls-1" d="M26.41,21.08a2.62,2.62,0,1,1-2.62-2.62A2.62,2.62,0,0,1,26.41,21.08Z"/><path class="cls-1" d="M63.69,11a2.63,2.63,0,1,1-2.63-2.63A2.63,2.63,0,0,1,63.69,11Z"/><path class="cls-1" d="M54.37,20.07a2.63,2.63,0,1,1-2.63-2.62A2.62,2.62,0,0,1,54.37,20.07Z"/><path class="cls-1" d="M45.05,17a2.63,2.63,0,1,1-2.62-2.62A2.62,2.62,0,0,1,45.05,17Z"/><path class="cls-1" d="M35.73,27.14a2.63,2.63,0,1,1-2.62-2.63A2.62,2.62,0,0,1,35.73,27.14Z"/></g></g></svg>