<svg xmlns="http://www.w3.org/2000/svg" viewBox="0 0 595.28 167.25"><defs><style>.cls-1{fill:none;}.cls-2{fill:#873d61;}.cls-3{fill:#a74c78;}.cls-4{fill:#c281a1;}.cls-5{isolation:isolate;}.cls-6{fill:#fff;}.cls-7{opacity:0.6;}.cls-8{fill:#010101;}.cls-9{fill:#e2e2e2;}.cls-10{fill:#b7b7b7;}.cls-11{fill:#d8acbb;}</style></defs><g id="Layer_2" data-name="Layer 2"><g id="Layer_1-2" data-name="Layer 1"><rect class="cls-1" width="595.28" height="18"/><path class="cls-2" d="M1,9A8,8,0,0,1,9,1h7l6,4h3l6-4h97.82V6c0,10-8-8-8,7.5s8-2.5,8,7.5V36H30.5l-6,4h-3l-6-4H9a8,8,0,0,1-8-8Z"/><path class="cls-3" d="M0,8A8,8,0,0,1,8,0h7l6,4h3l6-4h97.82V5c0,10-8-8-8,7.5s8-2.5,8,7.5V35H29.5l-6,4h-3l-6-4H8a8,8,0,0,1-8-8Z"/><path class="cls-4" d="M2.34,32.66A8,8,0,0,1,0,27V8H1V27A7,7,0,0,0,3.05,32ZM123.06,19.73l-.49-.86,3.68-2.1.49.86ZM1,7.53,0,7.47A8,8,0,0,1,8,0h7.17l6,4h2.7l6-4h97.47V1H30.15l-6,4h-3.3l-6-4H8A7,7,0,0,0,1,7.53Z"/><path class="cls-2" d="M129.82,1H289.93V36H129.82V21c0-10-8,8-8-7.5s8,2.5,8-7.5Zm30.5,5h-14.5v5c0,10-8-8-8,7.5s8-2.5,8,7.5v6h14.5Z"/><path class="cls-3" d="M128.82,0H288.93V35H128.82V20c0-10-8,8-8-7.5s8,2.5,8-7.5Zm30.5,5h-14.5v5c0,10-8-8-8,7.5s8-2.5,8,7.5v6h14.5Z"/><path class="cls-4" d="M129.82,34.5h-1v-16h1Zm30.5-2.5h-15V31h14V5.5h1ZM140,24.73l-.49-.86,3.68-2.1.49.86Zm-18.49-6.6a20.9,20.9,0,0,1,0-11.26l1,.26a19.79,19.79,0,0,0,0,10.74ZM129.82,8h-1V0H288.43V1H129.82Z"/><g class="cls-5"><path class="cls-6" d="M173.38,22.61a3.2,3.2,0,0,1-1.76-.48,3,3,0,0,1-1.17-1.35,4.71,4.71,0,0,1-.41-2.06,4.78,4.78,0,0,1,.42-2.07,3.31,3.31,0,0,1,1.17-1.38,3.14,3.14,0,0,1,1.75-.49,3,3,0,0,1,1.76.51,2.5,2.5,0,0,1,1,1.45l-.18.12V15h1.2V22.5h-1.2V20.55l.18.09a2.52,2.52,0,0,1-1,1.46A3,3,0,0,1,173.38,22.61Zm.24-1a2,2,0,0,0,1.71-.76,3.38,3.38,0,0,0,.6-2.15,3.29,3.29,0,0,0-.61-2.14,2.32,2.32,0,0,0-3.43,0,3.3,3.3,0,0,0-.62,2.15,3.22,3.22,0,0,0,.62,2.13A2.12,2.12,0,0,0,173.62,21.6Z"/><path class="cls-6" d="M182,22.61a4.42,4.42,0,0,1-3-1l.41-.9a4.18,4.18,0,0,0,1.23.68,4.27,4.27,0,0,0,1.42.22,2.43,2.43,0,0,0,1.3-.29,1,1,0,0,0,.44-.85.89.89,0,0,0-.3-.71,2.3,2.3,0,0,0-1-.43l-1.27-.3a2.86,2.86,0,0,1-1.47-.75,1.81,1.81,0,0,1-.51-1.29,1.93,1.93,0,0,1,.36-1.16,2.34,2.34,0,0,1,1-.79,3.77,3.77,0,0,1,1.53-.28,4.37,4.37,0,0,1,1.5.25,3.21,3.21,0,0,1,1.19.74l-.41.88a4.17,4.17,0,0,0-1.1-.67,3.37,3.37,0,0,0-1.18-.21,2.12,2.12,0,0,0-1.25.31,1.09,1.09,0,0,0-.17,1.59,2,2,0,0,0,.9.42l1.27.32a3,3,0,0,1,1.57.74,1.81,1.81,0,0,1,.5,1.31A1.84,1.84,0,0,1,184.2,22,3.57,3.57,0,0,1,182,22.61Z"/></g><g class="cls-7"><rect class="cls-6" x="190.38" y="10" width="93.55" height="16" rx="4"/></g><g class="cls-5"><path class="cls-8" d="M199.72,22.61a3.7,3.7,0,0,1-1.92-.48,3.2,3.2,0,0,1-1.25-1.35,4.44,4.44,0,0,1-.45-2.06,4.5,4.5,0,0,1,.45-2.06,3.31,3.31,0,0,1,1.28-1.39,3.72,3.72,0,0,1,1.95-.49,4.16,4.16,0,0,1,1.48.26,3.15,3.15,0,0,1,1.17.73l-.4.9a4.73,4.73,0,0,0-1.09-.66,3,3,0,0,0-1.1-.21,2.28,2.28,0,0,0-1.81.76,3.21,3.21,0,0,0-.67,2.16,3.12,3.12,0,0,0,.66,2.13,2.3,2.3,0,0,0,1.82.75,2.79,2.79,0,0,0,1.09-.22,4.4,4.4,0,0,0,1.1-.65l.4.9a3.38,3.38,0,0,1-1.2.71A4.33,4.33,0,0,1,199.72,22.61Z"/><path class="cls-8" d="M204,22.5v-11h1.21v5l-.19.15a2.58,2.58,0,0,1,1.05-1.39,3,3,0,0,1,1.69-.47c1.81,0,2.72,1,2.72,3V22.5h-1.22V17.82a2.34,2.34,0,0,0-.42-1.54,1.67,1.67,0,0,0-1.32-.48,2.24,2.24,0,0,0-1.68.64,2.38,2.38,0,0,0-.63,1.74V22.5Z"/><path class="cls-8" d="M215.65,22.61a3.2,3.2,0,0,1-1.76-.48,3,3,0,0,1-1.17-1.35,4.7,4.7,0,0,1-.42-2.06,4.78,4.78,0,0,1,.42-2.07,3.33,3.33,0,0,1,1.18-1.38,3.14,3.14,0,0,1,1.75-.49,2.94,2.94,0,0,1,1.75.51,2.51,2.51,0,0,1,1,1.45l-.18.12V15h1.2V22.5h-1.2V20.55l.18.09a2.54,2.54,0,0,1-1,1.46A2.94,2.94,0,0,1,215.65,22.61Zm.24-1a2,2,0,0,0,1.71-.76,3.38,3.38,0,0,0,.6-2.15,3.29,3.29,0,0,0-.61-2.14,2.32,2.32,0,0,0-3.43,0,3.3,3.3,0,0,0-.63,2.15,3.22,3.22,0,0,0,.63,2.13A2.12,2.12,0,0,0,215.89,21.6Z"/><path class="cls-8" d="M221.75,22.5V17.07c0-.35,0-.7,0-1.06a9.32,9.32,0,0,0-.1-1.05h1.16l.16,1.86-.16-.05a2.32,2.32,0,0,1,.91-1.49,2.55,2.55,0,0,1,1.56-.5,2.17,2.17,0,0,1,.37,0,1.5,1.5,0,0,1,.32.07l0,1.11a2.39,2.39,0,0,0-.79-.12,2.06,2.06,0,0,0-1.25.34,1.92,1.92,0,0,0-.69.88A2.83,2.83,0,0,0,223,18.2v4.3Z"/><path class="cls-8" d="M229.93,22.61a3.2,3.2,0,0,1-1.76-.48A3,3,0,0,1,227,20.78a4.7,4.7,0,0,1-.42-2.06,4.78,4.78,0,0,1,.42-2.07,3.33,3.33,0,0,1,1.18-1.38,3.14,3.14,0,0,1,1.75-.49,2.94,2.94,0,0,1,1.75.51,2.51,2.51,0,0,1,1,1.45l-.18.12V15h1.2V22.5h-1.2V20.55l.18.09a2.54,2.54,0,0,1-1,1.46A2.94,2.94,0,0,1,229.93,22.61Zm.24-1a2,2,0,0,0,1.71-.76,3.38,3.38,0,0,0,.6-2.15,3.29,3.29,0,0,0-.61-2.14,2.32,2.32,0,0,0-3.43,0,3.3,3.3,0,0,0-.63,2.15,3.22,3.22,0,0,0,.63,2.13A2.12,2.12,0,0,0,230.17,21.6Z"/><path class="cls-8" d="M239.2,22.61a3.7,3.7,0,0,1-1.92-.48A3.2,3.2,0,0,1,236,20.78a4.44,4.44,0,0,1-.45-2.06,4.5,4.5,0,0,1,.45-2.06,3.31,3.31,0,0,1,1.28-1.39,3.72,3.72,0,0,1,1.95-.49,4.16,4.16,0,0,1,1.48.26,3.15,3.15,0,0,1,1.17.73l-.4.9a4.73,4.73,0,0,0-1.09-.66,3,3,0,0,0-1.1-.21,2.28,2.28,0,0,0-1.81.76,3.21,3.21,0,0,0-.67,2.16,3.12,3.12,0,0,0,.66,2.13,2.3,2.3,0,0,0,1.82.75,2.79,2.79,0,0,0,1.09-.22,4.4,4.4,0,0,0,1.1-.65l.4.9a3.38,3.38,0,0,1-1.2.71A4.33,4.33,0,0,1,239.2,22.61Z"/><path class="cls-8" d="M242.41,15.92V15h4.84v1Zm4.81,5.5v1a4.48,4.48,0,0,1-.5.11,4.43,4.43,0,0,1-.55,0,2.31,2.31,0,0,1-1.67-.6,2.41,2.41,0,0,1-.62-1.8V13l1.21-.43V20a2,2,0,0,0,.18.93,1,1,0,0,0,.47.46,1.78,1.78,0,0,0,.67.13,2.54,2.54,0,0,0,.41,0A2.73,2.73,0,0,0,247.22,21.42Z"/><path class="cls-8" d="M254.9,21.6a3.53,3.53,0,0,1-1.26.74,4.83,4.83,0,0,1-1.59.27,4.09,4.09,0,0,1-2-.47,3.19,3.19,0,0,1-1.31-1.34,4.54,4.54,0,0,1-.46-2.09,4.5,4.5,0,0,1,.45-2.06A3.37,3.37,0,0,1,250,15.27a3.43,3.43,0,0,1,1.85-.49,3.17,3.17,0,0,1,1.72.44,2.88,2.88,0,0,1,1.11,1.27,4.76,4.76,0,0,1,.38,2v.22h-5.7V17.9h5l-.39.55a3.08,3.08,0,0,0-.52-2,1.9,1.9,0,0,0-1.6-.71,2.08,2.08,0,0,0-1.71.77,3.31,3.31,0,0,0-.63,2.14,3.27,3.27,0,0,0,.66,2.22,2.39,2.39,0,0,0,1.91.75,3.65,3.65,0,0,0,1.27-.22,3.88,3.88,0,0,0,1.16-.66Z"/><path class="cls-8" d="M256.88,22.5V17.07c0-.35,0-.7,0-1.06a9.32,9.32,0,0,0-.1-1.05h1.16l.16,1.86-.16-.05a2.32,2.32,0,0,1,.91-1.49,2.55,2.55,0,0,1,1.56-.5,2.17,2.17,0,0,1,.37,0,1.5,1.5,0,0,1,.32.07l0,1.11a2.39,2.39,0,0,0-.79-.12,2.06,2.06,0,0,0-1.25.34,1.92,1.92,0,0,0-.69.88,2.83,2.83,0,0,0-.22,1.12v4.3Z"/></g><g class="cls-5"><path class="cls-6" d="M13.72,17.61a4.38,4.38,0,0,1-3-1l.4-.9a4.11,4.11,0,0,0,1.24.68,4.23,4.23,0,0,0,1.42.22,2.37,2.37,0,0,0,1.29-.29,1,1,0,0,0,.44-.85.91.91,0,0,0-.29-.71,2.41,2.41,0,0,0-1-.43l-1.27-.3a2.78,2.78,0,0,1-1.46-.75A1.78,1.78,0,0,1,11,12a1.93,1.93,0,0,1,.36-1.16,2.37,2.37,0,0,1,1-.79,3.7,3.7,0,0,1,1.53-.28,4.46,4.46,0,0,1,1.5.25,3.25,3.25,0,0,1,1.18.74l-.41.88A3.87,3.87,0,0,0,15,11a3.28,3.28,0,0,0-1.17-.21,2.17,2.17,0,0,0-1.26.31,1,1,0,0,0-.44.86,1,1,0,0,0,.28.73,1.89,1.89,0,0,0,.89.42l1.28.32a2.92,2.92,0,0,1,1.56.74,1.77,1.77,0,0,1,.5,1.31A1.84,1.84,0,0,1,15.88,17,3.57,3.57,0,0,1,13.72,17.61Z"/><path class="cls-6" d="M24.79,16.6a3.49,3.49,0,0,1-1.27.74,4.73,4.73,0,0,1-1.58.27,4.16,4.16,0,0,1-2-.47,3.17,3.17,0,0,1-1.3-1.34,4.42,4.42,0,0,1-.46-2.09,4.5,4.5,0,0,1,.45-2.06,3.41,3.41,0,0,1,1.25-1.38,3.46,3.46,0,0,1,1.85-.49,3.2,3.2,0,0,1,1.73.44,2.8,2.8,0,0,1,1.1,1.27,4.6,4.6,0,0,1,.38,2v.22H19.23V12.9h5l-.39.55a3.14,3.14,0,0,0-.51-2,1.91,1.91,0,0,0-1.6-.71,2.11,2.11,0,0,0-1.72.77,3.36,3.36,0,0,0-.62,2.14A3.32,3.32,0,0,0,20,15.85,2.41,2.41,0,0,0,22,16.6a3.56,3.56,0,0,0,1.26-.22,3.77,3.77,0,0,0,1.16-.66Z"/><path class="cls-6" d="M25.66,10.92V10H30.5v1Zm4.81,5.5v1a4.48,4.48,0,0,1-.5.11,4.43,4.43,0,0,1-.55,0,2.31,2.31,0,0,1-1.67-.6,2.41,2.41,0,0,1-.62-1.8V8l1.21-.43V15a2,2,0,0,0,.18.93,1,1,0,0,0,.47.46,1.78,1.78,0,0,0,.67.13,2.54,2.54,0,0,0,.41,0A2.73,2.73,0,0,0,30.47,16.42Z"/></g><g class="cls-7"><rect class="cls-6" x="35.33" y="5" width="55.97" height="16" rx="4"/></g><g class="cls-5"><path class="cls-8" d="M41.38,6.76h1.49V8.14H41.38ZM41.5,17.5V10h1.22V17.5Z"/><path class="cls-8" d="M44,10.92V10h4.84v1Zm4.81,5.5v1a4.48,4.48,0,0,1-.5.11,4.43,4.43,0,0,1-.55,0A2.31,2.31,0,0,1,46.1,17a2.41,2.41,0,0,1-.62-1.8V8l1.21-.43V15a2,2,0,0,0,.18.93,1,1,0,0,0,.47.46,1.78,1.78,0,0,0,.67.13,2.54,2.54,0,0,0,.41,0A2.73,2.73,0,0,0,48.82,16.42Z"/><path class="cls-8" d="M56.5,16.6a3.53,3.53,0,0,1-1.26.74,4.83,4.83,0,0,1-1.59.27,4.09,4.09,0,0,1-2-.47,3.19,3.19,0,0,1-1.31-1.34,4.54,4.54,0,0,1-.46-2.09,4.5,4.5,0,0,1,.45-2.06,3.37,3.37,0,0,1,1.26-1.38,3.43,3.43,0,0,1,1.85-.49,3.17,3.17,0,0,1,1.72.44,2.88,2.88,0,0,1,1.11,1.27,4.76,4.76,0,0,1,.38,2v.22h-5.7V12.9h5l-.39.55a3.08,3.08,0,0,0-.52-2,1.9,1.9,0,0,0-1.6-.71,2.08,2.08,0,0,0-1.71.77,3.31,3.31,0,0,0-.63,2.14,3.27,3.27,0,0,0,.66,2.22,2.39,2.39,0,0,0,1.91.75,3.65,3.65,0,0,0,1.27-.22,3.88,3.88,0,0,0,1.16-.66Z"/><path class="cls-8" d="M58.48,17.5V12.07c0-.35,0-.7,0-1.06a9.32,9.32,0,0,0-.1-1h1.16l.13,1.56-.15.1a2.55,2.55,0,0,1,.94-1.36A2.64,2.64,0,0,1,62,9.78a2.51,2.51,0,0,1,1.71.54A2.67,2.67,0,0,1,64.5,12l-.36-.2a2.53,2.53,0,0,1,1-1.45,2.82,2.82,0,0,1,1.74-.54,2.32,2.32,0,0,1,1.88.74,3.38,3.38,0,0,1,.63,2.24V17.5H68.14V12.82a2.55,2.55,0,0,0-.37-1.54,1.42,1.42,0,0,0-1.19-.48,1.85,1.85,0,0,0-1.49.64,2.67,2.67,0,0,0-.55,1.76v4.3H63.33V12.82A2.54,2.54,0,0,0,63,11.28a1.46,1.46,0,0,0-1.2-.48,1.85,1.85,0,0,0-1.5.64,2.61,2.61,0,0,0-.55,1.76v4.3Z"/></g><g class="cls-5"><path class="cls-6" d="M96.4,10.92V10h4.85v1Zm4.82,5.5v1a5,5,0,0,1-.5.11,4.58,4.58,0,0,1-.55,0A2.29,2.29,0,0,1,98.5,17a2.37,2.37,0,0,1-.62-1.8V8l1.21-.43V15a2.11,2.11,0,0,0,.17.93,1,1,0,0,0,.47.46,1.83,1.83,0,0,0,.68.13,2.63,2.63,0,0,0,.41,0A3.11,3.11,0,0,0,101.22,16.42Z"/><path class="cls-6" d="M105.84,17.61a3.58,3.58,0,0,1-1.88-.48,3.29,3.29,0,0,1-1.25-1.36,4.65,4.65,0,0,1-.44-2.08,4.64,4.64,0,0,1,.44-2.07A3.23,3.23,0,0,1,104,10.26a3.92,3.92,0,0,1,3.76,0A3.23,3.23,0,0,1,109,11.62a4.64,4.64,0,0,1,.44,2.07,4.65,4.65,0,0,1-.44,2.08,3.29,3.29,0,0,1-1.25,1.36A3.58,3.58,0,0,1,105.84,17.61Zm0-1a2.12,2.12,0,0,0,1.72-.74,3.4,3.4,0,0,0,.61-2.17,3.29,3.29,0,0,0-.62-2.14,2.09,2.09,0,0,0-1.71-.75,2.12,2.12,0,0,0-1.72.75,3.29,3.29,0,0,0-.62,2.14,3.34,3.34,0,0,0,.61,2.17A2.11,2.11,0,0,0,105.84,16.6Z"/></g><polygon class="cls-8" points="82.32 17.31 87.3 8.69 77.34 8.69 82.32 17.31"/><polygon class="cls-8" points="274.95 22.31 279.93 13.69 269.98 13.69 274.95 22.31"/><rect class="cls-9" x="35.33" y="41.69" width="139.65" height="56" rx="5.67"/><path class="cls-10" d="M169.32,98.19H41A6.18,6.18,0,0,1,34.83,92V47.36A6.18,6.18,0,0,1,41,41.19H169.32a6.17,6.17,0,0,1,6.16,6.17V92A6.17,6.17,0,0,1,169.32,98.19ZM41,42.19a5.18,5.18,0,0,0-5.17,5.17V92A5.18,5.18,0,0,0,41,97.19H169.32A5.17,5.17,0,0,0,174.48,92V47.36a5.17,5.17,0,0,0-5.16-5.17Z"/><g class="cls-5"><path class="cls-8" d="M41.38,45.32h1.49V46.7H41.38Zm.12,10.74V48.52h1.22v7.54Z"/><path class="cls-8" d="M44,49.48v-1h4.84v1ZM48.82,55v1a3,3,0,0,1-.5.11,3.09,3.09,0,0,1-.55,0,2.31,2.31,0,0,1-1.67-.6,2.41,2.41,0,0,1-.62-1.8V46.58l1.21-.43V53.6a2,2,0,0,0,.18.93.91.91,0,0,0,.47.46,1.6,1.6,0,0,0,.67.13,2.54,2.54,0,0,0,.41,0A2.73,2.73,0,0,0,48.82,55Z"/><path class="cls-8" d="M56.5,55.16a3.53,3.53,0,0,1-1.26.74,4.83,4.83,0,0,1-1.59.27,4.09,4.09,0,0,1-2-.47,3.14,3.14,0,0,1-1.31-1.34,5,5,0,0,1,0-4.15,3.37,3.37,0,0,1,1.26-1.38,3.43,3.43,0,0,1,1.85-.49,3.26,3.26,0,0,1,1.72.44,2.93,2.93,0,0,1,1.11,1.27,4.76,4.76,0,0,1,.38,2v.22h-5.7v-.79h5l-.39.55A3.08,3.08,0,0,0,55,50a1.9,1.9,0,0,0-1.6-.71,2.06,2.06,0,0,0-1.71.78,4,4,0,0,0,0,4.35,2.39,2.39,0,0,0,1.91.75A3.89,3.89,0,0,0,54.94,55a4.15,4.15,0,0,0,1.16-.67Z"/><path class="cls-8" d="M58.48,56.06V50.63c0-.35,0-.7,0-1.05a9.28,9.28,0,0,0-.1-1.06h1.16l.13,1.56-.15.1a2.55,2.55,0,0,1,.94-1.36A2.64,2.64,0,0,1,62,48.34a2.51,2.51,0,0,1,1.71.54,2.67,2.67,0,0,1,.77,1.65l-.36-.2a2.53,2.53,0,0,1,1-1.45,2.82,2.82,0,0,1,1.74-.54,2.35,2.35,0,0,1,1.88.74,3.4,3.4,0,0,1,.63,2.24v4.74H68.14V51.38a2.5,2.5,0,0,0-.37-1.53,1.4,1.4,0,0,0-1.19-.49,1.85,1.85,0,0,0-1.49.64,2.67,2.67,0,0,0-.55,1.76v4.3H63.33V51.38A2.49,2.49,0,0,0,63,49.85a1.43,1.43,0,0,0-1.2-.49,1.85,1.85,0,0,0-1.5.64,2.61,2.61,0,0,0-.55,1.76v4.3Z"/><path class="cls-8" d="M41.65,74.06V63.38H45.9a4.06,4.06,0,0,1,2.65.77,2.7,2.7,0,0,1,.92,2.2,2.66,2.66,0,0,1-.94,2.17,3.93,3.93,0,0,1-2.63.79L47,69.1a1.62,1.62,0,0,1,1,.32,2.24,2.24,0,0,1,.68,1L50,74.06H48.73l-1.32-3.55a1.52,1.52,0,0,0-.69-.89,2.64,2.64,0,0,0-1.18-.22H42.87v4.66Zm1.22-5.68h2.92a2.87,2.87,0,0,0,1.86-.51,1.86,1.86,0,0,0,.6-1.5,1.8,1.8,0,0,0-.6-1.48,3,3,0,0,0-1.86-.49H42.87Z"/><path class="cls-8" d="M58.08,73.16a3.49,3.49,0,0,1-1.27.74,4.73,4.73,0,0,1-1.58.27,4.16,4.16,0,0,1-2-.47,3.12,3.12,0,0,1-1.3-1.34,4.39,4.39,0,0,1-.46-2.09,4.5,4.5,0,0,1,.45-2.06,3.41,3.41,0,0,1,1.25-1.38A3.46,3.46,0,0,1,55,66.34a3.29,3.29,0,0,1,1.73.44,2.85,2.85,0,0,1,1.1,1.27,4.6,4.6,0,0,1,.38,2v.22h-5.7v-.79h5l-.39.55a3.14,3.14,0,0,0-.51-2,1.91,1.91,0,0,0-1.6-.71,2.09,2.09,0,0,0-1.72.78,4,4,0,0,0,0,4.35,2.4,2.4,0,0,0,1.91.75A3.85,3.85,0,0,0,56.51,73a4,4,0,0,0,1.16-.67Z"/><path class="cls-8" d="M60.06,74.06V68.63c0-.35,0-.7,0-1s0-.71-.1-1.06h1.15l.14,1.56-.15.12a2.61,2.61,0,0,1,1.05-1.39,3.09,3.09,0,0,1,1.69-.47c1.81,0,2.72,1,2.72,3v4.74H65.32V69.38a2.29,2.29,0,0,0-.42-1.53,1.64,1.64,0,0,0-1.32-.49A2.24,2.24,0,0,0,61.9,68a2.38,2.38,0,0,0-.63,1.74v4.32Z"/><path class="cls-8" d="M71.73,74.17A3.28,3.28,0,0,1,70,73.7a3.09,3.09,0,0,1-1.17-1.35,5.31,5.31,0,0,1,0-4.14A3.33,3.33,0,0,1,70,66.83a3.14,3.14,0,0,1,1.75-.49,2.94,2.94,0,0,1,1.75.51,2.51,2.51,0,0,1,1,1.45l-.18.12v-1.9h1.2v7.54h-1.2v-2l.18.09a2.54,2.54,0,0,1-1,1.46A2.94,2.94,0,0,1,71.73,74.17Zm.24-1a2.06,2.06,0,0,0,1.71-.75,3.43,3.43,0,0,0,.6-2.16,3.29,3.29,0,0,0-.61-2.14,2.06,2.06,0,0,0-1.7-.75,2.1,2.1,0,0,0-1.73.77,3.32,3.32,0,0,0-.63,2.15,3.22,3.22,0,0,0,.63,2.13A2.12,2.12,0,0,0,72,73.16Z"/><path class="cls-8" d="M77.83,74.06V68.63c0-.35,0-.7,0-1a9.28,9.28,0,0,0-.1-1.06h1.16L79,68.08l-.15.1a2.55,2.55,0,0,1,.94-1.36,2.64,2.64,0,0,1,1.58-.48,2.51,2.51,0,0,1,1.71.54,2.67,2.67,0,0,1,.77,1.65l-.36-.2a2.53,2.53,0,0,1,1-1.45,2.82,2.82,0,0,1,1.74-.54,2.35,2.35,0,0,1,1.88.74,3.4,3.4,0,0,1,.63,2.24v4.74H87.49V69.38a2.5,2.5,0,0,0-.37-1.53,1.4,1.4,0,0,0-1.19-.49,1.85,1.85,0,0,0-1.49.64,2.67,2.67,0,0,0-.55,1.76v4.3H82.68V69.38a2.49,2.49,0,0,0-.38-1.53,1.43,1.43,0,0,0-1.2-.49,1.85,1.85,0,0,0-1.5.64,2.61,2.61,0,0,0-.55,1.76v4.3Z"/><path class="cls-8" d="M97.2,73.16a3.49,3.49,0,0,1-1.27.74,4.73,4.73,0,0,1-1.58.27,4.16,4.16,0,0,1-2-.47A3.12,3.12,0,0,1,91,72.36a4.39,4.39,0,0,1-.46-2.09A4.5,4.5,0,0,1,91,68.21a3.41,3.41,0,0,1,1.25-1.38,3.46,3.46,0,0,1,1.85-.49,3.29,3.29,0,0,1,1.73.44A2.85,2.85,0,0,1,97,68.05a4.6,4.6,0,0,1,.38,2v.22h-5.7v-.79h5l-.39.55a3.14,3.14,0,0,0-.51-2,1.91,1.91,0,0,0-1.6-.71,2.09,2.09,0,0,0-1.72.78,4,4,0,0,0,0,4.35,2.4,2.4,0,0,0,1.91.75A3.85,3.85,0,0,0,95.63,73a4,4,0,0,0,1.16-.67Z"/><path class="cls-8" d="M105.31,74.06l-3.21-7.53h1.28l2.73,6.65h-.36l2.76-6.65h1.21l-3.25,7.53Z"/><path class="cls-8" d="M113.86,74.17a3.28,3.28,0,0,1-1.76-.47,3.09,3.09,0,0,1-1.17-1.35,5.37,5.37,0,0,1,0-4.14,3.31,3.31,0,0,1,1.17-1.38,3.14,3.14,0,0,1,1.75-.49,3,3,0,0,1,1.76.51,2.5,2.5,0,0,1,1,1.45l-.18.12v-1.9h1.2v7.54h-1.2v-2l.18.09a2.52,2.52,0,0,1-1,1.46A3,3,0,0,1,113.86,74.17Zm.24-1a2.06,2.06,0,0,0,1.71-.75,3.43,3.43,0,0,0,.6-2.16,3.29,3.29,0,0,0-.61-2.14,2.06,2.06,0,0,0-1.7-.75,2.1,2.1,0,0,0-1.73.77,3.32,3.32,0,0,0-.62,2.15,3.22,3.22,0,0,0,.62,2.13A2.12,2.12,0,0,0,114.1,73.16Z"/><path class="cls-8" d="M120,74.06V68.63q0-.52,0-1a9.28,9.28,0,0,0-.09-1.06H121l.17,1.86-.17,0a2.35,2.35,0,0,1,.91-1.49,2.67,2.67,0,0,1,1.57-.5l.36,0,.33.07,0,1.11a2.45,2.45,0,0,0-.8-.12,2.06,2.06,0,0,0-1.25.34,2.12,2.12,0,0,0-.69.88,2.87,2.87,0,0,0-.22,1.12v4.3Z"/><path class="cls-8" d="M125.28,63.32h1.48V64.7h-1.48Zm.12,10.74V66.52h1.21v7.54Z"/><path class="cls-8" d="M131.86,74.17a3.28,3.28,0,0,1-1.76-.47,3.09,3.09,0,0,1-1.17-1.35,5.37,5.37,0,0,1,0-4.14,3.31,3.31,0,0,1,1.17-1.38,3.14,3.14,0,0,1,1.75-.49,3,3,0,0,1,1.76.51,2.5,2.5,0,0,1,1,1.45l-.18.12v-1.9h1.2v7.54h-1.2v-2l.18.09a2.52,2.52,0,0,1-1,1.46A3,3,0,0,1,131.86,74.17Zm.24-1a2.06,2.06,0,0,0,1.71-.75,3.43,3.43,0,0,0,.6-2.16,3.29,3.29,0,0,0-.61-2.14,2.06,2.06,0,0,0-1.7-.75,2.1,2.1,0,0,0-1.73.77,3.32,3.32,0,0,0-.62,2.15,3.22,3.22,0,0,0,.62,2.13A2.12,2.12,0,0,0,132.1,73.16Z"/><path class="cls-8" d="M138,74.06V63h1.21v5.43L139,68.3a2.51,2.51,0,0,1,1-1.44,2.87,2.87,0,0,1,1.74-.52,3.2,3.2,0,0,1,1.76.48,3.31,3.31,0,0,1,1.18,1.35,4.66,4.66,0,0,1,.42,2,4.83,4.83,0,0,1-.42,2.08,3.3,3.3,0,0,1-1.19,1.38,3.14,3.14,0,0,1-1.75.49,2.93,2.93,0,0,1-1.74-.51,2.52,2.52,0,0,1-1-1.46l.16-.16v2Zm3.54-.9a2,2,0,0,0,1.71-.77,3.4,3.4,0,0,0,.61-2.17,3.24,3.24,0,0,0-.61-2.11,2.34,2.34,0,0,0-3.44,0,3.33,3.33,0,0,0-.6,2.13,3.43,3.43,0,0,0,.6,2.16A2.09,2.09,0,0,0,141.51,73.16Z"/><path class="cls-8" d="M147,74.06V63h1.21v11Z"/><path class="cls-8" d="M156.72,73.16a3.58,3.58,0,0,1-1.27.74,4.77,4.77,0,0,1-1.58.27,4.13,4.13,0,0,1-2-.47,3.14,3.14,0,0,1-1.31-1.34,5,5,0,0,1,0-4.15,3.34,3.34,0,0,1,1.25-1.38,3.43,3.43,0,0,1,1.85-.49,3.29,3.29,0,0,1,1.73.44,2.91,2.91,0,0,1,1.1,1.27,4.76,4.76,0,0,1,.38,2v.22h-5.7v-.79h5l-.39.55a3.08,3.08,0,0,0-.52-2,1.88,1.88,0,0,0-1.59-.71,2.07,2.07,0,0,0-1.72.78,4,4,0,0,0,0,4.35,2.39,2.39,0,0,0,1.91.75,3.89,3.89,0,0,0,1.27-.21,4.15,4.15,0,0,0,1.16-.67Z"/><path class="cls-8" d="M158.49,72.52H160v1.54h-1.54Z"/><path class="cls-8" d="M162,72.52h1.55v1.54H162Z"/><path class="cls-8" d="M165.42,72.52H167v1.54h-1.54Z"/><path class="cls-8" d="M41.65,92.06V81.38h1l6.81,9.08-.36.09V81.38h1.17V92.06h-1L42.46,83l.35-.1v9.16Z"/><path class="cls-8" d="M58.87,91.16a3.53,3.53,0,0,1-1.26.74,4.83,4.83,0,0,1-1.59.27,4.09,4.09,0,0,1-2-.47,3.14,3.14,0,0,1-1.31-1.34,5,5,0,0,1,0-4.15A3.37,3.37,0,0,1,54,84.83a3.43,3.43,0,0,1,1.85-.49,3.26,3.26,0,0,1,1.72.44,2.93,2.93,0,0,1,1.11,1.27A4.76,4.76,0,0,1,59,88v.22h-5.7v-.79h5l-.39.55a3.08,3.08,0,0,0-.52-2,1.9,1.9,0,0,0-1.6-.71,2.06,2.06,0,0,0-1.71.78,4,4,0,0,0,0,4.35,2.39,2.39,0,0,0,1.91.75A3.89,3.89,0,0,0,57.31,91a4.15,4.15,0,0,0,1.16-.67Z"/><path class="cls-8" d="M62.79,92.06,60,84.52h1.27l2.33,6.64h-.39l2.4-6.64h1.06L69,91.16h-.39L71,84.52h1.2l-2.79,7.54H68.26l-2.49-6.79h.66L64,92.06Z"/><path class="cls-8" d="M79.93,92.06l-3.21-7.53H78l2.73,6.65h-.36l2.76-6.65h1.21l-3.25,7.53Z"/><path class="cls-8" d="M88.48,92.17a3.31,3.31,0,0,1-1.76-.47,3.22,3.22,0,0,1-1.17-1.35,4.93,4.93,0,0,1-.41-2.07,4.78,4.78,0,0,1,.42-2.07,3.26,3.26,0,0,1,1.18-1.38,3.08,3.08,0,0,1,1.74-.49,3,3,0,0,1,1.76.51,2.5,2.5,0,0,1,1,1.45l-.18.12v-1.9h1.2v7.54H91v-2l.18.09a2.52,2.52,0,0,1-1,1.46A3,3,0,0,1,88.48,92.17Zm.24-1a2.06,2.06,0,0,0,1.71-.75,3.43,3.43,0,0,0,.6-2.16,3.35,3.35,0,0,0-.6-2.14,2.09,2.09,0,0,0-1.71-.75,2.12,2.12,0,0,0-1.73.77,3.38,3.38,0,0,0-.62,2.15A3.28,3.28,0,0,0,87,90.41,2.13,2.13,0,0,0,88.72,91.16Z"/><path class="cls-8" d="M94.59,92.06V86.63c0-.35,0-.7,0-1s0-.71-.1-1.06h1.15l.17,1.86-.17,0a2.39,2.39,0,0,1,.91-1.49,2.67,2.67,0,0,1,1.57-.5l.36,0,.33.07,0,1.11a2.45,2.45,0,0,0-.8-.12,2.08,2.08,0,0,0-1.25.34,2.12,2.12,0,0,0-.69.88,3.06,3.06,0,0,0-.22,1.12v4.3Z"/><path class="cls-8" d="M99.9,81.32h1.48V82.7H99.9ZM100,92.06V84.52h1.21v7.54Z"/><path class="cls-8" d="M106.48,92.17a3.28,3.28,0,0,1-1.76-.47,3.09,3.09,0,0,1-1.17-1.35,4.93,4.93,0,0,1-.41-2.07,4.78,4.78,0,0,1,.42-2.07,3.31,3.31,0,0,1,1.17-1.38,3.14,3.14,0,0,1,1.75-.49,3,3,0,0,1,1.76.51,2.5,2.5,0,0,1,1,1.45l-.18.12v-1.9h1.2v7.54H109v-2l.18.09a2.52,2.52,0,0,1-1,1.46A3,3,0,0,1,106.48,92.17Zm.24-1a2.06,2.06,0,0,0,1.71-.75,3.43,3.43,0,0,0,.6-2.16,3.29,3.29,0,0,0-.61-2.14,2.06,2.06,0,0,0-1.7-.75,2.1,2.1,0,0,0-1.73.77,3.32,3.32,0,0,0-.62,2.15,3.22,3.22,0,0,0,.62,2.13A2.12,2.12,0,0,0,106.72,91.16Z"/><path class="cls-8" d="M112.59,92.06V81h1.21v5.43l-.16-.15a2.51,2.51,0,0,1,1-1.44,2.87,2.87,0,0,1,1.74-.52,3.2,3.2,0,0,1,1.76.48,3.31,3.31,0,0,1,1.18,1.35,4.66,4.66,0,0,1,.42,2,4.83,4.83,0,0,1-.42,2.08,3.23,3.23,0,0,1-1.19,1.38,3.14,3.14,0,0,1-1.75.49,2.93,2.93,0,0,1-1.74-.51,2.52,2.52,0,0,1-1-1.46l.16-.16v2Zm3.54-.9a2,2,0,0,0,1.71-.77,3.4,3.4,0,0,0,.61-2.17,3.24,3.24,0,0,0-.61-2.11,2.34,2.34,0,0,0-3.44,0,3.33,3.33,0,0,0-.6,2.13,3.43,3.43,0,0,0,.6,2.16A2.09,2.09,0,0,0,116.13,91.16Z"/><path class="cls-8" d="M121.59,92.06V81h1.21v11Z"/><path class="cls-8" d="M131.34,91.16a3.58,3.58,0,0,1-1.27.74,4.77,4.77,0,0,1-1.58.27,4.13,4.13,0,0,1-2-.47,3.14,3.14,0,0,1-1.31-1.34,5,5,0,0,1,0-4.15,3.34,3.34,0,0,1,1.25-1.38,3.43,3.43,0,0,1,1.85-.49,3.29,3.29,0,0,1,1.73.44,2.91,2.91,0,0,1,1.1,1.27,4.76,4.76,0,0,1,.38,2v.22h-5.7v-.79h5l-.39.55a3.08,3.08,0,0,0-.52-2,1.88,1.88,0,0,0-1.59-.71,2.07,2.07,0,0,0-1.72.78,4,4,0,0,0,0,4.35,2.39,2.39,0,0,0,1.91.75,3.89,3.89,0,0,0,1.27-.21,4.15,4.15,0,0,0,1.16-.67Z"/><path class="cls-8" d="M133.11,90.52h1.54v1.54h-1.54Z"/><path class="cls-8" d="M136.57,90.52h1.55v1.54h-1.55Z"/><path class="cls-8" d="M140,90.52h1.54v1.54H140Z"/></g><rect class="cls-11" x="190.38" y="41.69" width="109.32" height="125.56" rx="5.67"/><g class="cls-5"><path class="cls-8" d="M199.72,54.67a3.7,3.7,0,0,1-1.92-.48,3.2,3.2,0,0,1-1.25-1.35,4.44,4.44,0,0,1-.45-2.06,4.56,4.56,0,0,1,.45-2.06,3.37,3.37,0,0,1,1.28-1.39,3.81,3.81,0,0,1,1.95-.49,4.39,4.39,0,0,1,1.48.26,3.28,3.28,0,0,1,1.17.73l-.4.9a4.35,4.35,0,0,0-1.09-.65,2.77,2.77,0,0,0-1.1-.22,2.28,2.28,0,0,0-1.81.76,3.24,3.24,0,0,0-.67,2.16,3.1,3.1,0,0,0,.66,2.13,2.27,2.27,0,0,0,1.82.75,3,3,0,0,0,1.09-.21,4.73,4.73,0,0,0,1.1-.65l.4.89a3.55,3.55,0,0,1-1.2.72A4.57,4.57,0,0,1,199.72,54.67Z"/><path class="cls-8" d="M204,54.56v-11h1.21v5l-.19.15a2.61,2.61,0,0,1,1.05-1.39,3.09,3.09,0,0,1,1.69-.47c1.81,0,2.72,1,2.72,3v4.74h-1.22V49.89a2.32,2.32,0,0,0-.42-1.54,1.64,1.64,0,0,0-1.32-.49,2.21,2.21,0,0,0-1.68.65,2.37,2.37,0,0,0-.63,1.73v4.32Z"/><path class="cls-8" d="M215.65,54.67a3.28,3.28,0,0,1-1.76-.47,3.18,3.18,0,0,1-1.18-1.35,4.93,4.93,0,0,1-.41-2.07,4.74,4.74,0,0,1,.42-2.06,3.36,3.36,0,0,1,1.18-1.39,3.2,3.2,0,0,1,1.75-.49,2.94,2.94,0,0,1,1.75.51,2.54,2.54,0,0,1,1,1.46l-.18.12V47h1.2v7.54h-1.2v-2l.18.09a2.54,2.54,0,0,1-1,1.46A2.94,2.94,0,0,1,215.65,54.67Zm.24-1a2.06,2.06,0,0,0,1.71-.75,3.4,3.4,0,0,0,.6-2.15,3.3,3.3,0,0,0-.61-2.15,2.06,2.06,0,0,0-1.7-.75,2.13,2.13,0,0,0-1.74.77,3.38,3.38,0,0,0-.62,2.15,3.26,3.26,0,0,0,.62,2.13A2.12,2.12,0,0,0,215.89,53.66Z"/><path class="cls-8" d="M221.75,54.56V49.14c0-.36,0-.71,0-1.06s0-.71-.1-1.06h1.16l.16,1.86-.16-.05a2.4,2.4,0,0,1,.9-1.49,2.67,2.67,0,0,1,1.57-.5l.37,0,.32.07,0,1.11a2.39,2.39,0,0,0-.79-.12,2,2,0,0,0-1.25.35,1.89,1.89,0,0,0-.69.87,2.87,2.87,0,0,0-.22,1.12v4.3Z"/><path class="cls-8" d="M229.93,54.67a3.28,3.28,0,0,1-1.76-.47A3.18,3.18,0,0,1,227,52.85a4.93,4.93,0,0,1-.41-2.07,4.74,4.74,0,0,1,.42-2.06,3.29,3.29,0,0,1,1.18-1.39,3.2,3.2,0,0,1,1.75-.49,2.94,2.94,0,0,1,1.75.51,2.54,2.54,0,0,1,1,1.46l-.18.12V47h1.2v7.54h-1.2v-2l.18.09a2.54,2.54,0,0,1-1,1.46A2.94,2.94,0,0,1,229.93,54.67Zm.24-1a2.06,2.06,0,0,0,1.71-.75,3.4,3.4,0,0,0,.6-2.15,3.3,3.3,0,0,0-.61-2.15,2.07,2.07,0,0,0-1.7-.75,2.13,2.13,0,0,0-1.74.77,3.38,3.38,0,0,0-.62,2.15,3.26,3.26,0,0,0,.62,2.13A2.12,2.12,0,0,0,230.17,53.66Z"/><path class="cls-8" d="M239.2,54.67a3.7,3.7,0,0,1-1.92-.48A3.2,3.2,0,0,1,236,52.84a4.44,4.44,0,0,1-.45-2.06,4.56,4.56,0,0,1,.45-2.06,3.37,3.37,0,0,1,1.28-1.39,3.81,3.81,0,0,1,1.95-.49,4.29,4.29,0,0,1,1.47.26,3.24,3.24,0,0,1,1.18.73l-.4.9a4.54,4.54,0,0,0-1.09-.65,2.77,2.77,0,0,0-1.1-.22,2.27,2.27,0,0,0-1.81.76,3.24,3.24,0,0,0-.67,2.16,3.1,3.1,0,0,0,.66,2.13,2.27,2.27,0,0,0,1.82.75,3,3,0,0,0,1.09-.21,4.73,4.73,0,0,0,1.1-.65l.4.89a3.51,3.51,0,0,1-1.21.72A4.46,4.46,0,0,1,239.2,54.67Z"/><path class="cls-8" d="M242.41,48V47h4.84v1Zm4.81,5.5v1a3.22,3.22,0,0,1-.5.11,3.16,3.16,0,0,1-.55,0,2.29,2.29,0,0,1-1.67-.6,2.37,2.37,0,0,1-.62-1.8V45.08l1.21-.43v7.46a2.07,2.07,0,0,0,.17.92.93.93,0,0,0,.48.46,1.6,1.6,0,0,0,.67.13,2.54,2.54,0,0,0,.41,0A2.73,2.73,0,0,0,247.22,53.48Z"/><path class="cls-8" d="M254.9,53.66a3.36,3.36,0,0,1-1.27.74,4.73,4.73,0,0,1-1.58.27,4,4,0,0,1-2-.47,3.06,3.06,0,0,1-1.3-1.34,4.39,4.39,0,0,1-.46-2.09,4.45,4.45,0,0,1,.45-2.05A3.44,3.44,0,0,1,250,47.33a3.58,3.58,0,0,1,1.86-.49,3.26,3.26,0,0,1,1.72.44,2.85,2.85,0,0,1,1.1,1.27,4.6,4.6,0,0,1,.39,2v.23h-5.7V50h5l-.39.56a3.17,3.17,0,0,0-.52-2,1.91,1.91,0,0,0-1.6-.71,2.09,2.09,0,0,0-1.72.78,4,4,0,0,0,0,4.35,2.39,2.39,0,0,0,1.92.75,3.89,3.89,0,0,0,1.27-.21,4.15,4.15,0,0,0,1.16-.67Z"/><path class="cls-8" d="M256.88,54.56V49.14c0-.36,0-.71,0-1.06s-.05-.71-.1-1.06h1.16l.16,1.86-.16-.05a2.4,2.4,0,0,1,.9-1.49,2.67,2.67,0,0,1,1.57-.5l.37,0,.32.07,0,1.11a2.39,2.39,0,0,0-.79-.12,2,2,0,0,0-1.95,1.22,3.05,3.05,0,0,0-.21,1.12v4.3Z"/><path class="cls-8" d="M195.49,66V65h4.84v1Zm4.81,5.5v1a3,3,0,0,1-.5.11,3.09,3.09,0,0,1-.55,0,2.31,2.31,0,0,1-1.67-.6,2.41,2.41,0,0,1-.62-1.8V63.08l1.21-.43v7.46a1.92,1.92,0,0,0,.18.92.88.88,0,0,0,.47.46,1.6,1.6,0,0,0,.67.13,2.54,2.54,0,0,0,.41,0A2.73,2.73,0,0,0,200.3,71.48Z"/><path class="cls-8" d="M208,71.66a3.39,3.39,0,0,1-1.26.74,4.83,4.83,0,0,1-1.59.27,4,4,0,0,1-2-.47,3.08,3.08,0,0,1-1.31-1.34,4.51,4.51,0,0,1-.46-2.09,4.45,4.45,0,0,1,.45-2,3.39,3.39,0,0,1,1.26-1.39,3.52,3.52,0,0,1,1.85-.49,3.26,3.26,0,0,1,1.72.44,2.93,2.93,0,0,1,1.11,1.27,4.76,4.76,0,0,1,.38,2v.23h-5.7V68h5l-.39.56a3.11,3.11,0,0,0-.52-2,1.9,1.9,0,0,0-1.6-.71,2.06,2.06,0,0,0-1.71.78,4,4,0,0,0,0,4.35,2.35,2.35,0,0,0,1.91.75,3.89,3.89,0,0,0,1.27-.21,4.15,4.15,0,0,0,1.16-.67Z"/><path class="cls-8" d="M210.34,72.56h-1.49L212,68.68l.7-.88L214.88,65h1.49l-2.94,3.66-.74.92Zm4.74,0-2.39-3-.7-.92L209,65h1.47l2.19,2.78.74.88,3.1,3.88Z"/><path class="cls-8" d="M216.82,66V65h4.84v1Zm4.81,5.5v1a3,3,0,0,1-.5.11,3.16,3.16,0,0,1-.55,0,2.29,2.29,0,0,1-1.67-.6,2.37,2.37,0,0,1-.62-1.8V63.08l1.21-.43v7.46a2.07,2.07,0,0,0,.17.92.93.93,0,0,0,.48.46,1.6,1.6,0,0,0,.67.13,2.54,2.54,0,0,0,.41,0A2.73,2.73,0,0,0,221.63,71.48Z"/><path class="cls-8" d="M196.55,90.56v-11h1.22V85l-.17-.14a2.54,2.54,0,0,1,1-1.45,2.87,2.87,0,0,1,1.74-.52,3.17,3.17,0,0,1,1.75.48,3.24,3.24,0,0,1,1.18,1.35,4.57,4.57,0,0,1,.43,2.06,4.64,4.64,0,0,1-.43,2.07,3.21,3.21,0,0,1-1.18,1.38,3.14,3.14,0,0,1-1.75.49,2.93,2.93,0,0,1-1.74-.51,2.54,2.54,0,0,1-1-1.46l.17-.16v2Zm3.54-.9a2,2,0,0,0,1.71-.77,3.39,3.39,0,0,0,.62-2.16,3.25,3.25,0,0,0-.62-2.12,2.09,2.09,0,0,0-1.71-.75,2,2,0,0,0-1.72.76,4.13,4.13,0,0,0,0,4.29A2.07,2.07,0,0,0,200.09,89.66Z"/><path class="cls-8" d="M208.67,90.67a3.6,3.6,0,0,1-1.88-.48,3.21,3.21,0,0,1-1.24-1.36,5,5,0,0,1,0-4.14,3.24,3.24,0,0,1,1.24-1.37,3.6,3.6,0,0,1,1.88-.48,3.64,3.64,0,0,1,1.89.48,3.24,3.24,0,0,1,1.24,1.37,5.09,5.09,0,0,1,0,4.14,3.21,3.21,0,0,1-1.24,1.36A3.64,3.64,0,0,1,208.67,90.67Zm0-1a2.08,2.08,0,0,0,1.72-.74,4.08,4.08,0,0,0,0-4.31,2.32,2.32,0,0,0-3.42,0,3.24,3.24,0,0,0-.63,2.15,3.35,3.35,0,0,0,.61,2.16A2.1,2.1,0,0,0,208.67,89.66Z"/><path class="cls-8" d="M217.25,90.67a3.58,3.58,0,0,1-1.88-.48,3.21,3.21,0,0,1-1.24-1.36,5,5,0,0,1,0-4.14,3.24,3.24,0,0,1,1.24-1.37,3.92,3.92,0,0,1,3.76,0,3.2,3.2,0,0,1,1.25,1.37,5.09,5.09,0,0,1,0,4.14,3.17,3.17,0,0,1-1.25,1.36A3.58,3.58,0,0,1,217.25,90.67Zm0-1a2.08,2.08,0,0,0,1.72-.74,4.08,4.08,0,0,0,0-4.31,2.09,2.09,0,0,0-1.71-.75,2.12,2.12,0,0,0-1.72.75,4.08,4.08,0,0,0,0,4.31A2.08,2.08,0,0,0,217.25,89.66Z"/><path class="cls-8" d="M222.71,90.56v-11h1.22v11Z"/><path class="cls-8" d="M232.46,89.66a3.36,3.36,0,0,1-1.27.74,4.73,4.73,0,0,1-1.58.27,4,4,0,0,1-2-.47,3.06,3.06,0,0,1-1.3-1.34,4.39,4.39,0,0,1-.46-2.09,4.45,4.45,0,0,1,.45-2,3.44,3.44,0,0,1,1.25-1.39,3.58,3.58,0,0,1,1.86-.49,3.26,3.26,0,0,1,1.72.44,2.85,2.85,0,0,1,1.1,1.27,4.6,4.6,0,0,1,.39,2v.23h-5.7V86h5l-.39.56a3.17,3.17,0,0,0-.52-2,1.91,1.91,0,0,0-1.6-.71,2.09,2.09,0,0,0-1.72.78,4,4,0,0,0,0,4.35,2.39,2.39,0,0,0,1.92.75,3.89,3.89,0,0,0,1.27-.21,4.15,4.15,0,0,0,1.16-.67Z"/><path class="cls-8" d="M237.34,90.67a3.34,3.34,0,0,1-1.77-.47,3.22,3.22,0,0,1-1.17-1.35,4.93,4.93,0,0,1-.41-2.07,4.74,4.74,0,0,1,.42-2.06,3.29,3.29,0,0,1,1.18-1.39,3.2,3.2,0,0,1,1.75-.49,2.94,2.94,0,0,1,1.75.51,2.54,2.54,0,0,1,1,1.46l-.18.12V83h1.2v7.54h-1.2v-2l.18.09a2.54,2.54,0,0,1-1,1.46A2.94,2.94,0,0,1,237.34,90.67Zm.24-1a2.06,2.06,0,0,0,1.71-.75,3.4,3.4,0,0,0,.6-2.15,3.36,3.36,0,0,0-.61-2.15,2.07,2.07,0,0,0-1.7-.75,2.13,2.13,0,0,0-1.74.77,3.38,3.38,0,0,0-.62,2.15,3.26,3.26,0,0,0,.62,2.13A2.12,2.12,0,0,0,237.58,89.66Z"/><path class="cls-8" d="M243.44,90.56V85.14c0-.36,0-.71,0-1.06s0-.71-.1-1.06h1.16l.13,1.56-.15.12a2.61,2.61,0,0,1,1-1.39,3.12,3.12,0,0,1,1.7-.47c1.81,0,2.71,1,2.71,3v4.74h-1.21V85.89a2.32,2.32,0,0,0-.42-1.54,1.64,1.64,0,0,0-1.32-.49,2.21,2.21,0,0,0-1.68.65,2.37,2.37,0,0,0-.63,1.73v4.32Z"/><path class="cls-8" d="M199.1,108.67a4.35,4.35,0,0,1-3-1l.4-.89a4.47,4.47,0,0,0,1.24.68,4.55,4.55,0,0,0,1.42.21,2.34,2.34,0,0,0,1.3-.29.94.94,0,0,0,.44-.84.92.92,0,0,0-.3-.72,2.42,2.42,0,0,0-1-.43l-1.28-.3a2.68,2.68,0,0,1-1.46-.75,1.81,1.81,0,0,1-.52-1.29,2,2,0,0,1,.36-1.16,2.45,2.45,0,0,1,1-.79,3.94,3.94,0,0,1,1.53-.28,4.38,4.38,0,0,1,1.5.26,3.14,3.14,0,0,1,1.18.73l-.4.89a3.7,3.7,0,0,0-1.1-.67,3.17,3.17,0,0,0-1.18-.22,2.12,2.12,0,0,0-1.25.32,1,1,0,0,0-.45.85,1,1,0,0,0,.28.73,1.85,1.85,0,0,0,.89.42l1.28.32a3.07,3.07,0,0,1,1.57.74,1.94,1.94,0,0,1-.3,2.87A3.5,3.5,0,0,1,199.1,108.67Z"/><path class="cls-8" d="M204,108.56v-11h1.22v5l-.2.15a2.61,2.61,0,0,1,1.05-1.39,3.12,3.12,0,0,1,1.7-.47c1.81,0,2.71,1,2.71,3v4.74h-1.21v-4.67a2.32,2.32,0,0,0-.42-1.54,1.64,1.64,0,0,0-1.32-.49,2.21,2.21,0,0,0-1.68.65,2.37,2.37,0,0,0-.63,1.73v4.32Z"/><path class="cls-8" d="M215.89,108.67a3.58,3.58,0,0,1-1.88-.48,3.23,3.23,0,0,1-1.25-1.36,5.09,5.09,0,0,1,0-4.14,3.26,3.26,0,0,1,1.25-1.37,3.92,3.92,0,0,1,3.76,0,3.26,3.26,0,0,1,1.25,1.37,5.09,5.09,0,0,1,0,4.14,3.23,3.23,0,0,1-1.25,1.36A3.6,3.6,0,0,1,215.89,108.67Zm0-1a2.09,2.09,0,0,0,1.72-.74,3.35,3.35,0,0,0,.6-2.16,3.3,3.3,0,0,0-.61-2.15,2.09,2.09,0,0,0-1.71-.75,2.12,2.12,0,0,0-1.72.75,3.24,3.24,0,0,0-.62,2.15,3.29,3.29,0,0,0,.61,2.16A2.08,2.08,0,0,0,215.89,107.66Z"/><path class="cls-8" d="M221.35,108.56v-5.42c0-.36,0-.71,0-1.06a9.28,9.28,0,0,0-.09-1.06h1.15l.17,1.86-.17,0a2.37,2.37,0,0,1,.91-1.49,2.65,2.65,0,0,1,1.57-.5l.36,0,.33.07,0,1.11a2.45,2.45,0,0,0-.8-.12,2,2,0,0,0-1.25.35,1.89,1.89,0,0,0-.69.87,2.87,2.87,0,0,0-.22,1.12v4.3Z"/><path class="cls-8" d="M226.31,102v-1h4.85v1Zm4.82,5.5v1a3.1,3.1,0,0,1-.51.11,3,3,0,0,1-.54,0,2.33,2.33,0,0,1-1.68-.6,2.41,2.41,0,0,1-.62-1.8V99.08l1.22-.43v7.46a1.94,1.94,0,0,0,.17.92.88.88,0,0,0,.47.46,1.65,1.65,0,0,0,.68.13,2.41,2.41,0,0,0,.4,0A2.83,2.83,0,0,0,231.13,107.48Z"/><path class="cls-8" d="M236.54,108.56v-5.42c0-.36,0-.71,0-1.06s-.05-.71-.1-1.06h1.16l.13,1.56-.15.12a2.61,2.61,0,0,1,1.05-1.39,3.12,3.12,0,0,1,1.7-.47c1.81,0,2.71,1,2.71,3v4.74h-1.21v-4.67a2.32,2.32,0,0,0-.42-1.54,1.64,1.64,0,0,0-1.32-.49,2.21,2.21,0,0,0-1.68.65,2.37,2.37,0,0,0-.63,1.73v4.32Z"/><path class="cls-8" d="M248,108.67a2.64,2.64,0,0,1-2-.75,3.22,3.22,0,0,1-.68-2.22V101h1.22v4.65a2.24,2.24,0,0,0,.42,1.5,1.59,1.59,0,0,0,1.27.48,2.13,2.13,0,0,0,1.62-.64,2.43,2.43,0,0,0,.62-1.73V101h1.21v7.54h-1.18v-1.63l.18-.09a2.46,2.46,0,0,1-1,1.36A2.8,2.8,0,0,1,248,108.67Z"/><path class="cls-8" d="M254,108.56v-5.42c0-.36,0-.71,0-1.06s0-.71-.1-1.06H255l.13,1.56-.15.11a2.52,2.52,0,0,1,.94-1.37,2.62,2.62,0,0,1,1.58-.48,2.46,2.46,0,0,1,1.7.54A2.62,2.62,0,0,1,260,103l-.36-.2a2.6,2.6,0,0,1,1-1.45,2.87,2.87,0,0,1,1.75-.54,2.35,2.35,0,0,1,1.88.74,3.4,3.4,0,0,1,.63,2.24v4.74h-1.22v-4.67a2.53,2.53,0,0,0-.37-1.54,1.4,1.4,0,0,0-1.19-.49,1.82,1.82,0,0,0-1.49.65,2.59,2.59,0,0,0-.55,1.75v4.3h-1.21v-4.67a2.45,2.45,0,0,0-.39-1.54,1.4,1.4,0,0,0-1.19-.49,1.86,1.86,0,0,0-1.51.65,2.63,2.63,0,0,0-.54,1.75v4.3Z"/><path class="cls-8" d="M267.16,108.56v-11h1.21V103l-.16-.14a2.53,2.53,0,0,1,1-1.45,2.87,2.87,0,0,1,1.74-.52,3.1,3.1,0,0,1,2.93,1.83,4.57,4.57,0,0,1,.43,2.06,4.64,4.64,0,0,1-.43,2.07,3.21,3.21,0,0,1-1.18,1.38,3.14,3.14,0,0,1-1.75.49,2.93,2.93,0,0,1-1.74-.51,2.52,2.52,0,0,1-1-1.46l.16-.16v2Zm3.54-.9a2,2,0,0,0,1.71-.77,3.39,3.39,0,0,0,.61-2.16,3.25,3.25,0,0,0-.61-2.12,2.34,2.34,0,0,0-3.44,0,4.13,4.13,0,0,0,0,4.29A2.09,2.09,0,0,0,270.7,107.66Z"/><path class="cls-8" d="M282.34,107.66a3.44,3.44,0,0,1-1.27.74,4.77,4.77,0,0,1-1.58.27,4,4,0,0,1-2-.47,3.08,3.08,0,0,1-1.31-1.34,4.51,4.51,0,0,1-.45-2.09,4.45,4.45,0,0,1,.45-2,3.37,3.37,0,0,1,1.25-1.39,3.52,3.52,0,0,1,1.85-.49,3.29,3.29,0,0,1,1.73.44,2.91,2.91,0,0,1,1.1,1.27,4.76,4.76,0,0,1,.38,2v.23h-5.7V104h5l-.39.56a3.11,3.11,0,0,0-.52-2,1.88,1.88,0,0,0-1.59-.71,2.07,2.07,0,0,0-1.72.78,4,4,0,0,0,0,4.35,2.35,2.35,0,0,0,1.91.75,3.89,3.89,0,0,0,1.27-.21,4.15,4.15,0,0,0,1.16-.67Z"/><path class="cls-8" d="M284.32,108.56v-5.42c0-.36,0-.71,0-1.06a9.28,9.28,0,0,0-.09-1.06h1.15l.17,1.86-.17,0a2.37,2.37,0,0,1,.91-1.49,2.65,2.65,0,0,1,1.57-.5l.36,0,.33.07,0,1.11a2.45,2.45,0,0,0-.8-.12,2,2,0,0,0-1.25.35,1.89,1.89,0,0,0-.69.87,2.87,2.87,0,0,0-.22,1.12v4.3Z"/><path class="cls-8" d="M196.55,126.56v-5.42c0-.36,0-.71,0-1.06a9.28,9.28,0,0,0-.1-1.06h1.16l.13,1.56-.15.12a2.61,2.61,0,0,1,1.05-1.39,3.12,3.12,0,0,1,1.7-.47c1.81,0,2.71,1,2.71,3v4.74h-1.21v-4.67a2.32,2.32,0,0,0-.42-1.54,1.64,1.64,0,0,0-1.32-.49,2.21,2.21,0,0,0-1.68.65,2.37,2.37,0,0,0-.63,1.73v4.32Z"/><path class="cls-8" d="M208,126.67a2.6,2.6,0,0,1-2-.75,3.17,3.17,0,0,1-.69-2.22V119h1.22v4.65a2.24,2.24,0,0,0,.42,1.5,1.59,1.59,0,0,0,1.27.48,2.13,2.13,0,0,0,1.62-.64,2.43,2.43,0,0,0,.62-1.73V119h1.21v7.54h-1.18v-1.63l.18-.09a2.49,2.49,0,0,1-1,1.36A2.86,2.86,0,0,1,208,126.67Z"/><path class="cls-8" d="M214,126.56v-5.42c0-.36,0-.71,0-1.06s-.05-.71-.1-1.06H215l.13,1.56-.15.11a2.57,2.57,0,0,1,.94-1.37,2.62,2.62,0,0,1,1.58-.48,2.51,2.51,0,0,1,1.71.54A2.67,2.67,0,0,1,220,121l-.36-.2a2.56,2.56,0,0,1,1-1.45,2.82,2.82,0,0,1,1.74-.54,2.35,2.35,0,0,1,1.88.74,3.4,3.4,0,0,1,.63,2.24v4.74h-1.22v-4.67a2.53,2.53,0,0,0-.37-1.54,1.4,1.4,0,0,0-1.19-.49,1.83,1.83,0,0,0-1.49.65,2.59,2.59,0,0,0-.55,1.75v4.3h-1.21v-4.67a2.45,2.45,0,0,0-.39-1.54,1.4,1.4,0,0,0-1.19-.49,1.82,1.82,0,0,0-1.5.65,2.59,2.59,0,0,0-.55,1.75v4.3Z"/><path class="cls-8" d="M227.17,126.56v-11h1.21V121l-.16-.14a2.53,2.53,0,0,1,1-1.45,2.87,2.87,0,0,1,1.74-.52,3.2,3.2,0,0,1,1.76.48,3.31,3.31,0,0,1,1.18,1.35,4.7,4.7,0,0,1,.42,2.06,4.78,4.78,0,0,1-.42,2.07,3.23,3.23,0,0,1-1.19,1.38,3.14,3.14,0,0,1-1.75.49,2.93,2.93,0,0,1-1.74-.51,2.52,2.52,0,0,1-1-1.46l.16-.16v2Zm3.54-.9a2,2,0,0,0,1.71-.77,3.39,3.39,0,0,0,.61-2.16,3.25,3.25,0,0,0-.61-2.12,2.34,2.34,0,0,0-3.44,0,4.13,4.13,0,0,0,0,4.29A2.09,2.09,0,0,0,230.71,125.66Z"/><path class="cls-8" d="M242.35,125.66a3.36,3.36,0,0,1-1.27.74,4.73,4.73,0,0,1-1.58.27,4,4,0,0,1-2-.47,3.06,3.06,0,0,1-1.3-1.34,4.39,4.39,0,0,1-.46-2.09,4.45,4.45,0,0,1,.45-2,3.37,3.37,0,0,1,1.25-1.39,3.55,3.55,0,0,1,1.85-.49,3.29,3.29,0,0,1,1.73.44,2.85,2.85,0,0,1,1.1,1.27,4.6,4.6,0,0,1,.38,2v.23h-5.7V122h5l-.39.56a3.17,3.17,0,0,0-.51-2,1.91,1.91,0,0,0-1.6-.71,2.07,2.07,0,0,0-1.72.78,3.26,3.26,0,0,0-.62,2.13,3.31,3.31,0,0,0,.65,2.22,2.37,2.37,0,0,0,1.91.75,3.85,3.85,0,0,0,1.27-.21,4,4,0,0,0,1.16-.67Z"/><path class="cls-8" d="M244.33,126.56v-5.42c0-.36,0-.71,0-1.06a9.28,9.28,0,0,0-.09-1.06h1.15l.17,1.86-.17,0a2.37,2.37,0,0,1,.91-1.49,2.65,2.65,0,0,1,1.57-.5l.36,0,.33.07,0,1.11a2.45,2.45,0,0,0-.8-.12,2,2,0,0,0-1.25.35,1.89,1.89,0,0,0-.69.87,2.87,2.87,0,0,0-.22,1.12v4.3Z"/><path class="cls-8" d="M196.55,144.56v-11h1.22v11Z"/><path class="cls-8" d="M203,144.67a3.28,3.28,0,0,1-1.76-.47,3.09,3.09,0,0,1-1.17-1.35,5.29,5.29,0,0,1,0-4.13,3.36,3.36,0,0,1,1.18-1.39,3.22,3.22,0,0,1,1.75-.49,2.94,2.94,0,0,1,1.75.51,2.54,2.54,0,0,1,1,1.46l-.18.12V137h1.2v7.54h-1.2v-1.95l.18.09a2.54,2.54,0,0,1-1,1.46A2.94,2.94,0,0,1,203,144.67Zm.24-1a2.06,2.06,0,0,0,1.71-.75,3.4,3.4,0,0,0,.6-2.15,3.3,3.3,0,0,0-.61-2.15,2.06,2.06,0,0,0-1.7-.75,2.1,2.1,0,0,0-1.73.77,3.32,3.32,0,0,0-.63,2.15,3.2,3.2,0,0,0,.63,2.13A2.09,2.09,0,0,0,203.26,143.66Z"/><path class="cls-8" d="M209.12,144.56v-5.42c0-.36,0-.71,0-1.06A9.28,9.28,0,0,0,209,137h1.16l.16,1.86-.16,0a2.37,2.37,0,0,1,.91-1.49,2.62,2.62,0,0,1,1.56-.5l.37,0,.32.07,0,1.11a2.39,2.39,0,0,0-.79-.12,2,2,0,0,0-1.25.35,1.89,1.89,0,0,0-.69.87,2.87,2.87,0,0,0-.22,1.12v4.3Z"/><path class="cls-8" d="M217.72,147.91a5.53,5.53,0,0,1-3-.78l.21-1a6,6,0,0,0,1.33.59,5.24,5.24,0,0,0,1.43.17,2.21,2.21,0,0,0,1.64-.57,2.41,2.41,0,0,0,.56-1.72v-2l.17-.2a3,3,0,0,1-.56,1,2.67,2.67,0,0,1-.94.68,3.15,3.15,0,0,1-1.26.24,3.28,3.28,0,0,1-1.76-.47,3.35,3.35,0,0,1-1.19-1.31,4.73,4.73,0,0,1,0-3.94,3.18,3.18,0,0,1,3-1.78,3,3,0,0,1,1.78.52,2.54,2.54,0,0,1,1,1.45l-.18-.17V137h1.21v7.49a3.44,3.44,0,0,1-.86,2.55A3.51,3.51,0,0,1,217.72,147.91Zm-.15-4.59a2.14,2.14,0,0,0,1.72-.73,3.54,3.54,0,0,0,0-4,2.14,2.14,0,0,0-1.72-.73,2.19,2.19,0,0,0-1.75.73,3.46,3.46,0,0,0,0,4A2.21,2.21,0,0,0,217.57,143.32Z"/><path class="cls-8" d="M229.64,143.66a3.39,3.39,0,0,1-1.26.74,4.83,4.83,0,0,1-1.59.27,4,4,0,0,1-2-.47,3.08,3.08,0,0,1-1.31-1.34,4.51,4.51,0,0,1-.46-2.09,4.45,4.45,0,0,1,.45-2.05,3.44,3.44,0,0,1,1.25-1.39,3.58,3.58,0,0,1,1.86-.49,3.26,3.26,0,0,1,1.72.44,2.93,2.93,0,0,1,1.11,1.27,4.76,4.76,0,0,1,.38,2v.23h-5.7V140h5l-.39.56a3.11,3.11,0,0,0-.52-2,1.9,1.9,0,0,0-1.6-.71,2.09,2.09,0,0,0-1.72.78,3.31,3.31,0,0,0-.62,2.13,3.25,3.25,0,0,0,.66,2.22,2.35,2.35,0,0,0,1.91.75,3.89,3.89,0,0,0,1.27-.21,4.15,4.15,0,0,0,1.16-.67Z"/><path class="cls-8" d="M235.54,144.56v-5.42c0-.36,0-.71,0-1.06a9.28,9.28,0,0,0-.09-1.06h1.15l.14,1.56-.15.12a2.61,2.61,0,0,1,1.05-1.39,3.09,3.09,0,0,1,1.69-.47c1.81,0,2.72,1,2.72,3v4.74H240.8v-4.67a2.32,2.32,0,0,0-.42-1.54,1.64,1.64,0,0,0-1.32-.49,2.21,2.21,0,0,0-1.68.65,2.37,2.37,0,0,0-.63,1.73v4.32Z"/><path class="cls-8" d="M247,144.67a2.6,2.6,0,0,1-2-.75,3.17,3.17,0,0,1-.68-2.22V137h1.21v4.65a2.24,2.24,0,0,0,.42,1.5,1.62,1.62,0,0,0,1.28.48,2.13,2.13,0,0,0,1.62-.64,2.42,2.42,0,0,0,.61-1.73V137h1.22v7.54h-1.19v-1.63l.18-.09a2.49,2.49,0,0,1-1,1.36A2.86,2.86,0,0,1,247,144.67Z"/><path class="cls-8" d="M253,144.56v-5.42c0-.36,0-.71,0-1.06a9.28,9.28,0,0,0-.09-1.06H254l.14,1.56-.15.11a2.56,2.56,0,0,1,.93-1.37,2.67,2.67,0,0,1,1.59-.48,2.48,2.48,0,0,1,1.7.54A2.67,2.67,0,0,1,259,139l-.36-.2a2.56,2.56,0,0,1,1-1.45,2.85,2.85,0,0,1,1.75-.54,2.33,2.33,0,0,1,1.87.74,3.4,3.4,0,0,1,.63,2.24v4.74h-1.21v-4.67a2.52,2.52,0,0,0-.38-1.54,1.38,1.38,0,0,0-1.18-.49,1.85,1.85,0,0,0-1.5.65,2.63,2.63,0,0,0-.54,1.75v4.3h-1.22v-4.67a2.52,2.52,0,0,0-.38-1.54,1.41,1.41,0,0,0-1.19-.49,1.84,1.84,0,0,0-1.51.65,2.59,2.59,0,0,0-.55,1.75v4.3Z"/><path class="cls-8" d="M266.15,144.56v-11h1.22V139l-.17-.14a2.54,2.54,0,0,1,1-1.45,2.87,2.87,0,0,1,1.74-.52,3.17,3.17,0,0,1,1.75.48,3.31,3.31,0,0,1,1.18,1.35,4.7,4.7,0,0,1,.43,2.06,4.78,4.78,0,0,1-.43,2.07,3.23,3.23,0,0,1-1.19,1.38,3.08,3.08,0,0,1-1.74.49,2.93,2.93,0,0,1-1.74-.51,2.54,2.54,0,0,1-1-1.46l.17-.16v2Zm3.54-.9a2,2,0,0,0,1.71-.77,3.39,3.39,0,0,0,.62-2.16,3.25,3.25,0,0,0-.62-2.12,2.09,2.09,0,0,0-1.71-.75,2,2,0,0,0-1.72.76,4.13,4.13,0,0,0,0,4.29A2.07,2.07,0,0,0,269.69,143.66Z"/><path class="cls-8" d="M281.33,143.66a3.36,3.36,0,0,1-1.27.74,4.73,4.73,0,0,1-1.58.27,4,4,0,0,1-2-.47,3.06,3.06,0,0,1-1.3-1.34,4.39,4.39,0,0,1-.46-2.09,4.45,4.45,0,0,1,.45-2.05,3.44,3.44,0,0,1,1.25-1.39,3.58,3.58,0,0,1,1.86-.49,3.26,3.26,0,0,1,1.72.44,2.85,2.85,0,0,1,1.1,1.27,4.6,4.6,0,0,1,.39,2v.23h-5.7V140h5l-.39.56a3.17,3.17,0,0,0-.52-2,1.91,1.91,0,0,0-1.6-.71,2.09,2.09,0,0,0-1.72.78,4,4,0,0,0,0,4.35,2.39,2.39,0,0,0,1.92.75,3.79,3.79,0,0,0,1.26-.21,4.06,4.06,0,0,0,1.17-.67Z"/><path class="cls-8" d="M283.31,144.56v-5.42c0-.36,0-.71,0-1.06s-.05-.71-.1-1.06h1.16l.16,1.86-.16,0a2.4,2.4,0,0,1,.9-1.49,2.67,2.67,0,0,1,1.57-.5l.37,0,.32.07,0,1.11a2.39,2.39,0,0,0-.79-.12,2,2,0,0,0-1.95,1.22,3.05,3.05,0,0,0-.21,1.12v4.3Z"/><path class="cls-8" d="M203.2,162.56H202v-2l.18.16a2.54,2.54,0,0,1-1,1.46,2.94,2.94,0,0,1-1.75.51,3.14,3.14,0,0,1-1.75-.49,3.21,3.21,0,0,1-1.18-1.38,4.78,4.78,0,0,1-.42-2.07,4.7,4.7,0,0,1,.42-2.06,3.09,3.09,0,0,1,1.17-1.35,3.2,3.2,0,0,1,1.76-.48,2.88,2.88,0,0,1,1.75.52,2.54,2.54,0,0,1,1,1.45l-.2.14v-5.43h1.22Zm-3.51-.9a2.06,2.06,0,0,0,1.7-.75,4.11,4.11,0,0,0,0-4.29,2,2,0,0,0-1.71-.76,2.12,2.12,0,0,0-1.73.75,3.19,3.19,0,0,0-.63,2.12,3.33,3.33,0,0,0,.63,2.16A2.07,2.07,0,0,0,199.69,161.66Z"/><path class="cls-8" d="M211.73,161.66a3.39,3.39,0,0,1-1.26.74,4.83,4.83,0,0,1-1.59.27,4,4,0,0,1-2-.47,3.08,3.08,0,0,1-1.31-1.34,4.51,4.51,0,0,1-.46-2.09,4.45,4.45,0,0,1,.45-2.05,3.39,3.39,0,0,1,1.26-1.39,3.52,3.52,0,0,1,1.85-.49,3.26,3.26,0,0,1,1.72.44,2.93,2.93,0,0,1,1.11,1.27,4.76,4.76,0,0,1,.38,2v.23h-5.7V158h5l-.39.56a3.11,3.11,0,0,0-.52-2,1.9,1.9,0,0,0-1.6-.71,2.06,2.06,0,0,0-1.71.78,4,4,0,0,0,0,4.35,2.35,2.35,0,0,0,1.91.75,3.89,3.89,0,0,0,1.27-.21,4.15,4.15,0,0,0,1.16-.67Z"/><path class="cls-8" d="M216.88,162.67a3.7,3.7,0,0,1-1.92-.48,3.2,3.2,0,0,1-1.25-1.35,4.44,4.44,0,0,1-.45-2.06,4.56,4.56,0,0,1,.45-2.06,3.37,3.37,0,0,1,1.28-1.39,3.81,3.81,0,0,1,1.95-.49,4.39,4.39,0,0,1,1.48.26,3.28,3.28,0,0,1,1.17.73l-.4.9a4.54,4.54,0,0,0-1.09-.65,2.77,2.77,0,0,0-1.1-.22,2.27,2.27,0,0,0-1.81.76,3.24,3.24,0,0,0-.67,2.16,3.1,3.1,0,0,0,.66,2.13,2.27,2.27,0,0,0,1.82.75,3,3,0,0,0,1.09-.21,4.73,4.73,0,0,0,1.1-.65l.4.89a3.51,3.51,0,0,1-1.21.72A4.46,4.46,0,0,1,216.88,162.67Z"/><path class="cls-8" d="M221,151.82h1.48v1.38H221Zm.12,10.74V155h1.21v7.54Z"/><path class="cls-8" d="M224.71,162.56v-5.42c0-.36,0-.71,0-1.06a9.28,9.28,0,0,0-.09-1.06h1.15l.14,1.56-.15.11a2.56,2.56,0,0,1,.93-1.37,2.67,2.67,0,0,1,1.59-.48,2.48,2.48,0,0,1,1.7.54,2.67,2.67,0,0,1,.77,1.65l-.36-.2a2.56,2.56,0,0,1,1-1.45,2.85,2.85,0,0,1,1.75-.54,2.33,2.33,0,0,1,1.87.74,3.4,3.4,0,0,1,.63,2.24v4.74h-1.21v-4.67a2.52,2.52,0,0,0-.38-1.54,1.38,1.38,0,0,0-1.18-.49,1.85,1.85,0,0,0-1.5.65,2.63,2.63,0,0,0-.54,1.75v4.3h-1.22v-4.67a2.52,2.52,0,0,0-.38-1.54,1.41,1.41,0,0,0-1.19-.49,1.84,1.84,0,0,0-1.51.65,2.59,2.59,0,0,0-.55,1.75v4.3Z"/><path class="cls-8" d="M240.79,162.67a3.28,3.28,0,0,1-1.76-.47,3.18,3.18,0,0,1-1.18-1.35,4.93,4.93,0,0,1-.41-2.07,4.74,4.74,0,0,1,.42-2.06,3.29,3.29,0,0,1,1.18-1.39,3.2,3.2,0,0,1,1.75-.49,2.94,2.94,0,0,1,1.75.51,2.54,2.54,0,0,1,1,1.46l-.18.12V155h1.2v7.54h-1.2v-1.95l.18.09a2.54,2.54,0,0,1-1,1.46A2.94,2.94,0,0,1,240.79,162.67Zm.24-1a2.06,2.06,0,0,0,1.71-.75,3.4,3.4,0,0,0,.6-2.15,3.36,3.36,0,0,0-.61-2.15,2.07,2.07,0,0,0-1.7-.75,2.13,2.13,0,0,0-1.74.77,3.38,3.38,0,0,0-.62,2.15,3.26,3.26,0,0,0,.62,2.13A2.12,2.12,0,0,0,241,161.66Z"/><path class="cls-8" d="M246.89,162.56v-11h1.22v11Z"/></g><polygon class="cls-8" points="289.06 54.38 294.04 45.75 284.08 45.75 289.06 54.38"/></g></g></svg>