<svg xmlns="http://www.w3.org/2000/svg" viewBox="0 0 595.28 39.97"><defs><style>.cls-1{fill:#231f20;}.cls-2{fill:#2c93c0;}.cls-3{fill:#a2c5e8;}.cls-4{fill:#a74c78;}.cls-5{fill:none;}</style></defs><g id="Layer_2" data-name="Layer 2"><g id="Layer_1-2" data-name="Layer 1"><path class="cls-1" d="M96.64,33.11,85.23,7.48h4.86L99.31,29H97.83l9.33-21.52h4.68L100.46,33.11Z"/><path class="cls-1" d="M118.89,33.36a7.89,7.89,0,0,1-4.21-1.13A7.47,7.47,0,0,1,111.85,29a11.57,11.57,0,0,1-1-4.95,11.76,11.76,0,0,1,1-5,8,8,0,0,1,2.83-3.34,7.36,7.36,0,0,1,4.19-1.21,7.15,7.15,0,0,1,4,1.13,5.7,5.7,0,0,1,2.32,3.15l-.43.26V14.93h4.42V33.11H124.8V29l.43.15a5.5,5.5,0,0,1-2.32,3.11A7.29,7.29,0,0,1,118.89,33.36Zm1.23-3.46a4.14,4.14,0,0,0,3.45-1.54A6.94,6.94,0,0,0,124.8,24a7,7,0,0,0-1.23-4.44A4.16,4.16,0,0,0,120.12,18a4.26,4.26,0,0,0-3.53,1.58A7,7,0,0,0,115.33,24a6.63,6.63,0,0,0,1.26,4.33A4.31,4.31,0,0,0,120.12,29.9Z"/><path class="cls-1" d="M134.08,33.11v-13c0-.84,0-1.7-.05-2.58s-.12-1.73-.24-2.57H138l.51,4.68-.51-.25a5.63,5.63,0,0,1,2.13-3.64,6.1,6.1,0,0,1,3.74-1.22,6.41,6.41,0,0,1,1,.07,4.37,4.37,0,0,1,.83.21l-.08,4.11a6.07,6.07,0,0,0-2.37-.47,4.93,4.93,0,0,0-2.65.65,4.14,4.14,0,0,0-1.55,1.74,5.84,5.84,0,0,0-.52,2.47v9.83Z"/><path class="cls-1" d="M148,6.68h5v4.43h-5Zm.22,26.43V14.93h4.5V33.11Z"/><path class="cls-1" d="M164.65,33.36a7.93,7.93,0,0,1-4.22-1.13A7.45,7.45,0,0,1,157.61,29a11.57,11.57,0,0,1-1-4.95,11.61,11.61,0,0,1,1-5,8,8,0,0,1,2.82-3.34,7.37,7.37,0,0,1,4.2-1.21,7.14,7.14,0,0,1,4,1.13A5.65,5.65,0,0,1,171,18.74l-.43.26V14.93H175V33.11h-4.43V29l.43.15a5.46,5.46,0,0,1-2.32,3.11A7.28,7.28,0,0,1,164.65,33.36Zm1.22-3.46a4.16,4.16,0,0,0,3.46-1.54,7,7,0,0,0,1.22-4.4,7,7,0,0,0-1.22-4.44A4.18,4.18,0,0,0,165.87,18a4.27,4.27,0,0,0-3.53,1.58A7,7,0,0,0,161.08,24a6.63,6.63,0,0,0,1.26,4.33A4.32,4.32,0,0,0,165.87,29.9Z"/><path class="cls-1" d="M179.84,33.11V6.61h4.5V19.25l-.4-.54a5.58,5.58,0,0,1,2.27-3.1,6.92,6.92,0,0,1,4-1.15,7.64,7.64,0,0,1,4.21,1.15,7.88,7.88,0,0,1,2.84,3.28,11.06,11.06,0,0,1,1.05,5,11.32,11.32,0,0,1-1.05,5,7.94,7.94,0,0,1-2.86,3.33,7.57,7.57,0,0,1-4.19,1.17,7.2,7.2,0,0,1-4-1.1,5.34,5.34,0,0,1-2.27-3.11l.4-.65v4.61Zm9.21-3.21a4.11,4.11,0,0,0,3.46-1.58,7.13,7.13,0,0,0,1.22-4.46,6.76,6.76,0,0,0-1.22-4.34,4.71,4.71,0,0,0-7,0,7,7,0,0,0-1.2,4.39,7.12,7.12,0,0,0,1.2,4.43A4.2,4.2,0,0,0,189.05,29.9Z"/><path class="cls-1" d="M202.16,33.11V6.61h4.5v26.5Z"/><path class="cls-1" d="M227.14,31.09A9.25,9.25,0,0,1,224,32.77a12.92,12.92,0,0,1-3.84.59A10.8,10.8,0,0,1,215,32.24a7.7,7.7,0,0,1-3.3-3.24,10.48,10.48,0,0,1-1.15-5A10.5,10.5,0,0,1,211.7,19a8.31,8.31,0,0,1,3.09-3.34,8.58,8.58,0,0,1,4.58-1.21,8.16,8.16,0,0,1,4.32,1.1,7.28,7.28,0,0,1,2.79,3.15,11.09,11.09,0,0,1,1,4.86v.68H214.54l0-2.41H224.8l-1.22,1.22a6.27,6.27,0,0,0-1-4,3.67,3.67,0,0,0-3.08-1.37,4,4,0,0,0-3.34,1.53,7,7,0,0,0-1.19,4.37,7.13,7.13,0,0,0,1.33,4.77,5.06,5.06,0,0,0,4,1.53,9,9,0,0,0,2.9-.48A9.56,9.56,0,0,0,225.85,28Z"/><path class="cls-1" d="M237.94,33.36a12.38,12.38,0,0,1-7.85-2.27l1.26-3.17a10.53,10.53,0,0,0,3.14,1.62,11.46,11.46,0,0,0,3.52.54,4.77,4.77,0,0,0,2.52-.54A1.68,1.68,0,0,0,241.4,28a1.6,1.6,0,0,0-.61-1.31,5.6,5.6,0,0,0-2.09-.85l-3-.68A7.23,7.23,0,0,1,232,23.37a4.47,4.47,0,0,1-1.24-3.26,4.85,4.85,0,0,1,.93-2.93,6.2,6.2,0,0,1,2.63-2,10,10,0,0,1,3.92-.72,12.06,12.06,0,0,1,3.75.59,9.57,9.57,0,0,1,3.13,1.71l-1.3,3.1A10.21,10.21,0,0,0,241,18.31a8.56,8.56,0,0,0-2.82-.5,4.34,4.34,0,0,0-2.41.57,1.82,1.82,0,0,0-.87,1.59,1.63,1.63,0,0,0,.52,1.26,4.18,4.18,0,0,0,1.82.75l3.06.76a7.56,7.56,0,0,1,3.94,1.85A4.65,4.65,0,0,1,245.47,28a4.62,4.62,0,0,1-2,3.94A9.24,9.24,0,0,1,237.94,33.36Z"/><path class="cls-2" d="M25.8,13.25l6,3.9-.71,1.1-6-3.91Z"/><path class="cls-2" d="M44.5,8.67l5.57,1.81-.4,1.24L44.1,9.91Z"/><path class="cls-2" d="M59.19,3.54l.91.93L53.61,10.8l-.91-.93Z"/><path class="cls-2" d="M40.61,9.69l1,.88-6.64,7.2-1-.89Z"/><path class="cls-3" d="M21.17,21.12h5.24V40H21.17Z"/><path class="cls-3" d="M30.48,27.18h5.25V40H30.48Z"/><path class="cls-3" d="M39.8,17.09h5.25V40H39.8Z"/><path class="cls-3" d="M49.12,20.11h5.25V40H49.12Z"/><path class="cls-3" d="M58.44,11h5.25V40H58.44Z"/><path class="cls-4" d="M26.41,12.72a2.62,2.62,0,1,1-2.62-2.63A2.62,2.62,0,0,1,26.41,12.72Z"/><path class="cls-4" d="M63.69,2.62A2.63,2.63,0,1,1,61.06,0,2.63,2.63,0,0,1,63.69,2.62Z"/><path class="cls-4" d="M54.37,11.71a2.63,2.63,0,1,1-2.63-2.63A2.62,2.62,0,0,1,54.37,11.71Z"/><path class="cls-4" d="M45.05,8.68a2.63,2.63,0,1,1-2.62-2.62A2.62,2.62,0,0,1,45.05,8.68Z"/><path class="cls-4" d="M35.73,18.77a2.63,2.63,0,1,1-2.62-2.62A2.62,2.62,0,0,1,35.73,18.77Z"/><rect class="cls-5" width="595.28" height="18"/></g></g></svg>