<svg xmlns="http://www.w3.org/2000/svg" viewBox="0 0 595.28 88.19"><defs><style>.cls-1{fill:none;}.cls-2{fill:#873d61;}.cls-3{fill:#a74c78;}.cls-4{fill:#c281a1;}.cls-5{isolation:isolate;}.cls-6{fill:#fff;}.cls-7{opacity:0.6;}.cls-8{fill:#010101;}.cls-9{fill:#e2e2e2;}.cls-10{fill:#b7b7b7;}</style></defs><g id="Layer_2" data-name="Layer 2"><g id="Layer_1-2" data-name="Layer 1"><rect class="cls-1" width="595.28" height="18"/><path class="cls-2" d="M1,9A8,8,0,0,1,9,1h7l6,4h3l6-4h97.82V6c0,10-8-8-8,7.5s8-2.5,8,7.5v5H30.5l-6,4h-3l-6-4H9a8,8,0,0,1-8-8Z"/><path class="cls-3" d="M0,8A8,8,0,0,1,8,0h7l6,4h3l6-4h97.82V5c0,10-8-8-8,7.5s8-2.5,8,7.5v5H29.5l-6,4h-3l-6-4H8a8,8,0,0,1-8-8Z"/><path class="cls-4" d="M2.34,22.66A8,8,0,0,1,0,17V8H1v9A7,7,0,0,0,3.05,22Zm120.72-2.93-.49-.86,3.68-2.1.49.86ZM1,7.53,0,7.47A8,8,0,0,1,8,0h7.17l6,4h2.7l6-4h97.47V1H30.15l-6,4h-3.3l-6-4H8A7,7,0,0,0,1,7.53Z"/><g class="cls-5"><path class="cls-6" d="M13.72,17.61a4.38,4.38,0,0,1-3-1l.4-.9a4.11,4.11,0,0,0,1.24.68,4.23,4.23,0,0,0,1.42.22,2.37,2.37,0,0,0,1.29-.29,1,1,0,0,0,.44-.85.91.91,0,0,0-.29-.71,2.41,2.41,0,0,0-1-.43l-1.27-.3a2.78,2.78,0,0,1-1.46-.75A1.78,1.78,0,0,1,11,12a1.93,1.93,0,0,1,.36-1.16,2.37,2.37,0,0,1,1-.79,3.7,3.7,0,0,1,1.53-.28,4.46,4.46,0,0,1,1.5.25,3.36,3.36,0,0,1,1.18.73l-.41.89A3.87,3.87,0,0,0,15,11a3.29,3.29,0,0,0-1.17-.22,2.17,2.17,0,0,0-1.26.32,1,1,0,0,0-.44.85,1,1,0,0,0,.28.74,1.89,1.89,0,0,0,.89.42l1.28.32a2.85,2.85,0,0,1,1.56.74,1.77,1.77,0,0,1,.5,1.31A1.84,1.84,0,0,1,15.88,17,3.57,3.57,0,0,1,13.72,17.61Z"/><path class="cls-6" d="M24.79,16.6a3.34,3.34,0,0,1-1.27.73,4.74,4.74,0,0,1-1.58.28,4.16,4.16,0,0,1-2-.47,3.17,3.17,0,0,1-1.3-1.34,4.46,4.46,0,0,1-.46-2.1,4.45,4.45,0,0,1,.45-2,3.41,3.41,0,0,1,1.25-1.38,3.46,3.46,0,0,1,1.85-.49,3.2,3.2,0,0,1,1.73.44,2.8,2.8,0,0,1,1.1,1.27,4.56,4.56,0,0,1,.38,2v.23H19.23v-.8h5l-.39.56a3.19,3.19,0,0,0-.51-2,1.91,1.91,0,0,0-1.6-.7,2.11,2.11,0,0,0-1.72.77,3.36,3.36,0,0,0-.62,2.14A3.32,3.32,0,0,0,20,15.85,2.41,2.41,0,0,0,22,16.6a3.56,3.56,0,0,0,1.26-.22,3.8,3.8,0,0,0,1.16-.67Z"/><path class="cls-6" d="M25.66,10.91V10H30.5v1Zm4.81,5.51v1a4.54,4.54,0,0,1-.5.12,4.43,4.43,0,0,1-.55,0A2.27,2.27,0,0,1,27.75,17a2.39,2.39,0,0,1-.62-1.8V8l1.21-.44V15a2,2,0,0,0,.18.93,1,1,0,0,0,.47.46,1.78,1.78,0,0,0,.67.12l.41,0Z"/></g><g class="cls-7"><rect class="cls-6" x="35.33" y="5" width="55.97" height="16" rx="4"/></g><g class="cls-5"><path class="cls-8" d="M41.38,6.76h1.49V8.14H41.38ZM41.5,17.5V10h1.22V17.5Z"/><path class="cls-8" d="M44,10.91V10h4.84v1Zm4.81,5.51v1a4.54,4.54,0,0,1-.5.12,4.43,4.43,0,0,1-.55,0A2.27,2.27,0,0,1,46.1,17a2.39,2.39,0,0,1-.62-1.8V8l1.21-.44V15a2,2,0,0,0,.18.93,1,1,0,0,0,.47.46,1.78,1.78,0,0,0,.67.12l.41,0Z"/><path class="cls-8" d="M56.5,16.6a3.38,3.38,0,0,1-1.26.73,4.84,4.84,0,0,1-1.59.28,4.09,4.09,0,0,1-2-.47,3.19,3.19,0,0,1-1.31-1.34,4.58,4.58,0,0,1-.46-2.1,4.45,4.45,0,0,1,.45-2,3.37,3.37,0,0,1,1.26-1.38,3.43,3.43,0,0,1,1.85-.49,3.17,3.17,0,0,1,1.72.44,2.88,2.88,0,0,1,1.11,1.27,4.71,4.71,0,0,1,.38,2v.23h-5.7v-.8h5l-.39.56a3.13,3.13,0,0,0-.52-2,1.9,1.9,0,0,0-1.6-.7,2.08,2.08,0,0,0-1.71.77,3.31,3.31,0,0,0-.63,2.14,3.27,3.27,0,0,0,.66,2.22,2.39,2.39,0,0,0,1.91.75,3.65,3.65,0,0,0,1.27-.22,3.92,3.92,0,0,0,1.16-.67Z"/><path class="cls-8" d="M58.48,17.5V12.07c0-.35,0-.7,0-1.06a9.5,9.5,0,0,0-.1-1.06h1.16l.13,1.56-.15.11a2.57,2.57,0,0,1,.94-1.37A2.7,2.7,0,0,1,62,9.78a2.46,2.46,0,0,1,1.71.54A2.61,2.61,0,0,1,64.5,12l-.36-.19a2.5,2.5,0,0,1,1-1.45,2.76,2.76,0,0,1,1.74-.54,2.32,2.32,0,0,1,1.88.74,3.38,3.38,0,0,1,.63,2.24V17.5H68.14V12.82a2.55,2.55,0,0,0-.37-1.54,1.43,1.43,0,0,0-1.19-.49,1.86,1.86,0,0,0-1.49.65,2.65,2.65,0,0,0-.55,1.76v4.3H63.33V12.82A2.54,2.54,0,0,0,63,11.28a1.46,1.46,0,0,0-1.2-.49,1.85,1.85,0,0,0-1.5.65,2.6,2.6,0,0,0-.55,1.76v4.3Z"/></g><g class="cls-5"><path class="cls-6" d="M96.4,10.91V10h4.85v1Zm4.82,5.51v1l-.5.12a4.58,4.58,0,0,1-.55,0A2.26,2.26,0,0,1,98.5,17a2.36,2.36,0,0,1-.62-1.8V8l1.21-.44V15a2.11,2.11,0,0,0,.17.93,1,1,0,0,0,.47.46,1.83,1.83,0,0,0,.68.12l.41,0Z"/><path class="cls-6" d="M105.84,17.61a3.49,3.49,0,0,1-1.88-.49,3.26,3.26,0,0,1-1.25-1.35,4.65,4.65,0,0,1-.44-2.08,4.64,4.64,0,0,1,.44-2.07A3.26,3.26,0,0,1,104,10.25a4,4,0,0,1,3.76,0A3.26,3.26,0,0,1,109,11.62a4.64,4.64,0,0,1,.44,2.07,4.65,4.65,0,0,1-.44,2.08,3.26,3.26,0,0,1-1.25,1.35A3.49,3.49,0,0,1,105.84,17.61Zm0-1a2.12,2.12,0,0,0,1.72-.74,3.4,3.4,0,0,0,.61-2.17,3.32,3.32,0,0,0-.62-2.15,2.09,2.09,0,0,0-1.71-.75,2.12,2.12,0,0,0-1.72.75,3.32,3.32,0,0,0-.62,2.15,3.34,3.34,0,0,0,.61,2.17A2.11,2.11,0,0,0,105.84,16.6Z"/></g><polygon class="cls-8" points="81.32 17.31 86.3 8.69 76.34 8.69 81.32 17.31"/><rect class="cls-9" x="35.33" y="31.69" width="139.65" height="56" rx="5.67"/><path class="cls-10" d="M169.32,88.19H41A6.18,6.18,0,0,1,34.83,82V37.36A6.18,6.18,0,0,1,41,31.19H169.32a6.17,6.17,0,0,1,6.16,6.17V82A6.17,6.17,0,0,1,169.32,88.19ZM41,32.19a5.18,5.18,0,0,0-5.17,5.17V82A5.18,5.18,0,0,0,41,87.19H169.32A5.17,5.17,0,0,0,174.48,82V37.36a5.17,5.17,0,0,0-5.16-5.17Z"/><g class="cls-5"><path class="cls-8" d="M41.38,35.32h1.49V36.7H41.38Zm.12,10.74V38.52h1.22v7.54Z"/><path class="cls-8" d="M44,39.48v-1h4.84v1ZM48.82,45v1a3,3,0,0,1-.5.11,3.09,3.09,0,0,1-.55,0,2.31,2.31,0,0,1-1.67-.6,2.41,2.41,0,0,1-.62-1.8V36.58l1.21-.43V43.6a2,2,0,0,0,.18.93.91.91,0,0,0,.47.46,1.6,1.6,0,0,0,.67.13,2.54,2.54,0,0,0,.41,0A2.73,2.73,0,0,0,48.82,45Z"/><path class="cls-8" d="M56.5,45.16a3.53,3.53,0,0,1-1.26.74,4.83,4.83,0,0,1-1.59.27,4.09,4.09,0,0,1-2-.47,3.14,3.14,0,0,1-1.31-1.34,5,5,0,0,1,0-4.15,3.37,3.37,0,0,1,1.26-1.38,3.43,3.43,0,0,1,1.85-.49,3.26,3.26,0,0,1,1.72.44,2.93,2.93,0,0,1,1.11,1.27,4.76,4.76,0,0,1,.38,2v.22h-5.7v-.79h5l-.39.55A3.08,3.08,0,0,0,55,40a1.9,1.9,0,0,0-1.6-.71,2.06,2.06,0,0,0-1.71.78,3.26,3.26,0,0,0-.63,2.13,3.27,3.27,0,0,0,.66,2.22,2.39,2.39,0,0,0,1.91.75A3.89,3.89,0,0,0,54.94,45a4.15,4.15,0,0,0,1.16-.67Z"/><path class="cls-8" d="M58.48,46.06V40.63c0-.35,0-.7,0-1.05a9.28,9.28,0,0,0-.1-1.06h1.16l.13,1.56-.15.1a2.55,2.55,0,0,1,.94-1.36A2.64,2.64,0,0,1,62,38.34a2.51,2.51,0,0,1,1.71.54,2.67,2.67,0,0,1,.77,1.65l-.36-.2a2.53,2.53,0,0,1,1-1.45,2.82,2.82,0,0,1,1.74-.54,2.35,2.35,0,0,1,1.88.74,3.4,3.4,0,0,1,.63,2.24v4.74H68.14V41.38a2.5,2.5,0,0,0-.37-1.53,1.4,1.4,0,0,0-1.19-.49,1.85,1.85,0,0,0-1.49.64,2.67,2.67,0,0,0-.55,1.76v4.3H63.33V41.38A2.49,2.49,0,0,0,63,39.85a1.43,1.43,0,0,0-1.2-.49,1.85,1.85,0,0,0-1.5.64,2.61,2.61,0,0,0-.55,1.76v4.3Z"/><path class="cls-8" d="M41.65,64.06V53.38H45.9a4.06,4.06,0,0,1,2.65.77,2.7,2.7,0,0,1,.92,2.2,2.66,2.66,0,0,1-.94,2.17,3.93,3.93,0,0,1-2.63.79L47,59.1a1.62,1.62,0,0,1,1,.32,2.24,2.24,0,0,1,.68,1L50,64.06H48.73l-1.32-3.55a1.52,1.52,0,0,0-.69-.89,2.64,2.64,0,0,0-1.18-.22H42.87v4.66Zm1.22-5.68h2.92a2.87,2.87,0,0,0,1.86-.51,1.86,1.86,0,0,0,.6-1.5,1.8,1.8,0,0,0-.6-1.48,3,3,0,0,0-1.86-.49H42.87Z"/><path class="cls-8" d="M58.08,63.16a3.49,3.49,0,0,1-1.27.74,4.73,4.73,0,0,1-1.58.27,4.16,4.16,0,0,1-2-.47,3.12,3.12,0,0,1-1.3-1.34,4.39,4.39,0,0,1-.46-2.09,4.5,4.5,0,0,1,.45-2.06,3.41,3.41,0,0,1,1.25-1.38A3.46,3.46,0,0,1,55,56.34a3.29,3.29,0,0,1,1.73.44,2.85,2.85,0,0,1,1.1,1.27,4.6,4.6,0,0,1,.38,2v.22h-5.7v-.79h5l-.39.55a3.14,3.14,0,0,0-.51-2,1.91,1.91,0,0,0-1.6-.71,2.09,2.09,0,0,0-1.72.78,4,4,0,0,0,0,4.35,2.4,2.4,0,0,0,1.91.75A3.85,3.85,0,0,0,56.51,63a4,4,0,0,0,1.16-.67Z"/><path class="cls-8" d="M60.06,64.06V58.63c0-.35,0-.7,0-1.05s0-.71-.1-1.06h1.15l.14,1.56-.15.12a2.61,2.61,0,0,1,1.05-1.39,3.09,3.09,0,0,1,1.69-.47c1.81,0,2.72,1,2.72,3v4.74H65.32V59.38a2.29,2.29,0,0,0-.42-1.53,1.64,1.64,0,0,0-1.32-.49A2.24,2.24,0,0,0,61.9,58a2.38,2.38,0,0,0-.63,1.74v4.32Z"/><path class="cls-8" d="M71.73,64.17A3.28,3.28,0,0,1,70,63.7a3.09,3.09,0,0,1-1.17-1.35,5.31,5.31,0,0,1,0-4.14A3.33,3.33,0,0,1,70,56.83a3.14,3.14,0,0,1,1.75-.49,2.94,2.94,0,0,1,1.75.51,2.51,2.51,0,0,1,1,1.45l-.18.12v-1.9h1.2v7.54h-1.2v-2l.18.09a2.54,2.54,0,0,1-1,1.46A2.94,2.94,0,0,1,71.73,64.17Zm.24-1a2.06,2.06,0,0,0,1.71-.75,3.43,3.43,0,0,0,.6-2.16,3.29,3.29,0,0,0-.61-2.14,2.06,2.06,0,0,0-1.7-.75,2.1,2.1,0,0,0-1.73.77,3.32,3.32,0,0,0-.63,2.15,3.22,3.22,0,0,0,.63,2.13A2.12,2.12,0,0,0,72,63.16Z"/><path class="cls-8" d="M77.83,64.06V58.63c0-.35,0-.7,0-1.05a9.28,9.28,0,0,0-.1-1.06h1.16L79,58.08l-.15.1a2.55,2.55,0,0,1,.94-1.36,2.64,2.64,0,0,1,1.58-.48,2.51,2.51,0,0,1,1.71.54,2.67,2.67,0,0,1,.77,1.65l-.36-.2a2.53,2.53,0,0,1,1-1.45,2.82,2.82,0,0,1,1.74-.54,2.35,2.35,0,0,1,1.88.74,3.4,3.4,0,0,1,.63,2.24v4.74H87.49V59.38a2.5,2.5,0,0,0-.37-1.53,1.4,1.4,0,0,0-1.19-.49,1.85,1.85,0,0,0-1.49.64,2.67,2.67,0,0,0-.55,1.76v4.3H82.68V59.38a2.49,2.49,0,0,0-.38-1.53,1.43,1.43,0,0,0-1.2-.49,1.85,1.85,0,0,0-1.5.64,2.61,2.61,0,0,0-.55,1.76v4.3Z"/><path class="cls-8" d="M97.2,63.16a3.49,3.49,0,0,1-1.27.74,4.73,4.73,0,0,1-1.58.27,4.16,4.16,0,0,1-2-.47A3.12,3.12,0,0,1,91,62.36a4.39,4.39,0,0,1-.46-2.09A4.5,4.5,0,0,1,91,58.21a3.41,3.41,0,0,1,1.25-1.38,3.46,3.46,0,0,1,1.85-.49,3.29,3.29,0,0,1,1.73.44A2.85,2.85,0,0,1,97,58.05a4.6,4.6,0,0,1,.38,2v.22h-5.7v-.79h5l-.39.55a3.14,3.14,0,0,0-.51-2,1.91,1.91,0,0,0-1.6-.71,2.09,2.09,0,0,0-1.72.78,4,4,0,0,0,0,4.35,2.4,2.4,0,0,0,1.91.75A3.85,3.85,0,0,0,95.63,63a4,4,0,0,0,1.16-.67Z"/><path class="cls-8" d="M105.31,64.06l-3.21-7.53h1.28l2.73,6.65h-.36l2.76-6.65h1.21l-3.25,7.53Z"/><path class="cls-8" d="M113.86,64.17a3.28,3.28,0,0,1-1.76-.47,3.09,3.09,0,0,1-1.17-1.35,5.37,5.37,0,0,1,0-4.14,3.31,3.31,0,0,1,1.17-1.38,3.14,3.14,0,0,1,1.75-.49,3,3,0,0,1,1.76.51,2.5,2.5,0,0,1,1,1.45l-.18.12v-1.9h1.2v7.54h-1.2v-2l.18.09a2.52,2.52,0,0,1-1,1.46A3,3,0,0,1,113.86,64.17Zm.24-1a2.06,2.06,0,0,0,1.71-.75,3.43,3.43,0,0,0,.6-2.16,3.29,3.29,0,0,0-.61-2.14,2.06,2.06,0,0,0-1.7-.75,2.1,2.1,0,0,0-1.73.77,3.32,3.32,0,0,0-.62,2.15,3.22,3.22,0,0,0,.62,2.13A2.12,2.12,0,0,0,114.1,63.16Z"/><path class="cls-8" d="M120,64.06V58.63q0-.52,0-1.05a9.28,9.28,0,0,0-.09-1.06H121l.17,1.86-.17-.05a2.35,2.35,0,0,1,.91-1.49,2.67,2.67,0,0,1,1.57-.5l.36,0,.33.07,0,1.11a2.45,2.45,0,0,0-.8-.12,2.06,2.06,0,0,0-1.25.34,2.12,2.12,0,0,0-.69.88,2.87,2.87,0,0,0-.22,1.12v4.3Z"/><path class="cls-8" d="M125.28,53.32h1.48V54.7h-1.48Zm.12,10.74V56.52h1.21v7.54Z"/><path class="cls-8" d="M131.86,64.17a3.28,3.28,0,0,1-1.76-.47,3.09,3.09,0,0,1-1.17-1.35,5.37,5.37,0,0,1,0-4.14,3.31,3.31,0,0,1,1.17-1.38,3.14,3.14,0,0,1,1.75-.49,3,3,0,0,1,1.76.51,2.5,2.5,0,0,1,1,1.45l-.18.12v-1.9h1.2v7.54h-1.2v-2l.18.09a2.52,2.52,0,0,1-1,1.46A3,3,0,0,1,131.86,64.17Zm.24-1a2.06,2.06,0,0,0,1.71-.75,3.43,3.43,0,0,0,.6-2.16,3.29,3.29,0,0,0-.61-2.14,2.06,2.06,0,0,0-1.7-.75,2.1,2.1,0,0,0-1.73.77,3.32,3.32,0,0,0-.62,2.15,3.22,3.22,0,0,0,.62,2.13A2.12,2.12,0,0,0,132.1,63.16Z"/><path class="cls-8" d="M138,64.06V53h1.21v5.43L139,58.3a2.51,2.51,0,0,1,1-1.44,2.87,2.87,0,0,1,1.74-.52,3.2,3.2,0,0,1,1.76.48,3.31,3.31,0,0,1,1.18,1.35,4.66,4.66,0,0,1,.42,2,4.83,4.83,0,0,1-.42,2.08,3.3,3.3,0,0,1-1.19,1.38,3.14,3.14,0,0,1-1.75.49,2.93,2.93,0,0,1-1.74-.51,2.52,2.52,0,0,1-1-1.46l.16-.16v2Zm3.54-.9a2,2,0,0,0,1.71-.77,3.4,3.4,0,0,0,.61-2.17,3.24,3.24,0,0,0-.61-2.11,2.34,2.34,0,0,0-3.44,0,3.33,3.33,0,0,0-.6,2.13,3.43,3.43,0,0,0,.6,2.16A2.09,2.09,0,0,0,141.51,63.16Z"/><path class="cls-8" d="M147,64.06V53h1.21v11Z"/><path class="cls-8" d="M156.72,63.16a3.58,3.58,0,0,1-1.27.74,4.77,4.77,0,0,1-1.58.27,4.13,4.13,0,0,1-2-.47,3.14,3.14,0,0,1-1.31-1.34,5,5,0,0,1,0-4.15,3.34,3.34,0,0,1,1.25-1.38,3.43,3.43,0,0,1,1.85-.49,3.29,3.29,0,0,1,1.73.44,2.91,2.91,0,0,1,1.1,1.27,4.76,4.76,0,0,1,.38,2v.22h-5.7v-.79h5l-.39.55a3.08,3.08,0,0,0-.52-2,1.88,1.88,0,0,0-1.59-.71,2.07,2.07,0,0,0-1.72.78,4,4,0,0,0,0,4.35,2.39,2.39,0,0,0,1.91.75,3.89,3.89,0,0,0,1.27-.21,4.15,4.15,0,0,0,1.16-.67Z"/><path class="cls-8" d="M158.49,62.52H160v1.54h-1.54Z"/><path class="cls-8" d="M162,62.52h1.55v1.54H162Z"/><path class="cls-8" d="M165.42,62.52H167v1.54h-1.54Z"/><path class="cls-8" d="M41.65,82.06V71.38h1l6.81,9.08-.36.09V71.38h1.17V82.06h-1L42.46,73l.35-.1v9.16Z"/><path class="cls-8" d="M58.87,81.16a3.53,3.53,0,0,1-1.26.74,4.83,4.83,0,0,1-1.59.27,4.09,4.09,0,0,1-2-.47,3.14,3.14,0,0,1-1.31-1.34,5,5,0,0,1,0-4.15A3.37,3.37,0,0,1,54,74.83a3.43,3.43,0,0,1,1.85-.49,3.26,3.26,0,0,1,1.72.44,2.93,2.93,0,0,1,1.11,1.27A4.76,4.76,0,0,1,59,78v.22h-5.7v-.79h5l-.39.55a3.08,3.08,0,0,0-.52-2,1.9,1.9,0,0,0-1.6-.71,2.06,2.06,0,0,0-1.71.78,4,4,0,0,0,0,4.35,2.39,2.39,0,0,0,1.91.75A3.89,3.89,0,0,0,57.31,81a4.15,4.15,0,0,0,1.16-.67Z"/><path class="cls-8" d="M62.79,82.06,60,74.52h1.27l2.33,6.64h-.39l2.4-6.64h1.06L69,81.16h-.39L71,74.52h1.2l-2.79,7.54H68.26l-2.49-6.79h.66L64,82.06Z"/><path class="cls-8" d="M79.93,82.06l-3.21-7.53H78l2.73,6.65h-.36l2.76-6.65h1.21l-3.25,7.53Z"/><path class="cls-8" d="M88.48,82.17a3.31,3.31,0,0,1-1.76-.47,3.22,3.22,0,0,1-1.17-1.35,4.93,4.93,0,0,1-.41-2.07,4.78,4.78,0,0,1,.42-2.07,3.26,3.26,0,0,1,1.18-1.38,3.08,3.08,0,0,1,1.74-.49,3,3,0,0,1,1.76.51,2.5,2.5,0,0,1,1,1.45l-.18.12v-1.9h1.2v7.54H91v-2l.18.09a2.52,2.52,0,0,1-1,1.46A3,3,0,0,1,88.48,82.17Zm.24-1a2.06,2.06,0,0,0,1.71-.75,3.43,3.43,0,0,0,.6-2.16,3.35,3.35,0,0,0-.6-2.14,2.09,2.09,0,0,0-1.71-.75,2.12,2.12,0,0,0-1.73.77,3.38,3.38,0,0,0-.62,2.15A3.28,3.28,0,0,0,87,80.41,2.13,2.13,0,0,0,88.72,81.16Z"/><path class="cls-8" d="M94.59,82.06V76.63c0-.35,0-.7,0-1s0-.71-.1-1.06h1.15l.17,1.86-.17,0a2.39,2.39,0,0,1,.91-1.49,2.67,2.67,0,0,1,1.57-.5l.36,0,.33.07,0,1.11a2.45,2.45,0,0,0-.8-.12,2.08,2.08,0,0,0-1.25.34,2.12,2.12,0,0,0-.69.88,3.06,3.06,0,0,0-.22,1.12v4.3Z"/><path class="cls-8" d="M99.9,71.32h1.48V72.7H99.9ZM100,82.06V74.52h1.21v7.54Z"/><path class="cls-8" d="M106.48,82.17a3.28,3.28,0,0,1-1.76-.47,3.09,3.09,0,0,1-1.17-1.35,4.93,4.93,0,0,1-.41-2.07,4.78,4.78,0,0,1,.42-2.07,3.31,3.31,0,0,1,1.17-1.38,3.14,3.14,0,0,1,1.75-.49,3,3,0,0,1,1.76.51,2.5,2.5,0,0,1,1,1.45l-.18.12v-1.9h1.2v7.54H109v-2l.18.09a2.52,2.52,0,0,1-1,1.46A3,3,0,0,1,106.48,82.17Zm.24-1a2.06,2.06,0,0,0,1.71-.75,3.43,3.43,0,0,0,.6-2.16,3.29,3.29,0,0,0-.61-2.14,2.06,2.06,0,0,0-1.7-.75,2.1,2.1,0,0,0-1.73.77,3.32,3.32,0,0,0-.62,2.15,3.22,3.22,0,0,0,.62,2.13A2.12,2.12,0,0,0,106.72,81.16Z"/><path class="cls-8" d="M112.59,82.06V71h1.21v5.43l-.16-.15a2.51,2.51,0,0,1,1-1.44,2.87,2.87,0,0,1,1.74-.52,3.2,3.2,0,0,1,1.76.48,3.31,3.31,0,0,1,1.18,1.35,4.66,4.66,0,0,1,.42,2,4.83,4.83,0,0,1-.42,2.08,3.23,3.23,0,0,1-1.19,1.38,3.14,3.14,0,0,1-1.75.49,2.93,2.93,0,0,1-1.74-.51,2.52,2.52,0,0,1-1-1.46l.16-.16v2Zm3.54-.9a2,2,0,0,0,1.71-.77,3.4,3.4,0,0,0,.61-2.17,3.24,3.24,0,0,0-.61-2.11,2.34,2.34,0,0,0-3.44,0,3.33,3.33,0,0,0-.6,2.13,3.43,3.43,0,0,0,.6,2.16A2.09,2.09,0,0,0,116.13,81.16Z"/><path class="cls-8" d="M121.59,82.06V71h1.21v11Z"/><path class="cls-8" d="M131.34,81.16a3.58,3.58,0,0,1-1.27.74,4.77,4.77,0,0,1-1.58.27,4.13,4.13,0,0,1-2-.47,3.14,3.14,0,0,1-1.31-1.34,5,5,0,0,1,0-4.15,3.34,3.34,0,0,1,1.25-1.38,3.43,3.43,0,0,1,1.85-.49,3.29,3.29,0,0,1,1.73.44,2.91,2.91,0,0,1,1.1,1.27,4.76,4.76,0,0,1,.38,2v.22h-5.7v-.79h5l-.39.55a3.08,3.08,0,0,0-.52-2,1.88,1.88,0,0,0-1.59-.71,2.07,2.07,0,0,0-1.72.78,4,4,0,0,0,0,4.35,2.39,2.39,0,0,0,1.91.75,3.89,3.89,0,0,0,1.27-.21,4.15,4.15,0,0,0,1.16-.67Z"/><path class="cls-8" d="M133.11,80.52h1.54v1.54h-1.54Z"/><path class="cls-8" d="M136.57,80.52h1.55v1.54h-1.55Z"/><path class="cls-8" d="M140,80.52h1.54v1.54H140Z"/></g></g></g></svg>