<svg xmlns="http://www.w3.org/2000/svg" viewBox="0 0 595.28 240.17"><defs><style>.cls-1{fill:none;}.cls-2{fill:#e82225;}.cls-3{fill:#33ac49;}.cls-4{fill:#35479d;}.cls-5{fill:#09080d;}.cls-6{fill:#e92325;}.cls-7{fill:#35ae49;}.cls-8{fill:#4b4a41;}.cls-9{fill:#1b5e30;}.cls-10{fill:#33449a;}.cls-11{fill:#e9e8e8;}.cls-12{fill:#1e1c57;}.cls-13{fill:#aa2022;}.cls-14{fill:#eb2525;}.cls-15{fill:#3a52a3;}.cls-16{fill:#491110;}.cls-17{fill:#999d9e;}.cls-18{fill:#5d5d50;}.cls-19{fill:#ceb889;}.cls-20{fill:#139045;}.cls-21{fill:#252569;}.cls-22{fill:#949799;}.cls-23{fill:#184b25;}.cls-24{fill:#a1a18c;}.cls-25{fill:#e1e1e1;}.cls-26{fill:#2d2920;}.cls-27{fill:#41100e;}.cls-28{fill:#40b54a;}.cls-29{fill:#9d9d89;}.cls-30{fill:#e2e2e2;}.cls-31{fill:#180f0f;}.cls-32{fill:#48483f;}.cls-33{fill:#b1b4b6;}.cls-34{fill:#14361d;}.cls-35{fill:#2a2720;}.cls-36{fill:#bcbcbb;}.cls-37{fill:#0a0828;}.cls-38{fill:#30312e;}.cls-39{fill:#cacac9;}.cls-40{fill:#1c1d1a;}.cls-41{fill:#030403;}.cls-42{fill:#232427;}.cls-43{fill:#030304;}.cls-44{fill:#121210;}.cls-45{fill:#a41e1f;}.cls-46{fill:#444545;}.cls-47{fill:#2b2923;}.cls-48{fill:#2c2921;}.cls-49{fill:#1a1710;}.cls-50{fill:#353535;}.cls-51{fill:#2d2c29;}.cls-52{fill:#4a4c4d;}.cls-53{fill:#4b4b41;}.cls-54{fill:#a0a4a5;}.cls-55{fill:#2e2a23;}.cls-56{fill:#e3e3e3;}.cls-57{fill:#858889;}.cls-58{fill:#616364;}.cls-59{fill:#fcfdfd;}.cls-60{fill:#979657;}.cls-61{fill:#979783;}.cls-62{fill:#fbfcfc;}.cls-63{fill:#656558;}.cls-64{fill:#b9bcbe;}.cls-65{fill:#cfb98a;}.cls-66{fill:#5a5a5a;}.cls-67{fill:#6a6c6d;}.cls-68{fill:#7a7974;}.cls-69{fill:#6d6d5f;}.cls-70{fill:#8f9394;}.cls-71{fill:#797969;}.cls-72{fill:#acb0b2;}.cls-73{fill:#797869;}.cls-74{fill:#848473;}.cls-75{fill:#b7babc;}.cls-76{fill:#9ca0a1;}.cls-77{fill:#babfc0;}.cls-78{fill:#463a17;}.cls-79{fill:#5d5d51;}.cls-80{fill:#5e5e51;}.cls-81{fill:#9b9a98;}.cls-82{fill:#f8f8f8;}.cls-83{fill:#cdb789;}.cls-84{fill:#a2a28d;}.cls-85{fill:#8c8c7a;}.cls-86{fill:#90907d;}.cls-87{fill:#dfe0df;}.cls-88{fill:#dfdfde;}.cls-89{fill:#56471c;}.cls-90{fill:#54451c;}.cls-91{fill:#4b4a40;}.cls-92{fill:#767566;}.cls-93{fill:#4a4a40;}.cls-94{fill:#6b6965;}.cls-95{fill:#6f6e6a;}.cls-96{fill:#aaaa63;}.cls-97{fill:#8a8a77;}.cls-98{fill:#e1e2e1;}.cls-99{fill:#5f5946;}.cls-100{fill:#6f6d69;}.cls-101{fill:#a0a08b;}.cls-102{fill:#959581;}.cls-103{fill:#4e4e3d;}.cls-104{fill:#878a8b;}.cls-105{fill:#74736f;}.cls-106{fill:#939380;}.cls-107{fill:#2d291e;}.cls-108{fill:#a88a30;}.cls-109{fill:#7f7e7b;}.cls-110{fill:#a5872f;}.cls-111{fill:#939290;}.cls-112{fill:#4a4b4c;}.cls-113{fill:#7d7b77;}.cls-114{fill:#c7c673;}.cls-115{fill:#6c6b5d;}.cls-116{fill:#c2c170;}.cls-117{fill:#6c6c5e;}.cls-118{fill:#6d6c5e;}.cls-119{fill:#9d9c9a;}.cls-120{fill:#706e69;}.cls-121{fill:#8b783e;}.cls-122{fill:#5a5751;}.cls-123{fill:#d4d4d4;}.cls-124{fill:#a2a1a2;}.cls-125{fill:#b2b5b7;}.cls-126{fill:#65635d;}.cls-127{fill:#8c793e;}.cls-128{fill:#757565;}.cls-129{fill:#8b8a8a;}.cls-130{fill:#908161;}.cls-131{fill:#625f59;}.cls-132{fill:#928363;}.cls-133{fill:#d6d6d5;}.cls-134{fill:#9c812f;}.cls-135{fill:#8a8e8f;}.cls-136{fill:#e0e0e0;}.cls-137{fill:#a4a3a3;}.cls-138{fill:#979785;}.cls-139{fill:#5c5b58;}.cls-140{fill:#917b36;}.cls-141{fill:#6d6c68;}.cls-142{fill:#6d6b67;}.cls-143{fill:#866e2a;}.cls-144{fill:#bcbbbb;}.cls-145{fill:#989797;}.cls-146{fill:#a99671;}.cls-147{fill:#72716f;}.cls-148{fill:#92792d;}.cls-149{fill:#c42226;}.cls-150{fill:#7e6c36;}.cls-151{fill:#8a3c20;}.cls-152{fill:#0c3719;}.cls-153{fill:#282871;}.cls-154{fill:#2c368d;}.cls-155{fill:#9f9ea1;}.cls-156{fill:#a3a3a5;}.cls-157{fill:#a1a1a3;}.cls-158{fill:#9e9d9f;}.cls-159{fill:#a09fa1;}.cls-160{fill:#9f9ea0;}.cls-161{fill:#48484c;}.cls-162{fill:#6a696d;}.cls-163{fill:#181916;}.cls-164{fill:#82817f;}.cls-165{fill:#88814e;}.cls-166{fill:#2d2e1b;}.cls-167{fill:#2a2b22;}.cls-168{fill:#343532;}.cls-169{fill:#1f1f23;}.cls-170{fill:#a71f23;}.cls-171{fill:#20592d;}.cls-172{fill:#2b2867;}</style></defs><g id="Layer_2" data-name="Layer 2"><g id="Layer_1-2" data-name="Layer 1"><rect class="cls-1" width="595.28" height="18"/><polygon class="cls-2" points="257.16 4.87 260.79 0 259.43 0 256.52 4 253.6 0 252.23 0 255.84 4.86 252.05 9.97 253.42 9.97 256.5 5.74 259.6 9.97 260.95 9.97 257.16 4.87"/><polygon class="cls-3" points="8.99 122.8 7.67 122.8 4.51 127.7 1.34 122.8 0 122.8 3.92 128.72 3.92 132.77 5.07 132.77 5.07 128.74 8.99 122.8"/><polygon class="cls-4" points="106.29 64.6 112 56.44 112 55.6 104.96 55.6 104.96 56.57 110.67 56.57 104.96 64.71 104.96 65.57 112.14 65.57 112.14 64.6 106.29 64.6"/><path class="cls-5" d="M157.74,196.08l-.4.32a2.91,2.91,0,0,0-1.78,2.51c0,1.21.22,2.15,1.51,2.55a3.12,3.12,0,0,1,1.48.85l0,.05c-.45.88-1.07.6-1.65.38a18,18,0,0,1,1.1,1.81c.16.51.67,1.12-.21,1.51-2.58-2.55-4.23-5.3-3-9.18.66-2.12-1.79-1.64-2.48-1.77-3.93-.76-7.85-1.55-11.77-2.3-3.38-.65-6.82-1.19-10.2-1.86-4.37-.87-8.81-1.41-13.1-2.66-.32-1-1.34-1.28-2-1.95-3,0-5.78-1.4-8.75-1.69-.57-.05-1.13-.14-1.69-.21-.87.05-1.84.41-2.31-.75.45-.12,1,.14,1.4-.4-.71-1.06-2.1-.44-2.93-1.17l.12-.22c.72-1-.25-1.48-.55-2.18a2.13,2.13,0,0,1-.21-.49c-.09-1.3-1.07-1.92-2-2.59a59.39,59.39,0,0,0-6.8-4.23,68.08,68.08,0,0,1-7.41-4.51A16.47,16.47,0,0,1,80,165.19c-.45-.47-.44-1.12-.67-1.67a6.72,6.72,0,0,1,1.9-3.39c.76.32,1.22-.56,1.93-.47.71,2,2.66,1.6,4.09,1.89,7.7,1.57,15.44,3,23.15,4.46q16.67,3.19,33.3,6.44l26.9,5.26q18.06,3.53,36.12,7a2.35,2.35,0,0,0,2.69-1.37q5.65-9.85,11.24-19.74l15.27-26.74q4.58-8,9.13-16.07a3,3,0,0,0,.34-1.07c.08-.56.14-1.12.89-.87s.58.85.28,1.4c-.67,2.39-2.17,4.36-3.37,6.46-10.54,18.48-21,37-31.73,55.39-1.21,2.08-.87,3.28.73,4.6l.36.4c.52.41,0,.84,0,1.26.91,1.65,0,3.05-2.26,3.37-1.25.23-1.33.17-1.18-.76.11-.22.38-.51.32-.65-.54-1.22-1.65-2.38.16-3.58.2-.13-.61-.71-1.24-.83-8.53-1.64-17-3.32-25.58-5l-29.15-5.69q-20-3.9-40.06-7.79c-10.35-2-20.71-3.92-31.06-5.9-.81-.16-1.6-.4-2,.53s.19,1.47,1,2a115.17,115.17,0,0,0,11.49,7,35,35,0,0,1,9.35,7.55,2.4,2.4,0,0,1,.62,1c.52,2.73,2.71,3.15,4.88,3.57,3,.57,6.14.52,8.81,1.71,4.22,1.87,8.7,2.19,13.06,3.16,8,1.76,16,3.18,24.07,4.73a1.37,1.37,0,0,0,1.71-.71c2.14-3.43,3.1-3.7,7.11-2.4-.58.74-1.23.45-1.86.28a2.7,2.7,0,0,0-2.41.17c-.69.48-1.48,1-1.3,1.95s1.08.71,1.74.84l9,1.82a1,1,0,0,0,.38,0c1.76-.25,3.34-.27,4,1.95.14.48,1,.29,1.58.19s.52.3.14.62a.71.71,0,0,1-1,0c-3-.59-6-1.24-9-1.76-1.5-.25-3.15-.84-4.18,1.1-.16.31-.35-.28-.44-.54-.17-.79-.58-1.35-1.48-1.14C157.12,195.41,157.76,195.8,157.74,196.08Z"/><path class="cls-6" d="M246.56,29.71l-33,57.74c-1.58.65-2.39-.59-3.37-1.39-.5-1,.19-1.73.61-2.48q14.85-25.9,29.63-51.85c1-1.78,2.09-3.54,3-5.39a4,4,0,0,1,1.68-2.05,2.32,2.32,0,0,1,1.64.35c1.7.85,1.93,1.7,1,3.35C247.4,28.6,246.78,29,246.56,29.71Z"/><path class="cls-7" d="M23.34,137.87c-.64.16-1.15,1-1.95.39a5.78,5.78,0,0,1-2.18-6.19c0-.18.09-.37.13-.55.27-1.31,1-2.47,1.35-3.74a1.61,1.61,0,0,1,.26-.46l1.15-.46c2.24-.56,2.91-.14,3.77,1.91.26.63-.23,1.53.67,1.91,2.33,1,4.85,1.07,7.28,1.57,7,1.43,13.93,2.78,20.91,4.11,5.77,1.1,11.6,1.94,17.32,3.24,4.76,1.09,9.64,1.56,14.31,3a4,4,0,0,1-.85,3,3.27,3.27,0,0,1-2.44,0c-19.82-3.85-39.66-7.64-59.48-11.5-.83-.16-1.83-.11-2.13-1.32.07,1,.83,1.29,1.57,1.58,2.36.95,2.44,1.32.66,3.09A1.48,1.48,0,0,0,23.34,137.87Z"/><path class="cls-8" d="M86.66,223c-.49-2.31-.48-2.34,2-1.87q17.74,3.42,35.5,6.88l36.07,7c3.57.68,7.15,1.36,10.73,2,1.22.21,1.73,1,2.11,2.25l-14.44-2.79L125.51,230l-27.05-5.27c-3.45-.67-6.89-1.36-10.33-2a.94.94,0,0,0-1,.28Z"/><path class="cls-9" d="M23.34,137.87a2.58,2.58,0,0,1,.25-.69c1.3-1.68,1.31-1.67-.85-2.16-1.5-.35-1.87-1.57-.92-4.1-.26,2,.42,2.37,1.9,2.65,16.9,3.21,33.78,6.54,50.67,9.83,3.14.61,6.29,1.15,9.42,1.78a4.3,4.3,0,0,0,1.71.08,2.36,2.36,0,0,0,2.26.09c.29,1.58-.57,1.87-1.85,1.63q-7.61-1.41-15.2-2.86-14.61-2.81-29.23-5.65c-4.75-.91-9.51-1.75-14.24-2.77-1.22-.27-2-.41-2.53,1A1.79,1.79,0,0,1,23.34,137.87Z"/><path class="cls-10" d="M133,98.3a2.64,2.64,0,0,0,1.16,1.93c1.8,1.71,2.78,4,4.1,6,3.35,5.17,6.48,10.48,9.79,15.68a5.89,5.89,0,0,1,.8,1.53c.28,1,.28,2-1.1,2.14-.91-.26-1.24-1.07-1.67-1.77q-12.52-20-25-40.08a10.37,10.37,0,0,1-1.36-2.54c.3-.87.55-1.79,1.81-1.39,3.28,5.07,6.52,10.16,9.52,15.39a2.56,2.56,0,0,1,1.21,1.26C132.44,97.1,132.94,97.61,133,98.3Z"/><path class="cls-11" d="M83.18,159.66c-1.17,1.55-1.31,1.58-1.93.47,2.46-4.22,5-8.42,7.38-12.66,1.79-3.14,3.45-6.35,5.25-9.48,2.33-4.08,4.77-8.08,7.11-12.16,1.79-3.13,3.45-6.34,5.25-9.48,2.33-4.07,4.83-8,7.09-12.16,1.75-3.17,3.54-6.32,5.41-9.41.39-.64.52-1.52,1.54-1.51a1.34,1.34,0,0,1,.36.78c-.63,2.54-2.27,4.56-3.51,6.79-2.45,4.43-5,8.8-7.51,13.2a3.21,3.21,0,0,1-1.34,1.59q-7.91,13.77-15.83,27.54-4.29,7.49-8.57,15C83.6,158.62,83.11,159,83.18,159.66Z"/><path class="cls-12" d="M123.78,93.67c1.19-.49,0-1-.11-1.25-1.73-2.9-3.55-5.73-5.31-8.61-.32-.52-.88-1-.79-1.69a1.18,1.18,0,0,1,1.52-.6,98.2,98.2,0,0,1,5.63,8.72q10.47,16.74,20.86,33.54a3.26,3.26,0,0,1,.83,2.29c-1.28,1.26-1.83-.07-2.34-.78-1.95-2.79-3.65-5.75-5.47-8.63-4.43-7-8.68-14.13-13.21-21.07C125.06,94.78,123.86,94.69,123.78,93.67Z"/><path class="cls-13" d="M245.08,24.58q-7.22,12.63-14.44,25.24c-5.42,9.47-10.9,18.91-16.26,28.42-1.4,2.51-3.16,4.84-4.07,7.62-.75.14-1-.15-.78-.89,4.38-7.76,8.74-15.53,13.15-23.26q9.57-16.77,19.19-33.48c.24-.43.55-.83.83-1.24C243.18,25.88,243,24.09,245.08,24.58Z"/><path class="cls-14" d="M245,19.83a64.18,64.18,0,0,1,6.55-4.66c1.23.4.63,1.44.57,2.1-.24,3.07-.26,6.14-.52,9.19h0c-.51.24-.89-.07-1.19-.38a16.74,16.74,0,0,0-7-4.18C242.94,20.43,244.62,20.62,245,19.83Z"/><path class="cls-15" d="M112.23,69.29a60.22,60.22,0,0,1,8.72,4c2.29,1.38,2.52,2.81,1.1,5.3-.67.3-.87,1.22-1.71,1.3a40.14,40.14,0,0,1-6.72-7.76,8.25,8.25,0,0,0-1.29-1.65A1.9,1.9,0,0,1,112,70C112,69.74,111.92,69.46,112.23,69.29Z"/><path class="cls-16" d="M243.56,21.71a11.58,11.58,0,0,1,6.51,3.35c.51.47,1,.92,1.56,1.39,0,2.95-.61,3.48-3.41,2.83-.64-.14-1.25-.29-1.66.43a2.07,2.07,0,0,1,.37-1.45c1.24-2.55,1-3-1.85-3.68-1.54.06-1.43,1.76-2.38,2.41,0-.81-.83-1.08-1.22-1.63-1.22-1.72-1.08-2.5.72-3.67.23-.15.13-.64.57-.6S243.25,21.57,243.56,21.71Z"/><path class="cls-17" d="M233.71,193.66c-.55-.17-1.19-.27-1-1.11l0,0c3.26-4.93,5.94-10.2,8.91-15.29,2.24-3.85,4.39-7.75,6.62-11.6.34-.59.82-2,1.51-.16l-2.65,5c-1,.46-1,1.59-1.58,2.32v0c-.76.79-.93,2-1.68,2.75-1.59,3.92-4,7.41-6,11.1C236.48,189.06,235.23,191.43,233.71,193.66Z"/><path class="cls-18" d="M180.19,239.28c-1.76-.29-3.47.77-5.3.07-.83-.32-1.52-.72-1.47-1.48.05-.94,1-.47,1.55-.48,4-.07,7.34-1.82,10.57-3.93a4.17,4.17,0,0,1,1.41,2.31,1,1,0,0,1-.22.49c-.19.41-.39.81-.95.71a41.73,41.73,0,0,1-5.23,2.27l-.18,0Z"/><path class="cls-19" d="M233.06,196.4a1.45,1.45,0,0,0,.36,0,.3.3,0,0,1,0,.33c.23.32.14.77.42,1.05,1.84,1.88,1.29,3.75,0,5.62l0,0a21.19,21.19,0,0,0-1.57,2.73l.05,0c-1,.24-.76,1.5-1.65,1.9l-2.26-3.08,0-.27C229.84,201.78,231.49,199.11,233.06,196.4Z"/><path class="cls-20" d="M19.82,131.47l0,.47c-.12.06-.26.12-.3.22-.78,2.06-1.07,2.16-3.17,1.23a25.74,25.74,0,0,1-3.7-2.4c-.36-.25-.92-.59-.53-1.24,2.34-.76,4.68-1.49,7-2.3a2.84,2.84,0,0,1,1.86-.13c0,.15,0,.3,0,.44C20.68,129,19.47,130,19.82,131.47Z"/><path class="cls-21" d="M112.22,70l.29.09c1.8,3.66,2.51,7.68,3.76,11.53a.61.61,0,0,1-.36.47c-1.4.63-2.4-.11-3.35-1a7.14,7.14,0,0,1-.81-5.45.83.83,0,0,1,0-.88C112.31,73.22,111.6,71.55,112.22,70Z"/><path class="cls-11" d="M79.35,163.52a1.4,1.4,0,0,1,.77,1.55c.32.61,0,1.13-.3,1.61-1.69,3.08-3.46,6.12-5.21,9.17a2.33,2.33,0,0,1-.83.79,1.21,1.21,0,0,1-1.38.1c.35-2.76,2.23-4.78,3.44-7.13C76.91,167.53,78.17,165.55,79.35,163.52Z"/><path class="cls-22" d="M216,224.93c-.65-.19-.88,1.19-1.55.51s.28-1.11.55-1.58c2-3.66,4.14-7.28,6.2-10.93.45-.81.86-1.23,1.46-.15-.19,1.86-1.64,3.09-2.38,4.68C219.06,220.05,217.44,222.45,216,224.93Z"/><path class="cls-23" d="M12.1,129.75c1.48,2,3.66,2.87,5.88,3.68.66.24,1.12.14,1-.74-.05-.53.16-.88.79-.75-.89,2.46.3,4.41,1.59,6.32-3.42-2.13-6.27-5-9.42-7.46C11.43,130.37,11.1,130,12.1,129.75Z"/><path class="cls-24" d="M256.93,111.82c.73-2.41,1.56-4.81,1.3-7.39.35,0,.76,0,.71.58a10.45,10.45,0,0,1,.4,6.06.63.63,0,0,1,0,.36c-.18.19-.16.46-.27.67-.29.53-.4,1.37-1.16,1.28S256.88,112.57,256.93,111.82Z"/><path class="cls-25" d="M131.93,96.66c.06-.7-.71-.89-.87-1.46a75.88,75.88,0,0,0,8.57,1.56c.17.26.56.09.71.37-.51.84-1,1.35-2.18.86a19.31,19.31,0,0,0-4-.78A1.65,1.65,0,0,1,131.93,96.66Z"/><path class="cls-26" d="M260.85,149.32a13.73,13.73,0,0,0,1.22,2.07c1.09,1.29.79,2.35-.35,3.36l-.21-.18a4.27,4.27,0,0,0-1.35-3.83c-1,1.71-1.88,3.39-2.87,5-.42.68-.62,1.78-1.84,1.6l0,0c-.62-.92.1-1.59.48-2.27.79-1.39,1.57-2.79,2.38-4.17.44-.77,1-1.59.2-2.48l0,0c-.12-.09-.16-.19-.12-.28s.09-.13.13-.13l0,0C260.13,146.94,260.36,148.37,260.85,149.32Z"/><path class="cls-27" d="M209.53,85c.06.47.21.86.78.89,1.24.21,1.89,1.65,3.26,1.59-.69,1.63-1.73,2-3.31,1.08C208.45,87.48,208.28,86.86,209.53,85Z"/><path class="cls-28" d="M87.78,145.35c-1.25,1.69-1.26,1.69-2.26-.09a4.38,4.38,0,0,1,.84-2.66C88.44,142.92,88.66,143.34,87.78,145.35Z"/><path class="cls-29" d="M260.87,136.52c-.31,1.37.16,2.92-.92,4.06-2.48-1.39-.58-3.19-.41-4.79.08-.82.64.07,1,0C260.65,136.05,260.76,136.28,260.87,136.52Z"/><path class="cls-25" d="M123.78,93.67c.64.44,1.44.68,1.75,1.5.47.35.07.53-.17.61a5.94,5.94,0,0,1-5.07-1.7c0-.27,0-.54,0-.81Z"/><path class="cls-30" d="M77.05,177.49c.26.83,1.2,0,1.57.7-.47.85-1.33.23-2,.45-.67-.12-1.44.27-2-.44a.53.53,0,0,1-.17-.08c-.48-.28-1.53.31-1.45-.73.06-.83.91-.68,1.54-.68C75.43,176.94,76.37,176.8,77.05,177.49Z"/><path class="cls-31" d="M251.61,26.46A78.34,78.34,0,0,1,252,16.9c0-.56.35-1.3-.4-1.73.17-.18.35-.52.51-.52.6,0,.35.53.34.84-.12,2.74-.25,5.48-.43,8.22C251.92,24.63,252.33,25.63,251.61,26.46Z"/><path class="cls-32" d="M81.61,220.12c.07-.29.08-.84.4-.74,1.32.41,2.86.57,3.41,2.29-1.65.6-2.2-1.51-3.61-1.29Z"/><path class="cls-33" d="M264,143.51c-1.48,0-3.1-2.08-2.91-3.73.79.19.63,1.44,1.6,1.43C263.08,142,263.51,142.74,264,143.51Z"/><path class="cls-34" d="M26.54,130.68H25c1.56-.62.71-1.55.51-2.26-.5-1.75-1.95-1.69-3.38-1.56,1.51-1,2.73-.73,3.56.75A7.41,7.41,0,0,1,26.54,130.68Z"/><path class="cls-35" d="M233.86,203.39c0-.06-.08-.15-.06-.18,1.32-1.94,1.35-3.79-.3-5.58-.16-.17,0-.6,0-.91.34.43.72.83,1,1.28C236,200.23,235.85,201.16,233.86,203.39Z"/><path class="cls-36" d="M260.85,149.32c-.7-.54-1.05-1.74-2.31-1.19-.17-.94.6-1.46.94-2.2.48.54.48,1.37,1.22,1.65,0,0,.12,0,.15-.08a1.4,1.4,0,0,0,.09-.17C261.53,148,260.7,148.64,260.85,149.32Z"/><path class="cls-37" d="M115.91,82.09l.12-.4a33.31,33.31,0,0,1,4.28-1.89c.7-.24.88-1.21,1.74-1.22l-.51,1.23a2.94,2.94,0,0,0-1.7,1.45.73.73,0,0,1-.75.39l-1.52.47C117,81.7,116.45,82.82,115.91,82.09Z"/><path class="cls-38" d="M259.34,111.07a32.38,32.38,0,0,0-.4-6.06A6.06,6.06,0,0,1,259.34,111.07Z"/><path class="cls-39" d="M225.74,209.53c-.52-.83-1.07-1.64-1.54-2.5-.17-.3-.86-.59-.21-1.07s.61.36.86.56c.8.64.65,1.79,1.24,2.57A.38.38,0,0,1,225.74,209.53Z"/><path class="cls-5" d="M256.93,111.82l1,1.45c.86-.33.64-1.46,1.36-1.84.16,1.44-1.07,2.32-1.45,3.55l-.07-.08a3.39,3.39,0,0,1-1.18-2.7Z"/><path class="cls-40" d="M180.55,239.24a22.1,22.1,0,0,1,5.23-2.27A9.67,9.67,0,0,1,180.55,239.24Z"/><path class="cls-41" d="M74.67,177c-.47.2-1.35-.29-1.43.35-.13,1,1.25,0,1.44.81-1.05,0-2.48.54-2.28-1.46l1.09-.41C73.83,176.66,74.72,176.08,74.67,177Z"/><path class="cls-42" d="M111.75,75.66a14.85,14.85,0,0,0,.81,5.45C110.89,79.5,111.2,77.6,111.75,75.66Z"/><path class="cls-43" d="M112.22,70c-.34,1.58.42,3.25-.42,4.78,0-1.81,0-3.63,0-5.45a.3.3,0,0,1,0-.16c.2-.19.3,0,.39.12Z"/><path class="cls-5" d="M140.34,97.13c-.27-.06-.67.13-.71-.37.77-.09,1.6.16,2.28-.41.32.22.59.54.46.91s-.49.16-.78.1S140.76,97.21,140.34,97.13Z"/><path class="cls-44" d="M186.73,236.26v-.42c.62-1,1-2.42,2.71-2h0C188.66,234.82,188,235.88,186.73,236.26Z"/><path class="cls-45" d="M243.56,21.71a.77.77,0,0,1-.79-.62A3.68,3.68,0,0,1,245,19.83C244.88,20.73,243.63,20.76,243.56,21.71Z"/><path class="cls-46" d="M245.45,172.87a3.76,3.76,0,0,1,1.36-2.57s.1,0,.14.09a.6.6,0,0,1,.08.16C246.47,171.3,246.28,172.3,245.45,172.87Z"/><path class="cls-47" d="M261.72,154.75a6,6,0,0,1-1.54,2.7l-.22-.2c0-1.23.18-2.33,1.68-2.58Z"/><path class="cls-48" d="M232.31,206.09a3.74,3.74,0,0,1,1.57-2.73A4.41,4.41,0,0,1,232.31,206.09Z"/><path class="cls-47" d="M260.18,157.45a5.75,5.75,0,0,1-1.55,2.69l-.06,0a1.91,1.91,0,0,1,1.52-2.73Z"/><path class="cls-46" d="M243.78,175.6a4.6,4.6,0,0,1,1.68-2.75A4.29,4.29,0,0,1,243.78,175.6Z"/><path class="cls-5" d="M120.29,94.08c1.27.88,4.2,1.49,5.24,1.09,2.51,3.14,4.38,6.7,6.52,10.08,4.18,6.57,8.29,13.19,12.42,19.79.39.64.69,1.39,1.69,1.06.41-.54,1.1-.44,1.64-.7,1.35-.69.79-1.64.27-2.49-3.43-5.56-6.9-11.09-10.33-16.65-1.23-2-2.4-4-3.6-6,5.09.93,10.18,1.83,15.26,2.8q16.65,3.19,33.29,6.46l32.72,6.41q11.47,2.22,23,4.41c.56.11,1.12.28,1.68.37,1.13.18,1.18.79.69,1.64l-7.94,13.86-11.68,20.36q-7,12.19-13.93,24.4a1.9,1.9,0,0,1-2.39,1c-12.09-2.41-24.19-4.75-36.29-7.1l-35.75-6.91-42.71-8.2c-2.35-.45-2.45-.72-1.26-2.79,4.4-7.68,8.75-15.39,13.13-23.08,2.57-4.52,5.06-9.08,7.78-13.5,1-1.62.85-2.62-.57-3.68a5.69,5.69,0,0,1-.85-1q5.81-10.27,11.62-20.55C120.08,94.76,120.41,94.51,120.29,94.08Z"/><path class="cls-49" d="M264,143.51c-1.22-.44-1.53-1.71-2.35-2.51a.83.83,0,0,0,1,.21,12.32,12.32,0,0,1-1.77-4.69c-1.3.48-.15,1.7-.71,2.41-.17.22-.11.74-.57.56s-.79-.38-.52-.84c.54-.92.46-2.16,1.46-2.84-1-4.3-3-8.24-4.47-12.36a6.16,6.16,0,0,1-.24-4c.47-1.6,1.6-2.85,2.05-4.43a.41.41,0,0,0-.46-.16c-.55,0-.7,1.27-1.5.45-.6-.62-.19-1.13.16-1.65l1-1.38a4.42,4.42,0,0,0,.44-.76c.88-2.28,1.88-4.55.76-7a8.76,8.76,0,0,0-6.67-6.13c-5.2-1.11-10.42-2.09-15.63-3.11l-23.1-4.48-22.73-4.4L167,81.82c-3.72-.72-7.4-1-11.07.41A20.19,20.19,0,0,0,145,92.4a13,13,0,0,1-3.1,3.95c-.2,1.11-1.21.29-1.7.71a3.4,3.4,0,0,1-2.7.37,10.33,10.33,0,0,0-3.32-.46,2.34,2.34,0,0,0-1.4,1.48,2.07,2.07,0,0,0,1.48,2.17c3.78.8,7.57,1.51,11.36,2.25,30.38,5.92,60.78,11.74,91.16,17.67,3.93.76,3.91.77,1.87,4.32q-15.33,26.7-30.56,53.46c-1.91,3.36-1.9,3.38-5.75,2.62-11.87-2.33-23.76-4.58-35.63-6.9Q129.39,166.78,92,159.58c-.76-.15-1.52-.28-2.26-.49s-1.13-.61-.79-1.42a16.35,16.35,0,0,1,.91-1.7q9.94-17.44,19.91-34.87c1.66-2.9,1.5-3.45-1.32-5.5-1.34,0-1.55,1.22-2,2Q95,137.7,83.51,157.78a3.1,3.1,0,0,0-.61,2.16,2.11,2.11,0,0,0,1.61,1.52l-1.73-.37c-1-.22-2-.26-2.47.88a2,2,0,0,0,.84,2.52,32.79,32.79,0,0,0,3,2.09c4.39,2.81,9.17,5,13.32,8.17,2,1.58,4.1,3.21,5.18,5.61a5.16,5.16,0,0,0,3.89,3.1c4.33.93,8.62,2,12.92,3,11.13,2.67,22.47,4.44,33.69,6.73,1.46.3,2.55,0,3.2-1.4.87-1.84,2.25-2.7,4.19-2.32a4.5,4.5,0,0,0-1.78.06,2.54,2.54,0,0,0-2,2.28c0,1.28,1,1.53,2,1.69,3.67.63,7.25,1.82,11,1.77a1,1,0,0,1,1,.44c.57,1.13,1.71,1.48,2.69,2.07a5.72,5.72,0,0,0,.71.85,9.07,9.07,0,0,1,1.14,1c.43.35.83,1.13,1.55.36-.21-.15.31-.13.06,0-1.54,2.49-1.54,2.49-.43,3.52-.82-.15-1.07-.58-.79-1.47.6-1.85-.55-3.16-2.59-3-.64.46-.4,1.14-.46,1.76s-.6.78-1.11.91a.62.62,0,0,1-.79-.36c-.21-.44.05-.73.41-.93.7-.4,1.5-.85,1-1.76a.84.84,0,0,0-.46-.44l.48,0c.41.05,1-.13.48-.78a50.38,50.38,0,0,0-7.84-1.92,6.68,6.68,0,0,0-5.52.65,2.08,2.08,0,0,0-1.56-.29,1.15,1.15,0,0,0-.57.58.71.71,0,0,0,.18.76c.87.5,1.06,1,0,1.69.47-.73.74-1.36-.23-1.79-1.47,1.07-1.72,2.25-.78,3.66.42.65,1.14,1,1.57,1.65a3.4,3.4,0,0,0,.26.5c2.13,4.25,6,6,10.28,7.23.9-.55.44-1.1-.09-1.7,2.4,1.24,2.65,1.8,1.86,4,0,.7.61,1.17.75,1.88a57.44,57.44,0,0,1-7.48-1.62,1,1,0,0,0-1.33.36,2,2,0,0,0,.3,1.68,2.71,2.71,0,0,0,2.11.8c4.83.4,9.41,2,14.15,2.88.69.13,1.65.06,1.62,1.23a4.27,4.27,0,0,1-.84,1.42c-.7.82-1.59.35-2.34.21L170.39,220c-14.81-2.92-29.64-5.74-44.45-8.63-5.48-1.06-11-2.21-16.46-3.18-.37-.06-1.38.36-1.12-.78a22,22,0,0,1,2-1,7.86,7.86,0,0,0,1.47-.76c.62-.5.71-1-.23-1.22-.64.57-1.61.34-2.2,1,0,0-.26-.05,0-.16.5-.56,1.32-.26,1.91-.62.28-.22.63-.41.45-.86a2.38,2.38,0,0,0-1-.43c-.49-.15-1.1-.32-1-.91s.79-.73,1.28-1,.82.09,1.09.49c.38.57.71,1.23,1.56,1.19a.77.77,0,0,0,.31-.72,1.85,1.85,0,0,0-.16-.52c-1.38-2.31-1.38-2.31.18-3.09,2.24-1.12,2.32-1.32,1.59-3.77.32,0,.63.1.94.12,1.08,0,1.11.73,1.08,1.5a5.5,5.5,0,0,0,3.48,4.05,3.62,3.62,0,0,1,2.48,4,5.85,5.85,0,0,0,.35,2.07,1.14,1.14,0,0,0,1.39.64c.49-.34,1.12-.85.82-1.37-.73-1.24-.19-2.63-.64-3.87-.1-.28-.42-.56-.09-.84s.6-.12.92,0c.58.13.49.45.24.84a.69.69,0,0,0,.26,1c1.31.8.48,1.78.23,2.66-.15.53-.63,1-.7,1.56.11.45.44.54.84.51.8-.26,1.62-.5,1.84-1.47,2.18.59,1.86-1.82,3-2.57.69-.46,1.07-.88,2-.42-1,0-1.5.63-2.17,1-.9.48-1.19,2.94-.4,3.06,1.37.2.08,1,.48,1.21,1.48,1.05,3.34.75,5,1.38,1.17.45,2.49,1.06,3.86.5.89-1.56.55-2.39-1.12-2.28s-3.1-.88-4.58-1.49c-.24-.1-.7-.53-.61-.88.21-.81,2.37-2,3.26-2,4.31.31,8.32,2,12.55,2.7a38.65,38.65,0,0,0,7,.9,1.25,1.25,0,0,0,.72-1.48,1.75,1.75,0,0,0-.26-.51c-2.13-2.57-3.67-5.27-2.38-8.79.26-.68-.15-1.25-.88-1.47a14.41,14.41,0,0,0-2.21-.67c-5.09-.65-10.06-1.93-15.11-2.79-3.09-.52-6.15-1.28-9.23-1.84-3.53-.64-7.06-1.26-10.55-2.12-.73-.06-1.53-.62-2.13.3a2.21,2.21,0,0,1,.18.34c-.73-.69.73-1.86-.52-2.44-1.18-.26-2.35-.61-3.53-.86-2.11-.43-4.16-1.29-6.38-1a3.8,3.8,0,0,0-1,1.29,1.16,1.16,0,0,0,0-.33,1.23,1.23,0,0,0-.78-.79,3.74,3.74,0,0,0-1.87-.34c-.79.13-1.63.15-1.73,1.28,0,.47-.42.71-.93.67-.31-.4.09-1.05-.47-1.37a1.7,1.7,0,0,0-.8-.12c-1.27.36-2.57-.27-3.83.16-.43,0-.5.53-.75.61.21-.17.17-.9.82-.64,1.24-.71,2.28-2,4-1.41a21.46,21.46,0,0,1,4.91.76,2.8,2.8,0,0,0,.58.09c.51,0,1.07-.06,1.17-.69s-.45-.82-.9-1a16.59,16.59,0,0,0-2.19-.52c-.73-.2-1.5-.14-2.23-.36a11.44,11.44,0,0,1-1.26-.39,4.2,4.2,0,0,0-1-.3,2.58,2.58,0,0,1-1.89-.44,2.71,2.71,0,0,0-.78-.24c-.58-.09-1.14-.26-1.71-.39-4.29-.89-8.65-1.49-12.9-2.59a3.39,3.39,0,0,0-2.09.11c-.65.3.38,1.26-.57,1.43.2.81,1.09,0,1.38.58a8,8,0,0,0-.41,7.29c1.62,3.83,3.11,7.71,4.57,11.6a4.24,4.24,0,0,1,.33,1.71,12.07,12.07,0,0,1-2,5.63c-3.93,6.8-2.69,9.42,1.13,14.67,1.14-.58,1.82.35,2.65.79-.84-.07-1.41-1.35-2.45-.53A8.84,8.84,0,0,0,86.66,223c.3-1.27.94-1.59,2.31-1.32,4.48.88,9,1.77,13.45,2.63,22.43,4.33,44.86,8.62,67.27,13a3.08,3.08,0,0,1,2.26,1.08c-1.59-.31-3-.5-4.34-.77-22.66-4.47-45.35-8.76-68-13.21-3.47-.68-7-1.36-10.43-2-.72-.13-1.66-.64-2.08.55,5.21,1,10.41,2.12,15.63,3.15q11.64,2.31,23.28,4.57c7.46,1.45,14.92,2.87,22.37,4.32,7.83,1.51,15.64,3.13,23.49,4.5,2.74.48,5.61,1.28,8.34-.25-.78-.74-1.68-.41-2.55-.29a4,4,0,0,1-3.64-1,19.74,19.74,0,0,0,11.56-4.08,14.19,14.19,0,0,0,3.3-3.17c.22-.33.45-1,1-.69s.5.95.26,1.52-1,1.21-.84,2.08l.16.22c1.06-.58,1.44-1.72,2.12-2.61.4-.53.76-1,1.56-.82,4.76,1,9.51,2.06,14.31,2.86,1.72.29,3.41,1.28,5.25.64h0c1.1-1.22.8-2.42,0-3.71-.19-.34-1-1-.16-1.4,1.75-.8,2.33-2.55,3.42-3.88-.76-.16-1-.37-.5-1.21,2-3.27,3.87-6.62,5.72-10,.33-.6.65-1.1,1.44-1,.24-.57.84-.6,1.29-.84.79-.42,1.6-.66.22-1.5a1.21,1.21,0,0,1-.16-2.14c.54.48.43,1.85,1.74,1.23a7.45,7.45,0,0,0-.89-2.3c.64.4.27,1.55,1.24,1.86.51-1.74,1.84-.26,2.68-.68.85,1.28,1.77,1,2.49-.07a4.44,4.44,0,0,0,1.1-2.28c-1.5,1-2.52.42-3.28-1-.11-.2-.4-.29-.64-.38-.85-.1-1.05-.4-.53-1.2,1.14-1.77,2.14-3.63,3.16-5.47.32-.57.66-1.12,1.4-1.18a2.29,2.29,0,0,0,.52-.11,1.39,1.39,0,0,0,.43-.3c0-.28.34-.75.25-.71-.86.36-1.4-.55-2.15-.49a2,2,0,0,1,1-1.43c.43.49.52,1.2,1.19,1.47.49-.52-.46-1.06,0-1.57-.36-.46-.9-.76-1.16-1.31-.5-.91.1-1.6.55-2.26h0l-.26.46c-.35.61-.71,1.25-.2,2,1.25,0,1.43-1.12,1.87-1.89,4.55-7.89,9-15.82,13.59-23.69.35-.61.47-1.58,1.57-1.39.22-.26.4-.72.66-.76,1.87-.3,2.2-1.74,2.51-3.22h0c.81-1,1.92-.63,2.94-.66,1,1.31,1.93,1.06,2.84-.75l-.18-.19c-1.41-.41-1.53-2.13-2.76-2.72a2.53,2.53,0,0,0-.48-.19c-1-.51-.08-1,.09-1.37,1-2.33,2.84-4.27,3.49-6.8a.88.88,0,0,0-.23-.45c-.19-.08-.43,0-.53-.27.16-.06.3.1.45.07a.9.9,0,0,0,.38-.32c.3-.46.42-1.39,1.24-.41.23.28.71.66.84-.16-.32-.67-1.15-1.32-.74-2s1.21,0,1.83.11C263.55,145.66,264,144.86,264,143.51ZM170.09,198.4c-.19,0-.35.22-.73,0,.55,0,1-.13,1.51-.2A3.36,3.36,0,0,1,170.09,198.4Zm-54.7-9.92a4,4,0,0,1-.49,4.47A4.72,4.72,0,0,0,115.39,188.48Zm-15.85.64c-.28-.11-.59,0-1.06-.17a14.85,14.85,0,0,1,1.77.29c.78.09,1.94-.8,2.75-1.83v0C102.22,189,101.31,189.81,99.54,189.12Zm140.14-73.05a4,4,0,0,1-3,.17c-10-1.9-20-3.86-29.93-5.77q-23.12-4.44-46.22-8.94a6.43,6.43,0,0,1-2.74-.83c-.6-1,.19-1.5.72-2.07a10,10,0,0,1,1.81-1.35,2.43,2.43,0,0,1,.59-.27,9.32,9.32,0,0,1,4.94-.23q20.1,3.93,40.21,7.8,16.51,3.21,33,6.38a3.72,3.72,0,0,1,2.42,1C242.24,113.92,241.08,115.05,239.68,116.07ZM212.61,233.82a3,3,0,0,0-2.08-.95c-5-1-10.08-1.91-15.11-2.94-.6-.13-1.49,0-1.66-.69s.54-1.39,1.06-1.94a2.25,2.25,0,0,1,2.16-.46c2.22.32,4.4,1,6.62,1.2C207.73,228.35,210.8,230.06,212.61,233.82Zm15.68-26.23c-.39-.11-.9-.06-1.14-.38A3.05,3.05,0,0,1,228.29,207.59ZM231,195.35l.22,0A.53.53,0,0,1,231,195.35Zm-14.66-16.92c-1.53,2.66-3.38,5.17-4.34,8.15a.77.77,0,0,0,.37.64c1.06.31-.13.77.08,1.14.32,1.87-.82,2.71-2.32,3.3a2.77,2.77,0,0,0-.26.48,25.69,25.69,0,0,1-2.21,4.26c-.5.89-1.08,1-1.86.4a1.7,1.7,0,0,0-2.53.92c-.26.51-.61,1-.86,1.5a2.21,2.21,0,0,1-2.84,1.28c-2-.46-4-.81-6.05-1.2-5.93-1.12-11.85-2.28-17.9-3.46,1.47-1.08,1.76-1.26,3.08-1.12a4.12,4.12,0,0,0,2.93-.63,6.32,6.32,0,0,1,2.38-.71c5-1.06,10.21-.91,15.31-1.39a6.13,6.13,0,0,1,3.54-.36,4.67,4.67,0,0,1,2.39-.33c.08.22-.06.36-.17.49a1.18,1.18,0,0,0-.14,1.56c.49.71,1,.08,1.51,0,1.58-.16,2.32-1.39,3.23-2.42a1.71,1.71,0,0,0,0-1.83,1.14,1.14,0,0,1-.09-1.23c.69-1.76.44-2.17-1.49-2.52-5-.93-10-1.92-14.93-2.89-11.77-2.3-23.55-4.54-35.32-6.85-10.71-2.1-21.42-4.15-32.13-6.23-9.88-1.93-19.77-3.81-29.65-5.75-3.29-.64-6.6-1.22-9.89-1.87l7.27,1.36L130,170.24,164.58,177q20.56,4,41.15,8c2.54.49,3.24.24,4.44-1.87,11.85-20.83,23.81-41.61,35.57-62.5.11-.19.12-.78.57-.26a4.56,4.56,0,0,1,.23,5.39C236.34,143.19,226.37,160.83,216.32,178.43Zm16.46,7.77c-.43-1.25-.43-1.25.82-1.14.31-1.59-.78-3-.3-4.7,1.76-6.15,5-11.08,11.22-13.88-2.74,4.86-5.46,9.49-8.06,14.18-.89,1.61-2.22,3-2.42,5v.08a.29.29,0,0,0,0-.09.43.43,0,0,0-.52-.46C233.06,185.36,233.22,186,232.78,186.2Zm15.07-21.84c-4.79,8.12-9.38,16.36-14.06,24.54a4.52,4.52,0,0,0,.39-2.6c.1.11.27.13.59-.06a2.84,2.84,0,0,0,1-1.17c3.46-6.14,7-12.23,10.48-18.37.42-.74.82-1.48.12-2.29-.11-.08-.23-.17-.34-.14-.79.16-1.34-.05-1.56-.89s.57-1.21,1.07-1.58c.79-.59.81.45,1.19.73a3.15,3.15,0,0,0,1.08.72c.44.1.95-.35,1.38.17C248.77,163.82,248.13,163.84,247.85,164.36Zm3.75-5.05c.58.37.72,1.1,1,1.79C252.27,160.44,252.15,159.69,251.6,159.31Zm3.76.81c-.4-.11-.94,0-1.19-.34C254.86,159.89,255.16,159.94,255.36,160.12Z"/><path class="cls-50" d="M212.21,186.73c-1.05,0-1.38-1.19-2.41-1.38-.58-.11-.12-.91.11-1.33q6.39-11.16,12.82-22.31c3.85-6.72,7.62-13.49,11.52-20.19,4.12-7.07,7.9-14.34,12.33-21.24.52.73,1,1.48,1.57,2.16s.12,1.09-.16,1.57q-12.65,22.08-25.32,44.15C219.14,174.33,215.69,180.54,212.21,186.73Z"/><path class="cls-51" d="M209.15,191c0,.9.88.37,1.18.76l0,.18c-.9,1.46-1.67,3-2.48,4.5-.39.72-.81,1.39-1.78.73a1.88,1.88,0,0,0-2.69,1.43c-.19.59-.71,1.07-1,1.65-.45,1-1,1.12-2.13.89-8.06-1.65-16.15-3.17-24.23-4.72a2.25,2.25,0,0,1-1.39-.6c1.35-1.37,2.86-2.15,4.82-1.51a1,1,0,0,0,1.09-.11c2.15-1.89,5-1.69,7.46-1.93,3-.29,6-1,9.06-.44.68.13,1.59-.65,2.46-.07.87.35.31,1,.19,1.42s-.65,1.11-.49,1.81a.69.69,0,0,1-.2.44c-.12.12-.37.22-.33.38s.39.19.59.27a4.28,4.28,0,0,0,1.77.38c-.71-.19-1.78-.1-1.2-1.43.25-.49.67-.87.7-1.5.06-1.48,1-2.07,2.35-2.14.64-1.22,1.81-.34,2.7-.61.1,0,.73,1-.18,1.38-.51.2-.48.5-.27.88.37.69.53-.11.74-.1C207.42,193,208.23,191.92,209.15,191Z"/><path class="cls-52" d="M103.66,209.15c-1.63-1.33-3.74-.91-5.56-1.54-.4-.14-.92,0-1.21-.71l81.3,15.74a5.63,5.63,0,0,1-5.07,1.35c-11.71-2.28-23.44-4.49-35.16-6.76-7.45-1.44-14.9-2.93-22.35-4.41-2.5-.5-5.07-.69-7.46-1.65-.51-.2-.92.61-1.38,0C105.93,210.22,104.09,210.75,103.66,209.15Z"/><path class="cls-5" d="M140.75,210.16c.37-1.09.11-1.73-1.17-1.57a5.17,5.17,0,0,1-5-1.94c-.31-.39-.31-.24-.42,0s-.3.48-.54.23a.72.72,0,0,1,0-.68,19.25,19.25,0,0,0,2.15-2.82c.18-.36.8-.38,1.38-.31,1.9.24,3.69,1,5.69.93.4,0,2.28-.18,2.7,1.21,1-.33,1.84.63,2.68.56,2.34-.18,4.46,1.38,6.88.75.24-.06,1.11.92,2,.66,1.76,1.52,3.31,3.28,5.22,4.64a.72.72,0,0,1,.19,1l.33,1.66c-.54.54-1.18.39-1.81.26-6-1.19-12-2.25-17.94-3.53C142.22,211.11,141.12,211.28,140.75,210.16Z"/><path class="cls-53" d="M163.88,95.18c2.06-.84,4,.18,5.93.54,12.41,2.32,24.79,4.78,37.18,7.2q15.78,3.08,31.54,6.19a7.3,7.3,0,0,1,1.08.38c.25.48.91.91.39,1.51-.38.44-1,.23-1.46.13-9.38-1.91-18.78-3.68-28.18-5.48-12.47-2.39-24.93-4.88-37.42-7.21-2.51-.47-5-1-7.52-1.49C164.39,96.73,163.78,96.31,163.88,95.18Z"/><path class="cls-54" d="M140.75,210.16a110.68,110.68,0,0,0,12.36,2.58c3.23.54,6.36,1.62,9.65,1.81,3.36.64,6.74,1.17,10.07,2a70.73,70.73,0,0,0,7,1.51c1.37.18,1.47.86.92,1.9-.8.58-1.63.2-2.42,0q-18.57-3.56-37.14-7.18c-9.41-1.84-18.84-3.58-28.24-5.43-1-.2-2.24-.17-2.85-1.32a9.54,9.54,0,0,0,1.59-.82c.86-.67.15-.67-.36-.71l0,0,.56-.78c.54-.79,1.33-.65,2.1-.58a.9.9,0,0,1,.52.63.57.57,0,0,1-.49.5h.11a35.07,35.07,0,0,1,6.08,1.41c1.25.33,2.72-.3,3.77.83.31.42.61.87,1.25.56a10.54,10.54,0,0,1,1.13.11c.15.41.53.23.81.32,1.56.14,3.2-.17,4.62.78,1.09,1,2.64.73,3.89,1C137.35,209.69,139,210.44,140.75,210.16Z"/><path class="cls-55" d="M84.35,167.43c2.24,2,5,3.06,7.46,4.71.41,1.3-.79,2.07-1.09,3.31.8.18,1.55-.5,2.34-.16,1,.43.73,1.29.76,2.07.32-1.81,1.24-2.34,2.38-1.16.82.84,1.6-.47,2.22.3.74.29.86,1,1.17,1.63,0,.71.76,1.47-.11,2.15a5.75,5.75,0,0,0-2,1.07.77.77,0,0,1-.73-.4c-.47-.89-1.2-.55-1.9-.39l-.86,0c-.23-1-.72-1.1-1.42-.37-4.44-.77-9-1.15-13.23-2.78-.38-.6-.07-1.14.21-1.62C81.13,173,82.57,170.11,84.35,167.43Z"/><path class="cls-56" d="M157.74,100.2c3.57,1.19,7.3,1.6,11,2.32q16.41,3.26,32.83,6.44,18.39,3.56,36.8,7.06a8.54,8.54,0,0,0,1.34,0c-1.07,1.56-2.79,1.39-4.16,1.07-4-.93-8-1.45-12-2.39-8.45-2-17-3.31-25.51-5.19-7-1.54-14-2.6-21-4-6.24-1.21-12.47-2.5-18.7-3.8-.57-.12-1.32.36-1.71-.44,0-.08,0-.17,0-.26C156.89,100.67,157,100.06,157.74,100.2Z"/><path class="cls-57" d="M110.15,206c4.77,1.5,9.74,2,14.61,3.05,7.69,1.6,15.43,3,23.14,4.44q15.61,3,31.21,6l1.69.35-.74,1.15c-.94.83-2,.29-2.94.1-18.3-3.54-36.61-7-54.9-10.62-4.08-.8-8.18-1.55-12.26-2.38-.73-.15-1.6-.17-1.59-1.27A3.16,3.16,0,0,1,110.15,206Z"/><path class="cls-58" d="M108.37,206.9c.68,1.18,2,.82,2.95,1,13.1,2.63,26.22,5.16,39.34,7.69q14.31,2.78,28.63,5.49a4,4,0,0,0,.77,0c-.33.94-.85,1.11-1.9.89-9.86-2-19.74-3.88-29.61-5.78q-19.5-3.75-39-7.45c-1-.19-1.94-.42-3-.66A2.74,2.74,0,0,1,108.37,206.9Z"/><path class="cls-59" d="M233.46,185.19c-1.73-8.06,2.71-15.46,12.28-19.86l-11.61,20.22h-.2l-.5-.4Z"/><path class="cls-52" d="M212.69,233.93l-11.6-2.38c-2.5-.51-5-1.06-7.5-1.48-.84-.15-.9-.37-.59-1.08,1.07-2.54,1.9-3,4.69-2.5,3.57.65,7.17,1.19,10.71,2,2.73.64,3.3,3.25,4.27,5.43Z"/><path class="cls-60" d="M162.43,212.89c-.2-1.11-1.31-1.31-2-1.87a12.7,12.7,0,0,1-3.4-3.79,1,1,0,0,0,.74-1.17c.38-1.5-1.16-2.21-1.43-3.58.7-.18,1.51.4,2.19-.12,1.85,4.52,6.14,5.81,10,7.62,1,.37,1.84.91,1.59,2.2a2.62,2.62,0,0,1-2.36.39c.87.68,1.56.31,2.22-.27a.28.28,0,0,1,.44,0l1.6,2.7A69.52,69.52,0,0,1,162.43,212.89Z"/><path class="cls-11" d="M84.35,167.43c-.15,1.92-1.58,3.21-2.34,4.84s-2.08,3.25-2.72,5.1l-2.24.12c-.79-.16-1.7.32-2.38-.45-.12-.69-1.06,0-1.18-.71,1.8-1.77,2.54-4.2,3.89-6.25,1-1.59,1.84-3.34,2.74-5,.3,0,.81,0,.85.06C81.56,166.71,83.21,166.69,84.35,167.43Z"/><path class="cls-60" d="M114.26,203.88l-.19-.34a.51.51,0,0,1-.12-.32q0-.18,0-.18l-.28-.87c1-.71,1.81.83,2.87.39-1.12-1.65-1.5-1.69-2.85-.37,0,0-.14,0-.17-.07-2-2.66-2-2.73,1-4.08,2.55-1.16.23-2.35.19-3.58a3,3,0,0,1,2.11.39c.77.31.86,1.06,1.11,1.71a6.41,6.41,0,0,0,4,3.94,3.3,3.3,0,0,1,1.84,4.4c-.17.92-.83,1-1.59.92A32.61,32.61,0,0,1,114.26,203.88Z"/><path class="cls-61" d="M221.08,209c-1.45-1.35-1.33-2.5-.4-4.06,3.64-6.1,7.1-12.31,10.63-18.51,1.52,1.11,1.48,2.23.57,3.78C228.24,196.4,224.73,202.65,221.08,209Z"/><path class="cls-61" d="M247.71,162a2.46,2.46,0,0,1-.47-3.51c3.43-5.78,6.71-11.65,10-17.48.28-.48.44-1.06,1-1.34,1.26,1.11,1.28,2.16.39,3.65-3.37,5.66-6.57,11.42-9.85,17.14C248.52,161,248.36,161.65,247.71,162Z"/><path class="cls-62" d="M207.2,221.86c1.54-1.57,1.88-4.1,4.35-5a68.24,68.24,0,0,0,6.62-3.28c-1.46,2.55-2.68,4.74-4,6.91-.82,1.39-1.26,3.1-3,3.74a1,1,0,0,1-.2.67,2.07,2.07,0,0,0-.17,1.58.43.43,0,0,1-.22.39c-.21.38-.41.76-.62,1.13-1.59-.93-1.55-2.87-2.57-4.15a4.43,4.43,0,0,1-.29-.46C206.9,222.86,206.69,222.34,207.2,221.86Z"/><path class="cls-63" d="M198.8,222.6c-.71-.29-1-1-1.32-1.68s.34-.73.64-.88c4.93-2.49,9.89-4.91,14.79-7.44,1.33-.69,1.49.33,2,1s0,1-.52,1.25q-7.49,3.75-15,7.47Z"/><path class="cls-5" d="M163.88,95.18c1.11,2.3,3.48,1.87,5.34,2.26,9.12,1.9,18.28,3.62,27.43,5.38,14,2.7,28,5.37,41.93,8.1,1.71.33,1.27-.54,1-1.43a4.9,4.9,0,0,1,1.91,2.46c-7.94-1.56-15.88-3.13-23.82-4.66-7.69-1.49-15.4-2.9-23.09-4.38S179.47,100,171.9,98.49c-2.24-.44-4.46-1-6.71-1.32a9.1,9.1,0,0,0-4.7.44c.26-2,2.09-1,2.87-1.72a1.09,1.09,0,0,1-.6-1.45C164.18,93.09,163.29,95.25,163.88,95.18Z"/><path class="cls-64" d="M233.93,185.55a.15.15,0,0,1,.2,0c.1.86.31.78.69.11q3.31-5.81,6.65-11.6c1.45-2.54,2.87-5.09,4.36-7.61a2.44,2.44,0,0,0,.4-2.11l.18-.19a1.66,1.66,0,0,1,1.52,0l.19.18c-1.75,4.05-4.24,7.69-6.36,11.53-2.75,5-5.63,9.87-8.44,14.81-.34.59-.88,1.13-.68,1.93l0,0c-1-.49-1-1.18-.37-2A7.72,7.72,0,0,0,233.93,185.55Z"/><path class="cls-65" d="M260.09,157.37a4,4,0,0,0-1.52,2.73c-.57.36-1,.46-1.38-.33a7.22,7.22,0,0,0-1.74-2.4c1.5-1.07,1.89-2.89,2.86-4.31.68-1,1.22-2.07,1.83-3.13,2.15,2.57,2.16,2.6,1.5,4.74A4.22,4.22,0,0,0,260.09,157.37Z"/><path class="cls-66" d="M219.26,175.5,236,146.18C236.38,147.6,221.17,174.61,219.26,175.5Z"/><path class="cls-67" d="M207.61,223.32c1.08,1.41,1.54,3.14,2.38,4.67l-13.84-2.52a1.55,1.55,0,0,1,1.35-1.26,4.29,4.29,0,0,1,2.83,0c2.33.46,4.65,1,7,1.3C207.37,224.73,206.86,223.94,207.61,223.32Z"/><path class="cls-68" d="M238.46,145c.82.61.13,1.22-.12,1.67q-8.78,15.4-17.61,30.77a1.37,1.37,0,0,1-.58.53c.29-1.74,1.41-3.12,2.24-4.58,5.31-9.37,10.71-18.69,16.08-28,.05-.09,0-.25,0-.38Z"/><path class="cls-69" d="M237.29,166.91a13.76,13.76,0,0,1,4.41-3.26c1.12-.66,1.52-.11,2,.76.68,1.12-.24,1.2-.83,1.59-1.49,1-2.94,2-4.4,3A1.63,1.63,0,0,1,237.29,166.91Z"/><path class="cls-70" d="M207.61,223.32a4.51,4.51,0,0,0,.71,2.92l-10.82-2a12.31,12.31,0,0,1,3.15-1.8c2.31.31,4.52,1.46,6.94.79Z"/><path class="cls-71" d="M219.49,207.56c.19,1.05,1.54,1.6.86,2.65a7.5,7.5,0,0,1-3.92,3.48c-.73.23-.9-.5-1.23-1a1.1,1.1,0,0,1,.24-1.68C217.2,210.43,217.91,208.72,219.49,207.56Z"/><path class="cls-72" d="M207.59,223.2c-.24.29-.54.87-.72.84-2.11-.39-4.39-.16-6.22-1.63,1.79-1.71,3.86-.2,5.82-.52-.86-.5-1.89-.37-2.82-1l4.58-2.28c0,1.35-1.3,2.06-1,3.26C207.28,222.32,207.09,222.86,207.59,223.2Z"/><path class="cls-73" d="M193.4,227.08c-1.83-2-1.85-2.11-.07-3.88a26,26,0,0,1,2.07-1.67c.65-.52,1.18-.83,1.77.19.48.81.8,1.42-.23,2C195.49,224.54,194.6,226,193.4,227.08Z"/><path class="cls-74" d="M189.43,233.88c-1.31.1-1.74,1.41-2.71,2-.41-.78-1.13-1.42-1.18-2.38a20.39,20.39,0,0,0,4.08-4.55c1.44,1.11,1.76,2.27.46,3.66C189.75,232.93,189.31,233.28,189.43,233.88Z"/><path class="cls-75" d="M214,224.19c-1-.24-.84-.65-.49-1.25,1.36-2.31,2.68-4.62,4-6.95a30.89,30.89,0,0,0,1.95-3.69c.12-.29.55-1.19,1.31-.66s0,.93-.17,1.29c-2,3.49-4,7-6,10.44C214.42,223.68,214.17,224,214,224.19Z"/><path class="cls-5" d="M131.87,208.33a12.14,12.14,0,0,1-4.62-.78c.2-.71,1.9-.4,1.21-1.78-.13-.25.39-.36.56-.25,1.85,1.21,1.83-1,2.41-1.57,1.47-1.39,1.28-1.59,3.73-.67A13.21,13.21,0,0,0,132,204.6c-1.66.73.16,1.88-.6,2.58,1.14.64.57-1.44,1.35-.59S132.3,207.8,131.87,208.33Z"/><path class="cls-5" d="M126.44,207.23c-.38.06-.78.23-1.13-.11.33-.65.77-1.29,0-2a1.33,1.33,0,0,1-.21-1.75c.16-.27.37-.47.12-.84-.35-.53-1.35-1.17-.77-1.67s1.82-.32,2.71.15c.17.09.31.21.49.33.1.75-1,.54-1,1.17.43.63,1.21.64,1.8,1C127.36,204.53,128,206.49,126.44,207.23Z"/><path class="cls-76" d="M108.37,204.3c-.83,2.63-2.09,3.52-4.55,3.31-1.13-.1-1.24-.43-.72-1.42C104.45,203.64,104.4,203.62,108.37,204.3Z"/><path class="cls-77" d="M97.19,206.28c2.21-2.42,3.77-3.06,6.68-2.83C102.31,207.41,102.31,207.41,97.19,206.28Z"/><path class="cls-78" d="M123,222.66c-.09.7-.6,1.51.57,1.85s.15,1.2.44,1.76a.87.87,0,0,0,.21-.09c.63-.45.87-1.51,2-1.2.31.09.49.25.34.52a3.4,3.4,0,0,1-2.17,1.36,2.42,2.42,0,0,1-2.5-.62c-.37-.39-.32-.68-1.14-.52-1,.22.37-1-.46-1.35-.73-.09-.61,1-1.68,1.26,1.22-.88-.59-1.18.11-1.87s1.44-.1,2.16,0a.77.77,0,0,0,1-.63c.15-.65.57-.8,1.15-.48Z"/><path class="cls-79" d="M96.34,202.59a6.43,6.43,0,0,1,4.6-2A1.52,1.52,0,0,1,102.7,202c.11.86-.77.85-1.36.94-1.32.19-2.3,1.05-3.43,1.59A2.4,2.4,0,0,1,96.34,202.59Z"/><path class="cls-80" d="M162.76,94.44l.89,1.67c-.91.86-2.48.24-3.16,1.5v-.06a4.9,4.9,0,0,1-1.53.63,2.81,2.81,0,0,1-2-1.8A6.34,6.34,0,0,1,162.76,94.44Z"/><path class="cls-81" d="M172.88,197.59h1l.43.77c.13,1-.93.23-1.12.76a4.69,4.69,0,0,0-.38.86c-.13.55,1.34.54.55,1.24a6,6,0,0,1-2.2,1.11c-.92.27-.95-.63-1.17-1.17s-.12-1.19.69-1.19,1.62-.46,1.32-1.16c-.41-.95-1.34-.21-2,.05s-.85.82-1.5.36c-.25-.18-.19-.43-.09-.68.28-.77.91-.46,1.45-.51A8.09,8.09,0,0,0,172.88,197.59Z"/><path class="cls-82" d="M103.66,209.15c.9.88,2.6.56,3.11,2-3.16-.57-6.32-1.11-9.46-1.73-.49-.1-1.39-.15-1.29-.81.13-.94,1.07-.74,1.72-.63C99.72,208.36,101.69,208.77,103.66,209.15Z"/><path class="cls-19" d="M228.45,204.88a2.21,2.21,0,0,1-1.7-.22c1.49-2.61,3-5.19,4.42-7.83.44-.82,1-.54,1.52-.44.42.8-.23,1.32-.55,1.88-1.25,2.21-2.54,4.4-3.72,6.65Z"/><path class="cls-83" d="M258.54,148.48c1.29.36,1.17,1,.6,2-1.25,2.28-2.91,4.34-3.66,6.89h-1.75C255.29,154.33,257.39,151.66,258.54,148.48Z"/><path class="cls-84" d="M232.25,183a9,9,0,0,1,0-8.86c1.46,1.74,1.51,1.76.71,3.64A13.8,13.8,0,0,0,232.25,183Z"/><path class="cls-5" d="M114.26,203.88c2.76.49,5.53.91,8.26,1.51.69.15.89-.16,1.23-.49.11.55.21,1.11.31,1.66-3.88,0-7.52-1.51-11.41-2.07C112.91,203.83,113.83,204.32,114.26,203.88Z"/><path class="cls-85" d="M237.29,166.91l1.22,2.1-2.8,3.37c-1.7-1.31-1.45-2.59-.08-3.88Z"/><path class="cls-86" d="M96.34,202.59c.79.44,1,1.31,1.57,1.94a10.43,10.43,0,0,0-2.39,3.83C93.72,206.7,94,205.22,96.34,202.59Z"/><path class="cls-87" d="M252.63,156.85c-.19-3.12,2.3-5.07,3.29-7.9C256.74,150.92,255.77,153.28,252.63,156.85Z"/><path class="cls-88" d="M225.86,204.62a2,2,0,0,1-.17-2.54c.85-1.34,1.58-2.75,2.41-4.11.21-.35.25-1.17,1-.74.58.35.54.88.18,1.47C228.12,200.61,227,202.55,225.86,204.62Z"/><path class="cls-89" d="M132.25,226.52c-.75,1.55-2.26.94-3.46,1.17-.12,0-.68,0-.31-.3.62-.53-.22-2.24,1.2-1.84s1.33-.55,1.14-1.07c-.44-1.2.81-.59,1-1.12s.69-.24,1,.12-.18.78-.33,1.17-.91.89-.22,1.49c.13.08.17.17.13.25S132.29,226.52,132.25,226.52Z"/><path class="cls-63" d="M114,203a2,2,0,0,1,.1.32.37.37,0,0,1,0,.18c-.76-.53-1.37.37-2.1.22a8.7,8.7,0,0,1-1.7-.08,1.77,1.77,0,0,1-1.24-1.33c-.24-.76.56-.65.89-.95,1.33-1.2,2.29-1,2.92.72A1.47,1.47,0,0,0,114,203Z"/><path class="cls-90" d="M132.25,226.52v-.38c1.53.28,2.89.34,3.23-1.74.1-.6.77-.53,1.29-.24s.3.68,0,1.09c-.66,1.11-1.5,2.17-1.34,3.61,0,.35-.51.3-.5.29.36-1.59-2.2-.64-1.93-2.18C133.07,226.87,132.53,226.67,132.25,226.52Z"/><path class="cls-91" d="M173.87,214.6c1.57-.07,2.95.73,4.48.6.77-.07.79,1,.83,1.51.06.81-.72.57-1.13.43C176.52,216.61,174.37,217,173.87,214.6Z"/><path class="cls-92" d="M246.23,164.34c-.67.19-1.3,1.08-2-.22-.47-1-.67-1.53.34-2.15a11.07,11.07,0,0,0,1.43-1.28l1.71,2.52-.13.21c-.37.47-1,.53-1.42,1Z"/><path class="cls-93" d="M108.62,203.66c-1.27-.23-2.63-.47-4-.73a1.31,1.31,0,0,1-1.15-1.5c.14-.7,1-.43,1.47-.29C106.43,201.56,108.53,201,108.62,203.66Z"/><path class="cls-94" d="M102.47,183.69c.66.58,1.66.13,2.31.75a32.6,32.6,0,0,1-2.44,4.55c-.55,1.06-1.38.62-2.18.5a4.76,4.76,0,0,1-2.37-.64,1.12,1.12,0,0,1,1.26-.17c2.18,1,3-.32,4-2s.37-2-1.05-2.17l-1-.13c-.29-.12-.72-.13-.79-.46s.3-.5.63-.47c.56.06,1.15-.2,1.66.22Z"/><path class="cls-95" d="M173.2,199.12c.15-.59.94-.22,1.12-.76.06,0,.14,0,.18,0,1,.87,1.87,2.24,3.24.45.38.78-.29.72-.48,1-1.7,2.3-1.62,2.75,1,4-1.19.67-2.2,0-3.13-.22-.6-.15-.09-.75.07-1.13C175.9,200.75,175.21,199.59,173.2,199.12Z"/><path class="cls-25" d="M93.26,184.48c.19,0,.52,0,.54-.08.55-2.14,2-2,3.69-1.59.38-.14.77-.17.83.33a1.62,1.62,0,0,1-.95,1.63c-1.38,1.16-2.74-.29-4.11,0Z"/><path class="cls-96" d="M158.55,202.31a7.18,7.18,0,0,0-1.05-.42c-2.36-.53-3.17-2.49-2.07-4.73.48-1,1.17-.77,1.91-.76v.75c-1.5,1.5-1.5,2.8,0,4C157.82,201.52,158.38,201.71,158.55,202.31Z"/><path class="cls-97" d="M157,96.38c1,.09,1,1.36,2,1.52-.61,1.34-1.39,2.44-3.09,2.35a1.62,1.62,0,0,1-.81-.42C155,98.28,156,97.33,157,96.38Z"/><path class="cls-98" d="M197.15,204.5a4.81,4.81,0,0,1-3.1-.54c.44-2.93,2.46-1.85,4.29-1.62l-1.2,2.17Z"/><path class="cls-99" d="M199.1,195.26c-.19-.48-1-.81-.15-1.51a2,2,0,0,0,.57-2c1-1.25,2.18-.89,3.38-.37-2.1.4-1.52,2.74-2.74,3.78C199.76,194.57,199.48,195.58,199.1,195.26Z"/><path class="cls-100" d="M194.3,207.49c-1.34.26-2.41-.38-3.57-.38-.5,0-.93-.33-.62-.89.84-1.51,1.71-3,2.65-4.47.31-.49.9-.39,1.59-.05-1.57.74-2,2.26-2.83,3.49s-.17,1.45.82,1.57A2.9,2.9,0,0,1,194.3,207.49Z"/><path class="cls-5" d="M97.37,184.77a9.48,9.48,0,0,1,.6-1.29c.53-.75-.18-.55-.48-.67a9.71,9.71,0,0,1,5,.88c-.5,0-1-.06-1.49-.07-.23,0-.58,0-.53.29s.34.33.52.49c-.22.42-1.32-.24-1,1,.2.83-.86,1.11-1.72.93-.3-.58.29-.91.38-1.38,0-.06.48-.54-.15-.27a.77.77,0,0,1-.36.09Z"/><path class="cls-101" d="M254.63,115.58c2.38,1.84.34,3.65.35,5.6C253.61,119.1,253.56,118.2,254.63,115.58Z"/><path class="cls-102" d="M256.62,112.2c.37.91,1.25,1.6,1.18,2.7-.85.29-.74,1.27-1.34,1.72C254.68,114.62,254.68,114.62,256.62,112.2Z"/><path class="cls-103" d="M170.45,212.26a1.1,1.1,0,0,0-.36,0l0,0c0-1.11-1.16-1.43-1.55-2.27.38-.63-.05-1-.6-1.57,1.41-.06,2.67,0,3.16,1.31A2.35,2.35,0,0,1,170.45,212.26Z"/><path class="cls-102" d="M191.63,225.93c1.87,1.45,1,2.89-.07,4.32C190,228.85,190.05,227.4,191.63,225.93Z"/><path class="cls-104" d="M210.66,224.59l.54-.37c.86,0,1.92-.3,2.37.61a2.85,2.85,0,0,1,.46,1.43c-1.08-.5-1.37,1.46-2.52.8a2.89,2.89,0,0,0-.9-.2.16.16,0,0,1,0-.25C211,226,210.45,225.26,210.66,224.59Z"/><path class="cls-105" d="M179.55,204.08c3.2-.11,4.39-.74,4.71-2.46s-1.73-.36-1.9-1.64c.82-.24,1.6.26,2.41.34a.57.57,0,0,1,.55.64A3.85,3.85,0,0,1,179.55,204.08Z"/><path class="cls-96" d="M115.22,188.34c1.5.06,1.62.87,1.18,2.07a4,4,0,0,0-.34,1.67c.22,2-.85,1.77-2.44,1.27,2.27-1.29,1.46-3.29,1.63-5Z"/><path class="cls-5" d="M169.45,182.32c-1,2.09-1.74,4.32-3.59,5.86A12.71,12.71,0,0,1,169.45,182.32Z"/><path class="cls-106" d="M234,175.51c-.15-1.23-2-1.58-.95-3,.31-.41.38-1.51,1.15-1a1.68,1.68,0,0,1,.86,2.08C234.77,174.19,234.42,174.71,234,175.51Z"/><path class="cls-107" d="M228.42,204.92c.35-2.2,2-3.77,2.84-5.7.44-1,1.23-1.75,1.43-2.83a1.51,1.51,0,0,1,.37,0c.28.93-.38,1.56-.79,2.22C231,200.71,230.1,203.07,228.42,204.92Z"/><path class="cls-108" d="M101.87,185.16c.55.1,1,.33.72.76-.53.86-.59,2.17-2,2.31-.34,0-.89,0-.68-.58A3.73,3.73,0,0,1,101.87,185.16Z"/><path class="cls-109" d="M112.44,191.19c-.88.48-1.64-.16-2.44-.21a.58.58,0,0,1-.52-.84c.74-1.35,1.21-2.91,2.82-3.68-.45.77-.85,1.57-1.36,2.31-.85,1.22-.66,1.84.92,1.84C112.1,190.61,112.37,190.68,112.44,191.19Z"/><path class="cls-110" d="M202.72,205.36c-.56.81-.65,2.09-2,2.22-.29,0-.62,0-.6-.48,0-.68,1.48-2.64,2-2.56A.66.66,0,0,1,202.72,205.36Z"/><path class="cls-111" d="M90.53,187.52c-.89-2.18.51-4.35,3.68-5.05a6.75,6.75,0,0,0-3.29,4.27C91.15,187.18,91.25,187.56,90.53,187.52Z"/><path class="cls-112" d="M261,142.09l2.49,2.76c-1.38,0-2.51.07-3.15-.6S261,143.05,261,142.09Z"/><path class="cls-113" d="M206,197.17c1.53.25,2-1.11,2.12-2,.24-1.52,1.44-2.18,2.14-3.27-.37,2.18-1.83,3.82-2.91,5.63C207,198.22,206.19,198.34,206,197.17Z"/><path class="cls-5" d="M99.41,180.18c.77-.65-.82-1.27,0-1.92,1.09-.34.82.74,1.19,1.13h0a2.81,2.81,0,0,1,.4,2.71l0,0c-.76-.14-1.6.26-2.29-.34C98.91,181.25,99.14,180.7,99.41,180.18Z"/><path class="cls-114" d="M157.74,196.08c-.44-.23-1.5.28-1.17-.89.18-.66.66-.81,1.34-.57a11.52,11.52,0,0,0,1.84.37l-.47,1.4Z"/><path class="cls-115" d="M214.23,194c-.41.75-.75,1.47-1.74,1.29-.44-.08-.78-.31-.66-.76a1.53,1.53,0,0,1,1.73-1.18C214,193.37,214.3,193.55,214.23,194Z"/><path class="cls-116" d="M115.22,186.34a3.58,3.58,0,0,0,1.1.31c1.55-.09,1.24.75.88,1.64-.66.19-1.35-1-2,.05l0,0C114.05,187.67,115,187,115.22,186.34Z"/><path class="cls-117" d="M241.14,146.53c-.1,1-.67,1.26-1.47,1.23-.41,0-.83-.14-.78-.6.12-.93.87-1.18,1.65-1.27C241.06,145.83,241.11,146.25,241.14,146.53Z"/><path class="cls-118" d="M224.46,196.12c-.35.47-.5,1.24-1.23,1.26-.41,0-1.12-.09-1-.86a1.45,1.45,0,0,1,1.32-1.2C224.05,195.24,224.41,195.51,224.46,196.12Z"/><path class="cls-117" d="M250.66,147.84c.57,0,.91.32.85.82a1.35,1.35,0,0,1-1.19,1.24c-.38,0-1.08-.08-1.06-.79C249.29,148.2,250.11,148.14,250.66,147.84Z"/><path class="cls-24" d="M233.43,185.15a6.51,6.51,0,0,1-.09,2.24c-1.79-1.43-1.79-1.43-.87-3.26.31.38.4,1,1,1.06Z"/><path class="cls-119" d="M204.42,204.56a3.58,3.58,0,0,1-2.26,3.85.31.31,0,0,1-.14-.3c0-.11,0-.17.08-.17l1.71-3C203.89,204.61,204.05,204.42,204.42,204.56Z"/><path class="cls-120" d="M204.42,204.56l-.61.38c-.59-1.49-2.52-.6-3.61-2.36C201.85,203.56,203.79,202.32,204.42,204.56Z"/><path class="cls-121" d="M99.41,180.18c.62.95.08,1.35-.76,1.6-.44-.06-.92,0-1.22-.43A1.39,1.39,0,0,1,99.41,180.18Z"/><path class="cls-122" d="M170.35,202.7c-.46,1.41-.2,1.83.91,1.25-.35,1.19-1.57,1.31-2.07,2.19C169.53,205.14,168.88,203.94,170.35,202.7Z"/><path class="cls-5" d="M131.51,202.12c-1.55,1.3-2.52,1.51-2.89-.7Z"/><path class="cls-123" d="M197.14,204.51c1,.3,1.15-.53,1.55-1,.2-.24.36-.57.72-.31s.28.46.07.79c-.57.91-.87,2.24-2.42,1.31l.05,0c0-.26,0-.52,0-.78Z"/><path class="cls-124" d="M247.75,163.21c1.28-1.21,1.29-1.21,2.37.66-.67.23-1.45,0-2,.45l0,0c-.3-.34-.7-.65-.36-1.18Z"/><path class="cls-125" d="M211,227.79l2,4.33c-1.1-1.27-2.34-2.46-2.63-4.11Z"/><path class="cls-5" d="M150.39,100.76a8.58,8.58,0,0,1-4.24-1.3l4.34.82Z"/><path class="cls-126" d="M202.1,207.94l.06.47c-1.54,1.38-2.9.14-4.32-.17C199.24,207.53,200.72,208.94,202.1,207.94Z"/><path class="cls-127" d="M94.8,180.56c.35-.63.81-1.11,1.59-.79A.7.7,0,0,1,96.7,181C96,181.23,95.19,181.91,94.8,180.56Z"/><path class="cls-128" d="M157.34,197.17c.53,0,1.13-.19,1.29.7.23,1.23-1.06,1-1.44,1.68-.8-.84.87-1.54.15-2.4Z"/><path class="cls-129" d="M244.19,132.22a6.44,6.44,0,0,1-2.07,3.85A9.75,9.75,0,0,1,244.19,132.22Z"/><path class="cls-130" d="M255.82,160.89c-.76-.83-2.13-.26-2.83-1.23,3,0,3,0,2.79,1.21Z"/><path class="cls-39" d="M252.85,161.56c-.91-.58-1.18-1.68-1.9-2.41-.17-.18-.52-.44.06-.62.24-.07.38-.5.65,0,.51,1,1.39,1.79,1.14,3Z"/><path class="cls-131" d="M90.53,187.52c.32-.16.33-.48.39-.78.93.78,2.3.52,3.67,1.38A7.32,7.32,0,0,1,90.53,187.52Z"/><path class="cls-132" d="M228.79,208.4c-.75-.89-2.11-.44-3-1.31,3.17-.19,3.17-.19,3,1.29Z"/><path class="cls-133" d="M251.08,160.87c.33.79,1.45,1.28.67,2.38-.19.26-.34.09-.56-.11C250.43,162.45,249.94,161.79,251.08,160.87Z"/><path class="cls-78" d="M125.26,224.19c-.38-.05-.72-.13-.61-.43.3-.83,1.47-.88,1.7-1.81.27.08.47.26.43.53C126.65,223.43,125.67,223.59,125.26,224.19Z"/><path class="cls-134" d="M181.76,203.8a3.76,3.76,0,0,1,.15-.74c.45-.58.49-1.47,1.32-1.73.06,0,.34.29.31.38A2.75,2.75,0,0,1,181.76,203.8Z"/><path class="cls-135" d="M111.38,204.5c-.74.83-1.84.95-2.8,1.54.35-1.83,1.48-1.88,2.83-1.5Z"/><path class="cls-136" d="M98.13,184.81c.44-.27.07-1.5,1-1.07s0,1-.16,1.53a5.37,5.37,0,0,1-.7,1.1C97.32,185.93,98,185.34,98.13,184.81Z"/><path class="cls-137" d="M223.2,211.83c-1-.76-2-.32-2.38-1.21-.08-.2.27-.74.7-.76C222.47,209.81,222.73,210.55,223.2,211.83Z"/><path class="cls-138" d="M155.07,99.83l.8,0c1,.16,1.57.54.71,1.55l0,0C155.43,101.53,154.77,101.16,155.07,99.83Z"/><path class="cls-5" d="M200.77,189.42a3.33,3.33,0,0,1-2.81.19A2.5,2.5,0,0,1,200.77,189.42Z"/><path class="cls-5" d="M114.8,180.66c1.37-.11,2.32-.28,3.35,1.15C116.89,181.22,115.93,181.6,114.8,180.66Z"/><path class="cls-139" d="M239.19,140.81a3.56,3.56,0,0,1,2-2.56C240.77,139.51,240.52,140.33,239.19,140.81Z"/><path class="cls-140" d="M92.52,180.15c0-.7.54-1.24,1.06-1.1a.83.83,0,0,1,.36,1.47A2.05,2.05,0,0,1,92.52,180.15Z"/><path class="cls-141" d="M238.48,145a2.43,2.43,0,0,1-.5-2.25c.07-.28.41-.26.62,0,.78.81-.17,1.53-.14,2.31Z"/><path class="cls-5" d="M196.17,190a2.83,2.83,0,0,1-2.38-.09C195,189.39,195,189.39,196.17,190Z"/><path class="cls-137" d="M197.06,205.25c.12.23.45.74.23.66-1-.33-2.29.09-3.15-.87,1.06-.51,2,.31,3,.24Z"/><path class="cls-5" d="M131.93,96.66a5.44,5.44,0,0,0,2.24.55A2.67,2.67,0,0,1,133,98.3,2.56,2.56,0,0,1,131.93,96.66Z"/><path class="cls-78" d="M123,222.67c.26-.87,1-.5,1.62-.7.15.73-.36,1.16-.66,1.72-.6-.11-.08-1.26-1-1Z"/><path class="cls-142" d="M212.59,188.39c-.44-.42,0-.84,0-1.26.26-.24.33-.83.8-.68s.21.64,0,.92A11.43,11.43,0,0,1,212.59,188.39Z"/><path class="cls-5" d="M205.17,189a2.07,2.07,0,0,1,2.47-.44C206.82,189.26,206.18,189,205.17,189Z"/><path class="cls-143" d="M93.26,184.48a.53.53,0,0,1,0,.25c-.44.56-.11,1.41-.73,1.87,0,0-.39-.15-.41-.26-.13-.83.48-1.38.85-2,0,0,.13,0,.17,0A.55.55,0,0,1,93.26,184.48Z"/><path class="cls-144" d="M231.46,195.2c-.1.88-.45,1.07-1.18.49-.27-.21-.79-.13-.32-.71.73-.87,1,.21,1.54.27Z"/><path class="cls-145" d="M97.22,186.24a3.69,3.69,0,0,1-3.22-.57A4.27,4.27,0,0,1,97.22,186.24Z"/><path class="cls-146" d="M227,206.3c-.74.42-1.29-.05-1.89-.39C226,205.15,226.66,204.88,227,206.3Z"/><path class="cls-147" d="M246.56,128.57c-.25,1.12-.49,1.66-1.36,2.11A2.16,2.16,0,0,1,246.56,128.57Z"/><path class="cls-5" d="M202.92,189.31c.37-.86,1-.56,1.66-.62C204.24,189.84,203.47,189.23,202.92,189.31Z"/><path class="cls-5" d="M117.91,196.56a4.52,4.52,0,0,1-1.11-1.71C118.21,194.93,118.21,194.93,117.91,196.56Z"/><path class="cls-36" d="M258.58,148.1v.41c-.87.6-1-.45-1.54-.67.12-.21.2-.52.38-.6C258.22,146.92,258.12,147.9,258.58,148.1Z"/><path class="cls-148" d="M193,204.51l-.19,1.5c-.17,0-.43,0-.51-.08C191.79,205.26,192.37,204.86,193,204.51Z"/><path class="cls-5" d="M191.3,190.15c-.66.65-1.16.42-1.89.23A1.3,1.3,0,0,1,191.3,190.15Z"/><path class="cls-149" d="M98.65,176.66c-.79.13-1.93-.49-2.12,1.16-.24-1.08-.52-2.13-1.69-1.77s-1,1.39-.78,2.36c-.13-.21-.35-.41-.37-.63-.19-1.75-.45-3.29-2.66-1.48a1.17,1.17,0,0,1-1.07-.15c-.38-.33.08-.68.24-1,.51-1,1.07-2,1.61-3a35.23,35.23,0,0,1,6.82,4.22c.12.06.16.12.12.19S98.68,176.66,98.65,176.66Z"/><path class="cls-150" d="M101,182.1c-.08-.4-1.14-.5-.44-1.07s-.06-1.11,0-1.64c.71.19.83.93,1.22,1.41C102.63,181.82,102,182.11,101,182.1Z"/><path class="cls-151" d="M98.65,176.66c0-.1,0-.2,0-.3,1,.81,2.51,1.25,1.94,3l-1.19-1.13C98.75,177.91,98.93,177.18,98.65,176.66Z"/><path class="cls-152" d="M19.82,131.47c-1.08-.67.06-1.32.11-2s.64-1.16,1-1.74C21.1,129.16,19.85,130.13,19.82,131.47Z"/><path class="cls-153" d="M147.8,125.4c-.22,1-1.05.57-1.64.7-.79-2.49-2.47-4.48-3.81-6.64-7.52-12.16-15.13-24.26-22.7-36.39a9.75,9.75,0,0,1-.56-1.42.83.83,0,0,1,.75-.39c2.33,2.75,4,6,5.85,9,6,9.61,12,19.28,18,28.89A49,49,0,0,0,147.8,125.4Z"/><path class="cls-154" d="M120.31,79.8A5.55,5.55,0,0,1,116,81.69a72.15,72.15,0,0,1-3.52-11.6c1.07.58,1.49,1.71,2.07,2.65C116.18,75.36,118.76,77.17,120.31,79.8Z"/><path class="cls-155" d="M195.62,144.22c-.8-2.93-2.15-5.65-3.19-8.49-.23-.65-.71-1.51.2-2a1.45,1.45,0,0,1,2,.49c.52.78,1.34.59,2,.82,1.82.61,3.63,1.38,4.13,3.48a30.85,30.85,0,0,0,.52,3.1c.67,2,1.65,1.2,2.37.43a11.19,11.19,0,0,1,4.06-2.36,10.21,10.21,0,0,1,5-.7,17.36,17.36,0,0,0,6.08-.37c.35-.1.62,0,1,.44L201,148.43a2.8,2.8,0,0,0,2.76-1c.28,2.33,2.07,4,1.51,6.25,1.74.51.74,2.5,1.89,3.43.69.57-.12,1.23-.49,1.74a1.28,1.28,0,0,1-2,.1c-.82-1.65-2.76-1-3.87-2.23s-2.64-3.3-2.55-5c.05-.87.33-2.29-1.44-1.2-1.32.8-2.81,1.19-4,2.39a5.1,5.1,0,0,1-4.37,1.19c-2.28-.47-4.52.38-6.74-.19-.33-.17-.53-.39-.34-.78l13.43-6.68c1.44-1.34,3.57-1.53,4.9-2.94a25.35,25.35,0,0,1-2.23,1.35C196.52,145.43,195.92,145.28,195.62,144.22Z"/><path class="cls-156" d="M116.09,133.17c1.81,1.09,2.87.55,3.69-1.2s1.82-3.24,2.75-4.84a2.58,2.58,0,0,1,3.11-.5c.45.42,0,.69-.16,1-1,1.78-2.08,3.53-3,5.34-.22.43-1.21,1.09-.26,1.53.79.37,1.88,1.08,2.62-.4s1.88-3.06,2.64-4.68c.87-1.87,2-2.74,4.14-1.39-1.91,3.29-3.87,6.63-5.78,10-.36.64-.84.48-1.32.39-4-.75-7.94-1.55-11.92-2.27-1.31-.23-1.09-.81-.61-1.64,1.62-2.83,3.27-5.65,4.83-8.51.86-1.59,2.12-.78,3-.4s-.08,1.16-.33,1.64C118.41,129.23,117.22,131.2,116.09,133.17Z"/><path class="cls-157" d="M145.51,130.43c-2,3.46-3.85,6.67-5.66,9.9a1.22,1.22,0,0,1-1.51.76c-2.94-.63-5.9-1.25-8.87-1.75-1.25-.2-1-.63-.6-1.47,2.65-5.15,2.63-5.15,8.37-3.84.63.14,1.27.2,1.89.34.87.18,1.21-.48,1.38-1,.25-.86-.6-.62-1-.71-1.82-.39-3.63-.79-5.47-1.07-1-.17-1.31-.42-.75-1.44.71-1.3,1.4-2,3.1-1.51C139.29,129.38,142.28,129.8,145.51,130.43Z"/><path class="cls-158" d="M180.39,140.77c-.18-.17-.22-.23-.26-.24-4.46-1.22-4.46-1.22-6.83,2.88-.54.94-1.14,1.85-1.64,2.81a1.59,1.59,0,0,1-2,.94c-1.71-.21-1.64-.73-.89-2,2.3-3.9,4.59-7.83,6.72-11.83.9-1.68,2.05-1.13,3.23-.75,1,.31.14.82,0,1.16-1.46,2.94-1.47,2.92,1.84,3.49,1.5.26,3,.57,4.66.89-2,3.47-3.91,6.73-5.75,10-.86,1.55-2,.45-2.84.21s.06-1.07.3-1.52C178.05,144.78,179.25,142.76,180.39,140.77Z"/><path class="cls-159" d="M171.33,135.44c-1.56,3.08-1.56,3.07-4.69,2.38-.38-.08-.76-.12-1.14-.19-4.18-.83-4.14-.81-5.95,3-.44.93-.19,1.1.64,1.25,1.83.34,3.63.82,5.48,1.07,1.26.17,1.07.67.64,1.48-.63,1.2-1.24,1.94-2.92,1.48-2.95-.8-6-1.22-9.26-1.85,2-3.51,4-6.79,5.81-10.12.4-.74.93-.59,1.45-.5C164.66,134.1,167.93,134.76,171.33,135.44Z"/><path class="cls-160" d="M152.3,140.5c-1.36,3-1.35,3-4.38,2.37-1.62-.34-3.25-.62-5.08-1,2.75-4.8,5.36-9.41,8-14,.88-1.5,2-.07,3-.22,0,.19.07.26.05.31-.52,1.14-1.71,2.52-1.41,3.36.38,1.09,2.26.64,3.44,1.06.29.1,1,.15.65.64-.6.86-.58,2.43-2.15,2.33a17.44,17.44,0,0,1-3-.51c-.87-.2-1.43-.08-1.79.85-.47,1.23-2,2.38-1.68,3.45s2.28.6,3.45,1C151.66,140.34,151.91,140.39,152.3,140.5Z"/><path class="cls-161" d="M195.62,144.22c1.54,1.52,2.39-.4,3.54-.77.41-.13.62-.82,1.24-.71.19,0,.36.12.3.38a1.71,1.71,0,0,1-1.09,1.23,26.42,26.42,0,0,1-4.82,2.17C194,145.38,195.56,145.07,195.62,144.22Z"/><path class="cls-162" d="M181.36,153.2l.34.78c-.46.82-1.3,1-1.62.23S180.86,153.48,181.36,153.2Z"/><path class="cls-163" d="M156.58,101.4c.64-.91-.22-1.15-.71-1.55,1.63.3,2.21-1.07,3.1-1.95l1.53-.35c-.85,1-2.15,1.45-2.76,2.65C157.26,100.51,157.3,101.32,156.58,101.4Z"/><path class="cls-164" d="M199.1,195.26c.3-.32.56-.8.92-.88s.14.5.14.79c-.28.34-.41.65.18.81l2.38.6c-1.54.68-2.59.12-3.67-.17a.82.82,0,0,1,0-1.15Z"/><path class="cls-165" d="M203.28,194.4c-.41-.11-1-.2-1-.67s.47-.83,1-.79c.31,0,.85-.21.84.38A1,1,0,0,1,203.28,194.4Z"/><path class="cls-99" d="M199.1,195.26c0,.38,0,.77,0,1.15-.41-.15-1.16.31-1.2-.41S198.48,195.19,199.1,195.26Z"/><path class="cls-149" d="M92,178.33a1.25,1.25,0,0,1-1.61-1c0-.05.26-.27.42-.29C91.82,177,91.48,178,92,178.33Z"/><path class="cls-166" d="M170.09,212.23c.09.71,0,1.21-.94,1.22a2.8,2.8,0,0,1-2.43-1.18c-.23-.33.37-.69.42-.63.8,1.22,2.05.14,3,.61Z"/><path class="cls-167" d="M113.72,202.19c.06-.71-.21-1.65,1-1.56a2.55,2.55,0,0,1,2.56,1.89c.16,1-.94.94-1.68.67s-1.15-.94-1.94-1Z"/><path class="cls-49" d="M210.66,224.59c0,.68,1.81,1.41-.06,2C210.26,225.93,209.75,225.24,210.66,224.59Z"/><path class="cls-168" d="M247.78,163.18c.14.38.52.7.36,1.18H246.2A1.93,1.93,0,0,1,247.78,163.18Z"/><path class="cls-169" d="M134.33,135.93c.93.18,1.93.36,2.91.58.45.1,1.22-.07,1,.72-.13.59-.52,1.23-1.32,1.1-1-.16-2-.4-3-.59-.58-.11-1.2-.15-1-1A1,1,0,0,1,134.33,135.93Z"/><path class="cls-170" d="M227.54,53.84a1,1,0,0,1-.58-.19,21.85,21.85,0,0,1-8.15-11c-1.32-4.27-.8-8.33,1.46-11.43s6-4.82,10.44-4.87a21.92,21.92,0,0,1,12.92,4.42c7.5,5.48,10.77,14.12,7.77,20.56a1,1,0,0,1-1.81-.85c2.55-5.48-.51-13.25-7.14-18.09a19.89,19.89,0,0,0-11.72-4c-3.82,0-7,1.48-8.84,4s-2.3,6-1.17,9.66A19.87,19.87,0,0,0,228.14,52a1,1,0,0,1-.6,1.8Z"/><polygon class="cls-170" points="259.72 46.72 258.71 44.99 250.21 49.98 245.85 41.13 244.06 42.01 249.36 52.79 259.72 46.72"/><path class="cls-171" d="M41.24,155.26a11.16,11.16,0,0,1-3.33-.5c-7.56-2.34-11.24-12.21-8.21-22,2.71-8.75,10.08-14.75,17.13-14a1,1,0,0,1-.22,2c-6.12-.69-12.57,4.71-15,12.56-2.7,8.75.39,17.5,6.89,19.51s14-3.46,16.7-12.21a1,1,0,1,1,1.92.6C54.52,149.61,47.85,155.26,41.24,155.26Z"/><polygon class="cls-171" points="39.8 112.34 38.48 113.85 45.9 120.35 38.87 127.27 40.27 128.69 48.83 120.26 39.8 112.34"/><path class="cls-172" d="M113.49,94.26a12.72,12.72,0,0,1-10-4.25c-5.11-6.05-2.88-16.35,5-23a1,1,0,1,1,1.29,1.52c-7,5.91-9.12,14.94-4.73,20.15s13.66,4.63,20.66-1.27c6.28-5.3,8.74-13.34,5.72-18.71a1,1,0,0,1,1.74-1C136.65,74,134,83.07,127,89A21.4,21.4,0,0,1,113.49,94.26Z"/><polygon class="cls-172" points="126.61 77.66 128.47 78.4 132.1 69.23 140.98 73.52 141.85 71.72 131.03 66.49 126.61 77.66"/></g></g></svg>