<svg xmlns="http://www.w3.org/2000/svg" viewBox="0 0 595.28 157.77"><defs><style>.cls-1{fill:#21222b;}.cls-2{opacity:0.17;}.cls-3{fill:#e8e8e8;}.cls-4{fill:#fff;}.cls-5{fill:#231f20;}.cls-6{fill:#ff5100;}.cls-7{fill:none;}</style></defs><g id="Layer_2" data-name="Layer 2"><g id="Layer_1-2" data-name="Layer 1"><rect class="cls-1" x="67.66" y="21.98" width="255.12" height="135.79"/><rect x="73.83" y="28.16" width="242.77" height="123.44"/><g class="cls-2"><polygon class="cls-3" points="303.01 21.98 76.78 157.77 322.77 157.77 322.77 21.98 303.01 21.98"/></g><rect class="cls-4" x="73.83" y="28.16" width="3.75" height="3.75"/><rect class="cls-4" x="312.85" y="28.16" width="3.75" height="3.75"/><rect class="cls-4" x="73.83" y="147.85" width="3.75" height="3.75"/><rect class="cls-4" x="312.85" y="147.85" width="3.75" height="3.75"/><path class="cls-5" d="M9.46,32.06H8.09L11.89,27l.67-.85,2.91-4h1.36L13.2,27l-.66.87Zm6.18,0-3.1-4.22L11.89,27,8.27,22.1H9.65l2.91,4,.64.87L17,32.06Z"/><path class="cls-5" d="M18,25.18h1.45v1.45H18Zm0,5.44h1.45v1.44H18Z"/><path class="cls-5" d="M24.54,32.18a3,3,0,0,1-2.6-1.3,6.73,6.73,0,0,1-.88-3.8,6.73,6.73,0,0,1,.88-3.8,3,3,0,0,1,2.6-1.3,3,3,0,0,1,2.61,1.3A6.8,6.8,0,0,1,28,27.07a6.73,6.73,0,0,1-.89,3.8A3,3,0,0,1,24.54,32.18Zm0-1a1.9,1.9,0,0,0,1.76-1,6.57,6.57,0,0,0,.57-3.13A6.5,6.5,0,0,0,26.3,24a2,2,0,0,0-3.51,0,6.48,6.48,0,0,0-.57,3.11,6.57,6.57,0,0,0,.57,3.13A1.87,1.87,0,0,0,24.54,31.21Z"/><path class="cls-5" d="M36.06,32.06V27.58l.26.82-4.18-6.3h1.35l3.36,5.2h-.39l3.36-5.2h1.31L37,28.4l.24-.82v4.48Z"/><path class="cls-5" d="M41.43,25.18h1.44v1.45H41.43Zm0,5.44h1.44v1.44H41.43Z"/><path class="cls-5" d="M48,32.18a2.93,2.93,0,0,1-2.59-1.3,6.65,6.65,0,0,1-.89-3.8,6.73,6.73,0,0,1,.88-3.8,3.26,3.26,0,0,1,5.21,0,6.72,6.72,0,0,1,.88,3.79,6.73,6.73,0,0,1-.89,3.8A3,3,0,0,1,48,32.18Zm0-1a1.89,1.89,0,0,0,1.76-1,6.57,6.57,0,0,0,.57-3.13A6.5,6.5,0,0,0,49.72,24a2,2,0,0,0-3.51,0,6.48,6.48,0,0,0-.57,3.11,6.57,6.57,0,0,0,.57,3.13A1.87,1.87,0,0,0,48,31.21Z"/><path class="cls-5" d="M1.37,157.66H0l3.79-5.11.68-.85,2.91-4H8.74l-3.63,4.87-.66.87Zm6.18,0-3.1-4.23-.66-.88L.18,147.69H1.55l2.92,4,.64.86,3.79,5.1Z"/><path class="cls-5" d="M9.91,150.77h1.44v1.46H9.91Zm0,5.45h1.44v1.44H9.91Z"/><path class="cls-5" d="M16.45,157.77a3,3,0,0,1-2.6-1.29,6.75,6.75,0,0,1-.89-3.8,6.88,6.88,0,0,1,.88-3.81,3,3,0,0,1,2.61-1.29,2.94,2.94,0,0,1,2.6,1.29,8.64,8.64,0,0,1,0,7.6A3,3,0,0,1,16.45,157.77Zm0-1a1.9,1.9,0,0,0,1.76-1,6.76,6.76,0,0,0,.56-3.14,6.57,6.57,0,0,0-.56-3.11,1.9,1.9,0,0,0-1.76-1,1.9,1.9,0,0,0-1.76,1,6.51,6.51,0,0,0-.57,3.11,6.62,6.62,0,0,0,.57,3.14A1.9,1.9,0,0,0,16.45,156.81Z"/><path class="cls-5" d="M28,157.66v-4.48l.25.81-4.17-6.3h1.34l3.36,5.21h-.39l3.36-5.21H33L28.88,154l.24-.81v4.48Z"/><path class="cls-5" d="M33.33,150.77h1.45v1.46H33.33Zm0,5.45h1.45v1.44H33.33Z"/><path class="cls-5" d="M40.19,157.77a3.33,3.33,0,0,1-2.78-1.25,5.68,5.68,0,0,1-1-3.59,8.24,8.24,0,0,1,.45-2.89,3.92,3.92,0,0,1,1.32-1.83,3.38,3.38,0,0,1,2.06-.63,4.59,4.59,0,0,1,1.68.31,4.37,4.37,0,0,1,1.44.92l-.43.88a5.27,5.27,0,0,0-1.35-.87,3.38,3.38,0,0,0-1.31-.27,2.23,2.23,0,0,0-2,1.14,6,6,0,0,0-.71,3.22v1.21l-.17-.38a2.6,2.6,0,0,1,.51-1.24,2.78,2.78,0,0,1,1-.81,3.41,3.41,0,0,1,3,.11A2.91,2.91,0,0,1,43,152.91a3.42,3.42,0,0,1,.39,1.66,3.36,3.36,0,0,1-.41,1.65,3.12,3.12,0,0,1-1.14,1.14A3.32,3.32,0,0,1,40.19,157.77Zm0-1a2.07,2.07,0,0,0,1.54-.61,2.25,2.25,0,0,0,.58-1.62,2.2,2.2,0,0,0-.58-1.6,2,2,0,0,0-1.56-.61,2.3,2.3,0,0,0-1.15.28,2.19,2.19,0,0,0-.78.79,2.24,2.24,0,0,0-.28,1.14,2.3,2.3,0,0,0,.28,1.17,2.09,2.09,0,0,0,.78.78A2.47,2.47,0,0,0,40.14,156.81Z"/><path class="cls-5" d="M48.17,157.76a5.49,5.49,0,0,1-1.85-.32,4.39,4.39,0,0,1-1.51-.91l.45-.89a4.82,4.82,0,0,0,1.39.86,3.78,3.78,0,0,0,1.5.29,2.45,2.45,0,0,0,1.61-.47,1.76,1.76,0,0,0,.56-1.4,1.66,1.66,0,0,0-.58-1.38,2.7,2.7,0,0,0-1.72-.46H46.87v-1h.92a2.63,2.63,0,0,0,1.7-.49,1.74,1.74,0,0,0,.59-1.4,1.56,1.56,0,0,0-.49-1.25,2,2,0,0,0-1.36-.43,3.73,3.73,0,0,0-1.44.28,5.36,5.36,0,0,0-1.39.86l-.43-.88a4.29,4.29,0,0,1,1.48-.9,5.18,5.18,0,0,1,1.82-.33,3.67,3.67,0,0,1,1.57.31,2.37,2.37,0,0,1,1,.89,2.53,2.53,0,0,1,.36,1.36,2.61,2.61,0,0,1-.49,1.58,2.43,2.43,0,0,1-1.32.89l0-.14a2.62,2.62,0,0,1,1.54.85,2.82,2.82,0,0,1-.35,3.69A3.59,3.59,0,0,1,48.17,157.76Z"/><path class="cls-5" d="M331,32.06h-1.37L333.37,27l.67-.85,2.92-4h1.35L334.69,27l-.66.87Zm6.17,0L334,27.84l-.66-.89-3.61-4.85h1.37l2.91,4,.65.87,3.79,5.09Z"/><path class="cls-5" d="M339.49,25.18h1.44v1.45h-1.44Zm0,5.44h1.44v1.44h-1.44Z"/><path class="cls-5" d="M343.62,32.06v-1h5.56v1Zm2.2-.51V22.77l.65.33-2.7,1.73V23.72l2.55-1.62H347v9.45Z"/><path class="cls-5" d="M351.39,32.06V31.2l3.49-3.87a7.39,7.39,0,0,0,1-1.41,2.8,2.8,0,0,0,.32-1.26,1.65,1.65,0,0,0-.48-1.27,2,2,0,0,0-1.36-.44,3.72,3.72,0,0,0-1.42.29,5.41,5.41,0,0,0-1.4.86l-.44-.88a4.15,4.15,0,0,1,1.49-.9,5.17,5.17,0,0,1,1.8-.34,3.68,3.68,0,0,1,1.58.32,2.44,2.44,0,0,1,1,.9,2.63,2.63,0,0,1,.36,1.4,3.83,3.83,0,0,1-.38,1.65A7.79,7.79,0,0,1,355.71,28l-3.36,3.64-.08-.56h5.53v1Z"/><path class="cls-5" d="M361.44,32.06h-1.23l4.88-9.46.1.46h-5.65v-1h6.58V23Z"/><path class="cls-5" d="M374.35,32.06V27.58l.25.82-4.17-6.3h1.34l3.36,5.2h-.39l3.36-5.2h1.32l-4.16,6.3.24-.82v4.48Z"/><path class="cls-5" d="M379.71,25.18h1.44v1.45h-1.44Zm0,5.44h1.44v1.44h-1.44Z"/><path class="cls-5" d="M386.25,32.18a2.94,2.94,0,0,1-2.6-1.3,6.73,6.73,0,0,1-.89-3.8,6.82,6.82,0,0,1,.88-3.8,3.26,3.26,0,0,1,5.21,0,6.72,6.72,0,0,1,.88,3.79,6.65,6.65,0,0,1-.89,3.8A2.93,2.93,0,0,1,386.25,32.18Zm0-1a1.87,1.87,0,0,0,1.75-1,6.57,6.57,0,0,0,.57-3.13A6.5,6.5,0,0,0,388,24a1.87,1.87,0,0,0-1.75-1,1.89,1.89,0,0,0-1.76,1,6.48,6.48,0,0,0-.57,3.11,6.57,6.57,0,0,0,.57,3.13A1.89,1.89,0,0,0,386.25,31.21Z"/><path class="cls-5" d="M331,157.66h-1.37l3.79-5.11.67-.85,2.92-4h1.35l-3.62,4.87-.66.87Zm6.17,0L334,153.43l-.66-.88-3.61-4.86h1.37l2.91,4,.65.86,3.79,5.1Z"/><path class="cls-5" d="M339.49,150.77h1.44v1.46h-1.44Zm0,5.45h1.44v1.44h-1.44Z"/><path class="cls-5" d="M343.62,157.66v-1h5.56v1Zm2.2-.52v-8.78l.65.34-2.7,1.72v-1.1l2.55-1.63H347v9.45Z"/><path class="cls-5" d="M351.39,157.66v-.87l3.49-3.86a7.42,7.42,0,0,0,1-1.42,2.8,2.8,0,0,0,.32-1.26,1.61,1.61,0,0,0-.48-1.26,1.9,1.9,0,0,0-1.36-.44,3.71,3.71,0,0,0-1.42.28,5.41,5.41,0,0,0-1.4.86l-.44-.88a4.28,4.28,0,0,1,1.49-.89,5,5,0,0,1,1.8-.34,3.68,3.68,0,0,1,1.58.32,2.44,2.44,0,0,1,1,.9,2.63,2.63,0,0,1,.36,1.4,3.75,3.75,0,0,1-.38,1.64,7.79,7.79,0,0,1-1.29,1.77l-3.36,3.64-.08-.56h5.53v1Z"/><path class="cls-5" d="M361.44,157.66h-1.23l4.88-9.46.1.46h-5.65v-1h6.58v.86Z"/><path class="cls-5" d="M374.35,157.66v-4.48l.25.81-4.17-6.3h1.34l3.36,5.21h-.39l3.36-5.21h1.32l-4.16,6.3.24-.81v4.48Z"/><path class="cls-5" d="M379.71,150.77h1.44v1.46h-1.44Zm0,5.45h1.44v1.44h-1.44Z"/><path class="cls-5" d="M386.57,157.77a3.36,3.36,0,0,1-2.79-1.25,5.75,5.75,0,0,1-1-3.59,8.22,8.22,0,0,1,.46-2.89,3.85,3.85,0,0,1,1.32-1.83,3.38,3.38,0,0,1,2.06-.63,4.6,4.6,0,0,1,1.68.32,4.35,4.35,0,0,1,1.44.91l-.43.88a5.27,5.27,0,0,0-1.35-.87,3.41,3.41,0,0,0-1.31-.27,2.23,2.23,0,0,0-2,1.14,6,6,0,0,0-.72,3.22v1.21l-.17-.38a2.66,2.66,0,0,1,1.54-2.05,3.11,3.11,0,0,1,1.35-.29,3.17,3.17,0,0,1,1.62.4,2.84,2.84,0,0,1,1.09,1.11,3.32,3.32,0,0,1,.4,1.66,3.27,3.27,0,0,1-.42,1.65,3,3,0,0,1-1.13,1.14A3.32,3.32,0,0,1,386.57,157.77Zm-.06-1a2.06,2.06,0,0,0,1.54-.61,2.21,2.21,0,0,0,.59-1.62,2.17,2.17,0,0,0-.59-1.6,2,2,0,0,0-1.55-.61,2.21,2.21,0,0,0-1.15.29,2,2,0,0,0-.78.78,2.24,2.24,0,0,0-.28,1.14,2.3,2.3,0,0,0,.28,1.17,2,2,0,0,0,.78.78A2.46,2.46,0,0,0,386.51,156.81Z"/><path class="cls-5" d="M394.55,157.76a5.49,5.49,0,0,1-1.85-.32,4.29,4.29,0,0,1-1.51-.91l.45-.89a4.91,4.91,0,0,0,1.38.86,3.85,3.85,0,0,0,1.5.29,2.46,2.46,0,0,0,1.62-.47,1.75,1.75,0,0,0,.55-1.4,1.65,1.65,0,0,0-.57-1.38,2.7,2.7,0,0,0-1.72-.46h-1.15v-1h.92a2.65,2.65,0,0,0,1.7-.49,1.73,1.73,0,0,0,.58-1.4A1.59,1.59,0,0,0,396,149a2,2,0,0,0-1.36-.43,3.82,3.82,0,0,0-1.45.28,5.48,5.48,0,0,0-1.38.86l-.44-.88a4.43,4.43,0,0,1,1.49-.9,5.14,5.14,0,0,1,1.82-.33,3.67,3.67,0,0,1,1.57.32,2.41,2.41,0,0,1,1,.88,2.83,2.83,0,0,1-.13,2.94,2.43,2.43,0,0,1-1.32.89l-.05-.14a2.56,2.56,0,0,1,1.54.85,2.47,2.47,0,0,1,.54,1.64,2.54,2.54,0,0,1-.89,2A3.55,3.55,0,0,1,394.55,157.76Z"/><rect class="cls-4" x="153.42" y="96.23" width="2.12" height="2.12"/><rect class="cls-4" x="153.42" y="83.88" width="2.12" height="2.12"/><rect class="cls-4" x="155.89" y="96.23" width="2.12" height="2.12"/><rect class="cls-4" x="158.36" y="96.23" width="2.12" height="2.12"/><rect class="cls-4" x="155.89" y="91.29" width="2.12" height="2.12"/><rect class="cls-4" x="155.89" y="93.76" width="2.12" height="2.12"/><rect class="cls-4" x="155.89" y="88.82" width="2.12" height="2.12"/><rect class="cls-4" x="155.89" y="86.35" width="2.12" height="2.12"/><rect class="cls-4" x="155.89" y="83.88" width="2.12" height="2.12"/><rect class="cls-4" x="155.89" y="81.41" width="2.12" height="2.12"/><rect class="cls-4" x="168.23" y="91.29" width="2.12" height="2.12"/><rect class="cls-4" x="168.23" y="96.23" width="2.12" height="2.12"/><rect class="cls-4" x="168.23" y="81.41" width="2.12" height="2.12"/><rect class="cls-4" x="165.77" y="93.76" width="2.12" height="2.12"/><rect class="cls-4" x="165.77" y="96.23" width="2.12" height="2.12"/><rect class="cls-4" x="165.77" y="83.88" width="2.12" height="2.12"/><rect class="cls-4" x="173.17" y="88.82" width="2.12" height="2.12"/><rect class="cls-4" x="173.17" y="96.23" width="2.12" height="2.12"/><rect class="cls-4" x="173.17" y="81.41" width="2.12" height="2.12"/><rect class="cls-4" x="170.7" y="96.23" width="2.12" height="2.12"/><rect class="cls-4" x="170.7" y="88.82" width="2.12" height="2.12"/><rect class="cls-4" x="170.7" y="81.41" width="2.12" height="2.12"/><rect class="cls-4" x="175.64" y="96.23" width="2.12" height="2.12"/><rect class="cls-4" x="175.64" y="86.35" width="2.12" height="2.12"/><rect class="cls-4" x="175.64" y="83.88" width="2.12" height="2.12"/><rect class="cls-4" x="187.99" y="96.23" width="2.12" height="2.12"/><rect class="cls-4" x="187.99" y="88.82" width="2.12" height="2.12"/><rect class="cls-4" x="187.99" y="81.41" width="2.12" height="2.12"/><rect class="cls-4" x="185.52" y="88.82" width="2.12" height="2.12"/><rect class="cls-4" x="185.52" y="96.23" width="2.12" height="2.12"/><rect class="cls-4" x="185.52" y="81.41" width="2.12" height="2.12"/><rect class="cls-4" x="190.45" y="86.35" width="2.12" height="2.12"/><rect class="cls-4" x="190.45" y="91.29" width="2.12" height="2.12"/><rect class="cls-4" x="190.45" y="93.76" width="2.12" height="2.12"/><rect class="cls-4" x="190.45" y="83.88" width="2.12" height="2.12"/><rect class="cls-4" x="183.05" y="88.82" width="2.12" height="2.12"/><rect class="cls-4" x="183.05" y="96.23" width="2.12" height="2.12"/><rect class="cls-4" x="183.05" y="81.41" width="2.12" height="2.12"/><rect class="cls-4" x="180.58" y="83.88" width="2.12" height="2.12"/><rect class="cls-4" x="180.58" y="86.35" width="2.12" height="2.12"/><rect class="cls-4" x="180.58" y="93.76" width="2.12" height="2.12"/><rect class="cls-4" x="180.58" y="91.29" width="2.12" height="2.12"/><rect class="cls-4" x="205.27" y="86.35" width="2.12" height="2.12"/><rect class="cls-4" x="205.27" y="96.23" width="2.12" height="2.12"/><rect class="cls-4" x="197.86" y="88.82" width="2.12" height="2.12"/><rect class="cls-4" x="197.86" y="93.76" width="2.12" height="2.12"/><rect class="cls-4" x="195.39" y="86.35" width="2.12" height="2.12"/><rect class="cls-4" x="195.39" y="96.23" width="2.12" height="2.12"/><rect class="cls-4" x="202.8" y="88.82" width="2.12" height="2.12"/><rect class="cls-4" x="202.8" y="93.76" width="2.12" height="2.12"/><rect class="cls-4" x="200.33" y="91.29" width="2.12" height="2.12"/><rect class="cls-4" x="212.68" y="83.88" width="2.12" height="2.12"/><rect class="cls-4" x="212.68" y="88.82" width="2.12" height="2.12"/><rect class="cls-4" x="212.68" y="96.23" width="2.12" height="2.12"/><rect class="cls-4" x="210.21" y="88.82" width="2.12" height="2.12"/><rect class="cls-4" x="210.21" y="91.29" width="2.12" height="2.12"/><rect class="cls-4" x="210.21" y="93.76" width="2.12" height="2.12"/><rect class="cls-4" x="210.21" y="86.35" width="2.12" height="2.12"/><rect class="cls-4" x="217.61" y="88.82" width="2.12" height="2.12"/><rect class="cls-4" x="217.61" y="96.23" width="2.12" height="2.12"/><rect class="cls-4" x="217.61" y="81.41" width="2.12" height="2.12"/><rect class="cls-4" x="215.14" y="88.82" width="2.12" height="2.12"/><rect class="cls-4" x="215.14" y="96.23" width="2.12" height="2.12"/><rect class="cls-4" x="215.14" y="81.41" width="2.12" height="2.12"/><rect class="cls-4" x="220.08" y="93.76" width="2.12" height="2.12"/><rect class="cls-4" x="220.08" y="91.29" width="2.12" height="2.12"/><rect class="cls-4" x="232.43" y="96.23" width="2.12" height="2.12"/><rect class="cls-4" x="232.43" y="91.29" width="2.12" height="2.12"/><rect class="cls-4" x="232.43" y="88.82" width="2.12" height="2.12"/><rect class="cls-4" x="232.43" y="86.35" width="2.12" height="2.12"/><rect class="cls-4" x="232.43" y="93.76" width="2.12" height="2.12"/><rect class="cls-4" x="232.43" y="83.88" width="2.12" height="2.12"/><rect class="cls-4" x="232.43" y="81.41" width="2.12" height="2.12"/><rect class="cls-4" x="229.96" y="91.29" width="2.12" height="2.12"/><rect class="cls-4" x="229.96" y="83.88" width="2.12" height="2.12"/><rect class="cls-4" x="234.9" y="91.29" width="2.12" height="2.12"/><rect class="cls-4" x="227.49" y="86.35" width="2.12" height="2.12"/><rect class="cls-4" x="227.49" y="91.29" width="2.12" height="2.12"/><rect class="cls-4" x="225.02" y="91.29" width="2.12" height="2.12"/><rect class="cls-4" x="225.02" y="88.82" width="2.12" height="2.12"/><circle class="cls-6" cx="60.66" cy="14.98" r="2"/><path class="cls-6" d="M60.66,157.19a.5.5,0,0,1-.5-.5V22a.5.5,0,0,1,.5-.5.51.51,0,0,1,.5.5V156.69A.51.51,0,0,1,60.66,157.19Z"/><polygon class="cls-6" points="56.57 153.37 57.3 152.69 60.66 156.3 64.01 152.69 64.75 153.37 60.66 157.77 56.57 153.37"/><path class="cls-6" d="M321.69,15.48h-254a.5.5,0,0,1-.5-.5.5.5,0,0,1,.5-.5h254a.5.5,0,0,1,.5.5A.5.5,0,0,1,321.69,15.48Z"/><polygon class="cls-6" points="318.38 19.07 317.69 18.34 321.31 14.98 317.69 11.63 318.38 10.89 322.77 14.98 318.38 19.07"/><polygon class="cls-5" points="48.83 84.89 45.83 84.89 43.27 88.88 40.75 84.89 37.78 84.89 41.97 91.04 41.97 94.86 44.61 94.86 44.61 91.06 48.83 84.89"/><polygon class="cls-5" points="55.53 89.03 52.94 89.03 52.94 86.43 51.23 86.43 51.23 89.03 48.65 89.03 48.65 90.72 51.23 90.72 51.23 93.33 52.94 93.33 52.94 90.72 55.53 90.72 55.53 89.03"/><polygon points="196.84 0 193.79 0 191.59 3.02 189.43 0 186.4 0 190.11 4.93 186.31 9.97 189.36 9.97 191.6 6.86 193.83 9.97 196.9 9.97 193.09 4.93 196.84 0"/><polygon points="201.53 4.14 201.53 1.53 199.82 1.53 199.82 4.14 197.23 4.14 197.23 5.83 199.82 5.83 199.82 8.44 201.53 8.44 201.53 5.83 204.12 5.83 204.12 4.14 201.53 4.14"/><rect class="cls-7" width="595.28" height="18"/></g></g></svg>